<svg width="105" height="31" viewBox="0 0 105 31" fill="none" xmlns="http://www.w3.org/2000/svg">
<path fill-rule="evenodd" clip-rule="evenodd" d="M57.0889 10.1562H60.8044V23.0516H57.0889V10.1562Z" fill="#A0A0A0"/>
<path d="M54.6941 15.4146C54.2934 14.6823 53.7207 14.0563 53.0298 13.5932C53.884 12.628 54.3876 11.3461 54.3261 9.94276C54.2005 7.1599 51.8139 5.01172 49.0204 5.01172H41.2754V23.0471H50.1371C52.9997 23.0471 55.3209 20.735 55.3209 17.8795C55.3209 16.9869 55.0948 16.1482 54.6941 15.4146ZM49.5605 19.9864H44.9896V15.5598H49.5341C50.7274 15.5598 51.7373 16.505 51.7373 17.7743C51.7373 19.0274 50.7299 19.9864 49.5605 19.9864ZM48.5896 12.499H44.9896V8.07375H48.5619C49.7565 8.07375 50.7664 9.01764 50.7664 10.287C50.7638 11.5389 49.7565 12.499 48.5896 12.499Z" fill="#A0A0A0"/>
<path d="M104.757 5.54688H100.482L97.1434 10.881L93.806 5.54688H89.5303L95.0068 14.2973L89.5303 23.049H93.806L97.1434 17.7149L100.482 23.049H104.757L99.2812 14.2973L104.757 5.54688Z" fill="#A0A0A0"/>
<path d="M74.0537 15.8783V23.0502H70.3395V15.2361C70.3395 14.0994 69.3987 13.1818 68.2481 13.2144C67.1402 13.2482 66.2848 14.2133 66.2848 15.32V23.0477H62.5693V10.1523H66.2848V10.767C67.1214 10.3727 68.0534 10.1523 69.0394 10.1523C69.5331 10.1523 70.0141 10.2074 70.4764 10.3126C72.5351 10.7795 73.9896 12.6122 74.0424 14.7153C74.0499 15.0934 74.0537 15.484 74.0537 15.8783Z" fill="#A0A0A0"/>
<path fill-rule="evenodd" clip-rule="evenodd" d="M57.0889 5.01562H60.8044V8.7186H57.0889V5.01562Z" fill="#A0A0A0"/>
<path d="M88.5381 10.1548H82.1308C82.1095 10.1548 82.0894 10.1523 82.0668 10.1523C78.4945 10.1523 75.5979 13.0404 75.5979 16.6019C75.5979 20.1459 78.4656 23.0201 82.0115 23.0464C82.0278 23.0502 82.0467 23.0502 82.0668 23.0502C83.4459 23.0502 84.8226 23.4533 84.8226 24.6488C84.8226 25.8618 83.5753 26.8921 82.0668 26.8921C80.5456 26.8921 79.3122 25.6628 79.3122 24.1468H75.5967C75.5967 27.707 78.4945 30.5951 82.0655 30.5951C85.6403 30.5951 88.5343 27.707 88.5343 24.1468C88.5343 24.1468 88.6059 22.2202 86.9667 20.8106C87.9465 19.6827 88.5356 18.2143 88.5356 16.6019C88.5356 15.3588 88.1839 14.1996 87.5722 13.2156H88.5381V10.1548ZM82.0668 19.3472C80.5456 19.3472 79.3122 18.1179 79.3122 16.6019C79.3122 15.0859 80.5456 13.8566 82.0668 13.8566C83.5879 13.8566 84.8226 15.0859 84.8226 16.6019C84.8226 18.1179 83.5879 19.3472 82.0668 19.3472Z" fill="#A0A0A0"/>
<path d="M35.1813 0.550781C31.207 0.550781 27.278 1.55226 23.8162 3.44882C21.9622 4.46407 20.2502 5.72343 18.7291 7.19435C18.3711 7.53861 18.0207 7.89915 17.6853 8.26719C16.5636 9.49901 15.5688 10.851 14.7335 12.2844C14.437 12.7989 14.108 13.3009 13.7562 13.7803C13.7098 13.8429 13.6658 13.9055 13.6156 13.9669C10.5394 18.0241 5.85297 20.3501 0.758301 20.3501V27.8461C4.73255 27.8461 8.66158 26.8447 12.1233 24.9494C13.9736 23.9366 15.6856 22.6747 17.2105 21.2038C17.5685 20.8583 17.9189 20.4978 18.2555 20.131C19.3785 18.8979 20.3695 17.5484 21.2048 16.1138L21.2601 16.0212C21.5427 15.5379 21.8542 15.0672 22.1821 14.6191C22.2285 14.5577 22.275 14.4939 22.324 14.4288C25.3989 10.3728 30.0866 8.04561 35.1813 8.04561V0.550781Z" fill="#A0A0A0"/>
<path d="M35.1813 20.3527C30.0866 20.3527 25.3989 18.0255 22.3215 13.9683C22.2763 13.9069 22.2285 13.8456 22.1821 13.7792C21.8316 13.3035 21.5025 12.8003 21.2061 12.2845C20.3708 10.8524 19.3772 9.50167 18.2543 8.26859C17.9189 7.90305 17.5685 7.54252 17.2105 7.19701C15.6894 5.72608 13.9786 4.46547 12.1233 3.45147C8.66158 1.55617 4.73255 0.554688 0.758301 0.554688V8.05077C5.85297 8.05077 10.5407 10.3767 13.6181 14.434C13.6658 14.4953 13.711 14.5591 13.7575 14.6205C14.0879 15.0699 14.3994 15.5418 14.6782 16.0201L14.7373 16.1177C15.5713 17.5486 16.5636 18.8981 17.6853 20.1324C18.0194 20.4979 18.3711 20.8585 18.7291 21.204C20.2527 22.6749 21.9648 23.9368 23.8162 24.9495C27.278 26.8448 31.207 27.8463 35.1813 27.8463V20.3527Z" fill="#A0A0A0"/>
</svg>
