<svg width="105" height="31" viewBox="0 0 105 31" fill="none" xmlns="http://www.w3.org/2000/svg">
<path fill-rule="evenodd" clip-rule="evenodd" d="M56.9307 9.7168H60.6462V22.6121H56.9307V9.7168Z" fill="#A0A0A0"/>
<path d="M54.5349 14.9751C54.1343 14.2428 53.5615 13.6169 52.8706 13.1537C53.7248 12.1885 54.2285 10.9066 54.1669 9.50331C54.0413 6.72044 51.6547 4.57227 48.8612 4.57227H41.1162V22.6077H49.9779C52.8405 22.6077 55.1617 20.2955 55.1617 17.44C55.1617 16.5475 54.9356 15.7087 54.5349 14.9751ZM49.4013 19.5469H44.8305V15.1204H49.375C50.5682 15.1204 51.5781 16.0655 51.5781 17.3349C51.5781 18.588 50.5708 19.5469 49.4013 19.5469ZM48.4304 12.0596H44.8305V7.63429H48.4027C49.5973 7.63429 50.6072 8.57819 50.6072 9.84757C50.6047 11.0994 49.5973 12.0596 48.4304 12.0596Z" fill="#A0A0A0"/>
<path d="M104.597 5.10742H100.323L96.9842 10.4416L93.6468 5.10742H89.3711L94.8476 13.8579L89.3711 22.6095H93.6468L96.9842 17.2754L100.323 22.6095H104.597L99.1221 13.8579L104.597 5.10742Z" fill="#A0A0A0"/>
<path d="M73.8945 15.4369V22.6088H70.1803V14.7947C70.1803 13.658 69.2395 12.7404 68.0889 12.773C66.981 12.8068 66.1257 13.7719 66.1257 14.8786V22.6063H62.4102V9.71094H66.1257V10.3256C66.9622 9.93126 67.8942 9.71094 68.8802 9.71094C69.3739 9.71094 69.855 9.76602 70.3172 9.87117C72.3759 10.3381 73.8305 12.1708 73.8832 14.2739C73.8908 14.652 73.8945 15.0426 73.8945 15.4369Z" fill="#A0A0A0"/>
<path fill-rule="evenodd" clip-rule="evenodd" d="M56.9307 4.57422H60.6462V8.27719H56.9307V4.57422Z" fill="#A0A0A0"/>
<path d="M88.3789 9.71539H81.9716C81.9503 9.71539 81.9302 9.71289 81.9076 9.71289C78.3353 9.71289 75.4388 12.6009 75.4388 16.1624C75.4388 19.7064 78.3064 22.5807 81.8523 22.607C81.8686 22.6107 81.8875 22.6107 81.9076 22.6107C83.2868 22.6107 84.6634 23.0138 84.6634 24.2093C84.6634 25.4224 83.4161 26.4526 81.9076 26.4526C80.3865 26.4526 79.153 25.2233 79.153 23.7073H75.4375C75.4375 27.2676 78.3353 30.1556 81.9063 30.1556C85.4811 30.1556 88.3752 27.2676 88.3752 23.7073C88.3752 23.7073 88.4468 21.7807 86.8076 20.3711C87.7873 19.2432 88.3764 17.7748 88.3764 16.1624C88.3764 14.9193 88.0247 13.7601 87.413 12.7762H88.3789V9.71539ZM81.9076 18.9077C80.3865 18.9077 79.153 17.6784 79.153 16.1624C79.153 14.6464 80.3865 13.4171 81.9076 13.4171C83.4287 13.4171 84.6634 14.6464 84.6634 16.1624C84.6634 17.6784 83.4287 18.9077 81.9076 18.9077Z" fill="#A0A0A0"/>
<path d="M35.0226 0.111328C31.0483 0.111328 27.1193 1.11281 23.6575 3.00936C21.8036 4.02461 20.0915 5.28398 18.5704 6.7549C18.2124 7.09916 17.862 7.45969 17.5266 7.82774C16.4049 9.05956 15.4101 10.4116 14.5748 11.8449C14.2784 12.3594 13.9493 12.8614 13.5976 13.3409C13.5511 13.4035 13.5071 13.4661 13.4569 13.5274C10.3807 17.5847 5.69428 19.9106 0.599609 19.9106V27.4067C4.57386 27.4067 8.50288 26.4052 11.9647 24.5099C13.8149 23.4972 15.5269 22.2353 17.0518 20.7644C17.4098 20.4189 17.7602 20.0583 18.0968 19.6915C19.2198 18.4585 20.2108 17.109 21.0461 15.6743L21.1014 15.5817C21.384 15.0985 21.6955 14.6278 22.0234 14.1796C22.0698 14.1183 22.1163 14.0544 22.1653 13.9893C25.2402 9.93335 29.9279 7.60616 35.0226 7.60616V0.111328Z" fill="#A0A0A0"/>
<path d="M35.0226 19.9152C29.9279 19.9152 25.2402 17.588 22.1628 13.5308C22.1176 13.4694 22.0698 13.4081 22.0234 13.3417C21.6729 12.866 21.3438 12.3628 21.0474 11.847C20.2121 10.4149 19.2185 9.06417 18.0956 7.83109C17.7602 7.46555 17.4098 7.10502 17.0518 6.75951C15.5307 5.28858 13.8199 4.02797 11.9647 3.01397C8.50288 1.11867 4.57386 0.117188 0.599609 0.117188V7.61327C5.69428 7.61327 10.382 9.93921 13.4594 13.9965C13.5071 14.0578 13.5523 14.1216 13.5988 14.183C13.9292 14.6324 14.2407 15.1043 14.5195 15.5826L14.5786 15.6802C15.4126 17.1111 16.4049 18.4606 17.5266 19.6949C17.8607 20.0604 18.2124 20.421 18.5704 20.7665C20.094 22.2374 21.8061 23.4993 23.6575 24.512C27.1193 26.4073 31.0483 27.4088 35.0226 27.4088V19.9152Z" fill="#A0A0A0"/>
</svg>
