<svg width="111" height="29" viewBox="0 0 111 29" fill="none" xmlns="http://www.w3.org/2000/svg">
<g clip-path="url(#clip0_2320_1532)">
<path d="M109.042 8.85145C109.161 8.85145 109.281 8.85145 109.401 8.96997C109.52 9.0885 109.52 9.20702 109.52 9.32554V11.9331C109.52 12.0516 109.52 12.1701 109.401 12.2886C109.281 12.4072 109.161 12.4072 109.042 12.4072H106.77V22.8372C106.77 22.9558 106.77 23.0743 106.651 23.1928C106.531 23.3113 106.411 23.3113 106.292 23.3113H102.824C102.705 23.3113 102.585 23.3113 102.466 23.1928C102.346 23.0743 102.346 22.9558 102.346 22.8372V12.2886H100.074C99.9549 12.2886 99.8353 12.2886 99.7158 12.1701C99.5962 12.0516 99.5962 11.9331 99.5962 11.8145V9.20702C99.5962 9.0885 99.5962 8.96997 99.7158 8.85145C99.8353 8.85145 99.9549 8.85145 100.074 8.85145H102.346V5.17722C102.346 5.0587 102.346 4.94017 102.466 4.82165C102.585 4.70312 102.705 4.70312 102.824 4.70312H106.292C106.411 4.70312 106.531 4.70312 106.651 4.82165C106.77 4.94017 106.77 5.0587 106.77 5.17722V8.85145H109.042Z" fill="#A0A0A0"/>
<path d="M99.1181 15.8445C99.1181 16.4371 98.9985 16.9112 98.879 17.2667C98.7594 17.5038 98.5203 17.6223 98.042 17.6223H89.4333C89.6724 18.452 90.0311 19.0446 90.629 19.4002C91.2268 19.7557 92.0638 19.9928 93.0203 19.9928C93.4985 19.9928 93.9768 19.9928 94.3355 19.8743C94.8138 19.7557 95.292 19.5187 95.7703 19.1631C95.8898 19.0446 96.0094 19.0446 96.129 19.0446C96.2485 19.0446 96.3681 19.0446 96.4877 19.1631L98.042 20.5854C98.1616 20.7039 98.1616 20.7039 98.1616 20.8224C98.1616 20.941 98.1616 21.0595 98.042 21.178C97.3246 21.8892 96.6072 22.3632 95.6507 22.8373C94.8137 23.1929 93.8572 23.43 92.7811 23.43C91.3464 23.43 90.0311 23.0744 88.8355 22.4818C87.7594 21.7706 86.8029 20.941 86.2051 19.7557C85.6072 18.689 85.2485 17.3853 85.2485 16.0815C85.2485 14.7777 85.6072 13.474 86.2051 12.4073C86.8029 11.3406 87.7594 10.3924 88.8355 9.79975C89.9116 9.08861 91.1072 8.85156 92.542 8.85156C93.8572 8.85156 95.0529 9.20713 96.0094 9.79975C97.0855 10.3924 97.8029 11.3406 98.4007 12.4073C98.879 13.3555 99.1181 14.5407 99.1181 15.8445ZM92.4224 12.4073C91.7051 12.4073 90.9877 12.6443 90.5094 12.9999C89.9116 13.3555 89.6724 13.9481 89.4333 14.7777H95.292C95.1725 13.9481 94.8138 13.3555 94.3355 12.9999C93.7377 12.6443 93.1398 12.4073 92.4224 12.4073Z" fill="#A0A0A0"/>
<path d="M83.336 9.08995C83.4555 9.08995 83.5751 9.08995 83.6947 9.20847C83.8142 9.32699 83.8142 9.44552 83.8142 9.56404V23.1943C83.8142 24.6165 83.4555 25.8018 82.6186 26.6314C81.9012 27.5796 80.9447 28.1722 79.749 28.5278C78.5534 28.7649 77.4773 29.0019 76.1621 29.0019C74.9664 29.0019 73.7708 28.8834 72.6947 28.5278C71.6186 28.1722 70.6621 27.6981 69.9447 27.2241C69.8251 27.1055 69.8251 26.987 69.8251 26.8685C69.8251 26.75 69.8251 26.6314 69.8251 26.6314L70.9012 24.6165C71.0208 24.498 71.1403 24.3795 71.2599 24.3795C71.3795 24.3795 71.3795 24.3795 71.499 24.3795C72.0968 24.7351 72.8142 25.0906 73.5316 25.2092C74.249 25.3277 74.9664 25.4462 75.9229 25.4462C76.8795 25.4462 77.836 25.2092 78.5534 24.8536C79.3903 24.498 79.749 23.7869 79.749 22.8387V21.5349C78.6729 22.8387 77.2382 23.4313 75.5642 23.4313C74.249 23.4313 73.0534 23.0757 72.0968 22.4831C71.0208 21.772 70.1838 20.9423 69.586 19.7571C68.9882 18.6904 68.749 17.3866 68.749 16.0828C68.749 14.7791 68.9882 13.5938 69.586 12.4086C70.3034 11.2234 71.0208 10.3937 72.0968 9.68256C73.1729 8.97142 74.249 8.73438 75.5642 8.73438C77.1186 8.73438 78.4338 9.32699 79.6295 10.6308L79.749 9.44552C79.749 9.20847 79.9882 8.97142 80.2273 8.97142H83.336V9.08995ZM76.1621 19.4015C76.999 19.4015 77.836 19.0459 78.4338 18.3348C79.0316 17.6236 79.3903 16.9125 79.3903 15.9643C79.3903 15.0161 79.0316 14.305 78.4338 13.5938C77.836 12.8827 77.1186 12.5271 76.1621 12.5271C75.2055 12.5271 74.4882 12.8827 73.8903 13.4753C73.2925 14.0679 72.9338 14.8976 72.9338 15.8458C72.9338 16.794 73.1729 17.6236 73.7708 18.2163C74.4882 19.0459 75.2055 19.4015 76.1621 19.4015Z" fill="#A0A0A0"/>
<path d="M67.3138 8.85145C67.4334 8.85145 67.5529 8.85145 67.6725 8.96997C67.7921 9.0885 67.7921 9.20702 67.7921 9.32554V11.9331C67.7921 12.0516 67.7921 12.1701 67.6725 12.2886C67.5529 12.4072 67.4334 12.4072 67.3138 12.4072H65.0421V22.8372C65.0421 22.9558 65.0421 23.0743 64.9225 23.1928C64.8029 23.3113 64.6834 23.3113 64.5638 23.3113H61.0964C60.9769 23.3113 60.8573 23.3113 60.7377 23.1928C60.7377 23.0743 60.7377 22.9558 60.7377 22.8372V12.2886H58.3464C58.2269 12.2886 58.1073 12.2886 57.9877 12.1701C57.8682 12.0516 57.8682 11.9331 57.8682 11.8145V9.20702C57.8682 9.0885 57.8682 8.96997 57.9877 8.85145C58.1073 8.85145 58.2269 8.85145 58.3464 8.85145H60.7377V5.17722C60.7377 5.0587 60.7377 4.94017 60.8573 4.82165C60.9769 4.70312 61.0964 4.70312 61.216 4.70312H64.6834C64.8029 4.70312 64.9225 4.70312 65.0421 4.82165C65.1616 4.94017 65.1616 5.0587 65.1616 5.17722V8.85145H67.3138Z" fill="#A0A0A0"/>
<path d="M54.1609 7.66672C53.5631 7.66672 52.9652 7.42968 52.487 6.95558C52.1283 6.48149 51.8892 6.00739 51.8892 5.29625C51.8892 4.58511 52.1283 4.11102 52.6066 3.63692C52.9652 3.16283 53.5631 2.92578 54.1609 2.92578C54.7587 2.92578 55.3566 3.16283 55.8348 3.63692C56.3131 4.11102 56.5522 4.70363 56.5522 5.29625C56.5522 5.88887 56.3131 6.48149 55.8348 6.95558C55.3566 7.42968 54.8783 7.66672 54.1609 7.66672ZM52.0087 9.20753C52.0087 9.08901 52.0087 8.97048 52.1283 8.85196C52.2479 8.85196 52.3674 8.85196 52.487 8.85196H55.9544C56.0739 8.85196 56.1935 8.85196 56.3131 8.97048C56.4326 9.08901 56.4326 9.20753 56.4326 9.32605V22.8377C56.4326 22.9563 56.4326 23.0748 56.3131 23.1933C56.1935 23.3118 56.0739 23.3118 55.9544 23.3118H52.487C52.3674 23.3118 52.2479 23.3118 52.1283 23.1933C52.0087 23.0748 52.0087 22.9563 52.0087 22.8377V9.20753Z" fill="#A0A0A0"/>
<path d="M46.5092 12.4077C47.5853 12.6447 48.5418 13.2373 49.2592 14.1855C50.0962 15.1337 50.4549 16.2004 50.4549 17.3857C50.4549 19.282 49.857 20.8228 48.5418 21.771C47.3462 22.7192 45.4331 23.1933 42.9223 23.1933H35.8679C35.7483 23.1933 35.6288 23.1933 35.5092 23.0748C35.3896 22.9563 35.3896 22.8377 35.3896 22.7192V3.39988C35.3896 3.28135 35.3896 3.16283 35.5092 3.0443C35.5092 3.0443 35.6288 2.92578 35.7483 2.92578H42.8027C44.1179 2.92578 45.194 3.16283 46.031 3.63692C46.9875 4.11102 47.7049 4.70363 48.0636 5.5333C48.5418 6.36296 48.781 7.19263 48.781 8.25934C48.781 9.20753 48.5418 10.1557 48.0636 10.8669C47.7049 11.578 47.107 12.1706 46.5092 12.4077ZM44.7157 8.85196C44.7157 7.66672 43.9983 6.95558 42.444 6.95558H39.8136V10.8669H42.444C43.1614 10.8669 43.7592 10.7483 44.1179 10.3928C44.4766 10.0372 44.7157 9.44458 44.7157 8.85196ZM43.0418 19.282C43.8788 19.282 44.5962 19.045 45.194 18.6894C45.6723 18.3338 46.031 17.6227 46.031 16.9116C46.031 16.0819 45.7918 15.4893 45.194 15.1337C44.7157 14.7781 43.9983 14.5411 43.0418 14.5411H39.8136V19.282H43.0418Z" fill="#A0A0A0"/>
<path d="M10.6402 1.14731C10.9989 0.791735 11.4772 0.554688 11.9554 0.554688H15.4228C15.9011 0.554688 16.1402 1.02878 15.7815 1.38435L8.96629 8.73281H12.7924L16.6185 12.7626H8.96629L16.6185 20.9407H11.9554C11.4772 20.9407 10.8793 20.7037 10.5206 20.3481L2.7489 12.0515C2.15107 11.3403 2.15107 10.1551 2.86846 9.44395L10.6402 1.14731Z" fill="#A0A0A0"/>
<path d="M21.281 28.4067C20.9223 28.7623 20.444 28.9993 19.8462 28.9993H16.3788C15.9006 28.9993 15.6614 28.5252 16.0201 28.1697L22.9549 20.8212H19.1288L15.3027 16.7914H22.9549L15.3027 8.61328H19.9658C20.444 8.61328 21.0419 8.85033 21.4006 9.2059L29.1723 17.5025C29.8897 18.2137 29.8897 19.3989 29.1723 20.1101L21.281 28.4067Z" fill="#A0A0A0"/>
</g>
<defs>
<clipPath id="clip0_2320_1532">
<rect width="110" height="28.4457" fill="white" transform="translate(0.95752 0.554688)"/>
</clipPath>
</defs>
</svg>
