<svg width="108" height="29" viewBox="0 0 108 29" fill="none" xmlns="http://www.w3.org/2000/svg">
<path d="M106.885 8.412C107.005 8.412 107.124 8.412 107.244 8.53052C107.363 8.64904 107.363 8.76757 107.363 8.88609V11.4936C107.363 11.6121 107.363 11.7307 107.244 11.8492C107.124 11.9677 107.005 11.9677 106.885 11.9677H104.613V22.3978C104.613 22.5163 104.613 22.6348 104.494 22.7533C104.374 22.8719 104.255 22.8719 104.135 22.8719H100.668C100.548 22.8719 100.429 22.8719 100.309 22.7533C100.189 22.6348 100.189 22.5163 100.189 22.3978V11.8492H97.9177C97.7982 11.8492 97.6786 11.8492 97.559 11.7307C97.4395 11.6121 97.4395 11.4936 97.4395 11.3751V8.76757C97.4395 8.64904 97.4395 8.53052 97.559 8.412C97.6786 8.412 97.7982 8.412 97.9177 8.412H100.189V4.73777C100.189 4.61924 100.189 4.50072 100.309 4.3822C100.429 4.26367 100.548 4.26367 100.668 4.26367H104.135C104.255 4.26367 104.374 4.26367 104.494 4.3822C104.613 4.50072 104.613 4.61924 104.613 4.73777V8.412H106.885Z" fill="#A0A0A0"/>
<path d="M96.9604 15.405C96.9604 15.9976 96.8408 16.4717 96.7213 16.8273C96.6017 17.0643 96.3626 17.1829 95.8843 17.1829H87.2756C87.5147 18.0125 87.8734 18.6051 88.4713 18.9607C89.0691 19.3163 89.906 19.5533 90.8626 19.5533C91.3408 19.5533 91.8191 19.5533 92.1778 19.4348C92.656 19.3163 93.1343 19.0792 93.6126 18.7237C93.7321 18.6051 93.8517 18.6051 93.9713 18.6051C94.0908 18.6051 94.2104 18.6051 94.33 18.7237L95.8843 20.1459C96.0039 20.2645 96.0039 20.2645 96.0039 20.383C96.0039 20.5015 96.0039 20.62 95.8843 20.7386C95.1669 21.4497 94.4495 21.9238 93.493 22.3979C92.656 22.7535 91.6995 22.9905 90.6234 22.9905C89.1887 22.9905 87.8734 22.6349 86.6778 22.0423C85.6017 21.3312 84.6452 20.5015 84.0473 19.3163C83.4495 18.2496 83.0908 16.9458 83.0908 15.642C83.0908 14.3383 83.4495 13.0345 84.0473 11.9678C84.6452 10.9011 85.6017 9.95292 86.6778 9.3603C87.7539 8.64916 88.9495 8.41211 90.3843 8.41211C91.6995 8.41211 92.8952 8.76768 93.8517 9.3603C94.9278 9.95292 95.6452 10.9011 96.243 11.9678C96.7213 12.916 96.9604 14.1012 96.9604 15.405ZM90.2647 11.9678C89.5473 11.9678 88.83 12.2049 88.3517 12.5604C87.7539 12.916 87.5147 13.5086 87.2756 14.3383H93.1343C93.0147 13.5086 92.656 12.916 92.1778 12.5604C91.5799 12.2049 90.9821 11.9678 90.2647 11.9678Z" fill="#A0A0A0"/>
<path d="M81.1788 8.64854C81.2983 8.64854 81.4179 8.64854 81.5374 8.76706C81.657 8.88559 81.657 9.00411 81.657 9.12263V22.7528C81.657 24.1751 81.2983 25.3604 80.4614 26.19C79.744 27.1382 78.7875 27.7308 77.5918 28.0864C76.3961 28.3235 75.3201 28.5605 74.0048 28.5605C72.8092 28.5605 71.6135 28.442 70.5374 28.0864C69.4614 27.7308 68.5048 27.2567 67.7874 26.7826C67.6679 26.6641 67.6679 26.5456 67.6679 26.4271C67.6679 26.3086 67.6679 26.19 67.6679 26.19L68.744 24.1751C68.8635 24.0566 68.9831 23.9381 69.1027 23.9381C69.2222 23.9381 69.2222 23.9381 69.3418 23.9381C69.9396 24.2936 70.657 24.6492 71.3744 24.7677C72.0918 24.8863 72.8092 25.0048 73.7657 25.0048C74.7222 25.0048 75.6788 24.7677 76.3961 24.4122C77.2331 24.0566 77.5918 23.3455 77.5918 22.3973V21.0935C76.5157 22.3973 75.0809 22.9899 73.407 22.9899C72.0918 22.9899 70.8961 22.6343 69.9396 22.0417C68.8635 21.3306 68.0266 20.5009 67.4288 19.3157C66.8309 18.2489 66.5918 16.9452 66.5918 15.6414C66.5918 14.3377 66.8309 13.1524 67.4288 11.9672C68.1461 10.782 68.8635 9.9523 69.9396 9.24116C71.0157 8.53002 72.0918 8.29297 73.407 8.29297C74.9614 8.29297 76.2766 8.88559 77.4722 10.1893L77.5918 9.00411C77.5918 8.76706 77.8309 8.53002 78.0701 8.53002H81.1788V8.64854ZM74.0048 18.9601C74.8418 18.9601 75.6788 18.6045 76.2766 17.8934C76.8744 17.1822 77.2331 16.4711 77.2331 15.5229C77.2331 14.5747 76.8744 13.8636 76.2766 13.1524C75.6788 12.4413 74.9614 12.0857 74.0048 12.0857C73.0483 12.0857 72.3309 12.4413 71.7331 13.0339C71.1353 13.6265 70.7766 14.4562 70.7766 15.4044C70.7766 16.3526 71.0157 17.1822 71.6135 17.7749C72.3309 18.6045 73.0483 18.9601 74.0048 18.9601Z" fill="#A0A0A0"/>
<path d="M65.1566 8.412C65.2762 8.412 65.3957 8.412 65.5153 8.53052C65.6349 8.64904 65.6349 8.76757 65.6349 8.88609V11.4936C65.6349 11.6121 65.6349 11.7307 65.5153 11.8492C65.3957 11.9677 65.2762 11.9677 65.1566 11.9677H62.8849V22.3978C62.8849 22.5163 62.8849 22.6348 62.7653 22.7533C62.6457 22.8719 62.5262 22.8719 62.4066 22.8719H58.9392C58.8196 22.8719 58.7001 22.8719 58.5805 22.7533C58.5805 22.6348 58.5805 22.5163 58.5805 22.3978V11.8492H56.1892C56.0696 11.8492 55.9501 11.8492 55.8305 11.7307C55.7109 11.6121 55.7109 11.4936 55.7109 11.3751V8.76757C55.7109 8.64904 55.7109 8.53052 55.8305 8.412C55.9501 8.412 56.0696 8.412 56.1892 8.412H58.5805V4.73777C58.5805 4.61924 58.5805 4.50072 58.7001 4.3822C58.8196 4.26367 58.9392 4.26367 59.0588 4.26367H62.5262C62.6457 4.26367 62.7653 4.26367 62.8849 4.3822C63.0044 4.50072 63.0044 4.61924 63.0044 4.73777V8.412H65.1566Z" fill="#A0A0A0"/>
<path d="M52.0042 7.22532C51.4063 7.22532 50.8085 6.98827 50.3302 6.51418C49.9716 6.04008 49.7324 5.56599 49.7324 4.85485C49.7324 4.1437 49.9716 3.66961 50.4498 3.19552C50.8085 2.72142 51.4063 2.48438 52.0042 2.48438C52.602 2.48438 53.1998 2.72142 53.6781 3.19552C54.1563 3.66961 54.3955 4.26223 54.3955 4.85485C54.3955 5.44746 54.1563 6.04008 53.6781 6.51418C53.1998 6.98827 52.7216 7.22532 52.0042 7.22532ZM49.852 8.76612C49.852 8.6476 49.852 8.52908 49.9716 8.41055C50.0911 8.41055 50.2107 8.41055 50.3302 8.41055H53.7976C53.9172 8.41055 54.0368 8.41055 54.1563 8.52908C54.2759 8.6476 54.2759 8.76612 54.2759 8.88465V22.3963C54.2759 22.5149 54.2759 22.6334 54.1563 22.7519C54.0368 22.8704 53.9172 22.8704 53.7976 22.8704H50.3302C50.2107 22.8704 50.0911 22.8704 49.9716 22.7519C49.852 22.6334 49.852 22.5149 49.852 22.3963V8.76612Z" fill="#A0A0A0"/>
<path d="M44.352 11.9663C45.4281 12.2033 46.3846 12.7959 47.102 13.7441C47.9389 14.6923 48.2976 15.759 48.2976 16.9442C48.2976 18.8406 47.6998 20.3814 46.3846 21.3296C45.1889 22.2778 43.2759 22.7519 40.765 22.7519H33.7107C33.5911 22.7519 33.4716 22.7519 33.352 22.6334C33.2324 22.5149 33.2324 22.3963 33.2324 22.2778V2.95847C33.2324 2.83995 33.2324 2.72142 33.352 2.6029C33.352 2.6029 33.4716 2.48438 33.5911 2.48438H40.6455C41.9607 2.48438 43.0368 2.72142 43.8737 3.19552C44.8303 3.66961 45.5476 4.26223 45.9063 5.09189C46.3846 5.92156 46.6237 6.75122 46.6237 7.81794C46.6237 8.76612 46.3846 9.71431 45.9063 10.4255C45.5476 11.1366 44.9498 11.7292 44.352 11.9663ZM42.5585 8.41055C42.5585 7.22532 41.8411 6.51418 40.2868 6.51418H37.6563V10.4255H40.2868C41.0042 10.4255 41.602 10.3069 41.9607 9.95136C42.3194 9.59579 42.5585 9.00317 42.5585 8.41055ZM40.8846 18.8406C41.7216 18.8406 42.4389 18.6036 43.0368 18.248C43.515 17.8924 43.8737 17.1813 43.8737 16.4702C43.8737 15.6405 43.6346 15.0479 43.0368 14.6923C42.5585 14.3367 41.8411 14.0997 40.8846 14.0997H37.6563V18.8406H40.8846Z" fill="#A0A0A0"/>
<path d="M8.48298 0.707852C8.84167 0.352281 9.31993 0.115234 9.79819 0.115234H13.2656C13.7438 0.115234 13.983 0.589329 13.6243 0.944899L6.80906 8.29336H10.6351L14.4612 12.3232H6.80906L14.4612 20.5013H9.79819C9.31993 20.5013 8.72211 20.2642 8.36341 19.9087L0.591671 11.612C-0.00615518 10.9009 -0.00615518 9.71564 0.711236 9.0045L8.48298 0.707852Z" fill="#A0A0A0"/>
<path d="M19.1238 27.9692C18.7651 28.3248 18.2868 28.5618 17.689 28.5618H14.2216C13.7433 28.5618 13.5042 28.0877 13.8629 27.7322L20.7977 20.3837H16.9716L13.1455 16.3539H20.7977L13.1455 8.17578H17.8086C18.2868 8.17578 18.8846 8.41283 19.2433 8.7684L27.0151 17.065C27.7325 17.7762 27.7325 18.9614 27.0151 19.6726L19.1238 27.9692Z" fill="#A0A0A0"/>
</svg>
