<svg width="136" height="40" viewBox="0 0 136 40" fill="none" xmlns="http://www.w3.org/2000/svg">
<g clip-path="url(#clip0_1931_6578)">
<path d="M25.7936 7.38906C23.8623 5.79531 21.2186 5.00781 17.8436 5.00781H9.44355V6.18906H17.6936C20.5623 6.18906 23.1498 6.77031 24.7436 8.15781C26.3373 9.54531 27.5186 11.5703 27.5186 14.0828C27.5186 16.5203 26.4686 18.3016 24.8373 19.6703C23.2061 21.0391 20.2436 21.6391 17.2998 21.6391H7.83105V22.8203H17.3748C20.9186 22.8203 23.6936 22.0516 25.6998 20.5141C27.6873 18.9766 28.6998 16.8016 28.6998 14.0078C28.6998 11.1578 27.7248 8.96406 25.7936 7.38906Z" fill="#A0A0A0"/>
<path d="M25.0813 9.07773C23.8813 8.15898 22.5125 7.42773 18.6125 7.42773H12.125V8.57149C12.125 8.57149 15.0313 8.53399 18.4625 8.57149C21.7813 8.60899 23 8.98398 24.125 9.80898C25.55 10.859 26.45 12.1715 26.45 13.9902C26.45 15.7527 25.55 16.9902 24.1062 18.059C22.6437 19.1465 20.3937 19.1465 19.475 19.184C19.1375 19.184 14.6562 19.184 14.6562 19.184V20.3277C14.6562 20.3277 16.8687 20.3652 18.2562 20.3277C21.4062 20.2527 23.2813 20.0652 25.025 18.7715C26.6563 17.5527 27.5188 15.959 27.5188 13.934C27.5188 11.2715 26.1688 9.94023 25.0813 9.07773Z" fill="#A0A0A0"/>
<path d="M24.501 10.5957C23.601 10.0332 22.8135 9.6582 19.0822 9.6582H14.4135V10.4082H18.951C22.251 10.4082 23.4885 10.9895 23.8822 11.2332C24.6322 11.6832 25.6072 12.4332 25.6072 13.9332C25.6072 14.8895 25.0447 16.1082 24.201 16.577C23.4322 17.0082 22.026 17.402 19.5697 17.402H4.34473V18.152H19.6072C22.5885 18.152 23.601 17.8145 24.651 17.2332C25.701 16.652 26.4135 15.452 26.4135 13.9332C26.4135 12.2082 25.4572 11.1957 24.501 10.5957Z" fill="#A0A0A0"/>
<path d="M27.4625 18.9027C25.5312 17.309 22.8875 16.5215 19.5125 16.5215H13.8875V17.7027H19.3437C22.2125 17.7027 24.8 18.3027 26.3937 19.6715C27.9875 21.0402 29.1875 23.084 29.1875 25.5965C29.1875 28.034 28.1562 29.8152 26.5062 31.184C24.8562 32.5527 21.9125 33.1527 18.9687 33.1527H9.5V34.334H19.0437C22.5875 34.334 25.3625 33.5652 27.3687 32.0277C29.375 30.4902 30.3687 28.3152 30.3687 25.5215C30.35 22.6902 29.3937 20.4965 27.4625 18.9027Z" fill="#A0A0A0"/>
<path d="M26.75 20.5895C25.55 19.6895 24.1812 18.9395 20.2812 18.9395H11.4688V20.0832C11.4688 20.0832 16.7 20.0457 20.1312 20.0832C23.45 20.1207 24.6687 20.4957 25.7937 21.3207C27.2187 22.3707 28.1187 23.6832 28.1187 25.502C28.1187 27.2645 27.2187 28.502 25.775 29.5707C24.3125 30.6582 22.0625 30.6582 21.1438 30.6957C20.8063 30.6957 16.325 30.6957 16.325 30.6957V31.8395C16.325 31.8395 18.5563 31.877 19.925 31.8395C23.075 31.7645 24.95 31.577 26.6937 30.2832C28.325 29.0645 29.1875 27.4707 29.1875 25.4457C29.1875 22.802 27.8562 21.452 26.75 20.5895Z" fill="#A0A0A0"/>
<path d="M13.3438 24.491H21.6125V23.8535H13.3438V24.491Z" fill="#A0A0A0"/>
<path d="M16.7559 26.7215H21.5559V26.1777H16.7559V26.7215Z" fill="#A0A0A0"/>
<path d="M9.5 24.491H11.9375V23.8535H9.5V24.491Z" fill="#A0A0A0"/>
<path d="M7.96289 26.7586H15.4066V26.1211H7.96289V26.7586Z" fill="#A0A0A0"/>
<path d="M9.7998 10.3531H12.7061V9.82812H9.7998V10.3531Z" fill="#A0A0A0"/>
<path d="M7.79395 14.6273H14.4127V14.0273H7.79395V14.6273Z" fill="#A0A0A0"/>
<path d="M7.96289 31.7656H14.9566V31.0156H7.96289V31.7656Z" fill="#A0A0A0"/>
<path d="M6.2373 34.2586H7.98106V33.1523H6.2373V34.2586Z" fill="#A0A0A0"/>
<path d="M10.5879 12.7523H21.5754V12.1523H10.5879V12.7523Z" fill="#A0A0A0"/>
<path d="M16.0811 14.6273H21.3686V14.0273H16.0811V14.6273Z" fill="#A0A0A0"/>
<path d="M26.1689 22.2215C25.2689 21.6777 24.4814 21.3027 20.7502 21.3027H14.8252V22.034H20.6377C23.9377 22.034 25.1939 22.5965 25.5689 22.8215C26.3002 23.2527 27.2939 23.9652 27.2939 25.4277C27.2939 26.3652 26.7314 27.5277 25.8877 27.9777C25.1189 28.3902 23.7127 28.7652 21.2564 28.7652H6.0127V29.4965H21.2752C24.2564 29.4965 25.2689 29.1777 26.3189 28.6152C27.3689 28.0527 28.0627 26.909 28.0627 25.4277C28.0814 23.7965 27.1252 22.8215 26.1689 22.2215Z" fill="#A0A0A0"/>
<path d="M41.8064 20.5898V27.2836H45.4627C47.0377 27.2836 48.2752 26.9836 49.1377 26.3836C49.9814 25.8398 50.4689 24.9023 50.4502 23.8898C50.4502 21.6961 48.5939 20.5898 44.9002 20.5898H41.8064ZM41.8064 12.6211V18.6211H44.5627C46.0439 18.6211 47.1877 18.3398 48.0314 17.7586C48.8564 17.2336 49.3439 16.2961 49.3064 15.3211C49.3064 13.5211 47.8439 12.6023 44.9002 12.6023L41.8064 12.6211ZM39.1064 29.2523V10.6523H45.6502C47.6377 10.6523 49.2127 11.0461 50.3752 11.8336C51.5377 12.6211 52.1189 13.6523 52.1189 14.9086C52.1377 15.9211 51.7627 16.9148 51.0689 17.6648C50.3564 18.4523 49.4002 18.9961 48.1627 19.3336V19.3898C49.7189 19.5398 50.9564 20.0086 51.8752 20.8148C52.7939 21.5836 53.3002 22.7273 53.2627 23.9273C53.2627 25.5211 52.5502 26.7961 51.1439 27.7898C49.7377 28.7836 47.9564 29.2711 45.8002 29.2711H39.1064V29.2523Z" fill="#A0A0A0"/>
<path d="M56.2628 29.2527H58.8878V15.9777H56.2628V29.2527ZM57.5941 12.584C57.1628 12.6027 56.7316 12.4527 56.3941 12.1902C56.0753 11.9652 55.8878 11.5902 55.9066 11.2152C55.9066 10.8215 56.0941 10.4465 56.3941 10.2215C56.7316 9.95899 57.1628 9.80899 57.5941 9.82774C58.0441 9.80899 58.4753 9.95899 58.8128 10.2215C59.3566 10.6152 59.4691 11.3652 59.0941 11.909C59.0191 12.0215 58.9253 12.1152 58.8128 12.1902C58.4753 12.4715 58.0441 12.6027 57.5941 12.584Z" fill="#A0A0A0"/>
<path d="M70.4943 29.1215C69.8756 29.4027 69.0506 29.534 68.0381 29.534C65.1693 29.534 63.7256 28.2402 63.7256 25.634V17.7777H60.9131V15.959H63.7256V12.7152L66.3506 12.0215V15.959H70.4756V17.7777H66.3506V25.259C66.3506 26.1402 66.5381 26.7777 66.9131 27.1715C67.2881 27.5652 67.9068 27.734 68.7693 27.734C69.3693 27.7527 69.9693 27.6027 70.4756 27.284L70.4943 29.1215Z" fill="#A0A0A0"/>
<path d="M94.3621 29.2535H91.9059V17.7785C91.9246 16.6723 91.9809 15.5473 92.1121 14.441H92.0559C91.9059 15.0035 91.6809 15.566 91.4184 16.091L84.1996 29.2348H82.9809L75.7809 16.1848C75.4996 15.6223 75.2934 15.041 75.1434 14.4223H75.0871C75.1809 15.5285 75.2184 16.6535 75.1996 17.7785V29.2348H72.8184V12.1348H76.0996L82.5871 24.0598C82.9621 24.716 83.2996 25.4098 83.5621 26.1223H83.6559C84.0871 25.1848 84.4246 24.491 84.6684 24.0223L91.2871 12.1348H94.3809V29.2535" fill="#A0A0A0"/>
<path d="M107.713 22.5207L103.756 22.9707C102.538 23.102 101.619 23.3457 101 23.702C100.381 24.0582 100.063 24.677 100.063 25.5582C100.063 26.1957 100.381 26.7957 100.925 27.152C101.488 27.5645 102.256 27.7707 103.213 27.7707C104.525 27.7707 105.594 27.3957 106.438 26.6645C107.263 25.9707 107.731 24.9395 107.713 23.852V22.5207ZM110.338 29.252H107.713V27.1707H107.656C106.513 28.7645 104.825 29.552 102.613 29.552C100.981 29.552 99.7064 29.1957 98.7689 28.502C97.8689 27.8645 97.3626 26.8145 97.3814 25.7082C97.3814 23.2332 99.1814 21.7895 102.8 21.377L107.713 20.8145C107.713 18.5645 106.588 17.4395 104.338 17.4395C102.425 17.4207 100.569 17.9832 98.9939 19.0707V16.8957C100.606 16.0707 102.463 15.6582 104.563 15.6582C108.425 15.6582 110.338 17.3082 110.338 20.6082V29.252Z" fill="#A0A0A0"/>
<path d="M122.526 18.1152C122.057 17.8339 121.401 17.684 120.538 17.684C119.451 17.6652 118.419 18.1339 117.726 18.9777C116.976 19.8402 116.601 21.0027 116.601 22.4839V29.2527H113.976V15.9777H116.601V18.7152H116.657C116.994 17.834 117.594 17.0652 118.382 16.5214C119.132 15.9964 120.032 15.7339 120.969 15.7339C121.494 15.7152 122.038 15.7714 122.544 15.9214L122.526 18.1152Z" fill="#A0A0A0"/>
<path d="M131.675 29.1215C131.056 29.4027 130.231 29.534 129.219 29.534C126.35 29.534 124.906 28.2402 124.906 25.634V17.7777H122.094V15.959H124.906V12.7152L127.531 12.0215V15.959H131.656V17.7777H127.531V25.259C127.531 26.1402 127.719 26.7777 128.094 27.1715C128.469 27.5652 129.088 27.734 129.95 27.734C130.55 27.7527 131.15 27.6027 131.656 27.284L131.675 29.1215Z" fill="#A0A0A0"/>
</g>
<defs>
<clipPath id="clip0_1931_6578">
<rect width="134.438" height="39" fill="white" transform="translate(0.78125 0.115234)"/>
</clipPath>
</defs>
</svg>
