<svg width="136" height="40" viewBox="0 0 136 40" fill="none" xmlns="http://www.w3.org/2000/svg">
<g clip-path="url(#clip0_2320_1545)">
<path d="M25.9522 7.83047C24.021 6.23672 21.3772 5.44922 18.0022 5.44922H9.60225V6.63047H17.8522C20.721 6.63047 23.3085 7.21172 24.9022 8.59922C26.496 9.98672 27.6772 12.0117 27.6772 14.5242C27.6772 16.9617 26.6272 18.743 24.996 20.1117C23.3647 21.4805 20.4022 22.0805 17.4585 22.0805H7.98975V23.2617H17.5335C21.0772 23.2617 23.8522 22.493 25.8585 20.9555C27.846 19.418 28.8585 17.243 28.8585 14.4492C28.8585 11.5992 27.8835 9.40547 25.9522 7.83047Z" fill="#A0A0A0"/>
<path d="M25.2404 9.51719C24.0404 8.59844 22.6717 7.86719 18.7717 7.86719H12.2842V9.01094C12.2842 9.01094 15.1904 8.97344 18.6217 9.01094C21.9404 9.04844 23.1592 9.42344 24.2842 10.2484C25.7092 11.2984 26.6092 12.6109 26.6092 14.4297C26.6092 16.1922 25.7092 17.4297 24.2654 18.4984C22.8029 19.5859 20.5529 19.5859 19.6342 19.6234C19.2967 19.6234 14.8154 19.6234 14.8154 19.6234V20.7672C14.8154 20.7672 17.0279 20.8047 18.4154 20.7672C21.5654 20.6922 23.4404 20.5047 25.1842 19.2109C26.8154 17.9922 27.6779 16.3984 27.6779 14.3734C27.6779 11.7109 26.3279 10.3797 25.2404 9.51719Z" fill="#A0A0A0"/>
<path d="M24.6597 11.0391C23.7597 10.4766 22.9722 10.1016 19.2409 10.1016H14.5722V10.8516H19.1097C22.4097 10.8516 23.6472 11.4328 24.0409 11.6766C24.7909 12.1266 25.7659 12.8766 25.7659 14.3766C25.7659 15.3328 25.2034 16.5516 24.3597 17.0203C23.5909 17.4516 22.1847 17.8453 19.7284 17.8453H4.50342V18.5953H19.7659C22.7472 18.5953 23.7597 18.2578 24.8097 17.6766C25.8597 17.0953 26.5722 15.8953 26.5722 14.3766C26.5722 12.6516 25.6159 11.6391 24.6597 11.0391Z" fill="#A0A0A0"/>
<path d="M27.6207 19.3422C25.6895 17.7484 23.0457 16.9609 19.6707 16.9609H14.0457V18.1422H19.502C22.3707 18.1422 24.9582 18.7422 26.552 20.1109C28.1457 21.4797 29.3457 23.5234 29.3457 26.0359C29.3457 28.4734 28.3145 30.2547 26.6645 31.6234C25.0145 32.9922 22.0707 33.5922 19.127 33.5922H9.6582V34.7734H19.202C22.7457 34.7734 25.5207 34.0047 27.527 32.4672C29.5332 30.9297 30.527 28.7547 30.527 25.9609C30.5082 23.1297 29.552 20.9359 27.6207 19.3422Z" fill="#A0A0A0"/>
<path d="M26.9082 21.0289C25.7082 20.1289 24.3395 19.3789 20.4395 19.3789H11.627V20.5227C11.627 20.5227 16.8582 20.4852 20.2895 20.5227C23.6082 20.5602 24.827 20.9352 25.952 21.7602C27.377 22.8102 28.277 24.1227 28.277 25.9414C28.277 27.7039 27.377 28.9414 25.9332 30.0102C24.4707 31.0977 22.2207 31.0977 21.302 31.1352C20.9645 31.1352 16.4832 31.1352 16.4832 31.1352V32.2789C16.4832 32.2789 18.7145 32.3164 20.0832 32.2789C23.2332 32.2039 25.1082 32.0164 26.852 30.7227C28.4832 29.5039 29.3457 27.9102 29.3457 25.8852C29.3457 23.2414 28.0145 21.8914 26.9082 21.0289Z" fill="#A0A0A0"/>
<path d="M13.502 24.9305H21.7707V24.293H13.502V24.9305Z" fill="#A0A0A0"/>
<path d="M16.9141 27.1609H21.7141V26.6172H16.9141V27.1609Z" fill="#A0A0A0"/>
<path d="M9.6582 24.9305H12.0957V24.293H9.6582V24.9305Z" fill="#A0A0A0"/>
<path d="M8.12109 27.2H15.5648V26.5625H8.12109V27.2Z" fill="#A0A0A0"/>
<path d="M9.95801 10.7906H12.8643V10.2656H9.95801V10.7906Z" fill="#A0A0A0"/>
<path d="M7.95215 15.0687H14.5709V14.4688H7.95215V15.0687Z" fill="#A0A0A0"/>
<path d="M8.12109 32.207H15.1148V31.457H8.12109V32.207Z" fill="#A0A0A0"/>
<path d="M6.39551 34.6961H8.13926V33.5898H6.39551V34.6961Z" fill="#A0A0A0"/>
<path d="M10.7456 13.1937H21.7331V12.5938H10.7456V13.1937Z" fill="#A0A0A0"/>
<path d="M16.2393 15.0687H21.5268V14.4688H16.2393V15.0687Z" fill="#A0A0A0"/>
<path d="M26.3271 22.6609C25.4271 22.1172 24.6396 21.7422 20.9084 21.7422H14.9834V22.4734H20.7959C24.0959 22.4734 25.3521 23.0359 25.7271 23.2609C26.4584 23.6922 27.4521 24.4047 27.4521 25.8672C27.4521 26.8047 26.8896 27.9672 26.0459 28.4172C25.2771 28.8297 23.8709 29.2047 21.4146 29.2047H6.1709V29.9359H21.4334C24.4146 29.9359 25.4271 29.6172 26.4771 29.0547C27.5271 28.4922 28.2209 27.3484 28.2209 25.8672C28.2396 24.2359 27.2834 23.2609 26.3271 22.6609Z" fill="#A0A0A0"/>
<path d="M41.9646 21.0273V27.7211H45.6209C47.1959 27.7211 48.4334 27.4211 49.2959 26.8211C50.1396 26.2773 50.6271 25.3398 50.6084 24.3273C50.6084 22.1336 48.7521 21.0273 45.0584 21.0273H41.9646ZM41.9646 13.0586V19.0586H44.7209C46.2021 19.0586 47.3459 18.7773 48.1896 18.1961C49.0146 17.6711 49.5021 16.7336 49.4646 15.7586C49.4646 13.9586 48.0021 13.0398 45.0584 13.0398L41.9646 13.0586ZM39.2646 29.6898V11.0898H45.8084C47.7959 11.0898 49.3709 11.4836 50.5334 12.2711C51.6959 13.0586 52.2771 14.0898 52.2771 15.3461C52.2959 16.3586 51.9209 17.3523 51.2272 18.1023C50.5147 18.8898 49.5584 19.4336 48.3209 19.7711V19.8273C49.8772 19.9773 51.1146 20.4461 52.0334 21.2523C52.9521 22.0211 53.4584 23.1648 53.4209 24.3648C53.4209 25.9586 52.7084 27.2336 51.3021 28.2273C49.8959 29.2211 48.1146 29.7086 45.9584 29.7086H39.2646V29.6898Z" fill="#A0A0A0"/>
<path d="M56.421 29.6922H59.046V16.4172H56.421V29.6922ZM57.7523 13.0234C57.321 13.0422 56.8898 12.8922 56.5523 12.6297C56.2335 12.4047 56.046 12.0297 56.0648 11.6547C56.0648 11.2609 56.2523 10.8859 56.5523 10.6609C56.8898 10.3984 57.321 10.2484 57.7523 10.2672C58.2023 10.2484 58.6335 10.3984 58.971 10.6609C59.5148 11.0547 59.6273 11.8047 59.2523 12.3484C59.1773 12.4609 59.0835 12.5547 58.971 12.6297C58.6335 12.9109 58.2023 13.0422 57.7523 13.0234Z" fill="#A0A0A0"/>
<path d="M70.6525 29.5609C70.0338 29.8422 69.2088 29.9734 68.1963 29.9734C65.3275 29.9734 63.8838 28.6797 63.8838 26.0734V18.2172H61.0713V16.3984H63.8838V13.1547L66.5088 12.4609V16.3984H70.6338V18.2172H66.5088V25.6984C66.5088 26.5797 66.6963 27.2172 67.0713 27.6109C67.4463 28.0047 68.065 28.1734 68.9275 28.1734C69.5275 28.1922 70.1275 28.0422 70.6338 27.7234L70.6525 29.5609Z" fill="#A0A0A0"/>
<path d="M94.5203 29.693H92.0641V18.218C92.0828 17.1117 92.1391 15.9867 92.2703 14.8805H92.2141C92.0641 15.443 91.8391 16.0055 91.5766 16.5305L84.3578 29.6742H83.1391L75.9391 16.6242C75.6578 16.0617 75.4516 15.4805 75.3016 14.8617H75.2453C75.3391 15.968 75.3766 17.093 75.3578 18.218V29.6742H72.9766V12.5742H76.2578L82.7453 24.4992C83.1203 25.1555 83.4578 25.8492 83.7203 26.5617H83.8141C84.2453 25.6242 84.5828 24.9305 84.8266 24.4617L91.4453 12.5742H94.5391V29.693" fill="#A0A0A0"/>
<path d="M107.871 22.9602L103.915 23.4102C102.696 23.5414 101.777 23.7852 101.158 24.1414C100.54 24.4977 100.221 25.1164 100.221 25.9977C100.221 26.6352 100.54 27.2352 101.083 27.5914C101.646 28.0039 102.415 28.2102 103.371 28.2102C104.683 28.2102 105.752 27.8352 106.596 27.1039C107.421 26.4102 107.89 25.3789 107.871 24.2914V22.9602ZM110.496 29.6914H107.871V27.6102H107.815C106.671 29.2039 104.983 29.9914 102.771 29.9914C101.14 29.9914 99.8646 29.6352 98.9271 28.9414C98.0271 28.3039 97.5208 27.2539 97.5396 26.1477C97.5396 23.6727 99.3396 22.2289 102.958 21.8164L107.871 21.2539C107.871 19.0039 106.746 17.8789 104.496 17.8789C102.583 17.8602 100.727 18.4227 99.1521 19.5102V17.3352C100.765 16.5102 102.621 16.0977 104.721 16.0977C108.583 16.0977 110.496 17.7477 110.496 21.0477V29.6914Z" fill="#A0A0A0"/>
<path d="M122.683 18.5527C122.215 18.2714 121.558 18.1215 120.696 18.1215C119.608 18.1027 118.577 18.5714 117.883 19.4152C117.133 20.2777 116.758 21.4402 116.758 22.9214V29.6902H114.133V16.4152H116.758V19.1527H116.815C117.152 18.2715 117.752 17.5027 118.54 16.9589C119.29 16.4339 120.19 16.1714 121.127 16.1714C121.652 16.1527 122.196 16.2089 122.702 16.3589L122.683 18.5527Z" fill="#A0A0A0"/>
<path d="M131.833 29.5609C131.214 29.8422 130.389 29.9734 129.377 29.9734C126.508 29.9734 125.064 28.6797 125.064 26.0734V18.2172H122.252V16.3984H125.064V13.1547L127.689 12.4609V16.3984H131.814V18.2172H127.689V25.6984C127.689 26.5797 127.877 27.2172 128.252 27.6109C128.627 28.0047 129.246 28.1734 130.108 28.1734C130.708 28.1922 131.308 28.0422 131.814 27.7234L131.833 29.5609Z" fill="#A0A0A0"/>
</g>
<defs>
<clipPath id="clip0_2320_1545">
<rect width="134.438" height="39" fill="white" transform="translate(0.939453 0.554688)"/>
</clipPath>
</defs>
</svg>
