<svg width="88" height="35" viewBox="0 0 88 35" fill="none" xmlns="http://www.w3.org/2000/svg">
<g clip-path="url(#clip0_1931_6608)">
<path d="M62.707 25.4724V3.11523H67.2009V25.4724H62.707Z" fill="#A0A0A0"/>
<path d="M10.3333 32.1131H0.699219V9.75586H9.94588C14.4398 9.75586 17.0583 12.205 17.0583 16.0361C17.0583 18.5161 15.3766 20.1187 14.2126 20.6523C15.602 21.28 17.3805 22.6927 17.3805 25.6772C17.3805 29.8521 14.4398 32.1131 10.3333 32.1131ZM9.59018 13.6502H5.19312V18.7999H9.59018C11.4973 18.7999 12.5644 17.7636 12.5644 16.2243C12.5644 14.6867 11.4973 13.6502 9.59018 13.6502ZM9.88073 22.7252H5.19312V28.2204H9.88073C11.9181 28.2204 12.8866 26.9651 12.8866 25.4566C12.8866 23.9498 11.9163 22.7252 9.88073 22.7252Z" fill="#A0A0A0"/>
<path d="M31.0879 22.9441V32.1131H26.6257V22.9441L19.707 9.75586H24.5883L28.8885 18.7675L33.1236 9.75586H38.0049L31.0879 22.9441Z" fill="#A0A0A0"/>
<path d="M50.7454 32.1131H41.1113V9.75586H50.358C54.8519 9.75586 57.4704 12.205 57.4704 16.0361C57.4704 18.5161 55.7887 20.1187 54.6247 20.6523C56.0141 21.28 57.7927 22.6927 57.7927 25.6772C57.7927 29.8521 54.8519 32.1131 50.7454 32.1131ZM50.0023 13.6502H45.6052V18.7999H50.0023C51.9094 18.7999 52.9765 17.7636 52.9765 16.2243C52.9765 14.6867 51.9094 13.6502 50.0023 13.6502ZM50.2928 22.7252H45.6052V28.2204H50.2928C52.3302 28.2204 53.2987 26.9651 53.2987 25.4566C53.2987 23.9498 52.3302 22.7252 50.2928 22.7252Z" fill="#A0A0A0"/>
<path d="M81.6862 13.6502V32.1147H77.1923V13.6502H71.1787V9.75586H87.6998V13.6502H81.6862Z" fill="#A0A0A0"/>
</g>
<defs>
<clipPath id="clip0_1931_6608">
<rect width="87" height="34" fill="white" transform="translate(0.699219 0.115234)"/>
</clipPath>
</defs>
</svg>
