<svg width="88" height="35" viewBox="0 0 88 35" fill="none" xmlns="http://www.w3.org/2000/svg">
<g clip-path="url(#clip0_2320_1575)">
<path d="M62.8652 25.9119V3.55469H67.3591V25.9119H62.8652Z" fill="#A0A0A0"/>
<path d="M10.492 32.5525H0.85791V10.1953H10.1046C14.5985 10.1953 17.217 12.6445 17.217 16.4756C17.217 18.9555 15.5353 20.5581 14.3713 21.0917C15.7607 21.7194 17.5392 23.1321 17.5392 26.1166C17.5392 30.2915 14.5985 32.5525 10.492 32.5525ZM9.74887 14.0897H5.35181V19.2394H9.74887C11.656 19.2394 12.7231 18.203 12.7231 16.6637C12.7231 15.1261 11.656 14.0897 9.74887 14.0897ZM10.0394 23.1646H5.35181V28.6598H10.0394C12.0768 28.6598 13.0453 27.4045 13.0453 25.896C13.0453 24.3892 12.075 23.1646 10.0394 23.1646Z" fill="#A0A0A0"/>
<path d="M31.2461 23.3835V32.5525H26.7839V23.3835L19.8652 10.1953H24.7465L29.0467 19.2069L33.2818 10.1953H38.1631L31.2461 23.3835Z" fill="#A0A0A0"/>
<path d="M50.9036 32.5525H41.2695V10.1953H50.5162C55.0101 10.1953 57.6286 12.6445 57.6286 16.4756C57.6286 18.9555 55.9469 20.5581 54.7829 21.0917C56.1723 21.7194 57.9509 23.1321 57.9509 26.1166C57.9509 30.2915 55.0101 32.5525 50.9036 32.5525ZM50.1605 14.0897H45.7634V19.2394H50.1605C52.0676 19.2394 53.1347 18.203 53.1347 16.6637C53.1347 15.1261 52.0676 14.0897 50.1605 14.0897ZM50.451 23.1646H45.7634V28.6598H50.451C52.4884 28.6598 53.4569 27.4045 53.4569 25.896C53.4569 24.3892 52.4884 23.1646 50.451 23.1646Z" fill="#A0A0A0"/>
<path d="M81.8444 14.0897V32.5542H77.3505V14.0897H71.3369V10.1953H87.858V14.0897H81.8444Z" fill="#A0A0A0"/>
</g>
<defs>
<clipPath id="clip0_2320_1575">
<rect width="87" height="34" fill="white" transform="translate(0.857422 0.554688)"/>
</clipPath>
</defs>
</svg>
