<svg width="125" height="30" viewBox="0 0 125 30" fill="none" xmlns="http://www.w3.org/2000/svg">
<g clip-path="url(#clip0_2320_1587)">
<path fill-rule="evenodd" clip-rule="evenodd" d="M23.881 8.88266L25.6864 10.6728L21.9863 14.3122L16.5997 9.03511L11.2181 14.3122L3.36643 6.58594C-0.636294 12.3991 -0.0311742 20.4253 5.17187 25.5843C8.11811 28.5056 11.972 29.9712 15.8507 29.9712C19.3128 29.9712 22.7997 28.781 25.5971 26.4499L22.2293 23.1105C18.1671 26.2433 12.2746 25.9728 8.53971 22.2745C6.61523 20.3663 5.59347 17.8581 5.53395 15.3548L11.2479 20.9613L16.6047 15.6548L21.9863 20.9318L29.0543 14.0122L30.8895 15.8318V8.88266H23.881Z" fill="#A0A0A0"/>
<path fill-rule="evenodd" clip-rule="evenodd" d="M25.5672 3.54599C19.7888 -1.28352 11.1881 -1.13598 5.56348 4.02304L8.93132 7.33287C10.8856 5.60173 13.3556 4.70664 15.8208 4.70664C18.0776 4.70664 20.3046 5.42468 22.1696 6.85583L25.5672 3.54599Z" fill="#A0A0A0"/>
<path fill-rule="evenodd" clip-rule="evenodd" d="M56.9792 22.8648C54.9158 24.8861 52.2573 25.8205 49.3656 25.8205C41.9256 25.8205 38.776 20.7303 38.7462 15.5566C38.7214 10.3533 42.124 5.06641 49.3656 5.06641C52.0837 5.06641 54.6629 6.08936 56.7213 8.11067L54.2016 10.5303C52.8822 9.25165 51.1115 8.65165 49.3656 8.65165C44.5296 8.65165 42.4365 12.2369 42.4662 15.5615C42.496 18.8615 44.4105 22.2992 49.3656 22.2992C51.1115 22.2992 53.0856 21.5861 54.4049 20.2779L56.9792 22.8648Z" fill="#A0A0A0"/>
<path fill-rule="evenodd" clip-rule="evenodd" d="M61.3883 18.3746C61.3883 20.5041 62.6779 22.4959 65.2224 22.4959C67.7718 22.4959 69.0565 20.5041 69.0565 18.3746C69.0565 16.2697 67.5685 14.2238 65.2224 14.2238C62.7027 14.2189 61.3883 16.2697 61.3883 18.3746ZM72.5781 18.3746C72.5781 22.4123 69.8005 25.6828 65.2224 25.6828C60.6443 25.6828 57.8965 22.4123 57.8965 18.3746C57.8965 14.3664 60.7038 11.0664 65.1976 11.0664C69.6864 11.0664 72.5781 14.3615 72.5781 18.3746Z" fill="#A0A0A0"/>
<path fill-rule="evenodd" clip-rule="evenodd" d="M74.9839 25.3664H78.4758V11.291H74.9839V25.3664ZM78.7883 7.39588C78.7883 10.0959 74.6665 10.0959 74.6665 7.39588C74.6665 4.69096 78.7883 4.69096 78.7883 7.39588Z" fill="#A0A0A0"/>
<path fill-rule="evenodd" clip-rule="evenodd" d="M92.0117 25.3686V18.0309C92.0117 15.8965 90.8361 14.2785 88.6041 14.2785C86.4565 14.2785 84.9982 16.0686 84.9982 18.2031V25.3686H81.5361V11.3227H84.656L84.8841 13.226C86.3126 11.8342 87.7461 11.1211 89.5217 11.1211C92.84 11.1211 95.5035 13.5949 95.5035 18.0014V25.3686H92.0117Z" fill="#A0A0A0"/>
<path fill-rule="evenodd" clip-rule="evenodd" d="M117.546 25.3681H114.337L111.847 19.1124L109.729 12.8271L107.641 19.1714L105.21 25.3681H102.001L94.6455 5.46484H98.8813L103.608 19.8255L108.469 5.46484H110.934L115.939 19.8255L120.522 5.46484H124.758L117.546 25.3681Z" fill="#A0A0A0"/>
</g>
<defs>
<clipPath id="clip0_2320_1587">
<rect width="124" height="30" fill="white" transform="translate(0.757812)"/>
</clipPath>
</defs>
</svg>
