<svg width="117" height="33" viewBox="0 0 117 33" fill="none" xmlns="http://www.w3.org/2000/svg">
<g clip-path="url(#clip0_2320_1582)">
<path d="M21.111 12.38C19.917 11.2122 18.3133 10.5583 16.6432 10.5583C14.973 10.5583 13.3693 11.2122 12.1753 12.38C11.5902 12.9646 11.1264 13.6592 10.8107 14.4237C10.495 15.1882 10.3336 16.0076 10.3359 16.8348C10.3381 17.6619 10.5039 18.4804 10.8238 19.2432C11.1436 20.006 11.6112 20.6981 12.1995 21.2794C13.39 22.4615 14.998 23.1271 16.6756 23.1324C18.3533 23.1377 19.9655 22.4821 21.1634 21.3076C21.2077 21.2633 21.3809 21.074 21.6871 20.7356L18.7059 17.7745C18.3997 18.129 18.2385 18.3143 18.2184 18.3304C17.8138 18.7329 17.2662 18.9589 16.6955 18.9589C16.1248 18.9589 15.5773 18.7329 15.1727 18.3304C14.7711 17.9361 14.5426 17.3984 14.5373 16.8356C14.532 16.2728 14.7504 15.7309 15.1445 15.3291C15.5512 14.9371 16.0953 14.7201 16.6602 14.7246C17.225 14.7291 17.7656 14.9548 18.166 15.3532L26.1348 23.2616C25.034 24.8362 23.5707 26.123 21.8683 27.0134C20.1659 27.9039 18.2743 28.3719 16.3531 28.378C14.3349 28.3787 12.35 27.8627 10.5876 26.8793C8.82519 25.8959 7.34382 24.4777 6.28454 22.7598C5.22526 21.0419 4.62334 19.0814 4.53607 17.0651C4.4488 15.0487 4.87909 13.0436 5.78599 11.2406C6.69288 9.43756 8.04618 7.8967 9.71705 6.76467C11.3879 5.63264 13.3207 4.94713 15.3315 4.77341C17.3422 4.59969 19.364 4.94354 21.2042 5.77222C23.0445 6.6009 24.642 7.88683 25.8447 9.50757C25.4956 9.91581 24.5972 10.9324 23.1495 12.5573L26.1026 15.462L30.9692 10.0031C29.7927 7.37102 27.9277 5.10518 25.5709 3.4445C23.2141 1.78381 20.4529 0.789815 17.5785 0.567319C14.704 0.344824 11.8227 0.902072 9.23846 2.18031C6.65422 3.45854 4.46276 5.4104 2.89516 7.83007C1.32756 10.2497 0.441895 13.0476 0.331563 15.9285C0.221231 18.8095 0.890315 21.6669 2.26827 24.1994C3.64622 26.7318 5.68197 28.8456 8.16088 30.3177C10.6398 31.7899 13.47 32.5658 16.3531 32.5638C20.3818 32.5638 23.7135 31.3109 26.9728 28.5351C28.8468 26.8844 30.3373 24.8439 31.3399 22.5565L21.111 12.38Z" fill="#A0A0A0"/>
<path d="M86.9356 18.718V26.3725H83.7731V18.5528C83.5982 17.6516 83.1129 16.8402 82.4016 16.2599C81.6903 15.6795 80.798 15.3669 79.88 15.3765C78.962 15.3861 78.0764 15.7172 77.3774 16.3123C76.6783 16.9074 76.2101 17.7287 76.0541 18.6334V26.3887H72.8915V12.4695L75.3088 13.9923C76.5959 12.904 78.228 12.3085 79.9136 12.3124C81.6763 12.2971 83.3796 12.9489 84.6819 14.1369C85.9842 15.3249 86.7893 16.9613 86.9356 18.718ZM53.7592 10.7049C52.7144 11.2424 51.7753 11.9644 50.9875 12.8361C50.3569 11.9326 49.5039 11.207 48.5109 10.7295C47.518 10.252 46.4187 10.0386 45.3192 10.1101C44.2197 10.1816 43.1572 10.5354 42.2345 11.1375C41.3117 11.7395 40.5598 12.5694 40.0515 13.547C39.5432 14.5245 39.2956 15.6166 39.3327 16.7178C39.3698 17.819 39.6902 18.892 40.2632 19.8331C40.8361 20.7743 41.6421 21.5517 42.6033 22.0903C43.5645 22.6289 44.6483 22.9105 45.7501 22.9079C46.8601 22.9171 47.9536 22.6395 48.9248 22.1021C49.2694 23.2191 49.8156 24.2637 50.5362 25.1841C49.0644 25.9816 47.4161 26.3971 45.7421 26.3927C44.4342 26.4192 43.1341 26.1844 41.9181 25.7022C40.702 25.22 39.5944 24.5 38.66 23.5844C37.7257 22.6688 36.9834 21.5759 36.4767 20.3699C35.97 19.1638 35.709 17.8688 35.709 16.5606C35.709 15.2525 35.97 13.9574 36.4767 12.7514C36.9834 11.5453 37.7257 10.4525 38.66 9.53688C39.5944 8.62126 40.702 7.90127 41.9181 7.41906C43.1341 6.93684 44.4342 6.7021 45.7421 6.72858C47.2915 6.72513 48.8204 7.08312 50.2072 7.77409C51.594 8.46505 52.8006 9.46996 53.731 10.7089L53.7592 10.7049ZM58.4607 26.3887C57.0914 26.3728 55.7573 25.9522 54.6264 25.1798C53.4956 24.4075 52.6184 23.3179 52.1054 22.0482C51.5923 20.7785 51.4663 19.3854 51.7432 18.0443C52.02 16.7031 52.6874 15.4738 53.6613 14.5111C54.6352 13.5483 55.8722 12.8952 57.2164 12.6338C58.5607 12.3724 59.9522 12.5145 61.2159 13.0422C62.4796 13.5699 63.559 14.4595 64.3183 15.5992C65.0775 16.7389 65.4826 18.0778 65.4827 19.4472C65.4775 20.3641 65.2916 21.2709 64.9359 22.1159C64.5802 22.961 64.0614 23.7277 63.4094 24.3723C62.7573 25.0168 61.9847 25.5267 61.1356 25.8726C60.2865 26.2186 59.3776 26.394 58.4607 26.3887ZM58.4607 23.3027C59.2211 23.2931 59.9617 23.0589 60.5894 22.6295C61.217 22.2001 61.7036 21.5947 61.988 20.8894C62.2725 20.1841 62.3419 19.4105 62.1878 18.6658C62.0336 17.9212 61.6626 17.2387 61.1216 16.7043C60.5805 16.17 59.8935 15.8075 59.1469 15.6627C58.4004 15.5178 57.6277 15.5969 56.926 15.8901C56.2243 16.1832 55.625 16.6774 55.2034 17.3103C54.7819 17.9433 54.557 18.6867 54.5569 19.4472C54.5595 19.9568 54.6627 20.4609 54.8604 20.9307C55.0581 21.4004 55.3465 21.8265 55.7091 22.1847C56.0717 22.5428 56.5014 22.8259 56.9736 23.0177C57.4457 23.2095 57.9511 23.3064 58.4607 23.3027ZM67.4367 12.5098H70.5589V26.3887H67.4367V12.5098ZM101.383 10.0523H92.4549V15.0962H101.125V18.2265H92.4549V23.2543H101.383V26.3887H89.091V6.91793H101.383V10.0523ZM107.949 19.419L103.143 12.5098H107.115C107.232 12.7031 107.405 12.969 107.631 13.3155L109.271 15.7851C109.533 16.188 109.718 16.47 109.827 16.6593L109.988 16.9333L112.844 12.5219H116.627L111.914 19.3022L116.808 26.3887H112.884L109.859 21.8523L109.694 22.09C109.561 22.2834 109.363 22.5856 109.098 22.9925C108.832 23.3994 108.554 23.8304 108.251 24.2816L107.401 25.5789C107.176 25.9254 106.999 26.1953 106.89 26.3846H103.139L107.949 19.419Z" fill="#A0A0A0"/>
<path d="M66.849 8.82123C66.8473 8.54552 66.9021 8.2724 67.0103 8.01877C67.1184 7.76514 67.2774 7.5364 67.4775 7.34672C67.8811 6.94694 68.4262 6.72266 68.9943 6.72266C69.5624 6.72266 70.1075 6.94694 70.5111 7.34672C70.7157 7.5365 70.8778 7.76744 70.9869 8.02434C71.0959 8.28125 71.1493 8.55832 71.1436 8.83734C71.1404 9.40261 70.9136 9.94363 70.5128 10.3422C70.1119 10.7408 69.5696 10.9645 69.0043 10.9645C68.7212 10.9692 68.44 10.9167 68.1776 10.8101C67.9152 10.7035 67.6771 10.545 67.4775 10.3441C67.2739 10.1469 67.1131 9.90996 67.0049 9.64798C66.8968 9.386 66.8437 9.10459 66.849 8.82123Z" fill="#A0A0A0"/>
</g>
<defs>
<clipPath id="clip0_2320_1582">
<rect width="116.478" height="32" fill="white" transform="translate(0.318359 0.554688)"/>
</clipPath>
</defs>
</svg>
