<svg width="117" height="33" viewBox="0 0 117 33" fill="none" xmlns="http://www.w3.org/2000/svg">
<g clip-path="url(#clip0_1931_8160)">
<path d="M20.9543 11.9406C19.7603 10.7728 18.1566 10.1188 16.4864 10.1188C14.8163 10.1188 13.2125 10.7728 12.0186 11.9406C11.4334 12.5252 10.9696 13.2197 10.654 13.9842C10.3383 14.7488 10.1769 15.5682 10.1791 16.3953C10.1814 17.2225 10.3472 18.041 10.667 18.8038C10.9869 19.5666 11.4544 20.2586 12.0428 20.84C13.2332 22.022 14.8413 22.6877 16.5189 22.693C18.1965 22.6982 19.8087 22.0427 21.0066 20.8682C21.0509 20.8239 21.2242 20.6345 21.5304 20.2961L18.5491 17.335C18.2429 17.6895 18.0818 17.8749 18.0616 17.891C17.657 18.2935 17.1095 18.5194 16.5388 18.5194C15.9681 18.5194 15.4206 18.2935 15.0159 17.891C14.6144 17.4966 14.3858 16.9589 14.3805 16.3961C14.3753 15.8333 14.5937 15.2914 14.9877 14.8896C15.3945 14.4976 15.9386 14.2807 16.5034 14.2852C17.0683 14.2897 17.6089 14.5154 18.0093 14.9138L25.9781 22.8221C24.8773 24.3967 23.414 25.6835 21.7116 26.574C20.0092 27.4645 18.1176 27.9325 16.1964 27.9386C14.1781 27.9392 12.1933 27.4233 10.4309 26.4398C8.66845 25.4564 7.18708 24.0382 6.1278 22.3203C5.06852 20.6024 4.4666 18.642 4.37933 16.6256C4.29206 14.6093 4.72236 12.6041 5.62925 10.8011C6.53614 8.99811 7.88944 7.45724 9.56031 6.32522C11.2312 5.19319 13.164 4.50768 15.1747 4.33396C17.1855 4.16024 19.2072 4.50409 21.0475 5.33277C22.8878 6.16145 24.4853 7.44737 25.688 9.06812C25.3388 9.47636 24.4404 10.4929 22.9928 12.1178L25.9458 15.0225L30.8125 9.56365C29.6359 6.93157 27.7709 4.66573 25.4142 3.00504C23.0574 1.34436 20.2962 0.350362 17.4217 0.127866C14.5472 -0.0946295 11.666 0.462619 9.08172 1.74085C6.49748 3.01909 4.30602 4.97095 2.73842 7.39062C1.17082 9.81029 0.285157 12.6081 0.174825 15.4891C0.0644926 18.3701 0.733576 21.2274 2.11153 23.7599C3.48948 26.2924 5.52523 28.4061 8.00415 29.8783C10.4831 31.3504 13.3133 32.1264 16.1964 32.1244C20.2251 32.1244 23.5568 30.8715 26.816 28.0957C28.69 26.4449 30.1805 24.4044 31.1831 22.1171L20.9543 11.9406Z" fill="#A0A0A0"/>
<path d="M86.7784 18.2766V25.9311H83.6158V18.1114C83.441 17.2102 82.9557 16.3988 82.2443 15.8185C81.533 15.2381 80.6407 14.9255 79.7228 14.9351C78.8048 14.9447 77.9192 15.2758 77.2202 15.8709C76.5211 16.466 76.0528 17.2873 75.8968 18.192V25.9473H72.7343V12.0281L75.1515 13.5509C76.4387 12.4626 78.0707 11.8671 79.7563 11.871C81.5191 11.8557 83.2224 12.5075 84.5247 13.6955C85.827 14.8835 86.632 16.5199 86.7784 18.2766ZM53.602 10.2635C52.5571 10.801 51.6181 11.523 50.8302 12.3947C50.1996 11.4912 49.3467 10.7656 48.3537 10.2881C47.3608 9.81054 46.2614 9.59721 45.1619 9.66868C44.0625 9.74015 43 10.094 42.0772 10.6961C41.1545 11.2981 40.4026 12.128 39.8943 13.1056C39.3859 14.0831 39.1384 15.1752 39.1754 16.2764C39.2125 17.3776 39.533 18.4506 40.106 19.3917C40.6789 20.3329 41.4849 21.1103 42.4461 21.6489C43.4073 22.1875 44.4911 22.4691 45.5929 22.4664C46.7028 22.4757 47.7964 22.1981 48.7675 21.6607C49.1122 22.7777 49.6583 23.8223 50.379 24.7427C48.9072 25.5402 47.2588 25.9557 45.5849 25.9513C44.2769 25.9778 42.9769 25.743 41.7608 25.2608C40.5448 24.7786 39.4372 24.0586 38.5028 23.143C37.5685 22.2274 36.8262 21.1345 36.3195 19.9285C35.8128 18.7224 35.5518 17.4274 35.5518 16.1192C35.5518 14.811 35.8128 13.516 36.3195 12.31C36.8262 11.1039 37.5685 10.0111 38.5028 9.09547C39.4372 8.17986 40.5448 7.45986 41.7608 6.97765C42.9769 6.49544 44.2769 6.26069 45.5849 6.28717C47.1343 6.28373 48.6632 6.64171 50.05 7.33268C51.4368 8.02365 52.6434 9.02855 53.5738 10.2675L53.602 10.2635ZM58.3035 25.9473C56.9341 25.9314 55.6001 25.5108 54.4692 24.7384C53.3383 23.9661 52.4612 22.8765 51.9481 21.6068C51.4351 20.3371 51.3091 18.944 51.5859 17.6029C51.8628 16.2617 52.5302 15.0324 53.5041 14.0697C54.478 13.1069 55.7149 12.4538 57.0592 12.1924C58.4035 11.931 59.795 12.0731 61.0587 12.6008C62.3224 13.1285 63.4018 14.0181 64.161 15.1578C64.9203 16.2975 65.3254 17.6364 65.3255 19.0058C65.3202 19.9227 65.1344 20.8295 64.7787 21.6745C64.4229 22.5196 63.9042 23.2863 63.2522 23.9309C62.6001 24.5754 61.8275 25.0853 60.9784 25.4312C60.1293 25.7772 59.2203 25.9526 58.3035 25.9473ZM58.3035 22.8613C59.0639 22.8517 59.8045 22.6175 60.4321 22.1881C61.0598 21.7587 61.5464 21.1533 61.8308 20.448C62.1152 19.7427 62.1847 18.9691 62.0305 18.2244C61.8764 17.4798 61.5054 16.7973 60.9643 16.2629C60.4233 15.7286 59.7362 15.3661 58.9897 15.2212C58.2432 15.0764 57.4704 15.1555 56.7688 15.4487C56.0671 15.7418 55.4678 16.236 55.0462 16.8689C54.6247 17.5019 54.3997 18.2453 54.3997 19.0058C54.4023 19.5154 54.5054 20.0195 54.7031 20.4893C54.9009 20.959 55.1893 21.3851 55.5519 21.7432C55.9145 22.1014 56.3442 22.3844 56.8163 22.5763C57.2885 22.7681 57.7939 22.865 58.3035 22.8613ZM67.2794 12.0684H70.4017V25.9473H67.2794V12.0684ZM101.225 9.61085H92.2977V14.6548H100.967V17.7851H92.2977V22.8129H101.225V25.9473H88.9337V6.47652H101.225V9.61085ZM107.792 18.9776L102.986 12.0684H106.958C107.075 12.2617 107.248 12.5276 107.474 12.8741L109.114 15.3437C109.375 15.7466 109.561 16.0286 109.669 16.2179L109.831 16.4919L112.687 12.0804H116.47L111.756 18.8608L116.651 25.9473H112.727L109.702 21.4109L109.537 21.6486C109.404 21.842 109.206 22.1442 108.94 22.5511C108.674 22.958 108.396 23.389 108.094 23.8402L107.244 25.1375C107.019 25.4839 106.841 25.7539 106.733 25.9432H102.982L107.792 18.9776Z" fill="#A0A0A0"/>
<path d="M66.6918 8.38177C66.69 8.10607 66.7449 7.83295 66.853 7.57932C66.9611 7.32569 67.1201 7.09695 67.3202 6.90727C67.7238 6.50748 68.269 6.2832 68.837 6.2832C69.4051 6.2832 69.9502 6.50748 70.3539 6.90727C70.5585 7.09705 70.7206 7.32798 70.8296 7.58489C70.9386 7.8418 70.9921 8.11887 70.9864 8.39789C70.9832 8.96315 70.7564 9.50418 70.3555 9.90275C69.9547 10.3013 69.4124 10.5251 68.8471 10.525C68.564 10.5298 68.2827 10.4773 68.0204 10.3706C67.758 10.264 67.5199 10.1055 67.3202 9.90462C67.1167 9.70744 66.9558 9.4705 66.8477 9.20853C66.7396 8.94655 66.6865 8.66513 66.6918 8.38177Z" fill="#A0A0A0"/>
</g>
<defs>
<clipPath id="clip0_1931_8160">
<rect width="116.478" height="32" fill="white" transform="translate(0.161133 0.115234)"/>
</clipPath>
</defs>
</svg>
