<svg width="125" height="31" viewBox="0 0 125 31" fill="none" xmlns="http://www.w3.org/2000/svg">
<g clip-path="url(#clip0_1931_8166)">
<path fill-rule="evenodd" clip-rule="evenodd" d="M23.7228 9.44125L25.5282 11.2314L21.8281 14.8708L16.4415 9.59371L11.0599 14.8708L3.20822 7.14453C-0.794497 12.9576 -0.189377 20.9839 5.01366 26.1429C7.9599 29.0642 11.8138 30.5298 15.6925 30.5298C19.1546 30.5298 22.6415 29.3396 25.4389 27.0085L22.0711 23.6691C18.0089 26.8019 12.1164 26.5314 8.3815 22.8331C6.45702 20.9249 5.43526 18.4167 5.37574 15.9134L11.0897 21.5199L16.4465 16.2134L21.8281 21.4904L28.8961 14.5708L30.7313 16.3904V9.44125H23.7228Z" fill="#A0A0A0"/>
<path fill-rule="evenodd" clip-rule="evenodd" d="M25.409 4.10458C19.6306 -0.724926 11.0299 -0.577382 5.40527 4.58163L8.77311 7.89147C10.7274 6.16032 13.1974 5.26524 15.6626 5.26524C17.9194 5.26524 20.1464 5.98327 22.0114 7.41442L25.409 4.10458Z" fill="#A0A0A0"/>
<path fill-rule="evenodd" clip-rule="evenodd" d="M56.821 23.4234C54.7576 25.4447 52.0991 26.3791 49.2074 26.3791C41.7674 26.3791 38.6178 21.2889 38.588 16.1152C38.5632 10.9119 41.9658 5.625 49.2074 5.625C51.9255 5.625 54.5047 6.64795 56.5631 8.66926L54.0434 11.0889C52.724 9.81024 50.9533 9.21025 49.2074 9.21025C44.3714 9.21025 42.2783 12.7955 42.308 16.1201C42.3378 19.4201 44.2523 22.8578 49.2074 22.8578C50.9533 22.8578 52.9274 22.1447 54.2467 20.8365L56.821 23.4234Z" fill="#A0A0A0"/>
<path fill-rule="evenodd" clip-rule="evenodd" d="M61.2301 18.9332C61.2301 21.0627 62.5197 23.0545 65.0642 23.0545C67.6136 23.0545 68.8983 21.0627 68.8983 18.9332C68.8983 16.8283 67.4103 14.7824 65.0642 14.7824C62.5445 14.7775 61.2301 16.8283 61.2301 18.9332ZM72.4199 18.9332C72.4199 22.9709 69.6423 26.2414 65.0642 26.2414C60.4861 26.2414 57.7383 22.9709 57.7383 18.9332C57.7383 14.925 60.5456 11.625 65.0394 11.625C69.5282 11.625 72.4199 14.9201 72.4199 18.9332Z" fill="#A0A0A0"/>
<path fill-rule="evenodd" clip-rule="evenodd" d="M74.8253 25.9269H78.3171V11.8515H74.8253V25.9269ZM78.6296 7.95642C78.6296 10.6564 74.5078 10.6564 74.5078 7.95642C74.5078 5.2515 78.6296 5.2515 78.6296 7.95642Z" fill="#A0A0A0"/>
<path fill-rule="evenodd" clip-rule="evenodd" d="M91.8535 25.9253V18.5876C91.8535 16.4531 90.6779 14.8351 88.4459 14.8351C86.2982 14.8351 84.84 16.6253 84.84 18.7597V25.9253H81.3779V11.8794H84.4978L84.7259 13.7827C86.1544 12.3909 87.5878 11.6777 89.3635 11.6777C92.6818 11.6777 95.3453 14.1515 95.3453 18.5581V25.9253H91.8535Z" fill="#A0A0A0"/>
<path fill-rule="evenodd" clip-rule="evenodd" d="M117.388 25.9248H114.178L111.689 19.669L109.571 13.3838L107.482 19.728L105.052 25.9248H101.843L94.4873 6.02148H98.7231L103.45 20.3821L108.311 6.02148H110.776L115.781 20.3821L120.364 6.02148H124.599L117.388 25.9248Z" fill="#A0A0A0"/>
</g>
<defs>
<clipPath id="clip0_1931_8166">
<rect width="124" height="30" fill="white" transform="translate(0.599609 0.560547)"/>
</clipPath>
</defs>
</svg>
