<svg width="145" height="28" viewBox="0 0 145 28" fill="none" xmlns="http://www.w3.org/2000/svg">
<g clip-path="url(#clip0_2320_1611)">
<path d="M12.935 0L0.958984 6.80375V20.4112L12.935 27.215L24.911 20.4112V6.80375L12.935 0ZM12.935 0L0.958984 6.80375V20.4112L12.935 27.215L24.911 20.4112V6.80375L12.935 0Z" fill="#141414"/>
<path d="M17.663 21.8996H15.959L13.919 20.0569V19.1119L16.031 17.1275V13.9855L18.791 12.2137L21.935 14.5525L17.663 21.8996ZM10.607 16.9385L10.919 13.9855L9.88698 11.3396H15.983L14.975 13.9855L15.263 16.9385H12.911H10.607ZM11.999 20.0569L9.95898 21.9232H8.23098L3.93498 14.5525L7.10298 12.2373L9.88698 13.9855V17.1275L11.999 19.1119V20.0569ZM8.20698 5.88241H17.639L18.767 10.6072H7.10298L8.20698 5.88241ZM12.935 0L0.958984 6.80375V20.4112L12.935 27.215L24.911 20.4112V6.80375L12.935 0Z" fill="#A0A0A0"/>
<path d="M38.351 19.9145C35.183 19.9145 32.855 17.4812 32.855 14.481C32.855 11.4807 35.207 8.97656 38.375 8.97656C40.391 8.97656 41.639 9.70891 42.623 10.772L41.111 12.3784C40.367 11.5988 39.575 11.0791 38.351 11.0791C36.575 11.0791 35.279 12.5911 35.279 14.4337C35.279 16.3237 36.599 17.8356 38.471 17.8356C39.623 17.8356 40.463 17.2923 41.231 16.5363L42.695 17.9774C41.639 19.0877 40.415 19.9145 38.351 19.9145Z" fill="#A0A0A0"/>
<path d="M47.3269 19.9162H44.8789V9.00181H47.3269V11.5532C47.9989 9.99403 49.2229 8.90731 51.0949 9.00181V11.5532H50.9509C48.8149 11.5532 47.3269 12.9234 47.3269 15.7111V19.9162Z" fill="#A0A0A0"/>
<path d="M63.8871 8.95312L58.4871 22.8441H56.0151L57.1911 19.9147L52.5591 8.95312H55.1751L58.3191 17.0562L61.3431 8.95312H63.8871Z" fill="#A0A0A0"/>
<path d="M71.0868 11.0557C69.4308 11.0557 67.9908 12.3786 67.9908 14.4339C67.9908 16.4892 69.4548 17.8122 71.0868 17.8122C72.7668 17.8122 74.1348 16.5128 74.1348 14.4339C74.1348 12.355 72.7428 11.0557 71.0868 11.0557ZM71.6388 19.8911C69.8868 19.8911 68.7828 19.017 68.0388 18.0484V22.8441H65.5908V8.95312H68.0388V10.9139C68.8308 9.82721 69.9348 8.95312 71.6388 8.95312C74.1588 8.95312 76.6068 10.9139 76.6068 14.4103C76.6068 17.9067 74.1828 19.8911 71.6388 19.8911Z" fill="#A0A0A0"/>
<path d="M81.959 11.246V16.3961C81.959 17.3174 82.439 17.6954 83.279 17.6954H84.239V19.8452H82.559C80.783 19.8452 79.511 19.0656 79.511 16.7741V11.246H78.167V9.19074H79.511V6.30859H81.959V9.19074H84.239V11.246H81.959Z" fill="#A0A0A0"/>
<path d="M91.9432 11.0555C89.9752 11.0555 88.7272 12.5674 88.7272 14.4101C88.7272 16.2764 90.0712 17.812 91.9672 17.812C93.9352 17.812 95.1832 16.3 95.1832 14.4574C95.2312 12.5911 93.8632 11.0555 91.9432 11.0555ZM91.9432 19.9145C88.7032 19.9145 86.3032 17.4812 86.3032 14.481C86.3032 11.4571 88.7272 8.97656 91.9912 8.97656C95.2552 8.97656 97.6552 11.4098 97.6552 14.4337C97.6552 17.4104 95.2552 19.9145 91.9432 19.9145Z" fill="#A0A0A0"/>
<path d="M121.007 11.0555C119.039 11.0555 117.791 12.5674 117.791 14.4101C117.791 16.2764 119.135 17.812 121.031 17.812C122.999 17.812 124.247 16.3 124.247 14.4574C124.271 12.5911 122.927 11.0555 121.007 11.0555ZM121.007 19.9145C117.767 19.9145 115.367 17.4812 115.367 14.481C115.367 11.4571 117.791 8.97656 121.055 8.97656C124.319 8.97656 126.719 11.4098 126.719 14.4337C126.719 17.4104 124.295 19.9145 121.007 19.9145Z" fill="#A0A0A0"/>
<path d="M141.215 8.95312C143.543 8.95312 144.959 10.3942 144.959 12.9692V19.8911H142.511V13.7016C142.511 12.0243 141.719 11.1502 140.351 11.1502C139.031 11.1502 138.071 12.0715 138.071 13.7488V19.9147H135.623V13.7016C135.623 12.0715 134.807 11.1502 133.463 11.1502C132.119 11.1502 131.183 12.1424 131.183 13.7724V19.9147H128.735V8.97674H131.183V10.7722C131.879 9.85084 132.791 8.97674 134.423 8.97674C135.959 8.97674 137.015 9.7091 137.591 10.8194C138.479 9.68547 139.607 8.95312 141.215 8.95312Z" fill="#A0A0A0"/>
<path d="M99.7912 17.575L100.847 16.9844H100.991L102.071 17.575L102.143 17.6931V18.9215L102.071 19.0397L100.991 19.6303H100.847L99.7912 19.0397L99.7192 18.9215V17.6931L99.7912 17.575Z" fill="#A0A0A0"/>
<path d="M109.559 19.8926C106.391 19.8217 104.111 17.3412 104.159 14.3409C104.207 11.3407 106.607 8.88375 109.799 8.95462C111.815 9.00187 113.063 9.75784 114.023 10.8445L112.487 12.4274C111.767 11.6478 110.975 11.0808 109.751 11.0572C107.975 11.0335 106.655 12.4982 106.631 14.3645C106.583 16.2545 107.879 17.79 109.751 17.8137C110.903 17.8373 111.767 17.3176 112.535 16.5616L113.975 18.0263C112.895 19.1366 111.647 19.9398 109.559 19.8926Z" fill="#A0A0A0"/>
</g>
<defs>
<clipPath id="clip0_2320_1611">
<rect width="144" height="27.215" fill="white" transform="translate(0.958984)"/>
</clipPath>
</defs>
</svg>
