<svg width="145" height="28" viewBox="0 0 145 28" fill="none" xmlns="http://www.w3.org/2000/svg">
<g clip-path="url(#clip0_1931_8178)">
<path d="M12.7758 0.560547L0.799805 7.3643V20.9718L12.7758 27.7755L24.7518 20.9718V7.3643L12.7758 0.560547ZM12.7758 0.560547L0.799805 7.3643V20.9718L12.7758 27.7755L24.7518 20.9718V7.3643L12.7758 0.560547Z" fill="#141414"/>
<path d="M17.5038 22.4601H15.7998L13.7598 20.6174V19.6725L15.8718 17.688V14.546L18.6318 12.7742L21.7758 15.113L17.5038 22.4601ZM10.4478 17.499L10.7598 14.546L9.72781 11.9001H15.8238L14.8158 14.546L15.1038 17.499H12.7518H10.4478ZM11.8398 20.6174L9.7998 22.4837H8.07181L3.7758 15.113L6.9438 12.7978L9.72781 14.546V17.688L11.8398 19.6725V20.6174ZM8.04781 6.44296H17.4798L18.6078 11.1678H6.9438L8.04781 6.44296ZM12.7758 0.560547L0.799805 7.3643V20.9718L12.7758 27.7755L24.7518 20.9718V7.3643L12.7758 0.560547Z" fill="#A0A0A0"/>
<path d="M38.1923 20.4751C35.0243 20.4751 32.6963 18.0418 32.6963 15.0415C32.6963 12.0413 35.0483 9.53711 38.2163 9.53711C40.2323 9.53711 41.4803 10.2695 42.4643 11.3325L40.9523 12.939C40.2083 12.1594 39.4163 11.6397 38.1923 11.6397C36.4163 11.6397 35.1203 13.1516 35.1203 14.9943C35.1203 16.8842 36.4403 18.3962 38.3123 18.3962C39.4643 18.3962 40.3043 17.8528 41.0723 17.0968L42.5363 18.5379C41.4803 19.6482 40.2563 20.4751 38.1923 20.4751Z" fill="#A0A0A0"/>
<path d="M47.1677 20.4767H44.7197V9.56236H47.1677V12.1138C47.8397 10.5546 49.0637 9.46786 50.9357 9.56236V12.1138H50.7917C48.6557 12.1138 47.1677 13.484 47.1677 16.2716V20.4767Z" fill="#A0A0A0"/>
<path d="M63.7284 9.51367L58.3284 23.4046H55.8564L57.0324 20.4753L52.4004 9.51367H55.0164L58.1604 17.6167L61.1844 9.51367H63.7284Z" fill="#A0A0A0"/>
<path d="M70.9276 11.6162C69.2716 11.6162 67.8316 12.9392 67.8316 14.9945C67.8316 17.0498 69.2956 18.3727 70.9276 18.3727C72.6076 18.3727 73.9756 17.0734 73.9756 14.9945C73.9756 12.9155 72.5836 11.6162 70.9276 11.6162ZM71.4796 20.4516C69.7276 20.4516 68.6236 19.5775 67.8796 18.609V23.4046H65.4316V9.51367H67.8796V11.4745C68.6716 10.3878 69.7756 9.51367 71.4796 9.51367C73.9996 9.51367 76.4476 11.4745 76.4476 14.9708C76.4476 18.4672 74.0236 20.4516 71.4796 20.4516Z" fill="#A0A0A0"/>
<path d="M81.7998 11.8066V16.9566C81.7998 17.878 82.2798 18.256 83.1198 18.256H84.0798V20.4058H82.3998C80.6238 20.4058 79.3518 19.6262 79.3518 17.3346V11.8066H78.0078V9.75129H79.3518V6.86914H81.7998V9.75129H84.0798V11.8066H81.7998Z" fill="#A0A0A0"/>
<path d="M91.7845 11.616C89.8165 11.616 88.5685 13.128 88.5685 14.9707C88.5685 16.837 89.9125 18.3725 91.8085 18.3725C93.7765 18.3725 95.0245 16.8606 95.0245 15.0179C95.0725 13.1516 93.7045 11.616 91.7845 11.616ZM91.7845 20.4751C88.5445 20.4751 86.1445 18.0418 86.1445 15.0415C86.1445 12.0176 88.5685 9.53711 91.8325 9.53711C95.0965 9.53711 97.4965 11.9704 97.4965 14.9943C97.4965 17.9709 95.0965 20.4751 91.7845 20.4751Z" fill="#A0A0A0"/>
<path d="M120.848 11.616C118.88 11.616 117.632 13.128 117.632 14.9707C117.632 16.837 118.976 18.3725 120.872 18.3725C122.84 18.3725 124.088 16.8606 124.088 15.0179C124.112 13.1516 122.768 11.616 120.848 11.616ZM120.848 20.4751C117.608 20.4751 115.208 18.0418 115.208 15.0415C115.208 12.0176 117.632 9.53711 120.896 9.53711C124.16 9.53711 126.56 11.9704 126.56 14.9943C126.56 17.9709 124.136 20.4751 120.848 20.4751Z" fill="#A0A0A0"/>
<path d="M141.056 9.51367C143.384 9.51367 144.8 10.9547 144.8 13.5298V20.4516H142.352V14.2621C142.352 12.5848 141.56 11.7107 140.192 11.7107C138.872 11.7107 137.912 12.6321 137.912 14.3094V20.4753H135.464V14.2621C135.464 12.632 134.648 11.7107 133.304 11.7107C131.96 11.7107 131.024 12.7029 131.024 14.333V20.4753H128.576V9.53729H131.024V11.3327C131.72 10.4114 132.632 9.53729 134.264 9.53729C135.8 9.53729 136.856 10.2696 137.432 11.38C138.32 10.246 139.448 9.51367 141.056 9.51367Z" fill="#A0A0A0"/>
<path d="M99.6325 18.1375L100.689 17.5469H100.833L101.913 18.1375L101.985 18.2556V19.484L101.913 19.6022L100.833 20.1928H100.689L99.6325 19.6022L99.5605 19.484V18.2556L99.6325 18.1375Z" fill="#A0A0A0"/>
<path d="M109.4 20.4512C106.232 20.3803 103.952 17.8998 104 14.8995C104.048 11.8992 106.448 9.44234 109.64 9.51321C111.656 9.56046 112.904 10.3164 113.864 11.4031L112.328 12.986C111.608 12.2064 110.816 11.6394 109.592 11.6158C107.816 11.5921 106.496 13.0568 106.472 14.9231C106.424 16.8131 107.72 18.3486 109.592 18.3723C110.744 18.3959 111.608 17.8761 112.376 17.1202L113.816 18.5849C112.736 19.6952 111.488 20.4984 109.4 20.4512Z" fill="#A0A0A0"/>
</g>
<defs>
<clipPath id="clip0_1931_8178">
<rect width="144" height="27.215" fill="white" transform="translate(0.799805 0.560547)"/>
</clipPath>
</defs>
</svg>
