<svg width="118" height="28" viewBox="0 0 118 28" fill="none" xmlns="http://www.w3.org/2000/svg">
<g clip-path="url(#clip0_1931_8194)">
<mask id="mask0_1931_8194" style="mask-type:luminance" maskUnits="userSpaceOnUse" x="-1" y="0" width="119" height="28">
<path d="M-0.00195312 0.560547H117.998V27.5605H-0.00195312V0.560547Z" fill="white"/>
</mask>
<g mask="url(#mask0_1931_8194)">
<path fill-rule="evenodd" clip-rule="evenodd" d="M97.6869 8.58554H101.038V5.23633H97.6869V8.58554ZM79.8749 14.1631C80.5152 12.4661 82.1549 11.2578 84.0777 11.2578C86.0002 11.2578 87.6399 12.4661 88.2805 14.1631H79.8749ZM84.0777 8.14385C79.8771 8.14385 76.4707 11.5477 76.4707 15.7467C76.4707 19.9456 79.8771 23.3489 84.0777 23.3489C86.9603 23.3489 89.4679 21.7471 90.7587 19.386L87.9479 18.0232C87.1668 19.3465 85.7264 20.235 84.0777 20.235C81.9946 20.235 80.2437 18.8177 79.7356 16.8956H88.4195C88.4189 16.897 88.4187 16.8989 88.4184 16.9006H91.5989C91.6563 16.5242 91.686 16.1388 91.686 15.7467C91.686 11.5477 88.2797 8.14385 84.0777 8.14385ZM92.5694 22.9436H95.9205V19.5944H92.5694V22.9436ZM97.6869 22.9436H101.038V10.0579H97.6869V22.9436ZM110.392 20.235C107.911 20.235 105.9 18.2254 105.9 15.7467C105.9 13.2674 107.911 11.2578 110.392 11.2578C112.872 11.2578 114.883 13.2674 114.883 15.7467C114.883 18.2254 112.872 20.235 110.392 20.235ZM110.39 8.14385C106.19 8.14385 102.783 11.5477 102.783 15.7467C102.783 19.9456 106.19 23.3489 110.39 23.3489C114.592 23.3489 117.998 19.9456 117.998 15.7467C117.998 11.5477 114.592 8.14385 110.39 8.14385ZM40.3253 12.9442V16.4071H45.011C44.7664 17.3966 44.2827 18.2834 43.5891 18.9917C42.5429 20.0602 41.0924 20.6489 39.5042 20.6489C36.2088 20.6489 33.5274 17.9694 33.5274 14.6756C33.5274 11.3819 36.2088 8.70205 39.5042 8.70205C41.2695 8.70205 42.8921 9.45715 44.017 10.7595L46.6998 8.56873C44.9211 6.48549 42.282 5.23885 39.5042 5.23885C34.2981 5.23885 30.0625 9.47228 30.0625 14.6756C30.0625 19.879 34.2981 24.1121 39.5042 24.1121C42.032 24.1121 44.3623 23.2019 46.0659 21.462C47.4954 20.0017 48.4429 17.9646 48.6251 15.9239C48.7139 14.9285 48.722 13.9399 48.6696 12.9442H40.3253ZM57.3945 20.2358C54.914 20.2358 52.903 18.2257 52.903 15.7467C52.903 13.2671 54.914 11.2575 57.3945 11.2575C59.8752 11.2575 61.8862 13.2671 61.8862 15.7467C61.8862 18.2257 59.8752 20.2358 57.3945 20.2358ZM61.8868 9.62548C60.6277 8.70289 59.0751 8.15674 57.3945 8.15674C53.1939 8.15674 49.7886 11.5603 49.7886 15.7584C49.7886 19.9571 53.1939 23.3601 57.3945 23.3601C59.0751 23.3601 60.6277 22.8142 61.8868 21.8916V22.9436H65.0006V8.5735H61.8868V9.62548ZM71.685 5.23661H68.5709V8.58554H66.7045V11.5228H68.5709V19.2093C68.5709 20.0031 68.6707 20.6708 68.8685 21.1948C69.0636 21.7132 69.3618 22.1191 69.7163 22.4361C70.0755 22.7579 70.497 23.0086 70.9967 23.1509C71.5045 23.2937 72.0647 23.3489 72.6569 23.3489C73.2698 23.3489 73.8162 23.2853 74.2826 23.1596C74.7155 23.0433 75.1306 22.8789 75.5168 22.67V20.3033C74.9025 20.5688 74.3283 20.6649 73.673 20.6954C72.9814 20.7279 72.5722 20.5304 72.2317 20.2061C71.875 19.8664 71.685 19.4236 71.685 18.6808V11.5228H75.5168V8.58554H71.685V5.23661Z" fill="#A0A0A0"/>
</g>
<mask id="mask1_1931_8194" style="mask-type:luminance" maskUnits="userSpaceOnUse" x="-1" y="0" width="119" height="28">
<path d="M-0.00195312 0.560547H117.998V27.5605H-0.00195312V0.560547Z" fill="white"/>
</mask>
<g mask="url(#mask1_1931_8194)">
<path fill-rule="evenodd" clip-rule="evenodd" d="M13.5061 21.4857C9.40305 21.4857 6.07683 18.1617 6.07683 14.0607C6.07683 9.96007 9.40305 6.63551 13.5061 6.63551V0.560547C6.04572 0.560547 -0.00195312 6.6047 -0.00195312 14.0607C-0.00195312 21.5165 6.04572 27.5607 13.5061 27.5607C20.9662 27.5607 27.0142 21.5165 27.0142 14.0607H20.9354C20.9354 18.1617 17.6092 21.4857 13.5061 21.4857Z" fill="#A0A0A0"/>
</g>
<mask id="mask2_1931_8194" style="mask-type:luminance" maskUnits="userSpaceOnUse" x="-1" y="0" width="119" height="28">
<path d="M-0.00195312 0.560547H117.998V27.5605H-0.00195312V0.560547Z" fill="white"/>
</mask>
<g mask="url(#mask2_1931_8194)">
<path fill-rule="evenodd" clip-rule="evenodd" d="M13.5068 14.0617H20.9361V6.63672H13.5068V14.0617Z" fill="#A0A0A0"/>
</g>
</g>
<defs>
<clipPath id="clip0_1931_8194">
<rect width="118" height="27" fill="white" transform="translate(0 0.560547)"/>
</clipPath>
</defs>
</svg>
