<svg width="119" height="28" viewBox="0 0 119 28" fill="none" xmlns="http://www.w3.org/2000/svg">
<g clip-path="url(#clip0_2320_1681)">
<mask id="mask0_2320_1681" style="mask-type:luminance" maskUnits="userSpaceOnUse" x="0" y="0" width="119" height="28">
<path d="M0.681152 0.117188H118.681V27.1172H0.681152V0.117188Z" fill="white"/>
</mask>
<g mask="url(#mask0_2320_1681)">
<path fill-rule="evenodd" clip-rule="evenodd" d="M98.3705 8.14218H101.722V4.79297H98.3705V8.14218ZM80.5584 13.7197C81.1988 12.0227 82.8385 10.8144 84.7613 10.8144C86.6838 10.8144 88.3235 12.0227 88.9641 13.7197H80.5584ZM84.7613 7.70049C80.5607 7.70049 77.1543 11.1043 77.1543 15.3033C77.1543 19.5023 80.5607 22.9055 84.7613 22.9055C87.6439 22.9055 90.1515 21.3038 91.4423 18.9427L88.6315 17.5798C87.8504 18.9032 86.41 19.7916 84.7613 19.7916C82.6782 19.7916 80.9272 18.3744 80.4192 16.4522H89.1031C89.1025 16.4536 89.1023 16.4556 89.102 16.4572H92.2825C92.3399 16.0808 92.3696 15.6954 92.3696 15.3033C92.3696 11.1043 88.9633 7.70049 84.7613 7.70049ZM93.253 22.5003H96.6041V19.1511H93.253V22.5003ZM98.3705 22.5003H101.722V9.61457H98.3705V22.5003ZM111.075 19.7916C108.595 19.7916 106.584 17.782 106.584 15.3033C106.584 12.824 108.595 10.8144 111.075 10.8144C113.556 10.8144 115.566 12.824 115.566 15.3033C115.566 17.782 113.556 19.7916 111.075 19.7916ZM111.074 7.70049C106.873 7.70049 103.467 11.1043 103.467 15.3033C103.467 19.5023 106.873 22.9055 111.074 22.9055C115.276 22.9055 118.682 19.5023 118.682 15.3033C118.682 11.1043 115.276 7.70049 111.074 7.70049ZM41.0089 12.5008V15.9637H45.6946C45.45 16.9533 44.9663 17.84 44.2727 18.5483C43.2265 19.6168 41.776 20.2056 40.1878 20.2056C36.8924 20.2056 34.211 17.526 34.211 14.2323C34.211 10.9385 36.8924 8.25869 40.1878 8.25869C41.9531 8.25869 43.5757 9.01379 44.7006 10.3162L47.3834 8.12538C45.6047 6.04213 42.9656 4.79549 40.1878 4.79549C34.9817 4.79549 30.7461 9.02892 30.7461 14.2323C30.7461 19.4356 34.9817 23.6688 40.1878 23.6688C42.7156 23.6688 45.0459 22.7585 46.7495 21.0186C48.179 19.5583 49.1265 17.5213 49.3087 15.4806C49.3975 14.4852 49.4056 13.4965 49.3532 12.5008H41.0089ZM58.0781 19.7924C55.5976 19.7924 53.5866 17.7823 53.5866 15.3033C53.5866 12.8237 55.5976 10.8142 58.0781 10.8142C60.5588 10.8142 62.5698 12.8237 62.5698 15.3033C62.5698 17.7823 60.5588 19.7924 58.0781 19.7924ZM62.5704 9.18212C61.3112 8.25953 59.7587 7.71338 58.0781 7.71338C53.8775 7.71338 50.4722 11.1169 50.4722 15.3151C50.4722 19.5138 53.8775 22.9167 58.0781 22.9167C59.7587 22.9167 61.3112 22.3709 62.5704 21.4483V22.5003H65.6842V8.13014H62.5704V9.18212ZM72.3686 4.79325H69.2545V8.14218H67.3881V11.0794H69.2545V18.7659C69.2545 19.5597 69.3543 20.2274 69.5521 20.7514C69.7472 21.2699 70.0453 21.6757 70.3999 21.9928C70.7591 22.3146 71.1806 22.5652 71.6803 22.7075C72.1881 22.8504 72.7483 22.9055 73.3405 22.9055C73.9534 22.9055 74.4998 22.842 74.9662 22.7162C75.3991 22.6 75.8142 22.4356 76.2004 22.2266V19.8599C75.5861 20.1255 75.0118 20.2215 74.3566 20.2521C73.665 20.2845 73.2558 20.0871 72.9153 19.7627C72.5586 19.423 72.3686 18.9802 72.3686 18.2374V11.0794H76.2004V8.14218H72.3686V4.79325Z" fill="#A0A0A0"/>
</g>
<mask id="mask1_2320_1681" style="mask-type:luminance" maskUnits="userSpaceOnUse" x="0" y="0" width="119" height="28">
<path d="M0.681152 0.117188H118.681V27.1172H0.681152V0.117188Z" fill="white"/>
</mask>
<g mask="url(#mask1_2320_1681)">
<path fill-rule="evenodd" clip-rule="evenodd" d="M14.1897 21.0423C10.0866 21.0423 6.76043 17.7183 6.76043 13.6174C6.76043 9.51671 10.0866 6.19215 14.1897 6.19215V0.117188C6.72932 0.117188 0.681641 6.16134 0.681641 13.6174C0.681641 21.0731 6.72932 27.1173 14.1897 27.1173C21.6498 27.1173 27.6978 21.0731 27.6978 13.6174H21.619C21.619 17.7183 18.2928 21.0423 14.1897 21.0423Z" fill="#A0A0A0"/>
</g>
<mask id="mask2_2320_1681" style="mask-type:luminance" maskUnits="userSpaceOnUse" x="0" y="0" width="119" height="28">
<path d="M0.681152 0.117188H118.681V27.1172H0.681152V0.117188Z" fill="white"/>
</mask>
<g mask="url(#mask2_2320_1681)">
<path fill-rule="evenodd" clip-rule="evenodd" d="M14.1895 13.6164H21.6187V6.19141H14.1895V13.6164Z" fill="#A0A0A0"/>
</g>
</g>
<defs>
<clipPath id="clip0_2320_1681">
<rect width="118" height="27" fill="white" transform="translate(0.683594 0.117188)"/>
</clipPath>
</defs>
</svg>
