<svg width="59" height="40" viewBox="0 0 59 40" fill="none" xmlns="http://www.w3.org/2000/svg">
<g clip-path="url(#clip0_2320_1628)">
<path fill-rule="evenodd" clip-rule="evenodd" d="M0.200195 22.1973C0.200195 12.4311 8.03251 4.51172 17.693 4.51172V31.1344H22.558V22.1973H35.9444C35.9444 31.8552 27.8035 39.7032 17.6907 39.8782C17.6907 39.8874 17.5422 39.8805 17.5236 39.8805C7.87475 40.0048 0.200195 31.5236 0.200195 22.1973Z" fill="#A0A0A0"/>
<path fill-rule="evenodd" clip-rule="evenodd" d="M58.2003 17.8068C58.2003 27.5753 50.368 35.4923 40.7075 35.4923V8.86963H35.8425V17.8068H22.4561C22.4561 8.14885 30.5969 0.300897 40.7098 0.125884C40.7098 0.116672 40.8583 0.123581 40.8768 0.123581C50.5257 -0.000770725 58.2003 8.48045 58.2003 17.8068Z" fill="#A0A0A0"/>
</g>
<defs>
<clipPath id="clip0_2320_1628">
<rect width="58" height="40" fill="white" transform="translate(0.199707)"/>
</clipPath>
</defs>
</svg>
