<svg width="59" height="41" viewBox="0 0 59 41" fill="none" xmlns="http://www.w3.org/2000/svg">
<path fill-rule="evenodd" clip-rule="evenodd" d="M0.199219 22.7578C0.199219 12.9916 8.03154 5.07227 17.692 5.07227V31.695H22.5571V22.7578H35.9434C35.9434 32.4158 27.8026 40.2637 17.6897 40.4387C17.6897 40.4479 17.5412 40.441 17.5227 40.441C7.87378 40.5654 0.199219 32.0842 0.199219 22.7578Z" fill="#A0A0A0"/>
<path fill-rule="evenodd" clip-rule="evenodd" d="M58.1993 18.3674C58.1993 28.1359 50.367 36.0529 40.7065 36.0529V9.43018H35.8415V18.3674H22.4551C22.4551 8.7094 30.596 0.861444 40.7088 0.686431C40.7088 0.677219 40.8573 0.684128 40.8759 0.684128C50.5247 0.559776 58.1993 9.041 58.1993 18.3674Z" fill="#A0A0A0"/>
</svg>
