<svg width="81" height="32" viewBox="0 0 81 32" fill="none" xmlns="http://www.w3.org/2000/svg">
<g clip-path="url(#clip0_1931_8217)">
<path d="M13.7637 10.0799C13.8556 5.55143 11.2937 1.60555 9.95829 0.656857C9.95207 0.650626 9.83378 0.586757 9.84312 0.764345C9.84312 0.767461 9.84 0.76746 9.84 0.770575C9.70304 9.32439 5.30926 11.6299 2.92483 14.7657C-2.37634 21.7369 2.04701 29.6909 7.77775 31.1973C7.8758 31.2222 8.14039 31.3017 8.64312 31.4045C8.9046 31.459 8.98086 31.2362 8.78942 30.9044C8.10459 29.7127 6.88592 27.6985 6.64467 25.1126C6.09526 19.1073 13.6563 15.3499 13.7637 10.0799Z" fill="#A0A0A0"/>
<path d="M16.652 12.981C16.6069 12.9467 16.5431 12.9498 16.5369 13.009C16.4155 14.0979 15.2902 16.3552 13.81 18.4644C8.82637 25.5788 11.3369 28.8066 13.2855 31.0451C13.645 31.4595 13.824 31.3691 14.0139 31.0732C14.1913 30.7928 14.4591 30.436 15.6108 29.8892C15.7898 29.8036 20.1415 27.4918 20.6131 22.228C21.0661 17.1341 17.8038 13.9141 16.652 12.981Z" fill="#A0A0A0"/>
<path d="M42.5348 11.6836V30.4051H38.5224V22.842H30.8119V30.4051H26.6982V11.6836H30.8119V19.2467H38.5224V11.6836H42.5348Z" fill="#A0A0A0"/>
<path d="M61.0846 11.6836V15.3865H59.1749H55.3243V30.4035H51.1967V15.3865H47.4488H45.5391V11.6836H61.0846Z" fill="#A0A0A0"/>
<path fill-rule="evenodd" clip-rule="evenodd" d="M75.6966 30.4238L70.9806 23.9091L66.3005 30.3958L61.7246 30.402L68.6616 20.8449L62.1137 11.6836H66.6865L80.2507 30.4238H75.6966Z" fill="#A0A0A0"/>
<path d="M72.2637 15.8733L74.5267 19.02L79.8886 11.6797H75.3407L72.2637 15.8733Z" fill="#A0A0A0"/>
</g>
<defs>
<clipPath id="clip0_1931_8217">
<rect width="80" height="31" fill="white" transform="translate(0.399414 0.560547)"/>
</clipPath>
</defs>
</svg>
