<svg width="81" height="31" viewBox="0 0 81 31" fill="none" xmlns="http://www.w3.org/2000/svg">
<g clip-path="url(#clip0_2320_1634)">
<path d="M13.7657 9.52133C13.8575 4.99284 11.2957 1.04696 9.96024 0.0982636C9.95402 0.0920325 9.83573 0.0281635 9.84507 0.205751C9.84507 0.208867 9.84196 0.208866 9.84196 0.211982C9.70499 8.7658 5.31122 11.0713 2.92678 14.2072C-2.37439 21.1783 2.04896 29.1323 7.7797 30.6387C7.87775 30.6636 8.14235 30.7431 8.64507 30.8459C8.90655 30.9004 8.98281 30.6777 8.79137 30.3458C8.10655 29.1541 6.88787 27.1399 6.64663 24.554C6.09721 18.5487 13.6583 14.7913 13.7657 9.52133Z" fill="#A0A0A0"/>
<path d="M16.654 12.4205C16.6089 12.3862 16.5451 12.3893 16.5388 12.4485C16.4174 13.5374 15.2921 15.7946 13.812 17.9039C8.82832 25.0183 11.3388 28.246 13.2875 30.4846C13.647 30.8989 13.826 30.8086 14.0159 30.5126C14.1933 30.2322 14.461 29.8755 15.6128 29.3287C15.7917 29.243 20.1435 26.9313 20.6151 21.6675C21.068 16.5735 17.8058 13.3536 16.654 12.4205Z" fill="#A0A0A0"/>
<path d="M42.5363 11.125V29.8465H38.5238V22.2834H30.8133V29.8465H26.6997V11.125H30.8133V18.6881H38.5238V11.125H42.5363Z" fill="#A0A0A0"/>
<path d="M61.0865 11.125V14.8279H59.1768H55.3262V29.845H51.1986V14.8279H47.4507H45.541V11.125H61.0865Z" fill="#A0A0A0"/>
<path fill-rule="evenodd" clip-rule="evenodd" d="M75.6985 29.8652L70.9826 23.3505L66.3024 29.8372L61.7266 29.8434L68.6635 20.2864L62.1157 11.125H66.6884L80.2526 29.8652H75.6985Z" fill="#A0A0A0"/>
<path d="M72.2656 15.3147L74.5287 18.4614L79.8905 11.1211H75.3427L72.2656 15.3147Z" fill="#A0A0A0"/>
</g>
<defs>
<clipPath id="clip0_2320_1634">
<rect width="80" height="31" fill="white" transform="translate(0.400879)"/>
</clipPath>
</defs>
</svg>
