<svg width="125" height="20" viewBox="0 0 125 20" fill="none" xmlns="http://www.w3.org/2000/svg">
<g clip-path="url(#clip0_1931_8227)">
<path d="M29.089 0.961391H31.9751V8.57743L39.6713 0.961391H43.5194L36.6249 7.6154L43.8401 18.839H39.992L34.3802 9.77996L31.8949 12.185V18.9192H29.0089L29.089 0.961391ZM45.4435 0.961391H48.3295V4.08797C48.57 3.52679 49.1312 2.7251 50.0131 1.92342C50.8949 1.04156 51.9371 0.640716 53.1397 0.640716H53.4603C53.6207 0.640716 53.8612 0.640716 54.1819 0.720884V3.92764C54.0215 3.92764 53.8612 3.84747 53.7008 3.84747H53.2198C51.6966 3.84747 50.5743 4.32848 49.7726 5.29051C48.9709 6.25253 48.57 7.37489 48.57 8.65759V18.9192H45.5236L45.4435 0.961391ZM65.3253 8.01624C66.0468 7.93608 66.4477 7.6154 66.6882 7.13439C66.8485 6.89388 66.8485 6.49304 66.8485 6.01202C66.8485 4.96983 66.4477 4.24831 65.7262 3.7673C65.0046 3.28629 63.9625 3.04578 62.5996 3.04578C60.9962 3.04578 59.954 3.44662 59.2325 4.32848C58.8316 4.80949 58.5911 5.53101 58.511 6.41287H55.7051C55.7852 4.16814 56.5068 2.64494 57.8696 1.84325C59.3127 0.961391 60.8359 0.560547 62.6798 0.560547C64.7641 0.560547 66.4477 0.961391 67.8106 1.76308C69.0933 2.56477 69.7346 3.84747 69.7346 5.53101V15.7926C69.7346 16.1133 69.8148 16.3538 69.8949 16.5141C70.0553 16.6745 70.2958 16.8348 70.6966 16.8348H71.1776C71.1776 16.8348 71.4983 16.7546 71.7388 16.7546V18.9994C71.2578 19.1597 70.9371 19.2399 70.6966 19.2399C70.4561 19.2399 70.1354 19.32 69.7346 19.32C68.6924 19.32 67.9709 18.9192 67.4899 18.1977C67.2494 17.7968 67.089 17.2357 67.0089 16.5141C66.3675 17.3158 65.4857 18.0373 64.3633 18.5985C63.2409 19.1597 61.9582 19.4804 60.5954 19.4804C58.9118 19.4804 57.5489 18.9994 56.5068 17.9572C55.4646 16.915 54.9034 15.7124 54.9034 14.1892C54.9034 12.5057 55.3844 11.223 56.4266 10.3411C57.4688 9.45928 58.8316 8.8981 60.5152 8.65759L65.3253 8.01624ZM58.992 16.1133C59.6333 16.5943 60.3549 16.8348 61.2367 16.8348C62.2789 16.8348 63.3211 16.5943 64.2831 16.1133C65.9667 15.3116 66.7684 13.9487 66.7684 12.1049V9.69979C66.3675 9.94029 65.9667 10.1006 65.3253 10.261C64.684 10.4213 64.203 10.5015 63.6418 10.5816L61.8781 10.9825C60.7557 11.1428 59.954 11.3833 59.3928 11.704C58.4308 12.2652 58.03 13.0669 58.03 14.1892C58.03 14.9909 58.3506 15.6323 58.992 16.1133ZM73.743 0.961391H76.6291V8.57743L84.3253 0.961391H88.1734L81.2789 7.6154L88.4941 18.839H84.646L79.0342 9.77996L76.549 12.185V18.9192H73.6629L73.743 0.961391ZM100.76 1.52257C101.962 2.08375 102.844 2.88544 103.486 3.84747C104.047 4.72932 104.448 5.77152 104.688 6.97405C104.849 7.77574 104.929 9.13861 104.929 10.9023H91.9414C92.0215 12.7462 92.4224 14.1892 93.2241 15.3116C94.0257 16.434 95.2283 16.9951 96.9118 16.9951C98.435 16.9951 99.7177 16.5141 100.6 15.4719C101.081 14.8306 101.481 14.1892 101.722 13.3876H104.688C104.608 14.0289 104.368 14.7504 103.887 15.5521C103.486 16.3538 102.924 16.9951 102.443 17.5563C101.562 18.4382 100.439 19.0795 99.0764 19.32C98.3549 19.4804 97.5532 19.5605 96.6713 19.5605C94.4266 19.5605 92.5827 18.7589 91.0595 17.1555C89.5363 15.5521 88.7346 13.3074 88.7346 10.4213C88.7346 7.53523 89.5363 5.21034 91.0595 3.44662C92.5827 1.68291 94.6671 0.720884 97.1523 0.720884C98.3549 0.560547 99.5574 0.881222 100.76 1.52257ZM101.882 8.49726C101.722 7.21456 101.481 6.17236 101 5.37067C100.199 3.92764 98.8359 3.20612 96.9118 3.20612C95.549 3.20612 94.4266 3.68713 93.4646 4.72932C92.5025 5.69135 92.0215 6.97405 92.0215 8.49726H101.882ZM107.574 0.961391H110.46V3.52679C111.342 2.4846 112.224 1.76308 113.186 1.28207C114.148 0.801053 115.19 0.560547 116.313 0.560547C118.878 0.560547 120.562 1.4424 121.443 3.20612C121.924 4.16814 122.165 5.53101 122.165 7.37489V18.839H119.119V7.6154C119.119 6.49304 118.958 5.61118 118.638 4.96983C118.076 3.84747 117.114 3.28629 115.751 3.28629C115.03 3.28629 114.469 3.36645 113.988 3.52679C113.186 3.7673 112.465 4.24831 111.823 4.96983C111.342 5.53101 111.022 6.17236 110.861 6.81371C110.701 7.45506 110.621 8.33692 110.621 9.53945V18.9192H107.654L107.574 0.961391ZM14.4181 0.961391C8.16498 0.961391 3.03418 6.01202 3.03418 12.3454V17.2357C3.03418 18.1175 3.7557 18.839 4.63756 18.839C5.51941 18.839 6.24093 18.1175 6.24093 17.2357V12.3454C6.24093 11.4635 6.96245 10.742 7.84431 10.742C8.72616 10.742 9.44768 11.4635 9.44768 12.3454V17.2357C9.44768 18.1175 10.1692 18.839 11.0511 18.839C11.9329 18.839 12.6544 18.1175 12.6544 17.2357V12.3454C12.6544 11.4635 13.376 10.742 14.2578 10.742C15.1397 10.742 15.8612 11.4635 15.8612 12.3454V17.2357C15.8612 18.1175 16.5827 18.839 17.4646 18.839C18.3464 18.839 19.0679 18.1175 19.0679 17.2357V12.3454C19.0679 11.4635 19.7895 10.742 20.6713 10.742C21.5532 10.742 22.2747 11.4635 22.2747 12.3454V17.2357C22.2747 18.1175 22.9962 18.839 23.8781 18.839C24.7599 18.839 25.4814 18.1175 25.4814 17.2357V12.3454C25.8823 6.01202 20.7515 0.961391 14.4181 0.961391Z" fill="#A0A0A0"/>
</g>
<defs>
<clipPath id="clip0_1931_8227">
<rect width="123.698" height="19" fill="white" transform="translate(0.750977 0.560547)"/>
</clipPath>
</defs>
</svg>
