<svg width="125" height="19" viewBox="0 0 125 19" fill="none" xmlns="http://www.w3.org/2000/svg">
<g clip-path="url(#clip0_2320_1643)">
<path d="M29.0885 0.400844H31.9746V8.01688L39.6708 0.400844H43.5189L36.6244 7.05485L43.8396 18.2785H39.9915L34.3797 9.21941L31.8945 11.6245V18.3587H29.0084L29.0885 0.400844ZM45.443 0.400844H48.3291V3.52743C48.5696 2.96625 49.1307 2.16456 50.0126 1.36287C50.8945 0.481013 51.9366 0.0801688 53.1392 0.0801688H53.4599C53.6202 0.0801688 53.8607 0.0801688 54.1814 0.160338V3.36709C54.021 3.36709 53.8607 3.28692 53.7004 3.28692H53.2193C51.6961 3.28692 50.5738 3.76793 49.7721 4.72996C48.9704 5.69198 48.5696 6.81435 48.5696 8.09705V18.3587H45.5231L45.443 0.400844ZM65.3248 7.4557C66.0463 7.37553 66.4472 7.05485 66.6877 6.57384C66.848 6.33333 66.848 5.93249 66.848 5.45148C66.848 4.40928 66.4472 3.68776 65.7257 3.20675C65.0042 2.72574 63.962 2.48523 62.5991 2.48523C60.9957 2.48523 59.9535 2.88608 59.232 3.76793C58.8312 4.24895 58.5907 4.97046 58.5105 5.85232H55.7046C55.7847 3.6076 56.5063 2.08439 57.8691 1.2827C59.3122 0.400844 60.8354 0 62.6793 0C64.7637 0 66.4472 0.400844 67.8101 1.20253C69.0928 2.00422 69.7341 3.28692 69.7341 4.97046V15.2321C69.7341 15.5527 69.8143 15.7933 69.8945 15.9536C70.0548 16.1139 70.2953 16.2743 70.6961 16.2743H71.1772C71.1772 16.2743 71.4978 16.1941 71.7383 16.1941V18.4388C71.2573 18.5992 70.9366 18.6793 70.6961 18.6793C70.4556 18.6793 70.135 18.7595 69.7341 18.7595C68.6919 18.7595 67.9704 18.3587 67.4894 17.6371C67.2489 17.2363 67.0885 16.6751 67.0084 15.9536C66.367 16.7553 65.4852 17.4768 64.3628 18.038C63.2404 18.5992 61.9577 18.9198 60.5949 18.9198C58.9113 18.9198 57.5485 18.4388 56.5063 17.3966C55.4641 16.3544 54.9029 15.1519 54.9029 13.6287C54.9029 11.9451 55.3839 10.6624 56.4261 9.78059C57.4683 8.89874 58.8312 8.33755 60.5147 8.09705L65.3248 7.4557ZM58.9915 15.5527C59.6329 16.0338 60.3544 16.2743 61.2362 16.2743C62.2784 16.2743 63.3206 16.0338 64.2826 15.5527C65.9662 14.7511 66.7679 13.3882 66.7679 11.5443V9.13924C66.367 9.37975 65.9662 9.54009 65.3248 9.70042C64.6835 9.86076 64.2025 9.94093 63.6413 10.0211L61.8776 10.4219C60.7552 10.5823 59.9535 10.8228 59.3923 11.1435C58.4303 11.7046 58.0295 12.5063 58.0295 13.6287C58.0295 14.4304 58.3502 15.0717 58.9915 15.5527ZM73.7426 0.400844H76.6286V8.01688L84.3248 0.400844H88.1729L81.2784 7.05485L88.4936 18.2785H84.6455L79.0337 9.21941L76.5485 11.6245V18.3587H73.6624L73.7426 0.400844ZM100.759 0.962025C101.962 1.52321 102.844 2.32489 103.485 3.28692C104.046 4.16878 104.447 5.21097 104.688 6.4135C104.848 7.21519 104.928 8.57806 104.928 10.3418H91.9409C92.021 12.1857 92.4219 13.6287 93.2236 14.7511C94.0253 15.8734 95.2278 16.4346 96.9113 16.4346C98.4345 16.4346 99.7172 15.9536 100.599 14.9114C101.08 14.27 101.481 13.6287 101.721 12.827H104.688C104.608 13.4684 104.367 14.1899 103.886 14.9916C103.485 15.7933 102.924 16.4346 102.443 16.9958C101.561 17.8776 100.439 18.519 99.0759 18.7595C98.3544 18.9198 97.5527 19 96.6708 19C94.4261 19 92.5822 18.1983 91.059 16.5949C89.5358 14.9916 88.7341 12.7468 88.7341 9.86076C88.7341 6.97468 89.5358 4.64979 91.059 2.88608C92.5822 1.12236 94.6666 0.160338 97.1518 0.160338C98.3544 3.58382e-08 99.5569 0.320675 100.759 0.962025ZM101.882 7.93671C101.721 6.65401 101.481 5.61181 101 4.81013C100.198 3.36709 98.8354 2.64557 96.9113 2.64557C95.5485 2.64557 94.4261 3.12658 93.4641 4.16878C92.5021 5.1308 92.021 6.4135 92.021 7.93671H101.882ZM107.574 0.400844H110.46V2.96624C111.342 1.92405 112.224 1.20253 113.186 0.721519C114.148 0.240506 115.19 0 116.312 0C118.878 0 120.561 0.881857 121.443 2.64557C121.924 3.6076 122.164 4.97046 122.164 6.81435V18.2785H119.118V7.05485C119.118 5.93249 118.958 5.05063 118.637 4.40928C118.076 3.28692 117.114 2.72574 115.751 2.72574C115.029 2.72574 114.468 2.80591 113.987 2.96624C113.186 3.20675 112.464 3.68776 111.823 4.40928C111.342 4.97046 111.021 5.61181 110.861 6.25317C110.7 6.89452 110.62 7.77637 110.62 8.9789V18.3587H107.654L107.574 0.400844ZM14.4177 0.400844C8.16449 0.400844 3.03369 5.45148 3.03369 11.7848V16.6751C3.03369 17.557 3.75521 18.2785 4.63707 18.2785C5.51892 18.2785 6.24044 17.557 6.24044 16.6751V11.7848C6.24044 10.903 6.96196 10.1814 7.84382 10.1814C8.72567 10.1814 9.44719 10.903 9.44719 11.7848V16.6751C9.44719 17.557 10.1687 18.2785 11.0506 18.2785C11.9324 18.2785 12.6539 17.557 12.6539 16.6751V11.7848C12.6539 10.903 13.3755 10.1814 14.2573 10.1814C15.1392 10.1814 15.8607 10.903 15.8607 11.7848V16.6751C15.8607 17.557 16.5822 18.2785 17.4641 18.2785C18.3459 18.2785 19.0674 17.557 19.0674 16.6751V11.7848C19.0674 10.903 19.789 10.1814 20.6708 10.1814C21.5527 10.1814 22.2742 10.903 22.2742 11.7848V16.6751C22.2742 17.557 22.9957 18.2785 23.8776 18.2785C24.7594 18.2785 25.4809 17.557 25.4809 16.6751V11.7848C25.8818 5.45148 20.751 0.400844 14.4177 0.400844Z" fill="#A0A0A0"/>
</g>
<defs>
<clipPath id="clip0_2320_1643">
<rect width="123.698" height="19" fill="white" transform="translate(0.75)"/>
</clipPath>
</defs>
</svg>
