<svg width="117" height="27" viewBox="0 0 117 27" fill="none" xmlns="http://www.w3.org/2000/svg">
<g clip-path="url(#clip0_2320_1646)">
<path d="M91.8615 13.6118C91.8615 12.9433 91.8615 12.2748 91.8615 11.7018C91.8615 11.1288 91.7662 10.5558 91.6709 10.0783C91.5756 9.60084 91.385 9.12334 91.1944 8.64584C91.0038 8.16834 90.6226 7.78635 90.2415 7.40435C89.6697 6.83135 89.0979 6.44934 88.3356 6.06734C87.5732 5.78084 86.8108 5.58984 85.9532 5.58984C85.0955 5.58984 84.3332 5.68534 83.5708 6.06734C82.9038 6.35384 82.2367 6.83134 81.6649 7.30884C81.2838 7.69084 80.9979 8.07285 80.712 8.55035C80.5214 9.02785 80.3308 9.50535 80.2355 9.98285C80.1402 10.5558 80.0449 11.1288 80.0449 11.6063C80.0449 12.1793 80.0449 12.8478 80.0449 13.5163C80.0449 14.1848 80.0449 14.8533 80.0449 15.4263C80.0449 15.9993 80.1402 16.5723 80.2355 17.0498C80.3308 17.5273 80.5214 18.0048 80.712 18.4823C80.9026 18.9598 81.2838 19.3418 81.6649 19.7238C82.2367 20.2968 82.8085 20.6788 83.5708 20.9653C84.3332 21.2518 85.1908 21.4428 85.9532 21.4428C86.8108 21.4428 87.5732 21.3473 88.3356 20.9653C89.0026 20.6788 89.6697 20.2013 90.2415 19.7238C90.6226 19.3418 90.9085 18.9598 91.1944 18.4823C91.385 18.0048 91.5756 17.5273 91.6709 17.0498C91.7662 16.4768 91.8615 15.9038 91.8615 15.4263C91.8615 14.9488 91.9568 14.2803 91.8615 13.6118ZM88.812 13.6118C88.812 14.3758 88.812 15.0443 88.812 15.5218C88.812 15.9038 88.7167 16.3813 88.7167 16.7633C88.7167 17.0498 88.6214 17.3363 88.4309 17.5273C88.3356 17.7183 88.2403 17.9093 88.0497 18.1003C87.8591 18.3868 87.5732 18.5778 87.192 18.6733C86.8108 18.8643 86.4297 18.8643 86.0485 18.8643C85.6673 18.8643 85.2861 18.7688 84.905 18.6733C84.6191 18.5778 84.2379 18.2913 84.0473 18.1003C83.8567 17.9093 83.7614 17.7183 83.6661 17.5273C83.5708 17.2408 83.4755 17.0498 83.4755 16.7633C83.3802 16.3813 83.3802 15.9038 83.3802 15.5218C83.3802 15.0443 83.3802 14.3758 83.3802 13.6118C83.3802 12.8478 83.3802 12.1793 83.3802 11.7018C83.3802 11.3198 83.4755 10.8423 83.4755 10.4603C83.4755 10.1738 83.5708 9.88734 83.6661 9.69634C83.7614 9.50534 83.8567 9.31434 84.0473 9.12334C84.2379 8.83684 84.6191 8.64585 84.905 8.55035C85.2861 8.35935 85.6673 8.35935 86.0485 8.35935C86.4297 8.35935 86.8108 8.45485 87.192 8.55035C87.4779 8.64585 87.7638 8.93234 88.0497 9.12334C88.2403 9.31434 88.3356 9.50534 88.4309 9.69634C88.5261 9.98284 88.6214 10.1738 88.7167 10.4603C88.812 10.8423 88.812 11.3198 88.812 11.7018C88.812 12.2748 88.812 12.8478 88.812 13.6118Z" fill="#A0A0A0"/>
<path d="M116.448 5.974C116.448 5.783 116.352 5.6875 116.162 5.6875H113.684C113.494 5.6875 113.398 5.783 113.398 5.974V15.4285L107.204 5.783C107.204 5.6875 107.109 5.6875 107.013 5.6875H104.631C104.441 5.6875 104.345 5.783 104.345 5.974V21.254C104.345 21.445 104.441 21.5405 104.631 21.5405H107.204C107.395 21.5405 107.49 21.445 107.49 21.254V11.7995L113.684 21.445C113.684 21.5405 113.779 21.5405 113.875 21.5405H116.257C116.448 21.5405 116.543 21.445 116.543 21.254L116.448 5.974Z" fill="#A0A0A0"/>
<path d="M99.3898 5.974C99.3898 5.783 99.2945 5.6875 99.104 5.6875H96.531C96.3404 5.6875 96.2451 5.783 96.2451 5.974V21.254C96.2451 21.445 96.3404 21.5405 96.531 21.5405H99.104C99.2945 21.5405 99.3898 21.445 99.3898 21.254V5.974Z" fill="#A0A0A0"/>
<path d="M68.9904 13.6097C68.9904 12.8457 68.9904 12.1772 68.9904 11.6997C68.9904 11.3177 69.0857 10.8402 69.0857 10.4582C69.2763 9.12119 70.3245 8.26169 71.6587 8.26169C72.5163 8.26169 73.2787 8.54819 73.8504 9.31219C74.041 9.69419 74.2316 10.0762 74.3269 10.4582C74.3269 10.4582 74.3269 10.5537 74.4222 10.5537H77.4716C77.4716 10.5537 77.5669 10.5537 77.5669 10.4582C77.2811 8.64369 76.2328 6.92469 74.5175 6.06519C73.6599 5.68319 72.7069 5.49219 71.754 5.49219C70.0387 5.49219 68.6092 6.06519 67.4657 7.21119C66.7986 7.87969 66.3222 8.64369 66.1316 9.59869C65.941 10.4582 65.8457 11.7952 65.8457 13.5142C65.8457 15.2332 65.941 16.5702 66.1316 17.4297C66.3222 18.2892 66.7986 19.1487 67.3704 19.8172C68.514 20.9632 69.9434 21.5362 71.6587 21.5362C72.6116 21.5362 73.5646 21.3452 74.4222 20.9632C76.1375 20.1037 77.1858 18.4802 77.4716 16.5702C77.4716 16.5702 77.4716 16.4747 77.3764 16.4747H74.4222C74.4222 16.4747 74.3269 16.4747 74.3269 16.5702C74.2316 16.9522 74.041 17.3342 73.8504 17.7162C73.374 18.4802 72.5163 18.7667 71.6587 18.7667C70.3245 18.7667 69.2763 18.0027 69.0857 16.5702C68.9904 16.1882 68.9904 15.7107 68.9904 15.3287C68.9904 15.0422 68.9904 14.3737 68.9904 13.6097Z" fill="#A0A0A0"/>
<path d="M37.3531 5.974C37.3531 5.783 37.2578 5.6875 37.0673 5.6875H34.5896C34.399 5.6875 34.3037 5.783 34.3037 5.974V21.254C34.3037 21.445 34.399 21.5405 34.5896 21.5405H37.1626C37.3531 21.5405 37.4484 21.445 37.4484 21.254V16.7655L39.4496 14.2825L43.6426 21.445C43.6426 21.5405 43.7379 21.5405 43.8332 21.5405H46.8826C46.9779 21.5405 47.0732 21.445 46.9779 21.3495L41.4508 11.9905L46.5014 5.974C46.5967 5.8785 46.5967 5.6875 46.4061 5.6875H43.0708C43.0708 5.6875 42.9755 5.6875 42.9755 5.783L37.4484 12.468V5.974H37.3531Z" fill="#A0A0A0"/>
<path d="M55.9356 18.962C54.5062 18.962 53.1721 17.625 53.1721 16.097V5.974C53.1721 5.783 53.0768 5.6875 52.8862 5.6875H50.3132C50.1226 5.6875 50.0273 5.783 50.0273 5.974V16.0015C50.0273 19.535 52.6003 21.7315 55.8403 21.7315C59.0803 21.7315 61.6533 19.535 61.6533 16.0015V5.974C61.6533 5.783 61.558 5.6875 61.3674 5.6875H58.7945C58.6039 5.6875 58.5086 5.783 58.5086 5.974V16.0015C58.6039 17.625 57.365 18.962 55.9356 18.962Z" fill="#A0A0A0"/>
<path fill-rule="evenodd" clip-rule="evenodd" d="M8.76435 13.6117L16.6738 21.5382L21.6291 16.5722C22.4868 15.8082 23.9162 15.8082 24.7739 16.6677C25.6315 17.5272 25.6315 18.8642 24.8691 19.8192L18.1985 26.3132C17.3409 27.1727 15.9115 27.1727 15.0538 26.3132L5.52434 16.7632V22.4932C5.52434 23.7347 4.4761 24.7852 3.23727 24.7852C1.99844 24.7852 0.950195 23.7347 0.950195 22.4932V4.82575C0.950195 3.58425 1.99844 2.53375 3.23727 2.53375C4.4761 2.53375 5.52434 3.58425 5.52434 4.82575V10.4602L15.0538 0.91025C15.9115 0.05075 17.3409 0.05075 18.1985 0.91025L24.7739 7.49975C25.5362 8.35925 25.5362 9.79175 24.6786 10.6512C23.8209 11.5107 22.4868 11.5107 21.5338 10.7467L16.5785 5.78075L8.76435 13.6117ZM16.6738 11.4152C15.7209 11.4152 14.9585 11.9882 14.5773 12.8477C14.1961 13.7072 14.3867 14.6622 15.0538 15.3307C15.7209 15.9992 16.6738 16.1902 17.5315 15.8082C18.3891 15.4262 18.9609 14.6622 18.9609 13.7072C18.9609 13.1342 18.7703 12.5612 18.2938 12.0837C17.8173 11.6062 17.2456 11.4152 16.6738 11.4152Z" fill="#A0A0A0"/>
</g>
<defs>
<clipPath id="clip0_2320_1646">
<rect width="116" height="27" fill="white" transform="translate(0.800781)"/>
</clipPath>
</defs>
</svg>
