<svg width="117" height="28" viewBox="0 0 117 28" fill="none" xmlns="http://www.w3.org/2000/svg">
<path d="M91.8605 14.1724C91.8605 13.5039 91.8605 12.8354 91.8605 12.2624C91.8605 11.6894 91.7652 11.1164 91.6699 10.6389C91.5746 10.1614 91.384 9.68389 91.1934 9.20639C91.0028 8.72889 90.6217 8.34689 90.2405 7.96489C89.6687 7.39189 89.0969 7.00989 88.3346 6.62789C87.5722 6.34139 86.8099 6.15039 85.9522 6.15039C85.0946 6.15039 84.3322 6.24589 83.5699 6.62789C82.9028 6.91439 82.2357 7.39189 81.664 7.86939C81.2828 8.25139 80.9969 8.63339 80.711 9.11089C80.5204 9.58839 80.3298 10.0659 80.2345 10.5434C80.1392 11.1164 80.0439 11.6894 80.0439 12.1669C80.0439 12.7399 80.0439 13.4084 80.0439 14.0769C80.0439 14.7454 80.0439 15.4139 80.0439 15.9869C80.0439 16.5599 80.1392 17.1329 80.2345 17.6104C80.3298 18.0879 80.5204 18.5654 80.711 19.0429C80.9016 19.5204 81.2828 19.9024 81.664 20.2844C82.2357 20.8574 82.8075 21.2394 83.5699 21.5259C84.3322 21.8124 85.1899 22.0034 85.9522 22.0034C86.8099 22.0034 87.5722 21.9079 88.3346 21.5259C89.0016 21.2394 89.6687 20.7619 90.2405 20.2844C90.6217 19.9024 90.9075 19.5204 91.1934 19.0429C91.384 18.5654 91.5746 18.0879 91.6699 17.6104C91.7652 17.0374 91.8605 16.4644 91.8605 15.9869C91.8605 15.5094 91.9558 14.8409 91.8605 14.1724ZM88.8111 14.1724C88.8111 14.9364 88.8111 15.6049 88.8111 16.0824C88.8111 16.4644 88.7158 16.9419 88.7158 17.3239C88.7158 17.6104 88.6205 17.8969 88.4299 18.0879C88.3346 18.2789 88.2393 18.4699 88.0487 18.6609C87.8581 18.9474 87.5722 19.1384 87.191 19.2339C86.8099 19.4249 86.4287 19.4249 86.0475 19.4249C85.6663 19.4249 85.2852 19.3294 84.904 19.2339C84.6181 19.1384 84.2369 18.8519 84.0463 18.6609C83.8557 18.4699 83.7604 18.2789 83.6651 18.0879C83.5698 17.8014 83.4746 17.6104 83.4746 17.3239C83.3793 16.9419 83.3793 16.4644 83.3793 16.0824C83.3793 15.6049 83.3793 14.9364 83.3793 14.1724C83.3793 13.4084 83.3793 12.7399 83.3793 12.2624C83.3793 11.8804 83.4746 11.4029 83.4746 11.0209C83.4746 10.7344 83.5698 10.4479 83.6651 10.2569C83.7604 10.0659 83.8557 9.87489 84.0463 9.68389C84.2369 9.39739 84.6181 9.20639 84.904 9.11089C85.2852 8.91989 85.6663 8.91989 86.0475 8.91989C86.4287 8.91989 86.8099 9.01539 87.191 9.11089C87.4769 9.20639 87.7628 9.49289 88.0487 9.68389C88.2393 9.87489 88.3346 10.0659 88.4299 10.2569C88.5252 10.5434 88.6205 10.7344 88.7158 11.0209C88.8111 11.4029 88.8111 11.8804 88.8111 12.2624C88.8111 12.8354 88.8111 13.4084 88.8111 14.1724Z" fill="#A0A0A0"/>
<path d="M116.446 6.53455C116.446 6.34355 116.351 6.24805 116.16 6.24805H113.683C113.492 6.24805 113.397 6.34355 113.397 6.53455V15.989L107.203 6.34355C107.203 6.24805 107.107 6.24805 107.012 6.24805H104.63C104.439 6.24805 104.344 6.34355 104.344 6.53455V21.8145C104.344 22.0055 104.439 22.101 104.63 22.101H107.203C107.393 22.101 107.488 22.0055 107.488 21.8145V12.36L113.683 22.0055C113.683 22.101 113.778 22.101 113.873 22.101H116.256C116.446 22.101 116.541 22.0055 116.541 21.8145L116.446 6.53455Z" fill="#A0A0A0"/>
<path d="M99.3889 6.53455C99.3889 6.34355 99.2936 6.24805 99.103 6.24805H96.53C96.3394 6.24805 96.2441 6.34355 96.2441 6.53455V21.8145C96.2441 22.0055 96.3394 22.101 96.53 22.101H99.103C99.2936 22.101 99.3889 22.0055 99.3889 21.8145V6.53455Z" fill="#A0A0A0"/>
<path d="M68.9894 14.1741C68.9894 13.4101 68.9894 12.7416 68.9894 12.2641C68.9894 11.8821 69.0847 11.4046 69.0847 11.0226C69.2753 9.68564 70.3236 8.82614 71.6577 8.82614C72.5153 8.82614 73.2777 9.11264 73.8495 9.87664C74.0401 10.2586 74.2306 10.6406 74.3259 11.0226C74.3259 11.0226 74.3259 11.1181 74.4212 11.1181H77.4707C77.4707 11.1181 77.566 11.1181 77.566 11.0226C77.2801 9.20814 76.2318 7.48914 74.5165 6.62964C73.6589 6.24764 72.7059 6.05664 71.753 6.05664C70.0377 6.05664 68.6083 6.62964 67.4647 7.77564C66.7977 8.44414 66.3212 9.20814 66.1306 10.1631C65.94 11.0226 65.8447 12.3596 65.8447 14.0786C65.8447 15.7976 65.94 17.1346 66.1306 17.9941C66.3212 18.8536 66.7977 19.7131 67.3694 20.3816C68.513 21.5276 69.9424 22.1006 71.6577 22.1006C72.6106 22.1006 73.5636 21.9096 74.4212 21.5276C76.1365 20.6681 77.1848 19.0446 77.4707 17.1346C77.4707 17.1346 77.4707 17.0391 77.3754 17.0391H74.4212C74.4212 17.0391 74.3259 17.0391 74.3259 17.1346C74.2306 17.5166 74.0401 17.8986 73.8495 18.2806C73.373 19.0446 72.5153 19.3311 71.6577 19.3311C70.3236 19.3311 69.2753 18.5671 69.0847 17.1346C68.9894 16.7526 68.9894 16.2751 68.9894 15.8931C68.9894 15.6066 68.9894 14.9381 68.9894 14.1741Z" fill="#A0A0A0"/>
<path d="M37.3522 6.53455C37.3522 6.34355 37.2569 6.24805 37.0663 6.24805H34.5886C34.398 6.24805 34.3027 6.34355 34.3027 6.53455V21.8145C34.3027 22.0055 34.398 22.101 34.5886 22.101H37.1616C37.3522 22.101 37.4475 22.0055 37.4475 21.8145V17.326L39.4486 14.843L43.6416 22.0055C43.6416 22.101 43.7369 22.101 43.8322 22.101H46.8816C46.9769 22.101 47.0722 22.0055 46.9769 21.91L41.4498 12.551L46.5004 6.53455C46.5957 6.43905 46.5957 6.24805 46.4052 6.24805H43.0698C43.0698 6.24805 42.9745 6.24805 42.9745 6.34355L37.4475 13.0285V6.53455H37.3522Z" fill="#A0A0A0"/>
<path d="M55.9346 19.5225C54.5052 19.5225 53.1711 18.1855 53.1711 16.6575V6.53455C53.1711 6.34355 53.0758 6.24805 52.8852 6.24805H50.3123C50.1217 6.24805 50.0264 6.34355 50.0264 6.53455V16.562C50.0264 20.0955 52.5993 22.292 55.8393 22.292C59.0794 22.292 61.6523 20.0955 61.6523 16.562V6.53455C61.6523 6.34355 61.557 6.24805 61.3664 6.24805H58.7935C58.6029 6.24805 58.5076 6.34355 58.5076 6.53455V16.562C58.6029 18.1855 57.3641 19.5225 55.9346 19.5225Z" fill="#A0A0A0"/>
<path fill-rule="evenodd" clip-rule="evenodd" d="M8.76338 14.1742L16.6728 22.1007L21.6282 17.1347C22.4858 16.3707 23.9152 16.3707 24.7729 17.2302C25.6305 18.0897 25.6305 19.4267 24.8682 20.3817L18.1975 26.8757C17.3399 27.7352 15.9105 27.7352 15.0528 26.8757L5.52336 17.3257V23.0557C5.52336 24.2972 4.47512 25.3477 3.23629 25.3477C1.99746 25.3477 0.949219 24.2972 0.949219 23.0557V5.38825C0.949219 4.14675 1.99746 3.09625 3.23629 3.09625C4.47512 3.09625 5.52336 4.14675 5.52336 5.38825V11.0227L15.0528 1.47275C15.9105 0.61325 17.3399 0.61325 18.1975 1.47275L24.7729 8.06225C25.5352 8.92175 25.5352 10.3542 24.6776 11.2137C23.8199 12.0732 22.4858 12.0732 21.5329 11.3092L16.5775 6.34325L8.76338 14.1742ZM16.6728 11.9777C15.7199 11.9777 14.9575 12.5507 14.5764 13.4102C14.1952 14.2697 14.3858 15.2247 15.0528 15.8932C15.7199 16.5617 16.6728 16.7527 17.5305 16.3707C18.3881 15.9887 18.9599 15.2247 18.9599 14.2697C18.9599 13.6967 18.7693 13.1237 18.2928 12.6462C17.8164 12.1687 17.2446 11.9777 16.6728 11.9777Z" fill="#A0A0A0"/>
</svg>
