<svg width="120" height="26" viewBox="0 0 120 26" fill="none" xmlns="http://www.w3.org/2000/svg">
<g clip-path="url(#clip0_1931_8244)">
<mask id="mask0_1931_8244" style="mask-type:luminance" maskUnits="userSpaceOnUse" x="-1" y="0" width="203" height="26">
<path d="M201.652 0.560547H-0.000976562V25.6428H201.652V0.560547Z" fill="white"/>
</mask>
<g mask="url(#mask0_1931_8244)">
<path d="M39.2099 17.7353L30.592 2.86033C28.7027 -0.239995 24.0954 -0.272978 22.2724 2.99225L13.2237 18.4609C11.5332 21.2974 13.6213 24.8594 17.0023 24.8594H35.1329C38.547 24.8594 41.0992 21.1983 39.2099 17.7353Z" fill="#3156AA"/>
<path d="M26.7809 18.8908L26.2506 17.9672C25.7535 17.1097 24.6596 15.2627 24.6596 15.2627L17.3676 2.66354C15.4783 -0.139945 11.0036 -0.370821 9.11433 3.15827L0.629039 17.7693C-1.12768 20.8367 0.960496 24.8275 4.77225 24.8606H22.8034H30.4933H35.0674C30.3939 24.8935 28.9024 22.4858 26.7809 18.8908Z" fill="#1972E2"/>
<path d="M26.7811 18.8911L26.2508 17.9677C25.7536 17.1101 24.6598 15.2631 24.6598 15.2631L19.9531 7.01758L13.1914 18.4954C11.501 21.3318 13.5891 24.8939 16.9701 24.8939H22.7705H30.4603H35.0676C30.3609 24.8609 28.9024 22.4862 26.7811 18.8911Z" fill="url(#paint0_linear_1931_8244)"/>
<path d="M68.4668 23.5411V6.35742H82.8188V7.44584C82.8188 8.30336 82.1228 8.99599 81.2611 8.99599H72.0465V13.6135H81.2611V16.2521H72.0465V20.8695H81.2611C82.1228 20.8695 82.8188 21.5621 82.8188 22.4197V23.5082L68.4668 23.5411Z" fill="#A0A0A0"/>
<path d="M103.434 6.35742H100.053C99.4228 6.35742 98.8594 6.62128 98.4616 7.116L94.3847 12.2282L90.3078 7.14899C89.9101 6.65426 89.3465 6.3904 88.7169 6.3904H85.3359L92.1971 14.9657L85.3359 23.5411H88.7169C89.3465 23.5411 89.9101 23.2773 90.3078 22.7826L94.3847 17.7033L98.4947 22.8155C98.8925 23.2773 99.4561 23.5741 100.086 23.5741H103.467L96.6055 14.9987L103.434 6.35742Z" fill="#A0A0A0"/>
<path d="M57.2303 21.7288L61.937 13.5492V23.5099H65.5168V6.32617H63.296C62.5999 6.32617 61.937 6.68897 61.6055 7.31563L55.9708 17.5401L50.336 7.31563C50.0045 6.68897 49.3416 6.32617 48.6455 6.32617H46.4248V23.5099H50.0045V13.5492L54.7112 21.7288H57.2303Z" fill="#A0A0A0"/>
<path d="M112.781 23.7375C107.809 23.8034 103.766 19.9115 103.732 14.9642C103.732 12.2597 104.561 10.0169 106.119 8.46674C107.677 6.94956 109.931 6.125 112.615 6.125C115.764 6.125 118.25 7.21341 120.04 9.32428L118.913 10.2808C118.217 10.8744 117.19 10.9074 116.427 10.3467C115.433 9.58813 114.173 9.22532 112.748 9.22532C109.235 9.22532 107.146 11.3362 107.146 14.8983C107.146 18.4933 109.301 20.7032 112.748 20.7032C114.206 20.7032 115.433 20.3073 116.427 19.5817C117.156 19.021 118.184 19.0541 118.913 19.6477L120.04 20.6041C118.25 22.682 115.864 23.7375 112.781 23.7375Z" fill="#A0A0A0"/>
</g>
</g>
<defs>
<linearGradient id="paint0_linear_1931_8244" x1="10.7849" y1="13.2802" x2="31.7074" y2="21.0502" gradientUnits="userSpaceOnUse">
<stop stop-color="#264CA2" stop-opacity="0"/>
<stop offset="1" stop-color="#234588"/>
</linearGradient>
<clipPath id="clip0_1931_8244">
<rect width="120" height="25" fill="white" transform="translate(0 0.560547)"/>
</clipPath>
</defs>
</svg>
