<svg width="105" height="29" viewBox="0 0 105 29" fill="none" xmlns="http://www.w3.org/2000/svg">
<g clip-path="url(#clip0_2320_1660)">
<path d="M30.7013 0H0.893407C0.709554 0 0.533235 0.0678937 0.403231 0.188746C0.273229 0.309598 0.200195 0.47351 0.200195 0.644422V28.3544C0.200195 28.5254 0.273229 28.6894 0.403231 28.8103C0.533235 28.931 0.709554 28.9989 0.893407 28.9989H30.7013C30.8854 28.9989 31.0615 28.931 31.1917 28.8103C31.3216 28.6894 31.3948 28.5254 31.3948 28.3544V0.644422C31.3948 0.47351 31.3216 0.309598 31.1917 0.188746C31.0615 0.0678937 30.8854 0 30.7013 0ZM20.9965 18.6882C20.9965 18.8591 20.9235 19.023 20.7935 19.1439C20.6635 19.2647 20.4872 19.3326 20.3033 19.3326H11.2916C11.1077 19.3326 10.9314 19.2647 10.8014 19.1439C10.6714 19.023 10.5983 18.8591 10.5983 18.6882V10.3107C10.5983 10.1398 10.6714 9.97591 10.8014 9.85507C10.9314 9.73421 11.1077 9.66632 11.2916 9.66632H20.3033C20.4872 9.66632 20.6635 9.73421 20.7935 9.85507C20.9235 9.97591 20.9965 10.1398 20.9965 10.3107V18.6882Z" fill="#A0A0A0"/>
<path d="M93.1035 9.66797H84.0916C83.709 9.66797 83.3984 9.95647 83.3984 10.3124V18.6899C83.3984 19.0458 83.709 19.3343 84.0916 19.3343H93.1035C93.4864 19.3343 93.7967 19.0458 93.7967 18.6899V10.3124C93.7967 9.95647 93.4864 9.66797 93.1035 9.66797Z" fill="#A0A0A0"/>
<path d="M82.7077 0H73.6961C73.3132 0 73.0029 0.288518 73.0029 0.644421V9.02191C73.0029 9.3778 73.3132 9.66633 73.6961 9.66633H82.7077C83.0906 9.66633 83.4012 9.3778 83.4012 9.02191V0.644421C83.4012 0.288518 83.0906 0 82.7077 0Z" fill="#A0A0A0"/>
<path d="M103.507 0H94.4949C94.1123 0 93.8018 0.288518 93.8018 0.644421V9.02191C93.8018 9.3778 94.1123 9.66633 94.4949 9.66633H103.507C103.89 9.66633 104.2 9.3778 104.2 9.02191V0.644421C104.2 0.288518 103.89 0 103.507 0Z" fill="#A0A0A0"/>
<path d="M82.7077 19.332H73.6961C73.3132 19.332 73.0029 19.6205 73.0029 19.9764V28.354C73.0029 28.7098 73.3132 28.9984 73.6961 28.9984H82.7077C83.0906 28.9984 83.4012 28.7098 83.4012 28.354V19.9764C83.4012 19.6205 83.0906 19.332 82.7077 19.332Z" fill="#A0A0A0"/>
<path d="M103.507 19.332H94.4949C94.1123 19.332 93.8018 19.6205 93.8018 19.9764V28.354C93.8018 28.7098 94.1123 28.9984 94.4949 28.9984H103.507C103.89 28.9984 104.2 28.7098 104.2 28.354V19.9764C104.2 19.6205 103.89 19.332 103.507 19.332Z" fill="#A0A0A0"/>
<path d="M67.0981 0H58.0865C57.7036 0 57.3931 0.288518 57.3931 0.644421V9.02191C57.3931 9.3778 57.7036 9.66633 58.0865 9.66633H67.0981C67.481 9.66633 67.7913 9.3778 67.7913 9.02191V0.644421C67.7913 0.288518 67.481 0 67.0981 0Z" fill="#A0A0A0"/>
<path d="M67.0981 19.332H58.0865C57.7036 19.332 57.3931 19.6205 57.3931 19.9764V28.354C57.3931 28.7098 57.7036 28.9984 58.0865 28.9984H67.0981C67.481 28.9984 67.7913 28.7098 67.7913 28.354V19.9764C67.7913 19.6205 67.481 19.332 67.0981 19.332Z" fill="#A0A0A0"/>
<path d="M57.3898 10.3035C57.3898 10.1326 57.3166 9.96867 57.1867 9.84783C57.0568 9.72696 56.8804 9.65907 56.6966 9.65907H46.9915V0.644422C46.9915 0.47351 46.9184 0.309598 46.7884 0.188746C46.6585 0.0678937 46.4821 0 46.2983 0H37.2867C37.1026 0 36.9265 0.0678937 36.7963 0.188746C36.6664 0.309598 36.5933 0.47351 36.5933 0.644422V28.34C36.5933 28.511 36.6664 28.6748 36.7963 28.7957C36.9265 28.9166 37.1026 28.9845 37.2867 28.9845H46.2983C46.4821 28.9845 46.6585 28.9166 46.7884 28.7957C46.9184 28.6748 46.9915 28.511 46.9915 28.34V19.3254H56.6966C56.8804 19.3254 57.0568 19.2575 57.1867 19.1367C57.3166 19.0158 57.3898 18.8519 57.3898 18.681V10.3035Z" fill="#A0A0A0"/>
</g>
<defs>
<clipPath id="clip0_2320_1660">
<rect width="104" height="29" fill="white" transform="translate(0.199219)"/>
</clipPath>
</defs>
</svg>
