<svg width="105" height="30" viewBox="0 0 105 30" fill="none" xmlns="http://www.w3.org/2000/svg">
<g clip-path="url(#clip0_1931_8257)">
<path d="M30.7013 0.560547H0.893407C0.709554 0.560547 0.533235 0.628441 0.403231 0.749293C0.273229 0.870145 0.200195 1.03406 0.200195 1.20497V28.915C0.200195 29.0859 0.273229 29.25 0.403231 29.3709C0.533235 29.4915 0.709554 29.5594 0.893407 29.5594H30.7013C30.8854 29.5594 31.0615 29.4915 31.1917 29.3709C31.3216 29.25 31.3948 29.0859 31.3948 28.915V1.20497C31.3948 1.03406 31.3216 0.870145 31.1917 0.749293C31.0615 0.628441 30.8854 0.560547 30.7013 0.560547ZM20.9965 19.2488C20.9965 19.4197 20.9235 19.5836 20.7935 19.7044C20.6635 19.8253 20.4872 19.8932 20.3033 19.8932H11.2916C11.1077 19.8932 10.9314 19.8253 10.8014 19.7044C10.6714 19.5836 10.5983 19.4197 10.5983 19.2488V10.8713C10.5983 10.7004 10.6714 10.5365 10.8014 10.4156C10.9314 10.2948 11.1077 10.2269 11.2916 10.2269H20.3033C20.4872 10.2269 20.6635 10.2948 20.7935 10.4156C20.9235 10.5365 20.9965 10.7004 20.9965 10.8713V19.2488Z" fill="#A0A0A0"/>
<path d="M93.1035 10.2285H84.0916C83.709 10.2285 83.3984 10.517 83.3984 10.8729V19.2504C83.3984 19.6063 83.709 19.8948 84.0916 19.8948H93.1035C93.4864 19.8948 93.7967 19.6063 93.7967 19.2504V10.8729C93.7967 10.517 93.4864 10.2285 93.1035 10.2285Z" fill="#A0A0A0"/>
<path d="M82.7077 0.560547H73.6961C73.3132 0.560547 73.0029 0.849065 73.0029 1.20497V9.58245C73.0029 9.93835 73.3132 10.2269 73.6961 10.2269H82.7077C83.0906 10.2269 83.4012 9.93835 83.4012 9.58245V1.20497C83.4012 0.849065 83.0906 0.560547 82.7077 0.560547Z" fill="#A0A0A0"/>
<path d="M103.507 0.560547H94.4949C94.1123 0.560547 93.8018 0.849065 93.8018 1.20497V9.58245C93.8018 9.93835 94.1123 10.2269 94.4949 10.2269H103.507C103.89 10.2269 104.2 9.93835 104.2 9.58245V1.20497C104.2 0.849065 103.89 0.560547 103.507 0.560547Z" fill="#A0A0A0"/>
<path d="M82.7077 19.8945H73.6961C73.3132 19.8945 73.0029 20.183 73.0029 20.5389V28.9165C73.0029 29.2723 73.3132 29.5609 73.6961 29.5609H82.7077C83.0906 29.5609 83.4012 29.2723 83.4012 28.9165V20.5389C83.4012 20.183 83.0906 19.8945 82.7077 19.8945Z" fill="#A0A0A0"/>
<path d="M103.507 19.8945H94.4949C94.1123 19.8945 93.8018 20.183 93.8018 20.5389V28.9165C93.8018 29.2723 94.1123 29.5609 94.4949 29.5609H103.507C103.89 29.5609 104.2 29.2723 104.2 28.9165V20.5389C104.2 20.183 103.89 19.8945 103.507 19.8945Z" fill="#A0A0A0"/>
<path d="M67.0976 0.560547H58.086C57.7031 0.560547 57.3926 0.849065 57.3926 1.20497V9.58245C57.3926 9.93835 57.7031 10.2269 58.086 10.2269H67.0976C67.4805 10.2269 67.7908 9.93835 67.7908 9.58245V1.20497C67.7908 0.849065 67.4805 0.560547 67.0976 0.560547Z" fill="#A0A0A0"/>
<path d="M67.0976 19.8945H58.086C57.7031 19.8945 57.3926 20.183 57.3926 20.5389V28.9165C57.3926 29.2723 57.7031 29.5609 58.086 29.5609H67.0976C67.4805 29.5609 67.7908 29.2723 67.7908 28.9165V20.5389C67.7908 20.183 67.4805 19.8945 67.0976 19.8945Z" fill="#A0A0A0"/>
<path d="M57.3893 10.864C57.3893 10.6931 57.3161 10.5292 57.1862 10.4084C57.0563 10.2875 56.8799 10.2196 56.6961 10.2196H46.991V1.20497C46.991 1.03406 46.9179 0.870145 46.788 0.749293C46.658 0.628441 46.4816 0.560547 46.2978 0.560547H37.2862C37.1022 0.560547 36.926 0.628441 36.7958 0.749293C36.6659 0.870145 36.5928 1.03406 36.5928 1.20497V28.9006C36.5928 29.0715 36.6659 29.2354 36.7958 29.3563C36.926 29.4771 37.1022 29.545 37.2862 29.545H46.2978C46.4816 29.545 46.658 29.4771 46.788 29.3563C46.9179 29.2354 46.991 29.0715 46.991 28.9006V19.8859H56.6961C56.8799 19.8859 57.0563 19.818 57.1862 19.6972C57.3161 19.5763 57.3893 19.4124 57.3893 19.2415V10.864Z" fill="#A0A0A0"/>
</g>
<defs>
<clipPath id="clip0_1931_8257">
<rect width="104" height="29" fill="white" transform="translate(0.199219 0.560547)"/>
</clipPath>
</defs>
</svg>
