<svg width="138" height="35" viewBox="0 0 138 35" fill="none" xmlns="http://www.w3.org/2000/svg">
<g clip-path="url(#clip0_2320_1835)">
<path d="M37.2676 19.3181C37.2676 14.7448 40.6174 11.4531 45.2199 11.4531C49.8222 11.4531 53.172 14.7448 53.172 19.3181C53.172 23.8913 49.8222 27.1829 45.2199 27.1829C40.6466 27.1829 37.2676 23.8913 37.2676 19.3181ZM49.8513 19.3181C49.8513 16.4634 48.0162 14.3078 45.2199 14.3078C42.4234 14.3078 40.6174 16.4634 40.6174 19.3181C40.6174 22.1435 42.4234 24.3283 45.2199 24.3283C48.0162 24.2991 49.8513 22.1435 49.8513 19.3181Z" fill="#A0A0A0"/>
<path d="M54.4243 24.763L56.1719 22.2871C57.2498 23.394 58.9102 24.3261 61.0075 24.3261C62.7843 24.3261 63.6582 23.5104 63.6582 22.6366C63.6582 19.9567 54.8903 21.7918 54.8903 16.0533C54.8903 13.5192 57.075 11.4219 60.6579 11.4219C63.0756 11.4219 65.0855 12.1501 66.6002 13.5483L64.7943 15.9077C63.5708 14.7717 61.9105 14.2474 60.3665 14.2474C58.9684 14.2474 58.2111 14.8591 58.2111 15.7621C58.2111 18.1798 66.9498 16.5486 66.9498 22.2288C66.9498 25.0251 64.9691 27.1224 60.8618 27.1224C57.9489 27.1808 55.8516 26.1903 54.4243 24.763Z" fill="#A0A0A0"/>
<path d="M82.3869 26.9181V16.2569L78.1055 26.9181H76.6781L72.3959 16.2569V26.9181H69.1626V11.6836H73.7068L77.4063 20.8884L81.1058 11.6836H85.679V26.8891H82.3869V26.9181Z" fill="#A0A0A0"/>
<path d="M87.9229 19.318C87.9229 14.7448 91.2727 11.4531 95.8748 11.4531C100.478 11.4531 103.827 14.7448 103.827 19.318C103.827 23.8913 100.478 27.1829 95.8748 27.1829C91.2727 27.1829 87.9229 23.8913 87.9229 19.318ZM100.507 19.318C100.507 16.4634 98.6717 14.3077 95.8748 14.3077C93.0787 14.3077 91.2727 16.4634 91.2727 19.318C91.2727 22.1435 93.0787 24.3282 95.8748 24.3282C98.6717 24.2991 100.507 22.1435 100.507 19.318Z" fill="#A0A0A0"/>
<path d="M105.08 24.763L106.828 22.2871C107.906 23.394 109.566 24.3261 111.664 24.3261C113.441 24.3261 114.314 23.5104 114.314 22.6366C114.314 19.9567 105.547 21.7918 105.547 16.0533C105.547 13.5192 107.731 11.4219 111.314 11.4219C113.732 11.4219 115.742 12.1501 117.257 13.5483L115.45 15.9077C114.226 14.7717 112.566 14.2474 111.023 14.2474C109.625 14.2474 108.867 14.8591 108.867 15.7621C108.867 18.1798 117.606 16.5486 117.606 22.2288C117.606 25.0251 115.625 27.1224 111.518 27.1224C108.605 27.1808 106.508 26.1903 105.08 24.763Z" fill="#A0A0A0"/>
<path d="M119.789 26.9181V11.6836H123.052V26.8891H119.789V26.9181Z" fill="#A0A0A0"/>
<path d="M125.034 24.763L126.782 22.2871C127.858 23.394 129.52 24.3261 131.617 24.3261C133.393 24.3261 134.268 23.5104 134.268 22.6366C134.268 19.9567 125.499 21.7918 125.499 16.0533C125.499 13.5192 127.684 11.4219 131.268 11.4219C133.685 11.4219 135.695 12.1501 137.209 13.5483L135.404 15.9077C134.18 14.7717 132.52 14.2474 130.975 14.2474C129.577 14.2474 128.82 14.8591 128.82 15.7621C128.82 18.1798 137.559 16.5486 137.559 22.2288C137.559 25.0251 135.579 27.1224 131.471 27.1224C128.53 27.1808 126.432 26.1903 125.034 24.763Z" fill="#A0A0A0"/>
<path fill-rule="evenodd" clip-rule="evenodd" d="M28.0747 1.97665C30.0713 3.45607 31.1806 4.78506 31.5257 6.11403C31.7476 6.86629 31.5503 7.76898 31.0574 8.44601C30.5643 9.12306 29.7756 9.49915 28.8635 9.49915C28.5184 9.49915 28.1733 9.44901 27.8282 9.34872C27.4831 10.3266 27.2366 11.2795 27.1626 12.107L27.138 12.4079C25.3631 9.2735 22.5283 6.86628 19.1265 5.71283C19.2251 5.68775 19.9646 5.46208 21.2711 4.65967C21.1233 4.43401 21 4.18326 20.9014 3.98268V3.98265C20.6302 3.3307 20.7288 2.25247 21.1479 1.45007C21.493 0.773044 22.0352 0.321693 22.6515 0.196318C22.898 0.146168 23.1445 0.121094 23.4157 0.121094C24.7715 0.121094 26.4724 0.79812 28.0747 1.97665ZM30.8349 6.31493C31.1307 7.49344 30.2187 9.24869 27.9754 8.62186C27.7783 8.54658 27.581 8.49643 27.4085 8.47136C27.1866 8.99796 26.9401 9.59978 26.7676 10.2768C25.2886 8.27077 23.3165 6.66598 21.0487 5.63791C21.1376 5.58359 21.2308 5.52785 21.3277 5.46993C21.6334 5.2872 21.9748 5.08304 22.3305 4.8355C21.9607 4.38415 21.6896 3.98295 21.5664 3.70712C21.2704 3.00502 21.6156 1.17454 22.7989 0.923793C23.9821 0.673046 25.8309 1.2247 27.6551 2.57875C29.4792 3.9328 30.5145 5.1364 30.8349 6.31493Z" fill="#A0A0A0"/>
<path d="M24.3287 3.40531C24.8218 3.60592 25.4627 3.95697 26.2515 4.48355C27.1883 5.11042 28.0017 5.81252 28.5194 6.36417C27.6566 7.51759 27.0896 9.09733 26.7445 10.2007C26.9171 10.4514 27.1142 10.7021 27.2869 10.9529C27.4594 10.326 27.7553 9.39828 28.1496 8.47044C28.2482 8.49558 28.3715 8.49558 28.4947 8.49558C28.7906 8.49558 29.1356 8.44536 29.4068 8.2197C29.604 8.06927 29.8258 7.79346 29.8012 7.29194C29.8012 6.81553 29.4314 6.21373 28.6673 5.48654C28.125 4.95997 27.3854 4.38325 26.6459 3.85667C24.5259 2.42739 23.0469 2.02619 22.3814 2.70321C21.9377 3.15456 21.9869 3.70621 22.1348 4.10742C21.3461 4.63399 20.6804 5.01011 20.2368 5.26087C20.5326 5.36116 20.8038 5.48654 21.0996 5.61192C21.8883 5.18564 23.0223 4.45847 24.3287 3.40531ZM28.9878 6.99105C29.0617 7.11642 29.0863 7.24179 29.0863 7.31701C29.0863 7.54266 29.0124 7.61795 28.963 7.6681C28.8645 7.74332 28.6673 7.79346 28.4947 7.79346C28.6427 7.49252 28.8152 7.24179 28.9878 6.99105ZM22.8991 3.25487C22.973 3.17965 23.1702 3.12949 23.4907 3.17965C23.2442 3.38024 22.9976 3.55576 22.7511 3.73129C22.7265 3.55576 22.7511 3.38024 22.8991 3.25487Z" fill="#A0A0A0"/>
<path d="M15.1332 4.33203C7.07245 4.33203 0.540039 10.9769 0.540039 19.1765C0.540039 27.376 7.07245 34.0209 15.1332 34.0209C23.194 34.0209 29.7264 27.376 29.7264 19.1765C29.7264 10.9769 23.1694 4.33203 15.1332 4.33203ZM15.1332 33.1934C7.51616 33.1934 1.35351 26.9246 1.35351 19.1765C1.35351 11.4283 7.51616 5.15951 15.1332 5.15951C22.7502 5.15951 28.9129 11.4283 28.9129 19.1765C28.9129 26.9246 22.7255 33.1934 15.1332 33.1934Z" fill="#A0A0A0"/>
<path d="M28.2217 19.0508C28.2217 26.3978 22.3549 32.3657 15.1322 32.3657C7.90956 32.3657 2.01807 26.3978 2.01807 19.0508H28.2217Z" fill="#A0A0A0"/>
<g opacity="0.6">
<path opacity="0.6" d="M27.188 19.0508C27.188 26.2222 21.617 32.0898 14.6162 32.3657C14.7887 32.3657 14.9612 32.3657 15.1338 32.3657C22.3564 32.3657 28.2233 26.3978 28.2233 19.0508H27.188Z" fill="#A0A0A0"/>
</g>
<g opacity="0.7">
<path opacity="0.7" d="M3.86686 19.0508H2.01807C2.01807 26.3978 7.8849 32.3657 15.1075 32.3657C15.428 32.3657 15.7237 32.3657 16.0196 32.3406C9.24068 31.839 3.86686 26.0718 3.86686 19.0508Z" fill="#A0A0A0"/>
</g>
<path d="M28.197 19.1792C28.197 17.6496 25.584 16.772 22.1083 16.471C19.594 16.2705 17.0549 16.5212 14.1461 17.4239C11.6318 18.1762 9.36393 18.0507 7.71236 17.8502C4.03941 17.4239 2.01807 17.3737 2.01807 19.1792C2.01807 21.787 7.24398 25.0467 15.0829 23.9184C19.0516 23.3416 21.0976 22.1631 23.4394 21.3607C25.9784 20.5082 28.197 20.5332 28.197 19.1792Z" fill="#A0A0A0"/>
<path d="M19.4231 12.8612C20.6484 12.8612 21.6417 11.8508 21.6417 10.6045C21.6417 9.35806 20.6484 8.34766 19.4231 8.34766C18.1979 8.34766 17.2046 9.35806 17.2046 10.6045C17.2046 11.8508 18.1979 12.8612 19.4231 12.8612Z" fill="#A0A0A0"/>
<path d="M23.047 14.5385C23.5644 14.5385 23.9838 14.1119 23.9838 13.5856C23.9838 13.0594 23.5644 12.6328 23.047 12.6328C22.5297 12.6328 22.1104 13.0594 22.1104 13.5856C22.1104 14.1119 22.5297 14.5385 23.047 14.5385Z" fill="#A0A0A0"/>
<path d="M26.399 8.79837C26.3744 8.79837 26.3497 8.79837 26.3497 8.79837C26.2018 8.77329 26.1032 8.62286 26.1278 8.44728C26.3497 7.29385 27.2864 6.19054 27.3357 6.1404C27.4344 6.01502 27.6315 6.01502 27.7301 6.11532C27.8534 6.21562 27.8534 6.41621 27.7548 6.51652C27.7301 6.54159 26.8673 7.56965 26.6702 8.57265C26.6455 8.72315 26.5222 8.79837 26.399 8.79837Z" fill="#A0A0A0"/>
<path opacity="0.2" d="M14.2219 29.6347C14.6031 29.6347 14.9121 29.3203 14.9121 28.9325C14.9121 28.5449 14.6031 28.2305 14.2219 28.2305C13.8407 28.2305 13.5317 28.5449 13.5317 28.9325C13.5317 29.3203 13.8407 29.6347 14.2219 29.6347Z" fill="#A0A0A0"/>
<g opacity="0.4">
<path opacity="0.6" d="M13.8278 29.3823C13.5567 29.1064 13.5567 28.6551 13.8278 28.3793C13.8771 28.3292 13.9264 28.3042 13.9757 28.2539C13.8771 28.279 13.8032 28.3292 13.7292 28.4044C13.4581 28.6802 13.4581 29.1316 13.7292 29.4074C13.9511 29.6331 14.2962 29.6832 14.5674 29.5328C14.3208 29.6331 14.0251 29.5829 13.8278 29.3823Z" fill="#A0A0A0"/>
</g>
<path opacity="0.3" d="M14.4682 28.7305C14.5498 28.7305 14.6162 28.6632 14.6162 28.5802C14.6162 28.4971 14.5498 28.4297 14.4682 28.4297C14.3865 28.4297 14.3203 28.4971 14.3203 28.5802C14.3203 28.6632 14.3865 28.7305 14.4682 28.7305Z" fill="#A0A0A0"/>
<path opacity="0.2" d="M17.8212 29.2831C18.2023 29.2831 18.5113 28.9688 18.5113 28.581C18.5113 28.1933 18.2023 27.8789 17.8212 27.8789C17.44 27.8789 17.1309 28.1933 17.1309 28.581C17.1309 28.9688 17.44 29.2831 17.8212 29.2831Z" fill="#A0A0A0"/>
<g opacity="0.4">
<path opacity="0.6" d="M17.4265 29.0346C17.1553 28.7588 17.1553 28.3074 17.4265 28.0316C17.4757 27.9814 17.5251 27.9564 17.5743 27.9062C17.4757 27.9313 17.4018 27.9814 17.3278 28.0567C17.0567 28.3325 17.0567 28.7839 17.3278 29.0597C17.5497 29.2853 17.8948 29.3355 18.166 29.185C17.9194 29.2853 17.6237 29.2352 17.4265 29.0346Z" fill="#A0A0A0"/>
</g>
<path opacity="0.3" d="M18.0673 28.3831C18.149 28.3831 18.2152 28.3157 18.2152 28.2326C18.2152 28.1494 18.149 28.082 18.0673 28.082C17.9856 28.082 17.9194 28.1494 17.9194 28.2326C17.9194 28.3157 17.9856 28.3831 18.0673 28.3831Z" fill="#A0A0A0"/>
<path opacity="0.2" d="M16.045 30.9126C16.3309 30.9126 16.5626 30.6769 16.5626 30.386C16.5626 30.0952 16.3309 29.8594 16.045 29.8594C15.7591 29.8594 15.5273 30.0952 15.5273 30.386C15.5273 30.6769 15.7591 30.9126 16.045 30.9126Z" fill="#A0A0A0"/>
<g opacity="0.4">
<path opacity="0.6" d="M15.7496 30.7142C15.5524 30.5136 15.5524 30.1625 15.7496 29.962C15.7743 29.9369 15.8236 29.9118 15.8483 29.8867C15.7743 29.9118 15.725 29.962 15.6758 30.0121C15.4785 30.2127 15.4785 30.5638 15.6758 30.7644C15.8483 30.9399 16.0947 30.965 16.3166 30.8395C16.1194 30.9148 15.8975 30.8647 15.7496 30.7142Z" fill="#A0A0A0"/>
</g>
<path opacity="0.3" d="M16.2182 30.2123C16.2727 30.2123 16.3169 30.1675 16.3169 30.112C16.3169 30.0566 16.2727 30.0117 16.2182 30.0117C16.1638 30.0117 16.1196 30.0566 16.1196 30.112C16.1196 30.1675 16.1638 30.2123 16.2182 30.2123Z" fill="#A0A0A0"/>
<path opacity="0.2" d="M19.2257 30.5376C19.5116 30.5376 19.7434 30.3018 19.7434 30.0109C19.7434 29.7201 19.5116 29.4844 19.2257 29.4844C18.9397 29.4844 18.708 29.7201 18.708 30.0109C18.708 30.3018 18.9397 30.5376 19.2257 30.5376Z" fill="#A0A0A0"/>
<g opacity="0.4">
<path opacity="0.6" d="M18.9298 30.3391C18.7327 30.1385 18.7327 29.7875 18.9298 29.5869C18.9544 29.5619 19.0038 29.5367 19.0284 29.5117C18.9544 29.5367 18.9052 29.5869 18.8559 29.6371C18.6587 29.8377 18.6587 30.1887 18.8559 30.3894C19.0284 30.5649 19.2749 30.5899 19.4968 30.4645C19.2995 30.5397 19.0777 30.4897 18.9298 30.3391Z" fill="#A0A0A0"/>
</g>
<path opacity="0.3" d="M19.3989 29.8333C19.4533 29.8333 19.4975 29.7886 19.4975 29.7331C19.4975 29.6777 19.4533 29.6328 19.3989 29.6328C19.3445 29.6328 19.3003 29.6777 19.3003 29.7331C19.3003 29.7886 19.3445 29.8333 19.3989 29.8333Z" fill="#A0A0A0"/>
<path opacity="0.2" d="M11.2888 29.3851C11.915 29.3851 12.4226 28.8686 12.4226 28.2317C12.4226 27.5946 11.915 27.0781 11.2888 27.0781C10.6625 27.0781 10.1548 27.5946 10.1548 28.2317C10.1548 28.8686 10.6625 29.3851 11.2888 29.3851Z" fill="#A0A0A0"/>
<g opacity="0.4">
<path opacity="0.6" d="M10.6472 28.9577C10.2034 28.5063 10.2034 27.7791 10.6472 27.3278C10.7211 27.2527 10.795 27.2025 10.8936 27.1523C10.7458 27.2025 10.6225 27.3027 10.4993 27.403C10.0556 27.8544 10.0556 28.5816 10.4993 29.033C10.869 29.409 11.4361 29.4843 11.8797 29.2085C11.4607 29.384 10.9676 29.3088 10.6472 28.9577Z" fill="#A0A0A0"/>
</g>
<path opacity="0.3" d="M11.6826 27.8804C11.8187 27.8804 11.9291 27.7682 11.9291 27.6297C11.9291 27.4912 11.8187 27.3789 11.6826 27.3789C11.5464 27.3789 11.436 27.4912 11.436 27.6297C11.436 27.7682 11.5464 27.8804 11.6826 27.8804Z" fill="#A0A0A0"/>
<path opacity="0.2" d="M21.4191 26.5491C22.0453 26.5491 22.553 26.0327 22.553 25.3955C22.553 24.7586 22.0453 24.2422 21.4191 24.2422C20.7929 24.2422 20.2852 24.7586 20.2852 25.3955C20.2852 26.0327 20.7929 26.5491 21.4191 26.5491Z" fill="#A0A0A0"/>
<g opacity="0.4">
<path opacity="0.6" d="M20.7547 26.1218C20.3109 25.6704 20.3109 24.9432 20.7547 24.4919C20.8286 24.4167 20.9025 24.3666 21.0012 24.3164C20.8533 24.3666 20.73 24.4669 20.6067 24.5672C20.163 25.0185 20.163 25.7457 20.6067 26.197C20.9765 26.5731 21.5434 26.6483 21.9872 26.3725C21.5681 26.548 21.0998 26.4728 20.7547 26.1218Z" fill="#A0A0A0"/>
</g>
<path opacity="0.3" d="M21.8134 25.0444C21.9496 25.0444 22.06 24.9321 22.06 24.7936C22.06 24.6551 21.9496 24.543 21.8134 24.543C21.6773 24.543 21.5669 24.6551 21.5669 24.7936C21.5669 24.9321 21.6773 25.0444 21.8134 25.0444Z" fill="#A0A0A0"/>
</g>
<defs>
<clipPath id="clip0_2320_1835">
<rect width="137.6" height="33.9014" fill="white" transform="translate(0.0419922 0.121094)"/>
</clipPath>
</defs>
</svg>
