<svg width="163" height="26" viewBox="0 0 163 26" fill="none" xmlns="http://www.w3.org/2000/svg">
<g clip-path="url(#clip0_2320_1817)">
<path d="M32.0798 19.6414C31.703 19.6414 31.4367 19.5634 31.2808 19.4076C31.1379 19.2517 31.0664 19.0048 31.0664 18.667V7.38392C31.0664 7.04601 31.1443 6.79915 31.3002 6.64335C31.4562 6.47439 31.7159 6.38991 32.0798 6.38991H36.8541C38.6729 6.38991 40.0111 6.77323 40.8686 7.53972C41.726 8.30622 42.1547 9.44945 42.1547 10.9694C42.1547 12.4765 41.726 13.6133 40.8686 14.3798C40.0241 15.1334 38.686 15.5101 36.8541 15.5101H35.0028V18.667C35.0028 19.0048 34.9249 19.2517 34.769 19.4076C34.6131 19.5634 34.3467 19.6414 33.97 19.6414H32.0798ZM36.5424 12.6844C37.0751 12.6844 37.4843 12.5415 37.7701 12.2557C38.0688 11.9699 38.2183 11.5412 38.2183 10.9695C38.2183 10.3849 38.0688 9.94961 37.7701 9.66381C37.4843 9.378 37.0751 9.23509 36.5424 9.23509H35.0028V12.6844H36.5424ZM46.7569 19.9337C45.5358 19.9337 44.5549 19.5439 43.8143 18.7645C43.0868 17.972 42.7231 16.8612 42.7231 15.4321C42.7231 14.3408 42.9699 13.3859 43.4635 12.5674C43.9703 11.7489 44.6783 11.1189 45.5877 10.6772C46.5102 10.2225 47.5689 9.99514 48.7641 9.99514C49.7515 9.99514 50.622 10.1055 51.3755 10.3265C52.142 10.5343 52.8435 10.8395 53.4801 11.2423V19.0373C53.4801 19.2842 53.4347 19.4465 53.3436 19.5244C53.2527 19.6025 53.0708 19.6414 52.7981 19.6414H50.8103C50.6674 19.6414 50.557 19.6219 50.4791 19.5829C50.4011 19.531 50.3362 19.453 50.2842 19.349L50.0308 18.7645C49.654 19.1672 49.1994 19.4596 48.6667 19.6414C48.1471 19.8363 47.5105 19.9337 46.7569 19.9337ZM48.2185 17.2834C48.7252 17.2834 49.1214 17.1599 49.4072 16.9132C49.693 16.6664 49.8359 16.3155 49.8359 15.8608V12.8208C49.5892 12.7039 49.2773 12.6454 48.9006 12.6454C48.212 12.6454 47.6598 12.8857 47.2442 13.3664C46.8414 13.8471 46.64 14.5227 46.64 15.3931C46.64 16.6533 47.1661 17.2834 48.2185 17.2834ZM56.1921 19.6414C55.8152 19.6414 55.5489 19.5634 55.3931 19.4076C55.2372 19.2517 55.1593 19.0048 55.1593 18.667V10.8915C55.1593 10.6577 55.1982 10.5018 55.2761 10.4239C55.367 10.3328 55.5489 10.2874 55.8218 10.2874H57.829C57.9848 10.2874 58.1018 10.3135 58.1797 10.3654C58.2706 10.4044 58.3226 10.4823 58.3356 10.5993L58.433 11.1839C58.7969 10.8201 59.2711 10.5343 59.8556 10.3265C60.4533 10.1055 61.1158 9.99514 61.8434 9.99514C62.8957 9.99514 63.7467 10.294 64.3962 10.8915C65.0458 11.4762 65.3706 12.3466 65.3706 13.5029V18.667C65.3706 19.0048 65.2927 19.2517 65.1367 19.4076C64.9938 19.5634 64.7339 19.6414 64.3572 19.6414H62.467C62.0902 19.6414 61.8174 19.5634 61.6485 19.4076C61.4926 19.2517 61.4147 19.0048 61.4147 18.667V13.7562C61.4147 13.3664 61.3302 13.0872 61.1614 12.9182C60.9924 12.7494 60.7261 12.6649 60.3624 12.6649C59.9726 12.6649 59.6607 12.7689 59.4269 12.9766C59.2061 13.1846 59.0957 13.4704 59.0957 13.8342V18.667C59.0957 19.0048 59.0177 19.2517 58.8619 19.4076C58.719 19.5634 58.4591 19.6414 58.0823 19.6414H56.1921ZM72.2588 19.9337C70.44 19.9337 69.0369 19.5114 68.0494 18.667C67.0621 17.8226 66.5684 16.5949 66.5684 14.9839C66.5684 13.9966 66.7958 13.1261 67.2505 12.3727C67.7052 11.6191 68.3613 11.0344 69.2187 10.6187C70.0892 10.203 71.1156 9.99514 72.2977 9.99514C73.1941 9.99514 73.9477 10.0796 74.5583 10.2484C75.1819 10.4174 75.734 10.6772 76.2147 11.028C76.3576 11.119 76.4291 11.2359 76.4291 11.3788C76.4291 11.4827 76.3771 11.6191 76.2731 11.788L75.4741 13.1715C75.3832 13.3535 75.2728 13.4444 75.1429 13.4444C75.0649 13.4444 74.9415 13.3925 74.7726 13.2885C74.4218 13.0677 74.0906 12.9053 73.7788 12.8014C73.4799 12.6974 73.1032 12.6454 72.6486 12.6454C71.9989 12.6454 71.4728 12.8533 71.07 13.269C70.6803 13.6847 70.4854 14.2563 70.4854 14.9839C70.4854 15.7245 70.6867 16.2961 71.0895 16.6987C71.4923 17.0885 72.0444 17.2834 72.7459 17.2834C73.1616 17.2834 73.5385 17.2249 73.8763 17.108C74.2141 16.9911 74.5583 16.8287 74.9091 16.6208C75.091 16.5169 75.2208 16.4649 75.2989 16.4649C75.4157 16.4649 75.5197 16.5558 75.6106 16.7378L76.4875 18.2383C76.5525 18.3682 76.585 18.4721 76.585 18.55C76.585 18.667 76.507 18.7774 76.3512 18.8814C75.8055 19.2322 75.2078 19.4919 74.5583 19.6609C73.9217 19.8427 73.1552 19.9337 72.2588 19.9337ZM81.5259 19.9337C80.3047 19.9337 79.3238 19.5439 78.5834 18.7645C77.8558 17.972 77.492 16.8612 77.492 15.4321C77.492 14.3408 77.7388 13.3859 78.2326 12.5674C78.7392 11.7489 79.4472 11.1189 80.3566 10.6772C81.2791 10.2225 82.3379 9.99514 83.5332 9.99514C84.5205 9.99514 85.3909 10.1055 86.1444 10.3265C86.9109 10.5343 87.6125 10.8395 88.2491 11.2423V19.0373C88.2491 19.2842 88.2036 19.4465 88.1127 19.5244C88.0217 19.6025 87.8399 19.6414 87.567 19.6414H85.5793C85.4364 19.6414 85.3259 19.6219 85.248 19.5829C85.1701 19.531 85.1051 19.453 85.0531 19.349L84.7998 18.7645C84.4231 19.1672 83.9683 19.4596 83.4357 19.6414C82.916 19.8363 82.2794 19.9337 81.5259 19.9337ZM82.9875 17.2834C83.4942 17.2834 83.8904 17.1599 84.1762 16.9132C84.462 16.6664 84.6049 16.3155 84.6049 15.8608V12.8208C84.3581 12.7039 84.0463 12.6454 83.6695 12.6454C82.981 12.6454 82.4289 12.8857 82.0131 13.3664C81.6104 13.8471 81.4089 14.5227 81.4089 15.3931C81.4089 16.6533 81.9352 17.2834 82.9875 17.2834ZM100.49 18.9008C100.581 19.0048 100.627 19.1218 100.627 19.2517C100.627 19.3685 100.588 19.466 100.51 19.5439C100.432 19.6089 100.328 19.6414 100.198 19.6414H97.1775C96.9956 19.6414 96.8591 19.6284 96.7682 19.6025C96.6903 19.5634 96.6058 19.4919 96.5149 19.3881L93.8646 15.7829V18.667C93.8646 19.0048 93.7867 19.2517 93.6308 19.4076C93.4748 19.5634 93.2085 19.6414 92.8318 19.6414H90.9415C90.5648 19.6414 90.2985 19.5634 90.1425 19.4076C89.9996 19.2517 89.9282 19.0048 89.9282 18.667V7.38392C89.9282 7.04601 90.0061 6.79915 90.162 6.64335C90.3179 6.47439 90.5778 6.38991 90.9415 6.38991H92.8318C93.2085 6.38991 93.4748 6.47439 93.6308 6.64335C93.7867 6.79915 93.8646 7.04601 93.8646 7.38379V13.9121L96.437 10.5603C96.5149 10.4564 96.5994 10.3849 96.6903 10.346C96.7812 10.3069 96.9177 10.2874 97.0995 10.2874H100.12C100.25 10.2874 100.347 10.3265 100.412 10.4044C100.49 10.4694 100.529 10.5603 100.529 10.6772C100.529 10.8072 100.484 10.924 100.393 11.028L97.0606 14.8476L100.49 18.9008ZM106.818 19.9337C105.727 19.9337 104.752 19.7518 103.895 19.3881C103.05 19.0243 102.381 18.4786 101.888 17.7512C101.394 17.0236 101.147 16.1337 101.147 15.0814C101.147 13.4314 101.615 12.1712 102.55 11.3008C103.486 10.4303 104.83 9.99514 106.584 9.99514C108.299 9.99514 109.598 10.4239 110.482 11.2813C111.378 12.1258 111.826 13.3015 111.826 14.8085C111.826 15.4581 111.54 15.7829 110.969 15.7829H104.85C104.85 16.3415 105.058 16.7703 105.473 17.069C105.902 17.3678 106.545 17.5172 107.403 17.5172C107.935 17.5172 108.377 17.4718 108.728 17.3809C109.091 17.2769 109.455 17.1276 109.819 16.9327C109.975 16.8677 110.079 16.8352 110.131 16.8352C110.248 16.8352 110.345 16.9132 110.423 17.069L111.086 18.3162C111.151 18.4462 111.183 18.5436 111.183 18.6086C111.183 18.7254 111.105 18.836 110.949 18.9398C110.417 19.2906 109.813 19.5439 109.137 19.6998C108.461 19.8558 107.688 19.9337 106.818 19.9337ZM108.319 13.8537C108.319 13.36 108.176 12.9766 107.89 12.7039C107.604 12.4311 107.175 12.2946 106.604 12.2946C106.032 12.2946 105.597 12.4375 105.298 12.7233C104.999 12.9963 104.85 13.373 104.85 13.8537H108.319ZM118.506 19.9337C117.414 19.9337 116.381 19.8233 115.407 19.6025C114.433 19.3685 113.647 19.0437 113.049 18.6281C112.828 18.4852 112.718 18.3357 112.718 18.1799C112.718 18.0759 112.757 17.9655 112.835 17.8485L113.79 16.3286C113.894 16.1726 113.997 16.0947 114.101 16.0947C114.166 16.0947 114.277 16.1401 114.433 16.2311C114.913 16.504 115.459 16.7248 116.07 16.8936C116.68 17.0626 117.284 17.147 117.882 17.147C118.493 17.147 118.941 17.0561 119.227 16.8741C119.525 16.6923 119.675 16.4 119.675 15.9972C119.675 15.6075 119.512 15.3022 119.188 15.0814C118.876 14.8605 118.285 14.5812 117.414 14.2434C116.102 13.7497 115.076 13.1976 114.335 12.5869C113.608 11.9634 113.244 11.1189 113.244 10.0536C113.244 8.76743 113.705 7.78658 114.628 7.11101C115.55 6.43531 116.778 6.09766 118.311 6.09766C119.376 6.09766 120.285 6.19503 121.039 6.38991C121.805 6.5719 122.455 6.8577 122.988 7.24734C123.208 7.41629 123.319 7.57222 123.319 7.71513C123.319 7.80605 123.28 7.90988 123.202 8.02686L122.247 9.54695C122.13 9.70276 122.026 9.78079 121.935 9.78079C121.87 9.78079 121.76 9.73526 121.604 9.64433C120.85 9.15062 119.954 8.90389 118.915 8.90389C118.356 8.90389 117.927 8.99481 117.629 9.17667C117.33 9.35852 117.18 9.65736 117.18 10.073C117.18 10.3589 117.258 10.5928 117.414 10.7747C117.57 10.9565 117.778 11.1189 118.038 11.2618C118.311 11.3917 118.726 11.5606 119.285 11.7685L119.655 11.9049C120.617 12.2817 121.37 12.6454 121.916 12.9963C122.474 13.3339 122.897 13.7562 123.182 14.2629C123.468 14.7565 123.611 15.3801 123.611 16.1337C123.611 17.2899 123.176 18.2124 122.306 18.9008C121.448 19.5894 120.181 19.9337 118.506 19.9337ZM127.752 19.6414C127.557 19.6414 127.408 19.6089 127.304 19.5439C127.2 19.479 127.122 19.349 127.07 19.1541L124.556 10.7356C124.53 10.6577 124.517 10.5993 124.517 10.5603C124.517 10.3785 124.647 10.2874 124.907 10.2874H127.479C127.648 10.2874 127.771 10.3199 127.849 10.3848C127.927 10.4369 127.979 10.5277 128.005 10.6577L129.057 15.0814L130.382 11.5151C130.448 11.3593 130.512 11.2554 130.577 11.2034C130.655 11.1384 130.786 11.106 130.968 11.106H132.194C132.376 11.106 132.5 11.1384 132.565 11.2034C132.643 11.2552 132.714 11.3593 132.78 11.5151L134.085 15.0814L135.157 10.6577C135.195 10.5278 135.247 10.4369 135.313 10.3849C135.377 10.3199 135.495 10.2875 135.663 10.2875H138.256C138.515 10.2875 138.645 10.3785 138.645 10.5603C138.645 10.5993 138.633 10.6577 138.606 10.7356L136.073 19.1541C136.021 19.349 135.943 19.479 135.839 19.5439C135.748 19.6089 135.605 19.6414 135.41 19.6414H133.501C133.319 19.6414 133.182 19.6089 133.091 19.5439C133 19.466 132.923 19.3361 132.857 19.1541L131.571 15.6269L130.285 19.1541C130.233 19.3361 130.155 19.466 130.051 19.5439C129.96 19.6089 129.824 19.6414 129.642 19.6414H127.752ZM143.585 19.9337C142.363 19.9337 141.383 19.5439 140.642 18.7645C139.915 17.972 139.551 16.8612 139.551 15.4321C139.551 14.3408 139.797 13.3859 140.292 12.5674C140.798 11.7489 141.506 11.1189 142.415 10.6772C143.338 10.2225 144.397 9.99514 145.592 9.99514C146.58 9.99514 147.45 10.1055 148.203 10.3265C148.97 10.5343 149.672 10.8395 150.308 11.2423V19.0373C150.308 19.2842 150.262 19.4465 150.171 19.5244C150.08 19.6025 149.899 19.6414 149.626 19.6414H147.638C147.495 19.6414 147.385 19.6219 147.307 19.5829C147.228 19.531 147.164 19.453 147.112 19.349L146.859 18.7645C146.482 19.1672 146.027 19.4596 145.495 19.6414C144.975 19.8363 144.339 19.9337 143.585 19.9337ZM145.047 17.2834C145.553 17.2834 145.95 17.1599 146.236 16.9132C146.521 16.6664 146.664 16.3155 146.664 15.8608V12.8208C146.416 12.7039 146.105 12.6454 145.729 12.6454C145.039 12.6454 144.488 12.8857 144.072 13.3664C143.67 13.8471 143.467 14.5227 143.467 15.3931C143.467 16.6533 143.995 17.2834 145.047 17.2834ZM153 23.5778C152.623 23.5778 152.358 23.4999 152.201 23.344C152.058 23.1881 151.987 22.9412 151.987 22.6034V11.4372C152.571 11.0215 153.306 10.6772 154.189 10.4044C155.073 10.1316 155.995 9.99514 156.956 9.99514C160.88 9.99514 162.842 11.6581 162.842 14.9839C162.842 16.4909 162.426 17.6926 161.595 18.5891C160.763 19.4855 159.588 19.9337 158.068 19.9337C157.639 19.9337 157.223 19.8817 156.819 19.7777C156.43 19.6739 156.105 19.531 155.846 19.349V22.6034C155.846 22.9412 155.767 23.1881 155.612 23.344C155.456 23.4999 155.189 23.5778 154.812 23.5778H153ZM157.229 17.3028C157.788 17.3028 158.204 17.0951 158.476 16.6793C158.762 16.2505 158.905 15.6789 158.905 14.9644C158.905 14.12 158.737 13.5288 158.399 13.191C158.074 12.8403 157.567 12.6649 156.879 12.6649C156.436 12.6649 156.086 12.7233 155.827 12.8403V15.9388C155.827 16.3805 155.949 16.7183 156.196 16.9522C156.444 17.186 156.788 17.3028 157.229 17.3028Z" fill="#A0A0A0"/>
<path fill-rule="evenodd" clip-rule="evenodd" d="M13.1795 25.3978C9.48774 25.395 6.51382 24.5092 4.43602 22.918C2.33331 21.3077 1.21777 19.0225 1.21777 16.4367C1.21777 13.9453 2.33078 12.1487 3.59023 10.9343C4.57728 9.98266 5.66639 9.37323 6.42479 9.02255C6.25331 8.49621 6.03933 7.80723 5.84786 7.09549C5.59177 6.14322 5.34049 5.02579 5.34049 4.20706C5.34049 3.23797 5.55168 2.26458 6.1214 1.50833C6.72337 0.70933 7.62961 0.28125 8.71973 0.28125C9.57171 0.28125 10.2951 0.597283 10.8613 1.14247C11.4025 1.6635 11.7629 2.35563 12.0117 3.07711C12.4488 4.34478 12.619 5.93747 12.6667 7.52699H13.7109C13.7587 5.93747 13.9288 4.34478 14.366 3.07711C14.6147 2.35563 14.9749 1.66362 15.5163 1.14247C16.0826 0.597409 16.8058 0.28125 17.6578 0.28125C18.748 0.28125 19.6542 0.70933 20.2561 1.50833C20.8258 2.26458 21.0372 3.23797 21.0372 4.20706C21.0372 5.02579 20.7858 6.14322 20.5297 7.09549C20.3382 7.80723 20.1242 8.49621 19.9527 9.02255C20.7111 9.37323 21.8004 9.98266 22.7873 10.9344C24.0468 12.1487 25.1598 13.9453 25.1598 16.4367C25.1598 19.0225 24.0443 21.3077 21.9415 22.918C19.8637 24.5092 16.8898 25.395 13.1981 25.3978H13.1795Z" fill="#3E3E3E"/>
<path d="M8.71946 1.19922C7.12286 1.19922 6.38785 2.40265 6.38785 4.06678C6.38785 5.38959 7.24186 8.03875 7.59217 9.07007C7.67108 9.30213 7.54715 9.55619 7.32128 9.64611C6.0416 10.1559 2.26514 12.0222 2.26514 16.2966C2.26514 20.7991 6.10293 24.194 13.1802 24.1994L13.1886 24.1993L13.197 24.1994C20.2742 24.194 24.112 20.7991 24.112 16.2966C24.112 12.0222 20.3355 10.1559 19.0558 9.64611C18.83 9.55632 18.7062 9.30213 18.785 9.07007C19.1354 8.03888 19.9894 5.38959 19.9894 4.06678C19.9894 2.40252 19.2544 1.19922 17.6577 1.19922C15.3593 1.19922 14.7863 4.48816 14.7455 8.01814C14.7428 8.25374 14.5541 8.44496 14.3209 8.44496H12.0563C11.823 8.44496 11.6345 8.25374 11.6317 8.01814C11.5908 4.48816 11.0179 1.19922 8.71946 1.19922Z" fill="#989898"/>
<path d="M13.197 22.7605C7.9971 22.7605 2.27412 19.9486 2.26514 16.3086V16.3255C2.26514 20.8317 6.109 24.2284 13.197 24.2284C20.2851 24.2284 24.1289 20.8317 24.1289 16.3255V16.3086C24.12 19.9486 18.397 22.7605 13.197 22.7605Z" fill="#DFDFDF"/>
<path d="M10.3075 15.1893C10.3075 16.4183 9.73258 17.0583 9.02337 17.0583C8.31416 17.0583 7.73926 16.4183 7.73926 15.1893C7.73926 13.9603 8.31416 13.3203 9.02337 13.3203C9.73258 13.3203 10.3075 13.9603 10.3075 15.1893ZM18.6542 15.1893C18.6542 16.4183 18.0793 17.0583 17.3701 17.0583C16.6609 17.0583 16.086 16.4183 16.086 15.1893C16.086 13.9603 16.6609 13.3203 17.3701 13.3203C18.0793 13.3203 18.6542 13.9603 18.6542 15.1893Z" fill="#3E3E3E"/>
</g>
<defs>
<clipPath id="clip0_2320_1817">
<rect width="162" height="25.1663" fill="white" transform="translate(0.841797 0.28125)"/>
</clipPath>
</defs>
</svg>
