<svg width="117" height="42" viewBox="0 0 117 42" fill="none" xmlns="http://www.w3.org/2000/svg">
<g clip-path="url(#clip0_2320_1673)">
<path fill-rule="evenodd" clip-rule="evenodd" d="M2.9707 0H16.8025C18.2038 0 19.3592 1.13588 19.3592 2.52366V16.2779C19.3592 17.6611 18.2085 18.8015 16.8025 18.8015H2.9707C1.56942 18.8015 0.414062 17.6656 0.414062 16.2779V2.52366C0.414063 1.13588 1.56942 0 2.9707 0Z" fill="#A0A0A0"/>
<path fill-rule="evenodd" clip-rule="evenodd" d="M20.1619 18.6484H29.1311C30.0312 18.6484 30.7829 19.3904 30.7829 20.279V29.1828C30.7829 30.0713 30.0312 30.8133 29.1311 30.8133H20.1619C19.1087 30.8133 18.357 30.7629 18.357 32.3981V40.5599C18.357 41.4026 17.6563 42.0439 16.8536 42.0439H8.63617C7.78241 42.0439 7.13281 41.3523 7.13281 40.5599V32.4026C7.13281 31.5599 7.83345 30.9187 8.63617 30.9187H16.8536C18.1575 30.9187 18.5055 30.4744 18.5055 29.1874V20.279C18.5055 19.3904 19.2571 18.6484 20.1619 18.6484Z" fill="#A0A0A0"/>
<path d="M47.7752 27.6533V15.383H43.3672V12.9098H55.2456V15.383H50.8376V27.6533H47.8309H47.7752ZM69.1238 27.6533H65.8665L64.5627 24.2914H58.5493L57.2965 27.6533H54.0902L59.9041 12.864H63.1104L69.1238 27.6533ZM63.5605 21.8136L61.4539 16.322L59.4494 21.8136H63.5605ZM70.7293 27.6533V12.8594H75.592C77.448 12.8594 78.5987 12.9098 79.2019 13.0563C80.0557 13.3037 80.7563 13.7479 81.3549 14.4899C81.9581 15.2319 82.2086 16.1708 82.2086 17.3571C82.2086 18.2456 82.0602 19.038 81.7075 19.6334C81.3549 20.2746 80.9558 20.7235 80.4547 21.067C79.9536 21.4151 79.4014 21.6624 78.9003 21.7586C78.1997 21.9052 77.1464 21.9556 75.7915 21.9556H73.8381V27.5479H70.8313L70.7293 27.6533ZM73.736 15.383V19.5876H75.3878C76.5896 19.5876 77.3923 19.4869 77.7449 19.3403C78.144 19.1937 78.4456 18.9464 78.6961 18.5983C78.9467 18.2502 79.0488 17.9067 79.0488 17.4624C79.0488 16.9174 78.9003 16.4731 78.5477 16.125C78.2461 15.7769 77.847 15.5296 77.3459 15.4838C76.9933 15.4334 76.2416 15.383 75.1929 15.383H73.736ZM84.6632 12.9098H90.6256C91.8273 12.9098 92.6811 12.9601 93.2797 13.0563C93.8829 13.1571 94.384 13.354 94.8341 13.6517C95.2841 13.9495 95.6878 14.3937 95.9848 14.8884C96.2864 15.383 96.4349 15.9785 96.4349 16.6197C96.4349 17.3113 96.2353 17.9571 95.8827 18.4975C95.4837 19.093 94.9825 19.4869 94.3283 19.7846C95.2285 20.0319 95.9337 20.4762 96.4349 21.122C96.936 21.7632 97.1865 22.5052 97.1865 23.3479C97.1865 24.0395 97.0381 24.6853 96.7365 25.3266C96.4349 25.9678 95.9848 26.4624 95.4326 26.8609C94.8805 27.2548 94.2309 27.4563 93.4281 27.5525C92.927 27.6029 91.7253 27.6533 89.7718 27.6533H84.6632V12.8594V12.9098ZM87.6699 15.383V18.7953H89.6744C90.8251 18.7953 91.5768 18.7953 91.8784 18.7449C92.3795 18.6945 92.7785 18.4975 93.0801 18.1998C93.3817 17.9021 93.5302 17.5082 93.5302 17.064C93.5302 16.6197 93.3817 16.2212 93.1312 15.9739C92.8806 15.6762 92.4816 15.5296 91.9805 15.4792C91.6789 15.4288 90.8297 15.4288 89.4238 15.4288H87.6699V15.383ZM87.6699 21.2227V25.18H90.4771C91.5814 25.18 92.2821 25.1296 92.5326 25.0792C92.9827 24.9785 93.3353 24.7815 93.6369 24.4838C93.9385 24.1861 94.036 23.7418 94.036 23.2472C94.036 22.8029 93.9339 22.4044 93.6833 22.1113C93.4838 21.8136 93.1312 21.5662 92.7321 21.4197C92.3331 21.2731 91.4283 21.2227 90.027 21.2227H87.5725H87.6699ZM99.6457 27.7037V12.9098H102.704V27.6991H99.6457V27.7037ZM108.916 27.7037V15.4334H104.508V12.9601H116.387V15.4334H111.979V27.7037H108.972H108.916Z" fill="#A0A0A0"/>
</g>
<defs>
<clipPath id="clip0_2320_1673">
<rect width="116" height="42" fill="white" transform="translate(0.400391)"/>
</clipPath>
</defs>
</svg>
