<svg width="117" height="43" viewBox="0 0 117 43" fill="none" xmlns="http://www.w3.org/2000/svg">
<g clip-path="url(#clip0_1931_8270)">
<path fill-rule="evenodd" clip-rule="evenodd" d="M2.96973 0.560547H16.8016C18.2028 0.560547 19.3582 1.69642 19.3582 3.08421V16.8384C19.3582 18.2216 18.2075 19.3621 16.8016 19.3621H2.96973C1.56845 19.3621 0.413086 18.2262 0.413086 16.8384V3.08421C0.413086 1.69642 1.56845 0.560547 2.96973 0.560547Z" fill="#A0A0A0"/>
<path fill-rule="evenodd" clip-rule="evenodd" d="M20.161 19.2109H29.1301C30.0302 19.2109 30.7819 19.9529 30.7819 20.8415V29.7453C30.7819 30.6338 30.0302 31.3758 29.1301 31.3758H20.161C19.1077 31.3758 18.356 31.3254 18.356 32.9606V41.1224C18.356 41.9651 17.6554 42.6064 16.8526 42.6064H8.6352C7.78144 42.6064 7.13184 41.9148 7.13184 41.1224V32.9651C7.13184 32.1224 7.83248 31.4812 8.6352 31.4812H16.8526C18.1565 31.4812 18.5045 31.0369 18.5045 29.7499V20.8415C18.5045 19.9529 19.2562 19.2109 20.161 19.2109Z" fill="#A0A0A0"/>
<path d="M47.7742 28.2158V15.9455H43.3662V13.4723H55.2446V15.9455H50.8366V28.2158H47.8299H47.7742ZM69.1229 28.2158H65.8656L64.5617 24.8539H58.5483L57.2955 28.2158H54.0892L59.9032 13.4265H63.1094L69.1229 28.2158ZM63.5595 22.3761L61.4529 16.8845L59.4485 22.3761H63.5595ZM70.7283 28.2158V13.4219H75.591C77.447 13.4219 78.5977 13.4723 79.2009 13.6188C80.0547 13.8662 80.7553 14.3104 81.3539 15.0524C81.9571 15.7944 82.2076 16.7333 82.2076 17.9196C82.2076 18.8081 82.0592 19.6005 81.7065 20.1959C81.3539 20.8371 80.9549 21.286 80.4537 21.6295C79.9526 21.9776 79.4005 22.2249 78.8993 22.3211C78.1987 22.4677 77.1454 22.5181 75.7905 22.5181H73.8371V28.1104H70.8304L70.7283 28.2158ZM73.735 15.9455V20.1501H75.3868C76.5886 20.1501 77.3913 20.0494 77.744 19.9028C78.143 19.7562 78.4446 19.5089 78.6952 19.1608C78.9457 18.8127 79.0478 18.4692 79.0478 18.0249C79.0478 17.4799 78.8993 17.0356 78.5467 16.6875C78.2451 16.3394 77.8461 16.0921 77.3449 16.0463C76.9923 15.9959 76.2406 15.9455 75.192 15.9455H73.735ZM84.6622 13.4723H90.6246C91.8264 13.4723 92.6801 13.5226 93.2787 13.6188C93.8819 13.7196 94.383 13.9165 94.8331 14.2142C95.2832 14.512 95.6869 14.9562 95.9838 15.4509C96.2854 15.9455 96.4339 16.541 96.4339 17.1822C96.4339 17.8738 96.2344 18.5196 95.8817 19.06C95.4827 19.6555 94.9816 20.0494 94.3273 20.3471C95.2275 20.5944 95.9328 21.0387 96.4339 21.6845C96.935 22.3257 97.1856 23.0677 97.1856 23.9104C97.1856 24.602 97.0371 25.2478 96.7355 25.8891C96.4339 26.5303 95.9838 27.0249 95.4317 27.4234C94.8795 27.8173 94.2299 28.0188 93.4272 28.115C92.9261 28.1654 91.7243 28.2158 89.7708 28.2158H84.6622V13.4219V13.4723ZM87.6689 15.9455V19.3578H89.6734C90.8241 19.3578 91.5758 19.3578 91.8774 19.3074C92.3785 19.257 92.7776 19.06 93.0792 18.7623C93.3808 18.4646 93.5292 18.0707 93.5292 17.6265C93.5292 17.1822 93.3808 16.7837 93.1302 16.5364C92.8797 16.2387 92.4806 16.0921 91.9795 16.0417C91.6779 15.9913 90.8288 15.9913 89.4228 15.9913H87.6689V15.9455ZM87.6689 21.7852V25.7425H90.4761C91.5805 25.7425 92.2811 25.6921 92.5317 25.6417C92.9817 25.541 93.3344 25.344 93.636 25.0463C93.9376 24.7486 94.035 24.3043 94.035 23.8097C94.035 23.3654 93.9329 22.9669 93.6824 22.6738C93.4829 22.3761 93.1302 22.1287 92.7312 21.9822C92.3321 21.8356 91.4273 21.7852 90.0261 21.7852H87.5715H87.6689ZM99.6448 28.2662V13.4723H102.703V28.2616H99.6448V28.2662ZM108.915 28.2662V15.9959H104.507V13.5226H116.386V15.9959H111.978V28.2662H108.971H108.915Z" fill="#A0A0A0"/>
</g>
<defs>
<clipPath id="clip0_1931_8270">
<rect width="116" height="42" fill="white" transform="translate(0.399414 0.560547)"/>
</clipPath>
</defs>
</svg>
