<svg width="140" height="33" viewBox="0 0 140 33" fill="none" xmlns="http://www.w3.org/2000/svg">
<g clip-path="url(#clip0_2320_1826)">
<path d="M29.2588 0.628906H2.57991C1.2392 0.628906 0.152344 1.71576 0.152344 3.05647V29.7354C0.152344 31.0761 1.2392 32.163 2.57991 32.163H29.2588C30.5995 32.163 31.6864 31.0761 31.6864 29.7354V3.05647C31.6864 1.71576 30.5995 0.628906 29.2588 0.628906Z" fill="#838383"/>
<path d="M26.8352 7.39844V9.82398H24.4117C23.0714 9.82398 21.9841 10.9112 21.9841 12.2515V24.3772H19.5586V9.82398H17.1331V26.8027H14.7075V9.82398H12.282V24.3772H9.85645V12.2515C9.85645 10.9112 8.7692 9.82398 7.42888 9.82398H5.00537V7.39844H26.8352Z" fill="#282828"/>
<path d="M45.3193 8.51168H38.8667V4.75391H55.7949V8.51168H49.3424V28.0334H45.3193V8.51168Z" fill="#A0A0A0"/>
<path d="M57.9556 4.75H61.9806V14.3286H72.2577V4.75H76.2808V28.0295H72.2577V18.0864H61.9806V28.0295H57.9556V4.75Z" fill="#A0A0A0"/>
<path d="M79.8418 4.75H93.9092V8.50777H83.8649V14.3266H92.5122V18.052H83.8649V24.2717H94.2411V28.0295H79.8418V4.75Z" fill="#A0A0A0"/>
<path d="M96.9015 4.75H103.686L111.202 24.1057H111.467V4.75H115.457V28.0295H108.606L101.224 8.7082H100.924V28.0295H96.8994V4.75H96.9015Z" fill="#A0A0A0"/>
<path d="M133.163 23.0446H123.087L121.39 28.0334H117.233L125.38 4.75391H131.034L139.114 28.0334H134.857L133.162 23.0446H133.163ZM131.901 19.3537L128.276 8.71212H127.944L124.32 19.3537H131.902H131.901Z" fill="#A0A0A0"/>
</g>
<defs>
<clipPath id="clip0_2320_1826">
<rect width="139.069" height="31.59" fill="white" transform="translate(0.152344 0.585938)"/>
</clipPath>
</defs>
</svg>
