<svg width="161" height="17" viewBox="0 0 161 17" fill="none" xmlns="http://www.w3.org/2000/svg">
<g clip-path="url(#clip0_2320_1717)">
<path fill-rule="evenodd" clip-rule="evenodd" d="M11.1768 0.730538H0.742188V3.75454H7.77839V15.2862H11.1768V3.75454H18.213V0.730538H11.1768ZM39.1632 0.730538V15.2862H35.7405V9.27874H24.189V15.2862H20.7663V0.730538H24.189V6.25474H35.7405V0.730538H39.1632ZM80.9952 0.730538H82.3722V7.17904C82.3782 8.27256 82.1253 9.35197 81.6342 10.329C81.156 11.3131 80.4855 12.1914 79.6623 12.912C78.8379 13.6404 77.8632 14.2218 76.7382 14.6562C75.6294 15.0762 74.4411 15.2862 73.1733 15.2862C71.9049 15.2862 70.7163 15.0762 69.6075 14.6562C68.5397 14.2482 67.5507 13.6584 66.6843 12.9129C65.8708 12.183 65.2016 11.3068 64.7115 10.3299C64.235 9.34832 63.9907 8.27019 63.9978 7.17904V0.730538H67.3971V7.17904C67.3971 7.87804 67.5477 8.54314 67.8489 9.17434C68.1486 9.79056 68.5688 10.3405 69.0846 10.7916C69.624 11.2629 70.2442 11.6328 70.9152 11.8833C71.6377 12.1513 72.4027 12.2864 73.1733 12.282C73.9653 12.282 74.7099 12.1491 75.4071 11.8833C76.0873 11.6372 76.7159 11.267 77.2611 10.7916C77.7772 10.3406 78.1977 9.79064 78.4977 9.17434C78.7983 8.54434 78.9486 7.87924 78.9486 7.17904V0.730538H80.9934M85.2819 3.33514C85.0255 3.86517 84.8952 4.44736 84.9012 5.03614C84.9012 5.62414 85.0281 6.17734 85.2819 6.69574C85.5351 7.21354 85.8756 7.66864 86.3034 8.06104C86.7474 8.43904 87.2625 8.73994 87.8487 8.96374C88.4572 9.1893 89.1014 9.30332 89.7504 9.30034H95.6688C96.144 9.30034 96.5481 9.45424 96.8811 9.76204C97.2141 10.056 97.3806 10.4061 97.3806 10.8123C97.3806 11.2185 97.2141 11.5686 96.8811 11.8626C96.5481 12.1566 96.144 12.3036 95.6688 12.3036H84.9021V15.2862L94.695 15.3069H95.6697C96.3831 15.3069 97.0485 15.195 97.6659 14.9712C98.258 14.7479 98.8054 14.4206 99.2823 14.0046C99.7425 13.5984 100.107 13.1223 100.376 12.5763C100.646 12.0303 100.78 11.4423 100.78 10.8123C100.78 10.1823 100.645 9.59434 100.376 9.04834C100.109 8.50477 99.7374 8.01935 99.2823 7.62004C98.8054 7.2041 98.258 6.87675 97.6659 6.65344C97.0285 6.41141 96.3515 6.29024 95.6697 6.29614H89.7513C89.2437 6.29614 88.8792 6.19834 88.6578 6.00274C88.4358 5.80654 88.3248 5.48434 88.3248 5.03614C88.3248 4.58794 88.4358 4.25884 88.6578 4.04884C88.8798 3.83884 89.2443 3.73384 89.7513 3.73384H100.78V0.730538H89.7513C89.1024 0.727263 88.4582 0.840981 87.8496 1.06624C87.2832 1.27908 86.7597 1.59217 86.3043 1.99054C85.8765 2.36854 85.5351 2.81674 85.2819 3.33514ZM110.521 0.730538H120.956V3.75454H113.921V15.2862H110.521V3.75454H103.486V0.730538H110.521ZM128.281 0.730538H123.504V15.2862H139.976V12.2622H126.903V9.27784H137.884V6.25384H126.903V3.73384H139.976V0.730538H128.281ZM160.609 6.59044C160.831 6.10084 160.942 5.58274 160.942 5.03614C160.942 4.44814 160.815 3.89524 160.561 3.37744C160.31 2.86159 159.954 2.4037 159.516 2.03284C159.061 1.63457 158.537 1.32148 157.971 1.10854C157.371 0.882187 156.734 0.768386 156.093 0.772838H143.258V15.3078H146.656V9.29944H152.599L156.901 15.2844H160.942L156.616 9.27784C157.199 9.22652 157.77 9.07744 158.303 8.83684C158.843 8.58484 159.302 8.26984 159.682 7.89184C160.073 7.52208 160.388 7.08064 160.609 6.59044ZM157.186 6.00184C156.965 6.19804 156.601 6.29584 156.093 6.29524H146.656V3.77524H156.093C156.601 3.77524 156.965 3.87334 157.186 4.06954C157.408 4.26574 157.519 4.58764 157.519 5.03524C157.519 5.48344 157.408 5.80564 157.186 6.00184ZM61.3068 6.58954C61.5294 6.10178 61.643 5.57138 61.6398 5.03524C61.6425 4.46037 61.5122 3.89267 61.2591 3.37654C61.0075 2.86069 60.6513 2.4028 60.2133 2.03194C59.758 1.63399 59.2349 1.3212 58.6689 1.10854C58.0687 0.882187 57.432 0.768386 56.7906 0.772838H43.9548V15.3078H47.3541V9.29944H53.2968L57.5988 15.2844H61.6398L57.3135 9.27784C57.8967 9.22652 58.4672 9.07744 59.001 8.83684C59.5404 8.58484 60 8.26984 60.3798 7.89184C60.7758 7.51384 61.0848 7.07974 61.3068 6.58954ZM57.8841 6.00184C57.6627 6.19804 57.2982 6.29584 56.7906 6.29524H47.3541V3.77524H56.7906C57.2976 3.77524 57.6621 3.87334 57.8841 4.06954C58.1061 4.26574 58.2171 4.58764 58.2171 5.03524C58.2171 5.48284 58.1061 5.80504 57.8841 6.00184Z" fill="#A0A0A0"/>
</g>
<defs>
<clipPath id="clip0_2320_1717">
<rect width="160.2" height="15.3" fill="white" transform="translate(0.741699 0.734375)"/>
</clipPath>
</defs>
</svg>
