<svg width="103" height="27" viewBox="0 0 103 27" fill="none" xmlns="http://www.w3.org/2000/svg">
<g clip-path="url(#clip0_2296_6706)">
<path d="M8.62457 3.02245C8.30438 2.97307 8.29088 2.96728 8.44156 2.94425C8.73031 2.9001 9.41211 2.96028 9.88194 3.07135C10.9789 3.33058 11.9769 3.99466 13.0422 5.17407L13.3253 5.48739L13.7302 5.42268C15.436 5.15012 17.1713 5.36674 18.6227 6.03339C19.022 6.21679 19.6516 6.58188 19.7302 6.67569C19.7553 6.7056 19.8012 6.89807 19.8325 7.10345C19.9402 7.81397 19.8862 8.35859 19.6677 8.76537C19.5488 8.98674 19.5421 9.05689 19.6221 9.24633C19.6859 9.3975 19.8639 9.50939 20.0401 9.50914C20.4008 9.50867 20.789 8.92894 20.9689 8.1223L21.0403 7.8019L21.1819 7.96131C21.9583 8.83592 22.5681 10.0287 22.6729 10.8777L22.7002 11.0991L22.5696 10.8978C22.345 10.5516 22.1194 10.3158 21.8304 10.1257C21.3094 9.78299 20.7587 9.66634 19.2999 9.58992C17.9825 9.5209 17.2368 9.40901 16.4975 9.1693C15.2396 8.76151 14.6055 8.21841 13.1112 6.26916C12.4475 5.40336 12.0373 4.92434 11.6292 4.53857C10.7019 3.66203 9.79085 3.20232 8.62457 3.02245Z" fill="#A0A0A0"/>
<path d="M20.0277 4.95838C20.0607 4.37821 20.1399 3.99555 20.299 3.64608C20.362 3.50774 20.421 3.39453 20.4301 3.39453C20.4392 3.39453 20.4118 3.49664 20.3692 3.62141C20.2536 3.96057 20.2346 4.42445 20.3142 4.96418C20.4154 5.64898 20.4729 5.74779 21.2009 6.48753C21.5423 6.8345 21.9395 7.27211 22.0834 7.45998L22.3452 7.8016L22.0834 7.55746C21.7633 7.25891 21.0271 6.67665 20.8645 6.59342C20.7554 6.5376 20.7392 6.53856 20.6719 6.60513C20.6099 6.66647 20.5969 6.75864 20.5883 7.19436C20.5749 7.87344 20.4818 8.30932 20.2571 8.74516C20.1356 8.98089 20.1165 8.93058 20.2263 8.66451C20.3085 8.46585 20.3168 8.37851 20.3162 7.72111C20.3149 6.40023 20.1573 6.08269 19.2323 5.53871C18.998 5.4009 18.6119 5.20216 18.3744 5.09703C18.1369 4.9919 17.9481 4.90034 17.955 4.8935C17.9812 4.86758 18.8832 5.12935 19.2462 5.2682C19.7863 5.47475 19.8754 5.50152 19.9411 5.4766C19.985 5.4599 20.0063 5.33259 20.0277 4.95838Z" fill="#A0A0A0"/>
<path d="M9.24667 7.2182C8.59667 6.32845 8.1945 4.96428 8.28157 3.94449L8.30849 3.62891L8.45645 3.65575C8.7343 3.70614 9.21337 3.88343 9.43769 4.01891C10.0533 4.39063 10.3197 4.88004 10.5909 6.13676C10.6703 6.50486 10.7746 6.92142 10.8225 7.06244C10.8997 7.28943 11.1914 7.81966 11.4285 8.16401C11.5992 8.41201 11.4858 8.52954 11.1082 8.49565C10.5316 8.44389 9.75055 7.90791 9.24667 7.2182Z" fill="#A0A0A0"/>
<path d="M19.2389 13.8377C16.2013 12.6216 15.1313 11.5661 15.1313 9.78511C15.1313 9.52302 15.1405 9.30859 15.1515 9.30859C15.1626 9.30859 15.2801 9.39508 15.4127 9.50081C16.0287 9.99203 16.7184 10.2018 18.6279 10.4788C19.7516 10.6418 20.384 10.7735 20.9673 10.9658C22.8213 11.5772 23.9684 12.8178 24.2419 14.5077C24.3214 14.9987 24.2748 15.9195 24.1459 16.4048C24.0442 16.7881 23.7337 17.4791 23.6514 17.5055C23.6286 17.5129 23.6062 17.4258 23.6003 17.3075C23.5691 16.673 23.2465 16.0553 22.7049 15.5925C22.0891 15.0663 21.2618 14.6475 19.2389 13.8377Z" fill="#A0A0A0"/>
<path d="M17.1067 14.3413C17.0687 14.1162 17.0027 13.8286 16.96 13.7023L16.8825 13.4727L17.0265 13.6334C17.2257 13.8556 17.3832 14.1402 17.5166 14.5191C17.6184 14.8084 17.6299 14.8943 17.6291 15.3643C17.6283 15.8257 17.6156 15.9224 17.5215 16.1828C17.3733 16.5932 17.1892 16.8843 16.8805 17.1967C16.3256 17.7582 15.6122 18.0691 14.5827 18.1981C14.4038 18.2205 13.8822 18.2582 13.4237 18.2818C12.2681 18.3417 11.5076 18.4651 10.8242 18.7037C10.726 18.738 10.6383 18.7589 10.6293 18.75C10.6017 18.7226 11.067 18.4468 11.4512 18.2628C11.9932 18.0033 12.5326 17.8616 13.7413 17.6615C14.3383 17.5626 14.9548 17.4427 15.1115 17.395C16.59 16.9442 17.35 15.7811 17.1067 14.3413Z" fill="#A0A0A0"/>
<path d="M18.4993 16.7988C18.0958 15.9362 18.003 15.1033 18.2241 14.3267C18.2479 14.2437 18.2858 14.1758 18.3087 14.1758C18.3317 14.1758 18.4268 14.227 18.5204 14.2895C18.7063 14.4139 19.0793 14.6236 20.0731 15.1623C21.3132 15.8345 22.0201 16.355 22.5009 16.9497C22.922 17.4706 23.1826 18.0637 23.308 18.787C23.379 19.1967 23.3374 20.1826 23.2316 20.5951C22.8983 21.896 22.1233 22.9179 21.0181 23.5141C20.8563 23.6015 20.7108 23.6732 20.6951 23.6736C20.6794 23.6739 20.7384 23.5247 20.8262 23.3421C21.198 22.5693 21.2404 21.8176 20.9592 20.981C20.7872 20.4687 20.4363 19.8437 19.7277 18.7872C18.904 17.559 18.702 17.232 18.4993 16.7988Z" fill="#A0A0A0"/>
<path d="M7.0895 21.4523C8.21675 20.506 9.6193 19.8337 10.8969 19.6273C11.4475 19.5384 12.3647 19.5737 12.8746 19.7035C13.6919 19.9114 14.423 20.3772 14.8031 20.9321C15.1748 21.4745 15.3341 21.9472 15.5001 22.9987C15.5656 23.4136 15.6368 23.8301 15.6583 23.9244C15.783 24.4694 16.0256 24.905 16.3261 25.1238C16.8036 25.4712 17.6256 25.4929 18.4343 25.1792C18.5716 25.1259 18.6907 25.0891 18.6991 25.0974C18.7284 25.1264 18.3212 25.3975 18.0339 25.5402C17.6474 25.7321 17.34 25.8063 16.9316 25.8063C16.1909 25.8063 15.576 25.4317 15.0629 24.6678C14.9619 24.5175 14.735 24.0672 14.5586 23.6672C14.0169 22.4387 13.7493 22.0645 13.1203 21.6548C12.5729 21.2985 11.8669 21.2346 11.3358 21.4936C10.6382 21.8336 10.4436 22.72 10.9433 23.2818C11.1419 23.505 11.5121 23.6976 11.8149 23.735C12.3815 23.8051 12.8683 23.3766 12.8683 22.8079C12.8683 22.4387 12.7255 22.2279 12.3662 22.0667C11.8755 21.8465 11.3479 22.1039 11.3504 22.5623C11.3516 22.7578 11.4371 22.8805 11.6342 22.9692C11.7607 23.026 11.7635 23.0306 11.6604 23.0093C11.2101 22.9165 11.1047 22.3767 11.4668 22.0183C11.9015 21.5881 12.8004 21.778 13.109 22.3652C13.2387 22.6118 13.2538 23.103 13.1407 23.3996C12.8876 24.0635 12.1498 24.4126 11.4014 24.2226C10.8918 24.0933 10.6844 23.9532 10.0699 23.324C9.00237 22.2306 8.58792 22.0187 7.04884 21.7798L6.75391 21.7341L7.0895 21.4523Z" fill="#A0A0A0"/>
<path fill-rule="evenodd" clip-rule="evenodd" d="M2.08024 1.88449C5.64545 6.18684 8.10099 7.96191 8.37388 8.33693C8.59917 8.64659 8.51438 8.92499 8.12839 9.14317C7.91375 9.26448 7.47246 9.38738 7.25151 9.38738C7.0016 9.38738 6.9158 9.29153 6.9158 9.29153C6.7709 9.15489 6.6893 9.17879 5.9452 7.86553C4.91214 6.27174 4.04762 4.94962 4.02403 4.92748C3.9695 4.87629 3.97043 4.87802 5.83986 8.20377C6.14191 8.89693 5.89994 9.15138 5.89994 9.25011C5.89994 9.45094 5.84484 9.55651 5.59567 9.83285C5.18028 10.2936 4.99459 10.8113 4.86055 11.8827C4.71027 13.0838 4.28773 13.9322 3.11674 15.3842C2.43127 16.2342 2.31912 16.39 2.14616 16.7326C1.9283 17.164 1.86839 17.4057 1.84411 17.9504C1.81844 18.5264 1.86843 18.8985 2.04541 19.4492C2.20036 19.9313 2.36209 20.2497 2.77557 20.8864C3.13239 21.4359 3.33785 21.8443 3.33785 22.004C3.33785 22.1312 3.36225 22.1313 3.91517 22.0072C5.23839 21.71 6.31285 21.1876 6.91713 20.5472C7.29112 20.1508 7.37892 19.932 7.38177 19.3889C7.38364 19.0335 7.37107 18.9592 7.27449 18.7549C7.11726 18.4221 6.83105 18.1456 6.2002 17.7168C5.37362 17.1549 5.02057 16.7027 4.92306 16.0807C4.84306 15.5703 4.93587 15.2102 5.39313 14.2573C5.86643 13.271 5.98372 12.8507 6.06306 11.8565C6.11431 11.2142 6.18527 10.9609 6.37088 10.7575C6.56446 10.5455 6.73872 10.4737 7.2178 10.4086C7.99883 10.3025 8.49615 10.1016 8.90495 9.72708C9.25958 9.40216 9.40797 9.08908 9.43075 8.61778L9.44804 8.26055L9.24986 8.03082C8.53219 7.19882 1.59962 1.23047 1.55545 1.23047C1.54601 1.23047 1.78218 1.5248 2.08024 1.88449ZM3.74071 18.6021C3.90297 18.3165 3.81676 17.9491 3.54534 17.7697C3.28889 17.6001 2.8905 17.68 2.8905 17.9009C2.8905 17.9683 2.928 18.0175 3.0125 18.0606C3.1548 18.1335 3.16513 18.2153 3.05317 18.3827C2.93979 18.5521 2.94894 18.7011 3.079 18.8023C3.2886 18.9655 3.58531 18.8757 3.74071 18.6021Z" fill="#A0A0A0"/>
<path fill-rule="evenodd" clip-rule="evenodd" d="M9.94065 10.6005C9.57399 10.7124 9.21757 11.0988 9.10724 11.504C9.03993 11.7511 9.07812 12.1846 9.17894 12.3186C9.34182 12.5348 9.49932 12.5918 9.92581 12.5888C10.7608 12.583 11.4867 12.227 11.5711 11.7818C11.6403 11.4169 11.3214 10.9113 10.8823 10.6893C10.6558 10.5748 10.1738 10.5293 9.94065 10.6005ZM10.9167 11.3593C11.0455 11.1774 10.9892 10.9809 10.7702 10.8479C10.3531 10.5947 9.72247 10.8042 9.72247 11.1959C9.72247 11.3909 10.0514 11.6037 10.3528 11.6037C10.5535 11.6037 10.828 11.4847 10.9167 11.3593Z" fill="#A0A0A0"/>
<path d="M93.5234 24.8037V11.8232H95.3969V13.2952C95.9131 12.4541 96.9071 11.5938 98.5703 11.5938C101.055 11.5938 102.852 13.5629 102.852 16.5451C102.852 19.5273 101.055 21.4964 98.5703 21.4964C96.8689 21.4964 95.894 20.5978 95.416 19.8332V24.8037H93.5234ZM98.1306 19.9862C99.985 19.9862 100.883 18.4376 100.883 16.5451C100.883 14.6525 99.985 13.104 98.1306 13.104C96.2762 13.104 95.3395 14.6908 95.3395 16.5451C95.3395 18.3994 96.2762 19.9862 98.1306 19.9862Z" fill="#A0A0A0"/>
<path d="M86.4608 21.4964C84.7594 21.4964 83.23 20.464 83.23 18.7053C83.23 16.9848 84.4344 16.201 86.48 15.7996L87.7798 15.5319C88.7931 15.3216 89.271 15.1113 89.271 14.3275C89.271 13.5438 88.621 12.9893 87.474 12.9893C86.2314 12.9893 85.4284 13.754 85.3521 15.0157L83.4021 14.8436C83.5359 12.8172 85.1609 11.5938 87.4931 11.5938C89.9019 11.5938 91.1827 12.7599 91.1827 14.7481V21.267H89.3666V20.1582H89.3475C88.9077 20.8846 87.9328 21.4964 86.4608 21.4964ZM86.9578 20.1391C88.296 20.1391 89.3475 19.2597 89.3475 17.6921V16.5451C87.3593 16.8701 86.4226 17.1377 85.849 17.5009C85.4094 17.7686 85.1609 18.1509 85.1609 18.6671C85.1609 19.5464 85.8873 20.1391 86.9578 20.1391Z" fill="#A0A0A0"/>
<path d="M71.0649 21.2679L68.0635 11.8242H70.0708L72.1355 18.9548H72.1546L74.2957 11.8242H76.1882L78.3484 18.9357H78.3675L80.4323 11.8242H82.4013L79.3998 21.2679H77.4117L75.2706 13.9844H75.2515L73.0722 21.2679H71.0649Z" fill="#A0A0A0"/>
<path d="M63.4314 21.4964C61.08 21.4964 59.3594 20.4068 59.1492 18.1509L61.0226 17.9215C61.1182 19.4126 62.1696 20.1009 63.4696 20.1009C64.7504 20.1009 65.6107 19.5273 65.6107 18.6097C65.6107 17.6921 64.7313 17.5009 63.5461 17.2333L62.1505 16.9083C60.6211 16.5451 59.5697 15.8187 59.5697 14.3658C59.5697 12.7599 61.1564 11.5938 63.3931 11.5938C65.5533 11.5938 67.0254 12.6834 67.2738 14.4422L65.3813 14.7099C65.2474 13.582 64.4254 12.9893 63.3166 12.9893C62.1887 12.9893 61.4623 13.5438 61.4623 14.2702C61.4623 14.9583 61.8828 15.2069 63.0681 15.4745L64.4637 15.7996C66.4518 16.2583 67.5032 16.9083 67.5032 18.4185C67.5032 20.3112 65.7445 21.4964 63.4314 21.4964Z" fill="#A0A0A0"/>
<path d="M55.625 21.2697V11.8259H57.5177V21.2697H55.625ZM55.625 10.3539V8.11719H57.5177V10.3539H55.625Z" fill="#A0A0A0"/>
<path d="M45.0439 21.267V11.8232H46.9175V13.1614H46.9366C47.4718 12.3394 48.5232 11.5938 49.957 11.5938C52.0599 11.5938 53.3025 12.8555 53.3025 15.1495V21.267H51.41V15.9715C51.41 14.2702 51.0276 13.1805 49.4408 13.1805C47.8542 13.1805 46.9366 14.4614 46.9366 15.9906V21.267H45.0439Z" fill="#A0A0A0"/>
<path d="M37.684 21.4991C34.5489 21.4991 32.6372 19.7212 32.6372 16.4522V8.11719H34.6253V16.3375C34.6253 18.4594 35.6194 19.8359 37.684 19.8359C39.9207 19.8359 40.7427 18.4594 40.7427 16.3375V8.11719H42.731V16.4522C42.731 19.7212 40.8192 21.4991 37.684 21.4991Z" fill="#A0A0A0"/>
</g>
<defs>
<clipPath id="clip0_2296_6706">
<rect width="102.892" height="25.8" fill="white" transform="translate(0 0.5625)"/>
</clipPath>
</defs>
</svg>
