<svg width="165" height="28" viewBox="0 0 165 28" fill="none" xmlns="http://www.w3.org/2000/svg">
<g clip-path="url(#clip0_2320_1740)">
<mask id="mask0_2320_1740" style="mask-type:luminance" maskUnits="userSpaceOnUse" x="1" y="0" width="28" height="28">
<path d="M28.6095 0.511719H1.0791V27.3788H28.6095V0.511719Z" fill="white"/>
</mask>
<g mask="url(#mask0_2320_1740)">
<path d="M26.2431 21.2627C26.2257 21.2758 26.2083 21.2899 26.1899 21.3024C26.1725 21.3157 26.1543 21.3282 26.1361 21.3415C26.1022 21.3654 26.0672 21.3887 26.0316 21.411C26.0275 21.4135 26.0232 21.4161 26.0191 21.4194C25.9901 21.4376 25.961 21.4558 25.9314 21.4732C25.8874 21.4998 25.8443 21.5247 25.7995 21.5495C25.4959 21.7187 25.1766 21.8547 24.8508 21.975C24.5431 22.0877 24.2314 22.1865 23.917 22.2742C23.4668 22.4004 23.0107 22.5047 22.5505 22.596C22.1035 22.6855 21.655 22.761 21.2047 22.8265C20.7544 22.8921 20.3025 22.9467 19.8497 22.994C19.7013 23.0097 19.5528 23.0239 19.4044 23.038C19.1067 23.0654 18.809 23.0885 18.5113 23.1085C18.3621 23.1184 18.2128 23.1276 18.0644 23.136C17.7302 23.155 17.396 23.1691 17.0619 23.1797C17.0013 23.1816 16.9408 23.184 16.8794 23.1857C16.8239 23.1873 16.7683 23.1889 16.7119 23.1906C16.8487 23.0214 16.9856 22.8531 17.1108 22.6749C17.129 22.6524 17.1472 22.6301 17.1647 22.6068C17.4474 22.227 17.7178 21.8389 17.9765 21.4433C18.003 21.4417 18.0296 21.4409 18.0553 21.4392C18.2195 21.43 18.3836 21.4194 18.5478 21.4086C18.6722 21.4002 18.7966 21.3912 18.921 21.3812C19.7908 21.3141 20.6574 21.2179 21.5198 21.0827C21.7711 21.0437 22.0207 21.0005 22.2694 20.9549C22.8515 20.8471 23.4286 20.7178 23.9976 20.5553C24.1228 20.5196 24.2472 20.4823 24.3715 20.4434C24.4337 20.4235 24.4959 20.4036 24.5581 20.3828C24.6518 20.3994 24.7373 20.4384 24.825 20.4707C24.9021 20.4989 24.9792 20.5288 25.0565 20.5594C25.2746 20.6457 25.4885 20.741 25.6958 20.8514C25.7778 20.8945 25.8584 20.9402 25.9379 20.9882C26.0433 21.052 26.146 21.1191 26.2423 21.1962C26.2705 21.2187 26.2787 21.2277 26.2679 21.241C26.263 21.2478 26.2548 21.2543 26.2415 21.2644L26.2431 21.2627Z" fill="#F1ECE2"/>
<path d="M18.1817 25.2705C18.1643 25.2814 18.1452 25.2814 18.127 25.2748C18.1319 25.2714 18.1361 25.2697 18.1402 25.2681C18.1477 25.2656 18.1543 25.2656 18.1618 25.2656C18.1684 25.2656 18.1759 25.2673 18.1825 25.2705H18.1817Z" fill="#5E93FF"/>
<path d="M18.1074 25.2753C18.085 25.2852 18.0626 25.286 18.0386 25.2794C18.061 25.2661 18.0842 25.2678 18.1074 25.2753Z" fill="#5E93FF"/>
<path d="M18.02 25.2799C17.9976 25.2899 17.9752 25.2907 17.9512 25.2839C17.9736 25.2698 17.9959 25.2715 18.02 25.2799Z" fill="#5E93FF"/>
<path d="M17.9318 25.2832C17.9094 25.294 17.887 25.294 17.8638 25.2865C17.8638 25.2865 17.8654 25.2865 17.8662 25.2857C17.8878 25.275 17.9102 25.275 17.9318 25.2832Z" fill="#5E93FF"/>
<path d="M17.7978 25.2829C17.8127 25.2796 17.8285 25.2813 17.8442 25.2872C17.8218 25.2978 17.7986 25.2978 17.7754 25.2913C17.7829 25.2872 17.7903 25.2845 17.7978 25.2829Z" fill="#5E93FF"/>
<path d="M17.7203 25.286C17.7319 25.286 17.7435 25.2884 17.756 25.2919C17.7336 25.3017 17.7112 25.3025 17.688 25.2952C17.6988 25.2884 17.7095 25.286 17.7203 25.2852V25.286Z" fill="#5E93FF"/>
<path d="M17.6519 25.2906C17.6576 25.2914 17.6626 25.293 17.6676 25.2947C17.646 25.3047 17.6228 25.3055 17.5996 25.2988C17.6154 25.289 17.6319 25.2873 17.6485 25.2906C17.6485 25.2906 17.6494 25.2906 17.6502 25.2906H17.651H17.6519Z" fill="#5E93FF"/>
<path d="M17.5793 25.2951C17.5528 25.3068 17.5254 25.306 17.498 25.2984C17.5246 25.2861 17.5519 25.2869 17.5793 25.2951Z" fill="#5E93FF"/>
<path d="M17.4782 25.2995C17.4558 25.311 17.4334 25.3093 17.4102 25.3028C17.4317 25.2903 17.455 25.2903 17.4782 25.2995Z" fill="#5E93FF"/>
<path d="M23.296 20.0064C23.3066 20.0081 23.3191 20.0081 23.3308 20.0097C23.3457 20.0114 23.3606 20.0155 23.3723 20.028C23.3416 20.0255 23.3117 20.0188 23.2852 20.0039C23.2868 20.0039 23.2892 20.0039 23.2909 20.0047C23.2927 20.0047 23.2944 20.0047 23.2968 20.0056L23.296 20.0064Z" fill="#5E93FF"/>
<path d="M10.667 27.3242C10.6695 27.3291 10.672 27.3342 10.6737 27.3383L10.2109 27.34C10.2134 27.3351 10.2159 27.3299 10.2184 27.325C10.2557 27.325 10.293 27.325 10.3304 27.325C10.4423 27.325 10.5542 27.325 10.6662 27.325L10.667 27.3242Z" fill="#3180F4"/>
<path d="M24.5605 20.3829C24.4984 20.4036 24.437 20.4235 24.374 20.4434C24.2496 20.4824 24.1253 20.5197 24.0001 20.5553C23.4304 20.7179 22.854 20.8472 22.2719 20.955C22.0232 21.0014 21.7728 21.0437 21.5222 21.0828C20.6599 21.2178 19.7933 21.3142 18.9235 21.3812C18.7991 21.3913 18.6747 21.4003 18.5503 21.4087C18.3862 21.4195 18.222 21.4301 18.0578 21.4393C18.0312 21.441 18.0055 21.4418 17.979 21.4434C18.1573 21.1706 18.3306 20.8944 18.4981 20.6142C18.7402 20.2095 18.9716 19.7991 19.1913 19.3828C19.6109 19.4193 20.0297 19.4616 20.4484 19.513C20.4791 19.5163 20.5098 19.5229 20.5413 19.5279C20.7287 19.5412 20.9145 19.5694 21.0994 19.5967C21.3374 19.6316 21.5754 19.6697 21.8125 19.7095C22.1326 19.7634 22.4527 19.8231 22.7704 19.892C22.942 19.9293 23.1128 19.9674 23.2844 20.0047C23.3118 20.0197 23.3408 20.0255 23.3715 20.0288C23.7381 20.1225 24.1036 20.2212 24.4628 20.3397C24.4959 20.3505 24.5342 20.3538 24.5597 20.382L24.5605 20.3829Z" fill="#C9C9C9"/>
<path d="M12.3677 23.082C12.5153 23.0937 12.6637 23.1053 12.8113 23.1152C12.6629 23.1053 12.5153 23.0937 12.3677 23.082Z" fill="#F1ECE2"/>
<path d="M7.63287 26.3872C7.62151 26.3872 7.61179 26.384 7.60449 26.375C7.60449 26.375 7.60611 26.375 7.60693 26.375C7.60855 26.375 7.61017 26.375 7.61179 26.375C7.61341 26.375 7.61423 26.376 7.61585 26.376C7.61665 26.376 7.61827 26.376 7.61909 26.3768C7.62071 26.3768 7.62233 26.3784 7.62395 26.3792C7.62395 26.3792 7.62557 26.3792 7.62639 26.38C7.62801 26.3816 7.62963 26.3832 7.63125 26.3848C7.63125 26.3848 7.63125 26.3848 7.63207 26.3848L7.63287 26.3872Z" fill="#404A5A"/>
<path d="M7.60358 26.3761C7.59224 26.3761 7.5817 26.3737 7.5752 26.3633C7.5752 26.3633 7.58088 26.3633 7.58332 26.3633H7.58412C7.59142 26.3649 7.59792 26.3681 7.60278 26.3753C7.60278 26.3753 7.60278 26.3753 7.60278 26.3761H7.60358Z" fill="#404A5A"/>
<path d="M7.57477 26.3623C7.56261 26.3623 7.55125 26.3613 7.54639 26.3485C7.54639 26.3485 7.54639 26.3485 7.54639 26.3477H7.54721C7.55855 26.3477 7.56909 26.3501 7.57477 26.3613V26.3623Z" fill="#404A5A"/>
<path d="M7.54611 26.3463V26.3479C7.53477 26.3479 7.52261 26.3495 7.51855 26.3341V26.3325C7.53071 26.3307 7.54125 26.3333 7.54693 26.3463H7.54611Z" fill="#404A5A"/>
<path d="M7.4328 26.2734C7.44108 26.2792 7.45102 26.2835 7.46014 26.2876C7.46679 26.2908 7.47342 26.2933 7.48005 26.2966C7.49166 26.3025 7.50244 26.3098 7.50991 26.3207C7.51238 26.324 7.51488 26.3289 7.51738 26.334C7.47839 26.3307 7.44439 26.315 7.41455 26.29L7.4328 26.2734Z" fill="#404A5A"/>
<path d="M10.0923 25.025C10.0599 25.0299 10.0276 25.0348 9.99609 25.0397C9.87171 25.0565 9.74732 25.0663 9.6221 25.0696C9.58064 25.0704 9.53836 25.0714 9.4969 25.0704C9.4546 25.0704 9.41314 25.0688 9.37084 25.0671C9.35259 25.0663 9.33516 25.0639 9.31694 25.0622C9.29951 25.0606 9.28127 25.0581 9.26302 25.0565C9.23981 25.0547 9.2224 25.0449 9.20499 25.0299C9.15523 24.9851 9.10796 24.9387 9.06152 24.8906C9.40485 24.9403 9.74814 24.9851 10.0923 25.0258V25.025Z" fill="#F1ECE2"/>
<path d="M15.4936 19.2266C15.2465 19.2266 14.9993 19.2299 14.7522 19.234C14.3409 19.8717 13.8973 20.487 13.413 21.0716C13.311 21.1943 13.2082 21.3154 13.1029 21.4349C12.8375 21.7374 12.5606 22.0295 12.2703 22.3081C12.0158 22.5519 11.7529 22.7849 11.4784 23.0037C11.2645 23.1753 11.0431 23.3388 10.8134 23.4905C10.3905 23.7708 9.94685 24.0121 9.46921 24.1878C9.22709 24.2766 8.97998 24.3488 8.72457 24.3909C8.71047 24.3934 8.6972 24.3993 8.68311 24.4034C8.68394 24.4075 8.6856 24.4126 8.68642 24.4167C8.68726 24.4192 8.6881 24.4216 8.68975 24.4241C8.70798 24.4523 8.72622 24.4797 8.74531 24.5063C8.78346 24.5609 8.82326 24.6141 8.86388 24.6654C8.92525 24.7426 8.99076 24.8172 9.05957 24.8886C9.40286 24.9383 9.74617 24.9831 10.0903 25.0238C10.1823 25.0097 10.2735 24.9913 10.3639 24.9698C10.5737 24.9201 10.7777 24.8547 10.9776 24.7775C11.0771 24.7385 11.1758 24.6969 11.2728 24.6522C11.3698 24.6074 11.466 24.5601 11.5613 24.5096C11.6028 24.4881 11.6435 24.4656 11.6849 24.4433C11.9702 24.2866 12.2438 24.1107 12.5058 23.9217C12.7687 23.7317 13.0208 23.5278 13.2654 23.3138C13.3002 23.2831 13.3351 23.2524 13.3699 23.2209C13.3956 23.1978 13.4205 23.1745 13.447 23.1506C13.6038 23.007 13.758 22.8595 13.9081 22.7086C13.9661 22.6497 14.0233 22.5907 14.0805 22.5302C14.2688 22.3328 14.452 22.1313 14.6303 21.9249C14.7373 21.8014 14.8418 21.6752 14.9446 21.5484C14.957 21.5334 14.9695 21.5177 14.9819 21.5019C15.0524 21.414 15.1221 21.3254 15.1917 21.2358C15.4098 20.9538 15.6196 20.6661 15.8219 20.3726C15.9314 20.2134 16.0384 20.0533 16.1437 19.8916C16.2025 19.8004 16.2606 19.7092 16.3178 19.618C16.3966 19.4928 16.4737 19.3659 16.55 19.239C16.1976 19.2307 15.846 19.2266 15.4936 19.2266Z" fill="#F1ECE2"/>
<path d="M6.08682 25.6974C6.07548 25.6998 6.06656 25.6966 6.0625 25.6844C6.07466 25.682 6.08358 25.6844 6.08682 25.6974Z" fill="#C18B00"/>
<path d="M13.3988 19.2814C13.2222 19.2897 13.0456 19.2996 12.8698 19.3104C12.6766 19.5841 12.4767 19.8536 12.2677 20.1164C12.0629 20.3751 11.8531 20.6289 11.6326 20.8752C11.5073 21.0145 11.3813 21.1529 11.2519 21.289C11.1607 21.3851 11.0678 21.4806 10.9725 21.5735C10.5935 21.9441 10.1963 22.2941 9.76926 22.6099C9.69796 22.6621 9.62665 22.7136 9.55367 22.7641C9.31403 22.9308 9.0661 23.0851 8.80821 23.2235C8.62162 23.3248 8.42925 23.4142 8.23438 23.4964C8.23603 23.5054 8.23437 23.5154 8.23851 23.5246C8.26587 23.6001 8.2949 23.6737 8.32642 23.7476C8.3571 23.8214 8.39026 23.8936 8.42509 23.9648C8.49474 24.1076 8.57269 24.2469 8.65727 24.3829L8.65893 24.3845C8.66474 24.3927 8.6747 24.4003 8.68215 24.4077C8.69626 24.4036 8.70951 24.3978 8.72361 24.3952C8.97818 24.353 9.2253 24.2808 9.46825 24.1921C9.94591 24.0172 10.3895 23.775 10.8124 23.4948C11.0421 23.343 11.2635 23.1796 11.4775 23.008C11.752 22.7883 12.0148 22.5553 12.2694 22.3123C12.5605 22.0337 12.8366 21.7418 13.1019 21.4391C13.2073 21.3196 13.3101 21.1985 13.4121 21.0758C13.8964 20.4912 14.34 19.876 14.7513 19.2383C14.3002 19.2466 13.8482 19.2598 13.398 19.2822L13.3988 19.2814Z" fill="#C9C9C9"/>
<path d="M22.2686 12.4911C22.2827 12.4911 22.2984 12.4911 22.2892 12.4688C22.296 12.4688 22.3025 12.4704 22.3101 12.4712C22.3058 12.4712 22.3025 12.4721 22.3001 12.4737C22.2943 12.4779 22.2943 12.487 22.296 12.4978C22.2868 12.4978 22.2778 12.4969 22.2686 12.4961C22.2637 12.4961 22.2577 12.4953 22.2528 12.4945C22.242 12.4936 22.2303 12.492 22.2197 12.4911C22.1947 12.4878 22.169 12.4828 22.145 12.477C22.1874 12.4746 22.2279 12.4895 22.2694 12.492L22.2686 12.4911Z" fill="#E7AA24"/>
<path d="M9.40332 21.0405C9.42156 21.0438 9.43897 21.0462 9.45638 21.0495C9.11059 21.3837 8.74738 21.6973 8.36014 21.9841C8.21916 22.0886 8.07819 22.1931 7.92562 22.2819C7.89741 22.16 7.88498 22.0356 7.87088 21.9113C7.82279 21.5149 7.80455 21.1168 7.80371 20.7188C7.89991 20.742 7.99609 20.7644 8.09312 20.7868C8.37589 20.8515 8.65949 20.9086 8.94391 20.961C9.09732 20.9892 9.25073 21.0156 9.40414 21.0413L9.40332 21.0405Z" fill="#F1ECE2"/>
<path d="M10.9865 19.4717C10.9458 19.4767 10.9044 19.48 10.8629 19.4841C10.4549 20.0032 10.0196 20.4983 9.54691 20.9619C9.51706 20.9916 9.48638 21.0206 9.45654 21.0497C9.47063 21.0521 9.48472 21.0548 9.498 21.0573C9.48389 21.0548 9.47063 21.0521 9.45654 21.0505C9.11075 21.3847 8.74754 21.6981 8.3603 21.9851C8.21932 22.0896 8.07835 22.1941 7.92578 22.2829C7.92744 22.2995 7.92826 22.3168 7.92993 22.3334C7.92993 22.3383 7.92993 22.3424 7.93159 22.3475C7.9349 22.3665 7.93906 22.3856 7.94237 22.4046C7.94484 22.4205 7.94734 22.4353 7.95065 22.4512C7.95812 22.4893 7.96559 22.5283 7.97305 22.5672C8.01699 22.7861 8.06923 23.0025 8.13474 23.2156C8.16459 23.3111 8.18864 23.4089 8.23673 23.4985C8.4316 23.4163 8.624 23.3269 8.81056 23.2256C9.06845 23.0863 9.3164 22.9321 9.55603 22.7662C9.62901 22.7165 9.70032 22.665 9.77164 22.612C10.1987 22.2968 10.5959 21.9462 10.9749 21.5754C11.0702 21.4825 11.1623 21.3872 11.2543 21.291C11.3837 21.155 11.5097 21.0165 11.6349 20.8773C11.8547 20.631 12.0653 20.3772 12.2701 20.1185C12.4782 19.8548 12.6789 19.5861 12.8721 19.3125C12.2436 19.3506 11.6158 19.4037 10.989 19.4734L10.9865 19.4717Z" fill="#7F7F7F"/>
<path d="M9.49752 21.0536C9.48342 21.0512 9.47015 21.0485 9.45605 21.0469C9.47015 21.0495 9.48426 21.052 9.49752 21.0536Z" fill="#F1ECE2"/>
<path d="M9.4564 21.0442C9.43899 21.0417 9.42075 21.0384 9.40332 21.0352L9.4564 21.0433V21.0442Z" fill="#FF1100"/>
<path d="M8.94287 20.9609C9.09628 20.989 9.24969 21.0156 9.4031 21.0413C9.24969 21.0156 9.09546 20.989 8.94287 20.9609Z" fill="#FF1100"/>
<path d="M10.5931 19.5225C10.6818 19.5035 10.7722 19.4935 10.8626 19.4844C10.4546 20.0035 10.0193 20.4985 9.54661 20.9622C9.51674 20.992 9.48606 21.0209 9.45622 21.0499L9.40314 21.0417C9.24975 21.016 9.09634 20.9894 8.94293 20.9613C8.65851 20.909 8.37407 20.8517 8.09215 20.7871C7.99595 20.7647 7.89893 20.7423 7.80273 20.7191C7.80273 20.569 7.80439 20.4181 7.80854 20.2672C7.81102 20.1776 7.81517 20.0889 7.82014 20.0002C8.1477 19.9222 8.47774 19.8534 8.80859 19.7904C9.37411 19.6834 9.94298 19.5963 10.5135 19.5258C10.5226 19.525 10.5317 19.5234 10.5408 19.5225C10.5516 19.5209 10.5624 19.52 10.5732 19.5209C10.5798 19.5209 10.5865 19.5225 10.5931 19.5242V19.5225Z" fill="#C9C9C9"/>
<path d="M20.6807 12.2734C21.0107 12.3141 21.3415 12.3539 21.6716 12.3945C21.6699 12.3978 21.6675 12.4011 21.6642 12.4044C21.4593 12.3796 21.2537 12.3555 21.0488 12.329C20.9891 12.3215 20.9294 12.3166 20.8697 12.3099C20.81 12.3033 20.7503 12.2967 20.6914 12.2851C20.6881 12.2809 20.6848 12.2776 20.6807 12.2743V12.2734Z" fill="#007FFF"/>
<path d="M19.0635 13.2972C19.0759 13.2508 19.0875 13.2027 19.1 13.1562C19.0883 13.2035 19.0759 13.2508 19.0635 13.2972Z" fill="#F1ECE2"/>
<path d="M28.5504 19.9314C28.5504 19.4769 28.5504 19.0233 28.5504 18.5689C28.5214 18.4421 28.4817 18.3185 28.4111 18.2074C28.2976 18.0283 28.1624 17.8682 27.9932 17.7372C27.8165 17.6004 27.6359 17.4719 27.441 17.3624C27.173 17.2123 26.8944 17.0854 26.615 16.9602C26.5653 16.9378 26.5137 16.9271 26.464 16.9072C25.8322 16.66 25.1822 16.4743 24.5237 16.3143C24.1024 16.2114 23.6779 16.1235 23.2517 16.0439C22.7732 15.9544 22.2921 15.8772 21.8104 15.8109C21.4778 15.7653 21.1454 15.7238 20.8121 15.6865C20.6636 15.6699 20.5152 15.6542 20.3667 15.6393C19.9472 15.5986 19.5267 15.5605 19.1063 15.5306C18.8584 15.5124 18.6096 15.4966 18.3617 15.4825C18.151 15.4709 17.9396 15.4602 17.7281 15.4502C17.3956 15.4353 17.0639 15.4237 16.7314 15.4162C16.7074 15.4162 16.6833 15.4145 16.6593 15.4145C16.1344 15.4029 15.6086 15.3996 15.0837 15.4046C15.0754 15.4046 15.0672 15.4046 15.058 15.4046C14.5174 15.4096 13.9767 15.422 13.4369 15.4444C13.4045 15.4452 13.3722 15.4477 13.3399 15.4485C12.7005 15.4759 12.0629 15.5157 11.4252 15.5696C10.489 15.6484 9.55609 15.7554 8.62819 15.9013C8.60581 15.9046 8.58425 15.9088 8.56185 15.9121C8.5262 16.0381 8.49386 16.1658 8.44909 16.2894C8.41757 16.4154 8.38605 16.5415 8.35371 16.6667C8.26831 17.0009 8.1912 17.3367 8.12402 17.675C8.17129 17.6667 8.21854 17.6593 8.26581 17.651C8.32802 17.6402 8.3902 17.6302 8.45156 17.6195C8.54361 17.6045 8.63565 17.5896 8.7277 17.5747C9.06023 17.5233 9.39437 17.4768 9.72774 17.4346C10.0619 17.3923 10.3961 17.3549 10.7311 17.3218C10.9542 17.2994 11.1781 17.2786 11.4019 17.2596C11.7403 17.2314 12.0794 17.2073 12.4186 17.1858C12.7378 17.1659 13.0571 17.1501 13.3763 17.1369C13.4584 17.1335 13.5405 17.1294 13.6226 17.1261C13.7445 17.1211 13.8673 17.1178 13.9891 17.1136C14.0679 17.1111 14.1467 17.1095 14.2263 17.1078C14.514 17.1004 14.8018 17.0962 15.0895 17.0937C15.1982 17.0937 15.306 17.0921 15.4146 17.0921C15.6003 17.0921 15.7861 17.0921 15.971 17.0937C16.0382 17.0937 16.1053 17.0946 16.1725 17.0962C16.2446 17.0971 16.3168 17.0979 16.3889 17.0987C16.5855 17.102 16.7812 17.107 16.9777 17.1128C17.1742 17.1186 17.3699 17.1261 17.5664 17.1335C17.5988 17.1344 17.6311 17.1369 17.6635 17.1377C17.8741 17.1468 18.0847 17.1576 18.2945 17.1684C18.4562 17.1775 18.6179 17.1874 18.7796 17.1974C19.0217 17.2131 19.2647 17.2306 19.5068 17.2505C19.7299 17.2687 19.953 17.2894 20.1769 17.3118C20.1843 17.3118 20.1926 17.3135 20.2001 17.3143C20.3601 17.3301 20.5202 17.3458 20.6802 17.3624C20.9364 17.3881 21.1927 17.4188 21.449 17.4528C21.7043 17.4868 21.9597 17.5233 22.215 17.5614C22.3212 17.5772 22.4273 17.5937 22.5327 17.6103C22.8503 17.6618 23.167 17.7181 23.4822 17.7803C23.6679 17.8168 23.8528 17.855 24.0377 17.8948C24.2226 17.9346 24.4067 17.9777 24.5908 18.0225C24.8702 18.0913 25.148 18.1651 25.4225 18.2455C25.789 18.3533 26.1523 18.4744 26.508 18.6162C26.5976 18.651 26.6856 18.6883 26.7741 18.7257C26.9085 18.7837 27.0404 18.8475 27.1714 18.9122C27.2037 18.928 27.236 18.9437 27.2685 18.9603C27.2933 18.9728 27.319 18.9852 27.344 18.9976C27.3771 19.0142 27.4103 19.0308 27.4426 19.049C27.4841 19.0714 27.5246 19.0955 27.5629 19.122C27.7103 19.224 27.8621 19.3202 27.999 19.4363C28.0305 19.4637 28.0611 19.491 28.091 19.5201C28.1268 19.5499 28.1607 19.5822 28.1931 19.6146C28.2469 19.6685 28.2968 19.7265 28.3405 19.7871C28.3622 19.8169 28.3821 19.8476 28.4011 19.8791C28.4177 19.9065 28.4326 19.9338 28.4467 19.962C28.4608 19.9902 28.4741 20.0192 28.4858 20.0499C28.4982 20.0798 28.5089 20.1105 28.5189 20.1412C28.5254 20.1627 28.533 20.1851 28.5396 20.2067C28.5396 20.2067 28.5396 20.2083 28.5404 20.2091V20.2067C28.558 20.1146 28.5471 20.0217 28.548 19.9289L28.5504 19.9314Z" fill="#F1ECE2"/>
<path d="M28.5555 18.3905C28.5565 18.0464 28.5565 17.7031 28.5555 17.359C28.5555 17.2006 28.5539 17.0414 28.5531 16.883C28.5259 16.7934 28.5066 16.7014 28.4661 16.616C28.3624 16.4012 28.2074 16.2287 28.0282 16.0745C27.8325 15.9053 27.616 15.7652 27.3888 15.6416C27.0597 15.4608 26.7181 15.3066 26.3657 15.1764C25.9576 15.0255 25.5438 14.892 25.1243 14.7776C24.8033 14.6905 24.4808 14.6101 24.1574 14.5363C23.7884 14.4525 23.4178 14.3787 23.0455 14.3132C22.6589 14.246 22.2709 14.1814 21.882 14.1275C21.6979 14.1017 21.513 14.0777 21.3281 14.0545C20.9151 14.0014 20.5013 13.955 20.0867 13.9185C20.0096 13.911 19.9333 13.9002 19.8562 13.8944C19.5427 13.8704 19.2293 13.8472 18.9166 13.8248C18.8719 13.8215 18.8271 13.8181 18.7823 13.8148C18.5734 13.7999 18.3644 13.785 18.1554 13.7742C17.8834 13.7609 17.6114 13.751 17.3395 13.741C17.337 13.741 17.3345 13.741 17.332 13.741C17.0476 13.7311 16.764 13.7203 16.4795 13.7153C16.2291 13.7112 15.9787 13.7087 15.7274 13.7079C15.6171 13.7079 15.5069 13.707 15.3957 13.707C14.9563 13.707 14.5176 13.7137 14.0789 13.7261C14.0723 13.7261 14.0665 13.7261 14.0599 13.7261C13.5449 13.741 13.0291 13.7618 12.515 13.7949C12.1195 13.8198 11.7239 13.8422 11.3292 13.8754C11.1692 13.8886 11.0099 13.9085 10.8507 13.9243C10.2943 13.9799 9.73957 14.0445 9.18646 14.1225C9.17983 14.1233 9.17402 14.1241 9.1674 14.125C8.94598 14.698 8.74697 15.2784 8.57201 15.868C8.56785 15.8829 8.56372 15.897 8.55957 15.9119C8.58113 15.9086 8.60351 15.9045 8.6259 15.9012C9.55382 15.7552 10.4867 15.6474 11.4229 15.5695C12.0606 15.5164 12.6983 15.4758 13.3376 15.4484C13.3699 15.4468 13.4023 15.4451 13.4346 15.4443C13.9744 15.4219 14.5151 15.4094 15.0557 15.4045C15.0641 15.4045 15.0732 15.4045 15.0815 15.4045C15.6072 15.4003 16.1321 15.4036 16.657 15.4144C16.681 15.4144 16.7051 15.4161 16.7291 15.4161C17.0617 15.4235 17.3934 15.4351 17.7259 15.4501C17.9373 15.46 18.148 15.4708 18.3594 15.4824C18.6074 15.4965 18.8561 15.5123 19.1041 15.5305C19.5245 15.5612 19.9449 15.5985 20.3645 15.6391C20.5129 15.6541 20.6614 15.6698 20.8098 15.6864C21.1431 15.7237 21.4756 15.7652 21.8082 15.8108C22.2899 15.8771 22.771 15.9542 23.2494 16.0438C23.6757 16.1234 24.1001 16.2113 24.5215 16.3141C25.1799 16.4742 25.83 16.6599 26.4618 16.907C26.5115 16.9269 26.563 16.9377 26.6128 16.9601C26.8922 17.0861 27.1708 17.2122 27.4387 17.3623C27.6334 17.4717 27.8143 17.6003 27.991 17.7371C28.1601 17.8681 28.2953 18.0281 28.4089 18.2073C28.4792 18.3184 28.5183 18.4419 28.5482 18.5688C28.5598 18.5091 28.5531 18.4486 28.5531 18.3889L28.5555 18.3905Z" fill="#C9C9C9"/>
<path d="M18.8061 5.38668C19.035 5.74408 19.2008 6.13051 19.326 6.53516C19.365 6.66038 19.3998 6.78642 19.4314 6.9133C19.4836 7.12474 19.5242 7.33951 19.5566 7.55512C19.5657 7.61814 19.5748 7.68116 19.5831 7.745C19.5989 7.87188 19.613 7.99876 19.6246 8.12562C19.6295 8.18948 19.6345 8.2525 19.6395 8.31634C19.6627 8.66296 19.6727 9.00956 19.6635 9.35703C19.6536 9.72022 19.632 10.0834 19.5955 10.4458C19.5591 10.8057 19.5093 11.1639 19.4496 11.5196C19.4139 11.7336 19.3741 11.9467 19.331 12.1582C18.9877 12.1308 18.6444 12.1076 18.3003 12.091C18.1353 12.0835 17.9694 12.0744 17.8036 12.0661C17.9155 11.5852 18.01 11.1009 18.0838 10.6116C18.1651 10.0702 18.2232 9.527 18.2447 8.98054C18.2621 8.5162 18.2597 8.051 18.2223 7.58662C18.1908 7.19938 18.1386 6.81626 18.0557 6.43649C17.962 6.00944 17.8301 5.59482 17.6411 5.19927C17.5664 5.04255 17.4785 4.89245 17.3906 4.7432C17.4628 4.71998 17.5382 4.71749 17.612 4.71004C17.651 4.70589 17.69 4.70257 17.7281 4.70008C17.7613 4.69842 17.7945 4.69676 17.8276 4.69593C17.8815 4.69511 17.9354 4.69511 17.9893 4.69593C18.0266 4.69676 18.0648 4.69842 18.1021 4.70008C18.1311 4.70174 18.1601 4.70339 18.1892 4.70589C18.1941 4.70589 18.1991 4.70671 18.2033 4.70754C18.2124 4.7092 18.2207 4.7117 18.229 4.71501C18.2373 4.71832 18.2447 4.72248 18.2522 4.72745C18.263 4.73407 18.2738 4.7432 18.2837 4.75232C18.3094 4.77554 18.3343 4.79959 18.3583 4.82362C18.4073 4.87173 18.4545 4.92232 18.4993 4.97372C18.6129 5.10226 18.7149 5.23908 18.8086 5.38502L18.8061 5.38668Z" fill="#F1ECE2"/>
<path d="M18.0537 6.44104C18.1366 6.82 18.1888 7.20393 18.2204 7.59118C18.2585 8.05556 18.261 8.52076 18.2427 8.98513C18.222 9.5316 18.164 10.0747 18.0819 10.6162C18.0081 11.1055 17.9135 11.5906 17.8016 12.0707C17.6764 12.0649 17.5503 12.0583 17.4251 12.0533C17.1382 12.0425 16.8521 12.0359 16.5652 12.0301C16.4582 12.0276 16.3513 12.0259 16.2451 12.0243C16.3496 11.6304 16.4416 11.2332 16.5204 10.8335C16.5801 10.5341 16.6315 10.2331 16.6772 9.93128C16.707 9.72896 16.7335 9.52663 16.7567 9.32347C16.7808 9.11118 16.7999 8.89806 16.8131 8.68411C16.8272 8.45608 16.8364 8.22721 16.8413 7.99916C16.8471 7.69318 16.8372 7.38802 16.8148 7.08286C16.7999 6.88136 16.7808 6.68068 16.7551 6.48003C16.7203 6.20555 16.6705 5.93438 16.605 5.66571C16.5528 5.45094 16.4931 5.237 16.4135 5.0297C16.4682 4.99486 16.5312 4.97746 16.5917 4.95506C16.7145 4.90946 16.838 4.86966 16.9641 4.83483C17.0901 4.80083 17.217 4.77181 17.3463 4.75025C17.3555 4.74859 17.3638 4.74609 17.3729 4.74609C17.3787 4.74609 17.3837 4.74609 17.3886 4.74775C17.4765 4.89703 17.5644 5.04628 17.6391 5.20383C17.8281 5.59938 17.96 6.01399 18.0537 6.44104Z" fill="#C9C9C9"/>
<path d="M21.659 5.73904C21.659 5.73904 21.6553 5.73618 21.6553 5.73427C21.6553 5.73331 21.6553 5.73237 21.6553 5.73047L21.66 5.73331L21.6581 5.73808L21.659 5.73904Z" fill="#3180F4"/>
<path d="M28.5486 21.8445C28.5494 21.823 28.551 21.8013 28.551 21.7799C28.551 21.425 28.5518 21.0693 28.5518 20.7143C28.5518 20.5609 28.5494 20.4075 28.5486 20.2541C28.5486 20.245 28.5526 20.235 28.5518 20.2259C28.5494 20.2201 28.5461 20.2159 28.5436 20.211C28.5436 20.211 28.5436 20.2118 28.5436 20.2126C28.5436 20.2118 28.5436 20.211 28.5428 20.2101C28.5361 20.1877 28.5287 20.1662 28.522 20.1438C28.5121 20.1123 28.5005 20.0816 28.4888 20.0526C28.4772 20.0227 28.4639 19.9937 28.45 19.9647C28.4358 19.9365 28.4201 19.9083 28.4044 19.8817C28.3851 19.8502 28.3653 19.8196 28.3438 19.7897C28.2998 19.7283 28.2509 19.6711 28.1961 19.6172C28.1638 19.5849 28.1299 19.5534 28.0941 19.5227C28.0642 19.4928 28.0335 19.4655 28.002 19.4389C27.8652 19.3228 27.7136 19.2267 27.5659 19.1247C27.5269 19.0981 27.4864 19.0741 27.4456 19.0517C27.4133 19.0343 27.3802 19.0169 27.3471 19.0003C27.3221 18.9878 27.2963 18.9754 27.2716 18.963C27.2393 18.9464 27.2069 18.9306 27.1744 18.9149C27.0435 18.8502 26.9116 18.7863 26.7774 18.7283C26.6886 18.691 26.6007 18.6537 26.5111 18.6188C26.1546 18.4779 25.7921 18.356 25.4258 18.2482C25.1504 18.1669 24.8727 18.0931 24.5939 18.0251C24.4098 17.9803 24.2257 17.9372 24.0408 17.8974C23.8559 17.8576 23.671 17.8195 23.4852 17.783C23.1694 17.7208 22.8526 17.6636 22.5357 17.613C22.4296 17.5964 22.3244 17.5798 22.2183 17.5641C21.9628 17.5259 21.7081 17.4894 21.4521 17.4554C21.1966 17.4214 20.9404 17.3908 20.6833 17.365C20.5233 17.3493 20.3632 17.3327 20.2032 17.317C20.1957 17.317 20.1874 17.3153 20.18 17.3145C19.9569 17.2921 19.7338 17.2713 19.5099 17.2531C19.2678 17.2332 19.0248 17.2166 18.7827 17.2C18.621 17.1892 18.4593 17.1793 18.2976 17.171C18.087 17.1594 17.8764 17.1486 17.6666 17.1403C17.6342 17.1387 17.6019 17.137 17.5695 17.1362C17.373 17.1279 17.1773 17.1212 16.9808 17.1154C16.7843 17.1096 16.5886 17.1047 16.392 17.1013C16.3199 17.1005 16.2477 17.0997 16.1756 17.0988C16.1084 17.098 16.0413 17.0972 15.9741 17.0964C15.7884 17.0947 15.6026 17.0939 15.4177 17.0947C15.3091 17.0947 15.2004 17.0955 15.0926 17.0964C14.8049 17.0988 14.5171 17.103 14.2294 17.1105C14.1506 17.1121 14.0718 17.1146 13.9922 17.1163C13.8704 17.1196 13.7476 17.1237 13.6257 17.1287C13.5436 17.132 13.4615 17.1362 13.3794 17.1395C13.0602 17.1528 12.7409 17.1693 12.4217 17.1884C12.0825 17.21 11.7434 17.2332 11.405 17.2622C11.1812 17.2813 10.9573 17.302 10.7342 17.3244C10.3992 17.3576 10.065 17.3949 9.73082 17.4372C9.39666 17.4795 9.06331 17.5259 8.73078 17.5773C8.63873 17.5914 8.54669 17.6063 8.45466 17.6221C8.39246 17.6321 8.3311 17.6428 8.26892 17.6536C8.22164 17.6619 8.17437 17.6694 8.12712 17.6777C8.19428 17.3393 8.27139 17.0035 8.35681 16.6693C8.38915 16.5433 8.42065 16.4181 8.45217 16.292C8.49694 16.1685 8.52928 16.0408 8.56493 15.9147C8.56909 15.8998 8.57324 15.8857 8.57737 15.8708C8.75234 15.2812 8.95136 14.6999 9.17278 14.1277C9.31292 13.7645 9.46215 13.4046 9.62055 13.0481C9.72669 12.8092 9.83698 12.5713 9.95059 12.3366C10.3262 11.5596 10.7433 10.8042 11.206 10.0736C11.6381 9.38867 12.1082 8.73193 12.6232 8.10668C12.634 8.09424 12.6423 8.07933 12.6522 8.06606C12.8073 7.88859 12.9599 7.70949 13.1182 7.53452C13.634 6.96319 14.1896 6.43413 14.8049 5.97059C14.9566 5.85615 15.1134 5.74835 15.2684 5.63806C15.2825 5.62812 15.2999 5.62646 15.3165 5.62562C15.324 5.60325 15.3447 5.59329 15.3621 5.58251C15.6797 5.37935 16.0098 5.19857 16.3572 5.05263C16.3697 5.04766 16.3813 5.04101 16.3945 5.03688C16.3978 5.03604 16.402 5.03522 16.4061 5.03439C16.4103 5.03439 16.4144 5.03273 16.4186 5.03273C16.4733 4.9979 16.5363 4.98049 16.5969 4.95809C16.7196 4.9125 16.8431 4.87269 16.9692 4.83786C17.0952 4.80386 17.2221 4.77484 17.3514 4.75328C17.3606 4.75162 17.3689 4.74913 17.378 4.74913C17.3838 4.74913 17.3888 4.74913 17.3937 4.75078C17.4659 4.72757 17.5414 4.72509 17.6151 4.71763C17.6541 4.71347 17.6931 4.71016 17.7312 4.70767C17.7644 4.70601 17.7976 4.70435 17.8307 4.70353C17.8846 4.7027 17.9386 4.7027 17.9925 4.70353C18.0298 4.70435 18.0679 4.70601 18.1052 4.70767C18.1342 4.70932 18.1633 4.711 18.1923 4.71347C18.1973 4.71347 18.2022 4.71431 18.2064 4.71513C18.2155 4.71679 18.2238 4.71928 18.2321 4.7226C18.2404 4.72591 18.2478 4.73006 18.2553 4.73503C18.2661 4.74168 18.2769 4.75078 18.2868 4.75991C18.3125 4.78314 18.3374 4.80718 18.3615 4.83123C18.4104 4.87932 18.4577 4.9299 18.5024 4.98133C18.616 5.10984 18.718 5.24666 18.8117 5.39263C19.0406 5.75001 19.2064 6.13644 19.3317 6.54111C19.3706 6.66631 19.4055 6.79235 19.437 6.91923C19.4892 7.13069 19.5298 7.34546 19.5622 7.56105C19.5713 7.62407 19.5804 7.6871 19.5887 7.75095C19.6045 7.87781 19.6186 8.00469 19.6302 8.13157C19.6352 8.19541 19.6401 8.25843 19.6451 8.32229C19.6683 8.66891 19.6783 9.01552 19.6692 9.36298C19.6592 9.72617 19.6376 10.0894 19.6012 10.4518C19.5647 10.8116 19.5149 11.1699 19.4552 11.5256C19.4195 11.7395 19.3797 11.9526 19.3366 12.1641C19.3922 12.1683 19.4478 12.1724 19.5033 12.1774C19.9022 12.2105 20.3002 12.2503 20.6982 12.2868C20.6949 12.2827 20.6916 12.2794 20.6874 12.2761C21.0175 12.3167 21.3483 12.3565 21.6783 12.3971C21.6766 12.4004 21.6742 12.4037 21.6709 12.4071C21.6908 12.4096 21.7108 12.4129 21.7306 12.4154C21.7969 12.0886 21.8566 11.7619 21.9072 11.4327C21.952 11.1375 21.9918 10.8415 22.0225 10.5446C22.0516 10.2668 22.0771 9.98903 22.0904 9.70958C22.0972 9.57525 22.1046 9.44009 22.1129 9.30574C22.1138 9.28834 22.1046 9.26512 22.132 9.25766C22.132 9.00723 22.1303 8.75597 22.1295 8.50554C22.1162 8.49973 22.1154 8.48814 22.1138 8.4757C22.1105 8.42512 22.1046 8.37535 22.1029 8.32477C22.0929 7.96074 22.0598 7.5992 22.0109 7.2393C21.9571 6.84046 21.8773 6.44741 21.7671 6.06014C21.7396 5.96312 21.7165 5.86527 21.6734 5.77322L21.6644 5.74007C21.6644 5.74007 21.6609 5.73757 21.6609 5.73592C21.6609 5.7351 21.6609 5.73426 21.6609 5.7326C21.6584 5.72098 21.6568 5.70939 21.6527 5.69777C21.4926 5.23588 21.2837 4.79805 20.9959 4.40003C20.719 4.0161 20.3848 3.69519 19.9727 3.45636C19.8184 3.36681 19.6509 3.30379 19.4925 3.22336C19.4784 3.21589 19.4602 3.21755 19.4436 3.21424C19.4295 3.19599 19.4071 3.191 19.388 3.1819C19.0141 3.01605 18.6409 2.85019 18.2661 2.68602C18.218 2.66444 18.174 2.63294 18.1202 2.62631C18.111 2.62298 18.1019 2.6205 18.0928 2.61719C18.0289 2.59645 17.9634 2.58152 17.9021 2.55251C17.8963 2.55084 17.8913 2.54918 17.8855 2.5467C17.883 2.54587 17.8797 2.54505 17.8772 2.54421C17.8772 2.54421 17.8764 2.54421 17.8755 2.54421C17.8689 2.54836 17.8648 2.54505 17.8606 2.53924C17.7404 2.50856 17.6201 2.48534 17.4982 2.46875C17.4103 2.45632 17.3224 2.44719 17.2337 2.44222C17.2038 2.44057 17.1748 2.43973 17.145 2.43891C17.0562 2.43641 16.9684 2.43723 16.8804 2.44138C16.7635 2.44635 16.6474 2.45713 16.5313 2.4729C16.329 2.50109 16.1283 2.54339 15.9293 2.59811C15.9011 2.60641 15.8721 2.61388 15.8439 2.62298C15.4699 2.73411 15.1134 2.8842 14.7692 3.06165C14.6548 3.12054 14.5412 3.18272 14.4284 3.24823C14.3256 3.3071 14.2244 3.36765 14.1241 3.43149C14.0909 3.45223 14.0578 3.47379 14.0246 3.49534C13.9914 3.5169 13.9582 3.53846 13.9259 3.56084C13.8604 3.6048 13.7957 3.64957 13.7319 3.696C13.7004 3.71924 13.668 3.74246 13.6365 3.76567C13.6365 3.76815 13.6365 3.7698 13.6365 3.7723C13.6365 3.77396 13.6348 3.77561 13.634 3.77727C13.6315 3.77977 13.6282 3.7806 13.6232 3.7806H13.6224C13.6224 3.7806 13.6224 3.78392 13.6224 3.78474C13.6224 3.78805 13.6207 3.78971 13.6191 3.79054C13.6174 3.79138 13.6158 3.79138 13.6125 3.79054C13.6116 3.79054 13.61 3.79054 13.6091 3.78889C13.4682 3.88756 13.3314 3.99039 13.1978 4.09736C13.1381 4.14463 13.0793 4.19354 13.0212 4.24247C13.0121 4.24993 13.003 4.25824 12.9939 4.26568C12.9341 4.31627 12.8744 4.36769 12.8156 4.41993C12.8156 4.42159 12.8156 4.42243 12.8156 4.42408C12.8156 4.42822 12.8139 4.43071 12.8114 4.43321C12.8114 4.43321 12.8098 4.43402 12.8089 4.43486C12.8073 4.43568 12.8048 4.43652 12.8023 4.43652C12.8006 4.43983 12.7981 4.44315 12.7957 4.44564C12.7924 4.44896 12.7899 4.45227 12.7857 4.45477C12.7807 4.45808 12.7749 4.46139 12.7683 4.46221C12.7683 4.46968 12.7666 4.47383 12.7633 4.47549C12.7583 4.4788 12.7492 4.47632 12.7426 4.47714C12.7202 4.50036 12.697 4.52357 12.6746 4.54597C12.6729 4.54763 12.6721 4.54929 12.6704 4.55012C12.6704 4.55094 12.6704 4.5526 12.6704 4.55344C12.6704 4.55675 12.6688 4.55841 12.6671 4.5609H12.6663C12.6663 4.5609 12.6613 4.56338 12.6564 4.56338C12.6365 4.57997 12.6149 4.5949 12.5958 4.61231C12.5942 4.61396 12.5925 4.6148 12.5908 4.61646C12.5179 4.68529 12.4441 4.75412 12.3719 4.8246C12.3669 4.82957 12.362 4.83371 12.3578 4.83786C12.3354 4.86026 12.3122 4.88098 12.289 4.90254C12.231 4.95643 12.1713 5.00867 12.1157 5.06507C12.0858 5.09575 12.0552 5.12643 12.0253 5.15629C11.8528 5.33126 11.682 5.50789 11.517 5.6903C11.3064 5.92332 11.1015 6.16049 10.9025 6.40261C10.8743 6.43744 10.8453 6.47144 10.8171 6.50627C10.813 6.51124 10.808 6.51705 10.8047 6.52286C10.7989 6.53115 10.7931 6.53945 10.7873 6.54855C10.7798 6.56017 10.7723 6.57179 10.7649 6.58257C10.7591 6.59085 10.7533 6.59832 10.7466 6.6066C10.7441 6.6091 10.7425 6.61157 10.7408 6.61325C10.7317 6.62319 10.7226 6.63232 10.7118 6.63978C10.7118 6.64226 10.711 6.6431 10.7101 6.64475C10.7101 6.64641 10.7101 6.64807 10.7085 6.64972C10.7085 6.65056 10.7068 6.65138 10.706 6.65222C10.7043 6.65306 10.7019 6.65387 10.7002 6.65471C10.6952 6.67793 10.6761 6.68953 10.6604 6.70446C10.6596 6.70446 10.6587 6.70612 10.6579 6.70695C10.6529 6.71109 10.6496 6.71608 10.6463 6.72105C10.6446 6.72352 10.643 6.72602 10.6422 6.72933C10.6413 6.73265 10.6397 6.73514 10.6388 6.73845C10.6388 6.74011 10.6388 6.74095 10.6388 6.74261C10.6388 6.74676 10.6372 6.74923 10.6339 6.75173C10.6339 6.75173 10.6322 6.75173 10.6322 6.75255C10.6314 6.75255 10.6297 6.75255 10.6289 6.75255C10.6281 6.75255 10.6272 6.75255 10.6256 6.75255C10.5891 6.79816 10.5518 6.84377 10.5153 6.88937C10.5136 6.89186 10.5111 6.89436 10.5095 6.89683C10.5103 6.90264 10.5103 6.90761 10.5095 6.9126C10.5095 6.91674 10.507 6.91923 10.5053 6.92254C10.5053 6.92338 10.5037 6.92504 10.5037 6.92586C10.5012 6.92835 10.4979 6.93167 10.4946 6.93332C10.4904 6.93582 10.4854 6.93748 10.4805 6.93913C10.4747 6.94576 10.4688 6.95157 10.463 6.9582C10.4606 6.96069 10.4589 6.96319 10.4572 6.96484C10.4523 6.96982 10.4481 6.97562 10.444 6.98059C10.3503 7.10664 10.2566 7.23352 10.1629 7.35956C10.1629 7.36369 10.1612 7.36618 10.1587 7.36868C10.1587 7.36868 10.1579 7.3695 10.1571 7.37034C10.1554 7.37199 10.1529 7.37281 10.1504 7.37281C10.0857 7.46404 10.0194 7.55443 9.95556 7.64647C9.94312 7.6647 9.93068 7.68294 9.91823 7.70119C9.82287 7.84134 9.73332 7.98563 9.63712 8.12492C9.58903 8.19459 9.54342 8.2659 9.49782 8.33638C9.45137 8.40687 9.40494 8.47736 9.35438 8.54619C9.27393 8.65646 9.2051 8.77671 9.13461 8.89363C9.10393 8.94421 9.07325 8.99479 9.04341 9.04538C8.70259 9.61091 8.37172 10.1822 8.0898 10.7801C8.07321 10.8149 8.05414 10.8473 8.03506 10.8805C8.016 10.9128 7.99609 10.946 7.9795 10.9791C7.88333 11.1723 7.78962 11.3664 7.6984 11.5621C7.6644 11.6351 7.63125 11.708 7.59723 11.7818C7.55329 11.8772 7.51015 11.9734 7.46787 12.0696C7.41398 12.1915 7.36008 12.3142 7.307 12.4377C7.28462 12.4892 7.26304 12.5414 7.24148 12.5936C7.21412 12.6583 7.18677 12.723 7.16022 12.7885C7.0657 13.0182 6.97447 13.2504 6.88576 13.4826C6.86005 13.5506 6.83434 13.6186 6.80946 13.6874C6.74894 13.8532 6.69005 14.0191 6.63118 14.1858C6.61709 14.2256 6.60297 14.2654 6.58888 14.3052C6.5781 14.3359 6.56732 14.3674 6.55738 14.3989C6.53001 14.4777 6.5043 14.5573 6.47943 14.6369C6.44875 14.7339 6.41888 14.8309 6.38904 14.9279C6.36748 14.9976 6.34592 15.0664 6.32355 15.1361C6.27296 15.2911 6.21407 15.4445 6.19417 15.6079C6.19335 15.6162 6.18339 15.6237 6.17842 15.6311C6.15355 15.6991 6.13862 15.7688 6.12203 15.8384C6.11374 15.8716 6.10378 15.9048 6.09384 15.9379C6.08388 15.9711 6.07394 16.0043 6.06482 16.0374C6.02667 16.1801 5.98936 16.3235 5.95452 16.467C5.92219 16.5963 5.8915 16.7274 5.86166 16.8575C5.82848 17.0043 5.79696 17.1511 5.76628 17.2979C5.73975 17.4264 5.71406 17.5558 5.69001 17.6851C5.67094 17.7879 5.65186 17.8899 5.63445 17.9928C5.61868 18.0832 5.60459 18.1735 5.58966 18.2639C5.57141 18.3792 5.554 18.4936 5.53825 18.6089C5.52416 18.7125 5.51089 18.8154 5.49761 18.919C5.4628 19.2034 5.43459 19.4879 5.41221 19.774C5.4064 19.856 5.4006 19.9373 5.39646 20.0194C5.39147 20.1015 5.38734 20.1828 5.38401 20.2649C5.37738 20.4282 5.37241 20.5924 5.36744 20.7558C5.3666 20.7931 5.3666 20.8304 5.36578 20.8678C5.36578 20.8793 5.36578 20.8901 5.36578 20.9018C5.36494 21.1114 5.37323 21.3205 5.37987 21.5287C5.37987 21.5377 5.38153 21.5477 5.38153 21.5567C5.38319 21.5941 5.38484 21.6314 5.38734 21.6688C5.39479 21.8198 5.40724 21.9705 5.42299 22.1215C5.43377 22.2235 5.44537 22.3264 5.45864 22.4283C5.4603 22.4432 5.4628 22.4573 5.46445 22.4723C5.49266 22.6797 5.525 22.8861 5.56562 23.0908C5.64108 23.4739 5.74143 23.8505 5.87907 24.2162C5.88156 24.2219 5.88404 24.2285 5.88653 24.2352C5.98936 24.5054 6.10875 24.7685 6.25553 25.0188C6.49684 25.431 6.79122 25.7959 7.16687 26.0868C7.21164 26.1218 7.25725 26.1549 7.30369 26.188C7.34846 26.2187 7.39657 26.2469 7.443 26.2752C7.45129 26.2809 7.46125 26.285 7.47037 26.2893C7.477 26.2925 7.48362 26.295 7.49025 26.2983C7.50187 26.3042 7.51265 26.3116 7.52012 26.3224C7.52259 26.3257 7.52509 26.3306 7.52758 26.3357V26.3341C7.54002 26.3322 7.5508 26.3349 7.55661 26.3482H7.55742C7.56904 26.3482 7.57982 26.3515 7.58563 26.3621C7.58894 26.3621 7.59142 26.3621 7.59392 26.3629H7.59475C7.60222 26.3648 7.60885 26.368 7.61382 26.3754C7.61382 26.3754 7.61382 26.3754 7.61382 26.3762C7.61382 26.3762 7.61547 26.3762 7.61629 26.3762C7.61797 26.3762 7.61963 26.3762 7.62128 26.3762C7.62294 26.3762 7.62376 26.377 7.62625 26.377C7.62707 26.377 7.62875 26.377 7.62957 26.3778C7.63125 26.3778 7.63288 26.3797 7.63454 26.3805C7.63454 26.3805 7.63619 26.3805 7.63703 26.3813C7.63869 26.383 7.64035 26.3846 7.642 26.3862C7.642 26.3862 7.642 26.3862 7.64284 26.3862C7.65859 26.4028 7.68015 26.4069 7.70005 26.4161C8.11385 26.5994 8.52846 26.7826 8.94226 26.9659C9.14707 27.0563 9.35022 27.1516 9.56663 27.2114C9.78306 27.2711 10.0028 27.3116 10.2275 27.3208C10.2648 27.3208 10.3022 27.3208 10.3395 27.3208C10.4514 27.3208 10.5634 27.3208 10.6753 27.3208C10.7839 27.3175 10.8918 27.3034 10.9987 27.2868C11.4341 27.2212 11.852 27.0927 12.2558 26.9195C12.9955 26.6018 13.663 26.1682 14.2891 25.6664C14.4268 25.5562 14.5611 25.4427 14.6946 25.3273C15.1598 25.3357 15.6242 25.3381 16.0894 25.333C16.5322 25.3281 16.9758 25.3208 17.4186 25.3032C17.4402 25.2909 17.4634 25.2909 17.4866 25.2999C17.4933 25.2999 17.4999 25.2999 17.5065 25.2999C17.533 25.2874 17.5604 25.2882 17.5878 25.2966H17.6077C17.6234 25.2866 17.64 25.285 17.6566 25.2882C17.6566 25.2882 17.6574 25.2882 17.6583 25.2882H17.6591C17.6649 25.2901 17.6699 25.2917 17.6749 25.2933H17.6948C17.7055 25.2866 17.7163 25.2841 17.7271 25.2833C17.7387 25.2833 17.7503 25.2858 17.7627 25.2893C17.7694 25.2893 17.776 25.2893 17.7827 25.2893C17.7901 25.285 17.7976 25.2825 17.805 25.2809C17.82 25.2776 17.8357 25.2792 17.8515 25.285C17.8581 25.285 17.8639 25.285 17.8705 25.285C17.8705 25.285 17.8722 25.285 17.873 25.2841C17.8946 25.2735 17.917 25.2735 17.9386 25.2817C17.9452 25.2817 17.9518 25.2817 17.9576 25.2817C17.98 25.2676 18.0024 25.2692 18.0264 25.2776C18.0331 25.2776 18.0397 25.2776 18.0455 25.2776C18.0679 25.2643 18.0911 25.2659 18.1143 25.2735C18.121 25.2735 18.1276 25.2735 18.1334 25.2735C18.1384 25.27 18.1425 25.2684 18.1467 25.2668C18.1541 25.2643 18.1608 25.2643 18.1682 25.2643C18.1749 25.2643 18.1823 25.2659 18.189 25.2692C18.2901 25.2643 18.3905 25.261 18.4916 25.2551C19.2661 25.2095 20.0382 25.1481 20.8093 25.0628C21.9802 24.9325 23.1436 24.7576 24.293 24.4956C25.0758 24.3173 25.8477 24.1033 26.5941 23.8024C26.9946 23.6406 27.3835 23.4557 27.7435 23.2135C27.9599 23.0677 28.1605 22.9034 28.3213 22.6936C28.4226 22.5602 28.5046 22.4166 28.5361 22.2493C28.5486 22.236 28.5535 22.2203 28.5543 22.2037C28.5619 22.0834 28.5659 21.964 28.5551 21.8437L28.5486 21.8445ZM18.1541 19.3079C17.9386 19.2947 17.7238 19.283 17.5082 19.2739C17.7238 19.2839 17.9386 19.2955 18.1541 19.3079ZM13.372 23.2227C13.3371 23.2534 13.3023 23.2849 13.2675 23.3156C13.0229 23.5304 12.7708 23.7335 12.5079 23.9235C12.2451 24.1125 11.9722 24.2882 11.687 24.4451C11.6463 24.4674 11.6049 24.4897 11.5634 24.5114C11.4681 24.5611 11.3719 24.6083 11.2749 24.6539C11.1778 24.6987 11.0792 24.7403 10.9797 24.7791C10.7806 24.857 10.5766 24.9219 10.366 24.9716C10.2748 24.9931 10.1836 25.0113 10.0924 25.0254C10.06 25.0305 10.0277 25.0354 9.99618 25.0403C9.8718 25.0569 9.74741 25.0669 9.62221 25.0702C9.58075 25.071 9.53845 25.0718 9.49699 25.071C9.45471 25.071 9.41322 25.0694 9.37097 25.0677C9.35272 25.0669 9.33529 25.0645 9.31705 25.0628C9.29964 25.0612 9.2814 25.0587 9.26315 25.0569C9.23993 25.0553 9.22253 25.0454 9.20512 25.0305C9.15535 24.9857 9.10808 24.9393 9.06165 24.8912C8.99282 24.8198 8.92731 24.7452 8.86594 24.6681C8.82532 24.6167 8.78552 24.5635 8.74737 24.5089C8.7283 24.4815 8.71006 24.4541 8.69181 24.4267C8.69016 24.4242 8.68932 24.4218 8.6885 24.4193C8.68766 24.4152 8.686 24.4101 8.68519 24.406C8.67772 24.3987 8.66776 24.3911 8.66197 24.3829L8.66029 24.3811C8.5749 24.2461 8.49778 24.1068 8.42811 23.9632C8.3933 23.891 8.36012 23.8198 8.32944 23.746C8.29792 23.6729 8.26892 23.5983 8.24155 23.5228C8.23823 23.5138 8.23905 23.5046 8.2374 23.4948C8.18931 23.4052 8.16525 23.3072 8.13541 23.2119C8.06905 22.9988 8.01681 22.7823 7.9737 22.5635C7.96623 22.5244 7.95878 22.4864 7.95132 22.4473C7.94798 22.4316 7.94633 22.4166 7.94301 22.4009C7.9397 22.3818 7.93555 22.3628 7.93223 22.3438C7.93223 22.3387 7.93223 22.3346 7.93058 22.3297C7.92892 22.3131 7.9281 22.2957 7.92645 22.279C7.89824 22.1573 7.8858 22.0327 7.87171 21.9083C7.8236 21.5121 7.80537 21.1141 7.80454 20.716C7.80454 20.5659 7.80619 20.4149 7.81035 20.264C7.81282 20.1745 7.81697 20.0857 7.82194 19.997C8.1495 19.9191 8.47954 19.8502 8.81039 19.7872C9.37592 19.6803 9.94478 19.5932 10.5153 19.5227C10.5244 19.5219 10.5335 19.5202 10.5426 19.5194C10.5534 19.5177 10.5642 19.5169 10.575 19.5177C10.5816 19.5177 10.5883 19.5194 10.5949 19.521C10.6836 19.502 10.774 19.492 10.8644 19.4829C10.9059 19.4788 10.9473 19.4746 10.9879 19.4704C11.6148 19.4008 12.2426 19.3477 12.8711 19.3096C13.0478 19.2988 13.2244 19.2889 13.4002 19.2806C13.8513 19.259 14.3024 19.2449 14.7535 19.2366C15.0006 19.2316 15.2477 19.2291 15.4948 19.2291C15.8472 19.2291 16.1997 19.2333 16.5512 19.2416C16.475 19.3685 16.3978 19.4953 16.3191 19.6205C16.2618 19.7126 16.2038 19.8038 16.1449 19.8942C16.0396 20.0559 15.9326 20.2159 15.8232 20.3752C15.6209 20.6687 15.411 20.9564 15.193 21.2384C15.1241 21.328 15.0545 21.4166 14.9832 21.5045C14.9707 21.5203 14.9583 21.536 14.9459 21.551C14.843 21.6786 14.7385 21.804 14.6316 21.9275C14.4533 22.1339 14.27 22.3354 14.0818 22.5328C14.0246 22.5925 13.9674 22.6523 13.9093 22.7112C13.7601 22.8619 13.6058 23.0096 13.4483 23.153C13.4226 23.1763 13.3968 23.2002 13.3712 23.2236L13.372 23.2227ZM14.2112 23.1828C14.3936 23.1888 14.5769 23.1937 14.7593 23.197C14.576 23.1937 14.3936 23.1888 14.2112 23.1828ZM26.2699 21.2409C26.2648 21.2474 26.2566 21.2542 26.2433 21.264C26.2259 21.2773 26.2086 21.2914 26.1901 21.3039C26.1728 21.3172 26.1546 21.3297 26.1363 21.3428C26.1024 21.3669 26.0674 21.3902 26.0318 21.4125C26.0277 21.415 26.0234 21.4174 26.0194 21.4209C25.9903 21.4391 25.9613 21.4573 25.9314 21.4747C25.8876 21.5013 25.8445 21.526 25.7997 21.551C25.4961 21.7201 25.1768 21.8562 24.851 21.9764C24.5434 22.0891 24.2316 22.1879 23.9172 22.2757C23.467 22.4017 23.0109 22.5062 22.5507 22.5974C22.1037 22.687 21.6552 22.7625 21.2049 22.828C20.7546 22.8934 20.3027 22.9482 19.8499 22.9955C19.7015 23.0112 19.5531 23.0253 19.4046 23.0395C19.1069 23.0669 18.8092 23.09 18.5116 23.11C18.3623 23.1198 18.213 23.1291 18.0646 23.1372C17.7304 23.1565 17.3962 23.1706 17.0621 23.1812C17.0015 23.1828 16.941 23.1855 16.8796 23.1871C16.8241 23.1888 16.7685 23.1904 16.7121 23.1921C16.8489 23.0229 16.9858 22.8546 17.111 22.6762C17.1292 22.6539 17.1475 22.6314 17.1649 22.6083C17.4327 22.2475 17.6898 21.8801 17.9369 21.5062C17.9502 21.4855 18.019 21.381 18.0397 21.3487C18.1964 21.1073 18.3482 20.8635 18.4966 20.6165C18.7388 20.2118 18.9701 19.8013 19.1899 19.385C19.6094 19.4215 20.0282 19.4638 20.447 19.5152C20.4776 19.5186 20.5083 19.5252 20.5398 19.5302C20.7272 19.5434 20.913 19.5716 21.0979 19.599C21.3359 19.6338 21.574 19.672 21.811 19.7118C22.1311 19.7657 22.4513 19.8254 22.7687 19.8942C22.9405 19.9315 23.1113 19.9696 23.2829 20.007C23.2846 20.007 23.287 20.007 23.2887 20.0078C23.2903 20.0078 23.2921 20.0078 23.2946 20.0086C23.3052 20.0103 23.3177 20.0103 23.3294 20.0119C23.3443 20.0136 23.3592 20.0177 23.3709 20.0302C23.7374 20.1239 24.103 20.2226 24.4621 20.3411C24.4953 20.3519 24.5333 20.3553 24.5591 20.3834C24.6528 20.4 24.7383 20.439 24.826 20.4713C24.9034 20.4995 24.9805 20.5294 25.0568 20.5601C25.2748 20.6463 25.4888 20.7417 25.696 20.852C25.778 20.895 25.8586 20.9406 25.9381 20.9887C26.0435 21.0527 26.1462 21.1198 26.2425 21.1969C26.2707 21.2192 26.2789 21.2284 26.2681 21.2417L26.2699 21.2409Z" fill="#828282"/>
<path d="M28.5557 15.2656C28.5459 15.0674 28.4704 14.8924 28.3551 14.7332C28.1926 14.5068 27.9828 14.3302 27.7555 14.1743C27.3683 13.909 26.9445 13.7141 26.5109 13.54C26.2695 13.4429 26.0251 13.3567 25.7778 13.2771C25.4014 13.156 25.0191 13.0524 24.6352 12.9578C24.1551 12.8401 23.6724 12.7381 23.1866 12.6494C22.8904 12.5955 22.5936 12.5432 22.296 12.5001C22.2868 12.5001 22.2776 12.4993 22.2686 12.4984C22.2637 12.4984 22.2578 12.4976 22.2528 12.4968C22.242 12.496 22.2303 12.4943 22.2197 12.4935C22.1948 12.4902 22.169 12.4852 22.1451 12.4794C22.0563 12.4653 21.9683 12.4512 21.8798 12.4363C21.8282 12.4288 21.7769 12.4213 21.7255 12.4147C21.7055 12.4114 21.6856 12.4089 21.6658 12.4064C21.4608 12.3815 21.2553 12.3575 21.0504 12.3309C20.9907 12.3235 20.931 12.3185 20.8713 12.3119C20.8116 12.3061 20.7519 12.2986 20.693 12.287C20.295 12.2497 19.897 12.2099 19.4981 12.1775C19.4426 12.1734 19.387 12.1684 19.3314 12.1643C18.9881 12.1369 18.6448 12.1137 18.3007 12.0971C18.1357 12.0896 17.9699 12.0805 17.804 12.0722C17.6788 12.0664 17.5527 12.0598 17.4275 12.0548C17.1406 12.044 16.8545 12.0374 16.5676 12.0316C16.4607 12.0291 16.3537 12.0274 16.2475 12.0258C16.2475 12.0258 16.4441 11.2347 16.5228 10.835C16.5825 10.5357 16.634 10.2346 16.6796 9.93281C16.7094 9.73048 16.736 9.52814 16.7592 9.32499C16.7832 9.11271 16.8023 8.89959 16.8156 8.68566C16.8297 8.45763 16.8388 8.22877 16.8437 8.00072C16.8496 7.69474 16.8396 7.38958 16.8172 7.08442C16.8023 6.88292 16.7832 6.68224 16.7575 6.48158C16.7227 6.2071 16.6729 5.93593 16.6074 5.66726C16.5552 5.45249 16.4955 5.23856 16.4159 5.03125C16.4117 5.03125 16.4076 5.03125 16.4034 5.03291C16.3993 5.03291 16.3951 5.03456 16.3918 5.0354C16.3785 5.03953 16.367 5.04618 16.3545 5.05115C16.0062 5.1971 15.677 5.37869 15.3594 5.58103C15.3412 5.59265 15.3213 5.60177 15.3138 5.62415C15.3901 6.10593 15.4258 6.59019 15.4299 7.07779C15.4366 7.77517 15.3851 8.46841 15.2898 9.15914C15.2176 9.67907 15.1223 10.1949 15.0062 10.7073C14.9058 11.1518 14.7897 11.5921 14.6604 12.0283C14.3478 12.0316 14.0343 12.0415 13.7217 12.0515C13.3054 12.0656 12.8891 12.0847 12.4737 12.1112C12.1072 12.1344 11.7398 12.1585 11.3733 12.19C10.8973 12.2314 10.4222 12.2779 9.9487 12.3359C9.8351 12.5714 9.72481 12.8086 9.61867 13.0474C9.46029 13.404 9.31103 13.7638 9.1709 14.1271C9.17753 14.1262 9.18333 14.1254 9.18996 14.1246C9.74305 14.0466 10.2986 13.9819 10.8542 13.9264C11.0134 13.9106 11.1726 13.8915 11.3327 13.8775C11.7274 13.8443 12.1229 13.8219 12.5185 13.797C13.0326 13.7638 13.5476 13.7431 14.0633 13.7282C14.07 13.7282 14.0758 13.7282 14.0824 13.7282C14.5211 13.7158 14.9597 13.71 15.3992 13.7091C15.5095 13.7091 15.6198 13.7091 15.7309 13.7099C15.9814 13.7108 16.2326 13.7133 16.483 13.7174C16.7675 13.7224 17.0511 13.7332 17.3355 13.7431C17.338 13.7431 17.3405 13.7431 17.343 13.7431C17.6149 13.7531 17.8869 13.763 18.1589 13.7763C18.3679 13.7862 18.5768 13.8012 18.7858 13.8169C18.8306 13.8202 18.8754 13.8236 18.9201 13.8269C19.2336 13.8493 19.5462 13.8725 19.8597 13.8965C19.9368 13.9023 20.0131 13.9131 20.0902 13.9206C20.5048 13.9571 20.9186 14.0035 21.3316 14.0566C21.5165 14.0798 21.7006 14.1047 21.8855 14.1295C22.2743 14.1835 22.6626 14.2481 23.0489 14.3153C23.4212 14.3808 23.7927 14.4546 24.1608 14.5384C24.4851 14.6122 24.8076 14.6926 25.1277 14.7797C25.5483 14.8941 25.9611 15.0276 26.3691 15.1785C26.7216 15.3095 27.0623 15.4638 27.3925 15.6437C27.6195 15.7681 27.8351 15.9074 28.0317 16.0766C28.21 16.23 28.3659 16.4025 28.4696 16.6181C28.5109 16.7035 28.5301 16.7955 28.5565 16.8851C28.5576 16.7068 28.5592 16.5285 28.56 16.3502C28.56 16.0857 28.56 15.8203 28.56 15.5558C28.56 15.4596 28.5633 15.3626 28.5584 15.2673L28.5557 15.2656Z" fill="#7F7F7F"/>
<path d="M18.0882 2.61299C18.0243 2.59227 17.9588 2.57734 17.8975 2.54831C17.8975 2.54003 17.8983 2.53172 17.8991 2.52344C17.9754 2.54665 18.0476 2.57899 18.1147 2.62211C18.1056 2.6188 18.0965 2.6163 18.0874 2.61299H18.0882Z" fill="#404A5A"/>
<path d="M17.8654 2.53609C17.8654 2.53609 17.871 2.53853 17.8726 2.54095C17.8726 2.54095 17.8718 2.54095 17.871 2.54095C17.8645 2.54501 17.8605 2.54177 17.8564 2.53609C17.8597 2.53529 17.8621 2.53447 17.8654 2.53609Z" fill="#404A5A"/>
<path d="M10.1552 7.35938C10.1552 7.35938 10.1536 7.36558 10.1513 7.36789C10.1513 7.36789 10.1505 7.36868 10.1497 7.36944C10.1482 7.37101 10.1459 7.37177 10.1436 7.37177C10.1436 7.37101 10.1436 7.37022 10.1436 7.36944V7.36713C10.1436 7.36713 10.1482 7.36249 10.1505 7.36094C10.1521 7.36094 10.1536 7.35938 10.1552 7.35938Z" fill="#404A5A"/>
<path d="M10.4978 6.92439C10.4978 6.92439 10.492 6.9302 10.4887 6.93186C10.4846 6.93434 10.4804 6.93599 10.4746 6.93765C10.4746 6.93434 10.4746 6.93186 10.4746 6.92936C10.4746 6.92687 10.4746 6.92439 10.4754 6.92274C10.4771 6.91859 10.4788 6.91443 10.4813 6.91112C10.4837 6.90781 10.4879 6.90531 10.4912 6.902C10.4954 6.89952 10.4995 6.89703 10.5036 6.89453C10.5045 6.90034 10.5045 6.90531 10.5036 6.91028C10.5036 6.91443 10.5011 6.91693 10.4995 6.92024C10.4995 6.92108 10.4978 6.92274 10.4978 6.92356V6.92439Z" fill="#404A5A"/>
<path d="M10.6282 6.74895C10.6282 6.74895 10.6266 6.74895 10.6266 6.74977C10.6258 6.74977 10.6242 6.74977 10.6234 6.74977C10.6225 6.74977 10.6217 6.74977 10.6201 6.74977C10.6242 6.74491 10.6282 6.73924 10.6323 6.73438C10.6323 6.736 10.6323 6.73679 10.6323 6.73841C10.6323 6.74247 10.6307 6.74492 10.6274 6.74734L10.6282 6.74895Z" fill="#215CB5"/>
<path d="M10.6953 6.64726C10.6953 6.6432 10.6986 6.63996 10.7018 6.63834C10.7034 6.63834 10.705 6.63752 10.7067 6.63672C10.7067 6.63914 10.7059 6.63996 10.705 6.64158C10.705 6.6432 10.705 6.64482 10.7034 6.64644C10.7034 6.64726 10.7018 6.64806 10.701 6.64888C10.6994 6.6497 10.6969 6.6505 10.6953 6.65132C10.6953 6.6497 10.6953 6.64888 10.6953 6.64726Z" fill="#215CB5"/>
<path d="M16.582 1.94787C16.5974 1.94139 16.6072 1.94787 16.6161 1.96003C16.6023 1.96328 16.5877 1.96652 16.582 1.94868V1.94787Z" fill="#FEC35E"/>
<path d="M12.6519 4.55983C12.6567 4.55579 12.6608 4.55174 12.6656 4.54688C12.6656 4.54768 12.6656 4.54929 12.6656 4.55011C12.6656 4.55335 12.664 4.55498 12.6624 4.55742H12.6616C12.6616 4.55742 12.6567 4.55983 12.6519 4.55983Z" fill="#404A5A"/>
<path d="M12.7488 4.46109C12.7529 4.45865 12.7577 4.45703 12.7634 4.45703C12.7634 4.46433 12.7618 4.46839 12.7586 4.47001C12.7537 4.47325 12.7448 4.47083 12.7383 4.47163C12.7415 4.46677 12.7448 4.46353 12.7488 4.46109Z" fill="#404A5A"/>
<path d="M12.8113 4.41732C12.8113 4.41732 12.8097 4.4238 12.8073 4.42624C12.8073 4.42624 12.8056 4.42704 12.8048 4.42786C12.8032 4.42866 12.8008 4.42948 12.7983 4.42948C12.8024 4.4246 12.8073 4.41894 12.8113 4.41406C12.8113 4.4157 12.8113 4.4165 12.8113 4.41812V4.41732Z" fill="#404A5A"/>
<path d="M13.6331 3.7674C13.6331 3.7674 13.6315 3.77064 13.6307 3.77226C13.6282 3.7747 13.625 3.7755 13.6201 3.7755C13.6242 3.77064 13.629 3.76658 13.6339 3.76172C13.6339 3.76416 13.6339 3.76578 13.6339 3.76822L13.6331 3.7674Z" fill="#404A5A"/>
<path d="M13.6175 3.77734C13.6175 3.77734 13.6175 3.77978 13.6175 3.78058C13.6175 3.78382 13.6158 3.78546 13.6142 3.78626C13.6126 3.78708 13.611 3.78708 13.6077 3.78626C13.6069 3.78626 13.6053 3.78626 13.6045 3.78464C13.6094 3.7822 13.6134 3.77978 13.6183 3.77734H13.6175Z" fill="#404A5A"/>
<path d="M17.8937 2.51889C17.4841 2.33645 17.0736 2.15485 16.664 1.97159C16.6474 1.96413 16.6308 1.96993 16.6159 1.96081C16.6018 1.96413 16.5868 1.96744 16.581 1.9492C16.5645 1.95666 16.5487 1.9492 16.5329 1.9434C16.1739 1.8356 15.8065 1.80243 15.4326 1.8215C14.9375 1.8472 14.4632 1.96827 14.0021 2.14656C13.857 2.20212 13.7144 2.26348 13.5751 2.32899C13.5402 2.34557 13.5054 2.36216 13.4706 2.37957C13.43 2.39947 13.3893 2.41937 13.3495 2.44094C13.2956 2.46831 13.2426 2.49649 13.1887 2.52552C12.9092 2.67809 12.638 2.84808 12.3752 3.03052C12.3205 3.06867 12.2657 3.10681 12.2118 3.14578L12.1795 3.169C12.0501 3.26354 11.9233 3.35971 11.7989 3.45923C11.4871 3.70718 11.1877 3.97085 10.8983 4.24699C10.0948 5.01404 9.38084 5.86067 8.72742 6.75791C8.71083 6.78113 8.69424 6.80518 8.67767 6.8284C8.67767 6.8284 8.67601 6.83418 8.67434 6.83586C8.67268 6.83752 8.67021 6.83834 8.66689 6.83918C8.608 6.92292 8.54995 7.00584 8.49109 7.0896C8.39323 7.22892 8.29705 7.36821 8.20251 7.51002C8.11296 7.64435 8.02423 7.78035 7.93716 7.91633C7.86751 8.02415 7.79952 8.13276 7.73234 8.24223C7.67264 8.34007 7.61293 8.4371 7.55406 8.53494C7.47114 8.67342 7.38903 8.81271 7.30777 8.95368C7.26715 9.02417 7.22734 9.09384 7.18754 9.16514C7.18338 9.17343 7.1776 9.18089 7.17261 9.1892C7.17261 9.19832 7.16929 9.20577 7.16598 9.21323C7.16266 9.21822 7.15935 9.22401 7.15686 9.229C7.11955 9.29534 7.08306 9.36251 7.04656 9.42966C6.90893 9.68093 6.77458 9.93466 6.64523 10.1901C6.59049 10.2979 6.53659 10.4065 6.48351 10.5151C6.19662 11.1022 5.93042 11.6984 5.68581 12.303C5.55561 12.6239 5.43207 12.9473 5.31431 13.2723C5.25211 13.4448 5.19074 13.6181 5.13188 13.7922C5.02324 14.114 4.92373 14.4382 4.82671 14.7633C4.78691 14.8968 4.74794 15.0311 4.71063 15.1654C4.7098 15.1688 4.70898 15.1721 4.70814 15.1754C4.64927 15.386 4.59453 15.5975 4.54313 15.8098C4.49586 16.0005 4.45025 16.192 4.40797 16.3844C4.37148 16.5486 4.3383 16.7136 4.30514 16.8786C4.29768 16.9176 4.29021 16.9566 4.28275 16.9964C4.27943 17.0121 4.27694 17.0279 4.27362 17.0437C4.27278 17.0495 4.27113 17.0553 4.27031 17.0619C4.2645 17.0934 4.25787 17.1241 4.25206 17.1556C4.20479 17.4135 4.16251 17.6722 4.12602 17.9326C4.09037 18.1838 4.05885 18.4343 4.03232 18.6864C4.02651 18.7427 4.02154 18.7991 4.01573 18.8555C4.01573 18.8597 4.01489 18.8638 4.01489 18.868C4.01076 18.9111 4.00827 18.9418 4.00495 18.9724C3.99333 19.1126 3.98339 19.2536 3.97511 19.3937C3.96681 19.5347 3.96018 19.6756 3.95603 19.8166C3.95603 19.8349 3.95603 19.8531 3.95437 19.8713C3.94608 20.1425 3.94443 20.4128 3.95271 20.6831C3.961 20.9385 3.97511 21.1931 3.99914 21.4478C4.02236 21.7014 4.0547 21.9544 4.09866 22.2072C4.12021 22.3308 4.14343 22.4535 4.16996 22.5754C4.25787 22.9868 4.37645 23.3897 4.53898 23.7796C4.55058 23.8068 4.56136 23.8334 4.57381 23.8608C4.58541 23.8874 4.59785 23.9146 4.60947 23.9412C4.63765 24.0042 4.66752 24.0664 4.6982 24.1277C4.7496 24.2306 4.80434 24.3308 4.86239 24.4288C5.02158 24.6974 5.20899 24.9471 5.43123 25.1725C5.48928 25.2323 5.5498 25.2887 5.61201 25.3425C5.72892 25.4446 5.85331 25.5383 5.98598 25.6221C6.01087 25.6379 6.03987 25.6469 6.05812 25.671C6.06061 25.6743 6.06311 25.6784 6.06477 25.6825C6.0772 25.68 6.08633 25.6825 6.08964 25.6958C6.14104 25.7083 6.1825 25.743 6.22977 25.7639C6.48185 25.8758 6.73312 25.9877 6.9852 26.0997C7.12867 26.1636 7.27296 26.2257 7.41724 26.2887L7.43549 26.2722C7.38903 26.2431 7.34095 26.2157 7.29617 26.185C7.2489 26.1527 7.20413 26.1188 7.15935 26.084C6.7837 25.7921 6.48932 25.428 6.24802 25.0159C6.10124 24.7655 5.98184 24.5027 5.87902 24.2323C5.87652 24.2257 5.87403 24.2198 5.87155 24.2132C5.73389 23.8475 5.63356 23.4709 5.55811 23.0878C5.51746 22.8831 5.48513 22.6767 5.45694 22.4693C5.45528 22.4543 5.45279 22.4402 5.45113 22.4253C5.43786 22.3234 5.42626 22.2205 5.41548 22.1185C5.39971 21.9677 5.38811 21.8176 5.37983 21.6658C5.37815 21.6284 5.37567 21.5912 5.37402 21.5539C5.37402 21.5447 5.37318 21.5347 5.37236 21.5257C5.36489 21.3167 5.35743 21.1076 5.35825 20.8988C5.35825 20.8871 5.35825 20.8755 5.35825 20.8648C5.35825 20.8274 5.35825 20.7901 5.35992 20.7528C5.36489 20.5886 5.36986 20.4252 5.37649 20.2619C5.37983 20.1798 5.38396 20.0986 5.38893 20.0164C5.39392 19.9344 5.39889 19.8531 5.4047 19.771C5.42626 19.4849 5.45528 19.2005 5.4901 18.9161C5.50253 18.8124 5.51581 18.7096 5.53074 18.6059C5.54649 18.4907 5.5639 18.3754 5.58214 18.261C5.59626 18.1706 5.61117 18.0802 5.62692 17.9898C5.64434 17.887 5.66341 17.785 5.68249 17.6822C5.70653 17.5528 5.73224 17.4243 5.75877 17.2949C5.78945 17.1481 5.82097 17.0005 5.85413 16.8546C5.88399 16.7244 5.91467 16.5942 5.94701 16.464C5.98266 16.3206 6.01915 16.1771 6.0573 16.0345C6.06642 16.0013 6.07636 15.9681 6.08633 15.935C6.09627 15.9018 6.10623 15.8686 6.11451 15.8355C6.13192 15.7658 6.14603 15.6962 6.17091 15.6282C6.17671 15.6207 6.18584 15.6132 6.18666 15.605C6.20656 15.4408 6.26543 15.2874 6.31601 15.1331C6.33841 15.0643 6.35997 14.9946 6.38153 14.925C6.41137 14.828 6.44123 14.7309 6.47191 14.6339C6.49679 14.5543 6.5225 14.4747 6.54987 14.3959C6.56065 14.3652 6.57059 14.3337 6.58137 14.3022C6.59546 14.2624 6.60957 14.2226 6.62367 14.1828C6.68337 14.017 6.7414 13.8503 6.80195 13.6845C6.82682 13.6164 6.85253 13.5476 6.87824 13.4796C6.96696 13.2466 7.05818 13.0153 7.1527 12.7856C7.17925 12.7201 7.2066 12.6554 7.23397 12.5907C7.25637 12.5384 7.27793 12.487 7.29948 12.4348C7.35256 12.3121 7.40646 12.1893 7.46036 12.0666C7.50264 11.9704 7.54576 11.8751 7.58971 11.7789C7.62289 11.7051 7.65689 11.6329 7.69088 11.5591C7.78209 11.3634 7.87497 11.1694 7.97199 10.9762C7.98858 10.9422 8.00848 10.9098 8.02754 10.8775C8.04663 10.8452 8.06569 10.812 8.08228 10.7772C8.36421 10.1793 8.69508 9.60794 9.03589 9.04242C9.06657 8.99183 9.09642 8.94125 9.1271 8.89066C9.19842 8.77293 9.26641 8.65353 9.34686 8.54324C9.39743 8.47441 9.44386 8.40475 9.49029 8.33344C9.53672 8.26296 9.58233 8.19165 9.6296 8.12198C9.7258 7.98269 9.81535 7.8384 9.91071 7.69825C9.92315 7.68 9.93558 7.66178 9.94802 7.64353C10.0119 7.55149 10.0782 7.4611 10.1429 7.36987C10.1429 7.36905 10.1429 7.36821 10.1429 7.36739V7.3649C10.1429 7.3649 10.1479 7.35993 10.1504 7.35827C10.152 7.35827 10.1537 7.35661 10.1553 7.35661C10.249 7.23057 10.3427 7.10369 10.4364 6.97765C10.4406 6.97184 10.4456 6.96687 10.4497 6.9619C10.4522 6.95941 10.4539 6.95691 10.4555 6.95526C10.4613 6.94863 10.4671 6.94282 10.4729 6.93619C10.4729 6.93288 10.4729 6.93038 10.4729 6.92791C10.4729 6.92541 10.4729 6.92292 10.4738 6.92126C10.4754 6.91629 10.4771 6.91298 10.4796 6.90966C10.482 6.90633 10.4862 6.90385 10.4895 6.90054C10.4937 6.89804 10.4978 6.89555 10.502 6.89307C10.5044 6.89058 10.5061 6.8881 10.5078 6.88561C10.5443 6.83999 10.5816 6.7944 10.6181 6.74879C10.6222 6.74382 10.6263 6.73801 10.6305 6.73304C10.6305 6.7297 10.6321 6.72723 10.6338 6.72391C10.6346 6.72142 10.6363 6.71811 10.638 6.71561C10.6413 6.71064 10.6454 6.70567 10.6495 6.70152C10.6495 6.7007 10.6512 6.69986 10.652 6.69902C10.6678 6.68411 10.6877 6.67167 10.6919 6.64928C10.6919 6.64762 10.6919 6.64678 10.6919 6.64512C10.6919 6.64099 10.6952 6.63766 10.6985 6.636C10.7001 6.636 10.7018 6.63518 10.7034 6.63434C10.7142 6.62606 10.7242 6.61778 10.7325 6.60781C10.735 6.60532 10.7366 6.60284 10.7383 6.60119C10.7449 6.59372 10.7507 6.58542 10.7565 6.57713C10.764 6.56635 10.7715 6.55474 10.7789 6.54314C10.7847 6.53483 10.7905 6.52573 10.7963 6.51743C10.8005 6.51162 10.8046 6.50583 10.8088 6.50084C10.837 6.46602 10.866 6.43119 10.8942 6.39719C11.0932 6.15423 11.298 5.91706 11.5086 5.68489C11.6736 5.50245 11.8445 5.32583 12.017 5.15086C12.0468 5.12018 12.0775 5.08949 12.1073 5.05965C12.1637 5.00326 12.2226 4.95102 12.2807 4.89712C12.3039 4.87556 12.3271 4.85482 12.3495 4.83244C12.3545 4.82829 12.3586 4.82332 12.3636 4.81917C12.4357 4.74952 12.5095 4.67985 12.5825 4.61102C12.5841 4.60936 12.5858 4.60855 12.5875 4.60689C12.6065 4.58946 12.6281 4.57371 12.648 4.55796C12.653 4.55381 12.6571 4.54966 12.6621 4.54469C12.6637 4.54303 12.6646 4.54221 12.6662 4.54053C12.6886 4.51732 12.7119 4.49494 12.7342 4.47173C12.7376 4.46673 12.7409 4.46342 12.745 4.46095C12.7492 4.45845 12.7541 4.45679 12.7599 4.45679C12.7666 4.45596 12.7724 4.45264 12.7774 4.44933C12.7807 4.44683 12.784 4.44352 12.7873 4.44021C12.7898 4.43771 12.7914 4.4344 12.7939 4.43108C12.7981 4.42611 12.8031 4.4203 12.8072 4.41533C12.8661 4.36309 12.925 4.31167 12.9855 4.26108C12.9946 4.25364 13.0037 4.24617 13.0129 4.23787C13.0709 4.18894 13.1298 4.14085 13.1895 4.09276C13.323 3.98579 13.4606 3.88214 13.6008 3.78429C13.6058 3.78179 13.6099 3.77932 13.6149 3.77682H13.6157C13.6199 3.77101 13.6248 3.76604 13.6298 3.76189C13.6613 3.73868 13.6937 3.71462 13.7252 3.69224C13.789 3.64581 13.8545 3.60104 13.9192 3.55708C13.9515 3.53552 13.9847 3.51312 14.0179 3.4924C14.0511 3.47084 14.0842 3.44928 14.1174 3.42854C14.2177 3.36552 14.3189 3.30416 14.4217 3.24529C14.5337 3.18061 14.6481 3.11841 14.7625 3.0587C15.1075 2.88126 15.4641 2.73117 15.8372 2.62006C15.8654 2.61175 15.8944 2.60347 15.9226 2.59516C16.1217 2.53961 16.3215 2.49733 16.5246 2.46996C16.6399 2.45419 16.7568 2.44341 16.8737 2.43844C16.9617 2.43431 17.0496 2.43347 17.1383 2.43597C17.1681 2.43678 17.1972 2.43762 17.227 2.43928C17.3157 2.44425 17.4036 2.45337 17.4915 2.46581C17.6134 2.4824 17.7337 2.50561 17.8539 2.5363C17.8572 2.53546 17.8597 2.53464 17.863 2.5363C17.8663 2.5363 17.8688 2.53879 17.8705 2.54127C17.873 2.5421 17.8763 2.54292 17.8788 2.54376C17.8846 2.54542 17.8896 2.54708 17.8954 2.54957C17.8954 2.54127 17.8962 2.53298 17.897 2.52468C17.8954 2.52302 17.8937 2.52136 17.8912 2.52055L17.8937 2.51889Z" fill="#EBEBEB"/>
<path d="M16.5817 1.94724C16.5759 1.92153 16.5511 1.91904 16.5328 1.91075C16.1796 1.75403 15.8263 1.59647 15.4714 1.44141C15.3769 1.39994 15.2857 1.35185 15.1878 1.31868C15.177 1.32531 15.1654 1.32448 15.1538 1.32033C14.9108 1.24073 14.6587 1.20093 14.405 1.18517C14.172 1.17107 13.9382 1.18517 13.7068 1.21585C13.5161 1.24156 13.3287 1.28136 13.1429 1.33112C12.7822 1.42814 12.4356 1.55999 12.1014 1.725C11.9729 1.78885 11.8485 1.861 11.7216 1.92816C11.6793 1.95055 11.6354 1.97045 11.5948 1.9945C11.2315 2.21093 10.8791 2.44394 10.5449 2.70349C10.4612 2.76818 10.3758 2.8312 10.2978 2.90167C10.2473 2.94728 10.1983 2.99372 10.1436 3.03352C10.1336 3.04099 10.1229 3.04845 10.1104 3.05592C10.1013 3.0642 10.0922 3.07167 10.0831 3.07913V3.08079C10.0789 3.09157 10.0748 3.10153 10.0681 3.10732C10.064 3.11065 10.0598 3.11231 10.0549 3.11313C10.0524 3.11313 10.0491 3.11313 10.0466 3.11313H10.0449C10.0449 3.11313 10.0399 3.11147 10.0366 3.11065C10.0341 3.11231 10.0317 3.11397 10.03 3.11563C10.001 3.13635 9.98521 3.17202 9.95868 3.19274C9.95453 3.19605 9.95039 3.19855 9.94624 3.20102C9.87659 3.23751 9.83429 3.30303 9.77209 3.3478C9.71241 3.39092 9.66264 3.44813 9.60792 3.49872C9.33674 3.74833 9.0805 4.01284 8.82677 4.27986C8.74881 4.36196 8.67916 4.44983 8.60453 4.53525C8.56141 4.58418 8.51332 4.6273 8.47102 4.67541C8.35576 4.80726 8.24381 4.94242 8.13021 5.07509C8.04563 5.17376 7.96602 5.27577 7.89056 5.38107C7.83085 5.46483 7.75955 5.53947 7.69569 5.61989C7.50248 5.86785 7.31922 6.12322 7.13597 6.3778C6.95519 6.62906 6.78935 6.89029 6.61769 7.14816C6.46347 7.37952 6.32166 7.61916 6.17489 7.85633C6.12098 7.94423 6.07289 8.03543 6.01815 8.12335C5.92445 8.27426 5.83739 8.42933 5.75529 8.58687C5.70389 8.64823 5.67321 8.72287 5.63422 8.7917C5.55295 8.93599 5.47502 9.08193 5.40454 9.23203C5.38214 9.28013 5.3498 9.32076 5.32658 9.36884C5.26107 9.50235 5.19473 9.63586 5.1259 9.76855C4.95427 10.1019 4.80333 10.4444 4.64661 10.7852C4.47661 11.1534 4.3257 11.5306 4.17644 11.9079C4.07528 12.1642 3.97329 12.4204 3.89284 12.6841C3.87957 12.7272 3.85469 12.7662 3.83978 12.8085C3.76183 13.0357 3.68388 13.2621 3.61008 13.4901C3.54125 13.6999 3.47657 13.9114 3.41437 14.1228C3.35468 14.3268 3.29745 14.5308 3.24273 14.7356C3.13576 15.1328 3.0379 15.5325 2.95416 15.9347C2.9326 16.0417 2.91104 16.1486 2.89031 16.2556C2.81899 16.6196 2.75597 16.9862 2.70456 17.3543C2.65646 17.7043 2.61666 18.055 2.58515 18.4066C2.58266 18.439 2.58017 18.4713 2.57769 18.5036C2.56276 18.696 2.55115 18.8892 2.54369 19.0833C2.53457 19.3047 2.53291 19.5261 2.53125 19.7475C2.53125 19.8528 2.54203 19.9589 2.5412 20.0651C2.53954 20.2268 2.55364 20.3877 2.56276 20.5485C2.56608 20.6074 2.56857 20.6671 2.57437 20.7268C2.5752 20.7368 2.57686 20.7475 2.57769 20.7575C2.59676 20.9126 2.6092 21.0685 2.63076 21.2227C2.65149 21.3728 2.67222 21.523 2.69958 21.6713C2.73939 21.8787 2.7767 22.0859 2.84055 22.2873C2.86045 22.3505 2.87123 22.4168 2.88948 22.4815C2.92762 22.6224 2.97323 22.7617 3.02299 22.8985C3.09513 23.0951 3.17806 23.2876 3.26761 23.4766C3.40608 23.7668 3.57774 24.037 3.77924 24.2876C3.96996 24.5255 4.18804 24.7353 4.43765 24.911C4.44761 24.9186 4.45839 24.9252 4.46917 24.9319C4.48739 24.9434 4.50564 24.955 4.52388 24.9667C4.53385 24.9732 4.54463 24.98 4.55541 24.9865C4.59022 25.0082 4.62423 25.0305 4.65739 25.0546C4.65739 25.0546 4.65823 25.0546 4.65905 25.0555C4.66901 25.0628 4.67895 25.0704 4.68891 25.0786C4.68891 25.0802 4.69057 25.0818 4.69139 25.0837C4.6972 25.0919 4.70881 25.0927 4.71794 25.0968C5.14912 25.2876 5.5795 25.4783 6.01071 25.6691C6.02811 25.6765 6.0447 25.6881 6.06542 25.6832C6.06295 25.6789 6.06129 25.6756 6.05879 25.6715C6.04055 25.6474 6.01152 25.6384 5.98665 25.6227C5.8548 25.5388 5.7296 25.4451 5.61266 25.343C5.55048 25.2892 5.48993 25.232 5.4319 25.1731C5.20966 24.9477 5.02226 24.6971 4.86304 24.4293C4.80499 24.3316 4.75028 24.2311 4.69885 24.1283C4.66817 24.0669 4.63833 24.0047 4.61012 23.9417C4.59768 23.9143 4.58609 23.8879 4.57447 23.8605C4.56287 23.8331 4.55125 23.8065 4.53964 23.7793C4.37712 23.3894 4.25937 22.9865 4.17063 22.5751C4.14411 22.4532 4.12089 22.3305 4.09933 22.207C4.05621 21.955 4.02385 21.7019 3.99982 21.4475C3.97576 21.1936 3.96167 20.9384 3.95339 20.6829C3.94508 20.4125 3.94674 20.1414 3.95504 19.871C3.95586 19.8528 3.95586 19.8346 3.9567 19.8163C3.96167 19.6754 3.9683 19.5344 3.97576 19.3934C3.98407 19.2533 3.99401 19.1123 4.00563 18.9722C4.0081 18.9415 4.01142 18.9108 4.01557 18.8677C4.01557 18.8635 4.01641 18.8594 4.01641 18.8552C4.02138 18.7989 4.02635 18.7425 4.03298 18.6861C4.05869 18.434 4.09103 18.1827 4.12668 17.9323C4.16401 17.6719 4.20629 17.4132 4.25274 17.1553C4.25853 17.1238 4.26518 17.0931 4.27096 17.0616C4.2718 17.0558 4.27346 17.05 4.2743 17.0434C4.27761 17.0276 4.28009 17.0119 4.28342 16.9961C4.29087 16.9563 4.29833 16.9173 4.3058 16.8784C4.33814 16.7133 4.37213 16.5483 4.40862 16.3841C4.45092 16.1918 4.49652 16.0002 4.54379 15.8095C4.59603 15.5972 4.65076 15.3858 4.70881 15.1751C4.70881 15.1718 4.71047 15.1685 4.71129 15.1652C4.74862 15.0308 4.78759 14.8965 4.82739 14.763C4.92441 14.4379 5.02473 14.1137 5.13255 13.792C5.19142 13.6178 5.25278 13.4445 5.31496 13.272C5.43272 12.9461 5.55629 12.6228 5.68646 12.3027C5.9311 11.6982 6.19645 11.1019 6.48419 10.5149C6.53727 10.4062 6.59116 10.2976 6.64588 10.1898C6.77526 9.93439 6.90958 9.68063 7.04724 9.42939C7.08373 9.36222 7.12104 9.29504 7.15753 9.22871C7.16084 9.22374 7.16416 9.21793 7.16665 9.21296C7.17078 9.20549 7.1741 9.19803 7.17328 9.18891C7.17825 9.18062 7.18406 9.17232 7.18821 9.16487C7.22802 9.09439 7.2678 9.0239 7.30844 8.95341C7.38971 8.81326 7.47098 8.67394 7.55472 8.53465C7.61361 8.43679 7.67331 8.33894 7.733 8.24192C7.80017 8.13247 7.86818 8.02384 7.93783 7.91604C8.02491 7.78004 8.11362 7.64404 8.20319 7.50971C8.29771 7.36792 8.39391 7.2286 8.49176 7.08929C8.54981 7.00555 8.60868 6.92262 8.66755 6.83886C8.66755 6.83721 8.66755 6.83553 8.66755 6.83387C8.66755 6.83305 8.66839 6.8314 8.6692 6.83058C8.67086 6.82808 8.67419 6.82725 8.67751 6.82725C8.69408 6.80403 8.70985 6.78 8.72725 6.75678C9.38071 5.85954 10.0947 5.01373 10.8982 4.24586C11.1876 3.96973 11.4861 3.70603 11.7987 3.4581C11.9231 3.35858 12.05 3.26239 12.1793 3.16787L12.2117 3.14465C12.2656 3.10566 12.3203 3.06752 12.3751 3.02939C12.6388 2.84695 12.9091 2.67696 13.1885 2.52439C13.2416 2.49536 13.2955 2.46715 13.3494 2.43981C13.39 2.41907 13.4298 2.39834 13.4705 2.37844C13.5053 2.36102 13.5401 2.34444 13.575 2.32785C13.7151 2.26234 13.8569 2.20098 14.002 2.14542C14.4631 1.96797 14.9374 1.8469 15.4324 1.82036C15.8056 1.80046 16.1729 1.83363 16.5328 1.94226C16.5486 1.94724 16.5643 1.9547 16.5809 1.94807L16.5817 1.94724Z" fill="#C9C9C9"/>
<path d="M8.6693 6.83122C8.6693 6.83122 8.67395 6.82812 8.67706 6.82812C8.67706 6.83122 8.67549 6.83355 8.67394 6.8351C8.6724 6.83664 8.67009 6.83743 8.66699 6.83819C8.66699 6.83664 8.66699 6.8351 8.66699 6.83355C8.66699 6.83277 8.66776 6.83122 8.66854 6.83046L8.6693 6.83122Z" fill="#C18B00"/>
<path d="M10.0443 3.08807C10.0493 3.08228 10.0551 3.07894 10.0634 3.07813C10.0683 3.07813 10.075 3.07812 10.0816 3.07978V3.08144C10.0775 3.09222 10.0733 3.10218 10.0667 3.10797C10.0625 3.1113 10.0584 3.11296 10.0534 3.11378C10.0509 3.11378 10.0476 3.11378 10.0451 3.11378H10.0435C10.0435 3.11378 10.0385 3.11212 10.0352 3.1113C10.0368 3.10134 10.0401 3.09306 10.0451 3.08807H10.0443Z" fill="#C18B00"/>
<path d="M15.1099 1.28677C14.789 1.14331 14.4673 1.004 14.148 0.858886C13.7823 0.69221 13.4025 0.589385 13.0004 0.570312C12.8992 0.570312 12.7972 0.570313 12.696 0.571142C12.6562 0.571142 12.6164 0.571142 12.5775 0.571142C12.3751 0.581922 12.1753 0.611774 11.9771 0.654066C11.3925 0.77845 10.8485 1.00732 10.3269 1.29423C9.80202 1.5828 9.31445 1.92776 8.8509 2.30589C8.79204 2.35399 8.72818 2.39793 8.67678 2.45598C8.67262 2.45764 8.66847 2.46096 8.666 2.46511V2.47008C8.666 2.47008 8.66434 2.47008 8.6635 2.47008C8.66184 2.47008 8.66103 2.47008 8.66103 2.47008C8.64775 2.48086 8.63447 2.49082 8.62122 2.5016C8.10791 2.94108 7.63112 3.41788 7.18001 3.92123C6.64433 4.51993 6.15011 5.15181 5.68822 5.80857C4.99997 6.78705 4.39048 7.81364 3.84733 8.87918C3.48081 9.5973 3.14746 10.3312 2.84729 11.0799C2.53467 11.8611 2.24775 12.6522 2.01723 13.4623C1.99152 13.5519 1.96001 13.6406 1.9343 13.7302C1.74524 14.3977 1.58188 15.071 1.45335 15.7527C1.34389 16.3306 1.25682 16.9111 1.19961 17.4965C1.15732 17.9211 1.12829 18.3465 1.12995 18.7736C1.12995 18.9676 1.13078 19.1616 1.13161 19.3557C1.1341 19.3822 1.13493 19.4087 1.13575 19.4353C1.13658 19.4767 1.13576 19.5174 1.1341 19.5588C1.13576 19.7952 1.15566 20.0298 1.17805 20.2653C1.21536 20.6493 1.27341 21.029 1.35882 21.4047C1.46496 21.8756 1.61007 22.3326 1.81655 22.7697C2.03796 23.2373 2.31907 23.6627 2.69885 24.0184C2.92026 24.2258 3.16405 24.4007 3.43853 24.5292C3.68233 24.6437 3.92944 24.7507 4.17655 24.8593C4.34571 24.934 4.51321 25.0144 4.68568 25.0806C4.67574 25.0733 4.66578 25.0649 4.65584 25.0575C4.65584 25.0575 4.655 25.0575 4.65418 25.0567C4.62101 25.0326 4.58701 25.0103 4.55218 24.9886C4.5414 24.982 4.53146 24.9753 4.52068 24.9687C4.50243 24.9571 4.48419 24.9462 4.46594 24.934C4.45516 24.9272 4.44522 24.9199 4.43444 24.9131C4.18483 24.7366 3.96759 24.5275 3.77603 24.2897C3.57451 24.0391 3.40288 23.7689 3.26438 23.4786C3.17401 23.2896 3.09109 23.0972 3.01976 22.9006C2.97001 22.7637 2.9244 22.6245 2.88626 22.4835C2.86885 22.4197 2.85724 22.3534 2.83734 22.2894C2.77348 22.0879 2.73534 21.8807 2.69637 21.6733C2.66817 21.525 2.64827 21.3749 2.62754 21.2247C2.60598 21.0705 2.59271 20.9147 2.57447 20.7596C2.57364 20.7496 2.57198 20.7388 2.57115 20.7289C2.56535 20.67 2.56286 20.6103 2.55954 20.5506C2.55125 20.3897 2.53715 20.2289 2.53798 20.0671C2.53798 19.9618 2.5272 19.8557 2.52803 19.7495C2.52969 19.5281 2.53218 19.3067 2.54047 19.0853C2.54793 18.8921 2.55954 18.6989 2.57447 18.5057C2.57696 18.4734 2.57944 18.441 2.58193 18.4087C2.61344 18.0571 2.65325 17.7063 2.70134 17.3564C2.75275 16.9882 2.81578 16.6217 2.88709 16.2577C2.90782 16.1507 2.92938 16.0437 2.95094 15.9368C3.03386 15.5337 3.13255 15.1349 3.23951 14.7377C3.29424 14.5329 3.35145 14.328 3.41116 14.1249C3.47336 13.9126 3.53804 13.702 3.60687 13.4922C3.68149 13.2641 3.75944 13.0369 3.83655 12.8106C3.85065 12.7674 3.87636 12.7285 3.88963 12.6862C3.9709 12.4225 4.07207 12.1662 4.17322 11.91C4.32249 11.5327 4.47341 11.1562 4.6434 10.7872C4.80013 10.4472 4.95104 10.104 5.1227 9.77061C5.19069 9.63792 5.25786 9.50442 5.32337 9.37091C5.34659 9.32364 5.37975 9.28218 5.40131 9.23409C5.47179 9.08399 5.54975 8.93805 5.63101 8.79379C5.66998 8.72496 5.70066 8.65034 5.75208 8.58897C5.83417 8.43141 5.92124 8.27635 6.01494 8.12543C6.06968 8.03836 6.11777 7.94631 6.17167 7.85842C6.31761 7.62125 6.45942 7.38244 6.61449 7.15026C6.78612 6.89237 6.95197 6.63115 7.13274 6.3799C7.31602 6.12533 7.49927 5.86993 7.69248 5.62198C7.7555 5.54071 7.82681 5.46691 7.88735 5.38317C7.96281 5.27785 8.04242 5.17585 8.127 5.07717C8.2406 4.94367 8.35255 4.8085 8.46781 4.67749C8.51009 4.6294 8.5582 4.58626 8.60132 4.53736C8.67594 4.45276 8.7456 4.36405 8.82356 4.28194C9.0773 4.01493 9.33353 3.75041 9.60466 3.5008C9.65939 3.45022 9.70916 3.39301 9.76884 3.34989C9.83105 3.30511 9.87251 3.2396 9.94299 3.20313C9.94715 3.20063 9.95212 3.19814 9.95543 3.19482C9.98196 3.1741 9.99773 3.13843 10.0267 3.11771C10.0292 3.11605 10.0317 3.1144 10.0334 3.11274C10.035 3.10278 10.0384 3.09449 10.0433 3.08952C10.0483 3.08371 10.0541 3.0804 10.0624 3.07956C10.0674 3.07956 10.074 3.07956 10.0807 3.08122C10.0898 3.07375 10.0989 3.06547 10.108 3.058C10.1204 3.04972 10.1304 3.04307 10.1412 3.03561C10.1959 2.9958 10.2448 2.95021 10.2954 2.90378C10.3734 2.83245 10.4596 2.77027 10.5425 2.70557C10.8767 2.44602 11.2291 2.21302 11.5923 1.99659C11.6338 1.97254 11.6769 1.95264 11.7192 1.93025C11.8461 1.86225 11.9704 1.79011 12.099 1.72709C12.4332 1.56207 12.7806 1.43022 13.1405 1.3332C13.3263 1.28345 13.5137 1.24448 13.7044 1.21794C13.9357 1.18643 14.1696 1.17316 14.4026 1.18726C14.6572 1.20301 14.9084 1.24282 15.1514 1.32242C15.1638 1.32657 15.1746 1.3274 15.1854 1.32077C15.1646 1.29838 15.1332 1.29838 15.1074 1.28677H15.1099Z" fill="#7F7F7F"/>
<path d="M10.0545 2.99693C10.0545 2.99693 10.0498 2.99313 10.0479 2.99219C10.0507 2.99409 10.0526 2.99503 10.0545 2.99693Z" fill="#FF1100"/>
<path d="M13.0005 0.569614H12.6962C12.6564 0.571272 12.6166 0.571272 12.5776 0.571272C12.5759 0.566296 12.5734 0.561321 12.5718 0.556346C12.7161 0.556346 12.8612 0.556346 13.0055 0.554688C13.0038 0.559663 13.0021 0.564638 13.0005 0.569614Z" fill="#FEC35E"/>
<path d="M8.664 2.47446H8.66113V2.46875H8.6678V2.47542C8.6678 2.47542 8.6659 2.47542 8.66494 2.47542L8.664 2.47446Z" fill="#C18B00"/>
</g>
<path d="M38.3598 10.1797L42.3108 20.2728L46.237 10.1797H48.6668L43.355 23.5536H41.1144L35.7739 10.1797H38.3598Z" fill="#A0A0A0"/>
<path d="M53.7644 20.969C54.5127 21.4501 55.4213 21.742 56.3791 21.742C59.0761 21.742 61.1851 19.5794 61.1851 16.8578H63.4793C63.4793 20.7552 60.3301 23.8263 56.3258 23.8263C52.3748 23.8263 49.3037 20.784 49.3037 16.94C49.3037 13.0138 52.4529 9.91797 56.4573 9.91797C58.4348 9.91797 60.6754 10.6662 62.1432 12.615L53.7644 20.969ZM52.3214 19.4725L58.9938 12.7712C58.2211 12.2655 57.337 11.9983 56.3791 11.9983C53.711 11.9983 51.602 14.1608 51.602 16.8578C51.602 17.8198 51.8691 18.7243 52.3214 19.4725Z" fill="#A0A0A0"/>
<path d="M66.0454 4.06641H68.5531V23.5579H66.0454V4.06641Z" fill="#A0A0A0"/>
<path d="M71.3857 16.8578C71.3857 12.9069 74.4282 9.91797 78.4614 9.91797C82.5192 9.91797 85.5614 12.9069 85.5614 16.8578C85.5614 20.8375 82.5192 23.8263 78.4614 23.8263C74.4282 23.8263 71.3857 20.8334 71.3857 16.8578ZM78.4614 21.5816C81.1295 21.5816 83.1318 19.5506 83.1318 16.8578C83.1318 14.1896 81.1295 12.134 78.4614 12.134C75.8178 12.134 73.8155 14.1896 73.8155 16.8578C73.8155 19.5548 75.8178 21.5816 78.4614 21.5816Z" fill="#A0A0A0"/>
<path d="M94.7457 23.5615C90.4206 23.5615 87.5386 20.8934 87.5386 16.8602C87.5386 12.8559 90.4206 10.1877 94.7457 10.1877H96.9863V4.07422H99.4943V23.5656H94.7457V23.5615ZM94.7457 21.3168H96.9863V12.3995H94.7457C91.9171 12.3995 90.0465 14.1879 90.0465 16.8561C90.0465 19.5572 91.913 21.3168 94.7457 21.3168Z" fill="#A0A0A0"/>
<path d="M103.182 10.1813H105.69V14.0541L109.83 9.91406L111.405 11.4887L105.69 17.1745V23.5551H103.182V10.1813Z" fill="#A0A0A0"/>
<path d="M111.564 16.8578C111.564 12.9069 114.607 9.91797 118.64 9.91797C122.698 9.91797 125.74 12.9069 125.74 16.8578C125.74 20.8375 122.698 23.8263 118.64 23.8263C114.607 23.8263 111.564 20.8334 111.564 16.8578ZM118.64 21.5816C121.308 21.5816 123.31 19.5506 123.31 16.8578C123.31 14.1896 121.308 12.134 118.64 12.134C115.996 12.134 113.994 14.1896 113.994 16.8578C113.994 19.5548 115.996 21.5816 118.64 21.5816Z" fill="#A0A0A0"/>
<path d="M128.569 10.1813H131.023V11.7847C133.186 10.1566 134.119 9.91406 135.348 9.91406C136.952 9.91406 138.337 10.7404 139.007 12.0766C141.462 10.1813 142.453 9.91406 143.731 9.91406C146.025 9.91406 147.842 11.5709 147.842 14.0788V23.5551H145.335V14.346C145.335 13.1167 144.455 12.2081 143.332 12.2081C142.477 12.2081 141.836 12.3932 139.459 14.3707V23.5551H136.952V14.346C136.952 13.1167 136.072 12.2081 134.949 12.2081C134.094 12.2081 133.453 12.3932 131.077 14.3707V23.5551H128.569V10.1813Z" fill="#A0A0A0"/>
<path d="M155 20.969C155.748 21.4501 156.657 21.742 157.614 21.742C160.311 21.742 162.421 19.5794 162.421 16.8578H164.715C164.715 20.7552 161.565 23.8263 157.561 23.8263C153.61 23.8263 150.539 20.784 150.539 16.94C150.539 13.0138 153.688 9.91797 157.693 9.91797C159.67 9.91797 161.911 10.6662 163.378 12.615L155 20.969ZM153.561 19.4725L160.233 12.7712C159.461 12.2655 158.576 11.9983 157.619 11.9983C154.95 11.9983 152.841 14.1608 152.841 16.8578C152.837 17.8198 153.104 18.7243 153.561 19.4725Z" fill="#A0A0A0"/>
</g>
<defs>
<clipPath id="clip0_2320_1740">
<rect width="163.841" height="27" fill="white" transform="translate(0.943848 0.382812)"/>
</clipPath>
</defs>
</svg>
