<svg width="84" height="22" viewBox="0 0 84 22" fill="none" xmlns="http://www.w3.org/2000/svg">
<path d="M25.7412 19.3827V1.73948H31.5121C33.4258 1.73948 34.8669 2.1361 35.832 2.92935C36.7972 3.7193 37.2797 4.89265 37.2797 6.44941C37.2797 7.27241 37.0484 8.00616 36.5757 8.63746C36.1097 9.27537 35.4718 9.76784 34.662 10.1149C35.6172 10.3793 36.3708 10.8883 36.9261 11.632C37.4813 12.3823 37.7524 13.2714 37.7524 14.2993C37.7524 15.8825 37.2401 17.1253 36.2121 18.0276C35.1875 18.9332 33.7398 19.3827 31.8658 19.3827H25.7412ZM28.0714 11.1693V17.4723H31.9087C32.9929 17.4723 33.8489 17.1947 34.4736 16.6361C35.0983 16.0775 35.4123 15.3074 35.4123 14.3323C35.4123 12.2236 34.2587 11.1693 31.9451 11.1693H28.0714ZM28.0714 9.25884H31.5815C32.5995 9.25884 33.4126 9.00103 34.0274 8.49203C34.6355 7.98303 34.9429 7.29554 34.9429 6.42297C34.9429 5.45123 34.6587 4.74722 34.0935 4.30763C33.5283 3.86473 32.6656 3.64659 31.5121 3.64659H28.0714V9.25884ZM50.9302 14.7686H43.5332L41.874 19.386H39.4744L46.2137 1.73948H48.2497L54.999 19.386H52.6126L50.9302 14.7686ZM44.2405 12.8582H50.2428L47.235 4.61171L44.2405 12.8582ZM62.5745 11.5196C60.5815 10.9445 59.1305 10.2372 58.2182 9.40096C57.3093 8.56474 56.8532 7.53021 56.8532 6.30398C56.8532 4.91579 57.4118 3.76557 58.519 2.85333C59.6329 1.9444 61.074 1.48828 62.8489 1.48828C64.0619 1.48828 65.146 1.72295 66.0913 2.19229C67.0432 2.65833 67.7736 3.30615 68.2958 4.13245C68.8181 4.95545 69.0792 5.85777 69.0792 6.83281H66.7424C66.7424 5.76523 66.402 4.9257 65.7244 4.31424C65.0468 3.70608 64.085 3.3987 62.8489 3.3987C61.7019 3.3987 60.8095 3.64989 60.1683 4.15559C59.5238 4.66459 59.2032 5.36199 59.2032 6.26101C59.2032 6.98155 59.504 7.59301 60.1187 8.08879C60.7269 8.58458 61.7647 9.0407 63.2323 9.45385C64.6965 9.867 65.8467 10.3231 66.673 10.8189C67.4993 11.3147 68.1141 11.8931 68.514 12.5607C68.9139 13.2218 69.1122 14.0051 69.1122 14.9008C69.1122 16.332 68.5536 17.4789 67.4398 18.3383C66.3226 19.1976 64.8353 19.6273 62.9678 19.6273C61.7548 19.6273 60.6211 19.3959 59.5734 18.9332C58.5256 18.4672 57.7159 17.8293 57.1441 17.0228C56.5722 16.2163 56.2913 15.2975 56.2913 14.2729H58.6281C58.6281 15.3371 59.0214 16.1767 59.8114 16.7914C60.598 17.4062 61.6491 17.7169 62.9678 17.7169C64.1974 17.7169 65.1361 17.4657 65.7905 16.9633C66.4482 16.4642 66.7754 15.78 66.7754 14.9207C66.7754 14.0547 66.4681 13.3871 65.8665 12.9144C65.2683 12.4484 64.1676 11.979 62.5745 11.5196ZM82.0786 11.242H74.4336V17.4723H83.3147V19.3827H72.1068V1.73948H83.1957V3.64989H74.4336V9.33155H82.0786V11.242Z" fill="#A0A0A0"/>
<path d="M11.2051 21.1203C17.0355 21.1203 21.7652 16.3939 21.7652 10.5602C21.7652 4.72976 17.0388 0 11.2051 0C5.67544 0 1.13408 4.25712 0.68457 9.67106H14.6392V11.446H0.68457C1.13408 16.8632 5.67544 21.1203 11.2051 21.1203Z" fill="#A0A0A0"/>
</svg>
