<svg width="112" height="31" viewBox="0 0 112 31" fill="none" xmlns="http://www.w3.org/2000/svg">
<g clip-path="url(#clip0_1931_8813)">
<path d="M31.4902 4.13925H36.5987C37.8968 4.13925 38.8459 4.48818 39.46 5.08836C40.0602 5.60479 40.3254 6.30268 40.3254 6.9866C40.3254 7.2518 40.3254 7.58678 40.2417 7.85198C40.0742 8.28466 39.809 8.71735 39.46 9.06629C39.2926 9.23378 39.1111 9.33148 38.9436 9.41523C39.5438 9.58272 40.0742 9.93166 40.5069 10.3644C40.8558 10.797 41.0233 11.3135 41.0233 12.0951C41.0233 12.5278 40.9396 13.0442 40.7581 13.3932C40.5906 13.7421 40.2417 14.091 39.8927 14.3423C39.46 14.6075 39.0274 14.775 38.5947 14.9425C38.0782 15.1099 37.4641 15.1099 36.8639 15.1099H31.574V4.11133H31.4902V4.13925ZM36.166 8.6336C36.5987 8.6336 37.0314 8.54986 37.4641 8.36841C37.813 8.20091 37.9805 7.85198 37.9805 7.50304C37.9805 7.15409 37.813 6.80515 37.5478 6.63766C37.1989 6.37247 36.7662 6.28872 36.3335 6.37247H33.9049V8.70339H36.1521V8.6336H36.166ZM36.7662 13.0582C37.1989 13.0582 37.6316 12.9744 38.0643 12.793C38.4132 12.6255 38.5807 12.2765 38.497 11.8439C38.497 11.4949 38.3295 11.146 38.0643 10.9785C37.7991 10.811 37.2827 10.6295 36.6825 10.6295H33.8212V13.0582H36.7662Z" fill="#A0A0A0"/>
<path d="M44.0381 4.13867H46.4667V15.221H44.0381V4.13867Z" fill="#A0A0A0"/>
<path d="M50.1934 4.13867H52.4405L57.6328 10.9779V4.13867H60.0474V15.221H57.9817L52.5243 8.20034V15.221H50.1934V4.13867Z" fill="#A0A0A0"/>
<path d="M67.4168 4.05469H69.664L74.4235 15.2208H71.9111L70.8783 12.7084H66.2025L65.1696 15.2208H62.6572L67.4168 4.05469ZM70.0129 10.6287L68.5473 6.99975L67.0818 10.6287H70.0129Z" fill="#A0A0A0"/>
<path d="M77.0195 4.13867H79.2667L84.459 10.9779V4.13867H86.8876V15.221H84.8079L79.4342 8.20034V15.221H77.0195V4.13867Z" fill="#A0A0A0"/>
<path d="M95.7087 15.388C94.927 15.388 94.1454 15.2206 93.4615 14.9554C92.0797 14.3552 91.0329 13.3084 90.4327 11.9266C90.1675 11.2287 90 10.461 90 9.67937C90 8.21382 90.6002 6.73432 91.647 5.61771C92.1634 5.10127 92.7776 4.66859 93.4615 4.40339C94.2431 4.05445 95.0247 3.9707 95.7924 3.9707C96.2251 3.9707 96.7415 3.9707 97.1742 4.05445C97.6069 4.1382 97.9559 4.22194 98.3048 4.40339C98.6537 4.57088 99.0027 4.75233 99.2539 4.91982C99.5191 5.08732 99.8541 5.35251 100.119 5.61771L98.6537 7.4322C98.221 7.08326 97.7884 6.73431 97.3557 6.48308C96.923 6.23184 96.4066 6.13414 95.8901 6.13414C95.4574 6.13414 95.0248 6.21788 94.5921 6.39933C94.1594 6.56682 93.8104 6.83202 93.5592 7.18096C93.308 7.5299 93.0428 7.87884 92.8613 8.31153C92.6938 8.74421 92.5961 9.1769 92.5961 9.60959C92.5961 10.0423 92.6799 10.5587 92.8613 10.9914C93.0428 11.4241 93.2103 11.773 93.5592 12.122C94.1594 12.8198 95.0247 13.1548 95.8901 13.1548C96.4066 13.1548 97.0207 13.0711 97.5371 12.8059C97.9698 12.5407 98.4862 12.2057 98.8352 11.8568L100.384 13.4061C100.119 13.6713 99.7843 14.0062 99.5191 14.2714C99.1702 14.5366 98.8212 14.7041 98.4862 14.8716C98.1373 15.0391 97.7046 15.2206 97.2719 15.3043C96.6578 15.388 96.1414 15.388 95.7087 15.388Z" fill="#A0A0A0"/>
<path d="M103.162 4.13867H111.467V6.3021H105.493V8.54928H110.769V10.7127H105.493V13.0576H111.551V15.221H103.162V4.13867Z" fill="#A0A0A0"/>
<path d="M34.6026 26.1222C34.0024 26.1222 33.3883 26.0384 32.8718 25.7732C32.3554 25.6057 31.839 25.2568 31.3086 24.8241L32.174 23.875C32.5229 24.2239 32.8718 24.3914 33.3045 24.6566C33.7372 24.8241 34.1699 24.9218 34.6026 24.9218C34.9515 24.9218 35.3005 24.8381 35.6355 24.6566C35.9007 24.4891 35.9844 24.2239 35.9844 23.9587C35.9844 23.875 35.9844 23.6935 35.9007 23.6098C35.8169 23.526 35.7332 23.3446 35.6355 23.2608C35.468 23.1771 35.2865 23.0933 35.119 22.9956C34.8538 22.9119 34.5189 22.8281 34.2537 22.7304C33.9047 22.6467 33.472 22.563 33.1231 22.3815C32.8579 22.2978 32.5229 22.1163 32.3415 21.9488C32.174 21.7813 31.9925 21.5999 31.825 21.3486C31.6575 20.9997 31.6575 20.6508 31.6575 20.3995C31.6575 20.0506 31.7413 19.7993 31.825 19.4504C31.9088 19.1852 32.174 18.934 32.3415 18.7525C32.6067 18.585 32.8579 18.4036 33.2068 18.3198C33.5558 18.2361 33.9047 18.1523 34.2397 18.1523C34.7561 18.1523 35.2726 18.2361 35.8029 18.4175C36.2356 18.585 36.6683 18.8502 37.101 19.1154L36.4031 20.1483C36.0542 19.8831 35.7052 19.7156 35.3703 19.5481C35.0213 19.3806 34.6724 19.3806 34.3374 19.3806C33.9885 19.3806 33.6395 19.4644 33.3883 19.6458C33.2208 19.8133 33.0393 20.0785 33.0393 20.3437C33.0393 20.5112 33.0393 20.6089 33.1231 20.7764C33.2068 20.8601 33.2906 21.0416 33.3883 21.1253C33.5558 21.2091 33.7372 21.2928 33.9885 21.3905C34.2537 21.4743 34.5049 21.558 34.9376 21.6557C35.2865 21.7395 35.6355 21.8232 36.0681 22.0047C36.3333 22.0884 36.5846 22.2698 36.8498 22.4373C37.0173 22.6048 37.1987 22.87 37.2825 23.0375C37.3662 23.3027 37.45 23.5539 37.45 23.9029C37.45 24.2518 37.3662 24.6008 37.2825 24.852C37.115 25.1172 36.9335 25.3684 36.6823 25.6336C36.4171 25.8011 36.1658 25.9826 35.8169 26.0663C35.3842 26.0384 34.9515 26.1222 34.6026 26.1222Z" fill="#A0A0A0"/>
<path d="M38.9287 18.25H40.4082L42.7391 21.879L45.1678 18.25H46.6333V26.0384H45.2515V20.4134L42.8229 24.0424H42.7391L40.3245 20.4134V26.0384H38.9287V18.25Z" fill="#A0A0A0"/>
<path d="M51.3101 18.166H52.6081L55.9859 25.9544H54.5203L53.7387 24.0561H50.1097L49.3281 25.9544H47.9463L51.3101 18.166ZM53.306 22.9256L51.9242 19.813L50.6262 22.9256H53.306Z" fill="#A0A0A0"/>
<path d="M57.3669 18.25H60.8284C61.2611 18.25 61.6938 18.3337 62.1265 18.4175C62.4754 18.5012 62.8244 18.7664 63.0756 19.0177C63.2431 19.1852 63.4246 19.4504 63.5921 19.7993C63.6758 20.0645 63.7595 20.3995 63.7595 20.7484C63.7595 21.0136 63.6758 21.3486 63.5921 21.6138C63.5083 21.879 63.3269 22.0465 63.2431 22.3117C63.0756 22.4792 62.8942 22.6606 62.6429 22.8281C62.3777 22.9956 62.1265 23.0933 61.8613 23.177L63.941 26.1221H62.294L60.3958 23.4422H58.665V26.1221H57.2832L57.3669 18.25ZM60.7447 22.0604C61.1774 22.0604 61.6101 21.9767 61.8753 21.7115C62.1405 21.4463 62.308 21.1113 62.308 20.7624C62.308 20.4134 62.1405 20.0645 61.8753 19.8133C61.5263 19.5481 61.0936 19.4643 60.661 19.4643H58.665V22.0604H60.7447Z" fill="#A0A0A0"/>
<path d="M67.319 19.4643H64.8066V18.25H71.1295V19.4643H68.6171V26.0384H67.2353L67.319 19.4643Z" fill="#A0A0A0"/>
<path d="M79.5318 26.1222C79.0153 26.1222 78.4989 26.0385 77.9685 25.7733C77.0194 25.3406 76.2378 24.6427 75.8888 23.6936C75.7213 23.1771 75.5399 22.6607 75.6236 22.1303C75.6236 21.6139 75.7074 21.0975 75.8888 20.5671C76.2378 19.6179 77.0194 18.8363 77.9685 18.4036C78.485 18.2361 79.0014 18.0547 79.6155 18.0547C79.9645 18.0547 80.3134 18.0547 80.5646 18.1384C80.8298 18.2222 81.0811 18.3059 81.3463 18.4036C81.6115 18.4874 81.779 18.6688 82.0441 18.7526C82.2116 18.9201 82.4768 19.1015 82.6443 19.269L81.779 20.3019C81.5138 20.0367 81.1788 19.7854 80.8298 19.604C80.4809 19.4365 80.0482 19.3388 79.6155 19.3388C79.2666 19.3388 78.9176 19.4225 78.5827 19.5063C78.2337 19.6738 77.9825 19.8552 77.7173 20.1065C77.4521 20.3717 77.2846 20.6229 77.2009 20.9718C77.1171 21.3208 77.0334 21.6697 77.0334 22.0047C77.0334 22.3536 77.1171 22.7026 77.2009 23.0376C77.2846 23.3725 77.466 23.6377 77.7173 23.9029C77.9825 24.1681 78.2337 24.3356 78.5827 24.5031C78.9316 24.6706 79.2805 24.7683 79.6155 24.6706C80.0482 24.6706 80.4809 24.5869 80.8298 24.4054C81.1788 24.2379 81.5277 23.9727 81.8627 23.6238L82.7281 24.4892C82.5606 24.6566 82.2954 24.9218 82.1279 25.0893C81.8627 25.2568 81.6952 25.4383 81.43 25.522C81.1648 25.6058 80.9136 25.7872 80.5646 25.7872C80.2157 26.1222 79.8668 26.1222 79.5318 26.1222Z" fill="#A0A0A0"/>
<path d="M84.1104 18.25H85.4084V21.4463H89.1351V18.25H90.5169V26.0384H89.1351V22.7444H85.4084V26.0384H84.1104V18.25Z" fill="#A0A0A0"/>
<path d="M95.2759 18.166H96.574L99.9517 25.9544H98.4862L97.7045 24.0561H94.0755L93.2939 25.9544H91.9121L95.2759 18.166ZM97.1881 22.9256L95.89 19.813L94.592 22.9256H97.1881Z" fill="#A0A0A0"/>
<path d="M101.334 18.25H102.73V26.0384H101.334V18.25Z" fill="#A0A0A0"/>
<path d="M104.795 18.25H106.009L110.169 23.6097V18.25H111.55V26.0384H110.42L106.191 20.4972V26.0384H104.795V18.25Z" fill="#A0A0A0"/>
<path d="M16.2621 25.5218V28.8996L13.317 30.6303L10.4557 28.8996V25.5218L13.317 27.2526L16.2621 25.5218ZM0.503906 13.8393L3.36522 15.57V21.3625L8.29227 24.3075V27.6853L0.503906 23.0932V13.8393ZM26.1301 13.8393V23.1072L18.258 27.6992V24.3215L23.1851 21.3764V15.584L26.1301 13.8393ZM18.2441 9.24724L21.1891 10.978V14.3557L16.2621 17.3008V23.177L13.4008 24.9077L10.5534 23.177V17.2868L5.44491 14.3418V10.964L8.38997 9.23328L13.317 12.1783L18.2441 9.24724ZM5.44491 16.7704L8.30622 18.5012V21.8789L5.44491 20.1482V16.7704ZM21.1891 16.7704V20.1482L18.3278 21.8789V18.5012L21.1891 16.7704ZM3.36522 6.30218L6.31028 8.03293L3.36522 9.76367V13.1414L0.503906 11.4107V8.03293L3.36522 6.30218ZM23.2688 6.30218L26.2139 8.03293V11.4107L23.2688 13.1414V9.76367L20.4075 8.03293L23.2688 6.30218ZM13.317 6.30218L16.2621 8.03293L13.317 9.76367L10.4557 8.03293L13.317 6.30218ZM13.317 0.509766L21.1891 5.10183L18.3278 6.83257L13.4008 3.88751L8.37601 6.83257L5.5147 5.10183L13.317 0.509766Z" fill="#A0A0A0"/>
</g>
<defs>
<clipPath id="clip0_1931_8813">
<rect width="111.103" height="30.1485" fill="white" transform="translate(0.448242 0.486328)"/>
</clipPath>
</defs>
</svg>
