<svg width="104" height="22" viewBox="0 0 104 22" fill="none" xmlns="http://www.w3.org/2000/svg">
<path d="M102.509 5.91569L98.5958 3.03516H84.1168L83.1748 5.91569H90.8128L86.7113 18.3505H89.8708L93.958 5.91569H102.509Z" fill="#A0A0A0"/>
<path d="M48.4777 3.03516L44.5498 5.91569H59.3624L60.319 3.03516H48.4777Z" fill="#A0A0A0"/>
<path d="M44.5487 5.91797L40.4473 18.3527H43.6067L47.0998 7.75751L44.5487 5.91797Z" fill="#A0A0A0"/>
<path d="M60.3192 3.03516L56.0435 15.9975L57.5364 15.8835L51.4057 11.306H46.8545L55.9419 18.3505H58.4203L62.8699 4.8747L60.3192 3.03516Z" fill="#A0A0A0"/>
<path d="M21.882 10.5502L25.6068 8.73919L26.8822 4.8747L24.3313 3.03516H7.28696L3.34473 5.91569H23.3748L22.3168 9.16698H14.2873L13.5047 11.5199H21.5341L19.2876 18.3505L23.0414 16.5109L24.3893 12.4183L21.8675 10.593L21.882 10.5502Z" fill="#A0A0A0"/>
<path d="M9.01169 15.4161L11.3306 8.31456L8.75081 6.41797L4.89551 18.3536H19.2876L20.2442 15.4161H9.01169Z" fill="#A0A0A0"/>
<path d="M31.7226 4.6208L29.1717 2.78125L25.0411 15.2873L24.6787 16.3853L27.389 18.3532H38.839L39.8099 15.4157H28.1572L31.7226 4.6208Z" fill="#A0A0A0"/>
<path d="M66.4066 9.24057L66.9138 7.74325L64.3773 5.91797L62.9282 10.2816L65.45 12.0926V12.1068H76.755L75.668 15.4152H61.2759L60.3193 18.3527H74.6968L78.465 16.5132L80.3204 10.8947L77.9867 9.21203L66.4066 9.24057Z" fill="#A0A0A0"/>
<path d="M68.2902 3.03516L64.377 5.91569H81.6099L82.5664 3.03516H68.2902Z" fill="#A0A0A0"/>
</svg>
