<svg width="30" height="31" viewBox="0 0 30 31" fill="none" xmlns="http://www.w3.org/2000/svg">
<g clip-path="url(#clip0_1931_8899)">
<path fill-rule="evenodd" clip-rule="evenodd" d="M15 0.560547C23.2849 0.560547 30 7.27569 30 15.5605C30 23.8454 23.2849 30.5605 15 30.5605C6.71514 30.5605 0 23.8454 0 15.5605C0 7.27569 6.71514 0.560547 15 0.560547Z" fill="#F0B90B"/>
<path d="M8.24399 15.5599L8.25481 19.5263L11.625 21.5094V23.8316L6.28245 20.6981V14.4001L8.24399 15.5599ZM8.24399 11.5936V13.9049L6.28125 12.7438V10.4325L8.24399 9.27148L10.2163 10.4325L8.24399 11.5936ZM13.0325 10.4325L14.9952 9.27148L16.9675 10.4325L14.9952 11.5936L13.0325 10.4325Z" fill="white"/>
<path d="M9.66211 18.7042V16.3821L11.6248 17.5431V19.8544L9.66211 18.7042ZM13.0323 22.3412L14.995 23.5022L16.9674 22.3412V24.6525L14.995 25.8135L13.0323 24.6525V22.3412ZM19.7823 10.4325L21.745 9.27148L23.7174 10.4325V12.7438L21.745 13.9049V11.5936L19.7823 10.4325ZM21.745 19.5263L21.7558 15.5599L23.7186 14.3989V20.6969L18.376 23.8304V21.5082L21.745 19.5263Z" fill="white"/>
<path d="M20.3377 18.7049L18.375 19.8551V17.5439L20.3377 16.3828V18.7049Z" fill="white"/>
<path d="M20.3376 12.416L20.3484 14.7381L16.9686 16.7213V20.6973L15.0059 21.8475L13.0431 20.6973V16.7213L9.66331 14.7381V12.416L11.6345 11.255L14.9938 13.2477L18.3736 11.255L20.346 12.416H20.3376ZM9.66211 8.45087L14.995 5.30664L20.3376 8.45087L18.3748 9.61193L14.995 7.61914L11.6248 9.61193L9.66211 8.45087Z" fill="white"/>
</g>
<defs>
<clipPath id="clip0_1931_8899">
<rect width="30" height="30" fill="white" transform="translate(0 0.560547)"/>
</clipPath>
</defs>
</svg>
