<svg width="30" height="31" viewBox="0 0 30 31" fill="none" xmlns="http://www.w3.org/2000/svg">
<g clip-path="url(#clip0_1931_8909)">
<path d="M15 30.5605C23.2843 30.5605 30 23.8448 30 15.5605C30 7.27628 23.2843 0.560547 15 0.560547C6.71573 0.560547 0 7.27628 0 15.5605C0 23.8448 6.71573 30.5605 15 30.5605Z" fill="url(#paint0_linear_1931_8909)"/>
<path fill-rule="evenodd" clip-rule="evenodd" d="M14.9558 25.5228C12.0365 25.5206 9.68495 24.8201 8.04191 23.5619C6.37916 22.2885 5.49707 20.4816 5.49707 18.437C5.49707 16.4668 6.37723 15.0462 7.3731 14.086C8.15357 13.3334 9.01482 12.8515 9.61451 12.5742C9.47891 12.158 9.3097 11.6132 9.15832 11.0504C8.95579 10.2974 8.75707 9.41383 8.75707 8.76639C8.75707 8.00005 8.92416 7.23042 9.37466 6.63239C9.85063 6.00058 10.5672 5.66211 11.4292 5.66211C12.1029 5.66211 12.6749 5.91198 13.1227 6.34311C13.5507 6.75517 13.8356 7.30245 14.0323 7.87292C14.3779 8.87533 14.5125 10.1347 14.5502 11.3915H15.3759C15.4137 10.1347 15.5482 8.87533 15.8939 7.87292C16.0906 7.30245 16.3754 6.75517 16.8035 6.34311C17.2513 5.91198 17.8232 5.66211 18.4969 5.66211C19.359 5.66211 20.0755 6.00058 20.5515 6.63239C21.002 7.23042 21.1691 8.00005 21.1691 8.76639C21.1691 9.41383 20.9704 10.2974 20.7678 11.0504C20.6164 11.6132 20.4472 12.158 20.3116 12.5742C20.9113 12.8515 21.7726 13.3334 22.553 14.086C23.5489 15.0462 24.429 16.4668 24.429 18.437C24.429 20.4816 23.547 22.2885 21.8842 23.5619C20.2412 24.8201 17.8897 25.5206 14.9704 25.5228H14.9558Z" fill="#633001"/>
<path d="M11.4289 6.39062C10.1664 6.39062 9.58516 7.34216 9.58516 8.65813C9.58516 9.70409 10.2605 11.7989 10.5375 12.6144C10.5999 12.7978 10.5019 12.9988 10.3234 13.0699C9.31145 13.473 6.3252 14.9488 6.3252 18.3287C6.3252 21.889 9.35988 24.5735 14.9561 24.5778C14.9584 24.5778 14.9606 24.5778 14.9628 24.5778C14.965 24.5778 14.9673 24.5778 14.9695 24.5778C20.5657 24.5735 23.6004 21.889 23.6004 18.3287C23.6004 14.9488 20.6142 13.473 19.6023 13.0699C19.4237 12.9988 19.3258 12.7978 19.3881 12.6144C19.6652 11.7989 20.3404 9.70409 20.3404 8.65813C20.3404 7.34216 19.7593 6.39062 18.4967 6.39062C16.6793 6.39062 16.2262 8.99134 16.1939 11.7826C16.1918 11.9689 16.0426 12.1201 15.8582 12.1201H14.0675C13.883 12.1201 13.7339 11.9689 13.7317 11.7826C13.6994 8.99134 13.2464 6.39062 11.4289 6.39062Z" fill="#D1884F"/>
<path d="M14.9695 23.4378C10.8577 23.4378 6.33229 21.2143 6.3252 18.3359C6.3252 18.3404 6.3252 18.3449 6.3252 18.3494C6.3252 21.9126 9.36473 24.5985 14.9695 24.5985C20.5743 24.5985 23.6138 21.9126 23.6138 18.3494C23.6138 18.3449 23.6138 18.3404 23.6138 18.3359C23.6067 21.2143 19.0814 23.4378 14.9695 23.4378Z" fill="#FEDC90"/>
<path d="M12.6851 17.4506C12.6851 18.4223 12.2305 18.9285 11.6697 18.9285C11.1089 18.9285 10.6543 18.4223 10.6543 17.4506C10.6543 16.4788 11.1089 15.9727 11.6697 15.9727C12.2305 15.9727 12.6851 16.4788 12.6851 17.4506Z" fill="#633001"/>
<path d="M19.2847 17.4506C19.2847 18.4223 18.8301 18.9285 18.2693 18.9285C17.7085 18.9285 17.2539 18.4223 17.2539 17.4506C17.2539 16.4788 17.7085 15.9727 18.2693 15.9727C18.8301 15.9727 19.2847 16.4788 19.2847 17.4506Z" fill="#633001"/>
</g>
<defs>
<linearGradient id="paint0_linear_1931_8909" x1="15" y1="0.560547" x2="15" y2="30.5605" gradientUnits="userSpaceOnUse">
<stop stop-color="#53DEE9"/>
<stop offset="1" stop-color="#1FC7D4"/>
</linearGradient>
<clipPath id="clip0_1931_8909">
<rect width="30" height="30" fill="white" transform="translate(0 0.560547)"/>
</clipPath>
</defs>
</svg>
