<svg width="122" height="29" viewBox="0 0 122 29" fill="none" xmlns="http://www.w3.org/2000/svg">
<g clip-path="url(#clip0_1931_8923)">
<path d="M14.752 28.3965C22.3928 28.3965 28.5869 22.2024 28.5869 14.5615C28.5869 6.92069 22.3928 0.726562 14.752 0.726562C7.11111 0.726562 0.916992 6.92069 0.916992 14.5615C0.916992 22.2024 7.11111 28.3965 14.752 28.3965Z" fill="#2E3148"/>
<path d="M14.7504 22.5886C19.1839 22.5886 22.7781 18.9945 22.7781 14.5609C22.7781 10.1273 19.1839 6.5332 14.7504 6.5332C10.3168 6.5332 6.72266 10.1273 6.72266 14.5609C6.72266 18.9945 10.3168 22.5886 14.7504 22.5886Z" fill="#1B1E36"/>
<path d="M14.7805 2.49219C13.2871 2.49219 12.0762 7.90885 12.0762 14.5907C12.0762 21.2725 13.2871 26.6892 14.7805 26.6892C16.2739 26.6892 17.4849 21.2725 17.4849 14.5907C17.4849 7.90885 16.2739 2.49219 14.7805 2.49219ZM14.9672 26.0064C14.7965 26.2342 14.6257 26.0633 14.6257 26.0633C13.9379 25.2664 13.594 23.786 13.594 23.786C12.3911 19.9145 12.6774 11.6021 12.6774 11.6021C13.2427 5.00296 14.2712 3.44403 14.6211 3.09794C14.6569 3.06261 14.7039 3.04103 14.754 3.03698C14.8041 3.03293 14.854 3.04668 14.895 3.0758C15.4028 3.43562 15.8287 4.94042 15.8287 4.94042C17.0863 9.609 16.9724 13.9929 16.9724 13.9929C17.0863 17.8075 16.3422 22.0775 16.3422 22.0775C15.7694 25.3226 14.9672 26.0064 14.9672 26.0064Z" fill="#6F7390"/>
<path d="M25.275 8.56578C24.5314 7.26994 19.2309 8.91531 13.4323 12.2403C7.63364 15.5654 3.54336 19.3116 4.28636 20.6068C5.02935 21.9021 10.3305 20.2573 16.1291 16.9323C21.9277 13.6072 26.018 9.86107 25.275 8.56578ZM4.97235 20.4291C4.68768 20.3932 4.75199 20.1593 4.75199 20.1593C5.10118 19.1663 6.2124 18.1313 6.2124 18.1313C8.97309 15.1611 16.3262 11.273 16.3262 11.273C22.331 8.47923 24.1962 8.5971 24.6693 8.72737C24.7179 8.74093 24.7601 8.77124 24.7885 8.81293C24.8168 8.85462 24.8295 8.905 24.8243 8.95515C24.7674 9.57496 23.6713 10.6928 23.6713 10.6928C20.25 14.1083 16.3905 16.1915 16.3905 16.1915C13.1384 18.1893 9.06429 19.6678 9.06429 19.6678C5.96426 20.7849 4.97246 20.4291 4.97246 20.4291H4.97235Z" fill="#6F7390"/>
<path d="M25.247 20.6499C25.9963 19.3575 21.9163 15.5942 16.138 12.2442C10.3598 8.8941 5.05987 7.22837 4.31124 8.52299C3.5626 9.81761 7.64192 13.5787 13.4235 16.9288C19.2051 20.2788 24.4983 21.9447 25.247 20.6499ZM4.80774 9.02238C4.69706 8.75996 4.93071 8.69676 4.93071 8.69676C5.96512 8.50141 7.41812 8.94656 7.41812 8.94656C11.371 9.84672 18.4197 14.262 18.4197 14.262C23.8466 18.0595 24.679 19.7322 24.8037 20.207C24.8164 20.2557 24.8114 20.3073 24.7898 20.3527C24.7681 20.3982 24.7311 20.4345 24.6853 20.4553C24.1194 20.7144 22.6037 20.3283 22.6037 20.3283C17.9323 19.0757 14.1963 16.7808 14.1963 16.7808C10.8395 14.9703 7.52017 12.1845 7.52017 12.1845C4.998 10.0609 4.80852 9.02525 4.80852 9.02525L4.80774 9.02238Z" fill="#6F7390"/>
<path d="M14.7534 15.9814C15.5395 15.9814 16.1768 15.3442 16.1768 14.5581C16.1768 13.772 15.5395 13.1348 14.7534 13.1348C13.9673 13.1348 13.3301 13.772 13.3301 14.5581C13.3301 15.3442 13.9673 15.9814 14.7534 15.9814Z" fill="#B7B9C8"/>
<path d="M20.5873 9.9502C21.0432 9.9502 21.4128 9.56785 21.4128 9.09619C21.4128 8.62454 21.0432 8.24219 20.5873 8.24219C20.1313 8.24219 19.7617 8.62454 19.7617 9.09619C19.7617 9.56785 20.1313 9.9502 20.5873 9.9502Z" fill="#B7B9C8"/>
<path d="M7.0365 12.8506C7.49244 12.8506 7.86206 12.4682 7.86206 11.9966C7.86206 11.5249 7.49244 11.1426 7.0365 11.1426C6.58055 11.1426 6.21094 11.5249 6.21094 11.9966C6.21094 12.4682 6.58055 12.8506 7.0365 12.8506Z" fill="#B7B9C8"/>
<path d="M13.0736 23.3272C13.5296 23.3272 13.8992 22.9448 13.8992 22.4731C13.8992 22.0015 13.5296 21.6191 13.0736 21.6191C12.6177 21.6191 12.248 22.0015 12.248 22.4731C12.248 22.9448 12.6177 23.3272 13.0736 23.3272Z" fill="#B7B9C8"/>
</g>
<g clip-path="url(#clip1_1931_8923)">
<path d="M42.5115 17.9217L41.3034 16.6989C40.8467 17.1262 40.3752 17.465 39.9038 17.7155C39.4323 17.9659 38.8725 18.0985 38.2095 18.0985C37.6939 18.0985 37.2224 17.9954 36.7952 17.8039C36.3532 17.5976 35.9849 17.3324 35.6608 16.9788C35.3366 16.6253 35.1009 16.2275 34.9241 15.756C34.7473 15.2846 34.6589 14.7984 34.6589 14.2533C34.6589 13.7229 34.7473 13.222 34.9241 12.7653C35.1009 12.3086 35.3366 11.9108 35.6608 11.5572C35.9849 11.2183 36.3532 10.9384 36.7952 10.7469C37.2372 10.5406 37.7086 10.4522 38.2095 10.4522C38.8283 10.4522 39.3734 10.5701 39.8448 10.8206C40.331 11.071 40.7877 11.3951 41.215 11.7929L42.4231 10.3933C42.1726 10.1429 41.8927 9.92187 41.6128 9.71561C41.3329 9.50935 41.0087 9.33256 40.6699 9.18523C40.331 9.0379 39.9627 8.92004 39.5502 8.84638C39.1524 8.75798 38.6957 8.72852 38.2095 8.72852C37.3845 8.72852 36.6478 8.87584 35.9701 9.1705C35.2924 9.46515 34.7179 9.86294 34.2169 10.3639C33.7308 10.8648 33.3477 11.4541 33.0678 12.1318C32.8026 12.8095 32.6553 13.5314 32.6553 14.2975C32.6553 15.0783 32.7879 15.8002 33.0678 16.4779C33.3477 17.1556 33.7308 17.745 34.2169 18.2311C34.7031 18.732 35.2777 19.1151 35.9407 19.4097C36.6036 19.7044 37.3256 19.837 38.1211 19.837C38.622 19.837 39.0787 19.7928 39.4913 19.7044C39.9038 19.616 40.2868 19.4834 40.6404 19.3214C40.994 19.1593 41.3181 18.953 41.6128 18.7173C41.9369 18.4816 42.2316 18.2164 42.5115 17.9217Z" fill="#A0A0A0"/>
<path d="M66.8646 11.7493C66.8646 11.3957 67.012 11.0863 67.3213 10.8359C67.6307 10.5854 68.058 10.4675 68.6031 10.4675C69.0893 10.4675 69.5755 10.5559 70.0469 10.7475C70.5183 10.939 71.0045 11.2042 71.4907 11.5725L72.4925 10.1434C71.9474 9.70143 71.3581 9.37731 70.7246 9.14159C70.1058 8.90587 69.3987 8.80273 68.6178 8.80273C68.0874 8.80273 67.6013 8.8764 67.1593 9.02373C66.7173 9.17105 66.3342 9.37731 66.0101 9.65724C65.686 9.93716 65.4356 10.2613 65.2588 10.6443C65.082 11.0274 64.9936 11.4546 64.9936 11.9261C64.9936 12.427 65.0672 12.8542 65.2293 13.1931C65.3914 13.5467 65.6123 13.8413 65.9217 14.0771C66.2164 14.3275 66.5994 14.519 67.0414 14.6958C67.4834 14.8579 67.999 15.0052 68.5589 15.1378C69.0598 15.2557 69.4576 15.3735 69.7817 15.4914C70.0911 15.6093 70.3416 15.7271 70.5183 15.845C70.6951 15.9776 70.813 16.1102 70.8867 16.2722C70.9456 16.4196 70.9898 16.5964 70.9898 16.7879C70.9898 17.2004 70.813 17.5392 70.4741 17.7897C70.1353 18.0402 69.6786 18.158 69.0893 18.158C68.4116 18.158 67.8223 18.0402 67.2919 17.8044C66.7615 17.5687 66.2459 17.2151 65.7155 16.7731L64.5811 18.1138C65.2293 18.6884 65.9217 19.1304 66.6731 19.4103C67.4245 19.6902 68.22 19.8376 69.0451 19.8376C69.6049 19.8376 70.1206 19.7639 70.592 19.6166C71.0635 19.4692 71.4612 19.263 71.7854 18.9831C72.1242 18.7031 72.3747 18.3643 72.5662 17.9665C72.7577 17.5687 72.8461 17.112 72.8461 16.6111C72.8461 16.1691 72.7725 15.7713 72.6251 15.4472C72.4778 15.1083 72.2568 14.8284 71.9769 14.578C71.697 14.3275 71.3286 14.1213 70.9014 13.9445C70.4741 13.7677 69.9732 13.6056 69.4134 13.473C68.8977 13.3552 68.4852 13.2373 68.1464 13.1194C67.8223 13.0016 67.5571 12.8837 67.3655 12.7511C67.174 12.6185 67.0414 12.4712 66.9825 12.3239C66.8941 12.1471 66.8646 11.9703 66.8646 11.7493Z" fill="#A0A0A0"/>
<path d="M87.7537 11.8952V19.5562H89.61V8.875H87.6063L84.3504 13.9283L81.0945 8.875H79.0908V19.5562H80.9619V11.9247L84.3062 16.9338H84.3651L87.7537 11.8952Z" fill="#A0A0A0"/>
<path d="M105.289 14.279C105.289 14.7947 105.201 15.2956 105.024 15.767C104.847 16.2385 104.597 16.6363 104.287 16.9751C103.978 17.314 103.595 17.5939 103.153 17.7854C102.711 17.9917 102.225 18.0801 101.694 18.0801C101.164 18.0801 100.678 17.9769 100.221 17.7707C99.7792 17.5644 99.3814 17.2845 99.0721 16.9456C98.7479 16.5921 98.4975 16.1943 98.3207 15.7228C98.1439 15.2514 98.0555 14.7652 98.0555 14.2348C98.0555 13.7192 98.1439 13.2183 98.3207 12.7468C98.4975 12.2754 98.7479 11.8776 99.0573 11.5387C99.3667 11.1999 99.7498 10.92 100.192 10.7284C100.634 10.5222 101.12 10.4338 101.65 10.4338C102.181 10.4338 102.667 10.5369 103.124 10.7432C103.566 10.9494 103.963 11.2293 104.273 11.5682C104.597 11.9218 104.847 12.3196 105.024 12.791C105.201 13.2625 105.289 13.7486 105.289 14.279ZM107.263 14.2496C107.263 13.4982 107.131 12.7763 106.851 12.0986C106.571 11.4209 106.188 10.8316 105.702 10.3306C105.216 9.82973 104.626 9.43195 103.934 9.13729C103.256 8.84264 102.49 8.69531 101.665 8.69531C100.84 8.69531 100.089 8.84264 99.3962 9.13729C98.7185 9.43195 98.1144 9.82973 97.6135 10.3454C97.1126 10.8463 96.7295 11.4356 96.4496 12.1133C96.1697 12.791 96.0371 13.4982 96.0371 14.2643C96.0371 15.0157 96.1697 15.7376 96.4496 16.4153C96.7295 17.093 97.1126 17.6823 97.5988 18.1832C98.085 18.6841 98.6743 19.0819 99.3667 19.3765C100.044 19.6712 100.811 19.8185 101.636 19.8185C102.461 19.8185 103.212 19.6712 103.904 19.3765C104.582 19.0819 105.186 18.6841 105.687 18.1685C106.188 17.6675 106.571 17.0782 106.851 16.4005C107.131 15.7228 107.263 15.0009 107.263 14.2496Z" fill="#A0A0A0"/>
<path d="M115.097 11.7493C115.097 11.3957 115.244 11.0863 115.554 10.8359C115.863 10.5854 116.29 10.4675 116.836 10.4675C117.322 10.4675 117.808 10.5559 118.279 10.7475C118.751 10.939 119.237 11.2042 119.723 11.5725L120.725 10.1434C120.18 9.70143 119.591 9.37731 118.957 9.14159C118.338 8.90587 117.631 8.80273 116.85 8.80273C116.32 8.80273 115.834 8.8764 115.392 9.02373C114.95 9.17105 114.567 9.37731 114.243 9.65724C113.918 9.93716 113.683 10.2613 113.491 10.6443C113.314 11.0274 113.226 11.4546 113.226 11.9261C113.226 12.427 113.3 12.8542 113.462 13.1931C113.624 13.5467 113.845 13.8413 114.154 14.0771C114.449 14.3275 114.832 14.519 115.274 14.6958C115.716 14.8579 116.231 15.0052 116.791 15.1378C117.292 15.2557 117.69 15.3735 118.014 15.4914C118.324 15.6093 118.574 15.7271 118.751 15.845C118.928 15.9776 119.045 16.1102 119.119 16.2722C119.178 16.4196 119.222 16.5964 119.222 16.7879C119.222 17.2004 119.045 17.5392 118.707 17.7897C118.368 18.0402 117.911 18.158 117.322 18.158C116.644 18.158 116.055 18.0402 115.524 17.8044C114.994 17.5687 114.478 17.2151 113.948 16.7731L112.813 18.1138C113.447 18.6884 114.154 19.1304 114.906 19.4103C115.657 19.6902 116.452 19.8376 117.277 19.8376C117.837 19.8376 118.353 19.7639 118.824 19.6166C119.296 19.4692 119.694 19.263 120.018 18.9831C120.357 18.7031 120.607 18.3643 120.799 17.9665C120.99 17.5687 121.079 17.112 121.079 16.6111C121.079 16.1691 121.005 15.7713 120.858 15.4472C120.71 15.1083 120.489 14.8284 120.209 14.578C119.929 14.3275 119.561 14.1213 119.134 13.9445C118.707 13.7677 118.206 13.6056 117.646 13.473C117.13 13.3552 116.718 13.2373 116.379 13.1194C116.055 13.0016 115.789 12.8837 115.598 12.7511C115.406 12.6185 115.274 12.4712 115.215 12.3239C115.127 12.1471 115.097 11.9703 115.097 11.7493Z" fill="#A0A0A0"/>
<path d="M55.3005 11.0266L50.1882 16.1242C50.1293 15.9916 50.0556 15.859 50.0114 15.7264C49.8346 15.2697 49.7462 14.7688 49.7462 14.2531C49.7462 13.7375 49.8346 13.2366 50.0114 12.7798C50.1882 12.3231 50.4387 11.9106 50.748 11.5718C51.0574 11.2329 51.4405 10.9677 51.8825 10.7615C52.3244 10.5699 52.8106 10.4668 53.341 10.4668C53.8714 10.4668 54.3576 10.5699 54.8143 10.7762C54.9911 10.8351 55.1531 10.9235 55.3005 11.0266ZM54.8437 17.7742C54.4018 17.9658 53.9156 18.0689 53.3852 18.0689C52.8548 18.0689 52.3686 17.9658 51.9119 17.7595C51.7499 17.6858 51.5878 17.5974 51.4405 17.509L56.5527 12.4115C56.6117 12.5441 56.6853 12.6767 56.7295 12.8093C56.9063 13.266 56.9947 13.7669 56.9947 14.2826C56.9947 14.7982 56.9063 15.2991 56.7295 15.7559C56.5527 16.2126 56.3023 16.6251 55.9929 16.9639C55.6688 17.3028 55.3005 17.568 54.8437 17.7742ZM55.6246 19.3506C56.3023 19.056 56.9063 18.6582 57.4072 18.1573C57.9081 17.6564 58.2912 17.0671 58.5711 16.3894C58.851 15.7117 58.9836 15.0045 58.9836 14.2531C58.9836 13.5017 58.851 12.7798 58.5711 12.1169C58.4091 11.7191 58.2028 11.3508 57.9671 11.0119L61.2967 7.69704L59.9707 6.37109L56.6411 9.70069C56.3465 9.49444 56.0224 9.31764 55.6688 9.17031C54.9911 8.87566 54.225 8.72833 53.3999 8.72833C52.5749 8.72833 51.8235 8.87566 51.1311 9.17031C50.4534 9.46497 49.8493 9.86275 49.3484 10.3637C48.8475 10.8646 48.4645 11.4539 48.1845 12.1316C47.9046 12.8093 47.772 13.5165 47.772 14.2678C47.772 15.0192 47.9046 15.7411 48.1845 16.4041C48.3466 16.8019 48.5529 17.1702 48.7886 17.509L45.459 20.8386L46.7849 22.1646L50.1145 18.835C50.4092 19.0413 50.7333 19.218 51.0869 19.3654C51.7646 19.66 52.5307 19.8074 53.3557 19.8074C54.1808 19.7926 54.9321 19.6453 55.6246 19.3506Z" fill="#A0A0A0"/>
</g>
<defs>
<clipPath id="clip0_1931_8923">
<rect width="27.6699" height="27.6699" fill="white" transform="translate(0.916992 0.726562)"/>
</clipPath>
<clipPath id="clip1_1931_8923">
<rect width="88.5438" height="15.9114" fill="white" transform="translate(32.54 6.26172)"/>
</clipPath>
</defs>
</svg>
