<svg width="30" height="31" viewBox="0 0 30 31" fill="none" xmlns="http://www.w3.org/2000/svg">
<rect y="0.460938" width="30" height="30" rx="15" fill="#EDEFF0"/>
<g clip-path="url(#clip0_2165_3307)">
<path d="M15.0209 19.3575C14.9574 19.3791 14.9213 19.3239 14.8781 19.2985C12.763 18.0502 10.6502 16.801 8.53977 15.551C8.51934 15.5406 8.49812 15.5319 8.47632 15.5249V15.497L8.51376 15.4754C8.56691 15.4615 8.61924 15.4445 8.67049 15.4247L13.6548 13.1569C14.0989 12.9544 14.5431 12.7552 14.9873 12.5547H15.019C15.019 12.6181 15.019 12.6746 15.019 12.7349C15.0207 14.9427 15.0213 17.1502 15.0209 19.3575Z" fill="#393939"/>
<path d="M15.024 12.5582H14.9923C14.9923 12.4947 14.9987 12.4313 14.9987 12.3646C14.9987 9.88489 14.9987 7.40492 14.9987 4.92474C14.9914 4.86104 14.9957 4.79654 15.0113 4.73438H15.0247C15.2855 5.11954 15.5126 5.52564 15.7525 5.92349C17.6527 9.07543 19.5519 12.227 21.45 15.378C21.4684 15.4091 21.483 15.4415 21.4995 15.4758C21.4457 15.4643 21.3929 15.4488 21.3415 15.4294C20.9931 15.2721 20.6435 15.1122 20.2983 14.9516C19.7577 14.7042 19.2168 14.4571 18.6758 14.2105L16.0691 13.0296C15.722 12.8697 15.373 12.7143 15.024 12.5582Z" fill="#343434"/>
<path d="M15.0134 4.72851C14.9977 4.79067 14.9934 4.85517 15.0007 4.91887C15.0007 7.39862 15.0007 9.87859 15.0007 12.3588C15.0007 12.4222 14.9969 12.4857 14.9944 12.5523C14.5502 12.7528 14.106 12.9521 13.6619 13.1545L8.67761 15.4223C8.62636 15.4422 8.57403 15.4591 8.52087 15.4731C8.66491 15.1736 8.8521 14.902 9.02279 14.6152C11.0004 11.3279 12.9795 8.0412 14.9601 4.75516C14.9732 4.73695 14.9874 4.71958 15.0026 4.70312L15.0134 4.72851Z" fill="#8C8C8C"/>
<path d="M15.0242 12.5586C15.3732 12.7147 15.7222 12.8702 16.0705 13.0275L18.6772 14.2084C19.2186 14.4546 19.7595 14.7016 20.2997 14.9495C20.6474 15.1088 20.9977 15.27 21.3429 15.4273C21.3943 15.4467 21.4471 15.4622 21.5009 15.4736C21.5643 15.553 21.4704 15.5561 21.4418 15.5733C20.9006 15.8969 20.3568 16.216 19.8143 16.5371C18.2571 17.4585 16.7004 18.3796 15.1441 19.3005C15.1048 19.3234 15.0622 19.3405 15.021 19.3602C15.021 17.1533 15.021 14.9461 15.021 12.7388C15.0216 12.6785 15.0235 12.6189 15.0242 12.5586Z" fill="#141414"/>
<path d="M14.9987 20.6102L19.0756 18.2072C19.8539 17.7478 20.6319 17.288 21.4094 16.8278L21.4798 16.7891C21.4868 16.8525 21.443 16.8861 21.4164 16.9229C19.6397 19.4277 17.863 21.9315 16.0863 24.4346C15.75 24.9092 15.4143 25.3864 15.0748 25.8572C15.0571 25.8819 15.0298 25.9981 14.9752 25.875C15.0184 25.8382 14.9993 25.7887 14.9993 25.748C14.9998 24.0348 14.9995 22.3222 14.9987 20.6102Z" fill="#3D3D3C"/>
<path d="M14.9983 20.6109C14.9983 22.3229 14.9983 24.0344 14.9983 25.7455C14.9983 25.7893 15.0174 25.8388 14.9742 25.8724C14.8835 25.8179 14.8442 25.7201 14.7839 25.6396C12.7238 22.7376 10.6647 19.8353 8.60669 16.9325C8.58067 16.8957 8.55656 16.8563 8.52991 16.8157C8.58321 16.7846 8.61176 16.8272 8.64286 16.8456C10.7262 18.0757 12.8092 19.3069 14.8917 20.5392C14.9305 20.5633 14.9634 20.588 14.9983 20.6109Z" fill="#8C8C8C"/>
<path d="M15.014 4.7287L14.9988 4.70523C15.0267 4.68746 15.0229 4.71347 15.0273 4.7268L15.014 4.7287Z" fill="#393939"/>
</g>
<defs>
<clipPath id="clip0_2165_3307">
<rect width="13.0435" height="21.2321" fill="white" transform="translate(8.47827 4.69922)"/>
</clipPath>
</defs>
</svg>
