<svg width="131" height="29" viewBox="0 0 131 29" fill="none" xmlns="http://www.w3.org/2000/svg">
<g clip-path="url(#clip0_1931_9041)">
<path d="M7.60629 12.0713C9.47912 10.1857 11.1682 8.48652 12.9194 6.72266C13.6366 7.43225 14.3513 8.13298 15.0596 8.84005C16.0125 9.78913 16.9337 10.7724 17.917 11.6886C19.5656 13.2244 19.321 16.0678 17.9145 17.4123C14.4894 20.6878 11.1948 24.0989 7.84451 27.4518C6.34675 28.9521 3.82388 28.9255 2.32738 27.4049C1.63299 26.6991 0.944933 25.987 0.225198 25.3078C-0.0827174 25.0164 -0.0725803 24.8415 0.225198 24.5462C3.34997 21.4468 6.46967 18.3411 9.57289 15.2201C10.3471 14.4408 10.3801 14.6638 9.59443 13.8985C8.94819 13.27 8.26774 12.6782 7.60502 12.0725L7.60629 12.0713Z" fill="#A0A0A0"/>
<path d="M75.3998 21.9521C75.3998 21.6087 75.3998 21.3591 75.3998 21.1107C75.3998 17.9226 75.3909 14.7345 75.4125 11.5464C75.4163 11.0509 75.2896 10.8608 74.7764 10.9065C74.2758 10.9508 73.7677 10.9166 73.1709 10.9166V21.9078H70.3515V10.9597H68.1011V21.9585C67.0088 21.8406 65.9545 22.2423 65.0561 21.4427C64.6025 21.0385 64.3554 20.5608 64.3554 19.9551C64.3554 16.3653 64.3453 12.7768 64.3579 9.18695C64.3617 7.97683 65.198 7.17599 66.4031 7.17473C69.9714 7.17092 73.5396 7.17092 77.1079 7.17473C78.2939 7.17473 79.1036 7.94135 79.11 9.1464C79.129 12.7565 79.1252 16.3666 79.11 19.9766C79.1062 21.0689 78.3282 21.8672 77.2143 21.947C76.6505 21.9876 76.0815 21.9547 75.3998 21.9547V21.9521Z" fill="#A0A0A0"/>
<path d="M102.109 13.2614H111.305C111.305 14.0496 111.327 14.782 111.279 15.5093C111.272 15.6158 110.919 15.778 110.724 15.7792C108.106 15.7995 105.49 15.7944 102.872 15.797C102.646 15.797 102.419 15.797 102.113 15.797C102.113 16.5433 102.081 17.2149 102.142 17.8789C102.153 18.0018 102.537 18.1805 102.75 18.1817C105.917 18.2007 109.082 18.1957 112.249 18.1957C112.84 18.1957 113.136 18.4935 113.137 19.089C113.137 19.3843 113.143 19.6808 113.136 19.976C113.106 21.0543 112.292 21.9287 111.212 21.935C107.603 21.9578 103.993 21.9654 100.383 21.9375C99.1298 21.9274 98.367 21.0797 98.367 19.8354C98.3645 16.3102 98.3645 12.785 98.3683 9.25981C98.3695 7.95719 99.1539 7.17283 100.45 7.17283C103.975 7.17156 107.501 7.17156 111.026 7.17283C112.338 7.17283 113.148 7.99393 113.141 9.30669C113.135 10.3821 112.6 10.9193 111.535 10.9185C108.644 10.9185 105.752 10.9299 102.859 10.9071C102.301 10.902 102.04 11.0325 102.099 11.642C102.148 12.159 102.109 12.6836 102.109 13.2627V13.2614Z" fill="#A0A0A0"/>
<path d="M85.5791 18.2678C85.5791 19.2752 85.5816 20.1787 85.5791 21.0834C85.5766 21.9539 85.574 21.9577 84.6756 21.9501C84.317 21.9476 83.9584 21.9286 83.6011 21.907C82.6761 21.8525 81.8537 21.0796 81.8486 20.1482C81.8284 16.4114 81.8322 12.6746 81.8499 8.93912C81.8537 8.11674 82.6077 7.21961 83.425 7.21074C86.314 7.18033 89.2133 7.09923 92.0909 7.29437C95.0155 7.49204 96.8909 10.2962 96.5449 13.2879C96.1737 16.5039 94.1374 18.2361 90.7947 18.2691C89.2956 18.2843 87.7966 18.2691 86.2976 18.2691C86.0898 18.2691 85.882 18.2691 85.5791 18.2691V18.2678ZM85.6146 14.5158C87.5102 14.5158 89.3425 14.5183 91.1761 14.5107C91.3408 14.5107 91.5106 14.4588 91.6703 14.4056C92.4331 14.1496 92.9298 13.3298 92.8284 12.5087C92.722 11.6495 92.0947 10.9475 91.2762 10.9311C89.4021 10.8943 87.5267 10.9197 85.6159 10.9197V14.5145L85.6146 14.5158Z" fill="#A0A0A0"/>
<path d="M50.6207 7.17308V18.1592H57.8916V7.21997C58.7127 7.21997 59.4742 7.1338 60.2066 7.24278C61.048 7.36696 61.6626 8.20707 61.6639 9.07886C61.6715 12.7308 61.6715 16.3827 61.6562 20.0358C61.6524 20.9773 60.9378 21.7629 60.0014 21.9074C59.7315 21.9492 59.454 21.9454 59.1803 21.9454C55.9085 21.9467 52.6355 21.8985 49.3637 21.9657C47.8482 21.9974 46.837 21.1281 46.8751 19.4529C46.9511 16.0342 46.8928 12.6142 46.8928 9.19417C46.8928 8.04994 47.7342 7.19209 48.8733 7.17562C49.4182 7.16801 49.9643 7.17435 50.6195 7.17435L50.6207 7.17308Z" fill="#A0A0A0"/>
<path d="M29.435 18.1935H40.4566C40.4566 16.6513 40.4566 15.1612 40.4566 13.671C40.4566 12.5712 40.3844 12.7067 41.4551 12.7004C42.1723 12.6966 42.8908 12.7181 43.6067 12.689C44.0299 12.6725 44.2175 12.7878 44.2137 13.2478C44.1972 15.5046 44.2162 17.7614 44.1997 20.0181C44.1921 21.0521 43.3495 21.9264 42.3066 21.9341C38.7003 21.9581 35.0928 21.9632 31.4852 21.9391C30.1965 21.9303 29.4439 21.0952 29.4363 19.8015C29.4325 19.2984 29.4363 18.7941 29.4363 18.1947L29.435 18.1935Z" fill="#A0A0A0"/>
<path d="M119.548 16.3893H115.864C115.851 16.1485 115.832 15.9432 115.832 15.7392C115.829 13.5661 115.828 11.3929 115.828 9.21979C115.828 7.97926 116.635 7.17209 117.89 7.17082C121.434 7.16702 124.978 7.16702 128.522 7.17082C129.763 7.17209 130.587 7.99446 130.595 9.22359C130.598 9.58219 130.561 9.94459 130.599 10.2981C130.656 10.8278 130.413 10.9254 129.939 10.9228C126.712 10.9051 123.483 10.9254 120.256 10.9C119.708 10.8962 119.522 11.0343 119.536 11.6045C119.574 13.1834 119.548 14.7635 119.548 16.3867V16.3893Z" fill="#A0A0A0"/>
<path d="M4.97842 9.41973C4.58688 8.95723 4.23335 8.48458 3.82406 8.06643C2.65956 6.87785 1.48238 5.69941 0.286203 4.54251C-0.0141097 4.25234 -0.0356511 4.0762 0.270997 3.78476C1.06423 3.03208 1.81057 2.22998 2.60887 1.48363C3.97738 0.203823 6.39889 0.268447 7.73952 1.59261C8.42885 2.27306 9.1207 2.95098 9.80496 3.63524C9.96462 3.7949 10.104 3.9761 10.2548 4.14716C8.53529 5.86541 6.85252 7.54563 4.97842 9.41847V9.41973Z" fill="#A0A0A0"/>
<path d="M115.857 18.2253C117.017 18.2253 118.086 18.2126 119.153 18.243C119.277 18.2468 119.496 18.4863 119.5 18.6219C119.529 19.59 119.526 20.5593 119.498 21.5262C119.494 21.6542 119.298 21.8835 119.191 21.8822C118.522 21.8784 117.837 21.9 117.188 21.7631C116.406 21.5971 115.869 20.79 115.857 19.9765C115.85 19.4303 115.856 18.8855 115.856 18.2253H115.857Z" fill="#A0A0A0"/>
<path d="M40.48 7.21057C41.2365 7.21057 41.9119 7.15481 42.5734 7.22451C43.3603 7.30814 44.0394 8.02787 44.1294 8.83377C44.1902 9.37484 44.1763 9.93112 44.1294 10.4747C44.1167 10.6179 43.8557 10.8447 43.7011 10.8511C42.7748 10.8878 41.8448 10.8916 40.9185 10.8511C40.7664 10.8447 40.5067 10.5647 40.5003 10.4038C40.4623 9.37358 40.4813 8.34086 40.4813 7.21057H40.48Z" fill="#A0A0A0"/>
</g>
<defs>
<clipPath id="clip0_1931_9041">
<rect width="130.607" height="28" fill="white" transform="translate(0 0.560547)"/>
</clipPath>
</defs>
</svg>
