<svg width="131" height="29" viewBox="0 0 131 29" fill="none" xmlns="http://www.w3.org/2000/svg">
<g clip-path="url(#clip0_2165_3947)">
<path d="M7.60678 11.9736C9.47961 10.0881 11.1687 8.38886 12.9199 6.625C13.6371 7.3346 14.3518 8.03533 15.0601 8.74239C16.013 9.69148 16.9342 10.6748 17.9175 11.5909C19.566 13.1267 19.3215 15.9702 17.915 17.3146C14.4899 20.5902 11.1953 24.0013 7.845 27.3541C6.34724 28.8544 3.82436 28.8278 2.32787 27.3073C1.63348 26.6015 0.945422 25.8893 0.225686 25.2101C-0.0822291 24.9187 -0.072092 24.7438 0.225686 24.4486C3.35045 21.3492 6.47015 18.2434 9.57338 15.1224C10.3476 14.3432 10.3805 14.5662 9.59492 13.8008C8.94868 13.1723 8.26823 12.5806 7.60551 11.9749L7.60678 11.9736Z" fill="#F6931A"/>
<path d="M75.4 21.8545C75.4 21.5111 75.4 21.2614 75.4 21.0131C75.4 17.825 75.3912 14.6368 75.4127 11.4487C75.4165 10.9533 75.2898 10.7632 74.7766 10.8088C74.2761 10.8531 73.768 10.8189 73.1711 10.8189V21.8101H70.3518V10.862H68.1013V21.8608C67.009 21.743 65.9548 22.1446 65.0564 21.3451C64.6027 20.9409 64.3556 20.4631 64.3556 19.8574C64.3556 16.2676 64.3455 12.6791 64.3582 9.08929C64.362 7.87917 65.1983 7.07834 66.4033 7.07707C69.9716 7.07327 73.5399 7.07327 77.1081 7.07707C78.2942 7.07707 79.1039 7.84369 79.1102 9.04874C79.1292 12.6588 79.1254 16.2689 79.1102 19.879C79.1064 20.9713 78.3284 21.7696 77.2146 21.8494C76.6507 21.8899 76.0818 21.857 75.4 21.857V21.8545Z" fill="#F6931A"/>
<path d="M102.109 13.1599H111.305C111.305 13.948 111.327 14.6804 111.279 15.4078C111.272 15.5142 110.919 15.6764 110.724 15.6777C108.106 15.698 105.49 15.6929 102.872 15.6954C102.646 15.6954 102.419 15.6954 102.113 15.6954C102.113 16.4418 102.081 17.1133 102.142 17.7773C102.153 17.9002 102.537 18.0789 102.75 18.0802C105.917 18.0992 109.082 18.0941 112.249 18.0941C112.84 18.0941 113.136 18.3919 113.137 18.9875C113.137 19.2827 113.143 19.5792 113.136 19.8744C113.106 20.9528 112.292 21.8271 111.212 21.8334C107.603 21.8563 103.993 21.8639 100.383 21.836C99.1298 21.8258 98.367 20.9781 98.367 19.7338C98.3645 16.2086 98.3645 12.6834 98.3683 9.15824C98.3695 7.85562 99.1539 7.07126 100.45 7.07126C103.975 7.07 107.501 7.07 111.026 7.07126C112.338 7.07126 113.148 7.89237 113.141 9.20513C113.135 10.2805 112.6 10.8178 111.535 10.8169C108.644 10.8169 105.752 10.8283 102.859 10.8055C102.301 10.8005 102.04 10.931 102.099 11.5405C102.148 12.0575 102.109 12.5821 102.109 13.1611V13.1599Z" fill="#F6931A"/>
<path d="M85.5789 18.1662C85.5789 19.1736 85.5814 20.0771 85.5789 20.9818C85.5763 21.8524 85.5738 21.8562 84.6754 21.8485C84.3168 21.846 83.9582 21.827 83.6009 21.8055C82.6758 21.751 81.8535 20.978 81.8484 20.0467C81.8281 16.3099 81.8319 12.5731 81.8497 8.83755C81.8535 8.01518 82.6074 7.11804 83.4247 7.10917C86.3138 7.07876 89.213 6.99767 92.0907 7.19281C95.0153 7.39048 96.8906 10.1947 96.5447 13.1864C96.1734 16.4024 94.1371 18.1346 90.7944 18.1675C89.2954 18.1827 87.7964 18.1675 86.2973 18.1675C86.0895 18.1675 85.8817 18.1675 85.5789 18.1675V18.1662ZM85.6143 14.4142C87.51 14.4142 89.3423 14.4168 91.1758 14.4092C91.3405 14.4092 91.5103 14.3572 91.67 14.304C92.4328 14.048 92.9295 13.2282 92.8282 12.4071C92.7217 11.548 92.0945 10.846 91.2759 10.8295C89.4018 10.7928 87.5265 10.8181 85.6156 10.8181V14.413L85.6143 14.4142Z" fill="#F6931A"/>
<path d="M50.621 7.07152V18.0576H57.8918V7.1184C58.7129 7.1184 59.4745 7.03224 60.2069 7.14121C61.0483 7.26539 61.6628 8.10551 61.6641 8.9773C61.6717 12.6292 61.6717 16.2811 61.6565 19.9343C61.6527 20.8757 60.938 21.6614 60.0016 21.8058C59.7317 21.8476 59.4542 21.8438 59.1805 21.8438C55.9087 21.8451 52.6357 21.797 49.364 21.8641C47.8485 21.8958 46.8373 21.0265 46.8753 19.3514C46.9513 15.9326 46.893 12.5126 46.893 9.09261C46.893 7.94838 47.7344 7.09053 48.8736 7.07405C49.4185 7.06645 49.9646 7.07279 50.6197 7.07279L50.621 7.07152Z" fill="#F6931A"/>
<path d="M29.4345 18.0919H40.4561C40.4561 16.5498 40.4561 15.0596 40.4561 13.5695C40.4561 12.4696 40.3839 12.6052 41.4546 12.5988C42.1718 12.595 42.8903 12.6166 43.6062 12.5874C44.0294 12.571 44.217 12.6863 44.2132 13.1462C44.1967 15.403 44.2157 17.6598 44.1992 19.9166C44.1916 20.9506 43.349 21.8249 42.3061 21.8325C38.6998 21.8566 35.0923 21.8616 31.4847 21.8376C30.1961 21.8287 29.4434 20.9936 29.4358 19.6999C29.432 19.1968 29.4358 18.6925 29.4358 18.0932L29.4345 18.0919Z" fill="#F6931A"/>
<path d="M119.548 16.2877H115.864C115.851 16.0469 115.832 15.8417 115.832 15.6377C115.829 13.4645 115.828 11.2914 115.828 9.11822C115.828 7.87769 116.635 7.07052 117.89 7.06926C121.434 7.06546 124.978 7.06546 128.522 7.06926C129.763 7.07052 130.587 7.8929 130.595 9.12203C130.598 9.48063 130.561 9.84303 130.599 10.1966C130.656 10.7262 130.413 10.8238 129.939 10.8213C126.712 10.8035 123.483 10.8238 120.256 10.7985C119.708 10.7946 119.522 10.9328 119.536 11.503C119.574 13.0818 119.548 14.662 119.548 16.2852V16.2877Z" fill="#F6931A"/>
<path d="M4.97867 9.32012C4.58712 8.85762 4.23359 8.38497 3.8243 7.96682C2.6598 6.77824 1.48263 5.5998 0.286447 4.4429C-0.0138655 4.15273 -0.0354069 3.97659 0.271241 3.68515C1.06447 2.93247 1.81082 2.13037 2.60912 1.38403C3.97763 0.104213 6.39913 0.168838 7.73977 1.493C8.42909 2.17345 9.12095 2.85137 9.8052 3.53563C9.96486 3.69529 10.1042 3.87649 10.255 4.04755C8.53553 5.7658 6.85277 7.44602 4.97867 9.31886V9.32012Z" fill="#F6931A"/>
<path d="M115.857 18.1237C117.017 18.1237 118.086 18.111 119.153 18.1415C119.277 18.1453 119.496 18.3847 119.5 18.5203C119.529 19.4884 119.526 20.4578 119.498 21.4246C119.494 21.5526 119.298 21.7819 119.191 21.7807C118.522 21.7769 117.837 21.7984 117.188 21.6616C116.406 21.4956 115.869 20.6884 115.857 19.8749C115.85 19.3288 115.856 18.7839 115.856 18.1237H115.857Z" fill="#F6931A"/>
<path d="M40.48 7.11096C41.2365 7.11096 41.9119 7.0552 42.5734 7.1249C43.3603 7.20853 44.0394 7.92826 44.1294 8.73416C44.1902 9.27523 44.1763 9.83151 44.1294 10.3751C44.1167 10.5183 43.8557 10.7451 43.7011 10.7515C42.7748 10.7882 41.8448 10.792 40.9185 10.7515C40.7664 10.7451 40.5067 10.4651 40.5003 10.3042C40.4623 9.27397 40.4813 8.24125 40.4813 7.11096H40.48Z" fill="#F6931A"/>
</g>
<defs>
<clipPath id="clip0_2165_3947">
<rect width="130.607" height="28" fill="white" transform="translate(0 0.460938)"/>
</clipPath>
</defs>
</svg>
