<svg width="107" height="36" viewBox="0 0 107 36" fill="none" xmlns="http://www.w3.org/2000/svg">
<g clip-path="url(#clip0_1931_9065)">
<path d="M11.4229 17.553L24.4661 25.0487C24.5704 25.1078 24.6883 25.1387 24.8081 25.1383C24.928 25.138 25.0457 25.1065 25.1497 25.0468C25.2537 24.9871 25.3404 24.9014 25.4014 24.798C25.4623 24.6946 25.4954 24.577 25.4973 24.457L25.4996 10.6537C25.4982 10.5334 25.4655 10.4155 25.4048 10.3117C25.344 10.208 25.2572 10.1219 25.153 10.0621C25.0489 10.0023 24.9309 9.97081 24.8108 9.9707C24.6908 9.97063 24.5728 10.002 24.4685 10.0617L11.4229 17.553Z" fill="#A0A0A0"/>
<path d="M23.7086 6.83186L15.0501 0.199659C14.9578 0.130123 14.8495 0.0848511 14.7352 0.0679666C14.6209 0.0510822 14.5042 0.0631217 14.3957 0.102989C14.2872 0.142856 14.1904 0.209284 14.1141 0.296221C14.0378 0.383159 13.9844 0.487844 13.9589 0.60074L10.793 15.3666L23.6384 7.97548C23.7377 7.91983 23.8215 7.84007 23.8821 7.74354C23.9427 7.64697 23.9781 7.53672 23.9851 7.4229C23.9921 7.30908 23.9704 7.1953 23.9221 7.09205C23.8738 6.98876 23.8004 6.8993 23.7086 6.83186Z" fill="#A0A0A0"/>
<path d="M15.0442 34.9183L23.7249 28.2789C23.8147 28.2101 23.8862 28.1203 23.9331 28.0173C23.9801 27.9143 24.001 27.8014 23.9941 27.6884C23.9872 27.5754 23.9526 27.4659 23.8935 27.3694C23.8344 27.2729 23.7525 27.1925 23.6551 27.1352L10.792 19.75L13.9631 34.5169C13.9863 34.6301 14.038 34.7355 14.1131 34.8232C14.1882 34.9109 14.2844 34.978 14.3925 35.0182C14.5007 35.0583 14.6173 35.0703 14.7313 35.0527C14.8453 35.0353 14.953 34.989 15.0442 34.9183Z" fill="#A0A0A0"/>
<path d="M8.07949 17.5531L11.4958 1.64376C11.5255 1.50596 11.512 1.36234 11.4572 1.2325C11.4024 1.10267 11.309 0.992941 11.1896 0.918307C11.0703 0.843673 10.9308 0.807763 10.7904 0.81548C10.6499 0.823201 10.5152 0.874172 10.4047 0.961437L1.66397 7.651C1.44252 7.82068 1.26314 8.03933 1.13981 8.28986C1.01649 8.54039 0.95254 8.81605 0.952948 9.09542L0.950198 26.0386C0.949699 26.3179 1.01356 26.5936 1.1368 26.8442C1.26005 27.0948 1.43935 27.3135 1.66075 27.4832L10.3994 34.1656C10.5106 34.2492 10.6446 34.2972 10.7836 34.3032C10.9225 34.3092 11.0601 34.2729 11.1781 34.1992C11.2961 34.1254 11.3892 34.0176 11.4449 33.8899C11.5007 33.7622 11.5167 33.6206 11.4907 33.4837L8.07949 17.5531Z" fill="#A0A0A0"/>
<path d="M76.1068 12.9129C76.7312 12.9 77.3479 13.0531 77.8943 13.3565C78.4406 13.6599 78.897 14.1028 79.2173 14.6402L78.1368 15.4743C77.9058 15.125 77.6017 14.8304 77.2457 14.6107C76.9013 14.4049 76.5072 14.2984 76.1065 14.3031C75.7453 14.2952 75.3893 14.3944 75.0841 14.5884C74.9396 14.6839 74.8227 14.8162 74.7457 14.9717C74.6687 15.1272 74.6344 15.3004 74.6459 15.4737C74.6414 15.6381 74.6764 15.8013 74.7481 15.9492C74.8174 16.0828 74.9116 16.202 75.0253 16.3004C75.1541 16.411 75.2962 16.5046 75.4488 16.5787C75.6144 16.6618 75.7946 16.7521 75.9892 16.8494L77.0697 17.3472C77.4074 17.501 77.7343 17.6771 78.0483 17.8744C78.3188 18.0416 78.5649 18.246 78.7787 18.4816C78.9695 18.6957 79.1224 18.9408 79.2313 19.2063C79.3419 19.4906 79.3965 19.7938 79.3919 20.0989C79.3979 20.5006 79.3128 20.8984 79.1431 21.2623C78.9821 21.6025 78.7479 21.9024 78.4567 22.1403C78.1505 22.3871 77.8012 22.5755 77.427 22.696C77.0144 22.8307 76.5828 22.8974 76.1488 22.8935C75.3953 22.9078 74.6522 22.7127 74.0023 22.3299C73.3821 21.9575 72.869 21.4305 72.5127 20.8001L73.6082 19.9663C73.7461 20.1732 73.9001 20.369 74.0684 20.5517C74.2368 20.7357 74.4254 20.9002 74.6305 21.042C74.8398 21.186 75.0684 21.2995 75.3095 21.3789C75.5759 21.4646 75.8548 21.5066 76.1345 21.5032C76.565 21.5237 76.9895 21.3974 77.3392 21.1448C77.4897 21.0295 77.6101 20.8795 77.6902 20.7076C77.7704 20.5357 77.8078 20.3469 77.7998 20.1573C77.8033 19.9883 77.7683 19.8207 77.6976 19.6671C77.6276 19.5233 77.5282 19.396 77.4053 19.2936C77.2674 19.1788 77.118 19.0782 76.9598 18.9935C76.7893 18.901 76.5972 18.8059 76.383 18.7083L75.3176 18.2105C75.0173 18.0703 74.7247 17.9139 74.4412 17.7419C74.1783 17.5842 73.9379 17.3922 73.7254 17.171C73.5235 16.96 73.3604 16.7147 73.2435 16.4467C73.1227 16.1572 73.0632 15.8458 73.0688 15.5321C73.0632 15.1571 73.1458 14.7861 73.31 14.449C73.4682 14.13 73.6922 13.8483 73.9669 13.6225C74.2532 13.3886 74.5801 13.21 74.9312 13.0956C75.3106 12.9715 75.7078 12.9098 76.1068 12.9129Z" fill="#A0A0A0"/>
<path d="M87.9786 20.2038L89.8343 15.5502L91.4555 15.5507L88.2849 22.8965H87.7592L85.4961 18.0961L83.261 22.8957H82.7353L79.5527 15.5486L81.1886 15.5488L83.0716 20.2468L85.2483 15.3887H85.774L87.9786 20.2038Z" fill="#A0A0A0"/>
<path d="M95.0179 15.3909C95.425 15.3861 95.8299 15.4505 96.2156 15.5813C96.5617 15.6998 96.8778 15.8921 97.1428 16.1449C97.4105 16.4091 97.6174 16.7289 97.7486 17.0818C97.9023 17.501 97.9765 17.9451 97.9677 18.3916L97.967 22.7379L96.5355 22.7377V21.9329C96.274 22.2415 95.944 22.4844 95.572 22.6423C95.1513 22.819 94.6987 22.9061 94.2427 22.8983C93.8941 22.9026 93.5465 22.8531 93.2129 22.7517C92.9245 22.6642 92.6564 22.5198 92.4244 22.3272C92.2098 22.1478 92.0376 21.9229 91.9204 21.6686C91.8007 21.4019 91.7412 21.1121 91.7454 20.8197C91.7345 20.5303 91.794 20.2426 91.9186 19.9813C92.0432 19.72 92.2295 19.493 92.4612 19.3199C93.0254 18.9278 93.7037 18.7348 94.3893 18.7715L96.4189 18.7717L96.4197 18.3033C96.4442 18.0956 96.4214 17.8849 96.3532 17.6872C96.2849 17.4894 96.1725 17.3098 96.0252 17.1618C95.8775 17.0139 95.6983 16.9014 95.5009 16.8329C95.3035 16.7644 95.0932 16.7417 94.886 16.7664C94.5024 16.7575 94.124 16.8536 93.7908 17.0443C93.4481 17.2567 93.1423 17.5236 92.885 17.8346L92.009 16.9272C92.3443 16.4306 92.8024 16.0297 93.3386 15.7638C93.8629 15.5132 94.4373 15.3857 95.0179 15.3909ZM94.564 21.713C94.8079 21.7146 95.0505 21.6725 95.2797 21.5887C95.4971 21.5098 95.6976 21.3907 95.8709 21.2375C96.0413 21.087 96.1782 20.9026 96.2734 20.696C96.3714 20.4827 96.421 20.2504 96.4193 20.0156V19.8839L94.579 19.8836C94.2504 19.8636 93.9231 19.9398 93.6368 20.103C93.5294 20.1744 93.4426 20.2727 93.3848 20.3883C93.3271 20.5039 93.3008 20.6326 93.3081 20.7616C93.3011 20.9016 93.3313 21.041 93.3953 21.1657C93.4597 21.2903 93.5552 21.3958 93.6732 21.4714C93.9395 21.6389 94.2497 21.723 94.564 21.713Z" fill="#A0A0A0"/>
<path d="M103.446 15.3909C103.93 15.3866 104.41 15.4839 104.855 15.6766C105.278 15.8598 105.658 16.1289 105.972 16.4669C106.288 16.8119 106.536 17.2144 106.702 17.6526C106.881 18.127 106.97 18.6307 106.965 19.1379C106.97 19.6474 106.88 20.1535 106.702 20.6306C106.536 21.0728 106.286 21.4781 105.964 21.8232C105.641 22.1676 105.251 22.441 104.817 22.6261C104.383 22.8111 103.916 22.9038 103.444 22.8984C102.976 22.9037 102.512 22.8141 102.079 22.6348C101.679 22.4691 101.325 22.2078 101.049 21.8736L101.049 25.3711L99.5156 25.3709L99.5174 15.5513L100.933 15.5515L100.933 16.5905C101.199 16.2074 101.563 15.902 101.985 15.7053C102.442 15.4916 102.941 15.3842 103.446 15.3909ZM103.197 16.7958C102.931 16.7964 102.666 16.8434 102.416 16.9346C102.158 17.0273 101.922 17.1717 101.722 17.3591C101.508 17.5631 101.339 17.8098 101.225 18.0832C101.091 18.4177 101.026 18.7763 101.035 19.1369C101.026 19.4967 101.088 19.8549 101.218 20.1907C101.328 20.4662 101.495 20.7155 101.707 20.9226C101.905 21.1139 102.141 21.261 102.4 21.3543C102.655 21.4466 102.925 21.4937 103.197 21.4935C103.49 21.4952 103.78 21.438 104.051 21.3254C104.314 21.2162 104.553 21.0543 104.752 20.8497C104.956 20.6375 105.115 20.3862 105.22 20.1108C105.443 19.4913 105.443 18.8132 105.22 18.1936C105.116 17.9195 104.96 17.6684 104.76 17.4545C104.563 17.2485 104.327 17.0843 104.066 16.9716C103.792 16.853 103.496 16.7932 103.197 16.7958Z" fill="#A0A0A0"/>
<path d="M36.9299 22.7272L35.3818 22.727L35.3834 13.0684L36.9313 13.0685L36.9299 22.7272ZM38.9021 17.5908L43.3559 22.7283L41.4424 22.7279L36.9743 17.5906L41.0207 13.0692L42.9194 13.0696L38.9021 17.5908Z" fill="#A0A0A0"/>
<path d="M46.7595 23.5489C46.5338 24.1376 46.1586 24.6571 45.671 25.0559C45.2171 25.3774 44.6707 25.5418 44.1153 25.524C43.9151 25.5234 43.7152 25.5112 43.5164 25.4873C43.3194 25.4642 43.1244 25.4275 42.9323 25.3776V24.0752C43.1076 24.0944 43.2637 24.109 43.3999 24.119C43.536 24.1286 43.6676 24.1334 43.794 24.1335C44.1009 24.1394 44.4044 24.0691 44.6777 23.9289C44.9903 23.7274 45.2286 23.4296 45.3574 23.0803L45.6493 22.4072L42.7881 15.543L44.4383 15.5434L46.4823 20.7828L48.6156 15.544L50.2508 15.5442L46.7595 23.5489Z" fill="#A0A0A0"/>
<path d="M52.5878 16.4226C52.8692 16.0943 53.2213 15.8341 53.6178 15.6618C54.048 15.4731 54.5135 15.3784 54.9832 15.3839C55.4546 15.3786 55.9219 15.4715 56.3555 15.6568C56.7892 15.842 57.1798 16.1155 57.5025 16.4599C57.8238 16.8052 58.0744 17.2106 58.2396 17.6529C58.4181 18.1301 58.507 18.6361 58.5021 19.1456C58.5073 19.6528 58.4184 20.1565 58.2392 20.631C58.0733 21.0691 57.8255 21.4714 57.5088 21.8162C57.1969 22.153 56.8189 22.4219 56.3989 22.6063C55.9569 22.7993 55.4788 22.8965 54.9968 22.8914C54.4911 22.8976 53.9899 22.7926 53.5289 22.5838C53.103 22.3929 52.7369 22.0893 52.4698 21.7057V22.73L51.0537 22.7298L51.0555 11.7539L52.5885 11.7541L52.5878 16.4226ZM54.7347 16.7888C54.4634 16.7886 54.1939 16.8356 53.9384 16.9276C53.6798 17.0211 53.4432 17.1682 53.2451 17.3593C53.0326 17.5663 52.866 17.8155 52.7558 18.091C52.6259 18.4267 52.564 18.7848 52.5731 19.1446C52.5643 19.5075 52.6287 19.8683 52.7628 20.2056C52.8744 20.4821 53.0438 20.7315 53.2591 20.9375C53.4579 21.1245 53.6945 21.2667 53.9524 21.3547C54.2041 21.4414 54.468 21.486 54.734 21.4865C55.0325 21.4891 55.3286 21.4293 55.603 21.311C55.8641 21.1983 56.1004 21.0341 56.2971 20.8281C56.4969 20.6143 56.6534 20.3633 56.7573 20.0893C56.9806 19.4699 56.9806 18.7918 56.7577 18.1723C56.653 17.8968 56.4941 17.6453 56.2901 17.433C56.0909 17.2284 55.8526 17.0666 55.589 16.9573C55.3185 16.8444 55.028 16.7872 54.7347 16.7888Z" fill="#A0A0A0"/>
<path d="M63.2339 15.3849C63.6889 15.3807 64.1401 15.4653 64.5629 15.634C64.9559 15.7879 65.3129 16.0214 65.6118 16.3198C65.9107 16.6182 66.1452 16.9751 66.3003 17.3683C66.4683 17.7843 66.5523 18.2294 66.5484 18.6781C66.5488 18.8641 66.5365 19.0499 66.5117 19.2343C66.4945 19.3726 66.4679 19.5094 66.4315 19.6438L61.086 19.643C61.1651 20.1895 61.4468 20.6859 61.8749 21.0335C62.318 21.3736 62.8647 21.5495 63.4226 21.5313C63.8139 21.537 64.202 21.4598 64.5615 21.3047C64.909 21.1493 65.2296 20.9394 65.5114 20.683L66.2558 21.7368C65.8813 22.0942 65.4463 22.3815 64.9706 22.5852C64.4715 22.7945 63.9346 22.899 63.3935 22.8924C62.864 22.897 62.3383 22.8001 61.8451 22.6069C61.3901 22.4317 60.9754 22.1655 60.6268 21.8245C60.2778 21.4834 60.0017 21.0748 59.8158 20.6234C59.6191 20.1558 59.5194 19.6529 59.5236 19.1454C59.5197 18.6386 59.6167 18.1361 59.8088 17.6673C59.9901 17.2214 60.2582 16.816 60.597 16.4748C60.9355 16.1369 61.3345 15.8664 61.773 15.6774C62.2347 15.4796 62.732 15.38 63.2339 15.3849ZM63.1895 16.6874C62.6984 16.6749 62.22 16.8442 61.8458 17.1629C61.4664 17.4958 61.2095 17.9466 61.1157 18.4432L65.0151 18.4438C65.0207 18.1989 64.9734 17.9557 64.8765 17.7308C64.7792 17.5059 64.6346 17.3048 64.453 17.1412C64.1012 16.8401 63.6518 16.6786 63.1895 16.6874Z" fill="#A0A0A0"/>
<path d="M71.5294 15.4747C71.6393 15.4737 71.7492 15.481 71.8581 15.4968C71.9505 15.5114 72.0355 15.5284 72.1136 15.548L72.1132 16.909L71.646 16.9088C71.3709 16.9076 71.0975 16.9496 70.8354 17.0333C70.5883 17.11 70.3594 17.2369 70.1634 17.4062C69.9691 17.578 69.8148 17.7903 69.7108 18.0282C69.5936 18.3032 69.5362 18.6 69.5421 18.8989L69.5418 22.7331L68.0088 22.7329L68.0098 15.5474L69.4263 15.5476L69.4259 16.5136C69.6667 16.1826 69.9856 15.9162 70.3534 15.7379C70.7206 15.5621 71.1227 15.4721 71.5294 15.4747Z" fill="#A0A0A0"/>
</g>
<defs>
<clipPath id="clip0_1931_9065">
<rect width="106.05" height="35" fill="white" transform="translate(0.950195 0.0605469)"/>
</clipPath>
</defs>
</svg>
