<svg width="107" height="36" viewBox="0 0 107 36" fill="none" xmlns="http://www.w3.org/2000/svg">
<g clip-path="url(#clip0_2165_3970)">
<path d="M10.7229 18.4534L23.7661 25.9491C23.8704 26.0082 23.9883 26.0391 24.1082 26.0387C24.228 26.0384 24.3457 26.0068 24.4497 25.9472C24.5537 25.8875 24.6405 25.8018 24.7014 25.6984C24.7623 25.595 24.7954 25.4774 24.7974 25.3574L24.7996 11.5541C24.7983 11.4338 24.7656 11.3159 24.7048 11.2121C24.644 11.1084 24.5573 11.0223 24.4531 10.9625C24.3489 10.9027 24.2309 10.8712 24.1109 10.8711C23.9908 10.871 23.8728 10.9024 23.7686 10.9621L10.7229 18.4534Z" fill="#A0A0A0"/>
<path d="M23.0079 7.73225L14.3494 1.10005C14.2571 1.03051 14.1488 0.985242 14.0345 0.968357C13.9202 0.951473 13.8035 0.963512 13.695 1.00338C13.5865 1.04325 13.4897 1.10967 13.4134 1.19661C13.3371 1.28355 13.2838 1.38823 13.2582 1.50113L10.0923 16.267L22.9377 8.87587C23.037 8.82022 23.1209 8.74046 23.1814 8.64393C23.242 8.54736 23.2774 8.43711 23.2844 8.32329C23.2914 8.20947 23.2697 8.09569 23.2214 7.99244C23.1731 7.88915 23.0998 7.79969 23.0079 7.73225Z" fill="#A0A0A0"/>
<path d="M14.3438 35.8167L23.0245 29.1773C23.1142 29.1085 23.1858 29.0187 23.2327 28.9158C23.2796 28.8128 23.3006 28.6998 23.2937 28.5868C23.2867 28.4738 23.2522 28.3643 23.1931 28.2678C23.134 28.1714 23.0521 28.091 22.9546 28.0337L10.0916 20.6484L13.2627 35.4153C13.2859 35.5285 13.3375 35.6339 13.4126 35.7216C13.4877 35.8094 13.5839 35.8764 13.6921 35.9166C13.8003 35.9567 13.9168 35.9688 14.0308 35.9512C14.1449 35.9337 14.2526 35.8874 14.3438 35.8167Z" fill="#A0A0A0"/>
<path d="M7.37929 18.4535L10.7956 2.54415C10.8253 2.40635 10.8118 2.26273 10.757 2.13289C10.7022 2.00306 10.6088 1.89333 10.4894 1.8187C10.3701 1.74406 10.2306 1.70815 10.0902 1.71587C9.94969 1.72359 9.81501 1.77456 9.70451 1.86183L0.963772 8.55139C0.742321 8.72107 0.562945 8.93972 0.439619 9.19025C0.316293 9.44078 0.252344 9.71644 0.252753 9.99581L0.250003 26.939C0.249504 27.2183 0.313364 27.494 0.436608 27.7446C0.559853 27.9952 0.739156 28.2139 0.960556 28.3836L9.69916 35.066C9.81042 35.1496 9.94437 35.1976 10.0834 35.2036C10.2223 35.2096 10.3599 35.1733 10.4779 35.0996C10.5959 35.0258 10.689 34.918 10.7448 34.7903C10.8005 34.6626 10.8165 34.521 10.7905 34.384L7.37929 18.4535Z" fill="#A0A0A0"/>
<path d="M75.4064 13.8132C76.0308 13.8004 76.6475 13.9535 77.1939 14.2569C77.7402 14.5603 78.1966 15.0032 78.5169 15.5406L77.4364 16.3747C77.2054 16.0254 76.9013 15.7308 76.5453 15.5111C76.2009 15.3053 75.8068 15.1988 75.4061 15.2035C75.0449 15.1956 74.6889 15.2948 74.3837 15.4888C74.2392 15.5842 74.1223 15.7165 74.0453 15.8721C73.9683 16.0276 73.934 16.2008 73.9455 16.3741C73.941 16.5385 73.976 16.7017 74.0477 16.8496C74.117 16.9832 74.2112 17.1024 74.3249 17.2008C74.4537 17.3114 74.5958 17.4049 74.7484 17.4791C74.914 17.5622 75.0942 17.6525 75.2888 17.7498L76.3693 18.2476C76.707 18.4014 77.0339 18.5775 77.3479 18.7748C77.6184 18.942 77.8645 19.1464 78.0783 19.382C78.2691 19.5961 78.422 19.8412 78.5309 20.1067C78.6415 20.391 78.6961 20.6942 78.6915 20.9993C78.6975 21.401 78.6124 21.7988 78.4427 22.1627C78.2817 22.5029 78.0475 22.8028 77.7563 23.0406C77.4501 23.2875 77.1008 23.4759 76.7266 23.5964C76.314 23.7311 75.8824 23.7978 75.4484 23.7938C74.6949 23.8082 73.9518 23.6131 73.3019 23.2303C72.6817 22.8579 72.1686 22.3308 71.8123 21.7005L72.9078 20.8667C73.0457 21.0736 73.1997 21.2694 73.368 21.4521C73.5364 21.6361 73.725 21.8006 73.9301 21.9424C74.1394 22.0864 74.368 22.1999 74.6091 22.2793C74.8755 22.365 75.1544 22.407 75.4341 22.4036C75.8646 22.4241 76.2891 22.2978 76.6388 22.0452C76.7893 21.9298 76.9097 21.7799 76.9898 21.608C77.07 21.4361 77.1074 21.2473 77.0994 21.0577C77.1029 20.8887 77.0679 20.7211 76.9972 20.5675C76.9272 20.4237 76.8278 20.2964 76.7049 20.194C76.567 20.0792 76.4176 19.9786 76.2594 19.8939C76.0889 19.8014 75.8968 19.7063 75.6826 19.6086L74.6172 19.1108C74.3169 18.9707 74.0243 18.8143 73.7408 18.6423C73.4779 18.4846 73.2375 18.2926 73.025 18.0713C72.8231 17.8604 72.66 17.6151 72.5431 17.3471C72.4223 17.0576 72.3628 16.7462 72.3684 16.4325C72.3628 16.0575 72.4454 15.6864 72.6096 15.3494C72.7678 15.0304 72.9918 14.7487 73.2665 14.5229C73.5528 14.289 73.8797 14.1104 74.2308 13.9959C74.6102 13.8719 75.0074 13.8102 75.4064 13.8132Z" fill="#A0A0A0"/>
<path d="M87.2782 21.1042L89.1339 16.4506L90.7551 16.451L87.5844 23.7969H87.0587L84.7956 18.9965L82.5605 23.7961H82.0348L78.8523 16.449L80.4882 16.4492L82.3712 21.1472L84.5478 16.2891H85.0735L87.2782 21.1042Z" fill="#A0A0A0"/>
<path d="M94.3179 16.2932C94.725 16.2884 95.1299 16.3528 95.5156 16.4837C95.8618 16.6021 96.1779 16.7944 96.4428 17.0472C96.7106 17.3114 96.9174 17.6312 97.0486 17.9841C97.2023 18.4033 97.2765 18.8475 97.2678 19.2939L97.267 23.6403L95.8355 23.6401V22.8353C95.5741 23.1438 95.2441 23.3867 94.872 23.5447C94.4513 23.7213 93.9988 23.8085 93.5427 23.8006C93.1941 23.8049 92.8465 23.7555 92.513 23.654C92.2246 23.5665 91.9565 23.4222 91.7244 23.2295C91.5099 23.0501 91.3377 22.8252 91.2204 22.5709C91.1007 22.3043 91.0412 22.0145 91.0454 21.7221C91.0346 21.4327 91.0941 21.145 91.2187 20.8836C91.3433 20.6224 91.5295 20.3954 91.7612 20.2222C92.3254 19.8301 93.0037 19.6372 93.6894 19.6738L95.719 19.674L95.7197 19.2057C95.7442 18.9979 95.7214 18.7872 95.6532 18.5895C95.5849 18.3917 95.4726 18.2122 95.3252 18.0642C95.1775 17.9162 94.9984 17.8037 94.801 17.7353C94.6036 17.6668 94.3932 17.644 94.186 17.6688C93.8024 17.6599 93.424 17.7559 93.0908 17.9467C92.7482 18.159 92.4423 18.4259 92.1851 18.7369L91.309 17.8295C91.6443 17.3329 92.1024 16.9321 92.6386 16.6661C93.1629 16.4155 93.7373 16.288 94.3179 16.2932ZM93.864 22.6153C94.1079 22.617 94.3505 22.5749 94.5798 22.4911C94.7971 22.4122 94.9977 22.293 95.1709 22.1398C95.3414 21.9894 95.4782 21.8049 95.5734 21.5984C95.6714 21.3851 95.7211 21.1527 95.7193 20.9179V20.7862L93.879 20.786C93.5504 20.7659 93.2232 20.8421 92.9369 21.0053C92.8294 21.0767 92.7426 21.1751 92.6849 21.2907C92.6271 21.4062 92.6008 21.5349 92.6082 21.6639C92.6012 21.804 92.6313 21.9433 92.6954 22.068C92.7598 22.1926 92.8553 22.2981 92.9732 22.3737C93.2396 22.5412 93.5497 22.6253 93.864 22.6153Z" fill="#A0A0A0"/>
<path d="M102.746 16.2933C103.23 16.2889 103.71 16.3862 104.155 16.5789C104.578 16.7622 104.958 17.0312 105.272 17.3692C105.588 17.7142 105.836 18.1167 106.002 18.5549C106.181 19.0293 106.27 19.5331 106.264 20.0402C106.269 20.5498 106.18 21.0558 106.002 21.5329C105.836 21.9752 105.585 22.3805 105.264 22.7256C104.941 23.0699 104.551 23.3433 104.117 23.5284C103.683 23.7135 103.216 23.8062 102.744 23.8007C102.276 23.8061 101.811 23.7165 101.379 23.5371C100.979 23.3715 100.625 23.1101 100.349 22.7759L100.349 26.2735L98.8154 26.2733L98.8172 16.4536L100.233 16.4538L100.233 17.4929C100.499 17.1098 100.863 16.8043 101.285 16.6076C101.742 16.394 102.241 16.2865 102.746 16.2933ZM102.497 17.6981C102.23 17.6987 101.966 17.7457 101.716 17.8369C101.458 17.9296 101.222 18.0741 101.022 18.2615C100.808 18.4655 100.639 18.7121 100.525 18.9856C100.391 19.3201 100.326 19.6787 100.335 20.0392C100.326 20.3991 100.388 20.7572 100.517 21.093C100.628 21.3685 100.794 21.6179 101.007 21.8249C101.205 22.0163 101.441 22.1634 101.7 22.2566C101.955 22.3489 102.225 22.396 102.496 22.3959C102.789 22.3975 103.08 22.3404 103.35 22.2277C103.614 22.1186 103.853 21.9567 104.052 21.752C104.256 21.5399 104.415 21.2885 104.519 21.0132C104.743 20.3937 104.743 19.7155 104.52 19.096C104.416 18.8218 104.26 18.5708 104.059 18.3569C103.863 18.1509 103.627 17.9867 103.366 17.874C103.092 17.7554 102.796 17.6955 102.497 17.6981Z" fill="#A0A0A0"/>
<path d="M36.2299 23.6276L34.6819 23.6274L34.6835 13.9688L36.2313 13.9689L36.2299 23.6276ZM38.2022 18.4912L42.6559 23.6286L40.7425 23.6283L36.2744 18.491L40.3207 13.9696L42.2195 13.97L38.2022 18.4912Z" fill="#A0A0A0"/>
<path d="M46.0591 24.4512C45.8333 25.0399 45.4581 25.5594 44.9706 25.9582C44.5166 26.2798 43.9703 26.4441 43.4148 26.4264C43.2146 26.4258 43.0148 26.4135 42.816 26.3897C42.6189 26.3665 42.424 26.3298 42.2318 26.2799V24.9775C42.4072 24.9968 42.5633 25.0114 42.6994 25.0213C42.8356 25.031 42.9672 25.0358 43.0935 25.0358C43.4005 25.0418 43.7039 24.9715 43.9773 24.8313C44.2898 24.6297 44.5282 24.3319 44.657 23.9827L44.9489 23.3095L42.0876 16.4453L43.7379 16.4457L45.7819 21.6852L47.9151 16.4464L49.5503 16.4466L46.0591 24.4512Z" fill="#A0A0A0"/>
<path d="M51.8873 17.3211C52.1687 16.9927 52.5208 16.7326 52.9174 16.5603C53.3475 16.3715 53.813 16.2768 54.2827 16.2824C54.7542 16.2771 55.2214 16.37 55.6551 16.5552C56.0887 16.7404 56.4793 17.0139 56.802 17.3583C57.1233 17.7036 57.3739 18.109 57.5391 18.5514C57.7176 19.0285 57.8065 19.5346 57.8016 20.0441C57.8069 20.5512 57.718 21.055 57.5388 21.5294C57.3729 21.9675 57.1251 22.3698 56.8083 22.7147C56.4965 23.0515 56.1185 23.3204 55.6985 23.5047C55.2564 23.6978 54.7783 23.7949 54.2964 23.7898C53.7906 23.796 53.2894 23.691 52.8285 23.4822C52.4025 23.2914 52.0364 22.9878 51.7694 22.6041V23.6284L50.3533 23.6282L50.355 12.6523L51.888 12.6526L51.8873 17.3211ZM54.0342 17.6872C53.763 17.6871 53.4935 17.734 53.238 17.826C52.9793 17.9195 52.7427 18.0666 52.5446 18.2577C52.3322 18.4647 52.1656 18.714 52.0553 18.9894C51.9255 19.3251 51.8635 19.6832 51.8726 20.043C51.8639 20.4059 51.9283 20.7668 52.0623 21.104C52.174 21.3805 52.3434 21.63 52.5586 21.8359C52.7574 22.023 52.994 22.1652 53.252 22.2531C53.5036 22.3399 53.7675 22.3844 54.0335 22.385C54.3321 22.3875 54.6282 22.3277 54.9026 22.2094C55.1637 22.0968 55.3999 21.9326 55.5966 21.7266C55.7965 21.5128 55.9529 21.2618 56.0569 20.9877C56.2802 20.3683 56.2802 19.6902 56.0572 19.0707C55.9526 18.7952 55.7937 18.5437 55.5896 18.3314C55.3905 18.1268 55.1521 17.965 54.8886 17.8557C54.618 17.7429 54.3275 17.6856 54.0342 17.6872Z" fill="#A0A0A0"/>
<path d="M62.5342 16.2853C62.9892 16.2811 63.4404 16.3657 63.8632 16.5344C64.2562 16.6883 64.6132 16.9218 64.9121 17.2202C65.211 17.5186 65.4455 17.8755 65.6006 18.2687C65.7686 18.6847 65.8526 19.1298 65.8487 19.5785C65.8491 19.7645 65.8368 19.9503 65.812 20.1347C65.7948 20.273 65.7682 20.4098 65.7318 20.5442L60.3863 20.5434C60.4654 21.0899 60.7471 21.5863 61.1752 21.9339C61.6183 22.274 62.165 22.4499 62.7229 22.4317C63.1142 22.4374 63.5023 22.3602 63.8618 22.2051C64.2093 22.0497 64.5299 21.8398 64.8117 21.5834L65.5561 22.6372C65.1816 22.9946 64.7466 23.2819 64.2709 23.4856C63.7718 23.6949 63.2349 23.7994 62.6938 23.7928C62.1643 23.7974 61.6386 23.7005 61.1454 23.5073C60.6904 23.3321 60.2757 23.0659 59.9271 22.7249C59.5781 22.3838 59.302 21.9752 59.1161 21.5238C58.9194 21.0562 58.8197 20.5533 58.8239 20.0458C58.82 19.539 58.917 19.0365 59.1091 18.5677C59.2904 18.1218 59.5585 17.7164 59.8973 17.3752C60.2358 17.0373 60.6348 16.7668 61.0733 16.5778C61.535 16.38 62.0323 16.2804 62.5342 16.2853ZM62.4898 17.5878C61.9987 17.5753 61.5203 17.7446 61.1461 18.0633C60.7667 18.3962 60.5098 18.847 60.416 19.3436L64.3154 19.3442C64.321 19.0993 64.2737 18.856 64.1768 18.6312C64.0795 18.4063 63.9349 18.2052 63.7533 18.0416C63.4015 17.7405 62.9521 17.579 62.4898 17.5878Z" fill="#A0A0A0"/>
<path d="M70.829 16.3751C70.9389 16.374 71.0488 16.3814 71.1576 16.3972C71.25 16.4117 71.3351 16.4288 71.4132 16.4484L71.4128 17.8094L70.9456 17.8092C70.6705 17.808 70.3971 17.85 70.135 17.9337C69.8879 18.0104 69.659 18.1373 69.463 18.3066C69.2687 18.4784 69.1144 18.6907 69.0104 18.9286C68.8932 19.2036 68.8358 19.5004 68.8417 19.7993L68.8414 23.6335L67.3083 23.6333L67.3094 16.4478L68.7259 16.448L68.7255 17.414C68.9663 17.083 69.2852 16.8166 69.653 16.6383C70.0202 16.4625 70.4223 16.3725 70.829 16.3751Z" fill="#A0A0A0"/>
</g>
<defs>
<clipPath id="clip0_2165_3970">
<rect width="106.05" height="35" fill="white" transform="translate(0.25 0.960938)"/>
</clipPath>
</defs>
</svg>
