<svg width="116" height="27" viewBox="0 0 116 27" fill="none" xmlns="http://www.w3.org/2000/svg">
<g clip-path="url(#clip0_2299_7688)">
<path d="M20.4708 3.74818C20.4229 3.8441 20.3079 3.88508 20.21 3.84111C18.7542 3.17863 16.9847 2.95481 15.8217 2.95481C11.6401 2.95481 7.4576 4.99419 7.4576 8.34654C7.4576 10.1441 8.80549 11.6649 10.7759 11.6649C12.953 11.6649 14.5777 10.0752 15.8907 8.62333C17.0657 7.31037 18.4485 5.85851 20.4178 5.85851C22.5611 5.85851 24.1158 7.44825 24.1158 9.59156C24.1158 12.9788 20.0372 16.7809 14.4038 16.7809C8.77051 16.7809 4.6929 13.7732 4.6929 9.59156C4.6929 5.68564 9.32405 2.16043 14.4049 2.16043C16.9977 2.16043 18.9501 2.70401 20.3869 3.48339C20.4818 3.53535 20.5188 3.65126 20.4708 3.74818ZM14.4049 0.8125C7.4576 0.8125 1.78931 6.48102 1.78931 13.4285C1.78931 20.376 7.4576 26.1135 14.4049 26.1135C21.352 26.1135 27.0893 20.445 27.0893 13.4285C27.0893 6.41207 21.42 0.8125 14.4049 0.8125Z" fill="#A0A0A0"/>
</g>
<g clip-path="url(#clip1_2299_7688)">
<path d="M96.4178 9.50196C95.3994 9.50196 94.5757 9.74887 93.897 10.3165H93.7271V4.66406H91.085V21.9665H93.6784L93.7271 14.6111C93.7271 13.2784 94.8659 12.1916 96.1268 12.1916C97.4602 12.1916 98.5264 13.2774 98.5264 14.6111V21.9665H101.12V14.6111C101.12 11.797 98.8901 9.50196 96.4178 9.50196ZM109.022 19.6959C106.938 19.6959 105.217 18.0171 105.217 15.8699C105.217 13.7226 106.938 12.0196 109.022 12.0196C111.107 12.0196 112.779 13.6983 112.779 15.8699C112.779 18.0414 111.131 19.6959 109.022 19.6959ZM109.022 9.45237C105.556 9.45237 102.721 12.3403 102.721 15.8699C102.721 19.3993 105.435 22.2631 108.828 22.2631C110.356 22.2631 111.858 21.7197 112.949 20.5601H113.119V21.9665H115.3V15.8699C115.3 12.3403 112.464 9.45237 109.022 9.45237ZM60.619 19.6959C58.5344 19.6959 56.8133 18.0171 56.8133 15.8699C56.8133 13.7226 58.5344 12.0196 60.619 12.0196C62.7037 12.0196 64.3759 13.6983 64.3759 15.8699C64.3759 18.0414 62.7275 19.6959 60.619 19.6959ZM72.7136 12.315H75.1371V9.6244H72.7136V5.62638H70.0715V9.62541H68.1567V12.3161H70.0715V17.0558C70.0715 19.4004 71.8163 22.2641 75.1371 22.2641V19.5735C72.7612 19.5735 72.7136 17.1054 72.7136 17.1054V12.3171V12.315ZM47.4821 9.50095C46.0274 9.50095 44.6701 10.1425 43.8225 11.2536H43.6775C42.8289 10.1425 41.4716 9.50095 40.0417 9.50095C37.2784 9.50095 35 11.797 35 14.61V21.9655H37.6173V14.6111C37.6173 13.2784 38.6834 12.1916 40.0407 12.1916C41.398 12.1916 42.4642 13.2774 42.4642 14.6111V21.9665H45.0815V14.6111C45.0815 13.2784 46.1476 12.1916 47.4812 12.1916C48.8146 12.1916 49.9294 13.2774 49.9294 14.6111V21.9665H52.5229V14.6111C52.5229 11.797 50.2682 9.50196 47.4812 9.50196L47.4821 9.50095ZM60.619 9.45137C57.1532 9.45137 54.3173 12.3393 54.3173 15.8689C54.3173 19.3983 57.032 22.2621 60.4253 22.2621C61.9525 22.2621 63.4549 21.7187 64.5698 20.5591H64.7396V21.9655H66.8968V15.8689C66.8968 12.2897 64.061 9.45137 60.619 9.45137ZM83.1608 19.5714C81.1248 19.5714 79.4524 17.9423 79.4524 15.8689C79.4524 13.7955 81.1248 12.142 83.1608 12.142C84.6154 12.142 85.8753 13.0062 86.4814 14.2397H89.22C88.5413 11.4752 86.0692 9.45137 83.1608 9.45137C79.6463 9.45137 76.8342 12.3393 76.8342 15.8689C76.8342 19.3983 79.6463 22.2621 83.1608 22.2621C86.0692 22.2621 88.5413 20.1644 89.22 17.3999H86.4814C85.8753 18.7082 84.6154 19.5714 83.1608 19.5714Z" fill="#A0A0A0"/>
</g>
<defs>
<clipPath id="clip0_2299_7688">
<rect width="26.4" height="25.3" fill="white" transform="translate(0.899902 0.8125)"/>
</clipPath>
<clipPath id="clip1_2299_7688">
<rect width="80.3" height="17.6" fill="white" transform="translate(35 4.66406)"/>
</clipPath>
</defs>
</svg>
