<svg width="118" height="25" viewBox="0 0 118 25" fill="none" xmlns="http://www.w3.org/2000/svg">
<g clip-path="url(#clip0_1931_8494)">
<path d="M11.7539 24.1739C18.1683 24.1739 23.3682 18.974 23.3682 12.5596C23.3682 6.14521 18.1683 0.945312 11.7539 0.945312C5.33954 0.945312 0.139648 6.14521 0.139648 12.5596C0.139648 18.974 5.33954 24.1739 11.7539 24.1739Z" fill="#A0A0A0"/>
<path d="M8.3671 15.6455C7.67488 15.6455 7.10811 15.4829 6.66676 15.1577C6.23007 14.8279 6.01172 14.354 6.01172 13.7454C6.01172 13.6153 6.02566 13.462 6.05353 13.2762C6.12786 12.8581 6.23471 12.3563 6.37408 11.7663C6.76897 10.1682 7.79103 9.36914 9.43561 9.36914C9.8816 9.36914 10.2858 9.44347 10.6389 9.59678C10.9919 9.7408 11.2707 9.96379 11.4751 10.2611C11.6795 10.5538 11.7817 10.9022 11.7817 11.3064C11.7817 11.4272 11.7678 11.5805 11.7399 11.7663C11.6516 12.282 11.5494 12.7884 11.424 13.2762C11.2196 14.0706 10.8711 14.6699 10.3694 15.0648C9.87231 15.455 9.20332 15.6455 8.3671 15.6455ZM8.49253 14.3912C8.81773 14.3912 9.09183 14.2936 9.31947 14.1031C9.55175 13.9126 9.719 13.62 9.81656 13.2204C9.95128 12.6722 10.0535 12.1984 10.1232 11.7896C10.1464 11.6688 10.1603 11.5433 10.1603 11.4133C10.1603 10.8836 9.88624 10.6188 9.3334 10.6188C9.0082 10.6188 8.72946 10.7164 8.49718 10.9069C8.26954 11.0973 8.10694 11.39 8.00938 11.7896C7.90252 12.1798 7.80032 12.6537 7.69347 13.2204C7.67024 13.3366 7.6563 13.4574 7.6563 13.5874C7.65166 14.1264 7.93504 14.3912 8.49253 14.3912Z" fill="#202020"/>
<path d="M12.1859 15.5635C12.1208 15.5635 12.0744 15.5449 12.0372 15.5031C12.0093 15.4566 12.0001 15.4055 12.0093 15.3451L13.2126 9.67733C13.2219 9.61229 13.2544 9.56119 13.3101 9.51938C13.3612 9.47757 13.417 9.45898 13.4774 9.45898H15.7956C16.4414 9.45898 16.957 9.59371 17.3473 9.85852C17.7422 10.128 17.9419 10.5136 17.9419 11.0199C17.9419 11.164 17.9233 11.3173 17.8908 11.4752C17.7468 12.1442 17.4541 12.6367 17.0081 12.9572C16.5714 13.2778 15.9721 13.4357 15.2102 13.4357H14.0349L13.6353 15.3451C13.6214 15.4101 13.5935 15.4612 13.5378 15.5031C13.4867 15.5449 13.4309 15.5635 13.3705 15.5635H12.1859ZM15.2706 12.2325C15.5169 12.2325 15.7259 12.1674 15.9071 12.0327C16.0929 11.898 16.2137 11.7075 16.2741 11.4566C16.2927 11.3591 16.302 11.2708 16.302 11.1965C16.302 11.0292 16.2509 10.8992 16.1533 10.8109C16.0558 10.718 15.8839 10.6715 15.6469 10.6715H14.6017L14.2718 12.2325H15.2706Z" fill="#202020"/>
</g>
<g clip-path="url(#clip1_1931_8494)">
<path d="M30.9991 18.8261C30.2765 18.8261 29.6054 18.7286 28.986 18.5336C28.3666 18.3386 27.8446 18.0461 27.4202 17.656C26.9958 17.266 26.6918 16.7785 26.5083 16.1935C26.3362 15.6085 26.3133 14.926 26.4395 14.1459C26.5312 13.6527 26.6287 13.1594 26.732 12.6662C26.8467 12.173 26.9614 11.674 27.0761 11.1692C27.4546 9.62068 28.1371 8.44491 29.1236 7.64195C30.1101 6.83898 31.4408 6.4375 33.1155 6.4375C33.8382 6.4375 34.5035 6.54074 35.1115 6.74722C35.7309 6.94222 36.2528 7.24046 36.6772 7.64195C37.1131 8.04343 37.4171 8.53668 37.5892 9.12169C37.7727 9.70671 37.7956 10.3892 37.658 11.1692C37.5777 11.674 37.4802 12.173 37.3655 12.6662C37.2622 13.1594 37.1533 13.6527 37.0386 14.1459C36.6486 15.7175 35.9603 16.8932 34.9738 17.6732C33.9873 18.4418 32.6624 18.8261 30.9991 18.8261ZM31.2228 16.3484C31.8422 16.3484 32.3871 16.1648 32.8574 15.7978C33.3277 15.4307 33.6604 14.8457 33.8554 14.0427C33.9816 13.538 34.0905 13.0619 34.1823 12.6146C34.2855 12.1672 34.3773 11.7026 34.4576 11.2209C34.6067 10.4179 34.5379 9.83289 34.2511 9.46582C33.9644 9.09875 33.5113 8.91521 32.8918 8.91521C32.2724 8.91521 31.7275 9.09875 31.2572 9.46582C30.7984 9.83289 30.4715 10.4179 30.2765 11.2209C30.1503 11.7026 30.0356 12.1672 29.9323 12.6146C29.8406 13.0619 29.7488 13.538 29.657 14.0427C29.5194 14.8457 29.5882 15.4307 29.8635 15.7978C30.1388 16.1648 30.5919 16.3484 31.2228 16.3484ZM39.4804 18.654C39.3657 18.654 39.2739 18.6139 39.2051 18.5336C39.1363 18.4533 39.1133 18.35 39.1363 18.2238L41.5107 7.03972C41.5337 6.91354 41.5968 6.8103 41.7 6.73001C41.8033 6.64971 41.9122 6.60956 42.0269 6.60956H46.6038C47.3035 6.60956 47.9344 6.68986 48.4965 6.85045C49.0701 7.01105 49.5461 7.25767 49.9246 7.59033C50.3032 7.92298 50.567 8.34167 50.7161 8.84639C50.8653 9.33964 50.871 9.91892 50.7333 10.5842C50.4466 11.9034 49.8616 12.8784 48.9783 13.5093C48.1065 14.1402 46.9307 14.4557 45.451 14.4557H43.1281L42.3366 18.2238C42.3137 18.35 42.2506 18.4533 42.1474 18.5336C42.0556 18.6139 41.9466 18.654 41.8205 18.654H39.4804ZM43.5755 12.0812H45.5542C46.0245 12.0812 46.4432 11.955 46.8103 11.7026C47.1888 11.4503 47.4355 11.066 47.5502 10.5498C47.6075 10.2516 47.619 9.98774 47.5846 9.75833C47.5502 9.52891 47.4297 9.34537 47.2233 9.20772C47.0282 9.07007 46.7243 9.00125 46.3113 9.00125H44.2466L43.5755 12.0812ZM53.9128 18.654C53.7866 18.654 53.6891 18.6139 53.6203 18.5336C53.5514 18.4533 53.5285 18.35 53.5514 18.2238L55.4613 9.31096H52.3986C52.2839 9.31096 52.1921 9.27081 52.1233 9.19052C52.0545 9.09875 52.0315 8.99551 52.0545 8.8808L52.4502 7.03972C52.4732 6.91354 52.5305 6.8103 52.6223 6.73001C52.7255 6.64971 52.8402 6.60956 52.9664 6.60956H62.2233C62.3495 6.60956 62.4412 6.64971 62.4986 6.73001C62.5674 6.8103 62.5904 6.91354 62.5674 7.03972L62.1717 8.8808C62.1487 8.99551 62.0856 9.09875 61.9824 9.19052C61.8908 9.27081 61.7818 9.31096 61.6556 9.31096H58.5929L56.7002 18.2238C56.6772 18.35 56.6142 18.4533 56.5109 18.5336C56.4191 18.6139 56.3102 18.654 56.184 18.654H53.9128ZM62.928 18.654C62.8018 18.654 62.7043 18.6139 62.6355 18.5336C62.5667 18.4533 62.5438 18.35 62.5667 18.2238L64.9584 7.03972C64.9813 6.91354 65.0444 6.8103 65.1476 6.73001C65.2509 6.64971 65.3599 6.60956 65.4746 6.60956H67.7974C67.9121 6.60956 68.0039 6.64971 68.0727 6.73001C68.1415 6.8103 68.1645 6.91354 68.1415 7.03972L65.7499 18.2238C65.7269 18.35 65.6638 18.4533 65.5606 18.5336C65.4688 18.6139 65.3656 18.654 65.2509 18.654H62.928ZM69.9866 18.654C69.8604 18.654 69.7629 18.6139 69.6941 18.5336C69.6252 18.4533 69.6023 18.35 69.6252 18.2238L71.9997 7.03972C72.0227 6.91354 72.0857 6.8103 72.189 6.73001C72.2922 6.64971 72.4069 6.60956 72.5331 6.60956H74.3914C74.5749 6.60956 74.7011 6.66118 74.7699 6.76442C74.8502 6.85619 74.9019 6.93075 74.9248 6.9881L76.7831 12.4253L80.9814 6.9881C81.0158 6.93075 81.0847 6.85619 81.1879 6.76442C81.3026 6.66118 81.4517 6.60956 81.6353 6.60956H83.4936C83.6197 6.60956 83.7172 6.64971 83.7861 6.73001C83.8549 6.8103 83.8778 6.91354 83.8549 7.03972L81.4804 18.2238C81.4575 18.35 81.3944 18.4533 81.2911 18.5336C81.1879 18.6139 81.0732 18.654 80.947 18.654H78.8823C78.7675 18.654 78.6758 18.6139 78.607 18.5336C78.5381 18.4533 78.5152 18.35 78.5381 18.2238L79.8802 11.8747L77.2476 15.3676C77.1674 15.4594 77.0699 15.5511 76.9551 15.6429C76.8519 15.7232 76.72 15.7633 76.5594 15.7633H75.6647C75.5041 15.7633 75.3894 15.7232 75.3205 15.6429C75.2517 15.5626 75.2001 15.4708 75.1657 15.3676L73.944 11.7199L72.5503 18.2238C72.5274 18.35 72.4643 18.4533 72.361 18.5336C72.2693 18.6139 72.166 18.654 72.0513 18.654H69.9866ZM85.1647 18.654C85.0385 18.654 84.941 18.6139 84.8722 18.5336C84.8034 18.4533 84.7804 18.35 84.8034 18.2238L87.1951 7.03972C87.218 6.91354 87.2811 6.8103 87.3843 6.73001C87.4876 6.64971 87.5965 6.60956 87.7113 6.60956H90.0341C90.1488 6.60956 90.2406 6.64971 90.3094 6.73001C90.3782 6.8103 90.4012 6.91354 90.3782 7.03972L87.9866 18.2238C87.9636 18.35 87.9005 18.4533 87.7973 18.5336C87.7055 18.6139 87.6023 18.654 87.4876 18.654H85.1647ZM96.0427 18.8261C94.8956 18.8261 93.955 18.6655 93.2209 18.3443C92.4982 18.0231 91.9763 17.5987 91.6551 17.071C91.3454 16.5319 91.2364 15.9641 91.3282 15.3676C91.3511 15.2758 91.397 15.1955 91.4658 15.1267C91.5461 15.0464 91.6379 15.0063 91.7411 15.0063H93.9435C94.1041 15.0063 94.2188 15.0349 94.2877 15.0923C94.3565 15.1496 94.4253 15.2242 94.4941 15.316C94.54 15.488 94.6318 15.6544 94.7694 15.815C94.9071 15.9756 95.0964 16.1075 95.3373 16.2107C95.5896 16.3025 95.8993 16.3484 96.2664 16.3484C96.9317 16.3484 97.4651 16.2451 97.8666 16.0386C98.2681 15.8322 98.5032 15.5511 98.5721 15.1955C98.6409 14.9432 98.595 14.7367 98.4344 14.5761C98.2853 14.404 98.0157 14.2549 97.6257 14.1287C97.2472 13.9911 96.7367 13.8534 96.0943 13.7158C95.257 13.5323 94.5687 13.2799 94.0296 12.9587C93.4904 12.6261 93.1119 12.2074 92.894 11.7026C92.6875 11.1865 92.6588 10.5728 92.8079 9.86156C93.0373 8.80624 93.6051 7.9746 94.5114 7.36664C95.4176 6.74722 96.5933 6.4375 98.0387 6.4375C98.7843 6.4375 99.4438 6.54074 100.017 6.74722C100.602 6.95369 101.09 7.22899 101.48 7.57312C101.87 7.91725 102.151 8.28432 102.323 8.67433C102.495 9.05287 102.552 9.42567 102.495 9.79274C102.484 9.88451 102.438 9.97054 102.357 10.0508C102.277 10.1197 102.185 10.1541 102.082 10.1541H99.7765C99.6618 10.1541 99.5585 10.1311 99.4668 10.0852C99.3865 10.0394 99.3177 9.9648 99.2603 9.86156C99.2603 9.6092 99.1284 9.39126 98.8646 9.20772C98.6007 9.01272 98.2509 8.91521 97.815 8.91521C97.3217 8.91521 96.9088 9.00698 96.5761 9.19052C96.2435 9.36258 96.037 9.63215 95.9567 9.99921C95.8993 10.2286 95.928 10.4294 96.0427 10.6014C96.1689 10.7735 96.3983 10.9226 96.731 11.0488C97.0751 11.175 97.5454 11.3069 98.1419 11.4445C99.1513 11.6396 99.9428 11.9034 100.516 12.236C101.09 12.5572 101.474 12.9644 101.669 13.4577C101.876 13.9509 101.904 14.5532 101.755 15.2644C101.503 16.4344 100.889 17.3234 99.9141 17.9313C98.9506 18.5278 97.6601 18.8261 96.0427 18.8261ZM103.873 18.654C103.747 18.654 103.65 18.6139 103.581 18.5336C103.512 18.4533 103.489 18.35 103.512 18.2238L105.887 7.03972C105.909 6.91354 105.973 6.8103 106.076 6.73001C106.179 6.64971 106.294 6.60956 106.42 6.60956H108.278C108.462 6.60956 108.588 6.66118 108.657 6.76442C108.737 6.85619 108.789 6.93075 108.812 6.9881L110.67 12.4253L114.868 6.9881C114.903 6.93075 114.971 6.85619 115.075 6.76442C115.189 6.66118 115.339 6.60956 115.522 6.60956H117.38C117.507 6.60956 117.604 6.64971 117.673 6.73001C117.742 6.8103 117.765 6.91354 117.742 7.03972L115.367 18.2238C115.344 18.35 115.281 18.4533 115.178 18.5336C115.075 18.6139 114.96 18.654 114.834 18.654H112.769C112.654 18.654 112.563 18.6139 112.494 18.5336C112.425 18.4533 112.402 18.35 112.425 18.2238L113.767 11.8747L111.134 15.3676C111.054 15.4594 110.957 15.5511 110.842 15.6429C110.739 15.7232 110.607 15.7633 110.446 15.7633H109.551C109.391 15.7633 109.276 15.7232 109.207 15.6429C109.139 15.5626 109.087 15.4708 109.053 15.3676L107.831 11.7199L106.437 18.2238C106.414 18.35 106.351 18.4533 106.248 18.5336C106.156 18.6139 106.053 18.654 105.938 18.654H103.873Z" fill="#A0A0A0"/>
</g>
<defs>
<clipPath id="clip0_1931_8494">
<rect width="23.2286" height="23.2286" fill="white" transform="translate(0.139648 0.945312)"/>
</clipPath>
<clipPath id="clip1_1931_8494">
<rect width="91.7672" height="12.9048" fill="white" transform="translate(26.0928 6.10742)"/>
</clipPath>
</defs>
</svg>
