<svg width="30" height="31" viewBox="0 0 30 31" fill="none" xmlns="http://www.w3.org/2000/svg">
<path d="M30 15.4609C30 23.7452 23.2843 30.4609 15 30.4609C6.71573 30.4609 0 23.7452 0 15.4609C0 7.17667 6.71573 0.460938 15 0.460938C23.2843 0.460938 30 7.17667 30 15.4609Z" fill="white"/>
<path d="M25.4919 8.16407C25.257 7.27496 24.5021 6.38585 23.1433 5.39608C22.0529 4.60762 20.8953 4.15468 19.9727 4.15468C19.7881 4.15468 19.6204 4.17146 19.4526 4.20501C19.0332 4.28889 18.6642 4.59085 18.4293 5.04379C18.1441 5.58062 18.077 6.30197 18.2615 6.73814C18.3286 6.87235 18.4125 7.0401 18.5132 7.19108C17.6241 7.72791 17.1208 7.87889 17.0537 7.89566C19.3687 8.66735 21.2979 10.2778 22.5058 12.3748L22.5226 12.1735C22.5729 11.6199 22.7407 10.9824 22.9755 10.3281C23.2104 10.3952 23.4452 10.4288 23.6801 10.4288C24.3008 10.4288 24.8376 10.1772 25.1731 9.72422C25.5086 9.27127 25.6429 8.66735 25.4919 8.16407Z" fill="#5E12A0"/>
<path d="M23.0771 9.84227C24.6037 10.2617 25.2244 9.08736 25.023 8.2989C24.805 7.51045 24.1004 6.70521 22.859 5.79932C21.6176 4.89344 20.3594 4.52437 19.5542 4.69213C18.7489 4.85988 18.5141 6.08451 18.7154 6.55423C18.7993 6.73876 18.9838 7.00717 19.2354 7.30914C18.9167 7.52722 18.6147 7.69498 18.3631 7.84596C19.9065 8.53376 21.2485 9.60741 22.2551 10.9495C22.3725 10.4965 22.5402 10.0939 22.6912 9.74162C22.8087 9.75839 22.9429 9.79194 23.0771 9.84227Z" fill="url(#paint0_radial_2419_12513)"/>
<path d="M14.3395 26.283C19.5187 26.283 23.7172 22.0845 23.7172 16.9054C23.7172 11.7262 19.5187 7.52775 14.3395 7.52775C9.16037 7.52775 4.96191 11.7262 4.96191 16.9054C4.96191 22.0845 9.16037 26.283 14.3395 26.283Z" fill="url(#paint1_radial_2419_12513)"/>
<path d="M24.2519 7.52672C22.977 6.18467 21.9033 5.83238 20.6116 5.54719C19.605 5.31233 19.8735 4.74196 21.0981 4.85939C20.5109 4.65808 19.9573 4.60775 19.5547 4.69163C18.7495 4.85939 18.5146 6.08401 18.7159 6.55373C18.7998 6.73827 18.9843 7.00668 19.236 7.30864C18.783 7.6106 18.3972 7.82869 18.0785 7.99644C18.2294 8.06355 18.414 8.14743 18.6321 8.26486C19.2024 8.56682 19.8231 9.07009 19.8231 9.07009C18.8837 8.26486 19.085 7.89579 20.3767 6.9899C20.7793 6.70471 21.5175 6.73827 22.2053 7.09056C22.8931 7.44285 23.6983 8.33196 23.6983 8.33196L22.9266 9.80822C22.977 9.825 23.0273 9.84177 23.0776 9.85855C23.5641 9.99275 23.95 9.9592 24.2519 9.84177C24.6042 9.62369 25.5269 8.88556 24.2519 7.52672Z" fill="#A082A5"/>
<path d="M20.5957 6.35307C20.9312 6.48727 21.3673 6.72213 21.9042 7.07442C22.5416 7.49381 23.0952 7.96354 23.4475 8.3326C22.8604 9.10428 22.4745 10.1612 22.2397 10.8993C22.3571 11.067 22.4913 11.2348 22.6087 11.4026C22.7262 10.9832 22.9275 10.3625 23.1959 9.74176C23.263 9.75854 23.3469 9.75854 23.4307 9.75854C23.6321 9.75854 23.8669 9.72498 24.0514 9.574C24.1857 9.47335 24.3366 9.28882 24.3199 8.9533C24.3199 8.63456 24.0682 8.23195 23.5482 7.74545C23.1791 7.39316 22.6758 7.00732 22.1726 6.65503C20.7299 5.69881 19.7233 5.4304 19.2704 5.88335C18.9684 6.18531 19.002 6.55438 19.1026 6.82279C18.5658 7.17508 18.1129 7.42671 17.8109 7.59447C18.0122 7.66157 18.1967 7.74545 18.398 7.82933C18.9349 7.54414 19.7065 7.05765 20.5957 6.35307ZM23.7663 8.75199C23.8166 8.83587 23.8334 8.91975 23.8334 8.97008C23.8334 9.12106 23.783 9.17139 23.7495 9.20494C23.6824 9.25527 23.5482 9.28882 23.4307 9.28882C23.5314 9.08751 23.6488 8.91975 23.7663 8.75199ZM19.6227 6.25241C19.673 6.20209 19.8072 6.16853 20.0253 6.20209C19.8575 6.33629 19.6898 6.45372 19.522 6.57115C19.5052 6.45372 19.522 6.33629 19.6227 6.25241Z" fill="#5E12A0"/>
<path d="M14.341 6.97409C8.8553 6.97409 4.40974 11.4197 4.40974 16.9053C4.40974 22.391 8.8553 26.8365 14.341 26.8365C19.8266 26.8365 24.2722 22.391 24.2722 16.9053C24.2722 11.4197 19.8098 6.97409 14.341 6.97409ZM14.341 26.2829C9.15727 26.2829 4.96334 22.089 4.96334 16.9053C4.96334 11.7216 9.15727 7.52769 14.341 7.52769C19.5247 7.52769 23.7186 11.7216 23.7186 16.9053C23.7186 22.089 19.5079 26.2829 14.341 26.2829Z" fill="#5E12A0"/>
<path d="M14.3395 26.283C19.5187 26.283 23.7172 22.0845 23.7172 16.9054C23.7172 11.7262 19.5187 7.52775 14.3395 7.52775C9.16037 7.52775 4.96191 11.7262 4.96191 16.9054C4.96191 22.0845 9.16037 26.283 14.3395 26.283Z" fill="url(#paint2_linear_2419_12513)"/>
<path d="M14.2698 25.1411C9.15321 24.3191 5.68064 19.5044 6.51942 14.3878C6.88849 12.1231 8.02923 10.1939 9.6397 8.80154C7.2911 10.1604 5.54643 12.5257 5.07671 15.4112C4.2547 20.5278 7.72727 25.3424 12.8271 26.1644C15.679 26.6341 18.4302 25.745 20.46 24.0003C18.665 25.0404 16.4842 25.4934 14.2698 25.1411Z" fill="#8D7291"/>
<path d="M15.8319 7.66128C13.4665 7.27544 11.1682 7.81226 9.28935 9.00334C9.2558 9.03689 9.22225 9.07044 9.22225 9.07044C9.9436 8.63427 11.0005 8.24843 11.0005 8.24843C8.28281 9.82535 7.44402 11.6203 7.44402 11.6203C8.50089 9.57371 11.6044 8.131 14.0369 8.03035C16.4694 7.92969 18.063 8.65105 20.009 10.2112C21.955 11.7881 23.1293 15.009 23.0119 17.5589C22.9112 20.1089 21.5692 22.1723 21.5692 22.1723C22.4918 20.9812 23.0454 20.1089 23.3977 19.2197C23.4648 18.9513 23.5319 18.6829 23.5655 18.3977C24.4043 13.2979 20.9485 8.48329 15.8319 7.66128Z" fill="url(#paint3_linear_2419_12513)"/>
<path d="M23.2443 16.8214C23.2443 21.7367 19.2516 25.7293 14.3364 25.7293C9.42108 25.7293 5.41169 21.7367 5.41169 16.8214H23.2443Z" fill="url(#paint4_linear_2419_12513)"/>
<path d="M22.5408 16.8214C22.5408 21.6193 18.7495 25.5448 13.9852 25.7293H14.3375C19.2528 25.7293 23.2454 21.7367 23.2454 16.8214H22.5408Z" fill="url(#paint5_linear_2419_12513)"/>
<path d="M6.66987 16.8214H5.41169C5.41169 21.7367 9.40431 25.7293 14.3196 25.7293C14.5377 25.7293 14.739 25.7293 14.9403 25.7126C10.327 25.3771 6.66987 21.5186 6.66987 16.8214Z" fill="url(#paint6_linear_2419_12513)"/>
<path d="M23.2275 16.9047C23.2275 15.8813 21.4493 15.2942 19.0839 15.0929C17.3728 14.9587 15.6449 15.1264 13.6653 15.7304C11.9542 16.2336 10.4108 16.1498 9.28688 16.0155C6.7873 15.7304 5.41169 15.6968 5.41169 16.9047C5.41169 18.6493 8.96814 20.8302 14.3028 20.0753C17.0037 19.6894 18.3961 18.901 19.9898 18.3641C21.7177 17.7938 23.2275 17.8105 23.2275 16.9047Z" fill="url(#paint7_linear_2419_12513)"/>
<path d="M17.2599 12.6779C18.0938 12.6779 18.7697 12.0021 18.7697 11.1681C18.7697 10.3342 18.0938 9.65832 17.2599 9.65832C16.4259 9.65832 15.75 10.3342 15.75 11.1681C15.75 12.0021 16.4259 12.6779 17.2599 12.6779Z" fill="white"/>
<path d="M19.7236 13.8011C20.0757 13.8011 20.361 13.5157 20.361 13.1636C20.361 12.8115 20.0757 12.5261 19.7236 12.5261C19.3714 12.5261 19.0861 12.8115 19.0861 13.1636C19.0861 13.5157 19.3714 13.8011 19.7236 13.8011Z" fill="white"/>
<path d="M22.0058 9.95894H21.9722C21.8716 9.94216 21.8045 9.84151 21.8212 9.72408C21.9722 8.95239 22.6097 8.21426 22.6432 8.18071C22.7104 8.09683 22.8446 8.09683 22.9117 8.16393C22.9955 8.23104 22.9955 8.36524 22.9284 8.43235C22.9117 8.44912 22.3245 9.13693 22.1903 9.80795C22.1735 9.90861 22.0897 9.95894 22.0058 9.95894Z" fill="url(#paint8_linear_2419_12513)"/>
<path d="M19.9775 4.15522C20.9169 4.15522 22.0745 4.60816 23.1481 5.39662C24.5069 6.38638 25.2619 7.25872 25.4967 8.16461C25.6309 8.68466 25.5135 9.27181 25.178 9.70798C24.8257 10.1609 24.3056 10.4126 23.6849 10.4126C23.4669 10.4126 23.232 10.379 22.9804 10.3119C22.8294 10.6977 22.7119 11.0836 22.6281 11.4527C23.6514 13.0128 24.2553 14.8917 24.2553 16.9048C24.2553 22.3904 19.8097 26.836 14.3241 26.836C8.83843 26.836 4.40965 22.3904 4.40965 16.9048C4.40965 11.4191 8.85521 6.97353 14.3409 6.97353C15.5487 6.97353 16.7062 7.19162 17.7799 7.59424C17.9812 7.49358 18.2328 7.35938 18.518 7.19162C18.4174 7.04064 18.3167 6.88966 18.2664 6.73867C18.0819 6.28573 18.149 5.58115 18.4341 5.04433C18.669 4.60816 19.0213 4.3062 19.4575 4.20554C19.6084 4.17199 19.793 4.15522 19.9775 4.15522ZM19.9775 3.87003C19.7762 3.87003 19.5749 3.8868 19.3904 3.93713C18.8871 4.05456 18.4509 4.39008 18.1657 4.9269C17.847 5.5476 17.7631 6.35283 17.9812 6.87288C18.0147 6.93998 18.0483 7.02386 18.0986 7.10774C17.9812 7.17484 17.8638 7.24195 17.7463 7.29227C16.6391 6.90643 15.4984 6.70512 14.3241 6.70512C12.9485 6.70512 11.6064 6.97354 10.3482 7.51036C9.12362 8.0304 8.0332 8.76854 7.09376 9.70798C6.15432 10.6474 5.41619 11.7378 4.89614 12.9625C4.35932 14.2206 4.09091 15.5627 4.09091 16.9383C4.09091 18.3139 4.35932 19.656 4.89614 20.9141C5.41619 22.1388 6.15432 23.2292 7.09376 24.1686C8.0332 25.1081 9.12362 25.8462 10.3482 26.3663C11.6064 26.9031 12.9485 27.1715 14.3241 27.1715C15.6997 27.1715 17.0418 26.9031 18.2999 26.3663C19.5246 25.8462 20.615 25.1081 21.5544 24.1686C22.4939 23.2292 23.232 22.1388 23.752 20.9141C24.2889 19.656 24.5573 18.3139 24.5573 16.9383C24.5573 14.9755 24.0037 13.0799 22.9468 11.4359C22.9971 11.1842 23.081 10.9326 23.1649 10.681C23.3326 10.7145 23.5172 10.7313 23.6849 10.7313C24.3895 10.7313 25.0102 10.4461 25.4128 9.90928C25.7987 9.40601 25.9497 8.70143 25.7819 8.11428C25.5135 7.14129 24.7418 6.21863 23.3159 5.19531C22.1919 4.33975 20.9673 3.87003 19.9775 3.87003Z" fill="white"/>
<path d="M13.7206 23.9007C13.9799 23.9007 14.1903 23.6903 14.1903 23.431C14.1903 23.1716 13.9799 22.9613 13.7206 22.9613C13.4612 22.9613 13.2508 23.1716 13.2508 23.431C13.2508 23.6903 13.4612 23.9007 13.7206 23.9007Z" fill="#9534E1"/>
<path d="M13.4506 23.7318C13.2661 23.5473 13.2661 23.2453 13.4506 23.0608C13.4842 23.0272 13.5178 23.0105 13.5513 22.9769C13.4842 22.9937 13.4339 23.0272 13.3835 23.0776C13.199 23.2621 13.199 23.5641 13.3835 23.7486C13.5345 23.8996 13.7694 23.9331 13.9539 23.8325C13.7862 23.8996 13.5849 23.866 13.4506 23.7318Z" fill="url(#paint9_linear_2419_12513)"/>
<path d="M13.8866 23.2964C13.9422 23.2964 13.9873 23.2512 13.9873 23.1957C13.9873 23.1402 13.9422 23.0951 13.8866 23.0951C13.8311 23.0951 13.786 23.1402 13.786 23.1957C13.786 23.2512 13.8311 23.2964 13.8866 23.2964Z" fill="#BBBBBB"/>
<path d="M16.1685 23.6659C16.4279 23.6659 16.6382 23.4555 16.6382 23.1961C16.6382 22.9368 16.4279 22.7264 16.1685 22.7264C15.9091 22.7264 15.6988 22.9368 15.6988 23.1961C15.6988 23.4555 15.9091 23.6659 16.1685 23.6659Z" fill="#B134DD"/>
<path d="M15.8986 23.497C15.7141 23.3125 15.7141 23.0105 15.8986 22.826C15.9321 22.7924 15.9657 22.7756 15.9992 22.7421C15.9321 22.7589 15.8818 22.7924 15.8315 22.8427C15.647 23.0273 15.647 23.3292 15.8315 23.5138C15.9825 23.6647 16.2173 23.6983 16.4019 23.5976C16.2341 23.6647 16.0328 23.6312 15.8986 23.497Z" fill="url(#paint10_linear_2419_12513)"/>
<path d="M16.3346 23.0615C16.3901 23.0615 16.4352 23.0164 16.4352 22.9609C16.4352 22.9053 16.3901 22.8602 16.3346 22.8602C16.279 22.8602 16.2339 22.9053 16.2339 22.9609C16.2339 23.0164 16.279 23.0615 16.3346 23.0615Z" fill="#BBBBBB"/>
<path d="M14.958 24.756C15.1526 24.756 15.3103 24.5983 15.3103 24.4037C15.3103 24.2091 15.1526 24.0515 14.958 24.0515C14.7634 24.0515 14.6057 24.2091 14.6057 24.4037C14.6057 24.5983 14.7634 24.756 14.958 24.756Z" fill="#A034DF"/>
<path d="M14.7567 24.6221C14.6225 24.4879 14.6225 24.2531 14.7567 24.1189C14.7735 24.1021 14.8071 24.0853 14.8238 24.0685C14.7735 24.0853 14.74 24.1189 14.7064 24.1524C14.5722 24.2866 14.5722 24.5215 14.7064 24.6557C14.8238 24.7731 14.9916 24.7899 15.1426 24.706C15.0084 24.7563 14.8574 24.7228 14.7567 24.6221Z" fill="url(#paint11_linear_2419_12513)"/>
<path d="M15.0771 24.2867C15.1142 24.2867 15.1442 24.2567 15.1442 24.2196C15.1442 24.1825 15.1142 24.1525 15.0771 24.1525C15.04 24.1525 15.01 24.1825 15.01 24.2196C15.01 24.2567 15.04 24.2867 15.0771 24.2867Z" fill="#BBBBBB"/>
<path d="M17.1213 24.5041C17.3159 24.5041 17.4736 24.3464 17.4736 24.1518C17.4736 23.9572 17.3159 23.7995 17.1213 23.7995C16.9267 23.7995 16.7691 23.9572 16.7691 24.1518C16.7691 24.3464 16.9267 24.5041 17.1213 24.5041Z" fill="#B934DC"/>
<path d="M16.92 24.3702C16.7858 24.236 16.7858 24.0012 16.92 23.867C16.9368 23.8502 16.9704 23.8334 16.9871 23.8166C16.9368 23.8334 16.9033 23.867 16.8697 23.9005C16.7355 24.0347 16.7355 24.2696 16.8697 24.4038C16.9871 24.5212 17.1549 24.538 17.3059 24.4541C17.1717 24.5044 17.0207 24.4709 16.92 24.3702Z" fill="url(#paint12_linear_2419_12513)"/>
<path d="M17.2404 24.0348C17.2775 24.0348 17.3075 24.0048 17.3075 23.9677C17.3075 23.9306 17.2775 23.9006 17.2404 23.9006C17.2033 23.9006 17.1733 23.9306 17.1733 23.9677C17.1733 24.0048 17.2033 24.0348 17.2404 24.0348Z" fill="#BBBBBB"/>
<path d="M11.7225 23.7318C12.1488 23.7318 12.4942 23.3864 12.4942 22.9601C12.4942 22.534 12.1488 22.1885 11.7225 22.1885C11.2964 22.1885 10.9509 22.534 10.9509 22.9601C10.9509 23.3864 11.2964 23.7318 11.7225 23.7318Z" fill="#7734E5"/>
<path d="M11.2837 23.4475C10.9817 23.1456 10.9817 22.6591 11.2837 22.3571C11.334 22.3068 11.3843 22.2732 11.4514 22.2397C11.3508 22.2732 11.2669 22.3403 11.183 22.4074C10.8811 22.7094 10.8811 23.1959 11.183 23.4979C11.4347 23.7495 11.8205 23.7998 12.1225 23.6153C11.8373 23.7327 11.5018 23.6824 11.2837 23.4475Z" fill="url(#paint13_linear_2419_12513)"/>
<path d="M11.9897 22.7261C12.0823 22.7261 12.1574 22.6509 12.1574 22.5583C12.1574 22.4657 12.0823 22.3905 11.9897 22.3905C11.8971 22.3905 11.8219 22.4657 11.8219 22.5583C11.8219 22.6509 11.8971 22.7261 11.9897 22.7261Z" fill="#BBBBBB"/>
<path d="M18.6167 21.8375C19.043 21.8375 19.3884 21.4921 19.3884 21.0658C19.3884 20.6397 19.043 20.2941 18.6167 20.2941C18.1906 20.2941 17.845 20.6397 17.845 21.0658C17.845 21.4921 18.1906 21.8375 18.6167 21.8375Z" fill="#CE34D9"/>
<path d="M18.1608 21.5518C17.8588 21.2498 17.8588 20.7633 18.1608 20.4614C18.2111 20.411 18.2614 20.3775 18.3285 20.3439C18.2279 20.3775 18.144 20.4446 18.0601 20.5117C17.7582 20.8137 17.7582 21.3001 18.0601 21.6021C18.3118 21.8537 18.6976 21.9041 18.9996 21.7195C18.7144 21.837 18.3956 21.7866 18.1608 21.5518Z" fill="url(#paint14_linear_2419_12513)"/>
<defs>
<radialGradient id="paint0_radial_2419_12513" cx="0" cy="0" r="1" gradientUnits="userSpaceOnUse" gradientTransform="translate(28.4643 12.797) scale(33.5884 35.7228)">
<stop stop-color="#FAEDFC" stop-opacity="0.6"/>
<stop offset="0.68" stop-color="#A087C9"/>
<stop offset="1" stop-color="#10002F"/>
</radialGradient>
<radialGradient id="paint1_radial_2419_12513" cx="0" cy="0" r="1" gradientUnits="userSpaceOnUse" gradientTransform="translate(24.9313 5.11963) scale(29.3428)">
<stop stop-color="#FAEDFC" stop-opacity="0.6"/>
<stop offset="0.68" stop-color="#A087C9"/>
<stop offset="1" stop-color="#10002F"/>
</radialGradient>
<linearGradient id="paint2_linear_2419_12513" x1="12.5939" y1="30.2481" x2="17.3917" y2="0.648772" gradientUnits="userSpaceOnUse">
<stop stop-color="#81FFFF" stop-opacity="0.6"/>
<stop offset="0.62" stop-color="white" stop-opacity="0"/>
<stop offset="1" stop-color="white" stop-opacity="0"/>
</linearGradient>
<linearGradient id="paint3_linear_2419_12513" x1="24.9345" y1="6.60742" x2="9.26496" y2="19.5579" gradientUnits="userSpaceOnUse">
<stop stop-color="white" stop-opacity="0.6"/>
<stop offset="0.29" stop-color="white" stop-opacity="0.6"/>
<stop offset="0.78" stop-color="white" stop-opacity="0"/>
<stop offset="1" stop-color="white" stop-opacity="0"/>
</linearGradient>
<linearGradient id="paint4_linear_2419_12513" x1="0.0127056" y1="15.4434" x2="29.9927" y2="15.4434" gradientUnits="userSpaceOnUse">
<stop stop-color="#0002E9"/>
<stop offset="1" stop-color="#FF00C7"/>
</linearGradient>
<linearGradient id="paint5_linear_2419_12513" x1="32.719" y1="3.09342" x2="0.148018" y2="32.7039" gradientUnits="userSpaceOnUse">
<stop stop-color="white" stop-opacity="0.6"/>
<stop offset="0.29" stop-color="white" stop-opacity="0.6"/>
<stop offset="0.78" stop-color="white" stop-opacity="0"/>
<stop offset="1" stop-color="white" stop-opacity="0"/>
</linearGradient>
<linearGradient id="paint6_linear_2419_12513" x1="0.0237782" y1="15.4434" x2="30.0407" y2="15.4434" gradientUnits="userSpaceOnUse">
<stop stop-color="#000292" stop-opacity="0.7"/>
<stop offset="1" stop-color="#7D00C7" stop-opacity="0.7"/>
</linearGradient>
<linearGradient id="paint7_linear_2419_12513" x1="0.0328588" y1="15.4925" x2="30.0009" y2="15.4925" gradientUnits="userSpaceOnUse">
<stop stop-color="#000292"/>
<stop offset="1" stop-color="#BE00C7"/>
</linearGradient>
<linearGradient id="paint8_linear_2419_12513" x1="29.0156" y1="0.192142" x2="13.331" y2="40.7625" gradientUnits="userSpaceOnUse">
<stop stop-color="white" stop-opacity="0.6"/>
<stop offset="0.29" stop-color="white" stop-opacity="0.6"/>
<stop offset="0.78" stop-color="white" stop-opacity="0"/>
<stop offset="1" stop-color="white" stop-opacity="0"/>
</linearGradient>
<linearGradient id="paint9_linear_2419_12513" x1="-0.0198817" y1="15.8165" x2="30.022" y2="15.8165" gradientUnits="userSpaceOnUse">
<stop stop-color="white" stop-opacity="0.6"/>
<stop offset="0.29" stop-color="white" stop-opacity="0.6"/>
<stop offset="0.78" stop-color="white" stop-opacity="0"/>
<stop offset="1" stop-color="white" stop-opacity="0"/>
</linearGradient>
<linearGradient id="paint10_linear_2419_12513" x1="-0.0923077" y1="15.7118" x2="29.9496" y2="15.7118" gradientUnits="userSpaceOnUse">
<stop stop-color="white" stop-opacity="0.6"/>
<stop offset="0.29" stop-color="white" stop-opacity="0.6"/>
<stop offset="0.78" stop-color="white" stop-opacity="0"/>
<stop offset="1" stop-color="white" stop-opacity="0"/>
</linearGradient>
<linearGradient id="paint11_linear_2419_12513" x1="-0.122812" y1="15.2257" x2="29.655" y2="15.2257" gradientUnits="userSpaceOnUse">
<stop stop-color="white" stop-opacity="0.6"/>
<stop offset="0.29" stop-color="white" stop-opacity="0.6"/>
<stop offset="0.78" stop-color="white" stop-opacity="0"/>
<stop offset="1" stop-color="white" stop-opacity="0"/>
</linearGradient>
<linearGradient id="paint12_linear_2419_12513" x1="-0.527812" y1="15.1965" x2="29.25" y2="15.1965" gradientUnits="userSpaceOnUse">
<stop stop-color="white" stop-opacity="0.6"/>
<stop offset="0.29" stop-color="white" stop-opacity="0.6"/>
<stop offset="0.78" stop-color="white" stop-opacity="0"/>
<stop offset="1" stop-color="white" stop-opacity="0"/>
</linearGradient>
<linearGradient id="paint13_linear_2419_12513" x1="-0.198129" y1="15.4154" x2="29.6266" y2="15.4154" gradientUnits="userSpaceOnUse">
<stop stop-color="white" stop-opacity="0.6"/>
<stop offset="0.29" stop-color="white" stop-opacity="0.6"/>
<stop offset="0.78" stop-color="white" stop-opacity="0"/>
<stop offset="1" stop-color="white" stop-opacity="0"/>
</linearGradient>
<linearGradient id="paint14_linear_2419_12513" x1="-0.0328058" y1="15.4053" x2="29.7919" y2="15.4053" gradientUnits="userSpaceOnUse">
<stop stop-color="white" stop-opacity="0.6"/>
<stop offset="0.29" stop-color="white" stop-opacity="0.6"/>
<stop offset="0.78" stop-color="white" stop-opacity="0"/>
<stop offset="1" stop-color="white" stop-opacity="0"/>
</linearGradient>
</defs>
</svg>
