<svg width="84" height="21" viewBox="0 0 84 21" fill="none" xmlns="http://www.w3.org/2000/svg">
<g clip-path="url(#clip0_1931_8974)">
<path d="M23.4629 12.0115C23.4629 9.29956 25.418 7.34766 28.1043 7.34766C30.7905 7.34766 32.7457 9.29956 32.7457 12.0115C32.7457 14.7235 30.7905 16.6754 28.1043 16.6754C25.4351 16.6754 23.4629 14.7235 23.4629 12.0115ZM30.8075 12.0115C30.8075 10.3187 29.7364 9.04049 28.1043 9.04049C26.4721 9.04049 25.418 10.3187 25.418 12.0115C25.418 13.687 26.4721 14.9826 28.1043 14.9826C29.7364 14.9653 30.8075 13.687 30.8075 12.0115Z" fill="white"/>
<path d="M33.4746 15.2394L34.4948 13.7711C35.1238 14.4275 36.0929 14.9803 37.317 14.9803C38.354 14.9803 38.8641 14.4966 38.8641 13.9784C38.8641 12.3893 33.7467 13.4775 33.7467 10.0746C33.7467 8.57182 35.0218 7.32812 37.113 7.32812C38.524 7.32812 39.6971 7.75996 40.5813 8.58907L39.5271 9.98823C38.8131 9.31458 37.844 9.00365 36.943 9.00365C36.1269 9.00365 35.6849 9.36638 35.6849 9.90187C35.6849 11.3355 40.7853 10.3683 40.7853 13.7366C40.7853 15.3948 39.6291 16.6385 37.232 16.6385C35.5318 16.6731 34.3077 16.0858 33.4746 15.2394Z" fill="white"/>
<path d="M49.7967 16.5185V10.1963L47.2974 16.5185H46.4645L43.9653 10.1963V16.5185H42.0781V7.48438H44.7303L46.8895 12.9428L49.0486 7.48438H51.7178V16.5012H49.7967V16.5185Z" fill="white"/>
<path d="M53.0264 12.0115C53.0264 9.29956 54.9815 7.34766 57.6677 7.34766C60.3539 7.34766 62.309 9.29956 62.309 12.0115C62.309 14.7235 60.3539 16.6754 57.6677 16.6754C54.9815 16.6754 53.0264 14.7235 53.0264 12.0115ZM60.3709 12.0115C60.3709 10.3187 59.2999 9.04043 57.6677 9.04043C56.0355 9.04043 54.9815 10.3187 54.9815 12.0115C54.9815 13.687 56.0355 14.9825 57.6677 14.9825C59.2999 14.9653 60.3709 13.687 60.3709 12.0115Z" fill="white"/>
<path d="M63.041 15.2394L64.061 13.7711C64.6901 14.4275 65.6592 14.9803 66.883 14.9803C67.9203 14.9803 68.4306 14.4966 68.4306 13.9784C68.4306 12.3893 63.3129 13.4775 63.3129 10.0746C63.3129 8.57182 64.5884 7.32812 66.6791 7.32812C68.0902 7.32812 69.2639 7.75996 70.1474 8.58907L69.0934 9.98823C68.3797 9.31458 67.4107 9.00365 66.5092 9.00365C65.6933 9.00365 65.2512 9.36638 65.2512 9.90187C65.2512 11.3355 70.3513 10.3683 70.3513 13.7366C70.3513 15.3948 69.1957 16.6385 66.7981 16.6385C65.0981 16.6731 63.8741 16.0858 63.041 15.2394Z" fill="white"/>
<path d="M71.627 16.5185V7.48438H73.5316V16.5012H71.627V16.5185Z" fill="white"/>
<path d="M74.6865 15.2394L75.7071 13.7711C76.3357 14.4275 77.3048 14.9803 78.5287 14.9803C79.5659 14.9803 80.0762 14.4966 80.0762 13.9784C80.0762 12.3893 74.9587 13.4775 74.9587 10.0746C74.9587 8.57182 76.2334 7.32812 78.3253 7.32812C79.7358 7.32812 80.9095 7.75996 81.7936 8.58907L80.739 9.98823C80.0254 9.31458 79.0563 9.00365 78.1548 9.00365C77.3389 9.00365 76.8968 9.36638 76.8968 9.90187C76.8968 11.3355 81.9976 10.3683 81.9976 13.7366C81.9976 15.3948 80.8413 16.6385 78.4437 16.6385C76.727 16.6731 75.5031 16.0858 74.6865 15.2394Z" fill="white"/>
<path d="M20.11 4.18269C19.9085 3.39461 19.2611 2.60654 18.0957 1.72924C17.1605 1.03038 16.1678 0.628906 15.3765 0.628906C15.2182 0.628906 15.0744 0.643772 14.9305 0.673513C14.5708 0.747862 14.2543 1.01551 14.0528 1.41698C13.8082 1.89281 13.7507 2.5322 13.909 2.9188C13.9665 3.03776 14.0384 3.18644 14.1248 3.32026C13.3623 3.79609 12.9306 3.92992 12.873 3.9448C14.8585 4.62876 16.5131 6.05626 17.549 7.91493L17.5634 7.7365C17.6065 7.24579 17.7504 6.68074 17.9518 6.10085C18.1532 6.16032 18.3547 6.19008 18.5561 6.19008C19.0884 6.19008 19.5488 5.96702 19.8366 5.56554C20.1244 5.16407 20.2395 4.62876 20.11 4.18269Z" fill="#5E12A0"/>
<path d="M18.039 5.66811C19.3483 6.03987 19.8806 4.99902 19.7079 4.30013C19.5209 3.60129 18.9166 2.88754 17.8519 2.08459C16.7873 1.28165 15.7082 0.954512 15.0176 1.10321C14.327 1.2519 14.1256 2.33737 14.2983 2.75372C14.3701 2.91728 14.5284 3.15517 14.7443 3.42282C14.4709 3.61612 14.2119 3.76483 13.9961 3.89865C15.3197 4.50831 16.4707 5.45997 17.334 6.64953C17.4347 6.24806 17.5786 5.89117 17.7081 5.57892C17.8088 5.5938 17.9239 5.62352 18.039 5.66811Z" fill="url(#paint0_radial_1931_8974)"/>
<path d="M10.5435 20.2412C14.9854 20.2412 18.5862 16.5198 18.5862 11.9292C18.5862 7.33862 14.9854 3.61719 10.5435 3.61719C6.10178 3.61719 2.50098 7.33862 2.50098 11.9292C2.50098 16.5198 6.10178 20.2412 10.5435 20.2412Z" fill="url(#paint1_radial_1931_8974)"/>
<path opacity="0.6" d="M19.0465 3.61571C17.9531 2.42615 17.0324 2.11389 15.9245 1.86111C15.0612 1.65293 15.2915 1.14738 16.3417 1.25146C15.8381 1.07303 15.3633 1.02842 15.018 1.10277C14.3275 1.25146 14.1261 2.33694 14.2987 2.75328C14.3706 2.91684 14.5289 3.15476 14.7447 3.42241C14.3562 3.69007 14.0253 3.88337 13.752 4.03207C13.8815 4.09154 14.0397 4.16585 14.2268 4.26996C14.7159 4.53761 15.2483 4.98368 15.2483 4.98368C14.4426 4.26996 14.6152 3.94283 15.723 3.13988C16.0683 2.8871 16.7014 2.91684 17.2913 3.22911C17.8812 3.54136 18.5718 4.32944 18.5718 4.32944L17.91 5.63794C17.9531 5.65281 17.9963 5.6677 18.0395 5.68258C18.4567 5.80152 18.7876 5.77176 19.0465 5.6677C19.3487 5.4744 20.14 4.82015 19.0465 3.61571Z" fill="#A98698"/>
<path d="M15.9098 2.57509C16.1975 2.69405 16.5716 2.90222 17.032 3.2145C17.5787 3.58622 18.0535 4.00258 18.3556 4.3297C17.8521 5.01366 17.5212 5.95044 17.3198 6.6047C17.4205 6.75343 17.5356 6.90214 17.6363 7.05084C17.737 6.67905 17.9097 6.12887 18.1399 5.57873C18.1974 5.59361 18.2693 5.59361 18.3413 5.59361C18.5139 5.59361 18.7153 5.56385 18.8736 5.43003C18.9887 5.34079 19.1182 5.17725 19.1038 4.87984C19.1038 4.59735 18.888 4.24047 18.442 3.80928C18.1254 3.49699 17.6938 3.15498 17.2622 2.84275C16.0249 1.99518 15.1616 1.75727 14.7732 2.15875C14.5142 2.4264 14.543 2.75353 14.6293 2.99144C14.1689 3.30368 13.7804 3.52675 13.5215 3.67545C13.6941 3.73492 13.8524 3.80928 14.0251 3.88358C14.4854 3.63081 15.1473 3.19962 15.9098 2.57509ZM18.629 4.70142C18.6722 4.77577 18.6865 4.85013 18.6865 4.89472C18.6865 5.02855 18.6434 5.07314 18.6147 5.1029C18.5571 5.14749 18.442 5.17725 18.3413 5.17725C18.4276 4.99883 18.5283 4.85013 18.629 4.70142ZM15.0753 2.48588C15.1184 2.44127 15.2336 2.41153 15.4206 2.44127C15.2767 2.56023 15.1329 2.66431 14.989 2.76839C14.9746 2.66431 14.989 2.56023 15.0753 2.48588Z" fill="#5E12A0"/>
<path d="M10.5428 3.125C5.83808 3.125 2.02539 7.0654 2.02539 11.9277C2.02539 16.79 5.83808 20.7304 10.5428 20.7304C15.2475 20.7304 19.0602 16.79 19.0602 11.9277C19.0602 7.0654 15.2331 3.125 10.5428 3.125ZM10.5428 20.2397C6.09704 20.2397 2.50018 16.5224 2.50018 11.9277C2.50018 7.33309 6.09704 3.61571 10.5428 3.61571C14.9885 3.61571 18.5854 7.33309 18.5854 11.9277C18.5854 16.5224 14.9741 20.2397 10.5428 20.2397Z" fill="#5E12A0"/>
<path opacity="0.6" d="M10.5435 20.2412C14.9854 20.2412 18.5862 16.5198 18.5862 11.9292C18.5862 7.33862 14.9854 3.61719 10.5435 3.61719C6.10178 3.61719 2.50098 7.33862 2.50098 11.9292C2.50098 16.5198 6.10178 20.2412 10.5435 20.2412Z" fill="url(#paint2_linear_1931_8974)"/>
<path opacity="0.6" d="M10.4847 19.2289C6.09654 18.5003 3.11832 14.2328 3.83768 9.6976C4.15423 7.6903 5.13254 5.98029 6.51377 4.74609C4.49951 5.95053 3.00323 8.0471 2.60038 10.6047C1.89539 15.1399 4.87358 19.4074 9.24742 20.136C11.6932 20.5523 14.0528 19.7642 15.7937 18.2178C14.2543 19.1397 12.3839 19.5412 10.4847 19.2289Z" fill="#A98698"/>
<path opacity="0.6" d="M11.8235 3.73455C9.79494 3.39254 7.82386 3.86837 6.21249 4.9241C6.18371 4.95386 6.15496 4.98357 6.15496 4.98357C6.77359 4.59698 7.68005 4.25497 7.68005 4.25497C5.34924 5.6527 4.62988 7.24376 4.62988 7.24376C5.5363 5.4297 8.19798 4.15091 10.2841 4.06167C12.3704 3.97248 13.7372 4.61185 15.4061 5.99471C17.075 7.39247 18.0822 10.2474 17.9814 12.5075C17.8951 14.7677 16.7441 16.5967 16.7441 16.5967C17.5354 15.5409 18.0102 14.7677 18.3124 13.9796C18.3699 13.7417 18.4275 13.5038 18.4563 13.251C19.1756 8.73069 16.2117 4.46315 11.8235 3.73455Z" fill="url(#paint3_linear_1931_8974)"/>
<path d="M18.1825 11.8535C18.1825 16.2103 14.7583 19.7492 10.5428 19.7492C6.32729 19.7492 2.88867 16.2103 2.88867 11.8535H18.1825Z" fill="url(#paint4_linear_1931_8974)"/>
<g opacity="0.6">
<path opacity="0.6" d="M17.5788 11.8496C17.5788 16.1022 14.3273 19.5817 10.2412 19.7453C10.342 19.7453 10.4427 19.7453 10.5433 19.7453C14.7589 19.7453 18.1831 16.2063 18.1831 11.8496H17.5788Z" fill="url(#paint5_linear_1931_8974)"/>
</g>
<g opacity="0.7">
<path opacity="0.7" d="M3.97067 11.8496H2.8916C2.8916 16.2063 6.31584 19.7453 10.5313 19.7453C10.7184 19.7453 10.891 19.7453 11.0637 19.7304C7.10713 19.433 3.97067 16.013 3.97067 11.8496Z" fill="url(#paint6_linear_1931_8974)"/>
</g>
<path d="M18.1682 11.9275C18.1682 11.0205 16.6431 10.5001 14.6144 10.3216C13.147 10.2027 11.665 10.3514 9.96731 10.8867C8.49975 11.3327 7.17614 11.2584 6.21218 11.1394C4.06843 10.8867 2.88867 10.8569 2.88867 11.9275C2.88867 13.4739 5.93879 15.407 10.514 14.7378C12.8304 14.3958 14.0246 13.697 15.3914 13.2212C16.8733 12.7156 18.1682 12.7305 18.1682 11.9275Z" fill="url(#paint7_linear_1931_8974)"/>
<path d="M13.0468 8.17843C13.762 8.17843 14.3417 7.5793 14.3417 6.84021C14.3417 6.10112 13.762 5.50195 13.0468 5.50195C12.3317 5.50195 11.752 6.10112 11.752 6.84021C11.752 7.5793 12.3317 8.17843 13.0468 8.17843Z" fill="white"/>
<path d="M15.16 9.17889C15.462 9.17889 15.7067 8.92594 15.7067 8.61386C15.7067 8.30178 15.462 8.04883 15.16 8.04883C14.8581 8.04883 14.6133 8.30178 14.6133 8.61386C14.6133 8.92594 14.8581 9.17889 15.16 9.17889Z" fill="white"/>
<g opacity="0.6">
<path opacity="0.6" d="M17.1165 5.7687C17.1022 5.7687 17.0878 5.7687 17.0878 5.7687C17.0014 5.75381 16.9439 5.66463 16.9582 5.56052C17.0878 4.87655 17.6345 4.22226 17.6632 4.19255C17.7208 4.11819 17.8359 4.11819 17.8935 4.17766C17.9654 4.23714 17.9654 4.35608 17.9078 4.4156C17.8935 4.43044 17.3899 5.04009 17.2748 5.63487C17.2604 5.72411 17.1885 5.7687 17.1165 5.7687Z" fill="url(#paint8_linear_1931_8974)"/>
</g>
<path opacity="0.2" d="M10.0132 18.1296C10.2357 18.1296 10.416 17.9432 10.416 17.7133C10.416 17.4833 10.2357 17.2969 10.0132 17.2969C9.79072 17.2969 9.61035 17.4833 9.61035 17.7133C9.61035 17.9432 9.79072 18.1296 10.0132 18.1296Z" fill="white"/>
<g opacity="0.4">
<path opacity="0.6" d="M9.78074 17.9777C9.62251 17.8141 9.62251 17.5465 9.78074 17.3829C9.8095 17.3532 9.83826 17.3383 9.86703 17.3086C9.8095 17.3235 9.76632 17.3532 9.72321 17.3978C9.56492 17.5613 9.56492 17.829 9.72321 17.9926C9.85268 18.1264 10.0541 18.1561 10.2124 18.0669C10.0685 18.1264 9.89586 18.0967 9.78074 17.9777Z" fill="url(#paint9_linear_1931_8974)"/>
</g>
<path opacity="0.3" d="M10.1546 17.5944C10.2023 17.5944 10.2411 17.5546 10.2411 17.5053C10.2411 17.456 10.2023 17.416 10.1546 17.416C10.107 17.416 10.0684 17.456 10.0684 17.5053C10.0684 17.5546 10.107 17.5944 10.1546 17.5944Z" fill="white"/>
<path opacity="0.2" d="M12.1108 17.9186C12.3333 17.9186 12.5137 17.7322 12.5137 17.5023C12.5137 17.2723 12.3333 17.0859 12.1108 17.0859C11.8884 17.0859 11.708 17.2723 11.708 17.5023C11.708 17.7322 11.8884 17.9186 12.1108 17.9186Z" fill="white"/>
<g opacity="0.4">
<path opacity="0.6" d="M11.8833 17.7726C11.725 17.609 11.725 17.3414 11.8833 17.1778C11.912 17.1481 11.9408 17.1332 11.9696 17.1035C11.912 17.1184 11.8689 17.1481 11.8258 17.1927C11.6675 17.3563 11.6675 17.6239 11.8258 17.7875C11.9552 17.9213 12.1567 17.951 12.3149 17.8618C12.171 17.9213 11.9984 17.8916 11.8833 17.7726Z" fill="url(#paint10_linear_1931_8974)"/>
</g>
<path opacity="0.3" d="M12.2553 17.3855C12.303 17.3855 12.3416 17.3456 12.3416 17.2963C12.3416 17.247 12.303 17.207 12.2553 17.207C12.2076 17.207 12.1689 17.247 12.1689 17.2963C12.1689 17.3456 12.2076 17.3855 12.2553 17.3855Z" fill="white"/>
<path opacity="0.2" d="M11.0756 18.8863C11.2425 18.8863 11.3777 18.7465 11.3777 18.574C11.3777 18.4015 11.2425 18.2617 11.0756 18.2617C10.9087 18.2617 10.7734 18.4015 10.7734 18.574C10.7734 18.7465 10.9087 18.8863 11.0756 18.8863Z" fill="white"/>
<g opacity="0.4">
<path opacity="0.6" d="M10.9049 18.7681C10.7897 18.6491 10.7897 18.441 10.9049 18.322C10.9193 18.3071 10.948 18.2923 10.9624 18.2773C10.9193 18.2923 10.8904 18.322 10.8617 18.3517C10.7466 18.4706 10.7466 18.6789 10.8617 18.7978C10.9624 18.9019 11.1063 18.9168 11.2358 18.8424C11.1207 18.887 10.9912 18.8573 10.9049 18.7681Z" fill="url(#paint11_linear_1931_8974)"/>
</g>
<path opacity="0.3" d="M11.1758 18.4705C11.2075 18.4705 11.2333 18.4439 11.2333 18.4111C11.2333 18.3782 11.2075 18.3516 11.1758 18.3516C11.144 18.3516 11.1182 18.3782 11.1182 18.4111C11.1182 18.4439 11.144 18.4705 11.1758 18.4705Z" fill="white"/>
<path opacity="0.2" d="M12.932 18.6635C13.0988 18.6635 13.2341 18.5237 13.2341 18.3513C13.2341 18.1788 13.0988 18.0391 12.932 18.0391C12.7651 18.0391 12.6299 18.1788 12.6299 18.3513C12.6299 18.5237 12.7651 18.6635 12.932 18.6635Z" fill="white"/>
<g opacity="0.4">
<path opacity="0.6" d="M12.7594 18.5454C12.6443 18.4264 12.6443 18.2183 12.7594 18.0993C12.7737 18.0844 12.8026 18.0696 12.8169 18.0547C12.7737 18.0696 12.745 18.0993 12.7162 18.1291C12.6011 18.248 12.6011 18.4561 12.7162 18.5751C12.8169 18.6792 12.9608 18.694 13.0903 18.6197C12.9752 18.6644 12.8457 18.6346 12.7594 18.5454Z" fill="url(#paint12_linear_1931_8974)"/>
</g>
<path opacity="0.3" d="M13.0312 18.2479C13.0629 18.2479 13.0887 18.2212 13.0887 18.1884C13.0887 18.1555 13.0629 18.1289 13.0312 18.1289C12.9994 18.1289 12.9736 18.1555 12.9736 18.1884C12.9736 18.2212 12.9994 18.2479 13.0312 18.2479Z" fill="white"/>
<path opacity="0.2" d="M8.2995 17.9775C8.66506 17.9775 8.96131 17.6712 8.96131 17.2934C8.96131 16.9157 8.66506 16.6094 8.2995 16.6094C7.93395 16.6094 7.6377 16.9157 7.6377 17.2934C7.6377 17.6712 7.93395 17.9775 8.2995 17.9775Z" fill="white"/>
<g opacity="0.4">
<path opacity="0.6" d="M7.92704 17.7249C7.66804 17.4572 7.66804 17.026 7.92704 16.7583C7.97015 16.7138 8.01333 16.684 8.07092 16.6543C7.98456 16.684 7.91262 16.7435 7.84068 16.803C7.58175 17.0706 7.58175 17.5018 7.84068 17.7695C8.05657 17.9925 8.38744 18.0371 8.64644 17.8735C8.40185 17.9777 8.11409 17.9331 7.92704 17.7249Z" fill="url(#paint13_linear_1931_8974)"/>
</g>
<path opacity="0.3" d="M8.52858 17.0884C8.60805 17.0884 8.67252 17.0218 8.67252 16.9397C8.67252 16.8576 8.60805 16.791 8.52858 16.791C8.44918 16.791 8.38477 16.8576 8.38477 16.9397C8.38477 17.0218 8.44918 17.0884 8.52858 17.0884Z" fill="white"/>
<path opacity="0.2" d="M14.2126 16.3016C14.5781 16.3016 14.8745 15.9954 14.8745 15.6176C14.8745 15.2398 14.5781 14.9336 14.2126 14.9336C13.8471 14.9336 13.5508 15.2398 13.5508 15.6176C13.5508 15.9954 13.8471 16.3016 14.2126 16.3016Z" fill="white"/>
<g opacity="0.4">
<path opacity="0.6" d="M13.8245 16.0472C13.5655 15.7795 13.5655 15.3484 13.8245 15.0807C13.8676 15.0361 13.9108 15.0064 13.9684 14.9766C13.8821 15.0064 13.8101 15.0658 13.7381 15.1253C13.4792 15.393 13.4792 15.8242 13.7381 16.0918C13.954 16.3148 14.2849 16.3595 14.5439 16.1959C14.2993 16.3 14.0259 16.2554 13.8245 16.0472Z" fill="url(#paint14_linear_1931_8974)"/>
</g>
<path opacity="0.3" d="M14.4418 15.4068C14.5213 15.4068 14.5856 15.3402 14.5856 15.2581C14.5856 15.1759 14.5213 15.1094 14.4418 15.1094C14.3623 15.1094 14.2979 15.1759 14.2979 15.2581C14.2979 15.3402 14.3623 15.4068 14.4418 15.4068Z" fill="white"/>
</g>
<defs>
<radialGradient id="paint0_radial_1931_8974" cx="0" cy="0" r="1" gradientUnits="userSpaceOnUse" gradientTransform="translate(19.4455 3.36335) scale(6.43041 6.64581)">
<stop stop-color="#FFEAFF" stop-opacity="0.6"/>
<stop offset="0.6807" stop-color="#A087C9"/>
<stop offset="1" stop-color="#10002F"/>
</radialGradient>
<radialGradient id="paint1_radial_1931_8974" cx="0" cy="0" r="1" gradientUnits="userSpaceOnUse" gradientTransform="translate(15.8684 6.19871) scale(15.7329 16.2599)">
<stop stop-color="#FFEAFF" stop-opacity="0.6"/>
<stop offset="0.6807" stop-color="#A087C9"/>
<stop offset="1" stop-color="#10002F"/>
</radialGradient>
<linearGradient id="paint2_linear_1931_8974" x1="9.25346" y1="20.1233" x2="11.9964" y2="3.74987" gradientUnits="userSpaceOnUse">
<stop stop-color="#81FFFF"/>
<stop offset="0.6202" stop-color="white" stop-opacity="0"/>
</linearGradient>
<linearGradient id="paint3_linear_1931_8974" x1="16.211" y1="6.28267" x2="9.36092" y2="12.3642" gradientUnits="userSpaceOnUse">
<stop offset="0.2888" stop-color="white"/>
<stop offset="0.7796" stop-color="white" stop-opacity="0"/>
</linearGradient>
<linearGradient id="paint4_linear_1931_8974" x1="2.89514" y1="15.7968" x2="18.1789" y2="15.7968" gradientUnits="userSpaceOnUse">
<stop stop-color="#0002E9"/>
<stop offset="0.9952" stop-color="#FF00C7"/>
</linearGradient>
<linearGradient id="paint5_linear_1931_8974" x1="18.9029" y1="12.5424" x2="10.326" y2="20.3854" gradientUnits="userSpaceOnUse">
<stop offset="0.2888" stop-color="white"/>
<stop offset="0.7796" stop-color="white" stop-opacity="0"/>
</linearGradient>
<linearGradient id="paint6_linear_1931_8974" x1="2.89807" y1="15.7929" x2="11.0748" y2="15.7929" gradientUnits="userSpaceOnUse">
<stop stop-color="#000292"/>
<stop offset="0.9952" stop-color="#7D00C7"/>
</linearGradient>
<linearGradient id="paint7_linear_1931_8974" x1="2.9054" y1="12.5834" x2="18.1686" y2="12.5834" gradientUnits="userSpaceOnUse">
<stop stop-color="#000292"/>
<stop offset="0.9952" stop-color="#BE00C7"/>
</linearGradient>
<linearGradient id="paint8_linear_1931_8974" x1="17.9168" y1="4.12011" x2="16.7666" y2="5.92859" gradientUnits="userSpaceOnUse">
<stop offset="0.2888" stop-color="white"/>
<stop offset="0.7796" stop-color="white" stop-opacity="0"/>
</linearGradient>
<linearGradient id="paint9_linear_1931_8974" x1="9.60411" y1="17.7228" x2="10.2128" y2="17.7228" gradientUnits="userSpaceOnUse">
<stop offset="0.2888" stop-color="white"/>
<stop offset="0.7796" stop-color="white" stop-opacity="0"/>
</linearGradient>
<linearGradient id="paint10_linear_1931_8974" x1="11.7052" y1="17.5149" x2="12.3139" y2="17.5149" gradientUnits="userSpaceOnUse">
<stop offset="0.2888" stop-color="white"/>
<stop offset="0.7796" stop-color="white" stop-opacity="0"/>
</linearGradient>
<linearGradient id="paint11_linear_1931_8974" x1="10.7735" y1="18.5784" x2="11.2305" y2="18.5784" gradientUnits="userSpaceOnUse">
<stop offset="0.2888" stop-color="white"/>
<stop offset="0.7796" stop-color="white" stop-opacity="0"/>
</linearGradient>
<linearGradient id="paint12_linear_1931_8974" x1="12.6218" y1="18.3551" x2="13.0788" y2="18.3551" gradientUnits="userSpaceOnUse">
<stop offset="0.2888" stop-color="white"/>
<stop offset="0.7796" stop-color="white" stop-opacity="0"/>
</linearGradient>
<linearGradient id="paint13_linear_1931_8974" x1="7.63992" y1="17.3111" x2="8.63395" y2="17.3111" gradientUnits="userSpaceOnUse">
<stop offset="0.2888" stop-color="white"/>
<stop offset="0.7796" stop-color="white" stop-opacity="0"/>
</linearGradient>
<linearGradient id="paint14_linear_1931_8974" x1="13.5429" y1="15.6329" x2="14.5369" y2="15.6329" gradientUnits="userSpaceOnUse">
<stop offset="0.2888" stop-color="white"/>
<stop offset="0.7796" stop-color="white" stop-opacity="0"/>
</linearGradient>
<clipPath id="clip0_1931_8974">
<rect width="83.651" height="20.591" fill="white" transform="translate(0 0.265625)"/>
</clipPath>
</defs>
</svg>
