<svg width="116" height="29" viewBox="0 0 116 29" fill="none" xmlns="http://www.w3.org/2000/svg">
<g clip-path="url(#clip0_2306_2140)">
<path d="M31.3816 16.3569C31.3816 12.5015 34.2056 9.72656 38.0856 9.72656C41.9654 9.72656 44.7894 12.5015 44.7894 16.3569C44.7894 20.2122 41.9654 22.9871 38.0856 22.9871C34.2301 22.9871 31.3816 20.2122 31.3816 16.3569ZM41.99 16.3569C41.99 13.9503 40.443 12.1331 38.0856 12.1331C35.7281 12.1331 34.2056 13.9503 34.2056 16.3569C34.2056 18.7388 35.7281 20.5806 38.0856 20.5806C40.443 20.556 41.99 18.7388 41.99 16.3569Z" fill="#A0A0A0"/>
<path d="M45.8459 20.95L47.3192 18.8628C48.2279 19.7959 49.6276 20.5817 51.3957 20.5817C52.8936 20.5817 53.6303 19.8941 53.6303 19.1574C53.6303 16.8982 46.2388 18.4452 46.2388 13.6075C46.2388 11.4712 48.0805 9.70312 51.101 9.70312C53.1392 9.70312 54.8336 10.317 56.1105 11.4957L54.5881 13.4848C53.5567 12.5271 52.1569 12.0851 50.8554 12.0851C49.6767 12.0851 49.0383 12.6008 49.0383 13.362C49.0383 15.4002 56.4052 14.025 56.4052 18.8136C56.4052 21.171 54.7354 22.9391 51.2729 22.9391C48.8172 22.9882 47.0492 22.1533 45.8459 20.95Z" fill="#A0A0A0"/>
<path d="M69.4197 22.7649V13.7773L65.8103 22.7649H64.607L60.997 13.7773V22.7649H58.2712V9.92188H62.1021L65.2209 17.6818L68.3396 9.92188H72.1949V22.7405H69.4197V22.7649Z" fill="#A0A0A0"/>
<path d="M74.0859 16.3568C74.0859 12.5015 76.91 9.72656 80.7896 9.72656C84.6702 9.72656 87.4937 12.5015 87.4937 16.3568C87.4937 20.2122 84.6702 22.9871 80.7896 22.9871C76.91 22.9871 74.0859 20.2122 74.0859 16.3568ZM84.6946 16.3568C84.6946 13.9503 83.1475 12.1331 80.7896 12.1331C78.4324 12.1331 76.91 13.9503 76.91 16.3568C76.91 18.7388 78.4324 20.5805 80.7896 20.5805C83.1475 20.556 84.6946 18.7388 84.6946 16.3568Z" fill="#A0A0A0"/>
<path d="M88.5503 20.95L90.0238 18.8628C90.9325 19.7959 92.3321 20.5817 94.1006 20.5817C95.5986 20.5817 96.3349 19.8941 96.3349 19.1574C96.3349 16.8982 88.9437 18.4452 88.9437 13.6075C88.9437 11.4712 90.7854 9.70312 93.8056 9.70312C95.844 9.70312 97.5386 10.317 98.8155 11.4957L97.2923 13.4848C96.2609 12.5271 94.8614 12.0851 93.5601 12.0851C92.3817 12.0851 91.7428 12.6008 91.7428 13.362C91.7428 15.4002 99.1097 14.025 99.1097 18.8136C99.1097 21.171 97.4403 22.9391 93.9779 22.9391C91.5217 22.9882 89.754 22.1533 88.5503 20.95Z" fill="#A0A0A0"/>
<path d="M100.949 22.7649V9.92188H103.7V22.7405H100.949V22.7649Z" fill="#A0A0A0"/>
<path d="M105.371 20.95L106.845 18.8628C107.752 19.7959 109.153 20.5817 110.921 20.5817C112.419 20.5817 113.156 19.8941 113.156 19.1574C113.156 16.8982 105.764 18.4452 105.764 13.6075C105.764 11.4712 107.605 9.70312 110.626 9.70312C112.664 9.70312 114.359 10.317 115.635 11.4957L114.113 13.4848C113.082 12.5271 111.682 12.0851 110.38 12.0851C109.202 12.0851 108.563 12.6008 108.563 13.362C108.563 15.4002 115.93 14.025 115.93 18.8136C115.93 21.171 114.261 22.9391 110.798 22.9391C108.318 22.9882 106.55 22.1533 105.371 20.95Z" fill="#A0A0A0"/>
<path fill-rule="evenodd" clip-rule="evenodd" d="M23.6322 1.74006C25.3154 2.98724 26.2506 4.10761 26.5415 5.22797C26.7285 5.86213 26.5622 6.62313 26.1467 7.19388C25.731 7.76464 25.0661 8.0817 24.2971 8.0817C24.0062 8.0817 23.7153 8.03943 23.4244 7.95488C23.1334 8.77928 22.9256 9.58254 22.8633 10.2801L22.8425 10.5338C21.3463 7.89147 18.9564 5.86213 16.0886 4.88974C16.1718 4.8686 16.7952 4.67835 17.8966 4.00191C17.772 3.81167 17.6681 3.60029 17.5849 3.43119V3.43116C17.3563 2.88156 17.4394 1.97258 17.7927 1.29614C18.0837 0.72539 18.5408 0.344891 19.0603 0.239197C19.2681 0.196919 19.4759 0.175781 19.7045 0.175781C20.8475 0.175781 22.2814 0.74653 23.6322 1.74006ZM25.9591 5.39733C26.2084 6.39084 25.4397 7.87056 23.5485 7.34213C23.3823 7.27866 23.216 7.23638 23.0706 7.21525C22.8835 7.65918 22.6757 8.16653 22.5302 8.73725C21.2834 7.04615 19.6209 5.69327 17.7091 4.82658C17.7841 4.7808 17.8627 4.7338 17.9443 4.68498C18.202 4.53093 18.4898 4.35882 18.7897 4.15013C18.478 3.76964 18.2494 3.43141 18.1455 3.19888C17.896 2.607 18.187 1.06386 19.1846 0.852476C20.1821 0.64109 21.7406 1.10614 23.2784 2.24764C24.8162 3.38914 25.689 4.4038 25.9591 5.39733Z" fill="#A0A0A0"/>
<path d="M20.4747 2.94402C20.8904 3.11314 21.4307 3.40908 22.0957 3.853C22.8854 4.38147 23.5712 4.97336 24.0076 5.43841C23.2802 6.41077 22.8022 7.74253 22.5113 8.67266C22.6568 8.88407 22.823 9.09539 22.9685 9.3068C23.114 8.77832 23.3634 7.99623 23.6958 7.21404C23.779 7.23524 23.8828 7.23524 23.9867 7.23524C24.2361 7.23524 24.5271 7.1929 24.7556 7.00267C24.9219 6.87585 25.1089 6.64334 25.0882 6.22054C25.0882 5.81891 24.7764 5.31158 24.1322 4.69855C23.6751 4.25463 23.0516 3.76844 22.4281 3.32453C20.641 2.11961 19.3942 1.78139 18.8331 2.35213C18.459 2.73263 18.5005 3.19769 18.6252 3.53591C17.9603 3.97982 17.3991 4.29691 17.0251 4.5083C17.2745 4.59285 17.5031 4.69855 17.7525 4.80425C18.4174 4.44488 19.3734 3.83186 20.4747 2.94402ZM24.4024 5.96688C24.4647 6.07257 24.4855 6.17826 24.4855 6.24167C24.4855 6.4319 24.4232 6.49538 24.3816 6.53765C24.2985 6.60106 24.1322 6.64334 23.9867 6.64334C24.1115 6.38963 24.2569 6.17826 24.4024 5.96688ZM19.2695 2.81719C19.3318 2.75378 19.498 2.7115 19.7682 2.75378C19.5604 2.92289 19.3525 3.07085 19.1448 3.21883C19.124 3.07085 19.1448 2.92289 19.2695 2.81719Z" fill="#A0A0A0"/>
<path d="M12.7226 3.73047C5.92714 3.73047 0.420166 9.33224 0.420166 16.2447C0.420166 23.1571 5.92714 28.7589 12.7226 28.7589C19.518 28.7589 25.0249 23.1571 25.0249 16.2447C25.0249 9.33224 19.4972 3.73047 12.7226 3.73047ZM12.7226 28.0613C6.3012 28.0613 1.10594 22.7766 1.10594 16.2447C1.10594 9.71277 6.3012 4.42805 12.7226 4.42805C19.1438 4.42805 24.3391 9.71277 24.3391 16.2447C24.3391 22.7766 19.1231 28.0613 12.7226 28.0613Z" fill="#A0A0A0"/>
<path d="M23.7565 16.1367C23.7565 22.3304 18.8107 27.3615 12.7217 27.3615C6.63293 27.3615 1.66626 22.3304 1.66626 16.1367H23.7565Z" fill="#A0A0A0"/>
<g opacity="0.6">
<path opacity="0.6" d="M22.8854 16.1367C22.8854 22.1824 18.1889 27.1289 12.2871 27.3615C12.4325 27.3615 12.578 27.3615 12.7235 27.3615C18.8123 27.3615 23.7582 22.3304 23.7582 16.1367H22.8854Z" fill="#A0A0A0"/>
</g>
<g opacity="0.7">
<path opacity="0.7" d="M3.22484 16.1367H1.66626C1.66626 22.3304 6.61214 27.3615 12.701 27.3615C12.9711 27.3615 13.2205 27.3615 13.4699 27.3403C7.75509 26.9175 3.22484 22.0556 3.22484 16.1367Z" fill="#A0A0A0"/>
</g>
<path d="M23.7357 16.24C23.7357 14.9505 21.5329 14.2106 18.6028 13.957C16.4832 13.7879 14.3426 13.9992 11.8905 14.7602C9.77089 15.3944 7.85899 15.2887 6.46668 15.1196C3.3703 14.7602 1.66626 14.7179 1.66626 16.24C1.66626 18.4384 6.07183 21.1864 12.6802 20.2352C16.0259 19.749 17.7508 18.7555 19.725 18.0791C21.8654 17.3604 23.7357 17.3815 23.7357 16.24Z" fill="#A0A0A0"/>
<path d="M16.3386 10.9144C17.3715 10.9144 18.2088 10.0626 18.2088 9.01191C18.2088 7.96117 17.3715 7.10938 16.3386 7.10938C15.3056 7.10938 14.4683 7.96117 14.4683 9.01191C14.4683 10.0626 15.3056 10.9144 16.3386 10.9144Z" fill="#A0A0A0"/>
<path d="M19.3941 12.3292C19.8303 12.3292 20.1839 11.9696 20.1839 11.5259C20.1839 11.0823 19.8303 10.7227 19.3941 10.7227C18.958 10.7227 18.6045 11.0823 18.6045 11.5259C18.6045 11.9696 18.958 12.3292 19.3941 12.3292Z" fill="#A0A0A0"/>
<path d="M22.2203 7.49084C22.1996 7.49084 22.1788 7.49084 22.1788 7.49084C22.0541 7.4697 21.9709 7.34288 21.9917 7.19486C22.1788 6.22249 22.9685 5.29238 23.01 5.2501C23.0932 5.14441 23.2594 5.14441 23.3425 5.22896C23.4464 5.31352 23.4464 5.48262 23.3633 5.56719C23.3425 5.58832 22.6152 6.455 22.449 7.30055C22.4281 7.42742 22.3242 7.49084 22.2203 7.49084Z" fill="#A0A0A0"/>
<path opacity="0.2" d="M11.9547 25.0549C12.276 25.0549 12.5365 24.7898 12.5365 24.4629C12.5365 24.1361 12.276 23.8711 11.9547 23.8711C11.6333 23.8711 11.3728 24.1361 11.3728 24.4629C11.3728 24.7898 11.6333 25.0549 11.9547 25.0549Z" fill="#A0A0A0"/>
<g opacity="0.4">
<path opacity="0.6" d="M11.6222 24.8458C11.3937 24.6132 11.3937 24.2328 11.6222 24.0003C11.6637 23.958 11.7054 23.9369 11.7469 23.8945C11.6637 23.9157 11.6015 23.958 11.5391 24.0214C11.3105 24.2539 11.3105 24.6344 11.5391 24.8669C11.7261 25.0572 12.017 25.0995 12.2457 24.9727C12.0378 25.0572 11.7885 25.0149 11.6222 24.8458Z" fill="#A0A0A0"/>
</g>
<path opacity="0.3" d="M12.1613 24.2927C12.2301 24.2927 12.286 24.2359 12.286 24.1659C12.286 24.0959 12.2301 24.0391 12.1613 24.0391C12.0924 24.0391 12.0366 24.0959 12.0366 24.1659C12.0366 24.2359 12.0924 24.2927 12.1613 24.2927Z" fill="#A0A0A0"/>
<path opacity="0.2" d="M14.9884 24.758C15.3098 24.758 15.5703 24.4931 15.5703 24.1661C15.5703 23.8393 15.3098 23.5742 14.9884 23.5742C14.6671 23.5742 14.4065 23.8393 14.4065 24.1661C14.4065 24.4931 14.6671 24.758 14.9884 24.758Z" fill="#A0A0A0"/>
<g opacity="0.4">
<path opacity="0.6" d="M14.6559 24.5489C14.4274 24.3164 14.4274 23.9358 14.6559 23.7033C14.6974 23.661 14.739 23.6399 14.7806 23.5977C14.6974 23.6188 14.6352 23.661 14.5728 23.7245C14.3442 23.957 14.3442 24.3375 14.5728 24.57C14.7598 24.7603 15.0507 24.8025 15.2794 24.6757C15.0715 24.7603 14.8222 24.718 14.6559 24.5489Z" fill="#A0A0A0"/>
</g>
<path opacity="0.3" d="M15.1964 23.9999C15.2653 23.9999 15.3211 23.943 15.3211 23.873C15.3211 23.8029 15.2653 23.7461 15.1964 23.7461C15.1276 23.7461 15.0718 23.8029 15.0718 23.873C15.0718 23.943 15.1276 23.9999 15.1964 23.9999Z" fill="#A0A0A0"/>
<path opacity="0.2" d="M13.4914 26.1301C13.7324 26.1301 13.9277 25.9314 13.9277 25.6862C13.9277 25.441 13.7324 25.2422 13.4914 25.2422C13.2503 25.2422 13.0549 25.441 13.0549 25.6862C13.0549 25.9314 13.2503 26.1301 13.4914 26.1301Z" fill="#A0A0A0"/>
<g opacity="0.4">
<path opacity="0.6" d="M13.2419 25.9671C13.0757 25.798 13.0757 25.502 13.2419 25.333C13.2627 25.3118 13.3043 25.2907 13.3251 25.2695C13.2627 25.2907 13.2212 25.333 13.1796 25.3752C13.0134 25.5443 13.0134 25.8403 13.1796 26.0094C13.3251 26.1574 13.5328 26.1785 13.7199 26.0728C13.5536 26.1363 13.3666 26.094 13.2419 25.9671Z" fill="#A0A0A0"/>
</g>
<path opacity="0.3" d="M13.6373 25.5441C13.6832 25.5441 13.7205 25.5063 13.7205 25.4596C13.7205 25.4128 13.6832 25.375 13.6373 25.375C13.5914 25.375 13.5542 25.4128 13.5542 25.4596C13.5542 25.5063 13.5914 25.5441 13.6373 25.5441Z" fill="#A0A0A0"/>
<path opacity="0.2" d="M16.172 25.8137C16.413 25.8137 16.6085 25.6149 16.6085 25.3697C16.6085 25.1245 16.413 24.9258 16.172 24.9258C15.9309 24.9258 15.7356 25.1245 15.7356 25.3697C15.7356 25.6149 15.9309 25.8137 16.172 25.8137Z" fill="#A0A0A0"/>
<g opacity="0.4">
<path opacity="0.6" d="M15.9226 25.6506C15.7564 25.4815 15.7564 25.1856 15.9226 25.0165C15.9433 24.9954 15.985 24.9742 16.0057 24.9531C15.9433 24.9742 15.9018 25.0165 15.8603 25.0588C15.694 25.2279 15.694 25.5238 15.8603 25.693C16.0057 25.8409 16.2135 25.862 16.4005 25.7564C16.2343 25.8198 16.0472 25.7776 15.9226 25.6506Z" fill="#A0A0A0"/>
</g>
<path opacity="0.3" d="M16.3178 25.2276C16.3636 25.2276 16.4009 25.1899 16.4009 25.1432C16.4009 25.0964 16.3636 25.0586 16.3178 25.0586C16.2719 25.0586 16.2346 25.0964 16.2346 25.1432C16.2346 25.1899 16.2719 25.2276 16.3178 25.2276Z" fill="#A0A0A0"/>
<path opacity="0.2" d="M9.48114 24.8472C10.009 24.8472 10.437 24.4118 10.437 23.8748C10.437 23.3378 10.009 22.9023 9.48114 22.9023C8.95317 22.9023 8.52515 23.3378 8.52515 23.8748C8.52515 24.4118 8.95317 24.8472 9.48114 24.8472Z" fill="#A0A0A0"/>
<g opacity="0.4">
<path opacity="0.6" d="M8.94085 24.4829C8.56679 24.1024 8.56679 23.4893 8.94085 23.1089C9.00322 23.0455 9.0655 23.0032 9.14864 22.9609C9.02398 23.0032 8.92008 23.0877 8.81619 23.1723C8.44213 23.5528 8.44213 24.1658 8.81619 24.5464C9.12788 24.8633 9.60591 24.9268 9.97989 24.6943C9.62667 24.8422 9.21101 24.7789 8.94085 24.4829Z" fill="#A0A0A0"/>
</g>
<path opacity="0.3" d="M9.8131 23.5752C9.92784 23.5752 10.0209 23.4805 10.0209 23.3637C10.0209 23.247 9.92784 23.1523 9.8131 23.1523C9.69828 23.1523 9.60522 23.247 9.60522 23.3637C9.60522 23.4805 9.69828 23.5752 9.8131 23.5752Z" fill="#A0A0A0"/>
<path opacity="0.2" d="M18.0218 22.4565C18.5498 22.4565 18.9777 22.0211 18.9777 21.484C18.9777 20.9471 18.5498 20.5117 18.0218 20.5117C17.4939 20.5117 17.0659 20.9471 17.0659 21.484C17.0659 22.0211 17.4939 22.4565 18.0218 22.4565Z" fill="#A0A0A0"/>
<g opacity="0.4">
<path opacity="0.6" d="M17.4619 22.0962C17.0878 21.7156 17.0878 21.1026 17.4619 20.7222C17.5242 20.6588 17.5866 20.6165 17.6697 20.5742C17.5451 20.6165 17.4411 20.7011 17.3372 20.7856C16.9631 21.1661 16.9631 21.7791 17.3372 22.1596C17.649 22.4767 18.1268 22.5401 18.501 22.3076C18.1477 22.4555 17.7529 22.3921 17.4619 22.0962Z" fill="#A0A0A0"/>
</g>
<path opacity="0.3" d="M18.3538 21.1884C18.4686 21.1884 18.5617 21.0937 18.5617 20.9769C18.5617 20.8602 18.4686 20.7656 18.3538 20.7656C18.239 20.7656 18.146 20.8602 18.146 20.9769C18.146 21.0937 18.239 21.1884 18.3538 21.1884Z" fill="#A0A0A0"/>
</g>
<defs>
<clipPath id="clip0_2306_2140">
<rect width="116" height="28.5797" fill="white" transform="translate(0 0.171875)"/>
</clipPath>
</defs>
</svg>
