<svg width="120" height="19" viewBox="0 0 120 19" fill="none" xmlns="http://www.w3.org/2000/svg">
<g clip-path="url(#clip0_2165_3779)">
<path d="M23.0813 14.471C22.8029 14.471 22.6061 14.4134 22.4909 14.2983C22.3853 14.183 22.3325 14.0006 22.3325 13.7511V5.41404C22.3325 5.16446 22.3901 4.98207 22.5053 4.86688C22.6205 4.74209 22.8124 4.67969 23.0813 4.67969H26.609C27.9529 4.67969 28.9416 4.96287 29.5753 5.52923C30.2088 6.0956 30.5256 6.94034 30.5256 8.06346C30.5256 9.17698 30.2088 10.0169 29.5753 10.5833C28.9512 11.1401 27.9625 11.4185 26.609 11.4185H25.2411V13.7511C25.2411 14.0006 25.1835 14.183 25.0683 14.2983C24.9531 14.4134 24.7563 14.471 24.478 14.471H23.0813ZM26.3787 9.33057C26.7723 9.33057 27.0746 9.22498 27.2858 9.01379C27.5065 8.80261 27.617 8.48583 27.617 8.06346C27.617 7.63148 27.5065 7.30991 27.2858 7.09872C27.0746 6.88754 26.7723 6.78194 26.3787 6.78194H25.2411V9.33057H26.3787Z" fill="#A0A0A0"/>
<path d="M33.9254 14.6872C33.0231 14.6872 32.2983 14.3992 31.7511 13.8234C31.2136 13.2377 30.9448 12.417 30.9448 11.361C30.9448 10.5547 31.1272 9.84914 31.4919 9.24442C31.8664 8.63967 32.3895 8.1741 33.0615 7.84772C33.7431 7.51174 34.5254 7.34375 35.4085 7.34375C36.1381 7.34375 36.7812 7.42534 37.338 7.58853C37.9043 7.74212 38.4227 7.96771 38.8931 8.26529V14.0249C38.8931 14.2073 38.8595 14.3273 38.7922 14.3848C38.725 14.4425 38.5907 14.4713 38.3891 14.4713H36.9204C36.8148 14.4713 36.7332 14.4569 36.6757 14.428C36.618 14.3897 36.5701 14.3321 36.5317 14.2552L36.3444 13.8234C36.066 14.1209 35.7301 14.3369 35.3365 14.4713C34.9526 14.6153 34.4822 14.6872 33.9254 14.6872ZM35.0054 12.729C35.3797 12.729 35.6725 12.6378 35.8836 12.4554C36.0948 12.273 36.2004 12.0138 36.2004 11.6778V9.43161C36.0181 9.34522 35.7877 9.30202 35.5093 9.30202C35.0005 9.30202 34.5925 9.4796 34.2854 9.83475C33.9878 10.1899 33.839 10.6891 33.839 11.3323C33.839 12.2634 34.2277 12.729 35.0054 12.729Z" fill="#A0A0A0"/>
<path d="M40.8964 14.4713C40.618 14.4713 40.4212 14.4136 40.3061 14.2985C40.1909 14.1833 40.1333 14.0009 40.1333 13.7513V8.00611C40.1333 7.83332 40.1621 7.71813 40.2196 7.66053C40.2868 7.59334 40.4212 7.55974 40.6228 7.55974H42.106C42.2211 7.55974 42.3075 7.57894 42.3651 7.61733C42.4323 7.64613 42.4707 7.70373 42.4803 7.79013L42.5522 8.22209C42.8211 7.95331 43.1715 7.74212 43.6034 7.58853C44.045 7.42534 44.5345 7.34375 45.0721 7.34375C45.8497 7.34375 46.4784 7.56454 46.9584 8.00611C47.4384 8.43808 47.6783 9.08123 47.6783 9.93558V13.7513C47.6783 14.0009 47.6208 14.1833 47.5055 14.2985C47.4 14.4136 47.2079 14.4713 46.9296 14.4713H45.5329C45.2545 14.4713 45.053 14.4136 44.9281 14.2985C44.8129 14.1833 44.7553 14.0009 44.7553 13.7513V10.1227C44.7553 9.83475 44.6929 9.62843 44.5682 9.5036C44.4433 9.37881 44.2466 9.31642 43.9778 9.31642C43.6898 9.31642 43.4594 9.39321 43.2866 9.54676C43.1235 9.70038 43.0419 9.91156 43.0419 10.1804V13.7513C43.0419 14.0009 42.9842 14.1833 42.8691 14.2985C42.7635 14.4136 42.5715 14.4713 42.2931 14.4713H40.8964Z" fill="#A0A0A0"/>
<path d="M52.7685 14.6872C51.4246 14.6872 50.3879 14.3752 49.6583 13.7513C48.9288 13.1274 48.564 12.2202 48.564 11.0299C48.564 10.3004 48.732 9.65721 49.0679 9.10043C49.4039 8.54367 49.8887 8.1117 50.5222 7.80452C51.1654 7.49734 51.9238 7.34375 52.7973 7.34375C53.4596 7.34375 54.0164 7.40615 54.4676 7.53094C54.9283 7.65573 55.3363 7.84771 55.6915 8.10691C55.7971 8.1741 55.8499 8.26049 55.8499 8.36609C55.8499 8.44288 55.8115 8.54367 55.7347 8.66846L55.1443 9.69076C55.0771 9.82522 54.9955 9.89241 54.8996 9.89241C54.8419 9.89241 54.7507 9.854 54.626 9.77719C54.3668 9.61404 54.122 9.494 53.8916 9.41721C53.6708 9.34041 53.3924 9.30202 53.0565 9.30202C52.5765 9.30202 52.1878 9.45561 51.8901 9.7628C51.6022 10.0699 51.4582 10.4923 51.4582 11.0299C51.4582 11.5771 51.6069 11.9994 51.9045 12.297C52.2022 12.585 52.6101 12.729 53.1285 12.729C53.4356 12.729 53.7141 12.6858 53.9636 12.5993C54.2132 12.513 54.4676 12.393 54.7268 12.2394C54.8612 12.1626 54.9571 12.1242 55.0148 12.1242C55.1011 12.1242 55.1779 12.1914 55.2451 12.3258L55.893 13.4345C55.9411 13.5305 55.9651 13.6073 55.9651 13.6649C55.9651 13.7513 55.9074 13.8329 55.7923 13.9097C55.3891 14.1689 54.9475 14.3608 54.4676 14.4857C53.9972 14.62 53.4308 14.6872 52.7685 14.6872Z" fill="#A0A0A0"/>
<path d="M59.6149 14.6872C58.7125 14.6872 57.9878 14.3992 57.4407 13.8234C56.9031 13.2377 56.6343 12.417 56.6343 11.361C56.6343 10.5547 56.8167 9.84914 57.1815 9.24442C57.5558 8.63967 58.079 8.1741 58.7509 7.84772C59.4325 7.51174 60.2149 7.34375 61.098 7.34375C61.8275 7.34375 62.4707 7.42534 63.0274 7.58853C63.5938 7.74212 64.1122 7.96771 64.5826 8.26529V14.0249C64.5826 14.2073 64.549 14.3273 64.4818 14.3848C64.4146 14.4425 64.2802 14.4713 64.0786 14.4713H62.6099C62.5043 14.4713 62.4227 14.4569 62.3651 14.428C62.3075 14.3897 62.2595 14.3321 62.2211 14.2552L62.034 13.8234C61.7556 14.1209 61.4196 14.3369 61.026 14.4713C60.642 14.6153 60.1716 14.6872 59.6149 14.6872ZM60.6948 12.729C61.0692 12.729 61.362 12.6378 61.5732 12.4554C61.7844 12.273 61.89 12.0138 61.89 11.6778V9.43161C61.7076 9.34522 61.4772 9.30202 61.1988 9.30202C60.6901 9.30202 60.2821 9.4796 59.9749 9.83475C59.6773 10.1899 59.5285 10.6891 59.5285 11.3323C59.5285 12.2634 59.9173 12.729 60.6948 12.729Z" fill="#A0A0A0"/>
<path d="M73.628 13.9238C73.6952 14.0006 73.7288 14.0871 73.7288 14.183C73.7288 14.2694 73.7 14.3414 73.6424 14.399C73.5848 14.447 73.508 14.471 73.412 14.471H71.1801C71.0458 14.471 70.945 14.4614 70.8778 14.4423C70.8202 14.4134 70.7578 14.3606 70.6906 14.2839L68.7323 11.62V13.7511C68.7323 14.0006 68.6748 14.183 68.5595 14.2983C68.4443 14.4134 68.2475 14.471 67.9692 14.471H66.5725C66.2941 14.471 66.0973 14.4134 65.9821 14.2983C65.8765 14.183 65.8237 14.0006 65.8237 13.7511V5.41404C65.8237 5.16446 65.8813 4.98207 65.9965 4.86688C66.1117 4.74209 66.3037 4.67969 66.5725 4.67969H67.9692C68.2475 4.67969 68.4443 4.74209 68.5595 4.86688C68.6748 4.98207 68.7323 5.16446 68.7323 5.41404V10.2377L70.633 7.76108C70.6906 7.68428 70.753 7.63148 70.8202 7.60268C70.8874 7.57389 70.9882 7.5595 71.1226 7.5595H73.3545C73.4504 7.5595 73.5224 7.58829 73.5704 7.64588C73.628 7.69388 73.6568 7.76108 73.6568 7.84748C73.6568 7.94347 73.6232 8.02986 73.556 8.10666L71.0938 10.9289L73.628 13.9238Z" fill="#A0A0A0"/>
<path d="M78.3029 14.6872C77.4965 14.6872 76.7766 14.5529 76.143 14.2841C75.5191 14.0153 75.0247 13.6121 74.6599 13.0746C74.2952 12.537 74.1128 11.8795 74.1128 11.1019C74.1128 9.88278 74.4583 8.95165 75.1495 8.30849C75.8406 7.66533 76.8342 7.34375 78.1301 7.34375C79.3973 7.34375 80.3572 7.66053 81.0099 8.29409C81.6723 8.91804 82.0035 9.78682 82.0035 10.9003C82.0035 11.3803 81.7923 11.6203 81.3699 11.6203H76.8486C76.8486 12.033 77.0021 12.3499 77.3094 12.5706C77.6261 12.7914 78.1013 12.9017 78.7348 12.9017C79.1284 12.9017 79.4548 12.8682 79.714 12.801C79.9828 12.7242 80.2516 12.6138 80.5203 12.4698C80.6356 12.4218 80.7124 12.3978 80.7507 12.3978C80.8371 12.3978 80.9091 12.4554 80.9667 12.5706L81.4563 13.4921C81.5043 13.5882 81.5283 13.6601 81.5283 13.7081C81.5283 13.7945 81.4707 13.8761 81.3554 13.9529C80.962 14.2121 80.5156 14.3992 80.0164 14.5145C79.5172 14.6297 78.946 14.6872 78.3029 14.6872ZM79.4116 10.1948C79.4116 9.82999 79.3061 9.54676 79.0949 9.34522C78.8837 9.14363 78.5668 9.04284 78.1445 9.04284C77.7221 9.04284 77.4006 9.14843 77.1798 9.35962C76.959 9.56125 76.8486 9.83961 76.8486 10.1948H79.4116Z" fill="#A0A0A0"/>
<path d="M86.9401 14.6842C86.1337 14.6842 85.3705 14.6026 84.6506 14.4395C83.9307 14.2666 83.3499 14.0267 82.9083 13.7195C82.7452 13.6139 82.6636 13.5035 82.6636 13.3884C82.6636 13.3115 82.6924 13.23 82.7499 13.1435L83.4555 12.0204C83.5323 11.9052 83.609 11.8477 83.6858 11.8477C83.7339 11.8477 83.8154 11.8812 83.9307 11.9484C84.2858 12.1501 84.6889 12.3132 85.1402 12.4379C85.5913 12.5628 86.0377 12.6252 86.4793 12.6252C86.9304 12.6252 87.2616 12.558 87.4728 12.4236C87.6936 12.2892 87.8039 12.0732 87.8039 11.7756C87.8039 11.4876 87.684 11.2621 87.444 11.0989C87.2136 10.9357 86.7768 10.7293 86.1337 10.4798C85.1642 10.115 84.4058 9.70699 83.8586 9.25581C83.321 8.79504 83.0523 8.17109 83.0523 7.38393C83.0523 6.4336 83.3931 5.70885 84.0747 5.20968C84.7562 4.71052 85.6633 4.46094 86.7961 4.46094C87.5831 4.46094 88.2552 4.53294 88.8119 4.67692C89.3783 4.81131 89.8582 5.0225 90.2518 5.31048C90.415 5.43527 90.4966 5.55046 90.4966 5.65606C90.4966 5.72325 90.4678 5.80005 90.4102 5.88644L89.7047 7.00957C89.6182 7.12475 89.5414 7.18235 89.4742 7.18235C89.4263 7.18235 89.3446 7.14875 89.2295 7.08155C88.6727 6.71678 88.0104 6.53439 87.2425 6.53439C86.8296 6.53439 86.5128 6.60159 86.292 6.73599C86.0713 6.87037 85.9609 7.09116 85.9609 7.39833C85.9609 7.60952 86.0185 7.78231 86.1337 7.9167C86.2489 8.05109 86.4025 8.17109 86.5944 8.27668C86.7961 8.37267 87.1032 8.49746 87.516 8.65104L87.7896 8.75184C88.4999 9.03023 89.0567 9.299 89.4598 9.55823C89.8727 9.80772 90.1846 10.1197 90.3958 10.4942C90.6069 10.8589 90.7125 11.3196 90.7125 11.8765C90.7125 12.7308 90.391 13.4124 89.7478 13.9211C89.1143 14.4299 88.1784 14.6842 86.9401 14.6842Z" fill="#A0A0A0"/>
<path d="M93.7726 14.4701C93.6287 14.4701 93.5184 14.4461 93.4414 14.3981C93.3646 14.3502 93.307 14.2541 93.2686 14.1101L91.4111 7.88976C91.3919 7.83217 91.3823 7.78898 91.3823 7.76018C91.3823 7.62579 91.4783 7.55859 91.6703 7.55859H93.5707C93.696 7.55859 93.7866 7.58259 93.8445 7.63058C93.9025 7.66898 93.9408 7.73617 93.9595 7.83217L94.7369 11.1008L95.7162 8.46573C95.7648 8.35054 95.8124 8.27374 95.8601 8.23534C95.918 8.18734 96.0143 8.16335 96.1488 8.16335H97.0552C97.1898 8.16335 97.2814 8.18734 97.329 8.23534C97.3869 8.27374 97.4393 8.35054 97.4879 8.46573L98.4522 11.1008L99.2446 7.83217C99.2726 7.73617 99.3109 7.66898 99.3595 7.63058C99.4072 7.58259 99.4941 7.55859 99.6184 7.55859H101.534C101.725 7.55859 101.822 7.62579 101.822 7.76018C101.822 7.78898 101.812 7.83217 101.793 7.88976L99.9211 14.1101C99.8828 14.2541 99.8249 14.3502 99.7482 14.3981C99.681 14.4461 99.5754 14.4701 99.4315 14.4701H98.0205C97.8859 14.4701 97.785 14.4461 97.7177 14.3981C97.6505 14.3405 97.5935 14.2446 97.5449 14.1101L96.5946 11.5039L95.6442 14.1101C95.6059 14.2446 95.548 14.3405 95.4714 14.3981C95.4041 14.4461 95.3041 14.4701 95.1696 14.4701H93.7726Z" fill="#A0A0A0"/>
<path d="M105.47 14.6872C104.567 14.6872 103.843 14.3992 103.295 13.8234C102.758 13.2377 102.489 12.417 102.489 11.361C102.489 10.5547 102.671 9.84914 103.036 9.24442C103.41 8.63967 103.933 8.1741 104.605 7.84772C105.287 7.51174 106.069 7.34375 106.953 7.34375C107.682 7.34375 108.325 7.42534 108.882 7.58853C109.448 7.74212 109.967 7.96771 110.437 8.26529V14.0249C110.437 14.2073 110.403 14.3273 110.336 14.3848C110.269 14.4425 110.135 14.4713 109.933 14.4713H108.464C108.359 14.4713 108.278 14.4569 108.22 14.428C108.162 14.3897 108.114 14.3321 108.076 14.2552L107.889 13.8234C107.61 14.1209 107.274 14.3369 106.881 14.4713C106.497 14.6153 106.027 14.6872 105.47 14.6872ZM106.55 12.729C106.924 12.729 107.217 12.6378 107.428 12.4554C107.639 12.273 107.745 12.0138 107.745 11.6778V9.43161C107.562 9.34522 107.332 9.30202 107.053 9.30202C106.544 9.30202 106.137 9.4796 105.829 9.83475C105.532 10.1899 105.383 10.6891 105.383 11.3323C105.383 12.2634 105.772 12.729 106.55 12.729Z" fill="#A0A0A0"/>
<path d="M112.428 17.3799C112.149 17.3799 111.953 17.3223 111.837 17.2071C111.732 17.0919 111.679 16.9095 111.679 16.6599V8.40928C112.111 8.1021 112.654 7.84771 113.306 7.64613C113.959 7.44455 114.64 7.34375 115.351 7.34375C118.25 7.34375 119.699 8.57246 119.699 11.0299C119.699 12.1434 119.392 13.0313 118.778 13.6937C118.163 14.3561 117.295 14.6872 116.172 14.6872C115.855 14.6872 115.548 14.6488 115.25 14.572C114.962 14.4953 114.722 14.3897 114.53 14.2552V16.6599C114.53 16.9095 114.472 17.0919 114.357 17.2071C114.242 17.3223 114.045 17.3799 113.767 17.3799H112.428ZM115.552 12.7433C115.965 12.7433 116.273 12.5898 116.474 12.2826C116.685 11.9658 116.791 11.5434 116.791 11.0155C116.791 10.3916 116.666 9.95473 116.417 9.70515C116.177 9.44601 115.802 9.31642 115.294 9.31642C114.967 9.31642 114.708 9.35962 114.516 9.44601V11.7355C114.516 12.0619 114.607 12.3114 114.789 12.4842C114.972 12.657 115.226 12.7433 115.552 12.7433Z" fill="#A0A0A0"/>
<path fill-rule="evenodd" clip-rule="evenodd" d="M9.11529 18.7224C6.38744 18.7204 4.19011 18.0658 2.65481 16.8901C1.10109 15.7003 0.276855 14.0118 0.276855 12.1012C0.276855 10.2603 1.09929 8.93282 2.02986 8.03553C2.75915 7.33235 3.56392 6.88199 4.1243 6.62294C3.99757 6.23404 3.83947 5.72491 3.69802 5.19905C3.50875 4.49538 3.32307 3.66979 3.32307 3.06479C3.32307 2.3487 3.4792 1.62955 3.90016 1.07074C4.34491 0.480343 5.01448 0.164062 5.81997 0.164062C6.4495 0.164062 6.98397 0.397578 7.4024 0.800417C7.80236 1.18547 8.06856 1.69684 8.25235 2.22991C8.57533 3.16661 8.70107 4.34341 8.73634 5.51781H9.50789C9.54321 4.34341 9.66889 3.16661 9.99192 2.22991C10.1757 1.69684 10.4418 1.18547 10.8419 0.800417C11.2603 0.397578 11.7947 0.164062 12.4242 0.164062C13.2298 0.164062 13.8993 0.480343 14.3441 1.07074C14.7651 1.62955 14.9212 2.3487 14.9212 3.06479C14.9212 3.66979 14.7354 4.49538 14.5462 5.19905C14.4048 5.72491 14.2466 6.23404 14.1199 6.62294C14.6803 6.88199 15.4851 7.33235 16.2144 8.03553C17.145 8.93282 17.9673 10.2603 17.9673 12.1012C17.9673 14.0118 17.1432 15.7003 15.5894 16.8901C14.0542 18.0658 11.8568 18.7204 9.12894 18.7224H9.11529Z" fill="#A0A0A0"/>
<path d="M5.82035 0.847656C4.64057 0.847656 4.09749 1.7368 4.09749 2.96646C4.09749 3.94386 4.7285 5.90133 4.9874 6.66334C5.04563 6.83473 4.95413 7.02251 4.78726 7.08898C3.8417 7.46562 1.05127 8.84463 1.05127 12.0029C1.05127 15.3297 3.88698 17.8382 9.11626 17.8422C9.11834 17.8422 9.12041 17.8421 9.1225 17.8421C9.12458 17.8421 9.12666 17.8422 9.12874 17.8422C14.358 17.8382 17.1937 15.3297 17.1937 12.0029C17.1937 8.84463 14.4033 7.46562 13.4578 7.08898C13.2909 7.02251 13.1994 6.83473 13.2576 6.66334C13.5165 5.90133 14.1475 3.94386 14.1475 2.96646C14.1475 1.7368 13.6045 0.847656 12.4246 0.847656C10.7264 0.847656 10.303 3.27783 10.2729 5.88601C10.2709 6.06013 10.1315 6.2014 9.95916 6.2014H8.28586C8.11349 6.2014 7.97414 6.06013 7.97214 5.88601C7.94193 3.27783 7.51861 0.847656 5.82035 0.847656Z" fill="#A0A0A0"/>
<path d="M9.12874 16.7751C5.28653 16.7751 1.05791 14.6974 1.05129 12.0078C1.05128 12.0119 1.05127 12.0161 1.05127 12.0203C1.05127 15.3499 3.8915 17.8597 9.12874 17.8597C14.366 17.8597 17.2062 15.3499 17.2062 12.0203C17.2062 12.0161 17.2062 12.0119 17.2062 12.0078C17.1996 14.6974 12.9709 16.7751 9.12874 16.7751Z" fill="#A0A0A0"/>
<path d="M6.99188 11.1818C6.99188 12.0898 6.56708 12.5628 6.04306 12.5628C5.51904 12.5628 5.09424 12.0898 5.09424 11.1818C5.09424 10.2737 5.51904 9.80078 6.04306 9.80078C6.56708 9.80078 6.99188 10.2737 6.99188 11.1818Z" fill="#141414"/>
<path d="M13.1608 11.1818C13.1608 12.0898 12.736 12.5628 12.212 12.5628C11.688 12.5628 11.2632 12.0898 11.2632 11.1818C11.2632 10.2737 11.688 9.80078 12.212 9.80078C12.736 9.80078 13.1608 10.2737 13.1608 11.1818Z" fill="#141414"/>
</g>
<defs>
<clipPath id="clip0_2165_3779">
<rect width="119.7" height="18.5951" fill="white" transform="translate(0 0.164062)"/>
</clipPath>
</defs>
</svg>
