<svg width="120" height="19" viewBox="0 0 120 19" fill="none" xmlns="http://www.w3.org/2000/svg">
<g clip-path="url(#clip0_1931_8873)">
<path d="M23.0818 14.5726C22.8034 14.5726 22.6066 14.5149 22.4914 14.3998C22.3858 14.2846 22.333 14.1022 22.333 13.8526V5.51561C22.333 5.26602 22.3906 5.08363 22.5058 4.96844C22.621 4.84365 22.8129 4.78125 23.0818 4.78125H26.6095C27.9534 4.78125 28.9421 5.06444 29.5757 5.63079C30.2093 6.19716 30.5261 7.0419 30.5261 8.16502C30.5261 9.27854 30.2093 10.1185 29.5757 10.6848C28.9517 11.2416 27.963 11.52 26.6095 11.52H25.2416V13.8526C25.2416 14.1022 25.184 14.2846 25.0688 14.3998C24.9536 14.5149 24.7568 14.5726 24.4784 14.5726H23.0818ZM26.3792 9.43213C26.7727 9.43213 27.0751 9.32654 27.2863 9.11535C27.507 8.90417 27.6175 8.58739 27.6175 8.16502C27.6175 7.73305 27.507 7.41147 27.2863 7.20028C27.0751 6.9891 26.7727 6.8835 26.3792 6.8835H25.2416V9.43213H26.3792Z" fill="#A0A0A0"/>
<path d="M33.9259 14.7888C33.0236 14.7888 32.2988 14.5008 31.7516 13.9249C31.2141 13.3393 30.9453 12.5186 30.9453 11.4626C30.9453 10.6563 31.1277 9.95071 31.4924 9.34598C31.8668 8.74123 32.39 8.27566 33.062 7.94929C33.7435 7.6133 34.5258 7.44531 35.409 7.44531C36.1386 7.44531 36.7817 7.52691 37.3385 7.69009C37.9048 7.84369 38.4232 8.06928 38.8935 8.36685V14.1265C38.8935 14.3089 38.86 14.4288 38.7927 14.4864C38.7255 14.5441 38.5912 14.5728 38.3896 14.5728H36.9209C36.8153 14.5728 36.7337 14.5585 36.6761 14.5296C36.6185 14.4913 36.5706 14.4336 36.5322 14.3568L36.3449 13.9249C36.0665 14.2224 35.7306 14.4385 35.337 14.5728C34.9531 14.7168 34.4827 14.7888 33.9259 14.7888ZM35.0059 12.8305C35.3802 12.8305 35.6729 12.7393 35.8841 12.557C36.0953 12.3746 36.2009 12.1154 36.2009 11.7794V9.53318C36.0186 9.44678 35.7882 9.40358 35.5098 9.40358C35.001 9.40358 34.593 9.58117 34.2859 9.93631C33.9883 10.2915 33.8395 10.7907 33.8395 11.4338C33.8395 12.365 34.2282 12.8305 35.0059 12.8305Z" fill="#A0A0A0"/>
<path d="M40.8969 14.5728C40.6185 14.5728 40.4217 14.5152 40.3066 14.4001C40.1913 14.2849 40.1338 14.1025 40.1338 13.8529V8.10767C40.1338 7.93489 40.1626 7.81969 40.2201 7.76209C40.2873 7.6949 40.4217 7.66131 40.6233 7.66131H42.1065C42.2216 7.66131 42.308 7.6805 42.3656 7.71889C42.4328 7.74769 42.4712 7.80529 42.4808 7.89169L42.5527 8.32365C42.8216 8.05488 43.172 7.84369 43.6039 7.69009C44.0455 7.52691 44.535 7.44531 45.0726 7.44531C45.8501 7.44531 46.4789 7.6661 46.9588 8.10767C47.4389 8.53964 47.6788 9.18279 47.6788 10.0371V13.8529C47.6788 14.1025 47.6213 14.2849 47.506 14.4001C47.4004 14.5152 47.2084 14.5728 46.9301 14.5728H45.5334C45.255 14.5728 45.0535 14.5152 44.9286 14.4001C44.8134 14.2849 44.7558 14.1025 44.7558 13.8529V10.2243C44.7558 9.93632 44.6934 9.72999 44.5687 9.60516C44.4438 9.48037 44.247 9.41798 43.9783 9.41798C43.6903 9.41798 43.4599 9.49477 43.2871 9.64832C43.124 9.80194 43.0424 10.0131 43.0424 10.282V13.8529C43.0424 14.1025 42.9847 14.2849 42.8696 14.4001C42.764 14.5152 42.572 14.5728 42.2936 14.5728H40.8969Z" fill="#A0A0A0"/>
<path d="M52.769 14.7888C51.4251 14.7888 50.3884 14.4768 49.6588 13.8529C48.9293 13.229 48.5645 12.3218 48.5645 11.1314C48.5645 10.4019 48.7325 9.75877 49.0684 9.202C49.4044 8.64524 49.8892 8.21326 50.5227 7.90609C51.1659 7.5989 51.9243 7.44531 52.7978 7.44531C53.4601 7.44531 54.0169 7.50771 54.4681 7.63251C54.9288 7.75729 55.3368 7.94928 55.692 8.20847C55.7976 8.27566 55.8504 8.36205 55.8504 8.46765C55.8504 8.54444 55.812 8.64524 55.7351 8.77002L55.1448 9.79232C55.0776 9.92678 54.996 9.99397 54.9 9.99397C54.8424 9.99397 54.7512 9.95556 54.6265 9.87875C54.3672 9.7156 54.1225 9.59557 53.8921 9.51878C53.6713 9.44198 53.3929 9.40358 53.057 9.40358C52.577 9.40358 52.1883 9.55717 51.8906 9.86436C51.6026 10.1715 51.4587 10.5939 51.4587 11.1314C51.4587 11.6786 51.6074 12.101 51.905 12.3985C52.2026 12.6865 52.6106 12.8305 53.1289 12.8305C53.4361 12.8305 53.7145 12.7873 53.9641 12.7009C54.2137 12.6146 54.4681 12.4946 54.7273 12.341C54.8616 12.2642 54.9576 12.2258 55.0153 12.2258C55.1016 12.2258 55.1784 12.2929 55.2456 12.4274L55.8935 13.5361C55.9416 13.6321 55.9656 13.7089 55.9656 13.7664C55.9656 13.8529 55.9079 13.9344 55.7928 14.0113C55.3896 14.2705 54.948 14.4624 54.4681 14.5872C53.9977 14.7216 53.4313 14.7888 52.769 14.7888Z" fill="#A0A0A0"/>
<path d="M59.6154 14.7888C58.713 14.7888 57.9883 14.5008 57.4412 13.9249C56.9036 13.3393 56.6348 12.5186 56.6348 11.4626C56.6348 10.6563 56.8172 9.95071 57.182 9.34598C57.5563 8.74123 58.0795 8.27566 58.7514 7.94929C59.433 7.6133 60.2154 7.44531 61.0985 7.44531C61.828 7.44531 62.4712 7.52691 63.0279 7.69009C63.5943 7.84369 64.1127 8.06928 64.5831 8.36685V14.1265C64.5831 14.3089 64.5494 14.4288 64.4823 14.4864C64.4151 14.5441 64.2807 14.5728 64.0791 14.5728H62.6104C62.5048 14.5728 62.4232 14.5585 62.3656 14.5296C62.308 14.4913 62.26 14.4336 62.2216 14.3568L62.0344 13.9249C61.7561 14.2224 61.4201 14.4385 61.0265 14.5728C60.6425 14.7168 60.1721 14.7888 59.6154 14.7888ZM60.6953 12.8305C61.0697 12.8305 61.3625 12.7393 61.5737 12.557C61.7849 12.3746 61.8904 12.1154 61.8904 11.7794V9.53318C61.708 9.44678 61.4777 9.40358 61.1992 9.40358C60.6905 9.40358 60.2826 9.58117 59.9753 9.93631C59.6778 10.2915 59.529 10.7907 59.529 11.4338C59.529 12.365 59.9178 12.8305 60.6953 12.8305Z" fill="#A0A0A0"/>
<path d="M73.6285 14.0254C73.6956 14.1022 73.7293 14.1886 73.7293 14.2846C73.7293 14.3709 73.7005 14.443 73.6428 14.5006C73.5853 14.5486 73.5085 14.5726 73.4125 14.5726H71.1806C71.0463 14.5726 70.9454 14.563 70.8783 14.5438C70.8207 14.5149 70.7583 14.4621 70.6911 14.3854L68.7328 11.7216V13.8526C68.7328 14.1022 68.6752 14.2846 68.56 14.3998C68.4448 14.5149 68.248 14.5726 67.9697 14.5726H66.573C66.2946 14.5726 66.0978 14.5149 65.9826 14.3998C65.877 14.2846 65.8242 14.1022 65.8242 13.8526V5.51561C65.8242 5.26602 65.8818 5.08363 65.997 4.96844C66.1122 4.84365 66.3042 4.78125 66.573 4.78125H67.9697C68.248 4.78125 68.4448 4.84365 68.56 4.96844C68.6752 5.08363 68.7328 5.26602 68.7328 5.51561V10.3393L70.6335 7.86264C70.6911 7.78584 70.7535 7.73305 70.8207 7.70425C70.8879 7.67546 70.9887 7.66106 71.1231 7.66106H73.355C73.4509 7.66106 73.5229 7.68985 73.5709 7.74745C73.6285 7.79545 73.6573 7.86264 73.6573 7.94904C73.6573 8.04503 73.6237 8.13142 73.5565 8.20822L71.0943 11.0305L73.6285 14.0254Z" fill="#A0A0A0"/>
<path d="M78.3033 14.7888C77.497 14.7888 76.777 14.6544 76.1435 14.3857C75.5196 14.1168 75.0252 13.7136 74.6604 13.1762C74.2957 12.6386 74.1133 11.981 74.1133 11.2035C74.1133 9.98434 74.4588 9.05321 75.15 8.41005C75.8411 7.7669 76.8347 7.44531 78.1306 7.44531C79.3977 7.44531 80.3577 7.76209 81.0104 8.39565C81.6728 9.01961 82.004 9.88838 82.004 11.0018C82.004 11.4819 81.7928 11.7218 81.3704 11.7218H76.8491C76.8491 12.1346 77.0026 12.4514 77.3099 12.6721C77.6266 12.8929 78.1018 13.0033 78.7353 13.0033C79.1289 13.0033 79.4553 12.9697 79.7145 12.9026C79.9833 12.8257 80.2521 12.7154 80.5208 12.5714C80.636 12.5234 80.7129 12.4994 80.7512 12.4994C80.8376 12.4994 80.9096 12.557 80.9672 12.6721L81.4568 13.5937C81.5048 13.6897 81.5288 13.7617 81.5288 13.8097C81.5288 13.896 81.4711 13.9777 81.3559 14.0544C80.9624 14.3136 80.5161 14.5008 80.0169 14.616C79.5177 14.7312 78.9465 14.7888 78.3033 14.7888ZM79.4121 10.2963C79.4121 9.93155 79.3065 9.64832 79.0954 9.44678C78.8842 9.24519 78.5673 9.1444 78.145 9.1444C77.7226 9.1444 77.4011 9.24999 77.1803 9.46118C76.9595 9.66281 76.8491 9.94117 76.8491 10.2963H79.4121Z" fill="#A0A0A0"/>
<path d="M86.9406 14.7858C86.1341 14.7858 85.371 14.7042 84.6511 14.5411C83.9311 14.3682 83.3504 14.1282 82.9088 13.8211C82.7456 13.7155 82.6641 13.605 82.6641 13.4899C82.6641 13.4131 82.6928 13.3315 82.7504 13.2451L83.456 12.122C83.5328 12.0068 83.6095 11.9492 83.6863 11.9492C83.7344 11.9492 83.8159 11.9828 83.9311 12.05C84.2863 12.2516 84.6894 12.4148 85.1407 12.5395C85.5918 12.6643 86.0382 12.7268 86.4798 12.7268C86.9309 12.7268 87.2621 12.6596 87.4733 12.5251C87.6941 12.3907 87.8044 12.1748 87.8044 11.8772C87.8044 11.5892 87.6845 11.3636 87.4445 11.2005C87.2141 11.0372 86.7773 10.8309 86.1341 10.5813C85.1647 10.2165 84.4063 9.80856 83.8591 9.35737C83.3215 8.8966 83.0528 8.27265 83.0528 7.4855C83.0528 6.53517 83.3936 5.81042 84.0751 5.31125C84.7567 4.81209 85.6638 4.5625 86.7966 4.5625C87.5836 4.5625 88.2557 4.6345 88.8124 4.77848C89.3788 4.91287 89.8587 5.12406 90.2523 5.41204C90.4155 5.53684 90.4971 5.65202 90.4971 5.75762C90.4971 5.82482 90.4683 5.90161 90.4106 5.988L89.7052 7.11113C89.6187 7.22632 89.5419 7.28391 89.4747 7.28391C89.4268 7.28391 89.3451 7.25031 89.23 7.18312C88.6732 6.81834 88.0109 6.63595 87.2429 6.63595C86.8301 6.63595 86.5133 6.70315 86.2925 6.83755C86.0718 6.97194 85.9614 7.19272 85.9614 7.4999C85.9614 7.71109 86.019 7.88387 86.1341 8.01826C86.2494 8.15265 86.403 8.27265 86.5949 8.37824C86.7966 8.47423 87.1037 8.59903 87.5164 8.75261L87.79 8.8534C88.5004 9.13179 89.0572 9.40057 89.4603 9.6598C89.8732 9.90929 90.1851 10.2213 90.3963 10.5957C90.6074 10.9604 90.713 11.4212 90.713 11.978C90.713 12.8324 90.3915 13.5139 89.7483 14.0226C89.1148 14.5314 88.1789 14.7858 86.9406 14.7858Z" fill="#A0A0A0"/>
<path d="M93.7731 14.5717C93.6292 14.5717 93.5189 14.5477 93.4419 14.4997C93.3651 14.4517 93.3074 14.3557 93.269 14.2117L91.4116 7.99133C91.3924 7.93374 91.3828 7.89054 91.3828 7.86174C91.3828 7.72735 91.4788 7.66016 91.6708 7.66016H93.5712C93.6965 7.66016 93.7871 7.68415 93.845 7.73214C93.903 7.77054 93.9413 7.83773 93.96 7.93373L94.7374 11.2023L95.7167 8.56729C95.7653 8.4521 95.8129 8.3753 95.8606 8.33691C95.9185 8.2889 96.0148 8.26491 96.1493 8.26491H97.0557C97.1903 8.26491 97.2818 8.2889 97.3295 8.33691C97.3874 8.3753 97.4398 8.4521 97.4884 8.56729L98.4527 11.2023L99.2451 7.93373C99.2731 7.83773 99.3114 7.77054 99.36 7.73214C99.4077 7.68415 99.4946 7.66016 99.6188 7.66016H101.534C101.726 7.66016 101.822 7.72735 101.822 7.86174C101.822 7.89054 101.813 7.93374 101.793 7.99133L99.9216 14.2117C99.8833 14.3557 99.8254 14.4517 99.7487 14.4997C99.6814 14.5477 99.5759 14.5717 99.432 14.5717H98.021C97.8864 14.5717 97.7855 14.5477 97.7182 14.4997C97.6509 14.4421 97.5939 14.3461 97.5454 14.2117L96.595 11.6055L95.6447 14.2117C95.6064 14.3461 95.5485 14.4421 95.4719 14.4997C95.4046 14.5477 95.3046 14.5717 95.17 14.5717H93.7731Z" fill="#A0A0A0"/>
<path d="M105.47 14.7888C104.567 14.7888 103.843 14.5008 103.296 13.9249C102.758 13.3393 102.489 12.5186 102.489 11.4626C102.489 10.6563 102.671 9.95071 103.037 9.34598C103.411 8.74123 103.934 8.27566 104.606 7.94929C105.288 7.6133 106.07 7.44531 106.953 7.44531C107.683 7.44531 108.326 7.52691 108.883 7.69009C109.449 7.84369 109.967 8.06928 110.437 8.36685V14.1265C110.437 14.3089 110.404 14.4288 110.337 14.4864C110.269 14.5441 110.136 14.5728 109.934 14.5728H108.465C108.359 14.5728 108.278 14.5585 108.22 14.5296C108.162 14.4913 108.115 14.4336 108.076 14.3568L107.889 13.9249C107.611 14.2224 107.274 14.4385 106.881 14.5728C106.497 14.7168 106.027 14.7888 105.47 14.7888ZM106.55 12.8305C106.924 12.8305 107.217 12.7393 107.429 12.557C107.64 12.3746 107.745 12.1154 107.745 11.7794V9.53318C107.562 9.44678 107.332 9.40358 107.054 9.40358C106.545 9.40358 106.137 9.58117 105.83 9.93631C105.533 10.2915 105.383 10.7907 105.383 11.4338C105.383 12.365 105.773 12.8305 106.55 12.8305Z" fill="#A0A0A0"/>
<path d="M112.428 17.4814C112.15 17.4814 111.953 17.4239 111.838 17.3087C111.732 17.1934 111.68 17.011 111.68 16.7615V8.51084C112.111 8.20366 112.654 7.94928 113.307 7.74769C113.96 7.54611 114.641 7.44531 115.351 7.44531C118.251 7.44531 119.7 8.67403 119.7 11.1314C119.7 12.245 119.392 13.1329 118.779 13.7953C118.164 14.4576 117.296 14.7888 116.172 14.7888C115.856 14.7888 115.548 14.7504 115.25 14.6736C114.962 14.5969 114.722 14.4913 114.531 14.3568V16.7615C114.531 17.011 114.473 17.1934 114.358 17.3087C114.243 17.4239 114.046 17.4814 113.767 17.4814H112.428ZM115.553 12.8449C115.966 12.8449 116.273 12.6914 116.474 12.3841C116.685 12.0674 116.791 11.645 116.791 11.1171C116.791 10.4931 116.667 10.0563 116.417 9.80671C116.177 9.54757 115.802 9.41798 115.294 9.41798C114.967 9.41798 114.708 9.46118 114.517 9.54758V11.837C114.517 12.1634 114.607 12.413 114.789 12.5858C114.973 12.7586 115.227 12.8449 115.553 12.8449Z" fill="#A0A0A0"/>
<path fill-rule="evenodd" clip-rule="evenodd" d="M9.11578 18.822C6.38793 18.82 4.1906 18.1654 2.6553 16.9897C1.10158 15.7999 0.277344 14.1114 0.277344 12.2008C0.277344 10.3599 1.09978 9.03243 2.03035 8.13514C2.75963 7.43195 3.56441 6.9816 4.12478 6.72255C3.99806 6.33365 3.83996 5.82452 3.69851 5.29866C3.50924 4.59499 3.32356 3.7694 3.32356 3.1644C3.32356 2.44831 3.47969 1.72916 3.90064 1.17035C4.3454 0.579953 5.01497 0.263672 5.82046 0.263672C6.44999 0.263672 6.98446 0.497188 7.40288 0.900026C7.80285 1.28508 8.06905 1.79645 8.25284 2.32952C8.57581 3.26622 8.70156 4.44302 8.73682 5.61742H9.50838C9.5437 4.44302 9.66938 3.26622 9.99241 2.32952C10.1762 1.79645 10.4423 1.28508 10.8424 0.900026C11.2608 0.497188 11.7952 0.263672 12.4247 0.263672C13.2303 0.263672 13.8998 0.579953 14.3446 1.17035C14.7656 1.72916 14.9217 2.44831 14.9217 3.1644C14.9217 3.7694 14.7359 4.59499 14.5467 5.29866C14.4052 5.82452 14.2471 6.33365 14.1204 6.72255C14.6808 6.9816 15.4856 7.43195 16.2149 8.13514C17.1454 9.03243 17.9678 10.3599 17.9678 12.2008C17.9678 14.1114 17.1437 15.7999 15.5899 16.9897C14.0546 18.1654 11.8572 18.82 9.12943 18.822H9.11578Z" fill="#A0A0A0"/>
<path d="M5.82084 0.949219C4.64106 0.949219 4.09798 1.83836 4.09798 3.06802C4.09798 4.04542 4.72899 6.00289 4.98789 6.7649C5.04612 6.93629 4.95462 7.12407 4.78774 7.19054C3.84219 7.56718 1.05176 8.9462 1.05176 12.1045C1.05176 15.4313 3.88747 17.9398 9.11674 17.9438C9.11883 17.9438 9.1209 17.9437 9.12299 17.9437C9.12507 17.9437 9.12714 17.9438 9.12923 17.9438C14.3585 17.9398 17.1942 15.4313 17.1942 12.1045C17.1942 8.9462 14.4038 7.56718 13.4582 7.19054C13.2913 7.12407 13.1999 6.93629 13.2581 6.7649C13.517 6.00289 14.148 4.04542 14.148 3.06802C14.148 1.83836 13.6049 0.949219 12.4251 0.949219C10.7269 0.949219 10.3035 3.3794 10.2733 5.98757C10.2714 6.16169 10.132 6.30297 9.95965 6.30297H8.28635C8.11397 6.30297 7.97463 6.16169 7.97262 5.98757C7.94242 3.3794 7.5191 0.949219 5.82084 0.949219Z" fill="#A0A0A0"/>
<path d="M9.12923 16.8766C5.28702 16.8766 1.0584 14.7989 1.05178 12.1094C1.05177 12.1135 1.05176 12.1177 1.05176 12.1219C1.05176 15.4514 3.89198 17.9612 9.12923 17.9612C14.3665 17.9612 17.2067 15.4514 17.2067 12.1219C17.2067 12.1177 17.2067 12.1135 17.2067 12.1094C17.2001 14.7989 12.9714 16.8766 9.12923 16.8766Z" fill="#A0A0A0"/>
<path d="M6.99237 11.2833C6.99237 12.1914 6.56757 12.6643 6.04355 12.6643C5.51953 12.6643 5.09473 12.1914 5.09473 11.2833C5.09473 10.3753 5.51953 9.90234 6.04355 9.90234C6.56757 9.90234 6.99237 10.3753 6.99237 11.2833Z" fill="#141414"/>
<path d="M13.1613 11.2833C13.1613 12.1914 12.7365 12.6643 12.2125 12.6643C11.6885 12.6643 11.2637 12.1914 11.2637 11.2833C11.2637 10.3753 11.6885 9.90234 12.2125 9.90234C12.7365 9.90234 13.1613 10.3753 13.1613 11.2833Z" fill="#141414"/>
</g>
<defs>
<clipPath id="clip0_1931_8873">
<rect width="119.7" height="18.5951" fill="white" transform="translate(0 0.263672)"/>
</clipPath>
</defs>
</svg>
