<svg width="161" height="24" viewBox="0 0 161 24" fill="none" xmlns="http://www.w3.org/2000/svg">
<path d="M30.1872 10.7986V13.9742H34.692V16.927H30.1872V20.3733H35.9813V23.4375H26.3589V7.73438H35.9813V10.7986H30.1872Z" fill="#A0A0A0"/>
<path d="M47.5073 23.3517L44.5465 17.4223H43.0104V23.3517H39.1821V7.64062H45.6051C46.8467 7.64062 47.8973 7.85552 48.7648 8.29326C49.6482 8.72305 50.3009 9.31998 50.7386 10.084C51.1684 10.8322 51.3913 11.6679 51.3913 12.5911C51.3913 13.6338 51.0968 14.565 50.4998 15.3927C49.9188 16.2125 49.0513 16.7935 47.9052 17.1357L51.5345 23.3597H47.5232L47.5073 23.3517ZM43.0104 14.7082H45.3822C46.0826 14.7082 46.6079 14.5331 46.9501 14.1909C47.3083 13.8487 47.4913 13.3632 47.4913 12.7344C47.4913 12.1056 47.3083 11.6679 46.9501 11.3256C46.6079 10.9834 46.0826 10.8083 45.3822 10.8083H43.0104V14.7003V14.7082Z" fill="#A0A0A0"/>
<path d="M60.0514 23.6048C58.9053 23.6048 57.8707 23.4218 56.9633 23.0477C56.056 22.6736 55.3238 22.1245 54.7667 21.3922C54.2254 20.66 53.9469 19.7845 53.915 18.7498H57.9901C58.0458 19.3309 58.2527 19.7766 58.5949 20.0949C58.9372 20.3894 59.3829 20.5406 59.94 20.5406C60.4971 20.5406 60.9508 20.4133 61.2851 20.1586C61.6114 19.888 61.7785 19.5219 61.7785 19.0602C61.7785 18.6703 61.6432 18.3519 61.3726 18.0972C61.1179 17.8425 60.7996 17.6356 60.4096 17.4684C60.0355 17.3013 59.5023 17.1182 58.7939 16.9113C57.7752 16.6009 56.9474 16.2826 56.3107 15.9721C55.666 15.6617 55.1169 15.2001 54.6552 14.5873C54.1936 13.9744 53.9628 13.1785 53.9628 12.1916C53.9628 10.7272 54.496 9.58902 55.5546 8.76924C56.6131 7.93355 57.998 7.51172 59.6933 7.51172C61.3886 7.51172 62.8212 7.93355 63.8797 8.76924C64.9383 9.58902 65.5034 10.7431 65.583 12.2155H61.4443C61.4124 11.7061 61.2294 11.3161 60.8871 11.0296C60.5449 10.7272 60.1072 10.5839 59.5659 10.5839C59.1043 10.5839 58.7302 10.7112 58.4437 10.9659C58.1572 11.2047 58.0219 11.5549 58.0219 12.0165C58.0219 12.5259 58.2607 12.9159 58.7382 13.2024C59.2157 13.4889 59.9639 13.7914 60.9747 14.1177C61.9855 14.4599 62.8132 14.7863 63.434 15.1046C64.0787 15.415 64.6279 15.8766 65.0895 16.4736C65.5511 17.0705 65.7819 17.8425 65.7819 18.7817C65.7819 19.7208 65.5511 20.4929 65.0895 21.2251C64.6438 21.9573 63.9832 22.5383 63.1157 22.9681C62.2481 23.3979 61.2294 23.6208 60.0514 23.6208V23.6048Z" fill="#A0A0A0"/>
<path d="M72.6115 7.51172V23.2228H68.7832V7.51172H72.6115Z" fill="#A0A0A0"/>
<path d="M81.7492 23.6048C80.6031 23.6048 79.5684 23.4218 78.6611 23.0477C77.7538 22.6736 77.0215 22.1245 76.4644 21.3922C75.9232 20.66 75.6446 19.7845 75.6128 18.7498H79.6878C79.7435 19.3309 79.9505 19.7766 80.2927 20.0949C80.6349 20.3894 81.0806 20.5406 81.6378 20.5406C82.1949 20.5406 82.6565 20.4133 82.9828 20.1586C83.3092 19.888 83.4763 19.5219 83.4763 19.0602C83.4763 18.6703 83.341 18.3519 83.0704 18.0972C82.8157 17.8425 82.4973 17.6356 82.1073 17.4684C81.7333 17.3013 81.2 17.1182 80.4917 16.9113C79.4809 16.6009 78.6452 16.2826 78.0085 15.9721C77.3638 15.6617 76.8146 15.2001 76.353 14.5873C75.8914 13.9744 75.6606 13.1785 75.6606 12.1916C75.6606 10.7272 76.1938 9.58902 77.2524 8.76924C78.3109 7.93355 79.6958 7.51172 81.391 7.51172C83.0863 7.51172 84.5189 7.93355 85.5775 8.76924C86.636 9.58902 87.2011 10.7431 87.2807 12.2155H83.142C83.1102 11.7061 82.9271 11.3161 82.5849 11.0296C82.2427 10.7272 81.8049 10.5839 81.2637 10.5839C80.8021 10.5839 80.428 10.7112 80.1415 10.9659C79.8549 11.2047 79.7196 11.5549 79.7196 12.0165C79.7196 12.5259 79.9584 12.9159 80.436 13.2024C80.9135 13.4889 81.6616 13.7914 82.6724 14.1177C83.6912 14.4599 84.511 14.7863 85.1318 15.1046C85.7764 15.415 86.3256 15.8766 86.7872 16.4736C87.2489 17.0705 87.4797 17.8425 87.4797 18.7817C87.4797 19.7208 87.2489 20.4929 86.7872 21.2251C86.3415 21.9573 85.6809 22.5383 84.8134 22.9681C83.9459 23.3979 82.9271 23.6208 81.7492 23.6208V23.6048Z" fill="#A0A0A0"/>
<path d="M101.537 7.73438V10.7986H97.3742V23.4455H93.5459V10.7986H89.3833V7.73438H101.537Z" fill="#A0A0A0"/>
<path d="M108.072 10.7986V13.9742H112.577V16.927H108.072V20.3733H113.867V23.4375H104.244V7.73438H113.867V10.7986H108.072Z" fill="#A0A0A0"/>
<path d="M130.85 23.4455H127.022L120.623 13.7514V23.4455H116.794V7.73438H120.623L127.022 17.4682V7.73438H130.85V23.4455Z" fill="#A0A0A0"/>
<path d="M132.892 15.5654C132.892 14.0134 133.226 12.6364 133.902 11.4267C134.571 10.201 135.51 9.25386 136.704 8.58531C137.914 7.90083 139.275 7.55859 140.803 7.55859C142.665 7.55859 144.265 8.05205 145.594 9.03897C146.923 10.0259 147.807 11.371 148.26 13.0662H144.05C143.74 12.4056 143.286 11.9122 142.705 11.5699C142.14 11.2277 141.487 11.0526 140.755 11.0526C139.577 11.0526 138.622 11.4665 137.89 12.2862C137.158 13.106 136.792 14.2044 136.792 15.5733C136.792 16.9423 137.158 18.0406 137.89 18.8604C138.622 19.6802 139.577 20.094 140.755 20.094C141.487 20.094 142.132 19.9189 142.705 19.5767C143.286 19.2345 143.732 18.733 144.05 18.0804H148.26C147.815 19.7836 146.923 21.1287 145.594 22.1077C144.265 23.0787 142.665 23.5642 140.803 23.5642C139.283 23.5642 137.914 23.2299 136.704 22.5534C135.51 21.8689 134.579 20.9218 133.902 19.712C133.234 18.5022 132.892 17.1253 132.892 15.5733V15.5654Z" fill="#A0A0A0"/>
<path d="M154.181 10.7986V13.9742H158.686V16.927H154.181V20.3733H159.975V23.4375H150.353V7.73438H159.975V10.7986H154.181Z" fill="#A0A0A0"/>
<path d="M21.72 0.691406H1.52798C0.776329 0.691406 0.166992 1.30074 0.166992 2.0524V22.2444C0.166992 22.9961 0.776329 23.6054 1.52798 23.6054H21.72C22.4717 23.6054 23.081 22.9961 23.081 22.2444V2.0524C23.081 1.30074 22.4717 0.691406 21.72 0.691406Z" fill="#A0A0A0"/>
<path d="M17.7133 12.8517C17.7133 13.767 17.4984 14.6107 17.0766 15.3827C16.6547 16.1388 16.01 16.7437 15.1346 17.2133C14.2591 17.6828 13.1766 17.9137 11.8793 17.9137H9.48366V23.6044H5.62354V7.75H11.8793C13.1448 7.75 14.2113 7.96489 15.0868 8.40264C15.9623 8.84038 16.6149 9.44527 17.0527 10.2093C17.4904 10.9814 17.7053 11.8569 17.7053 12.8517H17.7133ZM11.5928 14.8415C12.333 14.8415 12.8822 14.6664 13.2403 14.3241C13.5985 13.9739 13.7815 13.4884 13.7815 12.8517C13.7815 12.215 13.5985 11.7295 13.2403 11.3793C12.8822 11.0291 12.325 10.862 11.5928 10.862H9.49161V14.8415H11.5928Z" fill="#202020"/>
<path d="M17.7133 3.73047H5.62354V6.28531H17.7133V3.73047Z" fill="#3B3B3B"/>
</svg>
