<svg width="30" height="31" viewBox="0 0 30 31" fill="none" xmlns="http://www.w3.org/2000/svg">
<g clip-path="url(#clip0_1931_8382)">
<path d="M15 30.3203C23.2843 30.3203 30 23.6046 30 15.3203C30 7.03604 23.2843 0.320312 15 0.320312C6.71573 0.320312 0 7.03604 0 15.3203C0 23.6046 6.71573 30.3203 15 30.3203Z" fill="white"/>
<path d="M15.0206 23.4966C11.1859 23.5252 7.96262 20.3692 7.97661 16.4292C7.9906 12.5839 11.1506 9.44191 15.0259 9.44923C18.8759 9.45656 21.99 12.5792 22.0246 16.4072C22.06 20.3632 18.8333 23.5106 15.0213 23.4966H15.0206ZM14.9886 11.2899C12.148 11.3006 9.82326 13.6106 9.81997 16.4619C9.8166 19.3179 12.1373 21.6546 14.986 21.6579C17.8459 21.6619 20.1686 19.3439 20.184 16.4912C20.1999 13.5665 17.7999 11.2853 14.9879 11.2892L14.9886 11.2899Z" fill="#111111"/>
<path d="M16.464 16.4833C16.4553 17.2972 15.7967 17.9432 14.984 17.9346C14.1646 17.9253 13.5246 17.2632 13.5373 16.4373C13.5493 15.6353 14.2099 15.0006 15.0233 15.0079C15.8273 15.0152 16.472 15.6759 16.464 16.4833Z" fill="#111111"/>
<path d="M7.91895 8.86651H22.081V7.14453H7.91895V8.86651Z" fill="#FF6700"/>
</g>
<defs>
<clipPath id="clip0_1931_8382">
<rect width="30" height="30.75" fill="white" transform="translate(0 0.185547)"/>
</clipPath>
</defs>
</svg>
