<svg width="69" height="39" viewBox="0 0 69 39" fill="none" xmlns="http://www.w3.org/2000/svg">
<path d="M18.7605 19.6498C17.6091 17.5999 16.5337 15.6738 14.9961 13.6963C14.1256 12.5768 13.3015 11.3512 13.1899 9.9369C13.0716 8.43903 14.9637 7.71355 15.2788 9.36728C15.5829 10.9633 15.4478 12.581 16.1451 14.1028C16.478 14.829 17.1061 15.324 17.8826 14.9796C19.2236 14.384 17.9453 12.5814 17.5628 11.8044C16.9372 10.535 16.852 9.20423 16.7069 7.83379C16.6025 6.84843 16.2142 5.87237 15.5113 5.16146C14.6664 4.30709 13.5831 4.0926 12.4484 4.48839C10.6682 5.10936 7.25352 8.56004 11.7864 14.0406C12.6869 15.1291 13.8248 15.9928 14.8857 16.9254C16.6655 18.4903 18.1353 20.2486 18.8675 22.4256C19.6236 24.6732 19.7765 27.3456 18.279 29.1831C16.396 31.4943 14.2968 30.7335 13.17 29.6446C11.6221 28.1489 12.1654 26.8791 11.8164 25.0112C11.6271 23.9984 11.1245 23.0555 10.4896 22.2447C10.039 21.6694 9.28544 21.1458 8.6249 21.457C7.98782 21.7572 7.88913 22.6672 8.17925 23.3096C8.46944 23.952 9.02271 24.4305 9.44014 24.998C9.75882 25.4309 10.4144 26.5169 10.2693 28.0262C10.1395 29.3759 10.3841 30.8305 11.0411 32.0321C13.0716 35.7469 17.9881 35.4593 19.8571 29.626C21.3828 24.8642 19.6742 21.2771 18.7605 19.6505V19.6498Z" fill="#A0A0A0"/>
<path d="M42.4741 8.98198C42.0734 8.62154 41.8809 8.06588 41.8866 7.52628C41.8919 6.98702 42.0784 6.46243 42.3372 5.9892C42.6587 5.40105 43.1104 4.8643 43.7068 4.55953C44.3031 4.25475 45.0578 4.21478 45.6293 4.56452C46.2007 4.91391 46.5111 5.68941 46.2381 6.30148C45.9697 6.90246 45.415 6.95315 44.9758 7.34249C44.5855 7.68903 44.6853 7.83427 44.5773 8.29784C44.3445 9.29535 43.2819 9.70864 42.4744 8.98198H42.4741Z" fill="#A0A0A0"/>
<path d="M47.3953 9.88359C46.6092 9.54243 45.7437 10.183 45.2358 10.8743C44.1332 12.3739 43.5528 14.1415 43.5567 16.0062C43.5618 18.4502 44.562 20.7192 45.4197 22.9597C46.2232 25.0593 46.2036 27.3265 45.2864 29.4025C44.8233 30.4506 43.8801 31.1922 43.448 32.25C43.1354 33.0156 43.2897 34.0791 44.0497 34.4035C44.8379 34.74 45.7109 34.1019 46.2032 33.3995C48.3196 30.38 47.0117 24.8005 46.4435 23.1728C43.8202 15.6579 47.2926 13.7533 47.9838 12.0406C48.2932 11.2737 48.1531 10.2126 47.3953 9.88359Z" fill="#A0A0A0"/>
<path d="M32.2953 10.1152C31.0177 4.55748 27.1831 3.95293 25.4517 4.49503C21.2275 5.81799 20.8214 10.2912 21.5687 13.2269C22.7129 17.7232 26.448 17.4152 27.7318 16.6129C28.7602 15.9702 29.0756 14.7953 29.5751 15.1608C30.2613 15.6629 28.825 17.2514 28.5798 17.5151C25.8232 20.4747 23.0352 22.3231 22.2131 27.9671C21.9704 29.6331 22.3743 31.6612 23.1845 33.1394C23.4337 33.5941 24.2315 34.9245 25.3444 34.3817C26.6391 33.75 26.0567 32.2133 25.8267 31.7344C25.5968 31.2554 24.3466 29.3258 24.2002 27.7166C23.593 21.0532 29.1879 19.8638 31.1721 17.23C33.2086 14.5269 32.6365 11.6013 32.295 10.1152H32.2953ZM26.483 9.48818C26.406 9.6138 26.3472 9.72586 26.3037 9.83291C26.1843 10.1284 26.1836 10.3847 26.2524 10.7765C26.437 11.824 25.7248 12.7961 24.5802 12.4271C24.0483 12.2554 23.6312 11.8108 23.4084 11.2975C23.1856 10.7843 23.1403 10.2087 23.1852 9.65088C23.2408 8.95786 23.4416 8.25801 23.8775 7.71695C24.3135 7.17559 25.0111 6.81796 25.6998 6.90684C26.3885 6.99572 27.0106 7.5981 27.0106 8.29334C27.0106 8.76439 26.715 9.10806 26.4826 9.48783L26.483 9.48818Z" fill="#A0A0A0"/>
<path d="M59.5211 21.6157C57.5368 18.9822 52.0489 17.7928 52.6559 11.1291C52.8025 9.52025 53.9457 7.59029 54.1756 7.1113C54.4052 6.63237 54.988 5.09602 53.6933 4.46398C52.5804 3.92116 51.7826 5.25162 51.5334 5.70629C50.7228 7.18448 50.3192 9.21266 50.562 10.8785C51.3841 16.523 54.1724 18.3709 56.9287 21.3305C57.1743 21.5943 58.61 23.1828 57.924 23.6849C57.4245 24.0503 57.1091 22.8755 56.0806 22.2327C54.7966 21.4305 51.0618 21.1225 49.9175 25.6189C49.1704 28.5546 49.5763 33.0277 53.8006 34.3506C55.5317 34.8928 59.3669 34.2882 60.6441 28.7305C60.9857 27.2444 61.558 24.3187 59.5211 21.6157ZM55.3591 30.552C55.3591 31.2472 54.737 31.8496 54.0483 31.9385C53.3596 32.0274 52.662 31.6697 52.2261 31.1284C51.7901 30.5873 51.5894 29.8871 51.5338 29.1944C51.4888 28.6366 51.5341 28.061 51.7569 27.5478C51.9797 27.0346 52.3968 26.5899 52.9287 26.4182C54.0729 26.0493 54.7852 27.0214 54.6009 28.0688C54.5317 28.4603 54.5325 28.7169 54.6522 29.0124C54.6957 29.1195 54.7545 29.2315 54.8315 29.3571C55.064 29.7369 55.3598 30.0806 55.3595 30.5516L55.3591 30.552Z" fill="#A0A0A0"/>
<path d="M39.3322 13.8268C39.2349 13.1869 39.1846 12.3771 39.1907 11.7226C39.201 10.6091 38.7312 9.76293 37.8453 9.73905C36.5973 9.70588 36.3624 10.7565 36.3324 11.1973C36.2694 12.1287 36.5175 12.8893 36.9189 13.7318C37.645 15.2568 39.1208 17.3267 39.7418 18.9102C40.5096 20.8673 40.6583 22.7638 40.2918 24.7973C39.7939 27.5614 38.117 31.0631 34.8057 30.9631C34.3005 30.9478 33.747 30.7479 33.3562 30.4392C32.7056 29.925 32.213 29.0142 32.0562 28.1966C31.7182 26.4343 32.5289 24.6859 32.8554 22.9876C33.0821 21.8091 32.7367 19.8277 31.1094 19.9419C30.0503 20.0162 29.4646 21.2156 29.3002 22.2656C29.0015 24.1756 29.0425 26.1152 29.2853 28.0313C29.5213 29.8957 30.3287 31.7565 31.5675 33.0769C33.0162 34.6212 35.5136 34.8978 37.3691 33.887C39.2263 32.8756 40.6996 30.7083 41.3773 28.1591C41.9833 25.8801 41.9377 23.2224 41.2785 20.9444C40.9445 19.7892 40.5991 18.6375 40.274 17.4798C39.915 16.2025 39.5318 15.1422 39.3319 13.8268H39.3322Z" fill="#A0A0A0"/>
</svg>
