<svg width="36" height="36" viewBox="0 0 36 36" fill="none" xmlns="http://www.w3.org/2000/svg">
<g clip-path="url(#clip0_1931_9054)">
<path d="M34.8675 16.5087C34.2249 18.804 32.7143 21.2771 30.783 22.2227C24.7686 25.167 21.6424 18.806 22.0204 14.1693C22.2472 11.3847 23.1502 9.17055 22.4544 6.90605C22.2325 6.18365 21.7607 5.51515 20.9879 5.15325C18.8676 4.15995 16.7928 5.52565 15.8282 6.97255C14.7873 8.53285 14.2987 10.4852 14.431 12.2695C14.5577 13.9887 15.1527 15.1157 16.0501 16.655C17.2492 18.7116 18.526 20.0472 19.0146 21.6264C19.3296 22.6442 19.5088 24.2871 18.0619 24.4249C16.5338 24.5712 16.6108 22.5679 16.5891 21.5627C16.524 18.5079 14.5836 17.4075 13.1227 13.8886C12.2694 11.8334 11.9369 9.65985 12.436 7.51435C13.1381 4.49525 14.8489 2.06135 17.9331 1.21925C20.3992 0.545853 23.2552 1.09815 24.8162 3.25765C26.6719 5.82525 26.31 8.85415 25.5554 11.5457C24.1589 16.5248 25.4063 18.8985 26.5704 19.5194C28.7747 20.6947 31.0875 19.3633 32.1137 17.9521C33.2253 16.4233 33.8882 13.6345 33.7832 11.8495C33.7433 11.1677 33.6831 10.5811 33.5914 10.0547" fill="#A0A0A0"/>
<path d="M0.27832 17.5607C0.27832 18.8375 0.41622 20.0821 0.67592 21.2812C0.64932 20.3775 0.73822 19.4829 0.97202 18.6485C1.61462 16.3532 3.12522 13.8801 5.05652 12.9344C11.0709 9.99021 14.1971 16.3511 13.8191 20.9879C13.5923 23.7725 12.6893 25.9866 13.3851 28.2511C13.607 28.9735 14.0788 29.642 14.8516 30.0039C16.9719 30.9972 19.0467 29.6315 20.0113 28.1846C21.0522 26.6243 21.5408 24.672 21.4085 22.8877C21.2818 21.1685 20.6868 20.0415 19.7901 18.5022C18.591 16.4456 17.3142 15.11 16.8256 13.5308C16.5106 12.513 16.3314 10.8701 17.7783 10.7322C19.3064 10.5859 19.2294 12.5893 19.2511 13.5945C19.3162 16.6493 21.2566 17.7497 22.7175 21.2686C23.5708 23.3238 23.9033 25.4973 23.4042 27.6428C22.7021 30.6619 20.9913 33.0958 17.9071 33.9379C15.441 34.6113 12.585 34.059 11.024 31.8995C9.16832 29.3319 9.53022 26.303 10.2848 23.6115C11.6813 18.6324 10.4339 16.2587 9.26982 15.6378C7.06552 14.4632 4.75272 15.7939 3.72652 17.2051C2.61492 18.7339 1.95202 21.5227 2.05702 23.3077C2.12212 24.4151 2.24112 25.2719 2.46092 26.0279" fill="#A0A0A0"/>
<path d="M17.7783 35.0605C27.4433 35.0605 35.2783 27.2255 35.2783 17.5605C35.2783 7.89556 27.4433 0.0605469 17.7783 0.0605469C8.11334 0.0605469 0.27832 7.89556 0.27832 17.5605C0.27832 27.2255 8.11334 35.0605 17.7783 35.0605Z" fill="#A0A0A0"/>
<path d="M23.4047 27.6409C23.9038 25.4954 23.5713 23.3219 22.718 21.2667C21.2571 17.7478 19.316 16.6467 19.2516 13.5926C19.2306 12.5874 19.3069 10.584 17.7788 10.7303C16.3319 10.8689 16.5111 12.5118 16.8261 13.5296C17.3147 15.1088 18.5922 16.4444 19.7906 18.501C20.688 20.0403 21.2823 21.1673 21.409 22.8865C21.5406 24.6708 21.0527 26.6231 20.0118 28.1834C19.0465 29.6303 16.9724 30.996 14.8521 30.0027C14.0793 29.6408 13.6075 28.9716 13.3856 28.2499C12.6905 25.9847 13.5928 23.7713 13.8196 20.9867C14.1976 16.3499 11.0707 9.98895 5.05703 12.9332C3.12573 13.8789 1.61513 16.3513 0.972526 18.6473C0.738726 19.4824 0.649826 20.3763 0.676426 21.28C1.04183 22.9656 1.64943 24.5609 2.46143 26.0274C2.24163 25.2707 2.12263 24.4146 2.05753 23.3072C1.95253 21.5229 2.61613 18.7334 3.72703 17.2046C4.75253 15.7934 7.06602 14.462 9.27032 15.6373C10.4344 16.2582 11.6818 18.6319 10.2853 23.611C9.53002 26.3032 9.16812 29.3314 11.0245 31.899C12.5855 34.0585 15.4415 34.6108 17.9076 33.9374C20.9918 33.0939 22.7033 30.66 23.4047 27.6409Z" fill="black"/>
<path d="M34.8679 16.5061C34.9883 16.077 35.0695 15.6318 35.1171 15.1782C35.1171 15.1803 35.1178 15.1817 35.1178 15.1831C34.8714 13.3694 34.3478 11.6439 33.5904 10.0507C33.6821 10.5778 33.7423 11.1637 33.7822 11.8455C33.8872 13.6298 33.2236 16.4193 32.1127 17.9481C31.0872 19.3593 28.7737 20.6907 26.5694 19.5154C25.4053 18.8945 24.1579 16.5208 25.5544 11.5417C26.3097 8.84955 26.6716 5.82135 24.8152 3.25375C23.2542 1.09425 20.3982 0.541947 17.9321 1.21535C14.8479 2.05745 13.1364 4.49135 12.435 7.51045C11.9359 9.65595 12.2684 11.8294 13.1217 13.8846C14.5826 17.4035 16.5237 18.5046 16.5881 21.5587C16.6091 22.5639 16.5328 24.5673 18.0609 24.421C19.5078 24.2824 19.3286 22.6395 19.0136 21.6224C18.525 20.0432 17.2475 18.7076 16.0491 16.651C15.1517 15.1117 14.5574 13.9847 14.43 12.2655C14.2984 10.4812 14.7863 8.52895 15.8272 6.96865C16.7925 5.52175 18.8666 4.15605 20.9869 5.14935C21.7597 5.51125 22.2315 6.18045 22.4534 6.90215C23.1485 9.16735 22.2462 11.3807 22.0194 14.1653C21.6414 18.8021 24.7683 25.163 30.782 22.2188C32.714 21.2745 34.2253 18.8014 34.8679 16.5061Z" fill="black"/>
</g>
<defs>
<clipPath id="clip0_1931_9054">
<rect width="35" height="35" fill="white" transform="translate(0.27832 0.0605469)"/>
</clipPath>
</defs>
</svg>
