<svg width="56" height="29" viewBox="0 0 56 29" fill="none" xmlns="http://www.w3.org/2000/svg">
<g clip-path="url(#clip0_2165_3599)">
<path d="M35.9967 11.1776C35.8989 10.3519 35.5023 9.71086 34.8069 9.25458C34.1116 8.79822 33.2587 8.57005 32.2483 8.57005C31.5095 8.57005 30.863 8.68957 30.3089 8.92859C29.7602 9.16766 29.331 9.49632 29.0214 9.91455C28.7172 10.3329 28.5651 10.8083 28.5651 11.3406C28.5651 11.786 28.671 12.1691 28.8829 12.4896C29.1002 12.8046 29.3772 13.0681 29.7141 13.28C30.0509 13.4865 30.404 13.6575 30.7733 13.7933C31.1428 13.9237 31.4823 14.0297 31.7919 14.1111L33.4869 14.5675C33.9215 14.6815 34.405 14.8391 34.9373 15.0401C35.4752 15.2411 35.9885 15.5154 36.4775 15.8631C36.9718 16.2054 37.3792 16.6454 37.6998 17.1832C38.0202 17.721 38.1805 18.3811 38.1805 19.1633C38.1805 20.0651 37.9442 20.88 37.4716 21.608C37.0044 22.3359 36.3199 22.9145 35.4181 23.3437C34.5217 23.7728 33.4325 23.9874 32.1505 23.9874C30.9553 23.9874 29.9205 23.7945 29.0458 23.4088C28.1766 23.0231 27.4921 22.4853 26.9924 21.7954C26.498 21.1055 26.2182 20.3042 26.1531 19.3915H28.2391C28.2934 20.0217 28.5053 20.5432 28.8747 20.9561C29.2496 21.3635 29.7221 21.6677 30.2926 21.8687C30.8684 22.0642 31.4877 22.1621 32.1505 22.1621C32.9219 22.1621 33.6145 22.0371 34.2284 21.7872C34.8423 21.5319 35.3284 21.1788 35.687 20.7279C36.0456 20.2716 36.2248 19.7392 36.2248 19.1307C36.2248 18.5767 36.07 18.1257 35.7604 17.7781C35.4507 17.4304 35.0432 17.1479 34.5381 16.9306C34.0328 16.7133 33.4869 16.5232 32.9002 16.3602L30.8467 15.7735C29.5429 15.3987 28.5107 14.8636 27.7502 14.1682C26.9896 13.4729 26.6094 12.5629 26.6094 11.4384C26.6094 10.504 26.862 9.68917 27.3672 8.99378C27.8778 8.293 28.5623 7.74975 29.4207 7.36405C30.2844 6.97291 31.2487 6.77734 32.3135 6.77734C33.389 6.77734 34.3452 6.97019 35.1818 7.3559C36.0184 7.73617 36.6812 8.25769 37.1701 8.92044C37.6645 9.58323 37.9252 10.3356 37.9523 11.1776H35.9967Z" fill="#A0A0A0"/>
<path d="M47.7539 18.5748V11.1758H49.677V23.6922H47.7539V21.5735H47.6235C47.3302 22.2091 46.8738 22.7497 46.2545 23.1951C45.6352 23.6351 44.8529 23.8552 43.9077 23.8552C43.1254 23.8552 42.4301 23.6841 41.8216 23.3418C41.2132 22.9942 40.7351 22.4726 40.3875 21.7772C40.0398 21.0764 39.866 20.1937 39.866 19.1289V11.1758H41.789V18.9985C41.789 19.9112 42.0443 20.6391 42.555 21.1824C43.0711 21.7257 43.7284 21.9973 44.527 21.9973C45.0051 21.9973 45.4913 21.8751 45.9856 21.6306C46.4854 21.3861 46.9037 21.0113 47.2405 20.5061C47.5827 20.0008 47.7539 19.3571 47.7539 18.5748Z" fill="#A0A0A0"/>
<path d="M51.8218 23.6944V11.178H53.7448V23.6944H51.8218ZM52.7997 9.09195C52.4248 9.09195 52.1016 8.96429 51.83 8.70896C51.5637 8.45364 51.4307 8.14671 51.4307 7.78816C51.4307 7.42962 51.5637 7.12269 51.83 6.86736C52.1016 6.61203 52.4248 6.48438 52.7997 6.48438C53.1744 6.48438 53.495 6.61203 53.7612 6.86736C54.0328 7.12269 54.1686 7.42962 54.1686 7.78816C54.1686 8.14671 54.0328 8.45364 53.7612 8.70896C53.495 8.96429 53.1744 9.09195 52.7997 9.09195Z" fill="#A0A0A0"/>
<path fill-rule="evenodd" clip-rule="evenodd" d="M35.8677 11.3203L35.8528 11.1938C35.7599 10.4101 35.3868 9.80681 34.7268 9.37373C34.0594 8.93574 33.2353 8.71273 32.2468 8.71273C31.5233 8.71273 30.8971 8.82975 30.3644 9.05945C29.8356 9.28983 29.4281 9.60373 29.1356 9.99869C28.8499 10.3916 28.707 10.837 28.707 11.3399C28.707 11.7612 28.8068 12.1153 29.0002 12.4086C29.2058 12.7063 29.468 12.9559 29.7882 13.1574C30.1166 13.3585 30.4606 13.5254 30.8205 13.6577C31.1867 13.7869 31.5221 13.8915 31.8269 13.9718L33.5218 14.428C33.5217 14.428 33.5219 14.428 33.5218 14.428C33.9622 14.5437 34.4507 14.7029 34.9863 14.9051C35.536 15.1106 36.06 15.3907 36.5584 15.745C37.0699 16.0993 37.491 16.5546 37.8214 17.1091C38.1582 17.674 38.3224 18.3609 38.3224 19.1626C38.3224 20.0908 38.0788 20.9329 37.5906 21.6849C37.107 22.4385 36.4004 23.0335 35.4786 23.4722C34.5581 23.913 33.4465 24.1301 32.149 24.1301C30.9387 24.1301 29.8833 23.9348 28.9865 23.5393C28.0969 23.1446 27.3911 22.5915 26.8747 21.8787C26.3638 21.1656 26.0754 20.3379 26.0085 19.401L25.9976 19.2474H28.3692L28.3805 19.3785C28.4325 19.9819 28.6341 20.4726 28.9795 20.859C29.3367 21.247 29.7884 21.5386 30.338 21.7324C30.8975 21.9224 31.5009 22.0179 32.149 22.0179C32.9046 22.0179 33.5783 21.8956 34.1722 21.654C34.7669 21.4065 35.2319 21.0671 35.5731 20.6381C35.9106 20.2085 36.08 19.7078 36.08 19.1301C36.08 18.604 35.9338 18.1893 35.6518 17.8727C35.3584 17.5433 34.9693 17.2722 34.4799 17.0616C33.9812 16.8472 33.4414 16.6591 32.8603 16.4976L32.8593 16.4974L30.8058 15.9106C29.4872 15.5315 28.4331 14.9876 27.6519 14.2733C26.8588 13.5481 26.4645 12.5983 26.4645 11.4376C26.4645 10.4758 26.7251 9.63075 27.2497 8.90875C27.7763 8.18616 28.4812 7.62761 29.3603 7.23259C30.2447 6.8321 31.2294 6.63319 32.312 6.63319C33.4048 6.63319 34.3818 6.82914 35.24 7.22476C36.096 7.61389 36.7789 8.14989 37.2838 8.8343C37.7959 9.52099 38.0661 10.3017 38.0942 11.1723L38.099 11.3203H35.8677ZM37.1686 8.91971C36.6797 8.25696 36.017 7.73544 35.1803 7.35517C34.3437 6.96946 33.3876 6.77661 32.312 6.77661C31.2472 6.77661 30.2829 6.97218 29.4192 7.36332C28.5608 7.74902 27.8764 8.29227 27.3658 8.99305C26.8605 9.68843 26.6079 10.5033 26.6079 11.4376C26.6079 12.5621 26.9881 13.4721 27.7487 14.1675C28.5093 14.8628 29.5415 15.3979 30.8452 15.7728L32.8987 16.3594C33.4854 16.5224 34.0313 16.7126 34.5366 16.9299C35.0418 17.1472 35.4492 17.4296 35.7589 17.7773C36.0685 18.125 36.2233 18.5759 36.2233 19.1301C36.2233 19.7385 36.0441 20.2708 35.6855 20.7272C35.327 21.1781 34.8408 21.5312 34.227 21.7865C33.613 22.0364 32.9204 22.1614 32.149 22.1614C31.4863 22.1614 30.8669 22.0636 30.2911 21.868C29.7207 21.667 29.2481 21.3627 28.8732 20.9553C28.5039 20.5424 28.292 20.0209 28.2376 19.3908H26.1516C26.155 19.4389 26.159 19.4867 26.1637 19.5342C26.2468 20.3876 26.5226 21.1411 26.9909 21.7947C27.4907 22.4846 28.1751 23.0224 29.0444 23.4081C29.919 23.7938 30.9538 23.9866 32.149 23.9866C33.4311 23.9866 34.5202 23.7721 35.4166 23.3429C36.3184 22.9138 37.0029 22.3352 37.4701 21.6072C37.9427 20.8793 38.1791 20.0644 38.1791 19.1626C38.1791 18.3803 38.0188 17.7203 37.6983 17.1825C37.3778 16.6446 36.9703 16.2046 36.476 15.8624C35.987 15.5147 35.4737 15.2403 34.9359 15.0394C34.4035 14.8384 33.92 14.6808 33.4854 14.5668L31.7905 14.1104C31.4809 14.0289 31.1413 13.923 30.7719 13.7926C30.4025 13.6568 30.0494 13.4857 29.7126 13.2793C29.3757 13.0674 29.0987 12.8039 28.8814 12.4888C28.6695 12.1684 28.5636 11.7853 28.5636 11.3399C28.5636 10.8075 28.7157 10.3321 29.02 9.91381C29.3296 9.49557 29.7588 9.16692 30.3074 8.92786C30.8615 8.68884 31.508 8.56932 32.2468 8.56932C33.2573 8.56932 34.1101 8.79748 34.8055 9.25384C35.5009 9.71011 35.8974 10.3512 35.9952 11.1769H37.9508C37.9493 11.1288 37.947 11.081 37.9439 11.0335C37.8932 10.2492 37.6347 9.54463 37.1686 8.91971ZM47.6086 11.0335H49.8185V23.8367H47.6086V21.9157C47.3064 22.455 46.8814 22.9206 46.3364 23.3126C45.6874 23.7737 44.8735 23.9997 43.9059 23.9997C43.102 23.9997 42.3819 23.8236 41.7495 23.4679L41.7487 23.4674C41.1129 23.1042 40.6162 22.5603 40.2574 21.8425C39.8969 21.116 39.7207 20.2093 39.7207 19.1301V11.0335H41.9306V18.9997C41.9306 19.8842 42.1773 20.574 42.6574 21.0849C43.1444 21.5975 43.7632 21.8549 44.5252 21.8549C44.978 21.8549 45.4426 21.7393 45.9202 21.5031C46.3951 21.2708 46.7953 20.9137 47.1194 20.4276L47.1199 20.4267C47.4422 19.9512 47.6086 19.3376 47.6086 18.5759V11.0335ZM42.5531 21.1835C42.0426 20.6403 41.7872 19.9123 41.7872 18.9997V11.1769H39.8641V19.1301C39.8641 20.1948 40.0379 21.0775 40.3856 21.7783C40.7333 22.4737 41.2113 22.9953 41.8198 23.3429C42.4283 23.6852 43.1236 23.8563 43.9059 23.8563C44.8511 23.8563 45.6334 23.6362 46.2527 23.1962C46.8629 22.7573 47.3149 22.2261 47.6086 21.6026C47.613 21.5933 47.6173 21.5839 47.6217 21.5746H47.7521V23.6933H49.6751V11.1769H47.7521V18.5759C47.7521 19.3582 47.5809 20.0019 47.2386 20.5072C46.9019 21.0124 46.4836 21.3872 45.9837 21.6317C45.4894 21.8762 45.0032 21.9984 44.5252 21.9984C43.7266 21.9984 43.0692 21.7268 42.5531 21.1835ZM51.6771 23.8367V11.0335H53.8871V23.8367H51.6771ZM51.7306 8.81234L51.7295 8.81136C51.436 8.52985 51.286 8.18591 51.286 7.78705C51.286 7.38818 51.436 7.04424 51.7295 6.76274L51.7306 6.76174C52.0289 6.48127 52.3873 6.33984 52.7985 6.33984C53.2094 6.33984 53.5655 6.4812 53.8588 6.7623C54.1576 7.04342 54.3108 7.38746 54.3108 7.78705C54.3108 8.18665 54.1576 8.53069 53.8588 8.81182C53.5655 9.09291 53.2094 9.23429 52.7985 9.23429C52.3873 9.23429 52.0289 9.09283 51.7306 8.81234ZM53.76 8.70785C54.0316 8.45252 54.1675 8.14559 54.1675 7.78705C54.1675 7.42851 54.0316 7.12157 53.76 6.86624C53.4938 6.61092 53.1733 6.48326 52.7985 6.48326C52.4236 6.48326 52.1004 6.61092 51.8288 6.86624C51.5626 7.12157 51.4294 7.42851 51.4294 7.78705C51.4294 8.14559 51.5626 8.45252 51.8288 8.70785C52.1004 8.96317 52.4236 9.09084 52.7985 9.09084C53.1733 9.09084 53.4938 8.96317 53.76 8.70785ZM51.8206 23.6933H53.7437V11.1769H51.8206V23.6933Z" fill="#A0A0A0"/>
<path fill-rule="evenodd" clip-rule="evenodd" d="M18.2212 11.7863L18.2206 11.7875C19.3499 13.2034 20.0248 14.9968 20.0248 16.9473C20.0248 18.9269 19.3297 20.7446 18.17 22.1702L18.0702 22.2929L18.0437 22.1369C18.0211 22.0042 17.9947 21.8703 17.964 21.7353C17.3835 19.1853 15.4926 16.9986 12.3803 15.2281C10.2787 14.0358 9.07566 12.6 8.75982 10.9688C8.55584 9.914 8.70749 8.8545 9.00057 7.94702C9.29355 7.03983 9.7294 6.27974 10.0997 5.82213L11.3106 4.34144C11.5229 4.08183 11.9202 4.08183 12.1326 4.34144L18.2212 11.7863ZM20.1361 10.3072L12.0215 0.384277C11.8666 0.194824 11.5765 0.194824 11.4216 0.384277L3.30666 10.3067L3.28048 10.3401C1.78718 12.1931 0.893555 14.5479 0.893555 17.1114C0.893555 23.0816 5.7413 27.9217 11.7215 27.9217C17.7018 27.9217 22.5495 23.0816 22.5495 17.1114C22.5495 14.5479 21.6559 12.1931 20.1626 10.3401L20.1361 10.3072ZM5.24831 11.7543L5.97447 10.8664L5.9964 11.0302C6.01378 11.16 6.03485 11.2905 6.05984 11.4215C6.52947 13.8856 8.20715 15.9401 11.012 17.5314C13.4502 18.9191 14.8698 20.5147 15.2788 22.2648C15.4494 22.9952 15.4799 23.7137 15.4059 24.342L15.4014 24.3809L15.3662 24.398C14.2658 24.9356 13.0288 25.2374 11.7213 25.2374C7.13553 25.2374 3.41783 21.5259 3.41783 16.9473C3.41783 14.9816 4.10317 13.1753 5.24831 11.7543Z" fill="#A0A0A0"/>
</g>
<defs>
<clipPath id="clip0_2165_3599">
<rect width="54.2127" height="28.4395" fill="white" transform="translate(0.893555 0.242188)"/>
</clipPath>
</defs>
</svg>
