<svg width="56" height="29" viewBox="0 0 56 29" fill="none" xmlns="http://www.w3.org/2000/svg">
<g clip-path="url(#clip0_1931_8693)">
<path d="M35.9969 11.2753C35.8992 10.4496 35.5025 9.80851 34.8072 9.35224C34.1118 8.89587 33.2589 8.66771 32.2485 8.66771C31.5097 8.66771 30.8632 8.78722 30.3091 9.02625C29.7604 9.26532 29.3313 9.59397 29.0216 10.0122C28.7174 10.4305 28.5653 10.9059 28.5653 11.4383C28.5653 11.8837 28.6713 12.2667 28.8832 12.5872C29.1004 12.9023 29.3775 13.1658 29.7143 13.3777C30.0511 13.5841 30.4042 13.7552 30.7736 13.891C31.143 14.0214 31.4825 14.1273 31.7922 14.2088L33.4871 14.6652C33.9217 14.7792 34.4052 14.9368 34.9376 15.1378C35.4754 15.3387 35.9887 15.6131 36.4777 15.9608C36.972 16.303 37.3794 16.743 37.7 17.2809C38.0205 17.8187 38.1807 18.4787 38.1807 19.261C38.1807 20.1628 37.9444 20.9777 37.4719 21.7056C37.0047 22.4336 36.3202 23.0122 35.4184 23.4413C34.522 23.8705 33.4328 24.085 32.1508 24.085C30.9556 24.085 29.9207 23.8922 29.0461 23.5065C28.1769 23.1208 27.4924 22.583 26.9926 21.8931C26.4982 21.2031 26.2185 20.4019 26.1533 19.4891H28.2394C28.2937 20.1193 28.5055 20.6408 28.875 21.0537C29.2498 21.4611 29.7224 21.7653 30.2929 21.9664C30.8687 22.1619 31.4879 22.2597 32.1508 22.2597C32.9222 22.2597 33.6148 22.1348 34.2286 21.8849C34.8426 21.6295 35.3287 21.2765 35.6873 20.8255C36.0458 20.3692 36.2251 19.8369 36.2251 19.2284C36.2251 18.6743 36.0702 18.2234 35.7606 17.8757C35.451 17.528 35.0435 17.2455 34.5383 17.0282C34.0331 16.8109 33.4871 16.6208 32.9004 16.4578L30.847 15.8712C29.5431 15.4963 28.511 14.9612 27.7505 14.2659C26.9899 13.5705 26.6096 12.6605 26.6096 11.536C26.6096 10.6017 26.8623 9.78683 27.3674 9.09144C27.8781 8.39065 28.5626 7.84741 29.4209 7.46171C30.2847 7.07057 31.249 6.875 32.3137 6.875C33.3893 6.875 34.3455 7.06785 35.182 7.45356C36.0186 7.83383 36.6814 8.35534 37.1703 9.0181C37.6647 9.68089 37.9255 10.4333 37.9526 11.2753H35.9969Z" fill="#A0A0A0"/>
<path d="M47.7542 18.6725V11.2734H49.6772V23.7898H47.7542V21.6712H47.6238C47.3304 22.3068 46.874 22.8473 46.2548 23.2928C45.6354 23.7328 44.8532 23.9528 43.9079 23.9528C43.1256 23.9528 42.4303 23.7817 41.8219 23.4395C41.2134 23.0918 40.7354 22.5702 40.3877 21.8749C40.04 21.1741 39.8662 20.2913 39.8662 19.2265V11.2734H41.7893V19.0962C41.7893 20.0089 42.0446 20.7368 42.5552 21.28C43.0713 21.8233 43.7286 22.0949 44.5273 22.0949C45.0053 22.0949 45.4915 21.9727 45.9858 21.7282C46.4857 21.4837 46.9039 21.109 47.2407 20.6037C47.583 20.0985 47.7542 19.4548 47.7542 18.6725Z" fill="#A0A0A0"/>
<path d="M51.8218 23.7901V11.2737H53.7448V23.7901H51.8218ZM52.7997 9.18766C52.4248 9.18766 52.1016 9.05999 51.83 8.80467C51.5637 8.54934 51.4307 8.24241 51.4307 7.88387C51.4307 7.52533 51.5637 7.21839 51.83 6.96306C52.1016 6.70774 52.4248 6.58008 52.7997 6.58008C53.1744 6.58008 53.495 6.70774 53.7612 6.96306C54.0328 7.21839 54.1686 7.52533 54.1686 7.88387C54.1686 8.24241 54.0328 8.54934 53.7612 8.80467C53.495 9.05999 53.1744 9.18766 52.7997 9.18766Z" fill="#A0A0A0"/>
<path fill-rule="evenodd" clip-rule="evenodd" d="M35.8682 11.416L35.8533 11.2895C35.7604 10.5058 35.3872 9.90251 34.7273 9.46943C34.0599 9.03145 33.2358 8.80844 32.2473 8.80844C31.5238 8.80844 30.8975 8.92546 30.3649 9.15515C29.8361 9.38554 29.4286 9.69944 29.1361 10.0944C28.8504 10.4873 28.7075 10.9327 28.7075 11.4356C28.7075 11.8569 28.8072 12.211 29.0007 12.5043C29.2063 12.802 29.4685 13.0516 29.7887 13.2531C30.1171 13.4542 30.4611 13.6211 30.821 13.7534C31.1872 13.8826 31.5226 13.9872 31.8274 14.0675L33.5223 14.5237C33.5222 14.5237 33.5224 14.5237 33.5223 14.5237C33.9627 14.6394 34.4511 14.7986 34.9868 15.0008C35.5365 15.2063 36.0605 15.4864 36.5589 15.8407C37.0704 16.195 37.4915 16.6503 37.8219 17.2048C38.1587 17.7697 38.3229 18.4566 38.3229 19.2583C38.3229 20.1865 38.0793 21.0286 37.5911 21.7806C37.1075 22.5342 36.4009 23.1292 35.479 23.5679C34.5586 24.0087 33.447 24.2258 32.1495 24.2258C30.9392 24.2258 29.8838 24.0305 28.9869 23.635C28.0974 23.2404 27.3916 22.6872 26.8752 21.9744C26.3643 21.2613 26.0759 20.4336 26.009 19.4967L25.998 19.3431H28.3697L28.381 19.4742C28.433 20.0776 28.6346 20.5683 28.98 20.9547C29.3372 21.3427 29.7888 21.6343 30.3385 21.8282C30.898 22.0181 31.5013 22.1136 32.1495 22.1136C32.9051 22.1136 33.5788 21.9913 34.1727 21.7497C34.7674 21.5023 35.2324 21.1628 35.5736 20.7338C35.9111 20.3042 36.0805 19.8035 36.0805 19.2258C36.0805 18.6997 35.9343 18.285 35.6523 17.9684C35.3589 17.639 34.9698 17.3679 34.4804 17.1573C33.9817 16.9429 33.4419 16.7548 32.8608 16.5933L32.8598 16.5931L30.8063 16.0063C29.4877 15.6272 28.4336 15.0833 27.6524 14.369C26.8593 13.6438 26.465 12.694 26.465 11.5333C26.465 10.5715 26.7256 9.72645 27.2502 9.00446C27.7768 8.28186 28.4817 7.72331 29.3607 7.32829C30.2452 6.92781 31.2299 6.72889 32.3125 6.72889C33.4053 6.72889 34.3823 6.92485 35.2405 7.32047C36.0965 7.70959 36.7794 8.24559 37.2843 8.93C37.7964 9.6167 38.0666 10.3974 38.0947 11.268L38.0995 11.416H35.8682ZM37.1691 9.01541C36.6802 8.35266 36.0174 7.83114 35.1808 7.45087C34.3442 7.06516 33.3881 6.87231 32.3125 6.87231C31.2477 6.87231 30.2834 7.06788 29.4197 7.45902C28.5613 7.84472 27.8769 8.38797 27.3663 9.08875C26.861 9.78413 26.6084 10.599 26.6084 11.5333C26.6084 12.6579 26.9886 13.5678 27.7492 14.2632C28.5098 14.9585 29.542 15.4936 30.8457 15.8685L32.8991 16.4551C33.4859 16.6181 34.0318 16.8083 34.5371 17.0256C35.0423 17.2429 35.4497 17.5254 35.7594 17.873C36.069 18.2207 36.2238 18.6716 36.2238 19.2258C36.2238 19.8342 36.0445 20.3665 35.686 20.8229C35.3275 21.2738 34.8413 21.6269 34.2274 21.8822C33.6135 22.1321 32.9209 22.2571 32.1495 22.2571C31.4868 22.2571 30.8674 22.1593 30.2916 21.9637C29.7212 21.7627 29.2486 21.4584 28.8737 21.051C28.5044 20.6381 28.2925 20.1166 28.2381 19.4865H26.1521C26.1555 19.5346 26.1595 19.5824 26.1642 19.6299C26.2473 20.4833 26.5231 21.2368 26.9914 21.8904C27.4912 22.5803 28.1756 23.1181 29.0449 23.5038C29.9195 23.8895 30.9543 24.0823 32.1495 24.0823C33.4316 24.0823 34.5207 23.8678 35.4171 23.4386C36.3189 23.0095 37.0034 22.4309 37.4706 21.7029C37.9432 20.975 38.1796 20.1601 38.1796 19.2583C38.1796 18.476 38.0193 17.816 37.6987 17.2782C37.3783 16.7403 36.9708 16.3003 36.4765 15.9581C35.9875 15.6104 35.4742 15.336 34.9364 15.1351C34.404 14.9341 33.9205 14.7765 33.4859 14.6625L31.791 14.2061C31.4814 14.1246 31.1418 14.0187 30.7724 13.8883C30.403 13.7525 30.0499 13.5814 29.713 13.375C29.3762 13.1631 29.0992 12.8996 28.8819 12.5845C28.67 12.2641 28.5641 11.881 28.5641 11.4356C28.5641 10.9032 28.7161 10.4278 29.0205 10.0095C29.3301 9.59128 29.7593 9.26262 30.3079 9.02356C30.862 8.78454 31.5085 8.66502 32.2473 8.66502C33.2577 8.66502 34.1106 8.89319 34.806 9.34954C35.5014 9.80582 35.8979 10.4469 35.9957 11.2726H37.9513C37.9498 11.2245 37.9475 11.1767 37.9444 11.1292C37.8936 10.3449 37.6352 9.64034 37.1691 9.01541ZM47.6091 11.1292H49.819V23.9324H47.6091V22.0114C47.3069 22.5507 46.8819 23.0163 46.3369 23.4083C45.6879 23.8694 44.874 24.0954 43.9064 24.0954C43.1025 24.0954 42.3824 23.9193 41.7499 23.5636L41.7491 23.5631C41.1134 23.1999 40.6167 22.656 40.2579 21.9382C39.8974 21.2117 39.7212 20.305 39.7212 19.2258V11.1292H41.9311V19.0954C41.9311 19.9799 42.1778 20.6697 42.6579 21.1806C43.1449 21.6932 43.7636 21.9506 44.5256 21.9506C44.9785 21.9506 45.4431 21.835 45.9207 21.5988C46.3956 21.3665 46.7958 21.0094 47.1198 20.5233L47.1204 20.5224C47.4426 20.0469 47.6091 19.4333 47.6091 18.6716V11.1292ZM42.5536 21.2792C42.0431 20.736 41.7877 20.008 41.7877 19.0954V11.2726H39.8646V19.2258C39.8646 20.2905 40.0384 21.1732 40.3861 21.874C40.7338 22.5694 41.2118 23.091 41.8202 23.4386C42.4288 23.7809 43.1241 23.952 43.9064 23.952C44.8516 23.952 45.6339 23.7319 46.2532 23.2919C46.8634 22.853 47.3154 22.3218 47.6091 21.6983C47.6135 21.689 47.6178 21.6796 47.6222 21.6703H47.7525V23.789H49.6756V11.2726H47.7525V18.6716C47.7525 19.4539 47.5814 20.0976 47.2391 20.6029C46.9024 21.1081 46.4841 21.4829 45.9842 21.7274C45.4899 21.9719 45.0037 22.0941 44.5256 22.0941C43.7271 22.0941 43.0697 21.8225 42.5536 21.2792ZM51.6776 23.9324V11.1292H53.8876V23.9324H51.6776ZM51.731 8.90805L51.73 8.90706C51.4365 8.62555 51.2865 8.28161 51.2865 7.88275C51.2865 7.48389 51.4365 7.13994 51.73 6.85844L51.731 6.85745C52.0294 6.57697 52.3878 6.43555 52.7989 6.43555C53.2099 6.43555 53.566 6.5769 53.8593 6.85801C54.1581 7.13912 54.3113 7.48316 54.3113 7.88275C54.3113 8.28235 54.1581 8.6264 53.8593 8.90752C53.566 9.18861 53.2099 9.32999 52.7989 9.32999C52.3878 9.32999 52.0294 9.18853 51.731 8.90805ZM53.7605 8.80355C54.0321 8.54823 54.1679 8.24129 54.1679 7.88275C54.1679 7.52421 54.0321 7.21728 53.7605 6.96194C53.4943 6.70662 53.1738 6.57896 52.7989 6.57896C52.4241 6.57896 52.1008 6.70662 51.8292 6.96194C51.5631 7.21728 51.4299 7.52421 51.4299 7.88275C51.4299 8.24129 51.5631 8.54823 51.8292 8.80355C52.1008 9.05887 52.4241 9.18654 52.7989 9.18654C53.1738 9.18654 53.4943 9.05887 53.7605 8.80355ZM51.8211 23.789H53.7442V11.2726H51.8211V23.789Z" fill="#A0A0A0"/>
<path fill-rule="evenodd" clip-rule="evenodd" d="M18.2212 11.884L18.2206 11.8851C19.3499 13.301 20.0248 15.0944 20.0248 17.045C20.0248 19.0246 19.3297 20.8423 18.17 22.2678L18.0702 22.3906L18.0437 22.2346C18.0211 22.1019 17.9947 21.968 17.964 21.833C17.3835 19.2829 15.4926 17.0963 12.3803 15.3257C10.2787 14.1334 9.07566 12.6977 8.75982 11.0665C8.55584 10.0117 8.70749 8.95216 9.00057 8.04468C9.29355 7.13749 9.7294 6.3774 10.0997 5.91979L11.3106 4.4391C11.5229 4.17948 11.9202 4.17948 12.1326 4.4391L18.2212 11.884ZM20.1361 10.4048L12.0215 0.481934C11.8666 0.292481 11.5765 0.29248 11.4216 0.481934L3.30666 10.4044L3.28048 10.4377C1.78718 12.2907 0.893555 14.6456 0.893555 17.2091C0.893555 23.1793 5.7413 28.0193 11.7215 28.0193C17.7018 28.0193 22.5495 23.1793 22.5495 17.2091C22.5495 14.6456 21.6559 12.2907 20.1626 10.4377L20.1361 10.4048ZM5.24831 11.852L5.97447 10.964L5.9964 11.1278C6.01378 11.2577 6.03485 11.3881 6.05984 11.5191C6.52947 13.9832 8.20715 16.0378 11.012 17.6291C13.4502 19.0167 14.8698 20.6124 15.2788 22.3625C15.4494 23.0928 15.4799 23.8114 15.4059 24.4396L15.4014 24.4785L15.3662 24.4957C14.2658 25.0333 13.0288 25.335 11.7213 25.335C7.13553 25.335 3.41783 21.6236 3.41783 17.045C3.41783 15.0792 4.10317 13.273 5.24831 11.852Z" fill="#A0A0A0"/>
</g>
<defs>
<clipPath id="clip0_1931_8693">
<rect width="54.2127" height="28.4395" fill="white" transform="translate(0.893555 0.339844)"/>
</clipPath>
</defs>
</svg>
