<svg width="30" height="31" viewBox="0 0 30 31" fill="none" xmlns="http://www.w3.org/2000/svg">
<g clip-path="url(#clip0_2256_2808)">
<path d="M15 30.4609C23.2843 30.4609 30 23.7452 30 15.4609C30 7.17667 23.2843 0.460938 15 0.460938C6.71573 0.460938 0 7.17667 0 15.4609C0 23.7452 6.71573 30.4609 15 30.4609Z" fill="#D642DB"/>
<path d="M23.308 9.42578V11.2718H21.4635C20.4433 11.2718 19.6159 12.0993 19.6159 13.1193V22.348H17.7699V11.2718H15.9239V24.194H14.0778V11.2718H12.2318V22.348H10.3858V13.1193C10.3858 12.0993 9.55829 11.2718 8.53816 11.2718H6.69373V9.42578H23.308Z" fill="white"/>
</g>
<defs>
<clipPath id="clip0_2256_2808">
<rect width="30" height="30" fill="white" transform="translate(0 0.460938)"/>
</clipPath>
</defs>
</svg>
