<svg width="66" height="16" viewBox="0 0 66 16" fill="none" xmlns="http://www.w3.org/2000/svg">
<g clip-path="url(#clip0_1931_8864)">
<path d="M13.7455 0.121094H1.14642C0.513268 0.121094 0 0.634362 0 1.26751V13.8666C0 14.4998 0.513268 15.013 1.14642 15.013H13.7455C14.3787 15.013 14.892 14.4998 14.892 13.8666V1.26751C14.892 0.634362 14.3787 0.121094 13.7455 0.121094Z" fill="#A0A0A0"/>
<path d="M12.6011 3.31836V4.46382H11.4566C10.8237 4.46382 10.3102 4.97727 10.3102 5.61024V11.3366H9.16475V4.46382H8.01929V12.482H6.87384V4.46382H5.72838V11.3366H4.58291V5.61024C4.58291 4.97727 4.06946 4.46382 3.43649 4.46382H2.29199V3.31836H12.6011Z" fill="#141414"/>
<path d="M21.3314 3.84492H18.2842V2.07031H26.2785V3.84492H23.2313V13.0641H21.3314V3.84492Z" fill="#A0A0A0"/>
<path d="M27.2969 2.07031H29.1977V6.59383H34.0511V2.07031H35.951V13.0641H34.0511V8.36843H29.1977V13.0641H27.2969V2.07031Z" fill="#A0A0A0"/>
<path d="M37.6328 2.07031H44.2761V3.84492H39.5327V6.59286H43.6164V8.35219H39.5327V11.2895H44.4329V13.0641H37.6328V2.07031Z" fill="#A0A0A0"/>
<path d="M45.6904 2.07031H48.8944L52.4436 11.211H52.5689V2.07031H54.4535V13.0641H51.2179L47.7318 3.93957H47.5903V13.0641H45.6895V2.07031H45.6904Z" fill="#A0A0A0"/>
<path d="M62.8138 10.7081H58.0553L57.254 13.0641H55.291L59.1385 2.07031H61.8083L65.6242 13.0641H63.614L62.8132 10.7081H62.8138ZM62.2176 8.96506L60.5057 3.93958H60.3491L58.6378 8.96506H62.2182H62.2176Z" fill="#A0A0A0"/>
</g>
<defs>
<clipPath id="clip0_1931_8864">
<rect width="65.6751" height="14.9184" fill="white" transform="translate(0 0.101562)"/>
</clipPath>
</defs>
</svg>
