<svg width="66" height="15" viewBox="0 0 66 15" fill="none" xmlns="http://www.w3.org/2000/svg">
<g clip-path="url(#clip0_2165_3770)">
<path d="M13.7453 0.0195312H1.14617C0.513024 0.0195312 -0.000244141 0.532799 -0.000244141 1.16595V13.7651C-0.000244141 14.3982 0.513024 14.9115 1.14617 14.9115H13.7453C14.3784 14.9115 14.8917 14.3982 14.8917 13.7651V1.16595C14.8917 0.532799 14.3784 0.0195312 13.7453 0.0195312Z" fill="#A0A0A0"/>
<path d="M12.6009 3.21484V4.36031H11.4564C10.8234 4.36031 10.31 4.87376 10.31 5.50672V11.2331H9.16451V4.36031H8.01905V12.3785H6.87359V4.36031H5.72814V11.2331H4.58267V5.50672C4.58267 4.87376 4.06922 4.36031 3.43625 4.36031H2.29175V3.21484H12.6009Z" fill="#141414"/>
<path d="M21.3312 3.74336H18.2839V1.96875H26.2783V3.74336H23.2311V12.9625H21.3312V3.74336Z" fill="#A0A0A0"/>
<path d="M27.2966 1.96875H29.1974V6.49226H34.0508V1.96875H35.9507V12.9625H34.0508V8.26687H29.1974V12.9625H27.2966V1.96875Z" fill="#A0A0A0"/>
<path d="M37.6326 1.96875H44.2759V3.74336H39.5325V6.49129H43.6162V8.25063H39.5325V11.1879H44.4327V12.9625H37.6326V1.96875Z" fill="#A0A0A0"/>
<path d="M45.6902 1.96875H48.8942L52.4434 11.1095H52.5686V1.96875H54.4532V12.9625H51.2176L47.7315 3.83801H47.59V12.9625H45.6892V1.96875H45.6902Z" fill="#A0A0A0"/>
<path d="M62.8135 10.6065H58.0551L57.2537 12.9625H55.2908L59.1382 1.96875H61.8081L65.624 12.9625H63.6137L62.8129 10.6065H62.8135ZM62.2174 8.8635L60.5055 3.83802H60.3488L58.6375 8.8635H62.2179H62.2174Z" fill="#A0A0A0"/>
</g>
<defs>
<clipPath id="clip0_2165_3770">
<rect width="65.6751" height="14.9184" fill="white"/>
</clipPath>
</defs>
</svg>
