<svg width="112" height="13" viewBox="0 0 112 13" fill="none" xmlns="http://www.w3.org/2000/svg">
<g clip-path="url(#clip0_1931_8334)">
<path fill-rule="evenodd" clip-rule="evenodd" d="M12.1675 1.16717L11.4482 11.7515C11.4429 11.7568 11.4376 11.762 11.4324 11.7673C11.3997 12.0179 11.3091 12.2254 11.1554 12.3781C10.4624 13.0711 8.67411 12.4856 6.63518 11.048L7.14386 10.5382C7.65991 10.8974 8.1549 11.1944 8.61092 11.424C9.22702 11.7336 9.7357 11.9 10.1138 11.9463C10.5024 11.9937 10.6256 11.9032 10.653 11.8758C10.6804 11.8484 10.771 11.7262 10.7225 11.3365C10.6762 10.9585 10.5098 10.4487 10.2001 9.83368C9.61985 8.68046 8.6046 7.28186 7.26603 5.90116L1.11448 12.0559L1.23243 10.9353L6.76577 5.40196C5.38507 4.06338 3.98752 3.04813 2.83325 2.46783C2.21715 2.1582 1.70847 1.9918 1.33038 1.94546C0.94176 1.89807 0.81854 1.98864 0.791157 2.01602C0.763775 2.04341 0.673203 2.16557 0.720595 2.55525C0.766934 2.93333 0.933335 3.44201 1.24297 4.05811C1.47256 4.51414 1.76955 5.00912 2.12868 5.52518L1.62 6.03386C0.182427 3.99598 -0.403134 2.2077 0.28985 1.51366C0.443612 1.3599 0.650033 1.26933 0.90174 1.23668C0.907006 1.23142 0.912271 1.22615 0.916484 1.22088L11.5019 0.501571L12.2159 0.453125L12.1675 1.16717ZM7.64201 1.4747L10.9152 1.25248L9.37341 2.79431C8.75099 2.20243 8.14331 1.7738 7.64201 1.4747ZM6.26236 1.56843L3.05547 1.78643C4.31084 2.39938 5.80844 3.48519 7.26708 4.90065L8.87105 3.29562C8.19913 2.65846 7.54827 2.2256 7.05013 1.94757C6.7742 1.79381 6.54566 1.68744 6.38874 1.62003C6.33924 1.59897 6.29711 1.58212 6.26236 1.56843ZM9.36815 3.80114L7.76733 5.4009C9.18279 6.85954 10.2686 8.35819 10.8815 9.61357L11.1069 6.30452C11.0922 6.27187 11.0732 6.23185 11.0501 6.18656C10.9753 6.03491 10.8584 5.8148 10.6941 5.54624C10.4066 5.07653 9.97477 4.45937 9.36815 3.8022V3.80114ZM9.86946 3.29983C10.4561 3.93279 10.8889 4.53204 11.1943 5.01334L11.4155 1.75273L9.8684 3.29983H9.86946ZM4.08546 5.23977L1.71584 7.60939L1.59788 8.72996L4.76054 5.5673L4.08546 5.23977ZM7.10068 7.90744L3.94118 11.0659L5.06175 10.9479L7.4735 8.53618L7.09963 7.90639L7.10068 7.90744Z" fill="#D9D9D9"/>
<path fill-rule="evenodd" clip-rule="evenodd" d="M12.1675 1.16717L11.4482 11.7515C11.4429 11.7568 11.4376 11.762 11.4324 11.7673C11.3997 12.0179 11.3091 12.2254 11.1554 12.3781C10.4624 13.0711 8.67411 12.4856 6.63518 11.048L7.14386 10.5382C7.65991 10.8974 8.1549 11.1944 8.61092 11.424C9.22702 11.7336 9.7357 11.9 10.1138 11.9463C10.5024 11.9937 10.6256 11.9032 10.653 11.8758C10.6804 11.8484 10.771 11.7262 10.7225 11.3365C10.6762 10.9585 10.5098 10.4487 10.2001 9.83368C9.61985 8.68046 8.6046 7.28186 7.26603 5.90116L1.11448 12.0559L1.23243 10.9353L6.76577 5.40196C5.38507 4.06338 3.98752 3.04813 2.83325 2.46783C2.21715 2.1582 1.70847 1.9918 1.33038 1.94546C0.94176 1.89807 0.81854 1.98864 0.791157 2.01602C0.763775 2.04341 0.673203 2.16557 0.720595 2.55525C0.766934 2.93333 0.933335 3.44201 1.24297 4.05811C1.47256 4.51414 1.76955 5.00912 2.12868 5.52518L1.62 6.03386C0.182427 3.99598 -0.403134 2.2077 0.28985 1.51366C0.443612 1.3599 0.650033 1.26933 0.90174 1.23668C0.907006 1.23142 0.912271 1.22615 0.916484 1.22088L11.5019 0.501571L12.2159 0.453125L12.1675 1.16717ZM7.64201 1.4747L10.9152 1.25248L9.37341 2.79431C8.75099 2.20243 8.14331 1.7738 7.64201 1.4747ZM6.26236 1.56843L3.05547 1.78643C4.31084 2.39938 5.80844 3.48519 7.26708 4.90065L8.87105 3.29562C8.19913 2.65846 7.54827 2.2256 7.05013 1.94757C6.7742 1.79381 6.54566 1.68744 6.38874 1.62003C6.33924 1.59897 6.29711 1.58212 6.26236 1.56843ZM9.36815 3.80114L7.76733 5.4009C9.18279 6.85954 10.2686 8.35819 10.8815 9.61357L11.1069 6.30452C11.0922 6.27187 11.0732 6.23185 11.0501 6.18656C10.9753 6.03491 10.8584 5.8148 10.6941 5.54624C10.4066 5.07653 9.97477 4.45937 9.36815 3.8022V3.80114ZM9.86946 3.29983C10.4561 3.93279 10.8889 4.53204 11.1943 5.01334L11.4155 1.75273L9.8684 3.29983H9.86946ZM4.08546 5.23977L1.71584 7.60939L1.59788 8.72996L4.76054 5.5673L4.08546 5.23977ZM7.10068 7.90744L3.94118 11.0659L5.06175 10.9479L7.4735 8.53618L7.09963 7.90639L7.10068 7.90744Z" fill="#A0A0A0"/>
<path d="M98.897 11.4466H89.0352V1.58789H98.9012V3.55942H91.1046V5.33295H97.6353V7.35503H91.1067V9.42135H98.897V11.4455V11.4466Z" fill="#A0A0A0"/>
<path d="M111.512 11.4328C111.395 11.4538 111.378 11.4602 111.36 11.4602C110.624 11.457 109.769 11.6845 109.187 11.3833C108.633 11.0968 108.358 10.2616 107.97 9.66134C107.551 9.01364 107.149 8.35542 106.725 7.71193C106.638 7.57923 106.486 7.39703 106.36 7.39493C105.243 7.36965 104.126 7.38018 102.951 7.38018V11.4486H100.92V1.60356C101.123 1.59409 101.31 1.57934 101.495 1.57934C103.757 1.57723 106.018 1.57829 108.281 1.57934C110.112 1.57934 111.323 2.55668 111.526 4.19435C111.712 5.6909 110.733 6.94312 108.966 7.40757C109.811 8.74403 110.646 10.0637 111.512 11.4338V11.4328ZM102.98 5.34125C104.943 5.34125 106.88 5.35073 108.816 5.33388C109.215 5.33072 109.441 5.06954 109.484 4.6588C109.559 3.93843 109.296 3.6288 108.531 3.62354C106.87 3.61195 105.208 3.61932 103.548 3.61932C103.361 3.61932 103.176 3.61932 102.981 3.61932V5.34231L102.98 5.34125Z" fill="#A0A0A0"/>
<path d="M41.1485 1.58676C43.832 1.58676 46.4607 1.5499 49.0883 1.60256C50.4343 1.62889 51.598 2.8137 51.7286 4.10594C51.8803 5.6067 51.042 6.87892 49.636 7.28334C49.5022 7.32231 49.3674 7.35917 49.1821 7.41183C50.0246 8.74198 50.8566 10.0553 51.7497 11.4655C50.9345 11.4655 50.1952 11.4781 49.4569 11.4518C49.3464 11.4476 49.2179 11.2759 49.1399 11.1548C48.4196 10.0353 47.7003 8.9147 47.001 7.78044C46.8145 7.47818 46.605 7.36022 46.2448 7.36865C45.2495 7.39498 44.2532 7.37813 43.1843 7.37813V11.457H41.1475V1.58676H41.1485ZM43.2043 5.35078C45.1653 5.35078 47.0726 5.3571 48.9809 5.34657C49.4117 5.34446 49.6465 5.08749 49.7023 4.6578C49.7908 3.97745 49.5117 3.63306 48.7966 3.62675C47.2548 3.612 45.7119 3.62148 44.17 3.62148C43.8583 3.62148 43.5466 3.62148 43.2053 3.62148V5.35078H43.2043Z" fill="#A0A0A0"/>
<path d="M65.7851 11.4362V9.45313C65.9852 9.45313 66.1685 9.45313 66.3528 9.45313C68.2632 9.45313 70.1747 9.45734 72.0851 9.45102C72.755 9.44892 73.1962 9.1098 73.2731 8.56952C73.3658 7.92183 72.8645 7.38998 72.1188 7.3805C70.9972 7.36786 69.8746 7.3805 68.7529 7.37629C67.0552 7.37102 65.7767 6.1346 65.7725 4.50114C65.7693 2.84135 66.9962 1.58387 68.6971 1.56386C70.7834 1.53963 72.8698 1.55649 74.955 1.55649C75.0561 1.55649 75.1572 1.57123 75.2847 1.58176V3.58699C74.9129 3.58699 74.5664 3.58699 74.221 3.58699C72.4148 3.58699 70.6097 3.58699 68.8035 3.58699C68.3517 3.58699 67.9609 3.68072 67.8451 4.2052C67.6861 4.9203 67.9957 5.34262 68.7287 5.35105C69.8851 5.36579 71.0425 5.35105 72.1999 5.35736C73.9587 5.36474 75.291 6.66118 75.3142 8.37995C75.3373 10.1071 74.0461 11.4531 72.2863 11.4742C70.2358 11.4984 68.1842 11.4773 66.1337 11.4742C66.0315 11.4742 65.9304 11.4531 65.7851 11.4373V11.4362Z" fill="#A0A0A0"/>
<path d="M36.1698 7.39536H29.2189V11.4437H27.2031V1.58398H29.202V5.29956H36.1698V1.58398H38.1982V11.4311H36.1698V7.39536Z" fill="#A0A0A0"/>
<path d="M53.1915 1.57633H55.2188C55.2188 1.78169 55.2188 1.96705 55.2188 2.15241C55.2188 3.41515 55.1988 4.67895 55.2241 5.94065C55.2631 7.82792 56.5521 9.20968 58.4331 9.42031C60.055 9.60251 61.6611 8.46088 62.0749 6.79687C62.1708 6.41141 62.1824 5.99857 62.1866 5.59732C62.1992 4.26927 62.1919 2.94123 62.1919 1.5837H64.1697C64.1939 1.62056 64.2287 1.64899 64.2287 1.67638C64.2076 3.41094 64.3477 5.16657 64.1234 6.87375C63.7484 9.73942 61.1039 11.6846 58.2056 11.455C55.4368 11.236 53.2389 8.86845 53.1946 6.03017C53.1725 4.561 53.1904 3.09078 53.1904 1.57422L53.1915 1.57633Z" fill="#A0A0A0"/>
<path d="M21.4072 11.4365H19.3377V3.6241H15.1377V1.5957H25.5893V3.58198H21.4083V11.4365H21.4072Z" fill="#A0A0A0"/>
<path d="M87.4582 1.59375V3.60109H83.2497V11.4482H81.2045V3.61162H76.9971V1.59375H87.4571H87.4582Z" fill="#A0A0A0"/>
</g>
<defs>
<clipPath id="clip0_1931_8334">
<rect width="111.549" height="12.2167" fill="white" transform="translate(0 0.451172)"/>
</clipPath>
</defs>
</svg>
