<svg width="30" height="31" viewBox="0 0 30 31" fill="none" xmlns="http://www.w3.org/2000/svg">
<g clip-path="url(#clip0_1931_8482)">
<path d="M15 30.5605C23.3125 30.5605 30 23.8731 30 15.5605C30 7.248 23.3125 0.560547 15 0.560547C6.68745 0.560547 0 7.248 0 15.5605C0 23.8731 6.68745 30.5605 15 30.5605Z" fill="#2775CA"/>
<path d="M19.125 17.9355C19.125 15.7481 17.8125 14.9981 15.1875 14.6856C13.3125 14.4356 12.9375 13.9356 12.9375 13.0605C12.9375 12.1854 13.5625 11.6231 14.8125 11.6231C15.9375 11.6231 16.5625 11.9981 16.875 12.9356C16.9375 13.1231 17.125 13.248 17.3125 13.248H18.3124C18.5624 13.248 18.75 13.0605 18.75 12.8106V12.7481C18.4999 11.373 17.3749 10.3106 15.9375 10.1856V8.68565C15.9375 8.4356 15.75 8.2481 15.4375 8.18555H14.5C14.25 8.18555 14.0625 8.37305 13.9999 8.68565V10.1231C12.1249 10.3731 10.9375 11.6231 10.9375 13.1856C10.9375 15.2481 12.1875 16.0605 14.8125 16.3731C16.5625 16.6856 17.125 17.0606 17.125 18.0606C17.125 19.0607 16.2499 19.7481 15.0625 19.7481C13.4374 19.7481 12.8749 19.0605 12.6874 18.123C12.625 17.8731 12.4375 17.748 12.25 17.748H11.1874C10.9375 17.748 10.75 17.9355 10.75 18.1856V18.2481C10.9999 19.8105 12 20.9355 14.0625 21.2481V22.7481C14.0625 22.998 14.25 23.1855 14.5624 23.2481H15.4999C15.7499 23.2481 15.9375 23.0606 16 22.7481V21.2481C17.875 20.9355 19.125 19.623 19.125 17.9355Z" fill="white"/>
<path d="M11.8118 24.4999C6.93677 22.75 4.43672 17.3125 6.24932 12.4999C7.18682 9.8749 9.24931 7.87495 11.8118 6.93745C12.0618 6.8125 12.1868 6.625 12.1868 6.3124V5.43745C12.1868 5.1874 12.0618 4.9999 11.8118 4.9375C11.7492 4.9375 11.6243 4.9375 11.5617 4.9999C5.62427 6.8749 2.37422 13.1875 4.24922 19.1249C5.37422 22.6249 8.06177 25.3125 11.5617 26.4375C11.8118 26.5624 12.0618 26.4375 12.1242 26.1874C12.1868 26.125 12.1868 26.0625 12.1868 25.9375V25.0624C12.1868 24.8749 11.9993 24.625 11.8118 24.4999ZM18.4368 4.9999C18.1868 4.87495 17.9367 4.9999 17.8743 5.24995C17.8118 5.3125 17.8118 5.3749 17.8118 5.5V6.37495C17.8118 6.625 17.9993 6.8749 18.1868 7C23.0618 8.7499 25.5618 14.1874 23.7492 19C22.8117 21.625 20.7492 23.625 18.1868 24.5625C17.9367 24.6874 17.8118 24.8749 17.8118 25.1875V26.0625C17.8118 26.3125 17.9367 26.5 18.1868 26.5624C18.2493 26.5624 18.3743 26.5624 18.4368 26.5C24.3743 24.625 27.6243 18.3124 25.7493 12.3749C24.6243 8.81245 21.8742 6.1249 18.4368 4.9999Z" fill="white"/>
</g>
<defs>
<clipPath id="clip0_1931_8482">
<rect width="30" height="30" fill="white" transform="translate(0 0.560547)"/>
</clipPath>
</defs>
</svg>
