<svg width="109" height="19" viewBox="0 0 109 19" fill="none" xmlns="http://www.w3.org/2000/svg">
<g clip-path="url(#clip0_1931_8519)">
<mask id="mask0_1931_8519" style="mask-type:luminance" maskUnits="userSpaceOnUse" x="0" y="0" width="19" height="19">
<path d="M18.3904 0.681641H0.0917969V18.5393H18.3904V0.681641Z" fill="white"/>
</mask>
<g mask="url(#mask0_1931_8519)">
<path d="M16.8156 14.4716C16.804 14.4803 16.7925 14.4897 16.7802 14.4979C16.7687 14.5068 16.7566 14.5151 16.7445 14.5239C16.7219 14.5398 16.6986 14.5553 16.675 14.5701C16.6723 14.5718 16.6694 14.5735 16.6667 14.5757C16.6474 14.5878 16.6281 14.5999 16.6084 14.6115C16.5791 14.6291 16.5505 14.6457 16.5207 14.6622C16.3189 14.7746 16.1067 14.865 15.8901 14.945C15.6856 15.0199 15.4784 15.0855 15.2695 15.1439C14.9702 15.2278 14.6671 15.2971 14.3612 15.3577C14.0641 15.4173 13.766 15.4674 13.4667 15.5109C13.1674 15.5546 12.867 15.5909 12.5661 15.6223C12.4674 15.6328 12.3687 15.6421 12.2701 15.6515C12.0722 15.6697 11.8744 15.6851 11.6765 15.6984C11.5773 15.705 11.4781 15.7111 11.3794 15.7166C11.1573 15.7293 10.9352 15.7387 10.7131 15.7457C10.6728 15.747 10.6326 15.7486 10.5918 15.7497C10.5549 15.7508 10.518 15.7519 10.4805 15.7529C10.5714 15.6405 10.6623 15.5286 10.7456 15.4102C10.7577 15.3952 10.7698 15.3804 10.7814 15.3649C10.9693 15.1125 11.149 14.8546 11.321 14.5916C11.3386 14.5905 11.3563 14.59 11.3734 14.5889C11.4825 14.5828 11.5916 14.5757 11.7007 14.5685C11.7834 14.5629 11.8661 14.557 11.9488 14.5503C12.5269 14.5057 13.1029 14.4418 13.6761 14.3519C13.8432 14.326 14.009 14.2973 14.1744 14.267C14.5613 14.1953 14.9448 14.1094 15.3231 14.0014C15.4063 13.9777 15.4889 13.9529 15.5716 13.927C15.6129 13.9137 15.6542 13.9005 15.6956 13.8867C15.7578 13.8977 15.8147 13.9236 15.873 13.9451C15.9242 13.9639 15.9755 13.9837 16.0269 14.0041C16.1718 14.0614 16.314 14.1248 16.4518 14.1982C16.5063 14.2269 16.5598 14.2572 16.6127 14.2891C16.6827 14.3315 16.751 14.3761 16.815 14.4274C16.8338 14.4423 16.8392 14.4483 16.832 14.4572C16.8288 14.4616 16.8233 14.466 16.8145 14.4727L16.8156 14.4716Z" fill="#A0A0A0"/>
<path d="M11.4572 17.1362C11.4453 17.1435 11.4323 17.1435 11.4199 17.1391C11.4233 17.1367 11.4261 17.1356 11.429 17.1345C11.434 17.1328 11.4385 17.1328 11.4436 17.1328C11.4481 17.1328 11.4532 17.1339 11.4577 17.1362H11.4572Z" fill="#A0A0A0"/>
<path d="M11.4081 17.1407C11.3929 17.1473 11.3777 17.1479 11.3613 17.1435C11.3766 17.1344 11.3924 17.1355 11.4081 17.1407Z" fill="#A0A0A0"/>
<path d="M11.3505 17.143C11.3353 17.1499 11.3201 17.1504 11.3037 17.1458C11.3189 17.1362 11.3342 17.1373 11.3505 17.143Z" fill="#A0A0A0"/>
<path d="M11.2914 17.1466C11.2761 17.1539 11.2609 17.1539 11.2451 17.1488C11.2451 17.1488 11.2462 17.1488 11.2468 17.1482C11.2615 17.141 11.2767 17.141 11.2914 17.1466Z" fill="#A0A0A0"/>
<path d="M11.2037 17.1457C11.2139 17.1434 11.2246 17.1445 11.2353 17.1486C11.2201 17.1558 11.2043 17.1558 11.1885 17.1514C11.1936 17.1486 11.1986 17.1468 11.2037 17.1457Z" fill="#A0A0A0"/>
<path d="M11.1519 17.1451C11.1598 17.1451 11.1677 17.1468 11.1761 17.1491C11.1609 17.1558 11.1457 17.1564 11.1299 17.1513C11.1372 17.1468 11.1445 17.1451 11.1519 17.1445V17.1451Z" fill="#A0A0A0"/>
<path d="M11.1049 17.1475C11.1088 17.1481 11.1122 17.1492 11.1156 17.1503C11.1009 17.1571 11.0851 17.1577 11.0693 17.1531C11.08 17.1464 11.0913 17.1453 11.1026 17.1475C11.1026 17.1475 11.1032 17.1475 11.1037 17.1475H11.1043H11.1049Z" fill="#A0A0A0"/>
<path d="M11.0582 17.1545C11.0402 17.1624 11.0215 17.1619 11.0029 17.1567C11.021 17.1484 11.0396 17.1489 11.0582 17.1545Z" fill="#A0A0A0"/>
<path d="M10.9886 17.1568C10.9734 17.1646 10.9582 17.1635 10.9424 17.159C10.957 17.1505 10.9729 17.1505 10.9886 17.1568Z" fill="#A0A0A0"/>
<path d="M14.856 13.6384C14.8631 13.6395 14.8716 13.6395 14.8794 13.6406C14.8895 13.6418 14.8996 13.6446 14.9075 13.653C14.8867 13.6513 14.8666 13.6468 14.8486 13.6367C14.8497 13.6367 14.8514 13.6367 14.8525 13.6373C14.8537 13.6373 14.8548 13.6373 14.8565 13.6378L14.856 13.6384Z" fill="#A0A0A0"/>
<path d="M6.4633 18.5039C6.46495 18.5072 6.46661 18.5106 6.46771 18.5133L6.16016 18.5144C6.16181 18.5111 6.16347 18.5077 6.16512 18.5044C6.18993 18.5044 6.21473 18.5044 6.23953 18.5044C6.31394 18.5044 6.38834 18.5044 6.46275 18.5044L6.4633 18.5039Z" fill="#A0A0A0"/>
<path d="M15.6958 13.8893C15.6545 13.9031 15.6137 13.9163 15.5718 13.9295C15.4892 13.9554 15.4065 13.9803 15.3233 14.004C14.9447 14.112 14.5616 14.1979 14.1746 14.2696C14.0093 14.3004 13.8429 14.3286 13.6764 14.3545C13.1032 14.4443 12.5272 14.5083 11.9491 14.5529C11.8664 14.5596 11.7837 14.5655 11.701 14.5711C11.5919 14.5783 11.4828 14.5854 11.3736 14.5915C11.356 14.5926 11.3389 14.5931 11.3213 14.5942C11.4398 14.4129 11.555 14.2293 11.6663 14.0431C11.8272 13.7741 11.981 13.5013 12.1271 13.2246C12.406 13.2489 12.6843 13.277 12.9626 13.3111C12.983 13.3133 13.0034 13.3178 13.0244 13.3211C13.1489 13.3299 13.2724 13.3486 13.3953 13.3668C13.5535 13.39 13.7117 13.4153 13.8693 13.4418C14.082 13.4776 14.2948 13.5173 14.506 13.563C14.62 13.5878 14.7335 13.6132 14.8476 13.638C14.8658 13.6479 14.8851 13.6518 14.9055 13.654C15.1492 13.7162 15.3921 13.7818 15.6308 13.8606C15.6529 13.8678 15.6783 13.87 15.6953 13.8888L15.6958 13.8893Z" fill="#A0A0A0"/>
<path d="M7.59277 15.6836C7.69088 15.6913 7.78953 15.6991 7.88765 15.7056C7.78898 15.6991 7.69088 15.6913 7.59277 15.6836Z" fill="#A0A0A0"/>
<path d="M4.44693 17.8817C4.43886 17.8817 4.43195 17.8794 4.42676 17.873C4.42676 17.873 4.42791 17.873 4.42849 17.873C4.42964 17.873 4.4308 17.873 4.43195 17.873C4.4331 17.873 4.43368 17.8738 4.43483 17.8738C4.4354 17.8738 4.43655 17.8738 4.43714 17.8743C4.43829 17.8743 4.43944 17.8755 4.44059 17.876C4.44059 17.876 4.44175 17.876 4.44233 17.8766C4.44348 17.8777 4.44463 17.8789 4.44578 17.88C4.44578 17.88 4.44578 17.88 4.44637 17.88L4.44693 17.8817Z" fill="#A0A0A0"/>
<path d="M4.4274 17.8724C4.41934 17.8724 4.41185 17.8707 4.40723 17.8633C4.40723 17.8633 4.41126 17.8633 4.413 17.8633H4.41357C4.41876 17.8644 4.42338 17.8667 4.42684 17.8718C4.42684 17.8718 4.42684 17.8718 4.42684 17.8724H4.4274Z" fill="#A0A0A0"/>
<path d="M4.40885 17.86C4.4002 17.86 4.39213 17.8593 4.38867 17.8502C4.38867 17.8502 4.38867 17.8502 4.38867 17.8496H4.38925C4.39732 17.8496 4.40481 17.8513 4.40885 17.8593V17.86Z" fill="#A0A0A0"/>
<path d="M4.38776 17.852V17.8531C4.3797 17.8531 4.37105 17.8542 4.36816 17.8433V17.8422C4.37681 17.8409 4.3843 17.8427 4.38834 17.852H4.38776Z" fill="#A0A0A0"/>
<path d="M4.3131 17.8047C4.31869 17.8086 4.3254 17.8115 4.33156 17.8142C4.33605 17.8164 4.34053 17.8181 4.345 17.8203C4.35285 17.8243 4.36012 17.8293 4.36516 17.8366C4.36684 17.8388 4.36852 17.8421 4.3702 17.8456C4.34388 17.8434 4.32093 17.8327 4.30078 17.8159L4.3131 17.8047Z" fill="#A0A0A0"/>
<path d="M6.08061 16.9721C6.05912 16.9754 6.03762 16.9787 6.01669 16.9819C5.93401 16.9931 5.85134 16.9996 5.76811 17.0018C5.74055 17.0023 5.71245 17.003 5.68489 17.0023C5.65677 17.0023 5.62921 17.0012 5.6011 17.0001C5.58897 16.9996 5.57739 16.998 5.56527 16.9969C5.55369 16.9958 5.54156 16.9942 5.52944 16.9931C5.51401 16.9918 5.50244 16.9853 5.49087 16.9754C5.45779 16.9456 5.42637 16.9148 5.39551 16.8828C5.62371 16.9158 5.85188 16.9456 6.08061 16.9727V16.9721Z" fill="#A0A0A0"/>
<path d="M9.66928 13.1191C9.50504 13.1191 9.34079 13.1214 9.17654 13.1241C8.90316 13.548 8.60829 13.9569 8.2864 14.3455C8.21862 14.427 8.15027 14.5075 8.08027 14.5869C7.90391 14.788 7.71981 14.9821 7.5269 15.1673C7.35769 15.3294 7.18298 15.4842 7.00054 15.6297C6.85834 15.7438 6.71119 15.8524 6.55851 15.9533C6.27742 16.1395 5.98255 16.3 5.66508 16.4167C5.50415 16.4757 5.3399 16.5237 5.17014 16.5517C5.16077 16.5534 5.15195 16.5573 5.14258 16.56C5.14314 16.5628 5.14424 16.5662 5.14478 16.5689C5.14534 16.5705 5.1459 16.5721 5.147 16.5738C5.15911 16.5925 5.17124 16.6108 5.18392 16.6284C5.20928 16.6647 5.23573 16.7001 5.26274 16.7342C5.30352 16.7855 5.34707 16.8351 5.3928 16.8825C5.62098 16.9156 5.84916 16.9453 6.07789 16.9724C6.13907 16.963 6.1997 16.9508 6.25978 16.9365C6.39922 16.9035 6.53481 16.86 6.66764 16.8087C6.73378 16.7827 6.79937 16.7551 6.86385 16.7254C6.92833 16.6956 6.99227 16.6642 7.05566 16.6306C7.08321 16.6163 7.11023 16.6014 7.13779 16.5866C7.32739 16.4824 7.50927 16.3655 7.68343 16.2399C7.85816 16.1136 8.02571 15.978 8.1883 15.8358C8.21145 15.8154 8.2346 15.795 8.25774 15.7741C8.27483 15.7587 8.29137 15.7432 8.309 15.7273C8.41318 15.6319 8.51569 15.5339 8.61546 15.4335C8.65404 15.3944 8.69207 15.3552 8.73009 15.315C8.85521 15.1838 8.97701 15.0499 9.09551 14.9127C9.16662 14.8306 9.23606 14.7467 9.30441 14.6624C9.31267 14.6525 9.32094 14.642 9.32921 14.6315C9.37606 14.5731 9.42236 14.5142 9.46866 14.4546C9.61361 14.2672 9.75306 14.076 9.88753 13.8809C9.9603 13.775 10.0314 13.6687 10.1014 13.5612C10.1405 13.5005 10.1791 13.4399 10.2171 13.3793C10.2695 13.2961 10.3208 13.2117 10.3715 13.1274C10.1372 13.1219 9.90352 13.1191 9.66928 13.1191Z" fill="#A0A0A0"/>
<path d="M3.41996 17.4207C3.41129 17.4226 3.40447 17.4201 3.40137 17.4108C3.41066 17.409 3.41748 17.4108 3.41996 17.4207Z" fill="#A0A0A0"/>
<path d="M8.27835 13.1537C8.16095 13.1592 8.04356 13.1658 7.9267 13.173C7.79828 13.3548 7.66545 13.534 7.52656 13.7087C7.39041 13.8806 7.25098 14.0493 7.10437 14.213C7.02115 14.3056 6.93737 14.3976 6.85138 14.488C6.79076 14.5519 6.72902 14.6154 6.66564 14.6771C6.41375 14.9235 6.14976 15.1561 5.8659 15.366C5.8185 15.4007 5.77111 15.4349 5.7226 15.4685C5.56331 15.5793 5.39852 15.6818 5.22711 15.7739C5.10309 15.8412 4.97523 15.9006 4.8457 15.9552C4.8468 15.9612 4.8457 15.9679 4.84845 15.974C4.86664 16.0242 4.88593 16.0731 4.90688 16.1222C4.92728 16.1713 4.94931 16.2193 4.97247 16.2666C5.01876 16.3615 5.07057 16.4541 5.12679 16.5445L5.12789 16.5456C5.13175 16.551 5.13837 16.556 5.14332 16.5609C5.1527 16.5582 5.16151 16.5544 5.17088 16.5526C5.34009 16.5246 5.50434 16.4766 5.66582 16.4176C5.98331 16.3014 6.27817 16.1404 6.55927 15.9542C6.71194 15.8533 6.8591 15.7447 7.0013 15.6306C7.18374 15.4846 7.35845 15.3297 7.52766 15.1682C7.72113 14.983 7.90465 14.789 8.08103 14.5878C8.15103 14.5084 8.21937 14.4279 8.28716 14.3464C8.60905 13.9578 8.90392 13.5488 9.1773 13.125C8.87746 13.1305 8.57707 13.1393 8.27779 13.1542L8.27835 13.1537Z" fill="#A0A0A0"/>
<path d="M14.1739 8.64184C14.1833 8.64184 14.1938 8.64184 14.1876 8.62695C14.1921 8.62695 14.1965 8.62805 14.2015 8.62861C14.1987 8.62861 14.1965 8.62916 14.1949 8.63026C14.191 8.63302 14.191 8.63908 14.1921 8.64625C14.186 8.64625 14.18 8.64569 14.1739 8.64514C14.1707 8.64514 14.1667 8.64459 14.1634 8.64404C14.1562 8.64349 14.1485 8.64238 14.1414 8.64184C14.1248 8.63962 14.1077 8.63632 14.0918 8.63246C14.1199 8.63081 14.1469 8.64074 14.1745 8.64238L14.1739 8.64184Z" fill="#A0A0A0"/>
<path d="M5.6218 14.3252C5.63393 14.3274 5.6455 14.329 5.65707 14.3312C5.42724 14.5533 5.18582 14.7618 4.92843 14.9524C4.83473 15.0218 4.74103 15.0913 4.63962 15.1503C4.62087 15.0693 4.61261 14.9866 4.60324 14.904C4.57128 14.6405 4.55915 14.3759 4.55859 14.1113C4.62253 14.1268 4.68646 14.1416 4.75096 14.1565C4.9389 14.1996 5.1274 14.2375 5.31645 14.2723C5.41841 14.2911 5.52038 14.3086 5.62235 14.3257L5.6218 14.3252Z" fill="#A0A0A0"/>
<path d="M6.67398 13.2796C6.64698 13.283 6.61943 13.2852 6.59187 13.2879C6.32069 13.6329 6.03132 13.962 5.71716 14.2702C5.69732 14.2899 5.67693 14.3092 5.6571 14.3285C5.66646 14.3301 5.67583 14.3319 5.68465 14.3335C5.67527 14.3319 5.66646 14.3301 5.6571 14.329C5.42726 14.5512 5.18585 14.7595 4.92846 14.9502C4.83476 15.0197 4.74106 15.0891 4.63965 15.1482C4.64075 15.1592 4.64129 15.1707 4.64241 15.1817C4.64241 15.185 4.64241 15.1877 4.64351 15.1911C4.64571 15.2038 4.64847 15.2164 4.65067 15.229C4.65232 15.2397 4.65398 15.2494 4.65618 15.26C4.66114 15.2853 4.66611 15.3113 4.67107 15.3371C4.70027 15.4826 4.73499 15.6264 4.77854 15.7681C4.79838 15.8316 4.81436 15.8966 4.84633 15.9561C4.97585 15.9015 5.10373 15.8421 5.22774 15.7748C5.39915 15.6822 5.56395 15.5797 5.72322 15.4694C5.77173 15.4364 5.81913 15.4021 5.86653 15.3669C6.15038 15.1574 6.41439 14.9244 6.66628 14.6779C6.72966 14.6162 6.79084 14.5528 6.85202 14.4889C6.938 14.3985 7.02177 14.3065 7.10499 14.2139C7.25106 14.0502 7.39105 13.8815 7.52718 13.7096C7.66553 13.5343 7.79892 13.3557 7.92733 13.1738C7.50955 13.1992 7.09232 13.2345 6.67564 13.2807L6.67398 13.2796Z" fill="#A0A0A0"/>
<path d="M5.68501 14.3366C5.67557 14.3349 5.66667 14.3331 5.65723 14.332C5.66667 14.3338 5.67613 14.3355 5.68501 14.3366Z" fill="#A0A0A0"/>
<path d="M5.65764 14.3303C5.64598 14.3286 5.63375 14.3264 5.62207 14.3242L5.65764 14.3297V14.3303Z" fill="#A0A0A0"/>
<path d="M5.31738 14.2695C5.41935 14.2882 5.52132 14.3058 5.62328 14.323C5.52132 14.3058 5.41881 14.2882 5.31738 14.2695Z" fill="#A0A0A0"/>
<path d="M6.41228 13.3125C6.47125 13.2998 6.53133 13.2932 6.59141 13.2871C6.32023 13.6321 6.03087 13.9612 5.71672 14.2693C5.69687 14.2892 5.67647 14.3084 5.65664 14.3277L5.62136 14.3222C5.5194 14.3051 5.41744 14.2874 5.31547 14.2688C5.12643 14.234 4.93737 14.1959 4.74998 14.153C4.68604 14.1381 4.62156 14.1232 4.55762 14.1078C4.55762 14.008 4.55872 13.9077 4.56148 13.8074C4.56312 13.7479 4.56588 13.6889 4.56919 13.6299C4.78691 13.5781 5.00627 13.5324 5.22618 13.4905C5.60207 13.4194 5.98017 13.3615 6.35936 13.3147C6.36543 13.3141 6.37149 13.313 6.37755 13.3125C6.38472 13.3114 6.39188 13.3108 6.39905 13.3114C6.40347 13.3114 6.40787 13.3125 6.41228 13.3136V13.3125Z" fill="#A0A0A0"/>
<path d="M13.1182 8.49609C13.3375 8.52311 13.5574 8.54956 13.7768 8.57657C13.7757 8.57877 13.7741 8.58097 13.7719 8.58317C13.6357 8.56664 13.499 8.55067 13.3629 8.53302C13.3232 8.52807 13.2835 8.52475 13.2438 8.52035C13.2041 8.51594 13.1645 8.51152 13.1253 8.50382C13.1231 8.50106 13.1209 8.49885 13.1182 8.49665V8.49609Z" fill="#A0A0A0"/>
<path d="M12.0439 9.18112C12.0523 9.14977 12.0602 9.11729 12.0686 9.08594C12.0607 9.11785 12.0523 9.14977 12.0439 9.18112Z" fill="#A0A0A0"/>
<path d="M18.3492 13.5865C18.3492 13.2844 18.3492 12.9829 18.3492 12.6809C18.3299 12.5966 18.3036 12.5144 18.2567 12.4406C18.1812 12.3215 18.0913 12.2152 17.9789 12.1281C17.8614 12.0371 17.7414 11.9517 17.6118 11.879C17.4337 11.7792 17.2486 11.6949 17.0628 11.6117C17.0298 11.5968 16.9955 11.5896 16.9625 11.5764C16.5425 11.4121 16.1105 11.2887 15.6728 11.1823C15.3928 11.1139 15.1107 11.0555 14.8273 11.0026C14.5093 10.9431 14.1896 10.8918 13.8694 10.8477C13.6483 10.8174 13.4274 10.7899 13.2058 10.7651C13.1071 10.754 13.0085 10.7436 12.9098 10.7336C12.6309 10.7066 12.3515 10.6813 12.0721 10.6614C11.9073 10.6493 11.7419 10.6388 11.5771 10.6295C11.4371 10.6218 11.2966 10.6146 11.156 10.608C10.935 10.5981 10.7145 10.5903 10.4935 10.5854C10.4775 10.5854 10.4616 10.5843 10.4456 10.5843C10.0967 10.5766 9.74725 10.5744 9.39836 10.5777C9.39285 10.5777 9.38735 10.5777 9.38128 10.5777C9.02191 10.581 8.66256 10.5892 8.30376 10.6041C8.28226 10.6047 8.26076 10.6063 8.23926 10.6069C7.81432 10.6251 7.39048 10.6515 6.96663 10.6873C6.34436 10.7397 5.72431 10.8108 5.10756 10.9078C5.09269 10.91 5.07836 10.9128 5.06347 10.915C5.03978 10.9988 5.01828 11.0836 4.98852 11.1658C4.96757 11.2495 4.94662 11.3333 4.92513 11.4165C4.86836 11.6387 4.81711 11.8619 4.77246 12.0867C4.80388 12.0812 4.83529 12.0763 4.86671 12.0708C4.90805 12.0636 4.94938 12.057 4.99017 12.0498C5.05135 12.0399 5.11253 12.03 5.17371 12.0201C5.39473 11.9859 5.61682 11.955 5.8384 11.9269C6.06051 11.8988 6.28264 11.874 6.5053 11.852C6.65356 11.8371 6.80238 11.8233 6.9512 11.8106C7.17608 11.7919 7.40149 11.7759 7.62692 11.7616C7.83912 11.7483 8.05132 11.7379 8.26352 11.729C8.31809 11.7268 8.37265 11.7241 8.42722 11.7219C8.50823 11.7186 8.58981 11.7164 8.67082 11.7136C8.72319 11.712 8.77555 11.7109 8.82846 11.7098C9.01971 11.7048 9.21097 11.702 9.40222 11.7004C9.47443 11.7004 9.54608 11.6993 9.61828 11.6993C9.74174 11.6993 9.8652 11.6993 9.98811 11.7004C10.0328 11.7004 10.0774 11.7009 10.122 11.702C10.17 11.7026 10.2179 11.7031 10.2659 11.7037C10.3965 11.7059 10.5266 11.7092 10.6572 11.7131C10.7878 11.7169 10.9179 11.7219 11.0485 11.7268C11.07 11.7274 11.0915 11.729 11.113 11.7296C11.253 11.7357 11.393 11.7428 11.5325 11.75C11.6399 11.756 11.7474 11.7627 11.8549 11.7693C12.0158 11.7797 12.1773 11.7913 12.3383 11.8046C12.4865 11.8167 12.6348 11.8305 12.7836 11.8453C12.7886 11.8453 12.7941 11.8464 12.799 11.847C12.9054 11.8575 13.0118 11.8679 13.1182 11.879C13.2885 11.896 13.4588 11.9164 13.6292 11.939C13.7988 11.9616 13.9686 11.9859 14.1383 12.0112C14.2089 12.0217 14.2794 12.0327 14.3495 12.0438C14.5606 12.0779 14.771 12.1154 14.9806 12.1567C15.104 12.181 15.2269 12.2063 15.3498 12.2328C15.4727 12.2593 15.5951 12.2879 15.7174 12.3177C15.9031 12.3634 16.0878 12.4125 16.2702 12.466C16.5139 12.5376 16.7553 12.6181 16.9917 12.7123C17.0513 12.7355 17.1097 12.7603 17.1686 12.7851C17.2579 12.8237 17.3456 12.8661 17.4326 12.9091C17.4541 12.9196 17.4756 12.93 17.4972 12.941C17.5137 12.9493 17.5308 12.9576 17.5474 12.9659C17.5694 12.9769 17.5914 12.9879 17.6129 13C17.6405 13.0149 17.6674 13.0309 17.6929 13.0485C17.7909 13.1163 17.8918 13.1803 17.9827 13.2574C18.0037 13.2756 18.024 13.2938 18.0439 13.3131C18.0677 13.3329 18.0903 13.3544 18.1117 13.3759C18.1475 13.4118 18.1807 13.4503 18.2098 13.4906C18.2242 13.5104 18.2374 13.5308 18.25 13.5517C18.261 13.5699 18.2709 13.5881 18.2803 13.6069C18.2897 13.6256 18.2985 13.6449 18.3063 13.6653C18.3146 13.6851 18.3216 13.7055 18.3283 13.7259C18.3327 13.7402 18.3377 13.7551 18.342 13.7694C18.342 13.7694 18.342 13.7705 18.3426 13.7711V13.7694C18.3543 13.7083 18.3471 13.6465 18.3476 13.5848L18.3492 13.5865Z" fill="#A0A0A0"/>
<path d="M18.3522 12.5641C18.3529 12.3354 18.3529 12.1072 18.3522 11.8785C18.3522 11.7732 18.3511 11.6674 18.3506 11.5621C18.3325 11.5026 18.3197 11.4414 18.2928 11.3847C18.2239 11.2419 18.1208 11.1273 18.0017 11.0247C17.8716 10.9123 17.7278 10.8192 17.5767 10.737C17.358 10.6169 17.1309 10.5144 16.8967 10.4278C16.6255 10.3275 16.3504 10.2388 16.0716 10.1627C15.8583 10.1048 15.6439 10.0514 15.4289 10.0023C15.1836 9.94666 14.9373 9.89761 14.6899 9.85407C14.4329 9.80943 14.175 9.76644 13.9165 9.73061C13.7942 9.71352 13.6713 9.69754 13.5483 9.68211C13.2739 9.64684 12.9988 9.61596 12.7232 9.59172C12.672 9.58676 12.6213 9.57959 12.57 9.57573C12.3617 9.55975 12.1533 9.54431 11.9456 9.52944C11.9158 9.52722 11.886 9.52502 11.8563 9.52282C11.7174 9.5129 11.5785 9.50298 11.4396 9.49582C11.2588 9.487 11.078 9.48037 10.8972 9.47377C10.8956 9.47377 10.8939 9.47377 10.8923 9.47377C10.7032 9.46716 10.5147 9.46 10.3257 9.45668C10.1592 9.45393 9.99279 9.45227 9.82578 9.45172C9.75248 9.45172 9.67917 9.45117 9.60532 9.45117C9.31321 9.45117 9.02164 9.45558 8.73007 9.46384C8.72566 9.46384 8.7218 9.46384 8.7174 9.46384C8.37512 9.47377 8.03229 9.48755 7.69057 9.50959C7.42767 9.52612 7.16476 9.54101 6.90241 9.56306C6.79604 9.57187 6.69021 9.5851 6.58438 9.59557C6.21456 9.63251 5.84583 9.6755 5.4782 9.7273C5.47379 9.72785 5.46993 9.72841 5.46553 9.72896C5.31836 10.1098 5.18609 10.4956 5.06979 10.8875C5.06703 10.8974 5.06428 10.9068 5.06152 10.9167C5.07585 10.9145 5.09073 10.9118 5.10561 10.9095C5.72237 10.8125 6.34242 10.7409 6.96469 10.6891C7.38853 10.6538 7.81238 10.6268 8.23732 10.6086C8.25882 10.6075 8.28031 10.6064 8.30181 10.6059C8.66062 10.591 9.01998 10.5827 9.37933 10.5794C9.38485 10.5794 9.39092 10.5794 9.39642 10.5794C9.74587 10.5766 10.0948 10.5789 10.4436 10.586C10.4596 10.586 10.4756 10.5871 10.4916 10.5871C10.7126 10.5921 10.9331 10.5998 11.1541 10.6097C11.2946 10.6163 11.4346 10.6235 11.5752 10.6312C11.74 10.6406 11.9053 10.6511 12.0701 10.6632C12.3496 10.6836 12.629 10.7084 12.9079 10.7354C13.0065 10.7453 13.1052 10.7558 13.2039 10.7668C13.4254 10.7916 13.6464 10.8192 13.8675 10.8495C14.1876 10.8936 14.5074 10.9448 14.8254 11.0043C15.1087 11.0573 15.3908 11.1157 15.6709 11.184C16.1086 11.2904 16.5406 11.4139 16.9606 11.5781C16.9936 11.5913 17.0279 11.5985 17.0609 11.6134C17.2466 11.6972 17.4318 11.7809 17.6099 11.8807C17.7393 11.9535 17.8595 12.0389 17.977 12.1298C18.0894 12.2169 18.1793 12.3233 18.2547 12.4423C18.3015 12.5162 18.3275 12.5983 18.3473 12.6826C18.3551 12.643 18.3506 12.6027 18.3506 12.563L18.3522 12.5641Z" fill="#A0A0A0"/>
<path d="M11.8735 3.92242C12.0256 4.15997 12.1358 4.41682 12.219 4.68578C12.2449 4.76901 12.2681 4.85279 12.289 4.93712C12.3238 5.07766 12.3508 5.22041 12.3723 5.36372C12.3783 5.40561 12.3844 5.44749 12.3899 5.48993C12.4004 5.57426 12.4097 5.65859 12.4175 5.74291C12.4208 5.78536 12.4241 5.82724 12.4274 5.86968C12.4428 6.10007 12.4494 6.33044 12.4433 6.56139C12.4367 6.80279 12.4224 7.04421 12.3982 7.28506C12.3739 7.52426 12.3408 7.76237 12.3012 7.99881C12.2775 8.14102 12.251 8.28266 12.2223 8.42321C11.9942 8.40502 11.766 8.38959 11.5372 8.37856C11.4276 8.37361 11.3173 8.36755 11.2071 8.36203C11.2815 8.04236 11.3443 7.72047 11.3934 7.3953C11.4474 7.03538 11.486 6.67437 11.5003 6.31115C11.5119 6.00252 11.5102 5.69332 11.4854 5.38466C11.4645 5.12727 11.4298 4.87262 11.3746 4.62019C11.3124 4.33635 11.2247 4.06077 11.0991 3.79786C11.0495 3.69369 10.991 3.59392 10.9326 3.49472C10.9806 3.47929 11.0307 3.47763 11.0798 3.47268C11.1057 3.46992 11.1316 3.46772 11.1569 3.46606C11.179 3.46496 11.201 3.46386 11.2231 3.4633C11.2589 3.46275 11.2947 3.46275 11.3306 3.4633C11.3554 3.46386 11.3807 3.46496 11.4055 3.46606C11.4248 3.46716 11.4441 3.46826 11.4634 3.46992C11.4667 3.46992 11.47 3.47046 11.4728 3.47102C11.4788 3.47212 11.4843 3.47378 11.4898 3.47598C11.4953 3.47819 11.5003 3.48095 11.5053 3.48425C11.5124 3.48865 11.5196 3.49472 11.5262 3.50078C11.5433 3.51621 11.5598 3.5322 11.5758 3.54818C11.6083 3.58015 11.6398 3.61377 11.6695 3.64794C11.745 3.73337 11.8128 3.82431 11.8751 3.92132L11.8735 3.92242Z" fill="#A0A0A0"/>
<path d="M11.371 4.62267C11.4261 4.87456 11.4609 5.12974 11.4818 5.38713C11.5072 5.69579 11.5088 6.00499 11.4967 6.31365C11.4829 6.67687 11.4443 7.03789 11.3898 7.3978C11.3407 7.72298 11.2779 8.04541 11.2035 8.36453C11.1202 8.36067 11.0365 8.35627 10.9533 8.35297C10.7626 8.3458 10.5724 8.34138 10.3817 8.33753C10.3106 8.33588 10.2395 8.33477 10.1689 8.33367C10.2384 8.07186 10.2996 7.80785 10.3519 7.5422C10.3916 7.34323 10.4258 7.14316 10.4561 6.94253C10.4759 6.80805 10.4936 6.67357 10.509 6.53854C10.525 6.39743 10.5377 6.25578 10.5465 6.11357C10.5559 5.96201 10.5619 5.80989 10.5652 5.65831C10.5691 5.45493 10.5625 5.2521 10.5476 5.04927C10.5377 4.91534 10.525 4.78196 10.5079 4.64858C10.4848 4.46615 10.4517 4.28591 10.4082 4.10733C10.3734 3.96458 10.3337 3.82239 10.2808 3.6846C10.3172 3.66144 10.3591 3.64987 10.3993 3.63499C10.4809 3.60468 10.563 3.57822 10.6468 3.55507C10.7306 3.53248 10.8149 3.51318 10.9009 3.49885C10.907 3.49775 10.9125 3.49609 10.9185 3.49609C10.9224 3.49609 10.9257 3.49609 10.929 3.4972C10.9874 3.59642 11.0458 3.69562 11.0955 3.80033C11.2211 4.06324 11.3088 4.33882 11.371 4.62267Z" fill="#A0A0A0"/>
<path d="M13.7692 4.15428C13.7692 4.15428 13.7666 4.15233 13.7666 4.15103C13.7666 4.15038 13.7666 4.14973 13.7666 4.14844L13.7698 4.15037L13.7685 4.15363L13.7692 4.15428Z" fill="#A0A0A0"/>
<path d="M18.3484 14.8582C18.3489 14.8439 18.35 14.8295 18.35 14.8153C18.35 14.5794 18.3505 14.343 18.3505 14.107C18.3505 14.005 18.3489 13.9031 18.3484 13.8011C18.3484 13.7951 18.3511 13.7884 18.3505 13.7824C18.3489 13.7785 18.3467 13.7758 18.3451 13.7725C18.3451 13.7725 18.3451 13.773 18.3451 13.7736C18.3451 13.773 18.3451 13.7725 18.3446 13.7719C18.3401 13.757 18.3352 13.7427 18.3307 13.7278C18.3242 13.7069 18.3164 13.6865 18.3087 13.6672C18.3009 13.6473 18.2921 13.628 18.2828 13.6088C18.2735 13.59 18.263 13.5713 18.2525 13.5536C18.2397 13.5327 18.2266 13.5123 18.2123 13.4925C18.183 13.4517 18.1506 13.4136 18.1141 13.3778C18.0926 13.3563 18.0701 13.3354 18.0463 13.315C18.0264 13.2951 18.006 13.277 17.9851 13.2593C17.8941 13.1822 17.7934 13.1182 17.6952 13.0504C17.6693 13.0328 17.6424 13.0168 17.6153 13.0019C17.5938 12.9903 17.5718 12.9788 17.5498 12.9678C17.5332 12.9595 17.5161 12.9512 17.4996 12.943C17.4781 12.9319 17.4566 12.9215 17.435 12.911C17.348 12.868 17.2603 12.8256 17.1711 12.787C17.1121 12.7622 17.0537 12.7374 16.9941 12.7142C16.7571 12.6205 16.5162 12.5395 16.2727 12.4678C16.0897 12.4138 15.9051 12.3648 15.7198 12.3196C15.5975 12.2898 15.4751 12.2612 15.3522 12.2347C15.2293 12.2083 15.1064 12.1829 14.9829 12.1586C14.773 12.1173 14.5624 12.0793 14.3518 12.0457C14.2813 12.0346 14.2114 12.0236 14.1408 12.0131C13.971 11.9878 13.8018 11.9635 13.6315 11.9409C13.4617 11.9183 13.2914 11.8979 13.1206 11.8809C13.0142 11.8704 12.9078 11.8594 12.8015 11.8489C12.7965 11.8489 12.791 11.8478 12.786 11.8472C12.6378 11.8324 12.4895 11.8186 12.3407 11.8065C12.1797 11.7932 12.0182 11.7822 11.8573 11.7712C11.7498 11.764 11.6424 11.7574 11.5349 11.7519C11.3949 11.7442 11.2549 11.737 11.1154 11.7315C11.0939 11.7304 11.0724 11.7293 11.051 11.7287C10.9203 11.7232 10.7903 11.7188 10.6596 11.715C10.529 11.7111 10.3989 11.7078 10.2683 11.7056C10.2203 11.705 10.1724 11.7045 10.1244 11.7039C10.0798 11.7034 10.0352 11.7028 9.99052 11.7023C9.86705 11.7012 9.74359 11.7006 9.62069 11.7012C9.54849 11.7012 9.47628 11.7017 9.40463 11.7023C9.21337 11.7039 9.02212 11.7067 8.83087 11.7116C8.7785 11.7128 8.72615 11.7144 8.67323 11.7155C8.59222 11.7177 8.51065 11.7205 8.42962 11.7238C8.37506 11.726 8.32049 11.7287 8.26593 11.7309C8.05373 11.7398 7.84153 11.7508 7.62933 11.7635C7.4039 11.7778 7.17848 11.7932 6.95361 11.8125C6.80479 11.8252 6.65597 11.839 6.50771 11.8538C6.28505 11.8759 6.06292 11.9007 5.8408 11.9288C5.61869 11.9569 5.39712 11.9878 5.1761 12.022C5.11492 12.0313 5.05374 12.0412 4.99258 12.0517C4.95123 12.0583 4.91045 12.0655 4.86912 12.0727C4.8377 12.0782 4.80628 12.0831 4.77487 12.0887C4.81951 11.8638 4.87076 11.6405 4.92754 11.4184C4.94903 11.3347 4.96997 11.2514 4.99092 11.1677C5.02068 11.0855 5.04217 11.0006 5.06587 10.9169C5.06863 10.9069 5.07139 10.8976 5.07414 10.8877C5.19043 10.4958 5.32272 10.1094 5.46989 9.72911C5.56303 9.48771 5.66222 9.2485 5.76751 9.0115C5.83805 8.85276 5.91136 8.69458 5.98687 8.53861C6.23654 8.02216 6.51378 7.52005 6.82132 7.03448C7.10849 6.57921 7.42099 6.1427 7.76326 5.72711C7.77042 5.71885 7.77594 5.70894 7.78255 5.70011C7.88562 5.58216 7.98704 5.46312 8.09231 5.34682C8.43514 4.96707 8.80442 4.61542 9.21337 4.30732C9.31423 4.23125 9.4184 4.15961 9.52147 4.0863C9.53085 4.07969 9.54242 4.07859 9.55345 4.07803C9.55841 4.06316 9.57218 4.05654 9.58375 4.04937C9.79485 3.91434 10.0142 3.79419 10.2452 3.69718C10.2534 3.69388 10.2611 3.68946 10.27 3.68671C10.2722 3.68616 10.2749 3.68561 10.2777 3.68505C10.2804 3.68505 10.2832 3.68395 10.2859 3.68395C10.3223 3.6608 10.3642 3.64923 10.4044 3.63434C10.486 3.60404 10.5681 3.57758 10.6519 3.55443C10.7357 3.53183 10.82 3.51254 10.906 3.49821C10.9121 3.49711 10.9176 3.49545 10.9236 3.49545C10.9275 3.49545 10.9308 3.49545 10.9341 3.49655C10.9821 3.48112 11.0322 3.47948 11.0813 3.47451C11.1072 3.47175 11.1331 3.46955 11.1584 3.46789C11.1805 3.46679 11.2025 3.46569 11.2246 3.46515C11.2604 3.46459 11.2962 3.46459 11.3321 3.46515C11.3569 3.46569 11.3822 3.46679 11.407 3.46789C11.4263 3.46899 11.4456 3.47011 11.4649 3.47175C11.4682 3.47175 11.4715 3.47231 11.4742 3.47286C11.4803 3.47396 11.4858 3.47562 11.4913 3.47782C11.4968 3.48002 11.5018 3.48278 11.5068 3.48608C11.5139 3.4905 11.5211 3.49655 11.5277 3.50262C11.5448 3.51806 11.5613 3.53404 11.5773 3.55002C11.6098 3.58199 11.6413 3.61561 11.671 3.64979C11.7465 3.73521 11.8143 3.82615 11.8766 3.92317C12.0287 4.16071 12.1389 4.41755 12.2222 4.68653C12.2481 4.76974 12.2712 4.85352 12.2922 4.93785C12.3269 5.0784 12.3539 5.22116 12.3754 5.36445C12.3815 5.40634 12.3875 5.44823 12.393 5.49067C12.4035 5.57499 12.4129 5.65933 12.4206 5.74366C12.4239 5.78609 12.4272 5.82798 12.4305 5.87042C12.4459 6.10081 12.4526 6.33119 12.4465 6.56213C12.4399 6.80354 12.4256 7.04495 12.4013 7.28581C12.3771 7.52501 12.344 7.76312 12.3043 7.99956C12.2806 8.14177 12.2541 8.28341 12.2255 8.42396C12.2624 8.42672 12.2993 8.42948 12.3363 8.43278C12.6014 8.45482 12.8659 8.48128 13.1305 8.50553C13.1283 8.50277 13.1261 8.50057 13.1233 8.49837C13.3427 8.52538 13.5626 8.55184 13.7819 8.57884C13.7808 8.58104 13.7792 8.58324 13.777 8.58544C13.7902 8.5871 13.8035 8.58931 13.8167 8.59096C13.8608 8.3738 13.9005 8.15664 13.934 7.93784C13.9638 7.74161 13.9903 7.54486 14.0107 7.34753C14.03 7.16289 14.047 6.97825 14.0559 6.79251C14.0603 6.70323 14.0652 6.61339 14.0708 6.52409C14.0714 6.51252 14.0652 6.49709 14.0835 6.49213C14.0835 6.32568 14.0824 6.15867 14.0818 5.99223C14.073 5.98836 14.0724 5.98066 14.0714 5.97239C14.0692 5.93877 14.0652 5.90569 14.0642 5.87207C14.0575 5.63011 14.0355 5.38981 14.003 5.1506C13.9672 4.8855 13.9142 4.62425 13.8409 4.36684C13.8227 4.30236 13.8073 4.23732 13.7786 4.17614L13.7727 4.1541C13.7727 4.1541 13.7704 4.15244 13.7704 4.15134C13.7704 4.1508 13.7704 4.15024 13.7704 4.14914C13.7687 4.14141 13.7676 4.13371 13.7649 4.12598C13.6585 3.81898 13.5196 3.52797 13.3284 3.26342C13.1443 3.00823 12.9222 2.79493 12.6482 2.63619C12.5457 2.57667 12.4344 2.53478 12.3291 2.48132C12.3197 2.47636 12.3076 2.47746 12.2966 2.47526C12.2872 2.46313 12.2723 2.45981 12.2597 2.45376C12.0111 2.34353 11.7631 2.23329 11.5139 2.12417C11.482 2.10982 11.4528 2.08889 11.4169 2.08448C11.4109 2.08227 11.4048 2.08062 11.3987 2.07842C11.3563 2.06463 11.3128 2.05471 11.272 2.03543C11.2681 2.03432 11.2648 2.03321 11.2609 2.03157C11.2593 2.03101 11.2571 2.03047 11.2554 2.02991C11.2554 2.02991 11.2549 2.02991 11.2543 2.02991C11.2499 2.03267 11.2472 2.03047 11.2444 2.02661C11.1645 2.00621 11.0846 1.99078 11.0036 1.97976C10.9451 1.97149 10.8867 1.96543 10.8277 1.96212C10.8079 1.96102 10.7886 1.96046 10.7688 1.95992C10.7098 1.95826 10.6514 1.95881 10.5929 1.96157C10.5152 1.96487 10.4381 1.97203 10.3609 1.98252C10.2264 2.00125 10.093 2.02937 9.96076 2.06573C9.94201 2.07125 9.92273 2.07622 9.90398 2.08227C9.65541 2.15613 9.4184 2.25589 9.18967 2.37384C9.11362 2.41298 9.03811 2.45431 8.96314 2.49785C8.8948 2.53698 8.82756 2.57722 8.76087 2.61966C8.73882 2.63344 8.71678 2.64777 8.69473 2.6621C8.67269 2.67643 8.65064 2.69076 8.62914 2.70563C8.5856 2.73485 8.54261 2.76461 8.50018 2.79547C8.47923 2.81092 8.45773 2.82635 8.43678 2.84178C8.43678 2.84342 8.43678 2.84453 8.43678 2.84618C8.43678 2.84729 8.43568 2.84839 8.43514 2.84949C8.43348 2.85115 8.43127 2.8517 8.42797 2.8517H8.42741C8.42741 2.8517 8.42741 2.85391 8.42741 2.85445C8.42741 2.85665 8.42631 2.85775 8.42521 2.85831C8.42411 2.85887 8.42301 2.85887 8.42081 2.85831C8.42025 2.85831 8.41915 2.85831 8.4186 2.85721C8.3249 2.92279 8.23396 2.99114 8.14523 3.06224C8.10554 3.09366 8.0664 3.12617 8.02783 3.15869C8.02176 3.16365 8.0157 3.16917 8.00964 3.17412C7.96995 3.20774 7.93027 3.24192 7.89114 3.27665C7.89114 3.27775 7.89114 3.2783 7.89114 3.2794C7.89114 3.28215 7.89004 3.28381 7.88838 3.28547C7.88838 3.28547 7.88728 3.28601 7.88672 3.28657C7.88562 3.28711 7.88397 3.28767 7.88232 3.28767C7.88121 3.28987 7.87956 3.29208 7.87791 3.29373C7.87571 3.29594 7.87405 3.29814 7.87129 3.2998C7.86799 3.302 7.86412 3.3042 7.85972 3.30475C7.85972 3.30971 7.85862 3.31247 7.85642 3.31357C7.8531 3.31577 7.84703 3.31413 7.84263 3.31467C7.82776 3.3301 7.81231 3.34553 7.79744 3.36042C7.79634 3.36152 7.79578 3.36262 7.79468 3.36318C7.79468 3.36372 7.79468 3.36483 7.79468 3.36538C7.79468 3.36759 7.79358 3.36869 7.79248 3.37035H7.79192C7.79192 3.37035 7.78861 3.37199 7.78531 3.37199C7.77208 3.38302 7.75775 3.39294 7.74508 3.40451C7.74397 3.40561 7.74287 3.40617 7.74177 3.40727C7.69327 3.45302 7.64422 3.49877 7.59627 3.54562C7.59295 3.54892 7.58964 3.55167 7.58688 3.55443C7.57201 3.56932 7.55658 3.58309 7.54115 3.59742C7.50257 3.63324 7.46288 3.66796 7.42595 3.70545C7.40611 3.72584 7.38571 3.74623 7.36588 3.76608C7.25124 3.88238 7.13769 3.99978 7.02801 4.12102C6.88802 4.2759 6.75188 4.43354 6.61961 4.59447C6.60086 4.61762 6.58157 4.64022 6.56283 4.66337C6.56007 4.66668 6.55677 4.67054 6.55456 4.6744C6.5507 4.67991 6.54684 4.68543 6.54298 4.69148C6.53803 4.6992 6.53307 4.70692 6.52811 4.71408C6.52425 4.71959 6.52039 4.72455 6.51598 4.73006C6.51432 4.73172 6.51322 4.73336 6.51212 4.73448C6.50606 4.74109 6.49999 4.74715 6.49283 4.75211C6.49283 4.75376 6.49228 4.75431 6.49173 4.75541C6.49173 4.75652 6.49173 4.75762 6.49062 4.75872C6.49062 4.75928 6.48952 4.75982 6.48898 4.76038C6.48786 4.76093 6.48622 4.76148 6.48512 4.76204C6.48182 4.77747 6.46913 4.78518 6.45866 4.7951C6.4581 4.7951 6.45756 4.7962 6.457 4.79676C6.4537 4.7995 6.4515 4.80282 6.44929 4.80613C6.44819 4.80777 6.44709 4.80943 6.44653 4.81163C6.44598 4.81383 6.44488 4.81549 6.44433 4.8177C6.44433 4.8188 6.44433 4.81935 6.44433 4.82046C6.44433 4.82322 6.44323 4.82486 6.44103 4.82652C6.44103 4.82652 6.43991 4.82652 6.43991 4.82706C6.43937 4.82706 6.43827 4.82706 6.43771 4.82706C6.43717 4.82706 6.43661 4.82706 6.43551 4.82706C6.41125 4.85738 6.38646 4.8877 6.3622 4.918C6.3611 4.91966 6.35946 4.92132 6.35835 4.92297C6.3589 4.92683 6.3589 4.93013 6.35835 4.93345C6.35835 4.93619 6.3567 4.93785 6.35559 4.94006C6.35559 4.94061 6.35449 4.94171 6.35449 4.94226C6.35283 4.94392 6.35063 4.94612 6.34843 4.94722C6.34567 4.94888 6.34237 4.94998 6.33906 4.95108C6.3352 4.95549 6.33134 4.95935 6.32748 4.96375C6.32583 4.96541 6.32473 4.96707 6.32363 4.96817C6.32031 4.97147 6.31757 4.97534 6.31481 4.97864C6.25253 5.06241 6.19025 5.14675 6.12796 5.23052C6.12796 5.23327 6.12686 5.23493 6.12521 5.23659C6.12521 5.23659 6.12466 5.23713 6.1241 5.23769C6.123 5.23879 6.12134 5.23933 6.1197 5.23933C6.07671 5.29997 6.03261 5.36005 5.99017 5.42123C5.98191 5.43334 5.97364 5.44547 5.96536 5.4576C5.90198 5.55075 5.84246 5.64665 5.77852 5.73924C5.74656 5.78555 5.71624 5.83294 5.68593 5.87979C5.65506 5.92664 5.6242 5.97349 5.59059 6.01924C5.53712 6.09253 5.49137 6.17246 5.44452 6.25017C5.42413 6.28379 5.40373 6.31742 5.3839 6.35104C5.15737 6.72693 4.93745 7.10668 4.75006 7.50407C4.73903 7.52721 4.72636 7.54871 4.71368 7.57076C4.70101 7.59225 4.68778 7.6143 4.67675 7.63634C4.61283 7.76477 4.55055 7.89375 4.48991 8.02381C4.46731 8.07232 4.44528 8.12082 4.42267 8.16987C4.39346 8.23325 4.36479 8.29719 4.33669 8.36113C4.30086 8.44215 4.26504 8.52372 4.22976 8.60584C4.21489 8.64002 4.20054 8.67474 4.18621 8.70946C4.16802 8.75245 4.14985 8.79544 4.1322 8.83899C4.06937 8.99166 4.00874 9.14599 3.94977 9.30031C3.93268 9.3455 3.9156 9.39071 3.89906 9.43644C3.85883 9.54667 3.81969 9.65691 3.78056 9.7677C3.7712 9.79415 3.76182 9.82061 3.75245 9.84707C3.74528 9.86746 3.73812 9.8884 3.73151 9.90935C3.71332 9.9617 3.69623 10.0146 3.6797 10.0675C3.65931 10.132 3.63946 10.1965 3.61962 10.261C3.60529 10.3073 3.59096 10.353 3.57609 10.3993C3.54247 10.5024 3.50333 10.6044 3.4901 10.7129C3.48955 10.7185 3.48293 10.7234 3.47963 10.7284C3.4631 10.7736 3.45317 10.8199 3.44215 10.8662C3.43664 10.8882 3.43002 10.9103 3.42341 10.9323C3.41679 10.9544 3.41018 10.9764 3.40412 10.9984C3.37876 11.0932 3.35396 11.1886 3.33081 11.2839C3.30932 11.3699 3.28892 11.457 3.26909 11.5435C3.24704 11.6411 3.22609 11.7387 3.20569 11.8362C3.18806 11.9216 3.17098 12.0076 3.15499 12.0936C3.14232 12.1619 3.12964 12.2297 3.11807 12.2981C3.10759 12.3582 3.09822 12.4182 3.0883 12.4783C3.07617 12.5549 3.0646 12.631 3.05413 12.7076C3.04476 12.7765 3.03594 12.8448 3.02712 12.9137C3.00398 13.1028 2.98523 13.2918 2.97035 13.482C2.96649 13.5365 2.96263 13.5906 2.95989 13.6451C2.95657 13.6997 2.95382 13.7537 2.95161 13.8083C2.9472 13.9169 2.9439 14.026 2.94059 14.1346C2.94004 14.1594 2.94004 14.1842 2.93949 14.209C2.93949 14.2166 2.93949 14.2239 2.93949 14.2316C2.93893 14.371 2.94444 14.5099 2.94886 14.6483C2.94886 14.6543 2.94996 14.661 2.94996 14.6669C2.95106 14.6918 2.95216 14.7166 2.95382 14.7414C2.95877 14.8418 2.96705 14.942 2.97752 15.0423C2.98468 15.1101 2.99239 15.1785 3.00122 15.2462C3.00232 15.2562 3.00398 15.2655 3.00508 15.2755C3.02383 15.4133 3.04532 15.5505 3.07232 15.6866C3.12247 15.9412 3.18917 16.1915 3.28066 16.4346C3.28232 16.4384 3.28396 16.4428 3.28562 16.4473C3.35396 16.6269 3.43332 16.8017 3.53088 16.9681C3.69127 17.2421 3.88694 17.4846 4.13662 17.6779C4.16638 17.7012 4.1967 17.7232 4.22756 17.7452C4.25732 17.7656 4.28929 17.7844 4.32016 17.8031C4.32566 17.8069 4.33228 17.8097 4.33835 17.8125C4.34275 17.8147 4.34716 17.8163 4.35156 17.8185C4.35928 17.8224 4.36645 17.8273 4.37141 17.8345C4.37306 17.8367 4.37472 17.84 4.37637 17.8434V17.8423C4.38464 17.8411 4.3918 17.8428 4.39567 17.8517H4.39621C4.40393 17.8517 4.4111 17.8539 4.41496 17.8609C4.41716 17.8609 4.41881 17.8609 4.42046 17.8615H4.42102C4.42598 17.8627 4.43039 17.8649 4.43369 17.8698C4.43369 17.8698 4.43369 17.8698 4.43369 17.8703C4.43369 17.8703 4.43479 17.8703 4.43534 17.8703C4.43645 17.8703 4.43755 17.8703 4.43866 17.8703C4.43976 17.8703 4.4403 17.8708 4.44196 17.8708C4.4425 17.8708 4.44362 17.8708 4.44416 17.8714C4.44528 17.8714 4.44636 17.8726 4.44747 17.8732C4.44747 17.8732 4.44857 17.8732 4.44912 17.8737C4.45022 17.8748 4.45133 17.8759 4.45243 17.877C4.45243 17.877 4.45243 17.877 4.45298 17.877C4.46345 17.888 4.47778 17.8907 4.49101 17.8968C4.76605 18.0186 5.04163 18.1404 5.31667 18.2623C5.4528 18.3224 5.58783 18.3857 5.73167 18.4254C5.87552 18.4651 6.02159 18.492 6.17095 18.4981C6.19575 18.4981 6.22056 18.4981 6.24536 18.4981C6.31977 18.4981 6.39418 18.4981 6.46859 18.4981C6.54078 18.496 6.61244 18.4866 6.68353 18.4756C6.9729 18.4319 7.25068 18.3466 7.5191 18.2314C8.01074 18.0203 8.45443 17.732 8.87055 17.3985C8.96204 17.3253 9.05134 17.2498 9.14008 17.1731C9.44928 17.1787 9.75792 17.1803 10.0671 17.1769C10.3615 17.1737 10.6563 17.1688 10.9506 17.1571C10.965 17.1489 10.9804 17.1489 10.9958 17.1549C11.0003 17.1549 11.0047 17.1549 11.0091 17.1549C11.0267 17.1466 11.0449 17.1472 11.0631 17.1527H11.0763C11.0868 17.1461 11.0978 17.145 11.1088 17.1472C11.1088 17.1472 11.1094 17.1472 11.1099 17.1472H11.1105C11.1143 17.1484 11.1177 17.1495 11.121 17.1506H11.1342C11.1413 17.1461 11.1485 17.1444 11.1557 17.1439C11.1634 17.1439 11.1711 17.1455 11.1794 17.1478C11.1838 17.1478 11.1882 17.1478 11.1926 17.1478C11.1976 17.145 11.2025 17.1434 11.2075 17.1423C11.2174 17.1401 11.2279 17.1412 11.2384 17.145C11.2428 17.145 11.2466 17.145 11.251 17.145C11.251 17.145 11.2521 17.145 11.2527 17.1444C11.267 17.1374 11.2819 17.1374 11.2962 17.1428C11.3006 17.1428 11.305 17.1428 11.3089 17.1428C11.3238 17.1334 11.3387 17.1345 11.3546 17.1401C11.3591 17.1401 11.3635 17.1401 11.3673 17.1401C11.3822 17.1313 11.3976 17.1323 11.4131 17.1374C11.4175 17.1374 11.4219 17.1374 11.4258 17.1374C11.4291 17.1351 11.4318 17.134 11.4346 17.1329C11.4395 17.1313 11.4439 17.1313 11.4489 17.1313C11.4533 17.1313 11.4583 17.1323 11.4627 17.1345C11.5299 17.1313 11.5966 17.1291 11.6639 17.1251C12.1786 17.0948 12.6918 17.054 13.2043 16.9973C13.9826 16.9107 14.7559 16.7945 15.5198 16.6203C16.0401 16.5018 16.5532 16.3596 17.0493 16.1596C17.3155 16.052 17.574 15.9291 17.8132 15.7682C17.9571 15.6712 18.0905 15.5621 18.1973 15.4226C18.2646 15.3339 18.3191 15.2385 18.3401 15.1273C18.3484 15.1184 18.3516 15.108 18.3522 15.097C18.3572 15.017 18.3599 14.9376 18.3527 14.8577L18.3484 14.8582ZM11.4395 13.1722C11.2962 13.1634 11.1535 13.1557 11.0102 13.1496C11.1535 13.1563 11.2962 13.164 11.4395 13.1722ZM8.26096 15.7743C8.23781 15.7947 8.21467 15.8156 8.19152 15.836C8.02893 15.9788 7.86138 16.1138 7.68665 16.2401C7.51193 16.3657 7.3306 16.4825 7.14101 16.5868C7.11399 16.6016 7.08643 16.6164 7.05888 16.6308C6.99549 16.6638 6.93155 16.6952 6.86707 16.7256C6.80259 16.7553 6.737 16.7829 6.67086 16.8088C6.53858 16.8606 6.40299 16.9037 6.263 16.9367C6.20237 16.951 6.14174 16.9631 6.08111 16.9725C6.05962 16.9759 6.03813 16.9791 6.01717 16.9824C5.9345 16.9934 5.85183 17.0001 5.76861 17.0022C5.74105 17.0028 5.71293 17.0033 5.68538 17.0028C5.65727 17.0028 5.6297 17.0017 5.60161 17.0006C5.58949 17.0001 5.5779 16.9984 5.56578 16.9973C5.55421 16.9963 5.54208 16.9946 5.52995 16.9934C5.51452 16.9923 5.50295 16.9858 5.49138 16.9759C5.4583 16.9461 5.42689 16.9152 5.39602 16.8833C5.35027 16.8358 5.30673 16.7862 5.26594 16.7349C5.23894 16.7008 5.21248 16.6655 5.18713 16.6292C5.17446 16.611 5.16233 16.5927 5.1502 16.5745C5.1491 16.5729 5.14854 16.5713 5.148 16.5696C5.14744 16.5669 5.14634 16.5635 5.1458 16.5608C5.14084 16.5559 5.13421 16.5509 5.13037 16.5454L5.12925 16.5442C5.07249 16.4545 5.02124 16.3619 4.97493 16.2664C4.95179 16.2185 4.92974 16.1711 4.90935 16.1221C4.88839 16.0735 4.86912 16.0239 4.85092 15.9737C4.84872 15.9678 4.84927 15.9616 4.84817 15.9551C4.8162 15.8956 4.80021 15.8304 4.78038 15.7671C4.73627 15.6254 4.70155 15.4816 4.67289 15.3361C4.66793 15.3101 4.66298 15.2848 4.65802 15.2589C4.6558 15.2484 4.6547 15.2385 4.6525 15.228C4.6503 15.2154 4.64754 15.2027 4.64533 15.1901C4.64533 15.1867 4.64533 15.184 4.64423 15.1807C4.64313 15.1697 4.64259 15.1581 4.64149 15.147C4.62274 15.0661 4.61447 14.9833 4.6051 14.9006C4.57313 14.6373 4.56101 14.3727 4.56046 14.1081C4.56046 14.0084 4.56156 13.908 4.56432 13.8077C4.56596 13.7482 4.56872 13.6892 4.57203 13.6302C4.78975 13.5784 5.00911 13.5327 5.22902 13.4908C5.6049 13.4197 5.98301 13.3618 6.3622 13.315C6.36827 13.3144 6.37433 13.3133 6.38039 13.3128C6.38756 13.3117 6.39472 13.3111 6.40189 13.3117C6.40631 13.3117 6.41071 13.3128 6.41512 13.3139C6.47409 13.3012 6.53417 13.2946 6.59425 13.2885C6.62181 13.2858 6.64937 13.283 6.67637 13.2803C7.09306 13.234 7.51027 13.1987 7.92806 13.1733C8.04546 13.1662 8.16286 13.1596 8.2797 13.1541C8.57953 13.1397 8.87937 13.1303 9.1792 13.1248C9.34345 13.1215 9.5077 13.1199 9.67195 13.1199C9.90618 13.1199 10.1404 13.1226 10.3741 13.1281C10.3234 13.2125 10.2722 13.2968 10.2198 13.38C10.1818 13.4412 10.1432 13.5018 10.1041 13.5619C10.0341 13.6694 9.96296 13.7758 9.89021 13.8816C9.75572 14.0767 9.61627 14.2679 9.47132 14.4554C9.42557 14.5149 9.37928 14.5738 9.33188 14.6323C9.3236 14.6427 9.31534 14.6532 9.30707 14.6631C9.23873 14.748 9.16928 14.8313 9.09819 14.9134C8.97968 15.0506 8.85787 15.1845 8.73276 15.3157C8.69473 15.3554 8.6567 15.3951 8.61812 15.4343C8.51891 15.5345 8.41639 15.6326 8.31168 15.7279C8.29459 15.7434 8.2775 15.7593 8.26042 15.7748L8.26096 15.7743ZM8.81875 15.7478C8.94001 15.7517 9.06181 15.755 9.18306 15.7572C9.06125 15.755 8.94001 15.7517 8.81875 15.7478ZM16.8338 14.457C16.8304 14.4614 16.825 14.4659 16.8162 14.4724C16.8046 14.4812 16.793 14.4906 16.7808 14.4989C16.7692 14.5077 16.7571 14.516 16.745 14.5247C16.7225 14.5408 16.6992 14.5563 16.6756 14.5711C16.6729 14.5727 16.67 14.5743 16.6673 14.5767C16.648 14.5888 16.6287 14.6009 16.6088 14.6124C16.5797 14.6301 16.551 14.6465 16.5213 14.6631C16.3195 14.7756 16.1073 14.866 15.8907 14.9459C15.6862 15.0208 15.479 15.0865 15.2701 15.1448C14.9708 15.2286 14.6677 15.298 14.3618 15.3587C14.0647 15.4182 13.7665 15.4684 13.4673 15.5119C13.168 15.5554 12.8676 15.5918 12.5667 15.6232C12.468 15.6337 12.3693 15.6431 12.2707 15.6525C12.0728 15.6707 11.8749 15.6861 11.6771 15.6994C11.5779 15.7059 11.4787 15.712 11.38 15.7175C11.1579 15.7302 10.9358 15.7396 10.7136 15.7467C10.6734 15.7478 10.6332 15.7495 10.5924 15.7506C10.5555 15.7517 10.5185 15.7528 10.4811 15.7539C10.572 15.6415 10.6629 15.5296 10.7462 15.411C10.7583 15.3962 10.7704 15.3812 10.782 15.3659C10.96 15.1261 11.1309 14.8819 11.2951 14.6334C11.3039 14.6196 11.3497 14.5501 11.3635 14.5287C11.4676 14.3682 11.5685 14.2062 11.6672 14.042C11.8281 13.773 11.9819 13.5002 12.1279 13.2235C12.4068 13.2477 12.6852 13.2759 12.9635 13.31C12.9839 13.3122 13.0043 13.3166 13.0252 13.3199C13.1498 13.3288 13.2732 13.3475 13.3962 13.3657C13.5543 13.3888 13.7126 13.4142 13.8701 13.4406C14.0829 13.4765 14.2957 13.5162 14.5067 13.5619C14.6209 13.5867 14.7344 13.6121 14.8485 13.6369C14.8496 13.6369 14.8512 13.6369 14.8523 13.6374C14.8534 13.6374 14.8546 13.6374 14.8562 13.638C14.8633 13.6391 14.8716 13.6391 14.8793 13.6402C14.8893 13.6413 14.8992 13.644 14.9069 13.6523C15.1506 13.7146 15.3935 13.7802 15.6323 13.859C15.6543 13.8661 15.6796 13.8684 15.6967 13.8871C15.759 13.8981 15.8158 13.924 15.8741 13.9455C15.9255 13.9643 15.9768 13.9841 16.0275 14.0045C16.1724 14.0618 16.3146 14.1252 16.4523 14.1986C16.5069 14.2271 16.5604 14.2574 16.6133 14.2894C16.6833 14.3319 16.7516 14.3765 16.8156 14.4278C16.8344 14.4426 16.8398 14.4487 16.8326 14.4576L16.8338 14.457Z" fill="#A0A0A0"/>
<path d="M18.3542 10.4841C18.3477 10.3524 18.2975 10.2361 18.2208 10.1302C18.1129 9.97977 17.9734 9.86237 17.8224 9.75876C17.565 9.58239 17.2833 9.45286 16.9951 9.33711C16.8346 9.27263 16.6722 9.21531 16.5078 9.1624C16.2577 9.08193 16.0036 9.01304 15.7484 8.9502C15.4293 8.87194 15.1084 8.80414 14.7855 8.74516C14.5887 8.70934 14.3914 8.67462 14.1936 8.64596C14.1875 8.64596 14.1813 8.64541 14.1754 8.64486C14.1721 8.64486 14.1682 8.6443 14.1649 8.64375C14.1577 8.6432 14.1499 8.6421 14.1429 8.64155C14.1263 8.63935 14.1092 8.63603 14.0932 8.63219C14.0342 8.6228 13.9758 8.61344 13.9169 8.60353C13.8827 8.59856 13.8485 8.5936 13.8144 8.58918C13.8011 8.58698 13.7879 8.58533 13.7747 8.58368C13.6385 8.56714 13.5018 8.55116 13.3657 8.53352C13.326 8.52856 13.2863 8.52526 13.2466 8.52085C13.207 8.51699 13.1673 8.51203 13.1281 8.50431C12.8636 8.47951 12.599 8.45305 12.3339 8.43156C12.297 8.4288 12.2601 8.42549 12.2231 8.42273C11.9949 8.40456 11.7668 8.38911 11.538 8.3781C11.4284 8.37314 11.3181 8.36707 11.2079 8.36155C11.1247 8.35771 11.0409 8.35329 10.9577 8.34998C10.767 8.34282 10.5768 8.33841 10.3861 8.33455C10.315 8.33289 10.2439 8.33179 10.1733 8.33069C10.1733 8.33069 10.304 7.80489 10.3563 7.53923C10.396 7.34026 10.4302 7.14017 10.4605 6.93956C10.4804 6.80507 10.498 6.67059 10.5134 6.53555C10.5294 6.39446 10.5421 6.25281 10.5509 6.11061C10.5603 5.95905 10.5663 5.80693 10.5696 5.65535C10.5735 5.45198 10.5669 5.24915 10.552 5.04632C10.5421 4.91239 10.5294 4.779 10.5123 4.64563C10.4892 4.46319 10.4561 4.28296 10.4125 4.10438C10.3778 3.96163 10.3381 3.81943 10.2852 3.68164C10.2825 3.68164 10.2797 3.68164 10.277 3.68274C10.2742 3.68274 10.2715 3.68384 10.2693 3.6844C10.2604 3.68715 10.2527 3.69157 10.2445 3.69487C10.013 3.79187 9.79414 3.91257 9.58306 4.04706C9.57093 4.05478 9.5577 4.06085 9.55274 4.07572C9.60345 4.39595 9.62715 4.71782 9.6299 5.04191C9.63432 5.50544 9.60014 5.96622 9.53675 6.42532C9.4888 6.77091 9.42542 7.11373 9.34825 7.45434C9.28157 7.74977 9.2044 8.04244 9.11842 8.33235C8.91064 8.33455 8.70229 8.34116 8.49451 8.34778C8.21783 8.35715 7.94113 8.36983 7.66501 8.38747C7.42139 8.4029 7.17723 8.41889 6.93361 8.43982C6.61724 8.46738 6.30143 8.49824 5.98671 8.53683C5.9112 8.69337 5.83789 8.85099 5.76735 9.00973C5.66208 9.24673 5.56287 9.48593 5.46973 9.72734C5.47413 9.72679 5.47799 9.72624 5.4824 9.72569C5.85002 9.67387 6.2193 9.63088 6.58858 9.59396C6.69441 9.58349 6.80022 9.57081 6.90661 9.56144C7.16896 9.5394 7.43186 9.52451 7.69477 9.50798C8.03649 9.48593 8.37876 9.47216 8.72158 9.46223C8.726 9.46223 8.72985 9.46223 8.73427 9.46223C9.02582 9.45397 9.31739 9.4501 9.6095 9.44956C9.68281 9.44956 9.75612 9.44956 9.82998 9.4501C9.99643 9.45066 10.1634 9.45231 10.3299 9.45507C10.5189 9.45837 10.7074 9.46554 10.8965 9.47216C10.8981 9.47216 10.8998 9.47216 10.9014 9.47216C11.0822 9.47876 11.263 9.48539 11.4438 9.49419C11.5827 9.50082 11.7216 9.51074 11.8605 9.52121C11.8902 9.52341 11.92 9.52561 11.9498 9.52782C12.1581 9.5427 12.3659 9.55813 12.5742 9.57412C12.6255 9.57797 12.6762 9.58514 12.7274 9.5901C13.003 9.61435 13.2781 9.64521 13.5525 9.68049C13.6755 9.69593 13.7978 9.71246 13.9207 9.72899C14.1792 9.76483 14.4372 9.80782 14.694 9.85245C14.9415 9.896 15.1884 9.94505 15.4331 10.0007C15.6486 10.0498 15.863 10.1032 16.0757 10.1611C16.3553 10.2372 16.6296 10.3259 16.9009 10.4262C17.1351 10.5133 17.3616 10.6158 17.581 10.7354C17.7319 10.8181 17.8752 10.9107 18.0059 11.0231C18.1245 11.1251 18.228 11.2397 18.297 11.383C18.3244 11.4398 18.3372 11.501 18.3548 11.5605C18.3554 11.442 18.3565 11.3235 18.3571 11.205C18.3571 11.0292 18.3571 10.8528 18.3571 10.677C18.3571 10.6131 18.3592 10.5486 18.356 10.4852L18.3542 10.4841Z" fill="#A0A0A0"/>
<path d="M11.3953 2.0771C11.3529 2.06333 11.3093 2.0534 11.2686 2.03411C11.2686 2.0286 11.2691 2.02308 11.2697 2.01758C11.3204 2.03301 11.3683 2.0545 11.413 2.08316C11.4069 2.08096 11.4008 2.0793 11.3948 2.0771H11.3953Z" fill="#A0A0A0"/>
<path d="M11.248 2.02805C11.248 2.02805 11.2522 2.0299 11.2535 2.03173C11.2535 2.03173 11.2529 2.03173 11.2522 2.03173C11.2473 2.0348 11.2443 2.03235 11.2412 2.02805C11.2437 2.02744 11.2455 2.02682 11.248 2.02805Z" fill="#A0A0A0"/>
<path d="M6.12348 5.23242C6.12348 5.23242 6.12225 5.23735 6.1204 5.23919C6.1204 5.23919 6.11979 5.23981 6.11917 5.24042C6.11794 5.24166 6.11609 5.24227 6.11426 5.24227C6.11426 5.24166 6.11426 5.24104 6.11426 5.24042V5.23858C6.11426 5.23858 6.11794 5.23489 6.11979 5.23367C6.12102 5.23367 6.12225 5.23242 6.12348 5.23242Z" fill="#A0A0A0"/>
<path d="M6.34954 4.94189C6.34954 4.94189 6.34566 4.94578 6.34343 4.94689C6.34066 4.94855 6.33788 4.94966 6.33398 4.95077C6.33398 4.94855 6.33398 4.94689 6.33398 4.94522C6.33398 4.94355 6.33398 4.94189 6.33455 4.94078C6.33566 4.938 6.33677 4.93521 6.33844 4.93299C6.3401 4.93077 6.34288 4.9291 6.3451 4.92688C6.34788 4.92522 6.35065 4.92355 6.35344 4.92188C6.354 4.92577 6.354 4.9291 6.35344 4.93243C6.35344 4.93521 6.35176 4.93689 6.35065 4.93911C6.35065 4.93967 6.34954 4.94078 6.34954 4.94133V4.94189Z" fill="#A0A0A0"/>
<path d="M6.43707 4.82793C6.43707 4.82793 6.43579 4.82793 6.43579 4.82858C6.43514 4.82858 6.43386 4.82858 6.43323 4.82858C6.43258 4.82858 6.43194 4.82858 6.43066 4.82858C6.43386 4.82474 6.43707 4.82025 6.44028 4.81641C6.44028 4.81769 6.44028 4.81832 6.44028 4.8196C6.44028 4.82281 6.439 4.82474 6.43643 4.82665L6.43707 4.82793Z" fill="#A0A0A0"/>
<path d="M6.48145 4.75826C6.48145 4.75508 6.48399 4.75254 6.48653 4.75127C6.4878 4.75127 6.48907 4.75063 6.49034 4.75C6.49034 4.7519 6.48971 4.75254 6.48907 4.75381C6.48907 4.75508 6.48907 4.75635 6.4878 4.75762C6.4878 4.75826 6.48653 4.75889 6.4859 4.75953C6.48463 4.76018 6.48272 4.7608 6.48145 4.76145C6.48145 4.76018 6.48145 4.75953 6.48145 4.75826Z" fill="#A0A0A0"/>
<path d="M10.3936 1.63462C10.4044 1.63004 10.4113 1.63462 10.4176 1.64322C10.4079 1.64552 10.3976 1.64781 10.3936 1.6352V1.63462Z" fill="#A0A0A0"/>
<path d="M10.3936 1.63477H10.3951L10.3936 1.63637V1.63477Z" fill="#A0A0A0"/>
<path d="M7.78125 3.37337C7.78503 3.37023 7.78819 3.36706 7.79198 3.36328C7.79198 3.3639 7.79198 3.36517 7.79198 3.3658C7.79198 3.36833 7.79072 3.36959 7.78946 3.37149H7.78882C7.78882 3.37149 7.78503 3.37337 7.78125 3.37337Z" fill="#A0A0A0"/>
<path d="M7.8465 3.30372C7.84944 3.30195 7.85296 3.30078 7.85707 3.30078C7.85707 3.30607 7.8559 3.30901 7.85355 3.31018C7.85002 3.31253 7.84356 3.31077 7.83887 3.31135C7.84121 3.30783 7.84356 3.30549 7.8465 3.30372Z" fill="#A0A0A0"/>
<path d="M7.88915 3.27797C7.88915 3.27797 7.88787 3.28309 7.88596 3.28502C7.88596 3.28502 7.88468 3.28565 7.88403 3.2863C7.88275 3.28693 7.88082 3.28758 7.87891 3.28758C7.8821 3.28372 7.88596 3.27925 7.88915 3.27539C7.88915 3.27669 7.88915 3.27732 7.88915 3.2786V3.27797Z" fill="#A0A0A0"/>
<path d="M8.43489 2.84622C8.43489 2.84622 8.43363 2.84874 8.43301 2.85C8.43111 2.8519 8.42859 2.85252 8.4248 2.85252C8.42795 2.84874 8.43173 2.84558 8.43553 2.8418C8.43553 2.8437 8.43553 2.84496 8.43553 2.84686L8.43489 2.84622Z" fill="#A0A0A0"/>
<path d="M8.42513 2.85156C8.42513 2.85156 8.42513 2.85346 8.42513 2.85408C8.42513 2.85661 8.42387 2.85788 8.42261 2.85851C8.42134 2.85914 8.42008 2.85914 8.41756 2.85851C8.41692 2.85851 8.41566 2.85851 8.41504 2.85725C8.41882 2.85535 8.42197 2.85346 8.42577 2.85156H8.42513Z" fill="#A0A0A0"/>
<path d="M11.2649 2.01379C10.9926 1.89253 10.7198 1.77183 10.4475 1.65002C10.4365 1.64506 10.4255 1.64892 10.4155 1.64286C10.4062 1.64506 10.3963 1.64726 10.3924 1.63514C10.3814 1.6401 10.3709 1.63514 10.3604 1.63128C10.1218 1.55963 9.8776 1.53758 9.62904 1.55026C9.29999 1.56735 8.98472 1.64782 8.67828 1.76632C8.58182 1.80324 8.48703 1.84403 8.39443 1.88757C8.37128 1.89859 8.34812 1.90962 8.32498 1.92119C8.29797 1.93442 8.27097 1.94765 8.24451 1.96198C8.20869 1.98017 8.17341 1.99891 8.13758 2.0182C7.95184 2.11961 7.77161 2.2326 7.59689 2.35386C7.56052 2.37921 7.52414 2.40457 7.48832 2.43047L7.46682 2.4459C7.38084 2.50874 7.29651 2.57266 7.21384 2.63881C7.0066 2.80361 6.80763 2.97887 6.61527 3.16241C6.0812 3.67224 5.60664 4.23497 5.17234 4.83134C5.16131 4.84677 5.15028 4.86276 5.13927 4.87819C5.13927 4.87819 5.13817 4.88204 5.13706 4.88315C5.13595 4.88425 5.13431 4.8848 5.13211 4.88535C5.09297 4.94101 5.05438 4.99613 5.01525 5.0518C4.95021 5.1444 4.88629 5.23699 4.82345 5.33125C4.76393 5.42053 4.70495 5.51092 4.64707 5.60131C4.60078 5.67297 4.55559 5.74516 4.51094 5.81792C4.47126 5.88295 4.43157 5.94745 4.39244 6.01248C4.33733 6.10452 4.28276 6.1971 4.22874 6.2908C4.20174 6.33765 4.17528 6.38396 4.14883 6.43135C4.14607 6.43686 4.14222 6.44182 4.1389 6.44734C4.1389 6.45341 4.1367 6.45835 4.1345 6.46332C4.13229 6.46663 4.13009 6.47048 4.12843 6.4738C4.10363 6.51789 4.07938 6.56254 4.05513 6.60717C3.96364 6.77418 3.87435 6.94283 3.78837 7.1126C3.75199 7.18425 3.71616 7.25645 3.68088 7.32864C3.49019 7.71887 3.31326 8.11516 3.15067 8.51696C3.06414 8.73026 2.98202 8.94522 2.90375 9.16126C2.86241 9.27591 2.82162 9.3911 2.78249 9.50685C2.71029 9.72069 2.64414 9.93621 2.57966 10.1523C2.5532 10.241 2.5273 10.3303 2.50251 10.4196C2.50195 10.4218 2.5014 10.424 2.50085 10.4262C2.46172 10.5662 2.42534 10.7067 2.39117 10.8478C2.35975 10.9746 2.32943 11.1019 2.30133 11.2298C2.27708 11.3389 2.25503 11.4486 2.23299 11.5583C2.22803 11.5842 2.22306 11.6101 2.2181 11.6365C2.2159 11.647 2.21424 11.6575 2.21204 11.668C2.21148 11.6718 2.21038 11.6757 2.20983 11.6801C2.20597 11.701 2.20157 11.7214 2.19771 11.7424C2.16629 11.9138 2.13819 12.0857 2.11393 12.2588C2.09024 12.4258 2.06928 12.5923 2.05165 12.7598C2.04779 12.7973 2.04449 12.8348 2.04062 12.8723C2.04062 12.875 2.04007 12.8778 2.04007 12.8805C2.03732 12.9092 2.03566 12.9296 2.03346 12.95C2.02574 13.0431 2.01913 13.1368 2.01362 13.23C2.0081 13.3237 2.0037 13.4173 2.00094 13.5111C2.00094 13.5232 2.00094 13.5353 1.99984 13.5474C1.99433 13.7277 1.99323 13.9073 1.99874 14.087C2.00424 14.2567 2.01362 14.426 2.0296 14.5952C2.04503 14.7638 2.06652 14.932 2.09574 15.1C2.11007 15.1822 2.1255 15.2637 2.14314 15.3448C2.20157 15.6182 2.28038 15.886 2.38841 16.1451C2.39612 16.1632 2.40329 16.1809 2.41156 16.1991C2.41927 16.2168 2.42754 16.2349 2.43526 16.2525C2.454 16.2944 2.47385 16.3357 2.49424 16.3765C2.5284 16.4449 2.56479 16.5115 2.60337 16.5766C2.70918 16.7552 2.83375 16.9212 2.98146 17.071C3.02005 17.1107 3.06027 17.1482 3.10162 17.184C3.17933 17.2518 3.262 17.3141 3.35018 17.3698C3.36673 17.3803 3.38601 17.3863 3.39814 17.4023C3.39979 17.4045 3.40145 17.4072 3.40255 17.4099C3.41082 17.4083 3.41688 17.4099 3.41909 17.4188C3.45325 17.427 3.48081 17.4502 3.51223 17.464C3.67978 17.5384 3.84679 17.6128 4.01434 17.6873C4.1097 17.7297 4.2056 17.771 4.3015 17.8129L4.31363 17.8019C4.28276 17.7826 4.25079 17.7643 4.22103 17.744C4.18961 17.7225 4.15985 17.6999 4.13009 17.6768C3.88041 17.4828 3.68474 17.2408 3.52436 16.9668C3.4268 16.8004 3.34744 16.6257 3.27909 16.446C3.27744 16.4416 3.27578 16.4377 3.27413 16.4333C3.18263 16.1903 3.11595 15.94 3.06579 15.6853C3.03878 15.5492 3.01729 15.4121 2.99855 15.2742C2.99745 15.2643 2.99579 15.2549 2.99469 15.245C2.98587 15.1773 2.97816 15.1089 2.97099 15.041C2.96051 14.9408 2.9528 14.841 2.9473 14.7402C2.94618 14.7153 2.94454 14.6905 2.94343 14.6658C2.94343 14.6597 2.94288 14.653 2.94233 14.647C2.93737 14.5081 2.93241 14.3691 2.93295 14.2303C2.93295 14.2226 2.93295 14.2148 2.93295 14.2078C2.93295 14.1829 2.93295 14.1581 2.93407 14.1333C2.93737 14.0242 2.94067 13.9156 2.94508 13.807C2.9473 13.7525 2.95004 13.6985 2.95335 13.6439C2.95666 13.5893 2.95997 13.5353 2.96383 13.4807C2.97816 13.2906 2.99745 13.1015 3.02059 12.9125C3.02886 12.8436 3.03768 12.7752 3.0476 12.7063C3.05807 12.6297 3.06964 12.5531 3.08177 12.4771C3.09115 12.417 3.10106 12.3569 3.11153 12.2968C3.12311 12.2285 3.13578 12.1607 3.14847 12.0924C3.16444 12.0064 3.18153 11.9209 3.19917 11.835C3.21956 11.7374 3.24051 11.6393 3.26255 11.5423C3.2824 11.4558 3.30279 11.3692 3.32429 11.2827C3.34798 11.1873 3.37224 11.092 3.39759 10.9972C3.40366 10.9751 3.41026 10.9531 3.41688 10.9311C3.42349 10.909 3.43011 10.887 3.43562 10.8649C3.44719 10.8186 3.45657 10.7723 3.4731 10.7271C3.47696 10.7222 3.48303 10.7172 3.48357 10.7117C3.4968 10.6026 3.53593 10.5006 3.56955 10.3981C3.58444 10.3523 3.59877 10.306 3.61309 10.2597C3.63293 10.1953 3.65278 10.1308 3.67317 10.0663C3.68971 10.0134 3.7068 9.96045 3.72499 9.90809C3.73215 9.8877 3.73876 9.86676 3.74592 9.84581C3.75529 9.81935 3.76467 9.7929 3.77404 9.76644C3.81372 9.65621 3.85229 9.54543 3.89254 9.4352C3.90907 9.38999 3.92616 9.34426 3.94325 9.29905C4.00221 9.14417 4.06285 8.99041 4.12567 8.83773C4.14332 8.7942 4.1615 8.7512 4.17969 8.70821C4.19457 8.67348 4.2089 8.63932 4.22323 8.6046C4.25851 8.52302 4.29434 8.44145 4.33016 8.35988C4.35826 8.29594 4.38692 8.23255 4.41614 8.16861C4.43819 8.11956 4.46079 8.07161 4.48338 8.02256C4.54401 7.89249 4.60574 7.76351 4.67023 7.6351C4.68125 7.61249 4.69448 7.591 4.70715 7.5695C4.71984 7.54801 4.73251 7.52597 4.74353 7.50282C4.93092 7.10543 5.15084 6.72567 5.37737 6.34978C5.39776 6.31616 5.4176 6.28254 5.43799 6.24892C5.4854 6.17066 5.53059 6.0913 5.58406 6.018C5.61767 5.97225 5.64853 5.92594 5.67939 5.87855C5.71026 5.8317 5.74057 5.7843 5.77199 5.738C5.83593 5.64541 5.89545 5.54951 5.95884 5.45635C5.9671 5.44422 5.97537 5.43211 5.98363 5.41998C6.02608 5.3588 6.07017 5.29873 6.11316 5.23809C6.11316 5.23755 6.11316 5.23699 6.11316 5.23644V5.23479C6.11316 5.23479 6.11646 5.23148 6.11812 5.23038C6.11922 5.23038 6.12032 5.22928 6.12143 5.22928C6.18371 5.1455 6.24599 5.06117 6.30827 4.9774C6.31103 4.97354 6.31433 4.97023 6.31709 4.96693C6.31875 4.96527 6.31985 4.96361 6.32095 4.96251C6.32481 4.9581 6.32866 4.95424 6.33252 4.94984C6.33252 4.94764 6.33252 4.94598 6.33252 4.94433C6.33252 4.94267 6.33252 4.94101 6.33308 4.93991C6.33418 4.93661 6.33528 4.93441 6.33694 4.9322C6.33859 4.92999 6.34135 4.92834 6.34355 4.92614C6.34631 4.92448 6.34905 4.92282 6.35181 4.92118C6.35347 4.91952 6.35457 4.91788 6.35568 4.91622C6.37993 4.8859 6.40473 4.85559 6.42898 4.82528C6.43173 4.82197 6.43449 4.81811 6.43725 4.81481C6.43725 4.81259 6.43835 4.81095 6.43945 4.80874C6.44001 4.80709 6.44111 4.80488 6.44221 4.80322C6.44441 4.79992 6.44717 4.79662 6.44992 4.79386C6.44992 4.79331 6.45102 4.79276 6.45158 4.7922C6.46205 4.78229 6.47528 4.77402 6.47803 4.75913C6.47803 4.75803 6.47803 4.75748 6.47803 4.75637C6.47803 4.75363 6.48024 4.75141 6.48244 4.75031C6.48354 4.75031 6.48464 4.74977 6.48574 4.74921C6.49291 4.7437 6.49953 4.7382 6.50504 4.73158C6.50669 4.72992 6.5078 4.72827 6.5089 4.72717C6.5133 4.72221 6.51716 4.71669 6.52102 4.71118C6.52599 4.70402 6.53095 4.6963 6.53591 4.68859C6.53976 4.68307 6.54362 4.67702 6.54748 4.6715C6.55024 4.66764 6.55299 4.66379 6.55575 4.66047C6.57448 4.63733 6.59377 4.61418 6.61252 4.59158C6.74479 4.4301 6.88094 4.27246 7.02093 4.11813C7.13061 3.99688 7.24416 3.87948 7.35879 3.76318C7.37863 3.74279 7.39902 3.72239 7.41887 3.70256C7.45635 3.66508 7.49548 3.63035 7.53407 3.59453C7.5495 3.5802 7.56493 3.56641 7.57981 3.55154C7.58312 3.54878 7.58586 3.54548 7.58918 3.54272C7.63713 3.49642 7.68619 3.45012 7.73468 3.40437C7.73578 3.40327 7.73688 3.40272 7.738 3.40162C7.75067 3.39004 7.765 3.37957 7.77823 3.3691C7.78153 3.36634 7.78429 3.36358 7.78759 3.36028C7.7887 3.35918 7.78925 3.35863 7.79035 3.35752C7.80523 3.34209 7.82067 3.32721 7.83555 3.31178C7.83775 3.30847 7.83995 3.30626 7.84271 3.30462C7.84547 3.30296 7.84877 3.30186 7.85264 3.30186C7.85704 3.3013 7.8609 3.2991 7.86421 3.2969C7.86641 3.29524 7.86862 3.29304 7.87083 3.29083C7.87247 3.28917 7.87357 3.28697 7.87523 3.28477C7.87799 3.28147 7.88129 3.2776 7.88405 3.2743C7.92318 3.23958 7.96231 3.2054 8.00255 3.17178C8.00862 3.16683 8.01468 3.16187 8.02074 3.15635C8.05931 3.12383 8.09846 3.09186 8.13814 3.0599C8.22688 2.9888 8.31836 2.91991 8.41152 2.85487C8.41482 2.85321 8.41757 2.85156 8.42089 2.8499H8.42143C8.42419 2.84604 8.4275 2.84274 8.4308 2.83998C8.45175 2.82455 8.47324 2.80856 8.49419 2.79369C8.53663 2.76282 8.58017 2.73306 8.62316 2.70385C8.64466 2.68952 8.66671 2.67463 8.68875 2.66086C8.7108 2.64653 8.73284 2.6322 8.75489 2.61841C8.82157 2.57653 8.88882 2.53574 8.95716 2.49661C9.03157 2.45362 9.10764 2.41228 9.18369 2.37259C9.41298 2.25465 9.64998 2.15489 9.898 2.08104C9.91675 2.07552 9.93604 2.07001 9.95477 2.06449C10.0871 2.02757 10.2199 1.99946 10.3549 1.98127C10.4315 1.97079 10.5092 1.96363 10.587 1.96032C10.6454 1.95758 10.7038 1.95702 10.7628 1.95868C10.7826 1.95922 10.8019 1.95978 10.8218 1.96088C10.8807 1.96418 10.9392 1.97025 10.9976 1.97851C11.0786 1.98954 11.1585 2.00497 11.2384 2.02536C11.2406 2.02481 11.2423 2.02426 11.2445 2.02536C11.2467 2.02536 11.2484 2.02702 11.2495 2.02867C11.2511 2.02922 11.2533 2.02977 11.255 2.03033C11.2588 2.03143 11.2621 2.03253 11.266 2.03419C11.266 2.02867 11.2665 2.02316 11.2671 2.01764C11.266 2.01654 11.2649 2.01544 11.2632 2.01489L11.2649 2.01379Z" fill="#A0A0A0"/>
<path d="M10.3936 1.63517C10.3898 1.61808 10.3732 1.61643 10.3611 1.61091C10.1263 1.50674 9.8915 1.40202 9.65561 1.29896C9.59277 1.2714 9.53215 1.23943 9.46711 1.21738C9.45994 1.22179 9.45222 1.22124 9.44451 1.21848C9.28302 1.16557 9.11546 1.13912 8.94681 1.12864C8.79193 1.11928 8.6365 1.12864 8.48272 1.14904C8.35596 1.16612 8.2314 1.19258 8.10794 1.22565C7.86818 1.29014 7.63779 1.37777 7.41568 1.48745C7.33025 1.52989 7.24757 1.57785 7.16324 1.62249C7.13514 1.63737 7.10592 1.6506 7.07892 1.66658C6.8375 1.81044 6.60327 1.96531 6.38114 2.13782C6.32547 2.18082 6.26871 2.22271 6.2169 2.26955C6.18328 2.29987 6.15075 2.33073 6.11437 2.35719C6.10777 2.36215 6.1006 2.36711 6.09233 2.37207C6.08627 2.37758 6.08021 2.38254 6.07414 2.3875V2.38861C6.07138 2.39577 6.06864 2.40239 6.06422 2.40624C6.06147 2.40845 6.05871 2.40956 6.05541 2.4101C6.05375 2.4101 6.05155 2.4101 6.04989 2.4101H6.04879C6.04879 2.4101 6.04548 2.409 6.04328 2.40845C6.04162 2.40956 6.03998 2.41066 6.03886 2.41176C6.01959 2.42553 6.0091 2.44924 5.99147 2.46301C5.98871 2.46522 5.98596 2.46687 5.9832 2.46852C5.93691 2.49277 5.9088 2.53632 5.86745 2.56608C5.82778 2.59474 5.7947 2.63277 5.75833 2.66639C5.57808 2.83229 5.40777 3.00811 5.23912 3.18559C5.18731 3.24016 5.14102 3.29857 5.09141 3.35534C5.06275 3.38786 5.03078 3.41652 5.00267 3.4485C4.92606 3.53613 4.85165 3.62597 4.77614 3.71415C4.71992 3.77974 4.66701 3.84754 4.61686 3.91753C4.57717 3.9732 4.52978 4.02281 4.48733 4.07627C4.35891 4.24107 4.23711 4.41081 4.1153 4.58002C3.99515 4.74703 3.88491 4.92066 3.77082 5.09206C3.66831 5.24584 3.57405 5.40512 3.47651 5.56276C3.44067 5.62118 3.4087 5.6818 3.37232 5.74024C3.31004 5.84055 3.25218 5.94361 3.19761 6.04833C3.16344 6.08911 3.14305 6.13872 3.11714 6.18447C3.06312 6.28037 3.01132 6.37738 2.96447 6.47714C2.94958 6.50912 2.92809 6.53612 2.91266 6.56808C2.86911 6.65682 2.82502 6.74556 2.77927 6.83375C2.66519 7.05532 2.56487 7.28295 2.4607 7.50948C2.34771 7.7542 2.2474 8.00496 2.1482 8.25575C2.08095 8.42606 2.01317 8.59637 1.9597 8.77164C1.95087 8.8003 1.93434 8.8262 1.92443 8.85432C1.87262 9.00534 1.8208 9.1558 1.77175 9.30737C1.726 9.44681 1.68301 9.58736 1.64167 9.72791C1.602 9.8635 1.56396 9.99908 1.52759 10.1352C1.45649 10.3992 1.39144 10.6649 1.33578 10.9322C1.32145 11.0033 1.30712 11.0744 1.29334 11.1455C1.24594 11.3875 1.20405 11.6311 1.16988 11.8758C1.13791 12.1084 1.11146 12.3415 1.09051 12.5752C1.08886 12.5967 1.08721 12.6182 1.08555 12.6397C1.07563 12.7676 1.06791 12.896 1.06295 13.025C1.05689 13.1721 1.05579 13.3193 1.05469 13.4665C1.05469 13.5364 1.06185 13.607 1.0613 13.6776C1.0602 13.785 1.06957 13.892 1.07563 13.9989C1.07784 14.038 1.07949 14.0777 1.08335 14.1174C1.0839 14.124 1.085 14.1312 1.08555 14.1378C1.09823 14.2409 1.1065 14.3445 1.12083 14.447C1.13461 14.5468 1.14839 14.6465 1.16657 14.7451C1.19303 14.883 1.21783 15.0207 1.26027 15.1546C1.2735 15.1966 1.28066 15.2407 1.29279 15.2836C1.31814 15.3773 1.34846 15.4699 1.38153 15.5608C1.42948 15.6915 1.4846 15.8194 1.54412 15.9451C1.63616 16.138 1.75026 16.3176 1.88419 16.4841C2.01095 16.6422 2.15591 16.7817 2.32181 16.8985C2.32843 16.9035 2.3356 16.9079 2.34276 16.9124C2.35488 16.92 2.367 16.9277 2.37913 16.9355C2.38575 16.9398 2.39292 16.9443 2.40008 16.9487C2.42322 16.9631 2.44583 16.9779 2.46787 16.9939C2.46787 16.9939 2.46843 16.9939 2.46897 16.9945C2.47559 16.9994 2.4822 17.0044 2.48882 17.0099C2.48882 17.0109 2.48992 17.012 2.49046 17.0133C2.49433 17.0187 2.50205 17.0192 2.50811 17.022C2.7947 17.1488 3.08077 17.2755 3.36737 17.4024C3.37894 17.4072 3.38997 17.415 3.40374 17.4117C3.4021 17.4089 3.401 17.4067 3.39934 17.404C3.38721 17.3879 3.36792 17.382 3.35139 17.3715C3.26375 17.3158 3.18053 17.2535 3.10281 17.1856C3.06148 17.1499 3.02123 17.1118 2.98266 17.0727C2.83495 16.9228 2.71038 16.7563 2.60456 16.5783C2.56597 16.5133 2.52961 16.4466 2.49543 16.3782C2.47503 16.3374 2.4552 16.2961 2.43645 16.2542C2.42818 16.236 2.42047 16.2185 2.41275 16.2002C2.40504 16.182 2.39732 16.1643 2.3896 16.1463C2.28158 15.8871 2.20331 15.6193 2.14434 15.3459C2.1267 15.2649 2.11127 15.1833 2.09694 15.1012C2.06828 14.9337 2.04677 14.7655 2.0308 14.5964C2.01481 14.4277 2.00544 14.258 1.99994 14.0882C1.99442 13.9085 1.99552 13.7283 2.00104 13.5486C2.00158 13.5364 2.00158 13.5243 2.00214 13.5122C2.00544 13.4185 2.00985 13.3248 2.01481 13.2311C2.02033 13.138 2.02694 13.0443 2.03466 12.9511C2.03631 12.9307 2.03851 12.9103 2.04127 12.8817C2.04127 12.8789 2.04183 12.8762 2.04183 12.8734C2.04513 12.8359 2.04843 12.7984 2.05284 12.761C2.06993 12.5934 2.09142 12.4264 2.11512 12.26C2.13993 12.0869 2.16803 11.9149 2.19891 11.7435C2.20276 11.7226 2.20717 11.7022 2.21102 11.6812C2.21158 11.6774 2.21268 11.6735 2.21324 11.6691C2.21544 11.6586 2.21709 11.6482 2.2193 11.6377C2.22425 11.6112 2.22921 11.5853 2.23418 11.5594C2.25567 11.4497 2.27827 11.3401 2.30252 11.2309C2.33064 11.1031 2.36094 10.9757 2.39236 10.849C2.42708 10.7079 2.46346 10.5673 2.50205 10.4273C2.50205 10.4251 2.50315 10.4229 2.50369 10.4207C2.5285 10.3314 2.5544 10.2421 2.58086 10.1534C2.64534 9.93735 2.71203 9.72184 2.78369 9.50799C2.82282 9.39225 2.86361 9.27705 2.90494 9.16242C2.98321 8.9458 3.06534 8.73085 3.15186 8.5181C3.31446 8.11631 3.49083 7.72002 3.68208 7.3298C3.71736 7.25759 3.75319 7.18539 3.78956 7.11374C3.87555 6.94398 3.96483 6.77532 4.05633 6.60832C4.08058 6.56368 4.10538 6.51903 4.12963 6.47494C4.13184 6.47164 4.13404 6.46777 4.1357 6.46447C4.13844 6.45951 4.14065 6.45455 4.1401 6.44848C4.14341 6.44298 4.14727 6.43746 4.15003 6.43251C4.17648 6.38566 4.20293 6.33881 4.22994 6.29196C4.28396 6.1988 4.33797 6.1062 4.39363 6.01362C4.43277 5.94858 4.47246 5.88353 4.51213 5.81905C4.55678 5.7463 4.60198 5.6741 4.64827 5.60245C4.70615 5.51205 4.76511 5.42165 4.82465 5.33237C4.88747 5.23813 4.95141 5.14553 5.01645 5.05293C5.05504 4.99727 5.09417 4.94215 5.13329 4.88648C5.13329 4.88538 5.13329 4.88426 5.13329 4.88316C5.13329 4.88262 5.13385 4.88152 5.1344 4.88097C5.1355 4.87932 5.13771 4.87876 5.13991 4.87876C5.15093 4.86333 5.16141 4.84735 5.17298 4.83192C5.60732 4.23556 6.08187 3.67337 6.61594 3.16299C6.8083 2.97945 7.00671 2.80418 7.21451 2.63939C7.29718 2.57325 7.3815 2.50931 7.46748 2.44648L7.48899 2.43105C7.52481 2.40514 7.56118 2.37978 7.59756 2.35444C7.77283 2.23318 7.95251 2.12019 8.13825 2.01878C8.17352 1.99949 8.20936 1.98074 8.24518 1.96256C8.27218 1.94878 8.29864 1.935 8.32564 1.92177C8.34879 1.9102 8.37195 1.89917 8.3951 1.88815C8.48824 1.84461 8.58249 1.80382 8.67895 1.76689C8.98539 1.64895 9.30066 1.56848 9.62969 1.55084C9.87772 1.53761 10.1219 1.55966 10.3611 1.63186C10.3716 1.63517 10.382 1.64013 10.3931 1.63572L10.3936 1.63517Z" fill="#A0A0A0"/>
<path d="M5.13493 4.8837C5.13493 4.8837 5.13919 4.88086 5.14204 4.88086C5.14204 4.8837 5.1406 4.88583 5.13919 4.88725C5.13777 4.88867 5.13565 4.88939 5.13281 4.89009C5.13281 4.88867 5.13281 4.88725 5.13281 4.88583C5.13281 4.88511 5.13351 4.8837 5.13423 4.883L5.13493 4.8837Z" fill="#A0A0A0"/>
<path d="M6.04713 2.39338C6.05047 2.3895 6.05435 2.38727 6.05992 2.38672C6.06325 2.38672 6.06769 2.38672 6.07215 2.38783V2.38894C6.06936 2.39616 6.06658 2.40284 6.06214 2.40672C6.05936 2.40895 6.05659 2.41006 6.05324 2.41061C6.05158 2.41061 6.04936 2.41061 6.04769 2.41061H6.04658C6.04658 2.41061 6.04325 2.4095 6.04102 2.40895C6.04213 2.40228 6.04436 2.39673 6.04769 2.39338H6.04713Z" fill="#A0A0A0"/>
<path d="M9.41514 1.19495C9.20184 1.0996 8.988 1.00701 8.7758 0.910556C8.53274 0.799771 8.2803 0.731427 8.01298 0.71875C7.94574 0.71875 7.87795 0.71875 7.81071 0.719301C7.78425 0.719301 7.7578 0.719301 7.7319 0.719301C7.59741 0.726466 7.46458 0.746308 7.33285 0.774418C6.94428 0.857093 6.58272 1.00921 6.23604 1.19992C5.88715 1.39172 5.56307 1.62101 5.25497 1.87234C5.21584 1.9043 5.1734 1.93351 5.13923 1.9721C5.13647 1.9732 5.13371 1.9754 5.13207 1.97816V1.98147C5.13207 1.98147 5.13097 1.98147 5.13041 1.98147C5.12931 1.98147 5.12876 1.98147 5.12876 1.98147C5.11994 1.98863 5.11112 1.99525 5.10231 2.00242C4.76113 2.29453 4.44422 2.61144 4.14438 2.946C3.78833 3.34394 3.45983 3.76393 3.15283 4.20046C2.69537 4.85082 2.29027 5.53317 1.92925 6.2414C1.68563 6.71871 1.46407 7.20649 1.26455 7.70418C1.05676 8.22338 0.866061 8.74919 0.712837 9.28768C0.695751 9.3472 0.674807 9.40618 0.657721 9.46571C0.532055 9.90939 0.423476 10.3569 0.338045 10.81C0.265292 11.1941 0.20742 11.58 0.169389 11.9691C0.14128 12.2513 0.121989 12.534 0.123092 12.8179C0.123092 12.9469 0.123643 13.0758 0.124194 13.2048C0.125847 13.2224 0.126399 13.2401 0.12695 13.2577C0.127501 13.2853 0.12695 13.3123 0.125848 13.3398C0.12695 13.4969 0.140178 13.6529 0.155059 13.8094C0.179862 14.0646 0.218443 14.317 0.275212 14.5668C0.345762 14.8797 0.442216 15.1835 0.579455 15.474C0.726616 15.7848 0.91346 16.0676 1.16589 16.304C1.31305 16.4418 1.47509 16.5581 1.65753 16.6435C1.81958 16.7196 1.98382 16.7907 2.14807 16.8629C2.26051 16.9125 2.37184 16.966 2.48648 17.01C2.47987 17.0051 2.47325 16.9995 2.46664 16.9946C2.46664 16.9946 2.46608 16.9946 2.46554 16.9941C2.44349 16.9781 2.42089 16.9632 2.39774 16.9488C2.39058 16.9445 2.38397 16.94 2.3768 16.9356C2.36468 16.9279 2.35255 16.9207 2.34042 16.9125C2.33326 16.908 2.32665 16.9031 2.31948 16.8987C2.15358 16.7813 2.00918 16.6424 1.88186 16.4843C1.74792 16.3177 1.63384 16.1381 1.54178 15.9452C1.48172 15.8196 1.4266 15.6917 1.37919 15.561C1.34612 15.47 1.31581 15.3775 1.29046 15.2838C1.27888 15.2414 1.27117 15.1973 1.25794 15.1548C1.2155 15.0208 1.19015 14.8831 1.16424 14.7453C1.1455 14.6467 1.13227 14.5469 1.11849 14.4471C1.10416 14.3446 1.09534 14.241 1.08322 14.1379C1.08267 14.1313 1.08157 14.1241 1.08101 14.1175C1.07716 14.0784 1.0755 14.0387 1.0733 13.999C1.06779 13.8921 1.05842 13.7852 1.05897 13.6777C1.05897 13.6077 1.0518 13.5372 1.05235 13.4666C1.05346 13.3194 1.05511 13.1723 1.06062 13.0251C1.06558 12.8967 1.0733 12.7683 1.08322 12.6399C1.08487 12.6184 1.08653 12.5969 1.08818 12.5754C1.10912 12.3417 1.13558 12.1085 1.16755 11.8759C1.20172 11.6312 1.24361 11.3876 1.29101 11.1457C1.30479 11.0745 1.31912 11.0035 1.33345 10.9324C1.38856 10.6645 1.45416 10.3994 1.52525 10.1354C1.56163 9.99922 1.59966 9.86309 1.63934 9.72806C1.68069 9.58696 1.72367 9.44696 1.76942 9.30753C1.81902 9.15595 1.87083 9.00493 1.92209 8.85447C1.93145 8.82581 1.94854 8.7999 1.95737 8.7718C2.01138 8.59652 2.07863 8.42621 2.14586 8.2559C2.24508 8.00512 2.34538 7.75489 2.45838 7.50963C2.56254 7.28365 2.66285 7.05547 2.77695 6.83391C2.82214 6.74571 2.86678 6.65697 2.91033 6.56824C2.92576 6.53682 2.9478 6.50926 2.96213 6.4773C3.00898 6.37753 3.06079 6.28053 3.11481 6.18464C3.14071 6.13889 3.1611 6.08929 3.19528 6.04851C3.24984 5.94378 3.30771 5.84071 3.37 5.74041C3.40638 5.68253 3.43834 5.62135 3.47416 5.56293C3.57117 5.40529 3.66543 5.24656 3.76849 5.09224C3.88257 4.92083 3.99281 4.7472 4.11296 4.58021C4.23478 4.411 4.35658 4.24124 4.485 4.07644C4.52689 4.02242 4.57429 3.97337 4.61453 3.91771C4.66468 3.84771 4.7176 3.77991 4.77381 3.71432C4.84932 3.62558 4.92373 3.53574 5.00034 3.44867C5.02844 3.4167 5.06042 3.38803 5.08908 3.35552C5.13868 3.29929 5.18498 3.24033 5.23679 3.18576C5.40545 3.00828 5.57576 2.83246 5.75597 2.66656C5.79235 2.63294 5.82543 2.59491 5.8651 2.56625C5.90644 2.53649 5.934 2.49294 5.98085 2.4687C5.98361 2.46704 5.98691 2.46538 5.98911 2.46318C6.00675 2.44941 6.01723 2.4257 6.03651 2.41193C6.03817 2.41083 6.03983 2.40972 6.04093 2.40862C6.04203 2.402 6.04423 2.3965 6.04753 2.39319C6.05084 2.38933 6.0547 2.38713 6.06022 2.38657C6.06352 2.38657 6.06793 2.38657 6.07235 2.38767C6.0784 2.38271 6.08446 2.3772 6.09052 2.37224C6.09879 2.36674 6.10541 2.36232 6.11258 2.35735C6.14896 2.3309 6.18146 2.30059 6.21509 2.26973C6.2669 2.22232 6.32422 2.18099 6.37933 2.13799C6.60146 1.96548 6.83571 1.81061 7.07711 1.66675C7.10467 1.65077 7.13333 1.63754 7.16144 1.62266C7.24576 1.57746 7.32844 1.52951 7.41387 1.48762C7.63599 1.37794 7.86693 1.29031 8.10614 1.22582C8.2296 1.19275 8.35416 1.16685 8.48093 1.14921C8.63471 1.12826 8.79013 1.11945 8.94501 1.12882C9.11422 1.13929 9.28121 1.16574 9.4427 1.21866C9.45098 1.22141 9.45814 1.22196 9.46531 1.21755C9.45152 1.20267 9.43059 1.20267 9.4135 1.19495H9.41514Z" fill="#A0A0A0"/>
<path d="M6.05644 2.33606C6.05644 2.33606 6.0524 2.33283 6.05078 2.33203C6.05321 2.33365 6.05483 2.33444 6.05644 2.33606Z" fill="#A0A0A0"/>
<path d="M8.01151 0.718905H7.80924C7.78278 0.720008 7.75632 0.720007 7.73042 0.720007C7.72932 0.716701 7.72766 0.713394 7.72656 0.710087C7.82247 0.710087 7.91891 0.710087 8.01481 0.708984C8.01371 0.712291 8.01261 0.715598 8.01151 0.718905Z" fill="#A0A0A0"/>
<path d="M5.13036 1.98531H5.12793V1.98047H5.13359V1.98613C5.13359 1.98613 5.13198 1.98613 5.13116 1.98613L5.13036 1.98531Z" fill="#A0A0A0"/>
<path opacity="0.48" d="M16.825 14.465C16.8525 14.4435 16.8525 14.4412 16.825 14.4197C16.761 14.3685 16.6927 14.3239 16.6227 14.2815C16.389 14.1398 16.1394 14.0318 15.8835 13.9381C15.8252 13.9166 15.7684 13.8907 15.7061 13.8797C15.689 13.8604 15.6637 13.8587 15.6417 13.8515C15.4029 13.7722 15.16 13.7071 14.9163 13.6449C14.8959 13.6432 14.8761 13.6388 14.8584 13.6289C14.7443 13.6041 14.6303 13.5787 14.5168 13.5539C14.3056 13.5082 14.0934 13.4685 13.8806 13.4327C13.7231 13.4062 13.5648 13.3814 13.4066 13.3577C13.2832 13.3395 13.1597 13.3208 13.0352 13.312C13.0148 13.3087 12.9944 13.3048 12.9734 13.302C12.5375 13.2486 12.1009 13.2083 11.6628 13.178C11.3767 13.1587 11.0907 13.1433 10.8041 13.1323C10.4298 13.1179 10.055 13.1113 9.68023 13.1113C9.2156 13.1113 8.75152 13.1229 8.28799 13.1455C7.75226 13.1714 7.21763 13.2122 6.68466 13.2717C6.59758 13.2816 6.50939 13.2872 6.42341 13.3059C6.40578 13.3009 6.38869 13.3059 6.37105 13.3076C5.99129 13.3544 5.6132 13.4123 5.23731 13.4834C5.0152 13.5253 4.79418 13.5716 4.57482 13.6239L4.57041 13.6311C4.57041 13.6311 4.51363 14.4479 4.6393 15.2454C4.85592 15.2967 5.07362 15.3425 5.29188 15.3833C5.48699 15.4196 5.68264 15.4544 5.87941 15.4825C6.15499 15.5221 6.43112 15.5623 6.70836 15.591C6.97787 15.6191 7.24685 15.6484 7.51691 15.6682C7.67675 15.6798 7.83604 15.6935 7.99588 15.7029C8.23233 15.7166 8.46933 15.7283 8.70578 15.7365C8.92183 15.7442 9.13789 15.7503 9.35395 15.7531C9.69952 15.7574 10.0457 15.7558 10.3912 15.7487C10.7241 15.7415 11.057 15.7289 11.3894 15.7101C11.7857 15.6881 12.1814 15.6567 12.5766 15.6159C13.179 15.5535 13.7781 15.4697 14.3717 15.3513C14.8904 15.2477 15.4029 15.1209 15.9001 14.9379C16.1167 14.8585 16.3289 14.7675 16.5307 14.6551C16.6332 14.5984 16.7324 14.5367 16.825 14.4645V14.465Z" fill="black"/>
</g>
<path d="M24.8682 7.10352L27.4943 13.8121L30.1039 7.10352H31.7189L28.1883 15.9927H26.6991L23.1494 7.10352H24.8682Z" fill="#A0A0A0"/>
<path d="M35.1075 14.275C35.6048 14.5947 36.2087 14.7887 36.8454 14.7887C38.638 14.7887 40.0398 13.3514 40.0398 11.5424H41.5647C41.5647 14.1329 39.4715 16.1741 36.8099 16.1741C34.1838 16.1741 32.1426 14.152 32.1426 11.597C32.1426 8.98737 34.2357 6.92969 36.8973 6.92969C38.2117 6.92969 39.701 7.42702 40.6766 8.7223L35.1075 14.275ZM34.1483 13.2803L38.5833 8.82614C38.0697 8.49002 37.4821 8.3124 36.8454 8.3124C35.072 8.3124 33.6702 9.74976 33.6702 11.5424C33.6702 12.1818 33.8477 12.783 34.1483 13.2803Z" fill="#A0A0A0"/>
<path d="M43.2705 3.04492H44.9373V16.0003H43.2705V3.04492Z" fill="#A0A0A0"/>
<path d="M46.8193 11.5424C46.8193 8.91632 48.8415 6.92969 51.5223 6.92969C54.2194 6.92969 56.2414 8.91632 56.2414 11.5424C56.2414 14.1875 54.2194 16.1741 51.5223 16.1741C48.8415 16.1741 46.8193 14.1848 46.8193 11.5424ZM51.5223 14.6821C53.2957 14.6821 54.6266 13.3322 54.6266 11.5424C54.6266 9.76889 53.2957 8.40258 51.5223 8.40258C49.7652 8.40258 48.4343 9.76889 48.4343 11.5424C48.4343 13.335 49.7652 14.6821 51.5223 14.6821Z" fill="#A0A0A0"/>
<path d="M62.3451 15.9975C59.4703 15.9975 57.5547 14.2241 57.5547 11.5434C57.5547 8.88181 59.4703 7.10833 62.3451 7.10833H63.8343V3.04492H65.5013V16.0002H62.3451V15.9975ZM62.3451 14.5056H63.8343V8.57848H62.3451C60.4649 8.57848 59.2216 9.76718 59.2216 11.5406C59.2216 13.336 60.4622 14.5056 62.3451 14.5056Z" fill="#A0A0A0"/>
<path d="M67.9541 7.10536H69.621V9.67949L72.3728 6.92773L73.4194 7.97433L69.621 11.7535V15.9945H67.9541V7.10536Z" fill="#A0A0A0"/>
<path d="M73.5254 11.5424C73.5254 8.91632 75.5475 6.92969 78.2282 6.92969C80.9253 6.92969 82.9475 8.91632 82.9475 11.5424C82.9475 14.1875 80.9253 16.1741 78.2282 16.1741C75.5475 16.1741 73.5254 14.1848 73.5254 11.5424ZM78.2282 14.6821C80.0017 14.6821 81.3325 13.3322 81.3325 11.5424C81.3325 9.76889 80.0017 8.40258 78.2282 8.40258C76.4711 8.40258 75.1404 9.76889 75.1404 11.5424C75.1404 13.335 76.4711 14.6821 78.2282 14.6821Z" fill="#A0A0A0"/>
<path d="M84.8281 7.10536H86.4595V8.17108C87.8969 7.08896 88.5171 6.92773 89.3342 6.92773C90.4 6.92773 91.3208 7.47699 91.7662 8.36509C93.3976 7.10536 94.0562 6.92773 94.9061 6.92773C96.4308 6.92773 97.6386 8.02898 97.6386 9.69587V15.9945H95.9718V9.87351C95.9718 9.05645 95.3869 8.45254 94.641 8.45254C94.0725 8.45254 93.6463 8.57551 92.0668 9.88991V15.9945H90.4V9.87351C90.4 9.05645 89.8151 8.45254 89.0691 8.45254C88.5008 8.45254 88.0745 8.57551 86.4951 9.88991V15.9945H84.8281V7.10536Z" fill="#A0A0A0"/>
<path d="M102.396 14.275C102.893 14.5947 103.497 14.7887 104.133 14.7887C105.926 14.7887 107.328 13.3514 107.328 11.5424H108.853C108.853 14.1329 106.759 16.1741 104.098 16.1741C101.472 16.1741 99.4307 14.152 99.4307 11.597C99.4307 8.98737 101.524 6.92969 104.185 6.92969C105.5 6.92969 106.989 7.42702 107.965 8.7223L102.396 14.275ZM101.439 13.2803L105.874 8.82614C105.36 8.49002 104.773 8.3124 104.136 8.3124C102.363 8.3124 100.961 9.74976 100.961 11.5424C100.958 12.1818 101.136 12.783 101.439 13.2803Z" fill="#A0A0A0"/>
</g>
<defs>
<clipPath id="clip0_1931_8519">
<rect width="108.9" height="17.9461" fill="white" transform="translate(0 0.587891)"/>
</clipPath>
</defs>
</svg>
