<svg width="165" height="28" viewBox="0 0 165 28" fill="none" xmlns="http://www.w3.org/2000/svg">
<g clip-path="url(#clip0_2296_6482)">
<mask id="mask0_2296_6482" style="mask-type:luminance" maskUnits="userSpaceOnUse" x="1" y="0" width="28" height="28">
<path d="M28.61 0.628906H1.07959V27.496H28.61V0.628906Z" fill="white"/>
</mask>
<g mask="url(#mask0_2296_6482)">
<path d="M26.2436 21.3799C26.2262 21.393 26.2088 21.4071 26.1904 21.4196C26.173 21.4329 26.1548 21.4454 26.1366 21.4587C26.1027 21.4826 26.0677 21.5059 26.0321 21.5282C26.028 21.5307 26.0237 21.5333 26.0196 21.5366C25.9906 21.5548 25.9615 21.573 25.9319 21.5904C25.8879 21.617 25.8447 21.6419 25.7999 21.6667C25.4964 21.8358 25.1771 21.9719 24.8513 22.0921C24.5436 22.2048 24.2319 22.3036 23.9175 22.3914C23.4673 22.5176 23.0112 22.6219 22.5509 22.7131C22.104 22.8027 21.6554 22.8782 21.2052 22.9437C20.7549 23.0093 20.303 23.0639 19.8502 23.1112C19.7018 23.1269 19.5533 23.1411 19.4049 23.1552C19.1072 23.1826 18.8095 23.2057 18.5118 23.2257C18.3626 23.2356 18.2133 23.2448 18.0649 23.2531C17.7307 23.2722 17.3965 23.2863 17.0623 23.2969C17.0018 23.2988 16.9413 23.3012 16.8799 23.3028C16.8244 23.3045 16.7688 23.3061 16.7124 23.3078C16.8492 23.1386 16.986 22.9703 17.1113 22.7921C17.1295 22.7696 17.1477 22.7473 17.1652 22.724C17.4479 22.3441 17.7183 21.9561 17.977 21.5605C18.0035 21.5589 18.03 21.5581 18.0558 21.5564C18.2199 21.5472 18.3841 21.5366 18.5483 21.5258C18.6727 21.5174 18.7971 21.5084 18.9215 21.4983C19.7913 21.4313 20.6579 21.3351 21.5202 21.1999C21.7716 21.1608 22.0212 21.1177 22.2699 21.0721C22.852 20.9643 23.4291 20.835 23.9981 20.6725C24.1233 20.6368 24.2477 20.5995 24.372 20.5605C24.4342 20.5406 24.4964 20.5207 24.5586 20.5C24.6522 20.5166 24.7377 20.5556 24.8255 20.5879C24.9026 20.6161 24.9797 20.6459 25.057 20.6766C25.2751 20.7629 25.489 20.8582 25.6962 20.9686C25.7783 21.0117 25.8589 21.0573 25.9384 21.1054C26.0438 21.1692 26.1464 21.2363 26.2428 21.3134C26.271 21.3359 26.2792 21.3449 26.2684 21.3582C26.2634 21.365 26.2553 21.3715 26.242 21.3815L26.2436 21.3799Z" fill="#F1ECE2"/>
<path d="M18.1819 25.3877C18.1645 25.3986 18.1454 25.3986 18.1272 25.392C18.1322 25.3885 18.1363 25.3869 18.1405 25.3853C18.1479 25.3828 18.1546 25.3828 18.162 25.3828C18.1687 25.3828 18.1761 25.3844 18.1828 25.3877H18.1819Z" fill="#5E93FF"/>
<path d="M18.1081 25.3925C18.0858 25.4023 18.0634 25.4032 18.0393 25.3966C18.0617 25.3833 18.0849 25.385 18.1081 25.3925Z" fill="#5E93FF"/>
<path d="M18.0202 25.397C17.9978 25.4071 17.9755 25.4079 17.9514 25.4011C17.9738 25.387 17.9962 25.3887 18.0202 25.397Z" fill="#5E93FF"/>
<path d="M17.9322 25.4004C17.9099 25.4112 17.8875 25.4112 17.8643 25.4037C17.8643 25.4037 17.8659 25.4037 17.8667 25.4028C17.8883 25.3922 17.9107 25.3922 17.9322 25.4004Z" fill="#5E93FF"/>
<path d="M17.798 25.4001C17.813 25.3968 17.8287 25.3985 17.8445 25.4044C17.8221 25.415 17.7989 25.415 17.7756 25.4085C17.7831 25.4044 17.7906 25.4017 17.798 25.4001Z" fill="#5E93FF"/>
<path d="M17.7208 25.4032C17.7324 25.4032 17.744 25.4056 17.7565 25.4091C17.7341 25.4189 17.7117 25.4197 17.6885 25.4124C17.6993 25.4056 17.71 25.4032 17.7208 25.4023V25.4032Z" fill="#5E93FF"/>
<path d="M17.6521 25.4078C17.6579 25.4086 17.6629 25.4102 17.6678 25.4119C17.6463 25.4219 17.6231 25.4227 17.5999 25.416C17.6156 25.4061 17.6322 25.4045 17.6488 25.4078C17.6488 25.4078 17.6496 25.4078 17.6504 25.4078H17.6513H17.6521Z" fill="#5E93FF"/>
<path d="M17.58 25.4123C17.5535 25.424 17.5261 25.4232 17.4988 25.4156C17.5253 25.4033 17.5527 25.4041 17.58 25.4123Z" fill="#5E93FF"/>
<path d="M17.4787 25.4167C17.4563 25.4282 17.4339 25.4265 17.4106 25.42C17.4322 25.4075 17.4554 25.4075 17.4787 25.4167Z" fill="#5E93FF"/>
<path d="M23.2967 20.1236C23.3074 20.1252 23.3198 20.1252 23.3315 20.1269C23.3464 20.1286 23.3614 20.1327 23.373 20.1451C23.3423 20.1427 23.3125 20.136 23.2859 20.1211C23.2875 20.1211 23.29 20.1211 23.2916 20.1219C23.2935 20.1219 23.2951 20.1219 23.2975 20.1228L23.2967 20.1236Z" fill="#5E93FF"/>
<path d="M10.6673 27.4414C10.6698 27.4463 10.6722 27.4514 10.6739 27.4555L10.2112 27.4572C10.2137 27.4522 10.2162 27.4471 10.2186 27.4422C10.256 27.4422 10.2933 27.4422 10.3306 27.4422C10.4425 27.4422 10.5545 27.4422 10.6664 27.4422L10.6673 27.4414Z" fill="#3180F4"/>
<path d="M24.561 20.5C24.4988 20.5208 24.4375 20.5407 24.3745 20.5606C24.2501 20.5996 24.1258 20.6369 24.0006 20.6725C23.4309 20.8351 22.8545 20.9644 22.2724 21.0722C22.0236 21.1186 21.7733 21.1609 21.5227 21.2C20.6604 21.335 19.7938 21.4313 18.924 21.4984C18.7996 21.5085 18.6752 21.5175 18.5508 21.5258C18.3866 21.5367 18.2224 21.5473 18.0583 21.5565C18.0317 21.5582 18.006 21.559 17.9795 21.5606C18.1578 21.2877 18.3311 21.0116 18.4986 20.7314C18.7407 20.3267 18.9721 19.9163 19.1918 19.5C19.6114 19.5365 20.0302 19.5788 20.4489 19.6302C20.4796 19.6335 20.5103 19.6401 20.5418 19.6451C20.7292 19.6584 20.915 19.6866 21.0999 19.7139C21.3379 19.7488 21.5759 19.7869 21.813 19.8267C22.1331 19.8806 22.4532 19.9403 22.7708 20.0092C22.9425 20.0465 23.1133 20.0846 23.2849 20.1219C23.3123 20.1369 23.3413 20.1427 23.372 20.146C23.7386 20.2397 24.1041 20.3383 24.4633 20.4569C24.4964 20.4677 24.5346 20.471 24.5602 20.4992L24.561 20.5Z" fill="#C9C9C9"/>
<path d="M12.3682 23.1992C12.5158 23.2109 12.6642 23.2225 12.8118 23.2324C12.6634 23.2225 12.5158 23.2109 12.3682 23.1992Z" fill="#F1ECE2"/>
<path d="M7.63312 26.5044C7.62176 26.5044 7.61204 26.5012 7.60474 26.4922C7.60474 26.4922 7.60636 26.4922 7.60718 26.4922C7.6088 26.4922 7.61042 26.4922 7.61204 26.4922C7.61366 26.4922 7.61448 26.4932 7.6161 26.4932C7.6169 26.4932 7.61852 26.4932 7.61934 26.494C7.62096 26.494 7.62258 26.4956 7.6242 26.4964C7.6242 26.4964 7.62582 26.4964 7.62664 26.4972C7.62826 26.4988 7.62988 26.5004 7.6315 26.502C7.6315 26.502 7.6315 26.502 7.63232 26.502L7.63312 26.5044Z" fill="#404A5A"/>
<path d="M7.60431 26.4933C7.59297 26.4933 7.58243 26.4909 7.57593 26.4805C7.57593 26.4805 7.58161 26.4805 7.58405 26.4805H7.58485C7.59215 26.4821 7.59865 26.4853 7.60351 26.4925C7.60351 26.4925 7.60351 26.4925 7.60351 26.4933H7.60431Z" fill="#404A5A"/>
<path d="M7.57525 26.4794C7.56309 26.4794 7.55174 26.4784 7.54688 26.4656C7.54688 26.4656 7.54688 26.4656 7.54688 26.4648H7.54769C7.55903 26.4648 7.56957 26.4672 7.57525 26.4784V26.4794Z" fill="#404A5A"/>
<path d="M7.54636 26.4635V26.4651C7.53502 26.4651 7.52286 26.4667 7.5188 26.4513V26.4497C7.53096 26.4479 7.5415 26.4505 7.54718 26.4635H7.54636Z" fill="#404A5A"/>
<path d="M7.43328 26.3906C7.44157 26.3964 7.45151 26.4006 7.46063 26.4047C7.46728 26.408 7.47391 26.4105 7.48053 26.4137C7.49215 26.4197 7.50293 26.427 7.5104 26.4379C7.51287 26.4411 7.51537 26.4461 7.51786 26.4512C7.47888 26.4479 7.44488 26.4321 7.41504 26.4072L7.43328 26.3906Z" fill="#404A5A"/>
<path d="M10.0928 25.1422C10.0604 25.1471 10.0281 25.152 9.99658 25.1569C9.8722 25.1737 9.74781 25.1835 9.62259 25.1868C9.58113 25.1876 9.53885 25.1886 9.49739 25.1876C9.45509 25.1876 9.41363 25.186 9.37133 25.1843C9.35308 25.1835 9.33565 25.1811 9.31743 25.1794C9.3 25.1778 9.28175 25.1753 9.26351 25.1737C9.24029 25.1719 9.22289 25.162 9.20548 25.1471C9.15571 25.1023 9.10844 25.0559 9.06201 25.0078C9.40534 25.0575 9.74863 25.1023 10.0928 25.143V25.1422Z" fill="#F1ECE2"/>
<path d="M15.4941 19.3438C15.2469 19.3438 14.9998 19.3471 14.7527 19.3512C14.3414 19.9889 13.8978 20.6042 13.4135 21.1888C13.3115 21.3115 13.2087 21.4326 13.1034 21.552C12.838 21.8546 12.5611 22.1467 12.2708 22.4252C12.0163 22.6691 11.7534 22.902 11.4789 23.1209C11.265 23.2925 11.0436 23.456 10.8139 23.6077C10.391 23.888 9.94734 24.1293 9.4697 24.305C9.22758 24.3938 8.98047 24.466 8.72506 24.5081C8.71096 24.5106 8.69769 24.5165 8.68359 24.5206C8.68443 24.5247 8.68609 24.5298 8.68691 24.5339C8.68775 24.5364 8.68858 24.5388 8.69024 24.5413C8.70847 24.5695 8.72671 24.5969 8.7458 24.6235C8.78394 24.6781 8.82375 24.7313 8.86437 24.7826C8.92573 24.8597 8.99125 24.9344 9.06006 25.0058C9.40335 25.0555 9.74666 25.1003 10.0908 25.141C10.1828 25.1269 10.274 25.1085 10.3644 25.087C10.5742 25.0373 10.7782 24.9718 10.9781 24.8947C11.0776 24.8557 11.1762 24.8141 11.2733 24.7693C11.3703 24.7245 11.4665 24.6773 11.5618 24.6268C11.6033 24.6053 11.6439 24.5828 11.6854 24.5605C11.9707 24.4038 12.2443 24.2279 12.5063 24.0389C12.7692 23.8489 13.0213 23.645 13.2659 23.431C13.3007 23.4003 13.3356 23.3696 13.3704 23.3381C13.3961 23.315 13.421 23.2917 13.4475 23.2678C13.6042 23.1242 13.7585 22.9767 13.9086 22.8257C13.9666 22.7668 14.0238 22.7079 14.081 22.6474C14.2693 22.45 14.4525 22.2485 14.6308 22.0421C14.7378 21.9186 14.8423 21.7924 14.9451 21.6656C14.9575 21.6506 14.97 21.6349 14.9824 21.6191C15.0529 21.5312 15.1226 21.4426 15.1922 21.353C15.4103 21.071 15.6201 20.7833 15.8224 20.4898C15.9319 20.3305 16.0388 20.1705 16.1442 20.0088C16.203 19.9176 16.2611 19.8264 16.3183 19.7351C16.3971 19.6099 16.4742 19.4831 16.5505 19.3562C16.1981 19.3479 15.8465 19.3438 15.4941 19.3438Z" fill="#F1ECE2"/>
<path d="M6.08706 25.8146C6.07572 25.817 6.0668 25.8138 6.06274 25.8016C6.0749 25.7992 6.08382 25.8016 6.08706 25.8146Z" fill="#C18B00"/>
<path d="M13.3996 19.3986C13.2229 19.4069 13.0463 19.4168 12.8705 19.4276C12.6773 19.7013 12.4774 19.9707 12.2685 20.2336C12.0636 20.4923 11.8539 20.7461 11.6333 20.9923C11.5081 21.1316 11.382 21.2701 11.2527 21.4061C11.1615 21.5023 11.0686 21.5978 10.9732 21.6907C10.5943 22.0613 10.1971 22.4113 9.77 22.7271C9.69869 22.7793 9.62739 22.8308 9.5544 22.8813C9.31476 23.048 9.06683 23.2023 8.80894 23.3407C8.62235 23.442 8.42998 23.5314 8.23511 23.6136C8.23676 23.6226 8.23511 23.6326 8.23924 23.6418C8.26661 23.7173 8.29563 23.7909 8.32715 23.8648C8.35783 23.9386 8.39099 24.0108 8.42583 24.082C8.49547 24.2248 8.57343 24.3641 8.658 24.5001L8.65966 24.5017C8.66547 24.5099 8.67543 24.5175 8.68288 24.5248C8.69699 24.5208 8.71025 24.515 8.72434 24.5124C8.97892 24.4702 9.22603 24.398 9.46899 24.3093C9.94664 24.1344 10.3903 23.8922 10.8132 23.612C11.0429 23.4602 11.2643 23.2968 11.4782 23.1251C11.7527 22.9055 12.0156 22.6725 12.2701 22.4295C12.5612 22.1509 12.8373 21.859 13.1027 21.5563C13.208 21.4368 13.3108 21.3157 13.4128 21.193C13.8971 20.6084 14.3407 19.9931 14.752 19.3555C14.3009 19.3638 13.849 19.377 13.3987 19.3994L13.3996 19.3986Z" fill="#C9C9C9"/>
<path d="M22.2691 12.6083C22.2832 12.6083 22.2989 12.6083 22.2897 12.5859C22.2965 12.5859 22.303 12.5876 22.3106 12.5884C22.3063 12.5884 22.303 12.5893 22.3006 12.5909C22.2948 12.5951 22.2948 12.6042 22.2965 12.615C22.2873 12.615 22.2783 12.6141 22.2691 12.6133C22.2641 12.6133 22.2582 12.6125 22.2533 12.6116C22.2425 12.6108 22.2308 12.6092 22.2202 12.6083C22.1952 12.605 22.1694 12.6 22.1455 12.5942C22.1878 12.5917 22.2283 12.6067 22.2699 12.6092L22.2691 12.6083Z" fill="#E7AA24"/>
<path d="M9.40356 21.1577C9.42181 21.161 9.43921 21.1634 9.45662 21.1667C9.11084 21.5009 8.74763 21.8145 8.36038 22.1013C8.21941 22.2058 8.07843 22.3103 7.92586 22.3991C7.89766 22.2772 7.88522 22.1528 7.87113 22.0285C7.82304 21.632 7.80479 21.234 7.80396 20.8359C7.90015 20.8592 7.99633 20.8816 8.09337 20.9039C8.37613 20.9687 8.65973 21.0258 8.94415 21.0781C9.09756 21.1064 9.25097 21.1328 9.40438 21.1585L9.40356 21.1577Z" fill="#F1ECE2"/>
<path d="M10.9867 19.5889C10.9461 19.5939 10.9046 19.5972 10.8632 19.6013C10.4552 20.1204 10.0198 20.6155 9.54715 21.0791C9.51731 21.1088 9.48663 21.1378 9.45678 21.1669C9.47088 21.1693 9.48497 21.172 9.49824 21.1744C9.48413 21.172 9.47088 21.1693 9.45678 21.1677C9.111 21.5019 8.74779 21.8153 8.36054 22.1023C8.21957 22.2068 8.0786 22.3113 7.92603 22.4001C7.92768 22.4166 7.9285 22.434 7.93018 22.4506C7.93018 22.4555 7.93018 22.4596 7.93183 22.4647C7.93515 22.4837 7.9393 22.5028 7.94261 22.5218C7.94509 22.5377 7.94758 22.5525 7.9509 22.5684C7.95836 22.6065 7.96583 22.6455 7.9733 22.6844C8.01723 22.9033 8.06947 23.1197 8.13499 23.3328C8.16483 23.4283 8.18889 23.5261 8.23698 23.6157C8.43185 23.5335 8.62424 23.4441 8.81081 23.3428C9.0687 23.2035 9.31665 23.0493 9.55627 22.8834C9.62926 22.8337 9.70056 22.7822 9.77188 22.7292C10.1989 22.414 10.5961 22.0634 10.9751 21.6926C11.0705 21.5997 11.1625 21.5044 11.2546 21.4082C11.3839 21.2722 11.5099 21.1337 11.6352 20.9944C11.8549 20.7481 12.0655 20.4944 12.2703 20.2357C12.4785 19.972 12.6792 19.7033 12.8724 19.4297C12.2438 19.4678 11.6161 19.5209 10.9892 19.5905L10.9867 19.5889Z" fill="#7F7F7F"/>
<path d="M9.49825 21.1708C9.48415 21.1684 9.47088 21.1657 9.45679 21.1641C9.47088 21.1667 9.48499 21.1692 9.49825 21.1708Z" fill="#F1ECE2"/>
<path d="M9.45664 21.1613C9.43924 21.1589 9.42099 21.1556 9.40356 21.1523L9.45664 21.1605V21.1613Z" fill="#FF1100"/>
<path d="M8.94336 21.0781C9.09677 21.1061 9.25018 21.1327 9.40359 21.1585C9.25018 21.1327 9.09595 21.1061 8.94336 21.0781Z" fill="#FF1100"/>
<path d="M10.5938 19.6397C10.6825 19.6206 10.7729 19.6107 10.8633 19.6016C10.4553 20.1207 10.02 20.6157 9.54734 21.0793C9.51748 21.1092 9.48679 21.138 9.45695 21.1671L9.40387 21.1589C9.25048 21.1331 9.09707 21.1065 8.94367 21.0785C8.65924 21.0262 8.3748 20.9689 8.09288 20.9043C7.99668 20.8819 7.89966 20.8595 7.80347 20.8363C7.80347 20.6862 7.80512 20.5353 7.80928 20.3844C7.81175 20.2948 7.8159 20.2061 7.82087 20.1173C8.14843 20.0394 8.47847 19.9706 8.80932 19.9076C9.37485 19.8006 9.94371 19.7135 10.5142 19.643C10.5233 19.6422 10.5325 19.6405 10.5416 19.6397C10.5524 19.6381 10.5631 19.6372 10.5739 19.6381C10.5806 19.6381 10.5872 19.6397 10.5938 19.6414V19.6397Z" fill="#C9C9C9"/>
<path d="M20.6812 12.3906C21.0112 12.4313 21.342 12.4711 21.6721 12.5117C21.6704 12.515 21.668 12.5183 21.6647 12.5216C21.4598 12.4968 21.2541 12.4727 21.0493 12.4462C20.9896 12.4387 20.9299 12.4337 20.8702 12.4271C20.8105 12.4205 20.7508 12.4138 20.6919 12.4022C20.6886 12.3981 20.6853 12.3948 20.6812 12.3915V12.3906Z" fill="#007FFF"/>
<path d="M19.064 13.4144C19.0764 13.368 19.088 13.3199 19.1005 13.2734C19.0888 13.3207 19.0764 13.368 19.064 13.4144Z" fill="#F1ECE2"/>
<path d="M28.5506 20.0485C28.5506 19.5941 28.5506 19.1405 28.5506 18.6861C28.5216 18.5592 28.4819 18.4357 28.4114 18.3246C28.2978 18.1455 28.1626 17.9854 27.9935 17.8544C27.8167 17.7176 27.6361 17.589 27.4412 17.4796C27.1732 17.3295 26.8946 17.2026 26.6152 17.0774C26.5655 17.055 26.514 17.0442 26.4643 17.0243C25.8324 16.7772 25.1824 16.5915 24.524 16.4314C24.1026 16.3286 23.6782 16.2407 23.2519 16.1611C22.7735 16.0715 22.2924 15.9944 21.8107 15.9281C21.4781 15.8825 21.1457 15.841 20.8123 15.8037C20.6639 15.7871 20.5154 15.7714 20.367 15.7564C19.9474 15.7158 19.527 15.6777 19.1066 15.6478C18.8586 15.6296 18.6099 15.6138 18.3619 15.5997C18.1513 15.5881 17.9399 15.5773 17.7284 15.5674C17.3959 15.5524 17.0642 15.5409 16.7317 15.5334C16.7076 15.5334 16.6836 15.5317 16.6595 15.5317C16.1346 15.5201 15.6089 15.5168 15.084 15.5218C15.0757 15.5218 15.0674 15.5218 15.0583 15.5218C14.5176 15.5268 13.9769 15.5392 13.4371 15.5616C13.4048 15.5624 13.3724 15.5649 13.3401 15.5657C12.7008 15.5931 12.0631 15.6329 11.4254 15.6868C10.4892 15.7656 9.55633 15.8725 8.62843 16.0185C8.60605 16.0218 8.5845 16.026 8.5621 16.0293C8.52645 16.1553 8.49411 16.283 8.44933 16.4066C8.41781 16.5326 8.38629 16.6587 8.35395 16.7839C8.26855 17.118 8.19144 17.4539 8.12427 17.7922C8.17154 17.7839 8.21879 17.7765 8.26606 17.7682C8.32826 17.7574 8.39044 17.7474 8.45181 17.7366C8.54385 17.7217 8.6359 17.7068 8.72794 17.6919C9.06047 17.6404 9.39462 17.594 9.72799 17.5517C10.0622 17.5094 10.3963 17.4721 10.7313 17.439C10.9544 17.4166 11.1783 17.3958 11.4022 17.3768C11.7405 17.3486 12.0797 17.3245 12.4188 17.303C12.7381 17.2831 13.0573 17.2673 13.3766 17.254C13.4587 17.2507 13.5408 17.2466 13.6229 17.2433C13.7448 17.2383 13.8675 17.235 13.9894 17.2308C14.0682 17.2283 14.1469 17.2267 14.2266 17.225C14.5143 17.2176 14.802 17.2134 15.0898 17.2109C15.1984 17.2109 15.3062 17.2093 15.4148 17.2093C15.6006 17.2093 15.7863 17.2093 15.9712 17.2109C16.0384 17.2109 16.1056 17.2117 16.1727 17.2134C16.2449 17.2142 16.317 17.2151 16.3892 17.2159C16.5857 17.2192 16.7814 17.2242 16.9779 17.23C17.1745 17.2358 17.3702 17.2433 17.5667 17.2507C17.599 17.2515 17.6314 17.254 17.6637 17.2549C17.8743 17.264 18.085 17.2748 18.2948 17.2855C18.4565 17.2947 18.6181 17.3046 18.7799 17.3146C19.022 17.3303 19.265 17.3477 19.5071 17.3676C19.7302 17.3859 19.9532 17.4066 20.1771 17.429C20.1846 17.429 20.1929 17.4307 20.2003 17.4315C20.3604 17.4473 20.5204 17.463 20.6805 17.4796C20.9367 17.5053 21.1929 17.536 21.4492 17.57C21.7045 17.604 21.96 17.6404 22.2153 17.6786C22.3214 17.6944 22.4276 17.7109 22.5329 17.7275C22.8506 17.7789 23.1672 17.8353 23.4824 17.8975C23.6681 17.934 23.8531 17.9721 24.038 18.0119C24.2229 18.0517 24.407 18.0949 24.5911 18.1397C24.8705 18.2085 25.1482 18.2823 25.4227 18.3627C25.7893 18.4705 26.1526 18.5916 26.5083 18.7334C26.5979 18.7682 26.6858 18.8055 26.7744 18.8428C26.9088 18.9009 27.0407 18.9647 27.1716 19.0294C27.2039 19.0452 27.2362 19.0609 27.2688 19.0775C27.2935 19.09 27.3193 19.1024 27.3442 19.1148C27.3774 19.1314 27.4105 19.148 27.4428 19.1662C27.4844 19.1886 27.5249 19.2127 27.5631 19.2392C27.7106 19.3412 27.8624 19.4374 27.9992 19.5535C28.0307 19.5808 28.0614 19.6082 28.0912 19.6372C28.127 19.6671 28.161 19.6994 28.1933 19.7318C28.2471 19.7857 28.297 19.8437 28.3408 19.9043C28.3625 19.9341 28.3823 19.9648 28.4013 19.9963C28.4179 20.0237 28.4328 20.051 28.4469 20.0792C28.4611 20.1074 28.4744 20.1364 28.486 20.1671C28.4985 20.197 28.5091 20.2277 28.5191 20.2583C28.5257 20.2799 28.5333 20.3023 28.5398 20.3238C28.5398 20.3238 28.5398 20.3255 28.5406 20.3263V20.3238C28.5582 20.2318 28.5474 20.1389 28.5482 20.046L28.5506 20.0485Z" fill="#F1ECE2"/>
<path d="M28.5563 18.5077C28.5573 18.1636 28.5573 17.8203 28.5563 17.4762C28.5563 17.3178 28.5546 17.1586 28.5538 17.0002C28.5266 16.9106 28.5074 16.8186 28.4669 16.7332C28.3632 16.5184 28.2081 16.3459 28.0289 16.1917C27.8332 16.0225 27.6168 15.8824 27.3895 15.7588C27.0604 15.578 26.7188 15.4238 26.3664 15.2936C25.9583 15.1427 25.5445 15.0092 25.125 14.8947C24.8041 14.8077 24.4815 14.7272 24.1581 14.6534C23.7891 14.5697 23.4185 14.4959 23.0462 14.4304C22.6596 14.3632 22.2716 14.2985 21.8828 14.2446C21.6987 14.2189 21.5138 14.1949 21.3288 14.1717C20.9158 14.1186 20.502 14.0721 20.0874 14.0357C20.0103 14.0282 19.934 14.0174 19.8569 14.0116C19.5435 13.9876 19.23 13.9644 18.9174 13.942C18.8726 13.9386 18.8278 13.9353 18.7831 13.932C18.5741 13.9171 18.3651 13.9022 18.1561 13.8914C17.8842 13.8781 17.6122 13.8682 17.3402 13.8582C17.3377 13.8582 17.3352 13.8582 17.3327 13.8582C17.0483 13.8483 16.7647 13.8375 16.4803 13.8325C16.2299 13.8284 15.9794 13.8259 15.7282 13.825C15.6179 13.825 15.5076 13.8242 15.3965 13.8242C14.957 13.8242 14.5183 13.8308 14.0797 13.8433C14.073 13.8433 14.0672 13.8433 14.0606 13.8433C13.5456 13.8582 13.0298 13.879 12.5157 13.9121C12.1202 13.937 11.7246 13.9594 11.3299 13.9926C11.1699 14.0058 11.0107 14.0257 10.8515 14.0415C10.2951 14.097 9.74031 14.1617 9.18719 14.2397C9.18057 14.2405 9.17476 14.2413 9.16813 14.2421C8.94671 14.8151 8.74771 15.3956 8.57274 15.9852C8.56859 16.0001 8.56446 16.0142 8.5603 16.0291C8.58186 16.0258 8.60424 16.0217 8.62664 16.0184C9.55456 15.8724 10.4874 15.7646 11.4236 15.6867C12.0613 15.6336 12.699 15.593 13.3383 15.5656C13.3707 15.5639 13.403 15.5623 13.4353 15.5614C13.9752 15.5391 14.5158 15.5266 15.0565 15.5217C15.0648 15.5217 15.0739 15.5217 15.0822 15.5217C15.6079 15.5175 16.1328 15.5208 16.6577 15.5316C16.6818 15.5316 16.7058 15.5333 16.7299 15.5333C17.0624 15.5407 17.3941 15.5523 17.7266 15.5673C17.9381 15.5772 18.1487 15.588 18.3601 15.5996C18.6081 15.6137 18.8569 15.6295 19.1048 15.6477C19.5252 15.6784 19.9456 15.7157 20.3652 15.7563C20.5137 15.7712 20.6621 15.787 20.8105 15.8036C21.1439 15.8409 21.4763 15.8824 21.8089 15.928C22.2906 15.9943 22.7717 16.0714 23.2501 16.161C23.6764 16.2406 24.1008 16.3285 24.5222 16.4313C25.1806 16.5914 25.8307 16.7771 26.4625 17.0242C26.5122 17.0441 26.5638 17.0549 26.6135 17.0773C26.8929 17.2033 27.1715 17.3294 27.4394 17.4795C27.6342 17.5889 27.815 17.7175 27.9917 17.8543C28.1609 17.9853 28.2961 18.1453 28.4096 18.3244C28.48 18.4356 28.519 18.5591 28.5489 18.686C28.5606 18.6263 28.5538 18.5657 28.5538 18.506L28.5563 18.5077Z" fill="#C9C9C9"/>
<path d="M18.8069 5.50386C19.0357 5.86127 19.2016 6.24769 19.3268 6.65235C19.3658 6.77757 19.4006 6.90361 19.4321 7.03049C19.4843 7.24193 19.525 7.4567 19.5573 7.67231C19.5664 7.73533 19.5755 7.79835 19.5838 7.86219C19.5996 7.98907 19.6137 8.11595 19.6253 8.24281C19.6303 8.30667 19.6352 8.36969 19.6402 8.43353C19.6634 8.78015 19.6734 9.12675 19.6643 9.47421C19.6543 9.8374 19.6328 10.2006 19.5963 10.563C19.5598 10.9229 19.51 11.2811 19.4503 11.6368C19.4147 11.8508 19.3749 12.0639 19.3318 12.2753C18.9884 12.248 18.6451 12.2248 18.301 12.2082C18.136 12.2007 17.9702 12.1916 17.8043 12.1833C17.9163 11.7023 18.0108 11.2181 18.0846 10.7288C18.1658 10.1873 18.2239 9.64419 18.2455 9.09773C18.2629 8.63339 18.2604 8.16819 18.2231 7.70381C18.1916 7.31657 18.1393 6.93345 18.0564 6.55367C17.9627 6.12662 17.8308 5.71201 17.6418 5.31646C17.5671 5.15974 17.4793 5.00964 17.3914 4.86038C17.4635 4.83717 17.539 4.83467 17.6128 4.82723C17.6517 4.82308 17.6907 4.81976 17.7289 4.81727C17.762 4.81561 17.7952 4.81395 17.8283 4.81311C17.8822 4.8123 17.9362 4.8123 17.9901 4.81311C18.0274 4.81395 18.0655 4.81561 18.1028 4.81727C18.1319 4.81892 18.1609 4.82058 18.1899 4.82308C18.1949 4.82308 18.1998 4.82389 18.204 4.82473C18.2131 4.82639 18.2214 4.82888 18.2297 4.8322C18.238 4.83551 18.2455 4.83966 18.2529 4.84463C18.2637 4.85126 18.2745 4.86038 18.2844 4.86951C18.3101 4.89272 18.335 4.91678 18.3591 4.94081C18.408 4.98892 18.4553 5.0395 18.5 5.09091C18.6136 5.21944 18.7156 5.35626 18.8093 5.50221L18.8069 5.50386Z" fill="#F1ECE2"/>
<path d="M18.0539 6.55823C18.1368 6.93719 18.1891 7.32112 18.2206 7.70837C18.2587 8.17274 18.2612 8.63794 18.243 9.10232C18.2223 9.64879 18.1642 10.1919 18.0821 10.7334C18.0083 11.2227 17.9138 11.7078 17.8018 12.1879C17.6766 12.1821 17.5506 12.1755 17.4254 12.1705C17.1384 12.1597 16.8524 12.1531 16.5655 12.1473C16.4585 12.1448 16.3515 12.1431 16.2454 12.1415C16.3498 11.7476 16.4419 11.3504 16.5207 10.9507C16.5804 10.6513 16.6318 10.3503 16.6774 10.0485C16.7072 9.84615 16.7338 9.64382 16.757 9.44066C16.781 9.22836 16.8001 9.01525 16.8134 8.80129C16.8275 8.57327 16.8366 8.3444 16.8416 8.11635C16.8474 7.81037 16.8374 7.50521 16.815 7.20005C16.8001 6.99855 16.781 6.79787 16.7553 6.59721C16.7205 6.32273 16.6708 6.05157 16.6053 5.7829C16.553 5.56812 16.4933 5.35419 16.4137 5.14688C16.4684 5.11205 16.5315 5.09464 16.592 5.07225C16.7147 5.02665 16.8383 4.98685 16.9643 4.95201C17.0904 4.91802 17.2172 4.88899 17.3466 4.86743C17.3557 4.86578 17.364 4.86328 17.3731 4.86328C17.3789 4.86328 17.3839 4.86328 17.3889 4.86494C17.4768 5.01422 17.5647 5.16347 17.6393 5.32101C17.8284 5.71656 17.9602 6.13118 18.0539 6.55823Z" fill="#C9C9C9"/>
<path d="M21.6593 5.85623C21.6593 5.85623 21.6555 5.85336 21.6555 5.85146C21.6555 5.8505 21.6555 5.84956 21.6555 5.84766L21.6602 5.8505L21.6583 5.85527L21.6593 5.85623Z" fill="#3180F4"/>
<path d="M28.549 21.9617C28.5499 21.9402 28.5515 21.9185 28.5515 21.8971C28.5515 21.5422 28.5523 21.1865 28.5523 20.8315C28.5523 20.6781 28.5499 20.5247 28.549 20.3713C28.549 20.3621 28.5531 20.3522 28.5523 20.3431C28.5499 20.3373 28.5466 20.3331 28.5441 20.3282C28.5441 20.3282 28.5441 20.329 28.5441 20.3298C28.5441 20.329 28.5441 20.3282 28.5433 20.3273C28.5366 20.3049 28.5292 20.2834 28.5225 20.261C28.5126 20.2295 28.501 20.1988 28.4893 20.1698C28.4777 20.1399 28.4644 20.1109 28.4505 20.0819C28.4363 20.0537 28.4206 20.0255 28.4048 19.9989C28.3856 19.9674 28.3658 19.9368 28.3443 19.9069C28.3003 19.8455 28.2514 19.7883 28.1966 19.7344C28.1643 19.7021 28.1303 19.6706 28.0945 19.6399C28.0647 19.61 28.034 19.5827 28.0025 19.5561C27.8657 19.44 27.7141 19.3438 27.5664 19.2418C27.5273 19.2153 27.4868 19.1913 27.4461 19.1689C27.4138 19.1515 27.3807 19.1341 27.3475 19.1175C27.3226 19.105 27.2968 19.0926 27.2721 19.0802C27.2397 19.0636 27.2074 19.0478 27.1749 19.032C27.044 18.9674 26.9121 18.9035 26.7779 18.8455C26.6891 18.8082 26.6012 18.7708 26.5116 18.736C26.155 18.5951 25.7926 18.4731 25.4262 18.3654C25.1509 18.2841 24.8732 18.2103 24.5944 18.1423C24.4103 18.0975 24.2262 18.0544 24.0413 18.0146C23.8564 17.9748 23.6715 17.9366 23.4857 17.9002C23.1699 17.838 22.8531 17.7807 22.5362 17.7302C22.4301 17.7136 22.3249 17.697 22.2188 17.6813C21.9633 17.6431 21.7086 17.6066 21.4525 17.5726C21.1971 17.5386 20.9409 17.5079 20.6838 17.4822C20.5237 17.4665 20.3637 17.4499 20.2037 17.4341C20.1962 17.4341 20.1879 17.4325 20.1805 17.4316C19.9574 17.4092 19.7343 17.3885 19.5104 17.3703C19.2683 17.3504 19.0253 17.3338 18.7832 17.3172C18.6215 17.3064 18.4598 17.2965 18.2981 17.2882C18.0875 17.2766 17.8768 17.2658 17.667 17.2575C17.6347 17.2558 17.6024 17.2542 17.57 17.2534C17.3735 17.2451 17.1778 17.2384 16.9813 17.2326C16.7848 17.2268 16.589 17.2218 16.3925 17.2185C16.3204 17.2177 16.2482 17.2169 16.1761 17.216C16.1089 17.2152 16.0418 17.2144 15.9746 17.2136C15.7888 17.2119 15.6031 17.2111 15.4182 17.2119C15.3096 17.2119 15.2009 17.2127 15.0931 17.2136C14.8054 17.216 14.5176 17.2202 14.2299 17.2277C14.1511 17.2293 14.0723 17.2318 13.9927 17.2335C13.8708 17.2368 13.7481 17.2409 13.6262 17.2459C13.5441 17.2492 13.462 17.2534 13.3799 17.2567C13.0607 17.27 12.7414 17.2865 12.4222 17.3056C12.083 17.3272 11.7439 17.3504 11.4055 17.3794C11.1816 17.3985 10.9577 17.4192 10.7347 17.4416C10.3997 17.4748 10.0655 17.5121 9.73131 17.5544C9.39714 17.5967 9.0638 17.6431 8.73127 17.6945C8.63922 17.7086 8.54718 17.7235 8.45515 17.7393C8.39295 17.7492 8.33159 17.76 8.2694 17.7708C8.22213 17.7791 8.17486 17.7866 8.12761 17.7949C8.19477 17.4565 8.27188 17.1207 8.3573 16.7865C8.38964 16.6605 8.42114 16.5352 8.45266 16.4092C8.49743 16.2856 8.52977 16.1579 8.56542 16.0319C8.56957 16.017 8.57373 16.0029 8.57786 15.988C8.75283 15.3984 8.95185 14.8171 9.17327 14.2449C9.3134 13.8817 9.46264 13.5218 9.62104 13.1653C9.72718 12.9264 9.83747 12.6884 9.95107 12.4538C10.3267 11.6768 10.7438 10.9214 11.2065 10.1908C11.6386 9.50586 12.1087 8.84912 12.6237 8.22387C12.6344 8.21143 12.6427 8.19652 12.6527 8.18324C12.8078 8.00578 12.9603 7.82668 13.1187 7.65171C13.6345 7.08038 14.1901 6.55132 14.8054 6.08778C14.9571 5.97334 15.1138 5.86554 15.2689 5.75525C15.283 5.74531 15.3004 5.74365 15.317 5.74281C15.3245 5.72043 15.3452 5.71047 15.3626 5.69969C15.6802 5.49654 16.0102 5.31576 16.3577 5.16982C16.3701 5.16485 16.3817 5.1582 16.395 5.15407C16.3983 5.15323 16.4025 5.15241 16.4066 5.15157C16.4108 5.15157 16.4149 5.14992 16.4191 5.14992C16.4738 5.11508 16.5368 5.09768 16.5973 5.07528C16.7201 5.02968 16.8436 4.98988 16.9697 4.95505C17.0957 4.92105 17.2226 4.89203 17.3519 4.87047C17.3611 4.86881 17.3694 4.86631 17.3785 4.86631C17.3843 4.86631 17.3893 4.86631 17.3942 4.86797C17.4664 4.84476 17.5418 4.84228 17.6156 4.83481C17.6546 4.83066 17.6936 4.82735 17.7317 4.82485C17.7649 4.8232 17.7981 4.82154 17.8312 4.82072C17.8851 4.81988 17.939 4.81988 17.9929 4.82072C18.0303 4.82154 18.0684 4.8232 18.1057 4.82485C18.1347 4.82651 18.1638 4.82819 18.1928 4.83066C18.1978 4.83066 18.2027 4.8315 18.2069 4.83232C18.216 4.83398 18.2243 4.83647 18.2326 4.83978C18.2409 4.8431 18.2483 4.84725 18.2558 4.85222C18.2666 4.85887 18.2774 4.86797 18.2873 4.87709C18.313 4.90033 18.3379 4.92436 18.3619 4.94842C18.4109 4.99651 18.4581 5.04709 18.5029 5.09851C18.6165 5.22703 18.7185 5.36385 18.8122 5.50981C19.0411 5.8672 19.2069 6.25362 19.3321 6.6583C19.3711 6.7835 19.4059 6.90954 19.4375 7.03642C19.4897 7.24788 19.5303 7.46265 19.5627 7.67824C19.5718 7.74126 19.5809 7.80428 19.5892 7.86814C19.605 7.995 19.6191 8.12188 19.6307 8.24876C19.6356 8.3126 19.6406 8.37562 19.6456 8.43948C19.6688 8.7861 19.6788 9.1327 19.6696 9.48016C19.6597 9.84336 19.6381 10.2066 19.6017 10.5689C19.5652 10.9288 19.5154 11.2871 19.4557 11.6428C19.42 11.8567 19.3802 12.0698 19.3371 12.2813C19.3927 12.2854 19.4482 12.2896 19.5038 12.2946C19.9027 12.3277 20.3007 12.3675 20.6987 12.404C20.6954 12.3999 20.6921 12.3966 20.6879 12.3932C21.018 12.4339 21.3488 12.4737 21.6788 12.5143C21.6771 12.5176 21.6747 12.5209 21.6714 12.5243C21.6912 12.5267 21.7113 12.5301 21.7311 12.5326C21.7974 12.2058 21.8571 11.8791 21.9077 11.5499C21.9525 11.2547 21.9923 10.9587 22.023 10.6618C22.0521 10.384 22.0776 10.1062 22.0909 9.82677C22.0977 9.69244 22.105 9.55728 22.1134 9.42293C22.1142 9.40553 22.105 9.38231 22.1325 9.37484C22.1325 9.12442 22.1308 8.87316 22.13 8.62273C22.1167 8.61692 22.1159 8.60532 22.1142 8.59289C22.111 8.5423 22.105 8.49254 22.1034 8.44195C22.0934 8.07792 22.0602 7.71639 22.0114 7.35649C21.9576 6.95765 21.8778 6.56459 21.7675 6.17733C21.7401 6.08031 21.717 5.98246 21.6739 5.89041L21.6649 5.85726C21.6649 5.85726 21.6614 5.85476 21.6614 5.8531C21.6614 5.85228 21.6614 5.85145 21.6614 5.84979C21.6589 5.83817 21.6573 5.82657 21.6532 5.81495C21.493 5.35307 21.2841 4.91524 20.9964 4.51722C20.7195 4.13328 20.3853 3.81237 19.9731 3.57355C19.8189 3.484 19.6514 3.42098 19.493 3.34055C19.4789 3.33308 19.4607 3.33474 19.4441 3.33143C19.43 3.31318 19.4076 3.30819 19.3885 3.29909C19.0145 3.13324 18.6414 2.96738 18.2666 2.80321C18.2185 2.78163 18.1745 2.75013 18.1206 2.7435C18.1115 2.74017 18.1024 2.73769 18.0933 2.73438C18.0294 2.71364 17.9639 2.6987 17.9026 2.6697C17.8967 2.66802 17.8918 2.66637 17.886 2.66389C17.8835 2.66305 17.8802 2.66223 17.8777 2.6614C17.8777 2.6614 17.8768 2.6614 17.876 2.6614C17.8694 2.66555 17.8652 2.66223 17.8611 2.65643C17.7408 2.62574 17.6206 2.60253 17.4987 2.58594C17.4108 2.5735 17.3229 2.56438 17.2342 2.55941C17.2043 2.55775 17.1753 2.55691 17.1455 2.5561C17.0567 2.5536 16.9688 2.55442 16.8809 2.55857C16.764 2.56354 16.6479 2.57432 16.5318 2.59009C16.3295 2.61828 16.1288 2.66058 15.9298 2.71529C15.9016 2.7236 15.8726 2.73106 15.8444 2.74017C15.4704 2.8513 15.1138 3.00139 14.7697 3.17883C14.6553 3.23772 14.5417 3.29991 14.4289 3.36542C14.3261 3.42429 14.2249 3.48483 14.1246 3.54867C14.0914 3.56941 14.0582 3.59097 14.0251 3.61253C13.9919 3.63409 13.9587 3.65565 13.9264 3.67803C13.8609 3.72198 13.7962 3.76676 13.7324 3.81319C13.7008 3.83643 13.6685 3.85964 13.637 3.88286C13.637 3.88533 13.637 3.88699 13.637 3.88949C13.637 3.89114 13.6353 3.8928 13.6345 3.89446C13.632 3.89695 13.6287 3.89779 13.6237 3.89779H13.6229C13.6229 3.89779 13.6229 3.9011 13.6229 3.90192C13.6229 3.90524 13.6212 3.90689 13.6196 3.90773C13.6179 3.90857 13.6163 3.90857 13.6129 3.90773C13.6121 3.90773 13.6105 3.90773 13.6096 3.90608C13.4687 4.00475 13.3318 4.10757 13.1983 4.21455C13.1386 4.26182 13.0797 4.31073 13.0217 4.35966C13.0126 4.36712 13.0035 4.37543 12.9943 4.38287C12.9346 4.43346 12.8749 4.48488 12.8161 4.53712C12.8161 4.53878 12.8161 4.53961 12.8161 4.54127C12.8161 4.5454 12.8144 4.5479 12.8119 4.55039C12.8119 4.55039 12.8103 4.55121 12.8094 4.55205C12.8078 4.55287 12.8053 4.55371 12.8028 4.55371C12.8011 4.55702 12.7986 4.56033 12.7962 4.56283C12.7928 4.56614 12.7903 4.56946 12.7862 4.57195C12.7812 4.57527 12.7754 4.57858 12.7688 4.5794C12.7688 4.58686 12.7671 4.59102 12.7638 4.59267C12.7588 4.59599 12.7497 4.59351 12.7431 4.59433C12.7207 4.61755 12.6975 4.64076 12.6751 4.66316C12.6734 4.66482 12.6726 4.66647 12.6709 4.66731C12.6709 4.66813 12.6709 4.66979 12.6709 4.67063C12.6709 4.67394 12.6693 4.6756 12.6676 4.67809H12.6668C12.6668 4.67809 12.6618 4.68057 12.6568 4.68057C12.6369 4.69715 12.6154 4.71209 12.5963 4.72949C12.5946 4.73115 12.593 4.73199 12.5913 4.73365C12.5184 4.80248 12.4446 4.87131 12.3724 4.94179C12.3674 4.94676 12.3625 4.95089 12.3583 4.95505C12.3359 4.97744 12.3127 4.99816 12.2895 5.01972C12.2314 5.07362 12.1717 5.12586 12.1162 5.18226C12.0863 5.21294 12.0556 5.24362 12.0258 5.27348C11.8533 5.44845 11.6825 5.62508 11.5175 5.80749C11.3069 6.04051 11.102 6.27768 10.903 6.5198C10.8748 6.55463 10.8458 6.58863 10.8176 6.62346C10.8135 6.62843 10.8085 6.63424 10.8052 6.64005C10.7994 6.64833 10.7936 6.65664 10.7877 6.66574C10.7803 6.67736 10.7728 6.68898 10.7654 6.69976C10.7596 6.70804 10.7538 6.71551 10.7471 6.72379C10.7446 6.72629 10.743 6.72876 10.7413 6.73044C10.7322 6.74038 10.7231 6.7495 10.7123 6.75697C10.7123 6.75944 10.7115 6.76028 10.7106 6.76194C10.7106 6.7636 10.7106 6.76525 10.709 6.76691C10.709 6.76775 10.7073 6.76857 10.7065 6.76941C10.7048 6.77024 10.7023 6.77106 10.7007 6.7719C10.6957 6.79512 10.6766 6.80671 10.6609 6.82165C10.66 6.82165 10.6592 6.8233 10.6584 6.82414C10.6534 6.82827 10.6501 6.83326 10.6468 6.83823C10.6451 6.84071 10.6435 6.84321 10.6426 6.84652C10.6418 6.84983 10.6401 6.85233 10.6393 6.85564C10.6393 6.8573 10.6393 6.85814 10.6393 6.85979C10.6393 6.86395 10.6377 6.86642 10.6344 6.86892C10.6344 6.86892 10.6327 6.86892 10.6327 6.86973C10.6319 6.86973 10.6302 6.86973 10.6294 6.86973C10.6285 6.86973 10.6277 6.86973 10.6261 6.86973C10.5896 6.91535 10.5523 6.96096 10.5158 7.00656C10.5141 7.00905 10.5116 7.01155 10.51 7.01402C10.5108 7.01983 10.5108 7.0248 10.51 7.02979C10.51 7.03392 10.5075 7.03642 10.5058 7.03973C10.5058 7.04057 10.5042 7.04223 10.5042 7.04305C10.5017 7.04554 10.4984 7.04886 10.495 7.05051C10.4909 7.05301 10.4859 7.05466 10.4809 7.05632C10.4751 7.06295 10.4693 7.06876 10.4635 7.07539C10.461 7.07788 10.4594 7.08038 10.4577 7.08203C10.4527 7.087 10.4486 7.09281 10.4445 7.09778C10.3508 7.22382 10.2571 7.3507 10.1634 7.47674C10.1634 7.48088 10.1617 7.48337 10.1592 7.48587C10.1592 7.48587 10.1584 7.48669 10.1575 7.48752C10.1559 7.48918 10.1534 7.49 10.1509 7.49C10.0862 7.58123 10.0199 7.67161 9.95604 7.76366C9.94361 7.78188 9.93117 7.80013 9.91872 7.81838C9.82336 7.95853 9.73381 8.10282 9.63761 8.24211C9.58952 8.31178 9.54391 8.38309 9.49831 8.45357C9.45186 8.52406 9.40543 8.59454 9.35487 8.66337C9.27442 8.77364 9.20559 8.8939 9.1351 9.01081C9.10442 9.0614 9.07374 9.11198 9.04389 9.16257C8.70308 9.72809 8.37221 10.2994 8.09028 10.8973C8.07369 10.9321 8.05463 10.9645 8.03555 10.9976C8.01648 11.03 7.99658 11.0632 7.97999 11.0963C7.88382 11.2895 7.79011 11.4836 7.69889 11.6793C7.66489 11.7523 7.63173 11.8252 7.59772 11.899C7.55378 11.9944 7.51064 12.0906 7.46836 12.1868C7.41447 12.3087 7.36057 12.4314 7.30749 12.5549C7.28511 12.6064 7.26353 12.6586 7.24197 12.7108C7.2146 12.7755 7.18726 12.8402 7.16071 12.9057C7.06619 13.1354 6.97496 13.3676 6.88625 13.5998C6.86054 13.6678 6.83482 13.7358 6.80995 13.8046C6.74943 13.9704 6.69054 14.1363 6.63167 14.303C6.61758 14.3428 6.60346 14.3826 6.58937 14.4224C6.57859 14.4531 6.56781 14.4846 6.55787 14.5161C6.5305 14.5948 6.50479 14.6745 6.47992 14.7541C6.44924 14.8511 6.41937 14.9481 6.38953 15.0451C6.36797 15.1148 6.34641 15.1836 6.32403 15.2533C6.27345 15.4083 6.21456 15.5617 6.19466 15.7251C6.19384 15.7334 6.18388 15.7409 6.17891 15.7483C6.15404 15.8163 6.1391 15.886 6.12252 15.9556C6.11423 15.9888 6.10427 16.022 6.09433 16.0551C6.08437 16.0883 6.07443 16.1215 6.0653 16.1546C6.02716 16.2973 5.98985 16.4407 5.95501 16.5842C5.92267 16.7135 5.89199 16.8446 5.86215 16.9747C5.82897 17.1215 5.79745 17.2683 5.76677 17.4151C5.74024 17.5436 5.71455 17.6729 5.69049 17.8023C5.67143 17.9051 5.65235 18.0071 5.63494 18.11C5.61917 18.2003 5.60508 18.2907 5.59014 18.3811C5.5719 18.4964 5.55449 18.6108 5.53874 18.7261C5.52465 18.8297 5.51137 18.9326 5.4981 19.0362C5.46329 19.3206 5.43508 19.6051 5.4127 19.8911C5.40689 19.9732 5.40108 20.0545 5.39695 20.1366C5.39196 20.2187 5.38783 20.2999 5.38449 20.382C5.37787 20.5454 5.3729 20.7096 5.36793 20.8729C5.36709 20.9103 5.36709 20.9476 5.36627 20.985C5.36627 20.9964 5.36627 21.0073 5.36627 21.0189C5.36543 21.2286 5.37372 21.4376 5.38036 21.6459C5.38036 21.6549 5.38202 21.6649 5.38202 21.6739C5.38368 21.7113 5.38533 21.7486 5.38783 21.786C5.39527 21.9369 5.40773 22.0877 5.42348 22.2386C5.43426 22.3407 5.44586 22.4436 5.45913 22.5455C5.46079 22.5604 5.46329 22.5745 5.46494 22.5894C5.49315 22.7969 5.52549 23.0032 5.56611 23.208C5.64157 23.5911 5.74192 23.9677 5.87956 24.3334C5.88205 24.3391 5.88453 24.3457 5.88702 24.3524C5.98985 24.6226 6.10924 24.8857 6.25602 25.136C6.49732 25.5482 6.79171 25.9131 7.16735 26.204C7.21213 26.2389 7.25774 26.2721 7.30417 26.3052C7.34895 26.3359 7.39706 26.3641 7.44349 26.3924C7.45177 26.3981 7.46174 26.4022 7.47086 26.4065C7.47749 26.4097 7.48411 26.4122 7.49074 26.4155C7.50236 26.4214 7.51314 26.4288 7.5206 26.4396C7.52308 26.4429 7.52557 26.4478 7.52807 26.4529V26.4513C7.54051 26.4494 7.55129 26.4521 7.55709 26.4654H7.55791C7.56953 26.4654 7.58031 26.4686 7.58612 26.4793C7.58943 26.4793 7.59191 26.4793 7.5944 26.4801H7.59524C7.60271 26.4819 7.60934 26.4852 7.61431 26.4926C7.61431 26.4926 7.61431 26.4926 7.61431 26.4934C7.61431 26.4934 7.61596 26.4934 7.61678 26.4934C7.61846 26.4934 7.62012 26.4934 7.62177 26.4934C7.62343 26.4934 7.62425 26.4942 7.62674 26.4942C7.62756 26.4942 7.62924 26.4942 7.63006 26.495C7.63173 26.495 7.63337 26.4969 7.63503 26.4977C7.63503 26.4977 7.63668 26.4977 7.63752 26.4985C7.63918 26.5001 7.64084 26.5018 7.64249 26.5034C7.64249 26.5034 7.64249 26.5034 7.64333 26.5034C7.65908 26.52 7.68064 26.5241 7.70054 26.5333C8.11434 26.7166 8.52895 26.8998 8.94275 27.0831C9.14756 27.1735 9.35071 27.2688 9.56712 27.3286C9.78355 27.3883 10.0033 27.4288 10.228 27.438C10.2653 27.438 10.3027 27.438 10.34 27.438C10.4519 27.438 10.5639 27.438 10.6758 27.438C10.7844 27.4347 10.8922 27.4206 10.9992 27.404C11.4346 27.3384 11.8525 27.2099 12.2563 27.0367C12.996 26.719 13.6635 26.2854 14.2896 25.7836C14.4272 25.6734 14.5616 25.5599 14.6951 25.4445C15.1603 25.4529 15.6247 25.4553 16.0899 25.4502C16.5327 25.4453 16.9763 25.4379 17.4191 25.4204C17.4407 25.4081 17.4639 25.4081 17.4871 25.4171C17.4937 25.4171 17.5004 25.4171 17.507 25.4171C17.5335 25.4046 17.5609 25.4054 17.5883 25.4138H17.6082C17.6239 25.4038 17.6405 25.4021 17.6571 25.4054C17.6571 25.4054 17.6579 25.4054 17.6588 25.4054H17.6596C17.6654 25.4073 17.6704 25.4089 17.6753 25.4105H17.6952C17.706 25.4038 17.7168 25.4013 17.7276 25.4005C17.7392 25.4005 17.7508 25.403 17.7632 25.4064C17.7699 25.4064 17.7765 25.4064 17.7831 25.4064C17.7906 25.4021 17.7981 25.3997 17.8055 25.3981C17.8204 25.3948 17.8362 25.3964 17.852 25.4021C17.8586 25.4021 17.8644 25.4021 17.871 25.4021C17.871 25.4021 17.8727 25.4021 17.8735 25.4013C17.8951 25.3907 17.9175 25.3907 17.939 25.3989C17.9457 25.3989 17.9523 25.3989 17.9581 25.3989C17.9805 25.3848 18.0029 25.3864 18.0269 25.3948C18.0336 25.3948 18.0402 25.3948 18.046 25.3948C18.0684 25.3815 18.0916 25.3831 18.1148 25.3907C18.1215 25.3907 18.1281 25.3907 18.1339 25.3907C18.1389 25.3872 18.143 25.3856 18.1472 25.3839C18.1546 25.3815 18.1613 25.3815 18.1687 25.3815C18.1754 25.3815 18.1828 25.3831 18.1895 25.3864C18.2906 25.3815 18.391 25.3782 18.4921 25.3723C19.2666 25.3267 20.0386 25.2653 20.8098 25.18C21.9807 25.0497 23.1441 24.8748 24.2935 24.6128C25.0763 24.4344 25.8482 24.2205 26.5946 23.9196C26.9951 23.7578 27.384 23.5729 27.744 23.3307C27.9604 23.1849 28.161 23.0206 28.3218 22.8108C28.423 22.6774 28.5051 22.5338 28.5366 22.3665C28.549 22.3532 28.554 22.3374 28.5548 22.3209C28.5623 22.2006 28.5664 22.0811 28.5556 21.9609L28.549 21.9617ZM18.1546 19.4251C17.939 19.4118 17.7243 19.4002 17.5087 19.3911C17.7243 19.4011 17.939 19.4127 18.1546 19.4251ZM13.3725 23.3399C13.3376 23.3706 13.3028 23.4021 13.268 23.4328C13.0234 23.6476 12.7713 23.8507 12.5084 24.0407C12.2455 24.2297 11.9727 24.4054 11.6875 24.5623C11.6468 24.5846 11.6054 24.6069 11.5639 24.6286C11.4686 24.6783 11.3724 24.7255 11.2753 24.7711C11.1783 24.8159 11.0797 24.8574 10.9801 24.8963C10.7811 24.9742 10.5771 25.0391 10.3665 25.0888C10.2753 25.1103 10.1841 25.1285 10.0929 25.1426C10.0605 25.1477 10.0282 25.1526 9.99667 25.1575C9.87228 25.1741 9.7479 25.1841 9.6227 25.1874C9.58124 25.1882 9.53894 25.189 9.49747 25.1882C9.45519 25.1882 9.41371 25.1866 9.37145 25.1849C9.35321 25.1841 9.33578 25.1816 9.31754 25.18C9.30013 25.1784 9.28188 25.1759 9.26364 25.1741C9.24042 25.1724 9.22301 25.1626 9.20561 25.1477C9.15584 25.1029 9.10857 25.0565 9.06214 25.0084C8.99331 24.937 8.92779 24.8624 8.86643 24.7852C8.82581 24.7339 8.786 24.6807 8.74786 24.6261C8.72879 24.5987 8.71055 24.5713 8.6923 24.5439C8.69064 24.5414 8.68981 24.539 8.68899 24.5365C8.68815 24.5324 8.68649 24.5273 8.68567 24.5232C8.67821 24.5159 8.66825 24.5083 8.66246 24.5001L8.66078 24.4983C8.57538 24.3633 8.49827 24.224 8.4286 24.0804C8.39379 24.0082 8.36061 23.937 8.32993 23.8631C8.29841 23.7901 8.2694 23.7155 8.24204 23.64C8.23872 23.631 8.23954 23.6218 8.23788 23.612C8.18979 23.5224 8.16574 23.4244 8.1359 23.3291C8.06954 23.1159 8.0173 22.8995 7.97418 22.6807C7.96672 22.6416 7.95927 22.6036 7.95181 22.5645C7.94847 22.5487 7.94682 22.5338 7.9435 22.5181C7.94019 22.499 7.93604 22.48 7.93272 22.461C7.93272 22.4559 7.93272 22.4518 7.93107 22.4469C7.92941 22.4303 7.92859 22.4129 7.92693 22.3961C7.89873 22.2744 7.88629 22.1499 7.8722 22.0255C7.82409 21.6293 7.80586 21.2313 7.80502 20.8332C7.80502 20.6831 7.80668 20.5321 7.81083 20.3812C7.81331 20.2917 7.81746 20.2029 7.82243 20.1142C8.14999 20.0363 8.48002 19.9674 8.81088 19.9044C9.3764 19.7974 9.94526 19.7104 10.5158 19.6399C10.5249 19.6391 10.534 19.6374 10.5431 19.6366C10.5539 19.6349 10.5647 19.6341 10.5755 19.6349C10.5821 19.6349 10.5887 19.6366 10.5954 19.6382C10.6841 19.6192 10.7745 19.6092 10.8649 19.6001C10.9063 19.5959 10.9478 19.5918 10.9884 19.5876C11.6153 19.518 12.243 19.4649 12.8716 19.4268C13.0482 19.416 13.2249 19.406 13.4007 19.3978C13.8518 19.3762 14.3029 19.3621 14.754 19.3538C15.0011 19.3488 15.2482 19.3463 15.4953 19.3463C15.8477 19.3463 16.2001 19.3505 16.5517 19.3588C16.4754 19.4856 16.3983 19.6125 16.3196 19.7377C16.2623 19.8298 16.2043 19.921 16.1454 20.0114C16.0401 20.1731 15.9331 20.3331 15.8237 20.4923C15.6213 20.7859 15.4115 21.0736 15.1935 21.3556C15.1246 21.4452 15.055 21.5338 14.9837 21.6217C14.9712 21.6375 14.9588 21.6532 14.9463 21.6682C14.8435 21.7958 14.739 21.9212 14.6321 22.0447C14.4538 22.2511 14.2705 22.4526 14.0823 22.65C14.0251 22.7097 13.9679 22.7694 13.9098 22.8284C13.7605 22.9791 13.6063 23.1268 13.4488 23.2702C13.423 23.2935 13.3973 23.3174 13.3716 23.3407L13.3725 23.3399ZM14.2117 23.3C14.3941 23.306 14.5773 23.3109 14.7598 23.3141C14.5765 23.3109 14.3941 23.306 14.2117 23.3ZM26.2704 21.3581C26.2653 21.3646 26.2571 21.3714 26.2438 21.3812C26.2264 21.3945 26.209 21.4086 26.1906 21.4211C26.1732 21.4344 26.155 21.4469 26.1368 21.4599C26.1029 21.4841 26.0679 21.5074 26.0323 21.5297C26.0282 21.5321 26.0239 21.5346 26.0198 21.5381C25.9908 21.5563 25.9617 21.5745 25.9319 21.5919C25.8881 21.6185 25.845 21.6432 25.8002 21.6682C25.4966 21.8373 25.1773 21.9734 24.8515 22.0936C24.5438 22.2063 24.2321 22.3051 23.9177 22.3929C23.4675 22.5189 23.0114 22.6234 22.5512 22.7146C22.1042 22.8042 21.6557 22.8797 21.2054 22.9451C20.7551 23.0106 20.3032 23.0654 19.8504 23.1127C19.702 23.1284 19.5535 23.1425 19.4051 23.1566C19.1074 23.1841 18.8097 23.2072 18.512 23.2272C18.3628 23.237 18.2135 23.2462 18.0651 23.2544C17.7309 23.2736 17.3967 23.2878 17.0625 23.2984C17.002 23.3 16.9415 23.3027 16.8801 23.3043C16.8246 23.306 16.769 23.3076 16.7126 23.3092C16.8494 23.1401 16.9863 22.9717 17.1115 22.7934C17.1297 22.7711 17.1479 22.7486 17.1654 22.7255C17.4332 22.3646 17.6903 21.9973 17.9374 21.6234C17.9506 21.6027 18.0195 21.4982 18.0402 21.4659C18.1969 21.2245 18.3487 20.9807 18.4971 20.7336C18.7392 20.329 18.9706 19.9185 19.1904 19.5022C19.6099 19.5387 20.0287 19.581 20.4474 19.6324C20.4781 19.6357 20.5088 19.6424 20.5403 19.6473C20.7277 19.6606 20.9135 19.6888 21.0984 19.7162C21.3364 19.751 21.5745 19.7892 21.8115 19.8289C22.1316 19.8829 22.4517 19.9425 22.7692 20.0114C22.941 20.0487 23.1118 20.0868 23.2834 20.1242C23.2851 20.1242 23.2875 20.1242 23.2892 20.125C23.2908 20.125 23.2926 20.125 23.2951 20.1258C23.3057 20.1275 23.3182 20.1275 23.3299 20.1291C23.3448 20.1308 23.3597 20.1349 23.3714 20.1474C23.7379 20.2411 24.1035 20.3397 24.4626 20.4583C24.4958 20.4691 24.5338 20.4724 24.5596 20.5006C24.6533 20.5172 24.7388 20.5562 24.8265 20.5885C24.9038 20.6167 24.981 20.6466 25.0572 20.6772C25.2753 20.7635 25.4892 20.8588 25.6965 20.9692C25.7785 21.0122 25.8591 21.0578 25.9386 21.1059C26.044 21.1699 26.1467 21.237 26.243 21.3141C26.2712 21.3364 26.2794 21.3456 26.2686 21.3589L26.2704 21.3581Z" fill="#828282"/>
<path d="M28.5562 15.3828C28.5464 15.1846 28.4709 15.0096 28.3555 14.8504C28.1931 14.624 27.9833 14.4474 27.756 14.2915C27.3688 14.0262 26.945 13.8313 26.5114 13.6571C26.27 13.5601 26.0256 13.4739 25.7783 13.3943C25.4019 13.2732 25.0196 13.1696 24.6357 13.075C24.1556 12.9573 23.6729 12.8553 23.1871 12.7665C22.8909 12.7127 22.5941 12.6604 22.2965 12.6173C22.2873 12.6173 22.2781 12.6165 22.2691 12.6156C22.2642 12.6156 22.2582 12.6148 22.2533 12.614C22.2425 12.6131 22.2308 12.6115 22.2202 12.6107C22.1952 12.6074 22.1695 12.6024 22.1455 12.5966C22.0568 12.5825 21.9688 12.5684 21.8802 12.5535C21.8287 12.546 21.7774 12.5385 21.726 12.5319C21.706 12.5286 21.6861 12.5261 21.6663 12.5236C21.4613 12.4987 21.2557 12.4747 21.0509 12.4481C20.9912 12.4407 20.9315 12.4357 20.8718 12.4291C20.8121 12.4233 20.7524 12.4158 20.6935 12.4042C20.2955 12.3669 19.8975 12.3271 19.4986 12.2947C19.443 12.2906 19.3875 12.2856 19.3319 12.2814C18.9886 12.2541 18.6453 12.2309 18.3012 12.2143C18.1362 12.2068 17.9703 12.1977 17.8045 12.1894C17.6793 12.1836 17.5532 12.177 17.428 12.172C17.1411 12.1612 16.855 12.1546 16.5681 12.1488C16.4611 12.1463 16.3542 12.1446 16.248 12.143C16.248 12.143 16.4446 11.3519 16.5233 10.9522C16.583 10.6529 16.6345 10.3518 16.68 10.05C16.7099 9.84766 16.7364 9.64533 16.7597 9.44217C16.7837 9.2299 16.8028 9.01678 16.816 8.80285C16.8301 8.57482 16.8393 8.34595 16.8442 8.11791C16.85 7.81193 16.8401 7.50676 16.8177 7.2016C16.8028 7.00011 16.7837 6.79943 16.758 6.59877C16.7232 6.32429 16.6734 6.05312 16.6079 5.78445C16.5557 5.56968 16.496 5.35574 16.4164 5.14844C16.4122 5.14844 16.4081 5.14844 16.4039 5.15009C16.3998 5.15009 16.3956 5.15175 16.3923 5.15259C16.379 5.15672 16.3674 5.16337 16.355 5.16834C16.0067 5.31428 15.6775 5.49588 15.3599 5.69822C15.3417 5.70983 15.3218 5.71896 15.3143 5.74133C15.3906 6.22312 15.4263 6.70738 15.4304 7.19498C15.437 7.89235 15.3856 8.5856 15.2903 9.27633C15.2181 9.79626 15.1228 10.312 15.0067 10.8245C14.9063 11.269 14.7902 11.7093 14.6609 12.1455C14.3483 12.1488 14.0348 12.1587 13.7222 12.1687C13.3059 12.1828 12.8896 12.2019 12.4742 12.2284C12.1077 12.2516 11.7403 12.2757 11.3738 12.3072C10.8978 12.3486 10.4227 12.3951 9.94919 12.4531C9.83559 12.6886 9.7253 12.9258 9.61916 13.1646C9.46078 13.5212 9.31152 13.881 9.17139 14.2442C9.17801 14.2434 9.18382 14.2426 9.19045 14.2418C9.74354 14.1638 10.2991 14.0991 10.8547 14.0436C11.0139 14.0278 11.1731 14.0087 11.3332 13.9946C11.7279 13.9615 12.1234 13.9391 12.519 13.9142C13.0331 13.881 13.548 13.8603 14.0638 13.8454C14.0705 13.8454 14.0763 13.8454 14.0829 13.8454C14.5216 13.8329 14.9602 13.8271 15.3997 13.8263C15.51 13.8263 15.6203 13.8263 15.7314 13.8271C15.9819 13.828 16.2331 13.8305 16.4835 13.8346C16.768 13.8396 17.0515 13.8504 17.336 13.8603C17.3385 13.8603 17.341 13.8603 17.3434 13.8603C17.6154 13.8703 17.8874 13.8802 18.1594 13.8935C18.3684 13.9034 18.5773 13.9184 18.7863 13.9341C18.8311 13.9374 18.8759 13.9407 18.9206 13.9441C19.2341 13.9665 19.5467 13.9897 19.8602 14.0137C19.9373 14.0195 20.0136 14.0303 20.0907 14.0378C20.5053 14.0742 20.9191 14.1207 21.332 14.1738C21.517 14.197 21.7011 14.2218 21.886 14.2467C22.2748 14.3006 22.663 14.3653 23.0494 14.4325C23.4217 14.498 23.7932 14.5718 24.1613 14.6555C24.4855 14.7293 24.8081 14.8098 25.1282 14.8968C25.5488 15.0113 25.9615 15.1448 26.3696 15.2957C26.722 15.4267 27.0628 15.581 27.393 15.7609C27.62 15.8853 27.8356 16.0246 28.0322 16.1938C28.2105 16.3472 28.3664 16.5197 28.4701 16.7352C28.5114 16.8207 28.5306 16.9127 28.557 17.0023C28.558 16.824 28.5597 16.6457 28.5605 16.4674C28.5605 16.2029 28.5605 15.9375 28.5605 15.673C28.5605 15.5768 28.5638 15.4798 28.5589 15.3844L28.5562 15.3828Z" fill="#7F7F7F"/>
<path d="M18.0889 2.73017C18.0251 2.70945 17.9596 2.69452 17.8982 2.6655C17.8982 2.65721 17.899 2.64891 17.8998 2.64062C17.9761 2.66384 18.0483 2.69618 18.1155 2.7393C18.1063 2.73598 18.0972 2.73349 18.0881 2.73017H18.0889Z" fill="#404A5A"/>
<path d="M17.8659 2.65328C17.8659 2.65328 17.8715 2.65572 17.8731 2.65814C17.8731 2.65814 17.8723 2.65814 17.8715 2.65814C17.865 2.6622 17.861 2.65896 17.8569 2.65328C17.8602 2.65248 17.8626 2.65166 17.8659 2.65328Z" fill="#404A5A"/>
<path d="M10.1557 7.47656C10.1557 7.47656 10.1541 7.48277 10.1518 7.48508C10.1518 7.48508 10.151 7.48586 10.1502 7.48663C10.1487 7.4882 10.1464 7.48896 10.144 7.48896C10.144 7.48819 10.144 7.48741 10.144 7.48663V7.48432C10.144 7.48432 10.1487 7.47968 10.151 7.47813C10.1526 7.47813 10.1541 7.47656 10.1557 7.47656Z" fill="#404A5A"/>
<path d="M10.4981 7.04158C10.4981 7.04158 10.4923 7.04739 10.4889 7.04905C10.4848 7.05152 10.4807 7.05318 10.4749 7.05484C10.4749 7.05152 10.4749 7.04905 10.4749 7.04655C10.4749 7.04406 10.4749 7.04158 10.4757 7.03993C10.4773 7.03577 10.479 7.03162 10.4815 7.02831C10.484 7.02499 10.4881 7.0225 10.4914 7.01918C10.4956 7.01671 10.4997 7.01421 10.5039 7.01172C10.5047 7.01753 10.5047 7.0225 10.5039 7.02747C10.5039 7.03162 10.5014 7.03412 10.4997 7.03743C10.4997 7.03827 10.4981 7.03993 10.4981 7.04074V7.04158Z" fill="#404A5A"/>
<path d="M10.6285 6.86614C10.6285 6.86614 10.6268 6.86614 10.6268 6.86696C10.626 6.86696 10.6244 6.86696 10.6236 6.86696C10.6228 6.86696 10.622 6.86696 10.6204 6.86696C10.6244 6.8621 10.6285 6.85642 10.6325 6.85156C10.6325 6.85318 10.6325 6.85398 10.6325 6.8556C10.6325 6.85966 10.6309 6.8621 10.6277 6.86452L10.6285 6.86614Z" fill="#215CB5"/>
<path d="M10.6956 6.76445C10.6956 6.76039 10.6988 6.75715 10.702 6.75553C10.7037 6.75553 10.7053 6.75471 10.7069 6.75391C10.7069 6.75633 10.7061 6.75715 10.7053 6.75877C10.7053 6.76039 10.7053 6.76201 10.7037 6.76363C10.7037 6.76445 10.702 6.76525 10.7012 6.76607C10.6996 6.76689 10.6972 6.76769 10.6956 6.76851C10.6956 6.76689 10.6956 6.76607 10.6956 6.76445Z" fill="#215CB5"/>
<path d="M16.5825 2.06506C16.5979 2.05857 16.6077 2.06506 16.6166 2.07722C16.6028 2.08047 16.5882 2.08371 16.5825 2.06587V2.06506Z" fill="#FEC35E"/>
<path d="M12.6523 4.67702C12.6572 4.67298 12.6613 4.66892 12.6661 4.66406C12.6661 4.66486 12.6661 4.66648 12.6661 4.6673C12.6661 4.67054 12.6645 4.67216 12.6629 4.6746H12.6621C12.6621 4.6746 12.6572 4.67702 12.6523 4.67702Z" fill="#404A5A"/>
<path d="M12.7493 4.57828C12.7534 4.57584 12.7582 4.57422 12.7639 4.57422C12.7639 4.58152 12.7623 4.58558 12.759 4.5872C12.7542 4.59044 12.7452 4.58802 12.7388 4.58882C12.742 4.58396 12.7452 4.58072 12.7493 4.57828Z" fill="#404A5A"/>
<path d="M12.8118 4.53451C12.8118 4.53451 12.8102 4.54099 12.8077 4.54343C12.8077 4.54343 12.8061 4.54423 12.8053 4.54505C12.8037 4.54585 12.8012 4.54667 12.7988 4.54667C12.8029 4.54179 12.8077 4.53613 12.8118 4.53125C12.8118 4.53289 12.8118 4.53369 12.8118 4.53531V4.53451Z" fill="#404A5A"/>
<path d="M13.6336 3.88459C13.6336 3.88459 13.6319 3.88783 13.6311 3.88945C13.6287 3.89189 13.6255 3.89269 13.6206 3.89269C13.6246 3.88783 13.6295 3.88377 13.6344 3.87891C13.6344 3.88135 13.6344 3.88297 13.6344 3.88541L13.6336 3.88459Z" fill="#404A5A"/>
<path d="M13.6182 3.89453C13.6182 3.89453 13.6182 3.89697 13.6182 3.89777C13.6182 3.90101 13.6166 3.90265 13.6149 3.90345C13.6133 3.90427 13.6117 3.90427 13.6085 3.90345C13.6076 3.90345 13.606 3.90345 13.6052 3.90183C13.6101 3.89939 13.6141 3.89697 13.619 3.89453H13.6182Z" fill="#404A5A"/>
<path d="M17.8942 2.63608C17.4846 2.45364 17.0741 2.27204 16.6645 2.08878C16.6479 2.08131 16.6313 2.08712 16.6163 2.078C16.6023 2.08131 16.5873 2.08463 16.5815 2.06639C16.5649 2.07385 16.5492 2.06639 16.5334 2.06058C16.1744 1.95278 15.807 1.91962 15.433 1.93869C14.938 1.96439 14.4637 2.08546 14.0026 2.26374C13.8575 2.3193 13.7149 2.38067 13.5756 2.44617C13.5407 2.46276 13.5059 2.47934 13.4711 2.49676C13.4304 2.51666 13.3898 2.53656 13.35 2.55812C13.2961 2.58549 13.243 2.61368 13.1891 2.6427C12.9097 2.79527 12.6385 2.96527 12.3757 3.14771C12.3209 3.18585 12.2662 3.224 12.2123 3.26297L12.18 3.28618C12.0506 3.38072 11.9237 3.4769 11.7994 3.57641C11.4876 3.82436 11.1882 4.08804 10.8988 4.36418C10.0953 5.13122 9.38133 5.97786 8.7279 6.8751C8.71132 6.89831 8.69473 6.92237 8.67816 6.94558C8.67816 6.94558 8.6765 6.95137 8.67483 6.95305C8.67317 6.95471 8.67069 6.95552 8.66738 6.95636C8.60849 7.0401 8.55044 7.12303 8.49157 7.20679C8.39372 7.3461 8.29754 7.4854 8.203 7.62721C8.11345 7.76154 8.02472 7.89754 7.93764 8.03352C7.868 8.14134 7.8 8.24995 7.73283 8.35942C7.67313 8.45726 7.61342 8.55429 7.55455 8.65213C7.47163 8.7906 7.38952 8.9299 7.30826 9.07087C7.26763 9.14136 7.22783 9.21103 7.18802 9.28233C7.18387 9.29062 7.17808 9.29808 7.17309 9.30639C7.17309 9.31551 7.16978 9.32295 7.16647 9.33042C7.16315 9.33541 7.15984 9.3412 7.15734 9.34619C7.12003 9.41252 7.08354 9.4797 7.04705 9.54685C6.90941 9.79811 6.77507 10.0519 6.64571 10.3073C6.59098 10.4151 6.53708 10.5237 6.484 10.6323C6.1971 11.2194 5.93091 11.8156 5.68629 12.4201C5.5561 12.7411 5.43255 13.0645 5.3148 13.3895C5.2526 13.562 5.19123 13.7353 5.13236 13.9094C5.02373 14.2312 4.92422 14.5554 4.8272 14.8805C4.7874 15.014 4.74843 15.1483 4.71112 15.2826C4.71028 15.286 4.70947 15.2893 4.70863 15.2926C4.64976 15.5032 4.59502 15.7147 4.54362 15.927C4.49635 16.1177 4.45074 16.3092 4.40846 16.5016C4.37197 16.6658 4.33879 16.8308 4.30563 16.9958C4.29817 17.0348 4.2907 17.0738 4.28323 17.1136C4.27992 17.1293 4.27743 17.1451 4.27411 17.1608C4.27327 17.1667 4.27162 17.1724 4.2708 17.1791C4.26499 17.2106 4.25836 17.2413 4.25255 17.2728C4.20528 17.5307 4.163 17.7894 4.12651 18.0498C4.09086 18.301 4.05934 18.5515 4.03281 18.8036C4.027 18.8599 4.02203 18.9163 4.01622 18.9727C4.01622 18.9769 4.01538 18.981 4.01538 18.9851C4.01125 19.0283 4.00875 19.059 4.00544 19.0896C3.99382 19.2298 3.98388 19.3707 3.9756 19.5109C3.96729 19.6518 3.96067 19.7928 3.95651 19.9338C3.95651 19.952 3.95651 19.9703 3.95486 19.9885C3.94657 20.2597 3.94492 20.53 3.9532 20.8003C3.96148 21.0556 3.9756 21.3103 3.99963 21.565C4.02285 21.8186 4.05519 22.0716 4.09914 22.3244C4.1207 22.448 4.14392 22.5707 4.17045 22.6926C4.25836 23.104 4.37694 23.5069 4.53947 23.8968C4.55107 23.924 4.56185 23.9506 4.5743 23.978C4.5859 24.0046 4.59834 24.0318 4.60995 24.0584C4.63814 24.1214 4.668 24.1835 4.69869 24.2449C4.75009 24.3478 4.80483 24.448 4.86288 24.546C5.02207 24.8146 5.20948 25.0643 5.43172 25.2897C5.48977 25.3495 5.55029 25.4059 5.61249 25.4597C5.72941 25.5618 5.8538 25.6555 5.98646 25.7393C6.01136 25.7551 6.04036 25.7641 6.05861 25.7882C6.0611 25.7915 6.0636 25.7956 6.06525 25.7997C6.07769 25.7972 6.08681 25.7997 6.09013 25.813C6.14153 25.8254 6.18299 25.8602 6.23026 25.8811C6.48234 25.993 6.73361 26.1048 6.98569 26.2169C7.12916 26.2808 7.27344 26.3429 7.41773 26.4059L7.43598 26.3894C7.38952 26.3603 7.34143 26.3329 7.29666 26.3022C7.24939 26.2699 7.20461 26.236 7.15984 26.2012C6.78419 25.9093 6.48981 25.5452 6.24851 25.1331C6.10173 24.8827 5.98233 24.6198 5.87951 24.3494C5.87701 24.3429 5.87452 24.337 5.87204 24.3304C5.73438 23.9647 5.63405 23.5881 5.5586 23.205C5.51795 23.0003 5.48561 22.7939 5.45743 22.5865C5.45577 22.5715 5.45328 22.5574 5.45162 22.5425C5.43834 22.4406 5.42675 22.3377 5.41597 22.2357C5.4002 22.0849 5.3886 21.9348 5.38031 21.783C5.37864 21.7456 5.37616 21.7083 5.3745 21.6711C5.3745 21.6619 5.37367 21.6519 5.37285 21.6429C5.36538 21.4338 5.35792 21.2248 5.35873 21.016C5.35873 21.0043 5.35873 20.9926 5.35873 20.982C5.35873 20.9446 5.35873 20.9073 5.36041 20.87C5.36538 20.7058 5.37035 20.5424 5.37698 20.3791C5.38031 20.297 5.38445 20.2157 5.38942 20.1336C5.39441 20.0515 5.39938 19.9703 5.40519 19.8882C5.42675 19.6021 5.45577 19.3177 5.49058 19.0332C5.50302 18.9296 5.5163 18.8268 5.53123 18.7231C5.54698 18.6078 5.56438 18.4926 5.58263 18.3782C5.59674 18.2878 5.61165 18.1974 5.6274 18.107C5.64483 18.0042 5.6639 17.9022 5.68298 17.7994C5.70701 17.67 5.73273 17.5415 5.75925 17.4121C5.78994 17.2653 5.82146 17.1177 5.85461 16.9718C5.88448 16.8416 5.91516 16.7114 5.9475 16.5812C5.98315 16.4378 6.01964 16.2943 6.05779 16.1517C6.06691 16.1185 6.07685 16.0853 6.08681 16.0522C6.09675 16.019 6.10672 15.9858 6.115 15.9527C6.13241 15.883 6.14652 15.8133 6.17139 15.7454C6.1772 15.7379 6.18633 15.7304 6.18714 15.7221C6.20705 15.558 6.26591 15.4045 6.3165 15.2503C6.3389 15.1815 6.36046 15.1118 6.38201 15.0422C6.41186 14.9452 6.44172 14.8481 6.4724 14.7511C6.49728 14.6715 6.52299 14.5919 6.55035 14.5131C6.56113 14.4824 6.57108 14.4509 6.58185 14.4194C6.59595 14.3796 6.61006 14.3398 6.62415 14.3C6.68386 14.1341 6.74189 13.9675 6.80244 13.8016C6.82731 13.7336 6.85302 13.6648 6.87873 13.5968C6.96744 13.3638 7.05867 13.1324 7.15319 12.9027C7.17974 12.8372 7.20709 12.7726 7.23446 12.7079C7.25685 12.6556 7.27841 12.6042 7.29997 12.552C7.35305 12.4293 7.40695 12.3065 7.46085 12.1838C7.50313 12.0876 7.54625 11.9923 7.5902 11.8961C7.62338 11.8223 7.65738 11.7501 7.69137 11.6763C7.78258 11.4806 7.87546 11.2866 7.97248 11.0934C7.98907 11.0594 8.00897 11.027 8.02803 10.9947C8.04712 10.9623 8.06618 10.9292 8.08277 10.8944C8.36469 10.2965 8.69557 9.72513 9.03638 9.1596C9.06706 9.10902 9.0969 9.05844 9.12759 9.00785C9.19891 8.89012 9.2669 8.77072 9.34735 8.66043C9.39791 8.5916 9.44435 8.52193 9.49078 8.45063C9.53721 8.38014 9.58282 8.30884 9.63009 8.23917C9.72629 8.09987 9.81584 7.95559 9.9112 7.81543C9.92364 7.79719 9.93607 7.77896 9.94851 7.76072C10.0124 7.66867 10.0787 7.57828 10.1434 7.48706C10.1434 7.48624 10.1434 7.4854 10.1434 7.48458V7.48209C10.1434 7.48209 10.1484 7.47712 10.1508 7.47546C10.1525 7.47546 10.1542 7.4738 10.1558 7.4738C10.2495 7.34776 10.3432 7.22088 10.4369 7.09484C10.4411 7.08903 10.446 7.08406 10.4502 7.07909C10.4527 7.07659 10.4543 7.0741 10.456 7.07244C10.4618 7.06582 10.4676 7.06001 10.4734 7.05338C10.4734 7.05007 10.4734 7.04757 10.4734 7.0451C10.4734 7.0426 10.4734 7.0401 10.4743 7.03845C10.4759 7.03348 10.4776 7.03016 10.4801 7.02685C10.4825 7.02352 10.4867 7.02104 10.49 7.01773C10.4942 7.01523 10.4983 7.01274 10.5024 7.01026C10.5049 7.00777 10.5066 7.00529 10.5082 7.0028C10.5447 6.95718 10.582 6.91159 10.6185 6.86597C10.6227 6.861 10.6268 6.8552 10.631 6.85022C10.631 6.84689 10.6326 6.84442 10.6343 6.8411C10.6351 6.83861 10.6368 6.83529 10.6384 6.8328C10.6418 6.82783 10.6459 6.82286 10.65 6.8187C10.65 6.81789 10.6517 6.81705 10.6525 6.81621C10.6683 6.8013 10.6882 6.78886 10.6923 6.76646C10.6923 6.76481 10.6923 6.76397 10.6923 6.76231C10.6923 6.75818 10.6957 6.75485 10.699 6.75319C10.7006 6.75319 10.7023 6.75237 10.7039 6.75153C10.7147 6.74325 10.7247 6.73496 10.733 6.725C10.7355 6.72251 10.7371 6.72003 10.7388 6.71837C10.7454 6.71091 10.7512 6.7026 10.757 6.69432C10.7645 6.68354 10.7719 6.67192 10.7794 6.66032C10.7852 6.65202 10.791 6.64292 10.7968 6.63461C10.801 6.6288 10.8051 6.62302 10.8093 6.61802C10.8374 6.58321 10.8665 6.54838 10.8947 6.51438C11.0937 6.27142 11.2985 6.03425 11.5091 5.80207C11.6741 5.61964 11.845 5.44301 12.0174 5.26804C12.0473 5.23736 12.078 5.20668 12.1078 5.17684C12.1642 5.12044 12.2231 5.0682 12.2811 5.01431C12.3044 4.99275 12.3276 4.97201 12.35 4.94963C12.3549 4.94548 12.3591 4.94051 12.3641 4.93635C12.4362 4.86671 12.51 4.79704 12.583 4.72821C12.5846 4.72655 12.5863 4.72573 12.588 4.72408C12.607 4.70665 12.6286 4.6909 12.6485 4.67515C12.6535 4.671 12.6576 4.66685 12.6626 4.66187C12.6642 4.66022 12.6651 4.6594 12.6667 4.65772C12.6891 4.63451 12.7123 4.61213 12.7347 4.58891C12.738 4.58392 12.7414 4.58061 12.7455 4.57813C12.7497 4.57564 12.7546 4.57398 12.7604 4.57398C12.7671 4.57314 12.7729 4.56983 12.7778 4.56652C12.7812 4.56402 12.7845 4.56071 12.7878 4.55739C12.7903 4.5549 12.7919 4.55158 12.7944 4.54827C12.7986 4.5433 12.8036 4.53749 12.8077 4.53252C12.8666 4.48028 12.9254 4.42886 12.986 4.37827C12.9951 4.37083 13.0042 4.36336 13.0134 4.35506C13.0714 4.30613 13.1303 4.25804 13.19 4.20995C13.3235 4.10297 13.4611 3.99933 13.6013 3.90148C13.6063 3.89898 13.6104 3.89651 13.6154 3.89401H13.6162C13.6203 3.8882 13.6253 3.88323 13.6303 3.87908C13.6618 3.85586 13.6941 3.83181 13.7257 3.80943C13.7895 3.763 13.855 3.71822 13.9197 3.67427C13.952 3.65271 13.9852 3.63031 14.0184 3.60959C14.0515 3.58803 14.0847 3.56647 14.1179 3.54573C14.2182 3.48271 14.3194 3.42135 14.4222 3.36248C14.5342 3.2978 14.6486 3.2356 14.763 3.17589C15.108 2.99845 15.4645 2.84835 15.8377 2.73724C15.8659 2.72894 15.8949 2.72066 15.9231 2.71235C16.1221 2.6568 16.322 2.61452 16.5251 2.58715C16.6404 2.57138 16.7573 2.5606 16.8742 2.55563C16.9621 2.5515 17.05 2.55066 17.1388 2.55315C17.1686 2.55397 17.1976 2.55481 17.2275 2.55647C17.3162 2.56144 17.4041 2.57056 17.492 2.583C17.6139 2.59959 17.7342 2.6228 17.8544 2.65348C17.8577 2.65264 17.8602 2.65183 17.8635 2.65348C17.8668 2.65348 17.8693 2.65598 17.871 2.65845C17.8735 2.65929 17.8768 2.66011 17.8793 2.66095C17.8851 2.66261 17.89 2.66426 17.8959 2.66676C17.8959 2.65845 17.8967 2.65017 17.8975 2.64187C17.8959 2.64021 17.8942 2.63855 17.8917 2.63773L17.8942 2.63608Z" fill="#EBEBEB"/>
<path d="M16.5822 2.06442C16.5764 2.03872 16.5515 2.03623 16.5333 2.02794C16.18 1.87121 15.8268 1.71366 15.4719 1.55859C15.3774 1.51713 15.2861 1.46904 15.1883 1.43586C15.1775 1.4425 15.1659 1.44167 15.1543 1.43752C14.9113 1.35792 14.6592 1.31811 14.4055 1.30236C14.1725 1.28826 13.9386 1.30236 13.7073 1.33304C13.5166 1.35875 13.3292 1.39855 13.1434 1.4483C12.7827 1.54533 12.4361 1.67717 12.1019 1.84219C11.9734 1.90604 11.849 1.97818 11.7221 2.04535C11.6798 2.06774 11.6359 2.08764 11.5952 2.11169C11.232 2.32812 10.8796 2.56113 10.5454 2.82067C10.4617 2.88537 10.3763 2.94839 10.2983 3.01886C10.2477 3.06447 10.1988 3.1109 10.1441 3.15071C10.1341 3.15817 10.1234 3.16564 10.1109 3.17311C10.1018 3.18139 10.0927 3.18886 10.0836 3.19632V3.19798C10.0794 3.20876 10.0753 3.21872 10.0686 3.22451C10.0645 3.22784 10.0603 3.2295 10.0554 3.23032C10.0529 3.23032 10.0496 3.23032 10.0471 3.23032H10.0454C10.0454 3.23032 10.0404 3.22866 10.0371 3.22784C10.0346 3.2295 10.0321 3.23116 10.0305 3.23281C10.0015 3.25353 9.9857 3.28921 9.95917 3.30993C9.95501 3.31324 9.95088 3.31574 9.94673 3.31821C9.87708 3.3547 9.83478 3.42022 9.77258 3.46499C9.71289 3.50811 9.66313 3.56532 9.60841 3.61591C9.33723 3.86551 9.08099 4.13003 8.82725 4.39704C8.7493 4.47915 8.67965 4.56702 8.60501 4.65244C8.5619 4.70137 8.51381 4.74449 8.47151 4.79259C8.35625 4.92444 8.2443 5.05961 8.13069 5.19228C8.04611 5.29095 7.96651 5.39296 7.89105 5.49826C7.83134 5.58202 7.76004 5.65666 7.69618 5.73708C7.50296 5.98503 7.31971 6.24041 7.13646 6.49499C6.95568 6.74625 6.78984 7.00747 6.61818 7.26534C6.46396 7.49671 6.32214 7.73635 6.17538 7.97352C6.12146 8.06141 6.07338 8.15262 6.01864 8.24053C5.92494 8.39145 5.83788 8.54651 5.75578 8.70405C5.70438 8.76542 5.67369 8.84006 5.63471 8.90889C5.55344 9.05317 5.47551 9.19912 5.40502 9.34921C5.38263 9.39732 5.35029 9.43794 5.32707 9.48603C5.26156 9.61954 5.19522 9.75305 5.12639 9.88573C4.95476 10.2191 4.80382 10.5616 4.6471 10.9024C4.4771 11.2705 4.32619 11.6478 4.17693 12.0251C4.07576 12.2814 3.97378 12.5376 3.89333 12.8013C3.88005 12.8444 3.85518 12.8834 3.84027 12.9257C3.76232 13.1529 3.68437 13.3793 3.61057 13.6073C3.54174 13.8171 3.47706 14.0286 3.41486 14.24C3.35517 14.444 3.29794 14.648 3.24322 14.8528C3.13625 15.25 3.03839 15.6497 2.95464 16.0519C2.93309 16.1589 2.91152 16.2658 2.89079 16.3728C2.81948 16.7368 2.75646 17.1033 2.70505 17.4715C2.65695 17.8215 2.61715 18.1722 2.58564 18.5238C2.58315 18.5561 2.58066 18.5885 2.57817 18.6208C2.56325 18.8132 2.55164 19.0064 2.54418 19.2005C2.53505 19.4219 2.5334 19.6433 2.53174 19.8647C2.53174 19.97 2.54252 20.0761 2.54169 20.1823C2.54003 20.344 2.55413 20.5049 2.56325 20.6657C2.56656 20.7246 2.56905 20.7843 2.57486 20.844C2.57569 20.854 2.57735 20.8647 2.57817 20.8747C2.59725 21.0298 2.60968 21.1856 2.63125 21.3399C2.65198 21.49 2.67271 21.6401 2.70007 21.7884C2.73987 21.9958 2.77719 22.2031 2.84104 22.4045C2.86094 22.4677 2.87172 22.534 2.88996 22.5986C2.92811 22.7396 2.97372 22.8789 3.02348 23.0157C3.09562 23.2123 3.17855 23.4048 3.2681 23.5938C3.40657 23.884 3.57823 24.1542 3.77973 24.4048C3.97044 24.6427 4.18853 24.8525 4.43814 25.0282C4.4481 25.0358 4.45888 25.0423 4.46966 25.0491C4.48788 25.0606 4.50613 25.0722 4.52437 25.0839C4.53433 25.0904 4.54511 25.0972 4.55589 25.1037C4.59071 25.1254 4.62472 25.1477 4.65788 25.1718C4.65788 25.1718 4.65872 25.1718 4.65954 25.1726C4.6695 25.18 4.67944 25.1876 4.6894 25.1958C4.6894 25.1974 4.69106 25.199 4.69188 25.2009C4.69768 25.2091 4.7093 25.2099 4.71843 25.214C5.14961 25.4048 5.57999 25.5954 6.01119 25.7863C6.0286 25.7936 6.04519 25.8053 6.06591 25.8004C6.06344 25.7961 6.06178 25.7928 6.05928 25.7887C6.04104 25.7646 6.01201 25.7556 5.98714 25.7398C5.85529 25.656 5.73009 25.5623 5.61315 25.4602C5.55097 25.4064 5.49042 25.3492 5.43239 25.2903C5.21015 25.0648 5.02275 24.8143 4.86353 24.5465C4.80548 24.4488 4.75076 24.3483 4.69934 24.2454C4.66866 24.1841 4.63882 24.1219 4.61061 24.0589C4.59817 24.0315 4.58658 24.0051 4.57496 23.9777C4.56336 23.9503 4.55174 23.9237 4.54012 23.8965C4.37761 23.5066 4.25986 23.1037 4.17112 22.6923C4.14459 22.5704 4.12138 22.4477 4.09982 22.3241C4.0567 22.0721 4.02434 21.8191 4.00031 21.5647C3.97625 21.3108 3.96216 21.0556 3.95388 20.8001C3.94557 20.5297 3.94723 20.2586 3.95553 19.9882C3.95635 19.97 3.95635 19.9517 3.95719 19.9335C3.96216 19.7925 3.96879 19.6516 3.97625 19.5106C3.98456 19.3705 3.9945 19.2295 4.00612 19.0894C4.00859 19.0587 4.01191 19.028 4.01606 18.9849C4.01606 18.9807 4.0169 18.9766 4.0169 18.9724C4.02187 18.916 4.02684 18.8597 4.03346 18.8033C4.05918 18.5512 4.09151 18.2999 4.12717 18.0495C4.1645 17.7891 4.20678 17.5304 4.25323 17.2725C4.25902 17.241 4.26566 17.2103 4.27145 17.1788C4.27229 17.173 4.27395 17.1672 4.27479 17.1606C4.2781 17.1448 4.28058 17.1291 4.28391 17.1133C4.29135 17.0735 4.29882 17.0345 4.30629 16.9956C4.33863 16.8305 4.37262 16.6655 4.40911 16.5013C4.45141 16.309 4.49701 16.1174 4.54428 15.9267C4.59652 15.7144 4.65125 15.5029 4.7093 15.2923C4.7093 15.289 4.71096 15.2857 4.71178 15.2824C4.74911 15.148 4.78807 15.0137 4.82788 14.8802C4.92489 14.5551 5.02522 14.2309 5.13304 13.9091C5.19191 13.735 5.25327 13.5617 5.31545 13.3892C5.43321 13.0633 5.55678 12.7399 5.68695 12.4198C5.93158 11.8154 6.19694 11.2191 6.48468 10.632C6.53776 10.5234 6.59165 10.4148 6.64637 10.307C6.77574 10.0516 6.91007 9.79782 7.04773 9.54658C7.08422 9.4794 7.12153 9.41223 7.15802 9.3459C7.16133 9.34093 7.16465 9.33512 7.16714 9.33015C7.17127 9.32268 7.17459 9.31522 7.17377 9.30609C7.17874 9.29781 7.18455 9.28951 7.1887 9.28206C7.22851 9.21157 7.26829 9.14109 7.30893 9.0706C7.3902 8.93045 7.47146 8.79113 7.55521 8.65183C7.61409 8.55398 7.6738 8.45613 7.73349 8.35911C7.80066 8.24966 7.86867 8.14102 7.93832 8.03323C8.02539 7.89723 8.11411 7.76122 8.20368 7.6269C8.2982 7.48511 8.39439 7.34579 8.49225 7.20648C8.5503 7.12274 8.60917 7.03981 8.66804 6.95605C8.66804 6.95439 8.66804 6.95272 8.66804 6.95106C8.66804 6.95024 8.66887 6.94859 8.66969 6.94777C8.67135 6.94527 8.67468 6.94443 8.678 6.94443C8.69456 6.92122 8.71033 6.89718 8.72774 6.87397C9.3812 5.97673 10.0952 5.13091 10.8987 4.36305C11.1881 4.08691 11.4866 3.82321 11.7992 3.57528C11.9236 3.47577 12.0505 3.37957 12.1798 3.28505L12.2122 3.26184C12.2661 3.22285 12.3208 3.1847 12.3755 3.14658C12.6392 2.96414 12.9096 2.79414 13.189 2.64157C13.2421 2.61255 13.296 2.58434 13.3499 2.55699C13.3905 2.53626 13.4303 2.51552 13.4709 2.49562C13.5058 2.47821 13.5406 2.46163 13.5754 2.44504C13.7156 2.37953 13.8574 2.31817 14.0025 2.26261C14.4635 2.08516 14.9379 1.96409 15.4329 1.93755C15.8061 1.91765 16.1734 1.95082 16.5333 2.05945C16.549 2.06442 16.5648 2.07189 16.5814 2.06525L16.5822 2.06442Z" fill="#C9C9C9"/>
<path d="M8.66979 6.94841C8.66979 6.94841 8.67443 6.94531 8.67755 6.94531C8.67755 6.94841 8.67598 6.95074 8.67443 6.95228C8.67289 6.95383 8.67057 6.95461 8.66748 6.95538C8.66748 6.95383 8.66748 6.95228 8.66748 6.95074C8.66748 6.94995 8.66824 6.94841 8.66903 6.94764L8.66979 6.94841Z" fill="#C18B00"/>
<path d="M10.0445 3.20525C10.0495 3.19946 10.0553 3.19613 10.0636 3.19531C10.0686 3.19531 10.0752 3.19531 10.0819 3.19697V3.19863C10.0777 3.20941 10.0735 3.21937 10.0669 3.22516C10.0628 3.22849 10.0586 3.23015 10.0536 3.23096C10.0512 3.23096 10.0479 3.23096 10.0454 3.23096H10.0437C10.0437 3.23096 10.0387 3.22931 10.0354 3.22849C10.0371 3.21853 10.0404 3.21024 10.0454 3.20525H10.0445Z" fill="#C18B00"/>
<path d="M15.1104 1.40395C14.7895 1.2605 14.4678 1.12119 14.1485 0.976073C13.7828 0.809397 13.403 0.706572 13.0008 0.6875C12.8997 0.6875 12.7977 0.6875 12.6965 0.688329C12.6567 0.688329 12.6169 0.688329 12.5779 0.688329C12.3756 0.699109 12.1758 0.728962 11.9776 0.771254C11.393 0.895638 10.849 1.1245 10.3274 1.41142C9.80251 1.69999 9.31493 2.04495 8.85139 2.42308C8.79252 2.47117 8.72867 2.51512 8.67726 2.57317C8.67311 2.57483 8.66896 2.57814 8.66648 2.58229V2.58727C8.66648 2.58727 8.66483 2.58727 8.66399 2.58727C8.66233 2.58727 8.66151 2.58727 8.66151 2.58727C8.64824 2.59805 8.63496 2.60801 8.62171 2.61879C8.1084 3.05827 7.63161 3.53507 7.1805 4.03841C6.64482 4.63712 6.1506 5.269 5.68871 5.92575C5.00046 6.90424 4.39097 7.93083 3.84782 8.99637C3.4813 9.71449 3.14795 10.4484 2.84777 11.1971C2.53516 11.9783 2.24824 12.7694 2.01771 13.5795C1.99201 13.6691 1.9605 13.7578 1.93479 13.8474C1.74573 14.5149 1.58237 15.1882 1.45384 15.8699C1.34438 16.4478 1.25731 17.0283 1.20009 17.6137C1.1578 18.0383 1.12878 18.4637 1.13044 18.8907C1.13044 19.0848 1.13127 19.2788 1.1321 19.4729C1.13458 19.4994 1.13541 19.5259 1.13624 19.5525C1.13707 19.5939 1.13624 19.6346 1.13459 19.676C1.13624 19.9123 1.15614 20.147 1.17853 20.3825C1.21585 20.7664 1.2739 21.1462 1.35931 21.5219C1.46545 21.9928 1.61056 22.4498 1.81704 22.8869C2.03845 23.3545 2.31955 23.7799 2.69934 24.1356C2.92075 24.343 3.16454 24.5179 3.43902 24.6464C3.68282 24.7609 3.92993 24.8679 4.17704 24.9765C4.3462 25.0512 4.5137 25.1315 4.68617 25.1978C4.67623 25.1905 4.66627 25.1821 4.65633 25.1747C4.65633 25.1747 4.65549 25.1747 4.65467 25.1739C4.6215 25.1498 4.5875 25.1275 4.55267 25.1058C4.54189 25.0992 4.53194 25.0925 4.52117 25.0859C4.50292 25.0743 4.48467 25.0634 4.46643 25.0512C4.45565 25.0444 4.44571 25.037 4.43493 25.0303C4.18532 24.8538 3.96807 24.6447 3.77652 24.4068C3.575 24.1563 3.40337 23.8861 3.26487 23.5958C3.1745 23.4068 3.09158 23.2143 3.02025 23.0178C2.9705 22.8809 2.92489 22.7416 2.88675 22.6007C2.86933 22.5369 2.85773 22.4706 2.83782 22.4066C2.77397 22.2051 2.73583 21.9979 2.69685 21.7905C2.66866 21.6422 2.64876 21.4921 2.62803 21.3419C2.60647 21.1877 2.5932 21.0318 2.57496 20.8767C2.57413 20.8668 2.57247 20.856 2.57164 20.8461C2.56584 20.7872 2.56335 20.7275 2.56003 20.6678C2.55174 20.5069 2.53764 20.346 2.53847 20.1843C2.53847 20.079 2.52769 19.9729 2.52852 19.8667C2.53018 19.6453 2.53267 19.4239 2.54096 19.2025C2.54842 19.0093 2.56003 18.8161 2.57496 18.6229C2.57745 18.5906 2.57993 18.5582 2.58242 18.5259C2.61393 18.1743 2.65373 17.8235 2.70183 17.4736C2.75324 17.1054 2.81626 16.7389 2.88758 16.3749C2.90831 16.2679 2.92987 16.1609 2.95143 16.0539C3.03434 15.6509 3.13304 15.2521 3.23999 14.8549C3.29473 14.65 3.35194 14.4452 3.41165 14.2421C3.47385 14.0298 3.53853 13.8192 3.60736 13.6094C3.68198 13.3813 3.75993 13.1541 3.83704 12.9278C3.85114 12.8846 3.87685 12.8456 3.89012 12.8034C3.97139 12.5397 4.07256 12.2834 4.1737 12.0272C4.32298 11.6499 4.4739 11.2734 4.64389 10.9044C4.80062 10.5644 4.95153 10.2211 5.12318 9.8878C5.19117 9.75511 5.25835 9.6216 5.32386 9.4881C5.34708 9.44083 5.38024 9.39937 5.40179 9.35128C5.47228 9.20118 5.55023 9.05524 5.6315 8.91097C5.67046 8.84214 5.70115 8.76752 5.75257 8.70616C5.83465 8.5486 5.92173 8.39353 6.01543 8.24262C6.07017 8.15554 6.11826 8.0635 6.17215 7.97561C6.3181 7.73844 6.45991 7.49963 6.61497 7.26745C6.78661 7.00956 6.95245 6.74833 7.13323 6.49709C7.3165 6.24251 7.49976 5.98712 7.69297 5.73917C7.75599 5.6579 7.82729 5.5841 7.88784 5.50036C7.9633 5.39504 8.04291 5.29303 8.12749 5.19436C8.24109 5.06085 8.35304 4.92569 8.4683 4.79468C8.51058 4.74659 8.55869 4.70345 8.60181 4.65454C8.67642 4.56994 8.74609 4.48123 8.82404 4.39913C9.07778 4.13212 9.33402 3.8676 9.60514 3.61799C9.65988 3.56741 9.70965 3.5102 9.76933 3.46708C9.83153 3.4223 9.873 3.35679 9.94348 3.32032C9.94763 3.31782 9.9526 3.31532 9.95592 3.31201C9.98245 3.29129 9.99822 3.25562 10.0272 3.2349C10.0297 3.23324 10.0322 3.23158 10.0339 3.22993C10.0355 3.21997 10.0388 3.21168 10.0438 3.20671C10.0488 3.2009 10.0546 3.19759 10.0629 3.19675C10.0679 3.19675 10.0745 3.19675 10.0811 3.19841C10.0902 3.19094 10.0994 3.18266 10.1085 3.17519C10.1209 3.16691 10.1309 3.16026 10.1417 3.15279C10.1964 3.11299 10.2453 3.06739 10.2959 3.02096C10.3738 2.94964 10.4601 2.88746 10.543 2.82276C10.8772 2.56321 11.2296 2.3302 11.5928 2.11378C11.6343 2.08973 11.6774 2.06983 11.7197 2.04744C11.8466 1.97944 11.9709 1.9073 12.0995 1.84428C12.4337 1.67926 12.7811 1.54741 13.141 1.45039C13.3267 1.40064 13.5141 1.36166 13.7049 1.33513C13.9362 1.30362 14.1701 1.29035 14.4031 1.30445C14.6577 1.3202 14.9089 1.36 15.1519 1.43961C15.1643 1.44376 15.1751 1.44459 15.1859 1.43795C15.1651 1.41556 15.1336 1.41556 15.1079 1.40395H15.1104Z" fill="#7F7F7F"/>
<path d="M10.0548 3.11412C10.0548 3.11412 10.05 3.11031 10.0481 3.10938C10.051 3.11128 10.0529 3.11222 10.0548 3.11412Z" fill="#FF1100"/>
<path d="M13.0007 0.686801H12.6964C12.6566 0.68846 12.6168 0.688459 12.5778 0.688459C12.5762 0.683484 12.5737 0.678509 12.572 0.673533C12.7163 0.673533 12.8614 0.673533 13.0057 0.671875C13.004 0.67685 13.0024 0.681826 13.0007 0.686801Z" fill="#FEC35E"/>
<path d="M8.66424 2.59164H8.66138V2.58594H8.66805V2.59261C8.66805 2.59261 8.66614 2.59261 8.66518 2.59261L8.66424 2.59164Z" fill="#C18B00"/>
</g>
<path d="M38.3603 10.2969L42.3113 20.39L46.2375 10.2969H48.6673L43.3555 23.6708H41.1149L35.7744 10.2969H38.3603Z" fill="#A0A0A0"/>
<path d="M53.7652 21.0862C54.5134 21.5673 55.422 21.8592 56.3799 21.8592C59.0768 21.8592 61.1859 19.6966 61.1859 16.975H63.4801C63.4801 20.8724 60.3309 23.9435 56.3265 23.9435C52.3755 23.9435 49.3044 20.9012 49.3044 17.0572C49.3044 13.131 52.4536 10.0352 56.458 10.0352C58.4356 10.0352 60.6761 10.7834 62.144 12.7321L53.7652 21.0862ZM52.3221 19.5897L58.9946 12.8884C58.2218 12.3827 57.3378 12.1155 56.3799 12.1155C53.7118 12.1155 51.6027 14.278 51.6027 16.975C51.6027 17.937 51.8699 18.8415 52.3221 19.5897Z" fill="#A0A0A0"/>
<path d="M66.0459 4.18359H68.5536V23.6751H66.0459V4.18359Z" fill="#A0A0A0"/>
<path d="M71.386 16.975C71.386 13.0241 74.4284 10.0352 78.4616 10.0352C82.5194 10.0352 85.5616 13.0241 85.5616 16.975C85.5616 20.9547 82.5194 23.9435 78.4616 23.9435C74.4284 23.9435 71.386 20.9505 71.386 16.975ZM78.4616 21.6988C81.1297 21.6988 83.132 19.6678 83.132 16.975C83.132 14.3068 81.1297 12.2511 78.4616 12.2511C75.8181 12.2511 73.8158 14.3068 73.8158 16.975C73.8158 19.6719 75.8181 21.6988 78.4616 21.6988Z" fill="#A0A0A0"/>
<path d="M94.7462 23.6787C90.4211 23.6787 87.5391 21.0106 87.5391 16.9774C87.5391 12.9731 90.4211 10.3048 94.7462 10.3048H96.9868V4.19141H99.4947V23.6828H94.7462V23.6787ZM94.7462 21.434H96.9868V12.5167H94.7462C91.9176 12.5167 90.047 14.3051 90.047 16.9733C90.047 19.6744 91.9135 21.434 94.7462 21.434Z" fill="#A0A0A0"/>
<path d="M103.183 10.2985H105.691V14.1713L109.831 10.0312L111.405 11.6059L105.691 17.2917V23.6723H103.183V10.2985Z" fill="#A0A0A0"/>
<path d="M111.565 16.975C111.565 13.0241 114.607 10.0352 118.641 10.0352C122.698 10.0352 125.741 13.0241 125.741 16.975C125.741 20.9547 122.698 23.9435 118.641 23.9435C114.607 23.9435 111.565 20.9505 111.565 16.975ZM118.641 21.6988C121.309 21.6988 123.311 19.6678 123.311 16.975C123.311 14.3068 121.309 12.2511 118.641 12.2511C115.997 12.2511 113.995 14.3068 113.995 16.975C113.995 19.6719 115.997 21.6988 118.641 21.6988Z" fill="#A0A0A0"/>
<path d="M128.569 10.2985H131.024V11.9019C133.186 10.2738 134.119 10.0312 135.349 10.0312C136.952 10.0312 138.338 10.8576 139.008 12.1938C141.462 10.2985 142.453 10.0312 143.732 10.0312C146.026 10.0312 147.843 11.6881 147.843 14.1959V23.6723H145.335V14.4632C145.335 13.2339 144.455 12.3253 143.333 12.3253C142.478 12.3253 141.836 12.5103 139.46 14.4879V23.6723H136.952V14.4632C136.952 13.2339 136.072 12.3253 134.95 12.3253C134.095 12.3253 133.453 12.5103 131.077 14.4879V23.6723H128.569V10.2985Z" fill="#A0A0A0"/>
<path d="M155.001 21.0862C155.749 21.5673 156.657 21.8592 157.615 21.8592C160.312 21.8592 162.421 19.6966 162.421 16.975H164.715C164.715 20.8724 161.566 23.9435 157.562 23.9435C153.611 23.9435 150.54 20.9012 150.54 17.0572C150.54 13.131 153.689 10.0352 157.693 10.0352C159.671 10.0352 161.912 10.7834 163.379 12.7321L155.001 21.0862ZM153.562 19.5897L160.234 12.8884C159.461 12.3827 158.577 12.1155 157.619 12.1155C154.951 12.1155 152.842 14.278 152.842 16.975C152.838 17.937 153.105 18.8415 153.562 19.5897Z" fill="#A0A0A0"/>
</g>
<defs>
<clipPath id="clip0_2296_6482">
<rect width="163.841" height="27" fill="white" transform="translate(0.944336 0.5)"/>
</clipPath>
</defs>
</svg>
