<svg width="30" height="31" viewBox="0 0 30 31" fill="none" xmlns="http://www.w3.org/2000/svg">
<g clip-path="url(#clip0_1931_8387)">
<path d="M13.875 27.9355C21.538 27.9355 27.75 21.7235 27.75 14.0606C27.75 6.39759 21.538 0.185547 13.875 0.185547C6.21205 0.185547 0 6.39759 0 14.0606C0 21.7235 6.21205 27.9355 13.875 27.9355Z" fill="#D51968"/>
<path d="M15.75 30.1855C23.6201 30.1855 30 23.8056 30 15.9356C30 8.06548 23.6201 1.68555 15.75 1.68555C7.87994 1.68555 1.5 8.06548 1.5 15.9356C1.5 23.8056 7.87994 30.1855 15.75 30.1855Z" fill="white"/>
<path d="M12.2516 12.6805L10.3976 18.9355H9.23664L7.92264 14.2015L6.52764 18.9355L5.37564 18.9445L3.60264 12.6805H4.69164L5.98764 17.7745L7.39164 12.6805H8.54364L9.84864 17.7475L11.1536 12.6805H12.2516ZM14.1239 13.5085V15.3445H16.2839V16.1815H14.1239V18.0985H16.5539V18.9355H13.0979V12.6715H16.5539V13.5085H14.1239ZM21.8586 12.6805V13.5175H20.1936V18.9355H19.1676V13.5175H17.4936V12.6805H21.8586ZM27.8927 12.6805V18.9355H26.8667V16.1995H23.9237V18.9355H22.8977V12.6805H23.9237V15.3625H26.8667V12.6805H27.8927Z" fill="black"/>
</g>
<defs>
<clipPath id="clip0_1931_8387">
<rect width="30" height="30.75" fill="white" transform="translate(0 0.185547)"/>
</clipPath>
</defs>
</svg>
