<svg width="30" height="31" viewBox="0 0 30 31" fill="none" xmlns="http://www.w3.org/2000/svg">
<circle cx="15" cy="15.4609" r="15" fill="black"/>
<path d="M20.2585 15.9354C20.2585 16.697 20.0816 17.3961 19.7278 18.0328C19.3739 18.6571 18.8305 19.1627 18.0975 19.5497C17.3646 19.9368 16.4547 20.1303 15.3679 20.1303H13.3585V24.8495H10.1171V11.7031H15.3679C16.4294 11.7031 17.3267 11.8842 18.0596 12.2462C18.7926 12.6083 19.3423 13.1076 19.7088 13.7444C20.0753 14.3811 20.2585 15.1114 20.2585 15.9354ZM15.1215 17.5834C15.7407 17.5834 16.2019 17.4398 16.5052 17.1527C16.8085 16.8655 16.9602 16.4598 16.9602 15.9354C16.9602 15.4111 16.8085 15.0053 16.5052 14.7182C16.2019 14.431 15.7407 14.2874 15.1215 14.2874H13.3585V17.5834H15.1215Z" fill="white"/>
<path d="M20.2585 8.32422H10.1171V10.5779H20.2585V8.32422Z" fill="#E59636"/>
</svg>
