<svg width="129" height="22" viewBox="0 0 129 22" fill="none" xmlns="http://www.w3.org/2000/svg">
<path d="M0.439941 1.25936C0.439941 0.563828 1.02619 0 1.74935 0H21.2134C21.9366 0 22.5228 0.563836 22.5228 1.25936V19.9785C22.5228 20.674 21.9366 21.2379 21.2134 21.2379H1.74935C1.02619 21.2379 0.439941 20.674 0.439941 19.9785V1.25936Z" fill="white"/>
<path d="M18.1812 2.18799H5.54517V4.73758H18.1812V2.18799Z" fill="#1D1D22"/>
<path d="M27.2581 15.5122C27.2581 19.5931 30.0358 21.6125 33.6009 21.6125C37.1441 21.6125 40.1187 19.5931 40.1187 15.5122V6.69824H36.3786V15.5333C36.3786 17.2792 35.4381 18.2889 33.6665 18.2889C31.8949 18.2889 30.9981 17.2792 30.9981 15.5333V6.69824H27.2581V15.5122ZM49.1535 6.69824H43.4012V21.4653H49.1535C54.0528 21.4653 57.2023 18.4572 57.2023 14.0817C57.2023 9.68531 54.0528 6.69824 49.1535 6.69824ZM47.1413 18.352V9.76943H48.9129C51.7343 9.76943 53.3966 11.3682 53.3966 14.0817C53.3966 16.7954 51.7343 18.352 48.9129 18.352H47.1413ZM59.9486 21.4653H63.6887V6.69824H59.9486V21.4653ZM66.2241 9.58007H70.2923V21.4653H74.0323V9.58007H78.1005V6.69824H66.2241V9.58007ZM84.0021 19.8876C84.0021 18.92 83.2146 18.1627 82.1429 18.1627C81.0274 18.1627 80.24 18.92 80.24 19.8876C80.24 20.8553 81.0274 21.6125 82.1429 21.6125C83.2146 21.6125 84.0021 20.8553 84.0021 19.8876ZM98.8258 15.6384C98.8258 11.9572 96.0917 9.62221 92.5922 9.62221C89.0927 9.62221 86.3594 11.9572 86.3594 15.6384C86.3594 19.2986 89.0058 21.6547 92.5052 21.6547C96.0262 21.6547 98.8258 19.2986 98.8258 15.6384ZM89.4646 15.6384C89.4646 13.3034 90.9298 12.1885 92.5491 12.1885C94.1676 12.1885 95.6767 13.3034 95.6767 15.6384C95.6767 17.9523 94.1237 19.0883 92.5052 19.0883C90.8644 19.0883 89.4646 17.9523 89.4646 15.6384ZM110.215 21.4653H113.277V14.6287C113.277 11.4102 111.264 9.64325 108.443 9.64325C106.89 9.64325 105.578 10.2743 104.79 11.263V9.81149H101.728V21.4653H104.79V15.0284C104.79 13.1562 105.862 12.1464 107.524 12.1464C109.143 12.1464 110.215 13.1562 110.215 15.0284V21.4653ZM122.05 12.0413C123.625 12.0413 124.893 13.0089 124.937 14.5446H119.185C119.426 12.9458 120.585 12.0413 122.05 12.0413ZM127.802 17.8051H124.5C124.106 18.5834 123.384 19.2145 122.072 19.2145C120.541 19.2145 119.316 18.2468 119.163 16.5219H128.021C128.087 16.1433 128.109 15.7646 128.109 15.386C128.109 11.9151 125.637 9.62221 122.138 9.62221C118.55 9.62221 116.057 11.9572 116.057 15.6384C116.057 19.2986 118.617 21.6547 122.138 21.6547C125.134 21.6547 127.146 19.9507 127.802 17.8051Z" fill="white"/>
<path d="M15.3262 21.314H19.285L13.7296 6.54688H9.39897L3.84351 21.314H7.75857L8.67718 18.7056H14.4076L15.3262 21.314ZM13.4453 15.9288H9.66145L11.5424 10.5227L13.4453 15.9288Z" fill="#1D1D22"/>
</svg>
