<svg width="207" height="76" viewBox="0 0 207 76" fill="none" xmlns="http://www.w3.org/2000/svg">
<rect width="207" height="76" fill="#25252B"/>
<path d="M54.6607 28.074V32.8898H65.0619V35.8614H54.6607V43.8025H51V25H65.6429V28.0227H54.6607V28.074ZM69.5941 25.3586C70.8144 25.3586 71.7442 26.2808 71.7442 27.3055C71.7442 28.3814 70.8144 29.2011 69.5941 29.2011C68.3158 29.2011 67.4442 28.3814 67.4442 27.3055C67.4442 26.2808 68.3158 25.3586 69.5941 25.3586ZM71.3955 43.8025H67.7929V31.4553H71.3955V43.8025ZM88.7113 34.1707H86.0385C86.3289 34.7855 86.5033 35.4515 86.5033 36.2199C86.5033 39.089 83.9466 41.292 80.5182 41.292C79.2399 41.292 78.0778 40.9846 77.148 40.4723C76.7995 40.6772 76.6251 40.9334 76.6251 41.2408C76.6251 41.9068 77.2643 42.3167 78.2522 42.3167H82.7263C85.9803 42.3167 88.1302 44.0586 88.1302 46.6715C88.1302 49.5405 85.5735 51.4874 81.3317 51.4874H79.1237C75.0562 51.4874 72.9643 49.5405 72.9643 46.9789C72.9643 45.6468 73.5454 44.5709 74.5333 43.8025C74.1846 43.4951 73.8941 43.1364 73.7198 42.7266C73.5454 42.3167 73.4293 41.8555 73.4293 41.4457C73.4293 40.1137 74.1846 39.1915 75.2305 38.5766C74.8238 37.8595 74.5914 37.0397 74.5914 36.2712C74.5914 33.3509 77.148 31.1992 80.5764 31.1992C81.3898 31.1992 82.2033 31.3016 82.9007 31.5578H88.7695V34.1707H88.7113ZM80.5182 38.5255C82.0872 38.5255 83.3074 37.5008 83.3074 36.2199C83.3074 34.8879 82.0872 33.8633 80.5182 33.8633C78.9494 33.8633 77.7872 34.8879 77.7872 36.2199C77.7291 37.5008 78.9494 38.5255 80.5182 38.5255ZM82.6683 44.9808H78.7751C77.3805 44.9808 76.4508 45.6468 76.4508 46.774C76.4508 47.8498 77.2643 48.8233 79.298 48.8233H81.2737C83.3655 48.8233 84.5276 47.901 84.5276 46.6715C84.5276 45.6468 83.8303 44.9808 82.6683 44.9808ZM107.306 31.0967C110.153 31.0967 112.593 33.0948 112.593 36.1175V43.8536H109.049V36.7836C109.049 35.1441 107.887 34.1194 106.376 34.1194C104.458 34.1194 103.238 35.2978 103.238 37.9106V43.8536H99.6354V36.7836C99.6354 35.1441 98.4733 34.1194 96.9625 34.1194C95.0449 34.1194 93.8828 35.2978 93.8828 37.9106V43.8536H90.2802V31.5066H93.8828V32.5312C94.8125 31.6603 96.149 31.1479 97.9503 31.1479C99.7516 31.1479 101.437 31.8652 102.425 33.1972C103.47 31.8652 105.097 31.0967 107.306 31.0967ZM127.643 37.3983V38.5255H117.358C117.707 40.3186 119.101 41.3945 120.728 41.3945C121.774 41.3945 123.111 41.292 124.098 39.7551L127.294 40.3698C126.074 42.9314 123.692 44.1611 120.728 44.1611C116.893 44.1611 113.813 41.497 113.813 37.6545C113.813 33.7608 116.951 31.0967 120.786 31.0967C124.389 31.0967 127.527 33.6583 127.643 37.3983ZM120.786 33.9657C119.45 33.9657 117.881 34.7342 117.474 36.2199H123.982C123.517 34.6317 122.239 33.9657 120.786 33.9657ZM137.056 31.0967C140.31 31.0967 142.46 33.2485 142.46 36.2712V43.8025H138.857V36.9885C138.857 35.2465 137.753 34.1194 136.126 34.1194C134.093 34.1194 132.756 35.349 132.756 38.3718V43.8536H129.154V31.5066H132.756V32.6337C133.86 31.609 135.255 31.0967 137.056 31.0967ZM149.956 34.1707V39.2939C149.956 40.5236 150.595 41.1895 151.641 41.1895C152.28 41.1895 153.21 40.9334 153.907 40.5747L154.953 43.2901C153.559 44.0074 152.571 44.2123 151.409 44.2123C148.155 44.2123 146.353 42.5216 146.353 39.5501V34.1707H143.448V31.5066H146.353V26.9981L149.956 26.0247V31.5066H155.186V34.1707H149.956Z" fill="white"/>
</svg>
