<svg width="122" height="26" viewBox="0 0 122 26" fill="none" xmlns="http://www.w3.org/2000/svg">
<path fill-rule="evenodd" clip-rule="evenodd" d="M30.0536 25.6533C37.4191 25.6533 43.39 19.9106 43.39 12.8267C43.39 5.74269 37.4191 0 30.0536 0C26.0535 0 22.4648 1.69371 20.0204 4.37614C19.5537 4.29684 19.082 4.23803 18.6067 4.20026C14.4872 4.02128 10.455 5.37881 7.35092 7.98973C6.41222 8.7421 5.54562 9.57398 4.76154 10.4754C4.74997 10.4868 4.73588 10.4955 4.72032 10.5009C4.70475 10.5064 4.68811 10.5084 4.67163 10.5068C4.65515 10.5052 4.63925 10.5001 4.62511 10.4918C4.61097 10.4835 4.59895 10.4723 4.58995 10.4589C3.69954 8.95472 3.00147 7.35252 2.51094 5.68718L2.50597 5.66224C2.4358 5.48978 2.32914 5.33323 2.19275 5.20251C2.05635 5.07179 1.89321 4.96975 1.71365 4.90286C1.56322 4.84295 1.40135 4.81421 1.23859 4.81851C1.07583 4.82281 0.915841 4.86005 0.769051 4.9278C0.491721 5.07233 0.270133 5.29888 0.137076 5.57393C0.00401992 5.84899 -0.0334355 6.15793 0.0302526 6.45505L0.0352184 6.4715C0.667265 8.65144 1.61944 10.7335 2.86296 12.6548C2.8954 12.7043 2.91262 12.7616 2.91262 12.8201C2.91262 12.8786 2.8954 12.9359 2.86296 12.9854C1.62018 14.9136 0.666366 17.0007 0.0297008 19.1851L0.0241833 19.2101V19.2345C0.0234093 19.5038 0.103208 19.7677 0.254063 19.9947C0.404918 20.2216 0.620462 20.402 0.874988 20.5144C1.03068 20.5797 1.19793 20.6157 1.3677 20.6206C1.58959 20.6157 1.80696 20.5592 2.00117 20.4559C2.19538 20.3526 2.36064 20.2055 2.4828 20.0273L2.49935 20.0023L2.50928 19.9774C3.00141 18.3065 3.7013 16.6989 4.59381 15.1892C4.59739 15.1838 4.60166 15.1788 4.6065 15.1744C4.61679 15.1641 4.62913 15.1559 4.64279 15.1503C4.65644 15.1448 4.67112 15.1419 4.68595 15.1419C4.70078 15.1419 4.71547 15.1448 4.72912 15.1503C4.74277 15.1559 4.75511 15.1641 4.7654 15.1744C5.55074 16.0785 6.41861 16.9132 7.35865 17.6685C10.2282 20.0602 13.8768 21.4118 17.6731 21.4893C17.9827 21.4893 18.2988 21.4813 18.6111 21.4564C19.0864 21.4192 19.5581 21.3609 20.0248 21.282C22.4691 23.9616 26.0559 25.6533 30.0536 25.6533ZM18.24 18.7845C18.7323 19.6855 19.3328 20.5233 20.0248 21.282C22.7379 20.8234 25.2824 19.6698 27.384 17.9312C28.8485 16.777 30.1447 15.4383 31.2374 13.9512L31.8543 13.0597C31.9016 12.9911 31.9269 12.9107 31.927 12.8284C31.9271 12.7461 31.902 12.6656 31.8549 12.5969L31.2336 11.7054C30.1385 10.22 28.8424 8.88151 27.3796 7.72546C25.2762 5.98985 22.7325 4.83699 20.0204 4.37614C19.3313 5.13228 18.7332 5.96698 18.2424 6.86446C13.8492 6.65755 9.53407 8.8828 6.39915 12.6383C6.3539 12.6921 6.32922 12.7592 6.32922 12.8283C6.32922 12.8975 6.3539 12.9645 6.39915 13.0183C9.53238 16.7718 13.844 18.9982 18.24 18.7845ZM18.24 18.7845C17.2675 17.0043 16.7171 14.9773 16.7171 12.8267C16.7171 10.6743 17.2684 8.64573 18.2424 6.86446C18.3107 6.86767 18.379 6.87147 18.4472 6.87587C23.5134 7.21443 27.0745 10.7497 28.6105 12.607C28.6623 12.6719 28.6903 12.7513 28.6903 12.8331C28.6903 12.9148 28.6623 12.9943 28.6105 13.0591C27.0723 14.9165 23.5123 18.4422 18.4522 18.7723C18.3815 18.777 18.3107 18.781 18.24 18.7845ZM24.6653 11.9883C24.4379 11.7196 24.1107 11.5468 23.753 11.5066C23.7004 11.5007 23.6475 11.4977 23.5946 11.4976C23.2345 11.4969 22.8883 11.6314 22.6295 11.8723C22.3708 12.1132 22.2199 12.4417 22.2089 12.7879C22.198 13.1341 22.3278 13.4708 22.5707 13.7264C22.8137 13.9821 23.1508 14.1366 23.5103 14.157C23.8698 14.1775 24.2234 14.0624 24.4961 13.8361C24.7688 13.6098 24.939 13.2902 24.9706 12.9452C25.0022 12.6002 24.8926 12.2569 24.6653 11.9883Z" fill="white"/>
<path d="M103.046 7.59649C103.432 7.59649 103.755 7.49036 104 7.27809C104.122 7.1717 104.219 7.04089 104.283 6.8948C104.348 6.74871 104.379 6.59085 104.373 6.43222C104.373 6.08569 104.247 5.80338 103.999 5.59324C103.75 5.3831 103.434 5.28174 103.046 5.28174C102.647 5.28174 102.323 5.38787 102.084 5.59377C101.845 5.79967 101.718 6.08569 101.718 6.43222C101.718 6.77874 101.841 7.06211 102.082 7.27703C102.324 7.49195 102.646 7.59649 103.046 7.59649Z" fill="white"/>
<path d="M103.146 8.95344H98.4725V8.69395C98.4725 8.2259 98.5828 7.86824 98.792 7.62997C99.0011 7.3917 99.3487 7.25426 99.8221 7.21446L100.185 7.18315C100.413 7.17131 100.629 7.08198 100.795 6.93109C100.948 6.78462 101.025 6.57873 101.025 6.3187C101.025 5.94724 100.854 5.50095 100.043 5.50095C99.9571 5.49877 99.8714 5.50428 99.7868 5.5174L99.4077 5.54871C98.3958 5.63574 97.5991 5.98014 97.0396 6.57289C96.4801 7.16564 96.2015 7.9611 96.1965 8.95344H95.4792C94.6273 8.95344 94.448 9.41512 94.448 9.8025C94.448 10.1899 94.6273 10.6516 95.4792 10.6516H96.1965V15.947C96.1965 16.284 96.3069 16.5456 96.532 16.7239C96.7607 16.902 97.0484 16.995 97.3425 16.9861C97.6642 16.9861 97.9345 16.8975 98.1464 16.7208C98.3583 16.544 98.4725 16.2808 98.4725 15.9444V10.6516H101.901V15.947C101.901 16.2835 102.011 16.5472 102.235 16.7308C102.462 16.9141 102.751 17.0106 103.047 17.002C103.341 17.0115 103.629 16.9143 103.852 16.7298C104.068 16.5462 104.177 16.283 104.177 15.947V9.8025C104.177 9.41512 103.998 8.95344 103.146 8.95344Z" fill="white"/>
<path d="M112.353 13.4068C112.161 13.1054 111.844 12.8522 111.409 12.6543C110.987 12.4617 110.397 12.2887 109.656 12.1396C108.979 12.0053 108.52 11.8716 108.29 11.7405C108.193 11.6918 108.113 11.618 108.059 11.5275C108.004 11.437 107.977 11.3335 107.981 11.2289C107.978 11.1178 108.004 11.0076 108.058 10.9092C108.112 10.8107 108.191 10.7273 108.289 10.667C108.504 10.5221 108.808 10.4483 109.189 10.4483C109.467 10.4415 109.744 10.4796 110.009 10.5608C110.285 10.6603 110.555 10.777 110.815 10.91C110.96 10.9902 111.109 11.0632 111.262 11.1286C111.387 11.1809 111.522 11.208 111.659 11.2082C111.761 11.2085 111.862 11.1858 111.954 11.1421C112.046 11.0983 112.126 11.0347 112.188 10.9562C112.328 10.7868 112.4 10.5753 112.394 10.3592C112.394 9.97445 112.199 9.66189 111.817 9.43212C111.452 9.20879 111.052 9.04141 110.634 8.93595C110.189 8.82194 109.732 8.76484 109.272 8.76613C108.623 8.76613 108.035 8.87227 107.524 9.08453C107.014 9.2968 106.598 9.6014 106.302 9.99037C106.007 10.3721 105.85 10.8357 105.853 11.3112C105.853 11.9528 106.079 12.4643 106.525 12.8321C106.959 13.1903 107.683 13.4689 108.672 13.662C109.082 13.7431 109.487 13.8452 109.886 13.9677C110.136 14.0515 110.31 14.1407 110.402 14.233C110.447 14.2813 110.481 14.3376 110.503 14.3986C110.524 14.4596 110.533 14.5242 110.529 14.5886C110.529 14.8152 110.419 14.9876 110.198 15.116C109.959 15.2535 109.614 15.323 109.175 15.323C108.736 15.323 108.374 15.2816 108.096 15.201C107.773 15.1038 107.457 14.9846 107.152 14.8443C106.803 14.6655 106.533 14.579 106.324 14.579C106.224 14.578 106.125 14.5985 106.034 14.6388C105.943 14.6792 105.862 14.7385 105.798 14.8125C105.655 14.9752 105.581 15.1834 105.589 15.3962C105.589 15.8033 105.784 16.1211 106.168 16.3408C106.918 16.803 107.912 17.0376 109.123 17.0376C110.172 17.0376 111.029 16.812 111.665 16.3679C112.313 15.9163 112.641 15.3066 112.641 14.5567C112.641 14.0935 112.544 13.7071 112.353 13.4068Z" fill="white"/>
<path d="M118.832 8.76397C118.277 8.75504 117.728 8.86984 117.227 9.09935C116.865 9.26962 116.545 9.51286 116.289 9.81256V6.44551C116.289 6.14091 116.182 5.89627 115.972 5.71797C115.762 5.53967 115.493 5.45264 115.159 5.45264C114.826 5.45264 114.549 5.54709 114.337 5.73336C114.23 5.8273 114.146 5.94237 114.09 6.07063C114.034 6.19889 114.008 6.33729 114.013 6.47629V15.9476C114.013 16.2713 114.116 16.5313 114.318 16.7197C114.521 16.9081 114.797 17.0025 115.143 17.0025C115.489 17.0025 115.768 16.9075 115.975 16.7207C116.182 16.5339 116.289 16.2718 116.289 15.9476V12.4176C116.289 11.8466 116.459 11.386 116.794 11.049C117.129 10.712 117.581 10.5428 118.14 10.5428C118.609 10.5428 118.956 10.6616 119.169 10.8951C119.383 11.1286 119.496 11.5229 119.496 12.053V15.9491C119.496 16.2734 119.602 16.5329 119.81 16.7223C120.019 16.9118 120.297 17.0041 120.642 17.0041C120.988 17.0041 121.266 16.9086 121.47 16.7213C121.674 16.5339 121.774 16.2729 121.774 15.9491V12.0514C121.773 9.8704 120.784 8.76397 118.832 8.76397Z" fill="white"/>
<path d="M53.7413 13.4068C53.5498 13.1054 53.232 12.8522 52.7972 12.6543C52.3746 12.4617 51.7847 12.2887 51.0437 12.1396C50.3678 12.0053 49.9082 11.8716 49.6776 11.7405C49.5814 11.6917 49.5015 11.6178 49.4469 11.5274C49.3924 11.4369 49.3654 11.3335 49.3692 11.2289C49.3658 11.1178 49.3923 11.0076 49.4461 10.9092C49.5 10.8107 49.5793 10.7273 49.6765 10.667C49.8928 10.5221 50.1957 10.4483 50.5775 10.4483C50.8552 10.4415 51.1322 10.4795 51.3969 10.5608C51.6734 10.6602 51.9428 10.7769 52.2035 10.91C52.3483 10.9902 52.4973 11.0632 52.6499 11.1286C52.7753 11.181 52.9105 11.2081 53.0472 11.2082C53.1496 11.2085 53.2507 11.1858 53.3426 11.1421C53.4344 11.0983 53.5144 11.0347 53.5763 10.9562C53.7156 10.7866 53.7883 10.5752 53.7815 10.3592C53.7815 9.97445 53.5873 9.66189 53.205 9.43212C52.8396 9.2087 52.4403 9.04131 52.0214 8.93595C51.5773 8.82194 51.1194 8.76484 50.6597 8.76613C50.0109 8.76613 49.4227 8.87227 48.9123 9.08453C48.4272 9.27459 48.0049 9.58766 47.6902 9.99037C47.3953 10.3721 47.2377 10.8357 47.241 11.3112C47.241 11.9528 47.4673 12.4643 47.9131 12.8321C48.3473 13.1903 49.0718 13.4689 50.06 13.662C50.4699 13.7432 50.8751 13.8452 51.2738 13.9677C51.5243 14.0515 51.6981 14.1407 51.7903 14.233C51.8796 14.3308 51.925 14.4586 51.9166 14.5886C51.9166 14.8152 51.8063 14.9876 51.5856 15.116C51.3461 15.2535 51.0024 15.323 50.5632 15.323C50.124 15.323 49.7615 15.2816 49.4828 15.201C49.1601 15.1037 48.845 14.9846 48.5399 14.8443C48.1906 14.6655 47.9208 14.579 47.7122 14.579C47.612 14.578 47.5128 14.5985 47.4218 14.6388C47.3307 14.6792 47.2502 14.7385 47.1859 14.8125C47.0433 14.9754 46.9692 15.1835 46.9779 15.3962C46.9779 15.8033 47.1721 16.1211 47.5561 16.3408C48.3054 16.803 49.2996 17.0376 50.5113 17.0376C51.5596 17.0376 52.417 16.812 53.0532 16.3679C53.7004 15.9163 54.0287 15.3066 54.0287 14.5567C54.0287 14.0935 53.9322 13.7071 53.7413 13.4068Z" fill="white"/>
<path d="M59.9088 15.3205L59.4641 15.2892C58.7788 15.2409 58.4456 14.8646 58.4456 14.1429V10.6528H59.7361C60.0567 10.6528 60.3105 10.5806 60.4887 10.4405C60.6669 10.3004 60.7646 10.0802 60.7646 9.8037C60.7646 9.52723 60.6713 9.31602 60.4887 9.16691C60.3061 9.01779 60.0567 8.95464 59.7361 8.95464H58.4456V7.60251C58.4456 7.28889 58.3396 7.03417 58.1311 6.84526C57.9225 6.65634 57.6499 6.56348 57.3156 6.56348C56.9702 6.56348 56.6899 6.65793 56.4835 6.84526C56.2772 7.03258 56.169 7.28836 56.169 7.60251V8.95464H55.455C55.1339 8.95464 54.8807 9.02628 54.7019 9.16691C54.5231 9.30753 54.426 9.52776 54.426 9.8037C54.426 10.0796 54.5198 10.2919 54.7019 10.4405C54.884 10.5891 55.1334 10.6528 55.455 10.6528H56.1696V14.0002C56.1696 15.8304 57.1346 16.8244 59.0387 16.9554L59.4851 16.9873C59.5402 16.9873 59.5954 16.9915 59.6456 16.9915C59.9872 16.9915 60.2619 16.9289 60.4639 16.8042C60.5818 16.735 60.6784 16.6369 60.7437 16.5198C60.809 16.4027 60.8406 16.271 60.8352 16.1382C60.833 15.7896 60.6724 15.365 59.9088 15.3205Z" fill="white"/>
<path d="M68.0786 9.59518C67.5164 9.04382 66.6512 8.76416 65.5063 8.76416C64.9689 8.76584 64.4334 8.82511 63.9096 8.94087C63.4211 9.04076 62.9491 9.20411 62.5065 9.42643C62.2725 9.55007 62.102 9.68592 61.9994 9.83132C61.8922 9.98703 61.837 10.1705 61.841 10.3572C61.8317 10.5788 61.9088 10.7957 62.0573 10.9653C62.1275 11.0434 62.2148 11.1056 62.313 11.1472C62.4112 11.1889 62.5178 11.2091 62.6251 11.2063C62.7757 11.2063 62.9959 11.1357 63.2872 10.994C63.733 10.8268 64.1225 10.6974 64.4459 10.6093C64.7521 10.5244 65.069 10.4804 65.3877 10.4787C65.87 10.4787 66.2198 10.5875 66.4278 10.8014C66.6358 11.0152 66.7439 11.375 66.7439 11.8627V12.1222H66.4416C65.2426 12.1222 64.2897 12.1975 63.6017 12.3467C62.9021 12.4984 62.3878 12.7494 62.0706 13.0896C61.7533 13.4297 61.5905 13.9116 61.5905 14.5054C61.5864 14.9646 61.7245 15.4147 61.9873 15.7981C62.2563 16.1878 62.6289 16.5012 63.0665 16.7055C63.5377 16.9273 64.0565 17.0396 64.5811 17.0335C65.0891 17.0426 65.59 16.9167 66.0283 16.6694C66.3139 16.5062 66.5587 16.2846 66.7456 16.0204C66.7491 16.2775 66.8582 16.5229 67.049 16.7029C67.1523 16.7973 67.2741 16.8709 67.4073 16.9195C67.5405 16.968 67.6824 16.9906 67.8248 16.9857C68.1597 16.9857 68.4317 16.8934 68.6249 16.7108C68.818 16.5283 68.9217 16.2752 68.9217 15.9621V12.0994C68.925 10.9887 68.6403 10.146 68.0786 9.59518ZM66.7472 13.3762V13.6038C66.7472 14.1345 66.5817 14.5701 66.2584 14.9018C65.9351 15.2335 65.5185 15.399 64.996 15.399C64.6862 15.4089 64.3846 15.3023 64.1551 15.1019C64.0453 15.0075 63.9585 14.8911 63.9007 14.7609C63.8429 14.6307 63.8156 14.4898 63.8207 14.3483C63.8207 14.1016 63.8952 13.9142 64.0497 13.7752C64.2042 13.6362 64.4823 13.5295 64.8652 13.4695C65.2641 13.4075 65.8341 13.3762 66.5602 13.3762H66.7472Z" fill="white"/>
<path d="M78.1393 15.1872L75.3635 12.7933L77.864 10.5592C78.0924 10.339 78.2083 10.0901 78.2083 9.82004C78.204 9.55391 78.0922 9.29983 77.8965 9.11163C77.7008 8.92343 77.4367 8.81588 77.16 8.81178C77.0193 8.8124 76.8802 8.84057 76.7512 8.89458C76.6221 8.94859 76.5059 9.02731 76.4096 9.12593L73.0704 12.2038V6.49225C73.0704 6.15475 72.96 5.89313 72.7349 5.71483C72.5057 5.53721 72.218 5.4444 71.9238 5.45321C71.6021 5.45321 71.3318 5.5413 71.1205 5.71854C70.9091 5.89578 70.7938 6.15793 70.7938 6.4949V15.9465C70.7938 16.2835 70.9042 16.5446 71.1199 16.7229C71.3356 16.9012 71.6021 16.9882 71.9238 16.9882C72.2181 16.997 72.5059 16.904 72.7349 16.7261C72.9556 16.5478 73.0704 16.2862 73.0704 15.9492V13.4747L76.739 16.6714C76.9674 16.88 77.2201 16.9856 77.4894 16.9856C77.6252 16.9851 77.7593 16.9564 77.8825 16.9014C78.0058 16.8465 78.1152 16.7666 78.2033 16.6672C78.3965 16.4735 78.5043 16.2154 78.504 15.9471C78.5051 15.6642 78.3826 15.4095 78.1393 15.1872Z" fill="white"/>
<path d="M86.1569 14.576C85.9842 14.576 85.7304 14.6625 85.3877 14.8387C85.0934 14.9685 84.7921 15.0833 84.4851 15.1825C84.1947 15.2679 83.8921 15.3089 83.5885 15.304C82.9297 15.304 82.4237 15.1411 82.0844 14.8196C81.7616 14.5139 81.5608 14.0342 81.4857 13.3921H86.2231C86.558 13.3921 86.9575 13.2557 86.9575 12.6062C86.9575 11.8325 86.8041 11.1506 86.5012 10.579C86.2133 10.0216 85.7645 9.55586 85.2084 9.23751C84.6567 8.92336 84.0001 8.76416 83.2591 8.76416C82.4866 8.76416 81.7831 8.93928 81.1701 9.28527C80.5557 9.63217 80.0578 10.1414 79.7356 10.7526C79.4001 11.3771 79.2296 12.102 79.2296 12.907C79.2296 14.1759 79.623 15.1921 80.3982 15.927C81.1734 16.662 82.2367 17.0345 83.5554 17.0345C84.0216 17.0305 84.4854 16.9679 84.9348 16.8483C85.3856 16.7362 85.8203 16.5706 86.2286 16.3553C86.67 16.1149 86.8907 15.8071 86.8907 15.441C86.8907 15.1852 86.8245 14.9761 86.6937 14.8206C86.6303 14.7424 86.5486 14.6796 86.4554 14.6371C86.3622 14.5947 86.26 14.5737 86.1569 14.576ZM84.9745 12.1211H81.4896C81.5641 11.5703 81.7511 11.1399 82.0474 10.8417C82.3592 10.5265 82.784 10.3673 83.3104 10.3673C83.8368 10.3673 84.2246 10.5191 84.5132 10.8311C84.7825 11.1245 84.9375 11.5581 84.9745 12.1211Z" fill="white"/>
<path fill-rule="evenodd" clip-rule="evenodd" d="M91.2002 11.5066C91.5578 11.5468 91.8851 11.7196 92.1125 11.9882C92.3398 12.2568 92.4493 12.6001 92.4178 12.9451C92.3862 13.2901 92.2161 13.6097 91.9435 13.836C91.6709 14.0623 91.3173 14.1775 90.9578 14.1571C90.5983 14.1366 90.2612 13.9823 90.0182 13.7267C89.7752 13.4711 89.6453 13.1345 89.6561 12.7883C89.667 12.4421 89.8178 12.1136 90.0764 11.8726C90.335 11.6316 90.6812 11.4971 91.0413 11.4976C91.0944 11.4976 91.1474 11.5006 91.2002 11.5066Z" fill="white"/>
</svg>
