<svg width="160" height="160" viewBox="0 0 160 160" fill="none" xmlns="http://www.w3.org/2000/svg">
<circle cx="80" cy="80" r="80" fill="white"/>
<g clip-path="url(#clip0_1782_2445)">
<path d="M30 50.8685L80 79.7369L130 50.8685L80 22L30 50.8685Z" fill="#EE2F51"/>
<path d="M30 50.8685L80 79.7369V137.474L30 108.605V50.8685Z" fill="#C32942"/>
<path d="M130 50.8685L80 79.7369V137.474L130 108.605V50.8685Z" fill="#7D1729"/>
<path d="M46.6768 98.9826L63.3414 89.3597V108.605L46.6768 98.9826Z" fill="#EE2F51"/>
<path d="M63.3352 89.3598L46.6646 79.7369V98.9826L63.3352 89.3598Z" fill="#7D1729"/>
<path d="M113.323 98.9826L96.6587 89.3597V108.605L113.323 98.9826Z" fill="#EE2F51"/>
<path d="M96.6646 89.3598L113.335 79.7369V98.9826L96.6646 89.3598Z" fill="#C32942"/>
<path d="M63.3354 50.8685L80.0001 41.2457V60.4913L63.3354 50.8685Z" fill="#7D1729"/>
<path d="M96.6646 50.8685L80 41.2457V60.4913L96.6646 50.8685Z" fill="#C32942"/>
</g>
<defs>
<clipPath id="clip0_1782_2445">
<rect width="100" height="116" fill="white" transform="translate(30 22)"/>
</clipPath>
</defs>
</svg>
