<svg width="34" height="35" viewBox="0 0 34 35" fill="none" xmlns="http://www.w3.org/2000/svg">
<g clip-path="url(#clip0_231_11958)">
<path d="M26.9401 0.685791H7.06035C3.26377 0.685791 0.186035 3.76353 0.186035 7.56011V27.4399C0.186035 31.2365 3.26377 34.3142 7.06035 34.3142H26.9401C30.7367 34.3142 33.8145 31.2365 33.8145 27.4399V7.56011C33.8145 3.76353 30.7367 0.685791 26.9401 0.685791Z" fill="url(#paint0_linear_231_11958)"/>
<path d="M21.425 8.48901L8.36084 26.881H12.3718L25.5037 8.48901H21.425Z" fill="white"/>
<path d="M12.7894 8.48901L16.6332 13.9085L14.6277 16.8646L8.69482 8.48901H12.7894Z" fill="url(#paint1_linear_231_11958)"/>
<path d="M21.8143 26.8824L17.5527 20.8882L19.5582 18.0142L25.8254 26.8824H21.8143Z" fill="url(#paint2_linear_231_11958)"/>
<path d="M26.9401 0.685791H7.06035C3.26377 0.685791 0.186035 3.76353 0.186035 7.56011V27.4399C0.186035 31.2365 3.26377 34.3142 7.06035 34.3142H26.9401C30.7367 34.3142 33.8145 31.2365 33.8145 27.4399V7.56011C33.8145 3.76353 30.7367 0.685791 26.9401 0.685791Z" stroke="#2D2D3D" stroke-width="2"/>
</g>
<defs>
<linearGradient id="paint0_linear_231_11958" x1="27.4046" y1="-4.05191" x2="19.1369" y2="30.3197" gradientUnits="userSpaceOnUse">
<stop stop-color="#2C2C3D"/>
<stop offset="1" stop-color="#1A1A27"/>
</linearGradient>
<linearGradient id="paint1_linear_231_11958" x1="11.8702" y1="9.6386" x2="17.2591" y2="16.2589" gradientUnits="userSpaceOnUse">
<stop stop-color="white"/>
<stop offset="1" stop-color="white" stop-opacity="0.55"/>
</linearGradient>
<linearGradient id="paint2_linear_231_11958" x1="22.7336" y1="25.4866" x2="16.1247" y2="16.4198" gradientUnits="userSpaceOnUse">
<stop stop-color="#6966FF"/>
<stop offset="1" stop-color="#6966FF" stop-opacity="0.36"/>
</linearGradient>
<clipPath id="clip0_231_11958">
<rect width="34" height="34" fill="white" transform="translate(0 0.5)"/>
</clipPath>
</defs>
</svg>
