<svg width="40" height="41" viewBox="0 0 40 41" fill="none" xmlns="http://www.w3.org/2000/svg">
<path d="M20 40.5C31.0457 40.5 40 31.5457 40 20.5C40 9.4543 31.0457 0.5 20 0.5C8.9543 0.5 0 9.4543 0 20.5C0 31.5457 8.9543 40.5 20 40.5Z" fill="#627EEA"/>
<path d="M20.6225 5.5V16.5875L29.9938 20.775L20.6225 5.5Z" fill="white" fill-opacity="0.602"/>
<path d="M20.6225 5.5L11.25 20.775L20.6225 16.5875V5.5Z" fill="white"/>
<path d="M20.6225 27.96V35.4938L30 22.52L20.6225 27.96Z" fill="white" fill-opacity="0.602"/>
<path d="M20.6225 35.4938V27.9588L11.25 22.52L20.6225 35.4938Z" fill="white"/>
<path d="M20.6225 26.2162L29.9938 20.775L20.6225 16.59V26.2162Z" fill="white" fill-opacity="0.2"/>
<path d="M11.25 20.775L20.6225 26.2162V16.59L11.25 20.775Z" fill="white" fill-opacity="0.602"/>
</svg>
