<svg width="24" height="24" viewBox="0 0 24 24" fill="none" xmlns="http://www.w3.org/2000/svg">
<path d="M24 12C24 18.6274 18.6274 24 12 24C5.37258 24 0 18.6274 0 12C0 5.37258 5.37258 0 12 0C18.6274 0 24 5.37258 24 12Z" fill="white"/>
<path d="M20.3935 6.16251C20.2056 5.45122 19.6017 4.73993 18.5146 3.94812C17.6423 3.31735 16.7163 2.95499 15.9781 2.95499C15.8305 2.95499 15.6963 2.96841 15.5621 2.99526C15.2266 3.06236 14.9313 3.30393 14.7434 3.66628C14.5153 4.09574 14.4616 4.67283 14.6092 5.02176C14.6629 5.12913 14.73 5.26333 14.8105 5.38412C14.0993 5.81357 13.6966 5.93436 13.643 5.94778C15.495 6.56513 17.0384 7.8535 18.0046 9.53107L18.0181 9.37003C18.0583 8.92715 18.1925 8.41716 18.3804 7.89376C18.5683 7.94744 18.7562 7.97429 18.9441 7.97429C19.4406 7.97429 19.8701 7.77298 20.1385 7.41062C20.4069 7.04827 20.5143 6.56513 20.3935 6.16251Z" fill="#5E12A0"/>
<path d="M18.4617 7.50507C19.6829 7.84058 20.1795 6.90114 20.0184 6.27037C19.844 5.63961 19.2803 4.99542 18.2872 4.27071C17.2941 3.546 16.2875 3.25075 15.6433 3.38495C14.9991 3.51916 14.8113 4.49886 14.9723 4.87463C15.0394 5.02226 15.187 5.23699 15.3883 5.47856C15.1334 5.65303 14.8918 5.78723 14.6905 5.90802C15.9252 6.45826 16.9988 7.31718 17.804 8.39082C17.898 8.02847 18.0322 7.70637 18.153 7.42454C18.2469 7.43796 18.3543 7.4648 18.4617 7.50507Z" fill="url(#paint0_radial_1736_826)"/>
<path d="M11.4716 20.6576C15.615 20.6576 18.9737 17.2989 18.9737 13.1555C18.9737 9.01221 15.615 5.65345 11.4716 5.65345C7.32829 5.65345 3.96953 9.01221 3.96953 13.1555C3.96953 17.2989 7.32829 20.6576 11.4716 20.6576Z" fill="url(#paint1_radial_1736_826)"/>
<path d="M19.4015 5.65263C18.3816 4.57898 17.5227 4.29715 16.4893 4.069C15.684 3.88111 15.8988 3.42482 16.8785 3.51876C16.4087 3.35771 15.9659 3.31745 15.6438 3.38455C14.9996 3.51876 14.8117 4.49846 14.9727 4.87424C15.0398 5.02186 15.1875 5.23659 15.3888 5.47816C15.0264 5.71973 14.7178 5.8942 14.4628 6.02841C14.5835 6.08209 14.7312 6.14919 14.9056 6.24313C15.3619 6.4847 15.8585 6.88732 15.8585 6.88732C15.107 6.24313 15.268 5.94788 16.3014 5.22317C16.6235 4.99502 17.214 5.02186 17.7642 5.30369C18.3145 5.58553 18.9587 6.29682 18.9587 6.29682L18.3413 7.47783C18.3816 7.49125 18.4218 7.50467 18.4621 7.51809C18.8513 7.62545 19.16 7.59861 19.4015 7.50467C19.6834 7.3302 20.4215 6.7397 19.4015 5.65263Z" fill="#A082A5"/>
<path d="M16.4765 4.7137C16.7449 4.82107 17.0939 5.00896 17.5233 5.29079C18.0333 5.6263 18.4762 6.00208 18.758 6.29733C18.2883 6.91468 17.9796 7.76017 17.7917 8.35068C17.8857 8.48488 17.993 8.61909 18.087 8.75329C18.1809 8.41778 18.342 7.92122 18.5567 7.42466C18.6104 7.43808 18.6775 7.43808 18.7446 7.43808C18.9056 7.43808 19.0935 7.41124 19.2412 7.29045C19.3485 7.20993 19.4693 7.0623 19.4559 6.79389C19.4559 6.5389 19.2546 6.21681 18.8385 5.82761C18.5433 5.54578 18.1407 5.23711 17.7381 4.95527C16.5839 4.1903 15.7787 3.97557 15.4163 4.33793C15.1747 4.5795 15.2016 4.87475 15.2821 5.08948C14.8526 5.37131 14.4903 5.57262 14.2487 5.70683C14.4098 5.76051 14.5574 5.82761 14.7184 5.89471C15.1479 5.66656 15.7652 5.27737 16.4765 4.7137ZM19.013 6.63284C19.0533 6.69995 19.0667 6.76705 19.0667 6.80731C19.0667 6.9281 19.0264 6.96836 18.9996 6.9952C18.9459 7.03546 18.8385 7.0623 18.7446 7.0623C18.8251 6.90126 18.9191 6.76705 19.013 6.63284ZM15.6981 4.63318C15.7384 4.59292 15.8458 4.56608 16.0202 4.59292C15.886 4.70028 15.7518 4.79423 15.6176 4.88817C15.6042 4.79423 15.6176 4.70028 15.6981 4.63318Z" fill="#5E12A0"/>
<path d="M11.4728 5.21053C7.08424 5.21053 3.52779 8.76698 3.52779 13.1555C3.52779 17.544 7.08424 21.1005 11.4728 21.1005C15.8613 21.1005 19.4177 17.544 19.4177 13.1555C19.4177 8.76698 15.8479 5.21053 11.4728 5.21053ZM11.4728 20.6576C7.32581 20.6576 3.97067 17.3025 3.97067 13.1555C3.97067 9.00855 7.32581 5.6534 11.4728 5.6534C15.6197 5.6534 18.9749 9.00855 18.9749 13.1555C18.9749 17.3025 15.6063 20.6576 11.4728 20.6576Z" fill="#5E12A0"/>
<path d="M11.4716 20.6576C15.615 20.6576 18.9737 17.2989 18.9737 13.1555C18.9737 9.01221 15.615 5.65345 11.4716 5.65345C7.32829 5.65345 3.96953 9.01221 3.96953 13.1555C3.96953 17.2989 7.32829 20.6576 11.4716 20.6576Z" fill="url(#paint2_linear_1736_826)"/>
<path d="M11.4158 19.7441C7.32257 19.0865 4.54451 15.2348 5.21554 11.1415C5.51079 9.32975 6.42339 7.78639 7.71176 6.67248C5.83288 7.75954 4.43714 9.65184 4.06137 11.9602C3.40376 16.0535 6.18182 19.9052 10.2617 20.5628C12.5432 20.9385 14.7441 20.2273 16.368 18.8315C14.932 19.6636 13.1874 20.0259 11.4158 19.7441Z" fill="#8D7291"/>
<path d="M12.6655 5.76027C10.7732 5.4516 8.93458 5.88106 7.43148 6.83392C7.40464 6.86076 7.3778 6.8876 7.3778 6.8876C7.95488 6.53867 8.80038 6.22999 8.80038 6.22999C6.62625 7.49153 5.95522 8.92753 5.95522 8.92753C6.80071 7.29022 9.28352 6.13605 11.2295 6.05553C13.1755 5.975 14.4504 6.55209 16.0072 7.8002C17.564 9.06173 18.5035 11.6385 18.4095 13.6784C18.329 15.7183 17.2553 17.3691 17.2553 17.3691C17.9935 16.4162 18.4363 15.7183 18.7182 15.007C18.7719 14.7923 18.8255 14.5776 18.8524 14.3494C19.5234 10.2696 16.7588 6.41788 12.6655 5.76027Z" fill="url(#paint3_linear_1736_826)"/>
<path d="M18.5954 13.0884C18.5954 17.0206 15.4013 20.2147 11.4691 20.2147C7.53687 20.2147 4.32935 17.0206 4.32935 13.0884H18.5954Z" fill="url(#paint4_linear_1736_826)"/>
<path d="M18.0327 13.0884C18.0327 16.9267 14.9996 20.0671 11.1882 20.2147H11.47C15.4022 20.2147 18.5963 17.0206 18.5963 13.0884H18.0327Z" fill="url(#paint5_linear_1736_826)"/>
<path d="M5.33589 13.0884H4.32935C4.32935 17.0206 7.52345 20.2147 11.4557 20.2147C11.6301 20.2147 11.7912 20.2147 11.9522 20.2013C8.26158 19.9329 5.33589 16.8462 5.33589 13.0884Z" fill="url(#paint6_linear_1736_826)"/>
<path d="M18.582 13.155C18.582 12.3363 17.1594 11.8666 15.2671 11.7056C13.8982 11.5982 12.5159 11.7324 10.9323 12.2155C9.56337 12.6182 8.32868 12.5511 7.4295 12.4437C5.42984 12.2155 4.32935 12.1887 4.32935 13.155C4.32935 14.5507 7.17451 16.2954 11.4423 15.6915C13.603 15.3828 14.7169 14.752 15.9918 14.3226C17.3741 13.8663 18.582 13.8797 18.582 13.155Z" fill="url(#paint7_linear_1736_826)"/>
<path d="M13.8079 9.77361C14.475 9.77361 15.0157 9.23289 15.0157 8.56576C15.0157 7.89862 14.475 7.35791 13.8079 7.35791C13.1407 7.35791 12.6 7.89862 12.6 8.56576C12.6 9.23289 13.1407 9.77361 13.8079 9.77361Z" fill="white"/>
<path d="M15.7789 10.6721C16.0606 10.6721 16.2888 10.4438 16.2888 10.1621C16.2888 9.88043 16.0606 9.65215 15.7789 9.65215C15.4972 9.65215 15.2689 9.88043 15.2689 10.1621C15.2689 10.4438 15.4972 10.6721 15.7789 10.6721Z" fill="white"/>
<path d="M17.6046 7.5984H17.5778C17.4973 7.58498 17.4436 7.50446 17.457 7.41051C17.5778 6.79317 18.0878 6.20266 18.1146 6.17582C18.1683 6.10872 18.2756 6.10872 18.3293 6.1624C18.3964 6.21608 18.3964 6.32345 18.3428 6.37713C18.3293 6.39055 17.8596 6.94079 17.7522 7.47761C17.7388 7.55814 17.6717 7.5984 17.6046 7.5984Z" fill="url(#paint8_linear_1736_826)"/>
<path d="M15.982 2.95542C16.7336 2.95542 17.6596 3.31778 18.5185 3.94854C19.6056 4.74036 20.2095 5.43823 20.3974 6.16294C20.5047 6.57898 20.4108 7.0487 20.1424 7.39763C19.8605 7.75999 19.4445 7.96129 18.948 7.96129C18.7735 7.96129 18.5856 7.93445 18.3843 7.88077C18.2635 8.18944 18.1696 8.49812 18.1025 8.79337C18.9211 10.0415 19.4042 11.5446 19.4042 13.1551C19.4042 17.5436 15.8478 21.1 11.4593 21.1C7.07075 21.1 3.52772 17.5436 3.52772 13.1551C3.52772 8.76653 7.08417 5.21008 11.4727 5.21008C12.439 5.21008 13.365 5.38455 14.2239 5.70664C14.385 5.62612 14.5863 5.51875 14.8144 5.38455C14.7339 5.26376 14.6534 5.14297 14.6131 5.02219C14.4655 4.65983 14.5192 4.09617 14.7473 3.66671C14.9352 3.31778 15.217 3.07621 15.566 2.99568C15.6868 2.96884 15.8344 2.95542 15.982 2.95542ZM15.982 2.72727C15.821 2.72727 15.6599 2.74069 15.5123 2.78096C15.1097 2.8749 14.7607 3.14331 14.5326 3.57277C14.2776 4.06933 14.2105 4.71352 14.385 5.12955C14.4118 5.18324 14.4386 5.25034 14.4789 5.31744C14.385 5.37112 14.291 5.42481 14.1971 5.46507C13.3113 5.1564 12.3987 4.99535 11.4593 4.99535C10.3588 4.99535 9.28514 5.21008 8.2786 5.63954C7.2989 6.05557 6.42656 6.64608 5.67501 7.39763C4.92346 8.14918 4.33295 9.02152 3.91691 10.0012C3.48746 11.0078 3.27273 12.0814 3.27273 13.1819C3.27273 14.2824 3.48746 15.356 3.91691 16.3626C4.33295 17.3423 4.92346 18.2146 5.67501 18.9662C6.42656 19.7177 7.2989 20.3082 8.2786 20.7243C9.28514 21.1537 10.3588 21.3684 11.4593 21.3684C12.5598 21.3684 13.6334 21.1537 14.6399 20.7243C15.6196 20.3082 16.492 19.7177 17.2435 18.9662C17.9951 18.2146 18.5856 17.3423 19.0016 16.3626C19.4311 15.356 19.6458 14.2824 19.6458 13.1819C19.6458 11.6117 19.2029 10.0952 18.3574 8.77995C18.3977 8.57864 18.4648 8.37733 18.5319 8.17602C18.6661 8.20286 18.8137 8.21628 18.948 8.21628C19.5116 8.21628 20.0082 7.98814 20.3303 7.55868C20.6389 7.15606 20.7597 6.5924 20.6255 6.12268C20.4108 5.34428 19.7934 4.60615 18.6527 3.7875C17.7535 3.10305 16.7738 2.72727 15.982 2.72727Z" fill="white"/>
<path d="M10.9764 18.7518C11.1839 18.7518 11.3522 18.5835 11.3522 18.376C11.3522 18.1686 11.1839 18.0003 10.9764 18.0003C10.769 18.0003 10.6007 18.1686 10.6007 18.376C10.6007 18.5835 10.769 18.7518 10.9764 18.7518Z" fill="#9534E1"/>
<path d="M10.7605 18.6167C10.6129 18.4691 10.6129 18.2275 10.7605 18.0799C10.7874 18.053 10.8142 18.0396 10.841 18.0128C10.7874 18.0262 10.7471 18.053 10.7068 18.0933C10.5592 18.2409 10.5592 18.4825 10.7068 18.6301C10.8276 18.7509 11.0155 18.7778 11.1631 18.6972C11.0289 18.7509 10.8679 18.7241 10.7605 18.6167Z" fill="url(#paint9_linear_1736_826)"/>
<path d="M11.1093 18.2683C11.1537 18.2683 11.1898 18.2322 11.1898 18.1878C11.1898 18.1434 11.1537 18.1073 11.1093 18.1073C11.0649 18.1073 11.0288 18.1434 11.0288 18.1878C11.0288 18.2322 11.0649 18.2683 11.1093 18.2683Z" fill="#BBBBBB"/>
<path d="M12.9348 18.5639C13.1423 18.5639 13.3106 18.3956 13.3106 18.1882C13.3106 17.9807 13.1423 17.8124 12.9348 17.8124C12.7273 17.8124 12.559 17.9807 12.559 18.1882C12.559 18.3956 12.7273 18.5639 12.9348 18.5639Z" fill="#B134DD"/>
<path d="M12.7189 18.4288C12.5712 18.2812 12.5712 18.0396 12.7189 17.892C12.7457 17.8652 12.7726 17.8518 12.7994 17.8249C12.7457 17.8383 12.7055 17.8652 12.6652 17.9054C12.5176 18.0531 12.5176 18.2946 12.6652 18.4423C12.786 18.563 12.9739 18.5899 13.1215 18.5094C12.9873 18.563 12.8262 18.5362 12.7189 18.4288Z" fill="url(#paint10_linear_1736_826)"/>
<path d="M13.0677 18.0805C13.1121 18.0805 13.1482 18.0444 13.1482 17.9999C13.1482 17.9555 13.1121 17.9194 13.0677 17.9194C13.0232 17.9194 12.9871 17.9555 12.9871 17.9999C12.9871 18.0444 13.0232 18.0805 13.0677 18.0805Z" fill="#BBBBBB"/>
<path d="M11.9664 19.4361C12.1221 19.4361 12.2483 19.3099 12.2483 19.1542C12.2483 18.9986 12.1221 18.8724 11.9664 18.8724C11.8108 18.8724 11.6846 18.9986 11.6846 19.1542C11.6846 19.3099 11.8108 19.4361 11.9664 19.4361Z" fill="#A034DF"/>
<path d="M11.8054 19.329C11.698 19.2216 11.698 19.0337 11.8054 18.9263C11.8188 18.9129 11.8456 18.8995 11.8591 18.8861C11.8188 18.8995 11.792 18.9263 11.7651 18.9532C11.6578 19.0605 11.6578 19.2484 11.7651 19.3558C11.8591 19.4497 11.9933 19.4632 12.1141 19.3961C12.0067 19.4363 11.8859 19.4095 11.8054 19.329Z" fill="url(#paint11_linear_1736_826)"/>
<path d="M12.0617 19.0606C12.0913 19.0606 12.1153 19.0366 12.1153 19.0069C12.1153 18.9773 12.0913 18.9533 12.0617 18.9533C12.032 18.9533 12.008 18.9773 12.008 19.0069C12.008 19.0366 12.032 19.0606 12.0617 19.0606Z" fill="#BBBBBB"/>
<path d="M13.6971 19.2346C13.8528 19.2346 13.9789 19.1084 13.9789 18.9527C13.9789 18.797 13.8528 18.6709 13.6971 18.6709C13.5414 18.6709 13.4152 18.797 13.4152 18.9527C13.4152 19.1084 13.5414 19.2346 13.6971 19.2346Z" fill="#B934DC"/>
<path d="M13.536 19.1274C13.4287 19.0201 13.4287 18.8322 13.536 18.7248C13.5494 18.7114 13.5763 18.698 13.5897 18.6846C13.5495 18.698 13.5226 18.7248 13.4958 18.7517C13.3884 18.859 13.3884 19.0469 13.4958 19.1543C13.5897 19.2482 13.7239 19.2616 13.8447 19.1945C13.7373 19.2348 13.6166 19.208 13.536 19.1274Z" fill="url(#paint12_linear_1736_826)"/>
<path d="M13.7923 18.8591C13.822 18.8591 13.846 18.8351 13.846 18.8054C13.846 18.7758 13.822 18.7517 13.7923 18.7517C13.7627 18.7517 13.7386 18.7758 13.7386 18.8054C13.7386 18.8351 13.7627 18.8591 13.7923 18.8591Z" fill="#BBBBBB"/>
<path d="M9.37804 18.6167C9.71906 18.6167 9.99538 18.3404 9.99538 17.9994C9.99538 17.6585 9.71906 17.382 9.37804 17.382C9.03716 17.382 8.76069 17.6585 8.76069 17.9994C8.76069 18.3404 9.03716 18.6167 9.37804 18.6167Z" fill="#7734E5"/>
<path d="M9.02695 18.3893C8.78538 18.1477 8.78538 17.7585 9.02695 17.5169C9.06721 17.4767 9.10747 17.4498 9.16115 17.423C9.08063 17.4498 9.01353 17.5035 8.94642 17.5572C8.70485 17.7988 8.70485 18.188 8.94642 18.4295C9.14773 18.6309 9.4564 18.6711 9.69797 18.5235C9.46982 18.6174 9.20141 18.5772 9.02695 18.3893Z" fill="url(#paint13_linear_1736_826)"/>
<path d="M9.59173 17.8121C9.66581 17.8121 9.72593 17.752 9.72593 17.6779C9.72593 17.6038 9.66581 17.5437 9.59173 17.5437C9.51765 17.5437 9.45752 17.6038 9.45752 17.6779C9.45752 17.752 9.51765 17.8121 9.59173 17.8121Z" fill="#BBBBBB"/>
<path d="M14.8934 17.1012C15.2344 17.1012 15.5107 16.8249 15.5107 16.4839C15.5107 16.143 15.2344 15.8666 14.8934 15.8666C14.5525 15.8666 14.276 16.143 14.276 16.4839C14.276 16.8249 14.5525 17.1012 14.8934 17.1012Z" fill="#CE34D9"/>
<path d="M14.5286 16.8727C14.287 16.6311 14.287 16.2419 14.5286 16.0003C14.5689 15.9601 14.6091 15.9332 14.6628 15.9064C14.5823 15.9332 14.5152 15.9869 14.4481 16.0406C14.2065 16.2822 14.2065 16.6714 14.4481 16.9129C14.6494 17.1142 14.9581 17.1545 15.1996 17.0069C14.9715 17.1008 14.7165 17.0606 14.5286 16.8727Z" fill="url(#paint14_linear_1736_826)"/>
<defs>
<radialGradient id="paint0_radial_1736_826" cx="0" cy="0" r="1" gradientUnits="userSpaceOnUse" gradientTransform="translate(22.7714 9.86889) scale(26.8707 28.5782)">
<stop stop-color="#FAEDFC" stop-opacity="0.6"/>
<stop offset="0.68" stop-color="#A087C9"/>
<stop offset="1" stop-color="#10002F"/>
</radialGradient>
<radialGradient id="paint1_radial_1736_826" cx="0" cy="0" r="1" gradientUnits="userSpaceOnUse" gradientTransform="translate(19.945 3.72696) scale(23.4743)">
<stop stop-color="#FAEDFC" stop-opacity="0.6"/>
<stop offset="0.68" stop-color="#A087C9"/>
<stop offset="1" stop-color="#10002F"/>
</radialGradient>
<linearGradient id="paint2_linear_1736_826" x1="10.0751" y1="23.8298" x2="13.9133" y2="0.150268" gradientUnits="userSpaceOnUse">
<stop stop-color="#81FFFF" stop-opacity="0.6"/>
<stop offset="0.62" stop-color="white" stop-opacity="0"/>
<stop offset="1" stop-color="white" stop-opacity="0"/>
</linearGradient>
<linearGradient id="paint3_linear_1736_826" x1="19.9476" y1="4.91719" x2="7.41197" y2="15.2776" gradientUnits="userSpaceOnUse">
<stop stop-color="white" stop-opacity="0.6"/>
<stop offset="0.29" stop-color="white" stop-opacity="0.6"/>
<stop offset="0.78" stop-color="white" stop-opacity="0"/>
<stop offset="1" stop-color="white" stop-opacity="0"/>
</linearGradient>
<linearGradient id="paint4_linear_1736_826" x1="0.0101644" y1="11.986" x2="23.9941" y2="11.986" gradientUnits="userSpaceOnUse">
<stop stop-color="#0002E9"/>
<stop offset="1" stop-color="#FF00C7"/>
</linearGradient>
<linearGradient id="paint5_linear_1736_826" x1="26.1752" y1="2.10599" x2="0.118414" y2="25.7943" gradientUnits="userSpaceOnUse">
<stop stop-color="white" stop-opacity="0.6"/>
<stop offset="0.29" stop-color="white" stop-opacity="0.6"/>
<stop offset="0.78" stop-color="white" stop-opacity="0"/>
<stop offset="1" stop-color="white" stop-opacity="0"/>
</linearGradient>
<linearGradient id="paint6_linear_1736_826" x1="0.0190225" y1="11.986" x2="24.0326" y2="11.986" gradientUnits="userSpaceOnUse">
<stop stop-color="#000292" stop-opacity="0.7"/>
<stop offset="1" stop-color="#7D00C7" stop-opacity="0.7"/>
</linearGradient>
<linearGradient id="paint7_linear_1736_826" x1="0.026287" y1="12.0252" x2="24.0008" y2="12.0252" gradientUnits="userSpaceOnUse">
<stop stop-color="#000292"/>
<stop offset="1" stop-color="#BE00C7"/>
</linearGradient>
<linearGradient id="paint8_linear_1736_826" x1="23.2125" y1="-0.215037" x2="10.6648" y2="32.2412" gradientUnits="userSpaceOnUse">
<stop stop-color="white" stop-opacity="0.6"/>
<stop offset="0.29" stop-color="white" stop-opacity="0.6"/>
<stop offset="0.78" stop-color="white" stop-opacity="0"/>
<stop offset="1" stop-color="white" stop-opacity="0"/>
</linearGradient>
<linearGradient id="paint9_linear_1736_826" x1="-0.0159053" y1="12.2845" x2="24.0176" y2="12.2845" gradientUnits="userSpaceOnUse">
<stop stop-color="white" stop-opacity="0.6"/>
<stop offset="0.29" stop-color="white" stop-opacity="0.6"/>
<stop offset="0.78" stop-color="white" stop-opacity="0"/>
<stop offset="1" stop-color="white" stop-opacity="0"/>
</linearGradient>
<linearGradient id="paint10_linear_1736_826" x1="-0.0738462" y1="12.2007" x2="23.9597" y2="12.2007" gradientUnits="userSpaceOnUse">
<stop stop-color="white" stop-opacity="0.6"/>
<stop offset="0.29" stop-color="white" stop-opacity="0.6"/>
<stop offset="0.78" stop-color="white" stop-opacity="0"/>
<stop offset="1" stop-color="white" stop-opacity="0"/>
</linearGradient>
<linearGradient id="paint11_linear_1736_826" x1="-0.09825" y1="11.8118" x2="23.724" y2="11.8118" gradientUnits="userSpaceOnUse">
<stop stop-color="white" stop-opacity="0.6"/>
<stop offset="0.29" stop-color="white" stop-opacity="0.6"/>
<stop offset="0.78" stop-color="white" stop-opacity="0"/>
<stop offset="1" stop-color="white" stop-opacity="0"/>
</linearGradient>
<linearGradient id="paint12_linear_1736_826" x1="-0.42225" y1="11.7885" x2="23.4" y2="11.7885" gradientUnits="userSpaceOnUse">
<stop stop-color="white" stop-opacity="0.6"/>
<stop offset="0.29" stop-color="white" stop-opacity="0.6"/>
<stop offset="0.78" stop-color="white" stop-opacity="0"/>
<stop offset="1" stop-color="white" stop-opacity="0"/>
</linearGradient>
<linearGradient id="paint13_linear_1736_826" x1="-0.158504" y1="11.9636" x2="23.7013" y2="11.9636" gradientUnits="userSpaceOnUse">
<stop stop-color="white" stop-opacity="0.6"/>
<stop offset="0.29" stop-color="white" stop-opacity="0.6"/>
<stop offset="0.78" stop-color="white" stop-opacity="0"/>
<stop offset="1" stop-color="white" stop-opacity="0"/>
</linearGradient>
<linearGradient id="paint14_linear_1736_826" x1="-0.0262446" y1="11.9555" x2="23.8336" y2="11.9555" gradientUnits="userSpaceOnUse">
<stop stop-color="white" stop-opacity="0.6"/>
<stop offset="0.29" stop-color="white" stop-opacity="0.6"/>
<stop offset="0.78" stop-color="white" stop-opacity="0"/>
<stop offset="1" stop-color="white" stop-opacity="0"/>
</linearGradient>
</defs>
</svg>
