<svg width="48" height="49" viewBox="0 0 48 49" fill="none" xmlns="http://www.w3.org/2000/svg">
<path d="M33.9023 18.5194C33.7343 18.6874 33.5087 18.7834 33.2735 18.7834H10.9775C10.1903 18.7834 9.79189 17.8234 10.3391 17.2522L13.9967 13.465C14.1647 13.2922 14.3951 13.1914 14.6351 13.1914H37.0127C37.8047 13.1914 38.2031 14.161 37.6415 14.7322L33.9023 18.5194ZM33.9023 35.4442C33.7343 35.6074 33.5087 35.7034 33.2735 35.7034H10.9775C10.1903 35.7034 9.79189 34.7674 10.3391 34.2106L13.9967 30.5146C14.1647 30.3466 14.3951 30.2506 14.6351 30.2506H37.0127C37.8047 30.2506 38.2031 31.1962 37.6415 31.753L33.9023 35.4442ZM33.2735 21.721C33.5087 21.721 33.7343 21.8122 33.9023 21.9802L37.6415 25.6762C38.2031 26.2282 37.8047 27.1786 37.0127 27.1786H14.6351C14.3951 27.1786 14.1647 27.0826 13.9967 26.9146L10.3391 23.2186C9.78709 22.6618 10.1855 21.7258 10.9775 21.7258L33.2735 21.721Z" fill="#00FFAD"/>
<path d="M24 0.615356C37.2528 0.615356 48 11.3626 48 24.6154C48 37.8682 37.2528 48.6154 24 48.6154C10.7472 48.6154 0 37.8682 0 24.6154C0 11.3626 10.7472 0.615356 24 0.615356Z" fill="black"/>
<path fill-rule="evenodd" clip-rule="evenodd" d="M11.0977 22.3257H33.3073C33.5857 22.3257 33.8497 22.4361 34.0417 22.6329L37.5553 26.1705C38.2033 26.8233 37.7425 27.9369 36.8209 27.9369H14.6113C14.3329 27.9369 14.0689 27.8265 13.8769 27.6297L10.3633 24.0921C9.71051 23.4393 10.1761 22.3257 11.0977 22.3257ZM10.3633 17.6361L13.8769 14.0985C14.0737 13.9017 14.3377 13.7913 14.6113 13.7913H36.8161C37.7377 13.7913 38.2033 14.9049 37.5505 15.5577L34.0417 19.0953C33.8449 19.2921 33.5809 19.4025 33.3073 19.4025H11.0977C10.1761 19.4025 9.71051 18.2889 10.3633 17.6361ZM37.5505 32.6265L34.0369 36.1641C33.8401 36.3609 33.5761 36.4713 33.3025 36.4713H11.0977C10.1761 36.4713 9.71051 35.3577 10.3633 34.7049L13.8769 31.1673C14.0737 30.9705 14.3377 30.8601 14.6113 30.8601H36.8161C37.7377 30.8601 38.2033 31.9737 37.5505 32.6265Z" fill="url(#paint0_linear_714_732)"/>
<defs>
<linearGradient id="paint0_linear_714_732" x1="11.6411" y1="37.4471" x2="36.2728" y2="12.8154" gradientUnits="userSpaceOnUse">
<stop stop-color="#CB4EE8"/>
<stop offset="1" stop-color="#10F4B1"/>
</linearGradient>
</defs>
</svg>
