<svg width="58" height="58" viewBox="0 0 58 58" fill="none" xmlns="http://www.w3.org/2000/svg">
<circle cx="29" cy="29" r="29" fill="#F5F2E9"/>
<path d="M30.3467 35.8529V45.2251C30.3467 45.7641 30.2441 46.2132 29.8847 46.6025C29.4998 46.9917 29.0634 47.0816 28.6015 46.9319C28.1395 46.7522 27.8315 46.3929 27.7032 45.824C27.6518 45.5545 27.6518 45.285 27.6518 45.0155V26.5106C27.6518 25.9417 27.6518 25.9417 27.1642 25.9417H24.9826C24.5206 25.9417 24.5206 25.9417 24.5206 26.5106V38.0986C24.5206 38.458 24.495 38.8173 24.341 39.1466C24.0843 39.6856 23.571 40.0449 23.0577 39.985C22.5187 39.9252 22.0311 39.476 21.9027 38.8472C21.8514 38.6077 21.8257 38.3681 21.8257 38.1585V24.6242C21.8257 23.4564 22.3647 22.8276 23.34 22.8276C27.1129 22.8276 30.8857 22.8576 34.6585 22.8276C35.5568 22.8276 36.1985 23.5463 36.1985 24.6242C36.1728 29.1756 36.1985 33.7269 36.1985 38.2483C36.1985 39.4461 35.3515 40.2545 34.4532 39.9252C33.8886 39.7156 33.5292 39.1167 33.5036 38.3082C33.4779 37.5297 33.5036 36.7512 33.5036 35.9427V26.5406C33.5036 25.9417 33.5036 25.9417 32.9903 25.9417H30.7317C30.4237 25.9417 30.3467 26.0615 30.3467 26.3909C30.3724 29.5349 30.3467 32.6789 30.3467 35.8529V35.8529Z" fill="#4F4A46"/>
<path d="M14.742 11H43.1794C45.1044 11 46.6443 12.4972 46.9523 14.7129C47.2089 16.5095 46.4133 18.396 44.976 19.2942C43.5388 20.1925 41.7678 19.8931 40.6385 18.6056C40.0739 17.9767 40.0226 17.0485 40.5359 16.3898C41.0235 15.761 41.8192 15.7011 42.4095 16.27C42.7688 16.6293 43.1538 16.779 43.6158 16.5694C44.0777 16.3598 44.3344 15.8508 44.3087 15.2519C44.2831 14.7129 43.9237 14.2339 43.4618 14.1141C43.3334 14.0841 43.2051 14.0841 43.0768 14.0841H14.9216C14.5367 14.0841 14.1773 14.2039 13.9207 14.5632C13.5614 15.0723 13.587 15.761 13.972 16.24C14.357 16.7191 14.973 16.779 15.435 16.3898C15.6403 16.2101 15.8456 16.0005 16.1023 15.9107C16.6926 15.731 17.3085 16.0304 17.6165 16.6293C17.9245 17.2282 17.8475 17.9468 17.4112 18.4858C16.1023 20.0728 13.7667 20.1925 12.3294 18.7253C10.7382 17.0785 10.5328 14.4734 11.9444 12.4972C12.6631 11.509 13.6127 11 14.742 11V11Z" fill="#4F4A46"/>
<path d="M29.0122 20.1022H21.0045C20.0293 20.1022 19.3876 19.0243 19.7213 17.9762C19.9266 17.3774 20.3886 17.0181 21.0045 17.0181H37.0199C37.9952 17.0181 38.6111 18.0661 38.3031 19.1141C38.0978 19.7429 37.6102 20.1322 36.9685 20.1322C34.325 20.1022 31.6558 20.1022 29.0122 20.1022V20.1022Z" fill="#4F4A46"/>
</svg>
