<svg width="109" height="30" viewBox="0 0 109 30" fill="none" xmlns="http://www.w3.org/2000/svg">
<g clip-path="url(#clip0_3329_24686)">
<path fill-rule="evenodd" clip-rule="evenodd" d="M28.831 15.0913C28.831 23.0527 22.3657 29.5068 14.3904 29.5068C6.82382 29.5068 0.616481 23.6974 0 16.303H19.0872V13.8795H0C0.616481 6.48511 6.82382 0.675781 14.3904 0.675781C22.3657 0.675781 28.831 7.12981 28.831 15.0913ZM82.3681 26.895C87.3719 26.895 90.6534 24.1983 90.6534 20.1368C90.6534 16.3677 88.1841 14.5806 84.4475 13.9633L81.1332 13.4109C78.599 12.9885 76.9092 11.8838 76.9092 9.44685C76.9092 6.97747 78.7939 5.09293 82.3681 5.09293C85.8446 5.09293 87.6318 6.84749 87.8267 9.34938H90.3285C90.1336 6.0352 87.5993 3.07841 82.4006 3.07841C77.2666 3.07841 74.4399 5.97019 74.4399 9.54435C74.4399 13.3459 77.0067 15.1005 80.5159 15.6853L83.8627 16.2052C86.6568 16.6926 88.2166 17.8298 88.2166 20.2342C88.2166 23.0611 85.9096 24.8806 82.4006 24.8806C78.7614 24.8806 76.4868 23.126 76.2919 20.1368H73.8226C74.0175 24.0358 77.0067 26.895 82.3681 26.895ZM45.4797 26.4402H36.3822V3.5658H45.1548C49.0214 3.5658 51.7184 5.84023 51.7184 9.47936C51.7184 12.1112 50.2236 13.8658 47.8193 14.4506V14.5481C50.6784 15.1005 52.4332 17.05 52.4332 20.1043C52.4332 24.0358 49.5413 26.4402 45.4797 26.4402ZM44.8299 13.6059C47.5919 13.6059 49.2814 12.1112 49.2814 9.77178V9.44685C49.2814 7.10744 47.5919 5.64529 44.8299 5.64529H38.8189V13.6059H44.8299ZM45.1223 24.3607C48.1442 24.3607 49.9962 22.7036 49.9962 20.1693V19.8443C49.9962 17.2125 48.1117 15.6204 45.0898 15.6204H38.8189V24.3607H45.1223ZM72.1119 26.4402H69.5126L67.563 20.2342H58.4651L56.5157 26.4402H54.0462L61.552 3.5658H64.5089L72.1119 26.4402ZM63.144 6.06769H62.9491L59.1149 18.1872H66.9456L63.144 6.06769ZM94.3136 26.4402V3.5658H109V5.67778H96.7506V13.5409H108.025V15.6204H96.7506V24.3282H109V26.4402H94.3136Z" fill="#0052FF"/>
</g>
<defs>
<clipPath id="clip0_3329_24686">
<rect width="109" height="29.0841" fill="white" transform="translate(0 0.675781)"/>
</clipPath>
</defs>
</svg>
