<svg width="336" height="33" viewBox="0 0 336 33" fill="none" xmlns="http://www.w3.org/2000/svg">
<rect y="0.675781" width="32" height="32" rx="16" fill="#2F2B32"/>
<path fill-rule="evenodd" clip-rule="evenodd" d="M11.8586 14.9737L16.0018 10.8305L20.1486 14.9773L22.5592 12.5666L16.0018 6.00919L9.44793 12.5631L11.8586 14.9737ZM5.3335 16.6771L7.74352 14.2671L10.1536 16.6771L7.74352 19.0871L5.3335 16.6771ZM16.001 22.5252L11.8578 18.382L9.4436 20.7891L9.44715 20.7926L16.001 27.3465L22.5584 20.7891L20.1478 18.3784L16.001 22.5252ZM21.8475 16.6787L24.2575 14.2686L26.6675 16.6787L24.2575 19.0887L21.8475 16.6787ZM16.0005 14.2316L18.4467 16.6777L16.0005 19.1274L13.5543 16.6813V16.6742L13.9839 16.2446L14.1934 16.0387L16.0005 14.2316Z" fill="#F3BA2F"/>
<path d="M50.52 16.4958C51.0267 16.5758 51.4867 16.7824 51.9 17.1158C52.3267 17.4491 52.66 17.8624 52.9 18.3558C53.1533 18.8491 53.28 19.3758 53.28 19.9358C53.28 20.6424 53.1 21.2824 52.74 21.8558C52.38 22.4158 51.8533 22.8624 51.16 23.1958C50.48 23.5158 49.6733 23.6758 48.74 23.6758H43.54V9.73578H48.54C49.4867 9.73578 50.2933 9.89578 50.96 10.2158C51.6267 10.5224 52.1267 10.9424 52.46 11.4758C52.7933 12.0091 52.96 12.6091 52.96 13.2758C52.96 14.1024 52.7333 14.7891 52.28 15.3358C51.84 15.8691 51.2533 16.2558 50.52 16.4958ZM45.36 15.7558H48.42C49.2733 15.7558 49.9333 15.5558 50.4 15.1558C50.8667 14.7558 51.1 14.2024 51.1 13.4958C51.1 12.7891 50.8667 12.2358 50.4 11.8358C49.9333 11.4358 49.26 11.2358 48.38 11.2358H45.36V15.7558ZM48.58 22.1758C49.4867 22.1758 50.1933 21.9624 50.7 21.5358C51.2067 21.1091 51.46 20.5158 51.46 19.7558C51.46 18.9824 51.1933 18.3758 50.66 17.9358C50.1267 17.4824 49.4133 17.2558 48.52 17.2558H45.36V22.1758H48.58ZM56.7456 10.9358C56.399 10.9358 56.1056 10.8158 55.8656 10.5758C55.6256 10.3358 55.5056 10.0424 55.5056 9.69578C55.5056 9.34911 55.6256 9.05578 55.8656 8.81578C56.1056 8.57578 56.399 8.45578 56.7456 8.45578C57.079 8.45578 57.359 8.57578 57.5856 8.81578C57.8256 9.05578 57.9456 9.34911 57.9456 9.69578C57.9456 10.0424 57.8256 10.3358 57.5856 10.5758C57.359 10.8158 57.079 10.9358 56.7456 10.9358ZM57.6256 12.7158V23.6758H55.8056V12.7158H57.6256ZM66.0675 12.5158C67.4008 12.5158 68.4808 12.9224 69.3075 13.7358C70.1342 14.5358 70.5475 15.6958 70.5475 17.2158V23.6758H68.7475V17.4758C68.7475 16.3824 68.4742 15.5491 67.9275 14.9758C67.3808 14.3891 66.6342 14.0958 65.6875 14.0958C64.7275 14.0958 63.9608 14.3958 63.3875 14.9958C62.8275 15.5958 62.5475 16.4691 62.5475 17.6158V23.6758H60.7275V12.7158H62.5475V14.2758C62.9075 13.7158 63.3942 13.2824 64.0075 12.9758C64.6342 12.6691 65.3208 12.5158 66.0675 12.5158ZM72.8405 18.1558C72.8405 17.0358 73.0671 16.0558 73.5205 15.2158C73.9738 14.3624 74.5938 13.7024 75.3805 13.2358C76.1805 12.7691 77.0671 12.5358 78.0405 12.5358C79.0005 12.5358 79.8338 12.7424 80.5405 13.1558C81.2471 13.5691 81.7738 14.0891 82.1205 14.7158V12.7158H83.9605V23.6758H82.1205V21.6358C81.7605 22.2758 81.2205 22.8091 80.5005 23.2358C79.7938 23.6491 78.9671 23.8558 78.0205 23.8558C77.0471 23.8558 76.1671 23.6158 75.3805 23.1358C74.5938 22.6558 73.9738 21.9824 73.5205 21.1158C73.0671 20.2491 72.8405 19.2624 72.8405 18.1558ZM82.1205 18.1758C82.1205 17.3491 81.9538 16.6291 81.6205 16.0158C81.2871 15.4024 80.8338 14.9358 80.2605 14.6158C79.7005 14.2824 79.0805 14.1158 78.4005 14.1158C77.7205 14.1158 77.1005 14.2758 76.5405 14.5958C75.9805 14.9158 75.5338 15.3824 75.2005 15.9958C74.8671 16.6091 74.7005 17.3291 74.7005 18.1558C74.7005 18.9958 74.8671 19.7291 75.2005 20.3558C75.5338 20.9691 75.9805 21.4424 76.5405 21.7758C77.1005 22.0958 77.7205 22.2558 78.4005 22.2558C79.0805 22.2558 79.7005 22.0958 80.2605 21.7758C80.8338 21.4424 81.2871 20.9691 81.6205 20.3558C81.9538 19.7291 82.1205 19.0024 82.1205 18.1758ZM92.3761 12.5158C93.7094 12.5158 94.7894 12.9224 95.6161 13.7358C96.4428 14.5358 96.8561 15.6958 96.8561 17.2158V23.6758H95.0561V17.4758C95.0561 16.3824 94.7828 15.5491 94.2361 14.9758C93.6894 14.3891 92.9428 14.0958 91.9961 14.0958C91.0361 14.0958 90.2694 14.3958 89.6961 14.9958C89.1361 15.5958 88.8561 16.4691 88.8561 17.6158V23.6758H87.0361V12.7158H88.8561V14.2758C89.2161 13.7158 89.7028 13.2824 90.3161 12.9758C90.9428 12.6691 91.6294 12.5158 92.3761 12.5158ZM99.1491 18.1758C99.1491 17.0424 99.3757 16.0558 99.8291 15.2158C100.282 14.3624 100.909 13.7024 101.709 13.2358C102.522 12.7691 103.449 12.5358 104.489 12.5358C105.836 12.5358 106.942 12.8624 107.809 13.5158C108.689 14.1691 109.269 15.0758 109.549 16.2358H107.589C107.402 15.5691 107.036 15.0424 106.489 14.6558C105.956 14.2691 105.289 14.0758 104.489 14.0758C103.449 14.0758 102.609 14.4358 101.969 15.1558C101.329 15.8624 101.009 16.8691 101.009 18.1758C101.009 19.4958 101.329 20.5158 101.969 21.2358C102.609 21.9558 103.449 22.3158 104.489 22.3158C105.289 22.3158 105.956 22.1291 106.489 21.7558C107.022 21.3824 107.389 20.8491 107.589 20.1558H109.549C109.256 21.2758 108.669 22.1758 107.789 22.8558C106.909 23.5224 105.809 23.8558 104.489 23.8558C103.449 23.8558 102.522 23.6224 101.709 23.1558C100.909 22.6891 100.282 22.0291 99.8291 21.1758C99.3757 20.3224 99.1491 19.3224 99.1491 18.1758ZM121.978 17.7758C121.978 18.1224 121.958 18.4891 121.918 18.8758H113.158C113.224 19.9558 113.591 20.8024 114.258 21.4158C114.938 22.0158 115.758 22.3158 116.718 22.3158C117.504 22.3158 118.158 22.1358 118.678 21.7758C119.211 21.4024 119.584 20.9091 119.798 20.2958H121.758C121.464 21.3491 120.878 22.2091 119.998 22.8758C119.118 23.5291 118.024 23.8558 116.718 23.8558C115.678 23.8558 114.744 23.6224 113.918 23.1558C113.104 22.6891 112.464 22.0291 111.998 21.1758C111.531 20.3091 111.298 19.3091 111.298 18.1758C111.298 17.0424 111.524 16.0491 111.978 15.1958C112.431 14.3424 113.064 13.6891 113.878 13.2358C114.704 12.7691 115.651 12.5358 116.718 12.5358C117.758 12.5358 118.678 12.7624 119.478 13.2158C120.278 13.6691 120.891 14.2958 121.318 15.0958C121.758 15.8824 121.978 16.7758 121.978 17.7758ZM120.098 17.3958C120.098 16.7024 119.944 16.1091 119.638 15.6158C119.331 15.1091 118.911 14.7291 118.378 14.4758C117.858 14.2091 117.278 14.0758 116.638 14.0758C115.718 14.0758 114.931 14.3691 114.278 14.9558C113.638 15.5424 113.271 16.3558 113.178 17.3958H120.098ZM134.132 23.8158C133.212 23.8158 132.385 23.6558 131.652 23.3358C130.932 23.0024 130.365 22.5491 129.952 21.9758C129.539 21.3891 129.325 20.7158 129.312 19.9558H131.252C131.319 20.6091 131.585 21.1624 132.052 21.6158C132.532 22.0558 133.225 22.2758 134.132 22.2758C134.999 22.2758 135.679 22.0624 136.172 21.6358C136.679 21.1958 136.932 20.6358 136.932 19.9558C136.932 19.4224 136.785 18.9891 136.492 18.6558C136.199 18.3224 135.832 18.0691 135.392 17.8958C134.952 17.7224 134.359 17.5358 133.612 17.3358C132.692 17.0958 131.952 16.8558 131.392 16.6158C130.845 16.3758 130.372 16.0024 129.972 15.4958C129.585 14.9758 129.392 14.2824 129.392 13.4158C129.392 12.6558 129.585 11.9824 129.972 11.3958C130.359 10.8091 130.899 10.3558 131.592 10.0358C132.299 9.71578 133.105 9.55578 134.012 9.55578C135.319 9.55578 136.385 9.88245 137.212 10.5358C138.052 11.1891 138.525 12.0558 138.632 13.1358H136.632C136.565 12.6024 136.285 12.1358 135.792 11.7358C135.299 11.3224 134.645 11.1158 133.832 11.1158C133.072 11.1158 132.452 11.3158 131.972 11.7158C131.492 12.1024 131.252 12.6491 131.252 13.3558C131.252 13.8624 131.392 14.2758 131.672 14.5958C131.965 14.9158 132.319 15.1624 132.732 15.3358C133.159 15.4958 133.752 15.6824 134.512 15.8958C135.432 16.1491 136.172 16.4024 136.732 16.6558C137.292 16.8958 137.772 17.2758 138.172 17.7958C138.572 18.3024 138.772 18.9958 138.772 19.8758C138.772 20.5558 138.592 21.1958 138.232 21.7958C137.872 22.3958 137.339 22.8824 136.632 23.2558C135.925 23.6291 135.092 23.8158 134.132 23.8158ZM154.63 12.5158C155.483 12.5158 156.243 12.6958 156.91 13.0558C157.577 13.4024 158.103 13.9291 158.49 14.6358C158.877 15.3424 159.07 16.2024 159.07 17.2158V23.6758H157.27V17.4758C157.27 16.3824 156.997 15.5491 156.45 14.9758C155.917 14.3891 155.19 14.0958 154.27 14.0958C153.323 14.0958 152.57 14.4024 152.01 15.0158C151.45 15.6158 151.17 16.4891 151.17 17.6358V23.6758H149.37V17.4758C149.37 16.3824 149.097 15.5491 148.55 14.9758C148.017 14.3891 147.29 14.0958 146.37 14.0958C145.423 14.0958 144.67 14.4024 144.11 15.0158C143.55 15.6158 143.27 16.4891 143.27 17.6358V23.6758H141.45V12.7158H143.27V14.2958C143.63 13.7224 144.11 13.2824 144.71 12.9758C145.323 12.6691 145.997 12.5158 146.73 12.5158C147.65 12.5158 148.463 12.7224 149.17 13.1358C149.877 13.5491 150.403 14.1558 150.75 14.9558C151.057 14.1824 151.563 13.5824 152.27 13.1558C152.977 12.7291 153.763 12.5158 154.63 12.5158ZM161.376 18.1558C161.376 17.0358 161.602 16.0558 162.056 15.2158C162.509 14.3624 163.129 13.7024 163.916 13.2358C164.716 12.7691 165.602 12.5358 166.576 12.5358C167.536 12.5358 168.369 12.7424 169.076 13.1558C169.782 13.5691 170.309 14.0891 170.656 14.7158V12.7158H172.496V23.6758H170.656V21.6358C170.296 22.2758 169.756 22.8091 169.036 23.2358C168.329 23.6491 167.502 23.8558 166.556 23.8558C165.582 23.8558 164.702 23.6158 163.916 23.1358C163.129 22.6558 162.509 21.9824 162.056 21.1158C161.602 20.2491 161.376 19.2624 161.376 18.1558ZM170.656 18.1758C170.656 17.3491 170.489 16.6291 170.156 16.0158C169.822 15.4024 169.369 14.9358 168.796 14.6158C168.236 14.2824 167.616 14.1158 166.936 14.1158C166.256 14.1158 165.636 14.2758 165.076 14.5958C164.516 14.9158 164.069 15.3824 163.736 15.9958C163.402 16.6091 163.236 17.3291 163.236 18.1558C163.236 18.9958 163.402 19.7291 163.736 20.3558C164.069 20.9691 164.516 21.4424 165.076 21.7758C165.636 22.0958 166.256 22.2558 166.936 22.2558C167.616 22.2558 168.236 22.0958 168.796 21.7758C169.369 21.4424 169.822 20.9691 170.156 20.3558C170.489 19.7291 170.656 19.0024 170.656 18.1758ZM177.391 14.4958C177.711 13.8691 178.165 13.3824 178.751 13.0358C179.351 12.6891 180.078 12.5158 180.931 12.5158V14.3958H180.451C178.411 14.3958 177.391 15.5024 177.391 17.7158V23.6758H175.571V12.7158H177.391V14.4958ZM185.252 14.2158V20.6758C185.252 21.2091 185.366 21.5891 185.592 21.8158C185.819 22.0291 186.212 22.1358 186.772 22.1358H188.112V23.6758H186.472C185.459 23.6758 184.699 23.4424 184.192 22.9758C183.686 22.5091 183.432 21.7424 183.432 20.6758V14.2158H182.012V12.7158H183.432V9.95578H185.252V12.7158H188.112V14.2158H185.252ZM194.969 16.6958C194.969 15.3358 195.276 14.1158 195.889 13.0358C196.503 11.9424 197.336 11.0891 198.389 10.4758C199.456 9.86245 200.636 9.55578 201.929 9.55578C203.449 9.55578 204.776 9.92245 205.909 10.6558C207.043 11.3891 207.869 12.4291 208.389 13.7758H206.209C205.823 12.9358 205.263 12.2891 204.529 11.8358C203.809 11.3824 202.943 11.1558 201.929 11.1558C200.956 11.1558 200.083 11.3824 199.309 11.8358C198.536 12.2891 197.929 12.9358 197.489 13.7758C197.049 14.6024 196.829 15.5758 196.829 16.6958C196.829 17.8024 197.049 18.7758 197.489 19.6158C197.929 20.4424 198.536 21.0824 199.309 21.5358C200.083 21.9891 200.956 22.2158 201.929 22.2158C202.943 22.2158 203.809 21.9958 204.529 21.5558C205.263 21.1024 205.823 20.4558 206.209 19.6158H208.389C207.869 20.9491 207.043 21.9824 205.909 22.7158C204.776 23.4358 203.449 23.7958 201.929 23.7958C200.636 23.7958 199.456 23.4958 198.389 22.8958C197.336 22.2824 196.503 21.4358 195.889 20.3558C195.276 19.2758 194.969 18.0558 194.969 16.6958ZM216.539 12.5158C217.365 12.5158 218.112 12.6958 218.779 13.0558C219.445 13.4024 219.965 13.9291 220.339 14.6358C220.725 15.3424 220.919 16.2024 220.919 17.2158V23.6758H219.119V17.4758C219.119 16.3824 218.845 15.5491 218.299 14.9758C217.752 14.3891 217.005 14.0958 216.059 14.0958C215.099 14.0958 214.332 14.3958 213.759 14.9958C213.199 15.5958 212.919 16.4691 212.919 17.6158V23.6758H211.099V8.87578H212.919V14.2758C213.279 13.7158 213.772 13.2824 214.399 12.9758C215.039 12.6691 215.752 12.5158 216.539 12.5158ZM223.212 18.1558C223.212 17.0358 223.438 16.0558 223.892 15.2158C224.345 14.3624 224.965 13.7024 225.752 13.2358C226.552 12.7691 227.438 12.5358 228.412 12.5358C229.372 12.5358 230.205 12.7424 230.912 13.1558C231.618 13.5691 232.145 14.0891 232.492 14.7158V12.7158H234.332V23.6758H232.492V21.6358C232.132 22.2758 231.592 22.8091 230.872 23.2358C230.165 23.6491 229.338 23.8558 228.392 23.8558C227.418 23.8558 226.538 23.6158 225.752 23.1358C224.965 22.6558 224.345 21.9824 223.892 21.1158C223.438 20.2491 223.212 19.2624 223.212 18.1558ZM232.492 18.1758C232.492 17.3491 232.325 16.6291 231.992 16.0158C231.658 15.4024 231.205 14.9358 230.632 14.6158C230.072 14.2824 229.452 14.1158 228.772 14.1158C228.092 14.1158 227.472 14.2758 226.912 14.5958C226.352 14.9158 225.905 15.3824 225.572 15.9958C225.238 16.6091 225.072 17.3291 225.072 18.1558C225.072 18.9958 225.238 19.7291 225.572 20.3558C225.905 20.9691 226.352 21.4424 226.912 21.7758C227.472 22.0958 228.092 22.2558 228.772 22.2558C229.452 22.2558 230.072 22.0958 230.632 21.7758C231.205 21.4424 231.658 20.9691 231.992 20.3558C232.325 19.7291 232.492 19.0024 232.492 18.1758ZM238.347 10.9358C238.001 10.9358 237.707 10.8158 237.467 10.5758C237.227 10.3358 237.107 10.0424 237.107 9.69578C237.107 9.34911 237.227 9.05578 237.467 8.81578C237.707 8.57578 238.001 8.45578 238.347 8.45578C238.681 8.45578 238.961 8.57578 239.187 8.81578C239.427 9.05578 239.547 9.34911 239.547 9.69578C239.547 10.0424 239.427 10.3358 239.187 10.5758C238.961 10.8158 238.681 10.9358 238.347 10.9358ZM239.227 12.7158V23.6758H237.407V12.7158H239.227ZM247.669 12.5158C249.002 12.5158 250.082 12.9224 250.909 13.7358C251.736 14.5358 252.149 15.6958 252.149 17.2158V23.6758H250.349V17.4758C250.349 16.3824 250.076 15.5491 249.529 14.9758C248.982 14.3891 248.236 14.0958 247.289 14.0958C246.329 14.0958 245.562 14.3958 244.989 14.9958C244.429 15.5958 244.149 16.4691 244.149 17.6158V23.6758H242.329V12.7158H244.149V14.2758C244.509 13.7158 244.996 13.2824 245.609 12.9758C246.236 12.6691 246.922 12.5158 247.669 12.5158Z" fill="#D5D5D5"/>
</svg>
