<svg width="138" height="36" viewBox="0 0 138 36" fill="none" xmlns="http://www.w3.org/2000/svg">
<g clip-path="url(#clip0_3328_28704)">
<path d="M10.6056 0.76532L0 18.3731L10.6056 13.5559V0.76532Z" fill="#8891B1"/>
<path d="M10.6056 13.5557L0 18.3729L10.6056 24.6468V13.5557Z" fill="#63688E"/>
<path d="M21.2238 18.3731L10.6055 0.76532V13.5559L21.2238 18.3731Z" fill="#63688E"/>
<path d="M10.6055 24.6468L21.2238 18.3729L10.6055 13.5557V24.6468Z" fill="#464A75"/>
<path d="M0 20.3919L10.6056 35.3419V26.653L0 20.3919Z" fill="#8891B1"/>
<path d="M10.6055 26.653V35.3419L21.2238 20.3919L10.6055 26.653Z" fill="#63688E"/>
<path d="M38.9594 20.7497C38.9594 20.9925 38.7422 21.2097 38.4994 21.2097H30.015C30.2322 23.2286 31.8039 25.1964 34.0272 25.1964C35.5477 25.1964 36.6722 24.6086 37.5283 23.3819C37.6177 23.2542 37.7455 23.1647 37.8989 23.1647C38.1416 23.1647 38.3205 23.3436 38.3205 23.5864C38.3205 23.6758 38.295 23.7397 38.2566 23.8036C37.4005 25.2986 35.7011 26.0269 34.0272 26.0269C31.165 26.0269 29.1333 23.4714 29.1333 20.7369C29.1333 18.0025 31.165 15.4597 34.0272 15.4597C36.8894 15.4597 38.9594 18.0153 38.9594 20.7497ZM38.0394 20.3408C37.8605 18.1814 36.2505 16.3286 34.0272 16.3286C31.8039 16.3286 30.2194 18.1814 30.015 20.3408H38.0394Z" fill="#8891B1"/>
<path d="M49.271 15.6002C49.5138 15.6002 49.6927 15.8174 49.6927 16.0347C49.6927 16.2774 49.5138 16.4691 49.271 16.4691H46.9966V25.4391C46.9966 25.6563 46.8049 25.8608 46.5621 25.8608C46.3193 25.8608 46.1277 25.6435 46.1277 25.4391V16.4691H43.9427C43.6999 16.4691 43.521 16.2774 43.521 16.0347C43.521 15.8174 43.6999 15.6002 43.9427 15.6002H46.1277V12.3546C46.1277 12.1119 46.3193 11.933 46.5621 11.933C46.8049 11.933 46.9966 12.1119 46.9966 12.3546V15.6002H49.271Z" fill="#8891B1"/>
<path d="M63.0963 19.9574V25.3752C63.0963 25.618 62.9558 25.7969 62.7385 25.7969C62.4958 25.7969 62.3808 25.618 62.3808 25.3752V19.9574C62.3808 18.1302 61.3202 16.303 59.2758 16.303C56.6563 16.303 55.4935 18.5902 55.6341 20.9286C55.6341 20.9924 55.6213 21.2608 55.6213 21.2991V25.3752C55.6213 25.618 55.5063 25.7969 55.2635 25.7969C55.0208 25.7969 54.9058 25.618 54.9058 25.3752V7.57578C54.9058 7.35856 55.0208 7.15411 55.2635 7.15411C55.5063 7.15411 55.6213 7.37133 55.6213 7.57578V17.6447C56.4902 16.3413 57.653 15.4597 59.1735 15.4597C61.6652 15.4597 63.0963 17.6447 63.0963 19.9574Z" fill="#8891B1"/>
<path d="M78.4042 20.7497C78.4042 20.9925 78.187 21.2097 77.9442 21.2097H69.4598C69.677 23.2286 71.2487 25.1964 73.472 25.1964C74.9926 25.1964 76.117 24.6086 76.9731 23.3819C77.0626 23.2542 77.1904 23.1647 77.3437 23.1647C77.5865 23.1647 77.7653 23.3436 77.7653 23.5864C77.7653 23.6758 77.7398 23.7397 77.7015 23.8036C76.8453 25.2986 75.1459 26.0269 73.472 26.0269C70.6098 26.0269 68.5781 23.4714 68.5781 20.7369C68.5781 18.0025 70.6098 15.4597 73.472 15.4597C76.3342 15.4597 78.4042 18.0153 78.4042 20.7497ZM77.497 20.3408C77.3181 18.1814 75.7081 16.3286 73.4848 16.3286C71.2615 16.3286 69.677 18.1814 69.4726 20.3408H77.497Z" fill="#8891B1"/>
<path d="M88.8437 16.0346C88.8437 16.303 88.6903 16.4563 88.4348 16.4946C85.9431 16.8652 84.8059 18.8969 84.8059 21.2735V25.3369C84.8059 25.5796 84.6142 25.7585 84.3715 25.7585C84.1287 25.7585 83.937 25.5796 83.937 25.3369V16.0602C83.937 15.8174 84.1287 15.6385 84.3715 15.6385C84.6142 15.6385 84.8059 15.8174 84.8059 16.0602V17.9513C85.5214 16.763 86.9142 15.6385 88.3709 15.6385C88.5881 15.6385 88.8437 15.7919 88.8437 16.0346Z" fill="#8891B1"/>
<path d="M102.797 20.7496C102.797 20.9924 102.58 21.2096 102.337 21.2096H93.8524C94.0696 23.2285 95.6413 25.1963 97.8646 25.1963C99.3852 25.1963 100.51 24.6085 101.366 23.3818C101.455 23.2541 101.583 23.1646 101.736 23.1646C101.979 23.1646 102.158 23.3435 102.158 23.5863C102.158 23.6757 102.132 23.7396 102.094 23.8035C101.238 25.2985 99.5385 26.0268 97.8646 26.0268C95.0024 26.0268 92.9707 23.4713 92.9707 20.7368C92.9707 18.0024 95.0024 15.4596 97.8646 15.4596C100.727 15.4468 102.797 18.0152 102.797 20.7496ZM101.89 20.3407C101.711 18.1813 100.101 16.3285 97.8774 16.3285C95.654 16.3285 94.0696 18.1813 93.8651 20.3407H101.89Z" fill="#8891B1"/>
<path d="M116.585 16.1241V19.0757V25.4263C116.585 25.6691 116.367 25.848 116.15 25.848C115.907 25.848 115.716 25.6691 115.716 25.4263V23.6757C115 25.0685 113.761 26.078 112.176 26.078C109.646 26.078 108.241 23.893 108.241 21.5802V16.1368C108.241 15.9196 108.432 15.7152 108.675 15.7152C108.918 15.7152 109.11 15.9324 109.11 16.1368V21.5802C109.11 23.4074 110.145 25.2346 112.189 25.2346C115.051 25.2346 115.728 22.5641 115.728 19.6124V16.1496C115.728 15.9324 115.92 15.728 116.163 15.728C116.367 15.7024 116.585 15.9196 116.585 16.1241Z" fill="#8891B1"/>
<path d="M138 19.9319V25.3753C138 25.618 137.783 25.7969 137.566 25.7969C137.323 25.7969 137.131 25.618 137.131 25.3753V19.9319C137.131 18.1047 136.096 16.3158 134.052 16.3158C131.496 16.3158 130.512 19.0503 130.512 21.1842V25.3753C130.512 25.618 130.295 25.7969 130.078 25.7969C129.835 25.7969 129.643 25.618 129.643 25.3753V19.9319C129.643 18.1047 128.634 16.3158 126.602 16.3158C124.021 16.3158 122.948 18.3475 123.037 21.0564V21.2736V25.3753C123.037 25.618 122.846 25.7969 122.603 25.7969C122.36 25.7969 122.168 25.618 122.168 25.3753V16.073C122.168 15.8303 122.36 15.6514 122.603 15.6514C122.846 15.6514 123.037 15.8303 123.037 16.073V17.6192C123.753 16.3158 125.095 15.4597 126.615 15.4597C128.353 15.4597 129.695 16.5586 130.244 18.1686C130.947 16.5842 132.314 15.4597 134.077 15.4597C136.582 15.4597 138 17.6192 138 19.9319Z" fill="#8891B1"/>
</g>
<defs>
<clipPath id="clip0_3328_28704">
<rect width="138" height="34.7556" fill="white" transform="translate(0 0.675781)"/>
</clipPath>
</defs>
</svg>
