<svg width="141" height="49" viewBox="0 0 141 49" fill="none" xmlns="http://www.w3.org/2000/svg">
<g clip-path="url(#clip0_3312_24821)">
<path d="M36.2305 7.97269L36.2291 0.675735L31.3246 6.06496C31.2666 6.12864 28.9498 8.67323 26.001 11.9155C25.8147 11.0862 25.5466 10.2682 25.1967 9.47284C23.7786 6.2461 21.1923 3.7666 17.9146 2.49148C14.637 1.21636 11.0601 1.29702 7.8431 2.72075C4.62607 4.14307 2.15405 6.73719 0.882763 10.0248C0.126481 11.9792 0.0178364 13.8799 0.0121925 15.4819C-0.00473916 19.7658 -0.000506237 41.2958 -0.000506237 41.5124L0.000904735 48.8093L4.90544 43.4201C4.9633 43.3564 7.28012 40.8118 10.2291 37.5695C10.4153 38.3989 10.6834 39.2169 11.0333 40.0123C12.4513 43.2389 15.0391 45.7184 18.3167 46.9936C19.8618 47.595 21.4717 47.895 23.0815 47.8936C24.8863 47.8936 26.688 47.5157 28.3883 46.7643C31.6052 45.342 34.0773 42.7479 35.3487 39.4603C36.1049 37.5058 36.2121 35.6037 36.2191 34.0017C36.2347 29.7192 36.2305 8.18922 36.2305 7.97269ZM5.65609 15.5031C5.66032 14.3653 5.72241 13.1624 6.14428 12.0712C6.87093 10.1932 8.28191 8.71144 10.119 7.89909C11.0912 7.46886 12.1198 7.25375 13.1498 7.25375C14.0683 7.25375 14.9883 7.42499 15.8716 7.7689C17.7439 8.49774 19.2212 9.91298 20.0311 11.757C20.841 13.5997 20.8875 15.6489 20.1608 17.5269C19.7348 18.628 18.9391 19.5917 18.2165 20.3885C16.4965 22.2864 10.1867 29.2196 5.64198 34.2154C5.64339 27.4888 5.6462 18.1609 5.65609 15.5031ZM30.5739 33.9819C30.5696 35.1198 30.5076 36.3227 30.0856 37.4138C29.3591 39.2918 27.948 40.7736 26.111 41.586C24.2739 42.3983 22.2308 42.445 20.3585 41.7162C18.4861 40.9873 17.0087 39.5721 16.1988 37.728C15.3889 35.8853 15.3424 33.8361 16.0691 31.9581C16.4952 30.8571 17.291 29.8933 18.0134 29.0965C19.7334 27.1986 26.0432 20.2654 30.588 15.2696C30.5866 21.9963 30.5852 31.3241 30.5739 33.9819Z" fill="#4C67EF"/>
<path d="M78.8387 18.9398C78.8387 23.8893 74.8108 27.916 69.8612 27.916H61.6458C60.2021 27.916 59.0281 29.0913 59.0281 30.5337V39.4728H54.2803V30.5337C54.2803 26.4723 57.5845 23.1681 61.6458 23.1681H69.8612C72.1932 23.1681 74.0908 21.2716 74.0908 18.9398C74.0908 16.6066 72.1932 14.7102 69.8612 14.7102H54.2803V9.96234H69.8612C74.8108 9.96234 78.8387 13.9891 78.8387 18.9398Z" fill="white"/>
<path d="M86.9724 17.3613V22.6993H101.83V26.8052H86.9724V32.0725C86.9724 33.5348 88.1613 34.7248 89.6236 34.7248H102.655V39.4728H89.6236C85.5436 39.4728 82.2246 36.1525 82.2246 32.0725V17.3613C82.2246 13.2814 85.5436 9.96234 89.6236 9.96234H102.655V14.7102H89.6236C88.1613 14.7102 86.9724 15.8991 86.9724 17.3613Z" fill="white"/>
<path d="M122.344 34.7248V39.4728H114.103C110.112 39.4728 106.866 36.2255 106.866 32.2359V9.96234H111.614V32.2359C111.614 33.6078 112.731 34.7248 114.103 34.7248H122.344Z" fill="white"/>
<path d="M141 34.7248V39.4728H132.758C128.768 39.4728 125.521 36.2255 125.521 32.2359V9.96234H130.269V32.2359C130.269 33.6078 131.386 34.7248 132.758 34.7248H141Z" fill="white"/>
</g>
<defs>
<clipPath id="clip0_3312_24821">
<rect width="141" height="48.1336" fill="white" transform="translate(0 0.675781)"/>
</clipPath>
</defs>
</svg>
