<svg width="257" height="49" viewBox="0 0 257 49" fill="none" xmlns="http://www.w3.org/2000/svg">
<g clip-path="url(#clip0_3312_24839)">
<path fill-rule="evenodd" clip-rule="evenodd" d="M1.24951 16.6709L36.67 0.675781L46.1068 4.93721L21.1479 16.2331L24.8647 17.9859L49.7022 6.56084L72.0907 16.6709L36.67 32.6661L27.1824 28.3815L52.8532 16.6706L49.5735 15.1369L23.6308 26.7778L1.24951 16.6709Z" fill="#FFCA02"/>
<path d="M35.4205 48.7597L0 32.3262L9.40172 27.9442L35.4205 39.9952L61.4394 27.9442L70.6224 32.5454L35.4205 48.7597Z" fill="#FFCA02"/>
<path d="M93.6764 34.5467V31.0059H102.841C104.309 31.0059 105.333 30.8373 105.916 30.5C106.52 30.143 106.821 29.538 106.821 28.685C106.821 27.0584 105.665 26.2451 103.354 26.2451H99.6455C97.3142 26.2451 95.5757 25.7591 94.43 24.7871C93.2843 23.7953 92.7114 22.3671 92.7114 20.5024C92.7114 19.2527 93.0331 18.132 93.6764 17.1402C94.3197 16.1483 95.0128 15.5235 95.7565 15.2656C96.5001 15.0078 97.1832 14.849 97.8067 14.7896C98.4301 14.73 99.3346 14.7003 100.52 14.7003H110.468V18.2411H101.485C100.56 18.2411 99.9671 18.251 99.706 18.2708C99.4647 18.2906 99.0228 18.3799 98.3795 18.5386C97.7561 18.6775 97.4452 19.3023 97.4452 20.4132C97.4452 21.2661 97.7063 21.8613 98.2286 22.1985C98.7717 22.5357 99.7358 22.7043 101.123 22.7043H104.349C105.857 22.7043 107.032 22.8233 107.876 23.0614C108.741 23.2994 109.575 23.835 110.378 24.6681C111.182 25.4814 111.584 26.8402 111.584 28.7446C111.584 29.7959 111.353 30.7778 110.891 31.6903C110.429 32.5829 109.876 33.2276 109.233 33.6243C108.61 34.0012 107.906 34.2492 107.122 34.3682C106.359 34.4872 105.243 34.5467 103.776 34.5467H93.6764Z" fill="#FFCA02"/>
<path d="M113.976 34.5467L122.297 14.7003H127.211L135.531 34.5467H130.527L128.597 29.9347H120.94L119.01 34.5467H113.976ZM124.769 19.4611L121.904 26.3939H127.633L124.769 19.4611Z" fill="#FFCA02"/>
<path d="M142.515 18.2411H136.094V14.7003H153.429V18.2411H146.797V34.5467H142.515V18.2411Z" fill="#FFCA02"/>
<path d="M157.83 14.7003H162.111V25.8285C162.111 26.7609 162.121 27.3559 162.141 27.6139C162.16 27.8519 162.231 28.3875 162.352 29.2206C162.492 30.0538 163.005 30.5496 163.889 30.7084C164.774 30.8671 165.397 30.9563 165.758 30.9762C166.141 30.996 166.723 31.0059 167.507 31.0059H171.607V34.5467H167.055L164.764 34.517C163.276 34.517 162.05 34.2591 161.085 33.7433C160.121 33.2078 159.407 32.5432 158.945 31.7497C158.483 30.9365 158.181 30.1034 158.04 29.2504C157.9 28.3776 157.83 27.237 157.83 25.8285V14.7003Z" fill="#FFCA02"/>
<path d="M175.502 34.5467L183.823 14.7003H188.737L197.058 34.5467H192.054L190.124 29.9347H182.467L180.537 34.5467H175.502ZM186.295 19.4611L183.431 26.3939H189.159L186.295 19.4611Z" fill="#FFCA02"/>
<path d="M205.006 25.8583L197.56 14.7003H202.595L207.208 22.4366L212.061 14.7003H217.126L209.288 26.0071V34.5467H205.006V25.8583Z" fill="#FFCA02"/>
<path d="M234.621 14.7003V18.2411H229.043C227.597 18.2411 226.531 18.3403 225.848 18.5386C225.185 18.737 224.652 19.0941 224.25 19.6098C223.868 20.1255 223.617 20.5719 223.496 20.9488C223.376 21.3256 223.315 21.9803 223.315 22.9126H234.621V26.4534H223.315C223.476 28.1594 223.979 29.3495 224.823 30.024C225.687 30.6786 227.155 31.0059 229.225 31.0059H234.621V34.5467H229.043C226.873 34.5467 225.205 34.388 224.039 34.0706C222.893 33.7533 221.677 32.93 220.391 31.601C219.105 30.272 218.461 27.9511 218.461 24.6384C218.461 20.9686 219.205 18.5188 220.692 17.2889C222.2 16.0392 223.345 15.2954 224.13 15.0573C224.934 14.8193 226.019 14.7003 227.385 14.7003H234.621Z" fill="#FFCA02"/>
<path d="M242.89 27.0188V34.5467H238.609V14.7003H248.438C249.965 14.7003 251.202 14.7896 252.146 14.968C253.091 15.1466 254.086 15.5929 255.131 16.307C256.176 17.0013 256.699 18.3105 256.699 20.2346C256.699 23.2299 255.422 25.1641 252.87 26.0369C254.176 26.4733 255.11 27.0981 255.673 27.9114C256.236 28.7049 256.517 29.9149 256.517 31.5415C256.517 32.3548 256.538 32.9003 256.578 33.178C256.638 33.4557 256.779 33.9119 257 34.5467H252.206C252.086 34.15 252.006 33.8624 251.965 33.6839C251.945 33.5053 251.855 32.6821 251.694 31.2142C251.553 29.7463 251.091 28.685 250.307 28.0304C249.543 27.3559 248.217 27.0188 246.328 27.0188H242.89ZM242.89 23.4779H248.89C249.975 23.4779 250.76 23.2696 251.241 22.8531C251.724 22.4366 251.965 21.7422 251.965 20.7703C251.965 19.8578 251.724 19.2131 251.241 18.8361C250.78 18.4395 249.995 18.2411 248.89 18.2411H242.89V23.4779Z" fill="#FFCA02"/>
</g>
<defs>
<clipPath id="clip0_3312_24839">
<rect width="257" height="48.0839" fill="white" transform="translate(0 0.675781)"/>
</clipPath>
</defs>
</svg>
