<svg width="286" height="52" viewBox="0 0 286 52" fill="none" xmlns="http://www.w3.org/2000/svg">
<g clip-path="url(#clip0_3357_47126)">
<path fill-rule="evenodd" clip-rule="evenodd" d="M1.35449 17.2978L39.7413 0L49.9684 4.60848L22.9193 16.8243L26.9474 18.7199L53.865 6.36435L78.1284 17.2978L39.7413 34.5956L29.4592 29.9622L57.2798 17.2975L53.7254 15.6388L25.6101 28.2278L1.35449 17.2978Z" fill="#FFCA02"/>
<path d="M38.3868 52.0001L0 34.2282L10.1891 29.4893L38.3868 42.5218L66.5847 29.4893L76.5368 34.4652L38.3868 52.0001Z" fill="#FFCA02"/>
<path d="M258.646 37.658V12.342H268.91C270.78 12.342 272.377 12.6727 273.698 13.3342C275.044 13.9956 276.071 14.9079 276.779 16.071C277.507 17.2342 277.873 18.5798 277.873 20.1079C277.873 21.7729 277.451 23.2326 276.608 24.4869C275.763 25.7184 274.565 26.6193 273.016 27.1896L278.523 37.658H272.673L267.645 27.908H263.916V37.658H258.646ZM268.841 16.8921H263.916V23.5975H268.841C270.004 23.5975 270.916 23.2781 271.577 22.6396C272.24 22.0008 272.569 21.2141 272.569 20.279C272.569 19.321 272.24 18.5228 271.577 17.8842C270.916 17.2228 270.004 16.8921 268.841 16.8921Z" fill="#FFCA02"/>
<path d="M236.695 37.658V12.342H254.143V16.9263H241.965V22.6053H252.57V27.0184H241.965V33.0738H254.315V37.658H236.695Z" fill="#FFCA02"/>
<path d="M219.461 37.658V29.0026L210.566 12.342H216.347L222.095 23.5975L227.841 12.342H233.624L224.728 29.0026V37.658H219.461Z" fill="#FFCA02"/>
<path d="M187.889 37.658L196.51 12.342H203.523L212.145 37.658H206.602L204.994 32.6975H195.073L193.431 37.658H187.889ZM196.544 28.1132H203.523L200.033 17.5421L196.544 28.1132Z" fill="#FFCA02"/>
<path d="M167.205 37.658V12.342H172.474V33.0738H184.858V37.658H167.205Z" fill="#FFCA02"/>
<path d="M151.31 37.658V16.9263H143.544V12.342H164.344V16.9263H156.578V37.658H151.31Z" fill="#FFCA02"/>
<path d="M120.415 37.658L129.036 12.342H136.049L144.67 37.658H139.128L137.52 32.6975H127.599L125.957 37.658H120.415ZM129.07 28.1132H136.049L132.56 17.5421L129.07 28.1132Z" fill="#FFCA02"/>
<path d="M109.275 38.0005C107.633 38.0005 106.23 37.8066 105.067 37.419C103.927 37.0084 102.969 36.4953 102.193 35.8794C101.441 35.2408 100.836 34.5794 100.38 33.8951C99.9241 33.1881 99.582 32.5269 99.3538 31.9109C99.1487 31.2724 99.0117 30.7593 98.9433 30.3715C98.8978 29.9609 98.875 29.7557 98.875 29.7557H104.212C104.212 29.7557 104.257 29.9496 104.349 30.3372C104.463 30.7251 104.691 31.1812 105.033 31.7057C105.375 32.2075 105.9 32.6521 106.607 33.0399C107.314 33.4048 108.272 33.5872 109.48 33.5872C110.963 33.5872 112.057 33.2794 112.765 32.6636C113.472 32.0251 113.825 31.2724 113.825 30.4057C113.825 29.6303 113.551 29.0145 113.004 28.5584C112.479 28.1021 111.658 27.76 110.541 27.5321L107.154 26.8821C105.786 26.6312 104.508 26.2321 103.322 25.6845C102.159 25.1372 101.213 24.3845 100.483 23.4267C99.7529 22.446 99.3881 21.1916 99.3881 19.6635C99.3881 18.1126 99.7759 16.767 100.551 15.6266C101.327 14.4634 102.41 13.574 103.801 12.9581C105.215 12.3195 106.869 12.0002 108.762 12.0002C110.541 12.0002 112.012 12.2625 113.175 12.7871C114.361 13.2889 115.296 13.9161 115.98 14.6687C116.687 15.3985 117.2 16.1398 117.52 16.8924C117.862 17.645 118.079 18.2722 118.17 18.774C118.284 19.2758 118.341 19.5266 118.341 19.5266H113.141C113.141 19.5266 113.095 19.367 113.004 19.0477C112.936 18.7284 112.753 18.3635 112.457 17.9529C112.16 17.5424 111.704 17.1775 111.088 16.8582C110.495 16.5389 109.674 16.3793 108.625 16.3793C107.188 16.3793 106.15 16.6986 105.512 17.3372C104.873 17.9529 104.554 18.6258 104.554 19.3556C104.554 20.1082 104.873 20.6898 105.512 21.1004C106.15 21.5109 106.983 21.8188 108.009 22.024L111.601 22.7424C112.97 22.9933 114.224 23.4152 115.365 24.0082C116.505 24.6012 117.406 25.3994 118.067 26.403C118.751 27.3836 119.093 28.6039 119.093 30.0636C119.093 31.5688 118.717 32.926 117.965 34.1348C117.212 35.3206 116.106 36.2672 114.646 36.9742C113.186 37.6584 111.396 38.0005 109.275 38.0005Z" fill="#FFCA02"/>
</g>
<defs>
<clipPath id="clip0_3357_47126">
<rect width="286" height="52" fill="white"/>
</clipPath>
</defs>
</svg>
