<svg width="160" height="136" viewBox="0 0 160 136" fill="none" xmlns="http://www.w3.org/2000/svg">
<g filter="url(#filter0_d_1_18)">
<path d="M20.91 21.4487C20.91 21.4487 8.15999 40.2647 11.06 52.2137C11.06 52.2137 24.52 96.8047 88.39 120.236C88.39 120.236 109.43 129.229 127.82 124.146C133.77 122.497 138.77 118.317 141.67 112.685L148.36 99.7187L20.91 21.4597V21.4487Z" fill="url(#paint0_linear_1_18)"/>
<path d="M147.559 100.235C157.291 83.5988 136.926 52.3278 102.072 30.3898C67.217 8.45285 31.072 4.15482 21.34 20.7908C11.607 37.4278 31.972 68.6978 66.826 90.6358C101.681 112.574 137.826 116.871 147.559 100.235Z" fill="#2E3148"/>
<path d="M146.918 100.549C156.427 84.2947 135.957 53.3817 101.197 31.5037C66.4371 9.62573 30.55 5.06675 21.04 21.3207C11.531 37.5747 32.001 68.4877 66.761 90.3657C101.521 112.245 137.408 116.804 146.918 100.549Z" fill="#1B1E36" stroke="#0D0F1E" stroke-width="0.93" stroke-miterlimit="10"/>
<path d="M120.5 83.9228C126.018 74.4908 114.14 56.5528 93.97 43.8568C73.799 31.1618 52.975 28.5158 47.456 37.9488C41.938 47.3808 53.816 65.3188 73.987 78.0148C94.157 90.7098 114.982 93.3548 120.5 83.9228Z" fill="#1B1E36"/>
<path d="M99.171 35.4017C92.381 31.1277 80.131 39.1767 71.811 53.3977C63.491 67.6077 62.261 82.6057 69.051 86.8797C75.841 91.1527 88.091 83.1037 96.411 68.8837C104.731 54.6737 105.961 39.6747 99.171 35.4017ZM70.751 85.9567C69.691 85.9567 69.131 85.0957 69.131 85.0957C66.991 81.4337 67.271 77.2957 67.271 77.2957C66.621 65.6157 78.271 48.7507 78.271 48.7507C89.061 36.3347 95.681 35.9617 97.701 36.2317C98.131 36.2827 98.661 36.5947 98.971 36.9677C100.831 39.1877 100.901 43.6057 100.901 43.6057C100.811 57.1417 94.841 66.1347 94.841 66.1347C90.611 74.5777 81.911 81.5278 81.911 81.5278C75.261 86.7858 70.761 85.9458 70.761 85.9458L70.751 85.9567Z" fill="#6F7390"/>
<path d="M139.35 78.3858C137.58 73.4998 111.42 61.8208 80.9 52.2888C50.38 42.7568 27.11 39.0119 28.88 43.8979C30.65 48.7829 56.81 60.4618 87.33 69.9938C117.85 79.5268 141.12 83.2708 139.35 78.3858ZM32.2199 45.4848C30.9699 44.5928 31.55 44.2809 31.55 44.2809C34.37 43.1719 40.7199 44.1468 40.7199 44.1468C56.9799 45.7338 95.27 58.5229 95.27 58.5229C126.06 69.7769 134.4 75.3668 136.39 76.9958C136.81 77.3378 136.99 77.7318 136.81 77.9188C135.78 79.0698 129.4 78.3128 129.4 78.3128C109.58 75.7818 89.43 69.1538 89.43 69.1538C72.15 64.0928 51.77 55.5668 51.77 55.5668C36.28 49.0628 32.21 45.4638 32.21 45.4638L32.2199 45.4848Z" fill="#6F7390"/>
<path d="M124.19 104.015C129.21 103.413 115.33 83.7268 93.21 60.0468C71.09 36.3768 49.06 17.6548 44.04 18.2558C39.02 18.8678 52.9 38.5447 75.03 62.2347C97.16 85.9147 119.17 104.617 124.19 104.015ZM45.68 20.7458C45.5 19.8738 46.64 20.4028 46.64 20.4028C51.59 22.9548 57.64 28.0578 57.64 28.0578C74.5 41.2928 101.07 70.8748 101.07 70.8748C121.03 94.4928 122.74 100.437 122.71 101.806C122.71 102.096 122.35 102.179 121.86 101.992C118.96 100.924 112.55 95.7588 112.55 95.7588C92.86 79.7128 78.72 64.1328 78.72 64.1328C65.7 50.6698 54.07 35.2358 54.07 35.2358C45.24 23.4938 45.67 20.7458 45.67 20.7458H45.68Z" fill="#6F7390"/>
<path d="M90.451 65.0078C91.428 63.3378 89.322 60.1598 85.748 57.9108C82.174 55.6608 78.484 55.1908 77.507 56.8608C76.53 58.5308 78.636 61.7078 82.21 63.9578C85.784 66.2078 89.474 66.6778 90.451 65.0078Z" fill="#B7B9C8"/>
<path d="M121.081 68.3849C121.669 67.3809 120.465 65.5098 118.392 64.2048C116.319 62.9008 114.163 62.6569 113.575 63.6609C112.988 64.6649 114.192 66.5358 116.265 67.8408C118.338 69.1448 120.494 69.3889 121.081 68.3849Z" fill="#B7B9C8"/>
<path d="M70.245 75.3208C70.833 74.3168 69.629 72.4448 67.556 71.1408C65.483 69.8358 63.327 69.5918 62.739 70.5958C62.152 71.5998 63.356 73.4718 65.429 74.7758C67.502 76.0808 69.658 76.3248 70.245 75.3208Z" fill="#B7B9C8"/>
</g>
<defs>
<filter id="filter0_d_1_18" x="0.63092" y="0.658447" width="159.359" height="135.044" filterUnits="userSpaceOnUse" color-interpolation-filters="sRGB">
<feFlood flood-opacity="0" result="BackgroundImageFix"/>
<feColorMatrix in="SourceAlpha" type="matrix" values="0 0 0 0 0 0 0 0 0 0 0 0 0 0 0 0 0 0 127 0" result="hardAlpha"/>
<feOffset/>
<feGaussianBlur stdDeviation="5"/>
<feColorMatrix type="matrix" values="0 0 0 0 0.976471 0 0 0 0 0.188235 0 0 0 0 0.243137 0 0 0 0.75 0"/>
<feBlend mode="normal" in2="BackgroundImageFix" result="effect1_dropShadow_1_18"/>
<feBlend mode="normal" in="SourceGraphic" in2="effect1_dropShadow_1_18" result="shape"/>
</filter>
<linearGradient id="paint0_linear_1_18" x1="35.027" y1="11.2057" x2="120.931" y2="130.635" gradientUnits="userSpaceOnUse">
<stop stop-opacity="0"/>
<stop offset="0.17" stop-color="#252525" stop-opacity="0.15"/>
<stop offset="0.55" stop-color="#858585" stop-opacity="0.52"/>
<stop offset="1" stop-color="white"/>
</linearGradient>
</defs>
</svg>
