<svg width="39" height="39" viewBox="0 0 39 39" fill="none" xmlns="http://www.w3.org/2000/svg">
<path d="M19.5 38.6831C30.1315 38.6831 38.75 30.0646 38.75 19.4331C38.75 8.80163 30.1315 0.183105 19.5 0.183105C8.86851 0.183105 0.25 8.80163 0.25 19.4331C0.25 30.0646 8.86851 38.6831 19.5 38.6831Z" fill="#2E3148"/>
<path d="M19.4999 30.6027C25.6687 30.6027 30.6696 25.6018 30.6696 19.4329C30.6696 13.264 25.6687 8.26318 19.4999 8.26318C13.3309 8.26318 8.33008 13.264 8.33008 19.4329C8.33008 25.6018 13.3309 30.6027 19.4999 30.6027Z" fill="#2E3148"/>
<path d="M19.5377 2.63782C17.4598 2.63782 15.7749 10.1746 15.7749 19.4717C15.7749 28.7689 17.4598 36.3056 19.5377 36.3056C21.6157 36.3056 23.3006 28.7689 23.3006 19.4717C23.3006 10.1746 21.6157 2.63782 19.5377 2.63782ZM19.7976 35.3556C19.5599 35.6725 19.3223 35.4347 19.3223 35.4347C18.3653 34.3259 17.8869 32.266 17.8869 32.266C16.213 26.8792 16.6114 15.3134 16.6114 15.3134C17.3981 6.13131 18.829 3.96222 19.316 3.48066C19.3657 3.43151 19.4312 3.40148 19.5009 3.39584C19.5706 3.39021 19.64 3.40933 19.697 3.44986C20.4036 3.95052 20.9961 6.0443 20.9961 6.0443C22.746 12.5402 22.5875 18.64 22.5875 18.64C22.746 23.9476 21.7107 29.8889 21.7107 29.8889C20.9137 34.4042 19.7976 35.3556 19.7976 35.3556Z" fill="white"/>
<path d="M34.1428 11.097C33.1082 9.29393 25.733 11.5833 17.6648 16.2097C9.59651 20.8362 3.90531 26.0487 4.93911 27.851C5.97289 29.6532 13.3489 27.3646 21.4171 22.7381C29.4853 18.1116 35.1765 12.8992 34.1428 11.097ZM5.8936 27.6036C5.49752 27.5537 5.587 27.2282 5.587 27.2282C6.07288 25.8466 7.61905 24.4064 7.61905 24.4064C11.4603 20.2737 21.6914 14.8638 21.6914 14.8638C30.0465 10.9765 32.6417 11.1405 33.3001 11.3218C33.3677 11.3406 33.4264 11.3828 33.4658 11.4409C33.5053 11.4989 33.5229 11.5689 33.5156 11.6387C33.4365 12.5011 31.9115 14.0566 31.9115 14.0566C27.151 18.8088 21.7809 21.7074 21.7809 21.7074C17.2559 24.4871 11.5871 26.5444 11.5871 26.5444C7.27373 28.0988 5.8936 27.6036 5.8936 27.6036Z" fill="white"/>
<path d="M34.1039 27.9093C35.1465 26.1111 29.4695 20.8748 21.4297 16.2135C13.3898 11.5523 6.01549 9.23453 4.97383 11.0359C3.93218 12.8372 9.60819 18.0705 17.6527 22.7317C25.6971 27.393 33.0622 29.7108 34.1039 27.9093ZM5.66468 11.7307C5.51068 11.3656 5.83579 11.2777 5.83579 11.2777C7.27506 11.0058 9.2968 11.6252 9.2968 11.6252C14.7969 12.8777 24.6044 19.0211 24.6044 19.0211C32.1554 24.305 33.3135 26.6324 33.4871 27.2931C33.5048 27.3608 33.4979 27.4326 33.4678 27.4959C33.4376 27.559 33.3861 27.6096 33.3223 27.6385C32.5349 27.999 30.426 27.4618 30.426 27.4618C23.9261 25.719 18.7279 22.5258 18.7279 22.5258C14.0572 20.0067 9.43878 16.1305 9.43878 16.1305C5.9294 13.1757 5.66576 11.7347 5.66576 11.7347L5.66468 11.7307Z" fill="white"/>
<path d="M19.4985 21.4131C20.5922 21.4131 21.4789 20.5264 21.4789 19.4327C21.4789 18.3389 20.5922 17.4523 19.4985 17.4523C18.4048 17.4523 17.5181 18.3389 17.5181 19.4327C17.5181 20.5264 18.4048 21.4131 19.4985 21.4131Z" fill="white"/>
<path d="M27.6193 13.0152C28.2538 13.0152 28.768 12.4832 28.768 11.827C28.768 11.1707 28.2538 10.6387 27.6193 10.6387C26.9849 10.6387 26.4707 11.1707 26.4707 11.827C26.4707 12.4832 26.9849 13.0152 27.6193 13.0152Z" fill="white"/>
<path d="M8.68776 17.1406C9.32215 17.1406 9.83645 16.6086 9.83645 15.9523C9.83645 15.296 9.32215 14.764 8.68776 14.764C8.05337 14.764 7.53906 15.296 7.53906 15.9523C7.53906 16.6086 8.05337 17.1406 8.68776 17.1406Z" fill="white"/>
<path d="M17.4363 31.7187C18.0707 31.7187 18.585 31.1867 18.585 30.5304C18.585 29.8742 18.0707 29.3422 17.4363 29.3422C16.8019 29.3422 16.2876 29.8742 16.2876 30.5304C16.2876 31.1867 16.8019 31.7187 17.4363 31.7187Z" fill="white"/>
</svg>
