<svg width="87" height="89" viewBox="0 0 87 89" fill="none" xmlns="http://www.w3.org/2000/svg">
<path d="M8.25 45.1201C8.25 64.5863 24.031 80.3701 43.5 80.3701C62.969 80.3701 78.75 64.5891 78.75 45.1201" fill="#FF6602" fill-opacity="0.1"/>
<path d="M78.75 45.1201C78.75 25.2398 62.969 9.12012 43.5 9.12012C24.031 9.12012 8.25 25.2369 8.25 45.1201" fill="#FF6602" fill-opacity="0.1"/>
<path style="mix-blend-mode:screen" opacity="0.78" d="M43.875 88.6201C67.6923 88.6201 87 68.9766 87 44.7451C87 20.5136 67.6923 0.870117 43.875 0.870117C20.0577 0.870117 0.75 20.5136 0.75 44.7451C0.75 68.9766 20.0577 88.6201 43.875 88.6201Z" fill="url(#paint0_radial_2985_28933)"/>
<circle cx="43.6875" cy="44.7451" r="35.7187" fill="#020309"/>
<path d="M18.8705 51.138H23.8103C26.2417 58.586 33.2044 64.2076 41.16 64.9965V58.6003C29.9911 56.7939 25.2573 43.4199 33.0261 35.1463C39.813 27.9174 52.0879 29.7569 56.341 38.5825H50.7385C50.6445 38.5825 49.6168 37.5484 49.3421 37.3494C41.754 31.8392 31.661 38.862 34.4466 47.6106C36.2226 53.1895 42.8781 55.7575 48.1083 52.9361C48.671 52.6328 50.3469 51.1392 50.4975 51.1392H56.2205C54.306 55.0563 50.3276 57.8706 45.9793 58.6014V64.9977C55.5096 63.966 63.1459 56.2846 64.1712 46.9331C65.9303 30.8928 48.7228 19.1724 34.049 26.5576C29.0538 29.0723 25.5116 33.4264 23.6296 38.5825H18.75C22.0982 25.4785 35.3406 17.3992 48.8746 20.1602C70.8894 24.6506 76.3883 53.507 57.6084 65.7107C43.0191 75.1925 23.0886 67.6758 18.8705 51.138Z" fill="white"/>
<path d="M42.5058 39.6293C49.6459 38.7917 50.4876 49.3554 43.6718 49.8866C36.7959 50.4226 35.9505 40.3983 42.5058 39.6293Z" fill="#F6921C"/>
<defs>
<radialGradient id="paint0_radial_2985_28933" cx="0" cy="0" r="1" gradientUnits="userSpaceOnUse" gradientTransform="translate(43.875 44.7451) scale(43.125 43.875)">
<stop stop-color="#FF6602"/>
<stop offset="0.41" stop-color="#884B00"/>
<stop offset="0.82" stop-color="#261500"/>
<stop offset="1"/>
</radialGradient>
</defs>
</svg>
