<svg width="169" height="110" viewBox="0 0 169 110" fill="none" xmlns="http://www.w3.org/2000/svg">
<g filter="url(#filter0_d_1_29)">
<path d="M11.398 58.3788C11.398 58.3788 11.058 76.2598 19.998 84.0598C19.998 84.0598 55.458 111.599 119.39 92.1918C119.39 92.1918 141.16 86.8088 153 71.7898C156.83 66.9358 158.5 60.6088 157.69 54.3848L155.86 40.2888L11.408 58.3788H11.398Z" fill="url(#paint0_linear_1_29)"/>
<path d="M86.106 80.8199C126.07 77.5369 157.28 59.4119 155.82 40.3389C154.36 21.2659 120.79 8.46592 80.83 11.7489C40.87 15.0329 9.65798 33.1569 11.115 52.2309C12.571 71.3039 46.146 84.1039 86.106 80.8199Z" fill="#E50913"/>
<path fill-rule="evenodd" clip-rule="evenodd" d="M80.858 11.7139C120.82 8.42587 154.39 21.1838 155.85 40.2068C157.3 59.2298 126.09 77.3189 86.128 80.5969C46.168 83.8849 12.598 71.1269 11.138 52.1039C9.68802 33.0809 40.898 14.9909 80.858 11.7139Z" fill="#F0B90B" stroke="#C19005" stroke-width="1.2" stroke-miterlimit="10"/>
<path d="M50.897 48.835L51.647 57.942L68.247 61.158L68.657 66.489L42.337 61.4169L41.227 46.9579L50.897 48.8459V48.835ZM50.197 39.728L50.607 45.0389L40.937 43.1509L40.527 37.84L49.787 34.3969L59.507 36.2849L50.197 39.728ZM73.087 35.1639L82.347 31.7209L92.067 33.6089L82.757 37.0519L73.087 35.1639Z" fill="white"/>
<path d="M58.289 55.4949L57.879 50.163L67.549 52.051L67.959 57.3619L58.289 55.4949ZM75.189 62.5059L84.859 64.3939L94.169 60.95L94.579 66.2609L85.269 69.705L75.599 67.817L75.189 62.5059ZM105.659 32.489L114.92 29.0449L124.64 30.9329L125.05 36.244L115.74 39.687L115.33 34.3759L105.659 32.489ZM116.72 52.59L116.08 43.473L125.34 40.0289L126.45 54.489L101.229 63.8029L100.819 58.4709L116.72 52.58V52.59Z" fill="white"/>
<path d="M109.789 51.2629L100.519 54.6759L100.119 49.3749L109.379 45.9319L109.789 51.2629Z" fill="white"/>
<path d="M108.678 36.8248L109.138 42.1567L93.178 48.0477L93.878 57.1758L84.608 60.5988L74.938 58.7318L74.238 49.6038L57.588 46.3887L57.178 41.0568L66.478 37.6138L83.028 40.8597L98.978 34.9478L108.698 36.8358H108.658L108.678 36.8248ZM56.488 31.9498L81.658 22.6147L107.978 27.7178L98.718 31.1617L82.068 27.9258L66.158 33.8378L56.488 31.9498Z" fill="white"/>
</g>
<defs>
<filter id="filter0_d_1_29" x="0.189273" y="0.297412" width="168" height="109.121" filterUnits="userSpaceOnUse" color-interpolation-filters="sRGB">
<feFlood flood-opacity="0" result="BackgroundImageFix"/>
<feColorMatrix in="SourceAlpha" type="matrix" values="0 0 0 0 0 0 0 0 0 0 0 0 0 0 0 0 0 0 127 0" result="hardAlpha"/>
<feOffset/>
<feGaussianBlur stdDeviation="5.15"/>
<feColorMatrix type="matrix" values="0 0 0 0 0.976471 0 0 0 0 0.188235 0 0 0 0 0.243137 0 0 0 0.75 0"/>
<feBlend mode="normal" in2="BackgroundImageFix" result="effect1_dropShadow_1_29"/>
<feBlend mode="normal" in="SourceGraphic" in2="effect1_dropShadow_1_29" result="shape"/>
</filter>
<linearGradient id="paint0_linear_1_29" x1="16.217" y1="86.7678" x2="159.24" y2="56.4759" gradientUnits="userSpaceOnUse">
<stop stop-opacity="0"/>
<stop offset="0.17" stop-color="#252525" stop-opacity="0.15"/>
<stop offset="0.55" stop-color="#858585" stop-opacity="0.52"/>
<stop offset="1" stop-color="white"/>
</linearGradient>
</defs>
</svg>
