<svg width="1190" height="358" viewBox="0 0 1190 358" fill="none" xmlns="http://www.w3.org/2000/svg">
<path d="M96.0491 273.375C96.0491 275.502 95.64 277.281 94.8217 278.711C94.0121 280.132 92.8364 281.204 91.2946 281.928C89.7528 282.643 87.8967 283 85.7261 283H80.3773V264.111H86.3075C88.2886 264.111 90.0069 264.464 91.4626 265.171C92.9182 265.868 94.0465 266.906 94.8476 268.284C95.6486 269.654 96.0491 271.351 96.0491 273.375ZM91.8889 273.478C91.8889 272.083 91.6822 270.937 91.2688 270.041C90.8639 269.137 90.261 268.47 89.46 268.039C88.6675 267.608 87.6856 267.393 86.5142 267.393H84.3824V279.693H86.1008C88.056 279.693 89.5073 279.172 90.4548 278.129C91.4109 277.087 91.8889 275.537 91.8889 273.478ZM105.61 268.284C106.945 268.284 108.095 268.543 109.059 269.06C110.024 269.568 110.769 270.308 111.295 271.282C111.82 272.255 112.083 273.444 112.083 274.848V276.76H102.767C102.811 277.871 103.142 278.745 103.762 279.383C104.391 280.011 105.261 280.326 106.372 280.326C107.294 280.326 108.138 280.231 108.904 280.041C109.671 279.852 110.459 279.568 111.269 279.189V282.238C110.554 282.591 109.805 282.849 109.021 283.013C108.246 283.177 107.302 283.259 106.191 283.259C104.744 283.259 103.461 282.992 102.341 282.457C101.23 281.923 100.356 281.11 99.7184 280.016C99.0896 278.922 98.7752 277.544 98.7752 275.881C98.7752 274.193 99.0595 272.789 99.6279 271.669C100.205 270.541 101.006 269.697 102.031 269.137C103.056 268.569 104.249 268.284 105.61 268.284ZM105.636 271.088C104.869 271.088 104.232 271.333 103.724 271.824C103.224 272.315 102.935 273.086 102.858 274.137H108.388C108.379 273.551 108.271 273.03 108.065 272.574C107.867 272.117 107.565 271.755 107.16 271.488C106.764 271.221 106.256 271.088 105.636 271.088ZM123.323 268.284C124.951 268.284 126.265 268.917 127.264 270.184C128.271 271.45 128.775 273.306 128.775 275.752C128.775 277.389 128.538 278.767 128.065 279.886C127.591 280.998 126.936 281.837 126.101 282.406C125.265 282.974 124.305 283.259 123.22 283.259C122.522 283.259 121.923 283.172 121.424 283C120.924 282.819 120.498 282.591 120.145 282.315C119.792 282.031 119.486 281.73 119.227 281.411H119.021C119.09 281.756 119.141 282.109 119.176 282.47C119.21 282.832 119.227 283.185 119.227 283.53V289.357H115.287V268.556H118.491L119.047 270.429H119.227C119.486 270.041 119.8 269.684 120.171 269.357C120.541 269.029 120.985 268.771 121.501 268.581C122.027 268.383 122.634 268.284 123.323 268.284ZM122.057 271.437C121.368 271.437 120.821 271.579 120.416 271.863C120.011 272.147 119.714 272.574 119.525 273.142C119.344 273.711 119.245 274.43 119.227 275.3V275.726C119.227 276.656 119.314 277.445 119.486 278.091C119.667 278.737 119.964 279.228 120.377 279.563C120.799 279.899 121.376 280.067 122.109 280.067C122.712 280.067 123.207 279.899 123.594 279.563C123.982 279.228 124.271 278.737 124.46 278.091C124.658 277.436 124.757 276.639 124.757 275.7C124.757 274.288 124.538 273.224 124.098 272.509C123.659 271.794 122.979 271.437 122.057 271.437ZM145.158 275.752C145.158 276.958 144.994 278.026 144.667 278.956C144.348 279.886 143.879 280.675 143.259 281.321C142.647 281.958 141.906 282.44 141.036 282.768C140.175 283.095 139.202 283.259 138.116 283.259C137.1 283.259 136.165 283.095 135.313 282.768C134.469 282.44 133.732 281.958 133.103 281.321C132.483 280.675 132.001 279.886 131.656 278.956C131.321 278.026 131.153 276.958 131.153 275.752C131.153 274.15 131.437 272.793 132.005 271.682C132.574 270.571 133.383 269.727 134.434 269.15C135.485 268.573 136.738 268.284 138.194 268.284C139.546 268.284 140.743 268.573 141.786 269.15C142.836 269.727 143.659 270.571 144.253 271.682C144.856 272.793 145.158 274.15 145.158 275.752ZM135.171 275.752C135.171 276.7 135.274 277.496 135.481 278.142C135.687 278.788 136.01 279.275 136.45 279.602C136.889 279.929 137.462 280.093 138.168 280.093C138.866 280.093 139.43 279.929 139.861 279.602C140.3 279.275 140.619 278.788 140.817 278.142C141.023 277.496 141.127 276.7 141.127 275.752C141.127 274.796 141.023 274.004 140.817 273.375C140.619 272.737 140.3 272.259 139.861 271.941C139.421 271.622 138.849 271.463 138.142 271.463C137.1 271.463 136.342 271.82 135.868 272.535C135.403 273.25 135.171 274.322 135.171 275.752ZM158.491 278.711C158.491 279.693 158.259 280.524 157.793 281.204C157.337 281.876 156.652 282.389 155.739 282.742C154.826 283.086 153.689 283.259 152.328 283.259C151.321 283.259 150.455 283.194 149.731 283.065C149.016 282.936 148.293 282.72 147.561 282.419V279.163C148.345 279.516 149.184 279.809 150.08 280.041C150.985 280.265 151.777 280.377 152.458 280.377C153.224 280.377 153.771 280.265 154.098 280.041C154.434 279.809 154.602 279.507 154.602 279.137C154.602 278.896 154.533 278.681 154.395 278.491C154.266 278.293 153.982 278.073 153.543 277.832C153.104 277.582 152.414 277.259 151.476 276.863C150.571 276.484 149.826 276.101 149.24 275.713C148.663 275.326 148.233 274.869 147.948 274.344C147.673 273.81 147.535 273.134 147.535 272.315C147.535 270.98 148.052 269.977 149.085 269.305C150.128 268.625 151.519 268.284 153.259 268.284C154.154 268.284 155.007 268.375 155.817 268.556C156.635 268.737 157.475 269.025 158.336 269.421L157.147 272.264C156.433 271.954 155.756 271.699 155.119 271.501C154.49 271.303 153.849 271.204 153.194 271.204C152.617 271.204 152.182 271.282 151.889 271.437C151.596 271.592 151.45 271.829 151.45 272.147C151.45 272.38 151.523 272.587 151.669 272.768C151.824 272.948 152.117 273.151 152.548 273.375C152.987 273.59 153.629 273.87 154.473 274.215C155.291 274.55 156.002 274.904 156.605 275.274C157.208 275.636 157.673 276.088 158 276.631C158.327 277.165 158.491 277.858 158.491 278.711ZM165.507 268.556V283H161.566V268.556H165.507ZM163.543 262.897C164.128 262.897 164.632 263.035 165.054 263.31C165.476 263.577 165.687 264.081 165.687 264.822C165.687 265.554 165.476 266.062 165.054 266.346C164.632 266.622 164.128 266.76 163.543 266.76C162.948 266.76 162.44 266.622 162.018 266.346C161.605 266.062 161.398 265.554 161.398 264.822C161.398 264.081 161.605 263.577 162.018 263.31C162.44 263.035 162.948 262.897 163.543 262.897ZM175.739 280.119C176.17 280.119 176.588 280.076 176.992 279.99C177.406 279.904 177.815 279.796 178.22 279.667V282.6C177.798 282.789 177.272 282.944 176.644 283.065C176.023 283.194 175.343 283.259 174.602 283.259C173.741 283.259 172.966 283.121 172.277 282.845C171.596 282.561 171.058 282.074 170.662 281.385C170.274 280.687 170.08 279.718 170.08 278.478V271.514H168.194V269.848L170.365 268.53L171.501 265.481H174.021V268.556H178.065V271.514H174.021V278.478C174.021 279.029 174.176 279.443 174.486 279.718C174.805 279.985 175.222 280.119 175.739 280.119ZM188.336 264.111H194.215C196.73 264.111 198.633 264.464 199.925 265.171C201.217 265.877 201.863 267.117 201.863 268.892C201.863 269.606 201.747 270.252 201.514 270.83C201.29 271.407 200.963 271.88 200.533 272.251C200.102 272.621 199.576 272.862 198.956 272.974V273.103C199.585 273.233 200.154 273.457 200.662 273.775C201.17 274.085 201.575 274.542 201.876 275.145C202.186 275.739 202.341 276.532 202.341 277.522C202.341 278.668 202.061 279.65 201.502 280.468C200.942 281.286 200.141 281.915 199.098 282.354C198.065 282.785 196.833 283 195.403 283H188.336V264.111ZM192.341 271.592H194.667C195.83 271.592 196.635 271.411 197.083 271.049C197.531 270.679 197.755 270.136 197.755 269.421C197.755 268.698 197.488 268.181 196.954 267.871C196.428 267.552 195.593 267.393 194.447 267.393H192.341V271.592ZM192.341 274.77V279.693H194.951C196.157 279.693 196.997 279.46 197.471 278.995C197.944 278.53 198.181 277.905 198.181 277.122C198.181 276.656 198.078 276.247 197.871 275.894C197.664 275.541 197.315 275.265 196.825 275.067C196.342 274.869 195.675 274.77 194.822 274.77H192.341ZM213.401 283H209.396V267.445H204.266V264.111H218.53V267.445H213.401V283ZM229.46 267.173C228.694 267.173 228.013 267.324 227.419 267.625C226.833 267.918 226.338 268.345 225.933 268.904C225.537 269.464 225.235 270.14 225.029 270.933C224.822 271.725 224.719 272.617 224.719 273.607C224.719 274.942 224.882 276.084 225.21 277.031C225.545 277.97 226.062 278.689 226.76 279.189C227.458 279.68 228.358 279.925 229.46 279.925C230.227 279.925 230.993 279.839 231.76 279.667C232.535 279.495 233.375 279.249 234.279 278.93V282.29C233.444 282.634 232.621 282.88 231.812 283.026C231.002 283.181 230.093 283.259 229.086 283.259C227.139 283.259 225.537 282.858 224.279 282.057C223.03 281.247 222.104 280.119 221.502 278.672C220.899 277.216 220.597 275.519 220.597 273.582C220.597 272.152 220.791 270.842 221.179 269.654C221.566 268.465 222.135 267.436 222.884 266.566C223.633 265.696 224.559 265.024 225.662 264.55C226.764 264.077 228.03 263.84 229.46 263.84C230.399 263.84 231.338 263.96 232.277 264.202C233.224 264.434 234.129 264.757 234.99 265.171L233.698 268.426C232.992 268.091 232.281 267.798 231.566 267.548C230.851 267.298 230.149 267.173 229.46 267.173Z" fill="#FBFBFB"/>
<rect x="251.711" y="257.366" width="54.7287" height="31.2687" rx="15.6344" fill="#F7931A" fill-opacity="0.1"/>
<rect x="251.711" y="257.366" width="54.7287" height="31.2687" rx="15.6344" stroke="#F7931A" stroke-width="0.55125"/>
<path d="M278.935 267.695L274.695 279.5H273.314L269.075 267.695H270.512L273.274 275.471C273.387 275.783 273.487 276.082 273.573 276.367C273.664 276.652 273.745 276.927 273.815 277.191C273.885 277.454 273.947 277.71 274.001 277.958C274.055 277.71 274.117 277.454 274.187 277.191C274.256 276.922 274.337 276.644 274.429 276.359C274.52 276.068 274.623 275.764 274.736 275.446L277.481 267.695H278.935ZM284.749 279.5H283.44V271.134C283.44 270.817 283.44 270.545 283.44 270.319C283.446 270.087 283.451 269.877 283.457 269.689C283.467 269.495 283.481 269.299 283.497 269.1C283.33 269.272 283.174 269.42 283.029 269.544C282.883 269.662 282.703 269.81 282.488 269.988L281.139 271.07L280.437 270.157L283.634 267.695H284.749V279.5Z" fill="white"/>
<path d="M783.298 21.889L787.239 14.1112H791.554L785.288 25.6487V33.0001H781.309V25.7779L775.042 14.1112H779.384L783.298 21.889ZM797.562 18.5557V33.0001H793.621V18.5557H797.562ZM795.598 12.8967C796.184 12.8967 796.688 13.0345 797.11 13.3102C797.532 13.5772 797.743 14.0811 797.743 14.8218C797.743 15.5539 797.532 16.0621 797.11 16.3463C796.688 16.622 796.184 16.7598 795.598 16.7598C795.004 16.7598 794.496 16.622 794.074 16.3463C793.66 16.0621 793.453 15.5539 793.453 14.8218C793.453 14.0811 793.66 13.5772 794.074 13.3102C794.496 13.0345 795.004 12.8967 795.598 12.8967ZM807.665 18.2843C809 18.2843 810.15 18.5427 811.115 19.0595C812.08 19.5677 812.825 20.3085 813.35 21.2818C813.875 22.2551 814.138 23.4437 814.138 24.8477V26.7598L804.823 26.7598C804.866 27.8709 805.198 28.7452 805.818 29.3825C806.447 30.0113 807.316 30.3257 808.428 30.3257C809.349 30.3257 810.193 30.231 810.96 30.0415C811.726 29.852 812.515 29.5677 813.324 29.1887V32.2378C812.609 32.591 811.86 32.8494 811.076 33.013C810.301 33.1767 809.358 33.2585 808.247 33.2585C806.8 33.2585 805.516 32.9915 804.397 32.4575C803.285 31.9235 802.411 31.1095 801.774 30.0156C801.145 28.9217 800.831 27.5436 800.831 25.8812C800.831 24.193 801.115 22.7891 801.683 21.6694C802.26 20.541 803.061 19.6969 804.086 19.137C805.111 18.5686 806.304 18.2843 807.665 18.2843ZM807.691 21.088C806.925 21.088 806.287 21.3334 805.779 21.8244C805.279 22.3153 804.991 23.0862 804.913 24.1371L810.443 24.1371C810.434 23.5514 810.327 23.0303 810.12 22.5737C809.922 22.1172 809.62 21.7555 809.216 21.4885C808.819 21.2215 808.311 21.088 807.691 21.088ZM821.283 33.0001H817.342V12.8967H821.283V33.0001ZM830.004 33.2585C828.393 33.2585 827.08 32.6298 826.063 31.3722C825.055 30.1061 824.552 28.2499 824.552 25.8037C824.552 23.3317 825.064 21.4626 826.089 20.1965C827.114 18.9217 828.453 18.2843 830.107 18.2843C830.796 18.2843 831.403 18.3791 831.929 18.5686C832.454 18.7581 832.906 19.0122 833.285 19.3308C833.673 19.6495 834 20.007 834.267 20.4032H834.397C834.345 20.1276 834.28 19.7228 834.203 19.1887C834.134 18.6461 834.099 18.0905 834.099 17.5221V12.8967L838.053 12.8967V33.0001H835.03L834.267 31.1267H834.099C833.85 31.5229 833.535 31.8847 833.156 32.212C832.786 32.5307 832.342 32.7848 831.826 32.9743C831.309 33.1638 830.701 33.2585 830.004 33.2585ZM831.386 30.119C832.463 30.119 833.221 29.8003 833.66 29.1629C834.108 28.5169 834.345 27.5479 834.371 26.2559V25.8296C834.371 24.4256 834.155 23.3532 833.725 22.6125C833.294 21.8632 832.493 21.4885 831.322 21.4885C830.452 21.4885 829.771 21.8632 829.28 22.6125C828.789 23.3619 828.544 24.4428 828.544 25.8554C828.544 27.268 828.789 28.3317 829.28 29.0466C829.78 29.7615 830.482 30.119 831.386 30.119ZM840.895 27.5221V24.2921H847.833V27.5221H840.895ZM854.926 39.3567C852.911 39.3567 851.369 39.0036 850.301 38.2973C849.242 37.5996 848.712 36.6177 848.712 35.3515C848.712 34.4816 848.983 33.7538 849.526 33.1681C850.068 32.5824 850.865 32.1646 851.916 31.9148C851.511 31.7426 851.158 31.4627 850.857 31.0751C850.555 30.6788 850.404 30.2611 850.404 29.8218C850.404 29.2706 850.564 28.8141 850.882 28.4523C851.201 28.0819 851.662 27.7202 852.265 27.367C851.507 27.0397 850.904 26.5143 850.456 25.7908C850.017 25.0673 849.797 24.2146 849.797 23.2327C849.797 22.1818 850.025 21.2904 850.482 20.5582C850.947 19.8175 851.619 19.2533 852.497 18.8657C853.385 18.4781 854.461 18.2843 855.727 18.2843C855.994 18.2843 856.304 18.3016 856.658 18.336C857.011 18.3705 857.334 18.4092 857.627 18.4523C857.928 18.4954 858.13 18.5298 858.234 18.5557H863.273V20.5582L861.012 21.1396C861.218 21.4583 861.373 21.7986 861.477 22.1603C861.58 22.5221 861.632 22.9054 861.632 23.3102C861.632 24.8606 861.089 26.0707 860.004 26.9407C858.927 27.802 857.429 28.2327 855.508 28.2327C855.051 28.2068 854.621 28.1724 854.216 28.1293C854.018 28.2844 853.867 28.448 853.764 28.6203C853.66 28.7925 853.609 28.9734 853.609 29.1629C853.609 29.3524 853.686 29.5117 853.841 29.6409C854.005 29.7615 854.246 29.8563 854.565 29.9252C854.892 29.9855 855.297 30.0156 855.779 30.0156H858.234C859.819 30.0156 861.025 30.3558 861.851 31.0363C862.687 31.7167 863.105 32.7159 863.105 34.0337C863.105 35.7219 862.398 37.0311 860.986 37.9614C859.582 38.8916 857.562 39.3567 854.926 39.3567ZM855.094 36.7857C856.033 36.7857 856.838 36.6952 857.51 36.5143C858.191 36.3421 858.712 36.0923 859.074 35.765C859.435 35.4463 859.616 35.063 859.616 34.6151C859.616 34.2534 859.509 33.9648 859.293 33.7495C859.087 33.5428 858.768 33.3963 858.337 33.3102C857.915 33.2241 857.373 33.181 856.709 33.181H854.668C854.186 33.181 853.751 33.2585 853.363 33.4136C852.984 33.5686 852.683 33.7839 852.459 34.0596C852.235 34.3438 852.123 34.6711 852.123 35.0415C852.123 35.5841 852.381 36.0105 852.898 36.3205C853.423 36.6306 854.155 36.7857 855.094 36.7857ZM855.727 25.8296C856.468 25.8296 857.011 25.6013 857.355 25.1448C857.7 24.6883 857.872 24.0682 857.872 23.2843C857.872 22.4144 857.691 21.7641 857.329 21.3334C856.976 20.8942 856.442 20.6745 855.727 20.6745C855.004 20.6745 854.461 20.8942 854.099 21.3334C853.738 21.7641 853.557 22.4144 853.557 23.2843C853.557 24.0682 853.733 24.6883 854.087 25.1448C854.448 25.6013 854.995 25.8296 855.727 25.8296ZM871.619 18.2843C872.954 18.2843 874.104 18.5427 875.069 19.0595C876.033 19.5677 876.778 20.3085 877.304 21.2818C877.829 22.2551 878.092 23.4437 878.092 24.8477V26.7598L868.776 26.7598C868.82 27.8709 869.151 28.7452 869.771 29.3825C870.4 30.0113 871.27 30.3257 872.381 30.3257C873.303 30.3257 874.147 30.231 874.913 30.0415C875.68 29.852 876.468 29.5677 877.278 29.1887V32.2378C876.563 32.591 875.814 32.8494 875.03 33.013C874.255 33.1767 873.311 33.2585 872.2 33.2585C870.753 33.2585 869.47 32.9915 868.35 32.4575C867.239 31.9235 866.365 31.1095 865.727 30.0156C865.099 28.9217 864.784 27.5436 864.784 25.8812C864.784 24.193 865.068 22.7891 865.637 21.6694C866.214 20.541 867.015 19.6969 868.04 19.137C869.065 18.5686 870.258 18.2843 871.619 18.2843ZM871.645 21.088C870.878 21.088 870.241 21.3334 869.733 21.8244C869.233 22.3153 868.944 23.0862 868.867 24.1371H874.397C874.388 23.5514 874.28 23.0303 874.074 22.5737C873.876 22.1172 873.574 21.7555 873.169 21.4885C872.773 21.2215 872.265 21.088 871.645 21.088ZM889.5 18.2843C891.042 18.2843 892.282 18.7064 893.221 19.5505C894.16 20.386 894.629 21.7296 894.629 23.5815V33.0001H890.689V24.5634C890.689 23.5298 890.499 22.7503 890.12 22.2249C889.75 21.6995 889.164 21.4368 888.363 21.4368C887.157 21.4368 886.335 21.8459 885.895 22.6642C885.456 23.4824 885.236 24.6625 885.236 26.2042V33.0001H881.296V18.5557H884.306L884.836 20.4032H885.056C885.366 19.9036 885.749 19.4988 886.205 19.1887C886.671 18.8786 887.183 18.6504 887.743 18.504C888.311 18.3575 888.897 18.2843 889.5 18.2843ZM904.642 18.2843C905.977 18.2843 907.127 18.5427 908.092 19.0595C909.057 19.5677 909.802 20.3085 910.327 21.2818C910.852 22.2551 911.115 23.4437 911.115 24.8477V26.7598H901.8C901.843 27.8709 902.174 28.7452 902.795 29.3825C903.423 30.0113 904.293 30.3257 905.404 30.3257C906.326 30.3257 907.17 30.231 907.937 30.0415C908.703 29.852 909.491 29.5677 910.301 29.1887V32.2378C909.586 32.591 908.837 32.8494 908.053 33.013C907.278 33.1767 906.335 33.2585 905.224 33.2585C903.777 33.2585 902.493 32.9915 901.373 32.4575C900.262 31.9235 899.388 31.1095 898.751 30.0156C898.122 28.9217 897.808 27.5436 897.808 25.8812C897.808 24.193 898.092 22.7891 898.66 21.6694C899.237 20.541 900.038 19.6969 901.063 19.137C902.088 18.5686 903.281 18.2843 904.642 18.2843ZM904.668 21.088C903.901 21.088 903.264 21.3334 902.756 21.8244C902.256 22.3153 901.968 23.0862 901.89 24.1371H907.42C907.411 23.5514 907.304 23.0303 907.097 22.5737C906.899 22.1172 906.597 21.7555 906.193 21.4885C905.796 21.2215 905.288 21.088 904.668 21.088ZM922.381 18.2843C922.579 18.2843 922.808 18.2973 923.066 18.3231C923.333 18.3403 923.548 18.3662 923.712 18.4006L923.415 22.0957C923.286 22.0526 923.1 22.0225 922.859 22.0053C922.627 21.9794 922.424 21.9665 922.252 21.9665C921.744 21.9665 921.249 22.0311 920.766 22.1603C920.293 22.2895 919.866 22.5005 919.487 22.7934C919.108 23.0776 918.807 23.4566 918.583 23.9303C918.367 24.3955 918.26 24.9682 918.26 25.6487V33.0001H914.319V18.5557H917.304L917.885 20.9846H918.079C918.363 20.4936 918.716 20.0457 919.138 19.6409C919.569 19.2275 920.056 18.9002 920.598 18.659C921.15 18.4092 921.744 18.2843 922.381 18.2843ZM932.252 18.2585C934.19 18.2585 935.676 18.6805 936.709 19.5246C937.743 20.3687 938.26 21.6521 938.26 23.3748V33.0001H935.508L934.746 31.0363H934.642C934.229 31.5531 933.807 31.9751 933.376 32.3024C932.945 32.6298 932.45 32.8709 931.89 33.026C931.33 33.181 930.65 33.2585 929.849 33.2585C928.996 33.2585 928.23 33.0949 927.549 32.7676C926.877 32.4403 926.348 31.9407 925.96 31.2689C925.572 30.5884 925.379 29.7271 925.379 28.6849C925.379 27.1517 925.917 26.0234 926.994 25.2998C928.07 24.5677 929.685 24.1629 931.839 24.0854L934.345 24.0079V23.3748C934.345 22.6168 934.147 22.0613 933.751 21.7081C933.355 21.355 932.803 21.1784 932.097 21.1784C931.399 21.1784 930.715 21.2774 930.043 21.4756C929.371 21.6737 928.699 21.9234 928.027 22.2249L926.722 19.5634C927.489 19.1586 928.346 18.8399 929.293 18.6073C930.249 18.3748 931.236 18.2585 932.252 18.2585ZM934.345 26.3076L932.821 26.3593C931.546 26.3937 930.659 26.622 930.159 27.044C929.668 27.4661 929.423 28.0216 929.423 28.7107C929.423 29.3136 929.599 29.7443 929.952 30.0027C930.305 30.2525 930.766 30.3774 931.335 30.3774C932.179 30.3774 932.889 30.1276 933.467 29.628C934.052 29.1285 934.345 28.4179 934.345 27.4962V26.3076ZM948.415 30.119C948.846 30.119 949.263 30.0759 949.668 29.9898C950.082 29.9036 950.491 29.796 950.896 29.6668V32.5996C950.473 32.7891 949.948 32.9441 949.319 33.0647C948.699 33.1939 948.019 33.2585 947.278 33.2585C946.417 33.2585 945.641 33.1207 944.952 32.8451C944.272 32.5608 943.734 32.0742 943.337 31.3851C942.95 30.6875 942.756 29.7185 942.756 28.4781V21.5143H940.87V19.8476L943.04 18.5298L944.177 15.4807L946.697 15.4807V18.5557H950.74V21.5143H946.697V28.4781C946.697 29.0294 946.852 29.4428 947.162 29.7185C947.48 29.9855 947.898 30.119 948.415 30.119ZM957.769 18.5557V33.0001H953.828V18.5557H957.769ZM955.805 12.8967C956.391 12.8967 956.895 13.0345 957.317 13.3102C957.739 13.5772 957.95 14.0811 957.95 14.8218C957.95 15.5539 957.739 16.0621 957.317 16.3463C956.895 16.622 956.391 16.7598 955.805 16.7598C955.211 16.7598 954.703 16.622 954.281 16.3463C953.867 16.0621 953.66 15.5539 953.66 14.8218C953.66 14.0811 953.867 13.5772 954.281 13.3102C954.703 13.0345 955.211 12.8967 955.805 12.8967ZM970.12 18.2843C971.662 18.2843 972.902 18.7064 973.841 19.5505C974.78 20.386 975.25 21.7296 975.25 23.5815V33.0001H971.309V24.5634C971.309 23.5298 971.12 22.7503 970.741 22.2249C970.37 21.6995 969.784 21.4368 968.983 21.4368C967.778 21.4368 966.955 21.8459 966.516 22.6642C966.076 23.4824 965.857 24.6625 965.857 26.2042V33.0001H961.916V18.5557H964.927L965.456 20.4032H965.676C965.986 19.9036 966.369 19.4988 966.826 19.1887C967.291 18.8786 967.803 18.6504 968.363 18.504C968.932 18.3575 969.517 18.2843 970.12 18.2843ZM983.531 39.3567C981.516 39.3567 979.974 39.0036 978.906 38.2973C977.846 37.5996 977.317 36.6177 977.317 35.3515C977.317 34.4816 977.588 33.7538 978.131 33.1681C978.673 32.5824 979.47 32.1646 980.521 31.9148C980.116 31.7426 979.763 31.4627 979.461 31.0751C979.16 30.6788 979.009 30.2611 979.009 29.8218C979.009 29.2706 979.169 28.8141 979.487 28.4523C979.806 28.0819 980.267 27.7202 980.87 27.367C980.112 27.0397 979.509 26.5143 979.061 25.7908C978.622 25.0673 978.402 24.2146 978.402 23.2327C978.402 22.1818 978.63 21.2904 979.087 20.5582C979.552 19.8175 980.224 19.2533 981.102 18.8657C981.989 18.4781 983.066 18.2843 984.332 18.2843C984.599 18.2843 984.909 18.3016 985.262 18.336C985.616 18.3705 985.939 18.4092 986.231 18.4523C986.533 18.4954 986.735 18.5298 986.839 18.5557H991.877V20.5582L989.617 21.1396C989.823 21.4583 989.978 21.7986 990.082 22.1603C990.185 22.5221 990.237 22.9054 990.237 23.3102C990.237 24.8606 989.694 26.0707 988.609 26.9407C987.532 27.802 986.033 28.2327 984.113 28.2327C983.656 28.2068 983.225 28.1724 982.821 28.1293C982.623 28.2844 982.472 28.448 982.368 28.6203C982.265 28.7925 982.213 28.9734 982.213 29.1629C982.213 29.3524 982.291 29.5117 982.446 29.6409C982.61 29.7615 982.851 29.8563 983.169 29.9252C983.497 29.9855 983.902 30.0156 984.384 30.0156L986.839 30.0156C988.424 30.0156 989.629 30.3558 990.456 31.0363C991.292 31.7167 991.71 32.7159 991.71 34.0337C991.71 35.7219 991.003 37.0311 989.591 37.9614C988.187 38.8916 986.167 39.3567 983.531 39.3567ZM983.699 36.7857C984.638 36.7857 985.443 36.6952 986.115 36.5143C986.796 36.3421 987.317 36.0923 987.679 35.765C988.04 35.4463 988.221 35.063 988.221 34.6151C988.221 34.2534 988.113 33.9648 987.898 33.7495C987.691 33.5428 987.373 33.3963 986.942 33.3102C986.52 33.2241 985.977 33.181 985.314 33.181L983.273 33.181C982.79 33.181 982.356 33.2585 981.968 33.4136C981.589 33.5686 981.287 33.7839 981.064 34.0596C980.84 34.3438 980.728 34.6711 980.728 35.0415C980.728 35.5841 980.986 36.0105 981.503 36.3205C982.028 36.6306 982.76 36.7857 983.699 36.7857ZM984.332 25.8296C985.073 25.8296 985.616 25.6013 985.96 25.1448C986.305 24.6883 986.477 24.0682 986.477 23.2843C986.477 22.4144 986.296 21.7641 985.934 21.3334C985.581 20.8942 985.047 20.6745 984.332 20.6745C983.609 20.6745 983.066 20.8942 982.704 21.3334C982.343 21.7641 982.162 22.4144 982.162 23.2843C982.162 24.0682 982.338 24.6883 982.691 25.1448C983.053 25.6013 983.6 25.8296 984.332 25.8296ZM1001.45 14.1112L1007.33 14.1112C1009.84 14.1112 1011.75 14.4643 1013.04 15.1706C1014.33 15.8769 1014.98 17.1172 1014.98 18.8916C1014.98 19.6065 1014.86 20.2525 1014.63 20.8296C1014.41 21.4066 1014.08 21.8804 1013.65 22.2507C1013.22 22.6211 1012.69 22.8623 1012.07 22.9743V23.1035C1012.7 23.2327 1013.27 23.4566 1013.78 23.7753C1014.28 24.0854 1014.69 24.5419 1014.99 25.1448C1015.3 25.7391 1015.46 26.5315 1015.46 27.5221C1015.46 28.6676 1015.18 29.6496 1014.62 30.4678C1014.06 31.2861 1013.26 31.9148 1012.21 32.3541C1011.18 32.7848 1009.95 33.0001 1008.52 33.0001L1001.45 33.0001V14.1112ZM1005.46 21.5918L1007.78 21.5918C1008.94 21.5918 1009.75 21.411 1010.2 21.0492C1010.65 20.6788 1010.87 20.1362 1010.87 19.4213C1010.87 18.6978 1010.6 18.181 1010.07 17.8709C1009.54 17.5522 1008.71 17.3929 1007.56 17.3929H1005.46V21.5918ZM1005.46 24.7701V29.6926L1008.07 29.6926C1009.27 29.6926 1010.11 29.4601 1010.59 28.9949C1011.06 28.5298 1011.3 27.9054 1011.3 27.1216C1011.3 26.6564 1011.19 26.2473 1010.99 25.8942C1010.78 25.541 1010.43 25.2654 1009.94 25.0673C1009.46 24.8692 1008.79 24.7701 1007.94 24.7701L1005.46 24.7701ZM1026.52 33.0001H1022.51V17.4445H1017.38V14.1112L1031.65 14.1112V17.4445H1026.52V33.0001ZM1042.58 17.1732C1041.81 17.1732 1041.13 17.324 1040.53 17.6254C1039.95 17.9183 1039.45 18.3446 1039.05 18.9045C1038.65 19.4644 1038.35 20.1405 1038.14 20.9329C1037.94 21.7253 1037.83 22.6168 1037.83 23.6073C1037.83 24.9424 1038 26.0837 1038.32 27.0311C1038.66 27.97 1039.18 28.6892 1039.88 29.1887C1040.57 29.6797 1041.47 29.9252 1042.58 29.9252C1043.34 29.9252 1044.11 29.839 1044.88 29.6668C1045.65 29.4945 1046.49 29.249 1047.39 28.9303V32.2895C1046.56 32.6341 1045.74 32.8795 1044.93 33.026C1044.12 33.181 1043.21 33.2585 1042.2 33.2585C1040.25 33.2585 1038.65 32.858 1037.39 32.057C1036.15 31.2473 1035.22 30.119 1034.62 28.6719C1034.01 27.2163 1033.71 25.5195 1033.71 23.5815C1033.71 22.1517 1033.91 20.8425 1034.29 19.6538C1034.68 18.4652 1035.25 17.4359 1036 16.566C1036.75 15.696 1037.67 15.0242 1038.78 14.5505C1039.88 14.0767 1041.15 13.8399 1042.58 13.8399C1043.51 13.8399 1044.45 13.9605 1045.39 14.2016C1046.34 14.4342 1047.24 14.7572 1048.11 15.1706L1046.81 18.4265C1046.11 18.0905 1045.4 17.7977 1044.68 17.5479C1043.97 17.2981 1043.26 17.1732 1042.58 17.1732ZM784.707 73.0001H780.701V57.4445H775.572V54.1112H789.836V57.4445H784.707V73.0001ZM805.559 65.752C805.559 66.9579 805.396 68.026 805.068 68.9562C804.75 69.8864 804.28 70.6745 803.66 71.3205C803.049 71.9579 802.308 72.4403 801.438 72.7676C800.577 73.0949 799.603 73.2585 798.518 73.2585C797.502 73.2585 796.567 73.0949 795.714 72.7676C794.87 72.4403 794.134 71.9579 793.505 71.3205C792.885 70.6745 792.403 69.8864 792.058 68.9562C791.722 68.026 791.554 66.9579 791.554 65.752C791.554 64.15 791.838 62.7934 792.407 61.6823C792.975 60.5712 793.785 59.7271 794.836 59.15C795.887 58.5729 797.14 58.2843 798.595 58.2843C799.948 58.2843 801.145 58.5729 802.187 59.15C803.238 59.7271 804.061 60.5712 804.655 61.6823C805.258 62.7934 805.559 64.15 805.559 65.752ZM795.572 65.752C795.572 66.6995 795.676 67.4962 795.882 68.1422C796.089 68.7882 796.412 69.2749 796.851 69.6022C797.291 69.9295 797.863 70.0931 798.57 70.0931C799.267 70.0931 799.832 69.9295 800.262 69.6022C800.701 69.2749 801.02 68.7882 801.218 68.1422C801.425 67.4962 801.528 66.6995 801.528 65.752C801.528 64.796 801.425 64.0036 801.218 63.3748C801.02 62.7374 800.701 62.2594 800.262 61.9407C799.823 61.622 799.25 61.4626 798.544 61.4626C797.502 61.4626 796.744 61.8201 796.27 62.535C795.805 63.2499 795.572 64.3222 795.572 65.752ZM812.756 52.8967V61.889C812.756 62.4316 812.734 62.9743 812.691 63.5169C812.648 64.0595 812.601 64.6022 812.549 65.1448H812.601C812.868 64.7658 813.139 64.3911 813.415 64.0208C813.699 63.6504 814 63.293 814.319 62.9484L818.363 58.5557H822.807L817.071 64.8218L823.156 73.0001L818.608 73.0001L814.448 67.1474L812.756 68.504V73.0001H808.815V52.8967H812.756ZM831.18 58.2843C832.515 58.2843 833.664 58.5427 834.629 59.0595C835.594 59.5677 836.339 60.3085 836.864 61.2818C837.39 62.2551 837.652 63.4437 837.652 64.8477V66.7598H828.337C828.38 67.8709 828.712 68.7452 829.332 69.3825C829.961 70.0113 830.831 70.3257 831.942 70.3257C832.863 70.3257 833.708 70.231 834.474 70.0415C835.241 69.852 836.029 69.5677 836.838 69.1887V72.2378C836.124 72.591 835.374 72.8494 834.59 73.013C833.815 73.1767 832.872 73.2585 831.761 73.2585C830.314 73.2585 829.031 72.9915 827.911 72.4575C826.8 71.9235 825.925 71.1095 825.288 70.0156C824.659 68.9217 824.345 67.5436 824.345 65.8812C824.345 64.193 824.629 62.7891 825.198 61.6694C825.775 60.541 826.576 59.6969 827.601 59.137C828.626 58.5686 829.819 58.2843 831.18 58.2843ZM831.205 61.088C830.439 61.088 829.801 61.3334 829.293 61.8244C828.794 62.3153 828.505 63.0862 828.428 64.1371H833.957C833.949 63.5514 833.841 63.0303 833.634 62.5737C833.436 62.1172 833.135 61.7555 832.73 61.4885C832.334 61.2215 831.826 61.088 831.205 61.088ZM849.061 58.2843C850.602 58.2843 851.843 58.7064 852.782 59.5505C853.72 60.386 854.19 61.7296 854.19 63.5815V73.0001H850.249V64.5634C850.249 63.5298 850.06 62.7503 849.681 62.2249C849.31 61.6995 848.725 61.4368 847.924 61.4368C846.718 61.4368 845.895 61.8459 845.456 62.6642C845.017 63.4824 844.797 64.6625 844.797 66.2042V73.0001H840.857V58.5557L843.867 58.5557L844.397 60.4032H844.616C844.926 59.9036 845.31 59.4988 845.766 59.1887C846.231 58.8786 846.744 58.6504 847.304 58.504C847.872 58.3575 848.458 58.2843 849.061 58.2843ZM865.43 73.0001V54.1112H869.435V73.0001H865.43ZM883.957 68.7107C883.957 69.6926 883.725 70.5238 883.26 71.2043C882.803 71.8761 882.118 72.3886 881.205 72.7417C880.292 73.0863 879.156 73.2585 877.795 73.2585C876.787 73.2585 875.921 73.1939 875.198 73.0647C874.483 72.9355 873.759 72.7202 873.027 72.4187V69.1629C873.811 69.5161 874.651 69.8089 875.547 70.0415C876.451 70.2654 877.243 70.3774 877.924 70.3774C878.69 70.3774 879.237 70.2654 879.565 70.0415C879.901 69.8089 880.069 69.5074 880.069 69.1371C880.069 68.8959 880 68.6806 879.862 68.4911C879.733 68.293 879.448 68.0733 879.009 67.8322C878.57 67.5824 877.881 67.2594 876.942 66.8632C876.037 66.4842 875.292 66.1009 874.707 65.7133C874.13 65.3257 873.699 64.8692 873.415 64.3438C873.139 63.8098 873.001 63.1336 873.001 62.3153C873.001 60.9803 873.518 59.9768 874.552 59.305C875.594 58.6246 876.985 58.2843 878.725 58.2843C879.621 58.2843 880.473 58.3748 881.283 58.5557C882.101 58.7365 882.941 59.0251 883.802 59.4213L882.614 62.2637C881.899 61.9536 881.223 61.6995 880.585 61.5014C879.957 61.3033 879.315 61.2042 878.66 61.2042C878.083 61.2042 877.648 61.2818 877.355 61.4368C877.062 61.5918 876.916 61.8287 876.916 62.1474C876.916 62.3799 876.989 62.5867 877.136 62.7675C877.291 62.9484 877.584 63.1508 878.014 63.3748C878.454 63.5901 879.095 63.87 879.939 64.2146C880.758 64.5505 881.468 64.9036 882.071 65.274C882.674 65.6358 883.139 66.088 883.466 66.6306C883.794 67.1646 883.957 67.858 883.957 68.7107ZM897.11 68.7107C897.11 69.6926 896.877 70.5238 896.412 71.2043C895.956 71.8761 895.271 72.3886 894.358 72.7417C893.445 73.0863 892.308 73.2585 890.947 73.2585C889.939 73.2585 889.074 73.1939 888.35 73.0647C887.635 72.9355 886.912 72.7202 886.18 72.4187V69.1629C886.963 69.5161 887.803 69.8089 888.699 70.0415C889.603 70.2654 890.396 70.3774 891.076 70.3774C891.843 70.3774 892.39 70.2654 892.717 70.0415C893.053 69.8089 893.221 69.5074 893.221 69.1371C893.221 68.8959 893.152 68.6806 893.014 68.4911C892.885 68.293 892.601 68.0733 892.162 67.8322C891.722 67.5824 891.033 67.2594 890.094 66.8632C889.19 66.4842 888.445 66.1009 887.859 65.7133C887.282 65.3257 886.851 64.8692 886.567 64.3438C886.292 63.8098 886.154 63.1336 886.154 62.3153C886.154 60.9803 886.671 59.9768 887.704 59.305C888.746 58.6246 890.137 58.2843 891.877 58.2843C892.773 58.2843 893.626 58.3748 894.435 58.5557C895.254 58.7365 896.094 59.0251 896.955 59.4213L895.766 62.2637C895.051 61.9536 894.375 61.6995 893.738 61.5014C893.109 61.3033 892.467 61.2042 891.813 61.2042C891.236 61.2042 890.801 61.2818 890.508 61.4368C890.215 61.5918 890.069 61.8287 890.069 62.1474C890.069 62.3799 890.142 62.5867 890.288 62.7675C890.443 62.9484 890.736 63.1508 891.167 63.3748C891.606 63.5901 892.248 63.87 893.092 64.2146C893.91 64.5505 894.621 64.9036 895.224 65.274C895.827 65.6358 896.292 66.088 896.619 66.6306C896.946 67.1646 897.11 67.858 897.11 68.7107ZM913.441 58.5557V73.0001H910.417L909.888 71.1526H909.681C909.371 71.6435 908.983 72.044 908.518 72.3541C908.053 72.6642 907.541 72.8925 906.981 73.0389C906.421 73.1853 905.839 73.2585 905.237 73.2585C904.203 73.2585 903.303 73.0776 902.536 72.7159C901.77 72.3455 901.171 71.7727 900.74 70.9975C900.318 70.2223 900.107 69.2146 900.107 67.9743V58.5557H904.048V66.9924C904.048 68.026 904.233 68.8055 904.603 69.3309C904.974 69.8563 905.564 70.119 906.373 70.119C907.175 70.119 907.803 69.9381 908.26 69.5763C908.716 69.206 909.035 68.6676 909.216 67.9614C909.405 67.2465 909.5 66.3765 909.5 65.3515V58.5557H913.441ZM923.492 58.2585C925.43 58.2585 926.916 58.6805 927.95 59.5246C928.983 60.3687 929.5 61.6521 929.5 63.3748V73.0001H926.748L925.986 71.0363H925.883C925.469 71.5531 925.047 71.9751 924.616 72.3024C924.186 72.6298 923.69 72.8709 923.131 73.026C922.571 73.181 921.89 73.2585 921.089 73.2585C920.237 73.2585 919.47 73.0949 918.79 72.7676C918.118 72.4403 917.588 71.9407 917.2 71.2689C916.813 70.5884 916.619 69.7271 916.619 68.6849C916.619 67.1517 917.157 66.0234 918.234 65.2998C919.311 64.5677 920.926 64.1629 923.079 64.0854L925.585 64.0079V63.3748C925.585 62.6168 925.387 62.0613 924.991 61.7081C924.595 61.355 924.044 61.1784 923.337 61.1784C922.64 61.1784 921.955 61.2774 921.283 61.4756C920.611 61.6737 919.939 61.9234 919.268 62.2249L917.963 59.5634C918.729 59.1586 919.586 58.8399 920.534 58.6073C921.49 58.3748 922.476 58.2585 923.492 58.2585ZM925.585 66.3076L924.061 66.3593C922.786 66.3937 921.899 66.622 921.399 67.044C920.908 67.4661 920.663 68.0216 920.663 68.7107C920.663 69.3136 920.839 69.7443 921.193 70.0027C921.546 70.2525 922.007 70.3774 922.575 70.3774C923.419 70.3774 924.13 70.1276 924.707 69.628C925.293 69.1285 925.585 68.4179 925.585 67.4962V66.3076ZM941.774 58.2843C943.316 58.2843 944.556 58.7064 945.495 59.5505C946.434 60.386 946.903 61.7296 946.903 63.5815V73.0001H942.963V64.5634C942.963 63.5298 942.773 62.7503 942.394 62.2249C942.024 61.6995 941.438 61.4368 940.637 61.4368C939.431 61.4368 938.609 61.8459 938.169 62.6642C937.73 63.4824 937.51 64.6625 937.51 66.2042V73.0001H933.57V58.5557H936.58L937.11 60.4032H937.33C937.64 59.9036 938.023 59.4988 938.479 59.1887C938.945 58.8786 939.457 58.6504 940.017 58.504C940.585 58.3575 941.171 58.2843 941.774 58.2843ZM956.826 73.2585C955.396 73.2585 954.177 73.0001 953.169 72.4833C952.162 71.9579 951.395 71.1483 950.87 70.0544C950.344 68.9605 950.082 67.5608 950.082 65.8554C950.082 64.0897 950.379 62.6513 950.973 61.5402C951.576 60.4204 952.407 59.5979 953.467 59.0724C954.535 58.547 955.771 58.2843 957.175 58.2843C958.174 58.2843 959.035 58.3834 959.759 58.5815C960.491 58.771 961.128 58.9992 961.671 59.2662L960.508 62.3153C959.888 62.0656 959.311 61.8632 958.777 61.7081C958.243 61.5445 957.709 61.4626 957.175 61.4626C956.486 61.4626 955.913 61.6263 955.456 61.9536C955 62.2723 954.66 62.7546 954.436 63.4006C954.212 64.0466 954.1 64.8563 954.1 65.8296C954.1 66.7856 954.22 67.5781 954.461 68.2068C954.703 68.8356 955.051 69.305 955.508 69.6151C955.964 69.9166 956.52 70.0673 957.175 70.0673C957.993 70.0673 958.721 69.9596 959.358 69.7443C959.995 69.5204 960.616 69.2103 961.219 68.8141V72.1862C960.616 72.5652 959.983 72.8365 959.319 73.0001C958.665 73.1724 957.834 73.2585 956.826 73.2585ZM970.534 58.2843C971.869 58.2843 973.019 58.5427 973.983 59.0595C974.948 59.5677 975.693 60.3085 976.219 61.2818C976.744 62.2551 977.007 63.4437 977.007 64.8477V66.7598H967.691C967.734 67.8709 968.066 68.7452 968.686 69.3825C969.315 70.0113 970.185 70.3257 971.296 70.3257C972.218 70.3257 973.062 70.231 973.828 70.0415C974.595 69.852 975.383 69.5677 976.193 69.1887V72.2378C975.478 72.591 974.728 72.8494 973.945 73.013C973.169 73.1767 972.226 73.2585 971.115 73.2585C969.668 73.2585 968.385 72.9915 967.265 72.4575C966.154 71.9235 965.28 71.1095 964.642 70.0156C964.014 68.9217 963.699 67.5436 963.699 65.8812C963.699 64.193 963.983 62.7891 964.552 61.6694C965.129 60.541 965.93 59.6969 966.955 59.137C967.98 58.5686 969.173 58.2843 970.534 58.2843ZM970.56 61.088C969.793 61.088 969.156 61.3334 968.647 61.8244C968.148 62.3153 967.859 63.0862 967.782 64.1371H973.312C973.303 63.5514 973.195 63.0303 972.989 62.5737C972.79 62.1172 972.489 61.7555 972.084 61.4885C971.688 61.2215 971.18 61.088 970.56 61.088Z" fill="#FBFBFB"/>
<rect x="996.996" y="43.2621" width="54.7287" height="31.2687" rx="15.6344" fill="#F7931A" fill-opacity="0.1"/>
<rect x="996.996" y="43.2621" width="54.7287" height="31.2687" rx="15.6344" stroke="#F7931A" stroke-width="0.55125"/>
<path d="M1024.22 53.5909L1019.98 65.3964H1018.6L1014.36 53.5909H1015.8L1018.56 61.367C1018.67 61.6793 1018.77 61.9781 1018.86 62.2634C1018.95 62.5487 1019.03 62.8232 1019.1 63.087C1019.17 63.3508 1019.23 63.6065 1019.29 63.8541C1019.34 63.6065 1019.4 63.3508 1019.47 63.087C1019.54 62.8178 1019.62 62.5406 1019.71 62.2553C1019.81 61.9646 1019.91 61.6604 1020.02 61.3428L1022.77 53.5909H1024.22ZM1032.34 56.3444C1032.34 56.872 1032.24 57.3296 1032.04 57.7172C1031.83 58.1048 1031.55 58.4224 1031.18 58.67C1030.81 58.9123 1030.38 59.0818 1029.89 59.1787V59.2433C1030.83 59.3618 1031.53 59.6632 1032 60.1477C1032.47 60.6322 1032.71 61.2675 1032.71 62.0534C1032.71 62.7371 1032.55 63.3427 1032.22 63.8703C1031.9 64.3978 1031.41 64.8124 1030.75 65.1138C1030.1 65.4099 1029.25 65.5579 1028.22 65.5579C1027.6 65.5579 1027.02 65.5068 1026.49 65.4045C1025.96 65.3076 1025.46 65.1434 1024.97 64.9119V63.6523C1025.46 63.8945 1025.99 64.0856 1026.57 64.2256C1027.15 64.3602 1027.7 64.4275 1028.24 64.4275C1029.32 64.4275 1030.1 64.2148 1030.57 63.7895C1031.05 63.3589 1031.29 62.7721 1031.29 62.0292C1031.29 61.5178 1031.16 61.106 1030.89 60.7937C1030.63 60.4761 1030.24 60.2446 1029.74 60.0993C1029.25 59.9485 1028.65 59.8732 1027.95 59.8732H1026.77V58.7265H1027.96C1028.6 58.7265 1029.14 58.6323 1029.59 58.4439C1030.04 58.2555 1030.38 57.9917 1030.61 57.6526C1030.84 57.308 1030.96 56.9016 1030.96 56.4333C1030.96 55.8357 1030.76 55.3754 1030.36 55.0524C1029.97 54.7241 1029.43 54.5599 1028.74 54.5599C1028.32 54.5599 1027.94 54.6029 1027.6 54.6891C1027.25 54.7752 1026.93 54.8936 1026.63 55.0444C1026.32 55.1951 1026.02 55.37 1025.72 55.5692L1025.04 54.6487C1025.47 54.3149 1026 54.0269 1026.62 53.7847C1027.24 53.5424 1027.94 53.4213 1028.73 53.4213C1029.93 53.4213 1030.84 53.6958 1031.44 54.2449C1032.04 54.794 1032.34 55.4939 1032.34 56.3444Z" fill="white"/>
<path d="M144.298 21.889L148.239 14.1112H152.554L146.288 25.6487V33.0001H142.309V25.7779L136.042 14.1112H140.384L144.298 21.889ZM158.562 18.5557V33.0001H154.621V18.5557H158.562ZM156.598 12.8967C157.184 12.8967 157.688 13.0345 158.11 13.3102C158.532 13.5772 158.743 14.0811 158.743 14.8218C158.743 15.5539 158.532 16.0621 158.11 16.3463C157.688 16.622 157.184 16.7598 156.598 16.7598C156.004 16.7598 155.496 16.622 155.074 16.3463C154.66 16.0621 154.453 15.5539 154.453 14.8218C154.453 14.0811 154.66 13.5772 155.074 13.3102C155.496 13.0345 156.004 12.8967 156.598 12.8967ZM168.665 18.2843C170 18.2843 171.15 18.5427 172.115 19.0595C173.08 19.5677 173.825 20.3085 174.35 21.2818C174.875 22.2551 175.138 23.4437 175.138 24.8477V26.7598L165.823 26.7598C165.866 27.8709 166.198 28.7452 166.818 29.3825C167.447 30.0113 168.316 30.3257 169.428 30.3257C170.349 30.3257 171.193 30.231 171.96 30.0415C172.726 29.852 173.515 29.5677 174.324 29.1887V32.2378C173.609 32.591 172.86 32.8494 172.076 33.013C171.301 33.1767 170.358 33.2585 169.247 33.2585C167.8 33.2585 166.516 32.9915 165.397 32.4575C164.285 31.9235 163.411 31.1095 162.774 30.0156C162.145 28.9217 161.831 27.5436 161.831 25.8812C161.831 24.193 162.115 22.7891 162.683 21.6694C163.26 20.541 164.061 19.6969 165.086 19.137C166.111 18.5686 167.304 18.2843 168.665 18.2843ZM168.691 21.088C167.925 21.088 167.287 21.3334 166.779 21.8244C166.279 22.3153 165.991 23.0862 165.913 24.1371L171.443 24.1371C171.434 23.5514 171.327 23.0303 171.12 22.5737C170.922 22.1172 170.62 21.7555 170.216 21.4885C169.819 21.2215 169.311 21.088 168.691 21.088ZM182.283 33.0001H178.342V12.8967H182.283V33.0001ZM191.004 33.2585C189.393 33.2585 188.08 32.6298 187.063 31.3722C186.055 30.1061 185.552 28.2499 185.552 25.8037C185.552 23.3317 186.064 21.4626 187.089 20.1965C188.114 18.9217 189.453 18.2843 191.107 18.2843C191.796 18.2843 192.403 18.3791 192.929 18.5686C193.454 18.7581 193.906 19.0122 194.285 19.3308C194.673 19.6495 195 20.007 195.267 20.4032H195.397C195.345 20.1276 195.28 19.7228 195.203 19.1887C195.134 18.6461 195.099 18.0905 195.099 17.5221V12.8967L199.053 12.8967V33.0001H196.03L195.267 31.1267H195.099C194.85 31.5229 194.535 31.8847 194.156 32.212C193.786 32.5307 193.342 32.7848 192.826 32.9743C192.309 33.1638 191.701 33.2585 191.004 33.2585ZM192.386 30.119C193.463 30.119 194.221 29.8003 194.66 29.1629C195.108 28.5169 195.345 27.5479 195.371 26.2559V25.8296C195.371 24.4256 195.155 23.3532 194.725 22.6125C194.294 21.8632 193.493 21.4885 192.322 21.4885C191.452 21.4885 190.771 21.8632 190.28 22.6125C189.789 23.3619 189.544 24.4428 189.544 25.8554C189.544 27.268 189.789 28.3317 190.28 29.0466C190.78 29.7615 191.482 30.119 192.386 30.119ZM213.484 33.0001L207.981 18.5557H212.102L214.893 26.7856C215.048 27.268 215.168 27.7762 215.255 28.3102C215.349 28.8442 215.414 29.3223 215.448 29.7443H215.552C215.578 29.2878 215.638 28.8011 215.733 28.2844C215.836 27.7676 215.969 27.268 216.133 26.7856L218.911 18.5557H223.032L217.528 33.0001H213.484ZM229.053 18.5557V33.0001H225.112V18.5557H229.053ZM227.089 12.8967C227.675 12.8967 228.179 13.0345 228.601 13.3102C229.023 13.5772 229.234 14.0811 229.234 14.8218C229.234 15.5539 229.023 16.0621 228.601 16.3463C228.179 16.622 227.675 16.7598 227.089 16.7598C226.495 16.7598 225.987 16.622 225.565 16.3463C225.151 16.0621 224.944 15.5539 224.944 14.8218C224.944 14.0811 225.151 13.5772 225.565 13.3102C225.987 13.0345 226.495 12.8967 227.089 12.8967ZM239.118 18.2585C241.056 18.2585 242.541 18.6805 243.575 19.5246C244.609 20.3687 245.125 21.6521 245.125 23.3748V33.0001H242.373L241.611 31.0363H241.508C241.094 31.5531 240.672 31.9751 240.242 32.3024C239.811 32.6298 239.316 32.8709 238.756 33.026C238.196 33.181 237.516 33.2585 236.715 33.2585C235.862 33.2585 235.095 33.0949 234.415 32.7676C233.743 32.4403 233.213 31.9407 232.826 31.2689C232.438 30.5884 232.244 29.7271 232.244 28.6849C232.244 27.1517 232.783 26.0234 233.859 25.2998C234.936 24.5677 236.551 24.1629 238.704 24.0854L241.211 24.0079V23.3748C241.211 22.6168 241.013 22.0613 240.616 21.7081C240.22 21.355 239.669 21.1784 238.963 21.1784C238.265 21.1784 237.58 21.2774 236.908 21.4756C236.236 21.6737 235.565 21.9234 234.893 22.2249L233.588 19.5634C234.354 19.1586 235.211 18.8399 236.159 18.6073C237.115 18.3748 238.101 18.2585 239.118 18.2585ZM241.211 26.3076L239.686 26.3593C238.411 26.3937 237.524 26.622 237.025 27.044C236.534 27.4661 236.288 28.0216 236.288 28.7107C236.288 29.3136 236.465 29.7443 236.818 30.0027C237.171 30.2525 237.632 30.3774 238.2 30.3774C239.044 30.3774 239.755 30.1276 240.332 29.628C240.918 29.1285 241.211 28.4179 241.211 27.4962V26.3076ZM138.42 54.1112H144.298C146.813 54.1112 148.717 54.4643 150.009 55.1706C151.301 55.8769 151.947 57.1172 151.947 58.8916C151.947 59.6065 151.831 60.2525 151.598 60.8296C151.374 61.4066 151.047 61.8804 150.616 62.2507C150.185 62.6211 149.66 62.8623 149.04 62.9743V63.1035C149.669 63.2327 150.237 63.4566 150.745 63.7753C151.254 64.0854 151.658 64.5419 151.96 65.1448C152.27 65.7391 152.425 66.5315 152.425 67.5221C152.425 68.6676 152.145 69.6496 151.585 70.4678C151.025 71.2861 150.224 71.9148 149.182 72.3541C148.148 72.7848 146.917 73.0001 145.487 73.0001H138.42V54.1112ZM142.425 61.5918H144.751C145.913 61.5918 146.719 61.411 147.167 61.0492C147.614 60.6788 147.838 60.1362 147.838 59.4213C147.838 58.6978 147.571 58.181 147.037 57.8709C146.512 57.5522 145.676 57.3929 144.531 57.3929H142.425V61.5918ZM142.425 64.7701V69.6926H145.035C146.241 69.6926 147.08 69.4601 147.554 68.9949C148.028 68.5298 148.265 67.9054 148.265 67.1216C148.265 66.6564 148.161 66.2473 147.955 65.8942C147.748 65.541 147.399 65.2654 146.908 65.0673C146.426 64.8692 145.758 64.7701 144.906 64.7701H142.425ZM159.828 58.5557V73.0001H155.887V58.5557L159.828 58.5557ZM157.864 52.8967C158.45 52.8967 158.954 53.0345 159.376 53.3102C159.798 53.5772 160.009 54.0811 160.009 54.8218C160.009 55.5539 159.798 56.0621 159.376 56.3463C158.954 56.622 158.45 56.7598 157.864 56.7598C157.27 56.7598 156.762 56.622 156.34 56.3463C155.926 56.0621 155.72 55.5539 155.72 54.8218C155.72 54.0811 155.926 53.5772 156.34 53.3102C156.762 53.0345 157.27 52.8967 157.864 52.8967ZM170.061 70.119C170.491 70.119 170.909 70.0759 171.314 69.9898C171.727 69.9036 172.136 69.796 172.541 69.6668V72.5996C172.119 72.7891 171.594 72.9441 170.965 73.0647C170.345 73.1939 169.664 73.2585 168.924 73.2585C168.062 73.2585 167.287 73.1207 166.598 72.8451C165.918 72.5608 165.379 72.0742 164.983 71.3851C164.596 70.6875 164.402 69.7185 164.402 68.4781V61.5143H162.515V59.8476L164.686 58.5298L165.823 55.4807H168.342V58.5557H172.386V61.5143H168.342V68.4781C168.342 69.0294 168.497 69.4428 168.807 69.7185C169.126 69.9855 169.544 70.119 170.061 70.119ZM181.34 73.2585C179.91 73.2585 178.691 73.0001 177.683 72.4833C176.676 71.9579 175.909 71.1483 175.384 70.0544C174.858 68.9605 174.596 67.5608 174.596 65.8554C174.596 64.0897 174.893 62.6513 175.487 61.5402C176.09 60.4204 176.921 59.5979 177.981 59.0724C179.049 58.547 180.285 58.2843 181.689 58.2843C182.688 58.2843 183.549 58.3834 184.273 58.5815C185.005 58.771 185.642 58.9992 186.185 59.2662L185.022 62.3153C184.402 62.0656 183.825 61.8632 183.291 61.7081C182.757 61.5445 182.223 61.4626 181.689 61.4626C180.999 61.4626 180.427 61.6263 179.97 61.9536C179.514 62.2723 179.173 62.7546 178.95 63.4006C178.726 64.0466 178.614 64.8563 178.614 65.8296C178.614 66.7856 178.734 67.5781 178.975 68.2068C179.217 68.8356 179.565 69.305 180.022 69.6151C180.478 69.9166 181.034 70.0673 181.689 70.0673C182.507 70.0673 183.235 69.9596 183.872 69.7443C184.509 69.5204 185.13 69.2103 185.732 68.8141V72.1862C185.13 72.5652 184.496 72.8365 183.833 73.0001C183.179 73.1724 182.347 73.2585 181.34 73.2585ZM202.218 65.752C202.218 66.9579 202.055 68.026 201.727 68.9562C201.409 69.8864 200.939 70.6745 200.319 71.3205C199.708 71.9579 198.967 72.4403 198.097 72.7676C197.236 73.0949 196.262 73.2585 195.177 73.2585C194.161 73.2585 193.226 73.0949 192.373 72.7676C191.529 72.4403 190.793 71.9579 190.164 71.3205C189.544 70.6745 189.062 69.8864 188.717 68.9562C188.381 68.026 188.213 66.9579 188.213 65.752C188.213 64.15 188.497 62.7934 189.066 61.6823C189.634 60.5712 190.444 59.7271 191.495 59.15C192.546 58.5729 193.799 58.2843 195.254 58.2843C196.607 58.2843 197.804 58.5729 198.846 59.15C199.897 59.7271 200.72 60.5712 201.314 61.6823C201.917 62.7934 202.218 64.15 202.218 65.752ZM192.231 65.752C192.231 66.6995 192.335 67.4962 192.541 68.1422C192.748 68.7882 193.071 69.2749 193.51 69.6022C193.95 69.9295 194.522 70.0931 195.229 70.0931C195.926 70.0931 196.49 69.9295 196.921 69.6022C197.36 69.2749 197.679 68.7882 197.877 68.1422C198.084 67.4962 198.187 66.6995 198.187 65.752C198.187 64.796 198.084 64.0036 197.877 63.3748C197.679 62.7374 197.36 62.2594 196.921 61.9407C196.482 61.622 195.909 61.4626 195.203 61.4626C194.161 61.4626 193.403 61.8201 192.929 62.535C192.464 63.2499 192.231 64.3222 192.231 65.752ZM209.415 58.5557V73.0001H205.474V58.5557H209.415ZM207.451 52.8967C208.037 52.8967 208.54 53.0345 208.963 53.3102C209.385 53.5772 209.596 54.0811 209.596 54.8218C209.596 55.5539 209.385 56.0621 208.963 56.3463C208.54 56.622 208.037 56.7598 207.451 56.7598C206.857 56.7598 206.348 56.622 205.926 56.3463C205.513 56.0621 205.306 55.5539 205.306 54.8218C205.306 54.0811 205.513 53.5772 205.926 53.3102C206.348 53.0345 206.857 52.8967 207.451 52.8967ZM221.766 58.2843C223.308 58.2843 224.548 58.7064 225.487 59.5505C226.426 60.386 226.895 61.7296 226.895 63.5815V73.0001H222.955V64.5634C222.955 63.5298 222.765 62.7503 222.386 62.2249C222.016 61.6995 221.43 61.4368 220.629 61.4368C219.423 61.4368 218.601 61.8459 218.161 62.6642C217.722 63.4824 217.503 64.6625 217.503 66.2042V73.0001H213.562V58.5557H216.572L217.102 60.4032H217.322C217.632 59.9036 218.015 59.4988 218.472 59.1887C218.937 58.8786 219.449 58.6504 220.009 58.504C220.578 58.3575 221.163 58.2843 221.766 58.2843ZM249.286 67.7546C249.286 68.8744 249.014 69.8477 248.472 70.6745C247.929 71.5014 247.137 72.1388 246.094 72.5867C245.061 73.0346 243.803 73.2585 242.322 73.2585C241.667 73.2585 241.025 73.2155 240.397 73.1293C239.777 73.0432 239.178 72.9183 238.601 72.7546C238.032 72.5824 237.49 72.3714 236.973 72.1216V68.4006C237.869 68.7968 238.799 69.1543 239.764 69.473C240.728 69.7917 241.684 69.951 242.632 69.951C243.286 69.951 243.812 69.8649 244.208 69.6926C244.613 69.5204 244.906 69.2835 245.087 68.982C245.267 68.6806 245.358 68.336 245.358 67.9484C245.358 67.4747 245.199 67.0699 244.88 66.734C244.561 66.398 244.122 66.0837 243.562 65.7908C243.011 65.498 242.386 65.1836 241.689 64.8477C241.249 64.6409 240.771 64.3911 240.255 64.0983C239.738 63.7968 239.247 63.4308 238.782 63.0001C238.317 62.5694 237.933 62.0483 237.632 61.4368C237.339 60.8166 237.193 60.0759 237.193 59.2146C237.193 58.0862 237.451 57.1215 237.968 56.3205C238.485 55.5195 239.221 54.9079 240.177 54.4859C241.142 54.0552 242.279 53.8399 243.588 53.8399C244.57 53.8399 245.504 53.9562 246.392 54.1887C247.287 54.4127 248.222 54.74 249.195 55.1706L247.903 58.2843C247.033 57.9312 246.254 57.6599 245.565 57.4704C244.876 57.2723 244.174 57.1732 243.459 57.1732C242.959 57.1732 242.533 57.255 242.18 57.4187C241.826 57.5737 241.559 57.7977 241.379 58.0905C241.198 58.3748 241.107 58.7064 241.107 59.0854C241.107 59.5333 241.236 59.9122 241.495 60.2223C241.762 60.5238 242.158 60.8166 242.684 61.1009C243.218 61.3851 243.881 61.7167 244.673 62.0957C245.638 62.5522 246.46 63.0303 247.141 63.5298C247.83 64.0208 248.36 64.6022 248.73 65.274C249.1 65.9372 249.286 66.7641 249.286 67.7546ZM258.485 70.119C258.915 70.119 259.333 70.0759 259.738 69.9898C260.151 69.9036 260.56 69.796 260.965 69.6668V72.5996C260.543 72.7891 260.018 72.9441 259.389 73.0647C258.769 73.1939 258.088 73.2585 257.348 73.2585C256.486 73.2585 255.711 73.1207 255.022 72.8451C254.342 72.5608 253.803 72.0742 253.407 71.3851C253.019 70.6875 252.826 69.7185 252.826 68.4781V61.5143H250.939V59.8476L253.11 58.5298L254.247 55.4807H256.766V58.5557H260.81V61.5143H256.766V68.4781C256.766 69.0294 256.921 69.4428 257.231 69.7185C257.55 69.9855 257.968 70.119 258.485 70.119ZM269.815 58.2585C271.753 58.2585 273.239 58.6805 274.273 59.5246C275.306 60.3687 275.823 61.6521 275.823 63.3748V73.0001H273.071L272.309 71.0363H272.206C271.792 71.5531 271.37 71.9751 270.939 72.3024C270.509 72.6298 270.013 72.8709 269.454 73.026C268.894 73.181 268.213 73.2585 267.412 73.2585C266.56 73.2585 265.793 73.0949 265.112 72.7676C264.441 72.4403 263.911 71.9407 263.523 71.2689C263.136 70.5884 262.942 69.7271 262.942 68.6849C262.942 67.1517 263.48 66.0234 264.557 65.2998C265.634 64.5677 267.249 64.1629 269.402 64.0854L271.908 64.0079V63.3748C271.908 62.6168 271.71 62.0613 271.314 61.7081C270.918 61.355 270.367 61.1784 269.66 61.1784C268.963 61.1784 268.278 61.2774 267.606 61.4756C266.934 61.6737 266.262 61.9234 265.591 62.2249L264.286 59.5634C265.052 59.1586 265.909 58.8399 266.857 58.6073C267.813 58.3748 268.799 58.2585 269.815 58.2585ZM271.908 66.3076L270.384 66.3593C269.109 66.3937 268.222 66.622 267.722 67.044C267.231 67.4661 266.986 68.0216 266.986 68.7107C266.986 69.3136 267.162 69.7443 267.516 70.0027C267.869 70.2525 268.33 70.3774 268.898 70.3774C269.742 70.3774 270.453 70.1276 271.03 69.628C271.616 69.1285 271.908 68.4179 271.908 67.4962V66.3076ZM283.833 52.8967V61.889C283.833 62.4316 283.812 62.9743 283.769 63.5169C283.726 64.0595 283.678 64.6022 283.627 65.1448H283.678C283.945 64.7658 284.217 64.3911 284.492 64.0208C284.777 63.6504 285.078 63.293 285.397 62.9484L289.441 58.5557L293.885 58.5557L288.149 64.8218L294.234 73.0001H289.686L285.526 67.1474L283.833 68.504V73.0001H279.893V52.8967H283.833ZM300.242 58.5557V73.0001H296.301V58.5557H300.242ZM298.278 52.8967C298.864 52.8967 299.368 53.0345 299.79 53.3102C300.212 53.5772 300.423 54.0811 300.423 54.8218C300.423 55.5539 300.212 56.0621 299.79 56.3463C299.368 56.622 298.864 56.7598 298.278 56.7598C297.684 56.7598 297.175 56.622 296.753 56.3463C296.34 56.0621 296.133 55.5539 296.133 54.8218C296.133 54.0811 296.34 53.5772 296.753 53.3102C297.175 53.0345 297.684 52.8967 298.278 52.8967ZM312.593 58.2843C314.135 58.2843 315.375 58.7064 316.314 59.5505C317.253 60.386 317.722 61.7296 317.722 63.5815V73.0001H313.782V64.5634C313.782 63.5298 313.592 62.7503 313.213 62.2249C312.843 61.6995 312.257 61.4368 311.456 61.4368C310.25 61.4368 309.428 61.8459 308.989 62.6642C308.549 63.4824 308.33 64.6625 308.33 66.2042V73.0001H304.389V58.5557H307.399L307.929 60.4032H308.149C308.459 59.9036 308.842 59.4988 309.299 59.1887C309.764 58.8786 310.276 58.6504 310.836 58.504C311.405 58.3575 311.99 58.2843 312.593 58.2843ZM326.004 79.3567C323.989 79.3567 322.447 79.0036 321.379 78.2973C320.319 77.5996 319.79 76.6177 319.79 75.3515C319.79 74.4816 320.061 73.7538 320.604 73.1681C321.146 72.5824 321.943 72.1646 322.994 71.9148C322.589 71.7426 322.236 71.4627 321.934 71.0751C321.633 70.6788 321.482 70.2611 321.482 69.8218C321.482 69.2706 321.641 68.8141 321.96 68.4523C322.279 68.0819 322.74 67.7202 323.343 67.367C322.585 67.0397 321.982 66.5143 321.534 65.7908C321.094 65.0673 320.875 64.2146 320.875 63.2327C320.875 62.1818 321.103 61.2904 321.56 60.5582C322.025 59.8175 322.697 59.2533 323.575 58.8657C324.462 58.4781 325.539 58.2843 326.805 58.2843C327.072 58.2843 327.382 58.3016 327.735 58.336C328.088 58.3705 328.411 58.4092 328.704 58.4523C329.006 58.4954 329.208 58.5298 329.312 58.5557H334.35V60.5582L332.089 61.1396C332.296 61.4583 332.451 61.7986 332.554 62.1603C332.658 62.5221 332.71 62.9054 332.71 63.3102C332.71 64.8606 332.167 66.0707 331.082 66.9407C330.005 67.802 328.506 68.2327 326.585 68.2327C326.129 68.2068 325.698 68.1724 325.293 68.1293C325.095 68.2844 324.945 68.448 324.841 68.6203C324.738 68.7925 324.686 68.9734 324.686 69.1629C324.686 69.3524 324.764 69.5117 324.919 69.6409C325.082 69.7615 325.324 69.8563 325.642 69.9252C325.97 69.9855 326.374 70.0156 326.857 70.0156H329.312C330.896 70.0156 332.102 70.3558 332.929 71.0363C333.765 71.7167 334.182 72.7159 334.182 74.0337C334.182 75.7219 333.476 77.0311 332.064 77.9614C330.66 78.8916 328.64 79.3567 326.004 79.3567ZM326.172 76.7857C327.111 76.7857 327.916 76.6952 328.588 76.5143C329.269 76.3421 329.79 76.0923 330.151 75.765C330.513 75.4463 330.694 75.063 330.694 74.6151C330.694 74.2534 330.586 73.9648 330.371 73.7495C330.164 73.5428 329.846 73.3963 329.415 73.3102C328.993 73.2241 328.45 73.181 327.787 73.181H325.746C325.263 73.181 324.828 73.2585 324.441 73.4136C324.062 73.5686 323.76 73.7839 323.536 74.0596C323.312 74.3438 323.2 74.6711 323.2 75.0415C323.2 75.5841 323.459 76.0105 323.976 76.3205C324.501 76.6306 325.233 76.7857 326.172 76.7857ZM326.805 65.8296C327.546 65.8296 328.088 65.6013 328.433 65.1448C328.778 64.6883 328.95 64.0682 328.95 63.2843C328.95 62.4144 328.769 61.7641 328.407 61.3334C328.054 60.8942 327.52 60.6745 326.805 60.6745C326.082 60.6745 325.539 60.8942 325.177 61.3334C324.815 61.7641 324.635 62.4144 324.635 63.2843C324.635 64.0682 324.811 64.6883 325.164 65.1448C325.526 65.6013 326.073 65.8296 326.805 65.8296Z" fill="#FBFBFB"/>
<rect x="351.305" y="49.0668" width="54.7287" height="31.2687" rx="15.6344" fill="#F7931A" fill-opacity="0.1"/>
<rect x="351.305" y="49.0668" width="54.7287" height="31.2687" rx="15.6344" stroke="#F7931A" stroke-width="0.55125"/>
<path d="M378.529 59.3956L374.289 71.2011H372.909L368.669 59.3956H370.107L372.868 67.1717C372.981 67.484 373.081 67.7827 373.167 68.0681C373.259 68.3534 373.339 68.6279 373.409 68.8917C373.479 69.1555 373.541 69.4112 373.595 69.6588C373.649 69.4112 373.711 69.1555 373.781 68.8917C373.851 68.6225 373.931 68.3453 374.023 68.06C374.115 67.7693 374.217 67.4651 374.33 67.1475L377.075 59.3956H378.529ZM387.088 71.2011H379.352V70.0787L382.51 66.873C383.097 66.2808 383.589 65.7532 383.987 65.2903C384.391 64.8273 384.698 64.3724 384.908 63.9256C385.118 63.4734 385.223 62.9781 385.223 62.4398C385.223 61.7723 385.024 61.2636 384.625 60.9136C384.232 60.5583 383.713 60.3807 383.067 60.3807C382.502 60.3807 382.001 60.4776 381.565 60.6714C381.129 60.8652 380.682 61.1397 380.225 61.495L379.506 60.5906C379.818 60.3269 380.157 60.0927 380.523 59.8881C380.895 59.6836 381.29 59.5221 381.71 59.4036C382.136 59.2852 382.588 59.226 383.067 59.226C383.794 59.226 384.421 59.3525 384.948 59.6055C385.476 59.8585 385.882 60.2192 386.168 60.6875C386.458 61.1559 386.604 61.7131 386.604 62.3591C386.604 62.9835 386.48 63.5649 386.232 64.1033C385.985 64.6362 385.637 65.1665 385.191 65.694C384.744 66.2162 384.222 66.7707 383.624 67.3575L381.056 69.9172V69.9737H387.088V71.2011Z" fill="white"/>
<g clip-path="url(#clip0_3311_12097)">
<path fill-rule="evenodd" clip-rule="evenodd" d="M261.796 18.3362C263.572 12.8944 268.804 8.95199 274.981 8.95199C282.621 8.95199 288.814 14.9824 288.814 22.4211C288.814 29.3314 283.47 35.0263 276.586 35.8005V31.5589C279.604 31.0611 282.138 29.1823 283.48 26.6139H279.647C278.487 27.8354 276.827 28.6002 274.983 28.6002C271.476 28.6002 268.633 25.8338 268.633 22.4211C268.633 19.0085 271.476 16.2422 274.983 16.2422C276.881 16.2422 278.586 17.0531 279.749 18.3387H283.536C281.985 15.2667 278.737 13.1526 274.983 13.1526C269.722 13.1526 265.458 17.3023 265.458 22.4211C265.458 27.0143 268.891 30.8273 273.397 31.5618V35.8028C267.963 35.1997 263.485 31.5308 261.832 26.6164H258.524C260.431 33.7309 267.077 38.9813 274.981 38.9813C284.374 38.9813 291.989 31.5672 291.989 22.4211C291.989 13.2751 284.374 5.86074 274.981 5.86074C267.036 5.86062 260.363 11.1656 258.495 18.3362H261.796ZM307.746 28.5151H304.042V23.1849L305.099 23.1331H307.317C308.462 23.1159 309.347 23.3595 309.973 23.8646C310.618 24.3523 310.94 25.0315 310.94 25.9025C310.94 26.7037 310.653 27.3393 310.081 27.8096C309.508 28.2798 308.73 28.5151 307.746 28.5151ZM311.316 21.7783C311.82 21.4535 312.241 21.0778 312.577 20.6513C313.185 19.885 313.489 19.0228 313.489 18.0649C313.489 16.9328 313.23 15.9923 312.711 15.2436C312.192 14.4771 311.458 13.9024 310.51 13.5192C309.58 13.1186 308.47 12.9183 307.182 12.9183L304.042 12.9529V12.9444H300.983V31.2319H307.987C309.24 31.2319 310.322 31.0316 311.235 30.631C312.147 30.2305 312.854 29.6471 313.355 28.8807C313.856 28.1144 314.107 27.1913 314.107 26.1114C314.107 24.8749 313.767 23.8646 313.087 23.081C312.627 22.5513 312.037 22.117 311.316 21.7783ZM304.042 15.4262H307.021C308.059 15.4089 308.864 15.6267 309.437 16.0794C310.027 16.5323 310.322 17.1767 310.322 18.0126C310.322 18.8312 310.063 19.4756 309.544 19.9458C309.043 20.3987 308.345 20.6253 307.451 20.6253H304.042V15.4262ZM326.25 29.8396L326.326 31.2319H329.144L329.224 24.0738C329.224 22.7152 329.01 21.5746 328.58 20.6513C328.151 19.7282 327.498 19.0317 326.621 18.5615C325.762 18.091 324.68 17.856 323.373 17.856C322.354 17.856 321.468 18.0042 320.716 18.3002C319.983 18.5963 319.375 18.9967 318.892 19.502C318.408 20.0069 318.015 20.5468 317.711 21.1216L320.448 22.062C320.77 21.5223 321.173 21.1216 321.656 20.8603C322.139 20.599 322.694 20.4685 323.32 20.4685C324 20.4685 324.545 20.6253 324.957 20.9387C325.386 21.2522 325.7 21.7051 325.896 22.2973C326.001 22.6124 326.078 22.9694 326.127 23.3684H322.783C321.101 23.3684 319.786 23.7255 318.838 24.4395C317.907 25.1536 317.442 26.1898 317.442 27.5484C317.442 28.8197 317.881 29.804 318.757 30.5004C319.652 31.1971 320.904 31.5455 322.515 31.5455C324.143 31.5455 325.341 31.0404 326.111 30.0302C326.159 29.9678 326.205 29.9042 326.25 29.8396ZM326.192 25.8242V25.6152H323.749C322.55 25.6152 321.71 25.7806 321.226 26.1115C320.743 26.425 320.502 26.878 320.502 27.47C320.502 27.9751 320.708 28.3757 321.119 28.6718C321.548 28.9504 322.139 29.0897 322.89 29.0897C323.552 29.0897 324.125 28.9418 324.608 28.6455C325.109 28.3322 325.494 27.9316 325.762 27.4438C326.048 26.9388 326.192 26.399 326.192 25.8242ZM333.612 31.2319V12.9444H336.617V20.0771C336.979 19.5278 337.417 19.0747 337.933 18.7179C338.756 18.1431 339.731 17.8558 340.858 17.8558C342.075 17.8558 343.13 18.1431 344.025 18.7179C344.937 19.2752 345.644 20.0677 346.145 21.0953C346.664 22.1054 346.923 23.3071 346.923 24.7005C346.923 26.0764 346.664 27.2782 346.145 28.3057C345.644 29.3335 344.937 30.1345 344.025 30.7094C343.13 31.2668 342.075 31.5452 340.858 31.5452C339.731 31.5452 338.756 31.2668 337.933 30.7094C337.402 30.3307 336.953 29.8538 336.586 29.2785L336.457 31.2317H333.612V31.2319ZM337.047 26.8692C336.761 26.242 336.617 25.5193 336.617 24.7007C336.617 23.8822 336.761 23.1595 337.047 22.5323C337.351 21.9054 337.772 21.4176 338.308 21.0693C338.845 20.7209 339.453 20.5468 340.133 20.5468C340.867 20.5468 341.511 20.7209 342.066 21.0693C342.62 21.4176 343.05 21.9054 343.354 22.5323C343.676 23.1595 343.837 23.8822 343.837 24.7007C343.837 25.5193 343.667 26.242 343.327 26.8692C343.005 27.4962 342.567 27.9925 342.012 28.3582C341.457 28.7066 340.822 28.8807 340.106 28.8807C339.426 28.8807 338.818 28.7066 338.282 28.3582C337.763 27.9925 337.351 27.4962 337.047 26.8692ZM351.008 36.5354C351.545 36.6922 352.028 36.7706 352.457 36.7706C353.352 36.7706 354.085 36.5964 354.658 36.2481C355.23 35.9172 355.704 35.4382 356.08 34.8111C356.474 34.1842 356.858 33.4527 357.234 32.6166L363.461 18.1695H360.186L356.211 27.8327L352.108 18.1695H348.834L354.8 31.132L354.067 32.7995C353.888 33.2174 353.647 33.531 353.343 33.74C353.056 33.9664 352.698 34.0796 352.269 34.0796C352.09 34.0796 351.858 34.0275 351.571 33.9229C351.285 33.8358 350.972 33.7139 350.632 33.5571L349.505 35.9345C349.986 36.1778 350.489 36.3789 351.008 36.5354ZM366.593 31.2319V12.9444H369.598V31.2318H366.593V31.2319ZM376.853 30.6834C377.908 31.2582 379.107 31.5455 380.449 31.5455C381.773 31.5455 382.955 31.2582 383.992 30.6834C385.03 30.0913 385.835 29.2814 386.408 28.2539C386.98 27.2261 387.267 26.0418 387.267 24.7007C387.267 23.3596 386.971 22.1754 386.38 21.1478C385.808 20.1201 385.003 19.319 383.965 18.7442C382.927 18.1521 381.737 17.856 380.396 17.856C379.054 17.856 377.864 18.1521 376.826 18.7442C375.788 19.319 374.975 20.1201 374.384 21.1478C373.811 22.1754 373.525 23.3596 373.525 24.7007C373.525 26.0418 373.82 27.2261 374.411 28.2539C375.001 29.2814 375.816 30.0913 376.853 30.6834ZM382.409 28.3322C381.836 28.6805 381.183 28.8547 380.449 28.8547C379.698 28.8547 379.027 28.6805 378.437 28.3322C377.864 27.9664 377.408 27.4788 377.068 26.8692C376.746 26.242 376.584 25.5193 376.584 24.7007C376.584 23.8822 376.746 23.1595 377.068 22.5323C377.39 21.9054 377.837 21.4176 378.409 21.0693C378.982 20.7209 379.644 20.5468 380.396 20.5468C381.147 20.5468 381.809 20.7297 382.382 21.0955C382.955 21.4439 383.401 21.9315 383.723 22.5585C384.063 23.1681 384.233 23.8822 384.233 24.7007C384.233 25.5193 384.073 26.242 383.751 26.8692C383.428 27.4788 382.981 27.9664 382.409 28.3322ZM391.213 18.1695H394.03L394.173 19.9862C394.528 19.4275 394.963 18.9788 395.479 18.6398C396.249 18.1173 397.162 17.856 398.217 17.856C399.846 17.856 401.098 18.3437 401.975 19.319C402.869 20.277 403.316 21.7573 403.316 23.7603V31.2319H400.311V24.544C400.311 23.499 400.186 22.6979 399.935 22.1405C399.702 21.5658 399.362 21.1652 398.915 20.9387C398.486 20.7124 397.975 20.599 397.385 20.599C396.383 20.5818 395.605 20.9039 395.05 21.5658C394.496 22.2275 394.218 23.1767 394.218 24.4135V31.2319H391.213V18.1695Z" fill="white"/>
<path d="M278.464 22.4139C278.464 24.29 276.902 25.8108 274.974 25.8108C273.047 25.8108 271.485 24.29 271.485 22.4139C271.485 20.5378 273.047 19.0169 274.974 19.0169C276.902 19.0169 278.464 20.5378 278.464 22.4139Z" fill="#FF7C2B"/>
</g>
<path d="M880.333 250.53L884.274 242.752H888.589L882.323 254.29V261.641H878.344V254.419L872.078 242.752H876.419L880.333 250.53ZM894.597 247.197V261.641H890.656V247.197H894.597ZM892.633 241.538C893.219 241.538 893.723 241.675 894.145 241.951C894.567 242.218 894.778 242.722 894.778 243.463C894.778 244.195 894.567 244.703 894.145 244.987C893.723 245.263 893.219 245.401 892.633 245.401C892.039 245.401 891.531 245.263 891.109 244.987C890.695 244.703 890.488 244.195 890.488 243.463C890.488 242.722 890.695 242.218 891.109 241.951C891.531 241.675 892.039 241.538 892.633 241.538ZM904.7 246.925C906.035 246.925 907.185 247.184 908.15 247.7C909.115 248.209 909.86 248.949 910.385 249.923C910.91 250.896 911.173 252.085 911.173 253.489V255.401H901.858C901.901 256.512 902.233 257.386 902.853 258.023C903.482 258.652 904.351 258.967 905.463 258.967C906.384 258.967 907.228 258.872 907.995 258.682C908.761 258.493 909.55 258.209 910.359 257.83V260.879C909.644 261.232 908.895 261.49 908.111 261.654C907.336 261.818 906.393 261.899 905.282 261.899C903.835 261.899 902.551 261.632 901.432 261.098C900.32 260.564 899.446 259.75 898.809 258.656C898.18 257.563 897.866 256.184 897.866 254.522C897.866 252.834 898.15 251.43 898.718 250.31C899.295 249.182 900.097 248.338 901.121 247.778C902.146 247.209 903.339 246.925 904.7 246.925ZM904.726 249.729C903.96 249.729 903.322 249.974 902.814 250.465C902.314 250.956 902.026 251.727 901.948 252.778H907.478C907.469 252.192 907.362 251.671 907.155 251.215C906.957 250.758 906.656 250.396 906.251 250.129C905.854 249.862 905.346 249.729 904.726 249.729ZM918.318 261.641H914.377V241.538H918.318V261.641ZM927.039 261.899C925.428 261.899 924.115 261.271 923.098 260.013C922.091 258.747 921.587 256.891 921.587 254.445C921.587 251.973 922.099 250.104 923.124 248.837C924.149 247.563 925.488 246.925 927.142 246.925C927.831 246.925 928.439 247.02 928.964 247.209C929.489 247.399 929.942 247.653 930.321 247.972C930.708 248.29 931.035 248.648 931.302 249.044H931.432C931.38 248.768 931.315 248.364 931.238 247.83C931.169 247.287 931.134 246.731 931.134 246.163V241.538H935.088V261.641H932.065L931.302 259.768H931.134C930.885 260.164 930.57 260.526 930.191 260.853C929.821 261.172 929.377 261.426 928.861 261.615C928.344 261.805 927.737 261.899 927.039 261.899ZM928.421 258.76C929.498 258.76 930.256 258.441 930.695 257.804C931.143 257.158 931.38 256.189 931.406 254.897V254.47C931.406 253.066 931.19 251.994 930.76 251.253C930.329 250.504 929.528 250.129 928.357 250.129C927.487 250.129 926.806 250.504 926.315 251.253C925.824 252.003 925.579 253.084 925.579 254.496C925.579 255.909 925.824 256.973 926.315 257.687C926.815 258.402 927.517 258.76 928.421 258.76ZM956.16 257.352C956.16 258.333 955.928 259.165 955.463 259.845C955.006 260.517 954.321 261.029 953.408 261.383C952.495 261.727 951.358 261.899 949.998 261.899C948.99 261.899 948.124 261.835 947.401 261.706C946.686 261.576 945.962 261.361 945.23 261.06V257.804C946.014 258.157 946.854 258.45 947.749 258.682C948.654 258.906 949.446 259.018 950.127 259.018C950.893 259.018 951.44 258.906 951.768 258.682C952.104 258.45 952.271 258.148 952.271 257.778C952.271 257.537 952.203 257.321 952.065 257.132C951.936 256.934 951.651 256.714 951.212 256.473C950.773 256.223 950.084 255.9 949.145 255.504C948.24 255.125 947.495 254.742 946.91 254.354C946.333 253.967 945.902 253.51 945.618 252.985C945.342 252.451 945.204 251.774 945.204 250.956C945.204 249.621 945.721 248.618 946.755 247.946C947.797 247.265 949.188 246.925 950.928 246.925C951.824 246.925 952.676 247.016 953.486 247.197C954.304 247.377 955.144 247.666 956.005 248.062L954.817 250.905C954.102 250.594 953.426 250.34 952.788 250.142C952.159 249.944 951.518 249.845 950.863 249.845C950.286 249.845 949.851 249.923 949.558 250.078C949.265 250.233 949.119 250.47 949.119 250.788C949.119 251.021 949.192 251.228 949.339 251.408C949.494 251.589 949.787 251.792 950.217 252.016C950.656 252.231 951.298 252.511 952.142 252.855C952.961 253.191 953.671 253.545 954.274 253.915C954.877 254.277 955.342 254.729 955.669 255.271C955.997 255.805 956.16 256.499 956.16 257.352ZM965.321 258.76C965.751 258.76 966.169 258.717 966.574 258.631C966.987 258.545 967.396 258.437 967.801 258.308V261.24C967.379 261.43 966.854 261.585 966.225 261.706C965.605 261.835 964.924 261.899 964.184 261.899C963.322 261.899 962.547 261.762 961.858 261.486C961.178 261.202 960.639 260.715 960.243 260.026C959.855 259.328 959.662 258.359 959.662 257.119V250.155H957.775V248.489L959.946 247.171L961.083 244.122H963.602V247.197L967.646 247.197V250.155H963.602V257.119C963.602 257.67 963.757 258.084 964.067 258.359C964.386 258.626 964.804 258.76 965.321 258.76ZM978.796 246.925C978.994 246.925 979.222 246.938 979.481 246.964C979.748 246.981 979.963 247.007 980.127 247.041L979.83 250.737C979.7 250.694 979.515 250.663 979.274 250.646C979.042 250.62 978.839 250.607 978.667 250.607C978.159 250.607 977.663 250.672 977.181 250.801C976.707 250.93 976.281 251.141 975.902 251.434C975.523 251.718 975.222 252.097 974.998 252.571C974.782 253.036 974.675 253.609 974.675 254.29V261.641H970.734V247.197H973.719L974.3 249.625H974.494C974.778 249.135 975.131 248.687 975.553 248.282C975.984 247.868 976.47 247.541 977.013 247.3C977.564 247.05 978.159 246.925 978.796 246.925ZM988.667 246.899C990.605 246.899 992.091 247.321 993.124 248.166C994.158 249.01 994.675 250.293 994.675 252.016V261.641H991.923L991.16 259.677H991.057C990.644 260.194 990.222 260.616 989.791 260.943C989.36 261.271 988.865 261.512 988.305 261.667C987.745 261.822 987.065 261.899 986.264 261.899C985.411 261.899 984.644 261.736 983.964 261.408C983.292 261.081 982.762 260.582 982.375 259.91C981.987 259.229 981.793 258.368 981.793 257.326C981.793 255.793 982.332 254.664 983.408 253.941C984.485 253.209 986.1 252.804 988.253 252.726L990.76 252.649V252.016C990.76 251.258 990.562 250.702 990.166 250.349C989.769 249.996 989.218 249.819 988.512 249.819C987.814 249.819 987.129 249.918 986.458 250.116C985.786 250.315 985.114 250.564 984.442 250.866L983.137 248.204C983.904 247.799 984.761 247.481 985.708 247.248C986.664 247.016 987.651 246.899 988.667 246.899ZM990.76 254.948L989.235 255C987.961 255.035 987.073 255.263 986.574 255.685C986.083 256.107 985.837 256.663 985.837 257.352C985.837 257.955 986.014 258.385 986.367 258.644C986.72 258.893 987.181 259.018 987.75 259.018C988.594 259.018 989.304 258.768 989.881 258.269C990.467 257.769 990.76 257.059 990.76 256.137V254.948ZM1004.83 258.76C1005.26 258.76 1005.68 258.717 1006.08 258.631C1006.5 258.545 1006.91 258.437 1007.31 258.308V261.24C1006.89 261.43 1006.36 261.585 1005.73 261.706C1005.11 261.835 1004.43 261.899 1003.69 261.899C1002.83 261.899 1002.06 261.762 1001.37 261.486C1000.69 261.202 1000.15 260.715 999.752 260.026C999.365 259.328 999.171 258.359 999.171 257.119V250.155H997.284V248.489L999.455 247.171L1000.59 244.122H1003.11V247.197H1007.16V250.155H1003.11V257.119C1003.11 257.67 1003.27 258.084 1003.58 258.359C1003.9 258.626 1004.31 258.76 1004.83 258.76ZM1016.2 246.925C1017.53 246.925 1018.68 247.184 1019.65 247.7C1020.61 248.209 1021.36 248.949 1021.88 249.923C1022.41 250.896 1022.67 252.085 1022.67 253.489V255.401H1013.36C1013.4 256.512 1013.73 257.386 1014.35 258.023C1014.98 258.652 1015.85 258.967 1016.96 258.967C1017.88 258.967 1018.73 258.872 1019.49 258.682C1020.26 258.493 1021.05 258.209 1021.86 257.83V260.879C1021.14 261.232 1020.39 261.49 1019.61 261.654C1018.83 261.818 1017.89 261.899 1016.78 261.899C1015.33 261.899 1014.05 261.632 1012.93 261.098C1011.82 260.564 1010.95 259.75 1010.31 258.656C1009.68 257.563 1009.36 256.184 1009.36 254.522C1009.36 252.834 1009.65 251.43 1010.22 250.31C1010.79 249.182 1011.6 248.338 1012.62 247.778C1013.65 247.209 1014.84 246.925 1016.2 246.925ZM1016.23 249.729C1015.46 249.729 1014.82 249.974 1014.31 250.465C1013.81 250.956 1013.52 251.727 1013.45 252.778H1018.98C1018.97 252.192 1018.86 251.671 1018.65 251.215C1018.46 250.758 1018.15 250.396 1017.75 250.129C1017.35 249.862 1016.85 249.729 1016.23 249.729ZM1030.1 267.998C1028.09 267.998 1026.54 267.644 1025.48 266.938C1024.42 266.24 1023.89 265.259 1023.89 263.992C1023.89 263.122 1024.16 262.395 1024.7 261.809C1025.24 261.223 1026.04 260.806 1027.09 260.556C1026.69 260.383 1026.33 260.104 1026.03 259.716C1025.73 259.32 1025.58 258.902 1025.58 258.463C1025.58 257.911 1025.74 257.455 1026.06 257.093C1026.38 256.723 1026.84 256.361 1027.44 256.008C1026.68 255.681 1026.08 255.155 1025.63 254.432C1025.19 253.708 1024.97 252.855 1024.97 251.874C1024.97 250.823 1025.2 249.931 1025.66 249.199C1026.12 248.458 1026.79 247.894 1027.67 247.507C1028.56 247.119 1029.64 246.925 1030.9 246.925C1031.17 246.925 1031.48 246.942 1031.83 246.977C1032.19 247.011 1032.51 247.05 1032.8 247.093C1033.1 247.136 1033.31 247.171 1033.41 247.197H1038.45V249.199L1036.19 249.781C1036.39 250.099 1036.55 250.439 1036.65 250.801C1036.75 251.163 1036.81 251.546 1036.81 251.951C1036.81 253.501 1036.26 254.712 1035.18 255.582C1034.1 256.443 1032.6 256.874 1030.68 256.874C1030.23 256.848 1029.8 256.813 1029.39 256.77C1029.19 256.925 1029.04 257.089 1028.94 257.261C1028.83 257.433 1028.78 257.614 1028.78 257.804C1028.78 257.993 1028.86 258.153 1029.02 258.282C1029.18 258.402 1029.42 258.497 1029.74 258.566C1030.07 258.626 1030.47 258.656 1030.95 258.656H1033.41C1034.99 258.656 1036.2 258.997 1037.03 259.677C1037.86 260.358 1038.28 261.357 1038.28 262.675C1038.28 264.363 1037.57 265.672 1036.16 266.602C1034.76 267.532 1032.74 267.998 1030.1 267.998ZM1030.27 265.427C1031.21 265.427 1032.01 265.336 1032.69 265.155C1033.37 264.983 1033.89 264.733 1034.25 264.406C1034.61 264.087 1034.79 263.704 1034.79 263.256C1034.79 262.894 1034.68 262.606 1034.47 262.39C1034.26 262.184 1033.94 262.037 1033.51 261.951C1033.09 261.865 1032.55 261.822 1031.88 261.822H1029.84C1029.36 261.822 1028.93 261.899 1028.54 262.054C1028.16 262.209 1027.86 262.425 1027.63 262.7C1027.41 262.985 1027.3 263.312 1027.3 263.682C1027.3 264.225 1027.56 264.651 1028.07 264.961C1028.6 265.271 1029.33 265.427 1030.27 265.427ZM1030.9 254.47C1031.64 254.47 1032.19 254.242 1032.53 253.786C1032.87 253.329 1033.05 252.709 1033.05 251.925C1033.05 251.055 1032.87 250.405 1032.5 249.974C1032.15 249.535 1031.62 249.315 1030.9 249.315C1030.18 249.315 1029.64 249.535 1029.27 249.974C1028.91 250.405 1028.73 251.055 1028.73 251.925C1028.73 252.709 1028.91 253.329 1029.26 253.786C1029.62 254.242 1030.17 254.47 1030.9 254.47ZM1044.78 247.197V261.641H1040.84V247.197H1044.78ZM1042.81 241.538C1043.4 241.538 1043.9 241.675 1044.33 241.951C1044.75 242.218 1044.96 242.722 1044.96 243.463C1044.96 244.195 1044.75 244.703 1044.33 244.987C1043.9 245.263 1043.4 245.401 1042.81 245.401C1042.22 245.401 1041.71 245.263 1041.29 244.987C1040.88 244.703 1040.67 244.195 1040.67 243.463C1040.67 242.722 1040.88 242.218 1041.29 241.951C1041.71 241.675 1042.22 241.538 1042.81 241.538ZM1054.88 246.925C1056.22 246.925 1057.37 247.184 1058.33 247.7C1059.3 248.209 1060.04 248.949 1060.57 249.923C1061.09 250.896 1061.35 252.085 1061.35 253.489V255.401H1052.04C1052.08 256.512 1052.41 257.386 1053.03 258.023C1053.66 258.652 1054.53 258.967 1055.64 258.967C1056.57 258.967 1057.41 258.872 1058.18 258.682C1058.94 258.493 1059.73 258.209 1060.54 257.83V260.879C1059.83 261.232 1059.08 261.49 1058.29 261.654C1057.52 261.818 1056.57 261.899 1055.46 261.899C1054.02 261.899 1052.73 261.632 1051.61 261.098C1050.5 260.564 1049.63 259.75 1048.99 258.656C1048.36 257.563 1048.05 256.184 1048.05 254.522C1048.05 252.834 1048.33 251.43 1048.9 250.31C1049.48 249.182 1050.28 248.338 1051.3 247.778C1052.33 247.209 1053.52 246.925 1054.88 246.925ZM1054.91 249.729C1054.14 249.729 1053.5 249.974 1053 250.465C1052.5 250.956 1052.21 251.727 1052.13 252.778H1057.66C1057.65 252.192 1057.54 251.671 1057.34 251.215C1057.14 250.758 1056.84 250.396 1056.43 250.129C1056.04 249.862 1055.53 249.729 1054.91 249.729ZM1074.64 257.352C1074.64 258.333 1074.4 259.165 1073.94 259.845C1073.48 260.517 1072.8 261.029 1071.88 261.383C1070.97 261.727 1069.83 261.899 1068.47 261.899C1067.47 261.899 1066.6 261.835 1065.88 261.706C1065.16 261.576 1064.44 261.361 1063.71 261.06V257.804C1064.49 258.157 1065.33 258.45 1066.23 258.682C1067.13 258.906 1067.92 259.018 1068.6 259.018C1069.37 259.018 1069.92 258.906 1070.24 258.682C1070.58 258.45 1070.75 258.148 1070.75 257.778C1070.75 257.537 1070.68 257.321 1070.54 257.132C1070.41 256.934 1070.13 256.714 1069.69 256.473C1069.25 256.223 1068.56 255.9 1067.62 255.504C1066.72 255.125 1065.97 254.742 1065.39 254.354C1064.81 253.967 1064.38 253.51 1064.09 252.985C1063.82 252.451 1063.68 251.774 1063.68 250.956C1063.68 249.621 1064.2 248.618 1065.23 247.946C1066.27 247.265 1067.66 246.925 1069.4 246.925C1070.3 246.925 1071.15 247.016 1071.96 247.197C1072.78 247.377 1073.62 247.666 1074.48 248.062L1073.29 250.905C1072.58 250.594 1071.9 250.34 1071.26 250.142C1070.64 249.944 1069.99 249.845 1069.34 249.845C1068.76 249.845 1068.33 249.923 1068.03 250.078C1067.74 250.233 1067.59 250.47 1067.59 250.788C1067.59 251.021 1067.67 251.228 1067.81 251.408C1067.97 251.589 1068.26 251.792 1068.69 252.016C1069.13 252.231 1069.77 252.511 1070.62 252.855C1071.44 253.191 1072.15 253.545 1072.75 253.915C1073.35 254.277 1073.82 254.729 1074.15 255.271C1074.47 255.805 1074.64 256.499 1074.64 257.352ZM1096.46 261.641L1095.35 256.589C1095.29 256.288 1095.19 255.844 1095.05 255.259C1094.91 254.664 1094.76 254.031 1094.6 253.359C1094.44 252.679 1094.3 252.05 1094.16 251.473C1094.03 250.896 1093.93 250.474 1093.87 250.207H1093.76C1093.7 250.474 1093.6 250.896 1093.47 251.473C1093.34 252.05 1093.2 252.679 1093.03 253.359C1092.88 254.04 1092.73 254.681 1092.59 255.284C1092.46 255.879 1092.35 256.331 1092.28 256.641L1091.12 261.641H1086.88L1082.78 247.197H1086.7L1088.37 253.592C1088.48 254.04 1088.59 254.574 1088.69 255.194C1088.8 255.805 1088.89 256.4 1088.96 256.977C1089.05 257.545 1089.11 257.998 1089.16 258.333H1089.26C1089.28 258.084 1089.31 257.752 1089.36 257.339C1089.43 256.925 1089.49 256.499 1089.56 256.06C1089.64 255.612 1089.7 255.211 1089.77 254.858C1089.83 254.496 1089.89 254.251 1089.92 254.122L1091.7 247.197H1096.04L1097.74 254.122C1097.8 254.371 1097.87 254.768 1097.97 255.31C1098.07 255.853 1098.16 256.413 1098.24 256.99C1098.32 257.558 1098.36 258.006 1098.37 258.333H1098.47C1098.51 258.041 1098.57 257.606 1098.65 257.029C1098.74 256.451 1098.84 255.849 1098.95 255.22C1099.07 254.582 1099.19 254.04 1099.31 253.592L1101.04 247.197H1104.91L1100.75 261.641H1096.46ZM1111.19 247.197V261.641H1107.25V247.197H1111.19ZM1109.22 241.538C1109.81 241.538 1110.31 241.675 1110.73 241.951C1111.16 242.218 1111.37 242.722 1111.37 243.463C1111.37 244.195 1111.16 244.703 1110.73 244.987C1110.31 245.263 1109.81 245.401 1109.22 245.401C1108.63 245.401 1108.12 245.263 1107.7 244.987C1107.28 244.703 1107.08 244.195 1107.08 243.463C1107.08 242.722 1107.28 242.218 1107.7 241.951C1108.12 241.675 1108.63 241.538 1109.22 241.538ZM1121.42 258.76C1121.85 258.76 1122.27 258.717 1122.67 258.631C1123.09 258.545 1123.49 258.437 1123.9 258.308V261.24C1123.48 261.43 1122.95 261.585 1122.32 261.706C1121.7 261.835 1121.02 261.899 1120.28 261.899C1119.42 261.899 1118.65 261.762 1117.96 261.486C1117.28 261.202 1116.74 260.715 1116.34 260.026C1115.95 259.328 1115.76 258.359 1115.76 257.119V250.155H1113.87V248.489L1116.04 247.171L1117.18 244.122H1119.7V247.197H1123.74V250.155H1119.7V257.119C1119.7 257.67 1119.86 258.084 1120.17 258.359C1120.48 258.626 1120.9 258.76 1121.42 258.76ZM1130.77 241.538V245.633C1130.77 246.348 1130.75 247.029 1130.7 247.675C1130.65 248.321 1130.62 248.777 1130.59 249.044H1130.8C1131.11 248.544 1131.48 248.14 1131.9 247.83C1132.33 247.52 1132.8 247.291 1133.32 247.145C1133.84 246.998 1134.39 246.925 1134.98 246.925C1136.03 246.925 1136.94 247.11 1137.71 247.481C1138.49 247.843 1139.09 248.415 1139.52 249.199C1139.95 249.974 1140.17 250.982 1140.17 252.222V261.641H1136.23V253.204C1136.23 252.171 1136.04 251.391 1135.66 250.866C1135.28 250.34 1134.69 250.078 1133.9 250.078C1133.11 250.078 1132.48 250.263 1132.03 250.633C1131.57 250.995 1131.25 251.533 1131.06 252.248C1130.87 252.954 1130.77 253.82 1130.77 254.845V261.641H1126.83V241.538H1130.77ZM882.478 285.814C881.711 285.814 881.031 285.965 880.437 286.266C879.851 286.559 879.356 286.985 878.951 287.545C878.555 288.105 878.253 288.781 878.047 289.574C877.84 290.366 877.736 291.258 877.736 292.248C877.736 293.583 877.9 294.725 878.227 295.672C878.563 296.611 879.08 297.33 879.778 297.83C880.475 298.321 881.376 298.566 882.478 298.566C883.245 298.566 884.011 298.48 884.778 298.308C885.553 298.135 886.393 297.89 887.297 297.571V300.93C886.462 301.275 885.639 301.52 884.829 301.667C884.02 301.822 883.111 301.899 882.103 301.899C880.157 301.899 878.555 301.499 877.297 300.698C876.048 299.888 875.122 298.76 874.519 297.313C873.916 295.857 873.615 294.16 873.615 292.222C873.615 290.793 873.809 289.483 874.196 288.295C874.584 287.106 875.152 286.077 875.902 285.207C876.651 284.337 877.577 283.665 878.68 283.191C879.782 282.718 881.048 282.481 882.478 282.481C883.417 282.481 884.356 282.601 885.295 282.843C886.242 283.075 887.146 283.398 888.008 283.812L886.716 287.067C886.009 286.731 885.299 286.439 884.584 286.189C883.869 285.939 883.167 285.814 882.478 285.814ZM896.974 286.925C898.309 286.925 899.459 287.184 900.424 287.7C901.389 288.209 902.134 288.949 902.659 289.923C903.184 290.896 903.447 292.085 903.447 293.489V295.401H894.132C894.175 296.512 894.506 297.386 895.127 298.023C895.755 298.652 896.625 298.967 897.736 298.967C898.658 298.967 899.502 298.872 900.269 298.682C901.035 298.493 901.823 298.209 902.633 297.83V300.879C901.918 301.232 901.169 301.49 900.385 301.654C899.61 301.818 898.667 301.899 897.556 301.899C896.109 301.899 894.825 301.632 893.705 301.098C892.594 300.564 891.72 299.75 891.083 298.656C890.454 297.563 890.14 296.184 890.14 294.522C890.14 292.834 890.424 291.43 890.992 290.31C891.569 289.182 892.37 288.338 893.395 287.778C894.42 287.209 895.613 286.925 896.974 286.925ZM897 289.729C896.233 289.729 895.596 289.974 895.088 290.465C894.588 290.956 894.3 291.727 894.222 292.778H899.752C899.743 292.192 899.636 291.671 899.429 291.215C899.231 290.758 898.929 290.396 898.525 290.129C898.128 289.862 897.62 289.729 897 289.729ZM910.902 301.641H906.961V282.752H917.788V286.034H910.902V290.905H917.31V294.173H910.902V301.641ZM925.114 287.197V301.641H921.173V287.197H925.114ZM923.15 281.538C923.736 281.538 924.24 281.675 924.662 281.951C925.084 282.218 925.295 282.722 925.295 283.463C925.295 284.195 925.084 284.703 924.662 284.987C924.24 285.263 923.736 285.401 923.15 285.401C922.556 285.401 922.047 285.263 921.625 284.987C921.212 284.703 921.005 284.195 921.005 283.463C921.005 282.722 921.212 282.218 921.625 281.951C922.047 281.675 922.556 281.538 923.15 281.538ZM932.93 298.566L933.124 298.863C932.969 299.483 932.767 300.151 932.517 300.866C932.276 301.581 932.009 302.296 931.716 303.011C931.432 303.725 931.143 304.406 930.85 305.052H928.008C928.18 304.354 928.348 303.622 928.512 302.855C928.675 302.089 928.826 301.335 928.964 300.594C929.11 299.854 929.227 299.178 929.313 298.566H932.93ZM943.99 301.641V282.752H947.995V298.333H955.656V301.641H943.99ZM970.837 301.641H957.633V298.863L962.375 294.07C963.331 293.088 964.097 292.27 964.675 291.615C965.26 290.952 965.682 290.349 965.941 289.806C966.208 289.264 966.341 288.682 966.341 288.062C966.341 287.313 966.13 286.753 965.708 286.383C965.295 286.004 964.739 285.814 964.042 285.814C963.309 285.814 962.599 285.982 961.91 286.318C961.221 286.654 960.501 287.132 959.752 287.752L957.582 285.181C958.124 284.716 958.697 284.277 959.3 283.863C959.911 283.45 960.618 283.118 961.419 282.868C962.228 282.61 963.197 282.481 964.326 282.481C965.566 282.481 966.63 282.705 967.517 283.153C968.413 283.6 969.102 284.212 969.584 284.987C970.066 285.754 970.308 286.624 970.308 287.597C970.308 288.639 970.101 289.591 969.688 290.452C969.274 291.314 968.671 292.166 967.879 293.01C967.095 293.855 966.147 294.789 965.036 295.814L962.607 298.101V298.282H970.837V301.641ZM983.861 297.352C983.861 298.333 983.628 299.165 983.163 299.845C982.706 300.517 982.022 301.029 981.109 301.383C980.196 301.727 979.059 301.899 977.698 301.899C976.69 301.899 975.824 301.835 975.101 301.706C974.386 301.576 973.663 301.361 972.93 301.06V297.804C973.714 298.157 974.554 298.45 975.45 298.682C976.354 298.906 977.147 299.018 977.827 299.018C978.594 299.018 979.141 298.906 979.468 298.682C979.804 298.45 979.972 298.148 979.972 297.778C979.972 297.537 979.903 297.321 979.765 297.132C979.636 296.934 979.352 296.714 978.912 296.473C978.473 296.223 977.784 295.9 976.845 295.504C975.941 295.125 975.196 294.742 974.61 294.354C974.033 293.967 973.602 293.51 973.318 292.985C973.042 292.451 972.905 291.774 972.905 290.956C972.905 289.621 973.421 288.618 974.455 287.946C975.497 287.265 976.888 286.925 978.628 286.925C979.524 286.925 980.377 287.016 981.186 287.197C982.005 287.377 982.844 287.666 983.706 288.062L982.517 290.905C981.802 290.594 981.126 290.34 980.489 290.142C979.86 289.944 979.218 289.845 978.564 289.845C977.986 289.845 977.551 289.923 977.259 290.078C976.966 290.233 976.819 290.47 976.819 290.788C976.819 291.021 976.893 291.228 977.039 291.408C977.194 291.589 977.487 291.792 977.918 292.016C978.357 292.231 978.998 292.511 979.843 292.855C980.661 293.191 981.371 293.545 981.974 293.915C982.577 294.277 983.042 294.729 983.37 295.271C983.697 295.805 983.861 296.499 983.861 297.352ZM990.605 298.566L990.799 298.863C990.644 299.483 990.441 300.151 990.191 300.866C989.95 301.581 989.683 302.296 989.39 303.011C989.106 303.725 988.818 304.406 988.525 305.052H985.682C985.855 304.354 986.023 303.622 986.186 302.855C986.35 302.089 986.501 301.335 986.638 300.594C986.785 299.854 986.901 299.178 986.987 298.566H990.605ZM1007.27 286.899C1009.21 286.899 1010.7 287.321 1011.73 288.166C1012.76 289.01 1013.28 290.293 1013.28 292.016V301.641H1010.53L1009.77 299.677H1009.66C1009.25 300.194 1008.83 300.616 1008.4 300.943C1007.96 301.271 1007.47 301.512 1006.91 301.667C1006.35 301.822 1005.67 301.899 1004.87 301.899C1004.02 301.899 1003.25 301.736 1002.57 301.408C1001.9 301.081 1001.37 300.582 1000.98 299.91C1000.59 299.229 1000.4 298.368 1000.4 297.326C1000.4 295.793 1000.94 294.664 1002.01 293.941C1003.09 293.209 1004.7 292.804 1006.86 292.726L1009.36 292.649V292.016C1009.36 291.258 1009.17 290.702 1008.77 290.349C1008.37 289.996 1007.82 289.819 1007.12 289.819C1006.42 289.819 1005.73 289.918 1005.06 290.116C1004.39 290.315 1003.72 290.564 1003.05 290.866L1001.74 288.204C1002.51 287.799 1003.37 287.481 1004.31 287.248C1005.27 287.016 1006.26 286.899 1007.27 286.899ZM1009.36 294.948L1007.84 295C1006.57 295.035 1005.68 295.263 1005.18 295.685C1004.69 296.107 1004.44 296.663 1004.44 297.352C1004.44 297.955 1004.62 298.385 1004.97 298.644C1005.32 298.893 1005.79 299.018 1006.35 299.018C1007.2 299.018 1007.91 298.768 1008.49 298.269C1009.07 297.769 1009.36 297.059 1009.36 296.137V294.948ZM1025.55 286.925C1027.1 286.925 1028.34 287.347 1029.27 288.191C1030.21 289.027 1030.68 290.371 1030.68 292.222V301.641H1026.74V293.204C1026.74 292.171 1026.55 291.391 1026.17 290.866C1025.8 290.34 1025.22 290.078 1024.42 290.078C1023.21 290.078 1022.39 290.487 1021.95 291.305C1021.51 292.123 1021.29 293.303 1021.29 294.845V301.641H1017.35V287.197H1020.36L1020.89 289.044H1021.11C1021.42 288.544 1021.8 288.14 1022.26 287.83C1022.72 287.52 1023.24 287.291 1023.8 287.145C1024.36 286.998 1024.95 286.925 1025.55 286.925ZM1039.31 301.899C1037.7 301.899 1036.39 301.271 1035.37 300.013C1034.36 298.747 1033.86 296.891 1033.86 294.445C1033.86 291.973 1034.37 290.104 1035.4 288.837C1036.42 287.563 1037.76 286.925 1039.42 286.925C1040.11 286.925 1040.71 287.02 1041.24 287.209C1041.76 287.399 1042.22 287.653 1042.59 287.972C1042.98 288.29 1043.31 288.648 1043.58 289.044H1043.71C1043.65 288.768 1043.59 288.364 1043.51 287.83C1043.44 287.287 1043.41 286.731 1043.41 286.163V281.538H1047.36V301.641H1044.34L1043.58 299.768H1043.41C1043.16 300.164 1042.84 300.526 1042.47 300.853C1042.1 301.172 1041.65 301.426 1041.13 301.615C1040.62 301.805 1040.01 301.899 1039.31 301.899ZM1040.7 298.76C1041.77 298.76 1042.53 298.441 1042.97 297.804C1043.42 297.158 1043.65 296.189 1043.68 294.897V294.47C1043.68 293.066 1043.46 291.994 1043.03 291.253C1042.6 290.504 1041.8 290.129 1040.63 290.129C1039.76 290.129 1039.08 290.504 1038.59 291.253C1038.1 292.003 1037.85 293.084 1037.85 294.496C1037.85 295.909 1038.1 296.973 1038.59 297.687C1039.09 298.402 1039.79 298.76 1040.7 298.76ZM1075.32 286.925C1076.96 286.925 1078.19 287.347 1079.03 288.191C1079.87 289.027 1080.29 290.371 1080.29 292.222V301.641H1076.34V293.204C1076.34 292.171 1076.16 291.391 1075.81 290.866C1075.46 290.34 1074.91 290.078 1074.17 290.078C1073.13 290.078 1072.39 290.452 1071.95 291.202C1071.51 291.942 1071.29 293.006 1071.29 294.393V301.641H1067.35V293.204C1067.35 292.515 1067.27 291.938 1067.12 291.473C1066.96 291.008 1066.72 290.659 1066.41 290.427C1066.09 290.194 1065.68 290.078 1065.18 290.078C1064.45 290.078 1063.87 290.263 1063.45 290.633C1063.03 290.995 1062.74 291.533 1062.56 292.248C1062.38 292.954 1062.3 293.82 1062.3 294.845V301.641H1058.36V287.197H1061.37L1061.9 289.044H1062.12C1062.41 288.544 1062.78 288.14 1063.21 287.83C1063.66 287.52 1064.15 287.291 1064.69 287.145C1065.22 286.998 1065.76 286.925 1066.32 286.925C1067.38 286.925 1068.27 287.097 1069 287.442C1069.74 287.787 1070.31 288.321 1070.71 289.044L1071.06 289.044C1071.49 288.303 1072.1 287.765 1072.88 287.429C1073.67 287.093 1074.49 286.925 1075.32 286.925ZM1097.48 294.393C1097.48 295.599 1097.31 296.667 1096.99 297.597C1096.67 298.527 1096.2 299.315 1095.58 299.961C1094.97 300.599 1094.23 301.081 1093.36 301.408C1092.5 301.736 1091.52 301.899 1090.44 301.899C1089.42 301.899 1088.49 301.736 1087.63 301.408C1086.79 301.081 1086.05 300.599 1085.42 299.961C1084.8 299.315 1084.32 298.527 1083.98 297.597C1083.64 296.667 1083.47 295.599 1083.47 294.393C1083.47 292.791 1083.76 291.434 1084.33 290.323C1084.89 289.212 1085.7 288.368 1086.75 287.791C1087.81 287.214 1089.06 286.925 1090.51 286.925C1091.87 286.925 1093.06 287.214 1094.11 287.791C1095.16 288.368 1095.98 289.212 1096.57 290.323C1097.18 291.434 1097.48 292.791 1097.48 294.393ZM1087.49 294.393C1087.49 295.34 1087.59 296.137 1087.8 296.783C1088.01 297.429 1088.33 297.916 1088.77 298.243C1089.21 298.57 1089.78 298.734 1090.49 298.734C1091.19 298.734 1091.75 298.57 1092.18 298.243C1092.62 297.916 1092.94 297.429 1093.14 296.783C1093.34 296.137 1093.45 295.34 1093.45 294.393C1093.45 293.437 1093.34 292.644 1093.14 292.016C1092.94 291.378 1092.62 290.9 1092.18 290.582C1091.74 290.263 1091.17 290.104 1090.46 290.104C1089.42 290.104 1088.66 290.461 1088.19 291.176C1087.72 291.891 1087.49 292.963 1087.49 294.393ZM1108.8 286.925C1108.99 286.925 1109.22 286.938 1109.48 286.964C1109.75 286.981 1109.96 287.007 1110.13 287.041L1109.83 290.737C1109.7 290.694 1109.52 290.663 1109.27 290.646C1109.04 290.62 1108.84 290.607 1108.67 290.607C1108.16 290.607 1107.66 290.672 1107.18 290.801C1106.71 290.93 1106.28 291.141 1105.9 291.434C1105.52 291.718 1105.22 292.097 1105 292.571C1104.78 293.036 1104.67 293.609 1104.67 294.29V301.641H1100.73V287.197H1103.72L1104.3 289.625H1104.49C1104.78 289.135 1105.13 288.687 1105.55 288.282C1105.98 287.868 1106.47 287.541 1107.01 287.3C1107.56 287.05 1108.16 286.925 1108.8 286.925ZM1118.71 286.925C1120.04 286.925 1121.19 287.184 1122.16 287.7C1123.12 288.209 1123.87 288.949 1124.39 289.923C1124.92 290.896 1125.18 292.085 1125.18 293.489V295.401H1115.86C1115.91 296.512 1116.24 297.386 1116.86 298.023C1117.49 298.652 1118.36 298.967 1119.47 298.967C1120.39 298.967 1121.23 298.872 1122 298.682C1122.77 298.493 1123.56 298.209 1124.36 297.83V300.879C1123.65 301.232 1122.9 301.49 1122.12 301.654C1121.34 301.818 1120.4 301.899 1119.29 301.899C1117.84 301.899 1116.56 301.632 1115.44 301.098C1114.33 300.564 1113.45 299.75 1112.81 298.656C1112.19 297.563 1111.87 296.184 1111.87 294.522C1111.87 292.834 1112.16 291.43 1112.72 290.31C1113.3 289.182 1114.1 288.338 1115.13 287.778C1116.15 287.209 1117.34 286.925 1118.71 286.925ZM1118.73 289.729C1117.97 289.729 1117.33 289.974 1116.82 290.465C1116.32 290.956 1116.03 291.727 1115.95 292.778H1121.48C1121.48 292.192 1121.37 291.671 1121.16 291.215C1120.96 290.758 1120.66 290.396 1120.26 290.129C1119.86 289.862 1119.35 289.729 1118.73 289.729Z" fill="#FBFBFB"/>
<g clip-path="url(#clip1_3311_12097)">
<path d="M731.495 212.398C753.377 288.795 709.121 368.529 632.64 390.483C556.188 412.426 476.45 368.284 454.578 291.887C432.683 215.487 476.937 135.749 553.396 113.802C629.871 91.8459 709.61 135.997 731.495 212.398Z" fill="#F7931A"/>
<path d="M638.134 193.45C631.043 175.431 613.251 173.815 592.528 177.849L585.165 152.145L569.504 156.642L576.673 181.669C572.556 182.852 568.371 184.141 564.214 185.425L557 160.231L541.347 164.724L548.701 190.423C545.33 191.466 542.019 192.485 538.772 193.419L538.747 193.34L517.144 199.534L521.935 216.243C521.935 216.243 533.437 212.703 533.306 212.971C539.65 211.152 542.768 214.238 544.278 217.241L552.667 246.523C553.105 246.4 553.682 246.254 554.354 246.157C553.832 246.308 553.272 246.465 552.7 246.634L564.445 287.658C564.738 289.733 564.475 293.25 560.046 294.53C560.297 294.65 548.66 297.795 548.66 297.795L550.9 317.374L571.281 311.522C575.075 310.438 578.825 309.431 582.496 308.402L589.948 334.398L605.594 329.909L598.226 304.187C602.547 303.042 606.714 301.883 610.771 300.714L618.098 326.32L633.759 321.823L626.331 295.87C652.229 286.802 668.759 274.885 663.973 249.526C660.123 229.105 648.216 222.919 632.242 223.624C639.999 216.398 643.345 206.629 638.134 193.45ZM632.144 255.329C637.717 274.755 603.786 282.104 593.175 285.161L583.313 250.715C593.931 247.669 626.341 235.065 632.144 255.329ZM610.941 208.823C615.999 226.5 587.638 232.409 578.797 234.948L569.85 203.708C578.691 201.169 605.659 190.387 610.941 208.823Z" fill="white"/>
<path d="M833.568 272.798C833.568 138.749 724.703 30.0567 590.396 30.0568C456.09 30.0568 347.225 138.729 347.225 272.798" fill="#F7931A" fill-opacity="0.1"/>
<path d="M347.223 272.8C347.223 406.849 456.088 515.541 590.394 515.541C724.701 515.541 833.566 406.869 833.566 272.8" fill="#F7931A" fill-opacity="0.1"/>
<path d="M834.612 273.436C834.612 138.967 725.741 29.9357 591.428 29.9357C457.114 29.9357 348.243 138.948 348.243 273.436" stroke="#414042" stroke-width="9.16431" stroke-miterlimit="10"/>
<path d="M348.241 273.539C348.241 408.008 457.112 517.039 591.426 517.039C725.74 517.039 834.61 408.027 834.61 273.539" stroke="#414042" stroke-width="9.16431" stroke-miterlimit="10"/>
<path d="M362.961 288.168C354.827 296.312 341.64 296.312 333.506 288.168C325.373 280.023 325.373 266.819 333.506 258.675C341.64 250.53 354.827 250.53 362.961 258.675C371.095 266.819 371.095 280.023 362.961 288.168Z" fill="#414042"/>
<path d="M361.424 273.441C361.424 266.176 355.518 260.242 348.243 260.242C340.968 260.242 335.062 266.156 335.062 273.441C335.062 280.725 340.968 286.639 348.243 286.639C355.518 286.639 361.424 280.725 361.424 273.441Z" fill="#2BD45A"/>
<path d="M451.815 72.9833C457.564 82.9505 470.296 86.3773 480.25 80.6202C490.204 74.8632 493.626 62.1154 487.877 52.1483C482.127 42.1811 469.396 38.7542 459.442 44.5113C449.487 50.2683 446.065 63.0162 451.815 72.9833Z" fill="#414042"/>
<path d="M476.437 73.9733C482.734 70.3311 484.885 62.2633 481.267 55.958C477.63 49.6526 469.553 47.4986 463.275 51.1213C456.978 54.7635 454.827 62.8508 458.445 69.1366C462.083 75.4419 470.14 77.596 476.437 73.9733Z" fill="#2BD45A"/>
<path d="M694.979 52.133C689.229 62.1002 692.632 74.8479 702.606 80.605C712.56 86.362 725.291 82.9548 731.041 72.9681C736.79 63.0009 733.388 50.2531 723.414 44.496C713.44 38.739 700.728 42.1462 694.979 52.133Z" fill="#414042"/>
<path d="M706.435 73.9837C712.733 77.6259 720.79 75.4523 724.427 69.1665C728.065 62.8612 725.894 54.7739 719.597 51.1512C713.3 47.509 705.242 49.6826 701.605 55.9879C697.967 62.2933 700.138 70.361 706.435 74.0033L706.435 73.9837Z" fill="#2BD45A"/>
<path d="M849.321 288.181C841.187 296.325 828 296.325 819.866 288.181C811.732 280.037 811.732 266.832 819.866 258.688C828 250.544 841.187 250.544 849.321 258.688C857.455 266.832 857.455 280.037 849.321 288.181Z" fill="#414042"/>
<path d="M821.428 273.441C821.428 280.706 827.334 286.639 834.609 286.639C841.884 286.639 847.79 280.725 847.79 273.441C847.79 266.156 841.884 260.242 834.609 260.242C827.334 260.242 821.428 266.156 821.428 273.441Z" fill="#FEF4E8"/>
</g>
<rect x="1139.29" y="273.365" width="49.5" height="27.5" rx="13.75" fill="#F7931A" fill-opacity="0.1"/>
<rect x="1139.29" y="273.365" width="49.5" height="27.5" rx="13.75" stroke="#F7931A" stroke-width="0.5"/>
<path d="M1163.99 282.407L1160.14 293.115H1158.89L1155.04 282.407H1156.35L1158.85 289.461C1158.95 289.744 1159.04 290.015 1159.12 290.274C1159.21 290.532 1159.28 290.781 1159.34 291.021C1159.41 291.26 1159.46 291.492 1159.51 291.716C1159.56 291.492 1159.62 291.26 1159.68 291.021C1159.74 290.776 1159.82 290.525 1159.9 290.266C1159.98 290.003 1160.07 289.727 1160.18 289.439L1162.67 282.407H1163.99ZM1172.28 290.632H1170.68V293.115H1169.49V290.632H1164.31V289.607L1169.41 282.349H1170.68V289.534H1172.28V290.632ZM1169.49 289.534V286.033C1169.49 285.764 1169.5 285.523 1169.5 285.308C1169.51 285.088 1169.51 284.885 1169.52 284.7C1169.53 284.509 1169.54 284.329 1169.54 284.158C1169.55 283.987 1169.56 283.818 1169.57 283.652H1169.51C1169.42 283.848 1169.31 284.055 1169.19 284.275C1169.07 284.49 1168.95 284.683 1168.83 284.854L1165.52 289.534H1169.49Z" fill="white"/>
<defs>
<clipPath id="clip0_3311_12097">
<rect width="145" height="33.1218" fill="white" transform="translate(258.425 5.8595)"/>
</clipPath>
<clipPath id="clip1_3311_12097">
<rect width="357" height="545" fill="white" transform="translate(319 357) rotate(-90)"/>
</clipPath>
</defs>
</svg>
