<svg width="1190" height="358" viewBox="0 0 1190 358" fill="none" xmlns="http://www.w3.org/2000/svg">
<path d="M96.0491 273.375C96.0491 275.502 95.64 277.281 94.8217 278.711C94.0121 280.132 92.8364 281.204 91.2946 281.928C89.7528 282.643 87.8967 283 85.7261 283H80.3773V264.111H86.3075C88.2886 264.111 90.0069 264.464 91.4626 265.171C92.9182 265.868 94.0465 266.906 94.8476 268.284C95.6486 269.654 96.0491 271.351 96.0491 273.375ZM91.8889 273.478C91.8889 272.083 91.6822 270.937 91.2688 270.041C90.8639 269.137 90.261 268.469 89.46 268.039C88.6675 267.608 87.6856 267.393 86.5142 267.393H84.3824V279.693H86.1008C88.056 279.693 89.5073 279.171 90.4548 278.129C91.4109 277.087 91.8889 275.537 91.8889 273.478ZM105.61 268.284C106.945 268.284 108.095 268.543 109.059 269.059C110.024 269.568 110.769 270.308 111.295 271.282C111.82 272.255 112.083 273.444 112.083 274.848V276.76H102.767C102.811 277.871 103.142 278.745 103.762 279.382C104.391 280.011 105.261 280.326 106.372 280.326C107.294 280.326 108.138 280.231 108.904 280.041C109.671 279.852 110.459 279.568 111.269 279.189V282.238C110.554 282.591 109.805 282.849 109.021 283.013C108.246 283.177 107.302 283.258 106.191 283.258C104.744 283.258 103.461 282.991 102.341 282.457C101.23 281.923 100.356 281.109 99.7184 280.015C99.0896 278.922 98.7752 277.543 98.7752 275.881C98.7752 274.193 99.0595 272.789 99.6279 271.669C100.205 270.541 101.006 269.697 102.031 269.137C103.056 268.568 104.249 268.284 105.61 268.284ZM105.636 271.088C104.869 271.088 104.232 271.333 103.724 271.824C103.224 272.315 102.935 273.086 102.858 274.137H108.388C108.379 273.551 108.271 273.03 108.065 272.574C107.867 272.117 107.565 271.755 107.16 271.488C106.764 271.221 106.256 271.088 105.636 271.088ZM123.323 268.284C124.951 268.284 126.265 268.917 127.264 270.183C128.271 271.45 128.775 273.306 128.775 275.752C128.775 277.388 128.538 278.767 128.065 279.886C127.591 280.997 126.936 281.837 126.101 282.406C125.265 282.974 124.305 283.258 123.22 283.258C122.522 283.258 121.923 283.172 121.424 283C120.924 282.819 120.498 282.591 120.145 282.315C119.792 282.031 119.486 281.73 119.227 281.411H119.021C119.09 281.755 119.141 282.109 119.176 282.47C119.21 282.832 119.227 283.185 119.227 283.53V289.357H115.287V268.556H118.491L119.047 270.429H119.227C119.486 270.041 119.8 269.684 120.171 269.357C120.541 269.029 120.985 268.771 121.501 268.581C122.027 268.383 122.634 268.284 123.323 268.284ZM122.057 271.437C121.368 271.437 120.821 271.579 120.416 271.863C120.011 272.147 119.714 272.574 119.525 273.142C119.344 273.711 119.245 274.43 119.227 275.3V275.726C119.227 276.656 119.314 277.444 119.486 278.09C119.667 278.736 119.964 279.227 120.377 279.563C120.799 279.899 121.376 280.067 122.109 280.067C122.712 280.067 123.207 279.899 123.594 279.563C123.982 279.227 124.271 278.736 124.46 278.09C124.658 277.436 124.757 276.639 124.757 275.7C124.757 274.288 124.538 273.224 124.098 272.509C123.659 271.794 122.979 271.437 122.057 271.437ZM145.158 275.752C145.158 276.958 144.994 278.026 144.667 278.956C144.348 279.886 143.879 280.674 143.259 281.32C142.647 281.958 141.906 282.44 141.036 282.767C140.175 283.095 139.202 283.258 138.116 283.258C137.1 283.258 136.165 283.095 135.313 282.767C134.469 282.44 133.732 281.958 133.103 281.32C132.483 280.674 132.001 279.886 131.656 278.956C131.321 278.026 131.153 276.958 131.153 275.752C131.153 274.15 131.437 272.793 132.005 271.682C132.574 270.571 133.383 269.727 134.434 269.15C135.485 268.573 136.738 268.284 138.194 268.284C139.546 268.284 140.743 268.573 141.786 269.15C142.836 269.727 143.659 270.571 144.253 271.682C144.856 272.793 145.158 274.15 145.158 275.752ZM135.171 275.752C135.171 276.699 135.274 277.496 135.481 278.142C135.687 278.788 136.01 279.275 136.45 279.602C136.889 279.929 137.462 280.093 138.168 280.093C138.866 280.093 139.43 279.929 139.861 279.602C140.3 279.275 140.619 278.788 140.817 278.142C141.023 277.496 141.127 276.699 141.127 275.752C141.127 274.796 141.023 274.003 140.817 273.375C140.619 272.737 140.3 272.259 139.861 271.941C139.421 271.622 138.849 271.463 138.142 271.463C137.1 271.463 136.342 271.82 135.868 272.535C135.403 273.25 135.171 274.322 135.171 275.752ZM158.491 278.711C158.491 279.693 158.259 280.524 157.793 281.204C157.337 281.876 156.652 282.388 155.739 282.742C154.826 283.086 153.689 283.258 152.328 283.258C151.321 283.258 150.455 283.194 149.731 283.065C149.016 282.935 148.293 282.72 147.561 282.419V279.163C148.345 279.516 149.184 279.809 150.08 280.041C150.985 280.265 151.777 280.377 152.458 280.377C153.224 280.377 153.771 280.265 154.098 280.041C154.434 279.809 154.602 279.507 154.602 279.137C154.602 278.896 154.533 278.68 154.395 278.491C154.266 278.293 153.982 278.073 153.543 277.832C153.104 277.582 152.414 277.259 151.476 276.863C150.571 276.484 149.826 276.101 149.24 275.713C148.663 275.326 148.233 274.869 147.948 274.344C147.673 273.81 147.535 273.133 147.535 272.315C147.535 270.98 148.052 269.977 149.085 269.305C150.128 268.624 151.519 268.284 153.259 268.284C154.154 268.284 155.007 268.375 155.817 268.556C156.635 268.736 157.475 269.025 158.336 269.421L157.147 272.264C156.433 271.953 155.756 271.699 155.119 271.501C154.49 271.303 153.849 271.204 153.194 271.204C152.617 271.204 152.182 271.282 151.889 271.437C151.596 271.592 151.45 271.829 151.45 272.147C151.45 272.38 151.523 272.587 151.669 272.767C151.824 272.948 152.117 273.151 152.548 273.375C152.987 273.59 153.629 273.87 154.473 274.214C155.291 274.55 156.002 274.904 156.605 275.274C157.208 275.636 157.673 276.088 158 276.63C158.327 277.165 158.491 277.858 158.491 278.711ZM165.507 268.556V283H161.566V268.556H165.507ZM163.543 262.897C164.128 262.897 164.632 263.034 165.054 263.31C165.476 263.577 165.687 264.081 165.687 264.822C165.687 265.554 165.476 266.062 165.054 266.346C164.632 266.622 164.128 266.76 163.543 266.76C162.948 266.76 162.44 266.622 162.018 266.346C161.605 266.062 161.398 265.554 161.398 264.822C161.398 264.081 161.605 263.577 162.018 263.31C162.44 263.034 162.948 262.897 163.543 262.897ZM175.739 280.119C176.17 280.119 176.588 280.076 176.992 279.99C177.406 279.904 177.815 279.796 178.22 279.667V282.599C177.798 282.789 177.272 282.944 176.644 283.065C176.023 283.194 175.343 283.258 174.602 283.258C173.741 283.258 172.966 283.121 172.277 282.845C171.596 282.561 171.058 282.074 170.662 281.385C170.274 280.687 170.08 279.718 170.08 278.478V271.514H168.194V269.848L170.365 268.53L171.501 265.481H174.021V268.556H178.065V271.514H174.021V278.478C174.021 279.029 174.176 279.443 174.486 279.718C174.805 279.985 175.222 280.119 175.739 280.119ZM188.336 264.111H194.215C196.73 264.111 198.633 264.464 199.925 265.171C201.217 265.877 201.863 267.117 201.863 268.891C201.863 269.606 201.747 270.252 201.514 270.829C201.29 271.407 200.963 271.88 200.533 272.251C200.102 272.621 199.576 272.862 198.956 272.974V273.103C199.585 273.233 200.154 273.456 200.662 273.775C201.17 274.085 201.575 274.542 201.876 275.145C202.186 275.739 202.341 276.531 202.341 277.522C202.341 278.668 202.061 279.649 201.502 280.468C200.942 281.286 200.141 281.915 199.098 282.354C198.065 282.785 196.833 283 195.403 283H188.336V264.111ZM192.341 271.592H194.667C195.83 271.592 196.635 271.411 197.083 271.049C197.531 270.679 197.755 270.136 197.755 269.421C197.755 268.698 197.488 268.181 196.954 267.871C196.428 267.552 195.593 267.393 194.447 267.393H192.341V271.592ZM192.341 274.77V279.693H194.951C196.157 279.693 196.997 279.46 197.471 278.995C197.944 278.53 198.181 277.905 198.181 277.121C198.181 276.656 198.078 276.247 197.871 275.894C197.664 275.541 197.315 275.265 196.825 275.067C196.342 274.869 195.675 274.77 194.822 274.77H192.341ZM213.401 283H209.396V267.444H204.266V264.111H218.53V267.444H213.401V283ZM229.46 267.173C228.694 267.173 228.013 267.324 227.419 267.625C226.833 267.918 226.338 268.345 225.933 268.904C225.537 269.464 225.235 270.14 225.029 270.933C224.822 271.725 224.719 272.617 224.719 273.607C224.719 274.942 224.882 276.084 225.21 277.031C225.545 277.97 226.062 278.689 226.76 279.189C227.458 279.68 228.358 279.925 229.46 279.925C230.227 279.925 230.993 279.839 231.76 279.667C232.535 279.494 233.375 279.249 234.279 278.93V282.289C233.444 282.634 232.621 282.879 231.812 283.026C231.002 283.181 230.093 283.258 229.086 283.258C227.139 283.258 225.537 282.858 224.279 282.057C223.03 281.247 222.104 280.119 221.502 278.672C220.899 277.216 220.597 275.519 220.597 273.581C220.597 272.152 220.791 270.842 221.179 269.654C221.566 268.465 222.135 267.436 222.884 266.566C223.633 265.696 224.559 265.024 225.662 264.55C226.764 264.077 228.03 263.84 229.46 263.84C230.399 263.84 231.338 263.96 232.277 264.202C233.224 264.434 234.129 264.757 234.99 265.171L233.698 268.426C232.992 268.09 232.281 267.798 231.566 267.548C230.851 267.298 230.149 267.173 229.46 267.173Z" fill="#FBFBFB"/>
<rect x="251.711" y="257.365" width="54.7287" height="31.2687" rx="15.6344" fill="#F7931A" fill-opacity="0.1"/>
<rect x="251.711" y="257.365" width="54.7287" height="31.2687" rx="15.6344" stroke="#F7931A" stroke-width="0.55125"/>
<path d="M278.935 267.694L274.695 279.5H273.314L269.075 267.694H270.512L273.274 275.471C273.387 275.783 273.487 276.082 273.573 276.367C273.664 276.652 273.745 276.927 273.815 277.191C273.885 277.454 273.947 277.71 274.001 277.958C274.055 277.71 274.117 277.454 274.187 277.191C274.256 276.921 274.337 276.644 274.429 276.359C274.52 276.068 274.623 275.764 274.736 275.446L277.481 267.694H278.935ZM284.749 279.5H283.44V271.134C283.44 270.817 283.44 270.545 283.44 270.319C283.446 270.087 283.451 269.877 283.457 269.689C283.467 269.495 283.481 269.299 283.497 269.099C283.33 269.272 283.174 269.42 283.029 269.544C282.883 269.662 282.703 269.81 282.488 269.988L281.139 271.07L280.437 270.157L283.634 267.694H284.749V279.5Z" fill="white"/>
<path d="M783.298 21.8889L787.239 14.1111H791.554L785.288 25.6486V33H781.309V25.7778L775.042 14.1111H779.384L783.298 21.8889ZM797.562 18.5555V33H793.621V18.5555H797.562ZM795.598 12.8966C796.184 12.8966 796.688 13.0344 797.11 13.31C797.532 13.5771 797.743 14.0809 797.743 14.8217C797.743 15.5538 797.532 16.062 797.11 16.3462C796.688 16.6218 796.184 16.7597 795.598 16.7597C795.004 16.7597 794.496 16.6218 794.074 16.3462C793.66 16.062 793.453 15.5538 793.453 14.8217C793.453 14.0809 793.66 13.5771 794.074 13.31C794.496 13.0344 795.004 12.8966 795.598 12.8966ZM807.665 18.2842C809 18.2842 810.15 18.5426 811.115 19.0594C812.08 19.5676 812.825 20.3083 813.35 21.2816C813.875 22.2549 814.138 23.4436 814.138 24.8475V26.7597L804.823 26.7597C804.866 27.8708 805.198 28.745 805.818 29.3824C806.447 30.0112 807.316 30.3256 808.428 30.3256C809.349 30.3256 810.193 30.2308 810.96 30.0413C811.726 29.8518 812.515 29.5676 813.324 29.1886V32.2377C812.609 32.5909 811.86 32.8493 811.076 33.0129C810.301 33.1766 809.358 33.2584 808.247 33.2584C806.8 33.2584 805.516 32.9914 804.397 32.4574C803.285 31.9233 802.411 31.1094 801.774 30.0155C801.145 28.9216 800.831 27.5435 800.831 25.8811C800.831 24.1929 801.115 22.789 801.683 21.6692C802.26 20.5409 803.061 19.6968 804.086 19.1369C805.111 18.5684 806.304 18.2842 807.665 18.2842ZM807.691 21.0878C806.925 21.0878 806.287 21.3333 805.779 21.8243C805.279 22.3152 804.991 23.0861 804.913 24.1369L810.443 24.1369C810.434 23.5512 810.327 23.0301 810.12 22.5736C809.922 22.1171 809.62 21.7554 809.216 21.4884C808.819 21.2213 808.311 21.0878 807.691 21.0878ZM821.283 33H817.342V12.8966H821.283V33ZM830.004 33.2584C828.393 33.2584 827.08 32.6296 826.063 31.3721C825.055 30.1059 824.552 28.2498 824.552 25.8036C824.552 23.3316 825.064 21.4625 826.089 20.1964C827.114 18.9216 828.453 18.2842 830.107 18.2842C830.796 18.2842 831.403 18.379 831.929 18.5684C832.454 18.7579 832.906 19.012 833.285 19.3307C833.673 19.6494 834 20.0069 834.267 20.4031H834.397C834.345 20.1275 834.28 19.7226 834.203 19.1886C834.134 18.646 834.099 18.0904 834.099 17.5219V12.8966L838.053 12.8966V33H835.03L834.267 31.1266H834.099C833.85 31.5228 833.535 31.8846 833.156 32.2119C832.786 32.5306 832.342 32.7847 831.826 32.9742C831.309 33.1637 830.701 33.2584 830.004 33.2584ZM831.386 30.1189C832.463 30.1189 833.221 29.8002 833.66 29.1628C834.108 28.5168 834.345 27.5478 834.371 26.2558V25.8294C834.371 24.4255 834.155 23.3531 833.725 22.6124C833.294 21.863 832.493 21.4884 831.322 21.4884C830.452 21.4884 829.771 21.863 829.28 22.6124C828.789 23.3617 828.544 24.4427 828.544 25.8553C828.544 27.2679 828.789 28.3316 829.28 29.0465C829.78 29.7614 830.482 30.1189 831.386 30.1189ZM840.895 27.522V24.292H847.833V27.522H840.895ZM854.926 39.3566C852.911 39.3566 851.369 39.0035 850.301 38.2972C849.242 37.5995 848.712 36.6176 848.712 35.3514C848.712 34.4815 848.983 33.7537 849.526 33.168C850.068 32.5823 850.865 32.1645 851.916 31.9147C851.511 31.7425 851.158 31.4625 850.857 31.0749C850.555 30.6787 850.404 30.261 850.404 29.8217C850.404 29.2704 850.564 28.8139 850.882 28.4522C851.201 28.0818 851.662 27.7201 852.265 27.3669C851.507 27.0396 850.904 26.5142 850.456 25.7907C850.017 25.0672 849.797 24.2145 849.797 23.2325C849.797 22.1817 850.025 21.2902 850.482 20.5581C850.947 19.8174 851.619 19.2532 852.497 18.8656C853.385 18.478 854.461 18.2842 855.727 18.2842C855.994 18.2842 856.304 18.3014 856.658 18.3359C857.011 18.3703 857.334 18.4091 857.627 18.4522C857.928 18.4952 858.13 18.5297 858.234 18.5555H863.273V20.5581L861.012 21.1395C861.218 21.4582 861.373 21.7984 861.477 22.1602C861.58 22.5219 861.632 22.9052 861.632 23.3101C861.632 24.8605 861.089 26.0706 860.004 26.9406C858.927 27.8019 857.429 28.2325 855.508 28.2325C855.051 28.2067 854.621 28.1723 854.216 28.1292C854.018 28.2842 853.867 28.4479 853.764 28.6201C853.66 28.7924 853.609 28.9733 853.609 29.1628C853.609 29.3523 853.686 29.5116 853.841 29.6408C854.005 29.7614 854.246 29.8562 854.565 29.9251C854.892 29.9854 855.297 30.0155 855.779 30.0155H858.234C859.819 30.0155 861.025 30.3557 861.851 31.0362C862.687 31.7166 863.105 32.7158 863.105 34.0336C863.105 35.7218 862.398 37.031 860.986 37.9612C859.582 38.8915 857.562 39.3566 854.926 39.3566ZM855.094 36.7855C856.033 36.7855 856.838 36.6951 857.51 36.5142C858.191 36.342 858.712 36.0922 859.074 35.7649C859.435 35.4462 859.616 35.0629 859.616 34.615C859.616 34.2532 859.509 33.9647 859.293 33.7494C859.087 33.5426 858.768 33.3962 858.337 33.3101C857.915 33.2239 857.373 33.1809 856.709 33.1809H854.668C854.186 33.1809 853.751 33.2584 853.363 33.4134C852.984 33.5685 852.683 33.7838 852.459 34.0594C852.235 34.3437 852.123 34.671 852.123 35.0413C852.123 35.584 852.381 36.0103 852.898 36.3204C853.423 36.6305 854.155 36.7855 855.094 36.7855ZM855.727 25.8294C856.468 25.8294 857.011 25.6012 857.355 25.1447C857.7 24.6882 857.872 24.068 857.872 23.2842C857.872 22.4143 857.691 21.764 857.329 21.3333C856.976 20.894 856.442 20.6744 855.727 20.6744C855.004 20.6744 854.461 20.894 854.099 21.3333C853.738 21.764 853.557 22.4143 853.557 23.2842C853.557 24.068 853.733 24.6882 854.087 25.1447C854.448 25.6012 854.995 25.8294 855.727 25.8294ZM871.619 18.2842C872.954 18.2842 874.104 18.5426 875.069 19.0594C876.033 19.5676 876.778 20.3083 877.304 21.2816C877.829 22.2549 878.092 23.4436 878.092 24.8475V26.7597L868.776 26.7597C868.82 27.8708 869.151 28.745 869.771 29.3824C870.4 30.0112 871.27 30.3256 872.381 30.3256C873.303 30.3256 874.147 30.2308 874.913 30.0413C875.68 29.8518 876.468 29.5676 877.278 29.1886V32.2377C876.563 32.5909 875.814 32.8493 875.03 33.0129C874.255 33.1766 873.311 33.2584 872.2 33.2584C870.753 33.2584 869.47 32.9914 868.35 32.4574C867.239 31.9233 866.365 31.1094 865.727 30.0155C865.099 28.9216 864.784 27.5435 864.784 25.8811C864.784 24.1929 865.068 22.789 865.637 21.6692C866.214 20.5409 867.015 19.6968 868.04 19.1369C869.065 18.5684 870.258 18.2842 871.619 18.2842ZM871.645 21.0878C870.878 21.0878 870.241 21.3333 869.733 21.8243C869.233 22.3152 868.944 23.0861 868.867 24.1369H874.397C874.388 23.5512 874.28 23.0301 874.074 22.5736C873.876 22.1171 873.574 21.7554 873.169 21.4884C872.773 21.2213 872.265 21.0878 871.645 21.0878ZM889.5 18.2842C891.042 18.2842 892.282 18.7063 893.221 19.5504C894.16 20.3859 894.629 21.7295 894.629 23.5814V33H890.689V24.5633C890.689 23.5297 890.499 22.7502 890.12 22.2248C889.75 21.6994 889.164 21.4367 888.363 21.4367C887.157 21.4367 886.335 21.8458 885.895 22.6641C885.456 23.4823 885.236 24.6623 885.236 26.2041V33H881.296V18.5555H884.306L884.836 20.4031H885.056C885.366 19.9035 885.749 19.4987 886.205 19.1886C886.671 18.8785 887.183 18.6503 887.743 18.5038C888.311 18.3574 888.897 18.2842 889.5 18.2842ZM904.642 18.2842C905.977 18.2842 907.127 18.5426 908.092 19.0594C909.057 19.5676 909.802 20.3083 910.327 21.2816C910.852 22.2549 911.115 23.4436 911.115 24.8475V26.7597H901.8C901.843 27.8708 902.174 28.745 902.795 29.3824C903.423 30.0112 904.293 30.3256 905.404 30.3256C906.326 30.3256 907.17 30.2308 907.937 30.0413C908.703 29.8518 909.491 29.5676 910.301 29.1886V32.2377C909.586 32.5909 908.837 32.8493 908.053 33.0129C907.278 33.1766 906.335 33.2584 905.224 33.2584C903.777 33.2584 902.493 32.9914 901.373 32.4574C900.262 31.9233 899.388 31.1094 898.751 30.0155C898.122 28.9216 897.808 27.5435 897.808 25.8811C897.808 24.1929 898.092 22.789 898.66 21.6692C899.237 20.5409 900.038 19.6968 901.063 19.1369C902.088 18.5684 903.281 18.2842 904.642 18.2842ZM904.668 21.0878C903.901 21.0878 903.264 21.3333 902.756 21.8243C902.256 22.3152 901.968 23.0861 901.89 24.1369H907.42C907.411 23.5512 907.304 23.0301 907.097 22.5736C906.899 22.1171 906.597 21.7554 906.193 21.4884C905.796 21.2213 905.288 21.0878 904.668 21.0878ZM922.381 18.2842C922.579 18.2842 922.808 18.2971 923.066 18.323C923.333 18.3402 923.548 18.366 923.712 18.4005L923.415 22.0956C923.286 22.0525 923.1 22.0224 922.859 22.0051C922.627 21.9793 922.424 21.9664 922.252 21.9664C921.744 21.9664 921.249 22.031 920.766 22.1602C920.293 22.2894 919.866 22.5004 919.487 22.7933C919.108 23.0775 918.807 23.4565 918.583 23.9302C918.367 24.3953 918.26 24.9681 918.26 25.6486V33H914.319V18.5555H917.304L917.885 20.9845H918.079C918.363 20.4935 918.716 20.0456 919.138 19.6408C919.569 19.2274 920.056 18.9001 920.598 18.6589C921.15 18.4091 921.744 18.2842 922.381 18.2842ZM932.252 18.2584C934.19 18.2584 935.676 18.6804 936.709 19.5245C937.743 20.3686 938.26 21.652 938.26 23.3747V33H935.508L934.746 31.0362H934.642C934.229 31.553 933.807 31.975 933.376 32.3023C932.945 32.6296 932.45 32.8708 931.89 33.0258C931.33 33.1809 930.65 33.2584 929.849 33.2584C928.996 33.2584 928.23 33.0947 927.549 32.7674C926.877 32.4401 926.348 31.9406 925.96 31.2687C925.572 30.5883 925.379 29.727 925.379 28.6847C925.379 27.1516 925.917 26.0232 926.994 25.2997C928.07 24.5676 929.685 24.1628 931.839 24.0853L934.345 24.0077V23.3747C934.345 22.6167 934.147 22.0611 933.751 21.708C933.355 21.3548 932.803 21.1783 932.097 21.1783C931.399 21.1783 930.715 21.2773 930.043 21.4754C929.371 21.6735 928.699 21.9233 928.027 22.2248L926.722 19.5633C927.489 19.1585 928.346 18.8398 929.293 18.6072C930.249 18.3746 931.236 18.2584 932.252 18.2584ZM934.345 26.3075L932.821 26.3592C931.546 26.3936 930.659 26.6219 930.159 27.0439C929.668 27.466 929.423 28.0215 929.423 28.7106C929.423 29.3135 929.599 29.7442 929.952 30.0026C930.305 30.2524 930.766 30.3773 931.335 30.3773C932.179 30.3773 932.889 30.1275 933.467 29.6279C934.052 29.1283 934.345 28.4177 934.345 27.4961V26.3075ZM948.415 30.1189C948.846 30.1189 949.263 30.0758 949.668 29.9897C950.082 29.9035 950.491 29.7959 950.896 29.6667V32.5995C950.473 32.789 949.948 32.944 949.319 33.0646C948.699 33.1938 948.019 33.2584 947.278 33.2584C946.417 33.2584 945.641 33.1206 944.952 32.845C944.272 32.5607 943.734 32.0741 943.337 31.385C942.95 30.6873 942.756 29.7183 942.756 28.478V21.5142H940.87V19.8475L943.04 18.5297L944.177 15.4806L946.697 15.4806V18.5555H950.74V21.5142H946.697V28.478C946.697 29.0293 946.852 29.4427 947.162 29.7183C947.48 29.9854 947.898 30.1189 948.415 30.1189ZM957.769 18.5555V33H953.828V18.5555H957.769ZM955.805 12.8966C956.391 12.8966 956.895 13.0344 957.317 13.31C957.739 13.5771 957.95 14.0809 957.95 14.8217C957.95 15.5538 957.739 16.062 957.317 16.3462C956.895 16.6218 956.391 16.7597 955.805 16.7597C955.211 16.7597 954.703 16.6218 954.281 16.3462C953.867 16.062 953.66 15.5538 953.66 14.8217C953.66 14.0809 953.867 13.5771 954.281 13.31C954.703 13.0344 955.211 12.8966 955.805 12.8966ZM970.12 18.2842C971.662 18.2842 972.902 18.7063 973.841 19.5504C974.78 20.3859 975.25 21.7295 975.25 23.5814V33H971.309V24.5633C971.309 23.5297 971.12 22.7502 970.741 22.2248C970.37 21.6994 969.784 21.4367 968.983 21.4367C967.778 21.4367 966.955 21.8458 966.516 22.6641C966.076 23.4823 965.857 24.6623 965.857 26.2041V33H961.916V18.5555H964.927L965.456 20.4031H965.676C965.986 19.9035 966.369 19.4987 966.826 19.1886C967.291 18.8785 967.803 18.6503 968.363 18.5038C968.932 18.3574 969.517 18.2842 970.12 18.2842ZM983.531 39.3566C981.516 39.3566 979.974 39.0035 978.906 38.2972C977.846 37.5995 977.317 36.6176 977.317 35.3514C977.317 34.4815 977.588 33.7537 978.131 33.168C978.673 32.5823 979.47 32.1645 980.521 31.9147C980.116 31.7425 979.763 31.4625 979.461 31.0749C979.16 30.6787 979.009 30.261 979.009 29.8217C979.009 29.2704 979.169 28.8139 979.487 28.4522C979.806 28.0818 980.267 27.7201 980.87 27.3669C980.112 27.0396 979.509 26.5142 979.061 25.7907C978.622 25.0672 978.402 24.2145 978.402 23.2325C978.402 22.1817 978.63 21.2902 979.087 20.5581C979.552 19.8174 980.224 19.2532 981.102 18.8656C981.989 18.478 983.066 18.2842 984.332 18.2842C984.599 18.2842 984.909 18.3014 985.262 18.3359C985.616 18.3703 985.939 18.4091 986.231 18.4522C986.533 18.4952 986.735 18.5297 986.839 18.5555H991.877V20.5581L989.617 21.1395C989.823 21.4582 989.978 21.7984 990.082 22.1602C990.185 22.5219 990.237 22.9052 990.237 23.3101C990.237 24.8605 989.694 26.0706 988.609 26.9406C987.532 27.8019 986.033 28.2325 984.113 28.2325C983.656 28.2067 983.225 28.1723 982.821 28.1292C982.623 28.2842 982.472 28.4479 982.368 28.6201C982.265 28.7924 982.213 28.9733 982.213 29.1628C982.213 29.3523 982.291 29.5116 982.446 29.6408C982.61 29.7614 982.851 29.8562 983.169 29.9251C983.497 29.9854 983.902 30.0155 984.384 30.0155L986.839 30.0155C988.424 30.0155 989.629 30.3557 990.456 31.0362C991.292 31.7166 991.71 32.7158 991.71 34.0336C991.71 35.7218 991.003 37.031 989.591 37.9612C988.187 38.8915 986.167 39.3566 983.531 39.3566ZM983.699 36.7855C984.638 36.7855 985.443 36.6951 986.115 36.5142C986.796 36.342 987.317 36.0922 987.679 35.7649C988.04 35.4462 988.221 35.0629 988.221 34.615C988.221 34.2532 988.113 33.9647 987.898 33.7494C987.691 33.5426 987.373 33.3962 986.942 33.3101C986.52 33.2239 985.977 33.1809 985.314 33.1809L983.273 33.1809C982.79 33.1809 982.356 33.2584 981.968 33.4134C981.589 33.5685 981.287 33.7838 981.064 34.0594C980.84 34.3437 980.728 34.671 980.728 35.0413C980.728 35.584 980.986 36.0103 981.503 36.3204C982.028 36.6305 982.76 36.7855 983.699 36.7855ZM984.332 25.8294C985.073 25.8294 985.616 25.6012 985.96 25.1447C986.305 24.6882 986.477 24.068 986.477 23.2842C986.477 22.4143 986.296 21.764 985.934 21.3333C985.581 20.894 985.047 20.6744 984.332 20.6744C983.609 20.6744 983.066 20.894 982.704 21.3333C982.343 21.764 982.162 22.4143 982.162 23.2842C982.162 24.068 982.338 24.6882 982.691 25.1447C983.053 25.6012 983.6 25.8294 984.332 25.8294ZM1001.45 14.1111L1007.33 14.1111C1009.84 14.1111 1011.75 14.4642 1013.04 15.1705C1014.33 15.8768 1014.98 17.1171 1014.98 18.8914C1014.98 19.6063 1014.86 20.2523 1014.63 20.8294C1014.41 21.4065 1014.08 21.8803 1013.65 22.2506C1013.22 22.621 1012.69 22.8622 1012.07 22.9741V23.1033C1012.7 23.2325 1013.27 23.4565 1013.78 23.7752C1014.28 24.0853 1014.69 24.5418 1014.99 25.1447C1015.3 25.739 1015.46 26.5314 1015.46 27.522C1015.46 28.6675 1015.18 29.6494 1014.62 30.4677C1014.06 31.286 1013.26 31.9147 1012.21 32.354C1011.18 32.7847 1009.95 33 1008.52 33L1001.45 33V14.1111ZM1005.46 21.5917L1007.78 21.5917C1008.94 21.5917 1009.75 21.4108 1010.2 21.0491C1010.65 20.6787 1010.87 20.1361 1010.87 19.4212C1010.87 18.6976 1010.6 18.1809 1010.07 17.8708C1009.54 17.5521 1008.71 17.3927 1007.56 17.3927H1005.46V21.5917ZM1005.46 24.77V29.6925L1008.07 29.6925C1009.27 29.6925 1010.11 29.4599 1010.59 28.9948C1011.06 28.5297 1011.3 27.9052 1011.3 27.1214C1011.3 26.6563 1011.19 26.2472 1010.99 25.894C1010.78 25.5409 1010.43 25.2653 1009.94 25.0672C1009.46 24.8691 1008.79 24.77 1007.94 24.77L1005.46 24.77ZM1026.52 33H1022.51V17.4444H1017.38V14.1111L1031.65 14.1111V17.4444H1026.52V33ZM1042.58 17.1731C1041.81 17.1731 1041.13 17.3238 1040.53 17.6253C1039.95 17.9181 1039.45 18.3445 1039.05 18.9044C1038.65 19.4642 1038.35 20.1404 1038.14 20.9328C1037.94 21.7252 1037.83 22.6167 1037.83 23.6072C1037.83 24.9423 1038 26.0835 1038.32 27.031C1038.66 27.9698 1039.18 28.6891 1039.88 29.1886C1040.57 29.6796 1041.47 29.9251 1042.58 29.9251C1043.34 29.9251 1044.11 29.8389 1044.88 29.6667C1045.65 29.4944 1046.49 29.2489 1047.39 28.9302V32.2894C1046.56 32.6339 1045.74 32.8794 1044.93 33.0258C1044.12 33.1809 1043.21 33.2584 1042.2 33.2584C1040.25 33.2584 1038.65 32.8579 1037.39 32.0568C1036.15 31.2472 1035.22 30.1189 1034.62 28.6718C1034.01 27.2162 1033.71 25.5194 1033.71 23.5814C1033.71 22.1516 1033.91 20.8424 1034.29 19.6537C1034.68 18.4651 1035.25 17.4358 1036 16.5659C1036.75 15.6959 1037.67 15.0241 1038.78 14.5504C1039.88 14.0766 1041.15 13.8398 1042.58 13.8398C1043.51 13.8398 1044.45 13.9603 1045.39 14.2015C1046.34 14.4341 1047.24 14.7571 1048.11 15.1705L1046.81 18.4263C1046.11 18.0904 1045.4 17.7976 1044.68 17.5478C1043.97 17.298 1043.26 17.1731 1042.58 17.1731ZM784.707 73H780.701V57.4444H775.572V54.1111H789.836V57.4444H784.707V73ZM805.559 65.7519C805.559 66.9578 805.396 68.0258 805.068 68.9561C804.75 69.8863 804.28 70.6744 803.66 71.3204C803.049 71.9578 802.308 72.4401 801.438 72.7674C800.577 73.0947 799.603 73.2584 798.518 73.2584C797.502 73.2584 796.567 73.0947 795.714 72.7674C794.87 72.4401 794.134 71.9578 793.505 71.3204C792.885 70.6744 792.403 69.8863 792.058 68.9561C791.722 68.0258 791.554 66.9578 791.554 65.7519C791.554 64.1499 791.838 62.7933 792.407 61.6821C792.975 60.571 793.785 59.7269 794.836 59.1498C795.887 58.5728 797.14 58.2842 798.595 58.2842C799.948 58.2842 801.145 58.5728 802.187 59.1498C803.238 59.7269 804.061 60.571 804.655 61.6821C805.258 62.7933 805.559 64.1499 805.559 65.7519ZM795.572 65.7519C795.572 66.6994 795.676 67.4961 795.882 68.1421C796.089 68.7881 796.412 69.2748 796.851 69.6021C797.291 69.9294 797.863 70.093 798.57 70.093C799.267 70.093 799.832 69.9294 800.262 69.6021C800.701 69.2748 801.02 68.7881 801.218 68.1421C801.425 67.4961 801.528 66.6994 801.528 65.7519C801.528 64.7959 801.425 64.0034 801.218 63.3747C801.02 62.7373 800.701 62.2592 800.262 61.9405C799.823 61.6219 799.25 61.4625 798.544 61.4625C797.502 61.4625 796.744 61.82 796.27 62.5349C795.805 63.2498 795.572 64.3221 795.572 65.7519ZM812.756 52.8966V61.8889C812.756 62.4315 812.734 62.9741 812.691 63.5168C812.648 64.0594 812.601 64.6021 812.549 65.1447H812.601C812.868 64.7657 813.139 64.391 813.415 64.0207C813.699 63.6503 814 63.2928 814.319 62.9483L818.363 58.5555H822.807L817.071 64.8217L823.156 73L818.608 73L814.448 67.1473L812.756 68.5039V73H808.815V52.8966H812.756ZM831.18 58.2842C832.515 58.2842 833.664 58.5426 834.629 59.0594C835.594 59.5676 836.339 60.3083 836.864 61.2816C837.39 62.2549 837.652 63.4436 837.652 64.8475V66.7597H828.337C828.38 67.8708 828.712 68.745 829.332 69.3824C829.961 70.0112 830.831 70.3256 831.942 70.3256C832.863 70.3256 833.708 70.2308 834.474 70.0413C835.241 69.8518 836.029 69.5676 836.838 69.1886V72.2377C836.124 72.5909 835.374 72.8493 834.59 73.0129C833.815 73.1766 832.872 73.2584 831.761 73.2584C830.314 73.2584 829.031 72.9914 827.911 72.4574C826.8 71.9233 825.925 71.1094 825.288 70.0155C824.659 68.9216 824.345 67.5435 824.345 65.8811C824.345 64.1929 824.629 62.789 825.198 61.6692C825.775 60.5409 826.576 59.6968 827.601 59.1369C828.626 58.5684 829.819 58.2842 831.18 58.2842ZM831.205 61.0878C830.439 61.0878 829.801 61.3333 829.293 61.8243C828.794 62.3152 828.505 63.0861 828.428 64.1369H833.957C833.949 63.5512 833.841 63.0301 833.634 62.5736C833.436 62.1171 833.135 61.7554 832.73 61.4884C832.334 61.2213 831.826 61.0878 831.205 61.0878ZM849.061 58.2842C850.602 58.2842 851.843 58.7063 852.782 59.5504C853.72 60.3859 854.19 61.7295 854.19 63.5814V73H850.249V64.5633C850.249 63.5297 850.06 62.7502 849.681 62.2248C849.31 61.6994 848.725 61.4367 847.924 61.4367C846.718 61.4367 845.895 61.8458 845.456 62.6641C845.017 63.4823 844.797 64.6623 844.797 66.2041V73H840.857V58.5555L843.867 58.5555L844.397 60.4031H844.616C844.926 59.9035 845.31 59.4987 845.766 59.1886C846.231 58.8785 846.744 58.6503 847.304 58.5038C847.872 58.3574 848.458 58.2842 849.061 58.2842ZM865.43 73V54.1111H869.435V73H865.43ZM883.957 68.7106C883.957 69.6925 883.725 70.5237 883.26 71.2041C882.803 71.876 882.118 72.3885 881.205 72.7416C880.292 73.0861 879.156 73.2584 877.795 73.2584C876.787 73.2584 875.921 73.1938 875.198 73.0646C874.483 72.9354 873.759 72.7201 873.027 72.4186V69.1628C873.811 69.5159 874.651 69.8088 875.547 70.0413C876.451 70.2653 877.243 70.3773 877.924 70.3773C878.69 70.3773 879.237 70.2653 879.565 70.0413C879.901 69.8088 880.069 69.5073 880.069 69.1369C880.069 68.8958 880 68.6804 879.862 68.4909C879.733 68.2928 879.448 68.0732 879.009 67.832C878.57 67.5822 877.881 67.2592 876.942 66.863C876.037 66.4841 875.292 66.1008 874.707 65.7132C874.13 65.3256 873.699 64.8691 873.415 64.3437C873.139 63.8096 873.001 63.1335 873.001 62.3152C873.001 60.9802 873.518 59.9767 874.552 59.3049C875.594 58.6244 876.985 58.2842 878.725 58.2842C879.621 58.2842 880.473 58.3746 881.283 58.5555C882.101 58.7364 882.941 59.025 883.802 59.4212L882.614 62.2635C881.899 61.9535 881.223 61.6994 880.585 61.5013C879.957 61.3032 879.315 61.2041 878.66 61.2041C878.083 61.2041 877.648 61.2816 877.355 61.4367C877.062 61.5917 876.916 61.8286 876.916 62.1473C876.916 62.3798 876.989 62.5865 877.136 62.7674C877.291 62.9483 877.584 63.1507 878.014 63.3747C878.454 63.59 879.095 63.8699 879.939 64.2145C880.758 64.5504 881.468 64.9035 882.071 65.2739C882.674 65.6356 883.139 66.0878 883.466 66.6305C883.794 67.1645 883.957 67.8579 883.957 68.7106ZM897.11 68.7106C897.11 69.6925 896.877 70.5237 896.412 71.2041C895.956 71.876 895.271 72.3885 894.358 72.7416C893.445 73.0861 892.308 73.2584 890.947 73.2584C889.939 73.2584 889.074 73.1938 888.35 73.0646C887.635 72.9354 886.912 72.7201 886.18 72.4186V69.1628C886.963 69.5159 887.803 69.8088 888.699 70.0413C889.603 70.2653 890.396 70.3773 891.076 70.3773C891.843 70.3773 892.39 70.2653 892.717 70.0413C893.053 69.8088 893.221 69.5073 893.221 69.1369C893.221 68.8958 893.152 68.6804 893.014 68.4909C892.885 68.2928 892.601 68.0732 892.162 67.832C891.722 67.5822 891.033 67.2592 890.094 66.863C889.19 66.4841 888.445 66.1008 887.859 65.7132C887.282 65.3256 886.851 64.8691 886.567 64.3437C886.292 63.8096 886.154 63.1335 886.154 62.3152C886.154 60.9802 886.671 59.9767 887.704 59.3049C888.746 58.6244 890.137 58.2842 891.877 58.2842C892.773 58.2842 893.626 58.3746 894.435 58.5555C895.254 58.7364 896.094 59.025 896.955 59.4212L895.766 62.2635C895.051 61.9535 894.375 61.6994 893.738 61.5013C893.109 61.3032 892.467 61.2041 891.813 61.2041C891.236 61.2041 890.801 61.2816 890.508 61.4367C890.215 61.5917 890.069 61.8286 890.069 62.1473C890.069 62.3798 890.142 62.5865 890.288 62.7674C890.443 62.9483 890.736 63.1507 891.167 63.3747C891.606 63.59 892.248 63.8699 893.092 64.2145C893.91 64.5504 894.621 64.9035 895.224 65.2739C895.827 65.6356 896.292 66.0878 896.619 66.6305C896.946 67.1645 897.11 67.8579 897.11 68.7106ZM913.441 58.5555V73H910.417L909.888 71.1525H909.681C909.371 71.6434 908.983 72.0439 908.518 72.354C908.053 72.6641 907.541 72.8923 906.981 73.0388C906.421 73.1852 905.839 73.2584 905.237 73.2584C904.203 73.2584 903.303 73.0775 902.536 72.7158C901.77 72.3454 901.171 71.7726 900.74 70.9974C900.318 70.2222 900.107 69.2145 900.107 67.9742V58.5555H904.048V66.9922C904.048 68.0258 904.233 68.8053 904.603 69.3307C904.974 69.8562 905.564 70.1189 906.373 70.1189C907.175 70.1189 907.803 69.938 908.26 69.5762C908.716 69.2059 909.035 68.6675 909.216 67.9612C909.405 67.2463 909.5 66.3764 909.5 65.3514V58.5555H913.441ZM923.492 58.2584C925.43 58.2584 926.916 58.6804 927.95 59.5245C928.983 60.3686 929.5 61.652 929.5 63.3747V73H926.748L925.986 71.0362H925.883C925.469 71.553 925.047 71.975 924.616 72.3023C924.186 72.6296 923.69 72.8708 923.131 73.0258C922.571 73.1809 921.89 73.2584 921.089 73.2584C920.237 73.2584 919.47 73.0947 918.79 72.7674C918.118 72.4401 917.588 71.9406 917.2 71.2687C916.813 70.5883 916.619 69.727 916.619 68.6847C916.619 67.1516 917.157 66.0232 918.234 65.2997C919.311 64.5676 920.926 64.1628 923.079 64.0853L925.585 64.0077V63.3747C925.585 62.6167 925.387 62.0611 924.991 61.708C924.595 61.3548 924.044 61.1783 923.337 61.1783C922.64 61.1783 921.955 61.2773 921.283 61.4754C920.611 61.6735 919.939 61.9233 919.268 62.2248L917.963 59.5633C918.729 59.1585 919.586 58.8398 920.534 58.6072C921.49 58.3746 922.476 58.2584 923.492 58.2584ZM925.585 66.3075L924.061 66.3592C922.786 66.3936 921.899 66.6219 921.399 67.0439C920.908 67.466 920.663 68.0215 920.663 68.7106C920.663 69.3135 920.839 69.7442 921.193 70.0026C921.546 70.2524 922.007 70.3773 922.575 70.3773C923.419 70.3773 924.13 70.1275 924.707 69.6279C925.293 69.1283 925.585 68.4177 925.585 67.4961V66.3075ZM941.774 58.2842C943.316 58.2842 944.556 58.7063 945.495 59.5504C946.434 60.3859 946.903 61.7295 946.903 63.5814V73H942.963V64.5633C942.963 63.5297 942.773 62.7502 942.394 62.2248C942.024 61.6994 941.438 61.4367 940.637 61.4367C939.431 61.4367 938.609 61.8458 938.169 62.6641C937.73 63.4823 937.51 64.6623 937.51 66.2041V73H933.57V58.5555H936.58L937.11 60.4031H937.33C937.64 59.9035 938.023 59.4987 938.479 59.1886C938.945 58.8785 939.457 58.6503 940.017 58.5038C940.585 58.3574 941.171 58.2842 941.774 58.2842ZM956.826 73.2584C955.396 73.2584 954.177 73 953.169 72.4832C952.162 71.9578 951.395 71.1481 950.87 70.0543C950.344 68.9604 950.082 67.5607 950.082 65.8553C950.082 64.0896 950.379 62.6511 950.973 61.54C951.576 60.4203 952.407 59.5977 953.467 59.0723C954.535 58.5469 955.771 58.2842 957.175 58.2842C958.174 58.2842 959.035 58.3833 959.759 58.5814C960.491 58.7709 961.128 58.9991 961.671 59.2661L960.508 62.3152C959.888 62.0654 959.311 61.863 958.777 61.708C958.243 61.5443 957.709 61.4625 957.175 61.4625C956.486 61.4625 955.913 61.6262 955.456 61.9535C955 62.2722 954.66 62.7545 954.436 63.4005C954.212 64.0465 954.1 64.8561 954.1 65.8294C954.1 66.7855 954.22 67.5779 954.461 68.2067C954.703 68.8355 955.051 69.3049 955.508 69.615C955.964 69.9164 956.52 70.0672 957.175 70.0672C957.993 70.0672 958.721 69.9595 959.358 69.7442C959.995 69.5202 960.616 69.2102 961.219 68.8139V72.186C960.616 72.565 959.983 72.8363 959.319 73C958.665 73.1723 957.834 73.2584 956.826 73.2584ZM970.534 58.2842C971.869 58.2842 973.019 58.5426 973.983 59.0594C974.948 59.5676 975.693 60.3083 976.219 61.2816C976.744 62.2549 977.007 63.4436 977.007 64.8475V66.7597H967.691C967.734 67.8708 968.066 68.745 968.686 69.3824C969.315 70.0112 970.185 70.3256 971.296 70.3256C972.218 70.3256 973.062 70.2308 973.828 70.0413C974.595 69.8518 975.383 69.5676 976.193 69.1886V72.2377C975.478 72.5909 974.728 72.8493 973.945 73.0129C973.169 73.1766 972.226 73.2584 971.115 73.2584C969.668 73.2584 968.385 72.9914 967.265 72.4574C966.154 71.9233 965.28 71.1094 964.642 70.0155C964.014 68.9216 963.699 67.5435 963.699 65.8811C963.699 64.1929 963.983 62.789 964.552 61.6692C965.129 60.5409 965.93 59.6968 966.955 59.1369C967.98 58.5684 969.173 58.2842 970.534 58.2842ZM970.56 61.0878C969.793 61.0878 969.156 61.3333 968.647 61.8243C968.148 62.3152 967.859 63.0861 967.782 64.1369H973.312C973.303 63.5512 973.195 63.0301 972.989 62.5736C972.79 62.1171 972.489 61.7554 972.084 61.4884C971.688 61.2213 971.18 61.0878 970.56 61.0878Z" fill="#FBFBFB"/>
<rect x="996.995" y="43.262" width="54.7287" height="31.2687" rx="15.6344" fill="#F7931A" fill-opacity="0.1"/>
<rect x="996.995" y="43.262" width="54.7287" height="31.2687" rx="15.6344" stroke="#F7931A" stroke-width="0.55125"/>
<path d="M1024.22 53.5909L1019.98 65.3965H1018.6L1014.36 53.5909H1015.8L1018.56 61.3671C1018.67 61.6793 1018.77 61.9781 1018.86 62.2634C1018.95 62.5487 1019.03 62.8233 1019.1 63.087C1019.17 63.3508 1019.23 63.6065 1019.29 63.8542C1019.34 63.6065 1019.4 63.3508 1019.47 63.087C1019.54 62.8179 1019.62 62.5406 1019.71 62.2553C1019.8 61.9646 1019.91 61.6605 1020.02 61.3429L1022.77 53.5909H1024.22ZM1032.34 56.3445C1032.34 56.872 1032.24 57.3296 1032.04 57.7172C1031.83 58.1048 1031.55 58.4224 1031.18 58.6701C1030.81 58.9123 1030.38 59.0819 1029.89 59.1788V59.2434C1030.82 59.3618 1031.53 59.6633 1032 60.1478C1032.47 60.6323 1032.71 61.2675 1032.71 62.0535C1032.71 62.7371 1032.54 63.3428 1032.22 63.8703C1031.9 64.3979 1031.41 64.8124 1030.75 65.1139C1030.1 65.4099 1029.25 65.558 1028.22 65.558C1027.6 65.558 1027.02 65.5068 1026.49 65.4046C1025.96 65.3077 1025.45 65.1435 1024.97 64.912V63.6523C1025.46 63.8945 1025.99 64.0857 1026.57 64.2256C1027.15 64.3602 1027.7 64.4275 1028.24 64.4275C1029.32 64.4275 1030.1 64.2148 1030.57 63.7896C1031.05 63.3589 1031.29 62.7721 1031.29 62.0292C1031.29 61.5178 1031.16 61.106 1030.89 60.7938C1030.63 60.4761 1030.24 60.2447 1029.74 60.0993C1029.25 59.9486 1028.65 59.8732 1027.95 59.8732H1026.77V58.7266H1027.96C1028.6 58.7266 1029.14 58.6324 1029.59 58.444C1030.04 58.2555 1030.38 57.9918 1030.61 57.6526C1030.84 57.3081 1030.96 56.9016 1030.96 56.4333C1030.96 55.8357 1030.76 55.3755 1030.36 55.0525C1029.97 54.7241 1029.42 54.5599 1028.74 54.5599C1028.32 54.5599 1027.94 54.603 1027.59 54.6891C1027.25 54.7752 1026.93 54.8937 1026.63 55.0444C1026.32 55.1951 1026.02 55.3701 1025.72 55.5693L1025.04 54.6487C1025.47 54.315 1026 54.027 1026.62 53.7847C1027.24 53.5425 1027.94 53.4213 1028.73 53.4213C1029.93 53.4213 1030.84 53.6959 1031.44 54.245C1032.04 54.7941 1032.34 55.4939 1032.34 56.3445Z" fill="white"/>
<path d="M144.298 21.8889L148.239 14.1111H152.554L146.288 25.6486V33H142.309V25.7778L136.042 14.1111H140.384L144.298 21.8889ZM158.562 18.5555V33H154.621V18.5555H158.562ZM156.598 12.8966C157.184 12.8966 157.688 13.0344 158.11 13.31C158.532 13.5771 158.743 14.0809 158.743 14.8217C158.743 15.5538 158.532 16.062 158.11 16.3462C157.688 16.6218 157.184 16.7597 156.598 16.7597C156.004 16.7597 155.496 16.6218 155.074 16.3462C154.66 16.062 154.453 15.5538 154.453 14.8217C154.453 14.0809 154.66 13.5771 155.074 13.31C155.496 13.0344 156.004 12.8966 156.598 12.8966ZM168.665 18.2842C170 18.2842 171.15 18.5426 172.115 19.0594C173.08 19.5676 173.825 20.3083 174.35 21.2816C174.875 22.2549 175.138 23.4436 175.138 24.8475V26.7597L165.823 26.7597C165.866 27.8708 166.198 28.745 166.818 29.3824C167.447 30.0112 168.316 30.3256 169.428 30.3256C170.349 30.3256 171.193 30.2308 171.96 30.0413C172.726 29.8518 173.515 29.5676 174.324 29.1886V32.2377C173.609 32.5909 172.86 32.8493 172.076 33.0129C171.301 33.1766 170.358 33.2584 169.247 33.2584C167.8 33.2584 166.516 32.9914 165.397 32.4574C164.285 31.9233 163.411 31.1094 162.774 30.0155C162.145 28.9216 161.831 27.5435 161.831 25.8811C161.831 24.1929 162.115 22.789 162.683 21.6692C163.26 20.5409 164.061 19.6968 165.086 19.1369C166.111 18.5684 167.304 18.2842 168.665 18.2842ZM168.691 21.0878C167.925 21.0878 167.287 21.3333 166.779 21.8243C166.279 22.3152 165.991 23.0861 165.913 24.1369L171.443 24.1369C171.434 23.5512 171.327 23.0301 171.12 22.5736C170.922 22.1171 170.62 21.7554 170.216 21.4884C169.819 21.2213 169.311 21.0878 168.691 21.0878ZM182.283 33H178.342V12.8966H182.283V33ZM191.004 33.2584C189.393 33.2584 188.08 32.6296 187.063 31.3721C186.055 30.1059 185.552 28.2498 185.552 25.8036C185.552 23.3316 186.064 21.4625 187.089 20.1964C188.114 18.9216 189.453 18.2842 191.107 18.2842C191.796 18.2842 192.403 18.379 192.929 18.5684C193.454 18.7579 193.906 19.012 194.285 19.3307C194.673 19.6494 195 20.0069 195.267 20.4031H195.397C195.345 20.1275 195.28 19.7226 195.203 19.1886C195.134 18.646 195.099 18.0904 195.099 17.5219V12.8966L199.053 12.8966V33H196.03L195.267 31.1266H195.099C194.85 31.5228 194.535 31.8846 194.156 32.2119C193.786 32.5306 193.342 32.7847 192.826 32.9742C192.309 33.1637 191.701 33.2584 191.004 33.2584ZM192.386 30.1189C193.463 30.1189 194.221 29.8002 194.66 29.1628C195.108 28.5168 195.345 27.5478 195.371 26.2558V25.8294C195.371 24.4255 195.155 23.3531 194.725 22.6124C194.294 21.863 193.493 21.4884 192.322 21.4884C191.452 21.4884 190.771 21.863 190.28 22.6124C189.789 23.3617 189.544 24.4427 189.544 25.8553C189.544 27.2679 189.789 28.3316 190.28 29.0465C190.78 29.7614 191.482 30.1189 192.386 30.1189ZM213.484 33L207.981 18.5555H212.102L214.893 26.7855C215.048 27.2679 215.168 27.776 215.255 28.3101C215.349 28.8441 215.414 29.3221 215.448 29.7442H215.552C215.578 29.2877 215.638 28.801 215.733 28.2842C215.836 27.7674 215.969 27.2679 216.133 26.7855L218.911 18.5555H223.032L217.528 33H213.484ZM229.053 18.5555V33H225.112V18.5555H229.053ZM227.089 12.8966C227.675 12.8966 228.179 13.0344 228.601 13.31C229.023 13.5771 229.234 14.0809 229.234 14.8217C229.234 15.5538 229.023 16.062 228.601 16.3462C228.179 16.6218 227.675 16.7597 227.089 16.7597C226.495 16.7597 225.987 16.6218 225.565 16.3462C225.151 16.062 224.944 15.5538 224.944 14.8217C224.944 14.0809 225.151 13.5771 225.565 13.31C225.987 13.0344 226.495 12.8966 227.089 12.8966ZM239.118 18.2584C241.056 18.2584 242.541 18.6804 243.575 19.5245C244.609 20.3686 245.125 21.652 245.125 23.3747V33H242.373L241.611 31.0362H241.508C241.094 31.553 240.672 31.975 240.242 32.3023C239.811 32.6296 239.316 32.8708 238.756 33.0258C238.196 33.1809 237.516 33.2584 236.715 33.2584C235.862 33.2584 235.095 33.0947 234.415 32.7674C233.743 32.4401 233.213 31.9406 232.826 31.2687C232.438 30.5883 232.244 29.727 232.244 28.6847C232.244 27.1516 232.783 26.0232 233.859 25.2997C234.936 24.5676 236.551 24.1628 238.704 24.0853L241.211 24.0077V23.3747C241.211 22.6167 241.013 22.0611 240.616 21.708C240.22 21.3548 239.669 21.1783 238.963 21.1783C238.265 21.1783 237.58 21.2773 236.908 21.4754C236.236 21.6735 235.565 21.9233 234.893 22.2248L233.588 19.5633C234.354 19.1585 235.211 18.8398 236.159 18.6072C237.115 18.3746 238.101 18.2584 239.118 18.2584ZM241.211 26.3075L239.686 26.3592C238.411 26.3936 237.524 26.6219 237.025 27.0439C236.534 27.466 236.288 28.0215 236.288 28.7106C236.288 29.3135 236.465 29.7442 236.818 30.0026C237.171 30.2524 237.632 30.3773 238.2 30.3773C239.044 30.3773 239.755 30.1275 240.332 29.6279C240.918 29.1283 241.211 28.4177 241.211 27.4961V26.3075ZM138.42 54.1111H144.298C146.813 54.1111 148.717 54.4642 150.009 55.1705C151.301 55.8768 151.947 57.1171 151.947 58.8914C151.947 59.6063 151.831 60.2523 151.598 60.8294C151.374 61.4065 151.047 61.8803 150.616 62.2506C150.185 62.621 149.66 62.8622 149.04 62.9741V63.1033C149.669 63.2325 150.237 63.4565 150.745 63.7752C151.254 64.0853 151.658 64.5418 151.96 65.1447C152.27 65.739 152.425 66.5314 152.425 67.522C152.425 68.6675 152.145 69.6494 151.585 70.4677C151.025 71.286 150.224 71.9147 149.182 72.354C148.148 72.7847 146.917 73 145.487 73H138.42V54.1111ZM142.425 61.5917H144.751C145.913 61.5917 146.719 61.4108 147.167 61.0491C147.614 60.6787 147.838 60.1361 147.838 59.4212C147.838 58.6976 147.571 58.1809 147.037 57.8708C146.512 57.5521 145.676 57.3927 144.531 57.3927H142.425V61.5917ZM142.425 64.77V69.6925H145.035C146.241 69.6925 147.08 69.4599 147.554 68.9948C148.028 68.5297 148.265 67.9052 148.265 67.1214C148.265 66.6563 148.161 66.2472 147.955 65.894C147.748 65.5409 147.399 65.2653 146.908 65.0672C146.426 64.8691 145.758 64.77 144.906 64.77H142.425ZM159.828 58.5555V73H155.887V58.5555L159.828 58.5555ZM157.864 52.8966C158.45 52.8966 158.954 53.0344 159.376 53.31C159.798 53.5771 160.009 54.0809 160.009 54.8217C160.009 55.5538 159.798 56.062 159.376 56.3462C158.954 56.6218 158.45 56.7597 157.864 56.7597C157.27 56.7597 156.762 56.6218 156.34 56.3462C155.926 56.062 155.72 55.5538 155.72 54.8217C155.72 54.0809 155.926 53.5771 156.34 53.31C156.762 53.0344 157.27 52.8966 157.864 52.8966ZM170.061 70.1189C170.491 70.1189 170.909 70.0758 171.314 69.9897C171.727 69.9035 172.136 69.7959 172.541 69.6667V72.5995C172.119 72.789 171.594 72.944 170.965 73.0646C170.345 73.1938 169.664 73.2584 168.924 73.2584C168.062 73.2584 167.287 73.1206 166.598 72.845C165.918 72.5607 165.379 72.0741 164.983 71.385C164.596 70.6873 164.402 69.7183 164.402 68.478V61.5142H162.515V59.8475L164.686 58.5297L165.823 55.4806H168.342V58.5555H172.386V61.5142H168.342V68.478C168.342 69.0293 168.497 69.4427 168.807 69.7183C169.126 69.9854 169.544 70.1189 170.061 70.1189ZM181.34 73.2584C179.91 73.2584 178.691 73 177.683 72.4832C176.676 71.9578 175.909 71.1481 175.384 70.0543C174.858 68.9604 174.596 67.5607 174.596 65.8553C174.596 64.0896 174.893 62.6511 175.487 61.54C176.09 60.4203 176.921 59.5977 177.981 59.0723C179.049 58.5469 180.285 58.2842 181.689 58.2842C182.688 58.2842 183.549 58.3833 184.273 58.5814C185.005 58.7709 185.642 58.9991 186.185 59.2661L185.022 62.3152C184.402 62.0654 183.825 61.863 183.291 61.708C182.757 61.5443 182.223 61.4625 181.689 61.4625C180.999 61.4625 180.427 61.6262 179.97 61.9535C179.514 62.2722 179.173 62.7545 178.95 63.4005C178.726 64.0465 178.614 64.8561 178.614 65.8294C178.614 66.7855 178.734 67.5779 178.975 68.2067C179.217 68.8355 179.565 69.3049 180.022 69.615C180.478 69.9164 181.034 70.0672 181.689 70.0672C182.507 70.0672 183.235 69.9595 183.872 69.7442C184.509 69.5202 185.13 69.2102 185.732 68.8139V72.186C185.13 72.565 184.496 72.8363 183.833 73C183.179 73.1723 182.347 73.2584 181.34 73.2584ZM202.218 65.7519C202.218 66.9578 202.055 68.0258 201.727 68.9561C201.409 69.8863 200.939 70.6744 200.319 71.3204C199.708 71.9578 198.967 72.4401 198.097 72.7674C197.236 73.0947 196.262 73.2584 195.177 73.2584C194.161 73.2584 193.226 73.0947 192.373 72.7674C191.529 72.4401 190.793 71.9578 190.164 71.3204C189.544 70.6744 189.062 69.8863 188.717 68.9561C188.381 68.0258 188.213 66.9578 188.213 65.7519C188.213 64.1499 188.497 62.7933 189.066 61.6821C189.634 60.571 190.444 59.7269 191.495 59.1498C192.546 58.5728 193.799 58.2842 195.254 58.2842C196.607 58.2842 197.804 58.5728 198.846 59.1498C199.897 59.7269 200.72 60.571 201.314 61.6821C201.917 62.7933 202.218 64.1499 202.218 65.7519ZM192.231 65.7519C192.231 66.6994 192.335 67.4961 192.541 68.1421C192.748 68.7881 193.071 69.2748 193.51 69.6021C193.95 69.9294 194.522 70.093 195.229 70.093C195.926 70.093 196.49 69.9294 196.921 69.6021C197.36 69.2748 197.679 68.7881 197.877 68.1421C198.084 67.4961 198.187 66.6994 198.187 65.7519C198.187 64.7959 198.084 64.0034 197.877 63.3747C197.679 62.7373 197.36 62.2592 196.921 61.9405C196.482 61.6219 195.909 61.4625 195.203 61.4625C194.161 61.4625 193.403 61.82 192.929 62.5349C192.464 63.2498 192.231 64.3221 192.231 65.7519ZM209.415 58.5555V73H205.474V58.5555H209.415ZM207.451 52.8966C208.037 52.8966 208.54 53.0344 208.963 53.31C209.385 53.5771 209.596 54.0809 209.596 54.8217C209.596 55.5538 209.385 56.062 208.963 56.3462C208.54 56.6218 208.037 56.7597 207.451 56.7597C206.857 56.7597 206.348 56.6218 205.926 56.3462C205.513 56.062 205.306 55.5538 205.306 54.8217C205.306 54.0809 205.513 53.5771 205.926 53.31C206.348 53.0344 206.857 52.8966 207.451 52.8966ZM221.766 58.2842C223.308 58.2842 224.548 58.7063 225.487 59.5504C226.426 60.3859 226.895 61.7295 226.895 63.5814V73H222.955V64.5633C222.955 63.5297 222.765 62.7502 222.386 62.2248C222.016 61.6994 221.43 61.4367 220.629 61.4367C219.423 61.4367 218.601 61.8458 218.161 62.6641C217.722 63.4823 217.503 64.6623 217.503 66.2041V73H213.562V58.5555H216.572L217.102 60.4031H217.322C217.632 59.9035 218.015 59.4987 218.472 59.1886C218.937 58.8785 219.449 58.6503 220.009 58.5038C220.578 58.3574 221.163 58.2842 221.766 58.2842ZM249.286 67.7545C249.286 68.8742 249.014 69.8475 248.472 70.6744C247.929 71.5013 247.137 72.1387 246.094 72.5866C245.061 73.0345 243.803 73.2584 242.322 73.2584C241.667 73.2584 241.025 73.2153 240.397 73.1292C239.777 73.0431 239.178 72.9182 238.601 72.7545C238.032 72.5823 237.49 72.3712 236.973 72.1214V68.4005C237.869 68.7967 238.799 69.1542 239.764 69.4729C240.728 69.7916 241.684 69.9509 242.632 69.9509C243.286 69.9509 243.812 69.8648 244.208 69.6925C244.613 69.5202 244.906 69.2834 245.087 68.9819C245.267 68.6804 245.358 68.3359 245.358 67.9483C245.358 67.4746 245.199 67.0698 244.88 66.7338C244.561 66.3979 244.122 66.0835 243.562 65.7907C243.011 65.4978 242.386 65.1834 241.689 64.8475C241.249 64.6408 240.771 64.391 240.255 64.0982C239.738 63.7967 239.247 63.4306 238.782 63C238.317 62.5693 237.933 62.0482 237.632 61.4367C237.339 60.8165 237.193 60.0758 237.193 59.2144C237.193 58.0861 237.451 57.1214 237.968 56.3204C238.485 55.5193 239.221 54.9078 240.177 54.4858C241.142 54.0551 242.279 53.8398 243.588 53.8398C244.57 53.8398 245.504 53.956 246.392 54.1886C247.287 54.4125 248.222 54.7398 249.195 55.1705L247.903 58.2842C247.033 57.9311 246.254 57.6597 245.565 57.4703C244.876 57.2722 244.174 57.1731 243.459 57.1731C242.959 57.1731 242.533 57.2549 242.18 57.4186C241.826 57.5736 241.559 57.7976 241.379 58.0904C241.198 58.3746 241.107 58.7063 241.107 59.0852C241.107 59.5331 241.236 59.9121 241.495 60.2222C241.762 60.5237 242.158 60.8165 242.684 61.1008C243.218 61.385 243.881 61.7166 244.673 62.0956C245.638 62.5521 246.46 63.0301 247.141 63.5297C247.83 64.0207 248.36 64.6021 248.73 65.2739C249.1 65.9371 249.286 66.764 249.286 67.7545ZM258.485 70.1189C258.915 70.1189 259.333 70.0758 259.738 69.9897C260.151 69.9035 260.56 69.7959 260.965 69.6667V72.5995C260.543 72.789 260.018 72.944 259.389 73.0646C258.769 73.1938 258.088 73.2584 257.348 73.2584C256.486 73.2584 255.711 73.1206 255.022 72.845C254.342 72.5607 253.803 72.0741 253.407 71.385C253.019 70.6873 252.826 69.7183 252.826 68.478V61.5142H250.939V59.8475L253.11 58.5297L254.247 55.4806H256.766V58.5555H260.81V61.5142H256.766V68.478C256.766 69.0293 256.921 69.4427 257.231 69.7183C257.55 69.9854 257.968 70.1189 258.485 70.1189ZM269.815 58.2584C271.753 58.2584 273.239 58.6804 274.273 59.5245C275.306 60.3686 275.823 61.652 275.823 63.3747V73H273.071L272.309 71.0362H272.206C271.792 71.553 271.37 71.975 270.939 72.3023C270.509 72.6296 270.013 72.8708 269.454 73.0258C268.894 73.1809 268.213 73.2584 267.412 73.2584C266.56 73.2584 265.793 73.0947 265.112 72.7674C264.441 72.4401 263.911 71.9406 263.523 71.2687C263.136 70.5883 262.942 69.727 262.942 68.6847C262.942 67.1516 263.48 66.0232 264.557 65.2997C265.634 64.5676 267.249 64.1628 269.402 64.0853L271.908 64.0077V63.3747C271.908 62.6167 271.71 62.0611 271.314 61.708C270.918 61.3548 270.367 61.1783 269.66 61.1783C268.963 61.1783 268.278 61.2773 267.606 61.4754C266.934 61.6735 266.262 61.9233 265.591 62.2248L264.286 59.5633C265.052 59.1585 265.909 58.8398 266.857 58.6072C267.813 58.3746 268.799 58.2584 269.815 58.2584ZM271.908 66.3075L270.384 66.3592C269.109 66.3936 268.222 66.6219 267.722 67.0439C267.231 67.466 266.986 68.0215 266.986 68.7106C266.986 69.3135 267.162 69.7442 267.516 70.0026C267.869 70.2524 268.33 70.3773 268.898 70.3773C269.742 70.3773 270.453 70.1275 271.03 69.6279C271.616 69.1283 271.908 68.4177 271.908 67.4961V66.3075ZM283.833 52.8966V61.8889C283.833 62.4315 283.812 62.9741 283.769 63.5168C283.726 64.0594 283.678 64.6021 283.627 65.1447H283.678C283.945 64.7657 284.217 64.391 284.492 64.0207C284.777 63.6503 285.078 63.2928 285.397 62.9483L289.441 58.5555L293.885 58.5555L288.149 64.8217L294.234 73H289.686L285.526 67.1473L283.833 68.5039V73H279.893V52.8966H283.833ZM300.242 58.5555V73H296.301V58.5555H300.242ZM298.278 52.8966C298.864 52.8966 299.368 53.0344 299.79 53.31C300.212 53.5771 300.423 54.0809 300.423 54.8217C300.423 55.5538 300.212 56.062 299.79 56.3462C299.368 56.6218 298.864 56.7597 298.278 56.7597C297.684 56.7597 297.175 56.6218 296.753 56.3462C296.34 56.062 296.133 55.5538 296.133 54.8217C296.133 54.0809 296.34 53.5771 296.753 53.31C297.175 53.0344 297.684 52.8966 298.278 52.8966ZM312.593 58.2842C314.135 58.2842 315.375 58.7063 316.314 59.5504C317.253 60.3859 317.722 61.7295 317.722 63.5814V73H313.782V64.5633C313.782 63.5297 313.592 62.7502 313.213 62.2248C312.843 61.6994 312.257 61.4367 311.456 61.4367C310.25 61.4367 309.428 61.8458 308.989 62.6641C308.549 63.4823 308.33 64.6623 308.33 66.2041V73H304.389V58.5555H307.399L307.929 60.4031H308.149C308.459 59.9035 308.842 59.4987 309.299 59.1886C309.764 58.8785 310.276 58.6503 310.836 58.5038C311.405 58.3574 311.99 58.2842 312.593 58.2842ZM326.004 79.3566C323.989 79.3566 322.447 79.0035 321.379 78.2972C320.319 77.5995 319.79 76.6176 319.79 75.3514C319.79 74.4815 320.061 73.7537 320.604 73.168C321.146 72.5823 321.943 72.1645 322.994 71.9147C322.589 71.7425 322.236 71.4625 321.934 71.0749C321.633 70.6787 321.482 70.261 321.482 69.8217C321.482 69.2704 321.641 68.8139 321.96 68.4522C322.279 68.0818 322.74 67.7201 323.343 67.3669C322.585 67.0396 321.982 66.5142 321.534 65.7907C321.094 65.0672 320.875 64.2145 320.875 63.2325C320.875 62.1817 321.103 61.2902 321.56 60.5581C322.025 59.8174 322.697 59.2532 323.575 58.8656C324.462 58.478 325.539 58.2842 326.805 58.2842C327.072 58.2842 327.382 58.3014 327.735 58.3359C328.088 58.3703 328.411 58.4091 328.704 58.4522C329.006 58.4952 329.208 58.5297 329.312 58.5555H334.35V60.5581L332.089 61.1395C332.296 61.4582 332.451 61.7984 332.554 62.1602C332.658 62.5219 332.71 62.9052 332.71 63.3101C332.71 64.8605 332.167 66.0706 331.082 66.9406C330.005 67.8019 328.506 68.2325 326.585 68.2325C326.129 68.2067 325.698 68.1723 325.293 68.1292C325.095 68.2842 324.945 68.4479 324.841 68.6201C324.738 68.7924 324.686 68.9733 324.686 69.1628C324.686 69.3523 324.764 69.5116 324.919 69.6408C325.082 69.7614 325.324 69.8562 325.642 69.9251C325.97 69.9854 326.374 70.0155 326.857 70.0155H329.312C330.896 70.0155 332.102 70.3557 332.929 71.0362C333.765 71.7166 334.182 72.7158 334.182 74.0336C334.182 75.7218 333.476 77.031 332.064 77.9612C330.66 78.8915 328.64 79.3566 326.004 79.3566ZM326.172 76.7855C327.111 76.7855 327.916 76.6951 328.588 76.5142C329.269 76.342 329.79 76.0922 330.151 75.7649C330.513 75.4462 330.694 75.0629 330.694 74.615C330.694 74.2532 330.586 73.9647 330.371 73.7494C330.164 73.5426 329.846 73.3962 329.415 73.3101C328.993 73.2239 328.45 73.1809 327.787 73.1809H325.746C325.263 73.1809 324.828 73.2584 324.441 73.4134C324.062 73.5685 323.76 73.7838 323.536 74.0594C323.312 74.3437 323.2 74.671 323.2 75.0413C323.2 75.584 323.459 76.0103 323.976 76.3204C324.501 76.6305 325.233 76.7855 326.172 76.7855ZM326.805 65.8294C327.546 65.8294 328.088 65.6012 328.433 65.1447C328.778 64.6882 328.95 64.068 328.95 63.2842C328.95 62.4143 328.769 61.764 328.407 61.3333C328.054 60.894 327.52 60.6744 326.805 60.6744C326.082 60.6744 325.539 60.894 325.177 61.3333C324.815 61.764 324.635 62.4143 324.635 63.2842C324.635 64.068 324.811 64.6882 325.164 65.1447C325.526 65.6012 326.073 65.8294 326.805 65.8294Z" fill="#FBFBFB"/>
<rect x="351.305" y="49.0666" width="54.7287" height="31.2687" rx="15.6344" fill="#F7931A" fill-opacity="0.1"/>
<rect x="351.305" y="49.0666" width="54.7287" height="31.2687" rx="15.6344" stroke="#F7931A" stroke-width="0.55125"/>
<path d="M378.529 59.3956L374.29 71.2012H372.909L368.67 59.3956H370.107L372.869 67.1718C372.982 67.484 373.081 67.7828 373.168 68.0681C373.259 68.3534 373.34 68.628 373.41 68.8917C373.48 69.1555 373.542 69.4112 373.596 69.6589C373.649 69.4112 373.711 69.1555 373.781 68.8917C373.851 68.6226 373.932 68.3453 374.023 68.06C374.115 67.7693 374.217 67.4652 374.33 67.1475L377.076 59.3956H378.529ZM387.089 71.2012H379.353V70.0788L382.51 66.873C383.097 66.2808 383.59 65.7533 383.988 65.2903C384.392 64.8273 384.699 64.3725 384.909 63.9256C385.118 63.4734 385.223 62.9782 385.223 62.4399C385.223 61.7723 385.024 61.2636 384.626 60.9137C384.233 60.5584 383.713 60.3807 383.067 60.3807C382.502 60.3807 382.002 60.4776 381.565 60.6714C381.129 60.8652 380.683 61.1398 380.225 61.4951L379.506 60.5907C379.819 60.3269 380.158 60.0927 380.524 59.8882C380.895 59.6836 381.291 59.5221 381.711 59.4037C382.136 59.2852 382.588 59.226 383.067 59.226C383.794 59.226 384.421 59.3525 384.949 59.6055C385.476 59.8586 385.883 60.2192 386.168 60.6876C386.459 61.1559 386.604 61.7131 386.604 62.3591C386.604 62.9836 386.48 63.565 386.233 64.1033C385.985 64.6362 385.638 65.1665 385.191 65.6941C384.744 66.2162 384.222 66.7707 383.625 67.3575L381.057 69.9173V69.9738H387.089V71.2012Z" fill="white"/>
<g clip-path="url(#clip0_1591_13024)">
<path fill-rule="evenodd" clip-rule="evenodd" d="M261.796 18.3368C263.572 12.895 268.804 8.95259 274.981 8.95259C282.621 8.95259 288.814 14.983 288.814 22.4217C288.814 29.332 283.47 35.0269 276.586 35.8011V31.5595C279.604 31.0617 282.138 29.1829 283.48 26.6145H279.647C278.487 27.836 276.827 28.6008 274.983 28.6008C271.476 28.6008 268.633 25.8344 268.633 22.4217C268.633 19.0091 271.476 16.2428 274.983 16.2428C276.881 16.2428 278.586 17.0537 279.749 18.3392H283.536C281.985 15.2673 278.737 13.1532 274.983 13.1532C269.722 13.1532 265.458 17.3029 265.458 22.4217C265.458 27.0149 268.891 30.8279 273.397 31.5624V35.8033C267.963 35.2003 263.485 31.5314 261.832 26.617H258.524C260.431 33.7315 267.077 38.9819 274.981 38.9819C284.374 38.9819 291.989 31.5678 291.989 22.4217C291.989 13.2757 284.374 5.86133 274.981 5.86133C267.036 5.86122 260.363 11.1662 258.495 18.3368H261.796ZM307.746 28.5156H304.042V23.1855L305.099 23.1337H307.317C308.462 23.1164 309.347 23.3601 309.973 23.8652C310.618 24.3529 310.94 25.0321 310.94 25.9031C310.94 26.7043 310.653 27.3399 310.081 27.8102C309.508 28.2804 308.73 28.5156 307.746 28.5156ZM311.316 21.7788C311.82 21.454 312.241 21.0784 312.577 20.6519C313.185 19.8856 313.489 19.0234 313.489 18.0655C313.489 16.9334 313.23 15.9929 312.711 15.2442C312.192 14.4777 311.458 13.9029 310.51 13.5198C309.58 13.1192 308.47 12.9189 307.182 12.9189L304.042 12.9535V12.945H300.983V31.2325H307.987C309.24 31.2325 310.322 31.0322 311.235 30.6316C312.147 30.2311 312.854 29.6476 313.355 28.8813C313.856 28.115 314.107 27.1919 314.107 26.1119C314.107 24.8755 313.767 23.8652 313.087 23.0816C312.627 22.5519 312.037 22.1176 311.316 21.7788ZM304.042 15.4268H307.021C308.059 15.4095 308.864 15.6273 309.437 16.08C310.027 16.5329 310.322 17.1773 310.322 18.0132C310.322 18.8318 310.063 19.4762 309.544 19.9464C309.043 20.3993 308.345 20.6259 307.451 20.6259H304.042V15.4268ZM326.25 29.8402L326.326 31.2325H329.144L329.224 24.0744C329.224 22.7158 329.01 21.5752 328.58 20.6519C328.151 19.7288 327.498 19.0323 326.621 18.5621C325.762 18.0916 324.68 17.8566 323.373 17.8566C322.354 17.8566 321.468 18.0048 320.716 18.3008C319.983 18.5969 319.375 18.9973 318.892 19.5026C318.408 20.0075 318.015 20.5474 317.711 21.1222L320.448 22.0626C320.77 21.5229 321.173 21.1222 321.656 20.8609C322.139 20.5996 322.694 20.4691 323.32 20.4691C324 20.4691 324.545 20.6259 324.957 20.9393C325.386 21.2528 325.7 21.7057 325.896 22.2979C326.001 22.613 326.078 22.97 326.127 23.369H322.783C321.101 23.369 319.786 23.726 318.838 24.4401C317.907 25.1542 317.442 26.1904 317.442 27.549C317.442 28.8203 317.881 29.8046 318.757 30.501C319.652 31.1977 320.904 31.5461 322.515 31.5461C324.143 31.5461 325.341 31.041 326.111 30.0308C326.159 29.9684 326.205 29.9048 326.25 29.8402ZM326.192 25.8248V25.6158H323.749C322.55 25.6158 321.71 25.7812 321.226 26.1121C320.743 26.4256 320.502 26.8786 320.502 27.4706C320.502 27.9757 320.708 28.3763 321.119 28.6724C321.548 28.951 322.139 29.0903 322.89 29.0903C323.552 29.0903 324.125 28.9424 324.608 28.6461C325.109 28.3328 325.494 27.9322 325.762 27.4444C326.048 26.9394 326.192 26.3996 326.192 25.8248ZM333.612 31.2325V12.945H336.617V20.0777C336.979 19.5284 337.417 19.0752 337.933 18.7185C338.756 18.1437 339.731 17.8564 340.858 17.8564C342.075 17.8564 343.13 18.1437 344.025 18.7185C344.937 19.2758 345.644 20.0683 346.145 21.0959C346.664 22.106 346.923 23.3077 346.923 24.7011C346.923 26.077 346.664 27.2788 346.145 28.3063C345.644 29.3341 344.937 30.1351 344.025 30.71C343.13 31.2673 342.075 31.5458 340.858 31.5458C339.731 31.5458 338.756 31.2673 337.933 30.71C337.402 30.3313 336.953 29.8544 336.586 29.2791L336.457 31.2323H333.612V31.2325ZM337.047 26.8698C336.761 26.2426 336.617 25.5199 336.617 24.7013C336.617 23.8828 336.761 23.16 337.047 22.5329C337.351 21.906 337.772 21.4182 338.308 21.0699C338.845 20.7215 339.453 20.5474 340.133 20.5474C340.867 20.5474 341.511 20.7215 342.066 21.0699C342.62 21.4182 343.05 21.906 343.354 22.5329C343.676 23.16 343.837 23.8828 343.837 24.7013C343.837 25.5199 343.667 26.2426 343.327 26.8698C343.005 27.4968 342.567 27.9931 342.012 28.3588C341.457 28.7072 340.822 28.8813 340.106 28.8813C339.426 28.8813 338.818 28.7072 338.282 28.3588C337.763 27.9931 337.351 27.4968 337.047 26.8698ZM351.008 36.536C351.545 36.6928 352.028 36.7712 352.457 36.7712C353.352 36.7712 354.085 36.597 354.658 36.2487C355.23 35.9178 355.704 35.4388 356.08 34.8117C356.474 34.1848 356.858 33.4533 357.234 32.6172L363.461 18.1701H360.186L356.211 27.8333L352.108 18.1701H348.834L354.8 31.1326L354.067 32.8001C353.888 33.218 353.647 33.5316 353.343 33.7406C353.056 33.967 352.698 34.0802 352.269 34.0802C352.09 34.0802 351.858 34.0281 351.571 33.9235C351.285 33.8364 350.972 33.7145 350.632 33.5577L349.505 35.935C349.986 36.1784 350.489 36.3795 351.008 36.536ZM366.593 31.2325V12.945H369.598V31.2324H366.593V31.2325ZM376.853 30.684C377.908 31.2588 379.107 31.5461 380.449 31.5461C381.773 31.5461 382.955 31.2588 383.992 30.684C385.03 30.0919 385.835 29.2819 386.408 28.2545C386.98 27.2267 387.267 26.0424 387.267 24.7013C387.267 23.3602 386.971 22.176 386.38 21.1484C385.808 20.1207 385.003 19.3196 383.965 18.7448C382.927 18.1527 381.737 17.8566 380.396 17.8566C379.054 17.8566 377.864 18.1527 376.826 18.7448C375.788 19.3196 374.975 20.1207 374.384 21.1484C373.811 22.176 373.525 23.3602 373.525 24.7013C373.525 26.0424 373.82 27.2267 374.411 28.2545C375.001 29.2819 375.816 30.0919 376.853 30.684ZM382.409 28.3328C381.836 28.6811 381.183 28.8553 380.449 28.8553C379.698 28.8553 379.027 28.6811 378.437 28.3328C377.864 27.967 377.408 27.4794 377.068 26.8698C376.746 26.2426 376.584 25.5199 376.584 24.7013C376.584 23.8828 376.746 23.16 377.068 22.5329C377.39 21.906 377.837 21.4182 378.409 21.0699C378.982 20.7215 379.644 20.5474 380.396 20.5474C381.147 20.5474 381.809 20.7303 382.382 21.0961C382.955 21.4445 383.401 21.9321 383.723 22.5591C384.063 23.1687 384.233 23.8828 384.233 24.7013C384.233 25.5199 384.073 26.2426 383.751 26.8698C383.428 27.4794 382.981 27.967 382.409 28.3328ZM391.213 18.1701H394.03L394.173 19.9868C394.528 19.4281 394.963 18.9794 395.479 18.6404C396.249 18.1179 397.162 17.8566 398.217 17.8566C399.846 17.8566 401.098 18.3443 401.975 19.3196C402.869 20.2775 403.316 21.7579 403.316 23.7609V31.2325H400.311V24.5446C400.311 23.4996 400.186 22.6985 399.935 22.141C399.702 21.5664 399.362 21.1658 398.915 20.9393C398.486 20.713 397.975 20.5996 397.385 20.5996C396.383 20.5824 395.605 20.9045 395.05 21.5664C394.496 22.2281 394.218 23.1773 394.218 24.4141V31.2325H391.213V18.1701Z" fill="white"/>
<path d="M278.464 22.4146C278.464 24.2907 276.902 25.8115 274.974 25.8115C273.047 25.8115 271.485 24.2907 271.485 22.4146C271.485 20.5385 273.047 19.0176 274.974 19.0176C276.902 19.0176 278.464 20.5385 278.464 22.4146Z" fill="#FF7C2B"/>
</g>
<path d="M880.333 250.529L884.274 242.752H888.589L882.323 254.289V261.641H878.344V254.418L872.078 242.752H876.419L880.333 250.529ZM894.597 247.196V261.641H890.656V247.196H894.597ZM892.633 241.537C893.219 241.537 893.723 241.675 894.145 241.951C894.567 242.218 894.778 242.722 894.778 243.462C894.778 244.194 894.567 244.703 894.145 244.987C893.723 245.262 893.219 245.4 892.633 245.4C892.039 245.4 891.531 245.262 891.109 244.987C890.695 244.703 890.488 244.194 890.488 243.462C890.488 242.722 890.695 242.218 891.109 241.951C891.531 241.675 892.039 241.537 892.633 241.537ZM904.7 246.925C906.035 246.925 907.185 247.183 908.15 247.7C909.115 248.208 909.86 248.949 910.385 249.922C910.91 250.896 911.173 252.084 911.173 253.488V255.4H901.858C901.901 256.511 902.233 257.386 902.853 258.023C903.482 258.652 904.351 258.966 905.463 258.966C906.384 258.966 907.228 258.871 907.995 258.682C908.761 258.492 909.55 258.208 910.359 257.829V260.878C909.644 261.231 908.895 261.49 908.111 261.654C907.336 261.817 906.393 261.899 905.282 261.899C903.835 261.899 902.551 261.632 901.432 261.098C900.32 260.564 899.446 259.75 898.809 258.656C898.18 257.562 897.866 256.184 897.866 254.522C897.866 252.834 898.15 251.43 898.718 250.31C899.295 249.182 900.097 248.337 901.121 247.778C902.146 247.209 903.339 246.925 904.7 246.925ZM904.726 249.728C903.96 249.728 903.322 249.974 902.814 250.465C902.314 250.956 902.026 251.727 901.948 252.778H907.478C907.469 252.192 907.362 251.671 907.155 251.214C906.957 250.758 906.656 250.396 906.251 250.129C905.854 249.862 905.346 249.728 904.726 249.728ZM918.318 261.641H914.377V241.537H918.318V261.641ZM927.039 261.899C925.428 261.899 924.115 261.27 923.098 260.013C922.091 258.747 921.587 256.89 921.587 254.444C921.587 251.972 922.099 250.103 923.124 248.837C924.149 247.562 925.488 246.925 927.142 246.925C927.831 246.925 928.439 247.02 928.964 247.209C929.489 247.399 929.942 247.653 930.321 247.971C930.708 248.29 931.035 248.647 931.302 249.044H931.432C931.38 248.768 931.315 248.363 931.238 247.829C931.169 247.287 931.134 246.731 931.134 246.163V241.537H935.088V261.641H932.065L931.302 259.767H931.134C930.885 260.163 930.57 260.525 930.191 260.853C929.821 261.171 929.377 261.425 928.861 261.615C928.344 261.804 927.737 261.899 927.039 261.899ZM928.421 258.759C929.498 258.759 930.256 258.441 930.695 257.803C931.143 257.157 931.38 256.188 931.406 254.896V254.47C931.406 253.066 931.19 251.994 930.76 251.253C930.329 250.504 929.528 250.129 928.357 250.129C927.487 250.129 926.806 250.504 926.315 251.253C925.824 252.002 925.579 253.083 925.579 254.496C925.579 255.908 925.824 256.972 926.315 257.687C926.815 258.402 927.517 258.759 928.421 258.759ZM956.16 257.351C956.16 258.333 955.928 259.164 955.463 259.845C955.006 260.517 954.321 261.029 953.408 261.382C952.495 261.727 951.358 261.899 949.998 261.899C948.99 261.899 948.124 261.834 947.401 261.705C946.686 261.576 945.962 261.361 945.23 261.059V257.803C946.014 258.157 946.854 258.449 947.749 258.682C948.654 258.906 949.446 259.018 950.127 259.018C950.893 259.018 951.44 258.906 951.768 258.682C952.104 258.449 952.271 258.148 952.271 257.778C952.271 257.536 952.203 257.321 952.065 257.132C951.936 256.933 951.651 256.714 951.212 256.473C950.773 256.223 950.084 255.9 949.145 255.504C948.24 255.125 947.495 254.741 946.91 254.354C946.333 253.966 945.902 253.51 945.618 252.984C945.342 252.45 945.204 251.774 945.204 250.956C945.204 249.621 945.721 248.617 946.755 247.946C947.797 247.265 949.188 246.925 950.928 246.925C951.824 246.925 952.676 247.015 953.486 247.196C954.304 247.377 955.144 247.666 956.005 248.062L954.817 250.904C954.102 250.594 953.426 250.34 952.788 250.142C952.159 249.944 951.518 249.845 950.863 249.845C950.286 249.845 949.851 249.922 949.558 250.077C949.265 250.232 949.119 250.469 949.119 250.788C949.119 251.02 949.192 251.227 949.339 251.408C949.494 251.589 949.787 251.791 950.217 252.015C950.656 252.231 951.298 252.511 952.142 252.855C952.961 253.191 953.671 253.544 954.274 253.915C954.877 254.276 955.342 254.728 955.669 255.271C955.997 255.805 956.16 256.498 956.16 257.351ZM965.321 258.759C965.751 258.759 966.169 258.716 966.574 258.63C966.987 258.544 967.396 258.436 967.801 258.307V261.24C967.379 261.43 966.854 261.585 966.225 261.705C965.605 261.834 964.924 261.899 964.184 261.899C963.322 261.899 962.547 261.761 961.858 261.486C961.178 261.201 960.639 260.715 960.243 260.026C959.855 259.328 959.662 258.359 959.662 257.119V250.155H957.775V248.488L959.946 247.17L961.083 244.121H963.602V247.196L967.646 247.196V250.155H963.602V257.119C963.602 257.67 963.757 258.083 964.067 258.359C964.386 258.626 964.804 258.759 965.321 258.759ZM978.796 246.925C978.994 246.925 979.222 246.938 979.481 246.964C979.748 246.981 979.963 247.007 980.127 247.041L979.83 250.736C979.7 250.693 979.515 250.663 979.274 250.646C979.042 250.62 978.839 250.607 978.667 250.607C978.159 250.607 977.663 250.672 977.181 250.801C976.707 250.93 976.281 251.141 975.902 251.434C975.523 251.718 975.222 252.097 974.998 252.571C974.782 253.036 974.675 253.609 974.675 254.289V261.641H970.734V247.196H973.719L974.3 249.625H974.494C974.778 249.134 975.131 248.686 975.553 248.281C975.984 247.868 976.47 247.541 977.013 247.3C977.564 247.05 978.159 246.925 978.796 246.925ZM988.667 246.899C990.605 246.899 992.091 247.321 993.124 248.165C994.158 249.009 994.675 250.293 994.675 252.015V261.641H991.923L991.16 259.677H991.057C990.644 260.194 990.222 260.616 989.791 260.943C989.36 261.27 988.865 261.511 988.305 261.666C987.745 261.822 987.065 261.899 986.264 261.899C985.411 261.899 984.644 261.735 983.964 261.408C983.292 261.081 982.762 260.581 982.375 259.909C981.987 259.229 981.793 258.368 981.793 257.325C981.793 255.792 982.332 254.664 983.408 253.94C984.485 253.208 986.1 252.803 988.253 252.726L990.76 252.648V252.015C990.76 251.257 990.562 250.702 990.166 250.349C989.769 249.995 989.218 249.819 988.512 249.819C987.814 249.819 987.129 249.918 986.458 250.116C985.786 250.314 985.114 250.564 984.442 250.865L983.137 248.204C983.904 247.799 984.761 247.48 985.708 247.248C986.664 247.015 987.651 246.899 988.667 246.899ZM990.76 254.948L989.235 255C987.961 255.034 987.073 255.262 986.574 255.685C986.083 256.107 985.837 256.662 985.837 257.351C985.837 257.954 986.014 258.385 986.367 258.643C986.72 258.893 987.181 259.018 987.75 259.018C988.594 259.018 989.304 258.768 989.881 258.269C990.467 257.769 990.76 257.058 990.76 256.137V254.948ZM1004.83 258.759C1005.26 258.759 1005.68 258.716 1006.08 258.63C1006.5 258.544 1006.91 258.436 1007.31 258.307V261.24C1006.89 261.43 1006.36 261.585 1005.73 261.705C1005.11 261.834 1004.43 261.899 1003.69 261.899C1002.83 261.899 1002.06 261.761 1001.37 261.486C1000.69 261.201 1000.15 260.715 999.752 260.026C999.365 259.328 999.171 258.359 999.171 257.119V250.155H997.284V248.488L999.455 247.17L1000.59 244.121H1003.11V247.196H1007.16V250.155H1003.11V257.119C1003.11 257.67 1003.27 258.083 1003.58 258.359C1003.9 258.626 1004.31 258.759 1004.83 258.759ZM1016.2 246.925C1017.53 246.925 1018.68 247.183 1019.65 247.7C1020.61 248.208 1021.36 248.949 1021.88 249.922C1022.41 250.896 1022.67 252.084 1022.67 253.488V255.4H1013.36C1013.4 256.511 1013.73 257.386 1014.35 258.023C1014.98 258.652 1015.85 258.966 1016.96 258.966C1017.88 258.966 1018.73 258.871 1019.49 258.682C1020.26 258.492 1021.05 258.208 1021.86 257.829V260.878C1021.14 261.231 1020.39 261.49 1019.61 261.654C1018.83 261.817 1017.89 261.899 1016.78 261.899C1015.33 261.899 1014.05 261.632 1012.93 261.098C1011.82 260.564 1010.95 259.75 1010.31 258.656C1009.68 257.562 1009.36 256.184 1009.36 254.522C1009.36 252.834 1009.65 251.43 1010.22 250.31C1010.79 249.182 1011.6 248.337 1012.62 247.778C1013.65 247.209 1014.84 246.925 1016.2 246.925ZM1016.23 249.728C1015.46 249.728 1014.82 249.974 1014.31 250.465C1013.81 250.956 1013.52 251.727 1013.45 252.778H1018.98C1018.97 252.192 1018.86 251.671 1018.65 251.214C1018.46 250.758 1018.15 250.396 1017.75 250.129C1017.35 249.862 1016.85 249.728 1016.23 249.728ZM1030.1 267.997C1028.09 267.997 1026.54 267.644 1025.48 266.938C1024.42 266.24 1023.89 265.258 1023.89 263.992C1023.89 263.122 1024.16 262.394 1024.7 261.809C1025.24 261.223 1026.04 260.805 1027.09 260.555C1026.69 260.383 1026.33 260.103 1026.03 259.716C1025.73 259.319 1025.58 258.902 1025.58 258.462C1025.58 257.911 1025.74 257.455 1026.06 257.093C1026.38 256.722 1026.84 256.361 1027.44 256.008C1026.68 255.68 1026.08 255.155 1025.63 254.431C1025.19 253.708 1024.97 252.855 1024.97 251.873C1024.97 250.822 1025.2 249.931 1025.66 249.199C1026.12 248.458 1026.79 247.894 1027.67 247.506C1028.56 247.119 1029.64 246.925 1030.9 246.925C1031.17 246.925 1031.48 246.942 1031.83 246.977C1032.19 247.011 1032.51 247.05 1032.8 247.093C1033.1 247.136 1033.31 247.17 1033.41 247.196H1038.45V249.199L1036.19 249.78C1036.39 250.099 1036.55 250.439 1036.65 250.801C1036.75 251.163 1036.81 251.546 1036.81 251.951C1036.81 253.501 1036.26 254.711 1035.18 255.581C1034.1 256.443 1032.6 256.873 1030.68 256.873C1030.23 256.847 1029.8 256.813 1029.39 256.77C1029.19 256.925 1029.04 257.089 1028.94 257.261C1028.83 257.433 1028.78 257.614 1028.78 257.803C1028.78 257.993 1028.86 258.152 1029.02 258.281C1029.18 258.402 1029.42 258.497 1029.74 258.566C1030.07 258.626 1030.47 258.656 1030.95 258.656H1033.41C1034.99 258.656 1036.2 258.996 1037.03 259.677C1037.86 260.357 1038.28 261.356 1038.28 262.674C1038.28 264.362 1037.57 265.672 1036.16 266.602C1034.76 267.532 1032.74 267.997 1030.1 267.997ZM1030.27 265.426C1031.21 265.426 1032.01 265.336 1032.69 265.155C1033.37 264.983 1033.89 264.733 1034.25 264.405C1034.61 264.087 1034.79 263.704 1034.79 263.256C1034.79 262.894 1034.68 262.605 1034.47 262.39C1034.26 262.183 1033.94 262.037 1033.51 261.951C1033.09 261.865 1032.55 261.822 1031.88 261.822H1029.84C1029.36 261.822 1028.93 261.899 1028.54 262.054C1028.16 262.209 1027.86 262.424 1027.63 262.7C1027.41 262.984 1027.3 263.312 1027.3 263.682C1027.3 264.225 1027.56 264.651 1028.07 264.961C1028.6 265.271 1029.33 265.426 1030.27 265.426ZM1030.9 254.47C1031.64 254.47 1032.19 254.242 1032.53 253.785C1032.87 253.329 1033.05 252.709 1033.05 251.925C1033.05 251.055 1032.87 250.405 1032.5 249.974C1032.15 249.535 1031.62 249.315 1030.9 249.315C1030.18 249.315 1029.64 249.535 1029.27 249.974C1028.91 250.405 1028.73 251.055 1028.73 251.925C1028.73 252.709 1028.91 253.329 1029.26 253.785C1029.62 254.242 1030.17 254.47 1030.9 254.47ZM1044.78 247.196V261.641H1040.84V247.196H1044.78ZM1042.81 241.537C1043.4 241.537 1043.9 241.675 1044.33 241.951C1044.75 242.218 1044.96 242.722 1044.96 243.462C1044.96 244.194 1044.75 244.703 1044.33 244.987C1043.9 245.262 1043.4 245.4 1042.81 245.4C1042.22 245.4 1041.71 245.262 1041.29 244.987C1040.88 244.703 1040.67 244.194 1040.67 243.462C1040.67 242.722 1040.88 242.218 1041.29 241.951C1041.71 241.675 1042.22 241.537 1042.81 241.537ZM1054.88 246.925C1056.22 246.925 1057.37 247.183 1058.33 247.7C1059.3 248.208 1060.04 248.949 1060.57 249.922C1061.09 250.896 1061.35 252.084 1061.35 253.488V255.4H1052.04C1052.08 256.511 1052.41 257.386 1053.03 258.023C1053.66 258.652 1054.53 258.966 1055.64 258.966C1056.57 258.966 1057.41 258.871 1058.18 258.682C1058.94 258.492 1059.73 258.208 1060.54 257.829V260.878C1059.83 261.231 1059.08 261.49 1058.29 261.654C1057.52 261.817 1056.57 261.899 1055.46 261.899C1054.02 261.899 1052.73 261.632 1051.61 261.098C1050.5 260.564 1049.63 259.75 1048.99 258.656C1048.36 257.562 1048.05 256.184 1048.05 254.522C1048.05 252.834 1048.33 251.43 1048.9 250.31C1049.48 249.182 1050.28 248.337 1051.3 247.778C1052.33 247.209 1053.52 246.925 1054.88 246.925ZM1054.91 249.728C1054.14 249.728 1053.5 249.974 1053 250.465C1052.5 250.956 1052.21 251.727 1052.13 252.778H1057.66C1057.65 252.192 1057.54 251.671 1057.34 251.214C1057.14 250.758 1056.84 250.396 1056.43 250.129C1056.04 249.862 1055.53 249.728 1054.91 249.728ZM1074.64 257.351C1074.64 258.333 1074.4 259.164 1073.94 259.845C1073.48 260.517 1072.8 261.029 1071.88 261.382C1070.97 261.727 1069.83 261.899 1068.47 261.899C1067.47 261.899 1066.6 261.834 1065.88 261.705C1065.16 261.576 1064.44 261.361 1063.71 261.059V257.803C1064.49 258.157 1065.33 258.449 1066.23 258.682C1067.13 258.906 1067.92 259.018 1068.6 259.018C1069.37 259.018 1069.92 258.906 1070.24 258.682C1070.58 258.449 1070.75 258.148 1070.75 257.778C1070.75 257.536 1070.68 257.321 1070.54 257.132C1070.41 256.933 1070.13 256.714 1069.69 256.473C1069.25 256.223 1068.56 255.9 1067.62 255.504C1066.72 255.125 1065.97 254.741 1065.39 254.354C1064.81 253.966 1064.38 253.51 1064.09 252.984C1063.82 252.45 1063.68 251.774 1063.68 250.956C1063.68 249.621 1064.2 248.617 1065.23 247.946C1066.27 247.265 1067.66 246.925 1069.4 246.925C1070.3 246.925 1071.15 247.015 1071.96 247.196C1072.78 247.377 1073.62 247.666 1074.48 248.062L1073.29 250.904C1072.58 250.594 1071.9 250.34 1071.26 250.142C1070.64 249.944 1069.99 249.845 1069.34 249.845C1068.76 249.845 1068.33 249.922 1068.03 250.077C1067.74 250.232 1067.59 250.469 1067.59 250.788C1067.59 251.02 1067.67 251.227 1067.81 251.408C1067.97 251.589 1068.26 251.791 1068.69 252.015C1069.13 252.231 1069.77 252.511 1070.62 252.855C1071.44 253.191 1072.15 253.544 1072.75 253.915C1073.35 254.276 1073.82 254.728 1074.15 255.271C1074.47 255.805 1074.64 256.498 1074.64 257.351ZM1096.46 261.641L1095.35 256.589C1095.29 256.287 1095.19 255.844 1095.05 255.258C1094.91 254.664 1094.76 254.031 1094.6 253.359C1094.44 252.679 1094.3 252.05 1094.16 251.473C1094.03 250.896 1093.93 250.474 1093.87 250.206H1093.76C1093.7 250.474 1093.6 250.896 1093.47 251.473C1093.34 252.05 1093.2 252.679 1093.03 253.359C1092.88 254.039 1092.73 254.681 1092.59 255.284C1092.46 255.878 1092.35 256.331 1092.28 256.641L1091.12 261.641H1086.88L1082.78 247.196H1086.7L1088.37 253.592C1088.48 254.039 1088.59 254.573 1088.69 255.194C1088.8 255.805 1088.89 256.399 1088.96 256.977C1089.05 257.545 1089.11 257.997 1089.16 258.333H1089.26C1089.28 258.083 1089.31 257.752 1089.36 257.338C1089.43 256.925 1089.49 256.498 1089.56 256.059C1089.64 255.611 1089.7 255.211 1089.77 254.858C1089.83 254.496 1089.89 254.25 1089.92 254.121L1091.7 247.196H1096.04L1097.74 254.121C1097.8 254.371 1097.87 254.767 1097.97 255.31C1098.07 255.853 1098.16 256.412 1098.24 256.989C1098.32 257.558 1098.36 258.006 1098.37 258.333H1098.47C1098.51 258.04 1098.57 257.605 1098.65 257.028C1098.74 256.451 1098.84 255.848 1098.95 255.219C1099.07 254.582 1099.19 254.039 1099.31 253.592L1101.04 247.196H1104.91L1100.75 261.641H1096.46ZM1111.19 247.196V261.641H1107.25V247.196H1111.19ZM1109.22 241.537C1109.81 241.537 1110.31 241.675 1110.73 241.951C1111.16 242.218 1111.37 242.722 1111.37 243.462C1111.37 244.194 1111.16 244.703 1110.73 244.987C1110.31 245.262 1109.81 245.4 1109.22 245.4C1108.63 245.4 1108.12 245.262 1107.7 244.987C1107.28 244.703 1107.08 244.194 1107.08 243.462C1107.08 242.722 1107.28 242.218 1107.7 241.951C1108.12 241.675 1108.63 241.537 1109.22 241.537ZM1121.42 258.759C1121.85 258.759 1122.27 258.716 1122.67 258.63C1123.09 258.544 1123.49 258.436 1123.9 258.307V261.24C1123.48 261.43 1122.95 261.585 1122.32 261.705C1121.7 261.834 1121.02 261.899 1120.28 261.899C1119.42 261.899 1118.65 261.761 1117.96 261.486C1117.28 261.201 1116.74 260.715 1116.34 260.026C1115.95 259.328 1115.76 258.359 1115.76 257.119V250.155H1113.87V248.488L1116.04 247.17L1117.18 244.121H1119.7V247.196H1123.74V250.155H1119.7V257.119C1119.7 257.67 1119.86 258.083 1120.17 258.359C1120.48 258.626 1120.9 258.759 1121.42 258.759ZM1130.77 241.537V245.633C1130.77 246.348 1130.75 247.028 1130.7 247.674C1130.65 248.32 1130.62 248.777 1130.59 249.044H1130.8C1131.11 248.544 1131.48 248.139 1131.9 247.829C1132.33 247.519 1132.8 247.291 1133.32 247.144C1133.84 246.998 1134.39 246.925 1134.98 246.925C1136.03 246.925 1136.94 247.11 1137.71 247.48C1138.49 247.842 1139.09 248.415 1139.52 249.199C1139.95 249.974 1140.17 250.982 1140.17 252.222V261.641H1136.23V253.204C1136.23 252.17 1136.04 251.391 1135.66 250.865C1135.28 250.34 1134.69 250.077 1133.9 250.077C1133.11 250.077 1132.48 250.262 1132.03 250.633C1131.57 250.995 1131.25 251.533 1131.06 252.248C1130.87 252.954 1130.77 253.82 1130.77 254.845V261.641H1126.83V241.537H1130.77ZM882.478 285.814C881.711 285.814 881.031 285.964 880.437 286.266C879.851 286.559 879.356 286.985 878.951 287.545C878.555 288.105 878.253 288.781 878.047 289.573C877.84 290.366 877.736 291.257 877.736 292.248C877.736 293.583 877.9 294.724 878.227 295.672C878.563 296.61 879.08 297.33 879.778 297.829C880.475 298.32 881.376 298.566 882.478 298.566C883.245 298.566 884.011 298.48 884.778 298.307C885.553 298.135 886.393 297.89 887.297 297.571V300.93C886.462 301.275 885.639 301.52 884.829 301.666C884.02 301.822 883.111 301.899 882.103 301.899C880.157 301.899 878.555 301.499 877.297 300.697C876.048 299.888 875.122 298.759 874.519 297.312C873.916 295.857 873.615 294.16 873.615 292.222C873.615 290.792 873.809 289.483 874.196 288.294C874.584 287.106 875.152 286.076 875.902 285.206C876.651 284.337 877.577 283.665 878.68 283.191C879.782 282.717 881.048 282.48 882.478 282.48C883.417 282.48 884.356 282.601 885.295 282.842C886.242 283.075 887.146 283.398 888.008 283.811L886.716 287.067C886.009 286.731 885.299 286.438 884.584 286.188C883.869 285.939 883.167 285.814 882.478 285.814ZM896.974 286.925C898.309 286.925 899.459 287.183 900.424 287.7C901.389 288.208 902.134 288.949 902.659 289.922C903.184 290.896 903.447 292.084 903.447 293.488V295.4H894.132C894.175 296.511 894.506 297.386 895.127 298.023C895.755 298.652 896.625 298.966 897.736 298.966C898.658 298.966 899.502 298.871 900.269 298.682C901.035 298.492 901.823 298.208 902.633 297.829V300.878C901.918 301.231 901.169 301.49 900.385 301.654C899.61 301.817 898.667 301.899 897.556 301.899C896.109 301.899 894.825 301.632 893.705 301.098C892.594 300.564 891.72 299.75 891.083 298.656C890.454 297.562 890.14 296.184 890.14 294.522C890.14 292.834 890.424 291.43 890.992 290.31C891.569 289.182 892.37 288.337 893.395 287.778C894.42 287.209 895.613 286.925 896.974 286.925ZM897 289.728C896.233 289.728 895.596 289.974 895.088 290.465C894.588 290.956 894.3 291.727 894.222 292.778H899.752C899.743 292.192 899.636 291.671 899.429 291.214C899.231 290.758 898.929 290.396 898.525 290.129C898.128 289.862 897.62 289.728 897 289.728ZM910.902 301.641H906.961V282.752H917.788V286.033H910.902V290.904H917.31V294.173H910.902V301.641ZM925.114 287.196V301.641H921.173V287.196H925.114ZM923.15 281.537C923.736 281.537 924.24 281.675 924.662 281.951C925.084 282.218 925.295 282.722 925.295 283.462C925.295 284.194 925.084 284.703 924.662 284.987C924.24 285.262 923.736 285.4 923.15 285.4C922.556 285.4 922.047 285.262 921.625 284.987C921.212 284.703 921.005 284.194 921.005 283.462C921.005 282.722 921.212 282.218 921.625 281.951C922.047 281.675 922.556 281.537 923.15 281.537ZM932.93 298.566L933.124 298.863C932.969 299.483 932.767 300.151 932.517 300.865C932.276 301.58 932.009 302.295 931.716 303.01C931.432 303.725 931.143 304.405 930.85 305.051H928.008C928.18 304.354 928.348 303.622 928.512 302.855C928.675 302.089 928.826 301.335 928.964 300.594C929.11 299.853 929.227 299.177 929.313 298.566H932.93ZM943.99 301.641V282.752H947.995V298.333H955.656V301.641H943.99ZM970.837 301.641H957.633V298.863L962.375 294.07C963.331 293.088 964.097 292.269 964.675 291.615C965.26 290.952 965.682 290.349 965.941 289.806C966.208 289.263 966.341 288.682 966.341 288.062C966.341 287.312 966.13 286.753 965.708 286.382C965.295 286.003 964.739 285.814 964.042 285.814C963.309 285.814 962.599 285.982 961.91 286.318C961.221 286.654 960.501 287.132 959.752 287.752L957.582 285.181C958.124 284.716 958.697 284.276 959.3 283.863C959.911 283.449 960.618 283.118 961.419 282.868C962.228 282.61 963.197 282.48 964.326 282.48C965.566 282.48 966.63 282.704 967.517 283.152C968.413 283.6 969.102 284.212 969.584 284.987C970.066 285.753 970.308 286.623 970.308 287.597C970.308 288.639 970.101 289.591 969.688 290.452C969.274 291.313 968.671 292.166 967.879 293.01C967.095 293.854 966.147 294.789 965.036 295.814L962.607 298.101V298.281H970.837V301.641ZM983.861 297.351C983.861 298.333 983.628 299.164 983.163 299.845C982.706 300.517 982.022 301.029 981.109 301.382C980.196 301.727 979.059 301.899 977.698 301.899C976.69 301.899 975.824 301.834 975.101 301.705C974.386 301.576 973.663 301.361 972.93 301.059V297.803C973.714 298.157 974.554 298.449 975.45 298.682C976.354 298.906 977.147 299.018 977.827 299.018C978.594 299.018 979.141 298.906 979.468 298.682C979.804 298.449 979.972 298.148 979.972 297.778C979.972 297.536 979.903 297.321 979.765 297.132C979.636 296.933 979.352 296.714 978.912 296.473C978.473 296.223 977.784 295.9 976.845 295.504C975.941 295.125 975.196 294.741 974.61 294.354C974.033 293.966 973.602 293.51 973.318 292.984C973.042 292.45 972.905 291.774 972.905 290.956C972.905 289.621 973.421 288.617 974.455 287.946C975.497 287.265 976.888 286.925 978.628 286.925C979.524 286.925 980.377 287.015 981.186 287.196C982.005 287.377 982.844 287.666 983.706 288.062L982.517 290.904C981.802 290.594 981.126 290.34 980.489 290.142C979.86 289.944 979.218 289.845 978.564 289.845C977.986 289.845 977.551 289.922 977.259 290.077C976.966 290.232 976.819 290.469 976.819 290.788C976.819 291.02 976.893 291.227 977.039 291.408C977.194 291.589 977.487 291.791 977.918 292.015C978.357 292.231 978.998 292.511 979.843 292.855C980.661 293.191 981.371 293.544 981.974 293.915C982.577 294.276 983.042 294.728 983.37 295.271C983.697 295.805 983.861 296.498 983.861 297.351ZM990.605 298.566L990.799 298.863C990.644 299.483 990.441 300.151 990.191 300.865C989.95 301.58 989.683 302.295 989.39 303.01C989.106 303.725 988.818 304.405 988.525 305.051H985.682C985.855 304.354 986.023 303.622 986.186 302.855C986.35 302.089 986.501 301.335 986.638 300.594C986.785 299.853 986.901 299.177 986.987 298.566H990.605ZM1007.27 286.899C1009.21 286.899 1010.7 287.321 1011.73 288.165C1012.76 289.009 1013.28 290.293 1013.28 292.015V301.641H1010.53L1009.77 299.677H1009.66C1009.25 300.194 1008.83 300.616 1008.4 300.943C1007.96 301.27 1007.47 301.511 1006.91 301.666C1006.35 301.822 1005.67 301.899 1004.87 301.899C1004.02 301.899 1003.25 301.735 1002.57 301.408C1001.9 301.081 1001.37 300.581 1000.98 299.909C1000.59 299.229 1000.4 298.368 1000.4 297.325C1000.4 295.792 1000.94 294.664 1002.01 293.94C1003.09 293.208 1004.7 292.803 1006.86 292.726L1009.36 292.648V292.015C1009.36 291.257 1009.17 290.702 1008.77 290.349C1008.37 289.995 1007.82 289.819 1007.12 289.819C1006.42 289.819 1005.73 289.918 1005.06 290.116C1004.39 290.314 1003.72 290.564 1003.05 290.865L1001.74 288.204C1002.51 287.799 1003.37 287.48 1004.31 287.248C1005.27 287.015 1006.26 286.899 1007.27 286.899ZM1009.36 294.948L1007.84 295C1006.57 295.034 1005.68 295.262 1005.18 295.685C1004.69 296.107 1004.44 296.662 1004.44 297.351C1004.44 297.954 1004.62 298.385 1004.97 298.643C1005.32 298.893 1005.79 299.018 1006.35 299.018C1007.2 299.018 1007.91 298.768 1008.49 298.269C1009.07 297.769 1009.36 297.058 1009.36 296.137V294.948ZM1025.55 286.925C1027.1 286.925 1028.34 287.347 1029.27 288.191C1030.21 289.026 1030.68 290.37 1030.68 292.222V301.641H1026.74V293.204C1026.74 292.17 1026.55 291.391 1026.17 290.865C1025.8 290.34 1025.22 290.077 1024.42 290.077C1023.21 290.077 1022.39 290.486 1021.95 291.305C1021.51 292.123 1021.29 293.303 1021.29 294.845V301.641H1017.35V287.196H1020.36L1020.89 289.044H1021.11C1021.42 288.544 1021.8 288.139 1022.26 287.829C1022.72 287.519 1023.24 287.291 1023.8 287.144C1024.36 286.998 1024.95 286.925 1025.55 286.925ZM1039.31 301.899C1037.7 301.899 1036.39 301.27 1035.37 300.013C1034.36 298.747 1033.86 296.89 1033.86 294.444C1033.86 291.972 1034.37 290.103 1035.4 288.837C1036.42 287.562 1037.76 286.925 1039.42 286.925C1040.11 286.925 1040.71 287.02 1041.24 287.209C1041.76 287.399 1042.22 287.653 1042.59 287.971C1042.98 288.29 1043.31 288.647 1043.58 289.044H1043.71C1043.65 288.768 1043.59 288.363 1043.51 287.829C1043.44 287.287 1043.41 286.731 1043.41 286.163V281.537H1047.36V301.641H1044.34L1043.58 299.767H1043.41C1043.16 300.163 1042.84 300.525 1042.47 300.853C1042.1 301.171 1041.65 301.425 1041.13 301.615C1040.62 301.804 1040.01 301.899 1039.31 301.899ZM1040.7 298.759C1041.77 298.759 1042.53 298.441 1042.97 297.803C1043.42 297.157 1043.65 296.188 1043.68 294.896V294.47C1043.68 293.066 1043.46 291.994 1043.03 291.253C1042.6 290.504 1041.8 290.129 1040.63 290.129C1039.76 290.129 1039.08 290.504 1038.59 291.253C1038.1 292.002 1037.85 293.083 1037.85 294.496C1037.85 295.908 1038.1 296.972 1038.59 297.687C1039.09 298.402 1039.79 298.759 1040.7 298.759ZM1075.32 286.925C1076.96 286.925 1078.19 287.347 1079.03 288.191C1079.87 289.026 1080.29 290.37 1080.29 292.222V301.641H1076.34V293.204C1076.34 292.17 1076.16 291.391 1075.81 290.865C1075.46 290.34 1074.91 290.077 1074.17 290.077C1073.13 290.077 1072.39 290.452 1071.95 291.201C1071.51 291.942 1071.29 293.006 1071.29 294.393V301.641H1067.35V293.204C1067.35 292.515 1067.27 291.938 1067.12 291.473C1066.96 291.008 1066.72 290.659 1066.41 290.426C1066.09 290.194 1065.68 290.077 1065.18 290.077C1064.45 290.077 1063.87 290.262 1063.45 290.633C1063.03 290.995 1062.74 291.533 1062.56 292.248C1062.38 292.954 1062.3 293.82 1062.3 294.845V301.641H1058.36V287.196H1061.37L1061.9 289.044H1062.12C1062.41 288.544 1062.78 288.139 1063.21 287.829C1063.66 287.519 1064.15 287.291 1064.69 287.144C1065.22 286.998 1065.76 286.925 1066.32 286.925C1067.38 286.925 1068.27 287.097 1069 287.442C1069.74 287.786 1070.31 288.32 1070.71 289.044L1071.06 289.044C1071.49 288.303 1072.1 287.765 1072.88 287.429C1073.67 287.093 1074.49 286.925 1075.32 286.925ZM1097.48 294.393C1097.48 295.598 1097.31 296.666 1096.99 297.597C1096.67 298.527 1096.2 299.315 1095.58 299.961C1094.97 300.598 1094.23 301.081 1093.36 301.408C1092.5 301.735 1091.52 301.899 1090.44 301.899C1089.42 301.899 1088.49 301.735 1087.63 301.408C1086.79 301.081 1086.05 300.598 1085.42 299.961C1084.8 299.315 1084.32 298.527 1083.98 297.597C1083.64 296.666 1083.47 295.598 1083.47 294.393C1083.47 292.79 1083.76 291.434 1084.33 290.323C1084.89 289.212 1085.7 288.368 1086.75 287.79C1087.81 287.213 1089.06 286.925 1090.51 286.925C1091.87 286.925 1093.06 287.213 1094.11 287.79C1095.16 288.368 1095.98 289.212 1096.57 290.323C1097.18 291.434 1097.48 292.79 1097.48 294.393ZM1087.49 294.393C1087.49 295.34 1087.59 296.137 1087.8 296.783C1088.01 297.429 1088.33 297.915 1088.77 298.243C1089.21 298.57 1089.78 298.734 1090.49 298.734C1091.19 298.734 1091.75 298.57 1092.18 298.243C1092.62 297.915 1092.94 297.429 1093.14 296.783C1093.34 296.137 1093.45 295.34 1093.45 294.393C1093.45 293.436 1093.34 292.644 1093.14 292.015C1092.94 291.378 1092.62 290.9 1092.18 290.581C1091.74 290.262 1091.17 290.103 1090.46 290.103C1089.42 290.103 1088.66 290.461 1088.19 291.175C1087.72 291.89 1087.49 292.963 1087.49 294.393ZM1108.8 286.925C1108.99 286.925 1109.22 286.938 1109.48 286.964C1109.75 286.981 1109.96 287.007 1110.13 287.041L1109.83 290.736C1109.7 290.693 1109.52 290.663 1109.27 290.646C1109.04 290.62 1108.84 290.607 1108.67 290.607C1108.16 290.607 1107.66 290.672 1107.18 290.801C1106.71 290.93 1106.28 291.141 1105.9 291.434C1105.52 291.718 1105.22 292.097 1105 292.571C1104.78 293.036 1104.67 293.609 1104.67 294.289V301.641H1100.73V287.196H1103.72L1104.3 289.625H1104.49C1104.78 289.134 1105.13 288.686 1105.55 288.281C1105.98 287.868 1106.47 287.541 1107.01 287.3C1107.56 287.05 1108.16 286.925 1108.8 286.925ZM1118.71 286.925C1120.04 286.925 1121.19 287.183 1122.16 287.7C1123.12 288.208 1123.87 288.949 1124.39 289.922C1124.92 290.896 1125.18 292.084 1125.18 293.488V295.4H1115.86C1115.91 296.511 1116.24 297.386 1116.86 298.023C1117.49 298.652 1118.36 298.966 1119.47 298.966C1120.39 298.966 1121.23 298.871 1122 298.682C1122.77 298.492 1123.56 298.208 1124.36 297.829V300.878C1123.65 301.231 1122.9 301.49 1122.12 301.654C1121.34 301.817 1120.4 301.899 1119.29 301.899C1117.84 301.899 1116.56 301.632 1115.44 301.098C1114.33 300.564 1113.45 299.75 1112.81 298.656C1112.19 297.562 1111.87 296.184 1111.87 294.522C1111.87 292.834 1112.16 291.43 1112.72 290.31C1113.3 289.182 1114.1 288.337 1115.13 287.778C1116.15 287.209 1117.34 286.925 1118.71 286.925ZM1118.73 289.728C1117.97 289.728 1117.33 289.974 1116.82 290.465C1116.32 290.956 1116.03 291.727 1115.95 292.778H1121.48C1121.48 292.192 1121.37 291.671 1121.16 291.214C1120.96 290.758 1120.66 290.396 1120.26 290.129C1119.86 289.862 1119.35 289.728 1118.73 289.728Z" fill="#FBFBFB"/>
<g clip-path="url(#clip1_1591_13024)">
<path d="M731.495 212.398C753.377 288.795 709.121 368.529 632.64 390.483C556.188 412.426 476.45 368.284 454.578 291.887C432.683 215.487 476.937 135.749 553.396 113.802C629.871 91.8457 709.61 135.997 731.495 212.398Z" fill="#F7931A"/>
<path d="M638.134 193.45C631.043 175.431 613.251 173.815 592.528 177.849L585.165 152.144L569.504 156.642L576.673 181.669C572.556 182.852 568.371 184.141 564.214 185.425L557 160.231L541.347 164.724L548.701 190.423C545.33 191.466 542.019 192.485 538.772 193.419L538.747 193.34L517.144 199.534L521.935 216.243C521.935 216.243 533.437 212.703 533.306 212.971C539.65 211.151 542.768 214.238 544.278 217.241L552.667 246.523C553.105 246.4 553.682 246.254 554.354 246.157C553.832 246.308 553.272 246.464 552.7 246.634L564.445 287.658C564.738 289.733 564.475 293.25 560.046 294.53C560.297 294.649 548.66 297.795 548.66 297.795L550.9 317.374L571.281 311.522C575.075 310.438 578.825 309.431 582.496 308.402L589.948 334.398L605.594 329.909L598.226 304.187C602.547 303.042 606.714 301.883 610.771 300.714L618.098 326.32L633.759 321.823L626.331 295.87C652.229 286.802 668.759 274.885 663.973 249.526C660.123 229.105 648.216 222.919 632.242 223.624C639.999 216.398 643.345 206.629 638.134 193.45ZM632.144 255.329C637.717 274.754 603.786 282.104 593.175 285.161L583.313 250.715C593.931 247.669 626.341 235.065 632.144 255.329ZM610.941 208.823C615.999 226.5 587.638 232.409 578.797 234.948L569.85 203.708C578.691 201.169 605.659 190.387 610.941 208.823Z" fill="white"/>
<path d="M833.568 272.798C833.568 138.748 724.703 30.0566 590.396 30.0566C456.09 30.0566 347.225 138.729 347.225 272.798" fill="#F7931A" fill-opacity="0.1"/>
<path d="M347.223 272.8C347.223 406.849 456.088 515.541 590.394 515.541C724.701 515.541 833.566 406.869 833.566 272.8" fill="#F7931A" fill-opacity="0.1"/>
<path d="M834.612 273.436C834.612 138.967 725.741 29.9355 591.428 29.9355C457.114 29.9355 348.243 138.948 348.243 273.436" stroke="#414042" stroke-width="9.16431" stroke-miterlimit="10"/>
<path d="M348.241 273.539C348.241 408.007 457.112 517.039 591.426 517.039C725.74 517.039 834.61 408.027 834.61 273.539" stroke="#414042" stroke-width="9.16431" stroke-miterlimit="10"/>
<path d="M362.961 288.167C354.827 296.311 341.64 296.311 333.506 288.167C325.373 280.023 325.373 266.818 333.506 258.674C341.64 250.53 354.827 250.53 362.961 258.674C371.095 266.818 371.095 280.023 362.961 288.167Z" fill="#414042"/>
<path d="M361.424 273.44C361.424 266.175 355.518 260.242 348.243 260.242C340.968 260.242 335.062 266.156 335.062 273.44C335.062 280.725 340.968 286.639 348.243 286.639C355.518 286.639 361.424 280.725 361.424 273.44Z" fill="#2BD45A"/>
<path d="M451.815 72.983C457.564 82.9501 470.296 86.377 480.25 80.6199C490.204 74.8628 493.626 62.1151 487.877 52.1479C482.127 42.1807 469.396 38.7539 459.442 44.5109C449.487 50.268 446.065 63.0158 451.815 72.983Z" fill="#414042"/>
<path d="M476.437 73.973C482.734 70.3307 484.885 62.263 481.267 55.9576C477.63 49.6523 469.553 47.4983 463.275 51.1209C456.978 54.7631 454.827 62.8505 458.445 69.1362C462.083 75.4416 470.14 77.5956 476.437 73.973Z" fill="#FEF4E8"/>
<path d="M694.979 52.1326C689.229 62.0998 692.632 74.8476 702.606 80.6046C712.56 86.3617 725.291 82.9545 731.041 72.9677C736.79 63.0005 733.387 50.2527 723.414 44.4957C713.44 38.7386 700.728 42.1459 694.979 52.1326Z" fill="#414042"/>
<path d="M706.435 73.9835C712.733 77.6258 720.79 75.4522 724.427 69.1664C728.065 62.8611 725.894 54.7737 719.597 51.1511C713.3 47.5089 705.242 49.6824 701.605 55.9878C697.967 62.2932 700.138 70.3609 706.435 74.0031L706.435 73.9835Z" fill="#FEF4E8"/>
<path d="M849.321 288.181C841.187 296.325 828 296.325 819.866 288.181C811.732 280.037 811.732 266.832 819.866 258.688C828 250.544 841.187 250.544 849.321 258.688C857.455 266.832 857.455 280.037 849.321 288.181Z" fill="#414042"/>
<path d="M821.428 273.44C821.428 280.705 827.334 286.639 834.609 286.639C841.884 286.639 847.79 280.725 847.79 273.44C847.79 266.156 841.884 260.242 834.609 260.242C827.334 260.242 821.428 266.156 821.428 273.44Z" fill="#FEF4E8"/>
</g>
<rect x="1139.29" y="273.365" width="49.5" height="27.5" rx="13.75" fill="#F7931A" fill-opacity="0.1"/>
<rect x="1139.29" y="273.365" width="49.5" height="27.5" rx="13.75" stroke="#F7931A" stroke-width="0.5"/>
<path d="M1163.99 282.407L1160.14 293.115H1158.89L1155.04 282.407H1156.35L1158.85 289.46C1158.95 289.744 1159.04 290.015 1159.12 290.273C1159.21 290.532 1159.28 290.781 1159.34 291.021C1159.41 291.26 1159.46 291.492 1159.51 291.716C1159.56 291.492 1159.62 291.26 1159.68 291.021C1159.74 290.776 1159.82 290.525 1159.9 290.266C1159.98 290.002 1160.07 289.727 1160.18 289.438L1162.67 282.407H1163.99ZM1172.28 290.632H1170.68V293.115H1169.49V290.632H1164.31V289.607L1169.41 282.349H1170.68V289.534H1172.28V290.632ZM1169.49 289.534V286.033C1169.49 285.764 1169.5 285.522 1169.5 285.308C1169.51 285.088 1169.51 284.885 1169.52 284.7C1169.53 284.509 1169.54 284.329 1169.54 284.158C1169.55 283.987 1169.56 283.818 1169.57 283.652H1169.51C1169.42 283.848 1169.31 284.055 1169.19 284.275C1169.07 284.49 1168.95 284.683 1168.83 284.854L1165.52 289.534H1169.49Z" fill="white"/>
<defs>
<clipPath id="clip0_1591_13024">
<rect width="145" height="33.1218" fill="white" transform="translate(258.425 5.85938)"/>
</clipPath>
<clipPath id="clip1_1591_13024">
<rect width="357" height="545" fill="white" transform="translate(319 357) rotate(-90)"/>
</clipPath>
</defs>
</svg>
