<svg width="594" height="241" viewBox="0 0 594 241" fill="none" xmlns="http://www.w3.org/2000/svg">
<g clip-path="url(#clip0_1931_8023)">
<path d="M0 16.1152C0 7.27868 7.16344 0.115234 16 0.115234H578C586.837 0.115234 594 7.27868 594 16.1152V240.115H0V16.1152Z" fill="#141414"/>
<path d="M850.85 -459H-257.844V607H850.85V-459Z" fill="#212121"/>
<path d="M228.32 148.871C228.326 149.805 228.32 150.999 228.284 152.381L225.871 153.43C226.908 151.575 227.732 150.011 228.32 148.871Z" fill="#E2E2E2"/>
<path d="M225.241 154.542L228.266 153.238C228.217 154.657 228.138 156.245 228.005 157.955L221.027 161.531C222.646 158.997 224.059 156.621 225.247 154.548L225.241 154.542Z" fill="#E2E2E2"/>
<path d="M220.184 162.818L227.931 158.848C227.725 161.327 227.41 164.031 226.943 166.795L215.916 169.002C217.45 166.898 218.874 164.819 220.178 162.812L220.184 162.818Z" fill="#E2E2E2"/>
<path d="M227.802 147.346C227.232 148.485 226.202 150.474 224.771 153.02L223.71 148.346C225.038 147.988 226.402 147.655 227.802 147.346Z" fill="#E2E2E2"/>
<path d="M215.252 169.943L226.818 167.633C226.467 169.609 226.036 171.61 225.515 173.586L210.39 176.065C211.826 174.38 214.985 170.312 215.258 169.943H215.252Z" fill="#E2E2E2"/>
<path d="M209.59 176.971L225.279 174.395C224.666 176.583 223.927 178.729 223.048 180.754L204.14 182.676C206.061 180.839 207.88 178.911 209.584 176.965L209.59 176.971Z" fill="#E2E2E2"/>
<path d="M222.97 148.553L224.213 154.021C222.982 156.179 221.491 158.671 219.781 161.332L218.199 150.068C219.727 149.529 221.321 149.02 222.97 148.559V148.553Z" fill="#E2E2E2"/>
<path d="M203.211 183.549L222.689 181.572C221.416 184.349 219.846 186.877 217.936 188.968L197.434 188.314C199.44 186.865 201.368 185.258 203.211 183.555V183.549Z" fill="#E2E2E2"/>
<path d="M217.452 150.326L219.138 162.311C217.834 164.312 216.403 166.391 214.876 168.483L211.293 152.975C213.221 152.011 215.276 151.126 217.452 150.326Z" fill="#E2E2E2"/>
<path d="M196.384 189.045L217.214 189.712C216.378 190.536 215.48 191.282 214.516 191.931C208.709 195.823 201.125 195.756 191.965 191.724C193.474 190.93 194.948 190.027 196.384 189.045Z" fill="#E2E2E2"/>
<path d="M204.616 157.014L208.629 176.298C206.871 178.298 204.986 180.287 202.991 182.166L199.669 161.282C201.148 159.754 202.797 158.335 204.61 157.014H204.616Z" fill="#E2E2E2"/>
<path d="M199.003 161.99L202.313 182.808C200.391 184.578 198.36 186.239 196.263 187.725L194.02 169.065C194.365 168.404 194.741 167.737 195.147 167.076C196.256 165.282 197.542 163.585 199.003 161.996V161.99Z" fill="#E2E2E2"/>
<path d="M193.391 170.338L195.537 188.222C194.027 189.246 192.481 190.18 190.893 190.986C190.426 188.725 189.008 179.74 193.385 170.338H193.391Z" fill="#E2E2E2"/>
<path d="M210.579 153.348L214.271 169.31C214.01 169.655 210.779 173.82 209.275 175.572L205.305 156.524C206.942 155.385 208.7 154.324 210.579 153.342V153.348Z" fill="#E2E2E2"/>
<path d="M168.847 230.504V230.533C168.099 236.229 164.992 241.379 160.307 244.671C152.699 250.01 141.302 255.448 129.814 251.408V243.816C130.525 242.435 135.499 234.01 150.948 234.01C161.03 234.01 166.209 232.205 168.843 230.504H168.847Z" fill="#1B1B1B"/>
<path d="M168.847 204.988V205.017C168.099 210.714 164.992 215.872 160.307 219.156C152.699 224.503 141.298 229.932 129.814 225.9V218.301C130.525 216.92 135.499 208.494 150.948 208.494C161.03 208.494 166.209 206.69 168.843 204.988H168.847Z" fill="#1B1B1B"/>
<path d="M168.847 179.479V179.503C168.099 185.2 164.992 190.358 160.307 193.642C152.699 198.989 141.302 204.418 129.814 200.386V192.787C130.525 191.406 135.499 182.98 150.948 182.98C161.03 182.98 166.209 181.176 168.843 179.483L168.847 179.479Z" fill="#1B1B1B"/>
<path d="M168.847 153.959V153.988C168.099 159.684 164.992 164.834 160.307 168.126C153.394 172.976 143.349 177.912 132.946 175.742C131.906 175.52 130.863 175.233 129.814 174.863V167.271C130.525 165.89 135.499 157.457 150.948 157.457C161.03 157.457 166.209 155.661 168.843 153.959H168.847Z" fill="#1B1B1B"/>
<path d="M168.847 128.438V128.466C168.099 134.163 164.992 139.321 160.307 142.605C152.699 147.952 141.298 153.381 129.814 149.349V141.75C130.525 140.369 135.499 131.943 150.948 131.943C161.03 131.943 166.209 130.139 168.843 128.438H168.847Z" fill="#1B1B1B"/>
<path d="M127.526 243.812V251.411C116.039 255.443 104.642 250.014 97.0338 244.675C92.3525 241.383 89.2412 236.233 88.4932 230.537V230.508C91.1277 232.209 96.3064 234.014 106.388 234.014C121.932 234.014 126.799 242.369 127.522 243.812H127.526Z" fill="#1B1B1B"/>
<path d="M127.526 218.301V225.9C116.039 229.932 104.642 224.503 97.0338 219.156C92.3525 215.872 89.2412 210.714 88.4932 205.017V204.988C91.1277 206.69 96.3064 208.494 106.388 208.494C121.932 208.494 126.799 216.85 127.522 218.301H127.526Z" fill="#1B1B1B"/>
<path d="M127.526 192.779V200.378C116.039 204.41 104.642 198.981 97.0338 193.634C92.3525 190.35 89.2412 185.192 88.4932 179.495V179.471C91.1277 181.168 96.3064 182.968 106.388 182.968C121.932 182.968 126.799 191.324 127.522 192.775L127.526 192.779Z" fill="#1B1B1B"/>
<path d="M127.526 141.742V149.349C116.039 153.381 104.642 147.952 97.0338 142.605C92.3525 139.321 89.2412 134.163 88.4932 128.466V128.438C91.1277 130.139 96.3064 131.943 106.388 131.943C121.932 131.943 126.799 140.299 127.522 141.742H127.526Z" fill="#1B1B1B"/>
<path d="M127.526 167.271V174.863C126.478 175.228 125.434 175.52 124.394 175.742C113.992 177.912 103.947 172.976 97.0338 168.126C92.3525 164.834 89.2412 159.684 88.4932 153.988V153.959C91.1277 155.661 96.3064 157.457 106.388 157.457C121.932 157.457 126.799 165.821 127.522 167.263V167.271H127.526Z" fill="#1B1B1B"/>
<path d="M129.436 141.635H127.907V264.225H129.436V141.635Z" fill="#1B1B1B"/>
<path d="M439.323 202.41V202.458C438.193 211.061 433.501 218.846 426.433 223.801C414.948 231.874 397.732 240.073 380.399 233.983V222.507C381.473 220.42 388.977 207.702 412.309 207.702C427.533 207.702 435.351 204.981 439.328 202.41H439.323Z" fill="#1B1B1B"/>
<path d="M439.323 163.895V163.929C438.193 172.533 433.501 180.318 426.433 185.273C414.948 193.346 397.741 201.544 380.399 195.455V183.979C381.473 181.892 388.977 169.174 412.309 169.174C427.533 169.174 435.351 166.452 439.328 163.891L439.323 163.895Z" fill="#1B1B1B"/>
<path d="M439.323 125.365V125.413C438.193 134.016 433.501 141.788 426.433 146.756C415.996 154.079 400.833 161.527 385.126 158.254C383.556 157.917 381.978 157.482 380.399 156.93V145.467C381.473 143.379 388.977 130.648 412.309 130.648C427.533 130.648 435.351 127.94 439.328 125.365H439.323Z" fill="#1B1B1B"/>
<path d="M439.323 86.8379V86.8853C438.193 95.4891 433.501 103.273 426.433 108.229C414.948 116.302 397.732 124.5 380.399 118.411V106.935C381.473 104.848 388.977 92.1295 412.309 92.1295C427.533 92.1295 435.351 89.4082 439.328 86.8379H439.323Z" fill="#1B1B1B"/>
<path d="M376.936 222.509V233.985C359.59 240.075 342.387 231.876 330.902 223.803C323.834 218.843 319.142 211.059 318.012 202.46V202.412C321.992 204.982 329.807 207.704 345.031 207.704C368.496 207.704 375.845 220.318 376.94 222.509H376.936Z" fill="#1B1B1B"/>
<path d="M376.936 183.984V195.46C359.59 201.55 342.387 193.352 330.902 185.278C323.834 180.319 319.142 172.534 318.012 163.935V163.9C321.992 166.462 329.807 169.183 345.031 169.183C368.496 169.183 375.845 181.798 376.94 183.989L376.936 183.984Z" fill="#1B1B1B"/>
<path d="M376.936 106.926V118.411C359.59 124.5 342.387 116.302 330.902 108.229C323.834 103.269 319.142 95.4848 318.012 86.8853V86.8379C321.992 89.4082 329.807 92.1295 345.031 92.1295C368.496 92.1295 375.845 104.744 376.94 106.926H376.936Z" fill="#1B1B1B"/>
<path d="M376.936 145.467V156.93C375.357 157.482 373.774 157.922 372.209 158.254C356.502 161.527 341.339 154.079 330.902 146.756C323.834 141.788 319.142 134.012 318.012 125.413V125.365C321.992 127.936 329.807 130.648 345.031 130.648C368.496 130.648 375.845 143.276 376.94 145.454V145.467H376.936Z" fill="#1B1B1B"/>
<path d="M379.819 106.764H377.512V291.85H379.819V106.764Z" fill="#1B1B1B"/>
<path d="M358.515 21.41C358.526 22.8799 358.52 24.7445 358.457 26.9123L354.671 28.5538C356.295 25.6425 357.594 23.1945 358.515 21.4043V21.41Z" fill="#1B1B1B"/>
<path d="M353.681 30.3113L358.423 28.2637C358.343 30.4886 358.223 32.9824 358.017 35.6591L347.069 41.2644C349.603 37.2892 351.828 33.56 353.681 30.3113Z" fill="#1B1B1B"/>
<path d="M345.756 43.299L357.91 37.0703C357.584 40.9654 357.092 45.1979 356.365 49.5391L339.069 52.9994C341.477 49.6992 343.708 46.4333 345.756 43.2933V43.299Z" fill="#1B1B1B"/>
<path d="M357.696 19.0194C356.798 20.8096 355.185 23.9325 352.943 27.9191L351.284 20.5866C353.366 20.0203 355.505 19.4998 357.696 19.0137V19.0194Z" fill="#1B1B1B"/>
<path d="M338.005 54.4563L356.142 50.8301C355.593 53.9301 354.918 57.0702 354.094 60.1645L330.363 64.0595C332.617 61.4171 337.57 55.0397 338.005 54.4563Z" fill="#1B1B1B"/>
<path d="M329.129 65.4951L353.741 61.457C352.774 64.8888 351.624 68.2519 350.24 71.4378L320.584 74.452C323.604 71.5636 326.452 68.5494 329.123 65.4951H329.129Z" fill="#1B1B1B"/>
<path d="M350.112 20.9121L352.057 29.4858C350.123 32.8776 347.79 36.7783 345.107 40.9479L342.625 23.28C345.022 22.4335 347.515 21.6385 350.106 20.9121H350.112Z" fill="#1B1B1B"/>
<path d="M319.122 75.8108L349.671 72.7051C347.669 77.0577 345.215 81.0271 342.212 84.3045L310.057 83.2749C313.202 81.0042 316.228 78.4819 319.122 75.8108Z" fill="#1B1B1B"/>
<path d="M341.46 23.6973L344.103 42.4976C342.055 45.632 339.819 48.8922 337.416 52.1809L331.794 27.8554C334.814 26.3397 338.04 24.9556 341.46 23.6973Z" fill="#1B1B1B"/>
<path d="M308.413 84.4276L341.083 85.4743C339.767 86.7669 338.36 87.9394 336.85 88.9518C327.739 95.0546 315.842 94.946 301.475 88.6315C303.837 87.3846 306.153 85.9719 308.413 84.4219V84.4276Z" fill="#1B1B1B"/>
<path d="M321.332 34.1855L327.629 64.4366C324.872 67.5766 321.91 70.6938 318.787 73.6394L313.576 40.8775C315.898 38.481 318.489 36.256 321.332 34.1855Z" fill="#1B1B1B"/>
<path d="M312.523 41.9862L317.71 74.6395C314.69 77.4135 311.516 80.0216 308.216 82.3495L304.698 53.0765C305.236 52.0413 305.825 50.9946 306.471 49.9536C308.21 47.1338 310.229 44.4742 312.523 41.9805V41.9862Z" fill="#1B1B1B"/>
<path d="M303.721 55.0918L307.09 83.1408C304.727 84.748 302.297 86.2065 299.809 87.4763C299.076 83.9301 296.851 69.8427 303.721 55.0918Z" fill="#1B1B1B"/>
<path d="M330.678 28.4316L336.467 53.4721C336.061 54.0155 330.993 60.5473 328.625 63.2984L322.396 33.4191C324.959 31.6289 327.721 29.9702 330.673 28.4316H330.678Z" fill="#1B1B1B"/>
<path d="M425.705 181.977C425.714 183.154 425.709 184.646 425.659 186.382L422.628 187.696C423.928 185.365 424.967 183.406 425.705 181.973V181.977Z" fill="#E2E2E2"/>
<path d="M421.837 189.098L425.632 187.459C425.568 189.24 425.472 191.236 425.307 193.379L416.544 197.866C418.572 194.684 420.353 191.699 421.837 189.098Z" fill="#E2E2E2"/>
<path d="M415.49 199.501L425.219 194.516C424.958 197.633 424.564 201.021 423.983 204.496L410.138 207.266C412.065 204.625 413.851 202.01 415.49 199.497V199.501Z" fill="#E2E2E2"/>
<path d="M425.049 180.059C424.331 181.492 423.039 183.992 421.245 187.183L419.917 181.314C421.584 180.86 423.296 180.444 425.049 180.055V180.059Z" fill="#E2E2E2"/>
<path d="M409.287 208.428L423.804 205.525C423.365 208.007 422.825 210.52 422.165 212.997L403.17 216.115C404.974 214 408.939 208.895 409.287 208.428Z" fill="#E2E2E2"/>
<path d="M402.181 217.256L421.881 214.023C421.108 216.77 420.187 219.462 419.079 222.013L395.341 224.425C397.758 222.113 400.038 219.701 402.176 217.256H402.181Z" fill="#E2E2E2"/>
<path d="M418.978 181.574L420.535 188.437C418.988 191.152 417.12 194.274 414.972 197.612L412.985 183.47C414.904 182.792 416.9 182.156 418.974 181.574H418.978Z" fill="#E2E2E2"/>
<path d="M394.173 225.515L418.626 223.029C417.023 226.513 415.059 229.691 412.655 232.314L386.916 231.49C389.434 229.672 391.856 227.653 394.173 225.515Z" fill="#E2E2E2"/>
<path d="M412.051 183.811L414.166 198.86C412.527 201.368 410.737 203.978 408.814 206.611L404.313 187.139C406.731 185.926 409.313 184.818 412.051 183.811Z" fill="#E2E2E2"/>
<path d="M385.598 232.417L411.75 233.255C410.697 234.289 409.571 235.228 408.362 236.038C401.069 240.923 391.546 240.836 380.045 235.782C381.936 234.784 383.79 233.653 385.598 232.412V232.417Z" fill="#E2E2E2"/>
<path d="M395.942 192.201L400.982 216.416C398.776 218.929 396.404 221.425 393.904 223.782L389.733 197.558C391.592 195.64 393.666 193.859 395.942 192.201Z" fill="#E2E2E2"/>
<path d="M388.889 198.448L393.042 224.586C390.624 226.806 388.083 228.894 385.442 230.757L382.626 207.325C383.056 206.497 383.528 205.659 384.045 204.826C385.437 202.568 387.053 200.44 388.889 198.443V198.448Z" fill="#E2E2E2"/>
<path d="M381.844 208.932L384.541 231.384C382.65 232.67 380.704 233.838 378.712 234.854C378.126 232.016 376.346 220.739 381.844 208.932Z" fill="#E2E2E2"/>
<path d="M403.426 187.596L408.06 207.64C407.735 208.075 403.678 213.303 401.783 215.505L396.797 191.588C398.848 190.155 401.059 188.827 403.422 187.596H403.426Z" fill="#E2E2E2"/>
<path d="M223.041 38.8745C223.034 39.752 223.037 40.865 223.075 42.159L225.335 43.1388C224.366 41.401 223.591 39.9397 223.041 38.8711V38.8745Z" fill="#1B1B1B"/>
<path d="M225.928 44.1871L223.098 42.9648C223.145 44.293 223.217 45.7815 223.34 47.3794L229.875 50.7253C228.362 48.3524 227.034 46.1264 225.928 44.1871Z" fill="#1B1B1B"/>
<path d="M230.657 51.9427L223.402 48.2246C223.597 50.5497 223.891 53.0762 224.324 55.6675L234.649 57.7331C233.211 55.7631 231.88 53.8136 230.657 51.9392V51.9427Z" fill="#1B1B1B"/>
<path d="M223.528 37.4468C224.064 38.5154 225.027 40.3796 226.365 42.7592L227.356 38.3823C226.113 38.0443 224.836 37.7336 223.528 37.4434V37.4468Z" fill="#1B1B1B"/>
<path d="M235.283 58.6041L224.457 56.4395C224.785 58.2899 225.188 60.1643 225.679 62.0114L239.845 64.3365C238.5 62.7591 235.543 58.9523 235.283 58.6041Z" fill="#1B1B1B"/>
<path d="M240.584 65.1839L225.893 62.7734C226.47 64.8219 227.156 66.8295 227.982 68.7312L245.685 70.5305C243.882 68.8063 242.182 67.007 240.587 65.1839H240.584Z" fill="#1B1B1B"/>
<path d="M228.054 38.5801L226.894 43.6979C228.048 45.7226 229.441 48.051 231.042 50.54L232.524 39.9936C231.093 39.4883 229.604 39.0137 228.058 38.5801H228.054Z" fill="#1B1B1B"/>
<path d="M246.554 71.3461L228.318 69.4922C229.513 72.0904 230.978 74.4598 232.77 76.4162L251.965 75.8016C250.087 74.4462 248.281 72.9405 246.554 71.3461Z" fill="#1B1B1B"/>
<path d="M233.222 40.2402L231.645 51.4627C232.867 53.3336 234.202 55.2797 235.636 57.2429L238.992 42.7223C237.189 41.8176 235.264 40.9914 233.222 40.2402Z" fill="#1B1B1B"/>
<path d="M252.949 76.4878L233.447 77.1126C234.233 77.8842 235.072 78.5841 235.974 79.1884C241.413 82.8314 248.514 82.7665 257.09 78.9972C255.68 78.2529 254.298 77.4096 252.949 76.4844V76.4878Z" fill="#1B1B1B"/>
<path d="M245.239 46.5L241.48 64.5576C243.126 66.432 244.895 68.2927 246.759 70.0511L249.869 50.4946C248.483 49.0641 246.936 47.7359 245.239 46.5Z" fill="#1B1B1B"/>
<path d="M250.497 51.1577L247.4 70.6493C249.203 72.3052 251.098 73.862 253.068 75.2516L255.168 57.7778C254.847 57.1599 254.495 56.535 254.109 55.9137C253.071 54.2305 251.866 52.6429 250.497 51.1543V51.1577Z" fill="#1B1B1B"/>
<path d="M255.749 58.9805L253.738 75.7236C255.148 76.683 256.599 77.5536 258.085 78.3116C258.522 76.1948 259.85 67.7857 255.749 58.9805Z" fill="#1B1B1B"/>
<path d="M239.653 43.0625L236.198 58.0098C236.441 58.3342 239.466 62.2332 240.879 63.8754L244.597 46.0397C243.068 44.971 241.419 43.9809 239.657 43.0625H239.653Z" fill="#1B1B1B"/>
<path d="M334.949 152.873C334.941 153.876 334.945 155.147 334.988 156.626L337.57 157.746C336.462 155.76 335.577 154.09 334.949 152.869V152.873Z" fill="#E2E2E2"/>
<path d="M338.244 158.938L335.01 157.541C335.064 159.059 335.146 160.76 335.287 162.585L342.754 166.408C341.025 163.697 339.508 161.154 338.244 158.938Z" fill="#E2E2E2"/>
<path d="M343.652 167.805L335.362 163.557C335.585 166.213 335.92 169.1 336.416 172.061L348.213 174.421C346.57 172.17 345.049 169.943 343.652 167.801V167.805Z" fill="#E2E2E2"/>
<path d="M335.508 151.242C336.12 152.463 337.22 154.593 338.75 157.312L339.881 152.311C338.461 151.925 337.002 151.57 335.508 151.238V151.242Z" fill="#E2E2E2"/>
<path d="M348.938 175.409L336.567 172.936C336.942 175.05 337.402 177.192 337.964 179.302L354.15 181.959C352.613 180.157 349.235 175.807 348.938 175.409Z" fill="#E2E2E2"/>
<path d="M354.991 182.934L338.204 180.18C338.863 182.52 339.648 184.814 340.592 186.987L360.819 189.043C358.76 187.073 356.817 185.017 354.995 182.934H354.991Z" fill="#E2E2E2"/>
<path d="M340.679 152.533L339.353 158.381C340.671 160.695 342.263 163.355 344.093 166.199L345.786 154.148C344.151 153.571 342.45 153.029 340.683 152.533H340.679Z" fill="#E2E2E2"/>
<path d="M361.816 189.976L340.979 187.857C342.345 190.826 344.019 193.534 346.067 195.769L367.999 195.067C365.854 193.518 363.79 191.798 361.816 189.976Z" fill="#E2E2E2"/>
<path d="M346.581 154.43L344.778 167.253C346.175 169.391 347.7 171.614 349.339 173.858L353.174 157.266C351.114 156.232 348.914 155.288 346.581 154.43Z" fill="#E2E2E2"/>
<path d="M369.122 195.855L346.838 196.569C347.735 197.451 348.695 198.251 349.725 198.941C355.939 203.104 364.054 203.03 373.854 198.723C372.243 197.872 370.663 196.909 369.122 195.852V195.855Z" fill="#E2E2E2"/>
<path d="M360.309 161.59L356.014 182.223C357.894 184.365 359.915 186.491 362.045 188.5L365.599 166.154C364.015 164.52 362.248 163.002 360.309 161.59Z" fill="#E2E2E2"/>
<path d="M366.319 166.91L362.78 189.182C364.84 191.074 367.005 192.853 369.256 194.441L371.656 174.475C371.289 173.768 370.887 173.055 370.446 172.345C369.26 170.421 367.883 168.607 366.319 166.906V166.91Z" fill="#E2E2E2"/>
<path d="M372.322 175.842L370.024 194.973C371.636 196.07 373.294 197.064 374.991 197.93C375.49 195.512 377.008 185.903 372.322 175.842Z" fill="#E2E2E2"/>
<path d="M353.931 157.662L349.983 174.742C350.26 175.112 353.717 179.567 355.332 181.444L359.58 161.064C357.833 159.843 355.948 158.712 353.935 157.662H353.931Z" fill="#E2E2E2"/>
<path d="M379.772 154.91H375.722V266.974H379.772V154.91Z" fill="#E2E2E2"/>
<path d="M191.763 52.8008H186.096V228.024H191.763V52.8008Z" fill="#E2E2E2"/>
<path d="M376.863 157.121C386.177 157.121 393.728 149.571 393.728 140.257C393.728 130.943 386.177 123.393 376.863 123.393C367.549 123.393 359.999 130.943 359.999 140.257C359.999 149.571 367.549 157.121 376.863 157.121Z" fill="url(#paint0_linear_1931_8023)"/>
<g style="mix-blend-mode:soft-light" opacity="0.5">
<path d="M376.864 153.777C384.334 153.777 390.389 147.722 390.389 140.252C390.389 132.782 384.334 126.727 376.864 126.727C369.394 126.727 363.339 132.782 363.339 140.252C363.339 147.722 369.394 153.777 376.864 153.777Z" fill="black"/>
</g>
<g style="mix-blend-mode:soft-light" opacity="0.5">
<path d="M364.345 141.008C364.345 133.538 370.401 127.483 377.87 127.483C380.667 127.483 383.266 128.331 385.422 129.786C383.09 127.875 380.112 126.727 376.861 126.727C369.392 126.727 363.336 132.782 363.336 140.252C363.336 144.483 365.28 148.258 368.321 150.738C366.971 149.365 365.913 147.705 365.245 145.86C364.665 144.353 364.345 142.718 364.345 141.008Z" fill="black"/>
</g>
<g filter="url(#filter0_d_1931_8023)">
<path d="M380.908 140.416C381.401 140.246 381.829 140.04 382.186 139.798C382.544 139.555 382.84 139.284 383.072 138.984C383.304 138.686 383.474 138.365 383.585 138.022C383.696 137.679 383.752 137.319 383.752 136.943C383.752 136.286 383.641 135.696 383.419 135.174C383.197 134.65 382.85 134.204 382.373 133.836C381.898 133.467 381.261 133.183 380.522 132.984C380.084 132.866 379.687 132.784 379.02 132.737V130.277H377.684V132.727H375.456V130.277H373.899V132.727H370.56V133.986C370.56 134.369 370.8 134.599 371.168 134.679C371.201 134.685 371.275 134.693 371.334 134.704C371.394 134.714 371.515 134.734 371.675 134.763C371.836 134.792 372.117 134.831 372.341 134.878V146.488C372.119 146.538 371.85 146.577 371.69 146.605C371.529 146.634 371.423 146.653 371.361 146.665C371.301 146.675 371.199 146.684 371.168 146.69C370.798 146.768 370.56 147 370.56 147.382V148.759H373.899V150.762H375.456V148.759H377.684V150.762H379.02V148.658C379.687 148.613 380.298 148.504 380.836 148.327C381.559 148.091 382.18 147.764 382.675 147.349C383.168 146.932 383.553 146.437 383.809 145.862C384.068 145.286 384.2 144.659 384.2 143.981C384.2 142.101 383.105 140.913 380.908 140.42V140.416ZM380.787 137.297C380.787 138.1 380.526 138.696 380.002 139.066C379.478 139.434 378.711 139.629 377.7 139.629H375.234V134.954H377.867C378.87 134.954 379.607 135.147 380.08 135.501C380.552 135.854 380.789 136.465 380.789 137.299L380.787 137.297ZM381.113 144.853C381.015 145.149 380.852 145.405 380.626 145.627C380.402 145.849 380.102 146.001 379.731 146.135C379.359 146.268 378.894 146.31 378.341 146.31H375.234V141.635H378.331C378.855 141.635 379.301 141.702 379.669 141.807C380.037 141.91 380.339 142.068 380.575 142.263C380.811 142.459 380.984 142.699 381.095 142.976C381.206 143.254 381.261 143.566 381.261 143.914C381.261 144.244 381.212 144.561 381.111 144.857L381.113 144.853Z" fill="#E2E2E2"/>
</g>
<path d="M293.404 75.2891H281.902V266.978H293.404V75.2891Z" fill="#E2E2E2"/>
<path d="M286.16 183.636C322.289 183.636 351.577 154.347 351.577 118.218C351.577 82.0892 322.289 52.8008 286.16 52.8008C250.031 52.8008 220.742 82.0892 220.742 118.218C220.742 154.347 250.031 183.636 286.16 183.636Z" fill="url(#paint1_linear_1931_8023)"/>
<g style="mix-blend-mode:soft-light" opacity="0.5">
<path d="M286.16 170.685C315.137 170.685 338.627 147.195 338.627 118.219C338.627 89.2421 315.137 65.752 286.16 65.752C257.184 65.752 233.693 89.2421 233.693 118.219C233.693 147.195 257.184 170.685 286.16 170.685Z" fill="black"/>
</g>
<g style="mix-blend-mode:soft-light" opacity="0.5">
<path d="M237.594 121.145C237.594 92.1652 261.081 68.6779 290.061 68.6779C300.909 68.6779 310.99 71.9715 319.36 77.6155C310.318 70.2048 298.758 65.752 286.151 65.752C257.172 65.752 233.685 89.2392 233.685 118.219C233.685 134.631 241.223 149.277 253.023 158.894C247.786 153.57 243.677 147.134 241.087 139.971C238.841 134.127 237.594 127.788 237.594 121.153V121.145Z" fill="black"/>
</g>
<g filter="url(#filter1_d_1931_8023)">
<path d="M301.846 118.82C303.765 118.165 305.412 117.357 306.803 116.414C308.186 115.471 309.337 114.415 310.24 113.256C311.144 112.097 311.807 110.85 312.239 109.523C312.663 108.196 312.878 106.797 312.878 105.342C312.878 102.792 312.447 100.505 311.591 98.4748C310.736 96.4442 309.385 94.7094 307.538 93.2864C305.692 91.8554 303.229 90.7523 300.351 89.9848C298.657 89.5291 297.122 89.2094 294.532 89.0255V79.4883H289.351V88.9855H280.717V79.4883H274.674V88.9855H261.715V93.87C261.715 95.357 262.642 96.2444 264.081 96.5561C264.209 96.5801 264.497 96.6121 264.729 96.6521C264.961 96.692 265.432 96.772 266.048 96.8839C266.663 96.9958 267.767 97.1477 268.63 97.3316V142.364C267.767 142.555 266.727 142.699 266.104 142.811C265.488 142.923 265.064 142.995 264.833 143.043C264.601 143.083 264.209 143.115 264.081 143.139C262.65 143.443 261.723 144.338 261.723 145.825V151.165H274.682V158.936H280.725V151.165H289.359V158.936H294.54V150.774C297.13 150.598 299.496 150.174 301.582 149.495C304.389 148.583 306.795 147.312 308.713 145.697C310.632 144.082 312.119 142.156 313.118 139.925C314.118 137.695 314.637 135.265 314.637 132.626C314.637 125.336 310.384 120.723 301.862 118.812L301.846 118.82ZM301.375 106.717C301.375 109.835 300.359 112.145 298.329 113.576C296.298 115.007 293.324 115.758 289.407 115.758H279.846V97.6194H290.055C293.948 97.6194 296.802 98.3708 298.641 99.7459C300.471 101.121 301.391 103.487 301.391 106.717H301.375ZM302.638 136.024C302.254 137.167 301.623 138.167 300.751 139.03C299.88 139.885 298.721 140.477 297.274 140.997C295.827 141.508 294.036 141.676 291.885 141.676H279.83V123.537H291.837C293.868 123.537 295.595 123.801 297.026 124.208C298.457 124.608 299.624 125.224 300.543 125.983C301.463 126.743 302.134 127.678 302.558 128.749C302.99 129.82 303.205 131.036 303.205 132.387C303.205 133.674 303.014 134.897 302.622 136.04L302.638 136.024Z" fill="#E2E2E2"/>
</g>
<path d="M142.262 82.5664C142.267 83.3697 142.262 84.3912 142.23 85.5776L140.155 86.4767C141.044 84.886 141.757 83.5453 142.257 82.5664H142.262Z" fill="#1B1B1B"/>
<path d="M139.619 87.437L142.215 86.3145C142.172 87.5328 142.103 88.8947 141.991 90.3631L136.001 93.4328C137.39 91.2569 138.608 89.2139 139.619 87.437Z" fill="#1B1B1B"/>
<path d="M135.276 94.5494L141.926 91.1445C141.745 93.2726 141.479 95.5922 141.08 97.9703L131.615 99.8643C132.935 98.0607 134.153 96.2732 135.276 94.5548V94.5494Z" fill="#1B1B1B"/>
<path d="M141.814 81.2631C141.325 82.242 140.441 83.9498 139.212 86.1311L138.303 82.1197C139.441 81.8111 140.612 81.5238 141.814 81.2578V81.2631Z" fill="#1B1B1B"/>
<path d="M131.043 100.654L140.97 98.6699C140.667 100.367 140.3 102.085 139.848 103.777L126.861 105.905C128.096 104.458 130.804 100.968 131.043 100.649V100.654Z" fill="#1B1B1B"/>
<path d="M126.186 106.692L139.657 104.484C139.13 106.362 138.497 108.203 137.742 109.943L121.51 111.592C123.164 110.012 124.723 108.363 126.186 106.692Z" fill="#1B1B1B"/>
<path d="M137.667 82.291L138.731 86.9834C137.672 88.8401 136.395 90.9735 134.927 93.2559L133.57 83.5891C134.879 83.1263 136.246 82.69 137.667 82.291Z" fill="#1B1B1B"/>
<path d="M120.709 112.338L137.425 110.641C136.329 113.024 134.988 115.195 133.344 116.988L115.745 116.424C117.469 115.179 119.123 113.801 120.703 112.338H120.709Z" fill="#1B1B1B"/>
<path d="M132.929 83.8223L134.376 94.1114C133.253 95.8245 132.03 97.6121 130.716 99.4103L127.641 86.0993C129.295 85.2693 131.056 84.5139 132.929 83.8223Z" fill="#1B1B1B"/>
<path d="M114.848 117.057L132.729 117.631C132.011 118.339 131.239 118.983 130.415 119.536C125.43 122.877 118.918 122.818 111.055 119.36C112.347 118.679 113.614 117.903 114.848 117.057Z" fill="#1B1B1B"/>
<path d="M121.916 89.5625L125.364 106.119C123.853 107.837 122.236 109.545 120.522 111.157L117.671 93.2281C118.942 91.9193 120.358 90.701 121.916 89.5678V89.5625Z" fill="#1B1B1B"/>
<path d="M117.091 93.832L119.932 111.702C118.278 113.224 116.543 114.65 114.734 115.921L112.809 99.9023C113.107 99.3331 113.426 98.7638 113.777 98.1946C114.729 96.6517 115.836 95.194 117.086 93.832H117.091Z" fill="#1B1B1B"/>
<path d="M112.278 100.998L114.124 116.347C112.831 117.225 111.501 118.028 110.139 118.719C109.74 116.778 108.522 109.069 112.278 100.998Z" fill="#1B1B1B"/>
<path d="M127.032 86.4141L130.203 100.119C129.979 100.417 127.207 103.992 125.915 105.497L122.51 89.1486C123.914 88.1697 125.425 87.26 127.037 86.4194L127.032 86.4141Z" fill="#1B1B1B"/>
<path d="M156.453 110.777C156.448 111.544 156.453 112.515 156.483 113.648L158.46 114.506C157.615 112.99 156.936 111.714 156.457 110.782L156.453 110.777Z" fill="#E2E2E2"/>
<path d="M158.969 115.411L156.5 114.344C156.539 115.502 156.605 116.805 156.713 118.198L162.419 121.121C161.099 119.048 159.936 117.105 158.969 115.411Z" fill="#E2E2E2"/>
<path d="M163.104 122.182L156.767 118.938C156.936 120.967 157.193 123.175 157.572 125.44L166.588 127.243C165.334 125.523 164.171 123.82 163.104 122.182Z" fill="#E2E2E2"/>
<path d="M156.879 109.527C157.345 110.459 158.186 112.088 159.357 114.166L160.224 110.346C159.139 110.054 158.024 109.78 156.879 109.527Z" fill="#E2E2E2"/>
<path d="M167.146 127.998L157.69 126.107C157.978 127.723 158.331 129.361 158.758 130.972L171.127 133.002C169.951 131.626 167.368 128.298 167.146 127.998Z" fill="#E2E2E2"/>
<path d="M171.77 133.752L158.939 131.648C159.44 133.438 160.041 135.189 160.764 136.849L176.226 138.421C174.654 136.918 173.168 135.342 171.775 133.752H171.77Z" fill="#E2E2E2"/>
<path d="M160.831 110.512L159.816 114.98C160.822 116.749 162.042 118.783 163.44 120.956L164.734 111.749C163.484 111.304 162.181 110.891 160.836 110.512H160.831Z" fill="#E2E2E2"/>
<path d="M176.985 139.132L161.062 137.512C162.102 139.781 163.383 141.85 164.951 143.557L181.715 143.021C180.073 141.837 178.496 140.521 176.989 139.132H176.985Z" fill="#E2E2E2"/>
<path d="M165.343 111.967L163.967 121.766C165.034 123.4 166.201 125.103 167.451 126.814L170.382 114.136C168.81 113.347 167.129 112.624 165.343 111.967Z" fill="#E2E2E2"/>
<path d="M182.566 143.625L165.537 144.174C166.221 144.849 166.957 145.459 167.741 145.99C172.493 149.174 178.69 149.117 186.181 145.824C184.949 145.175 183.742 144.435 182.566 143.629V143.625Z" fill="#E2E2E2"/>
<path d="M175.834 117.434L172.55 133.204C173.987 134.842 175.529 136.466 177.162 138L179.876 120.922C178.665 119.672 177.315 118.514 175.834 117.434Z" fill="#E2E2E2"/>
<path d="M180.423 121.5L177.719 138.521C179.291 139.967 180.95 141.326 182.666 142.541L184.5 127.284C184.217 126.744 183.912 126.199 183.577 125.655C182.671 124.187 181.617 122.798 180.423 121.5Z" fill="#E2E2E2"/>
<path d="M185.015 128.326L183.26 142.947C184.492 143.783 185.76 144.545 187.053 145.207C187.437 143.361 188.595 136.013 185.015 128.326Z" fill="#E2E2E2"/>
<path d="M170.962 114.432L167.943 127.485C168.157 127.768 170.796 131.174 172.029 132.606L175.273 117.032C173.936 116.1 172.499 115.233 170.962 114.432Z" fill="#E2E2E2"/>
<path d="M189.168 103.63C204.248 103.63 216.473 91.4054 216.473 76.325C216.473 61.2446 204.248 49.0195 189.168 49.0195C174.087 49.0195 161.862 61.2446 161.862 76.325C161.862 91.4054 174.087 103.63 189.168 103.63Z" fill="url(#paint2_linear_1931_8023)"/>
<g style="mix-blend-mode:soft-light" opacity="0.5">
<path d="M189.168 98.2203C201.262 98.2203 211.066 88.4162 211.066 76.3221C211.066 64.228 201.262 54.4238 189.168 54.4238C177.074 54.4238 167.27 64.228 167.27 76.3221C167.27 88.4162 177.074 98.2203 189.168 98.2203Z" fill="black"/>
</g>
<g style="mix-blend-mode:soft-light" opacity="0.5">
<path d="M168.9 77.5475C168.9 65.4498 178.706 55.6493 190.799 55.6493C195.329 55.6493 199.536 57.0255 203.029 59.3814C199.252 56.2909 194.428 54.4297 189.168 54.4297C177.07 54.4297 167.27 64.2352 167.27 76.3279C167.27 83.1751 170.414 89.2925 175.341 93.3088C173.157 91.0851 171.442 88.4011 170.36 85.4085C169.42 82.9694 168.9 80.3246 168.9 77.5524V77.5475Z" fill="black"/>
</g>
<g filter="url(#filter2_d_1931_8023)">
<path d="M195.722 76.5807C196.521 76.3064 197.211 75.9733 197.789 75.5766C198.367 75.1848 198.847 74.744 199.224 74.2591C199.601 73.7742 199.876 73.255 200.057 72.7016C200.233 72.1481 200.326 71.5653 200.326 70.953C200.326 69.8902 200.145 68.9351 199.788 68.0878C199.43 67.2405 198.867 66.5156 198.093 65.923C197.324 65.3254 196.295 64.865 195.095 64.5418C194.385 64.3508 193.749 64.2185 192.666 64.1401V60.1582H190.501V64.1255H186.896V60.1582H184.374V64.1255H178.967V66.163C178.967 66.7801 179.354 67.1572 179.951 67.2846C180.005 67.2944 180.123 67.3091 180.221 67.3237C180.319 67.3433 180.515 67.3727 180.774 67.4217C181.034 67.4658 181.489 67.5295 181.852 67.6078V86.4057C181.489 86.4841 181.058 86.5478 180.799 86.5919C180.539 86.6359 180.363 86.6702 180.27 86.6898C180.172 86.7094 180.01 86.7192 179.956 86.729C179.359 86.8563 178.972 87.2286 178.972 87.8506V90.0791H184.379V93.3215H186.901V90.0791H190.506V93.3215H192.671V89.9126C193.753 89.8391 194.738 89.6628 195.615 89.3787C196.785 88.9967 197.789 88.4677 198.592 87.7918C199.391 87.1159 200.013 86.3127 200.429 85.3821C200.845 84.4515 201.061 83.4376 201.061 82.3356C201.061 79.2892 199.288 77.3692 195.727 76.5709L195.722 76.5807ZM195.526 71.531C195.526 72.8338 195.1 73.7987 194.253 74.3962C193.406 74.9938 192.162 75.3072 190.526 75.3072H186.534V67.7352H190.795C192.421 67.7352 193.611 68.0486 194.375 68.6217C195.14 69.1947 195.522 70.1841 195.522 71.531H195.526ZM196.055 83.7658C195.894 84.2458 195.634 84.6621 195.267 85.0197C194.904 85.3772 194.42 85.627 193.817 85.8425C193.215 86.058 192.465 86.1266 191.569 86.1266H186.539V78.5545H191.549C192.397 78.5545 193.117 78.6671 193.714 78.8337C194.312 79.0002 194.802 79.2549 195.184 79.5733C195.566 79.8916 195.845 80.2785 196.026 80.7242C196.207 81.17 196.295 81.6793 196.295 82.2426C196.295 82.7813 196.212 83.2907 196.05 83.7707L196.055 83.7658Z" fill="#E2E2E2"/>
</g>
<path d="M273.717 222.939H162.413V247.535H273.717V222.939Z" fill="#FFC800"/>
<g opacity="0.1">
<path d="M167.001 225.189C167.537 231.72 167.537 238.337 167.001 244.868C166.465 238.337 166.465 231.72 167.001 225.189Z" fill="black"/>
<path d="M175.294 225.189C175.83 231.72 175.83 238.337 175.294 244.868C174.758 238.337 174.758 231.72 175.294 225.189Z" fill="black"/>
<path d="M179.342 225.189C179.878 231.72 179.878 238.337 179.342 244.868C178.806 238.337 178.806 231.72 179.342 225.189Z" fill="black"/>
<path d="M201.569 225.189C202.105 231.72 202.105 238.337 201.569 244.868C201.033 238.337 201.033 231.72 201.569 225.189Z" fill="black"/>
<path d="M207.583 225.189C208.119 231.72 208.119 238.337 207.583 244.868C207.047 238.337 207.047 231.72 207.583 225.189Z" fill="black"/>
<path d="M232.45 225.189C232.986 231.72 232.986 238.337 232.45 244.868C231.914 238.337 231.914 231.72 232.45 225.189Z" fill="black"/>
<path d="M238.191 225.189C238.727 231.72 238.727 238.337 238.191 244.868C237.655 238.337 237.655 231.72 238.191 225.189Z" fill="black"/>
<path d="M248.747 225.189C249.283 231.72 249.283 238.337 248.747 244.868C248.211 238.337 248.211 231.72 248.747 225.189Z" fill="black"/>
<path d="M227.645 225.189C228.181 231.72 228.181 238.337 227.645 244.868C227.109 238.337 227.109 231.72 227.645 225.189Z" fill="black"/>
<path d="M186.685 225.189C187.221 231.72 187.221 238.337 186.685 244.868C186.149 238.337 186.149 231.72 186.685 225.189Z" fill="black"/>
<path d="M215.497 225.189C216.033 231.72 216.033 238.337 215.497 244.868C214.961 238.337 214.961 231.72 215.497 225.189Z" fill="black"/>
<path d="M219.636 225.189C220.172 231.72 220.172 238.337 219.636 244.868C219.1 238.337 219.1 231.72 219.636 225.189Z" fill="black"/>
<path d="M262.498 225.189C263.034 231.72 263.034 238.337 262.498 244.868C261.962 238.337 261.962 231.72 262.498 225.189Z" fill="black"/>
<path d="M268.712 225.189C269.248 231.72 269.248 238.337 268.712 244.868C268.176 238.337 268.176 231.72 268.712 225.189Z" fill="black"/>
<path d="M253.645 225.189C254.181 231.72 254.181 238.337 253.645 244.868C253.109 238.337 253.109 231.72 253.645 225.189Z" fill="black"/>
<path d="M196.766 225.189C197.302 231.72 197.302 238.337 196.766 244.868C196.23 238.337 196.23 231.72 196.766 225.189Z" fill="black"/>
</g>
<path opacity="0.1" d="M273.712 222.939V228.167L162.408 231.674V222.939H273.712Z" fill="black"/>
<path d="M267.22 198.334H155.917V222.929H267.22V198.334Z" fill="#FFC800"/>
<g opacity="0.1">
<path d="M160.501 200.584C161.037 207.115 161.037 213.732 160.501 220.263C159.965 213.732 159.965 207.115 160.501 200.584Z" fill="black"/>
<path d="M168.792 200.584C169.328 207.115 169.328 213.732 168.792 220.263C168.256 213.732 168.256 207.115 168.792 200.584Z" fill="black"/>
<path d="M172.842 200.584C173.378 207.115 173.378 213.732 172.842 220.263C172.306 213.732 172.306 207.115 172.842 200.584Z" fill="black"/>
<path d="M195.073 200.584C195.609 207.115 195.609 213.732 195.073 220.263C194.537 213.732 194.537 207.115 195.073 200.584Z" fill="black"/>
<path d="M201.089 200.584C201.624 207.115 201.624 213.732 201.089 220.263C200.553 213.732 200.553 207.115 201.089 200.584Z" fill="black"/>
<path d="M225.955 200.584C226.491 207.115 226.491 213.732 225.955 220.263C225.419 213.732 225.419 207.115 225.955 200.584Z" fill="black"/>
<path d="M231.698 200.584C232.234 207.115 232.234 213.732 231.698 220.263C231.162 213.732 231.162 207.115 231.698 200.584Z" fill="black"/>
<path d="M242.248 200.584C242.784 207.115 242.784 213.732 242.248 220.263C241.712 213.732 241.712 207.115 242.248 200.584Z" fill="black"/>
<path d="M221.152 200.584C221.688 207.115 221.688 213.732 221.152 220.263C220.616 213.732 220.616 207.115 221.152 200.584Z" fill="black"/>
<path d="M180.185 200.584C180.721 207.115 180.721 213.732 180.185 220.263C179.649 213.732 179.649 207.115 180.185 200.584Z" fill="black"/>
<path d="M208.997 200.584C209.533 207.115 209.533 213.732 208.997 220.263C208.461 213.732 208.461 207.115 208.997 200.584Z" fill="black"/>
<path d="M213.145 200.584C213.681 207.115 213.681 213.732 213.145 220.263C212.609 213.732 212.609 207.115 213.145 200.584Z" fill="black"/>
<path d="M255.998 200.584C256.534 207.115 256.534 213.732 255.998 220.263C255.462 213.732 255.462 207.115 255.998 200.584Z" fill="black"/>
<path d="M262.216 200.584C262.752 207.115 262.752 213.732 262.216 220.263C261.68 213.732 261.68 207.115 262.216 200.584Z" fill="black"/>
<path d="M247.142 200.584C247.678 207.115 247.678 213.732 247.142 220.263C246.606 213.732 246.606 207.115 247.142 200.584Z" fill="black"/>
<path d="M190.271 200.584C190.807 207.115 190.807 213.732 190.271 220.263C189.735 213.732 189.735 207.115 190.271 200.584Z" fill="black"/>
</g>
<path opacity="0.1" d="M267.214 198.334V203.561L155.917 207.075V198.334H267.214Z" fill="black"/>
<path d="M365.226 207.146H253.923V231.742H365.226V207.146Z" fill="#FFC800"/>
<g opacity="0.1">
<path d="M258.505 209.396C259.041 215.927 259.041 222.544 258.505 229.075C257.97 222.544 257.97 215.927 258.505 209.396Z" fill="black"/>
<path d="M266.797 209.396C267.332 215.927 267.332 222.544 266.797 229.075C266.261 222.544 266.261 215.927 266.797 209.396Z" fill="black"/>
<path d="M270.847 209.396C271.383 215.927 271.383 222.544 270.847 229.075C270.311 222.544 270.311 215.927 270.847 209.396Z" fill="black"/>
<path d="M293.074 209.396C293.61 215.927 293.61 222.544 293.074 229.075C292.538 222.544 292.538 215.927 293.074 209.396Z" fill="black"/>
<path d="M299.088 209.396C299.623 215.927 299.623 222.544 299.088 229.075C298.552 222.544 298.552 215.927 299.088 209.396Z" fill="black"/>
<path d="M323.955 209.396C324.491 215.927 324.491 222.544 323.955 229.075C323.419 222.544 323.419 215.927 323.955 209.396Z" fill="black"/>
<path d="M329.703 209.396C330.239 215.927 330.239 222.544 329.703 229.075C329.167 222.544 329.167 215.927 329.703 209.396Z" fill="black"/>
<path d="M340.253 209.396C340.789 215.927 340.789 222.544 340.253 229.075C339.717 222.544 339.717 215.927 340.253 209.396Z" fill="black"/>
<path d="M319.15 209.396C319.686 215.927 319.686 222.544 319.15 229.075C318.614 222.544 318.614 215.927 319.15 209.396Z" fill="black"/>
<path d="M278.19 209.396C278.726 215.927 278.726 222.544 278.19 229.075C277.654 222.544 277.654 215.927 278.19 209.396Z" fill="black"/>
<path d="M307.002 209.396C307.538 215.927 307.538 222.544 307.002 229.075C306.466 222.544 306.466 215.927 307.002 209.396Z" fill="black"/>
<path d="M311.141 209.396C311.677 215.927 311.677 222.544 311.141 229.075C310.605 222.544 310.605 215.927 311.141 209.396Z" fill="black"/>
<path d="M354.003 209.396C354.539 215.927 354.539 222.544 354.003 229.075C353.467 222.544 353.467 215.927 354.003 209.396Z" fill="black"/>
<path d="M360.221 209.396C360.757 215.927 360.757 222.544 360.221 229.075C359.685 222.544 359.685 215.927 360.221 209.396Z" fill="black"/>
<path d="M345.147 209.396C345.683 215.927 345.683 222.544 345.147 229.075C344.611 222.544 344.611 215.927 345.147 209.396Z" fill="black"/>
<path d="M288.276 209.396C288.812 215.927 288.812 222.544 288.276 229.075C287.74 222.544 287.74 215.927 288.276 209.396Z" fill="black"/>
</g>
<path opacity="0.1" d="M365.22 207.146V212.374L253.923 215.881V207.146H365.22Z" fill="black"/>
<path d="M369.032 231.738H257.729V256.333H369.032V231.738Z" fill="#FFC800"/>
<g opacity="0.1">
<path d="M364.025 253.663C363.489 247.132 363.489 240.515 364.025 233.984C364.561 240.515 364.561 247.132 364.025 253.663Z" fill="black"/>
<path d="M355.737 253.663C355.201 247.132 355.201 240.515 355.737 233.984C356.273 240.515 356.273 247.132 355.737 253.663Z" fill="black"/>
<path d="M351.691 253.663C351.155 247.132 351.155 240.515 351.691 233.984C352.227 240.515 352.227 247.132 351.691 253.663Z" fill="black"/>
<path d="M329.455 253.663C328.919 247.132 328.919 240.515 329.455 233.984C329.991 240.515 329.991 247.132 329.455 253.663Z" fill="black"/>
<path d="M323.442 253.663C322.906 247.132 322.906 240.515 323.442 233.984C323.978 240.515 323.978 247.132 323.442 253.663Z" fill="black"/>
<path d="M298.575 253.663C298.039 247.132 298.039 240.515 298.575 233.984C299.111 240.515 299.111 247.132 298.575 253.663Z" fill="black"/>
<path d="M292.832 253.663C292.296 247.132 292.296 240.515 292.832 233.984C293.368 240.515 293.368 247.132 292.832 253.663Z" fill="black"/>
<path d="M282.283 253.663C281.747 247.132 281.747 240.515 282.283 233.984C282.819 240.515 282.819 247.132 282.283 253.663Z" fill="black"/>
<path d="M303.379 253.663C302.843 247.132 302.843 240.515 303.379 233.984C303.915 240.515 303.915 247.132 303.379 253.663Z" fill="black"/>
<path d="M344.338 253.663C343.802 247.132 343.802 240.515 344.338 233.984C344.873 240.515 344.873 247.132 344.338 253.663Z" fill="black"/>
<path d="M315.536 253.663C315 247.132 315 240.515 315.536 233.984C316.072 240.515 316.072 247.132 315.536 253.663Z" fill="black"/>
<path d="M311.385 253.663C310.849 247.132 310.849 240.515 311.385 233.984C311.921 240.515 311.921 247.132 311.385 253.663Z" fill="black"/>
<path d="M268.529 253.663C267.993 247.132 267.993 240.515 268.529 233.984C269.065 240.515 269.065 247.132 268.529 253.663Z" fill="black"/>
<path d="M262.314 253.663C261.778 247.132 261.778 240.515 262.314 233.984C262.85 240.515 262.85 247.132 262.314 253.663Z" fill="black"/>
<path d="M277.38 253.663C276.845 247.132 276.845 240.515 277.38 233.984C277.916 240.515 277.916 247.132 277.38 253.663Z" fill="black"/>
<path d="M334.26 253.663C333.724 247.132 333.724 240.515 334.26 233.984C334.796 240.515 334.796 247.132 334.26 253.663Z" fill="black"/>
</g>
<path opacity="0.1" d="M369.027 231.738V236.966L257.724 240.473V231.738H369.027Z" fill="black"/>
</g>
<defs>
<filter id="filter0_d_1931_8023" x="370.354" y="130.072" width="14.4626" height="21.3063" filterUnits="userSpaceOnUse" color-interpolation-filters="sRGB">
<feFlood flood-opacity="0" result="BackgroundImageFix"/>
<feColorMatrix in="SourceAlpha" type="matrix" values="0 0 0 0 0 0 0 0 0 0 0 0 0 0 0 0 0 0 127 0" result="hardAlpha"/>
<feOffset dx="0.205488" dy="0.205488"/>
<feGaussianBlur stdDeviation="0.205488"/>
<feColorMatrix type="matrix" values="0 0 0 0 0 0 0 0 0 0 0 0 0 0 0 0 0 0 1 0"/>
<feBlend mode="normal" in2="BackgroundImageFix" result="effect1_dropShadow_1931_8023"/>
<feBlend mode="normal" in="SourceGraphic" in2="effect1_dropShadow_1931_8023" result="shape"/>
</filter>
<filter id="filter1_d_1931_8023" x="260.915" y="78.6888" width="56.1206" height="82.645" filterUnits="userSpaceOnUse" color-interpolation-filters="sRGB">
<feFlood flood-opacity="0" result="BackgroundImageFix"/>
<feColorMatrix in="SourceAlpha" type="matrix" values="0 0 0 0 0 0 0 0 0 0 0 0 0 0 0 0 0 0 127 0" result="hardAlpha"/>
<feOffset dx="0.799432" dy="0.799432"/>
<feGaussianBlur stdDeviation="0.799432"/>
<feColorMatrix type="matrix" values="0 0 0 0 0 0 0 0 0 0 0 0 0 0 0 0 0 0 1 0"/>
<feBlend mode="normal" in2="BackgroundImageFix" result="effect1_dropShadow_1931_8023"/>
<feBlend mode="normal" in="SourceGraphic" in2="effect1_dropShadow_1931_8023" result="shape"/>
</filter>
<filter id="filter2_d_1931_8023" x="178.477" y="59.6684" width="24.0529" height="35.1232" filterUnits="userSpaceOnUse" color-interpolation-filters="sRGB">
<feFlood flood-opacity="0" result="BackgroundImageFix"/>
<feColorMatrix in="SourceAlpha" type="matrix" values="0 0 0 0 0 0 0 0 0 0 0 0 0 0 0 0 0 0 127 0" result="hardAlpha"/>
<feOffset dx="0.489784" dy="0.489784"/>
<feGaussianBlur stdDeviation="0.489784"/>
<feColorMatrix type="matrix" values="0 0 0 0 0 0 0 0 0 0 0 0 0 0 0 0 0 0 1 0"/>
<feBlend mode="normal" in2="BackgroundImageFix" result="effect1_dropShadow_1931_8023"/>
<feBlend mode="normal" in="SourceGraphic" in2="effect1_dropShadow_1931_8023" result="shape"/>
</filter>
<linearGradient id="paint0_linear_1931_8023" x1="359.999" y1="140.257" x2="393.728" y2="140.257" gradientUnits="userSpaceOnUse">
<stop offset="0.03" stop-color="#FFD01F"/>
<stop offset="1" stop-color="#E7A655"/>
</linearGradient>
<linearGradient id="paint1_linear_1931_8023" x1="220.734" y1="118.218" x2="351.577" y2="118.218" gradientUnits="userSpaceOnUse">
<stop offset="0.03" stop-color="#FFD01F"/>
<stop offset="1" stop-color="#E7A655"/>
</linearGradient>
<linearGradient id="paint2_linear_1931_8023" x1="161.862" y1="76.325" x2="216.473" y2="76.325" gradientUnits="userSpaceOnUse">
<stop offset="0.03" stop-color="#FFD01F"/>
<stop offset="1" stop-color="#E7A655"/>
</linearGradient>
<clipPath id="clip0_1931_8023">
<path d="M0 16.1152C0 7.27868 7.16344 0.115234 16 0.115234H578C586.837 0.115234 594 7.27868 594 16.1152V240.115H0V16.1152Z" fill="white"/>
</clipPath>
</defs>
</svg>
