<svg width="200" height="200" viewBox="0 0 200 200" fill="none" xmlns="http://www.w3.org/2000/svg">
<mask id="mask0_36_104" style="mask-type:luminance" maskUnits="userSpaceOnUse" x="0" y="0" width="200" height="200">
<path d="M200 0H0V200H200V0Z" fill="white"/>
</mask>
<g mask="url(#mask0_36_104)">
<path d="M199.944 94.7773H0V104.705H199.944V94.7773Z" fill="#0A0A0A"/>
<path d="M100 199.982C155.228 199.982 200 157.209 200 104.446C200 51.6831 155.228 8.91113 100 8.91113C44.772 8.91113 0 51.6831 0 104.446C0 157.209 44.772 199.982 100 199.982Z" fill="#BB7826"/>
<path d="M100 191.071C155.228 191.071 200 148.299 200 95.536C200 42.773 155.228 0 100 0C44.772 0 0 42.773 0 95.536C0 148.299 44.772 191.071 100 191.071Z" fill="#EB9B0B"/>
<path opacity="0.5" d="M99.9717 121.393C150.323 121.393 194.393 95.788 194.393 64.732C183.178 32.589 150.468 0.446 99.9717 0C78.0847 0 62.1498 5.80399 46.2618 14.732C27.5708 27.232 14.9538 41.071 7.00977 60.714C7.00977 91.77 49.6207 121.393 99.9717 121.393Z" fill="white"/>
<path d="M181.254 96.9867C181.513 54.0867 145.32 19.1087 100.416 18.8617C55.511 18.6147 18.899 53.1917 18.64 96.0917C18.382 138.992 54.574 173.969 99.479 174.216C144.384 174.464 180.996 139.887 181.254 96.9867Z" fill="#EE972C" stroke="#905C1D" stroke-width="4.46889" stroke-miterlimit="10"/>
<path d="M127.399 96.2484C129.044 96.4054 130.676 96.7054 132.275 97.1444C137.891 98.7504 141.539 102.378 143.183 108.019C144.456 112.18 144.721 116.567 143.954 120.809C142.979 125.946 140.075 129.725 135.796 132.487C132.25 134.778 128.322 136.176 124.268 137.267C122.794 137.669 121.305 138.012 119.812 138.335C119.328 138.436 119.253 138.64 119.337 139.116C120.172 143.936 120.964 148.764 121.811 153.585C121.93 154.266 121.799 154.451 121.114 154.54C118.411 154.896 115.71 155.319 113.018 155.75C112.528 155.838 112.424 155.732 112.342 155.261C111.545 150.457 110.713 145.656 109.92 140.85C109.828 140.308 109.695 140.122 109.118 140.215C107.028 140.537 104.933 140.829 102.832 141.092C102.295 141.157 102.215 141.352 102.3 141.854C103.136 146.674 103.934 151.505 104.774 156.323C104.865 156.865 104.762 157.005 104.233 157.089C101.493 157.477 98.7517 157.893 96.0107 158.336C95.5167 158.415 95.3717 158.25 95.2877 157.775C94.4817 152.926 93.6357 148.083 92.8327 143.216C92.7307 142.587 92.5337 142.45 91.9217 142.525C85.9717 143.421 80.0617 144.3 74.1297 145.189C73.7087 145.254 73.5517 145.207 73.5537 144.722C73.5477 141.14 73.5267 137.564 73.4877 133.996C73.4817 133.541 73.6867 133.466 74.0677 133.418C76.1207 133.133 78.1767 132.868 80.2107 132.505C82.7507 132.052 83.7197 130.552 83.2847 127.982C81.9397 120.05 80.5977 112.119 79.2597 104.187C78.2427 98.1644 77.2247 92.1404 76.2077 86.1174C75.7927 83.6794 73.7347 82.0304 71.1277 82.0974C69.1317 82.2274 67.1487 82.4874 65.1907 82.8754C64.6067 82.9654 64.0227 83.0454 63.4477 83.1694C63.1337 83.2374 63.0447 83.1404 62.9877 82.8254C62.4647 79.6964 61.9427 76.5664 61.3887 73.4394C61.2857 72.8804 61.6557 72.9184 61.9577 72.8714C64.3047 72.5114 66.6527 72.1764 69.0027 71.8094C72.5517 71.2484 76.1277 70.8214 79.6697 70.1934C80.2537 70.0924 80.4257 69.9394 80.3167 69.3074C79.4797 64.5574 78.6827 59.7794 77.8557 55.0524C77.7517 54.4564 77.8457 54.2344 78.4687 54.1494C81.1727 53.7834 83.8727 53.3704 86.5627 52.9344C87.1317 52.8454 87.2677 53.0254 87.3617 53.5604C88.1387 58.2714 88.9517 62.9774 89.7337 67.6854C89.8187 68.1874 89.9207 68.3004 90.4417 68.2104C92.5177 67.8344 94.6087 67.4904 96.6997 67.1844C97.3027 67.1014 97.3787 66.8604 97.2867 66.3184C96.4877 61.7294 95.7197 57.1394 94.9157 52.5524C94.8067 51.9214 94.8747 51.6504 95.5947 51.5564C98.2737 51.2064 100.95 50.7874 103.616 50.3574C104.139 50.2714 104.301 50.3904 104.391 50.9284C105.188 55.7324 106.03 60.5284 106.811 65.3344C106.913 65.9474 107.122 66.0524 107.687 66.0404C111.519 65.7384 115.386 65.9564 119.183 66.6874C122.779 67.4454 126.085 68.8264 128.728 71.5454C131.602 74.5324 132.883 78.2194 133.374 82.2164C134.075 87.8754 132.209 92.4264 127.775 95.8704C127.617 95.9684 127.532 96.0794 127.399 96.2484ZM117.258 125.905L117.839 125.66C119.9 124.71 121.855 123.611 123.356 121.865C127.146 117.449 125.357 110.482 119.834 108.112C116.598 106.734 113.25 106.587 109.866 106.712C105.703 106.855 101.599 107.661 97.4867 108.314C96.8897 108.41 96.8617 108.626 96.9507 109.137C98.0917 115.75 99.2127 122.364 100.314 128.98C100.402 129.513 100.6 129.569 101.064 129.492C102.827 129.21 104.599 128.985 106.365 128.708C110.09 128.176 113.737 127.23 117.239 125.886L117.258 125.905ZM108.81 95.8074C109.967 95.3444 111.07 94.7594 112.102 94.0644C114.807 92.1704 116.253 89.6254 115.797 86.1984C115.342 82.7724 113.439 80.3104 110.094 79.1074C108.335 78.5054 106.498 78.1904 104.653 78.1764C100.501 78.0614 96.4547 78.8314 92.3997 79.5414C91.9077 79.6254 91.9937 79.9224 92.0537 80.2684C92.4657 82.6904 92.8737 85.1144 93.2787 87.5434C93.8717 91.0564 94.4837 94.6004 95.0587 98.1324C95.1397 98.6364 95.3017 98.8044 95.8357 98.7084C96.8517 98.5164 97.8817 98.4204 98.9067 98.2624C102.268 97.7054 105.627 97.1064 108.791 95.7884L108.81 95.8074Z" fill="white"/>
</g>
</svg>
