<svg width="1272" height="358" viewBox="0 0 1272 358" fill="none" xmlns="http://www.w3.org/2000/svg">
<g clip-path="url(#clip0_1_6942)">
<path d="M811.495 212.398C833.377 288.795 789.121 368.529 712.64 390.483C636.188 412.426 556.45 368.284 534.578 291.887C512.683 215.487 556.937 135.749 633.396 113.802C709.871 91.8457 789.61 135.997 811.495 212.398Z" fill="#F7931A"/>
<path d="M718.134 193.45C711.043 175.431 693.251 173.815 672.528 177.849L665.165 152.144L649.504 156.642L656.673 181.669C652.556 182.852 648.371 184.141 644.214 185.425L637 160.231L621.347 164.724L628.701 190.423C625.33 191.466 622.019 192.485 618.772 193.419L618.747 193.34L597.144 199.534L601.935 216.243C601.935 216.243 613.437 212.703 613.306 212.971C619.65 211.151 622.768 214.238 624.278 217.241L632.667 246.523C633.105 246.4 633.682 246.254 634.354 246.157C633.832 246.308 633.272 246.464 632.7 246.634L644.445 287.658C644.738 289.733 644.475 293.25 640.046 294.53C640.297 294.649 628.66 297.795 628.66 297.795L630.9 317.374L651.281 311.522C655.075 310.438 658.825 309.431 662.496 308.402L669.948 334.398L685.594 329.909L678.226 304.187C682.547 303.042 686.714 301.883 690.771 300.714L698.098 326.32L713.759 321.823L706.331 295.87C732.229 286.802 748.759 274.885 743.973 249.526C740.123 229.105 728.216 222.919 712.242 223.624C719.999 216.398 723.345 206.629 718.134 193.45ZM712.144 255.329C717.717 274.754 683.786 282.104 673.175 285.161L663.313 250.715C673.931 247.669 706.341 235.065 712.144 255.329ZM690.941 208.823C695.999 226.5 667.638 232.409 658.797 234.948L649.85 203.708C658.691 201.169 685.659 190.387 690.941 208.823Z" fill="white"/>
<path d="M913.568 272.798C913.568 138.748 804.703 30.0566 670.396 30.0566C536.09 30.0566 427.225 138.729 427.225 272.798" fill="#F7931A" fill-opacity="0.1"/>
<path d="M427.223 272.8C427.223 406.849 536.088 515.541 670.394 515.541C804.701 515.541 913.566 406.869 913.566 272.8" fill="#F7931A" fill-opacity="0.1"/>
<path d="M914.612 273.436C914.612 138.967 805.741 29.9355 671.428 29.9355C537.114 29.9355 428.243 138.948 428.243 273.436" stroke="#414042" stroke-width="9.16431" stroke-miterlimit="10"/>
<path d="M428.241 273.539C428.241 408.007 537.112 517.039 671.426 517.039C805.74 517.039 914.611 408.027 914.611 273.539" stroke="#414042" stroke-width="9.16431" stroke-miterlimit="10"/>
<path d="M442.961 288.167C434.827 296.312 421.64 296.312 413.506 288.167C405.373 280.023 405.373 266.819 413.506 258.674C421.64 250.53 434.827 250.53 442.961 258.674C451.095 266.819 451.095 280.023 442.961 288.167Z" fill="#414042"/>
<path d="M441.424 273.441C441.424 266.176 435.518 260.242 428.243 260.242C420.968 260.242 415.062 266.156 415.062 273.441C415.062 280.725 420.968 286.639 428.243 286.639C435.518 286.639 441.424 280.725 441.424 273.441Z" fill="#2BD45A"/>
<path d="M531.815 72.9832C537.564 82.9504 550.296 86.3772 560.25 80.6201C570.204 74.8631 573.626 62.1153 567.877 52.1481C562.127 42.181 549.396 38.7541 539.442 44.5112C529.487 50.2682 526.065 63.0161 531.815 72.9832Z" fill="#414042"/>
<path d="M556.437 73.9732C562.734 70.331 564.885 62.2632 561.267 55.9579C557.63 49.6525 549.553 47.4985 543.275 51.1211C536.978 54.7634 534.827 62.8507 538.445 69.1365C542.083 75.4418 550.14 77.5958 556.437 73.9732Z" fill="#FEF4E8"/>
<path d="M774.979 52.1329C769.229 62.1001 772.632 74.8478 782.606 80.6049C792.56 86.3619 805.291 82.9547 811.041 72.968C816.79 63.0008 813.388 50.253 803.414 44.4959C793.44 38.7388 780.728 42.1461 774.979 52.1329Z" fill="#414042"/>
<path d="M786.436 73.9835C792.733 77.6258 800.79 75.4522 804.428 69.1664C808.065 62.8611 805.894 54.7737 799.597 51.1511C793.3 47.5089 785.243 49.6824 781.605 55.9878C777.968 62.2932 780.138 70.3609 786.436 74.0031L786.436 73.9835Z" fill="#FEF4E8"/>
<path d="M929.321 288.181C921.187 296.325 908 296.325 899.866 288.181C891.732 280.037 891.732 266.832 899.866 258.688C908 250.544 921.187 250.544 929.321 258.688C937.455 266.832 937.455 280.037 929.321 288.181Z" fill="#414042"/>
<path d="M901.428 273.441C901.428 280.705 907.334 286.639 914.609 286.639C921.884 286.639 927.79 280.725 927.79 273.441C927.79 266.156 921.884 260.242 914.609 260.242C907.334 260.242 901.428 266.156 901.428 273.441Z" fill="#FEF4E8"/>
</g>
<path d="M7.25004 64.8549L7.25004 74.5921H4.2336L4.2336 67.7919H0.84672L0.84672 64.8549H7.25004ZM7.25004 73.3485C8.30844 75.1213 10.1342 75.8622 12.8596 75.9681C16.0083 76.1268 22.3058 76.0474 25.9573 75.7564C25.6133 76.4708 25.137 77.9261 24.9782 78.8522C21.6972 79.011 16.0612 79.0639 12.8066 78.9051C9.63144 78.7728 7.51464 78.0055 5.92704 75.9681C4.70988 77 3.46626 78.0319 1.95804 79.1433L0.50274 75.9945C1.74636 75.2801 3.22812 74.3275 4.4982 73.3485H7.25004ZM1.21716 57.1285L3.41334 55.0911C5.05386 56.2024 7.11774 57.9223 8.0703 59.1924L5.6889 61.468C4.84218 60.1979 2.85768 58.3457 1.21716 57.1285ZM11.9335 59.6687L13.9444 57.9753C16.2994 58.7955 19.6333 60.2244 21.4326 61.2563L19.2629 63.135C17.6488 62.1295 14.3678 60.6213 11.9335 59.6687ZM9.5256 61.1769H22.9937V63.4789H12.5156L12.5156 74.8832H9.5256L9.5256 61.1769ZM21.512 61.1769H24.5284V72.1314C24.5284 73.4279 24.3167 74.0894 23.4436 74.5128C22.6233 74.9626 21.4591 74.9626 19.8715 74.9626C19.7656 74.1952 19.4216 73.1633 19.0777 72.4753C19.9244 72.5018 20.8505 72.5018 21.1151 72.5018C21.4326 72.5018 21.512 72.396 21.512 72.1049V61.1769ZM9.76374 55.4086H22.3852V57.8165H9.76374V55.4086ZM11.1926 64.9078H22.5439V67.104H11.1926V64.9078ZM11.1926 68.6122H22.5439V70.9142H11.1926V68.6122ZM15.5585 62.2618H18.3897V74.7774H15.5585L15.5585 62.2618ZM21.2474 55.4086H21.9618L22.5968 55.2499L24.4755 56.7846C22.5968 58.5309 19.9773 60.4096 17.543 61.5738C17.1725 61.0446 16.4052 60.2244 15.9554 59.801C17.9399 58.8484 20.2419 57.1815 21.2474 55.9643V55.4086ZM27.9418 56.9962L30.4025 55.3557C31.8578 56.6787 33.6307 58.5309 34.4245 59.8275L31.752 61.7061C31.064 60.3831 29.3971 58.4251 27.9418 56.9962ZM33.7894 64.3257L33.7894 74.5128L30.6671 74.5128V67.2892H27.5713V64.3257H33.7894ZM32.1489 72.8193C33.075 72.8193 33.763 73.5867 35.3241 74.4069C37.1234 75.4124 39.6106 75.5976 42.5212 75.5976C45.2731 75.5976 49.6125 75.333 52.285 74.9361C51.8881 75.8358 51.3324 77.5027 51.3059 78.4553C49.4273 78.5876 45.1408 78.7199 42.4154 78.7199C39.055 78.7199 36.7794 78.4288 34.8214 77.3704C33.5777 76.7089 32.6781 75.8887 32.0695 75.8887C31.3022 75.8887 30.1644 77.635 29.2118 79.2226L26.9627 75.9945C28.7885 74.0629 30.7994 72.8193 32.1489 72.8193ZM35.2976 59.0866H51.6499V62.0766H35.2976V59.0866ZM45.1672 54.6942H48.3953L48.3953 70.8084C48.3953 72.6341 47.9984 73.4808 46.7813 73.9571C45.617 74.4598 43.8178 74.5392 41.3305 74.5392C41.1982 73.6131 40.6955 72.2107 40.2457 71.3111C41.9656 71.3905 43.8707 71.3905 44.4263 71.3905C44.982 71.364 45.1672 71.2317 45.1672 70.7554L45.1672 54.6942ZM36.0385 64.6167L38.5787 63.1879C39.8752 64.749 41.5951 66.9187 42.3625 68.3211L39.6635 69.9881C38.9491 68.5857 37.3351 66.2837 36.0385 64.6167ZM189.627 62.3941H196.295V65.5164H189.627V62.3941ZM187.722 54.8265H191.003V76.312L187.722 77.0794V54.8265ZM184.361 75.5447C187.51 75.0155 192.246 74.0629 196.586 73.1104L196.903 76.2327C192.881 77.1588 188.542 78.0849 185.261 78.8257L184.361 75.5447ZM206.588 60.3302L208.81 63.082C206.111 64.5109 202.777 65.8603 199.867 66.9187C199.682 66.1779 199.179 65.0665 198.782 64.3786C201.56 63.3202 204.577 61.6797 206.588 60.3302ZM197.829 54.8265H201.11V74.1688C201.11 75.7035 201.243 75.9151 202.248 75.9151C202.698 75.9151 204.63 75.9151 205.132 75.9151C206.138 75.9151 206.297 74.989 206.455 71.364C207.223 71.9461 208.546 72.5283 209.445 72.7399C209.101 77.2646 208.281 78.9845 205.423 78.9845C204.788 78.9845 202.381 78.9845 201.772 78.9845C198.676 78.9845 197.829 77.8996 197.829 74.1423V54.8265ZM221.67 56.8904H234.424V59.7745H221.67V56.8904ZM220.082 62.0236H235.588V64.9607L220.082 64.9607V62.0236ZM220.664 67.3421L235.323 67.3421V70.2792L220.664 70.2792V67.3421ZM226.38 54.509H229.528V63.6377H226.38V54.509ZM229.528 64.6432L232.677 64.6432V75.8358C232.677 77.4498 232.36 78.323 231.301 78.7993C230.243 79.2756 228.735 79.3549 226.724 79.3549C226.618 78.4288 226.195 77.0794 225.771 76.2062C227.068 76.2591 228.523 76.2591 228.973 76.2327C229.396 76.2327 229.528 76.1533 229.528 75.7828V64.6432ZM221.59 71.708L223.945 70.2527C225.11 71.4169 226.512 73.0839 227.147 74.2482L224.633 75.8887C224.078 74.7244 222.728 72.9781 221.59 71.708ZM210.663 68.6386C213.256 68.0565 217.119 66.9717 220.77 65.9397L221.194 68.718C217.86 69.7764 214.235 70.8613 211.43 71.6815L210.663 68.6386ZM215.425 54.5355H218.336V79.3814H215.425V54.5355ZM211.933 55.9114L214.579 56.3612C214.235 59.8539 213.6 63.5319 212.647 65.9133C212.171 65.5164 211.033 64.8019 210.398 64.4844C211.245 62.3412 211.694 59.0337 211.933 55.9114ZM212.647 59.5364H220.532V62.5528H212.065L212.647 59.5364ZM247.918 58.3192H251.226V79.3549H247.918V58.3192ZM240.007 62.7116H257.814V65.8074H243.261V76.4179H240.007V62.7116ZM256.121 62.7116H259.428V72.8458C259.428 74.3805 259.137 75.3066 258.052 75.8093C256.967 76.312 255.539 76.365 253.554 76.365C253.422 75.4389 252.946 74.0365 252.496 73.1633C253.739 73.2162 255.168 73.2162 255.565 73.2162C255.988 73.1898 256.121 73.0839 256.121 72.7399V62.7116ZM259.746 55.144L260.963 58.0546C254.824 58.9807 246.172 59.4306 238.922 59.457C238.869 58.5574 238.525 57.3402 238.234 56.5993C245.643 56.4935 254.136 56.0172 259.746 55.144ZM268.001 60.1185H288.217V62.8968H268.001V60.1185ZM276.733 57.5519L280.12 57.7107C279.961 60.2773 279.617 63.426 279.3 65.437H276.23C276.469 63.3731 276.654 60.145 276.733 57.5519ZM278.797 75.9151L281.02 74.0365C283.48 74.9361 286.55 76.3385 288.402 77.2646L286.179 79.3814C284.407 78.3495 281.284 76.8412 278.797 75.9151ZM284.248 54.3767L286.735 56.8904C281.178 58.134 273.479 58.7426 266.969 58.9543C266.89 58.1869 266.493 56.9433 266.202 56.2554C272.605 56.0172 279.908 55.3557 284.248 54.3767ZM266.202 56.2554H269.324V63.77C269.324 68.2417 268.927 74.8832 266.281 79.0903C265.673 78.5876 264.27 77.7673 263.477 77.4763C265.99 73.5602 266.202 67.8184 266.202 63.77V56.2554ZM277.024 68.5593H280.358V70.6761C280.358 73.2956 279.194 76.9735 270.594 79.3814C270.171 78.6934 269.192 77.5557 268.398 76.9471C276.521 75.0684 277.024 72.343 277.024 70.5967V68.5593ZM270.674 64.749H286.656V74.2746H283.322V67.6861H273.849V74.0629H270.674V64.749ZM299.727 56.0437H314.174V71.6022H310.972V58.9543H302.796V71.6286H299.727V56.0437ZM301.658 61.759H312.137V64.6167H301.658V61.759ZM301.658 67.5009H312.137V70.385H301.658V67.5009ZM305.416 57.1815H308.406V79.3814H305.416V57.1815ZM290.069 67.9771C292.318 67.5009 295.546 66.7335 298.616 65.9397L299.012 68.8503C296.261 69.6177 293.271 70.4115 290.889 71.02L290.069 67.9771ZM290.413 59.5629L298.907 59.5629V62.5264L290.413 62.5264V59.5629ZM293.324 54.5355H296.366V75.8887C296.366 77.3704 296.102 78.1113 295.255 78.5876C294.408 79.0639 293.218 79.1433 291.471 79.1433C291.366 78.3759 290.969 77.1058 290.625 76.3385C291.551 76.365 292.556 76.3385 292.874 76.3385C293.218 76.3385 293.324 76.2327 293.324 75.8887V54.5355ZM326.107 65.437H340.766V68.3476H326.107V65.437ZM334.786 62.4205L336.956 60.9652C338.094 61.812 339.443 63.1085 340.025 64.0611L337.723 65.6751C337.194 64.749 335.924 63.3731 334.786 62.4205ZM334.469 67.1304C335.474 71.4963 337.565 75.0949 341.322 76.7089C340.634 77.2911 339.708 78.4818 339.311 79.2756C335.263 77.1588 333.172 72.9781 331.982 67.5802L334.469 67.1304ZM317.27 56.3612L340.819 56.3612V59.2189L317.27 59.2189V56.3612ZM322.959 54.5355H326.107V60.9917L322.959 60.9917V54.5355ZM332.061 54.5355H335.21V60.7271H332.061V54.5355ZM331.585 61.2298H334.548V65.3311C334.548 69.6706 333.675 75.4124 327.536 79.4343C326.981 78.7728 325.949 77.9261 325.181 77.3704C330.87 73.666 331.585 68.7974 331.585 65.3047V61.2298ZM317.878 62.3147L319.942 60.7006C325.049 63.7435 325.764 67.5538 325.764 71.4963C325.764 74.4069 325.42 76.8412 324.202 78.1642C323.805 78.6141 323.25 78.9051 322.615 79.011C321.609 79.2491 320.577 79.2491 319.307 79.1962C319.281 78.323 318.99 77.2646 318.461 76.4708C319.757 76.5502 320.71 76.5502 321.265 76.4708C321.662 76.4443 321.874 76.312 322.086 76.0474C322.641 75.3595 322.853 73.7454 322.853 71.2846C322.853 67.8184 321.874 64.749 317.878 62.3147ZM322.482 67.6596L324.599 68.9562C323.223 70.9671 320.577 73.2691 318.408 74.5392C317.984 73.8248 317.217 72.8193 316.555 72.2372C318.699 71.3376 321.239 69.406 322.482 67.6596ZM323.779 61.0711L326.346 62.4735C324.361 64.749 321.318 66.8129 318.461 68.1359C318.037 67.5009 317.164 66.5483 316.582 66.0191C319.36 64.8813 322.165 62.9233 323.779 61.0711ZM356.034 60.9388V62.2882H362.94V60.9388H356.034ZM356.034 57.5254V58.8484H362.94V57.5254H356.034ZM352.964 55.3028H366.141V64.5109H352.964V55.3028ZM351.641 65.6751H367.015V68.2682H351.641V65.6751ZM350.953 69.7764H367.544V72.4753H350.953V69.7764ZM360.717 67.9507H363.919V76.2327C363.919 77.688 363.654 78.4553 362.622 78.9051C361.643 79.3549 360.32 79.3814 358.495 79.3814C358.362 78.5082 357.912 77.344 357.515 76.5502C358.627 76.6031 359.87 76.6031 360.214 76.5766C360.611 76.5502 360.717 76.4708 360.717 76.1533V67.9507ZM352.726 73.7719L354.922 72.2901C356.06 73.3221 357.463 74.8038 358.151 75.7828L355.769 77.4763C355.187 76.4708 353.811 74.9097 352.726 73.7719ZM349.101 60.3831L351.88 61.5474C349.948 64.8019 346.852 68.2947 344.074 70.4644C343.862 69.7764 343.068 67.9771 342.592 67.2098C344.921 65.5693 347.514 62.9497 349.101 60.3831ZM348.387 54.5619L351.403 55.7791C349.63 58.2399 346.931 60.8329 344.444 62.447C344.1 61.7326 343.359 60.436 342.857 59.7745C344.921 58.5045 347.275 56.3347 348.387 54.5619ZM346.482 66.2837L349.419 63.3466L349.551 63.426V79.3814H346.482V66.2837ZM369.343 71.1259C371.381 70.729 374.476 69.9616 377.466 69.2208L377.837 72.0255C375.297 72.8722 372.598 73.6925 370.428 74.354L369.343 71.1259ZM376.143 54.7207L379.239 54.7207V79.3549H376.143V54.7207ZM370.984 57.6048H374.027V71.8668H370.984V57.6048ZM383.288 59.2718H394.507V62.2618H383.288V59.2718ZM383.314 54.509L386.569 55.144C385.457 60.0921 383.499 64.8284 380.933 67.7919C380.43 67.1569 379.16 65.9397 378.445 65.3841C380.8 62.8968 382.467 58.7955 383.314 54.509ZM389.982 60.8594L393.157 61.3357C391.464 70.2792 387.944 76.0739 380.933 79.4608C380.642 78.7199 379.715 77.2646 379.133 76.5766C385.59 73.8248 388.659 68.7709 389.982 60.8594ZM384.531 61.3092C385.934 68.3476 388.976 74.1159 394.771 76.6296C394.057 77.2646 393.051 78.5347 392.601 79.3814C386.33 76.2856 383.367 70.0675 381.647 61.8649L384.531 61.3092ZM396.279 75.7564H420.517V78.5611H396.279V75.7564ZM396.703 60.0127L420.146 60.0127V62.8174L396.703 62.8174V60.0127ZM399.825 68.6651L417.077 68.6651V77.2117H414.113V71.3376H412.208V77.2117H409.298V71.3376L407.419 71.3376V77.2117H404.508V71.3376H402.63V77.2117H399.825V68.6651ZM400.46 55.9378L403.185 54.7471C404.35 56.176 405.567 58.0546 406.149 59.3247L403.291 60.78C402.762 59.457 401.545 57.4196 400.46 55.9378ZM413.373 54.509L416.759 55.5145C415.648 57.3402 414.378 59.1924 413.373 60.4096L410.568 59.457C411.573 58.134 412.764 56.0701 413.373 54.509ZM403.768 60.6742L406.943 61.6267C404.958 65.8074 401.624 69.4854 398.184 71.7609C397.682 71.0994 396.465 69.8823 395.724 69.3001C399.137 67.4215 402.153 64.2727 403.768 60.6742ZM412.526 60.6742C414.193 64.0081 417.58 67.2892 421.125 68.9826C420.411 69.5647 419.432 70.7554 418.929 71.5492C415.198 69.4854 411.811 65.781 409.721 61.6797L412.526 60.6742Z" fill="#FBFBFB"/>
<path d="M167.208 275.75H183.428V278.687L167.208 278.687V275.75ZM169.272 269.082H179.38V271.94H169.272V269.082ZM173.955 273.554H177.157V282.021C177.157 283.609 176.892 284.429 175.755 284.905C174.643 285.355 173.082 285.381 170.965 285.381C170.833 284.455 170.463 283.212 170.066 282.339C171.415 282.391 172.976 282.391 173.4 282.391C173.823 282.365 173.955 282.286 173.955 281.942V273.554ZM178.586 269.082H179.38L180.041 268.897L182.026 270.484C180.412 272.31 178.215 274.401 176.204 275.75C175.808 275.194 174.987 274.321 174.511 273.898C176.019 272.813 177.819 270.881 178.586 269.664V269.082ZM159.455 263.975H183.058V267.018H159.455V263.975ZM167.737 260.509L171.098 261.329C169.14 267.759 165.806 274.215 160.117 278.105C159.773 277.232 159.032 275.776 158.529 274.983C163.345 271.834 166.361 265.88 167.737 260.509ZM162.445 271.569H165.673V285.355H162.445V271.569ZM190.519 262.017H198.008V265.245H190.519V262.017ZM196.446 262.017H199.727C199.727 267.045 200.442 276.782 210.258 282.524C209.518 283.106 208.248 284.508 207.692 285.302C197.611 279.243 196.446 267.415 196.446 262.017ZM195.309 267.812L198.96 268.473C197.108 276.332 193.589 282.021 188.059 285.355C187.476 284.667 185.995 283.344 185.174 282.762C190.705 279.957 193.88 274.824 195.309 267.812ZM220.171 264.111H226.049C228.564 264.111 230.468 264.464 231.76 265.171C233.052 265.877 233.698 267.117 233.698 268.891C233.698 269.606 233.582 270.252 233.349 270.829C233.125 271.407 232.798 271.88 232.367 272.251C231.936 272.621 231.411 272.862 230.791 272.974V273.103C231.42 273.233 231.988 273.456 232.496 273.775C233.004 274.085 233.409 274.542 233.711 275.145C234.021 275.739 234.176 276.531 234.176 277.522C234.176 278.668 233.896 279.649 233.336 280.468C232.776 281.286 231.975 281.915 230.933 282.354C229.899 282.785 228.668 283 227.238 283H220.171V264.111ZM224.176 271.592H226.501C227.664 271.592 228.47 271.411 228.917 271.049C229.365 270.679 229.589 270.136 229.589 269.421C229.589 268.698 229.322 268.181 228.788 267.871C228.263 267.552 227.427 267.393 226.282 267.393H224.176V271.592ZM224.176 274.77V279.693H226.786C227.992 279.693 228.831 279.46 229.305 278.995C229.779 278.53 230.016 277.905 230.016 277.121C230.016 276.656 229.912 276.247 229.706 275.894C229.499 275.541 229.15 275.265 228.659 275.067C228.177 274.869 227.509 274.77 226.656 274.77H224.176ZM245.235 283H241.23V267.444H236.101V264.111H250.365V267.444H245.235V283ZM261.295 267.173C260.528 267.173 259.848 267.324 259.253 267.625C258.668 267.918 258.172 268.345 257.768 268.904C257.371 269.464 257.07 270.14 256.863 270.933C256.657 271.725 256.553 272.617 256.553 273.607C256.553 274.942 256.717 276.084 257.044 277.031C257.38 277.97 257.897 278.689 258.594 279.189C259.292 279.68 260.192 279.925 261.295 279.925C262.061 279.925 262.828 279.839 263.595 279.667C264.37 279.494 265.209 279.249 266.114 278.93V282.289C265.278 282.634 264.456 282.879 263.646 283.026C262.837 283.181 261.928 283.258 260.92 283.258C258.973 283.258 257.371 282.858 256.114 282.057C254.865 281.247 253.939 280.119 253.336 278.672C252.733 277.216 252.432 275.519 252.432 273.581C252.432 272.152 252.625 270.842 253.013 269.654C253.401 268.465 253.969 267.436 254.719 266.566C255.468 265.696 256.394 265.024 257.496 264.55C258.599 264.077 259.865 263.84 261.295 263.84C262.234 263.84 263.172 263.96 264.111 264.202C265.059 264.434 265.963 264.757 266.824 265.171L265.532 268.426C264.826 268.09 264.116 267.798 263.401 267.548C262.686 267.298 261.984 267.173 261.295 267.173Z" fill="#FBFBFB"/>
<rect x="283.711" y="257.366" width="54.7287" height="31.2687" rx="15.6344" fill="#F7931A" fill-opacity="0.1"/>
<rect x="283.711" y="257.366" width="54.7287" height="31.2687" rx="15.6344" stroke="#F7931A" stroke-width="0.55125"/>
<path d="M310.935 267.694L306.695 279.5H305.314L301.075 267.694H302.512L305.274 275.471C305.387 275.783 305.487 276.082 305.573 276.367C305.664 276.652 305.745 276.927 305.815 277.191C305.885 277.454 305.947 277.71 306.001 277.958C306.055 277.71 306.117 277.454 306.187 277.191C306.256 276.921 306.337 276.644 306.429 276.359C306.52 276.068 306.623 275.764 306.736 275.446L309.481 267.694H310.935ZM316.749 279.5H315.44V271.134C315.44 270.817 315.44 270.545 315.44 270.319C315.446 270.087 315.451 269.877 315.457 269.689C315.467 269.495 315.481 269.299 315.497 269.099C315.33 269.272 315.174 269.42 315.029 269.544C314.883 269.662 314.703 269.81 314.488 269.988L313.139 271.07L312.437 270.157L315.634 267.694H316.749V279.5Z" fill="white"/>
<path d="M866.367 22.416C868.643 27.8138 873.432 31.3066 880.92 32.5502C880.259 33.2117 879.386 34.5611 878.936 35.4343C871.104 33.8203 866.447 29.7983 863.642 23.2098L866.367 22.416ZM874.967 21.3576H875.602L876.21 21.2253L878.407 22.2308C875.972 29.7983 870.204 33.5557 862.98 35.4079C862.636 34.5611 861.896 33.3175 861.287 32.6296C867.77 31.2536 873.141 27.7609 874.967 21.8868V21.3576ZM865.388 21.3576L875.443 21.3576V24.4005L864.462 24.4005L865.388 21.3576ZM866.685 10.3502L870.231 10.9324C868.855 21.437 865.785 28.9252 857.874 33.344C857.45 32.656 856.313 31.3595 855.545 30.7774C862.689 26.9407 865.547 19.7965 866.685 10.3502ZM872.691 12.0966L875.179 10.6148C876.184 11.7262 877.666 13.2873 878.354 14.2399L875.787 15.9068C875.126 14.9278 873.723 13.2873 872.691 12.0966ZM858.562 19.77C858.376 19.1085 857.874 17.6797 857.53 16.9123C857.927 16.78 858.324 16.4096 858.668 15.801C858.985 15.2453 860.017 13.1815 860.52 11.0911L863.854 11.6203C863.192 13.9488 861.922 16.489 860.97 18.0236V18.0766C860.97 18.0766 858.562 19.1085 858.562 19.77ZM858.562 19.77V17.4415L860.44 16.145L880.047 16.145L880.021 19.1614L861.34 19.1614C859.938 19.1614 858.8 19.3731 858.562 19.77ZM893.304 12.0437L906.243 12.0437V15.0601L893.304 15.0601V12.0437ZM900.024 20.2727H903.279V31.7035C903.279 33.3969 902.935 34.2965 901.771 34.7993C900.633 35.2756 898.966 35.302 896.585 35.302C896.479 34.3759 896.055 33 895.632 32.0739C897.14 32.1533 898.887 32.1533 899.363 32.1533C899.866 32.1268 900.024 32.021 900.024 31.6241V20.2727ZM892.166 19.3731H906.931V22.3895H892.166V19.3731ZM886.239 22.4954L889.017 19.7171L889.414 19.8758V35.4079H886.239V22.4954ZM889.229 16.3037L892.245 17.4415C890.155 20.9607 886.9 24.6651 884.069 26.9936C883.619 26.3321 882.534 24.9032 881.899 24.2682C884.598 22.3631 887.482 19.2937 889.229 16.3037ZM888.223 10.5355L891.266 11.7791C889.335 14.2928 886.477 17.0446 883.963 18.791C883.54 18.0766 882.72 16.8329 882.19 16.1979C884.387 14.7691 886.927 12.3877 888.223 10.5355ZM913.44 15.3247L931.856 15.3247V18.4205L913.44 18.4205V15.3247ZM912.355 23.1304H930.85V26.1733H912.355V23.1304ZM909.285 31.5182L933.205 31.5182V34.6141L909.285 34.6141V31.5182ZM919.578 10.5355H922.886V33.0529H919.578V10.5355ZM913.466 10.853L916.747 11.5939C915.583 15.6952 913.651 19.77 911.587 22.3102C910.952 21.7545 909.55 20.8284 908.73 20.3786C910.82 18.1559 912.514 14.5045 913.466 10.853ZM939.212 20.4844H945.324V23.395H939.212V20.4844ZM944.107 20.4844H947.203C947.203 20.4844 947.176 21.2782 947.176 21.6487C947.07 27.2582 946.938 29.6131 946.329 30.4334C945.8 31.0949 945.271 31.333 944.504 31.4653C943.789 31.5712 942.652 31.5712 941.408 31.5447C941.355 30.6186 941.011 29.375 940.535 28.5812C941.487 28.687 942.387 28.687 942.81 28.687C943.181 28.687 943.419 28.6341 943.631 28.3695C943.948 27.9461 944.054 26.0939 944.107 20.9607V20.4844ZM952.071 12.2024L953.976 10.2709C955.432 11.0382 957.39 12.2554 958.342 13.1285L956.305 15.2718C955.432 14.3457 953.553 13.0492 952.071 12.2024ZM955.194 19.0027L958.395 19.77C956.173 26.6761 952.283 32.0474 947.044 35.2756C946.568 34.6141 945.403 33.2911 944.742 32.656C949.822 29.9306 953.368 25.1414 955.194 19.0027ZM939.397 14.5045L959.798 14.5045V17.6267H939.397V14.5045ZM937.28 14.5045L940.614 14.5045V22.2837C940.614 26.2527 940.164 32.1268 937.756 35.6989C937.227 35.0639 935.798 33.8996 935.058 33.5292C937.095 30.354 937.28 25.7235 937.28 22.2572V14.5045ZM948.023 10.5619H951.357C951.172 21.3576 953.606 31.9681 956.278 31.9681C956.887 31.9681 957.205 30.6186 957.363 27.2846C958.078 28.0255 959.215 28.7664 960.062 29.0839C959.559 34.0055 958.501 35.1962 956.014 35.1962C950.246 35.1962 948.102 22.6277 948.023 10.5619ZM961.491 27.1259C963.528 26.729 966.624 25.9616 969.614 25.2208L969.985 28.0255C967.445 28.8722 964.746 29.6925 962.576 30.354L961.491 27.1259ZM968.291 10.7207H971.387V35.3549H968.291V10.7207ZM963.132 13.6048H966.174V27.8668H963.132V13.6048ZM975.435 15.2718L986.655 15.2718V18.2618H975.435V15.2718ZM975.462 10.509L978.717 11.144C977.605 16.0921 975.647 20.8284 973.081 23.7919C972.578 23.1569 971.308 21.9397 970.593 21.3841C972.948 18.8968 974.615 14.7955 975.462 10.509ZM982.13 16.8594L985.305 17.3357C983.612 26.2792 980.092 32.0739 973.081 35.4608C972.789 34.7199 971.863 33.2646 971.281 32.5766C977.737 29.8248 980.807 24.7709 982.13 16.8594ZM976.679 17.3092C978.081 24.3476 981.124 30.1159 986.919 32.6296C986.205 33.2646 985.199 34.5347 984.749 35.3814C978.478 32.2856 975.515 26.0675 973.795 17.8649L976.679 17.3092ZM988.427 31.7564L1012.66 31.7564V34.5611H988.427V31.7564ZM988.851 16.0127L1012.29 16.0127V18.8174L988.851 18.8174V16.0127ZM991.973 24.6651L1009.22 24.6651V33.2117H1006.26V27.3376H1004.36V33.2117H1001.45V27.3376H999.567V33.2117H996.656V27.3376H994.778V33.2117H991.973V24.6651ZM992.608 11.9378L995.333 10.7471C996.498 12.176 997.715 14.0546 998.297 15.3247L995.439 16.78C994.91 15.457 993.693 13.4196 992.608 11.9378ZM1005.52 10.509L1008.91 11.5145C1007.8 13.3402 1006.53 15.1924 1005.52 16.4096L1002.72 15.457C1003.72 14.134 1004.91 12.0701 1005.52 10.509ZM995.916 16.6742L999.091 17.6267C997.106 21.8074 993.772 25.4854 990.332 27.7609C989.83 27.0994 988.613 25.8823 987.872 25.3001C991.285 23.4215 994.301 20.2727 995.916 16.6742ZM1004.67 16.6742C1006.34 20.0081 1009.73 23.2892 1013.27 24.9826C1012.56 25.5647 1011.58 26.7554 1011.08 27.5492C1007.35 25.4854 1003.96 21.781 1001.87 17.6797L1004.67 16.6742ZM1017.59 14.822H1025.71V32.656L1017.59 32.656V29.8513L1022.83 29.8513V17.6003H1017.59V14.822ZM1015.73 14.822H1018.62V34.6141H1015.73V14.822ZM1017.45 21.8868L1024.23 21.8868V24.6386L1017.45 24.6386V21.8868ZM1019.49 10.509L1022.96 11.0117C1022.35 12.811 1021.69 14.6897 1021.16 15.9333L1018.62 15.3776C1018.99 14.0017 1019.36 11.9643 1019.49 10.509ZM1029.2 14.6368H1036.93V17.5209H1029.2V14.6368ZM1035.84 14.6368L1038.78 14.6368C1038.78 14.6368 1038.78 15.6687 1038.75 16.0656C1038.41 27.9726 1038.09 32.1797 1037.01 33.5821C1036.27 34.6141 1035.53 34.9051 1034.44 35.0639C1033.44 35.2226 1031.82 35.1962 1030.29 35.1168C1030.23 34.2436 1029.81 32.8942 1029.23 32.0474C1030.95 32.1797 1032.54 32.2062 1033.2 32.2062C1033.73 32.2062 1034.02 32.1004 1034.36 31.7299C1035.21 30.8303 1035.55 26.2792 1035.84 15.2453V14.6368ZM1029.28 10.5355L1032.32 11.2499C1031.29 15.166 1029.57 19.1879 1027.77 21.728C1027.19 21.1988 1025.89 20.2992 1025.15 19.8758C1026.93 17.6532 1028.43 14.0546 1029.28 10.5355ZM1027.99 22.2572L1030.47 20.8549C1031.77 22.6806 1033.52 25.2208 1034.34 26.7819L1031.64 28.4224C1030.92 26.8084 1029.26 24.2153 1027.99 22.2572ZM1049.51 14.1111H1055.39C1057.91 14.1111 1059.81 14.4642 1061.1 15.1705C1062.39 15.8768 1063.04 17.1171 1063.04 18.8914C1063.04 19.6063 1062.92 20.2523 1062.69 20.8294C1062.47 21.4065 1062.14 21.8803 1061.71 22.2506C1061.28 22.621 1060.75 22.8622 1060.13 22.9741V23.1033C1060.76 23.2325 1061.33 23.4565 1061.84 23.7752C1062.35 24.0853 1062.75 24.5418 1063.05 25.1447C1063.36 25.739 1063.52 26.5314 1063.52 27.522C1063.52 28.6675 1063.24 29.6494 1062.68 30.4677C1062.12 31.286 1061.32 31.9147 1060.28 32.354C1059.24 32.7847 1058.01 33 1056.58 33H1049.51V14.1111ZM1053.52 21.5917H1055.84C1057.01 21.5917 1057.81 21.4108 1058.26 21.0491C1058.71 20.6787 1058.93 20.1361 1058.93 19.4212C1058.93 18.6976 1058.66 18.1809 1058.13 17.8708C1057.61 17.5521 1056.77 17.3927 1055.62 17.3927H1053.52V21.5917ZM1053.52 24.77V29.6925H1056.13C1057.33 29.6925 1058.17 29.4599 1058.65 28.9948C1059.12 28.5297 1059.36 27.9052 1059.36 27.1214C1059.36 26.6563 1059.25 26.2472 1059.05 25.894C1058.84 25.5409 1058.49 25.2653 1058 25.0672C1057.52 24.8691 1056.85 24.77 1056 24.77H1053.52ZM1074.58 33H1070.57V17.4444H1065.44V14.1111L1079.71 14.1111V17.4444H1074.58V33ZM1090.64 17.1731C1089.87 17.1731 1089.19 17.3238 1088.6 17.6253C1088.01 17.9181 1087.51 18.3445 1087.11 18.9044C1086.71 19.4642 1086.41 20.1404 1086.21 20.9328C1086 21.7252 1085.9 22.6167 1085.9 23.6072C1085.9 24.9423 1086.06 26.0835 1086.39 27.031C1086.72 27.9698 1087.24 28.6891 1087.94 29.1886C1088.63 29.6796 1089.53 29.9251 1090.64 29.9251C1091.4 29.9251 1092.17 29.8389 1092.94 29.6667C1093.71 29.4944 1094.55 29.2489 1095.46 28.9302V32.2894C1094.62 32.6339 1093.8 32.8794 1092.99 33.0258C1092.18 33.1809 1091.27 33.2584 1090.26 33.2584C1088.32 33.2584 1086.71 32.8579 1085.46 32.0568C1084.21 31.2472 1083.28 30.1189 1082.68 28.6718C1082.08 27.2162 1081.77 25.5194 1081.77 23.5814C1081.77 22.1516 1081.97 20.8424 1082.36 19.6537C1082.74 18.4651 1083.31 17.4358 1084.06 16.5659C1084.81 15.6959 1085.74 15.0241 1086.84 14.5504C1087.94 14.0766 1089.21 13.8398 1090.64 13.8398C1091.58 13.8398 1092.51 13.9603 1093.45 14.2015C1094.4 14.4341 1095.31 14.7571 1096.17 15.1705L1094.87 18.4263C1094.17 18.0904 1093.46 17.7976 1092.74 17.5478C1092.03 17.298 1091.33 17.1731 1090.64 17.1731ZM1112.95 19.4525L1129.07 17.3092L1129.52 20.3257L1113.43 22.4954L1112.95 19.4525ZM1122.93 12.2024L1125.31 10.7207C1126.69 11.9908 1128.35 13.7636 1129.09 15.0072L1126.55 16.6477C1125.89 15.4306 1124.28 13.5519 1122.93 12.2024ZM1111.5 10.7471L1114.51 11.7526C1112.53 16.436 1109.3 21.3311 1105.99 24.374C1105.68 23.6067 1104.78 21.9133 1104.22 21.1459C1107.08 18.6851 1109.86 14.7426 1111.5 10.7471ZM1108.75 18.3412L1112 15.113L1112.03 15.166V35.3285H1108.75V18.3412ZM1117.9 10.9324H1121.13C1121.31 22.2572 1122.85 31.042 1126.05 31.4918C1126.66 31.5447 1127 30.1688 1127.19 27.2582C1127.8 27.9197 1129.23 28.7664 1129.81 29.0575C1129.12 34.1907 1127.69 35.4079 1126.21 35.3285C1119.94 34.7464 1118.38 25.3531 1117.9 10.9324ZM1141.93 14.3192H1145.23V35.3549L1141.93 35.3549V14.3192ZM1134.02 18.7116L1151.82 18.7116V21.8074H1137.27V32.4179H1134.02V18.7116ZM1150.13 18.7116H1153.44V28.8458C1153.44 30.3805 1153.15 31.3066 1152.06 31.8093C1150.98 32.312 1149.55 32.365 1147.56 32.365C1147.43 31.4389 1146.95 30.0365 1146.5 29.1633C1147.75 29.2162 1149.18 29.2162 1149.57 29.2162C1150 29.1898 1150.13 29.0839 1150.13 28.7399V18.7116ZM1153.75 11.144L1154.97 14.0546C1148.83 14.9807 1140.18 15.4306 1132.93 15.457C1132.88 14.5574 1132.53 13.3402 1132.24 12.5993C1139.65 12.4935 1148.15 12.0172 1153.75 11.144Z" fill="#FBFBFB"/>
<rect x="1184.28" y="7.27562" width="54.7287" height="31.2687" rx="15.6344" fill="#F7931A" fill-opacity="0.1"/>
<rect x="1184.28" y="7.27562" width="54.7287" height="31.2687" rx="15.6344" stroke="#F7931A" stroke-width="0.55125"/>
<path d="M1211.5 17.6043L1207.26 29.4099H1205.88L1201.64 17.6043H1203.08L1205.84 25.3805C1205.95 25.6927 1206.05 25.9915 1206.14 26.2768C1206.23 26.5621 1206.31 26.8367 1206.38 27.1005C1206.45 27.3643 1206.51 27.62 1206.57 27.8676C1206.62 27.62 1206.68 27.3643 1206.75 27.1005C1206.82 26.8313 1206.9 26.5541 1206.99 26.2688C1207.09 25.9781 1207.19 25.6739 1207.3 25.3563L1210.05 17.6043H1211.5ZM1219.62 20.3579C1219.62 20.8855 1219.52 21.343 1219.32 21.7306C1219.11 22.1182 1218.83 22.4358 1218.46 22.6835C1218.09 22.9257 1217.66 23.0953 1217.17 23.1922V23.2568C1218.1 23.3752 1218.81 23.6767 1219.28 24.1612C1219.75 24.6457 1219.99 25.2809 1219.99 26.0669C1219.99 26.7506 1219.82 27.3562 1219.5 27.8837C1219.18 28.4113 1218.69 28.8258 1218.03 29.1273C1217.38 29.4234 1216.53 29.5714 1215.5 29.5714C1214.88 29.5714 1214.3 29.5203 1213.77 29.418C1213.24 29.3211 1212.73 29.1569 1212.25 28.9254V27.6657C1212.74 27.908 1213.27 28.0991 1213.85 28.239C1214.43 28.3736 1214.98 28.4409 1215.52 28.4409C1216.6 28.4409 1217.38 28.2283 1217.85 27.803C1218.33 27.3723 1218.57 26.7856 1218.57 26.0427C1218.57 25.5312 1218.44 25.1194 1218.17 24.8072C1217.91 24.4896 1217.52 24.2581 1217.02 24.1127C1216.53 23.962 1215.93 23.8866 1215.23 23.8866H1214.05V22.74H1215.24C1215.88 22.74 1216.42 22.6458 1216.87 22.4574C1217.32 22.269 1217.66 22.0052 1217.89 21.666C1218.12 21.3215 1218.24 20.9151 1218.24 20.4467C1218.24 19.8492 1218.04 19.3889 1217.64 19.0659C1217.25 18.7375 1216.71 18.5733 1216.02 18.5733C1215.6 18.5733 1215.22 18.6164 1214.87 18.7025C1214.53 18.7887 1214.21 18.9071 1213.91 19.0578C1213.6 19.2086 1213.3 19.3835 1213 19.5827L1212.32 18.6622C1212.75 18.3284 1213.28 18.0404 1213.9 17.7981C1214.52 17.5559 1215.22 17.4348 1216.01 17.4348C1217.21 17.4348 1218.12 17.7093 1218.72 18.2584C1219.32 18.8075 1219.62 19.5073 1219.62 20.3579Z" fill="white"/>
<rect x="427.276" y="51.2756" width="54.7287" height="31.2687" rx="15.6344" fill="#F7931A" fill-opacity="0.1"/>
<rect x="427.276" y="51.2756" width="54.7287" height="31.2687" rx="15.6344" stroke="#F7931A" stroke-width="0.55125"/>
<path d="M454.5 61.6043L450.26 73.4099H448.879L444.64 61.6043H446.077L448.839 69.3805C448.952 69.6927 449.052 69.9915 449.138 70.2768C449.229 70.5621 449.31 70.8367 449.38 71.1005C449.45 71.3643 449.512 71.62 449.566 71.8676C449.62 71.62 449.681 71.3643 449.751 71.1005C449.821 70.8313 449.902 70.5541 449.994 70.2688C450.085 69.9781 450.188 69.6739 450.301 69.3563L453.046 61.6043H454.5ZM463.059 73.4099H455.323V72.2875L458.48 69.0817C459.067 68.4896 459.56 67.962 459.958 67.499C460.362 67.0361 460.669 66.5812 460.879 66.1344C461.089 65.6822 461.194 65.1869 461.194 64.6486C461.194 63.9811 460.994 63.4723 460.596 63.1224C460.203 62.7671 459.684 62.5895 459.038 62.5895C458.472 62.5895 457.972 62.6864 457.536 62.8802C457.1 63.074 456.653 63.3485 456.195 63.7038L455.477 62.7994C455.789 62.5356 456.128 62.3015 456.494 62.0969C456.865 61.8923 457.261 61.7308 457.681 61.6124C458.106 61.494 458.559 61.4348 459.038 61.4348C459.764 61.4348 460.392 61.5613 460.919 61.8143C461.447 62.0673 461.853 62.428 462.138 62.8963C462.429 63.3647 462.574 63.9218 462.574 64.5678C462.574 65.1923 462.451 65.7737 462.203 66.312C461.955 66.845 461.608 67.3752 461.161 67.9028C460.715 68.425 460.192 68.9795 459.595 69.5662L457.027 72.126V72.1825H463.059V73.4099Z" fill="white"/>
<g clip-path="url(#clip1_1_6942)">
<path fill-rule="evenodd" clip-rule="evenodd" d="M61.743 62.6775C63.1888 57.5843 67.4463 53.8944 72.4734 53.8944C78.6907 53.8944 83.7307 59.5386 83.7307 66.5007C83.7307 72.9683 79.3813 78.2984 73.7792 79.023V75.0531C76.235 74.5873 78.2977 72.8288 79.3893 70.4249H76.2703C75.3262 71.5681 73.9751 72.284 72.4745 72.284C69.6206 72.284 67.3069 69.6947 67.3069 66.5007C67.3069 63.3067 69.6206 60.7176 72.4745 60.7176C74.0198 60.7176 75.4067 61.4766 76.3537 62.6798H79.4353C78.1728 59.8046 75.5302 57.826 72.4745 57.826C68.1936 57.826 64.7232 61.7098 64.7232 66.5007C64.7232 70.7997 67.5175 74.3684 71.1845 75.0559V79.0251C66.7622 78.4607 63.1179 75.0269 61.7727 70.4273H59.0804C60.6329 77.086 66.0408 82.0001 72.4734 82.0001C80.1175 82.0001 86.3145 75.0609 86.3145 66.5007C86.3145 57.9406 80.1175 51.0012 72.4734 51.0012C66.0074 51.0011 60.577 55.9663 59.0566 62.6775H61.743ZM99.1371 72.2043H96.1231V67.2156L96.9829 67.1671H98.7877C99.7195 67.151 100.44 67.379 100.95 67.8517C101.474 68.3082 101.736 68.9439 101.736 69.7591C101.736 70.509 101.503 71.1039 101.037 71.544C100.571 71.9841 99.9379 72.2043 99.1371 72.2043ZM102.042 65.899C102.453 65.5951 102.795 65.2435 103.068 64.8443C103.563 64.1271 103.811 63.3201 103.811 62.4236C103.811 61.364 103.6 60.4837 103.178 59.783C102.755 59.0656 102.158 58.5277 101.387 58.1691C100.63 57.7941 99.7267 57.6066 98.6785 57.6066L96.1231 57.639V57.6311H93.6332V74.7471H99.3336C100.353 74.7471 101.234 74.5596 101.976 74.1847C102.719 73.8098 103.294 73.2638 103.702 72.5465C104.11 71.8293 104.313 70.9653 104.313 69.9546C104.313 68.7973 104.037 67.8517 103.484 67.1184C103.11 66.6226 102.629 66.2161 102.042 65.899ZM96.1231 59.9539H98.5474C99.3918 59.9378 100.047 60.1416 100.513 60.5652C100.994 60.9891 101.234 61.5923 101.234 62.3746C101.234 63.1408 101.023 63.7439 100.6 64.184C100.193 64.6079 99.6248 64.8199 98.8969 64.8199H96.1231V59.9539ZM114.195 73.444L114.257 74.7471H116.551L116.616 68.0475C116.616 66.776 116.441 65.7084 116.092 64.8443C115.742 63.9803 115.211 63.3285 114.497 62.8884C113.798 62.448 112.918 62.2281 111.855 62.2281C111.025 62.2281 110.304 62.3667 109.692 62.6438C109.096 62.9209 108.6 63.2957 108.207 63.7686C107.814 64.2412 107.494 64.7465 107.246 65.2844L109.474 66.1646C109.736 65.6595 110.064 65.2844 110.457 65.0399C110.85 64.7954 111.301 64.6732 111.811 64.6732C112.364 64.6732 112.808 64.8199 113.143 65.1133C113.493 65.4067 113.748 65.8306 113.908 66.3848C113.993 66.6797 114.055 67.0139 114.095 67.3874H111.374C110.006 67.3874 108.935 67.7215 108.164 68.3898C107.406 69.0582 107.028 70.0279 107.028 71.2996C107.028 72.4894 107.385 73.4106 108.098 74.0625C108.826 74.7145 109.845 75.0406 111.156 75.0406C112.481 75.0406 113.456 74.5679 114.082 73.6224C114.121 73.5639 114.159 73.5045 114.195 73.444ZM114.148 69.6858V69.4902H112.16C111.185 69.4902 110.501 69.645 110.107 69.9547C109.714 70.2481 109.518 70.6721 109.518 71.2262C109.518 71.6989 109.685 72.0738 110.02 72.3509C110.37 72.6117 110.85 72.7421 111.461 72.7421C112 72.7421 112.466 72.6037 112.859 72.3264C113.267 72.0331 113.58 71.6582 113.798 71.2016C114.031 70.729 114.148 70.2238 114.148 69.6858ZM120.187 74.7471V57.6311H122.633V64.3069C122.927 63.7927 123.283 63.3686 123.703 63.0347C124.373 62.4967 125.166 62.2279 126.083 62.2279C127.074 62.2279 127.933 62.4967 128.661 63.0347C129.403 63.5563 129.978 64.2981 130.386 65.2599C130.808 66.2052 131.02 67.33 131.02 68.6341C131.02 69.9219 130.808 71.0466 130.386 72.0084C129.978 72.9703 129.403 73.72 128.661 74.2581C127.933 74.7797 127.074 75.0403 126.083 75.0403C125.166 75.0403 124.373 74.7797 123.703 74.2581C123.271 73.9036 122.906 73.4572 122.607 72.9189L122.502 74.7469H120.187V74.7471ZM122.982 70.6639C122.749 70.0769 122.633 69.4005 122.633 68.6343C122.633 67.8682 122.749 67.1918 122.982 66.6048C123.23 66.0181 123.572 65.5615 124.009 65.2355C124.445 64.9095 124.94 64.7465 125.494 64.7465C126.091 64.7465 126.615 64.9095 127.066 65.2355C127.518 65.5615 127.867 66.0181 128.115 66.6048C128.377 67.1918 128.508 67.8682 128.508 68.6343C128.508 69.4005 128.369 70.0769 128.093 70.6639C127.831 71.2507 127.474 71.7152 127.023 72.0575C126.571 72.3835 126.054 72.5465 125.472 72.5465C124.919 72.5465 124.424 72.3835 123.987 72.0575C123.564 71.7152 123.23 71.2507 122.982 70.6639ZM134.343 79.7108C134.78 79.8576 135.173 79.931 135.523 79.931C136.251 79.931 136.848 79.768 137.314 79.4419C137.78 79.1322 138.165 78.6839 138.471 78.097C138.791 77.5102 139.104 76.8256 139.41 76.0431L144.477 62.5215H141.813L138.578 71.5656L135.239 62.5215H132.574L137.429 74.6536L136.833 76.2142C136.688 76.6054 136.491 76.8989 136.243 77.0945C136.01 77.3064 135.719 77.4124 135.37 77.4124C135.224 77.4124 135.035 77.3636 134.802 77.2657C134.569 77.1842 134.314 77.0701 134.037 76.9233L133.12 79.1484C133.512 79.3761 133.921 79.5644 134.343 79.7108ZM147.026 74.7471V57.6311H149.472V74.747H147.026V74.7471ZM155.376 74.2337C156.235 74.7717 157.21 75.0406 158.303 75.0406C159.38 75.0406 160.341 74.7717 161.185 74.2337C162.03 73.6795 162.685 72.9215 163.152 71.9599C163.617 70.9979 163.85 69.8895 163.85 68.6343C163.85 67.3791 163.61 66.2707 163.129 65.309C162.664 64.3471 162.008 63.5973 161.164 63.0594C160.319 62.5052 159.351 62.2281 158.259 62.2281C157.167 62.2281 156.199 62.5052 155.354 63.0594C154.509 63.5973 153.847 64.3471 153.367 65.309C152.901 66.2707 152.668 67.3791 152.668 68.6343C152.668 69.8895 152.908 70.9979 153.389 71.9599C153.869 72.9215 154.532 73.6795 155.376 74.2337ZM159.897 72.0331C159.431 72.3592 158.9 72.5222 158.303 72.5222C157.691 72.5222 157.145 72.3592 156.665 72.0331C156.199 71.6908 155.828 71.2344 155.551 70.6639C155.289 70.0769 155.157 69.4005 155.157 68.6343C155.157 67.8682 155.289 67.1918 155.551 66.6048C155.813 66.0181 156.177 65.5615 156.642 65.2355C157.109 64.9095 157.647 64.7465 158.259 64.7465C158.871 64.7465 159.409 64.9177 159.875 65.2601C160.342 65.5861 160.705 66.0424 160.967 66.6293C161.244 67.1999 161.382 67.8682 161.382 68.6343C161.382 69.4005 161.251 70.0769 160.989 70.6639C160.727 71.2344 160.363 71.6908 159.897 72.0331ZM167.062 62.5215H169.355L169.471 64.2218C169.76 63.6989 170.114 63.2789 170.534 62.9616C171.16 62.4726 171.903 62.2281 172.762 62.2281C174.087 62.2281 175.106 62.6845 175.82 63.5973C176.548 64.4939 176.911 65.8794 176.911 67.7541V74.7471H174.466V68.4876C174.466 67.5096 174.364 66.7598 174.16 66.238C173.97 65.7002 173.693 65.3252 173.33 65.1133C172.981 64.9015 172.565 64.7954 172.085 64.7954C171.269 64.7792 170.637 65.0807 170.185 65.7002C169.733 66.3195 169.507 67.2079 169.507 68.3654V74.7471H167.062V62.5215Z" fill="white"/>
<path d="M75.3077 66.4939C75.3077 68.2498 74.0363 69.6731 72.468 69.6731C70.8998 69.6731 69.6284 68.2498 69.6284 66.4939C69.6284 64.7379 70.8998 63.3145 72.468 63.3145C74.0363 63.3145 75.3077 64.7379 75.3077 66.4939Z" fill="#FF7C2B"/>
</g>
<path d="M953.215 247.035H965.916V249.972H953.215V247.035ZM967.186 242.378H970.282V257.249H967.186V242.378ZM958.269 241.796H961.392V263.996H958.269V241.796ZM973.457 239.679H976.606V260.133C976.606 262.011 976.236 262.884 975.151 263.414C974.039 263.916 972.293 264.022 969.859 264.022C969.7 263.096 969.197 261.641 968.747 260.741C970.494 260.794 972.187 260.794 972.743 260.794C973.246 260.794 973.457 260.635 973.457 260.133V239.679ZM963.588 239.282L965.863 241.716C962.503 243.039 957.846 243.939 953.85 244.495C953.718 243.78 953.268 242.669 952.898 242.008C956.761 241.425 961.021 240.446 963.588 239.282ZM958.243 248.437L960.386 249.363C959.063 253.332 956.735 258.069 954.247 260.715C953.93 259.762 953.136 258.439 952.607 257.592C954.882 255.396 957.184 251.533 958.243 248.437ZM960.915 251.11C961.947 251.771 965.228 254.523 965.996 255.211L964.196 257.936C963.032 256.508 960.571 253.941 959.275 252.75L960.915 251.11ZM984.094 240.949H1000.34V243.966H984.094V240.949ZM984.094 247.035H1000.39V249.998H984.094V247.035ZM984.041 253.28H1000.5V256.269H984.041V253.28ZM982.268 240.949H985.417V250.475C985.417 254.682 984.888 260.635 981.633 264.181C981.131 263.572 979.834 262.514 979.146 262.117C982.03 258.915 982.268 254.179 982.268 250.448V240.949ZM999.229 240.949H1002.38V260.291C1002.38 261.985 1002.01 262.832 1000.95 263.334C999.838 263.837 998.25 263.89 995.842 263.864C995.71 263.017 995.234 261.641 994.811 260.821C996.319 260.926 998.065 260.9 998.541 260.9C999.044 260.874 999.229 260.715 999.229 260.265V240.949ZM990.418 242.14H993.646V263.705H990.418L990.418 242.14ZM1022.27 245.814C1021.5 245.814 1020.82 245.965 1020.23 246.266C1019.64 246.559 1019.15 246.985 1018.74 247.545C1018.35 248.105 1018.05 248.781 1017.84 249.574C1017.63 250.366 1017.53 251.258 1017.53 252.248C1017.53 253.583 1017.69 254.724 1018.02 255.672C1018.36 256.611 1018.87 257.33 1019.57 257.829C1020.27 258.32 1021.17 258.566 1022.27 258.566C1023.04 258.566 1023.8 258.48 1024.57 258.308C1025.35 258.135 1026.19 257.89 1027.09 257.571V260.93C1026.26 261.275 1025.43 261.52 1024.62 261.667C1023.81 261.822 1022.9 261.899 1021.9 261.899C1019.95 261.899 1018.35 261.499 1017.09 260.698C1015.84 259.888 1014.92 258.76 1014.31 257.313C1013.71 255.857 1013.41 254.16 1013.41 252.222C1013.41 250.792 1013.6 249.483 1013.99 248.295C1014.38 247.106 1014.95 246.077 1015.7 245.207C1016.44 244.337 1017.37 243.665 1018.47 243.191C1019.58 242.717 1020.84 242.481 1022.27 242.481C1023.21 242.481 1024.15 242.601 1025.09 242.842C1026.04 243.075 1026.94 243.398 1027.8 243.811L1026.51 247.067C1025.8 246.731 1025.09 246.438 1024.38 246.189C1023.66 245.939 1022.96 245.814 1022.27 245.814ZM1036.77 246.925C1038.1 246.925 1039.25 247.183 1040.22 247.7C1041.18 248.208 1041.93 248.949 1042.45 249.923C1042.98 250.896 1043.24 252.084 1043.24 253.488V255.401H1033.93C1033.97 256.512 1034.3 257.386 1034.92 258.023C1035.55 258.652 1036.42 258.966 1037.53 258.966C1038.45 258.966 1039.3 258.872 1040.06 258.682C1040.83 258.493 1041.62 258.208 1042.43 257.829V260.879C1041.71 261.232 1040.96 261.49 1040.18 261.654C1039.4 261.817 1038.46 261.899 1037.35 261.899C1035.9 261.899 1034.62 261.632 1033.5 261.098C1032.39 260.564 1031.51 259.75 1030.88 258.656C1030.25 257.562 1029.93 256.184 1029.93 254.522C1029.93 252.834 1030.22 251.43 1030.79 250.31C1031.36 249.182 1032.16 248.338 1033.19 247.778C1034.21 247.209 1035.41 246.925 1036.77 246.925ZM1036.79 249.729C1036.03 249.729 1035.39 249.974 1034.88 250.465C1034.38 250.956 1034.09 251.727 1034.02 252.778H1039.55C1039.54 252.192 1039.43 251.671 1039.22 251.214C1039.02 250.758 1038.72 250.396 1038.32 250.129C1037.92 249.862 1037.41 249.729 1036.79 249.729ZM1050.7 261.641H1046.75V242.752H1057.58V246.034H1050.7V250.904L1057.1 250.904V254.173L1050.7 254.173V261.641ZM1064.91 247.196V261.641H1060.97V247.196H1064.91ZM1062.94 241.537C1063.53 241.537 1064.03 241.675 1064.46 241.951C1064.88 242.218 1065.09 242.722 1065.09 243.463C1065.09 244.195 1064.88 244.703 1064.46 244.987C1064.03 245.263 1063.53 245.401 1062.94 245.401C1062.35 245.401 1061.84 245.263 1061.42 244.987C1061.01 244.703 1060.8 244.195 1060.8 243.463C1060.8 242.722 1061.01 242.218 1061.42 241.951C1061.84 241.675 1062.35 241.537 1062.94 241.537ZM1073.73 263.467C1072.12 261.509 1069.87 259.233 1068.02 257.645L1070.8 255.264C1072.68 256.799 1075.22 259.392 1076.57 261.032L1073.73 263.467ZM1095.82 261.641V242.752H1099.83V258.333H1107.49V261.641H1095.82ZM1122.67 261.641H1109.47V258.863L1114.21 254.07C1115.17 253.088 1115.93 252.27 1116.51 251.615C1117.1 250.952 1117.52 250.349 1117.78 249.806C1118.04 249.264 1118.18 248.682 1118.18 248.062C1118.18 247.313 1117.97 246.753 1117.54 246.382C1117.13 246.003 1116.57 245.814 1115.88 245.814C1115.14 245.814 1114.43 245.982 1113.74 246.318C1113.06 246.654 1112.34 247.132 1111.59 247.752L1109.42 245.181C1109.96 244.716 1110.53 244.276 1111.13 243.863C1111.75 243.45 1112.45 243.118 1113.25 242.868C1114.06 242.61 1115.03 242.481 1116.16 242.481C1117.4 242.481 1118.46 242.705 1119.35 243.152C1120.25 243.6 1120.94 244.212 1121.42 244.987C1121.9 245.754 1122.14 246.624 1122.14 247.597C1122.14 248.639 1121.94 249.591 1121.52 250.452C1121.11 251.314 1120.51 252.166 1119.71 253.01C1118.93 253.854 1117.98 254.789 1116.87 255.814L1114.44 258.101V258.282H1122.67V261.641ZM1141.96 245.5H1145.24V252.565H1141.96V245.5ZM1134.23 246.77H1153.31V249.39H1134.23V246.77ZM1131.56 250.898H1155.77V253.597H1131.56V250.898ZM1132.54 255.158H1154.98V257.857L1132.54 257.857V255.158ZM1147.2 253.227H1150.48V260.741C1150.48 262.276 1150.14 263.07 1149 263.546C1147.89 263.969 1146.38 264.022 1144.4 264.022C1144.24 263.123 1143.71 261.853 1143.26 261.059C1144.61 261.112 1146.17 261.112 1146.62 261.085C1147.07 261.085 1147.2 261.006 1147.2 260.662V253.227ZM1134.92 241.081H1143.36V243.675H1134.92V241.081ZM1145.43 241.081H1155.61V243.675H1145.43V241.081ZM1135.13 238.965L1138.15 239.785C1137.04 242.404 1135.24 245.05 1133.52 246.717C1132.91 246.188 1131.61 245.342 1130.87 244.945C1132.62 243.489 1134.21 241.214 1135.13 238.965ZM1145.82 238.965L1148.87 239.706C1147.91 242.272 1146.27 244.786 1144.63 246.347C1144.02 245.818 1142.73 244.971 1142.01 244.574C1143.65 243.251 1145.08 241.108 1145.82 238.965ZM1135.93 243.092L1138.49 242.087C1139.16 243.092 1139.92 244.442 1140.21 245.342L1137.49 246.453C1137.25 245.58 1136.56 244.151 1135.93 243.092ZM1147.46 243.145L1150.03 242.113C1150.82 243.092 1151.8 244.442 1152.23 245.368L1149.53 246.479C1149.16 245.606 1148.26 244.177 1147.46 243.145ZM1136.06 258.942L1138.36 257.143C1139.87 258.201 1141.7 259.762 1142.52 260.953L1140.06 262.937C1139.31 261.72 1137.57 260.08 1136.06 258.942ZM1160.67 243.463H1168.79V261.297H1160.67V258.492H1165.91V246.241H1160.67V243.463ZM1158.82 243.463H1161.7V263.255H1158.82V243.463ZM1160.54 250.528H1167.31V253.28H1160.54V250.528ZM1162.57 239.15L1166.04 239.653C1165.43 241.452 1164.77 243.331 1164.24 244.574L1161.7 244.019C1162.07 242.643 1162.44 240.605 1162.57 239.15ZM1172.28 243.278H1180.01V246.162H1172.28V243.278ZM1178.93 243.278H1181.86C1181.86 243.278 1181.86 244.31 1181.84 244.706C1181.49 256.613 1181.17 260.821 1180.09 262.223C1179.35 263.255 1178.61 263.546 1177.52 263.705C1176.52 263.864 1174.9 263.837 1173.37 263.758C1173.32 262.884 1172.89 261.535 1172.31 260.688C1174.03 260.821 1175.62 260.847 1176.28 260.847C1176.81 260.847 1177.1 260.741 1177.44 260.371C1178.29 259.471 1178.63 254.92 1178.93 243.886V243.278ZM1172.36 239.176L1175.41 239.891C1174.37 243.807 1172.65 247.829 1170.86 250.369C1170.27 249.84 1168.98 248.94 1168.24 248.517C1170.01 246.294 1171.52 242.696 1172.36 239.176ZM1171.07 250.898L1173.55 249.496C1174.85 251.321 1176.6 253.862 1177.42 255.423L1174.72 257.063C1174 255.449 1172.34 252.856 1171.07 250.898ZM1183.95 255.767C1185.99 255.37 1189.09 254.603 1192.08 253.862L1192.45 256.666C1189.91 257.513 1187.21 258.333 1185.04 258.995L1183.95 255.767ZM1190.75 239.362H1193.85V263.996H1190.75V239.362ZM1185.59 242.246H1188.64V256.508H1185.59V242.246ZM1197.9 243.913H1209.12V246.903H1197.9V243.913ZM1197.92 239.15L1201.18 239.785C1200.07 244.733 1198.11 249.469 1195.54 252.433C1195.04 251.798 1193.77 250.581 1193.06 250.025C1195.41 247.538 1197.08 243.436 1197.92 239.15ZM1204.59 245.5L1207.77 245.977C1206.07 254.92 1202.55 260.715 1195.54 264.102C1195.25 263.361 1194.33 261.905 1193.74 261.218C1200.2 258.466 1203.27 253.412 1204.59 245.5ZM1199.14 245.95C1200.54 252.988 1203.59 258.757 1209.38 261.27C1208.67 261.905 1207.66 263.176 1207.21 264.022C1200.94 260.926 1197.98 254.708 1196.26 246.506L1199.14 245.95ZM953.162 300.397H977.4V303.202H953.162V300.397ZM953.586 284.654H977.029V287.458H953.586V284.654ZM956.708 293.306H973.96V301.853H970.997V295.978H969.091V301.853H966.181V295.978H964.302V301.853H961.392V295.978H959.513V301.853H956.708V293.306ZM957.343 280.579L960.069 279.388C961.233 280.817 962.45 282.696 963.032 283.966L960.174 285.421C959.645 284.098 958.428 282.06 957.343 280.579ZM970.256 279.15L973.643 280.155C972.531 281.981 971.261 283.833 970.256 285.05L967.451 284.098C968.456 282.775 969.647 280.711 970.256 279.15ZM960.651 285.315L963.826 286.268C961.841 290.448 958.507 294.126 955.068 296.402C954.565 295.74 953.348 294.523 952.607 293.941C956.02 292.062 959.037 288.914 960.651 285.315ZM969.409 285.315C971.076 288.649 974.463 291.93 978.008 293.623C977.294 294.206 976.315 295.396 975.812 296.19C972.081 294.126 968.695 290.422 966.604 286.321L969.409 285.315ZM980.178 286.665H1003.33V289.39H980.178V286.665ZM990.339 285.236H993.752V304.022H990.339V285.236ZM981.898 290.686H1000.39V293.359H985.258V298.042H981.898V290.686ZM998.727 290.686H1002.01V295.211C1002.01 296.534 1001.74 297.169 1000.79 297.566C999.838 297.963 998.621 297.963 997.086 297.963C996.901 297.169 996.398 296.19 996.054 295.529C996.927 295.582 998.012 295.582 998.303 295.555C998.621 295.555 998.727 295.476 998.727 295.211V290.686ZM990.683 294.841L993.064 295.74C990.524 299.392 986.264 302.038 981.501 303.308C981.078 302.514 980.205 301.297 979.517 300.635C984.174 299.736 988.487 297.592 990.683 294.841ZM992.958 294.867C994.89 297.116 999.309 299.445 1004.36 300.344C1003.73 301.032 1002.8 302.302 1002.35 303.123C997.43 301.905 993.249 298.915 991.265 296.349L992.958 294.867ZM983.115 281.24H991.397V283.886H983.115V281.24ZM993.752 281.24H1003.78V283.886H993.752V281.24ZM983.248 278.991L986.29 279.811C985.206 282.352 983.486 284.918 981.819 286.532C981.21 286.029 979.914 285.183 979.173 284.786C980.866 283.383 982.401 281.161 983.248 278.991ZM993.911 278.991L997.033 279.758C996.054 282.404 994.387 284.971 992.694 286.585C992.112 286.056 990.789 285.183 990.021 284.759C991.715 283.41 993.17 281.214 993.911 278.991ZM984.174 283.331L986.793 282.404C987.481 283.436 988.301 284.839 988.619 285.765L985.894 286.797C985.602 285.897 984.862 284.415 984.174 283.331ZM995.71 283.119L998.383 282.299C999.15 283.331 1000.05 284.759 1000.42 285.712L997.589 286.638C997.271 285.685 996.451 284.204 995.71 283.119ZM1008.38 280.737H1016V298.81H1008.38V296.111H1013.62V283.463H1008.38V280.737ZM1006.8 280.737H1009.13V301.006H1006.8V280.737ZM1008.07 288.173H1014.84V290.792H1008.07V288.173ZM1019.42 300.397H1027.59V303.149H1019.42V300.397ZM1020.19 281.796H1027.28V284.415H1020.19V281.796ZM1010.34 282.352H1012.3V297.301H1010.34V282.352ZM1017.57 294.179H1029.05V303.969H1025.95V296.957H1020.53V303.996H1017.57V294.179ZM1026.59 281.796H1027.12L1027.65 281.664L1029.74 282.696C1027.44 288.887 1022.41 293.227 1016.9 295.582C1016.51 294.841 1015.71 293.703 1015.08 293.121C1020.05 291.269 1024.82 287.141 1026.59 282.325V281.796ZM1020.56 279.123L1023.55 279.944C1022.12 283.436 1019.74 286.77 1017.3 288.861C1016.8 288.279 1015.63 287.141 1014.97 286.638C1017.33 284.918 1019.42 282.087 1020.56 279.123ZM1020.45 283.727C1022.17 287.061 1026.01 290.951 1031.27 292.592C1030.61 293.2 1029.68 294.47 1029.23 295.264C1023.94 293.2 1020.08 288.834 1018.2 285.077L1020.45 283.727Z" fill="#FBFBFB"/>
<rect x="1222.25" y="239.25" width="49.5" height="27.5" rx="13.75" fill="#F7931A" fill-opacity="0.1"/>
<rect x="1222.25" y="239.25" width="49.5" height="27.5" rx="13.75" stroke="#F7931A" stroke-width="0.5"/>
<path d="M1246.94 248.292L1243.1 259H1241.85L1238 248.292H1239.3L1241.81 255.345C1241.91 255.628 1242 255.899 1242.08 256.158C1242.16 256.417 1242.24 256.666 1242.3 256.905C1242.36 257.145 1242.42 257.376 1242.47 257.601C1242.52 257.376 1242.57 257.145 1242.64 256.905C1242.7 256.661 1242.77 256.41 1242.86 256.151C1242.94 255.887 1243.03 255.611 1243.13 255.323L1245.62 248.292H1246.94ZM1255.24 256.517H1253.64V259H1252.45V256.517H1247.27V255.492L1252.37 248.233H1253.64V255.418H1255.24V256.517ZM1252.45 255.418V251.917C1252.45 251.649 1252.45 251.407 1252.46 251.192C1252.46 250.973 1252.47 250.77 1252.48 250.584C1252.49 250.394 1252.5 250.213 1252.5 250.042C1252.51 249.872 1252.52 249.703 1252.52 249.537H1252.47C1252.37 249.732 1252.27 249.94 1252.14 250.16C1252.03 250.375 1251.91 250.567 1251.78 250.738L1248.48 255.418H1252.45Z" fill="white"/>
<defs>
<clipPath id="clip0_1_6942">
<rect width="357" height="545" fill="white" transform="translate(399 357) rotate(-90)"/>
</clipPath>
<clipPath id="clip1_1_6942">
<rect width="118" height="31" fill="white" transform="translate(59 51)"/>
</clipPath>
</defs>
</svg>
