<svg width="367" height="328" viewBox="0 0 367 328" fill="none" xmlns="http://www.w3.org/2000/svg">
<g style="mix-blend-mode:overlay" opacity="0.47">
<path d="M144.48 324.056L4.19653 129.428L222.478 4.3457L362.761 198.974L361.41 199.748L144.496 324.056H144.48ZM8.63517 130.303L145.429 320.099L358.29 198.128L221.497 8.33205L8.63517 130.303Z" fill="#C26100"/>
</g>
<path opacity="0.5" d="M144.77 322.823L5.58032 129.715L222.157 5.60742L361.347 198.716L360.832 199.003L144.754 322.823H144.77ZM7.25285 130.03L145.14 321.332L359.69 198.386L221.803 7.08439L7.25285 130.03Z" fill="#C26100"/>
<path opacity="0.5" d="M144.77 322.823L5.58008 129.715L222.157 5.60742L361.346 198.716L360.832 199.003L144.754 322.823H144.77ZM7.25261 130.03L145.14 321.332L359.69 198.386L221.803 7.08439L7.25261 130.03Z" fill="#C26100"/>
<path d="M183.464 327.699L0 164.115L183.464 0.53125L366.927 164.115L183.464 327.699ZM4.53513 164.115L183.448 323.641L362.36 164.115L183.448 4.5893L4.53513 164.115Z" fill="#C26100"/>
<path d="M232.095 174.41C229.172 167.912 223.98 163.316 217.037 160.161C214.595 159.046 214.614 158.36 216.768 156.851C218.229 155.822 219.883 154.948 221.153 153.748C228.865 146.374 230.23 137.286 228.518 127.992C226.537 117.326 216.21 107.483 203.383 106.969C198.363 106.763 198.383 106.403 198.171 102.031C198.171 101.619 198.152 101.19 198.171 100.779C198.21 99.0126 197.325 98.1552 195.286 98.2238C193.229 98.2924 191.152 98.2238 189.094 98.2238C182.863 98.2238 182.747 98.2238 183.017 103.762C183.113 105.837 182.094 106.232 180.228 106.18C177.42 106.112 174.593 106.026 171.785 106.026C164.093 106.043 165.324 106.197 165.054 100.281C164.978 98.601 164.304 98.1037 162.554 98.1209C159.266 98.1552 155.977 98.2066 152.708 98.018C150.073 97.8637 148.823 98.6868 148.919 101.07C148.938 101.653 148.804 102.253 148.881 102.819C149.112 104.928 147.938 105.666 145.727 105.632C142.169 105.58 138.592 105.683 135.034 105.563C132.438 105.477 131.284 106.283 131.361 108.718C131.496 113.056 131.457 117.412 131.342 121.767C131.265 124.099 132.342 124.94 134.861 124.734C136.438 124.597 138.053 124.682 139.65 124.682C143.207 124.665 143.284 124.717 143.284 127.889C143.284 139.429 143.284 150.97 143.284 162.527C143.284 162.527 143.246 185.779 143.361 197.405C143.381 199.737 142.419 200.578 139.919 200.475C137.957 200.389 135.976 200.526 134.015 200.475C132.188 200.44 131.572 201.229 131.534 202.772C131.419 207.197 131.169 211.621 131.015 216.045C130.899 219.114 131.399 219.611 134.803 219.543C138.553 219.457 142.304 219.32 146.034 219.114C148.227 218.994 149.15 219.783 149.035 221.721C148.919 223.813 148.938 225.905 148.804 227.979C148.688 229.9 149.515 230.774 151.746 230.637C155.573 230.414 159.42 230.38 163.247 230.054C163.977 229.986 165.093 228.957 165.189 228.271C165.497 226.299 165.401 224.276 165.401 222.269C165.401 220.16 166.228 219.028 168.882 219.148C172.343 219.303 175.824 219.234 179.286 219.114C181.728 219.046 182.69 220.04 182.632 222.115C182.574 224.036 182.651 225.956 182.632 227.894C182.594 229.471 183.401 230.191 185.171 230.157C187.324 230.123 189.478 230.191 191.652 230.157C199.44 230.02 198.44 231.135 198.479 223.984C198.498 218.84 198.479 218.823 204.325 218.565C209.248 218.343 214.056 217.588 218.287 215.222C226.403 210.695 231.307 203.973 233.595 195.845C235.615 188.66 235.326 181.407 232.192 174.428L232.095 174.41ZM165.17 127.529C165.151 125.043 166.189 124.117 169.016 124.219C173.42 124.374 190.671 124.34 194.882 124.254C206.325 124.048 210.787 132.828 208.729 141.161C207.344 146.751 202.248 150.695 195.767 150.867C186.594 151.124 177.401 151.09 168.208 151.227C166.112 151.261 165.112 150.575 165.131 148.603C165.208 141.573 165.266 134.559 165.189 127.529H165.17ZM210.383 193.787C207.844 198.914 202.21 200.08 196.498 200.355C191.825 200.578 173.247 200.389 168.651 200.509C166.266 200.578 165.247 199.875 165.247 197.663C165.247 189.226 165.189 180.772 165.093 172.336C165.074 170.278 165.862 169.386 168.362 169.335C177.901 169.112 188.594 168.717 198.671 169.335C207.133 169.849 212.518 176.245 212.441 183.876C212.402 187.203 211.864 190.786 210.383 193.787Z" fill="#F6931A"/>
</svg>
