<svg width="270" height="270" viewBox="0 0 270 270" fill="none" xmlns="http://www.w3.org/2000/svg">
<path d="M269.924 127.949H0V141.353H269.924V127.949Z" fill="#0A0A0A"/>
<path d="M135 269.976C209.558 269.976 270 212.232 270 141.003C270 69.7726 209.558 12.0293 135 12.0293C60.4416 12.0293 0 69.7726 0 141.003C0 212.232 60.4416 269.976 135 269.976Z" fill="#BB7826"/>
<path d="M135 257.946C209.558 257.946 270 200.203 270 128.973C270 57.7433 209.558 0 135 0C60.4416 0 0 57.7433 0 128.973C0 200.203 60.4416 257.946 135 257.946Z" fill="#EB9B0B"/>
<path opacity="0.5" d="M134.962 163.88C202.936 163.88 262.43 129.314 262.43 87.3884C247.29 43.9955 203.131 0.602679 134.962 0C105.415 0 83.9021 7.83482 62.4535 19.8884C37.2199 36.7634 20.1872 55.4464 9.46289 81.9643C9.46289 123.89 66.9887 163.88 134.962 163.88Z" fill="white"/>
<path d="M244.693 130.932C245.043 73.0166 196.182 25.7968 135.561 25.4632C74.9399 25.1296 25.5136 71.8086 25.1644 129.724C24.8153 187.639 73.6755 234.858 134.297 235.192C194.918 235.525 244.344 188.846 244.693 130.932Z" fill="#EE972C" stroke="#905C1D" stroke-width="3.36656" stroke-miterlimit="10"/>
<path d="M168.785 123.687C170.784 123.878 172.766 124.242 174.709 124.776C181.532 126.727 185.965 131.136 187.962 137.989C189.509 143.044 189.831 148.375 188.9 153.528C187.714 159.771 184.186 164.362 178.987 167.717C174.678 170.501 169.907 172.2 164.981 173.526C163.189 174.013 161.38 174.43 159.567 174.822C158.979 174.946 158.887 175.194 158.989 175.772C160.004 181.628 160.966 187.495 161.995 193.352C162.141 194.179 161.981 194.403 161.149 194.513C157.864 194.944 154.583 195.459 151.312 195.982C150.717 196.09 150.59 195.96 150.491 195.388C149.522 189.551 148.511 183.718 147.548 177.879C147.436 177.22 147.275 176.994 146.573 177.108C144.034 177.499 141.488 177.854 138.935 178.172C138.283 178.252 138.186 178.488 138.289 179.098C139.305 184.955 140.274 190.824 141.295 196.678C141.407 197.337 141.281 197.508 140.638 197.609C137.309 198.081 133.979 198.586 130.648 199.124C130.048 199.22 129.872 199.02 129.77 198.442C128.791 192.551 127.763 186.666 126.788 180.754C126.663 179.99 126.424 179.823 125.681 179.914C118.451 181.003 111.271 182.071 104.063 183.151C103.552 183.229 103.36 183.173 103.363 182.584C103.356 178.231 103.33 173.887 103.284 169.551C103.276 168.999 103.525 168.907 103.988 168.849C106.482 168.503 108.98 168.181 111.452 167.739C114.538 167.189 115.714 165.367 115.187 162.244C113.552 152.607 111.922 142.97 110.296 133.333C109.06 126.015 107.824 118.697 106.587 111.378C106.084 108.415 103.583 106.413 100.416 106.494C97.9903 106.652 95.5805 106.967 93.2017 107.439C92.492 107.549 91.7829 107.645 91.0845 107.796C90.7031 107.879 90.5946 107.761 90.5256 107.379C89.8906 103.576 89.2556 99.7738 88.5832 95.9742C88.457 95.2957 88.9066 95.3413 89.2735 95.2846C92.1255 94.8462 94.9786 94.4401 97.8336 93.9939C102.146 93.3121 106.49 92.7932 110.794 92.0303C111.504 91.9072 111.712 91.7213 111.58 90.954C110.563 85.1829 109.595 79.378 108.59 73.6345C108.464 72.9105 108.578 72.6402 109.335 72.5365C112.621 72.0917 115.901 71.5903 119.169 71.0613C119.86 70.9528 120.025 71.1708 120.139 71.8216C121.084 77.5447 122.072 83.2627 123.022 88.9835C123.125 89.5934 123.249 89.7307 123.882 89.6207C126.405 89.1642 128.945 88.7463 131.485 88.374C132.219 88.2739 132.31 87.9805 132.199 87.3219C131.228 81.7469 130.295 76.1693 129.318 70.5967C129.186 69.8294 129.268 69.5006 130.143 69.3865C133.398 68.961 136.65 68.4522 139.889 67.9291C140.524 67.8246 140.721 67.97 140.83 68.6231C141.799 74.4603 142.821 80.288 143.771 86.1265C143.894 86.8717 144.148 86.9997 144.834 86.9846C149.491 86.6179 154.189 86.8823 158.802 87.7709C163.172 88.6918 167.188 90.3692 170.399 93.6733C173.892 97.3028 175.448 101.782 176.044 106.639C176.896 113.514 174.629 119.043 169.241 123.227C169.049 123.348 168.947 123.482 168.785 123.687ZM156.464 159.72L157.169 159.422C159.674 158.268 162.049 156.934 163.872 154.812C168.478 149.447 166.304 140.982 159.593 138.102C155.662 136.428 151.593 136.249 147.482 136.402C142.424 136.575 137.438 137.554 132.442 138.347C131.716 138.464 131.682 138.727 131.79 139.348C133.177 147.382 134.539 155.418 135.877 163.456C135.983 164.104 136.224 164.172 136.787 164.078C138.93 163.736 141.083 163.462 143.228 163.126C147.755 162.48 152.186 161.33 156.441 159.697L156.464 159.72ZM146.199 123.151C147.604 122.588 148.945 121.878 150.199 121.033C153.485 118.733 155.242 115.64 154.689 111.477C154.135 107.313 151.823 104.323 147.759 102.862C145.623 102.129 143.391 101.747 141.149 101.729C136.103 101.59 131.188 102.526 126.261 103.389C125.663 103.49 125.768 103.851 125.84 104.272C126.341 107.214 126.837 110.16 127.329 113.11C128.05 117.379 128.793 121.685 129.492 125.976C129.59 126.589 129.787 126.793 130.436 126.676C131.67 126.443 132.922 126.327 134.167 126.135C138.251 125.458 142.332 124.73 146.176 123.128L146.199 123.151Z" fill="white"/>
<path d="M135 34.8722C163.025 34.9154 189.975 45.1782 210.347 63.5646C230.719 81.951 242.976 107.074 244.615 133.803C244.729 131.814 244.792 129.813 244.792 127.776C244.948 113.9 242.222 100.133 236.772 87.2708C231.322 74.4084 223.256 62.7064 213.041 52.8419C202.827 42.9773 190.666 35.1462 177.263 29.8016C163.86 24.457 149.48 21.7051 134.956 21.7051C120.433 21.7051 106.053 24.457 92.6498 29.8016C79.2466 35.1462 67.0858 42.9773 56.8712 52.8419C46.6565 62.7064 38.5908 74.4084 33.1409 87.2708C27.6909 100.133 24.9649 113.9 25.1206 127.776C25.1206 129.789 25.1963 131.79 25.3098 133.803C26.9472 107.061 39.2143 81.9254 59.6031 63.5365C79.9918 45.1477 106.962 34.8941 135 34.8722Z" fill="#905C1D"/>
</svg>
