<svg width="594" height="241" viewBox="0 0 594 241" fill="none" xmlns="http://www.w3.org/2000/svg">
<g clip-path="url(#clip0_2165_2679)">
<path d="M0 16.1172C0 7.28063 7.16344 0.117188 16 0.117188H578C586.837 0.117188 594 7.28063 594 16.1172V240.117H0V16.1172Z" fill="#141414"/>
<path d="M594 0.00390625H0V240.004H594V0.00390625Z" fill="#212121"/>
<path d="M228.321 148.871C228.327 149.805 228.321 150.999 228.284 152.381L225.871 153.43C226.908 151.575 227.732 150.011 228.321 148.871Z" fill="#E2E2E2"/>
<path d="M225.241 154.542L228.266 153.238C228.217 154.657 228.139 156.245 228.005 157.955L221.028 161.531C222.646 158.997 224.059 156.621 225.247 154.548L225.241 154.542Z" fill="#E2E2E2"/>
<path d="M220.184 162.818L227.931 158.848C227.725 161.327 227.41 164.031 226.943 166.795L215.916 169.002C217.45 166.898 218.874 164.819 220.178 162.812L220.184 162.818Z" fill="#E2E2E2"/>
<path d="M227.802 147.348C227.232 148.487 226.201 150.476 224.771 153.022L223.71 148.348C225.037 147.99 226.401 147.657 227.802 147.348Z" fill="#E2E2E2"/>
<path d="M215.251 169.943L226.818 167.633C226.466 169.609 226.036 171.61 225.514 173.586L210.389 176.065C211.826 174.38 214.984 170.312 215.257 169.943H215.251Z" fill="#E2E2E2"/>
<path d="M209.59 176.975L225.279 174.398C224.667 176.587 223.927 178.733 223.048 180.758L204.14 182.679C206.062 180.843 207.88 178.915 209.584 176.969L209.59 176.975Z" fill="#E2E2E2"/>
<path d="M222.97 148.555L224.213 154.023C222.982 156.181 221.491 158.673 219.781 161.334L218.199 150.07C219.727 149.531 221.321 149.021 222.97 148.561V148.555Z" fill="#E2E2E2"/>
<path d="M203.211 183.551L222.689 181.574C221.416 184.351 219.846 186.879 217.937 188.97L197.434 188.315C199.441 186.867 201.368 185.26 203.211 183.557V183.551Z" fill="#E2E2E2"/>
<path d="M217.452 150.328L219.138 162.313C217.834 164.314 216.403 166.393 214.876 168.485L211.293 152.977C213.221 152.013 215.276 151.128 217.452 150.328Z" fill="#E2E2E2"/>
<path d="M196.385 189.047L217.214 189.714C216.378 190.538 215.481 191.284 214.517 191.933C208.709 195.824 201.125 195.758 191.965 191.726C193.475 190.932 194.948 190.029 196.385 189.047Z" fill="#E2E2E2"/>
<path d="M204.616 157.016L208.629 176.3C206.871 178.3 204.986 180.289 202.991 182.168L199.669 161.283C201.148 159.756 202.797 158.337 204.61 157.016H204.616Z" fill="#E2E2E2"/>
<path d="M199.003 161.992L202.313 182.81C200.391 184.58 198.36 186.241 196.263 187.727L194.02 169.067C194.365 168.406 194.741 167.739 195.147 167.078C196.257 165.284 197.542 163.587 199.003 161.998V161.992Z" fill="#E2E2E2"/>
<path d="M193.391 170.34L195.537 188.224C194.027 189.248 192.481 190.182 190.893 190.988C190.426 188.727 189.008 179.742 193.385 170.34H193.391Z" fill="#E2E2E2"/>
<path d="M210.579 153.35L214.271 169.312C214.01 169.657 210.779 173.822 209.275 175.574L205.304 156.526C206.941 155.387 208.699 154.326 210.579 153.344V153.35Z" fill="#E2E2E2"/>
<path d="M168.848 230.508V230.537C168.1 236.233 164.993 241.383 160.307 244.675C152.7 250.014 141.302 255.452 129.815 251.411V243.82C130.526 242.439 135.499 234.014 150.949 234.014C161.031 234.014 166.209 232.209 168.844 230.508H168.848Z" fill="#323232"/>
<path d="M168.848 204.992V205.021C168.1 210.717 164.993 215.876 160.307 219.159C152.7 224.507 141.298 229.936 129.815 225.904V218.305C130.526 216.924 135.499 208.498 150.949 208.498C161.031 208.498 166.209 206.694 168.844 204.992H168.848Z" fill="#323232"/>
<path d="M168.848 179.484V179.509C168.1 185.206 164.993 190.364 160.307 193.648C152.7 198.995 141.302 204.424 129.815 200.392V192.793C130.526 191.412 135.499 182.986 150.949 182.986C161.031 182.986 166.209 181.182 168.844 179.488L168.848 179.484Z" fill="#323232"/>
<path d="M168.848 153.961V153.99C168.1 159.686 164.993 164.836 160.307 168.128C153.394 172.978 143.349 177.914 132.947 175.744C131.907 175.522 130.863 175.234 129.815 174.865V167.273C130.526 165.892 135.499 157.459 150.949 157.459C161.031 157.459 166.209 155.662 168.844 153.961H168.848Z" fill="#323232"/>
<path d="M168.848 128.441V128.47C168.1 134.167 164.993 139.325 160.307 142.609C152.7 147.956 141.298 153.385 129.815 149.353V141.754C130.526 140.373 135.499 131.947 150.949 131.947C161.031 131.947 166.209 130.143 168.844 128.441H168.848Z" fill="#323232"/>
<path d="M127.527 243.816V251.415C116.039 255.447 104.642 250.018 97.0343 244.679C92.353 241.387 89.2417 236.237 88.4937 230.54V230.512C91.1282 232.213 96.3068 234.018 106.389 234.018C121.933 234.018 126.799 242.373 127.523 243.816H127.527Z" fill="#323232"/>
<path d="M127.527 218.305V225.904C116.039 229.936 104.642 224.507 97.0343 219.159C92.353 215.876 89.2417 210.717 88.4937 205.021V204.992C91.1282 206.694 96.3068 208.498 106.389 208.498C121.933 208.498 126.799 216.854 127.523 218.305H127.527Z" fill="#323232"/>
<path d="M127.527 192.781V200.38C116.039 204.412 104.642 198.983 97.0343 193.636C92.353 190.352 89.2417 185.194 88.4937 179.497V179.473C91.1282 181.17 96.3068 182.97 106.389 182.97C121.933 182.97 126.799 191.326 127.523 192.777L127.527 192.781Z" fill="#323232"/>
<path d="M127.527 141.746V149.353C116.039 153.385 104.642 147.956 97.0343 142.609C92.353 139.325 89.2417 134.167 88.4937 128.47V128.441C91.1282 130.143 96.3068 131.947 106.389 131.947C121.933 131.947 126.799 140.303 127.523 141.746H127.527Z" fill="#323232"/>
<path d="M127.527 167.273V174.865C126.479 175.23 125.435 175.522 124.395 175.744C113.992 177.914 103.947 172.978 97.0343 168.128C92.353 164.836 89.2417 159.686 88.4937 153.99V153.961C91.1282 155.662 96.3068 157.459 106.389 157.459C121.933 157.459 126.799 165.823 127.523 167.265V167.273H127.527Z" fill="#323232"/>
<path d="M129.437 141.641H127.908V264.231H129.437V141.641Z" fill="#323232"/>
<path d="M439.323 202.41V202.458C438.193 211.061 433.501 218.846 426.433 223.801C414.948 231.874 397.732 240.073 380.399 233.983V222.507C381.473 220.42 388.977 207.702 412.309 207.702C427.532 207.702 435.351 204.981 439.328 202.41H439.323Z" fill="#323232"/>
<path d="M439.323 163.895V163.929C438.193 172.533 433.501 180.318 426.433 185.273C414.948 193.346 397.741 201.544 380.399 195.455V183.979C381.473 181.892 388.977 169.174 412.309 169.174C427.532 169.174 435.351 166.452 439.328 163.891L439.323 163.895Z" fill="#323232"/>
<path d="M439.323 125.367V125.415C438.193 134.018 433.501 141.79 426.433 146.758C415.996 154.081 400.833 161.529 385.126 158.256C383.556 157.919 381.978 157.484 380.399 156.932V145.469C381.473 143.381 388.977 130.65 412.309 130.65C427.532 130.65 435.351 127.942 439.328 125.367H439.323Z" fill="#323232"/>
<path d="M439.323 86.8398V86.8873C438.193 95.4911 433.501 103.275 426.433 108.231C414.948 116.304 397.732 124.502 380.399 118.413V106.937C381.473 104.85 388.977 92.1315 412.309 92.1315C427.532 92.1315 435.351 89.4102 439.328 86.8398H439.323Z" fill="#323232"/>
<path d="M376.936 222.511V233.987C359.59 240.077 342.387 231.878 330.902 223.805C323.834 218.845 319.142 211.061 318.012 202.461V202.414C321.992 204.984 329.807 207.706 345.031 207.706C368.496 207.706 375.845 220.32 376.94 222.511H376.936Z" fill="#323232"/>
<path d="M376.936 183.986V195.462C359.59 201.552 342.387 193.354 330.902 185.28C323.834 180.321 319.142 172.536 318.012 163.937V163.902C321.992 166.464 329.807 169.185 345.031 169.185C368.496 169.185 375.845 181.8 376.94 183.991L376.936 183.986Z" fill="#323232"/>
<path d="M376.936 106.928V118.413C359.59 124.502 342.387 116.304 330.902 108.231C323.834 103.271 319.142 95.4867 318.012 86.8873V86.8398C321.992 89.4102 329.807 92.1315 345.031 92.1315C368.496 92.1315 375.845 104.746 376.94 106.928H376.936Z" fill="#323232"/>
<path d="M376.936 145.469V156.932C375.357 157.484 373.774 157.923 372.209 158.256C356.502 161.529 341.339 154.081 330.902 146.758C323.834 141.79 319.142 134.014 318.012 125.415V125.367C321.992 127.938 329.807 130.65 345.031 130.65C368.496 130.65 375.845 143.278 376.94 145.456V145.469H376.936Z" fill="#323232"/>
<path d="M379.819 106.766H377.512V291.852H379.819V106.766Z" fill="#323232"/>
<path d="M358.515 21.412C358.526 22.8819 358.52 24.7465 358.457 26.9142L354.671 28.5558C356.295 25.6445 357.594 23.1965 358.515 21.4062V21.412Z" fill="#323232"/>
<path d="M353.681 30.3133L358.423 28.2656C358.343 30.4906 358.223 32.9843 358.017 35.6611L347.07 41.2663C349.603 37.2912 351.828 33.562 353.681 30.3133Z" fill="#323232"/>
<path d="M345.755 43.3029L357.909 37.0742C357.583 40.9693 357.092 45.2018 356.365 49.543L339.069 53.0033C341.477 49.7031 343.708 46.4372 345.755 43.2972V43.3029Z" fill="#323232"/>
<path d="M357.696 19.0213C356.798 20.8116 355.185 23.9345 352.943 27.9211L351.284 20.5885C353.366 20.0223 355.505 19.5018 357.696 19.0156V19.0213Z" fill="#323232"/>
<path d="M338.004 54.4583L356.141 50.832C355.592 53.9321 354.917 57.0721 354.094 60.1664L330.363 64.0615C332.617 61.419 337.57 55.0417 338.004 54.4583Z" fill="#323232"/>
<path d="M329.129 65.4951L353.741 61.457C352.774 64.8888 351.625 68.2519 350.24 71.4378L320.584 74.452C323.604 71.5636 326.453 68.5494 329.124 65.4951H329.129Z" fill="#323232"/>
<path d="M350.112 20.9141L352.056 29.4878C350.123 32.8795 347.79 36.7803 345.107 40.9499L342.625 23.282C345.021 22.4355 347.515 21.6405 350.106 20.9141H350.112Z" fill="#323232"/>
<path d="M319.123 75.8128L349.671 72.707C347.669 77.0597 345.215 81.0291 342.213 84.3064L310.057 83.2769C313.203 81.0062 316.228 78.4838 319.123 75.8128Z" fill="#323232"/>
<path d="M341.46 23.6992L344.102 42.4996C342.054 45.6339 339.818 48.8941 337.416 52.1829L331.793 27.8574C334.813 26.3417 338.039 24.9575 341.46 23.6992Z" fill="#323232"/>
<path d="M308.412 84.4276L341.083 85.4743C339.767 86.7669 338.36 87.9394 336.85 88.9518C327.739 95.0546 315.842 94.946 301.474 88.6315C303.837 87.3846 306.153 85.9719 308.412 84.4219V84.4276Z" fill="#323232"/>
<path d="M321.332 34.1875L327.629 64.4385C324.872 67.5786 321.909 70.6958 318.786 73.6414L313.576 40.8794C315.898 38.4829 318.489 36.258 321.332 34.1875Z" fill="#323232"/>
<path d="M312.522 41.9901L317.71 74.6434C314.69 77.4174 311.516 80.0255 308.215 82.3534L304.698 53.0804C305.235 52.0452 305.825 50.9985 306.471 49.9575C308.21 47.1377 310.229 44.4781 312.522 41.9844V41.9901Z" fill="#323232"/>
<path d="M303.721 55.0938L307.09 83.1427C304.727 84.75 302.297 86.2085 299.809 87.4782C299.076 83.9321 296.851 69.8446 303.721 55.0938Z" fill="#323232"/>
<path d="M330.678 28.4336L336.466 53.4741C336.06 54.0174 330.993 60.5492 328.625 63.3004L322.396 33.4211C324.959 31.6309 327.721 29.9722 330.673 28.4336H330.678Z" fill="#323232"/>
<path d="M425.705 181.981C425.714 183.158 425.709 184.65 425.659 186.385L422.628 187.699C423.928 185.369 424.968 183.41 425.705 181.977V181.981Z" fill="#E2E2E2"/>
<path d="M421.837 189.104L425.632 187.465C425.568 189.246 425.472 191.242 425.307 193.385L416.544 197.871C418.573 194.689 420.354 191.704 421.837 189.104Z" fill="#E2E2E2"/>
<path d="M415.49 199.505L425.219 194.52C424.958 197.637 424.564 201.025 423.983 204.5L410.138 207.27C412.065 204.628 413.851 202.014 415.49 199.501V199.505Z" fill="#E2E2E2"/>
<path d="M425.05 180.063C424.331 181.496 423.04 183.996 421.245 187.187L419.918 181.318C421.584 180.864 423.297 180.448 425.05 180.059V180.063Z" fill="#E2E2E2"/>
<path d="M409.287 208.43L423.805 205.527C423.365 208.009 422.825 210.522 422.166 212.999L403.17 216.117C404.974 214.002 408.939 208.897 409.287 208.43Z" fill="#E2E2E2"/>
<path d="M402.181 217.26L421.881 214.027C421.108 216.774 420.187 219.466 419.079 222.017L395.341 224.429C397.758 222.117 400.038 219.704 402.176 217.26H402.181Z" fill="#E2E2E2"/>
<path d="M418.979 181.578L420.535 188.441C418.988 191.156 417.12 194.278 414.973 197.616L412.986 183.474C414.904 182.796 416.9 182.16 418.974 181.578H418.979Z" fill="#E2E2E2"/>
<path d="M394.173 225.521L418.626 223.035C417.023 226.519 415.059 229.697 412.656 232.32L386.916 231.496C389.434 229.678 391.856 227.659 394.173 225.521Z" fill="#E2E2E2"/>
<path d="M412.051 183.812L414.167 198.861C412.527 201.37 410.737 203.98 408.814 206.613L404.314 187.141C406.731 185.928 409.314 184.82 412.051 183.812Z" fill="#E2E2E2"/>
<path d="M385.598 232.419L411.75 233.256C410.697 234.291 409.571 235.23 408.362 236.04C401.069 240.925 391.546 240.838 380.045 235.784C381.936 234.786 383.79 233.655 385.598 232.414V232.419Z" fill="#E2E2E2"/>
<path d="M395.942 192.207L400.982 216.422C398.776 218.935 396.404 221.431 393.904 223.788L389.733 197.564C391.592 195.645 393.666 193.864 395.942 192.207Z" fill="#E2E2E2"/>
<path d="M388.89 198.45L393.042 224.588C390.625 226.808 388.084 228.896 385.442 230.759L382.626 207.327C383.057 206.499 383.528 205.661 384.046 204.828C385.438 202.57 387.054 200.441 388.89 198.445V198.45Z" fill="#E2E2E2"/>
<path d="M381.844 208.934L384.541 231.386C382.65 232.672 380.704 233.84 378.713 234.856C378.127 232.018 376.346 220.741 381.844 208.934Z" fill="#E2E2E2"/>
<path d="M403.427 187.598L408.06 207.642C407.735 208.077 403.679 213.305 401.783 215.507L396.797 191.59C398.849 190.157 401.06 188.829 403.422 187.598H403.427Z" fill="#E2E2E2"/>
<path d="M223.042 38.8784C223.035 39.7559 223.038 40.8689 223.076 42.1629L225.336 43.1427C224.366 41.4049 223.591 39.9436 223.042 38.875V38.8784Z" fill="#323232"/>
<path d="M225.929 44.1871L223.099 42.9648C223.146 44.293 223.218 45.7815 223.341 47.3794L229.876 50.7253C228.363 48.3524 227.035 46.1264 225.929 44.1871Z" fill="#323232"/>
<path d="M230.658 51.9446L223.403 48.2266C223.598 50.5516 223.892 53.0781 224.325 55.6695L234.65 57.7351C233.212 55.7651 231.881 53.8156 230.658 51.9412V51.9446Z" fill="#323232"/>
<path d="M223.529 37.4487C224.065 38.5174 225.028 40.3815 226.366 42.7612L227.356 38.3842C226.114 38.0462 224.837 37.7355 223.529 37.4453V37.4487Z" fill="#323232"/>
<path d="M235.284 58.606L224.458 56.4414C224.786 58.2919 225.189 60.1663 225.68 62.0134L239.846 64.3384C238.501 62.7611 235.544 58.9543 235.284 58.606Z" fill="#323232"/>
<path d="M240.585 65.1839L225.894 62.7734C226.471 64.8219 227.157 66.8295 227.983 68.7312L245.686 70.5305C243.883 68.8063 242.183 67.007 240.588 65.1839H240.585Z" fill="#323232"/>
<path d="M228.055 38.582L226.894 43.6999C228.048 45.7245 229.441 48.053 231.042 50.5419L232.524 39.9955C231.093 39.4902 229.605 39.0156 228.058 38.582H228.055Z" fill="#323232"/>
<path d="M246.555 71.35L228.319 69.4961C229.514 72.0943 230.979 74.4637 232.771 76.4201L251.966 75.8055C250.088 74.4501 248.282 72.9444 246.555 71.35Z" fill="#323232"/>
<path d="M233.223 40.2422L231.646 51.4646C232.868 53.3356 234.203 55.2817 235.637 57.2448L238.993 42.7243C237.19 41.8195 235.265 40.9933 233.223 40.2422Z" fill="#323232"/>
<path d="M252.95 76.4917L233.448 77.1165C234.233 77.8881 235.073 78.588 235.975 79.1923C241.413 82.8353 248.515 82.7704 257.091 79.0011C255.681 78.2568 254.298 77.4135 252.95 76.4883V76.4917Z" fill="#323232"/>
<path d="M245.24 46.5039L241.481 64.5615C243.126 66.4359 244.895 68.2967 246.759 70.055L249.869 50.4985C248.483 49.068 246.937 47.7398 245.24 46.5039Z" fill="#323232"/>
<path d="M250.498 51.1597L247.401 70.6512C249.204 72.3071 251.099 73.864 253.069 75.2536L255.168 57.7798C254.847 57.1618 254.496 56.537 254.11 55.9156C253.072 54.2324 251.867 52.6448 250.498 51.1562V51.1597Z" fill="#323232"/>
<path d="M255.75 58.9805L253.739 75.7236C255.149 76.683 256.6 77.5536 258.086 78.3116C258.523 76.1948 259.851 67.7857 255.75 58.9805Z" fill="#323232"/>
<path d="M239.654 43.0664L236.199 58.0137C236.442 58.3381 239.467 62.2371 240.88 63.8793L244.598 46.0436C243.069 44.9749 241.42 43.9848 239.658 43.0664H239.654Z" fill="#323232"/>
<path d="M334.949 152.875C334.941 153.878 334.945 155.149 334.988 156.628L337.57 157.748C336.462 155.762 335.577 154.092 334.949 152.871V152.875Z" fill="#E2E2E2"/>
<path d="M338.245 158.936L335.01 157.539C335.065 159.057 335.147 160.758 335.287 162.583L342.754 166.406C341.026 163.695 339.509 161.152 338.245 158.936Z" fill="#E2E2E2"/>
<path d="M343.652 167.807L335.362 163.559C335.585 166.215 335.92 169.102 336.416 172.063L348.213 174.423C346.57 172.172 345.049 169.945 343.652 167.803V167.807Z" fill="#E2E2E2"/>
<path d="M335.508 151.242C336.121 152.463 337.221 154.593 338.75 157.312L339.881 152.311C338.461 151.925 337.002 151.57 335.508 151.238V151.242Z" fill="#E2E2E2"/>
<path d="M348.939 175.411L336.568 172.938C336.942 175.052 337.403 177.194 337.964 179.304L354.151 181.961C352.613 180.159 349.235 175.809 348.939 175.411Z" fill="#E2E2E2"/>
<path d="M354.992 182.934L338.205 180.18C338.864 182.52 339.648 184.814 340.592 186.987L360.82 189.043C358.76 187.073 356.817 185.017 354.996 182.934H354.992Z" fill="#E2E2E2"/>
<path d="M340.679 152.531L339.353 158.379C340.671 160.693 342.263 163.353 344.093 166.197L345.786 154.146C344.151 153.569 342.45 153.027 340.683 152.531H340.679Z" fill="#E2E2E2"/>
<path d="M361.817 189.978L340.98 187.859C342.346 190.828 344.019 193.536 346.067 195.771L368 195.069C365.854 193.52 363.791 191.8 361.817 189.978Z" fill="#E2E2E2"/>
<path d="M346.581 154.43L344.779 167.253C346.175 169.391 347.701 171.614 349.339 173.858L353.174 157.266C351.114 156.232 348.914 155.288 346.581 154.43Z" fill="#E2E2E2"/>
<path d="M369.122 195.855L346.839 196.569C347.736 197.451 348.696 198.251 349.726 198.941C355.94 203.104 364.055 203.03 373.854 198.723C372.243 197.872 370.663 196.909 369.122 195.852V195.855Z" fill="#E2E2E2"/>
<path d="M360.309 161.59L356.014 182.223C357.895 184.365 359.915 186.491 362.045 188.5L365.599 166.154C364.016 164.52 362.248 163.002 360.309 161.59Z" fill="#E2E2E2"/>
<path d="M366.319 166.91L362.781 189.182C364.841 191.074 367.006 192.853 369.257 194.441L371.656 174.475C371.289 173.768 370.887 173.055 370.447 172.345C369.261 170.421 367.884 168.607 366.319 166.906V166.91Z" fill="#E2E2E2"/>
<path d="M372.323 175.84L370.025 194.971C371.636 196.068 373.294 197.062 374.991 197.928C375.49 195.51 377.008 185.901 372.323 175.84Z" fill="#E2E2E2"/>
<path d="M353.932 157.664L349.984 174.744C350.261 175.114 353.717 179.569 355.332 181.446L359.581 161.066C357.833 159.845 355.949 158.713 353.936 157.664H353.932Z" fill="#E2E2E2"/>
<path d="M379.772 154.91H375.721V266.974H379.772V154.91Z" fill="#E2E2E2"/>
<path d="M191.764 52.8008H186.096V228.024H191.764V52.8008Z" fill="#E2E2E2"/>
<path d="M376.863 157.123C386.177 157.123 393.728 149.573 393.728 140.259C393.728 130.945 386.177 123.395 376.863 123.395C367.549 123.395 359.999 130.945 359.999 140.259C359.999 149.573 367.549 157.123 376.863 157.123Z" fill="#EF9F00"/>
<path opacity="0.4" d="M376.864 153.781C384.334 153.781 390.389 147.725 390.389 140.256C390.389 132.786 384.334 126.73 376.864 126.73C369.394 126.73 363.339 132.786 363.339 140.256C363.339 147.725 369.394 153.781 376.864 153.781Z" fill="#BB7826"/>
<g style="mix-blend-mode:soft-light" opacity="0.5">
<path d="M364.344 141.012C364.344 133.542 370.4 127.487 377.87 127.487C380.666 127.487 383.266 128.335 385.421 129.79C383.089 127.879 380.112 126.73 376.861 126.73C369.391 126.73 363.335 132.786 363.335 140.256C363.335 144.487 365.279 148.262 368.321 150.742C366.971 149.369 365.912 147.709 365.244 145.863C364.665 144.357 364.344 142.722 364.344 141.012Z" fill="black"/>
</g>
<g filter="url(#filter0_d_2165_2679)">
<path d="M380.555 140.43C380.999 140.276 381.384 140.091 381.706 139.873C382.027 139.655 382.294 139.411 382.503 139.141C382.712 138.872 382.865 138.584 382.965 138.275C383.065 137.966 383.115 137.643 383.115 137.304C383.115 136.712 383.015 136.182 382.815 135.712C382.615 135.24 382.303 134.839 381.874 134.508C381.447 134.175 380.873 133.92 380.208 133.74C379.814 133.635 379.457 133.561 378.856 133.518V131.305H377.654V133.509H375.649V131.305H374.247V133.509H371.242V134.643C371.242 134.987 371.458 135.194 371.789 135.266C371.819 135.272 371.885 135.279 371.939 135.288C371.993 135.298 372.102 135.316 372.246 135.342C372.39 135.368 372.644 135.403 372.845 135.445V145.895C372.645 145.939 372.403 145.974 372.259 146C372.115 146.026 372.018 146.042 371.963 146.054C371.909 146.063 371.817 146.07 371.789 146.076C371.456 146.146 371.242 146.355 371.242 146.699V147.938H374.247V149.741H375.649V147.938H377.654V149.741H378.856V147.847C379.457 147.807 380.006 147.709 380.491 147.55C381.141 147.337 381.7 147.043 382.146 146.669C382.59 146.294 382.935 145.848 383.167 145.33C383.4 144.813 383.518 144.249 383.518 143.638C383.518 141.946 382.532 140.877 380.555 140.433V140.43ZM380.446 137.622C380.446 138.345 380.211 138.882 379.74 139.215C379.268 139.546 378.578 139.721 377.668 139.721H375.449V135.514H377.818C378.721 135.514 379.385 135.688 379.81 136.006C380.235 136.324 380.448 136.873 380.448 137.624L380.446 137.622ZM380.74 144.422C380.651 144.689 380.505 144.92 380.302 145.12C380.1 145.319 379.83 145.456 379.496 145.576C379.161 145.697 378.743 145.734 378.245 145.734H375.449V141.526H378.236C378.708 141.526 379.109 141.587 379.44 141.682C379.771 141.774 380.043 141.916 380.256 142.092C380.468 142.268 380.624 142.484 380.724 142.734C380.823 142.984 380.873 143.265 380.873 143.577C380.873 143.875 380.829 144.16 380.738 144.426L380.74 144.422Z" fill="#E2E2E2"/>
</g>
<path d="M293.404 75.2891H281.902V266.978H293.404V75.2891Z" fill="#E2E2E2"/>
<path d="M286.16 183.636C322.289 183.636 351.577 154.347 351.577 118.218C351.577 82.0892 322.289 52.8008 286.16 52.8008C250.031 52.8008 220.742 82.0892 220.742 118.218C220.742 154.347 250.031 183.636 286.16 183.636Z" fill="#EF9F00"/>
<path opacity="0.4" d="M286.16 170.683C315.136 170.683 338.627 147.193 338.627 118.217C338.627 89.2401 315.136 65.75 286.16 65.75C257.183 65.75 233.693 89.2401 233.693 118.217C233.693 147.193 257.183 170.683 286.16 170.683Z" fill="#BB7826"/>
<g style="mix-blend-mode:soft-light" opacity="0.5">
<path d="M237.594 121.143C237.594 92.1632 261.081 68.6759 290.061 68.6759C300.909 68.6759 310.99 71.9696 319.36 77.6136C310.318 70.2028 298.759 65.75 286.152 65.75C257.172 65.75 233.685 89.2373 233.685 118.217C233.685 134.629 241.223 149.275 253.023 158.892C247.787 153.568 243.678 147.132 241.088 139.969C238.841 134.125 237.594 127.786 237.594 121.151V121.143Z" fill="black"/>
</g>
<g filter="url(#filter1_d_2165_2679)">
<path d="M301.846 118.82C303.765 118.165 305.412 117.357 306.803 116.414C308.186 115.471 309.337 114.415 310.24 113.256C311.144 112.097 311.807 110.85 312.239 109.523C312.663 108.196 312.878 106.797 312.878 105.342C312.878 102.792 312.447 100.505 311.591 98.4748C310.736 96.4442 309.385 94.7094 307.538 93.2864C305.692 91.8554 303.229 90.7523 300.351 89.9848C298.657 89.5291 297.122 89.2094 294.532 89.0255V79.4883H289.351V88.9855H280.717V79.4883H274.674V88.9855H261.715V93.87C261.715 95.357 262.642 96.2444 264.081 96.5561C264.209 96.5801 264.497 96.6121 264.729 96.6521C264.961 96.692 265.432 96.772 266.048 96.8839C266.663 96.9958 267.767 97.1477 268.63 97.3316V142.364C267.767 142.555 266.727 142.699 266.104 142.811C265.488 142.923 265.064 142.995 264.833 143.043C264.601 143.083 264.209 143.115 264.081 143.139C262.65 143.443 261.723 144.338 261.723 145.825V151.165H274.682V158.936H280.725V151.165H289.359V158.936H294.54V150.774C297.13 150.598 299.496 150.174 301.582 149.495C304.389 148.583 306.795 147.312 308.713 145.697C310.632 144.082 312.119 142.156 313.118 139.925C314.118 137.695 314.637 135.265 314.637 132.626C314.637 125.336 310.384 120.723 301.862 118.812L301.846 118.82ZM301.375 106.717C301.375 109.835 300.359 112.145 298.329 113.576C296.298 115.007 293.324 115.758 289.407 115.758H279.846V97.6194H290.055C293.948 97.6194 296.802 98.3708 298.641 99.7459C300.471 101.121 301.391 103.487 301.391 106.717H301.375ZM302.638 136.024C302.254 137.167 301.623 138.167 300.751 139.03C299.88 139.885 298.721 140.477 297.274 140.997C295.827 141.508 294.036 141.676 291.885 141.676H279.83V123.537H291.837C293.868 123.537 295.595 123.801 297.026 124.208C298.457 124.608 299.624 125.224 300.543 125.983C301.463 126.743 302.134 127.678 302.558 128.749C302.99 129.82 303.205 131.036 303.205 132.387C303.205 133.674 303.014 134.897 302.622 136.04L302.638 136.024Z" fill="#E2E2E2"/>
</g>
<path d="M142.263 82.5664C142.268 83.3697 142.263 84.3912 142.231 85.5776L140.156 86.4767C141.044 84.886 141.757 83.5453 142.257 82.5664H142.263Z" fill="#323232"/>
<path d="M139.619 87.4351L142.215 86.3125C142.172 87.5308 142.103 88.8928 141.991 90.3611L136.001 93.4309C137.39 91.2549 138.608 89.212 139.619 87.4351Z" fill="#323232"/>
<path d="M135.275 94.5494L141.925 91.1445C141.745 93.2726 141.479 95.5922 141.08 97.9703L131.615 99.8643C132.934 98.0607 134.153 96.2732 135.275 94.5548V94.5494Z" fill="#323232"/>
<path d="M141.814 81.2631C141.325 82.242 140.442 83.9498 139.213 86.1311L138.303 82.1197C139.441 81.8111 140.612 81.5238 141.814 81.2578V81.2631Z" fill="#323232"/>
<path d="M131.043 100.656L140.97 98.6719C140.667 100.369 140.3 102.087 139.848 103.779L126.861 105.907C128.096 104.46 130.804 100.97 131.043 100.651V100.656Z" fill="#323232"/>
<path d="M126.186 106.692L139.657 104.484C139.13 106.362 138.497 108.203 137.741 109.943L121.51 111.592C123.164 110.012 124.723 108.363 126.186 106.692Z" fill="#323232"/>
<path d="M137.667 82.2891L138.731 86.9814C137.672 88.8382 136.395 90.9716 134.927 93.2539L133.57 83.5872C134.879 83.1243 136.246 82.6881 137.667 82.2891Z" fill="#323232"/>
<path d="M120.709 112.338L137.425 110.641C136.329 113.024 134.988 115.195 133.344 116.988L115.745 116.424C117.469 115.179 119.124 113.801 120.704 112.338H120.709Z" fill="#323232"/>
<path d="M132.929 83.8203L134.376 94.1095C133.253 95.8226 132.03 97.6102 130.715 99.4084L127.64 86.0973C129.295 85.2674 131.056 84.5119 132.929 83.8203Z" fill="#323232"/>
<path d="M114.848 117.055L132.729 117.629C132.011 118.337 131.239 118.981 130.414 119.534C125.43 122.875 118.918 122.816 111.054 119.358C112.347 118.677 113.613 117.901 114.848 117.055Z" fill="#323232"/>
<path d="M121.917 89.5625L125.364 106.119C123.853 107.837 122.236 109.545 120.523 111.157L117.671 93.2281C118.943 91.9193 120.358 90.701 121.917 89.5678V89.5625Z" fill="#323232"/>
<path d="M117.091 93.832L119.932 111.702C118.278 113.224 116.543 114.65 114.734 115.921L112.809 99.9023C113.107 99.3331 113.426 98.7638 113.777 98.1946C114.729 96.6517 115.836 95.194 117.086 93.832H117.091Z" fill="#323232"/>
<path d="M112.278 100.996L114.124 116.345C112.831 117.223 111.501 118.026 110.139 118.718C109.74 116.776 108.522 109.067 112.278 100.996Z" fill="#323232"/>
<path d="M127.032 86.4141L130.203 100.119C129.979 100.417 127.207 103.992 125.915 105.497L122.51 89.1486C123.914 88.1697 125.425 87.26 127.037 86.4194L127.032 86.4141Z" fill="#323232"/>
<path d="M156.453 110.781C156.448 111.548 156.453 112.519 156.483 113.651L158.46 114.509C157.615 112.994 156.936 111.718 156.457 110.786L156.453 110.781Z" fill="#E2E2E2"/>
<path d="M158.97 115.415L156.5 114.348C156.54 115.506 156.605 116.808 156.714 118.202L162.419 121.125C161.1 119.051 159.937 117.109 158.97 115.415Z" fill="#E2E2E2"/>
<path d="M163.103 122.186L156.766 118.941C156.936 120.971 157.193 123.179 157.572 125.444L166.588 127.247C165.333 125.527 164.17 123.824 163.103 122.186Z" fill="#E2E2E2"/>
<path d="M156.878 109.531C157.344 110.463 158.185 112.092 159.357 114.17L160.223 110.35C159.139 110.058 158.024 109.784 156.878 109.531Z" fill="#E2E2E2"/>
<path d="M167.146 128.003L157.69 126.113C157.978 127.729 158.33 129.367 158.757 130.978L171.126 133.008C169.951 131.631 167.368 128.304 167.146 128.003Z" fill="#E2E2E2"/>
<path d="M171.77 133.756L158.939 131.652C159.44 133.442 160.041 135.193 160.764 136.853L176.226 138.425C174.654 136.922 173.168 135.346 171.775 133.756H171.77Z" fill="#E2E2E2"/>
<path d="M160.831 110.516L159.816 114.984C160.822 116.752 162.042 118.786 163.44 120.96L164.733 111.753C163.483 111.308 162.181 110.895 160.835 110.516H160.831Z" fill="#E2E2E2"/>
<path d="M176.984 139.136L161.061 137.516C162.102 139.785 163.383 141.854 164.951 143.561L181.714 143.025C180.072 141.84 178.496 140.525 176.989 139.136H176.984Z" fill="#E2E2E2"/>
<path d="M165.343 111.973L163.967 121.772C165.034 123.405 166.201 125.108 167.451 126.82L170.382 114.142C168.81 113.353 167.129 112.63 165.343 111.973Z" fill="#E2E2E2"/>
<path d="M182.567 143.629L165.538 144.178C166.221 144.853 166.957 145.463 167.741 145.994C172.493 149.178 178.691 149.121 186.182 145.828C184.949 145.179 183.743 144.439 182.567 143.633V143.629Z" fill="#E2E2E2"/>
<path d="M175.834 117.438L172.55 133.208C173.988 134.846 175.529 136.47 177.163 138.003L179.876 120.926C178.665 119.676 177.315 118.518 175.834 117.438Z" fill="#E2E2E2"/>
<path d="M180.423 121.504L177.719 138.525C179.291 139.971 180.95 141.329 182.666 142.545L184.5 127.288C184.217 126.748 183.912 126.203 183.577 125.659C182.671 124.191 181.617 122.802 180.423 121.504Z" fill="#E2E2E2"/>
<path d="M185.015 128.332L183.26 142.953C184.493 143.789 185.76 144.551 187.053 145.213C187.437 143.367 188.595 136.019 185.015 128.332Z" fill="#E2E2E2"/>
<path d="M170.961 114.434L167.943 127.487C168.157 127.77 170.796 131.176 172.028 132.608L175.273 117.034C173.936 116.102 172.499 115.235 170.961 114.434Z" fill="#E2E2E2"/>
<path d="M189.168 103.634C204.249 103.634 216.474 91.4093 216.474 76.3289C216.474 61.2485 204.249 49.0234 189.168 49.0234C174.088 49.0234 161.863 61.2485 161.863 76.3289C161.863 91.4093 174.088 103.634 189.168 103.634Z" fill="#EF9F00"/>
<path opacity="0.4" d="M189.168 98.2223C201.262 98.2223 211.066 88.4181 211.066 76.324C211.066 64.23 201.262 54.4258 189.168 54.4258C177.074 54.4258 167.27 64.23 167.27 76.324C167.27 88.4181 177.074 98.2223 189.168 98.2223Z" fill="#BB7826"/>
<g style="mix-blend-mode:soft-light" opacity="0.5">
<path d="M168.901 77.5514C168.901 65.4537 178.706 55.6532 190.799 55.6532C195.33 55.6532 199.537 57.0294 203.029 59.3853C199.253 56.2948 194.429 54.4336 189.168 54.4336C177.071 54.4336 167.27 64.2391 167.27 76.3318C167.27 83.179 170.414 89.2964 175.342 93.3127C173.157 91.089 171.443 88.405 170.361 85.4124C169.42 82.9733 168.901 80.3285 168.901 77.5563V77.5514Z" fill="black"/>
</g>
<g filter="url(#filter2_d_2165_2679)">
<path d="M195.152 76.5966C195.871 76.3498 196.492 76.05 197.012 75.693C197.532 75.3403 197.964 74.9436 198.304 74.5072C198.643 74.0708 198.89 73.6036 199.053 73.1054C199.212 72.6073 199.296 72.0828 199.296 71.5318C199.296 70.5752 199.132 69.7156 198.811 68.9531C198.489 68.1905 197.982 67.5381 197.286 67.0047C196.593 66.4669 195.668 66.0526 194.588 65.7616C193.949 65.5897 193.376 65.4707 192.401 65.4002V61.8164H190.453V65.3869H187.209V61.8164H184.939V65.3869H180.072V67.2207C180.072 67.7761 180.42 68.1155 180.958 68.2301C181.007 68.2389 181.112 68.2522 181.201 68.2654C181.289 68.283 181.465 68.3095 181.699 68.3536C181.932 68.3932 182.342 68.4505 182.668 68.5211V85.4392C182.342 85.5097 181.954 85.567 181.721 85.6067C181.487 85.6464 181.328 85.6772 181.245 85.6949C181.156 85.7125 181.011 85.7213 180.962 85.7301C180.425 85.8447 180.076 86.1797 180.076 86.7396V88.7452H184.943V91.6634H187.213V88.7452H190.457V91.6634H192.406V88.5954C193.38 88.5292 194.266 88.3706 195.055 88.1149C196.109 87.7711 197.012 87.295 197.735 86.6867C198.454 86.0784 199.013 85.3554 199.388 84.5179C199.763 83.6804 199.957 82.7679 199.957 81.7761C199.957 79.0343 198.361 77.3063 195.156 76.5878L195.152 76.5966ZM194.976 72.0519C194.976 73.2245 194.592 74.0928 193.83 74.6306C193.067 75.1684 191.947 75.4505 190.475 75.4505H186.883V68.6357H190.717C192.181 68.6357 193.252 68.9178 193.94 69.4335C194.627 69.9493 194.971 70.8397 194.971 72.0519H194.976ZM195.452 83.0632C195.306 83.4952 195.073 83.8699 194.742 84.1917C194.416 84.5135 193.979 84.7383 193.437 84.9323C192.895 85.1262 192.221 85.1879 191.414 85.1879H186.887V78.3731H191.396C192.159 78.3731 192.807 78.4745 193.345 78.6243C193.883 78.7742 194.323 79.0034 194.667 79.2899C195.011 79.5765 195.262 79.9247 195.425 80.3258C195.588 80.727 195.668 81.1854 195.668 81.6923C195.668 82.1772 195.593 82.6357 195.447 83.0677L195.452 83.0632Z" fill="#E2E2E2"/>
</g>
<path d="M273.717 222.941H162.413V247.537H273.717V222.941Z" fill="#DF912A"/>
<path d="M273.717 222.941H162.413V247.537H273.717V222.941Z" fill="black" fill-opacity="0.05"/>
<g opacity="0.1">
<path d="M167.001 225.191C167.537 231.722 167.537 238.339 167.001 244.87C166.465 238.339 166.465 231.722 167.001 225.191Z" fill="black"/>
<path d="M175.293 225.191C175.829 231.722 175.829 238.339 175.293 244.87C174.757 238.339 174.757 231.722 175.293 225.191Z" fill="black"/>
<path d="M179.342 225.191C179.878 231.722 179.878 238.339 179.342 244.87C178.806 238.339 178.806 231.722 179.342 225.191Z" fill="black"/>
<path d="M201.569 225.191C202.105 231.722 202.105 238.339 201.569 244.87C201.033 238.339 201.033 231.722 201.569 225.191Z" fill="black"/>
<path d="M207.583 225.191C208.119 231.722 208.119 238.339 207.583 244.87C207.047 238.339 207.047 231.722 207.583 225.191Z" fill="black"/>
<path d="M232.45 225.191C232.986 231.722 232.986 238.339 232.45 244.87C231.914 238.339 231.914 231.722 232.45 225.191Z" fill="black"/>
<path d="M238.191 225.191C238.727 231.722 238.727 238.339 238.191 244.87C237.655 238.339 237.655 231.722 238.191 225.191Z" fill="black"/>
<path d="M248.747 225.191C249.283 231.722 249.283 238.339 248.747 244.87C248.211 238.339 248.211 231.722 248.747 225.191Z" fill="black"/>
<path d="M227.646 225.191C228.182 231.722 228.182 238.339 227.646 244.87C227.11 238.339 227.11 231.722 227.646 225.191Z" fill="black"/>
<path d="M186.686 225.191C187.222 231.722 187.222 238.339 186.686 244.87C186.15 238.339 186.15 231.722 186.686 225.191Z" fill="black"/>
<path d="M215.497 225.191C216.033 231.722 216.033 238.339 215.497 244.87C214.961 238.339 214.961 231.722 215.497 225.191Z" fill="black"/>
<path d="M219.637 225.191C220.173 231.722 220.173 238.339 219.637 244.87C219.101 238.339 219.101 231.722 219.637 225.191Z" fill="black"/>
<path d="M262.498 225.191C263.034 231.722 263.034 238.339 262.498 244.87C261.962 238.339 261.962 231.722 262.498 225.191Z" fill="black"/>
<path d="M268.712 225.191C269.248 231.722 269.248 238.339 268.712 244.87C268.176 238.339 268.176 231.722 268.712 225.191Z" fill="black"/>
<path d="M253.645 225.191C254.181 231.722 254.181 238.339 253.645 244.87C253.109 238.339 253.109 231.722 253.645 225.191Z" fill="black"/>
<path d="M196.766 225.191C197.302 231.722 197.302 238.339 196.766 244.87C196.23 238.339 196.23 231.722 196.766 225.191Z" fill="black"/>
</g>
<g style="mix-blend-mode:hard-light" opacity="0.14">
<path d="M273.712 222.941V228.169L162.408 231.676V222.941H273.712Z" fill="black"/>
</g>
<path d="M267.22 198.336H155.917V222.931H267.22V198.336Z" fill="#DF912A"/>
<path d="M267.22 198.336H155.917V222.931H267.22V198.336Z" fill="black" fill-opacity="0.05"/>
<g opacity="0.1">
<path d="M160.501 200.586C161.037 207.117 161.037 213.734 160.501 220.265C159.965 213.734 159.965 207.117 160.501 200.586Z" fill="black"/>
<path d="M168.792 200.586C169.328 207.117 169.328 213.734 168.792 220.265C168.256 213.734 168.256 207.117 168.792 200.586Z" fill="black"/>
<path d="M172.842 200.586C173.378 207.117 173.378 213.734 172.842 220.265C172.306 213.734 172.306 207.117 172.842 200.586Z" fill="black"/>
<path d="M195.073 200.586C195.609 207.117 195.609 213.734 195.073 220.265C194.537 213.734 194.537 207.117 195.073 200.586Z" fill="black"/>
<path d="M201.089 200.586C201.625 207.117 201.625 213.734 201.089 220.265C200.553 213.734 200.553 207.117 201.089 200.586Z" fill="black"/>
<path d="M225.955 200.586C226.491 207.117 226.491 213.734 225.955 220.265C225.419 213.734 225.419 207.117 225.955 200.586Z" fill="black"/>
<path d="M231.698 200.586C232.234 207.117 232.234 213.734 231.698 220.265C231.162 213.734 231.162 207.117 231.698 200.586Z" fill="black"/>
<path d="M242.248 200.586C242.784 207.117 242.784 213.734 242.248 220.265C241.712 213.734 241.712 207.117 242.248 200.586Z" fill="black"/>
<path d="M221.152 200.586C221.688 207.117 221.688 213.734 221.152 220.265C220.616 213.734 220.616 207.117 221.152 200.586Z" fill="black"/>
<path d="M180.186 200.586C180.722 207.117 180.722 213.734 180.186 220.265C179.65 213.734 179.65 207.117 180.186 200.586Z" fill="black"/>
<path d="M208.997 200.586C209.533 207.117 209.533 213.734 208.997 220.265C208.461 213.734 208.461 207.117 208.997 200.586Z" fill="black"/>
<path d="M213.145 200.586C213.681 207.117 213.681 213.734 213.145 220.265C212.609 213.734 212.609 207.117 213.145 200.586Z" fill="black"/>
<path d="M255.998 200.586C256.534 207.117 256.534 213.734 255.998 220.265C255.462 213.734 255.462 207.117 255.998 200.586Z" fill="black"/>
<path d="M262.216 200.586C262.752 207.117 262.752 213.734 262.216 220.265C261.68 213.734 261.68 207.117 262.216 200.586Z" fill="black"/>
<path d="M247.143 200.586C247.679 207.117 247.679 213.734 247.143 220.265C246.607 213.734 246.607 207.117 247.143 200.586Z" fill="black"/>
<path d="M190.271 200.586C190.807 207.117 190.807 213.734 190.271 220.265C189.735 213.734 189.735 207.117 190.271 200.586Z" fill="black"/>
</g>
<g style="mix-blend-mode:hard-light" opacity="0.14">
<path d="M267.214 198.336V203.563L155.917 207.077V198.336H267.214Z" fill="black"/>
</g>
<path d="M365.227 207.148H253.924V231.744H365.227V207.148Z" fill="#DF912A"/>
<path d="M365.227 207.148H253.924V231.744H365.227V207.148Z" fill="black" fill-opacity="0.05"/>
<g opacity="0.1">
<path d="M258.506 209.398C259.042 215.929 259.042 222.546 258.506 229.077C257.97 222.546 257.97 215.929 258.506 209.398Z" fill="black"/>
<path d="M266.798 209.398C267.334 215.929 267.334 222.546 266.798 229.077C266.262 222.546 266.262 215.929 266.798 209.398Z" fill="black"/>
<path d="M270.848 209.398C271.384 215.929 271.384 222.546 270.848 229.077C270.312 222.546 270.312 215.929 270.848 209.398Z" fill="black"/>
<path d="M293.075 209.398C293.611 215.929 293.611 222.546 293.075 229.077C292.539 222.546 292.539 215.929 293.075 209.398Z" fill="black"/>
<path d="M299.088 209.398C299.624 215.929 299.624 222.546 299.088 229.077C298.552 222.546 298.552 215.929 299.088 209.398Z" fill="black"/>
<path d="M323.955 209.398C324.491 215.929 324.491 222.546 323.955 229.077C323.419 222.546 323.419 215.929 323.955 209.398Z" fill="black"/>
<path d="M329.704 209.398C330.24 215.929 330.24 222.546 329.704 229.077C329.168 222.546 329.168 215.929 329.704 209.398Z" fill="black"/>
<path d="M340.254 209.398C340.79 215.929 340.79 222.546 340.254 229.077C339.718 222.546 339.718 215.929 340.254 209.398Z" fill="black"/>
<path d="M319.151 209.398C319.687 215.929 319.687 222.546 319.151 229.077C318.616 222.546 318.616 215.929 319.151 209.398Z" fill="black"/>
<path d="M278.192 209.398C278.728 215.929 278.728 222.546 278.192 229.077C277.656 222.546 277.656 215.929 278.192 209.398Z" fill="black"/>
<path d="M307.003 209.398C307.539 215.929 307.539 222.546 307.003 229.077C306.467 222.546 306.467 215.929 307.003 209.398Z" fill="black"/>
<path d="M311.143 209.398C311.679 215.929 311.679 222.546 311.143 229.077C310.607 222.546 310.607 215.929 311.143 209.398Z" fill="black"/>
<path d="M354.004 209.398C354.54 215.929 354.54 222.546 354.004 229.077C353.468 222.546 353.468 215.929 354.004 209.398Z" fill="black"/>
<path d="M360.222 209.398C360.758 215.929 360.758 222.546 360.222 229.077C359.686 222.546 359.686 215.929 360.222 209.398Z" fill="black"/>
<path d="M345.149 209.398C345.685 215.929 345.685 222.546 345.149 229.077C344.613 222.546 344.613 215.929 345.149 209.398Z" fill="black"/>
<path d="M288.277 209.398C288.813 215.929 288.813 222.546 288.277 229.077C287.741 222.546 287.741 215.929 288.277 209.398Z" fill="black"/>
</g>
<g style="mix-blend-mode:hard-light" opacity="0.14">
<path d="M365.22 207.148V212.376L253.924 215.883V207.148H365.22Z" fill="black"/>
</g>
<path d="M369.033 231.738H257.729V256.333H369.033V231.738Z" fill="#DF912A"/>
<path d="M369.033 231.738H257.729V256.333H369.033V231.738Z" fill="black" fill-opacity="0.05"/>
<g opacity="0.1">
<path d="M364.026 253.663C363.49 247.132 363.49 240.515 364.026 233.984C364.561 240.515 364.561 247.132 364.026 253.663Z" fill="black"/>
<path d="M355.738 253.663C355.202 247.132 355.202 240.515 355.738 233.984C356.274 240.515 356.274 247.132 355.738 253.663Z" fill="black"/>
<path d="M351.691 253.663C351.155 247.132 351.155 240.515 351.691 233.984C352.227 240.515 352.227 247.132 351.691 253.663Z" fill="black"/>
<path d="M329.455 253.663C328.919 247.132 328.919 240.515 329.455 233.984C329.991 240.515 329.991 247.132 329.455 253.663Z" fill="black"/>
<path d="M323.443 253.663C322.907 247.132 322.907 240.515 323.443 233.984C323.978 240.515 323.978 247.132 323.443 253.663Z" fill="black"/>
<path d="M298.576 253.663C298.04 247.132 298.04 240.515 298.576 233.984C299.112 240.515 299.112 247.132 298.576 253.663Z" fill="black"/>
<path d="M292.832 253.663C292.296 247.132 292.296 240.515 292.832 233.984C293.368 240.515 293.368 247.132 292.832 253.663Z" fill="black"/>
<path d="M282.284 253.663C281.748 247.132 281.748 240.515 282.284 233.984C282.82 240.515 282.82 247.132 282.284 253.663Z" fill="black"/>
<path d="M303.38 253.663C302.844 247.132 302.844 240.515 303.38 233.984C303.915 240.515 303.915 247.132 303.38 253.663Z" fill="black"/>
<path d="M344.338 253.663C343.802 247.132 343.802 240.515 344.338 233.984C344.874 240.515 344.874 247.132 344.338 253.663Z" fill="black"/>
<path d="M315.536 253.663C315.001 247.132 315.001 240.515 315.536 233.984C316.072 240.515 316.072 247.132 315.536 253.663Z" fill="black"/>
<path d="M311.386 253.663C310.85 247.132 310.85 240.515 311.386 233.984C311.922 240.515 311.922 247.132 311.386 253.663Z" fill="black"/>
<path d="M268.529 253.663C267.993 247.132 267.993 240.515 268.529 233.984C269.065 240.515 269.065 247.132 268.529 253.663Z" fill="black"/>
<path d="M262.315 253.663C261.779 247.132 261.779 240.515 262.315 233.984C262.851 240.515 262.851 247.132 262.315 253.663Z" fill="black"/>
<path d="M277.381 253.663C276.845 247.132 276.845 240.515 277.381 233.984C277.917 240.515 277.917 247.132 277.381 253.663Z" fill="black"/>
<path d="M334.261 253.663C333.725 247.132 333.725 240.515 334.261 233.984C334.797 240.515 334.797 247.132 334.261 253.663Z" fill="black"/>
</g>
<g style="mix-blend-mode:hard-light" opacity="0.14">
<path d="M369.028 231.738V236.966L257.724 240.473V231.738H369.028Z" fill="black"/>
</g>
</g>
<defs>
<filter id="filter0_d_2165_2679" x="371.057" y="131.12" width="13.016" height="19.1773" filterUnits="userSpaceOnUse" color-interpolation-filters="sRGB">
<feFlood flood-opacity="0" result="BackgroundImageFix"/>
<feColorMatrix in="SourceAlpha" type="matrix" values="0 0 0 0 0 0 0 0 0 0 0 0 0 0 0 0 0 0 127 0" result="hardAlpha"/>
<feOffset dx="0.184939" dy="0.184939"/>
<feGaussianBlur stdDeviation="0.184939"/>
<feColorMatrix type="matrix" values="0 0 0 0 0.517647 0 0 0 0 0.337255 0 0 0 0 0.027451 0 0 0 1 0"/>
<feBlend mode="normal" in2="BackgroundImageFix" result="effect1_dropShadow_2165_2679"/>
<feBlend mode="normal" in="SourceGraphic" in2="effect1_dropShadow_2165_2679" result="shape"/>
</filter>
<filter id="filter1_d_2165_2679" x="260.915" y="78.6888" width="56.1201" height="82.6469" filterUnits="userSpaceOnUse" color-interpolation-filters="sRGB">
<feFlood flood-opacity="0" result="BackgroundImageFix"/>
<feColorMatrix in="SourceAlpha" type="matrix" values="0 0 0 0 0 0 0 0 0 0 0 0 0 0 0 0 0 0 127 0" result="hardAlpha"/>
<feOffset dx="0.799432" dy="0.799432"/>
<feGaussianBlur stdDeviation="0.799432"/>
<feColorMatrix type="matrix" values="0 0 0 0 0.517647 0 0 0 0 0.337255 0 0 0 0 0.027451 0 0 0 1 0"/>
<feBlend mode="normal" in2="BackgroundImageFix" result="effect1_dropShadow_2165_2679"/>
<feBlend mode="normal" in="SourceGraphic" in2="effect1_dropShadow_2165_2679" result="shape"/>
</filter>
<filter id="filter2_d_2165_2679" x="179.631" y="61.3756" width="21.648" height="31.6109" filterUnits="userSpaceOnUse" color-interpolation-filters="sRGB">
<feFlood flood-opacity="0" result="BackgroundImageFix"/>
<feColorMatrix in="SourceAlpha" type="matrix" values="0 0 0 0 0 0 0 0 0 0 0 0 0 0 0 0 0 0 127 0" result="hardAlpha"/>
<feOffset dx="0.440806" dy="0.440806"/>
<feGaussianBlur stdDeviation="0.440806"/>
<feColorMatrix type="matrix" values="0 0 0 0 0.517647 0 0 0 0 0.337255 0 0 0 0 0.027451 0 0 0 1 0"/>
<feBlend mode="normal" in2="BackgroundImageFix" result="effect1_dropShadow_2165_2679"/>
<feBlend mode="normal" in="SourceGraphic" in2="effect1_dropShadow_2165_2679" result="shape"/>
</filter>
<clipPath id="clip0_2165_2679">
<path d="M0 16.1172C0 7.28063 7.16344 0.117188 16 0.117188H578C586.837 0.117188 594 7.28063 594 16.1172V240.117H0V16.1172Z" fill="white"/>
</clipPath>
</defs>
</svg>
