<svg width="48" height="35" viewBox="0 0 48 35" fill="none" xmlns="http://www.w3.org/2000/svg">
<path d="M46.6088 15.1267H44.5492L43.7164 9.8994C43.6943 9.76087 43.6178 9.63673 43.504 9.55398C43.3906 9.47159 43.2487 9.43797 43.1098 9.46014L41.0804 9.78451L39.4323 4.74898C39.3414 4.47116 39.0426 4.31932 38.7647 4.40984L36.8048 5.04971L34.3875 0.344454H34.3871C34.3228 0.219213 34.212 0.125004 34.0782 0.0821508C33.9445 0.0389258 33.7989 0.0511175 33.6741 0.115031L0.287998 17.2545C0.163127 17.3188 0.068549 17.43 0.0253268 17.5637C-0.0175284 17.6974 -0.00570591 17.8426 0.0585769 17.9679L8.60201 34.6032V34.6036L8.60607 34.6113C8.60976 34.6187 8.61715 34.6232 8.62122 34.6305L8.62159 34.6298C8.64338 34.6686 8.67035 34.7044 8.70176 34.7358C8.71099 34.7451 8.71838 34.7554 8.72799 34.7639L8.7435 34.7772C8.75163 34.7839 8.7605 34.7894 8.769 34.7953V34.7957C8.79412 34.8131 8.82109 34.8282 8.84954 34.8408C8.86431 34.8478 8.87687 34.8574 8.89239 34.8629C8.89867 34.8651 8.90421 34.8681 8.91049 34.8703L8.91566 34.8733L8.92047 34.874V34.8736C8.96997 34.8892 9.02133 34.8973 9.07342 34.8977L9.07674 34.8984H46.6082C46.9004 34.8984 47.1376 34.6612 47.1376 34.3686V15.6573C47.1376 15.5169 47.0818 15.382 46.9824 15.2827C46.883 15.1833 46.7486 15.1275 46.6082 15.1275L46.6088 15.1267ZM42.754 10.5895L44.0596 18.7794L44.0947 18.9993L42.9483 15.4917L42.948 15.4914L41.4136 10.8039L42.754 10.5895ZM38.59 5.58135L40.2111 10.5356C40.2119 10.5386 40.2111 10.5412 40.2119 10.5441L41.2367 13.6763L37.2947 6.00362L38.59 5.58135ZM9.30671 33.655L1.24317 17.955L33.6863 1.2998L36.067 5.9345L36.0674 5.93598L41.7506 16.9997L31.2146 22.4066L23.9764 26.124L23.6118 26.3113H23.6114C23.5852 26.3205 23.5593 26.3312 23.5346 26.3441L16.3463 30.0445H16.3459C16.3289 30.0512 16.3126 30.0586 16.2964 30.0671L14.3616 31.0605L9.30671 33.655ZM16.7344 31.0316C16.7444 31.0279 16.754 31.0227 16.7636 31.0183C16.771 31.0149 16.7784 31.012 16.7858 31.0083L23.9826 27.3035L23.9918 27.2994L23.9922 27.2998C24.0147 27.292 24.0369 27.2828 24.0583 27.2721L42.5758 17.767L44.0794 22.3625L25.8863 28.312L24.8323 28.6652C24.8016 28.6726 24.7761 28.6804 24.7495 28.6889C24.7229 28.6955 24.6937 28.7033 24.6815 28.7074L15.2611 31.7885L16.7344 31.0316ZM25.0044 29.716C25.0258 29.7115 25.0473 29.7056 25.068 29.699L25.1267 29.6816L44.5616 23.3183L44.7707 23.25L45.5302 28.0225L15.6 32.7924L25.0044 29.716ZM46.0783 33.8386H15.766L46.0783 29.0078V33.8386ZM46.0783 24.7281L44.7191 16.1862H46.0783V24.7281Z" fill="white"/>
<path d="M25.7132 15.3133C25.1376 14.1972 24.1427 13.3548 22.9464 12.971C21.7504 12.5871 20.4511 12.6935 19.3332 13.2661C18.2178 13.841 17.3759 14.8352 16.9931 16.0304C16.6104 17.2256 16.7179 18.5237 17.2917 19.6399C17.8658 20.7556 18.8596 21.5979 20.0544 21.9818C21.2492 22.3653 22.5474 22.2589 23.6639 21.6855C24.7803 21.1121 25.6234 20.1191 26.0076 18.9247C26.3922 17.7299 26.2862 16.4317 25.7139 15.3148L25.7132 15.3133ZM24.9979 18.6032V18.6035C24.7201 19.4691 24.1312 20.2007 23.345 20.6577C22.5592 21.1147 21.6319 21.2639 20.7422 21.0774C19.8526 20.8904 19.0634 20.381 18.5273 19.6465C17.9916 18.912 17.7467 18.0054 17.8402 17.101C17.9336 16.1966 18.3589 15.3591 19.0335 14.7499C19.7084 14.1407 20.5847 13.8034 21.494 13.8022C22.6704 13.7989 23.7768 14.3594 24.4703 15.3096C25.1637 16.2595 25.3599 17.4845 24.9979 18.6036L24.9979 18.6032Z" fill="white"/>
<path d="M35.7888 17.7865L35.5893 17.2692C35.5003 17.0354 35.4541 16.7871 35.453 16.5366C35.4522 16.0944 35.5941 15.6636 35.8575 15.3082C36.1209 14.9532 36.4922 14.6924 36.9157 14.5649C37.0657 14.5187 37.1872 14.4086 37.2482 14.2642C37.3088 14.1197 37.3025 13.9557 37.2308 13.816L33.6401 6.82284C33.5685 6.68318 33.4388 6.58269 33.2862 6.54797C33.1333 6.51325 32.9729 6.54797 32.848 6.64292C32.3504 7.01717 31.712 7.15017 31.1065 7.00608C31.0928 7.00239 31.0784 6.99906 31.0636 6.99648C30.5789 6.86865 30.1578 6.56718 29.8803 6.14971L29.5722 5.68421H29.5725C29.4233 5.45921 29.1292 5.382 28.889 5.50503L7.46616 16.5054H7.46579C7.22713 16.6284 7.11777 16.9103 7.21161 17.1623L7.40705 17.685C7.49571 17.9193 7.54152 18.1672 7.54337 18.4173C7.54448 18.8588 7.40335 19.2892 7.14104 19.6442C6.87874 19.9997 6.50855 20.2608 6.08631 20.389C5.93669 20.4352 5.81513 20.5453 5.75455 20.6894C5.69359 20.8339 5.69987 20.9975 5.77117 21.1368L9.36297 28.1319V28.1315C9.43464 28.2708 9.56431 28.3713 9.7169 28.406C9.86948 28.4404 10.0298 28.4057 10.1543 28.3111C10.5123 28.0373 10.9497 27.8877 11.4001 27.8844C12.0906 27.8818 12.736 28.228 13.1158 28.8043L13.424 29.2698C13.5728 29.4952 13.8673 29.572 14.1074 29.449L35.536 18.4477C35.7773 18.3243 35.8859 18.0387 35.7887 17.786L35.7888 17.7865ZM34.5992 17.6457L34.6291 17.7233L14.0452 28.2905L13.9997 28.2214H13.9993C13.5845 27.5911 12.9538 27.1341 12.2256 26.9353C11.4974 26.7366 10.722 26.8097 10.0445 27.1419L6.97285 21.1605C7.46717 20.8934 7.87947 20.4974 8.16652 20.0142C8.45359 19.5313 8.60395 18.9794 8.6021 18.4178C8.60025 18.0406 8.53154 17.6671 8.39891 17.3139L8.36862 17.2333L28.9507 6.66422L28.9973 6.73478C29.4254 7.38057 30.0797 7.84276 30.8312 8.03116C30.8416 8.03375 30.8523 8.03597 30.863 8.03781C31.566 8.20739 32.3061 8.12833 32.957 7.81319L36.0279 13.7934C35.5325 14.0597 35.1187 14.4558 34.8309 14.939C34.5431 15.4222 34.392 15.9745 34.3939 16.5369C34.395 16.9159 34.4644 17.2917 34.5993 17.646L34.5992 17.6457Z" fill="white"/>
<path d="M29.8946 12.5705L27.7263 13.6837V13.684C27.5999 13.7472 27.5039 13.8584 27.4599 13.9929C27.4159 14.127 27.4274 14.2737 27.492 14.3993C27.5567 14.5253 27.6686 14.6198 27.8035 14.6623C27.9383 14.7052 28.0846 14.6923 28.2099 14.6265L30.3782 13.5133V13.5129C30.6349 13.3777 30.7354 13.0607 30.6028 12.8025C30.4702 12.5439 30.1543 12.4404 29.8946 12.5705H29.8946Z" fill="white"/>
<path d="M14.789 20.3278L12.6207 21.4409C12.4954 21.5049 12.4009 21.6161 12.3576 21.7498C12.3144 21.8835 12.3262 22.0291 12.3905 22.1543C12.4544 22.2792 12.566 22.3738 12.6998 22.4166C12.8339 22.4599 12.979 22.4477 13.1043 22.3834L15.2726 21.2702C15.3989 21.2067 15.4946 21.0955 15.5386 20.9614C15.5826 20.8269 15.5711 20.6806 15.5064 20.555C15.4418 20.429 15.3299 20.3344 15.195 20.2915C15.0602 20.2491 14.9138 20.262 14.789 20.3278L14.789 20.3278Z" fill="white"/>
</svg>
