<svg width="675" height="217" viewBox="0 0 675 217" fill="none" xmlns="http://www.w3.org/2000/svg">
<path d="M246.908 86.2892C264.684 86.2892 273.572 93.1682 273.572 106.916C273.572 113.286 271.406 118.44 267.085 122.36C262.753 126.289 256.031 128.249 246.908 128.249H233.219V150.993H220.137V86.2892H246.908ZM233.219 97.1565V117.284H246.908C251.132 117.284 254.454 116.392 256.874 114.619C259.285 112.845 260.5 110.278 260.5 106.916C260.5 100.41 255.972 97.1565 246.918 97.1565H233.228H233.219Z" fill="black"/>
<path d="M291.69 130.768C291.69 131.032 291.719 131.405 291.788 131.875C291.857 132.345 292.141 133.149 292.641 134.286C293.14 135.432 293.866 136.432 294.806 137.304C295.747 138.176 297.256 138.979 299.333 139.714C301.411 140.449 303.861 140.822 306.683 140.822C311.308 140.822 314.767 140.096 317.05 138.656C319.334 137.215 320.47 135.354 320.47 133.07C320.47 131.189 319.735 129.602 318.256 128.288C316.776 126.985 314.836 125.927 312.415 125.114C310.005 124.31 307.349 123.555 304.468 122.85C301.587 122.144 298.697 121.36 295.816 120.488C292.935 119.616 290.279 118.577 287.868 117.372C285.458 116.167 283.488 114.472 281.979 112.286C280.47 110.111 279.676 107.573 279.617 104.692V104.388C279.617 98.4205 281.979 93.7364 286.712 90.3459C291.445 86.9554 297.864 85.2601 305.987 85.2601C310.818 85.2601 315.022 85.8775 318.618 87.122C322.205 88.3665 324.841 89.8854 326.516 91.6982C328.192 93.5111 329.515 95.3043 330.495 97.0878C331.465 98.8614 332.024 100.39 332.151 101.664L332.357 103.477H318.471C318.471 103.271 318.422 103.026 318.324 102.722C318.226 102.419 317.923 101.87 317.423 101.056C316.923 100.253 316.266 99.5278 315.463 98.8908C314.659 98.2539 313.435 97.6855 311.788 97.176C310.142 96.6762 308.251 96.4214 306.105 96.4214C302.009 96.4214 298.844 97.127 296.59 98.5381C294.346 99.9492 293.219 101.693 293.219 103.771V104.173C293.356 105.721 294.189 107.024 295.737 108.102C297.276 109.18 299.275 110.032 301.724 110.669C304.174 111.306 306.84 111.924 309.73 112.531C312.611 113.139 315.502 113.903 318.383 114.844C321.264 115.785 323.9 116.941 326.281 118.313C328.662 119.685 330.593 121.615 332.073 124.104C333.542 126.583 334.287 129.533 334.287 132.963C334.287 138.999 331.877 143.683 327.046 147.005C322.215 150.327 315.434 151.983 306.712 151.983C303.018 151.983 299.647 151.591 296.599 150.827C293.542 150.052 291.043 149.053 289.103 147.808C287.153 146.564 285.448 145.192 283.968 143.683C282.489 142.174 281.381 140.645 280.646 139.107C279.911 137.568 279.304 136.177 278.834 134.932C278.363 133.688 278.099 132.669 278.03 131.865L277.824 130.758H291.71L291.69 130.768Z" fill="black"/>
<path d="M334.062 86.2892H390.222V97.1565H368.683V150.993H355.601V97.1565H334.062V86.2892Z" fill="black"/>
<path d="M378.736 151.003L406.106 86.299H420.697L447.968 151.003H433.974L429.545 140.038H397.237L392.808 151.003H378.717H378.736ZM425.126 129.063L413.455 99.8807L401.676 129.063H425.126Z" fill="black"/>
<path d="M452.106 151.003V86.299H465.187V115.079L490.342 86.299H506.442L481.287 113.972L508.862 151.003H492.958L472.625 123.526L465.178 131.679V151.003H452.096H452.106Z" fill="black"/>
<path d="M513.387 86.2892H561.991V97.1565H526.469V113.159H557.16V124.124H526.469V140.126H563V150.993H513.387V86.2892Z" fill="black"/>
<path d="M158.556 165.506C132.882 165.702 111.295 144.565 111.383 118.176C111.481 92.4237 132.638 71.3848 158.586 71.4338C184.367 71.4828 205.22 92.3943 205.455 118.029C205.691 144.516 184.083 165.594 158.556 165.506ZM158.341 83.7612C139.321 83.8298 123.75 99.3027 123.73 118.401C123.71 137.529 139.252 153.169 158.331 153.198C177.479 153.228 193.04 137.706 193.138 118.597C193.246 99.0087 177.175 83.7318 158.341 83.7612Z" fill="black"/>
<path d="M168.219 118.548C168.16 123.997 163.75 128.328 158.312 128.269C152.824 128.21 148.542 123.771 148.62 118.245C148.699 112.875 153.118 108.622 158.566 108.671C163.946 108.72 168.268 113.149 168.209 118.548H168.219Z" fill="black"/>
<path d="M110.999 67.5337L205.836 67.5337V56L110.999 56V67.5337Z" fill="#FF6700"/>
</svg>
