<svg width="4096" height="994" viewBox="0 0 4096 994" fill="none" xmlns="http://www.w3.org/2000/svg">
<path d="M1232.88 275.623C1393.71 275.623 1474.12 337.861 1474.12 462.248C1474.12 519.876 1454.53 566.51 1415.43 601.973C1376.24 637.525 1315.42 655.256 1232.88 655.256H1109.03V861.032H990.667V275.623H1232.88ZM1109.03 373.944V556.048H1232.88C1271.09 556.048 1301.15 547.98 1323.05 531.933C1344.86 515.886 1355.85 492.658 1355.85 462.248C1355.85 403.379 1314.89 373.944 1232.97 373.944H1109.11H1109.03Z" fill="#111111"/>
<path d="M1638.05 678.039C1638.05 680.433 1638.31 683.802 1638.93 688.058C1639.56 692.313 1642.13 699.584 1646.65 709.868C1651.17 720.241 1657.73 729.284 1666.24 737.175C1674.75 745.065 1688.41 752.335 1707.2 758.984C1726 765.634 1748.16 769.003 1773.7 769.003C1815.54 769.003 1846.84 762.442 1867.5 749.409C1888.15 736.376 1898.44 719.532 1898.44 698.874C1898.44 681.852 1891.79 667.489 1878.4 655.609C1865.01 643.818 1847.46 634.243 1825.56 626.884C1803.75 619.614 1779.72 612.787 1753.66 606.404C1727.59 600.021 1701.44 592.928 1675.37 585.037C1649.31 577.147 1625.28 567.749 1603.47 556.844C1581.66 545.939 1563.84 530.601 1550.19 510.83C1536.54 491.148 1529.35 468.186 1528.82 442.121V439.372C1528.82 385.379 1550.19 343.001 1593.01 312.325C1635.83 281.649 1693.9 266.312 1767.4 266.312C1811.11 266.312 1849.14 271.897 1881.68 283.157C1914.13 294.416 1937.98 308.158 1953.14 324.56C1968.3 340.962 1980.27 357.186 1989.13 373.322C1997.91 389.369 2002.96 403.199 2004.12 414.725L2005.98 431.127H1880.35C1880.35 429.265 1879.91 427.049 1879.02 424.3C1878.13 421.552 1875.39 416.587 1870.86 409.228C1866.34 401.958 1860.4 395.398 1853.13 389.635C1845.86 383.872 1834.78 378.73 1819.89 374.12C1804.99 369.598 1787.88 367.293 1768.46 367.293C1731.41 367.293 1702.77 373.677 1682.38 386.444C1662.07 399.21 1651.88 414.991 1651.88 433.787V437.422C1653.12 451.43 1660.66 463.221 1674.66 472.973C1688.58 482.726 1706.67 490.439 1728.83 496.202C1751 501.964 1775.11 507.55 1801.27 513.047C1827.33 518.544 1853.49 525.459 1879.55 533.97C1905.62 542.481 1929.47 552.943 1951.01 565.355C1972.56 577.768 1990.02 595.233 2003.41 617.752C2016.71 640.183 2023.44 666.868 2023.44 697.899C2023.44 752.512 2001.64 794.891 1957.93 824.946C1914.22 855.001 1852.87 869.984 1773.96 869.984C1740.54 869.984 1710.04 866.438 1682.47 859.523C1654.8 852.519 1632.2 843.475 1614.64 832.216C1597 820.956 1581.57 808.544 1568.19 794.891C1554.8 781.237 1544.78 767.407 1538.13 753.487C1531.48 739.568 1525.98 726.979 1521.73 715.719C1517.47 704.459 1515.08 695.239 1514.46 687.969L1512.6 677.951H1638.23L1638.05 678.039Z" fill="#111111"/>
<path d="M2021.4 275.623H2529.5V373.944H2334.63V861.032H2216.27V373.944H2021.4V275.623Z" fill="#111111"/>
<path d="M2425.6 861.119L2673.22 275.71H2805.23L3051.97 861.119H2925.36L2885.29 761.911H2592.98L2552.91 861.119H2425.42H2425.6ZM2845.3 662.614L2739.71 398.591L2633.15 662.614H2845.3Z" fill="#111111"/>
<path d="M3089.38 861.119V275.71H3207.74V536.099L3435.32 275.71H3580.99L3353.4 526.081L3602.89 861.119H3458.99L3275.03 612.523L3207.65 686.286V861.119H3089.29H3089.38Z" fill="#111111"/>
<path d="M3643.84 275.623H4083.59V373.944H3762.2V518.723H4039.88V617.931H3762.2V762.71H4092.72V861.032H3643.84V275.623Z" fill="#111111"/>
<path d="M433.538 992.334C201.254 994.108 5.9406 802.872 6.73852 564.116C7.6251 331.123 199.038 140.774 433.804 141.218C667.063 141.661 855.728 330.857 857.855 562.786C859.983 802.429 664.492 993.132 433.538 992.334ZM431.588 252.749C259.502 253.37 118.625 393.361 118.447 566.155C118.27 739.216 258.882 880.714 431.499 880.98C604.737 881.246 745.526 740.812 746.412 567.929C747.387 390.701 601.988 252.484 431.588 252.749Z" fill="#111111"/>
<path d="M520.953 567.484C520.421 616.778 480.525 655.965 431.32 655.433C381.671 654.901 342.928 614.739 343.637 564.736C344.347 516.151 384.331 477.673 433.625 478.117C482.298 478.56 521.396 518.633 520.865 567.484H520.953Z" fill="#111111"/>
<path d="M3.2793 105.932L861.312 105.932V1.58128L3.2793 1.58128V105.932Z" fill="#FF6700"/>
</svg>
