<svg width="76" height="117" viewBox="0 0 76 117" fill="none" xmlns="http://www.w3.org/2000/svg">
<path d="M0 58.4297H37.5" stroke="#F6931A" stroke-width="0.360799"/>
<line x1="37.6804" y1="1.92969" x2="37.6804" y2="114.93" stroke="#F6931A" stroke-width="0.360799"/>
<path d="M75.1276 2.05725C75.198 1.9868 75.198 1.87258 75.1276 1.80213L73.9795 0.654071C73.9091 0.58362 73.7948 0.58362 73.7244 0.654071C73.6539 0.724521 73.6539 0.838744 73.7244 0.909194L74.7449 1.92969L73.7244 2.95018C73.6539 3.02063 73.6539 3.13485 73.7244 3.2053C73.7948 3.27575 73.9091 3.27575 73.9795 3.2053L75.1276 2.05725ZM37.5 2.11009H75V1.74929H37.5V2.11009Z" fill="#F6931A"/>
<path d="M75.1276 115.057C75.198 114.987 75.198 114.873 75.1276 114.802L73.9795 113.654C73.9091 113.584 73.7948 113.584 73.7244 113.654C73.6539 113.725 73.6539 113.839 73.7244 113.909L74.7449 114.93L73.7244 115.95C73.6539 116.021 73.6539 116.135 73.7244 116.205C73.7948 116.276 73.9091 116.276 73.9795 116.205L75.1276 115.057ZM37.5 115.11H75V114.749H37.5V115.11Z" fill="#F6931A"/>
</svg>
