<svg width="101" height="57" viewBox="0 0 101 57" fill="none" xmlns="http://www.w3.org/2000/svg">
<path d="M0 28.5605H50" stroke="#F6931A"/>
<line x1="50.5" y1="4.56055" x2="50.5" y2="52.5605" stroke="#F6931A"/>
<path d="M100.354 4.9141C100.549 4.71884 100.549 4.40226 100.354 4.20699L97.1716 1.02501C96.9763 0.829751 96.6597 0.829751 96.4645 1.02501C96.2692 1.22028 96.2692 1.53686 96.4645 1.73212L99.2929 4.56055L96.4645 7.38897C96.2692 7.58424 96.2692 7.90082 96.4645 8.09608C96.6597 8.29134 96.9763 8.29134 97.1716 8.09608L100.354 4.9141ZM50 5.06055H100V4.06055H50V5.06055Z" fill="#F6931A"/>
<path d="M100.354 52.9141C100.549 52.7188 100.549 52.4023 100.354 52.207L97.1716 49.025C96.9763 48.8298 96.6597 48.8298 96.4645 49.025C96.2692 49.2203 96.2692 49.5369 96.4645 49.7321L99.2929 52.5605L96.4645 55.389C96.2692 55.5842 96.2692 55.9008 96.4645 56.0961C96.6597 56.2913 96.9763 56.2913 97.1716 56.0961L100.354 52.9141ZM50 53.0605H100V52.0605H50V53.0605Z" fill="#F6931A"/>
</svg>
