<svg width="22" height="23" viewBox="0 0 22 23" fill="none" xmlns="http://www.w3.org/2000/svg">
<path d="M4.23133 17.7546C3.80906 17.7546 3.45675 17.6134 3.17442 17.3311C2.89208 17.0488 2.75061 16.6962 2.75 16.2733V6.4026C2.75 5.98032 2.89147 5.62801 3.17442 5.34568C3.45736 5.06335 3.80936 4.92188 4.23042 4.92126H17.7696C18.1913 4.92126 18.5433 5.06274 18.8256 5.34568C19.1079 5.62863 19.2494 5.98093 19.25 6.4026V16.2742C19.25 16.6958 19.1085 17.0482 18.8256 17.3311C18.5426 17.614 18.1906 17.7552 17.7696 17.7546H4.23133ZM11 11.4443L3.66667 6.64918V16.2742C3.66667 16.4386 3.71953 16.5736 3.82525 16.6793C3.93097 16.7851 4.06633 16.8379 4.23133 16.8379H17.7696C17.934 16.8379 18.069 16.7851 18.1748 16.6793C18.2805 16.5736 18.3333 16.4383 18.3333 16.2733V6.64826L11 11.4443ZM11 10.4213L18.051 5.83793H3.949L11 10.4213ZM3.66667 6.64918V5.83793V16.2742C3.66667 16.4386 3.71953 16.5736 3.82525 16.6793C3.93097 16.7851 4.06633 16.8379 4.23133 16.8379H3.66667V6.64918Z" fill="white"/>
</svg>
