<svg width="608" height="327" viewBox="0 0 608 327" fill="none" xmlns="http://www.w3.org/2000/svg">
<g clip-path="url(#clip0_773_937)">
<path d="M608 0.00012207H0V327H608V0.00012207Z" fill="#141414"/>
<mask id="mask0_773_937" style="mask-type:luminance" maskUnits="userSpaceOnUse" x="0" y="0" width="608" height="328">
<path d="M608 0.00012207H0V327H608V0.00012207Z" fill="white"/>
</mask>
<g mask="url(#mask0_773_937)">
<g opacity="0.3">
<mask id="mask1_773_937" style="mask-type:luminance" maskUnits="userSpaceOnUse" x="-97" y="-10" width="771" height="515">
<path d="M673.23 -9.07983H-96.6101V504.15H673.23V-9.07983Z" fill="white"/>
</mask>
<g mask="url(#mask1_773_937)">
<path d="M542.07 136.81L636.71 304.28L677.24 436.68" stroke="white" stroke-width="1.28" stroke-linejoin="round"/>
<path d="M121.34 -39.5299L235.46 55.8701L3.74976 -11.6099L141.81 157.63L121.34 -39.5299Z" stroke="white" stroke-width="1.28" stroke-linejoin="round"/>
<path d="M-76.6602 239.47L42.6698 242.98L147.25 360.22L38.3598 389.89L109.03 243.61L147.25 360.22L292.01 275L72.0999 475.55L62.4198 521.22" stroke="white" stroke-width="1.28" stroke-linejoin="round"/>
<path d="M292.01 275L109.03 243.61L393.45 178.16L361.06 401.04L424.05 479.77L561.08 420.29L432.78 291.03L361.06 401.04L636.71 304.28L531.32 263.47L657.8 89.0801L636.71 304.28" stroke="white" stroke-width="1.28" stroke-linejoin="round"/>
<path d="M235.46 -14.8699C238.7 -14.2199 353.35 8.76013 353.35 8.76013L657.8 89.0701L708.34 110.13" stroke="white" stroke-width="1.28" stroke-linejoin="round"/>
<path d="M235.46 55.9601L141.81 157.63L291.22 98.1601L432.78 291.03L393.45 178.16L448.24 68.9601L536.2 10.9501" stroke="white" stroke-width="1.28" stroke-linejoin="round"/>
<path d="M3.62978 -11.8199L-29.7202 102.94L42.5398 242.77L121.21 -39.7499L254.03 23.1001L235.59 55.8701L291.22 98.1601L254.03 23.1001L353.22 8.55013L291.22 98.1601L393.33 177.95L353.22 8.55013L448.24 68.9601" stroke="#FF3D36" stroke-width="1.28" stroke-linejoin="round"/>
<path d="M353.22 8.55017L536.2 10.9502L657.8 89.0802L542.07 136.81L531.32 263.47L561.08 420.29L636.71 304.28L432.78 291.03L269.09 381.32L147.25 360.22L248.16 178.85L141.81 157.63L42.6699 242.98L38.3599 389.89L202.23 484.87" stroke="#FF3D36" stroke-width="1.28" stroke-linejoin="round"/>
<path d="M-68.5002 431.49L-25.2302 326.15L147.25 360.22L202.23 484.87L424.05 479.77" stroke="#FF3D36" stroke-width="1.28" stroke-linejoin="round"/>
<path d="M393.45 178.16L248.16 178.85L292.01 275L269.09 381.32L424.05 479.77L531.32 263.47L393.45 178.16ZM393.45 178.16L292.01 275.12L355.88 401.04" stroke="#FF3D36" stroke-width="1.28" stroke-linejoin="round"/>
<path d="M202.23 484.87L269.09 381.32L141.81 157.63L-29.5901 103.16L235.59 55.8701" stroke="#FF3D36" stroke-width="1.28" stroke-linejoin="round"/>
<path d="M-29.5902 103.16L-76.6602 239.47L-25.2302 326.15L42.6698 242.98L109.03 243.61L291.22 98.1601L448.24 68.9601L531.32 263.47L432.78 291.03L248.16 178.85" stroke="#FF3D36" stroke-width="1.28" stroke-linejoin="round"/>
<path d="M536.2 10.9901L542.07 136.81L393.45 178.16" stroke="#FF3D36" stroke-width="1.28" stroke-linejoin="round"/>
<path d="M536.2 21.0501C541.778 21.0501 546.3 16.5282 546.3 10.9501C546.3 5.37202 541.778 0.850098 536.2 0.850098C530.622 0.850098 526.1 5.37202 526.1 10.9501C526.1 16.5282 530.622 21.0501 536.2 21.0501Z" fill="white"/>
<path d="M141.81 167.73C147.388 167.73 151.91 163.208 151.91 157.63C151.91 152.052 147.388 147.53 141.81 147.53C136.232 147.53 131.71 152.052 131.71 157.63C131.71 163.208 136.232 167.73 141.81 167.73Z" fill="white"/>
<path d="M292.01 108.24C297.588 108.24 302.11 103.718 302.11 98.14C302.11 92.562 297.588 88.04 292.01 88.04C286.432 88.04 281.91 92.562 281.91 98.14C281.91 103.718 286.432 108.24 292.01 108.24Z" fill="white"/>
<path d="M353.59 18.6501C359.168 18.6501 363.69 14.1281 363.69 8.55007C363.69 2.972 359.168 -1.54993 353.59 -1.54993C348.012 -1.54993 343.49 2.972 343.49 8.55007C343.49 14.1281 348.012 18.6501 353.59 18.6501Z" fill="white"/>
<path d="M432.63 301.13C438.208 301.13 442.73 296.608 442.73 291.03C442.73 285.452 438.208 280.93 432.63 280.93C427.052 280.93 422.53 285.452 422.53 291.03C422.53 296.608 427.052 301.13 432.63 301.13Z" fill="white"/>
<path d="M109.03 253.63C114.608 253.63 119.13 249.108 119.13 243.53C119.13 237.952 114.608 233.43 109.03 233.43C103.452 233.43 98.9299 237.952 98.9299 243.53C98.9299 249.108 103.452 253.63 109.03 253.63Z" fill="white"/>
<path d="M292.01 285.14C297.588 285.14 302.11 280.618 302.11 275.04C302.11 269.462 297.588 264.94 292.01 264.94C286.432 264.94 281.91 269.462 281.91 275.04C281.91 280.618 286.432 285.14 292.01 285.14Z" fill="white"/>
<path d="M254.48 32.75C260.058 32.75 264.58 28.2281 264.58 22.65C264.58 17.072 260.058 12.55 254.48 12.55C248.902 12.55 244.38 17.072 244.38 22.65C244.38 28.2281 248.902 32.75 254.48 32.75Z" fill="white"/>
<path d="M448.24 79.0601C453.818 79.0601 458.34 74.5382 458.34 68.9601C458.34 63.382 453.818 58.8601 448.24 58.8601C442.662 58.8601 438.14 63.382 438.14 68.9601C438.14 74.5382 442.662 79.0601 448.24 79.0601Z" fill="white"/>
<path d="M542.07 146.91C547.648 146.91 552.17 142.388 552.17 136.81C552.17 131.232 547.648 126.71 542.07 126.71C536.492 126.71 531.97 131.232 531.97 136.81C531.97 142.388 536.492 146.91 542.07 146.91Z" fill="white"/>
<path d="M41.7299 253.63C47.308 253.63 51.8299 249.108 51.8299 243.53C51.8299 237.952 47.308 233.43 41.7299 233.43C36.1518 233.43 31.6299 237.952 31.6299 243.53C31.6299 249.108 36.1518 253.63 41.7299 253.63Z" fill="white"/>
<path d="M393.31 188.26C398.888 188.26 403.41 183.738 403.41 178.16C403.41 172.582 398.888 168.06 393.31 168.06C387.732 168.06 383.21 172.582 383.21 178.16C383.21 183.738 387.732 188.26 393.31 188.26Z" fill="white"/>
<path d="M235.46 65.97C241.038 65.97 245.56 61.4481 245.56 55.87C245.56 50.2919 241.038 45.77 235.46 45.77C229.882 45.77 225.36 50.2919 225.36 55.87C225.36 61.4481 229.882 65.97 235.46 65.97Z" fill="white"/>
<path d="M314.1 208.2C319.678 208.2 324.2 203.678 324.2 198.1C324.2 192.522 319.678 188 314.1 188C308.522 188 304 192.522 304 198.1C304 203.678 308.522 208.2 314.1 208.2Z" fill="white"/>
<path d="M531.32 273.94C536.898 273.94 541.42 269.418 541.42 263.84C541.42 258.262 536.898 253.74 531.32 253.74C525.742 253.74 521.22 258.262 521.22 263.84C521.22 269.418 525.742 273.94 531.32 273.94Z" fill="white"/>
</g>
</g>
<path d="M241.9 145.87L293.09 159.97L343.78 145.23L293.09 131.37L241.9 145.87Z" fill="#E50913"/>
<path d="M293.09 229.15V159.97L343.78 145.23L344.53 214.78L293.09 229.15Z" fill="#3D3D3D"/>
<path d="M241.9 215.54V145.87L293.09 159.97V229.15L241.9 215.54Z" fill="#2B2B2B"/>
<path d="M84.25 224.95L109.19 231.83L133.89 224.64L109.19 217.89L84.25 224.95Z" fill="white"/>
<path d="M109.19 265.53V231.83L133.89 224.64L134.26 258.53L109.19 265.53Z" fill="#3D3D3D"/>
<path d="M84.25 258.9V224.95L109.19 231.83V265.53L84.25 258.9Z" fill="#2D2D2D"/>
<path d="M418.08 280.34L434.42 284.84L450.59 280.14L434.42 275.72L418.08 280.34Z" fill="white"/>
<path d="M434.42 306.92V284.84L450.59 280.14L450.83 302.34L434.42 306.92Z" fill="#3D3D3D"/>
<path d="M418.08 302.58V280.34L434.42 284.84V306.92L418.08 302.58Z" fill="#2D2D2D"/>
<path d="M70.6099 77.5101L86.9399 82.0101L103.12 77.3101L86.9399 72.8901L70.6099 77.5101Z" fill="white"/>
<path d="M86.9399 104.09V82.0102L103.12 77.3102L103.36 99.5102L86.9399 104.09Z" fill="#3D3D3D"/>
<path d="M70.6099 99.7501V77.5101L86.9399 82.0101V104.09L70.6099 99.7501Z" fill="#2D2D2D"/>
<path d="M429.73 57.1401L454.55 63.9801L479.12 56.8301L454.55 50.1101L429.73 57.1401Z" fill="white"/>
<path d="M454.55 97.5101V63.9801L479.12 56.8301L479.49 90.5501L454.55 97.5101Z" fill="#3D3D3D"/>
<path d="M429.73 90.9201V57.1401L454.55 63.9801V97.5101L429.73 90.9201Z" fill="#2D2D2D"/>
</g>
</g>
<defs>
<clipPath id="clip0_773_937">
<rect width="608" height="326.34" fill="white" transform="translate(0 0.330078)"/>
</clipPath>
</defs>
</svg>
