<svg width="608" height="327" viewBox="0 0 608 327" fill="none" xmlns="http://www.w3.org/2000/svg">
<path d="M608 -0.214844H0V326.785H608V-0.214844Z" fill="#141414"/>
<mask id="mask0_1550_15665" style="mask-type:luminance" maskUnits="userSpaceOnUse" x="0" y="-1" width="608" height="328">
<path d="M608 -0.214844H0V326.785H608V-0.214844Z" fill="white"/>
</mask>
<g mask="url(#mask0_1550_15665)">
<g opacity="0.3">
<mask id="mask1_1550_15665" style="mask-type:luminance" maskUnits="userSpaceOnUse" x="-97" y="-10" width="771" height="514">
<path d="M665.23 -9.29492H-88.6104C-93.0286 -9.29492 -96.6104 -5.71319 -96.6104 -1.29491V495.935C-96.6104 500.353 -93.0286 503.935 -88.6104 503.935H665.23C669.648 503.935 673.23 500.353 673.23 495.935V-1.29492C673.23 -5.7132 669.648 -9.29492 665.23 -9.29492Z" fill="white"/>
</mask>
<g mask="url(#mask1_1550_15665)">
<path d="M542.07 136.594L636.71 304.064L677.24 436.464" stroke="white" stroke-width="1.28" stroke-linejoin="round"/>
<path d="M121.34 -39.7461L235.46 55.6539L3.74963 -11.8261L141.81 157.414L121.34 -39.7461Z" stroke="white" stroke-width="1.28" stroke-linejoin="round"/>
<path d="M-76.6604 239.254L42.6696 242.764L147.25 360.004L38.3596 389.674L109.03 243.394L147.25 360.004L292.01 274.784L72.0996 475.334L62.4196 521.004" stroke="white" stroke-width="1.28" stroke-linejoin="round"/>
<path d="M292.009 274.783L109.029 243.393L393.449 177.943L361.059 400.823L424.049 479.553L561.079 420.073L432.779 290.813L361.059 400.823L636.709 304.063L531.319 263.253L657.799 88.8633L636.709 304.063" stroke="white" stroke-width="1.28" stroke-linejoin="round"/>
<path d="M235.46 -15.0859C238.7 -14.4359 353.35 8.54406 353.35 8.54406L657.8 88.8541L708.34 109.914" stroke="white" stroke-width="1.28" stroke-linejoin="round"/>
<path d="M235.459 55.7444L141.809 157.414L291.219 97.9444L432.779 290.814L393.449 177.944L448.239 68.7444L536.199 10.7344" stroke="white" stroke-width="1.28" stroke-linejoin="round"/>
<path d="M3.62991 -12.0348L-29.7201 102.725L42.5399 242.555L121.21 -39.9648L254.03 22.8852L235.59 55.6552L291.22 97.9452L254.03 22.8852L353.22 8.33516L291.22 97.9452L393.33 177.735L353.22 8.33516L448.24 68.7452" stroke="#F7931A" stroke-opacity="0.77" stroke-width="1.28" stroke-linejoin="round"/>
<path d="M353.22 8.33594L536.2 10.7359L657.8 88.8659L542.07 136.596L531.32 263.256L561.08 420.076L636.71 304.066L432.78 290.816L269.09 381.106L147.25 360.006L248.16 178.636L141.81 157.416L42.67 242.766L38.36 389.676L202.23 484.656" stroke="#F7931A" stroke-opacity="0.77" stroke-width="1.28" stroke-linejoin="round"/>
<path d="M-68.5004 431.276L-25.2304 325.936L147.25 360.006L202.23 484.656L424.05 479.556" stroke="#F7931A" stroke-opacity="0.77" stroke-width="1.28" stroke-linejoin="round"/>
<path d="M393.45 177.945L248.16 178.635L292.01 274.785L269.09 381.105L424.05 479.555L531.32 263.255L393.45 177.945ZM393.45 177.945L292.01 274.905L355.88 400.825" stroke="#F7931A" stroke-opacity="0.77" stroke-width="1.28" stroke-linejoin="round"/>
<path d="M202.23 484.656L269.09 381.106L141.81 157.416L-29.5901 102.946L235.59 55.6562" stroke="#F7931A" stroke-opacity="0.77" stroke-width="1.28" stroke-linejoin="round"/>
<path d="M-29.5904 102.946L-76.6604 239.256L-25.2304 325.936L42.6696 242.766L109.03 243.396L291.22 97.9461L448.24 68.7461L531.32 263.256L432.78 290.816L248.16 178.636" stroke="#F7931A" stroke-opacity="0.77" stroke-width="1.28" stroke-linejoin="round"/>
<path d="M536.2 10.7754L542.07 136.595L393.45 177.945" stroke="#F7931A" stroke-opacity="0.77" stroke-width="1.28" stroke-linejoin="round"/>
<path d="M536.199 20.8348C541.777 20.8348 546.299 16.3128 546.299 10.7348C546.299 5.15669 541.777 0.634766 536.199 0.634766C530.621 0.634766 526.099 5.15669 526.099 10.7348C526.099 16.3128 530.621 20.8348 536.199 20.8348Z" fill="white"/>
<path d="M141.81 167.514C147.388 167.514 151.91 162.993 151.91 157.414C151.91 151.836 147.388 147.314 141.81 147.314C136.232 147.314 131.71 151.836 131.71 157.414C131.71 162.993 136.232 167.514 141.81 167.514Z" fill="white"/>
<path d="M292.01 108.024C297.588 108.024 302.11 103.502 302.11 97.9242C302.11 92.3461 297.588 87.8242 292.01 87.8242C286.431 87.8242 281.91 92.3461 281.91 97.9242C281.91 103.502 286.431 108.024 292.01 108.024Z" fill="white"/>
<path d="M353.59 18.4344C359.168 18.4344 363.69 13.9125 363.69 8.33438C363.69 2.7563 359.168 -1.76562 353.59 -1.76562C348.012 -1.76562 343.49 2.7563 343.49 8.33438C343.49 13.9125 348.012 18.4344 353.59 18.4344Z" fill="white"/>
<path d="M432.63 300.915C438.208 300.915 442.73 296.393 442.73 290.815C442.73 285.237 438.208 280.715 432.63 280.715C427.052 280.715 422.53 285.237 422.53 290.815C422.53 296.393 427.052 300.915 432.63 300.915Z" fill="white"/>
<path d="M109.029 253.415C114.608 253.415 119.129 248.893 119.129 243.315C119.129 237.737 114.608 233.215 109.029 233.215C103.451 233.215 98.9294 237.737 98.9294 243.315C98.9294 248.893 103.451 253.415 109.029 253.415Z" fill="white"/>
<path d="M292.01 284.923C297.588 284.923 302.11 280.401 302.11 274.823C302.11 269.245 297.588 264.723 292.01 264.723C286.432 264.723 281.91 269.245 281.91 274.823C281.91 280.401 286.432 284.923 292.01 284.923Z" fill="white"/>
<path d="M254.479 32.534C260.057 32.534 264.579 28.0121 264.579 22.434C264.579 16.8559 260.057 12.334 254.479 12.334C248.901 12.334 244.379 16.8559 244.379 22.434C244.379 28.0121 248.901 32.534 254.479 32.534Z" fill="white"/>
<path d="M448.239 78.8445C453.817 78.8445 458.339 74.3226 458.339 68.7445C458.339 63.1665 453.817 58.6445 448.239 58.6445C442.661 58.6445 438.139 63.1665 438.139 68.7445C438.139 74.3226 442.661 78.8445 448.239 78.8445Z" fill="white"/>
<path d="M542.07 146.694C547.648 146.694 552.169 142.172 552.169 136.594C552.169 131.016 547.648 126.494 542.07 126.494C536.491 126.494 531.969 131.016 531.969 136.594C531.969 142.172 536.491 146.694 542.07 146.694Z" fill="white"/>
<path d="M41.7296 253.415C47.3077 253.415 51.8296 248.893 51.8296 243.315C51.8296 237.737 47.3077 233.215 41.7296 233.215C36.1516 233.215 31.6296 237.737 31.6296 243.315C31.6296 248.893 36.1516 253.415 41.7296 253.415Z" fill="white"/>
<path d="M393.31 188.044C398.888 188.044 403.41 183.522 403.41 177.944C403.41 172.366 398.888 167.844 393.31 167.844C387.732 167.844 383.21 172.366 383.21 177.944C383.21 183.522 387.732 188.044 393.31 188.044Z" fill="white"/>
<path d="M235.46 65.7547C241.038 65.7547 245.56 61.2328 245.56 55.6547C245.56 50.0766 241.038 45.5547 235.46 45.5547C229.882 45.5547 225.36 50.0766 225.36 55.6547C225.36 61.2328 229.882 65.7547 235.46 65.7547Z" fill="white"/>
<path d="M314.1 207.985C319.678 207.985 324.2 203.463 324.2 197.885C324.2 192.307 319.678 187.785 314.1 187.785C308.521 187.785 304 192.307 304 197.885C304 203.463 308.521 207.985 314.1 207.985Z" fill="white"/>
<path d="M531.319 273.725C536.897 273.725 541.419 269.203 541.419 263.625C541.419 258.047 536.897 253.525 531.319 253.525C525.741 253.525 521.219 258.047 521.219 263.625C521.219 269.203 525.741 273.725 531.319 273.725Z" fill="white"/>
</g>
</g>
<path d="M241.899 145.656L293.089 159.756L343.779 145.016L293.089 131.156L241.899 145.656Z" fill="#F7931A"/>
<path d="M293.09 228.967V159.787L343.78 145.047L344.53 214.597L293.09 228.967Z" fill="#3D3D3D"/>
<path d="M326.415 186.17C326.722 186.261 327.014 186.384 327.288 186.538C328.246 187.091 328.651 188.036 328.497 189.369C328.395 190.354 328.078 191.356 327.572 192.29C326.95 193.42 326.068 194.177 325.003 194.658C324.121 195.056 323.239 195.24 322.358 195.35C322.038 195.391 321.719 195.418 321.402 195.441C321.299 195.448 321.267 195.491 321.244 195.602C321.001 196.721 320.749 197.841 320.509 198.961C320.475 199.119 320.434 199.156 320.293 199.154C319.737 199.143 319.176 199.147 318.616 199.154C318.513 199.157 318.502 199.129 318.526 199.02C318.774 197.905 319.016 196.79 319.266 195.676C319.293 195.55 319.283 195.503 319.163 195.505C318.729 195.507 318.297 195.502 317.866 195.49C317.756 195.487 317.724 195.528 317.699 195.645C317.456 196.764 317.205 197.885 316.964 199.004C316.936 199.13 316.904 199.158 316.794 199.159C316.228 199.155 315.66 199.156 315.09 199.163C314.987 199.165 314.972 199.122 314.996 199.012C315.247 197.887 315.489 196.762 315.742 195.633C315.775 195.487 315.748 195.449 315.623 195.446C314.39 195.447 313.166 195.446 311.937 195.447C311.85 195.447 311.823 195.431 311.864 195.322C312.164 194.51 312.461 193.7 312.753 192.891C312.79 192.788 312.836 192.778 312.914 192.78C313.338 192.785 313.76 192.795 314.186 192.781C314.719 192.765 315.033 192.458 315.165 191.861C315.569 190.02 315.975 188.179 316.381 186.338C316.689 184.94 316.998 183.542 317.306 182.144C317.43 181.578 317.168 181.135 316.656 181.062C316.256 181.024 315.848 181.016 315.435 181.037C315.314 181.038 315.193 181.036 315.071 181.045C315.004 181.05 314.995 181.025 315.011 180.952C315.172 180.226 315.333 179.499 315.488 178.773C315.515 178.643 315.584 178.664 315.647 178.663C316.134 178.661 316.619 178.665 317.107 178.661C317.844 178.654 318.576 178.679 319.318 178.656C319.44 178.653 319.486 178.624 319.518 178.478C319.755 177.374 320.001 176.266 320.238 175.167C320.267 175.029 320.304 174.982 320.433 174.984C320.99 174.992 321.55 174.99 322.11 174.983C322.228 174.982 322.239 175.027 322.212 175.151C321.968 176.244 321.731 177.337 321.487 178.429C321.461 178.546 321.472 178.575 321.581 178.572C322.016 178.557 322.452 178.55 322.884 178.551C323.009 178.553 323.044 178.501 323.071 178.375C323.302 177.309 323.538 176.244 323.767 175.179C323.799 175.032 323.835 174.973 323.983 174.976C324.534 174.988 325.09 174.983 325.644 174.976C325.753 174.974 325.775 175.007 325.747 175.132C325.499 176.246 325.259 177.36 325.007 178.475C324.975 178.617 325.007 178.648 325.118 178.664C325.889 178.726 326.623 178.906 327.301 179.2C327.937 179.493 328.464 179.917 328.75 180.622C329.058 181.396 328.997 182.274 328.757 183.195C328.418 184.5 327.672 185.467 326.52 186.097C326.481 186.114 326.455 186.136 326.415 186.17ZM321.949 192.54L322.083 192.505C322.564 192.359 323.037 192.177 323.475 191.832C324.584 190.961 324.821 189.323 323.946 188.6C323.432 188.178 322.793 188.032 322.124 187.946C321.302 187.837 320.436 187.88 319.581 187.889C319.457 187.891 319.433 187.939 319.407 188.057C319.074 189.593 318.736 191.128 318.394 192.663C318.366 192.787 318.4 192.806 318.497 192.805C318.864 192.801 319.227 192.809 319.594 192.806C320.364 192.812 321.153 192.721 321.947 192.536L321.949 192.54ZM322.835 185.441C323.099 185.375 323.363 185.28 323.622 185.158C324.308 184.821 324.803 184.293 325.002 183.502C325.202 182.711 325.038 182.089 324.488 181.704C324.197 181.508 323.866 181.375 323.508 181.309C322.71 181.142 321.858 181.18 321.009 181.203C320.906 181.206 320.898 181.276 320.881 181.356C320.757 181.918 320.633 182.481 320.508 183.045C320.328 183.86 320.149 184.683 319.964 185.502C319.938 185.619 319.955 185.662 320.067 185.659C320.281 185.65 320.489 185.663 320.702 185.662C321.403 185.649 322.107 185.627 322.833 185.436L322.835 185.441Z" fill="white" fill-opacity="0.6"/>
<path d="M241.899 215.326V145.656L293.089 159.756V228.936L241.899 215.326Z" fill="#2B2B2B"/>
<path d="M84.25 224.736L109.19 231.616L133.89 224.426L109.19 217.676L84.25 224.736Z" fill="white"/>
<path d="M109.19 265.316V231.616L133.89 224.426L134.26 258.316L109.19 265.316Z" fill="#3D3D3D"/>
<path d="M84.25 258.684V224.734L109.19 231.614V265.314L84.25 258.684Z" fill="#2D2D2D"/>
<path d="M418.08 280.124L434.42 284.624L450.59 279.924L434.42 275.504L418.08 280.124Z" fill="white"/>
<path d="M434.42 306.704V284.624L450.59 279.924L450.83 302.124L434.42 306.704Z" fill="#3D3D3D"/>
<path d="M418.08 302.363V280.123L434.42 284.623V306.703L418.08 302.363Z" fill="#2D2D2D"/>
<path d="M70.6094 77.2958L86.9394 81.7958L103.119 77.0958L86.9394 72.6758L70.6094 77.2958Z" fill="white"/>
<path d="M86.9393 103.876V81.7957L103.119 77.0957L103.359 99.2957L86.9393 103.876Z" fill="#3D3D3D"/>
<path d="M70.6094 99.5349V77.2949L86.9394 81.7949V103.875L70.6094 99.5349Z" fill="#2D2D2D"/>
<path d="M429.729 56.9245L454.549 63.7645L479.119 56.6145L454.549 49.8945L429.729 56.9245Z" fill="white"/>
<path d="M454.55 97.2933V63.7633L479.12 56.6133L479.49 90.3333L454.55 97.2933Z" fill="#3D3D3D"/>
<path d="M429.729 90.7058V56.9258L454.549 63.7658V97.2958L429.729 90.7058Z" fill="#2D2D2D"/>
</g>
</svg>
