<svg width="121" height="131" viewBox="0 0 121 131" fill="none" xmlns="http://www.w3.org/2000/svg">
<g filter="url(#filter0_di_3301_2031)">
<path d="M25.4629 40.4181C25.2206 40.5393 25.0081 40.6909 24.826 40.9034C22.7947 43.4505 21.7334 47.0892 20.9449 50.9095C20.2173 54.5483 19.8233 58.3685 19.3983 61.6433L5.99626 78.4419C5.48052 79.1092 5.57186 80.2004 6.20876 80.7764L19.7929 93.1482L5.63281 93.0873V96.5136L56.9668 96.5441V93.1481H33.0426L52.2663 71.2258C52.8424 70.5889 52.7821 69.5276 52.1756 68.9211L47.0207 63.7667C47.9608 62.9478 48.84 62.0989 49.5981 61.2501C51.842 58.6726 53.2369 55.6104 53.4792 51.5472L64.6376 46.1803C65.1831 45.877 65.5472 45.2706 65.5472 44.6336V29.9882C65.5168 29.1394 64.7892 28.3812 63.9708 28.3204C49.2646 26.5922 36.4388 35.1127 25.4623 40.4188L25.4629 40.4181ZM30.6173 53.0924L36.6515 59.0963C34.9533 61.0368 33.2252 62.8562 31.9817 64.4936C30.3444 66.5249 29.5558 69.3149 30.9508 71.3463C33.9528 73.8325 37.5916 72.0739 40.1684 69.6785C41.5933 68.4052 43.1704 67.1314 44.4741 66.0397L48.6281 70.1938L28.4952 93.1476H24.8564L9.66602 79.2912C16.6703 70.5278 23.6746 61.8554 30.618 53.0932L30.6173 53.0924Z" fill="url(#paint0_linear_3301_2031)"/>
</g>
<defs>
<filter id="filter0_di_3301_2031" x="0.0521927" y="0.987154" width="120.504" height="129.041" filterUnits="userSpaceOnUse" color-interpolation-filters="sRGB">
<feFlood flood-opacity="0" result="BackgroundImageFix"/>
<feColorMatrix in="SourceAlpha" type="matrix" values="0 0 0 0 0 0 0 0 0 0 0 0 0 0 0 0 0 0 127 0" result="hardAlpha"/>
<feOffset dx="24.7142" dy="3.18893"/>
<feGaussianBlur stdDeviation="15.1474"/>
<feComposite in2="hardAlpha" operator="out"/>
<feColorMatrix type="matrix" values="0 0 0 0 1 0 0 0 0 0 0 0 0 0 0 0 0 0 0.25 0"/>
<feBlend mode="normal" in2="BackgroundImageFix" result="effect1_dropShadow_3301_2031"/>
<feBlend mode="normal" in="SourceGraphic" in2="effect1_dropShadow_3301_2031" result="shape"/>
<feColorMatrix in="SourceAlpha" type="matrix" values="0 0 0 0 0 0 0 0 0 0 0 0 0 0 0 0 0 0 127 0" result="hardAlpha"/>
<feOffset dy="3.55089"/>
<feGaussianBlur stdDeviation="3.90597"/>
<feComposite in2="hardAlpha" operator="arithmetic" k2="-1" k3="1"/>
<feColorMatrix type="matrix" values="0 0 0 0 1 0 0 0 0 1 0 0 0 0 1 0 0 0 0.23 0"/>
<feBlend mode="normal" in2="shape" result="effect2_innerShadow_3301_2031"/>
</filter>
<linearGradient id="paint0_linear_3301_2031" x1="78.4663" y1="98.8971" x2="-12.3038" y2="44.9277" gradientUnits="userSpaceOnUse">
<stop offset="0.0001" stop-color="#C14449"/>
<stop offset="0.0002" stop-color="#E50913"/>
<stop offset="0.703125" stop-color="#322D3E"/>
</linearGradient>
</defs>
</svg>
