<svg aria-hidden="true" style="position: absolute; width: 0; height: 0; overflow: hidden;" version="1.1"
     xmlns="http://www.w3.org/2000/svg" xmlns:xlink="http://www.w3.org/1999/xlink">
    <defs>
        <symbol id="icon-github-alt" viewBox="0 0 32 32">
            <path d="M11.631 20.544c0 1.306-0.681 3.444-2.294 3.444s-2.294-2.137-2.294-3.444 0.681-3.444 2.294-3.444 2.294 2.137 2.294 3.444zM30 17.387c0 1.994-0.2 4.106-1.094 5.938-2.369 4.787-8.881 4.675-13.544 4.675-4.738 0-11.637 0.169-14.1-4.675-0.912-1.813-1.262-3.944-1.262-5.938 0-2.619 0.869-5.094 2.594-7.1-0.325-0.988-0.481-2.025-0.481-3.050 0-1.344 0.306-2.019 0.913-3.237 2.831 0 4.644 0.563 6.8 2.25 1.813-0.431 3.675-0.625 5.544-0.625 1.688 0 3.387 0.181 5.025 0.575 2.125-1.669 3.938-2.2 6.738-2.2 0.613 1.219 0.913 1.894 0.913 3.237 0 1.025-0.163 2.044-0.481 3.013 1.719 2.025 2.438 4.519 2.438 7.137zM25.981 20.544c0-2.744-1.669-5.162-4.594-5.162-1.181 0-2.313 0.213-3.5 0.375-0.931 0.144-1.863 0.2-2.819 0.2-0.95 0-1.881-0.056-2.819-0.2-1.169-0.162-2.313-0.375-3.5-0.375-2.925 0-4.594 2.419-4.594 5.162 0 5.488 5.025 6.331 9.4 6.331h3.013c4.394 0 9.413-0.837 9.413-6.331zM20.819 17.1c-1.613 0-2.294 2.137-2.294 3.444s0.681 3.444 2.294 3.444 2.294-2.137 2.294-3.444-0.681-3.444-2.294-3.444z"></path>
        </symbol>
        <symbol id="icon-telegram-plane" viewBox="0 0 32 32">
            <path d="M27.919 6.162l-4.225 19.925c-0.319 1.406-1.15 1.756-2.331 1.094l-6.438-4.744-3.106 2.988c-0.344 0.344-0.631 0.631-1.294 0.631l0.463-6.556 11.931-10.781c0.519-0.463-0.113-0.719-0.806-0.256l-14.75 9.287-6.35-1.988c-1.381-0.431-1.406-1.381 0.288-2.044l24.837-9.569c1.15-0.431 2.156 0.256 1.781 2.013z"></path>
        </symbol>

<!--        <symbol id="icon-twitter-logo" viewBox="0 0 21 19" >-->
<!--            <path d="M7.20001 0.830078H0.900024L8.33502 10.75L1.30499 18.8301H3.69L9.44 12.2202L14.4 18.8301H20.7L12.953 8.5L19.62 0.830078H17.235L11.848 7.02979L7.20001 0.830078ZM15.3 17.0298L4.5 2.62988H6.29999L17.1 17.0298H15.3Z" ></path>-->
<!--        </symbol>-->
        <!-- <symbol id="icon-twitter-logo" viewBox="0 0 32 32">
           <path d="M32 6.079c-1.178 0.522-2.442 0.876-3.769 1.034 1.356-0.812 2.394-2.1 2.885-3.629-1.272 0.752-2.675 1.298-4.171 1.594-1.198-1.278-2.901-2.074-4.791-2.074-3.625 0-6.565 2.939-6.565 6.563 0 0.514 0.058 1.016 0.17 1.496-5.455-0.274-10.292-2.887-13.529-6.859-0.566 0.968-0.888 2.096-0.888 3.299 0 2.278 1.16 4.287 2.919 5.463-1.076-0.036-2.088-0.332-2.973-0.824v0.082c0 3.179 2.264 5.833 5.265 6.437-0.55 0.148-1.13 0.23-1.73 0.23-0.424 0-0.834-0.042-1.236-0.122 0.836 2.61 3.259 4.507 6.131 4.559-2.246 1.76-5.077 2.805-8.152 2.805-0.53 0-1.052-0.032-1.566-0.090 2.905 1.866 6.355 2.953 10.062 2.953 12.076 0 18.677-10.002 18.677-18.677l-0.022-0.85c1.29-0.92 2.405-2.076 3.283-3.391z"></path>
       </symbol> -->
        <symbol viewBox="0 0 15 14" id="icon-twitter-logo">
            <path d="M5.14583 1.16675H1.0625L5.88134 7.59187L1.32497 12.8334H2.87082L6.59734 8.5465L9.8125 12.8334H13.8958L8.87432 6.13809L13.1959 1.16675H11.6501L8.15834 5.18345L5.14583 1.16675ZM10.3958 11.6667L3.39583 2.33341H4.5625L11.5625 11.6667H10.3958Z"></path>
        </symbol>
 <symbol id="icon-footerheart" fill="none" viewBox="0 0 10 10">
 <path d="M9.272 4.798L5 9.082.728 4.798A2.885 2.885 0 0 1 .843.844 2.88 2.88 0 0 1 4.572.55L2.56 2.56l.405.405L5.194.737a2.883 2.883 0 0 1 4.078 4.06z" fill="#E50913"/>
 </symbol>
 <symbol id="icon-hamberger" viewBox="0 0 385 385" >
     <g clip-path="url(#clip0)">
     <path d="M12.03 84.212h360.909c6.641 0 12.03-5.39 12.03-12.03s-5.39-12.03-12.03-12.03H12.03C5.39 60.152 0 65.542 0 72.182c0 6.641 5.39 12.03 12.03 12.03zM372.939 180.455H12.03c-6.641 0-12.03 5.39-12.03 12.03s5.39 12.03 12.03 12.03h360.909c6.641 0 12.03-5.39 12.03-12.03s-5.389-12.03-12.03-12.03zM372.939 300.759H12.03c-6.641 0-12.03 5.39-12.03 12.03 0 6.641 5.39 12.03 12.03 12.03h360.909c6.641 0 12.03-5.39 12.03-12.03.001-6.641-5.389-12.03-12.03-12.03z"/>
     </g>
 </symbol>
        <symbol id="icon-medium-m" viewBox="0 0 20 12">
            <path d="M11.281 5.68c0 3.136-2.525 5.678-5.64 5.678C2.525 11.358 0 8.816 0 5.68 0 2.543 2.525 0 5.64 0c3.116 0 5.641 2.543 5.641 5.68zM17.469 5.679c0 2.953-1.263 5.346-2.82 5.346-1.558 0-2.82-2.394-2.82-5.346S13.09.333 14.648.333c1.557 0 2.82 2.394 2.82 5.346zM20 5.679c0 2.645-.445 4.79-.992 4.79-.548 0-.992-2.145-.992-4.79s.444-4.79.992-4.79c.547 0 .992 2.145.992 4.79z"/>
        </symbol>
        <symbol id="icon-linkedin" viewBox="0 0 512 512">
            <path d="M475.074 0H36.926C16.53 0 0 16.531 0 36.926v438.148C0 495.47 16.531 512 36.926 512h438.148C495.47 512 512 495.469 512 475.074V36.926C512 16.53 495.469 0 475.074 0zM181.61 387h-62.347V199.426h62.347zm-31.172-213.188h-.406c-20.922 0-34.453-14.402-34.453-32.402 0-18.406 13.945-32.41 35.274-32.41 21.328 0 34.453 14.004 34.859 32.41 0 18-13.531 32.403-35.274 32.403zM406.423 387h-62.34V286.652c0-25.218-9.027-42.418-31.586-42.418-17.223 0-27.48 11.602-31.988 22.801-1.649 4.008-2.051 9.61-2.051 15.215V387h-62.344s.817-169.977 0-187.574h62.344v26.558c8.285-12.78 23.11-30.96 56.188-30.96 41.02 0 71.777 26.808 71.777 84.421zm0 0"/>
        </symbol>
         <symbol id="icon-minus" fill="none" viewBox="0 0 14 2">
            <path d="M.483.518H13.517a.483.483 0 1 1 0 .965H.483a.483.483 0 1 1 0-.965z" fill="#fff"/>
        </symbol>
        <symbol id="icon-plus" fill="none" viewBox="0 0 14 14">
            <path d="M7 0a.483.483 0 0 0-.483.483v6.034H.483a.483.483 0 1 0 0 .966h6.034v6.034a.483.483 0 1 0 .966 0V7.483h6.034a.483.483 0 1 0 0-.966H7.483V.483A.483.483 0 0 0 7 0z" fill="#fff"/>
        </symbol>
        <symbol id="icon-reddit-round" viewBox="0 0 15 15">
            <path d="M13.328 5.495c-.474 0-.89.199-1.197.509-1.129-.791-2.65-1.3-4.335-1.355L8.67.653l2.788.634a1.25 1.25 0 0 0 1.24 1.256c.695 0 1.254-.58 1.254-1.272C13.953.58 13.398 0 12.7 0c-.487 0-.907.298-1.117.704L8.503.014c-.155-.043-.307.07-.348.227l-.961 4.405c-1.673.07-3.178.58-4.31 1.37a1.672 1.672 0 0 0-1.213-.521C-.087 5.495-.663 7.883.947 8.7a3.63 3.63 0 0 0-.083.79c0 2.684 2.985 4.858 6.65 4.858 3.68 0 6.663-2.174 6.663-4.857 0-.27-.028-.551-.097-.804 1.577-.82.996-3.191-.752-3.192zM3.501 8.869c0-.704.556-1.27 1.255-1.27.682 0 1.239.562 1.239 1.27a1.25 1.25 0 0 1-1.24 1.256A1.253 1.253 0 0 1 3.502 8.87zm6.774 2.994c-1.15 1.165-4.398 1.165-5.549 0-.127-.113-.127-.311 0-.439a.3.3 0 0 1 .418 0c.878.913 3.793.928 4.71 0a.3.3 0 0 1 .418 0c.13.129.13.327.003.439zm-.026-1.735a1.249 1.249 0 0 1-1.238-1.255c0-.704.556-1.271 1.238-1.271.696 0 1.255.563 1.255 1.271a1.258 1.258 0 0 1-1.255 1.255z"/>
        </symbol>
        <symbol id="icon-whitepaper" viewBox="0 0 14 16">
            <path d="M9.886 3.026c0 .54.45.99.99.99h2.368L9.886.655l-.03-.029v2.399h.03z"/>
            <path d="M10.876 4.615a1.6 1.6 0 0 1-1.59-1.59V.388H1.61c-.54 0-.99.45-.99.99V14.99c0 .54.45.99.99.99h10.975c.54 0 .99-.45.99-.99V4.765v-.15h-2.7z"/>
        </symbol>
           
        <symbol id="icon-reddit" viewBox="0 0 35 35">
            <title>Reddit</title>
            <path d="M20.764 22.383a.314.314 0 0 1 0 .446c-.678.674-1.741 1.002-3.254 1.002l-.012-.003-.011.003c-1.511 0-2.575-.328-3.254-1.004a.313.313 0 0 1 0-.445.319.319 0 0 1 .448 0c.553.55 1.47.819 2.806.819l.012.002.011-.002c1.335 0 2.252-.269 2.806-.819a.319.319 0 0 1 .448 0zm-5.017-3.527c0-.74-.604-1.34-1.345-1.34-.742 0-1.345.6-1.345 1.34 0 .738.603 1.339 1.345 1.339.741.002 1.345-.6 1.345-1.339zM35 17.5C35 27.164 27.164 35 17.5 35S0 27.164 0 17.5 7.836 0 17.5 0 35 7.836 35 17.5zm-7.292-.188a2.257 2.257 0 0 0-3.826-1.616c-1.54-1.014-3.624-1.658-5.93-1.741l1.261-3.973 3.417.8-.004.05c0 1.015.83 1.84 1.85 1.84 1.019 0 1.847-.825 1.847-1.84 0-1.014-.828-1.84-1.848-1.84a1.85 1.85 0 0 0-1.72 1.173L19.075 9.3a.316.316 0 0 0-.375.212l-1.408 4.43c-2.415.03-4.6.68-6.21 1.722a2.255 2.255 0 0 0-1.53-.605 2.26 2.26 0 0 0-2.26 2.252c0 .825.454 1.54 1.12 1.932-.043.24-.072.483-.072.73 0 3.326 4.09 6.032 9.119 6.032 5.028 0 9.119-2.706 9.119-6.033 0-.233-.025-.462-.065-.688a2.24 2.24 0 0 0 1.196-1.973zm-7.105.205c-.742 0-1.344.601-1.344 1.34a1.344 1.344 0 0 0 2.689 0c0-.739-.602-1.34-1.345-1.34z"
            />
        </symbol>
        <symbol id="icon-youtube" viewBox="-21 -117 682.667 682">
            <path d="M626.813 64.035c-7.375-27.418-28.993-49.031-56.407-56.414C520.324-6.082 319.992-6.082 319.992-6.082s-200.324 0-250.406 13.184c-26.887 7.375-49.031 29.52-56.406 56.933C0 114.113 0 217.97 0 217.97s0 104.379 13.18 153.933c7.382 27.414 28.992 49.028 56.41 56.41C120.195 442.02 320 442.02 320 442.02s200.324 0 250.406-13.184c27.418-7.379 49.032-28.992 56.414-56.406 13.176-50.082 13.176-153.934 13.176-153.934s.527-104.383-13.183-154.46zM256.21 313.915V122.022l166.586 95.946zm0 0"/>
        </symbol>
        <symbol id="icon-chevron"  viewBox="0 0 266 438">
            <path d="M258.476 235.971L64.132 430.314c-9.373 9.373-24.569 9.373-33.941 0L7.524 407.647c-9.357-9.357-9.375-24.522-.04-33.901L161.505 219 7.484 64.255c-9.335-9.379-9.317-24.544.04-33.901L30.191 7.687c9.373-9.373 24.569-9.373 33.941 0L258.475 202.03c9.373 9.372 9.373 24.568.001 33.941z"/>
        </symbol>
        <symbol id="icon-chevroncolorchange" fill="none" viewBox="0 0 266 438">
            <path d="M258.476 235.971L64.132 430.314c-9.373 9.373-24.569 9.373-33.941 0L7.524 407.647c-9.357-9.357-9.375-24.522-.04-33.901L161.505 219 7.484 64.255c-9.335-9.379-9.317-24.544.04-33.901L30.191 7.687c9.373-9.373 24.569-9.373 33.941 0L258.475 202.03c9.373 9.372 9.373 24.568.001 33.941z" fill="#fff"/>
        </symbol>
        <symbol id="icon-announcements" viewBox="0 0 12 8">
            <title>Announcements</title>
            <path d="M11.37 3.888a1.122 1.122 0 0 1-1.121 1.121V2.766a1.122 1.122 0 0 1 1.122 1.122zM2.958 2.205H1.835a1.683 1.683 0 0 0 0 3.365l.561 2.244h1.122l-.56-2.244V2.205zM9.128.695c-.05 0-.1.007-.148.02l-5.462 1.49V5.57l5.461 1.49a.56.56 0 0 0 .709-.541V1.257a.561.561 0 0 0-.56-.562z"/>
        </symbol>
        <symbol id="icon-chat" viewBox="0 0 11 11">
            <title>chat</title>
            <path d="M7.985.05h-4.79A2.631 2.631 0 0 0 .56 2.686v3.09c0 1.161.751 2.153 1.8 2.494.368.113.61.453.61.836v.85c0 .227.269.369.453.227L5.49 8.58a.915.915 0 0 1 .538-.184h1.956a2.61 2.61 0 0 0 2.636-2.622v-3.09A2.631 2.631 0 0 0 7.985.05z"/>
        </symbol>
        <symbol id="icon-linkedin-footer" viewBox="0 0 11 10">
            <title>Linkedin</title>
            <path d="M2.335 3.213H.324a.162.162 0 0 0-.162.162v6.463c0 .09.072.161.162.161h2.011c.09 0 .162-.072.162-.161V3.375a.162.162 0 0 0-.162-.162zM1.33 0C.598 0 .002.595.002 1.326a1.328 1.328 0 0 0 2.654 0C2.657.595 2.062 0 1.33 0zM7.452 3.053c-.808 0-1.405.347-1.767.742v-.42a.162.162 0 0 0-.162-.162H3.596a.162.162 0 0 0-.161.162v6.463c0 .09.072.162.161.162h2.008c.09 0 .162-.072.162-.162V6.64c0-1.077.292-1.497 1.043-1.497.819 0 .884.673.884 1.553v3.142c0 .09.072.162.161.162h2.008c.09 0 .162-.072.162-.162V6.293c0-1.602-.306-3.24-2.572-3.24z"/>
        </symbol>

        <symbol id="icon-github2" viewBox="0 0 23 23">
            <path fill-rule="evenodd" clip-rule="evenodd" d="M11.003.87C4.927.87 0 5.795 0 11.873c0 4.861 3.152 8.986 7.526 10.442.55.1.724-.226.724-.517 0-.262.005-.992 0-1.91-3.061.664-3.695-1.45-3.695-1.45-.5-1.272-1.221-1.61-1.221-1.61-1-.683.075-.67.075-.67 1.104.078 1.686 1.135 1.686 1.135.981 1.68 2.575 1.195 3.201.914.1-.711.386-1.196.7-1.471-2.444-.278-5.012-1.222-5.012-5.439 0-1.202.428-2.183 1.132-2.953-.113-.277-.492-1.397.108-2.912 0 0 .924-.296 3.026 1.129.877-.245 1.82-.366 2.755-.37.935.004 1.876.125 2.755.37 2.101-1.424 3.024-1.13 3.024-1.13.6 1.516.222 2.636.11 2.913.703.77 1.13 1.751 1.13 2.953 0 4.228-2.573 5.158-5.024 5.43.395.34.753 1 .753 2.027v3.046c0 .295.177.62.736.513 4.37-1.457 7.519-5.58 7.519-10.44 0-6.078-4.927-11.005-11.005-11.005z"/>
        </symbol>
        <symbol id="icon-arrow-navigate" fill="none" viewBox="0 0 10 10">
            <path d="M9.5 1A.5.5 0 0 0 9 .5H4.5a.5.5 0 0 0 0 1h4v4a.5.5 0 0 0 1 0V1zM1.354 9.354l8-8-.708-.708-8 8 .708.708z" fill="#E50913"/>
        </symbol>
          <symbol id="icon-discord" viewBox="0 0 11 14">
            <title>discord</title>
            <path d="M6.678 6.003c-.356 0-.637.306-.637.687 0 .38.288.687.637.687.356 0 .637-.306.637-.687 0-.381-.287-.687-.637-.687zm-2.28 0c-.355 0-.636.306-.636.687 0 .38.287.687.637.687.356 0 .637-.306.637-.687.006-.381-.281-.687-.637-.687z" />
            <path d="M9.713.807H1.344c-.705 0-1.28.574-1.28 1.28v8.37c0 .705.575 1.28 1.28 1.28h7.083l-.331-1.143.8.737.755.693 1.35 1.168V2.087A1.292 1.292 0 0 0 9.712.807zm-2.41 8.088s-.225-.269-.413-.5c.819-.231 1.13-.737 1.13-.737-.255.169-.499.287-.717.369a4.375 4.375 0 0 1-2.523.262 4.755 4.755 0 0 1-.919-.269 3.66 3.66 0 0 1-.456-.212c-.018-.012-.037-.019-.056-.031-.012-.006-.019-.013-.025-.013a2.19 2.19 0 0 1-.175-.106s.3.494 1.093.73c-.187.238-.418.513-.418.513-1.38-.044-1.905-.943-1.905-.943 0-1.992.9-3.61.9-3.61.899-.668 1.748-.65 1.748-.65l.063.075c-1.125.319-1.637.812-1.637.812s.138-.075.369-.175a4.894 4.894 0 0 1 1.417-.393c.038-.006.07-.013.107-.013.38-.05.812-.062 1.261-.012.594.069 1.23.244 1.88.593 0 0-.493-.468-1.555-.787l.087-.1s.856-.018 1.75.65c0 0 .899 1.618.899 3.61 0-.006-.525.893-1.905.937z" />
        </symbol>
        <symbol id="icon-list" fill="none" viewBox="0 0 12 12">
        <path fill="#E50913" d="M5.725.697l5.576 5.577-5.576 5.576L.149 6.274z"/>
        </symbol>
        <symbol id="icon-linkext" fill="none" viewBox="0 0 10 10" >
             <path d="M9.5 1.13a.5.5 0 0 0-.5-.5H4.5a.5.5 0 0 0 0 1h4v4a.5.5 0 1 0 1 0v-4.5zM1.368 9.47l7.987-7.987-.707-.707L.66 8.763l.707.707z" fill="#DBD6D6"/>
             </symbol>
             <symbol id="icon-nav-status" fill="none" viewBox="0 0 8 13">
             <path d="M7.234 5.32H5.279L6.44.75C6.547.314 5.98.023 5.688.38L.365 6.97a.43.43 0 0 0 .33.7h1.968l-1.162 4.57c-.12.45.462.74.753.37l5.31-6.578a.432.432 0 0 0-.33-.713z" fill="#E50913"/>
             </symbol>
             <symbol id="icon-play" fill="none" viewBox="0 0 51 51" >
             <path d="M36.616.44h-22.94A13.53 13.53 0 0 0 .145 13.97v22.941a13.53 13.53 0 0 0 13.53 13.53h22.94a13.53 13.53 0 0 0 13.53-13.53v-22.94A13.53 13.53 0 0 0 36.615.44zm10.03 36.47a10.046 10.046 0 0 1-10.03 10.03h-22.94a10.046 10.046 0 0 1-10.03-10.03V13.97a10.046 10.046 0 0 1 10.03-10.03h22.94a10.046 10.046 0 0 1 10.03 10.03v22.94z" fill="#fff"/>
             <path d="M30.146 23.54l-8.21-5.129c-1.67-1.045-3.04-.285-3.04 1.685v10.69c0 1.97 1.37 2.73 3.04 1.685l8.21-5.13c1.67-1.045 1.67-2.754 0-3.8z" fill="#fff"/>
         </symbol>
        <symbol id="icon-right-arrow" viewBox="0 0 17 8">
            <path d="M16.354 4.501a.5.5 0 0 0 0-.707L13.172.612a.5.5 0 1 0-.708.707l2.829 2.828-2.829 2.829a.5.5 0 1 0 .708.707l3.182-3.182zM0 4.647h16v-1H0v1z" />
        </symbol>
        <symbol id="icon-redirect" viewBox="0 0 12 12">
            <path d="M12 1a1 1 0 0 0-1-1H2a1 1 0 0 0 0 2h8v8a1 1 0 1 0 2 0V1zM1.707 11.707l10-10L10.293.293l-10 10 1.414 1.414z" fill="#fff"/>
        </symbol>
        <symbol id="icon-close" viewBox="0 0 32 32">
            <path d="M18.434 16L31.42 2.956c.695-.695.695-1.797 0-2.434-.696-.696-1.797-.696-2.435 0L16 13.565 2.956.522C2.261-.174 1.16-.174.522.522c-.696.695-.696 1.797 0 2.434L13.507 16 .522 29.044c-.696.695-.696 1.797 0 2.434.347.348.811.522 1.217.522s.87-.174 1.218-.522L16 18.435l13.043 13.043c.348.348.812.522 1.218.522.406 0 .87-.174 1.217-.522.696-.695.696-1.797 0-2.434L18.434 16z"/>
        </symbol>
        <symbol id="icon-discord" viewBox="0 0 11 14">
            <path d="M6.678 6.003c-.356 0-.637.306-.637.687 0 .38.288.687.637.687.356 0 .637-.306.637-.687 0-.381-.287-.687-.637-.687zm-2.28 0c-.355 0-.636.306-.636.687 0 .38.287.687.637.687.356 0 .637-.306.637-.687.006-.381-.281-.687-.637-.687z" />
            <path d="M9.713.807H1.344c-.705 0-1.28.574-1.28 1.28v8.37c0 .705.575 1.28 1.28 1.28h7.083l-.331-1.143.8.737.755.693 1.35 1.168V2.087A1.292 1.292 0 0 0 9.712.807zm-2.41 8.088s-.225-.269-.413-.5c.819-.231 1.13-.737 1.13-.737-.255.169-.499.287-.717.369a4.375 4.375 0 0 1-2.523.262 4.755 4.755 0 0 1-.919-.269 3.66 3.66 0 0 1-.456-.212c-.018-.012-.037-.019-.056-.031-.012-.006-.019-.013-.025-.013a2.19 2.19 0 0 1-.175-.106s.3.494 1.093.73c-.187.238-.418.513-.418.513-1.38-.044-1.905-.943-1.905-.943 0-1.992.9-3.61.9-3.61.899-.668 1.748-.65 1.748-.65l.063.075c-1.125.319-1.637.812-1.637.812s.138-.075.369-.175a4.894 4.894 0 0 1 1.417-.393c.038-.006.07-.013.107-.013.38-.05.812-.062 1.261-.012.594.069 1.23.244 1.88.593 0 0-.493-.468-1.555-.787l.087-.1s.856-.018 1.75.65c0 0 .899 1.618.899 3.61 0-.006-.525.893-1.905.937z" />
        </symbol>
        <symbol id="icon-usecase1" viewBox="0 0 32 35">
            <path d="M16.334 24.84l6-3.467a.667.667 0 0 0 .333-.577V13.87a.667.667 0 0 0-.334-.577l-6-3.467a.665.665 0 0 0-.666 0l-6 3.467a.667.667 0 0 0-.333.577v6.926c0 .238.127.458.333.577l6 3.466c.207.116.46.116.667 0zm.333-1.734v-5.39l4.666-2.693v5.39l-4.666 2.693zM16 11.173l4.667 2.697L16 16.564l-4.666-2.694L16 11.173zm-5.333 3.85l4.667 2.694v5.39l-4.667-2.694v-5.39z"/>
            <path d="M29.333 17.333a13.331 13.331 0 0 0-22.76-9.428 13.332 13.332 0 1 0 22.76 9.428zM4 17.333a12 12 0 1 1 24 0 12 12 0 0 1-24 0z"/>
            <path d="M31.466 23.22a.667.667 0 0 0-.746.393l-.047.114A16 16 0 0 1 16 33.333a.667.667 0 0 0 0 1.333 17.336 17.336 0 0 0 14.667-8.09V30A.667.667 0 1 0 32 30v-6.127a.667.667 0 0 0-.533-.653zM16 1.333A.667.667 0 0 0 16 0 17.333 17.333 0 0 0 1.333 8.086v-3.42a.667.667 0 0 0-1.333 0v6.124a.666.666 0 0 0 .533.666.594.594 0 0 0 .134 0 .666.666 0 0 0 .613-.403A16 16 0 0 1 16 1.333z"/>
        </symbol>
        <symbol id="icon-usecase2" viewBox="0 0 38 37">
            <path d="M37.619 17.655c0-2.523-4.166-4.325-9.37-4.325-5.203 0-9.37 1.802-9.37 4.325v13.932c0 2.522 4.03 4.447 9.37 4.447 5.34 0 9.37-1.914 9.37-4.447V17.655zm-1.441 7.027c0 1.42-3.392 3.005-7.929 3.005-4.537 0-7.928-1.585-7.928-3.005v-4.469c1.633 1.23 4.508 2.011 7.928 2.011s6.296-.782 7.929-2.01v4.468zm-7.929-9.91c4.537 0 7.929 1.586 7.929 3.006 0 1.42-3.392 3.005-7.929 3.005-4.537 0-7.928-1.585-7.928-3.005s3.391-3.006 7.928-3.006zm0 19.82c-4.537 0-7.928-1.586-7.928-3.006v-4.468c1.633 1.229 4.508 2.01 7.928 2.01s6.296-.781 7.929-2.01v4.468c0 1.42-3.392 3.006-7.929 3.006zM16.718 24.862H5.907V2.458l3.276 3.273a.72.72 0 0 0 1.016-1.017L5.694.21a.72.72 0 0 0-1.016 0L.173 4.714A.72.72 0 0 0 1.19 5.73l3.276-3.272v23.125a.72.72 0 0 0 .721.72h11.532a.72.72 0 0 0 0-1.44z" />
            <path d="M10.231 21.259a.72.72 0 1 0 1.441 0V9.558a.721.721 0 1 0-1.44 0v11.7zM16.725 2.876c.398 0 .72.398.72.72v11.897a.72.72 0 0 1-.72.72c-.398 0-.72-.398-.72-.72V3.597a.72.72 0 0 1 .72-.72zM22.484 12.61a.72.72 0 0 0 .72-.721V5.831a.721.721 0 0 0-1.441 0v6.058a.72.72 0 0 0 .72.72zM28.278 11.943a.722.722 0 0 0 .721-.72V3.6a.72.72 0 0 0-1.441 0v7.622a.72.72 0 0 0 .72.72z" />
        </symbol>
        <symbol id="icon-usecase3" viewBox="0 0 37 37">
            <path d="M11.596 20.258c-.857.124-1.722.185-2.588.184-4.362 0-7.622-1.524-7.622-2.89v-4.296c1.57 1.182 4.334 1.934 7.622 1.934 3.288 0 6.053-.752 7.623-1.934v.603a.693.693 0 1 0 1.385 0V4.182C18.016 1.732 14.011 0 9.008 0 4.005 0 0 1.732 0 4.158v13.394c0 2.436 3.874 4.276 9.008 4.276.935.002 1.868-.064 2.793-.197a.701.701 0 0 0-.205-1.386v.013zM9.008 1.387c4.362 0 7.623 1.524 7.623 2.89 0 1.364-3.26 2.889-7.623 2.889-4.362 0-7.622-1.525-7.622-2.89 0-1.365 3.26-2.89 7.622-2.89zM1.386 6.618C2.956 7.8 5.72 8.552 9.008 8.552c3.288 0 6.053-.752 7.623-1.934v4.296c0 1.366-3.26 2.89-7.623 2.89-4.362 0-7.622-1.524-7.622-2.89V6.619z"/>
            <path d="M35.24 16.631h-4.75v-2.079a.693.693 0 0 0-1.386 0v2.08h-8.316v-2.08a.693.693 0 0 0-1.386 0v2.08H14.65a.79.79 0 0 0-.79.79v16.88a1.733 1.733 0 0 0 1.732 1.732h18.71a1.733 1.733 0 0 0 1.732-1.733V17.425a.797.797 0 0 0-.794-.794zm-15.838 1.386v2.079a.693.693 0 0 0 1.386 0v-2.079h8.316v2.079a.693.693 0 0 0 1.385 0v-2.079h4.158v5.544H15.245v-5.544h4.157zM34.3 34.647H15.59a.346.346 0 0 1-.346-.346v-9.354h19.403v9.354a.347.347 0 0 1-.347.347z" />
        </symbol>
        <symbol id="icon-security" viewBox="0 0 28 33">
            <path d="M27.225 4.383L14.327.041a.785.785 0 0 0-.501 0L.928 4.383a.785.785 0 0 0-.534.744V15.91c0 7.984 5.692 14.878 13.534 16.39a.781.781 0 0 0 .297 0c7.843-1.512 13.535-8.405 13.535-16.39V5.127a.784.784 0 0 0-.535-.744zM26.19 15.908c0 7.184-5.085 13.392-12.114 14.819C7.048 29.3 1.963 23.092 1.963 15.908V5.691l12.113-4.078L26.19 5.691v10.217zm-13.57 3.098l8.259-7.908a.785.785 0 1 1 1.085 1.134l-8.79 8.417a.784.784 0 0 1-1.075.01l-4.903-4.502a.785.785 0 0 1 1.062-1.156l4.362 4.005z"/>
        </symbol>
        <symbol id="icon-enhance-ui"  viewBox="0 0 34 33">
            <path d="M30.437 0H3.51A2.697 2.697 0 0 0 .817 2.693V29.62a2.696 2.696 0 0 0 2.693 2.692h26.927a2.697 2.697 0 0 0 2.693-2.692V2.693A2.697 2.697 0 0 0 30.437 0zM3.51 1.795h26.927c.495 0 .897.402.898.898V7.18H2.612V2.693c0-.496.403-.897.898-.898zm26.927 28.723H3.51a.899.899 0 0 1-.897-.898V8.976h28.722V29.62a.899.899 0 0 1-.898.897z" />
            <path d="M25.949 4.488a.898.898 0 1 1-1.796 0 .898.898 0 0 1 1.796 0zM22.359 4.488a.898.898 0 1 1-1.796 0 .898.898 0 0 1 1.796 0zM29.54 4.488a.898.898 0 1 1-1.796 0 .898.898 0 0 1 1.795 0zM15.409 19.547a.896.896 0 0 0-.329-1.225l-.4-.23h.001a3.593 3.593 0 0 0 0-2.313l.4-.23a.898.898 0 1 0-.898-1.555l-.394.227a3.974 3.974 0 0 0-2.008-1.164v-.45a.898.898 0 1 0-1.795 0v.45c-.77.18-1.469.585-2.008 1.164l-.393-.227a.898.898 0 0 0-.898 1.555l.4.23a3.592 3.592 0 0 0 0 2.312l-.4.23a.896.896 0 1 0 .898 1.555l.393-.227a3.976 3.976 0 0 0 2.008 1.163v.45a.897.897 0 1 0 1.795 0v-.45c.77-.179 1.47-.584 2.008-1.163l.394.227a.896.896 0 0 0 1.226-.329zm-4.525-.419a2.194 2.194 0 1 1 0-4.389 2.194 2.194 0 0 1 0 4.389zM26.658 19.958l-.75.13a4.816 4.816 0 0 0-2.03-2.444l.262-.712a.899.899 0 1 0-1.684-.62l-.263.711a4.823 4.823 0 0 0-3.129.543l-.488-.586a.898.898 0 0 0-1.38 1.148l.488.585a4.725 4.725 0 0 0-1.098 2.98l-.75.13a.898.898 0 0 0 .305 1.768l.75-.129a4.816 4.816 0 0 0 2.03 2.443l-.262.712a.897.897 0 1 0 1.685.62l.262-.711a4.672 4.672 0 0 0 3.124-.549l.493.592a.898.898 0 0 0 1.38-1.148l-.488-.586a4.714 4.714 0 0 0 1.099-2.98l.75-.128a.897.897 0 1 0-.306-1.77zm-6.304 4.655a3.024 3.024 0 1 1 2.092-5.676 3.024 3.024 0 0 1-2.092 5.675z"/>
        </symbol>
        <symbol id="icon-right-arrow-bold" viewBox="0 0 28 23">
            <path d="M27.833 11.617L17.143.927l-2.04 2.053 7.188 7.188H.654v2.9h21.637l-7.187 7.186 2.038 2.054 10.69-10.69z" fill="#fff"/>
        </symbol>
        <symbol id="icon-cosmos" viewBox="0 0 28 33">
            <path d="M27.242.762c-1.357-1.356-3.981-.796-7.077.826C14.975-.977 8.489-.122 4.213 4.212-.12 8.547-.947 15.004 1.59 20.164c-1.622 3.096-2.182 5.72-.826 7.077 1.268 1.268 3.774.914 7.077-.796 5.19 2.565 11.676 1.71 15.952-2.625 4.334-4.334 5.16-10.792 2.595-15.981 1.592-2.978 2.24-5.691.855-7.077Zm-.885.885c.678.678.501 2.388-.678 4.895a12.8 12.8 0 0 0-1.887-2.33 14.182 14.182 0 0 0-2.33-1.887c2.389-1.15 4.187-1.386 4.895-.678Zm-24.71 24.71c-.707-.709-.471-2.507.679-4.896a12.8 12.8 0 0 0 1.887 2.33 14.184 14.184 0 0 0 2.33 1.887c-2.566 1.238-4.247 1.327-4.895.678Zm21.29-3.421c-3.716 3.715-9.17 4.6-13.74 2.742.5-.325 1.031-.649 1.591-1.003.973.885 2.507.855 3.48-.088.973-.973.973-2.565 0-3.568-.974-.973-2.566-.973-3.568 0-.708.708-.885 1.71-.59 2.624-.796.53-1.533 1.003-2.24 1.386a13.258 13.258 0 0 1-2.743-2.093C.203 18.01.203 10.02 5.127 5.096c4.924-4.924 12.915-4.924 17.839 0 .826.826 1.533 1.77 2.094 2.743-.796 1.415-1.858 3.007-3.214 4.747a.647.647 0 0 0 .118.884.597.597 0 0 0 .825-.059l.06-.059c1.06-1.356 2.063-2.742 2.918-4.157 1.77 4.541.885 10.026-2.83 13.74Zm-11.412-1.062c.502-.501 1.298-.501 1.829 0 .5.502.5 1.298 0 1.828-.502.502-1.298.502-1.829 0-.471-.53-.471-1.327 0-1.828Z" fill="#5064FB"/>
        </symbol>
        <symbol id="icon-stake-atom" viewBox="0 0 52 44">
            <g filter="url(#filter0_d_203_906)">
    <g filter="url(#filter1_di_203_906)">
      <path d="M34.8019 10.9999C33.7094 10.9978 32.6408 11.3074 31.7314 11.8895C30.8221 12.4716 30.1129 13.3 29.6938 14.2698C29.2746 15.2396 29.1644 16.3072 29.377 17.3373C29.5896 18.3674 30.1155 19.3137 30.888 20.0562C31.6605 20.7988 32.645 21.3043 33.7166 21.5087C34.7883 21.713 35.8989 21.607 36.9079 21.2041C37.9168 20.8013 38.7787 20.1196 39.3843 19.2455C39.9899 18.3715 40.3119 17.3443 40.3097 16.2941C40.3067 14.8909 39.7255 13.546 38.6932 12.5537C37.6609 11.5615 36.2617 11.0028 34.8019 10.9999Z" fill="#5064FB"/>
    </g>
    <path d="M13.7426 24.7581H11V42.6777H13.7426V24.7581Z" fill="#5064FB"/>
    <path d="M23.8968 25.751L24.1008 25.8926C24.3728 26.0887 24.6108 26.2521 24.8487 26.3937L25.0527 26.5027C25.4151 26.7139 25.8302 26.8268 26.254 26.8295H27.3873C27.6779 26.8115 27.9694 26.8115 28.2599 26.8295H28.4299C29.582 26.9941 30.6707 27.4405 31.5918 28.1258C32.0794 26.824 32.0162 25.3902 31.4159 24.1327C30.8156 22.8752 29.726 21.8942 28.3812 21.4005C27.0365 20.9069 25.544 20.94 24.2244 21.4928C22.9049 22.0456 21.8635 23.0738 21.3242 24.3567C21.4829 24.3567 21.6529 24.4329 21.8115 24.4983C22.5633 24.8216 23.265 25.2431 23.8968 25.751Z" fill="#5064FB"/>
    <path d="M44.2513 29.1697C43.7641 28.8225 43.1799 28.6235 42.5739 28.5982C41.968 28.573 41.3681 28.7227 40.8514 29.0281L34.6297 32.6338H21.2002V31.5445H31.6151C31.3241 30.9586 30.9069 30.4388 30.3912 30.0194C29.748 29.4882 28.9628 29.1409 28.1246 29.0172C27.8869 29.0002 27.6483 29.0002 27.4106 29.0172H26.2773C25.4806 29.0095 24.6996 28.8031 24.0108 28.4181C23.5606 28.1714 23.1289 27.8947 22.7188 27.5902C22.1897 27.1866 21.6065 26.8531 20.9849 26.5989C20.6268 26.4519 20.241 26.3777 19.8516 26.381H16.0098V40.8474H27.9999C30.6828 40.8428 33.2901 39.9934 35.423 38.4291L44.2286 31.9693C44.4664 31.8132 44.661 31.6035 44.7953 31.3586C44.9296 31.1137 44.9996 30.8409 44.9992 30.5641C44.9957 30.2918 44.9263 30.0241 44.7965 29.782C44.6667 29.54 44.48 29.3304 44.2513 29.1697Z" fill="#5064FB"/>
  </g>
            <defs>
    <filter id="filter0_d_203_906" x="0.967766" y="0.967682" width="54.0645" height="51.7422" filterUnits="userSpaceOnUse" color-interpolation-filters="sRGB">
      <feFlood flood-opacity="0" result="BackgroundImageFix"/>
      <feColorMatrix in="SourceAlpha" type="matrix" values="0 0 0 0 0 0 0 0 0 0 0 0 0 0 0 0 0 0 127 0" result="hardAlpha"/>
      <feOffset/>
      <feGaussianBlur stdDeviation="5.01612"/>
      <feComposite in2="hardAlpha" operator="out"/>
      <feColorMatrix type="matrix" values="0 0 0 0 0.313726 0 0 0 0 0.392157 0 0 0 0 0.984314 0 0 0 0.5 0"/>
      <feBlend mode="normal" in2="BackgroundImageFix" result="effect1_dropShadow_203_906"/>
      <feBlend mode="normal" in="SourceGraphic" in2="effect1_dropShadow_203_906" result="shape"/>
    </filter>
    <filter id="filter1_di_203_906" x="19.2393" y="0.967682" width="31.1035" height="30.6746" filterUnits="userSpaceOnUse" color-interpolation-filters="sRGB">
      <feFlood flood-opacity="0" result="BackgroundImageFix"/>
      <feColorMatrix in="SourceAlpha" type="matrix" values="0 0 0 0 0 0 0 0 0 0 0 0 0 0 0 0 0 0 127 0" result="hardAlpha"/>
      <feOffset/>
      <feGaussianBlur stdDeviation="5.01612"/>
      <feComposite in2="hardAlpha" operator="out"/>
      <feColorMatrix type="matrix" values="0 0 0 0 0.313726 0 0 0 0 0.392157 0 0 0 0 0.984314 0 0 0 0.5 0"/>
      <feBlend mode="normal" in2="BackgroundImageFix" result="effect1_dropShadow_203_906"/>
      <feBlend mode="normal" in="SourceGraphic" in2="effect1_dropShadow_203_906" result="shape"/>
      <feColorMatrix in="SourceAlpha" type="matrix" values="0 0 0 0 0 0 0 0 0 0 0 0 0 0 0 0 0 0 127 0" result="hardAlpha"/>
      <feOffset dy="4"/>
      <feGaussianBlur stdDeviation="2"/>
      <feComposite in2="hardAlpha" operator="arithmetic" k2="-1" k3="1"/>
      <feColorMatrix type="matrix" values="0 0 0 0 0 0 0 0 0 0 0 0 0 0 0 0 0 0 0.25 0"/>
      <feBlend mode="normal" in2="shape" result="effect2_innerShadow_203_906"/>
    </filter>
  </defs>
        </symbol>
        <symbol fill="none" viewBox="0 0 28 28" id="icon-right">
            <path d="M20.1193 8.10669L11.3327 16.8934L6.54602 12.12L4.66602 14L11.3327 20.6667L21.9993 10L20.1193 8.10669ZM13.9993 0.666687C6.63935 0.666687 0.666016 6.64002 0.666016 14C0.666016 21.36 6.63935 27.3334 13.9993 27.3334C21.3593 27.3334 27.3327 21.36 27.3327 14C27.3327 6.64002 21.3593 0.666687 13.9993 0.666687ZM13.9993 24.6667C8.10602 24.6667 3.33268 19.8934 3.33268 14C3.33268 8.10669 8.10602 3.33335 13.9993 3.33335C19.8927 3.33335 24.666 8.10669 24.666 14C24.666 19.8934 19.8927 24.6667 13.9993 24.6667Z" fill="#F4F6F9"></path>
        </symbol>
        <symbol fill="none" viewBox="0 0 40 40" id="icon-setting">
            <path d="M37.8334 31.6662L22.6667 16.4996C24.1667 12.6662 23.3334 8.16624 20.1667 4.99957C16.8334 1.66624 11.8334 0.999572 7.8334 2.83291L15.0001 9.99958L10.0001 14.9996L2.66673 7.83291C0.666728 11.8329 1.50006 16.8329 4.8334 20.1662C8.00006 23.3329 12.5001 24.1662 16.3334 22.6662L31.5001 37.8329C32.1667 38.4996 33.1667 38.4996 33.8334 37.8329L37.6667 33.9996C38.5001 33.3329 38.5001 32.1662 37.8334 31.6662Z" fill="#F4F6F9"></path>
        </symbol>
        <symbol fill="none" viewBox="0 0 34 34" id="icon-message">
            <path d="M33.6497 3.66665C33.6497 1.83331 32.1664 0.333313 30.333 0.333313H3.66634C1.83301 0.333313 0.333008 1.83331 0.333008 3.66665V23.6667C0.333008 25.5 1.83301 27 3.66634 27H26.9997L33.6664 33.6667L33.6497 3.66665ZM26.9997 20.3333H6.99968V17H26.9997V20.3333ZM26.9997 15.3333H6.99968V12H26.9997V15.3333ZM26.9997 10.3333H6.99968V6.99998H26.9997V10.3333Z" fill="#F4F6F9"></path>
        </symbol>
        <symbol fill="none" viewBox="0 0 18 30" id="icon-dollar">
            <path d="M9.66654 13.1666C5.8832 12.1833 4.66654 11.1666 4.66654 9.5833C4.66654 7.76664 6.34987 6.49997 9.16654 6.49997C12.1332 6.49997 13.2332 7.91664 13.3332 9.99997H17.0165C16.8999 7.1333 15.1499 4.49997 11.6665 3.64997V-3.05176e-05H6.66654V3.59997C3.4332 4.29997 0.833203 6.39997 0.833203 9.61664C0.833203 13.4666 4.01654 15.3833 8.66654 16.5C12.8332 17.5 13.6665 18.9666 13.6665 20.5166C13.6665 21.6666 12.8499 23.5 9.16654 23.5C5.7332 23.5 4.3832 21.9666 4.19987 20H0.533203C0.733203 23.65 3.46654 25.7 6.66654 26.3833V30H11.6665V26.4166C14.9165 25.8 17.4999 23.9166 17.4999 20.5C17.4999 15.7666 13.4499 14.15 9.66654 13.1666Z" fill="#F4F6F9"></path>
        </symbol>
        <symbol fill="none" viewBox="0 0 26 26" id="icon-profile">
            <path d="M13 0.5C6.1 0.5 0.5 6.1 0.5 13C0.5 19.9 6.1 25.5 13 25.5C19.9 25.5 25.5 19.9 25.5 13C25.5 6.1 19.9 0.5 13 0.5ZM13 4.25C15.075 4.25 16.75 5.925 16.75 8C16.75 10.075 15.075 11.75 13 11.75C10.925 11.75 9.25 10.075 9.25 8C9.25 5.925 10.925 4.25 13 4.25ZM13 22C9.875 22 7.1125 20.4 5.5 17.975C5.5375 15.4875 10.5 14.125 13 14.125C15.4875 14.125 20.4625 15.4875 20.5 17.975C18.8875 20.4 16.125 22 13 22Z" fill="#F4F6F9"></path>
        </symbol>
        <symbol fill="none" viewBox="0 0 12 12" id="icon-sort-arrow">
            <path d="M6.25 1V11.5" stroke="#787878" stroke-linecap="round" stroke-linejoin="round"></path>
            <path d="M11.5 6.25L6.25 11.5L1 6.25" stroke="#787878" stroke-linecap="round" stroke-linejoin="round"></path>
        </symbol>
        <symbol fill="none"  viewBox="0 0 16 16" id="icon-refresh">
            <path d="M15.334 13.3334V9.33338H11.334" stroke="#FCFCFC" stroke-linecap="round" stroke-linejoin="round"></path>
            <path d="M0.666016 2.66662L0.666016 6.66663L4.66602 6.66663" stroke="#FCFCFC" stroke-linecap="round" stroke-linejoin="round"></path>
            <path d="M2.34065 9.99999C2.67876 10.9555 3.25341 11.8097 4.01096 12.483C4.76852 13.1564 5.6843 13.6268 6.67284 13.8505C7.66139 14.0742 8.69049 14.0438 9.66411 13.7621C10.6377 13.4805 11.5242 12.9568 12.2407 12.24L15.334 9.33332M0.66732 6.66666L3.76065 3.75999C4.47715 3.04313 5.36357 2.51946 6.33719 2.23784C7.31082 1.95622 8.33991 1.92582 9.32846 2.1495C10.317 2.37317 11.2328 2.84361 11.9903 3.51694C12.7479 4.19026 13.3225 5.04451 13.6607 5.99999" stroke="#FCFCFC" stroke-linecap="round" stroke-linejoin="round"></path>
        </symbol>
        <symbol fill="none" viewBox="0 0 16 13" id="icon-arrow-right">
            <path d="M0.233699 6.92301C0.233699 7.1693 0.334179 7.40541 0.512717 7.57964C0.691253 7.75371 0.933564 7.85152 1.18618 7.85152L11.6313 7.85152L7.75976 11.3709C7.56478 11.5362 7.44703 11.7718 7.43374 12.0236C7.42029 12.2754 7.51263 12.5216 7.68917 12.7057C7.86572 12.8898 8.11152 12.996 8.36995 12.9999C8.62837 13.0039 8.87752 12.9051 9.05987 12.7265L14.7002 7.60325C14.8933 7.42771 15.0029 7.18174 15.0029 6.92427C15.0029 6.66681 14.8933 6.42081 14.7002 6.2453L9.05987 1.11952C8.81108 0.89314 8.45732 0.813309 8.13182 0.910142C7.8063 1.00714 7.55852 1.2659 7.48177 1.58928C7.40504 1.91249 7.511 2.25109 7.7598 2.47764L11.6313 5.99459L1.18622 5.99459C0.933611 5.99459 0.691281 6.0924 0.512753 6.26647C0.334216 6.44071 0.233735 6.6768 0.233736 6.9231L0.233699 6.92301Z" fill="#B7B9C8"></path>
        </symbol>
        <symbol fill="none" viewBox="0 0 17 17" id="icon-info-dark">
            <path d="M8.49984 16.8337C3.89734 16.8337 0.166504 13.1028 0.166504 8.50033C0.166504 3.89783 3.89734 0.166992 8.49984 0.166992C13.1023 0.166992 16.8332 3.89783 16.8332 8.50033C16.8332 13.1028 13.1023 16.8337 8.49984 16.8337ZM7.6665 7.66699V12.667H9.33317V7.66699H7.6665ZM7.6665 4.33366V6.00033H9.33317V4.33366H7.6665Z" fill="#FCFCFC"></path>
        </symbol>
        <symbol fill="none" viewBox="0 0 32 38" id="icon-dydx_usecase1">
            <path d="M18.0113 3.28052C17.9486 3.29516 17.8893 3.32205 17.8369 3.35964C17.7846 3.39723 17.7401 3.44479 17.7062 3.49959C17.4556 3.9027 17.0044 4.17401 16.4913 4.17401C15.972 4.17401 15.5268 3.9045 15.2696 3.49672C15.2005 3.38674 15.0905 3.30872 14.9638 3.27984C14.8372 3.25096 14.7042 3.27357 14.5943 3.3427L4.81364 9.48524C4.70387 9.55406 4.62583 9.66356 4.59661 9.78978C4.56739 9.91599 4.58936 10.0487 4.65771 10.1587C4.79723 10.3827 4.87774 10.6449 4.87774 10.9288C4.87774 11.2065 4.79723 11.4692 4.65771 11.6931C4.58936 11.8032 4.56739 11.9359 4.59661 12.0621C4.62583 12.1883 4.70387 12.2978 4.81364 12.3666L14.5263 18.4651C14.5834 18.501 14.6473 18.5246 14.714 18.5346C14.7807 18.5446 14.8487 18.5407 14.9138 18.5232C14.9789 18.5057 15.0397 18.4749 15.0924 18.4328C15.145 18.3907 15.1884 18.3382 15.2199 18.2786C15.4605 17.8229 15.9333 17.5162 16.4913 17.5162C17.0431 17.5162 17.5163 17.8229 17.7569 18.2786C17.7883 18.3382 17.8317 18.3907 17.8844 18.4328C17.9371 18.4749 17.9979 18.5057 18.063 18.5232C18.1281 18.5407 18.1961 18.5446 18.2628 18.5346C18.3294 18.5246 18.3933 18.501 18.4504 18.4651L28.0062 12.4699C28.0627 12.4345 28.1114 12.388 28.1493 12.3331C28.1872 12.2783 28.2135 12.2162 28.2266 12.1509C28.2396 12.0855 28.2392 12.0181 28.2254 11.9529C28.2115 11.8877 28.1845 11.826 28.1459 11.7716C27.9746 11.5295 27.8733 11.2437 27.8733 10.9288C27.8733 10.6101 27.9711 10.3267 28.143 10.0889C28.1824 10.0346 28.2102 9.97281 28.2247 9.90735C28.2392 9.8419 28.2401 9.77416 28.2274 9.70834C28.2146 9.64251 28.1885 9.58 28.1507 9.52468C28.1128 9.46936 28.064 9.4224 28.0072 9.38671L18.3825 3.3427C18.3278 3.30838 18.2668 3.28521 18.2031 3.27454C18.1394 3.26387 18.0743 3.2659 18.0113 3.28052ZM14.8057 4.36725C15.2459 4.81977 15.8118 5.15361 16.4913 5.15361C17.167 5.15361 17.7317 4.82063 18.1711 4.36725L27.1845 10.0267C27.0604 10.3188 26.8937 10.5946 26.8937 10.9288C26.8937 11.2661 27.0585 11.5392 27.1826 11.8299L18.2562 17.4301C17.812 16.9159 17.216 16.5366 16.4913 16.5366C15.7635 16.5366 15.1652 16.9158 14.7205 17.4301L5.62965 11.7228C5.72442 11.463 5.85733 11.2179 5.85733 10.9288C5.85733 10.6369 5.72377 10.3909 5.62869 10.13L14.8057 4.36725Z" fill="white"></path>
            <path d="M5.33311 11.537C5.22332 11.4681 5.09068 11.4455 4.96427 11.4742C4.83786 11.5029 4.72797 11.5805 4.65868 11.6901C4.40152 12.0978 3.9563 12.3683 3.43706 12.3683C3.30716 12.3683 3.18259 12.4199 3.09074 12.5118C2.99889 12.6036 2.94728 12.7282 2.94727 12.8581V24.1818C2.94728 24.3117 2.99889 24.4362 3.09074 24.5281C3.18259 24.6199 3.30716 24.6716 3.43706 24.6716C4.2412 24.6716 4.87679 25.3081 4.87679 26.1123C4.87679 26.3576 4.81533 26.5868 4.70843 26.7896C4.65089 26.8987 4.63667 27.0255 4.66859 27.1447C4.70051 27.2639 4.77623 27.3666 4.88062 27.4324L14.5933 33.5309C14.7033 33.6001 14.8362 33.6227 14.9629 33.5938C15.0896 33.5649 15.1996 33.4869 15.2687 33.3769C15.5259 32.9691 15.9711 32.6996 16.4903 32.6996C17.0034 32.6996 17.4547 32.9709 17.7052 33.3741C17.7392 33.4289 17.7837 33.4764 17.8362 33.514C17.8886 33.5516 17.948 33.5784 18.0108 33.593C18.0737 33.6076 18.1388 33.6096 18.2024 33.599C18.266 33.5883 18.3269 33.5652 18.3816 33.5309L28.1574 27.3989C28.2121 27.3647 28.2595 27.32 28.2969 27.2674C28.3343 27.2147 28.3609 27.1552 28.3752 27.0923C28.3895 27.0294 28.3913 26.9642 28.3803 26.9006C28.3694 26.837 28.346 26.7762 28.3114 26.7216C28.1738 26.5043 28.0981 26.2565 28.0981 25.9745C28.0981 25.178 28.7413 24.5348 29.5378 24.5348C29.6677 24.5348 29.7923 24.4831 29.8842 24.3913C29.976 24.2994 30.0276 24.1749 30.0276 24.045V12.8428C30.0275 12.7731 30.0126 12.7043 29.9838 12.6408C29.9549 12.5774 29.9129 12.5208 29.8605 12.4749C29.8081 12.429 29.7464 12.3948 29.6797 12.3746C29.6131 12.3544 29.5428 12.3487 29.4737 12.3578C29.4215 12.3648 29.371 12.3683 29.313 12.3683C28.8273 12.3683 28.4066 12.1316 28.1411 11.7666C28.0682 11.6662 27.9599 11.5973 27.8381 11.5736C27.7163 11.55 27.5901 11.5735 27.4849 11.6394L17.9291 17.6346C17.8235 17.7009 17.7471 17.8051 17.7157 17.9258C17.6842 18.0465 17.7 18.1747 17.7598 18.2841C17.8687 18.4838 17.93 18.7104 17.93 18.9557C17.93 19.7583 17.2883 20.3954 16.4903 20.3954C15.6862 20.3954 15.0496 19.7598 15.0496 18.9557C15.0496 18.7104 15.112 18.4811 15.219 18.2784C15.2767 18.169 15.2909 18.0419 15.2588 17.9225C15.2267 17.8031 15.1506 17.7002 15.0458 17.6346L5.33311 11.537ZM5.12265 12.5606L14.2374 18.2841C14.1708 18.5052 14.07 18.7124 14.07 18.9557C14.07 20.2871 15.1589 21.375 16.4903 21.375C17.818 21.375 18.9096 20.2886 18.9096 18.9557C18.9096 18.7133 18.8063 18.505 18.7384 18.2832L27.7097 12.6553C28.0768 12.9947 28.525 13.2215 29.048 13.2829V23.6547C27.959 23.8895 27.1185 24.8187 27.1185 25.9745C27.1185 26.2577 27.2496 26.4982 27.3414 26.7532L18.1702 32.5064C17.7307 32.053 17.1661 31.72 16.4903 31.72C15.8109 31.72 15.245 32.0539 14.8047 32.5064L5.68898 26.7838C5.75566 26.5628 5.85639 26.3556 5.85639 26.1123C5.85639 24.9544 5.01711 24.0257 3.92686 23.7915V13.2188C4.39867 13.1151 4.7975 12.8952 5.12265 12.5606Z" fill="white"></path>
            <path d="M5.33311 11.537C5.22332 11.4681 5.09068 11.4455 4.96427 11.4742C4.83786 11.5029 4.72797 11.5805 4.65868 11.6901C4.40152 12.0978 3.9563 12.3683 3.43706 12.3683C3.30716 12.3683 3.18259 12.4199 3.09074 12.5118C2.99889 12.6036 2.94728 12.7282 2.94727 12.8581V24.1818C2.94728 24.3117 2.99889 24.4362 3.09074 24.5281C3.18259 24.6199 3.30716 24.6716 3.43706 24.6716C4.2412 24.6716 4.87679 25.3081 4.87679 26.1123C4.87679 26.3576 4.81533 26.5868 4.70843 26.7896C4.65089 26.8987 4.63667 27.0255 4.66859 27.1447C4.70051 27.2639 4.77623 27.3666 4.88062 27.4324L14.5933 33.5309C14.7033 33.6001 14.8362 33.6227 14.9629 33.5938C15.0896 33.5649 15.1996 33.4869 15.2687 33.3769C15.5259 32.9691 15.9711 32.6996 16.4903 32.6996C17.0034 32.6996 17.4547 32.9709 17.7052 33.3741C17.7392 33.4289 17.7837 33.4764 17.8362 33.514C17.8886 33.5516 17.948 33.5784 18.0108 33.593C18.0737 33.6076 18.1388 33.6096 18.2024 33.599C18.266 33.5883 18.3269 33.5652 18.3816 33.5309L28.1574 27.3989C28.2121 27.3647 28.2595 27.32 28.2969 27.2674C28.3343 27.2147 28.3609 27.1552 28.3752 27.0923C28.3895 27.0294 28.3913 26.9642 28.3803 26.9006C28.3694 26.837 28.346 26.7762 28.3114 26.7216C28.1738 26.5043 28.0981 26.2565 28.0981 25.9745C28.0981 25.178 28.7413 24.5348 29.5378 24.5348C29.6677 24.5348 29.7923 24.4831 29.8842 24.3913C29.976 24.2994 30.0276 24.1749 30.0276 24.045V12.8428C30.0275 12.7731 30.0126 12.7043 29.9838 12.6408C29.9549 12.5774 29.9129 12.5208 29.8605 12.4749C29.8081 12.429 29.7464 12.3948 29.6797 12.3746C29.6131 12.3544 29.5428 12.3487 29.4737 12.3578C29.4215 12.3648 29.371 12.3683 29.313 12.3683C28.8273 12.3683 28.4066 12.1316 28.1411 11.7666C28.0682 11.6662 27.9599 11.5973 27.8381 11.5736C27.7163 11.55 27.5901 11.5735 27.4849 11.6394L17.9291 17.6346C17.8235 17.7009 17.7471 17.8051 17.7157 17.9258C17.6842 18.0465 17.7 18.1747 17.7598 18.2841C17.8687 18.4838 17.93 18.7104 17.93 18.9557C17.93 19.7583 17.2883 20.3954 16.4903 20.3954C15.6862 20.3954 15.0496 19.7598 15.0496 18.9557C15.0496 18.7104 15.112 18.4811 15.219 18.2784C15.2767 18.169 15.2909 18.0419 15.2588 17.9225C15.2267 17.8031 15.1506 17.7002 15.0458 17.6346L5.33311 11.537ZM5.12265 12.5606L14.2374 18.2841C14.1708 18.5052 14.07 18.7124 14.07 18.9557C14.07 20.2871 15.1589 21.375 16.4903 21.375C17.818 21.375 18.9096 20.2886 18.9096 18.9557C18.9096 18.7133 18.8063 18.505 18.7384 18.2832L27.7097 12.6553C28.0768 12.9947 28.525 13.2215 29.048 13.2829V23.6547C27.959 23.8895 27.1185 24.8187 27.1185 25.9745C27.1185 26.2577 27.2496 26.4982 27.3414 26.7532L18.1702 32.5064C17.7307 32.053 17.1661 31.72 16.4903 31.72C15.8109 31.72 15.245 32.0539 14.8047 32.5064L5.68898 26.7838C5.75566 26.5628 5.85639 26.3556 5.85639 26.1123C5.85639 24.9544 5.01711 24.0257 3.92686 23.7915V13.2188C4.39867 13.1151 4.7975 12.8952 5.12265 12.5606Z" fill="white"></path>
            <path d="M18.0113 3.28052C17.9486 3.29516 17.8893 3.32205 17.8369 3.35964C17.7846 3.39723 17.7401 3.44479 17.7062 3.49959C17.4556 3.9027 17.0044 4.17401 16.4913 4.17401C15.972 4.17401 15.5268 3.9045 15.2696 3.49672C15.2005 3.38674 15.0905 3.30872 14.9638 3.27984C14.8372 3.25096 14.7042 3.27357 14.5943 3.3427L4.81364 9.48524C4.70387 9.55406 4.62583 9.66356 4.59661 9.78978C4.56739 9.91599 4.58936 10.0487 4.65771 10.1587C4.79723 10.3827 4.87774 10.6449 4.87774 10.9288C4.87774 11.2065 4.79723 11.4692 4.65771 11.6931C4.58936 11.8032 4.56739 11.9359 4.59661 12.0621C4.62583 12.1883 4.70387 12.2978 4.81364 12.3666L14.5263 18.4651C14.5834 18.501 14.6473 18.5246 14.714 18.5346C14.7807 18.5446 14.8487 18.5407 14.9138 18.5232C14.9789 18.5057 15.0397 18.4749 15.0924 18.4328C15.145 18.3907 15.1884 18.3382 15.2199 18.2786C15.4605 17.8229 15.9333 17.5162 16.4913 17.5162C17.0431 17.5162 17.5163 17.8229 17.7569 18.2786C17.7883 18.3382 17.8317 18.3907 17.8844 18.4328C17.9371 18.4749 17.9979 18.5057 18.063 18.5232C18.1281 18.5407 18.1961 18.5446 18.2628 18.5346C18.3294 18.5246 18.3933 18.501 18.4504 18.4651L28.0062 12.4699C28.0627 12.4345 28.1114 12.388 28.1493 12.3331C28.1872 12.2783 28.2135 12.2162 28.2266 12.1509C28.2396 12.0855 28.2392 12.0181 28.2254 11.9529C28.2115 11.8877 28.1845 11.826 28.1459 11.7716C27.9746 11.5295 27.8733 11.2437 27.8733 10.9288C27.8733 10.6101 27.9711 10.3267 28.143 10.0889C28.1824 10.0346 28.2102 9.97281 28.2247 9.90735C28.2392 9.8419 28.2401 9.77416 28.2274 9.70834C28.2146 9.64251 28.1885 9.58 28.1507 9.52468C28.1128 9.46936 28.064 9.4224 28.0072 9.38671L18.3825 3.3427C18.3278 3.30838 18.2668 3.28521 18.2031 3.27454C18.1394 3.26387 18.0743 3.2659 18.0113 3.28052ZM14.8057 4.36725C15.2459 4.81977 15.8118 5.15361 16.4913 5.15361C17.167 5.15361 17.7317 4.82063 18.1711 4.36725L27.1845 10.0267C27.0604 10.3188 26.8937 10.5946 26.8937 10.9288C26.8937 11.2661 27.0585 11.5392 27.1826 11.8299L18.2562 17.4301C17.812 16.9159 17.216 16.5366 16.4913 16.5366C15.7635 16.5366 15.1652 16.9158 14.7205 17.4301L5.62965 11.7228C5.72442 11.463 5.85733 11.2179 5.85733 10.9288C5.85733 10.6369 5.72377 10.3909 5.62869 10.13L14.8057 4.36725Z" fill="white"></path>
            <path d="M24.282 13.6866C24.2276 13.6524 24.1669 13.6292 24.1035 13.6184C24.0401 13.6076 23.9752 13.6094 23.9125 13.6237C23.8497 13.638 23.7905 13.6645 23.738 13.7017C23.6855 13.739 23.6409 13.7861 23.6067 13.8406C23.5374 13.9505 23.5147 14.0833 23.5434 14.21C23.5721 14.3366 23.6499 14.4467 23.7597 14.516L23.754 14.5122C23.7629 14.6331 23.8164 14.7464 23.904 14.8301C23.9917 14.9139 24.1073 14.9622 24.2285 14.9656C24.3584 14.9656 24.483 14.914 24.5748 14.8222C24.6667 14.7303 24.7183 14.6057 24.7183 14.4758V14.2309C24.7181 14.1481 24.697 14.0667 24.6569 13.9942C24.6167 13.9218 24.5588 13.8607 24.4887 13.8167L24.282 13.6866Z" fill="white"></path>
            <path d="M24.2281 16.3174C24.0982 16.3174 23.9736 16.369 23.8817 16.4608C23.7899 16.5527 23.7383 16.6773 23.7383 16.8072V17.2731C23.7383 17.403 23.7899 17.5275 23.8817 17.6194C23.9736 17.7113 24.0982 17.7629 24.2281 17.7629C24.358 17.7629 24.4826 17.7113 24.5744 17.6194C24.6663 17.5275 24.7179 17.403 24.7179 17.2731V16.8072C24.7179 16.6773 24.6663 16.5527 24.5744 16.4608C24.4826 16.369 24.358 16.3174 24.2281 16.3174ZM24.2281 19.1136C24.0982 19.1136 23.9736 19.1652 23.8817 19.2571C23.7899 19.3489 23.7383 19.4735 23.7383 19.6034V20.0693C23.7383 20.1992 23.7899 20.3238 23.8817 20.4156C23.9736 20.5075 24.0982 20.5591 24.2281 20.5591C24.358 20.5591 24.4826 20.5075 24.5744 20.4156C24.6663 20.3238 24.7179 20.1992 24.7179 20.0693V19.6034C24.7179 19.4735 24.6663 19.3489 24.5744 19.2571C24.4826 19.1652 24.358 19.1136 24.2281 19.1136Z" fill="white"></path>
            <path d="M24.2285 21.9108C24.1073 21.9142 23.9917 21.9625 23.904 22.0463C23.8164 22.13 23.7629 22.2433 23.754 22.3642L23.7597 22.3604C23.6499 22.4297 23.5721 22.5397 23.5434 22.6664C23.5147 22.793 23.5374 22.9259 23.6067 23.0358C23.6409 23.0902 23.6855 23.1374 23.738 23.1746C23.7905 23.2119 23.8497 23.2384 23.9125 23.2527C23.9752 23.267 24.0401 23.2688 24.1035 23.258C24.1669 23.2472 24.2276 23.224 24.282 23.1898L24.4887 23.0597C24.5588 23.0157 24.6167 22.9546 24.6569 22.8822C24.697 22.8097 24.7181 22.7283 24.7183 22.6455V22.4006C24.7183 22.2707 24.6667 22.1461 24.5748 22.0542C24.483 21.9624 24.3584 21.9108 24.2285 21.9108Z" fill="white"></path>
            <path d="M21.9757 23.65C21.8491 23.6212 21.7163 23.6439 21.6065 23.7131L21.176 23.9829C21.1215 24.017 21.0742 24.0616 21.0369 24.114C20.9996 24.1664 20.9729 24.2257 20.9586 24.2884C20.9442 24.3512 20.9423 24.4161 20.953 24.4796C20.9637 24.543 20.9868 24.6037 21.021 24.6582C21.0552 24.7128 21.0997 24.7601 21.1522 24.7974C21.2046 24.8347 21.2639 24.8613 21.3266 24.8757C21.3893 24.8901 21.4543 24.892 21.5177 24.8812C21.5812 24.8705 21.6419 24.8474 21.6964 24.8132L22.1269 24.5425C22.1814 24.5083 22.2287 24.4638 22.266 24.4113C22.3033 24.3589 22.3299 24.2996 22.3443 24.2369C22.3587 24.1742 22.3606 24.1093 22.3499 24.0458C22.3392 23.9823 22.3161 23.9216 22.2819 23.8671C22.2476 23.8126 22.203 23.7653 22.1504 23.728C22.0979 23.6908 22.0385 23.6642 21.9757 23.65ZM19.0217 25.3355L18.5912 25.6053C18.5366 25.6395 18.4894 25.684 18.452 25.7365C18.4147 25.7889 18.3881 25.8482 18.3737 25.9109C18.3593 25.9736 18.3575 26.0386 18.3682 26.102C18.3789 26.1655 18.402 26.2262 18.4362 26.2807C18.4704 26.3352 18.5149 26.3825 18.5674 26.4198C18.6198 26.4571 18.6791 26.4837 18.7418 26.4981C18.8045 26.5125 18.8694 26.5144 18.9329 26.5037C18.9963 26.493 19.0571 26.4699 19.1116 26.4357L19.5421 26.1649C19.5966 26.1308 19.6439 26.0862 19.6812 26.0338C19.7185 25.9814 19.7451 25.9221 19.7595 25.8594C19.7739 25.7966 19.7758 25.7317 19.7651 25.6682C19.7544 25.6048 19.7312 25.5441 19.697 25.4896C19.6628 25.4351 19.6182 25.3879 19.5657 25.3507C19.5133 25.3135 19.454 25.287 19.3913 25.2727C19.3285 25.2584 19.2636 25.2566 19.2002 25.2673C19.1368 25.2781 19.0761 25.3013 19.0217 25.3355Z" fill="white"></path>
            <path d="M16.1742 26.8949C16.1114 26.9092 16.0521 26.9357 15.9995 26.973C15.947 27.0103 15.9024 27.0575 15.8681 27.1121C15.8339 27.1665 15.8107 27.2272 15.7999 27.2906C15.7891 27.354 15.7909 27.4189 15.8052 27.4816C15.8195 27.5444 15.846 27.6036 15.8833 27.6561C15.9205 27.7086 15.9677 27.7532 16.0221 27.7874L16.2288 27.9175C16.307 27.9668 16.3975 27.993 16.4899 27.993C16.5823 27.993 16.6729 27.9668 16.7511 27.9175L16.9577 27.7874C17.0122 27.7532 17.0594 27.7086 17.0966 27.6561C17.1338 27.6036 17.1603 27.5444 17.1746 27.4816C17.1889 27.4189 17.1907 27.354 17.1799 27.2906C17.1691 27.2272 17.146 27.1665 17.1117 27.1121C17.0472 27.0207 16.9534 26.9542 16.8458 26.9236C16.7383 26.8929 16.6235 26.9 16.5205 26.9437L16.5435 26.958C16.5258 26.9539 16.5079 26.9507 16.4899 26.9485C16.4719 26.9507 16.454 26.9539 16.4363 26.958L16.4593 26.9437C16.3714 26.8991 16.272 26.8821 16.1742 26.8949Z" fill="white"></path>
            <path d="M11.0034 23.65C10.8769 23.6791 10.7671 23.7572 10.6982 23.8671C10.6639 23.9216 10.6408 23.9822 10.63 24.0457C10.6192 24.1091 10.621 24.174 10.6353 24.2367C10.6496 24.2994 10.6761 24.3587 10.7133 24.4112C10.7506 24.4636 10.7977 24.5083 10.8522 24.5425L11.2827 24.8132C11.3372 24.8474 11.3979 24.8705 11.4614 24.8812C11.5248 24.892 11.5898 24.8901 11.6525 24.8757C11.7152 24.8613 11.7745 24.8347 11.8269 24.7974C11.8794 24.7601 11.9239 24.7128 11.9581 24.6582C11.9923 24.6038 12.0155 24.5431 12.0263 24.4797C12.0371 24.4163 12.0353 24.3514 12.021 24.2887C12.0066 24.2259 11.9801 24.1667 11.9429 24.1142C11.9057 24.0617 11.8585 24.0171 11.8041 23.9829L11.3726 23.7131C11.2628 23.6439 11.1299 23.6212 11.0034 23.65ZM13.9584 25.3355C13.9039 25.3013 13.8433 25.2781 13.7798 25.2673C13.7164 25.2566 13.6515 25.2584 13.5888 25.2727C13.5261 25.287 13.4668 25.3135 13.4143 25.3507C13.3619 25.3879 13.3172 25.4351 13.283 25.4896C13.2488 25.544 13.2256 25.6047 13.2148 25.6681C13.204 25.7315 13.2058 25.7964 13.2201 25.8592C13.2344 25.9219 13.2609 25.9812 13.2982 26.0336C13.3354 26.0861 13.3826 26.1307 13.437 26.1649L13.8675 26.4357C13.922 26.4699 13.9827 26.493 14.0462 26.5037C14.1097 26.5144 14.1746 26.5125 14.2373 26.4981C14.3 26.4837 14.3593 26.4571 14.4117 26.4198C14.4642 26.3825 14.5087 26.3352 14.5429 26.2807C14.6117 26.1708 14.6342 26.0381 14.6053 25.9116C14.5764 25.7852 14.4986 25.6754 14.3889 25.6063L13.9584 25.3355Z" fill="white"></path>
            <path d="M8.75151 21.9108C8.62161 21.9108 8.49703 21.9624 8.40518 22.0542C8.31332 22.1461 8.26172 22.2707 8.26172 22.4006V22.6455C8.26185 22.7283 8.28298 22.8097 8.32313 22.8822C8.36328 22.9546 8.42114 23.0157 8.49131 23.0597L8.69794 23.1898C8.7524 23.224 8.81307 23.2472 8.87649 23.258C8.9399 23.2688 9.00482 23.267 9.06754 23.2527C9.13025 23.2384 9.18954 23.2118 9.242 23.1746C9.29447 23.1374 9.3391 23.0902 9.37333 23.0358C9.43756 22.9304 9.45965 22.8046 9.43518 22.6837C9.4107 22.5627 9.34146 22.4555 9.24131 22.3833V22.4006C9.23988 22.3932 9.23828 22.3859 9.23651 22.3786C9.23124 22.3724 9.22582 22.3663 9.22025 22.3604L9.23556 22.3709C9.22806 22.2472 9.17394 22.1309 9.08411 22.0455C8.99429 21.9602 8.87544 21.912 8.75151 21.9108Z" fill="white"></path>
            <path d="M8.75151 16.3174C8.62161 16.3174 8.49703 16.369 8.40518 16.4608C8.31332 16.5527 8.26172 16.6773 8.26172 16.8072V17.2731C8.26172 17.403 8.31332 17.5275 8.40518 17.6194C8.49703 17.7113 8.62161 17.7629 8.75151 17.7629C8.88142 17.7629 9.006 17.7113 9.09785 17.6194C9.18971 17.5275 9.24131 17.403 9.24131 17.2731V16.8072C9.24131 16.6773 9.18971 16.5527 9.09785 16.4608C9.006 16.369 8.88142 16.3174 8.75151 16.3174ZM8.75151 19.1136C8.62161 19.1136 8.49703 19.1652 8.40518 19.2571C8.31332 19.3489 8.26172 19.4735 8.26172 19.6034V20.0693C8.26172 20.1992 8.31332 20.3238 8.40518 20.4156C8.49703 20.5075 8.62161 20.5591 8.75151 20.5591C8.88142 20.5591 9.006 20.5075 9.09785 20.4156C9.18971 20.3238 9.24131 20.1992 9.24131 20.0693V19.6034C9.24131 19.4735 9.18971 19.3489 9.09785 19.2571C9.006 19.1652 8.88142 19.1136 8.75151 19.1136Z" fill="white"></path>
            <path d="M9.06816 13.6235C9.00533 13.6092 8.94029 13.6073 8.87676 13.6182C8.81323 13.629 8.75246 13.6523 8.69794 13.6866L8.49131 13.8167C8.42114 13.8607 8.36328 13.9218 8.32313 13.9943C8.28298 14.0667 8.26185 14.1481 8.26172 14.231V14.4759C8.26172 14.6058 8.31332 14.7303 8.40518 14.8222C8.49703 14.9141 8.62161 14.9657 8.75151 14.9657C8.8727 14.9622 8.98829 14.9139 9.07594 14.8302C9.16359 14.7464 9.21706 14.6331 9.226 14.5122L9.22026 14.516C9.22285 14.5132 9.2254 14.5103 9.22792 14.5074C9.23275 14.4971 9.23722 14.4865 9.24131 14.4759V14.4931C9.34146 14.421 9.4107 14.3137 9.43518 14.1927C9.45965 14.0718 9.43756 13.946 9.37333 13.8407C9.30439 13.7307 9.19463 13.6526 9.06816 13.6235Z" fill="white"></path>
            <path d="M14.2384 10.3786C14.1756 10.3642 14.1106 10.3622 14.0471 10.3729C13.9836 10.3835 13.9228 10.4066 13.8682 10.4408L13.4377 10.7115C13.3832 10.7457 13.3359 10.7903 13.2986 10.8427C13.2613 10.8951 13.2347 10.9544 13.2203 11.0171C13.2059 11.0798 13.204 11.1448 13.2147 11.2082C13.2254 11.2717 13.2485 11.3324 13.2827 11.3869C13.317 11.4414 13.3616 11.4886 13.4141 11.5258C13.4665 11.563 13.5258 11.5895 13.5885 11.6038C13.6512 11.6181 13.7162 11.6199 13.7796 11.6092C13.843 11.5984 13.9037 11.5752 13.9581 11.5409L14.3886 11.2712C14.4431 11.237 14.4904 11.1925 14.5277 11.14C14.565 11.0876 14.5917 11.0283 14.606 10.9656C14.6204 10.9029 14.6223 10.8379 14.6116 10.7745C14.6009 10.711 14.5778 10.6503 14.5436 10.5958C14.4746 10.4858 14.3649 10.4077 14.2384 10.3786ZM11.6526 12.0011C11.5262 11.9721 11.3934 11.9945 11.2834 12.0633L10.8529 12.334C10.7984 12.3682 10.7511 12.4127 10.7138 12.4652C10.6765 12.5176 10.6498 12.5769 10.6355 12.6396C10.6211 12.7023 10.6192 12.7672 10.6299 12.8307C10.6406 12.8941 10.6637 12.9549 10.6979 13.0094C10.7321 13.0638 10.7768 13.111 10.8292 13.1482C10.8817 13.1855 10.941 13.212 11.0037 13.2263C11.0664 13.2406 11.1313 13.2424 11.1948 13.2316C11.2582 13.2208 11.3188 13.1976 11.3733 13.1634L11.8038 12.8936C11.8583 12.8595 11.9056 12.8149 11.9429 12.7625C11.9802 12.71 12.0068 12.6508 12.0212 12.588C12.0356 12.5253 12.0375 12.4604 12.0268 12.3969C12.0161 12.3335 11.993 12.2728 11.9588 12.2182C11.9245 12.1637 11.8799 12.1164 11.8273 12.0792C11.7748 12.0419 11.7154 12.0154 11.6526 12.0011Z" fill="white"></path>
            <path d="M16.2288 8.95885L16.0221 9.08895C15.9677 9.12318 15.9205 9.1678 15.8833 9.22027C15.846 9.27274 15.8195 9.33202 15.8052 9.39474C15.7909 9.45746 15.7891 9.52238 15.7999 9.58579C15.8107 9.64921 15.8339 9.70988 15.8681 9.76433C15.9378 9.85829 16.0388 9.92422 16.1528 9.95019C16.2669 9.97616 16.3864 9.96045 16.4899 9.90592C16.5934 9.96045 16.713 9.97616 16.827 9.95019C16.9411 9.92422 17.0421 9.85829 17.1117 9.76433C17.146 9.70988 17.1691 9.64921 17.1799 9.58579C17.1907 9.52238 17.1889 9.45746 17.1746 9.39474C17.1603 9.33202 17.1338 9.27274 17.0966 9.22027C17.0594 9.1678 17.0122 9.12318 16.9577 9.08895L16.7511 8.95885C16.6729 8.90957 16.5823 8.88342 16.4899 8.88342C16.3975 8.88342 16.307 8.90957 16.2288 8.95885Z" fill="white"></path>
            <path d="M18.7412 10.3786C18.6147 10.4077 18.505 10.4858 18.436 10.5958C18.3672 10.7057 18.3448 10.8384 18.3736 10.9648C18.4025 11.0913 18.4803 11.2011 18.5901 11.2702L19.0205 11.5409C19.075 11.5752 19.1357 11.5984 19.1991 11.6092C19.2625 11.6199 19.3274 11.6181 19.3901 11.6038C19.4529 11.5895 19.5121 11.563 19.5646 11.5258C19.6171 11.4886 19.6617 11.4414 19.6959 11.3869C19.7302 11.3325 19.7533 11.2718 19.7641 11.2084C19.7749 11.145 19.7731 11.0801 19.7588 11.0173C19.7445 10.9546 19.718 10.8953 19.6808 10.8429C19.6436 10.7904 19.5964 10.7458 19.5419 10.7115L19.1114 10.4408C19.0568 10.4066 18.996 10.3835 18.9325 10.3729C18.869 10.3622 18.804 10.3642 18.7412 10.3786ZM21.326 12.0011C21.1996 12.0302 21.0898 12.1083 21.0209 12.2182C20.9866 12.2727 20.9634 12.3334 20.9527 12.3968C20.9419 12.4602 20.9437 12.5251 20.958 12.5878C20.9723 12.6506 20.9988 12.7098 21.036 12.7623C21.0732 12.8148 21.1204 12.8594 21.1749 12.8936L21.6063 13.1634C21.7162 13.2322 21.8489 13.2547 21.9754 13.2258C22.1018 13.1969 22.2116 13.1191 22.2807 13.0094C22.315 12.9549 22.3382 12.8943 22.3489 12.8308C22.3597 12.7674 22.3579 12.7025 22.3436 12.6398C22.3293 12.5771 22.3028 12.5178 22.2656 12.4653C22.2284 12.4129 22.1812 12.3682 22.1267 12.334L21.6962 12.0633C21.6417 12.0291 21.5809 12.006 21.5173 11.9953C21.4538 11.9846 21.3888 11.9866 21.326 12.0011Z" fill="white"></path>
            <path d="M16.4898 20.3955C16.3599 20.3955 16.2353 20.4471 16.1435 20.539C16.0516 20.6308 16 20.7554 16 20.8853V32.2099C16 32.3398 16.0516 32.4644 16.1435 32.5563C16.2353 32.6481 16.3599 32.6997 16.4898 32.6997C16.6197 32.6997 16.7443 32.6481 16.8361 32.5563C16.928 32.4644 16.9796 32.3398 16.9796 32.2099V20.8853C16.9796 20.7554 16.928 20.6308 16.8361 20.539C16.7443 20.4471 16.6197 20.3955 16.4898 20.3955Z" fill="white"></path>
            <path d="M16.4896 0.315796C15.1591 0.315796 14.0703 1.40462 14.0703 2.73512C14.0703 4.06562 15.1591 5.1554 16.4896 5.1554C17.8201 5.1554 18.909 4.06562 18.909 2.73512C18.909 1.40462 17.8201 0.315796 16.4896 0.315796ZM16.4896 1.29539C17.2907 1.29539 17.9294 1.93403 17.9294 2.73512C17.9294 3.53621 17.2907 4.17581 16.4896 4.17581C15.6885 4.17581 15.0499 3.53621 15.0499 2.73512C15.0499 1.93403 15.6885 1.29539 16.4896 1.29539Z" fill="white"></path>
            <path d="M3.43886 8.50842C2.10835 8.50842 1.01953 9.59725 1.01953 10.9277C1.01953 12.2582 2.10835 13.3471 3.43886 13.3471C4.76936 13.3471 5.85914 12.2582 5.85914 10.9277C5.85914 9.59725 4.76936 8.50842 3.43886 8.50842ZM3.43886 9.48801C4.23995 9.48801 4.87954 10.1267 4.87954 10.9277C4.87954 11.7288 4.23995 12.3675 3.43886 12.3675C2.63776 12.3675 1.99912 11.7288 1.99912 10.9277C1.99912 10.1267 2.63776 9.48802 3.43886 9.48801Z" fill="white"></path>
            <path d="M16.4896 16.5365C15.1591 16.5365 14.0703 17.6253 14.0703 18.9558C14.0703 20.2863 15.1591 21.3751 16.4896 21.3751C17.8201 21.3751 18.909 20.2863 18.909 18.9558C18.909 17.6253 17.8201 16.5365 16.4896 16.5365ZM16.4896 17.5161C17.2907 17.5161 17.9294 18.1547 17.9294 18.9558C17.9294 19.7569 17.2907 20.3956 16.4896 20.3956C15.6885 20.3956 15.0499 19.7569 15.0499 18.9558C15.0499 18.1547 15.6885 17.5161 16.4896 17.5161Z" fill="white"></path>
            <path d="M29.3139 8.50842C27.9834 8.50842 26.8945 9.59725 26.8945 10.9277C26.8945 12.2582 27.9834 13.3471 29.3139 13.3471C30.6444 13.3471 31.7332 12.2582 31.7332 10.9277C31.7332 9.59725 30.6444 8.50842 29.3139 8.50842ZM29.3139 9.48801C30.1149 9.48801 30.7536 10.1267 30.7536 10.9277C30.7536 11.7288 30.1149 12.3675 29.3139 12.3675C28.5128 12.3675 27.8741 11.7288 27.8741 10.9277C27.8741 10.1267 28.5128 9.48802 29.3139 9.48801Z" fill="white"></path>
            <path d="M3.43886 23.693C2.10835 23.693 1.01953 24.7818 1.01953 26.1123C1.01953 27.4428 2.10835 28.5316 3.43886 28.5316C4.76936 28.5316 5.85914 27.4428 5.85914 26.1123C5.85914 24.7818 4.76936 23.693 3.43886 23.693ZM3.43886 24.6726C4.23995 24.6726 4.87954 25.3112 4.87954 26.1123C4.87954 26.9134 4.23995 27.552 3.43886 27.552C2.63776 27.552 1.99912 26.9134 1.99912 26.1123C1.99912 25.3112 2.63776 24.6726 3.43886 24.6726Z" fill="white"></path>
            <path d="M16.4896 31.7212C15.1591 31.7212 14.0703 32.811 14.0703 34.1415C14.0703 35.472 15.1591 36.5608 16.4896 36.5608C17.8201 36.5608 18.909 35.472 18.909 34.1415C18.909 32.811 17.8201 31.7212 16.4896 31.7212ZM16.4896 32.7008C17.2907 32.7008 17.9294 33.3404 17.9294 34.1415C17.9294 34.9426 17.2907 35.5812 16.4896 35.5812C15.6885 35.5812 15.0499 34.9426 15.0499 34.1415C15.0499 33.3404 15.6885 32.7008 16.4896 32.7008Z" fill="white"></path>
            <path d="M29.5414 23.5573C28.2109 23.5573 27.1211 24.647 27.1211 25.9775C27.1211 27.308 28.2109 28.3969 29.5414 28.3969C30.8719 28.3969 31.9607 27.308 31.9607 25.9775C31.9607 24.647 30.8719 23.5573 29.5414 23.5573ZM29.5414 24.5368C30.3425 24.5368 30.9811 25.1764 30.9811 25.9775C30.9811 26.7786 30.3425 27.4173 29.5414 27.4173C28.7403 27.4173 28.1007 26.7786 28.1007 25.9775C28.1007 25.1764 28.7403 24.5368 29.5414 24.5368Z" fill="white"></path>
        </symbol>
        <symbol fill="none"  viewBox="0 0 33 35" id="icon-dydx_usecase2">
            <path d="M16.8339 24.8394L22.8339 21.3728C23.0398 21.254 23.1669 21.0341 23.1672 20.7963V13.8696C23.1669 13.6318 23.0398 13.4118 22.8339 13.2931L16.8339 9.82645C16.6277 9.7071 16.3735 9.7071 16.1673 9.82645L10.1673 13.2931C9.96137 13.4118 9.83428 13.6318 9.83398 13.8696V20.7963C9.83428 21.0341 9.96137 21.254 10.1673 21.3728L16.1673 24.8394C16.3744 24.9552 16.6268 24.9552 16.8339 24.8394ZM17.1673 23.1061V17.7163L21.8339 15.0228V20.413L17.1673 23.1061ZM16.5006 11.1732L21.1672 13.87L16.5006 16.5635L11.834 13.87L16.5006 11.1732ZM11.1673 15.0232L15.8339 17.7167V23.1065L11.1673 20.4133V15.0232Z" fill="white"></path>
            <path d="M29.8342 17.3332C29.8342 13.7969 28.4294 10.4056 25.9288 7.90547C23.4286 5.40491 20.0372 4.00012 16.5011 4.00012C12.9649 4.00012 9.57341 5.40491 7.07331 7.90547C4.57276 10.4057 3.16797 13.7971 3.16797 17.3332C3.16797 20.8693 4.57276 24.2609 7.07331 26.761C9.57357 29.2615 12.9649 30.6663 16.5011 30.6663C18.8415 30.6663 21.1409 30.0503 23.1677 28.88C25.1945 27.7098 26.8778 26.0265 28.048 23.9997C29.2182 21.9729 29.8343 19.6735 29.8343 17.3331L29.8342 17.3332ZM4.50099 17.3332C4.50099 14.1505 5.76529 11.0984 8.01556 8.84794C10.2661 6.59767 13.3182 5.33337 16.5008 5.33337C19.6834 5.33337 22.7356 6.59767 24.9861 8.84794C27.2364 11.0985 28.5007 14.1506 28.5007 17.3332C28.5007 20.5158 27.2364 23.568 24.9861 25.8185C22.7355 28.0688 19.6834 29.3331 16.5008 29.3331C13.3182 29.3331 10.2661 28.0688 8.01556 25.8185C5.76529 23.5679 4.50099 20.5158 4.50099 17.3332Z" fill="white"></path>
            <path d="M31.9673 23.2197C31.6566 23.1566 31.3444 23.3212 31.2206 23.6131L31.1738 23.7265C29.9289 26.5824 27.8774 29.0128 25.2709 30.7193C22.6643 32.4258 19.6161 33.3342 16.5006 33.333C16.1325 33.333 15.834 33.6315 15.834 33.9997C15.834 34.3678 16.1325 34.6664 16.5006 34.6664C19.4298 34.667 22.3114 33.9253 24.8762 32.5107C27.4411 31.0959 29.6056 29.0542 31.1675 26.5765V29.9997C31.1675 30.3679 31.466 30.6664 31.8342 30.6664C32.2023 30.6664 32.5008 30.3679 32.5008 29.9997V23.873C32.5008 23.5563 32.2779 23.2831 31.9675 23.2197L31.9673 23.2197Z" fill="white"></path>
            <path d="M16.4999 1.33333C16.868 1.33333 17.1665 1.03481 17.1665 0.666663C17.1665 0.298513 16.868 8.05875e-07 16.4999 8.05875e-07C13.5711 -0.000892064 10.6898 0.740171 8.12508 2.15442C5.56053 3.56843 3.39597 5.60949 1.83346 8.0865V4.66656C1.83346 4.29841 1.53495 3.9999 1.1668 3.9999C0.798652 3.9999 0.50014 4.29841 0.50014 4.66656V10.7897C0.493592 11.1117 0.717997 11.3921 1.03347 11.4564C1.07781 11.4614 1.12246 11.4614 1.1668 11.4564C1.43347 11.457 1.67484 11.2984 1.78019 11.0531C3.01112 8.16863 5.06261 5.70968 7.67958 3.98146C10.2969 2.25347 13.364 1.33234 16.5001 1.33325L16.4999 1.33333Z" fill="white"></path>
        </symbol>
        <symbol fill="none" xmlns="http://www.w3.org/2000/svg" viewBox="0 0 37 37" id="icon-dydx_usecase3">
            <path d="M11.5962 20.2583C10.7394 20.3821 9.87411 20.4433 9.00822 20.4421C4.6461 20.4421 1.38588 18.9176 1.38588 17.5525V13.2563C2.95549 14.4377 5.72012 15.1897 9.00822 15.1897C12.2963 15.1897 15.0609 14.438 16.6306 13.2563V13.8592C16.6306 14.2419 16.9408 14.5521 17.3235 14.5521C17.7062 14.5521 18.0164 14.2419 18.0164 13.8592V4.18179C18.0164 1.73235 14.0113 0 9.00822 0C4.00511 0 0 1.73235 0 4.15764V17.5524C0 19.9882 3.87365 21.8278 9.00822 21.8278C9.94277 21.8297 10.8761 21.7638 11.8007 21.6305C12.1834 21.5739 12.4479 21.2178 12.3916 20.8351C12.335 20.4525 11.9792 20.188 11.5962 20.2446L11.5962 20.2583ZM9.00822 1.38662C13.3703 1.38662 16.6306 2.91109 16.6306 4.27622C16.6306 5.64135 13.3703 7.16582 9.00822 7.16582C4.6461 7.16582 1.38588 5.64135 1.38588 4.27622C1.38588 2.91109 4.6461 1.38662 9.00822 1.38662ZM1.38588 6.61828C2.95549 7.79968 5.72012 8.5517 9.00822 8.5517C12.2963 8.5517 15.0609 7.79998 16.6306 6.61828V10.9145C16.6306 12.2796 13.3703 13.8041 9.00822 13.8041C4.6461 13.8041 1.38588 12.2796 1.38588 10.9145V6.61828Z" fill="white"></path>
            <path d="M35.2399 16.6314H30.4899V14.5526C30.4899 14.1699 30.1796 13.8596 29.797 13.8596C29.4143 13.8596 29.104 14.1699 29.104 14.5526V16.6314H20.7887V14.5526C20.7887 14.1699 20.4785 13.8596 20.0958 13.8596C19.7131 13.8596 19.4029 14.1699 19.4029 14.5526V16.6314H14.6495C14.4397 16.6314 14.2389 16.7146 14.0908 16.8628C13.9426 17.011 13.8594 17.2117 13.8594 17.4215V34.3015C13.8594 34.7608 14.0419 35.2017 14.3667 35.5265C14.6915 35.8514 15.1323 36.0338 15.5917 36.0338H34.3011C34.7605 36.0338 35.2013 35.8513 35.5261 35.5265C35.851 35.2017 36.0335 34.7609 36.0335 34.3015V17.4246C36.0316 16.9872 35.6774 16.633 35.24 16.6311L35.2399 16.6314ZM19.4029 18.0173V20.0961C19.4029 20.4787 19.7131 20.789 20.0958 20.789C20.4785 20.789 20.7887 20.4787 20.7887 20.0961V18.0173H29.104V20.0961C29.104 20.4787 29.4143 20.789 29.797 20.789C30.1796 20.789 30.4899 20.4787 30.4899 20.0961V18.0173H34.6475V23.5608H15.2452V18.0173H19.4029ZM34.3007 34.6478H15.5913C15.3998 34.6478 15.2448 34.4928 15.2448 34.3013V24.9471H34.6471V34.3013C34.6471 34.3932 34.6106 34.4814 34.5457 34.5463C34.4807 34.6113 34.3925 34.6478 34.3007 34.6478Z" fill="white"></path>
        </symbol>
        <symbol fill="none" viewBox="0 0 37 36" id="icon-dydx_usecase4">
            <g clip-path="url(#clip0_242_8049)">
                <path fill-rule="evenodd" clip-rule="evenodd" d="M31.7727 6.06061V3.75758C31.7727 2.66667 33.4697 2.66667 33.4697 3.75758V8.48485C33.4697 8.9697 33.1061 9.33333 32.6212 9.33333H27.8939C26.803 9.33333 26.803 7.63636 27.8939 7.63636H30.9242C27.8939 3.87879 23.2879 1.69697 18.4394 1.69697C9.4697 1.69697 2.19697 8.9697 2.19697 17.9394C2.19697 19.6364 2.43939 21.3333 3.04545 23.0303C3.40909 24.1212 1.71212 24.6061 1.34848 23.5152C0.742424 21.697 0.5 19.8788 0.5 17.9394C0.5 8.12121 8.62121 0 18.4394 0C23.6515 0 28.3788 2.18182 31.7727 6.06061Z" fill="white"></path>
                <path fill-rule="evenodd" clip-rule="evenodd" d="M5.10517 29.9394V32.1213C5.10517 33.2122 3.4082 33.2122 3.4082 32.1213V27.394C3.4082 26.9091 3.89305 26.5455 4.25669 26.5455H8.98396C10.1961 26.5455 10.1961 28.2425 8.98396 28.2425H5.95366C9.10517 32.0001 13.59 34.1819 18.4385 34.1819C27.4082 34.1819 34.6809 26.9091 34.6809 17.9394C34.6809 16.2425 34.4385 14.5455 33.9537 12.8485C33.59 11.7576 35.1658 11.2728 35.5294 12.2425C36.1355 14.1819 36.4991 16.0001 36.4991 17.9394C36.4991 27.8788 28.3779 36.0001 18.4385 36.0001C13.3476 36.0001 8.49911 33.697 5.10517 29.9394Z" fill="white"></path>
                <path fill-rule="evenodd" clip-rule="evenodd" d="M17.9551 20.4849L16.6217 27.0303C16.5005 27.5152 17.1066 27.7576 17.4702 27.394L24.6217 16.2424C24.8642 16 24.6217 15.5152 24.1369 15.6364L19.046 16.4849L20.3793 8.8485C20.5005 8.36366 19.7732 8.12123 19.5308 8.60608L12.2581 20.6061C12.1369 20.9697 12.3793 21.3334 12.7429 21.3334L17.9551 20.4849Z" fill="white"></path>
            </g>
            <defs>
                <clipPath id="clip0_242_8049">
                    <rect width="36" height="36" fill="white" transform="translate(0.5)"></rect>
                </clipPath>
            </defs>
            <symbol fill="none" viewBox="0 0 18 18" id="icon-new-tab">
                <path d="M15.625 9.45V15.3C15.625 15.8172 15.4196 16.3132 15.0539 16.6789C14.6882 17.0446 14.1922 17.25 13.675 17.25H2.95C2.43283 17.25 1.93684 17.0446 1.57114 16.6789C1.20545 16.3132 1 15.8172 1 15.3V4.575C1 4.05783 1.20545 3.56184 1.57114 3.19614C1.93684 2.83045 2.43283 2.625 2.95 2.625H8.8" stroke="#3E73F0" stroke-width="1.33" stroke-linecap="round" stroke-linejoin="round"></path>
                <path d="M12.375 1H17.25V5.875" stroke="#3E73F0" stroke-width="1.33" stroke-linecap="round" stroke-linejoin="round"></path>
                <path d="M7.5 10.75L17.25 1" stroke="#3E73F0" stroke-width="1.33" stroke-linecap="round" stroke-linejoin="round"></path>
            </symbol>
            <symbol fill="none" viewBox="0 0 16 15" id="icon-warning">
                <rect width="2" height="9" transform="translate(7 3)" fill="white"></rect>
                <path d="M9.59735 1.01672C8.8481 -0.338907 6.8996 -0.338907 6.15035 1.01672L0.248033 11.7036C-0.476467 13.0154 0.473033 14.6241 1.97153 14.6241H13.7767C15.2752 14.6241 16.2247 13.0154 15.4997 11.7036L9.59735 1.01672ZM8.57697 11.2491C8.57697 11.4356 8.50289 11.6145 8.37103 11.7463C8.23917 11.8782 8.06033 11.9523 7.87385 11.9523C7.68736 11.9523 7.50852 11.8782 7.37666 11.7463C7.2448 11.6145 7.17072 11.4356 7.17072 11.2491C7.17072 11.0627 7.2448 10.8838 7.37666 10.752C7.50852 10.6201 7.68736 10.546 7.87385 10.546C8.06033 10.546 8.23917 10.6201 8.37103 10.752C8.50289 10.8838 8.57697 11.0627 8.57697 11.2491ZM7.87385 3.93665C8.02303 3.93665 8.1661 3.99592 8.27159 4.10141C8.37708 4.2069 8.43635 4.34997 8.43635 4.49915V8.99915C8.43635 9.14834 8.37708 9.29141 8.27159 9.3969C8.1661 9.50239 8.02303 9.56165 7.87385 9.56165C7.72466 9.56165 7.58159 9.50239 7.4761 9.3969C7.37061 9.29141 7.31135 9.14834 7.31135 8.99915V4.49915C7.31135 4.34997 7.37061 4.2069 7.4761 4.10141C7.58159 3.99592 7.72466 3.93665 7.87385 3.93665Z" fill="#B95663"></path>
            </symbol>
            <symbol fill="none" viewBox="0 0 14 14" id="icon-info">
                <g clip-path="url(#clip0_2886_24288)">
                    <path d="M7.0013 12.8327C10.223 12.8327 12.8346 10.221 12.8346 6.99935C12.8346 3.77769 10.223 1.16602 7.0013 1.16602C3.77964 1.16602 1.16797 3.77769 1.16797 6.99935C1.16797 10.221 3.77964 12.8327 7.0013 12.8327Z" stroke="#A6A6A6" stroke-linecap="round" stroke-linejoin="round"></path>
                    <path d="M7 4.66602V6.99935" stroke="#A6A6A6" stroke-linecap="round" stroke-linejoin="round"></path>
                    <path d="M7 9.33398H7.00583" stroke="#A6A6A6" stroke-linecap="round" stroke-linejoin="round"></path>
                </g>
                <defs>
                    <clipPath id="clip0_2886_24288">
                        <rect width="14" height="14" fill="white"></rect>
                    </clipPath>
                </defs>
            </symbol>
        </symbol>
    </defs>
</svg>