<svg aria-hidden="true" style="position: absolute; width: 0; height: 0; overflow: hidden;" version="1.1"
     xmlns="http://www.w3.org/2000/svg" xmlns:xlink="http://www.w3.org/1999/xlink">
    <defs>
        <symbol id="icon-github-alt" viewBox="0 0 32 32">
            <path d="M11.631 20.544c0 1.306-0.681 3.444-2.294 3.444s-2.294-2.137-2.294-3.444 0.681-3.444 2.294-3.444 2.294 2.137 2.294 3.444zM30 17.387c0 1.994-0.2 4.106-1.094 5.938-2.369 4.787-8.881 4.675-13.544 4.675-4.738 0-11.637 0.169-14.1-4.675-0.912-1.813-1.262-3.944-1.262-5.938 0-2.619 0.869-5.094 2.594-7.1-0.325-0.988-0.481-2.025-0.481-3.050 0-1.344 0.306-2.019 0.913-3.237 2.831 0 4.644 0.563 6.8 2.25 1.813-0.431 3.675-0.625 5.544-0.625 1.688 0 3.387 0.181 5.025 0.575 2.125-1.669 3.938-2.2 6.738-2.2 0.613 1.219 0.913 1.894 0.913 3.237 0 1.025-0.163 2.044-0.481 3.013 1.719 2.025 2.438 4.519 2.438 7.137zM25.981 20.544c0-2.744-1.669-5.162-4.594-5.162-1.181 0-2.313 0.213-3.5 0.375-0.931 0.144-1.863 0.2-2.819 0.2-0.95 0-1.881-0.056-2.819-0.2-1.169-0.162-2.313-0.375-3.5-0.375-2.925 0-4.594 2.419-4.594 5.162 0 5.488 5.025 6.331 9.4 6.331h3.013c4.394 0 9.413-0.837 9.413-6.331zM20.819 17.1c-1.613 0-2.294 2.137-2.294 3.444s0.681 3.444 2.294 3.444 2.294-2.137 2.294-3.444-0.681-3.444-2.294-3.444z"></path>
        </symbol>
        <symbol id="icon-telegram-plane" viewBox="0 0 32 32">
            <path d="M27.919 6.162l-4.225 19.925c-0.319 1.406-1.15 1.756-2.331 1.094l-6.438-4.744-3.106 2.988c-0.344 0.344-0.631 0.631-1.294 0.631l0.463-6.556 11.931-10.781c0.519-0.463-0.113-0.719-0.806-0.256l-14.75 9.287-6.35-1.988c-1.381-0.431-1.406-1.381 0.288-2.044l24.837-9.569c1.15-0.431 2.156 0.256 1.781 2.013z"></path>
        </symbol>
        <symbol id="icon-twitter-logo" viewBox="0 0 32 32">
            <path d="M32 6.079c-1.178 0.522-2.442 0.876-3.769 1.034 1.356-0.812 2.394-2.1 2.885-3.629-1.272 0.752-2.675 1.298-4.171 1.594-1.198-1.278-2.901-2.074-4.791-2.074-3.625 0-6.565 2.939-6.565 6.563 0 0.514 0.058 1.016 0.17 1.496-5.455-0.274-10.292-2.887-13.529-6.859-0.566 0.968-0.888 2.096-0.888 3.299 0 2.278 1.16 4.287 2.919 5.463-1.076-0.036-2.088-0.332-2.973-0.824v0.082c0 3.179 2.264 5.833 5.265 6.437-0.55 0.148-1.13 0.23-1.73 0.23-0.424 0-0.834-0.042-1.236-0.122 0.836 2.61 3.259 4.507 6.131 4.559-2.246 1.76-5.077 2.805-8.152 2.805-0.53 0-1.052-0.032-1.566-0.090 2.905 1.866 6.355 2.953 10.062 2.953 12.076 0 18.677-10.002 18.677-18.677l-0.022-0.85c1.29-0.92 2.405-2.076 3.283-3.391z"></path>
        </symbol>
        <!-- <symbol id="icon-twitter-logo" viewBox="0 0 32 32">
           <path d="M32 6.079c-1.178 0.522-2.442 0.876-3.769 1.034 1.356-0.812 2.394-2.1 2.885-3.629-1.272 0.752-2.675 1.298-4.171 1.594-1.198-1.278-2.901-2.074-4.791-2.074-3.625 0-6.565 2.939-6.565 6.563 0 0.514 0.058 1.016 0.17 1.496-5.455-0.274-10.292-2.887-13.529-6.859-0.566 0.968-0.888 2.096-0.888 3.299 0 2.278 1.16 4.287 2.919 5.463-1.076-0.036-2.088-0.332-2.973-0.824v0.082c0 3.179 2.264 5.833 5.265 6.437-0.55 0.148-1.13 0.23-1.73 0.23-0.424 0-0.834-0.042-1.236-0.122 0.836 2.61 3.259 4.507 6.131 4.559-2.246 1.76-5.077 2.805-8.152 2.805-0.53 0-1.052-0.032-1.566-0.090 2.905 1.866 6.355 2.953 10.062 2.953 12.076 0 18.677-10.002 18.677-18.677l-0.022-0.85c1.29-0.92 2.405-2.076 3.283-3.391z"></path>
       </symbol> -->
      
 <symbol id="icon-footerheart" fill="none" viewBox="0 0 10 10">
 <path d="M9.272 4.798L5 9.082.728 4.798A2.885 2.885 0 0 1 .843.844 2.88 2.88 0 0 1 4.572.55L2.56 2.56l.405.405L5.194.737a2.883 2.883 0 0 1 4.078 4.06z" fill="#E50913"/>
 </symbol>
 <symbol id="icon-hamberger" viewBox="0 0 385 385" >
     <g clip-path="url(#clip0)">
     <path d="M12.03 84.212h360.909c6.641 0 12.03-5.39 12.03-12.03s-5.39-12.03-12.03-12.03H12.03C5.39 60.152 0 65.542 0 72.182c0 6.641 5.39 12.03 12.03 12.03zM372.939 180.455H12.03c-6.641 0-12.03 5.39-12.03 12.03s5.39 12.03 12.03 12.03h360.909c6.641 0 12.03-5.39 12.03-12.03s-5.389-12.03-12.03-12.03zM372.939 300.759H12.03c-6.641 0-12.03 5.39-12.03 12.03 0 6.641 5.39 12.03 12.03 12.03h360.909c6.641 0 12.03-5.39 12.03-12.03.001-6.641-5.389-12.03-12.03-12.03z"/>
     </g>
 </symbol>
        <symbol id="icon-medium-m" viewBox="0 0 20 12">
            <path d="M11.281 5.68c0 3.136-2.525 5.678-5.64 5.678C2.525 11.358 0 8.816 0 5.68 0 2.543 2.525 0 5.64 0c3.116 0 5.641 2.543 5.641 5.68zM17.469 5.679c0 2.953-1.263 5.346-2.82 5.346-1.558 0-2.82-2.394-2.82-5.346S13.09.333 14.648.333c1.557 0 2.82 2.394 2.82 5.346zM20 5.679c0 2.645-.445 4.79-.992 4.79-.548 0-.992-2.145-.992-4.79s.444-4.79.992-4.79c.547 0 .992 2.145.992 4.79z"/>
        </symbol>
        <symbol id="icon-linkedin" viewBox="0 0 512 512">
            <path d="M475.074 0H36.926C16.53 0 0 16.531 0 36.926v438.148C0 495.47 16.531 512 36.926 512h438.148C495.47 512 512 495.469 512 475.074V36.926C512 16.53 495.469 0 475.074 0zM181.61 387h-62.347V199.426h62.347zm-31.172-213.188h-.406c-20.922 0-34.453-14.402-34.453-32.402 0-18.406 13.945-32.41 35.274-32.41 21.328 0 34.453 14.004 34.859 32.41 0 18-13.531 32.403-35.274 32.403zM406.423 387h-62.34V286.652c0-25.218-9.027-42.418-31.586-42.418-17.223 0-27.48 11.602-31.988 22.801-1.649 4.008-2.051 9.61-2.051 15.215V387h-62.344s.817-169.977 0-187.574h62.344v26.558c8.285-12.78 23.11-30.96 56.188-30.96 41.02 0 71.777 26.808 71.777 84.421zm0 0"/>
        </symbol>
         <symbol id="icon-minus" fill="none" viewBox="0 0 14 2">
            <path d="M.483.518H13.517a.483.483 0 1 1 0 .965H.483a.483.483 0 1 1 0-.965z" fill="#fff"/>
        </symbol>
        <symbol id="icon-plus" fill="none" viewBox="0 0 14 14">
            <path d="M7 0a.483.483 0 0 0-.483.483v6.034H.483a.483.483 0 1 0 0 .966h6.034v6.034a.483.483 0 1 0 .966 0V7.483h6.034a.483.483 0 1 0 0-.966H7.483V.483A.483.483 0 0 0 7 0z" fill="#fff"/>
        </symbol>
        <symbol id="icon-reddit-round" viewBox="0 0 15 15">
            <path d="M13.328 5.495c-.474 0-.89.199-1.197.509-1.129-.791-2.65-1.3-4.335-1.355L8.67.653l2.788.634a1.25 1.25 0 0 0 1.24 1.256c.695 0 1.254-.58 1.254-1.272C13.953.58 13.398 0 12.7 0c-.487 0-.907.298-1.117.704L8.503.014c-.155-.043-.307.07-.348.227l-.961 4.405c-1.673.07-3.178.58-4.31 1.37a1.672 1.672 0 0 0-1.213-.521C-.087 5.495-.663 7.883.947 8.7a3.63 3.63 0 0 0-.083.79c0 2.684 2.985 4.858 6.65 4.858 3.68 0 6.663-2.174 6.663-4.857 0-.27-.028-.551-.097-.804 1.577-.82.996-3.191-.752-3.192zM3.501 8.869c0-.704.556-1.27 1.255-1.27.682 0 1.239.562 1.239 1.27a1.25 1.25 0 0 1-1.24 1.256A1.253 1.253 0 0 1 3.502 8.87zm6.774 2.994c-1.15 1.165-4.398 1.165-5.549 0-.127-.113-.127-.311 0-.439a.3.3 0 0 1 .418 0c.878.913 3.793.928 4.71 0a.3.3 0 0 1 .418 0c.13.129.13.327.003.439zm-.026-1.735a1.249 1.249 0 0 1-1.238-1.255c0-.704.556-1.271 1.238-1.271.696 0 1.255.563 1.255 1.271a1.258 1.258 0 0 1-1.255 1.255z"/>
        </symbol>
        <symbol id="icon-whitepaper" viewBox="0 0 14 16">
            <path d="M9.886 3.026c0 .54.45.99.99.99h2.368L9.886.655l-.03-.029v2.399h.03z"/>
            <path d="M10.876 4.615a1.6 1.6 0 0 1-1.59-1.59V.388H1.61c-.54 0-.99.45-.99.99V14.99c0 .54.45.99.99.99h10.975c.54 0 .99-.45.99-.99V4.765v-.15h-2.7z"/>
        </symbol>
           
        <symbol id="icon-reddit" viewBox="0 0 35 35">
            <title>Reddit</title>
            <path d="M20.764 22.383a.314.314 0 0 1 0 .446c-.678.674-1.741 1.002-3.254 1.002l-.012-.003-.011.003c-1.511 0-2.575-.328-3.254-1.004a.313.313 0 0 1 0-.445.319.319 0 0 1 .448 0c.553.55 1.47.819 2.806.819l.012.002.011-.002c1.335 0 2.252-.269 2.806-.819a.319.319 0 0 1 .448 0zm-5.017-3.527c0-.74-.604-1.34-1.345-1.34-.742 0-1.345.6-1.345 1.34 0 .738.603 1.339 1.345 1.339.741.002 1.345-.6 1.345-1.339zM35 17.5C35 27.164 27.164 35 17.5 35S0 27.164 0 17.5 7.836 0 17.5 0 35 7.836 35 17.5zm-7.292-.188a2.257 2.257 0 0 0-3.826-1.616c-1.54-1.014-3.624-1.658-5.93-1.741l1.261-3.973 3.417.8-.004.05c0 1.015.83 1.84 1.85 1.84 1.019 0 1.847-.825 1.847-1.84 0-1.014-.828-1.84-1.848-1.84a1.85 1.85 0 0 0-1.72 1.173L19.075 9.3a.316.316 0 0 0-.375.212l-1.408 4.43c-2.415.03-4.6.68-6.21 1.722a2.255 2.255 0 0 0-1.53-.605 2.26 2.26 0 0 0-2.26 2.252c0 .825.454 1.54 1.12 1.932-.043.24-.072.483-.072.73 0 3.326 4.09 6.032 9.119 6.032 5.028 0 9.119-2.706 9.119-6.033 0-.233-.025-.462-.065-.688a2.24 2.24 0 0 0 1.196-1.973zm-7.105.205c-.742 0-1.344.601-1.344 1.34a1.344 1.344 0 0 0 2.689 0c0-.739-.602-1.34-1.345-1.34z"
            />
        </symbol>
        <symbol id="icon-youtube" viewBox="-21 -117 682.667 682">
            <path d="M626.813 64.035c-7.375-27.418-28.993-49.031-56.407-56.414C520.324-6.082 319.992-6.082 319.992-6.082s-200.324 0-250.406 13.184c-26.887 7.375-49.031 29.52-56.406 56.933C0 114.113 0 217.97 0 217.97s0 104.379 13.18 153.933c7.382 27.414 28.992 49.028 56.41 56.41C120.195 442.02 320 442.02 320 442.02s200.324 0 250.406-13.184c27.418-7.379 49.032-28.992 56.414-56.406 13.176-50.082 13.176-153.934 13.176-153.934s.527-104.383-13.183-154.46zM256.21 313.915V122.022l166.586 95.946zm0 0"/>
        </symbol>
        <symbol id="icon-chevron" fill="none" viewBox="0 0 266 438">
            <path d="M258.476 235.971L64.132 430.314c-9.373 9.373-24.569 9.373-33.941 0L7.524 407.647c-9.357-9.357-9.375-24.522-.04-33.901L161.505 219 7.484 64.255c-9.335-9.379-9.317-24.544.04-33.901L30.191 7.687c9.373-9.373 24.569-9.373 33.941 0L258.475 202.03c9.373 9.372 9.373 24.568.001 33.941z" fill="#322d3e"/>
        </symbol>
        <symbol id="icon-chevroncolorchange" fill="none" viewBox="0 0 266 438">
            <path d="M258.476 235.971L64.132 430.314c-9.373 9.373-24.569 9.373-33.941 0L7.524 407.647c-9.357-9.357-9.375-24.522-.04-33.901L161.505 219 7.484 64.255c-9.335-9.379-9.317-24.544.04-33.901L30.191 7.687c9.373-9.373 24.569-9.373 33.941 0L258.475 202.03c9.373 9.372 9.373 24.568.001 33.941z" fill="#fff"/>
        </symbol>
        <symbol id="icon-announcements" viewBox="0 0 12 8">
            <title>Announcements</title>
            <path d="M11.37 3.888a1.122 1.122 0 0 1-1.121 1.121V2.766a1.122 1.122 0 0 1 1.122 1.122zM2.958 2.205H1.835a1.683 1.683 0 0 0 0 3.365l.561 2.244h1.122l-.56-2.244V2.205zM9.128.695c-.05 0-.1.007-.148.02l-5.462 1.49V5.57l5.461 1.49a.56.56 0 0 0 .709-.541V1.257a.561.561 0 0 0-.56-.562z"/>
        </symbol>
        <symbol id="icon-chat" viewBox="0 0 11 11">
            <title>chat</title>
            <path d="M7.985.05h-4.79A2.631 2.631 0 0 0 .56 2.686v3.09c0 1.161.751 2.153 1.8 2.494.368.113.61.453.61.836v.85c0 .227.269.369.453.227L5.49 8.58a.915.915 0 0 1 .538-.184h1.956a2.61 2.61 0 0 0 2.636-2.622v-3.09A2.631 2.631 0 0 0 7.985.05z"/>
        </symbol>
        <symbol id="icon-linkedin-footer" viewBox="0 0 11 10">
            <title>Linkedin</title>
            <path d="M2.335 3.213H.324a.162.162 0 0 0-.162.162v6.463c0 .09.072.161.162.161h2.011c.09 0 .162-.072.162-.161V3.375a.162.162 0 0 0-.162-.162zM1.33 0C.598 0 .002.595.002 1.326a1.328 1.328 0 0 0 2.654 0C2.657.595 2.062 0 1.33 0zM7.452 3.053c-.808 0-1.405.347-1.767.742v-.42a.162.162 0 0 0-.162-.162H3.596a.162.162 0 0 0-.161.162v6.463c0 .09.072.162.161.162h2.008c.09 0 .162-.072.162-.162V6.64c0-1.077.292-1.497 1.043-1.497.819 0 .884.673.884 1.553v3.142c0 .09.072.162.161.162h2.008c.09 0 .162-.072.162-.162V6.293c0-1.602-.306-3.24-2.572-3.24z"/>
        </symbol>

        <symbol id="icon-github2" viewBox="0 0 23 23">
            <path fill-rule="evenodd" clip-rule="evenodd" d="M11.003.87C4.927.87 0 5.795 0 11.873c0 4.861 3.152 8.986 7.526 10.442.55.1.724-.226.724-.517 0-.262.005-.992 0-1.91-3.061.664-3.695-1.45-3.695-1.45-.5-1.272-1.221-1.61-1.221-1.61-1-.683.075-.67.075-.67 1.104.078 1.686 1.135 1.686 1.135.981 1.68 2.575 1.195 3.201.914.1-.711.386-1.196.7-1.471-2.444-.278-5.012-1.222-5.012-5.439 0-1.202.428-2.183 1.132-2.953-.113-.277-.492-1.397.108-2.912 0 0 .924-.296 3.026 1.129.877-.245 1.82-.366 2.755-.37.935.004 1.876.125 2.755.37 2.101-1.424 3.024-1.13 3.024-1.13.6 1.516.222 2.636.11 2.913.703.77 1.13 1.751 1.13 2.953 0 4.228-2.573 5.158-5.024 5.43.395.34.753 1 .753 2.027v3.046c0 .295.177.62.736.513 4.37-1.457 7.519-5.58 7.519-10.44 0-6.078-4.927-11.005-11.005-11.005z"/>
        </symbol>
        <symbol id="icon-arrow-navigate" fill="none" viewBox="0 0 10 10">
            <path d="M9.5 1A.5.5 0 0 0 9 .5H4.5a.5.5 0 0 0 0 1h4v4a.5.5 0 0 0 1 0V1zM1.354 9.354l8-8-.708-.708-8 8 .708.708z" fill="#E50913"/>
        </symbol>
          <symbol id="icon-discord" viewBox="0 0 11 14">
            <title>discord</title>
            <path d="M6.678 6.003c-.356 0-.637.306-.637.687 0 .38.288.687.637.687.356 0 .637-.306.637-.687 0-.381-.287-.687-.637-.687zm-2.28 0c-.355 0-.636.306-.636.687 0 .38.287.687.637.687.356 0 .637-.306.637-.687.006-.381-.281-.687-.637-.687z" />
            <path d="M9.713.807H1.344c-.705 0-1.28.574-1.28 1.28v8.37c0 .705.575 1.28 1.28 1.28h7.083l-.331-1.143.8.737.755.693 1.35 1.168V2.087A1.292 1.292 0 0 0 9.712.807zm-2.41 8.088s-.225-.269-.413-.5c.819-.231 1.13-.737 1.13-.737-.255.169-.499.287-.717.369a4.375 4.375 0 0 1-2.523.262 4.755 4.755 0 0 1-.919-.269 3.66 3.66 0 0 1-.456-.212c-.018-.012-.037-.019-.056-.031-.012-.006-.019-.013-.025-.013a2.19 2.19 0 0 1-.175-.106s.3.494 1.093.73c-.187.238-.418.513-.418.513-1.38-.044-1.905-.943-1.905-.943 0-1.992.9-3.61.9-3.61.899-.668 1.748-.65 1.748-.65l.063.075c-1.125.319-1.637.812-1.637.812s.138-.075.369-.175a4.894 4.894 0 0 1 1.417-.393c.038-.006.07-.013.107-.013.38-.05.812-.062 1.261-.012.594.069 1.23.244 1.88.593 0 0-.493-.468-1.555-.787l.087-.1s.856-.018 1.75.65c0 0 .899 1.618.899 3.61 0-.006-.525.893-1.905.937z" />
        </symbol>
        <symbol id="icon-list" fill="none" viewBox="0 0 12 12">
        <path fill="#E50913" d="M5.725.697l5.576 5.577-5.576 5.576L.149 6.274z"/>
        </symbol>
        <symbol id="icon-linkext" fill="none" viewBox="0 0 10 10" >
             <path d="M9.5 1.13a.5.5 0 0 0-.5-.5H4.5a.5.5 0 0 0 0 1h4v4a.5.5 0 1 0 1 0v-4.5zM1.368 9.47l7.987-7.987-.707-.707L.66 8.763l.707.707z" fill="#DBD6D6"/>
             </symbol>
             <symbol id="icon-nav-status" fill="none" viewBox="0 0 8 13">
             <path d="M7.234 5.32H5.279L6.44.75C6.547.314 5.98.023 5.688.38L.365 6.97a.43.43 0 0 0 .33.7h1.968l-1.162 4.57c-.12.45.462.74.753.37l5.31-6.578a.432.432 0 0 0-.33-.713z" fill="#E50913"/>
             </symbol>
             <symbol id="icon-play" fill="none" viewBox="0 0 51 51" >
             <path d="M36.616.44h-22.94A13.53 13.53 0 0 0 .145 13.97v22.941a13.53 13.53 0 0 0 13.53 13.53h22.94a13.53 13.53 0 0 0 13.53-13.53v-22.94A13.53 13.53 0 0 0 36.615.44zm10.03 36.47a10.046 10.046 0 0 1-10.03 10.03h-22.94a10.046 10.046 0 0 1-10.03-10.03V13.97a10.046 10.046 0 0 1 10.03-10.03h22.94a10.046 10.046 0 0 1 10.03 10.03v22.94z" fill="#fff"/>
             <path d="M30.146 23.54l-8.21-5.129c-1.67-1.045-3.04-.285-3.04 1.685v10.69c0 1.97 1.37 2.73 3.04 1.685l8.21-5.13c1.67-1.045 1.67-2.754 0-3.8z" fill="#fff"/>
         </symbol>
        <symbol id="icon-right-arrow" viewBox="0 0 17 8">
            <path d="M16.354 4.501a.5.5 0 0 0 0-.707L13.172.612a.5.5 0 1 0-.708.707l2.829 2.828-2.829 2.829a.5.5 0 1 0 .708.707l3.182-3.182zM0 4.647h16v-1H0v1z" />
        </symbol>
        <symbol id="icon-redirect" viewBox="0 0 12 12">
            <path d="M12 1a1 1 0 0 0-1-1H2a1 1 0 0 0 0 2h8v8a1 1 0 1 0 2 0V1zM1.707 11.707l10-10L10.293.293l-10 10 1.414 1.414z" fill="#fff"/>
        </symbol>
        <symbol id="icon-close" viewBox="0 0 32 32">
            <path d="M18.434 16L31.42 2.956c.695-.695.695-1.797 0-2.434-.696-.696-1.797-.696-2.435 0L16 13.565 2.956.522C2.261-.174 1.16-.174.522.522c-.696.695-.696 1.797 0 2.434L13.507 16 .522 29.044c-.696.695-.696 1.797 0 2.434.347.348.811.522 1.217.522s.87-.174 1.218-.522L16 18.435l13.043 13.043c.348.348.812.522 1.218.522.406 0 .87-.174 1.217-.522.696-.695.696-1.797 0-2.434L18.434 16z"/>
        </symbol>
        <symbol id="icon-discord" viewBox="0 0 11 14">
            <path d="M6.678 6.003c-.356 0-.637.306-.637.687 0 .38.288.687.637.687.356 0 .637-.306.637-.687 0-.381-.287-.687-.637-.687zm-2.28 0c-.355 0-.636.306-.636.687 0 .38.287.687.637.687.356 0 .637-.306.637-.687.006-.381-.281-.687-.637-.687z" />
            <path d="M9.713.807H1.344c-.705 0-1.28.574-1.28 1.28v8.37c0 .705.575 1.28 1.28 1.28h7.083l-.331-1.143.8.737.755.693 1.35 1.168V2.087A1.292 1.292 0 0 0 9.712.807zm-2.41 8.088s-.225-.269-.413-.5c.819-.231 1.13-.737 1.13-.737-.255.169-.499.287-.717.369a4.375 4.375 0 0 1-2.523.262 4.755 4.755 0 0 1-.919-.269 3.66 3.66 0 0 1-.456-.212c-.018-.012-.037-.019-.056-.031-.012-.006-.019-.013-.025-.013a2.19 2.19 0 0 1-.175-.106s.3.494 1.093.73c-.187.238-.418.513-.418.513-1.38-.044-1.905-.943-1.905-.943 0-1.992.9-3.61.9-3.61.899-.668 1.748-.65 1.748-.65l.063.075c-1.125.319-1.637.812-1.637.812s.138-.075.369-.175a4.894 4.894 0 0 1 1.417-.393c.038-.006.07-.013.107-.013.38-.05.812-.062 1.261-.012.594.069 1.23.244 1.88.593 0 0-.493-.468-1.555-.787l.087-.1s.856-.018 1.75.65c0 0 .899 1.618.899 3.61 0-.006-.525.893-1.905.937z" />
        </symbol>
        <symbol id="icon-usecase1" viewBox="0 0 32 35">
            <path d="M16.334 24.84l6-3.467a.667.667 0 0 0 .333-.577V13.87a.667.667 0 0 0-.334-.577l-6-3.467a.665.665 0 0 0-.666 0l-6 3.467a.667.667 0 0 0-.333.577v6.926c0 .238.127.458.333.577l6 3.466c.207.116.46.116.667 0zm.333-1.734v-5.39l4.666-2.693v5.39l-4.666 2.693zM16 11.173l4.667 2.697L16 16.564l-4.666-2.694L16 11.173zm-5.333 3.85l4.667 2.694v5.39l-4.667-2.694v-5.39z"/>
            <path d="M29.333 17.333a13.331 13.331 0 0 0-22.76-9.428 13.332 13.332 0 1 0 22.76 9.428zM4 17.333a12 12 0 1 1 24 0 12 12 0 0 1-24 0z"/>
            <path d="M31.466 23.22a.667.667 0 0 0-.746.393l-.047.114A16 16 0 0 1 16 33.333a.667.667 0 0 0 0 1.333 17.336 17.336 0 0 0 14.667-8.09V30A.667.667 0 1 0 32 30v-6.127a.667.667 0 0 0-.533-.653zM16 1.333A.667.667 0 0 0 16 0 17.333 17.333 0 0 0 1.333 8.086v-3.42a.667.667 0 0 0-1.333 0v6.124a.666.666 0 0 0 .533.666.594.594 0 0 0 .134 0 .666.666 0 0 0 .613-.403A16 16 0 0 1 16 1.333z"/>
        </symbol>
        <symbol id="icon-usecase2" viewBox="0 0 38 37">
            <path d="M37.619 17.655c0-2.523-4.166-4.325-9.37-4.325-5.203 0-9.37 1.802-9.37 4.325v13.932c0 2.522 4.03 4.447 9.37 4.447 5.34 0 9.37-1.914 9.37-4.447V17.655zm-1.441 7.027c0 1.42-3.392 3.005-7.929 3.005-4.537 0-7.928-1.585-7.928-3.005v-4.469c1.633 1.23 4.508 2.011 7.928 2.011s6.296-.782 7.929-2.01v4.468zm-7.929-9.91c4.537 0 7.929 1.586 7.929 3.006 0 1.42-3.392 3.005-7.929 3.005-4.537 0-7.928-1.585-7.928-3.005s3.391-3.006 7.928-3.006zm0 19.82c-4.537 0-7.928-1.586-7.928-3.006v-4.468c1.633 1.229 4.508 2.01 7.928 2.01s6.296-.781 7.929-2.01v4.468c0 1.42-3.392 3.006-7.929 3.006zM16.718 24.862H5.907V2.458l3.276 3.273a.72.72 0 0 0 1.016-1.017L5.694.21a.72.72 0 0 0-1.016 0L.173 4.714A.72.72 0 0 0 1.19 5.73l3.276-3.272v23.125a.72.72 0 0 0 .721.72h11.532a.72.72 0 0 0 0-1.44z" />
            <path d="M10.231 21.259a.72.72 0 1 0 1.441 0V9.558a.721.721 0 1 0-1.44 0v11.7zM16.725 2.876c.398 0 .72.398.72.72v11.897a.72.72 0 0 1-.72.72c-.398 0-.72-.398-.72-.72V3.597a.72.72 0 0 1 .72-.72zM22.484 12.61a.72.72 0 0 0 .72-.721V5.831a.721.721 0 0 0-1.441 0v6.058a.72.72 0 0 0 .72.72zM28.278 11.943a.722.722 0 0 0 .721-.72V3.6a.72.72 0 0 0-1.441 0v7.622a.72.72 0 0 0 .72.72z" />
        </symbol>
        <symbol id="icon-usecase3" viewBox="0 0 37 37">
            <path d="M11.596 20.258c-.857.124-1.722.185-2.588.184-4.362 0-7.622-1.524-7.622-2.89v-4.296c1.57 1.182 4.334 1.934 7.622 1.934 3.288 0 6.053-.752 7.623-1.934v.603a.693.693 0 1 0 1.385 0V4.182C18.016 1.732 14.011 0 9.008 0 4.005 0 0 1.732 0 4.158v13.394c0 2.436 3.874 4.276 9.008 4.276.935.002 1.868-.064 2.793-.197a.701.701 0 0 0-.205-1.386v.013zM9.008 1.387c4.362 0 7.623 1.524 7.623 2.89 0 1.364-3.26 2.889-7.623 2.889-4.362 0-7.622-1.525-7.622-2.89 0-1.365 3.26-2.89 7.622-2.89zM1.386 6.618C2.956 7.8 5.72 8.552 9.008 8.552c3.288 0 6.053-.752 7.623-1.934v4.296c0 1.366-3.26 2.89-7.623 2.89-4.362 0-7.622-1.524-7.622-2.89V6.619z"/>
            <path d="M35.24 16.631h-4.75v-2.079a.693.693 0 0 0-1.386 0v2.08h-8.316v-2.08a.693.693 0 0 0-1.386 0v2.08H14.65a.79.79 0 0 0-.79.79v16.88a1.733 1.733 0 0 0 1.732 1.732h18.71a1.733 1.733 0 0 0 1.732-1.733V17.425a.797.797 0 0 0-.794-.794zm-15.838 1.386v2.079a.693.693 0 0 0 1.386 0v-2.079h8.316v2.079a.693.693 0 0 0 1.385 0v-2.079h4.158v5.544H15.245v-5.544h4.157zM34.3 34.647H15.59a.346.346 0 0 1-.346-.346v-9.354h19.403v9.354a.347.347 0 0 1-.347.347z" />
        </symbol>
        <symbol id="icon-security" viewBox="0 0 28 33">
            <path d="M27.225 4.383L14.327.041a.785.785 0 0 0-.501 0L.928 4.383a.785.785 0 0 0-.534.744V15.91c0 7.984 5.692 14.878 13.534 16.39a.781.781 0 0 0 .297 0c7.843-1.512 13.535-8.405 13.535-16.39V5.127a.784.784 0 0 0-.535-.744zM26.19 15.908c0 7.184-5.085 13.392-12.114 14.819C7.048 29.3 1.963 23.092 1.963 15.908V5.691l12.113-4.078L26.19 5.691v10.217zm-13.57 3.098l8.259-7.908a.785.785 0 1 1 1.085 1.134l-8.79 8.417a.784.784 0 0 1-1.075.01l-4.903-4.502a.785.785 0 0 1 1.062-1.156l4.362 4.005z"/>
        </symbol>
        <symbol id="icon-enhance-ui"  viewBox="0 0 34 33">
            <path d="M30.437 0H3.51A2.697 2.697 0 0 0 .817 2.693V29.62a2.696 2.696 0 0 0 2.693 2.692h26.927a2.697 2.697 0 0 0 2.693-2.692V2.693A2.697 2.697 0 0 0 30.437 0zM3.51 1.795h26.927c.495 0 .897.402.898.898V7.18H2.612V2.693c0-.496.403-.897.898-.898zm26.927 28.723H3.51a.899.899 0 0 1-.897-.898V8.976h28.722V29.62a.899.899 0 0 1-.898.897z" />
            <path d="M25.949 4.488a.898.898 0 1 1-1.796 0 .898.898 0 0 1 1.796 0zM22.359 4.488a.898.898 0 1 1-1.796 0 .898.898 0 0 1 1.796 0zM29.54 4.488a.898.898 0 1 1-1.796 0 .898.898 0 0 1 1.795 0zM15.409 19.547a.896.896 0 0 0-.329-1.225l-.4-.23h.001a3.593 3.593 0 0 0 0-2.313l.4-.23a.898.898 0 1 0-.898-1.555l-.394.227a3.974 3.974 0 0 0-2.008-1.164v-.45a.898.898 0 1 0-1.795 0v.45c-.77.18-1.469.585-2.008 1.164l-.393-.227a.898.898 0 0 0-.898 1.555l.4.23a3.592 3.592 0 0 0 0 2.312l-.4.23a.896.896 0 1 0 .898 1.555l.393-.227a3.976 3.976 0 0 0 2.008 1.163v.45a.897.897 0 1 0 1.795 0v-.45c.77-.179 1.47-.584 2.008-1.163l.394.227a.896.896 0 0 0 1.226-.329zm-4.525-.419a2.194 2.194 0 1 1 0-4.389 2.194 2.194 0 0 1 0 4.389zM26.658 19.958l-.75.13a4.816 4.816 0 0 0-2.03-2.444l.262-.712a.899.899 0 1 0-1.684-.62l-.263.711a4.823 4.823 0 0 0-3.129.543l-.488-.586a.898.898 0 0 0-1.38 1.148l.488.585a4.725 4.725 0 0 0-1.098 2.98l-.75.13a.898.898 0 0 0 .305 1.768l.75-.129a4.816 4.816 0 0 0 2.03 2.443l-.262.712a.897.897 0 1 0 1.685.62l.262-.711a4.672 4.672 0 0 0 3.124-.549l.493.592a.898.898 0 0 0 1.38-1.148l-.488-.586a4.714 4.714 0 0 0 1.099-2.98l.75-.128a.897.897 0 1 0-.306-1.77zm-6.304 4.655a3.024 3.024 0 1 1 2.092-5.676 3.024 3.024 0 0 1-2.092 5.675z"/>
        </symbol>
        <symbol id="icon-right-arrow-bold" viewBox="0 0 28 23">
            <path d="M27.833 11.617L17.143.927l-2.04 2.053 7.188 7.188H.654v2.9h21.637l-7.187 7.186 2.038 2.054 10.69-10.69z" fill="#fff"/>
        </symbol>
        <symbol id="icon-cosmos" viewBox="0 0 28 33">
            <path d="M27.242.762c-1.357-1.356-3.981-.796-7.077.826C14.975-.977 8.489-.122 4.213 4.212-.12 8.547-.947 15.004 1.59 20.164c-1.622 3.096-2.182 5.72-.826 7.077 1.268 1.268 3.774.914 7.077-.796 5.19 2.565 11.676 1.71 15.952-2.625 4.334-4.334 5.16-10.792 2.595-15.981 1.592-2.978 2.24-5.691.855-7.077Zm-.885.885c.678.678.501 2.388-.678 4.895a12.8 12.8 0 0 0-1.887-2.33 14.182 14.182 0 0 0-2.33-1.887c2.389-1.15 4.187-1.386 4.895-.678Zm-24.71 24.71c-.707-.709-.471-2.507.679-4.896a12.8 12.8 0 0 0 1.887 2.33 14.184 14.184 0 0 0 2.33 1.887c-2.566 1.238-4.247 1.327-4.895.678Zm21.29-3.421c-3.716 3.715-9.17 4.6-13.74 2.742.5-.325 1.031-.649 1.591-1.003.973.885 2.507.855 3.48-.088.973-.973.973-2.565 0-3.568-.974-.973-2.566-.973-3.568 0-.708.708-.885 1.71-.59 2.624-.796.53-1.533 1.003-2.24 1.386a13.258 13.258 0 0 1-2.743-2.093C.203 18.01.203 10.02 5.127 5.096c4.924-4.924 12.915-4.924 17.839 0 .826.826 1.533 1.77 2.094 2.743-.796 1.415-1.858 3.007-3.214 4.747a.647.647 0 0 0 .118.884.597.597 0 0 0 .825-.059l.06-.059c1.06-1.356 2.063-2.742 2.918-4.157 1.77 4.541.885 10.026-2.83 13.74Zm-11.412-1.062c.502-.501 1.298-.501 1.829 0 .5.502.5 1.298 0 1.828-.502.502-1.298.502-1.829 0-.471-.53-.471-1.327 0-1.828Z" fill="#5064FB"/>
        </symbol>
        <symbol id="icon-stake-atom" viewBox="0 0 52 44">
            <g filter="url(#filter0_d_203_906)">
    <g filter="url(#filter1_di_203_906)">
      <path d="M34.8019 10.9999C33.7094 10.9978 32.6408 11.3074 31.7314 11.8895C30.8221 12.4716 30.1129 13.3 29.6938 14.2698C29.2746 15.2396 29.1644 16.3072 29.377 17.3373C29.5896 18.3674 30.1155 19.3137 30.888 20.0562C31.6605 20.7988 32.645 21.3043 33.7166 21.5087C34.7883 21.713 35.8989 21.607 36.9079 21.2041C37.9168 20.8013 38.7787 20.1196 39.3843 19.2455C39.9899 18.3715 40.3119 17.3443 40.3097 16.2941C40.3067 14.8909 39.7255 13.546 38.6932 12.5537C37.6609 11.5615 36.2617 11.0028 34.8019 10.9999Z" fill="#5064FB"/>
    </g>
    <path d="M13.7426 24.7581H11V42.6777H13.7426V24.7581Z" fill="#5064FB"/>
    <path d="M23.8968 25.751L24.1008 25.8926C24.3728 26.0887 24.6108 26.2521 24.8487 26.3937L25.0527 26.5027C25.4151 26.7139 25.8302 26.8268 26.254 26.8295H27.3873C27.6779 26.8115 27.9694 26.8115 28.2599 26.8295H28.4299C29.582 26.9941 30.6707 27.4405 31.5918 28.1258C32.0794 26.824 32.0162 25.3902 31.4159 24.1327C30.8156 22.8752 29.726 21.8942 28.3812 21.4005C27.0365 20.9069 25.544 20.94 24.2244 21.4928C22.9049 22.0456 21.8635 23.0738 21.3242 24.3567C21.4829 24.3567 21.6529 24.4329 21.8115 24.4983C22.5633 24.8216 23.265 25.2431 23.8968 25.751Z" fill="#5064FB"/>
    <path d="M44.2513 29.1697C43.7641 28.8225 43.1799 28.6235 42.5739 28.5982C41.968 28.573 41.3681 28.7227 40.8514 29.0281L34.6297 32.6338H21.2002V31.5445H31.6151C31.3241 30.9586 30.9069 30.4388 30.3912 30.0194C29.748 29.4882 28.9628 29.1409 28.1246 29.0172C27.8869 29.0002 27.6483 29.0002 27.4106 29.0172H26.2773C25.4806 29.0095 24.6996 28.8031 24.0108 28.4181C23.5606 28.1714 23.1289 27.8947 22.7188 27.5902C22.1897 27.1866 21.6065 26.8531 20.9849 26.5989C20.6268 26.4519 20.241 26.3777 19.8516 26.381H16.0098V40.8474H27.9999C30.6828 40.8428 33.2901 39.9934 35.423 38.4291L44.2286 31.9693C44.4664 31.8132 44.661 31.6035 44.7953 31.3586C44.9296 31.1137 44.9996 30.8409 44.9992 30.5641C44.9957 30.2918 44.9263 30.0241 44.7965 29.782C44.6667 29.54 44.48 29.3304 44.2513 29.1697Z" fill="#5064FB"/>
  </g>
  <defs>
    <filter id="filter0_d_203_906" x="0.967766" y="0.967682" width="54.0645" height="51.7422" filterUnits="userSpaceOnUse" color-interpolation-filters="sRGB">
      <feFlood flood-opacity="0" result="BackgroundImageFix"/>
      <feColorMatrix in="SourceAlpha" type="matrix" values="0 0 0 0 0 0 0 0 0 0 0 0 0 0 0 0 0 0 127 0" result="hardAlpha"/>
      <feOffset/>
      <feGaussianBlur stdDeviation="5.01612"/>
      <feComposite in2="hardAlpha" operator="out"/>
      <feColorMatrix type="matrix" values="0 0 0 0 0.313726 0 0 0 0 0.392157 0 0 0 0 0.984314 0 0 0 0.5 0"/>
      <feBlend mode="normal" in2="BackgroundImageFix" result="effect1_dropShadow_203_906"/>
      <feBlend mode="normal" in="SourceGraphic" in2="effect1_dropShadow_203_906" result="shape"/>
    </filter>
    <filter id="filter1_di_203_906" x="19.2393" y="0.967682" width="31.1035" height="30.6746" filterUnits="userSpaceOnUse" color-interpolation-filters="sRGB">
      <feFlood flood-opacity="0" result="BackgroundImageFix"/>
      <feColorMatrix in="SourceAlpha" type="matrix" values="0 0 0 0 0 0 0 0 0 0 0 0 0 0 0 0 0 0 127 0" result="hardAlpha"/>
      <feOffset/>
      <feGaussianBlur stdDeviation="5.01612"/>
      <feComposite in2="hardAlpha" operator="out"/>
      <feColorMatrix type="matrix" values="0 0 0 0 0.313726 0 0 0 0 0.392157 0 0 0 0 0.984314 0 0 0 0.5 0"/>
      <feBlend mode="normal" in2="BackgroundImageFix" result="effect1_dropShadow_203_906"/>
      <feBlend mode="normal" in="SourceGraphic" in2="effect1_dropShadow_203_906" result="shape"/>
      <feColorMatrix in="SourceAlpha" type="matrix" values="0 0 0 0 0 0 0 0 0 0 0 0 0 0 0 0 0 0 127 0" result="hardAlpha"/>
      <feOffset dy="4"/>
      <feGaussianBlur stdDeviation="2"/>
      <feComposite in2="hardAlpha" operator="arithmetic" k2="-1" k3="1"/>
      <feColorMatrix type="matrix" values="0 0 0 0 0 0 0 0 0 0 0 0 0 0 0 0 0 0 0.25 0"/>
      <feBlend mode="normal" in2="shape" result="effect2_innerShadow_203_906"/>
    </filter>
  </defs>
        </symbol>

    </defs>
</svg>