<svg width="410" height="306" viewBox="0 0 410 306" fill="none" xmlns="http://www.w3.org/2000/svg">
<g clip-path="url(#clip0_2306_5174)">
<path d="M-15.3038 -5H401.106C406.092 -5 410.141 -0.950516 410.141 4.03534V313H-24.333V4.03534C-24.333 -0.950516 -20.2835 -5 -15.2977 -5H-15.3038Z" fill="#1F1F1F"/>
<path d="M112.793 87.5262L114.911 79.7726L128.971 73.3809L142.063 66.3423L149.549 70.1811L152.283 80.0548L178.494 63.2066L208.96 57.5776L226.005 59.6401L235.706 69.7928L241.966 77.2264L206.896 73.5878L183.912 72.4508L132.645 86.6474L112.793 87.5262Z" fill="#E2E2E2"/>
<path d="M327.683 -53.3426L288.808 2.14159C288.808 2.14159 309.018 7.40959 329.305 39.6843C329.305 39.6843 333.17 46.6899 330.855 49.4507L375.667 2.4172L357.907 -61.7182L327.682 -53.3485L327.683 -53.3426Z" fill="#484242"/>
<path d="M288.809 2.14083C288.809 2.14083 285.551 3.9075 287.579 7.76856L321.53 47.0294C321.53 47.0294 327.106 50.4884 330.856 49.4499C330.856 49.4499 334.045 45.8602 327.286 36.5584C327.286 36.5584 312.342 12.028 291.467 3.17145C290.589 2.80264 289.704 2.45465 288.809 2.14083Z" fill="#0C0C0C"/>
<path d="M291.681 3.65387L275.498 21.2645C275.498 21.2645 287.528 23.5609 306.305 48.6513C306.305 48.6513 309.665 53.4937 308.569 56.8257L330.05 41.2118C330.05 41.2118 314.715 10.2595 291.681 3.65387Z" fill="#212121"/>
<path d="M264.235 32.5117C264.235 32.5117 287.653 42.7587 288.519 61.1749L307.366 50.4732" stroke="#1B1B1B" stroke-width="0.352658" stroke-miterlimit="10"/>
<path d="M165.271 69.6112C163.034 69.3031 153.248 75.748 153.248 75.748C143.151 82.0076 136.37 82.0116 136.37 82.0116C119.121 92.1258 112.345 84.3364 112.345 84.3364C110.892 84.3036 110.174 86.3825 110.174 86.3825C110.804 91.2553 118.305 91.7775 118.305 91.7775C127.383 93.3015 144.98 87.5642 144.98 87.5642C164.884 79.7434 184.38 75.6444 184.38 75.6444C202.301 72.1264 206.87 86.0033 206.87 86.0033C181.425 84.2482 179.186 94.3887 179.186 94.3887C178.721 100 194.435 98.5823 194.435 98.5823L217.811 98.2667C222.287 99.141 230.343 97.6799 230.343 97.6799C259.323 91.1943 267.232 73.2314 267.232 73.2314L288.513 61.1806C288.513 61.1806 288.477 43.6891 264.229 32.5174C264.229 32.5174 258.746 39.8084 241.885 43.5121C241.885 43.5121 212.969 49.8854 203.897 48.3598C203.897 48.3598 195.051 49.7494 188.049 54.6727C188.049 54.6727 168.316 67.1211 162.135 71.9117C161.2 72.6374 161.112 74.0498 161.997 74.833C162.397 75.1829 163.019 75.4903 163.953 75.6733C163.953 75.6733 171.973 78.9351 187.444 70.8969C187.444 70.8969 203.375 62.4475 205.778 63.126C205.778 63.126 217.679 67.8494 226.616 70.5039C229.008 71.2167 231.19 71.7798 232.871 72.065" fill="#E2E2E2"/>
<path d="M165.271 69.6112C163.034 69.3031 153.248 75.748 153.248 75.748C143.151 82.0076 136.37 82.0116 136.37 82.0116C119.121 92.1258 112.345 84.3364 112.345 84.3364C110.892 84.3036 110.174 86.3825 110.174 86.3825C110.804 91.2553 118.305 91.7775 118.305 91.7775C127.383 93.3015 144.98 87.5642 144.98 87.5642C164.884 79.7434 184.38 75.6444 184.38 75.6444C202.301 72.1264 206.87 86.0033 206.87 86.0033C181.425 84.2482 179.186 94.3887 179.186 94.3887C178.721 100 194.435 98.5823 194.435 98.5823L217.811 98.2667C222.287 99.141 230.343 97.6799 230.343 97.6799C259.323 91.1943 267.232 73.2314 267.232 73.2314L288.513 61.1806C288.513 61.1806 288.477 43.6891 264.229 32.5174C264.229 32.5174 258.746 39.8084 241.885 43.5121C241.885 43.5121 212.969 49.8854 203.897 48.3598C203.897 48.3598 195.051 49.7494 188.049 54.6727C188.049 54.6727 168.316 67.1211 162.135 71.9117C161.2 72.6374 161.112 74.0498 161.997 74.833C162.397 75.1829 163.019 75.4903 163.953 75.6733C163.953 75.6733 171.973 78.9351 187.444 70.8969C187.444 70.8969 203.375 62.4475 205.778 63.126C205.778 63.126 217.679 67.8494 226.616 70.5039C229.008 71.2167 231.19 71.7799 232.871 72.065" stroke="black" stroke-width="0.352658" stroke-miterlimit="10"/>
<path d="M206.868 85.9971C206.868 85.9971 217.794 72.4796 236.581 72.9552" stroke="#1B1B1B" stroke-width="0.352658" stroke-miterlimit="10"/>
<path d="M268.901 68.8207C268.901 68.8207 256.966 75.7284 239.663 73.668" stroke="#1B1B1B" stroke-width="0.352658" stroke-miterlimit="10"/>
<path d="M161.978 56.7396C161.978 56.7396 148.289 58.366 142.385 63.6098C142.385 63.6098 127.971 72.5035 122.373 75.2083C122.373 75.2083 115.957 77.5589 114.922 77.9906C114.922 77.9906 109.152 80.5979 112.35 84.3307" fill="#E2E2E2"/>
<path d="M161.978 56.7396C161.978 56.7396 148.289 58.366 142.385 63.6098C142.385 63.6098 127.971 72.5035 122.373 75.2083C122.373 75.2083 115.957 77.5589 114.922 77.9906C114.922 77.9906 109.152 80.5979 112.35 84.3307" stroke="black" stroke-width="0.352658" stroke-miterlimit="10"/>
<path d="M189.832 53.506C189.832 53.506 170.816 50.1094 163.718 56.2581L145.238 67.1482L131.785 74.7977C130.75 75.3873 130.123 76.5197 130.242 77.6984C130.422 79.5348 131.587 81.9189 136.375 82.0063C136.375 82.0063 144.3 81.1681 151.595 76.7316C151.595 76.7316 162.597 69.275 165.271 69.6134L189.834 53.5118L189.832 53.506Z" fill="#E2E2E2" stroke="black" stroke-width="0.352658" stroke-miterlimit="10"/>
<path d="M111.486 81.3703C111.486 81.3703 113.729 79.765 118.973 81.682C118.973 81.682 125.987 79.3295 125.789 76.4255C125.789 76.4255 122.997 74.9779 122.373 75.2075C122.373 75.2075 115.18 77.6913 114.154 78.4045C114.154 78.4045 111.553 80.2667 111.485 81.3645L111.486 81.3703Z" stroke="#1B1B1B" stroke-width="0.352658" stroke-miterlimit="10"/>
<path d="M154.403 254.578L129.724 283.021C129.724 283.021 142.657 294.297 157.744 298.77C157.744 298.77 181.025 307.13 187.322 296.541L187.57 293.974L195.606 273.667L154.401 254.572L154.403 254.578Z" fill="#2D2D2D"/>
<path d="M137.246 274.342C137.246 274.342 128.818 273.502 126.861 278.946C126.861 278.946 128.54 282.229 131.471 284.452L137.246 274.342Z" fill="#0C0C0C"/>
<path d="M130.464 76.2838C130.464 76.2838 135.223 75.4013 137.083 77.2648C137.083 77.2648 145.276 73.1539 142.959 70.7103L140.245 69.9791L131.785 74.7886C131.785 74.7886 130.636 75.7189 130.457 76.2795L130.464 76.2838Z" stroke="#1B1B1B" stroke-width="0.352658" stroke-miterlimit="10"/>
<path d="M161.888 72.6789L163.869 72.1304C165.311 71.7312 166.835 71.7445 168.275 72.1596C168.275 72.1596 175.624 68.4903 174.206 65.8044L172.512 64.8601C172.512 64.8601 163.982 70.0992 161.666 72.2862C161.49 72.4484 161.658 72.7363 161.887 72.673L161.888 72.6789Z" stroke="#1B1B1B" stroke-width="0.352658" stroke-miterlimit="10"/>
<path d="M277.376 19.2228L264.235 32.5084C264.235 32.5084 284.086 40.2859 288.519 61.1717L307.366 50.47C307.366 50.47 297.671 29.7225 277.368 19.2186L277.376 19.2228Z" fill="#2D2D2D"/>
<path d="M307.712 -0.0418529C309.44 -0.520408 310.453 -2.30931 309.974 -4.03748C309.496 -5.76565 307.707 -6.77866 305.979 -6.30011C304.25 -5.82155 303.237 -4.03264 303.716 -2.30447C304.194 -0.576302 305.983 0.436703 307.712 -0.0418529Z" fill="#E50913"/>
<path d="M153.33 255.756L160.517 247.854L156.911 245.244C156.911 245.244 149.944 247.173 147.601 243.929C147.601 243.929 139.364 235.535 132.472 232.541C132.472 232.541 127.479 231.186 128.765 225.921C128.765 225.921 129.882 220.565 135.901 219.907C135.901 219.907 147.803 217.047 153.816 226.776C153.816 226.776 160.353 221.218 170.88 221.186C170.88 221.186 179.637 220.503 187.614 225.865C187.614 225.865 197.627 231.811 198.332 231.761C198.332 231.761 201.873 233.09 208.436 231.272C208.436 231.272 235.723 217.805 238.167 217.267C238.167 217.267 239.036 211.543 246.692 202.212C246.692 202.212 251.028 192.355 255.759 188.591C255.759 188.591 262.125 173.554 269.562 175.393C269.562 175.393 274.448 177.933 267.512 187.79C267.512 187.79 270.779 187.605 270.52 189.267C270.52 189.267 273.917 191.645 259.358 222.938C259.358 222.938 257.905 228.103 253.298 232.837C253.298 232.837 250.007 236.057 249.319 238.267C249.319 238.267 244.732 243.575 238.582 245.858C238.582 245.858 233.231 248.93 232.418 250.164C232.418 250.164 225.317 253.431 224.08 253.773L220.767 257.574C220.767 257.574 209.521 262.278 199.68 262.694L192.845 276.561C192.845 276.561 184.749 283.276 160.89 267.953C160.89 267.953 153.744 264.02 151.716 257.219L153.332 255.762L153.33 255.756Z" fill="#E2E2E2" stroke="black" stroke-width="0.352658" stroke-miterlimit="10"/>
<path d="M198.591 239.47C198.591 239.47 205.387 237.443 209.305 229.721L218.187 215.432C218.187 215.432 229.46 198.316 239.777 207.434C239.777 207.434 233.205 223.822 217.739 247.145" fill="#E2E2E2"/>
<path d="M198.591 239.47C198.591 239.47 205.387 237.443 209.305 229.721L218.187 215.432C218.187 215.432 229.46 198.316 239.777 207.434C239.777 207.434 233.205 223.822 217.739 247.145" stroke="black" stroke-width="0.352658" stroke-miterlimit="10"/>
<path d="M239.202 207.455C239.202 207.455 238.005 209.377 232.011 211.175L230.032 217.061C230.032 217.061 229.987 219.565 231.783 219.92C232.671 220.097 233.558 219.611 233.981 218.813C235.229 216.461 238.529 210.083 239.202 207.455Z" stroke="#1B1B1B" stroke-width="0.352658" stroke-miterlimit="10"/>
<path d="M228.755 229.098C228.755 229.098 236.17 224.685 237.784 223.974C237.784 223.974 244.15 209.687 247.306 206.504C247.306 206.504 253.11 194.657 260.481 195.209C260.481 195.209 263.043 195.074 263.088 198.38C263.088 198.38 263.531 203.626 257.742 212.933L255.14 217.868C251.045 225.633 245.509 232.573 238.732 238.153C235.604 240.729 232.049 243.227 228.281 245.091" stroke="#1B1B1B" stroke-width="0.352658" stroke-miterlimit="10"/>
<path d="M263.088 198.387C263.088 198.387 260.34 200.447 257.996 199.797L255.251 206.039C255.251 206.039 254.776 210.064 256.327 209.924L260.013 208.904C260.013 208.904 262.859 202.778 263.088 198.387Z" stroke="#1B1B1B" stroke-width="0.352658" stroke-miterlimit="10"/>
<path d="M266.697 194.212C270.262 192.506 270.518 189.262 270.518 189.262C269.316 186.995 263.342 188.365 263.342 188.365C259.175 188.945 257.027 195.748 257.027 195.748" stroke="#1B1B1B" stroke-width="0.352658" stroke-miterlimit="10"/>
<path d="M267.456 202.703C267.456 202.703 264.955 202.146 265.664 199.351L267.098 194.096C267.098 194.096 271.191 192.13 270.287 188.456C270.287 188.456 272.125 192.653 267.449 202.699L267.456 202.703Z" stroke="#1B1B1B" stroke-width="0.352658" stroke-miterlimit="10"/>
<path d="M128.59 228.417C128.59 228.417 131.9 232.529 138.177 230.728L142.468 234.24C142.468 234.24 144.432 238.119 140.728 237.801L134.182 233.367C134.182 233.367 128.419 230.919 128.596 228.416L128.59 228.417Z" stroke="#1B1B1B" stroke-width="0.352658" stroke-miterlimit="10"/>
<path d="M163.889 242.834L156.91 245.246" stroke="#1B1B1B" stroke-width="0.352658" stroke-miterlimit="10"/>
<path d="M170.987 254.906C170.987 254.906 187.141 269.474 220.771 257.568" stroke="#1B1B1B" stroke-width="0.352658" stroke-miterlimit="10"/>
<path d="M216.23 251.608C216.23 251.608 216.122 255.386 211.695 257.627" stroke="#1B1B1B" stroke-width="0.352658" stroke-miterlimit="10"/>
<path d="M226.437 249.644C226.437 249.644 225.783 252.999 224.082 253.76" stroke="#1B1B1B" stroke-width="0.352658" stroke-miterlimit="10"/>
<path d="M238.243 243.064C238.243 243.064 238.865 243.965 234.378 248.494" stroke="#1B1B1B" stroke-width="0.352658" stroke-miterlimit="10"/>
<path d="M38.813 383.505L126.862 278.947C126.862 278.947 157.775 312.797 187.461 298.425L172.141 346.585L38.8189 383.504L38.813 383.505Z" fill="#151515"/>
<path d="M126.533 301.436C128.507 300.89 129.664 298.846 129.117 296.872C128.571 294.898 126.527 293.741 124.553 294.288C122.579 294.834 121.422 296.878 121.968 298.852C122.515 300.826 124.559 301.983 126.533 301.436Z" fill="white"/>
<path d="M127.007 299.705C126.175 300.451 124.861 300.383 124.103 299.519C123.365 298.675 123.449 297.378 124.298 296.632C125.141 295.891 126.425 295.973 127.171 296.804C127.942 297.662 127.843 298.973 127.007 299.705ZM124.645 297.042C124.026 297.592 123.963 298.546 124.513 299.17C125.063 299.795 126.021 299.858 126.645 299.31C127.271 298.759 127.332 297.804 126.785 297.177C126.224 296.534 125.259 296.498 124.645 297.042Z" fill="black"/>
<path d="M125.97 297.895C126.125 298.074 126.106 298.343 125.926 298.497C125.746 298.654 125.478 298.632 125.321 298.449C125.169 298.272 125.191 298.006 125.37 297.85C125.547 297.697 125.816 297.717 125.97 297.895L125.97 297.895Z" fill="black"/>
<path d="M122.632 297.877L125.729 295.144L125.397 294.768L122.3 297.5L122.632 297.877Z" fill="#FF6700"/>
<path d="M117.554 310.14C119.528 309.593 120.685 307.549 120.139 305.575C119.592 303.601 117.549 302.444 115.575 302.991C113.6 303.537 112.443 305.581 112.99 307.555C113.536 309.529 115.58 310.686 117.554 310.14Z" fill="white"/>
<path d="M117.799 307.972C117.131 308.571 116.076 308.516 115.468 307.823C114.876 307.145 114.944 306.105 115.625 305.506C116.302 304.912 117.331 304.978 117.93 305.644C118.549 306.333 118.47 307.384 117.799 307.972ZM115.903 305.835C115.407 306.277 115.356 307.042 115.797 307.543C116.239 308.045 117.008 308.095 117.508 307.655C118.011 307.213 118.06 306.447 117.621 305.944C117.171 305.428 116.396 305.399 115.903 305.835Z" fill="black"/>
<path d="M114.288 306.505L116.773 304.313L116.507 304.011L114.021 306.203L114.288 306.505Z" fill="#FF6700"/>
<g opacity="0.18">
<path d="M177.142 188.575L159.812 219.771" stroke="#F7931A" stroke-width="0.608031" stroke-miterlimit="10"/>
<path d="M144.445 247.617L132.602 268.417" stroke="#F7931A" stroke-width="0.608031" stroke-miterlimit="10"/>
<path d="M214.175 190.004L221.118 205.69" stroke="#F7931A" stroke-width="0.608031" stroke-miterlimit="10"/>
<path d="M232.648 174.352L252.946 185.179" stroke="#F7931A" stroke-width="0.608031" stroke-miterlimit="10"/>
<path d="M243.07 251.629L255.908 277.26" stroke="#F7931A" stroke-width="0.608031" stroke-miterlimit="10"/>
<path d="M227.313 262.102L237.774 299.88" stroke="#F7931A" stroke-width="0.608031" stroke-miterlimit="10"/>
<path d="M282.328 202.723L329.086 227.812" stroke="#F7931A" stroke-width="0.608031" stroke-miterlimit="10"/>
<path d="M230.349 166.051L256.447 174.401" stroke="#F7931A" stroke-width="0.608031" stroke-miterlimit="10"/>
<path d="M281.554 183.277L325.081 199.798" stroke="#F7931A" stroke-width="0.608031" stroke-miterlimit="10"/>
<path d="M184.271 187.749L174.635 214.947" stroke="#F7931A" stroke-width="0.608031" stroke-miterlimit="10"/>
<path d="M205.971 188.379L212.612 212.363" stroke="#F7931A" stroke-width="0.608031" stroke-miterlimit="10"/>
<path d="M72.9758 212.51L98.588 200.515" stroke="#F7931A" stroke-width="0.608031" stroke-miterlimit="10"/>
<path d="M142.653 179.95L164.232 169.065" stroke="#F7931A" stroke-width="0.608031" stroke-miterlimit="10"/>
<path d="M135.946 171.129L153.642 166.228" stroke="#F7931A" stroke-width="0.608031" stroke-miterlimit="10"/>
<path d="M50.2054 194.875L88.7921 184.19" stroke="#F7931A" stroke-width="0.608031" stroke-miterlimit="10"/>
<path d="M238.892 141.469L257.046 136.442" stroke="#F7931A" stroke-width="0.608031" stroke-miterlimit="10"/>
<path d="M229.034 138.424L256.669 125.579" stroke="#F7931A" stroke-width="0.608031" stroke-miterlimit="10"/>
<path d="M296.9 106.365L315.225 97.5371" stroke="#F7931A" stroke-width="0.608031" stroke-miterlimit="10"/>
<path d="M311.739 122.451L343.062 112.623" stroke="#F7931A" stroke-width="0.608031" stroke-miterlimit="10"/>
<path d="M78.4406 111.379L162.79 141.624" stroke="#F7931A" stroke-width="0.608031" stroke-miterlimit="10"/>
<path d="M119.511 110.188L160.453 133.184" stroke="#F7931A" stroke-width="0.608031" stroke-miterlimit="10"/>
<path d="M65.085 79.5312L93.7319 96.2672" stroke="#F7931A" stroke-width="0.608031" stroke-miterlimit="10"/>
<path d="M174.258 106.277L181.682 121.105" stroke="#F7931A" stroke-width="0.608031" stroke-miterlimit="10"/>
<path d="M182.596 103.969L185.157 113.215" stroke="#F7931A" stroke-width="0.608031" stroke-miterlimit="10"/>
<path d="M175.77 79.3164L178.032 87.4849" stroke="#F7931A" stroke-width="0.608031" stroke-miterlimit="10"/>
<path d="M164.289 85.3828L167.548 92.8462" stroke="#F7931A" stroke-width="0.608031" stroke-miterlimit="10"/>
<path d="M138.63 30.7461L148.526 51.3749" stroke="#F7931A" stroke-width="0.608031" stroke-miterlimit="10"/>
<path d="M155.809 7.23438L167.551 49.6358" stroke="#F7931A" stroke-width="0.608031" stroke-miterlimit="10"/>
<path d="M214.789 102.089L209.137 119.704" stroke="#F7931A" stroke-width="0.608031" stroke-miterlimit="10"/>
<path d="M226.257 101.83L217.029 117.944" stroke="#F7931A" stroke-width="0.608031" stroke-miterlimit="10"/>
</g>
<g filter="url(#filter0_d_2306_5174)">
<path d="M246.079 160.981C244.782 186.533 223.017 206.2 197.472 204.902C171.92 203.605 152.253 181.84 153.551 156.295C154.848 130.743 176.613 111.076 202.159 112.374C227.71 113.671 247.377 135.436 246.079 160.981Z" fill="#CC7617"/>
<path d="M239.841 160.665C238.544 186.216 216.779 205.884 191.233 204.585C165.682 203.289 146.015 181.524 147.313 155.978C148.609 130.427 170.375 110.759 195.92 112.058C221.471 113.354 241.139 135.119 239.841 160.665Z" fill="#EB9B0B"/>
<path d="M191.435 201.463L191.394 201.474C190.648 201.422 189.919 201.365 189.188 201.297L189.82 195.084C190.445 195.151 191.068 195.193 191.709 195.229L191.439 201.475L191.435 201.463ZM194.829 201.507L194.646 195.262C195.297 195.245 195.936 195.207 196.584 195.154L197.077 201.377C196.323 201.434 195.584 201.475 194.822 201.503L194.834 201.5L194.829 201.507ZM185.839 200.824C185.087 200.685 184.352 200.535 183.616 200.36L185.054 194.277C185.676 194.427 186.311 194.554 186.95 194.674L185.845 200.822L185.839 200.824ZM200.456 200.978L199.463 194.817C200.103 194.716 200.733 194.598 201.364 194.461L202.677 200.571C201.945 200.729 201.202 200.872 200.459 200.99L200.456 200.978ZM180.357 199.458C179.637 199.229 178.918 198.98 178.22 198.713L180.452 192.877C181.045 193.104 181.652 193.314 182.268 193.51L180.363 199.457L180.357 199.458ZM205.957 199.726L204.18 193.738C204.797 193.555 205.405 193.355 206.001 193.139L208.102 199.018C207.396 199.27 206.673 199.508 205.95 199.721L205.953 199.733L205.957 199.726ZM175.094 197.383C174.41 197.055 173.744 196.722 173.083 196.362L176.047 190.866C176.618 191.175 177.198 191.469 177.777 191.737L175.094 197.383ZM211.252 197.748L208.703 192.051C209.288 191.794 209.872 191.512 210.439 191.21L213.297 196.772C212.624 197.122 211.951 197.448 211.258 197.747L211.252 197.748ZM170.161 194.629C169.531 194.223 168.901 193.791 168.294 193.354L171.946 188.292C172.472 188.664 173.003 189.034 173.542 189.383L170.155 194.63L170.161 194.629ZM216.235 195.1L212.959 189.787C213.504 189.453 214.042 189.096 214.567 188.736L218.117 193.879C217.504 194.307 216.869 194.723 216.226 195.115L216.235 195.1ZM165.617 191.25C165.039 190.76 164.478 190.259 163.939 189.746L168.22 185.204C168.69 185.648 169.174 186.075 169.67 186.5L165.62 191.262L165.617 191.25ZM220.836 191.826L216.899 186.973C217.404 186.562 217.889 186.15 218.368 185.715L222.559 190.346C221.999 190.854 221.427 191.341 220.84 191.819L220.844 191.83L220.836 191.826ZM161.569 187.317C161.066 186.756 160.574 186.186 160.098 185.605L164.934 181.653C165.345 182.158 165.757 182.643 166.193 183.122L161.561 187.313L161.565 187.325L161.569 187.317ZM224.979 187.991L220.44 183.696C220.884 183.226 221.314 182.754 221.739 182.258L226.489 186.311C225.999 186.889 225.498 187.45 224.979 187.991ZM158.056 182.902C157.627 182.289 157.212 181.653 156.819 181.011L162.13 177.723C162.464 178.268 162.821 178.806 163.196 179.34L158.068 182.899L158.056 182.902ZM228.584 183.649L223.531 179.982C223.906 179.468 224.275 178.931 224.624 178.393L229.862 181.794C229.456 182.423 229.025 183.054 228.576 183.664L228.584 183.649ZM155.154 178.072C154.803 177.399 154.478 176.726 154.169 176.041L159.863 173.48C160.12 174.065 160.402 174.65 160.704 175.216L155.154 178.072ZM231.594 178.866L226.103 175.895C226.411 175.323 226.708 174.755 226.975 174.17L232.62 176.853C232.292 177.537 231.951 178.218 231.592 178.879L231.588 178.868L231.594 178.866ZM152.901 172.897C152.648 172.191 152.412 171.474 152.197 170.745L158.18 168.95C158.363 169.568 158.565 170.181 158.782 170.783L152.903 172.884L152.895 172.899L152.901 172.897ZM233.964 173.73L228.128 171.498C228.358 170.892 228.571 170.296 228.767 169.681L234.711 171.599C234.482 172.319 234.229 173.026 233.964 173.73ZM151.352 167.465C151.194 166.733 151.051 165.99 150.93 165.235L157.091 164.242C157.192 164.883 157.31 165.512 157.447 166.143L151.341 167.468L151.352 167.465ZM235.622 168.325L229.539 166.887C229.688 166.265 229.815 165.63 229.935 164.991L236.081 166.11C235.938 166.849 235.792 167.596 235.614 168.321L235.626 168.318L235.622 168.325ZM150.532 161.882C150.474 161.128 150.434 160.388 150.406 159.626L156.651 159.442C156.666 160.088 156.706 160.733 156.756 161.369L150.536 161.874L150.539 161.886L150.532 161.882ZM236.567 162.764L230.354 162.131C230.416 161.489 230.471 160.843 230.5 160.198L230.502 160.046L236.744 160.304L236.739 160.514C236.702 161.269 236.64 162.024 236.562 162.765L236.573 162.762L236.567 162.764ZM150.437 156.23L150.443 156.14C150.482 155.416 150.531 154.702 150.604 153.988L156.828 154.611C156.769 155.221 156.714 155.842 156.691 156.466L150.451 156.238L150.437 156.23ZM230.524 157.137C230.507 156.486 230.469 155.847 230.41 155.201L236.637 154.675C236.706 155.426 236.735 156.168 236.763 156.93L230.52 157.126L230.524 157.137ZM157.218 151.74L151.07 150.635C151.197 149.887 151.359 149.148 151.531 148.425L157.61 149.852C157.461 150.474 157.334 151.108 157.214 151.747L157.226 151.744L157.218 151.74ZM230.069 152.33C229.967 151.689 229.85 151.059 229.707 150.43L235.81 149.093C235.969 149.825 236.111 150.568 236.232 151.323L230.075 152.328L230.069 152.33ZM158.383 147.058L152.435 145.153C152.665 144.433 152.917 143.726 153.181 143.015L159.022 145.221C158.798 145.826 158.582 146.435 158.387 147.05L158.39 147.062L158.383 147.058ZM228.968 147.625C228.785 147.007 228.573 146.403 228.366 145.792L234.238 143.667C234.496 144.372 234.727 145.09 234.953 145.816L228.974 147.623L228.968 147.625ZM160.156 142.573L154.514 139.902C154.831 139.221 155.172 138.54 155.532 137.879L161.027 140.843C160.719 141.414 160.425 141.994 160.156 142.573ZM227.278 143.115C227.009 142.533 226.728 141.949 226.43 141.375L231.975 138.502C232.325 139.175 232.647 139.836 232.96 140.532L227.27 143.111L227.285 143.119L227.278 143.115ZM162.506 138.345L157.259 134.959C157.665 134.329 158.096 133.699 158.534 133.092L163.596 136.744C163.224 137.269 162.854 137.801 162.504 138.339L162.506 138.345ZM224.996 138.864C224.663 138.319 224.299 137.782 223.931 137.247L229.055 133.677C229.484 134.29 229.9 134.926 230.302 135.559L224.996 138.864ZM165.379 134.458L160.609 130.422C161.099 129.845 161.599 129.284 162.115 128.731L166.651 133.014C166.207 133.484 165.777 133.957 165.364 134.449L165.379 134.458ZM222.19 134.928C221.779 134.423 221.356 133.941 220.92 133.462L225.547 129.254C226.061 129.812 226.553 130.382 227.024 130.965L222.19 134.928ZM168.738 130.979L164.541 126.349C165.099 125.835 165.672 125.355 166.252 124.872L170.197 129.71C169.693 130.121 169.207 130.533 168.728 130.969L168.743 130.977L168.738 130.979ZM218.89 131.394C218.42 130.95 217.936 130.522 217.44 130.098L221.475 125.328C222.053 125.818 222.614 126.318 223.153 126.831L218.881 131.384L218.884 131.395L218.89 131.394ZM172.528 127.967L168.969 122.839C169.582 122.411 170.218 121.995 170.86 121.603L174.148 126.913C173.603 127.247 173.065 127.604 172.543 127.976L172.528 127.967ZM215.157 128.326C214.632 127.955 214.1 127.585 213.562 127.235L216.933 121.98C217.563 122.386 218.192 122.811 218.806 123.253L215.157 128.326ZM176.673 125.482L173.806 119.935C174.478 119.585 175.152 119.26 175.842 118.949L178.414 124.64C177.829 124.897 177.245 125.178 176.677 125.474L176.665 125.478L176.673 125.482ZM211.058 125.758C210.487 125.449 209.91 125.167 209.328 124.887L211.984 119.237C212.665 119.553 213.346 119.894 214.007 120.254L211.043 125.75L211.058 125.758ZM181.098 123.556L178.986 117.681C179.692 117.428 180.409 117.192 181.135 116.966L182.93 122.948C182.312 123.132 181.705 123.331 181.097 123.55L181.098 123.556ZM206.659 123.771C206.055 123.547 205.446 123.331 204.83 123.136L206.73 117.19C207.45 117.42 208.157 117.672 208.859 117.932L206.655 123.779L206.667 123.775L206.659 123.771ZM185.726 122.224L184.401 116.118C185.133 115.959 185.876 115.817 186.62 115.699L187.63 121.855C186.99 121.956 186.354 122.075 185.731 122.217L185.719 122.22L185.726 122.224ZM202.03 122.365C201.409 122.216 200.774 122.089 200.135 121.969L201.229 115.824C201.977 115.951 202.715 116.113 203.436 116.279L202.023 122.361L202.03 122.365ZM190.509 121.518L189.995 115.288C190.746 115.219 191.5 115.187 192.25 115.162L192.446 121.404C191.8 121.419 191.155 121.459 190.509 121.518ZM197.264 121.578C196.666 121.516 196.069 121.48 195.453 121.442L195.319 121.435L195.637 115.202L195.7 115.203C196.482 115.246 197.182 115.292 197.885 115.368L197.269 121.577L197.258 121.58L197.264 121.578Z" fill="#F5CD85"/>
<path d="M191.839 192.626C172.898 191.663 158.302 175.522 159.271 156.578C160.234 137.637 176.375 123.041 195.318 124.01C214.26 124.972 228.856 141.114 227.887 160.057C226.924 178.999 210.783 193.594 191.839 192.626Z" fill="#EE972C"/>
<path d="M159.506 159.732C160.453 141.028 176.85 126.217 195.554 127.163C212.28 128.008 225.902 141.226 227.907 157.397C227.446 139.625 213.363 124.926 195.306 124.014C176.365 123.051 160.216 137.643 159.259 156.583C159.157 158.63 159.243 160.65 159.492 162.619C159.456 161.67 159.46 160.704 159.501 159.734L159.506 159.732Z" fill="#BB8226"/>
<g opacity="0.3">
<path d="M228.815 127.888C245.965 146.874 244.487 176.167 225.501 193.317C206.515 210.467 177.223 208.989 160.072 190.003" fill="#BB8226"/>
</g>
<path d="M205.89 153.599C206.543 153.632 207.1 153.661 207.662 153.688C208.8 153.739 209.872 154.035 210.832 154.653C212.052 155.438 212.775 156.613 213.306 157.936C214.109 159.947 214.482 162.002 213.894 164.139C213.401 165.935 212.298 167.307 210.866 168.448C209.222 169.755 207.324 170.602 205.411 171.416C205.106 171.545 205.093 171.681 205.187 171.951C205.816 173.79 206.429 175.639 207.052 177.479C207.157 177.79 207.09 177.935 206.74 178.038C205.719 178.34 204.712 178.688 203.71 179.035C203.469 179.121 203.342 179.118 203.249 178.828C202.728 177.2 202.169 175.588 201.654 173.958C201.314 172.891 201.338 172.884 200.293 173.212C199.753 173.38 199.222 173.584 198.683 173.733C198.355 173.824 198.3 173.966 198.403 174.271C198.848 175.58 199.273 176.888 199.706 178.201C199.874 178.716 200.034 179.227 200.212 179.732C200.309 180.015 200.237 180.186 199.951 180.272C198.914 180.603 197.876 180.935 196.834 181.273C196.58 181.357 196.473 181.291 196.385 181.019C195.928 179.594 195.435 178.178 194.959 176.758C194.84 176.394 194.739 176.03 194.607 175.669C194.406 175.101 194.352 175.065 193.777 175.243C192.859 175.529 191.952 175.831 191.041 176.14C189.718 176.582 188.396 177.024 187.082 177.476C186.788 177.576 186.649 177.482 186.611 177.209C186.398 175.848 186.196 174.478 185.989 173.116C185.948 172.831 186.101 172.725 186.344 172.645C187.165 172.374 187.998 172.124 188.804 171.8C189.634 171.469 189.9 170.929 189.654 170.063C189.382 169.079 189.043 168.106 188.724 167.135C188.107 165.274 187.481 163.422 186.859 161.563C186.091 159.245 185.321 156.922 184.552 154.599C184.44 154.264 184.345 153.918 184.245 153.58C183.859 152.255 182.871 151.651 181.527 151.992C180.649 152.216 179.791 152.511 178.934 152.811C178.657 152.906 178.527 152.892 178.436 152.608C178.05 151.466 177.651 150.321 177.26 149.18C177.183 148.949 177.249 148.823 177.498 148.742C179.838 147.987 182.168 147.221 184.51 146.472C184.758 146.391 184.839 146.293 184.749 146.015C184.126 144.175 183.525 142.322 182.901 140.482C182.796 140.17 182.847 140.011 183.189 139.904C184.195 139.594 185.188 139.262 186.184 138.917C186.512 138.801 186.645 138.941 186.735 139.219C187.246 140.768 187.755 142.311 188.266 143.861C188.344 144.098 188.423 144.335 188.495 144.573C188.571 144.824 188.73 144.899 188.979 144.818C189.763 144.55 190.547 144.283 191.333 144.021C191.611 143.932 191.595 143.74 191.52 143.515C191.136 142.353 190.758 141.196 190.374 140.034C190.169 139.41 189.959 138.786 189.738 138.172C189.646 137.908 189.7 137.76 189.976 137.665C191.063 137.307 192.138 136.927 193.228 136.581C193.31 136.559 193.511 136.692 193.545 136.79C194.165 138.619 194.774 140.456 195.359 142.294C195.465 142.631 195.614 142.735 195.952 142.66C197.406 142.327 198.882 142.145 200.37 142.187C201.991 142.23 203.574 142.48 204.913 143.51C205.73 144.135 206.326 144.942 206.767 145.873C207.488 147.409 207.901 148.991 207.475 150.687C207.228 151.664 206.817 152.572 206.062 153.286C206.002 153.341 205.97 153.432 205.871 153.598L205.89 153.599ZM203.557 166.567C204.147 166.031 204.779 165.534 205.317 164.95C205.913 164.299 206.309 163.52 206.242 162.593C206.16 161.385 205.782 160.341 204.696 159.652C203.402 158.83 201.981 158.801 200.543 159.01C198.625 159.282 196.768 159.822 194.962 160.524C194.033 160.882 194.036 160.869 194.358 161.827C195.116 164.109 195.868 166.393 196.621 168.677C196.807 169.237 196.796 169.24 197.36 169.046C197.971 168.839 198.586 168.643 199.19 168.432C200.678 167.906 202.15 167.341 203.56 166.578L203.557 166.567ZM197.982 155.025C198.593 154.496 199.092 154.112 199.538 153.673C201.393 151.828 200.404 149.257 198.963 148.381C197.992 147.792 196.914 147.681 195.801 147.831C194.044 148.072 192.377 148.615 190.723 149.225C190.276 149.386 190.257 149.41 190.412 149.879C191.144 152.111 191.881 154.342 192.607 156.577C192.702 156.872 192.846 156.959 193.128 156.861C193.612 156.696 194.103 156.554 194.582 156.37C195.767 155.91 196.948 155.438 197.988 155.023L197.982 155.025Z" fill="white"/>
</g>
</g>
<defs>
<filter id="filter0_d_2306_5174" x="137.56" y="102.304" width="118.272" height="112.657" filterUnits="userSpaceOnUse" color-interpolation-filters="sRGB">
<feFlood flood-opacity="0" result="BackgroundImageFix"/>
<feColorMatrix in="SourceAlpha" type="matrix" values="0 0 0 0 0 0 0 0 0 0 0 0 0 0 0 0 0 0 127 0" result="hardAlpha"/>
<feOffset/>
<feGaussianBlur stdDeviation="4.846"/>
<feColorMatrix type="matrix" values="0 0 0 0 1 0 0 0 0 0.709804 0 0 0 0 0.0627451 0 0 0 0.75 0"/>
<feBlend mode="normal" in2="BackgroundImageFix" result="effect1_dropShadow_2306_5174"/>
<feBlend mode="normal" in="SourceGraphic" in2="effect1_dropShadow_2306_5174" result="shape"/>
</filter>
<clipPath id="clip0_2306_5174">
<path d="M0 10C0 4.47715 4.47715 0 10 0H410V306H9.99999C4.47714 306 0 301.523 0 296V10Z" fill="white"/>
</clipPath>
</defs>
</svg>
