<svg width="4096" height="993" viewBox="0 0 4096 993" fill="none" xmlns="http://www.w3.org/2000/svg">
<path d="M1231.57 274.482C1392.66 274.482 1473.2 336.82 1473.2 461.407C1473.2 519.127 1453.57 565.836 1414.41 601.356C1375.16 636.965 1314.24 654.725 1231.57 654.725H1107.52V860.83H988.969V274.482H1231.57ZM1107.52 372.962V555.357H1231.57C1269.84 555.357 1299.95 547.276 1321.88 531.204C1343.73 515.131 1354.74 491.865 1354.74 461.407C1354.74 402.443 1313.71 372.962 1231.66 372.962H1107.61H1107.52Z" fill="white"/>
<path d="M1637.39 677.549C1637.39 679.947 1637.66 683.322 1638.28 687.584C1638.9 691.846 1641.48 699.128 1646 709.429C1650.53 719.819 1657.1 728.876 1665.63 736.78C1674.15 744.683 1687.83 751.964 1706.65 758.624C1725.48 765.284 1747.68 768.659 1773.25 768.659C1815.17 768.659 1846.51 762.087 1867.21 749.034C1887.9 735.98 1898.2 719.108 1898.2 698.418C1898.2 681.368 1891.54 666.983 1878.13 655.083C1864.72 643.273 1847.14 633.683 1825.2 626.312C1803.36 619.03 1779.29 612.193 1753.19 605.799C1727.08 599.406 1700.88 592.301 1674.78 584.398C1648.67 576.495 1624.6 567.082 1602.76 556.16C1580.91 545.237 1563.06 529.875 1549.39 510.072C1535.71 490.359 1528.52 467.359 1527.99 441.252V438.499C1527.99 384.42 1549.39 341.973 1592.28 311.248C1635.17 280.524 1693.33 265.161 1766.95 265.161C1810.73 265.161 1848.82 270.756 1881.41 282.033C1913.91 293.311 1937.8 307.075 1952.99 323.503C1968.17 339.931 1980.16 356.181 1989.04 372.343C1997.83 388.416 2002.89 402.269 2004.05 413.813L2005.91 430.241H1880.08C1880.08 428.376 1879.64 426.156 1878.75 423.403C1877.86 420.65 1875.11 415.677 1870.58 408.307C1866.05 401.025 1860.1 394.455 1852.82 388.683C1845.54 382.911 1834.44 377.76 1819.52 373.143C1804.6 368.614 1787.46 366.305 1768.02 366.305C1730.9 366.305 1702.21 372.699 1681.79 385.486C1661.46 398.273 1651.24 414.079 1651.24 432.905V436.546C1652.49 450.576 1660.03 462.386 1674.06 472.154C1688.01 481.922 1706.12 489.648 1728.32 495.42C1750.52 501.192 1774.68 506.787 1800.87 512.292C1826.98 517.798 1853.17 524.724 1879.28 533.249C1905.39 541.774 1929.28 552.253 1950.86 564.685C1972.43 577.117 1989.93 594.61 2003.34 617.165C2016.66 639.632 2023.4 666.361 2023.4 697.441C2023.4 752.142 2001.56 794.588 1957.78 824.692C1914 854.795 1852.55 869.802 1773.52 869.802C1740.04 869.802 1709.5 866.25 1681.88 859.324C1654.17 852.309 1631.53 843.251 1613.95 831.973C1596.28 820.696 1580.82 808.263 1567.42 794.588C1554.01 780.913 1543.97 767.06 1537.31 753.119C1530.65 739.177 1525.15 726.567 1520.88 715.29C1516.62 704.012 1514.22 694.777 1513.6 687.495L1511.74 677.461H1637.57L1637.39 677.549Z" fill="white"/>
<path d="M2021.36 274.482H2530.27V372.962H2335.09V860.83H2216.54V372.962H2021.36V274.482Z" fill="white"/>
<path d="M2426.2 860.918L2674.22 274.569H2806.44L3053.58 860.918H2926.77L2886.63 761.55H2593.86L2553.72 860.918H2426.02H2426.2ZM2846.58 662.094L2740.82 397.647L2634.08 662.094H2846.58Z" fill="white"/>
<path d="M3091.05 860.918V274.569H3209.6V535.376L3437.55 274.569H3583.45L3355.5 525.342L3605.38 860.918H3461.26L3277 611.922L3209.51 685.803V860.918H3090.96H3091.05Z" fill="white"/>
<path d="M3646.4 274.482H4086.85V372.962H3764.95V517.973H4043.07V617.34H3764.95V762.35H4096V860.83H3646.4V274.482Z" fill="white"/>
<path d="M430.949 992.347C198.292 994.123 2.6654 802.581 3.4646 563.442C4.3526 330.075 196.072 139.421 431.215 139.865C664.849 140.309 853.816 329.809 855.947 562.11C858.078 802.137 662.273 993.146 430.949 992.347ZM428.995 251.576C256.634 252.197 115.53 392.413 115.353 565.484C115.175 738.823 256.012 880.548 428.907 880.814C602.422 881.081 743.437 740.421 744.325 567.261C745.302 389.749 599.669 251.309 428.995 251.576Z" fill="white"/>
<path d="M518.505 566.819C517.972 616.192 478.012 655.442 428.728 654.909C379 654.376 340.194 614.15 340.905 564.066C341.615 515.404 381.664 476.864 431.037 477.308C479.788 477.752 518.949 517.89 518.416 566.819H518.505Z" fill="white"/>
<path d="M0.000244141 104.518L859.409 104.518V-0.000205994L0.000244141 -0.000205994V104.518Z" fill="#FF6700"/>
</svg>
