<svg width="107" height="26" viewBox="0 0 107 26" fill="none" xmlns="http://www.w3.org/2000/svg">
<g clip-path="url(#clip0_106_14)">
<path d="M40.2674 10.5689C40.2674 11.455 40.0592 12.2649 39.6429 12.9987C39.2404 13.7186 38.6229 14.3001 37.7902 14.7431C36.9714 15.1723 35.9652 15.387 34.7717 15.387H32.7525V20.3296H28.6724V5.68848H34.7717C35.9513 5.68848 36.9506 5.89615 37.7694 6.31151C38.6021 6.72688 39.2266 7.30142 39.6429 8.0352C40.0592 8.76899 40.2674 9.61354 40.2674 10.5689ZM34.3762 12.1472C35.5281 12.1472 36.104 11.6211 36.104 10.5689C36.104 9.50278 35.5281 8.96978 34.3762 8.96978H32.7525V12.1472H34.3762Z" fill="white"/>
<path d="M47.4437 20.475C45.7367 20.475 44.335 20.0735 43.2386 19.2704C42.1423 18.4536 41.5525 17.2906 41.4692 15.7815H45.82C45.8616 16.2938 46.0143 16.6676 46.278 16.903C46.5416 17.1383 46.8817 17.256 47.298 17.256C47.6727 17.256 47.978 17.166 48.214 16.986C48.4637 16.7922 48.5886 16.5291 48.5886 16.1969C48.5886 15.7677 48.3874 15.4353 47.985 15.2C47.5825 14.9646 46.9302 14.7015 46.0281 14.4108C45.0705 14.0924 44.2934 13.7878 43.6966 13.497C43.1138 13.1924 42.6003 12.7563 42.1562 12.1887C41.726 11.6072 41.5109 10.8526 41.5109 9.92501C41.5109 8.98355 41.7468 8.18054 42.2186 7.51598C42.6905 6.83757 43.3428 6.32528 44.1755 5.97915C45.0081 5.63302 45.9518 5.45996 47.0066 5.45996C48.7136 5.45996 50.0736 5.86147 51.0867 6.66448C52.1137 7.45364 52.6619 8.5682 52.7312 10.0081H48.2972C48.2834 9.56504 48.1446 9.23276 47.8809 9.01124C47.6311 8.78972 47.3049 8.67896 46.9025 8.67896C46.5972 8.67896 46.3474 8.76892 46.1531 8.9489C45.9587 9.12889 45.8616 9.38505 45.8616 9.71733C45.8616 9.99423 45.9657 10.2365 46.1738 10.4442C46.3959 10.6381 46.6666 10.8111 46.9857 10.9634C47.3049 11.1018 47.7768 11.2818 48.4013 11.5033C49.3311 11.8218 50.0944 12.1402 50.6912 12.4586C51.3018 12.7632 51.8222 13.1994 52.2525 13.767C52.6966 14.3208 52.9186 15.0269 52.9186 15.8853C52.9186 16.7575 52.6966 17.5398 52.2525 18.2321C51.8222 18.9243 51.1908 19.4712 50.3581 19.8727C49.5393 20.2742 48.5679 20.475 47.4437 20.475Z" fill="white"/>
<path d="M65.8696 5.68848V8.92824H61.956V20.3296H57.8758V8.92824H54.0039V5.68848H65.8696Z" fill="white"/>
<path d="M76.6635 17.9414H71.4594L70.6683 20.3296H66.3799L71.7299 5.68848H76.4347L81.7639 20.3296H77.4546L76.6635 17.9414ZM75.6437 14.8262L74.0615 10.0912L72.5001 14.8262H75.6437Z" fill="white"/>
<path d="M91.7743 20.3296L87.1737 13.9124V20.3296H83.0938V5.68848H87.1737V12.0018L91.7326 5.68848H96.4375L91.0458 12.791L96.7079 20.3296H91.7743Z" fill="white"/>
<path d="M102.278 8.94898V11.3373H106.962V14.4317H102.278V17.0692H107.586V20.3296H98.1982V5.68848H107.586V8.94898H102.278Z" fill="white"/>
<path d="M13.0329 26C20.2308 26 26.0658 20.1797 26.0658 13C26.0658 5.8203 20.2308 0 13.0329 0C5.83502 0 0 5.8203 0 13C0 20.1797 5.83502 26 13.0329 26Z" fill="white"/>
<path d="M18.7024 4.02979H7.36377V6.23978H18.7024V4.02979Z" fill="#E50913"/>
<path d="M13.1851 22.035C12.1311 22.035 11.1866 21.861 10.3516 21.5129C9.51656 21.1649 8.84582 20.6497 8.33936 19.9676C7.84652 19.2854 7.58645 18.464 7.55908 17.5034H11.2961C11.3508 18.0464 11.5356 18.464 11.8505 18.7564C12.1653 19.0348 12.576 19.174 13.0824 19.174C13.6026 19.174 14.0133 19.0557 14.3144 18.819C14.6155 18.5684 14.7661 18.2273 14.7661 17.7957C14.7661 17.4337 14.643 17.1344 14.3965 16.8977C14.1638 16.6611 13.8695 16.4661 13.5136 16.313C13.1714 16.1599 12.6787 15.9859 12.0353 15.7909C11.1044 15.4986 10.3447 15.2063 9.7561 14.9139C9.16747 14.6215 8.66101 14.1899 8.23666 13.6191C7.81231 13.0483 7.60014 12.3035 7.60014 11.3846C7.60014 10.0202 8.08607 8.9552 9.05799 8.1895C10.0299 7.40982 11.2961 7.02002 12.8566 7.02002C14.4445 7.02002 15.7244 7.40982 16.6962 8.1895C17.6681 8.9552 18.1883 10.0272 18.2567 11.4055H14.4582C14.4308 10.9321 14.2597 10.5632 13.9448 10.2987C13.63 10.0202 13.2262 9.881 12.7334 9.881C12.309 9.881 11.9668 9.99936 11.7067 10.236C11.4467 10.4588 11.3166 10.7859 11.3166 11.2175C11.3166 11.6909 11.5356 12.0598 11.9736 12.3243C12.4117 12.5889 13.0961 12.8742 14.027 13.1805C14.9578 13.5008 15.7106 13.8071 16.2856 14.0994C16.8742 14.3918 17.3807 14.8164 17.805 15.3733C18.2294 15.9302 18.4415 16.6472 18.4415 17.5243C18.4415 18.3596 18.2294 19.1183 17.805 19.8005C17.3943 20.4827 16.792 21.0257 15.9981 21.4294C15.2042 21.8331 14.2665 22.035 13.1851 22.035Z" fill="black"/>
</g>
<defs>
<clipPath id="clip0_106_14">
<rect width="107" height="26" fill="white"/>
</clipPath>
</defs>
</svg>
