<svg width="36" height="36" viewBox="0 0 36 36" fill="none" xmlns="http://www.w3.org/2000/svg">
<g clip-path="url(#clip0_1591_5123)">
<path d="M18.024 -0.00585938C8.07455 -0.00585938 0.0240479 8.04464 0.0240479 17.9941C0.0240479 27.9436 8.07455 35.9941 18.024 35.9941C27.9735 35.9941 36.024 27.9436 36.024 17.9941C36.024 8.04464 27.9735 -0.00585938 18.024 -0.00585938ZM4.63505 14.3761C5.72105 14.3761 6.67055 14.9176 7.21355 15.7771C7.75655 14.9626 8.75105 14.3761 9.79205 14.3761C11.5095 14.3761 12.912 15.7771 12.912 17.4961V21.5671H11.871V17.5411C11.871 16.4101 10.968 15.5056 9.79205 15.5056C8.66105 15.5056 7.75505 16.4101 7.71005 17.5411V21.5221H6.71555V17.5411C6.71555 16.4101 5.81105 15.4606 4.63505 15.4606C3.50555 15.4606 2.60105 16.3651 2.55605 17.4961V21.4756H1.51505V17.4961C1.51505 15.7771 2.91755 14.3761 4.63505 14.3761ZM18.0225 14.4211C18.5042 14.4188 18.9816 14.5119 19.4271 14.6951C19.8726 14.8784 20.2774 15.1481 20.618 15.4887C20.9586 15.8293 21.2283 16.2341 21.4116 16.6796C21.5948 17.125 21.6879 17.6024 21.6855 18.0841C21.6879 18.5658 21.5948 19.0432 21.4116 19.4887C21.2283 19.9342 20.9586 20.339 20.618 20.6796C20.2774 21.0202 19.8726 21.2899 19.4271 21.4732C18.9816 21.6564 18.5042 21.7495 18.0225 21.7471C17.5408 21.7495 17.0635 21.6564 16.618 21.4732C16.1725 21.2899 15.7677 21.0202 15.4271 20.6796C15.0865 20.339 14.8168 19.9342 14.6335 19.4887C14.4503 19.0432 14.3572 18.5658 14.3595 18.0841C14.3572 17.6024 14.4503 17.125 14.6335 16.6796C14.8168 16.2341 15.0865 15.8293 15.4271 15.4887C15.7677 15.1481 16.1725 14.8784 16.618 14.6951C17.0635 14.5119 17.5408 14.4188 18.0225 14.4211ZM26.208 14.4211H26.298V15.5056H26.208C25.077 15.5056 24.1725 16.4101 24.1725 17.5411V21.5221H23.0865V17.5411C23.0865 15.8221 24.4905 14.4661 26.208 14.4211ZM30.8655 14.4211C31.3472 14.4188 31.8246 14.5119 32.2701 14.6951C32.7156 14.8784 33.1204 15.1481 33.461 15.4887C33.8016 15.8293 34.0713 16.2341 34.2546 16.6796C34.4378 17.125 34.5309 17.6024 34.5285 18.0841V18.3091H28.29C28.38 19.6666 29.511 20.7076 30.867 20.7076C31.863 20.7076 32.7675 20.1196 33.174 19.2601L34.1235 19.7581C33.8163 20.3569 33.3499 20.8593 32.7757 21.2102C32.2014 21.5611 31.5415 21.7469 30.8685 21.7471C30.3867 21.7497 29.9092 21.6568 29.4635 21.4736C29.0178 21.2905 28.6129 21.0208 28.2721 20.6801C27.9314 20.3395 27.6615 19.9347 27.4782 19.4891C27.2948 19.0435 27.2017 18.566 27.204 18.0841C27.2017 17.6024 27.2948 17.125 27.478 16.6796C27.6613 16.2341 27.931 15.8293 28.2716 15.4887C28.6122 15.1481 29.017 14.8784 29.4625 14.6951C29.908 14.5119 30.3838 14.4188 30.8655 14.4211ZM30.867 15.5056C29.691 15.5056 28.74 16.2751 28.3785 17.3146H33.309C33.1458 16.7932 32.8212 16.3371 32.3821 16.012C31.9429 15.6869 31.4134 15.5096 30.867 15.5056Z" fill="#D5D5D5"/>
</g>
<defs>
<clipPath id="clip0_1591_5123">
<rect width="36" height="36" fill="white"/>
</clipPath>
</defs>
</svg>
