<svg width="594" height="241" viewBox="0 0 594 241" fill="none" xmlns="http://www.w3.org/2000/svg">
<g clip-path="url(#clip0_2165_2649)">
<path d="M0 16.1172C0 7.28063 7.16344 0.117188 16 0.117188H578C586.837 0.117188 594 7.28063 594 16.1172V240.117H0V16.1172Z" fill="#141414"/>
<path d="M594 0H0V240H594V0Z" fill="#212121"/>
<path d="M479.798 204.643L439.784 187.918H176.444L139.342 204.643" fill="#3D3D3D"/>
<path d="M139.342 204.641V277.391H479.798V204.641" fill="#2D2D2D"/>
<path d="M202.978 22.0039L247.597 51.0435L288.455 55.7833L307.489 54.5999L342 106.94L328.315 136.176L291.231 79.8808L273.976 115.236L288.849 135.189L315.621 156.324L322.165 167.19L322.565 182.004L299.757 169.557L221.422 110.895L205.755 85.0192L177 71.7809L202.978 22.0039Z" fill="#E2E2E2" stroke="#2D2D2D" stroke-width="1.50702" stroke-miterlimit="10"/>
<path d="M36.0418 -117.996L175 -3.90172L143.397 64.0039L0 1.85278V-117.996H36.0418Z" fill="#282828"/>
<path d="M171.964 -1.99609L209 20.0329L178.82 80.0039L141 63.0961L171.964 -1.99609Z" fill="#3C3C3C"/>
<path d="M307.068 264.016C345.24 264.016 376.184 233.072 376.184 194.901C376.184 156.729 345.24 125.785 307.068 125.785C268.897 125.785 237.953 156.729 237.953 194.901C237.953 233.072 268.897 264.016 307.068 264.016Z" fill="#EF9F00"/>
<path opacity="0.4" d="M307.068 250.335C337.684 250.335 362.503 225.516 362.503 194.9C362.503 164.284 337.684 139.465 307.068 139.465C276.453 139.465 251.634 164.284 251.634 194.9C251.634 225.516 276.453 250.335 307.068 250.335Z" fill="#BB7826"/>
<g style="mix-blend-mode:soft-light" opacity="0.5">
<path d="M255.767 197.995C255.767 167.379 280.586 142.56 311.202 142.56C322.663 142.56 333.317 146.043 342.152 152.001C332.594 144.173 320.387 139.461 307.068 139.461C276.452 139.461 251.634 164.28 251.634 194.896C251.634 212.232 259.595 227.704 272.063 237.868C266.533 232.244 262.193 225.44 259.456 217.873C257.08 211.698 255.767 204.999 255.767 197.989V197.995Z" fill="black"/>
</g>
<g filter="url(#filter0_d_2165_2649)">
<path d="M323.647 195.541C325.672 194.845 327.419 193.999 328.882 193.004C330.345 192.008 331.558 190.895 332.51 189.671C333.461 188.447 334.162 187.134 334.618 185.726C335.069 184.319 335.297 182.85 335.297 181.309C335.297 178.616 334.841 176.202 333.934 174.054C333.027 171.907 331.603 170.082 329.65 168.569C327.703 167.055 325.099 165.893 322.056 165.08C320.264 164.596 318.64 164.262 315.903 164.068V153.992H310.428V164.029H301.304V153.992H294.917V164.029H281.231V169.186C281.231 170.755 282.215 171.701 283.729 172.024C283.862 172.046 284.163 172.079 284.413 172.124C284.658 172.168 285.153 172.246 285.809 172.368C286.46 172.485 287.623 172.641 288.536 172.841V220.421C287.623 220.621 286.522 220.777 285.871 220.899C285.214 221.016 284.775 221.099 284.524 221.144C284.279 221.188 283.862 221.222 283.729 221.25C282.215 221.572 281.236 222.518 281.236 224.087V229.734H294.923V237.946H301.309V229.734H310.434V237.946H315.908V229.322C318.645 229.139 321.143 228.688 323.352 227.965C326.312 226.997 328.86 225.661 330.885 223.953C332.91 222.245 334.479 220.215 335.536 217.856C336.593 215.497 337.138 212.932 337.138 210.15C337.138 202.445 332.649 197.577 323.641 195.552L323.647 195.541ZM323.146 182.756C323.146 186.049 322.073 188.492 319.925 190.005C317.777 191.518 314.634 192.308 310.495 192.308H300.391V173.147H311.174C315.285 173.147 318.306 173.937 320.242 175.389C322.178 176.842 323.146 179.34 323.146 182.756ZM324.481 213.717C324.075 214.924 323.408 215.981 322.49 216.888C321.566 217.795 320.342 218.418 318.818 218.963C317.288 219.508 315.396 219.681 313.126 219.681H300.391V200.52H313.082C315.224 200.52 317.054 200.804 318.568 201.226C320.075 201.649 321.316 202.295 322.284 203.096C323.252 203.897 323.964 204.882 324.415 206.017C324.871 207.152 325.094 208.437 325.099 209.855C325.099 211.213 324.893 212.509 324.487 213.717H324.481Z" fill="#E2E2E2"/>
</g>
<path d="M283 89.3566L304.416 120.246L311.157 152.717L319.486 175.739L330 184.004L327.021 115.524L300.052 62.0039" fill="#E2E2E2"/>
<path d="M283 89.3566L304.416 120.246L311.157 152.717L319.486 175.739L330 184.004L327.021 115.524L300.052 62.0039" stroke="#2D2D2D" stroke-width="1.50702" stroke-miterlimit="10"/>
<rect x="207.838" y="194.699" width="210.23" height="9.79565" fill="#262626"/>
<rect x="207.838" y="204.492" width="210.23" height="73.0906" fill="#2D2D2D"/>
</g>
<defs>
<filter id="filter0_d_2165_2649" x="280.674" y="153.436" width="58.1331" height="86.1785" filterUnits="userSpaceOnUse" color-interpolation-filters="sRGB">
<feFlood flood-opacity="0" result="BackgroundImageFix"/>
<feColorMatrix in="SourceAlpha" type="matrix" values="0 0 0 0 0 0 0 0 0 0 0 0 0 0 0 0 0 0 127 0" result="hardAlpha"/>
<feOffset dx="0.556352" dy="0.556352"/>
<feGaussianBlur stdDeviation="0.556352"/>
<feColorMatrix type="matrix" values="0 0 0 0 0.517647 0 0 0 0 0.337255 0 0 0 0 0.027451 0 0 0 1 0"/>
<feBlend mode="normal" in2="BackgroundImageFix" result="effect1_dropShadow_2165_2649"/>
<feBlend mode="normal" in="SourceGraphic" in2="effect1_dropShadow_2165_2649" result="shape"/>
</filter>
<clipPath id="clip0_2165_2649">
<path d="M0 16.1172C0 7.28063 7.16344 0.117188 16 0.117188H578C586.837 0.117188 594 7.28063 594 16.1172V240.117H0V16.1172Z" fill="white"/>
</clipPath>
</defs>
</svg>
