<svg width="594" height="241" viewBox="0 0 594 241" fill="none" xmlns="http://www.w3.org/2000/svg">
<g clip-path="url(#clip0_1931_8014)">
<path d="M0 16.1152C0 7.27868 7.16344 0.115234 16 0.115234H578C586.837 0.115234 594 7.27868 594 16.1152V240.115H0V16.1152Z" fill="#141414"/>
<path d="M641.86 -194.873H-49.8633V358.958H641.86V-194.873Z" fill="#212121"/>
<path d="M479.798 204.638L439.784 187.912H176.444L139.342 204.638" fill="#262626"/>
<path d="M139.342 204.637V277.387H479.798V204.637" fill="#2D2D2D"/>
<path d="M202.978 22L247.597 51.0396L288.455 55.7794L307.489 54.596L342 106.936L328.315 136.172L291.231 79.8769L273.976 115.232L288.849 135.185L315.621 156.321L322.165 167.186L322.565 182L299.757 169.553L221.422 110.891L205.755 85.0153L177 71.777L202.978 22Z" fill="#E2E2E2" stroke="#2D2D2D" stroke-width="1.50702" stroke-miterlimit="10"/>
<path d="M36.0418 -118L175 -3.90562L143.397 64L0 1.84888V-118H36.0418Z" fill="#262626"/>
<path d="M171.964 -2L209 20.029L178.82 80L141 63.0922L171.964 -2Z" fill="#262626"/>
<path d="M307.068 264.014C345.239 264.014 376.183 233.07 376.183 194.899C376.183 156.727 345.239 125.783 307.068 125.783C268.896 125.783 237.952 156.727 237.952 194.899C237.952 233.07 268.896 264.014 307.068 264.014Z" fill="url(#paint0_linear_1931_8014)"/>
<g style="mix-blend-mode:soft-light" opacity="0.5">
<path d="M307.068 250.335C337.683 250.335 362.503 225.516 362.503 194.9C362.503 164.284 337.683 139.465 307.068 139.465C276.452 139.465 251.633 164.284 251.633 194.9C251.633 225.516 276.452 250.335 307.068 250.335Z" fill="black"/>
</g>
<g style="mix-blend-mode:soft-light" opacity="0.5">
<path d="M255.766 197.993C255.766 167.377 280.585 142.558 311.201 142.558C322.662 142.558 333.316 146.041 342.151 151.999C332.593 144.171 320.387 139.459 307.068 139.459C276.452 139.459 251.633 164.278 251.633 194.894C251.633 212.23 259.594 227.702 272.062 237.866C266.532 232.242 262.192 225.438 259.455 217.871C257.08 211.696 255.766 204.997 255.766 197.987V197.993Z" fill="black"/>
</g>
<g filter="url(#filter0_d_1931_8014)">
<path d="M323.647 195.539C325.672 194.843 327.419 193.997 328.882 193.002C330.345 192.006 331.558 190.893 332.509 189.669C333.461 188.445 334.162 187.132 334.618 185.725C335.069 184.317 335.297 182.848 335.297 181.307C335.297 178.614 334.841 176.2 333.934 174.052C333.027 171.905 331.603 170.08 329.65 168.567C327.703 167.053 325.099 165.891 322.055 165.078C320.264 164.594 318.64 164.26 315.902 164.066V153.99H310.428V164.027H301.304V153.99H294.917V164.027H281.23V169.184C281.23 170.753 282.215 171.699 283.728 172.022C283.862 172.044 284.162 172.077 284.413 172.122C284.658 172.166 285.153 172.244 285.809 172.367C286.46 172.483 287.623 172.639 288.535 172.839V220.419C287.623 220.619 286.521 220.775 285.87 220.897C285.214 221.014 284.774 221.097 284.524 221.142C284.279 221.186 283.862 221.22 283.728 221.248C282.215 221.57 281.236 222.516 281.236 224.085V229.732H294.922V237.944H301.309V229.732H310.433V237.944H315.908V229.32C318.645 229.137 321.143 228.686 323.352 227.963C326.312 226.995 328.86 225.659 330.885 223.951C332.91 222.243 334.479 220.213 335.536 217.854C336.593 215.495 337.138 212.93 337.138 210.148C337.138 202.443 332.648 197.575 323.641 195.55L323.647 195.539ZM323.146 182.754C323.146 186.047 322.072 188.49 319.925 190.003C317.777 191.516 314.634 192.306 310.495 192.306H300.391V173.145H311.173C315.285 173.145 318.306 173.935 320.242 175.388C322.178 176.84 323.146 179.338 323.146 182.754ZM324.481 213.715C324.075 214.922 323.407 215.979 322.489 216.886C321.566 217.793 320.342 218.416 318.818 218.961C317.288 219.506 315.396 219.679 313.126 219.679H300.391V200.518H313.082C315.224 200.518 317.054 200.802 318.567 201.224C320.075 201.647 321.316 202.293 322.284 203.094C323.252 203.895 323.964 204.88 324.415 206.015C324.871 207.15 325.093 208.435 325.099 209.854C325.099 211.211 324.893 212.507 324.487 213.715H324.481Z" fill="#E2E2E2"/>
</g>
<path d="M283 89.3527L304.416 120.242L311.157 152.714L319.486 175.736L330 184L327.021 115.52L300.052 62" fill="#E2E2E2"/>
<path d="M283 89.3527L304.416 120.242L311.157 152.714L319.486 175.736L330 184L327.021 115.52L300.052 62" stroke="#2D2D2D" stroke-width="1.50702" stroke-miterlimit="10"/>
<rect x="207.838" y="194.693" width="210.23" height="9.79565" fill="#262626"/>
<rect x="207.838" y="204.488" width="210.23" height="73.0906" fill="#2D2D2D"/>
</g>
<defs>
<filter id="filter0_d_1931_8014" x="280.674" y="153.434" width="58.1336" height="86.1785" filterUnits="userSpaceOnUse" color-interpolation-filters="sRGB">
<feFlood flood-opacity="0" result="BackgroundImageFix"/>
<feColorMatrix in="SourceAlpha" type="matrix" values="0 0 0 0 0 0 0 0 0 0 0 0 0 0 0 0 0 0 127 0" result="hardAlpha"/>
<feOffset dx="0.556352" dy="0.556352"/>
<feGaussianBlur stdDeviation="0.556352"/>
<feColorMatrix type="matrix" values="0 0 0 0 0 0 0 0 0 0 0 0 0 0 0 0 0 0 1 0"/>
<feBlend mode="normal" in2="BackgroundImageFix" result="effect1_dropShadow_1931_8014"/>
<feBlend mode="normal" in="SourceGraphic" in2="effect1_dropShadow_1931_8014" result="shape"/>
</filter>
<linearGradient id="paint0_linear_1931_8014" x1="237.952" y1="194.899" x2="376.183" y2="194.899" gradientUnits="userSpaceOnUse">
<stop offset="0.03" stop-color="#FFD01F"/>
<stop offset="1" stop-color="#E7A655"/>
</linearGradient>
<clipPath id="clip0_1931_8014">
<path d="M0 16.1152C0 7.27868 7.16344 0.115234 16 0.115234H578C586.837 0.115234 594 7.27868 594 16.1152V240.115H0V16.1152Z" fill="white"/>
</clipPath>
</defs>
</svg>
