<svg width="608" height="204" viewBox="0 0 608 204" fill="none" xmlns="http://www.w3.org/2000/svg">
<path d="M0 8.11523C0 3.69696 3.58172 0.115234 8 0.115234H600C604.418 0.115234 608 3.69696 608 8.11523V203.115H0V8.11523Z" fill="#141414"/>
<g clip-path="url(#clip0_1550_15826)">
<mask id="path-2-inside-1_1550_15826" fill="white">
<path d="M0 8.11523C0 3.69696 3.58172 0.115234 8 0.115234H600C604.418 0.115234 608 3.69696 608 8.11523V203.115H0V8.11523Z"/>
</mask>
<path d="M0 8.11523C0 3.69696 3.58172 0.115234 8 0.115234H600C604.418 0.115234 608 3.69696 608 8.11523V203.115H0V8.11523Z" fill="#141414"/>
<rect width="608" height="203" transform="translate(0.25 0.210938)" fill="#141414"/>
<path d="M8.25001 203.211C3.83173 203.211 0.25 199.629 0.25 195.211V8.21094C0.25 3.79266 3.83172 0.210938 8.25 0.210938H600.25C604.668 0.210938 608.25 3.79266 608.25 8.21094V195.211C608.25 199.629 604.668 203.211 600.25 203.211H8.25001Z" fill="#141414"/>
<path d="M225.765 162.757V221.883H370.825V161.449L225.765 162.757Z" fill="#262626"/>
<path d="M298.295 173.323C338.353 173.323 370.825 168.592 370.825 162.755C370.825 156.919 338.353 152.188 298.295 152.188C258.238 152.188 225.765 156.919 225.765 162.755C225.765 168.592 258.238 173.323 298.295 173.323Z" fill="#191919"/>
<path d="M225.654 41.3994L298.235 17.0801L370.455 41.3994V89.6589C370.455 89.6589 371.055 142.908 314.841 158.935C303.321 162.218 291.121 162.268 279.62 158.875C258.897 152.757 227.833 135.902 225.654 89.6589V41.3994Z" fill="#2D2D2D"/>
<path d="M298.055 141C326.414 141 349.403 117.83 349.403 89.2483C349.403 60.6663 326.414 37.4961 298.055 37.4961C269.696 37.4961 246.707 60.6663 246.707 89.2483C246.707 117.83 269.696 141 298.055 141Z" fill="#F7931A"/>
<path d="M298.055 136.099C323.963 136.099 344.966 115.123 344.966 89.2469C344.966 63.3711 323.963 42.3945 298.055 42.3945C272.146 42.3945 251.144 63.3711 251.144 89.2469C251.144 115.123 272.146 136.099 298.055 136.099Z" fill="#FEFEFE"/>
<path d="M298.055 129.386C320.25 129.386 338.242 111.416 338.242 89.2497C338.242 67.0829 320.25 49.1133 298.055 49.1133C275.861 49.1133 257.868 67.0829 257.868 89.2497C257.868 111.416 275.861 129.386 298.055 129.386Z" fill="#161616"/>
<path d="M310.695 67.0352L284.116 68.6418L284.456 74.2102L311.034 72.6036L310.695 67.0352Z" fill="#E50913"/>
<path d="M300.033 111.424C297.515 111.574 295.227 111.304 293.179 110.606C291.13 109.907 289.452 108.8 288.143 107.263C286.864 105.726 286.124 103.84 285.925 101.585L294.867 101.046C295.077 102.313 295.577 103.271 296.376 103.91C297.165 104.518 298.174 104.788 299.383 104.718C300.592 104.648 301.592 104.309 302.281 103.71C302.97 103.081 303.28 102.253 303.22 101.245C303.17 100.397 302.831 99.7085 302.211 99.1896C301.622 98.6707 300.892 98.2515 300.013 97.9422C299.174 97.6328 297.965 97.2935 296.406 96.9243C294.138 96.3754 292.279 95.7966 290.83 95.1879C289.382 94.5892 288.103 93.6411 287.014 92.3638C285.915 91.0864 285.305 89.36 285.175 87.2045C284.985 84.0012 285.994 81.4266 288.213 79.4906C290.431 77.5147 293.398 76.417 297.135 76.1975C300.932 75.968 304.05 76.6964 306.488 78.3929C308.926 80.0494 310.314 82.4944 310.674 85.7276L301.582 86.2765C301.452 85.1688 300.982 84.3305 300.193 83.7517C299.403 83.143 298.414 82.8736 297.235 82.9434C296.216 83.0033 295.417 83.3326 294.827 83.9214C294.238 84.4802 293.968 85.2686 294.038 86.2865C294.108 87.3941 294.677 88.2324 295.766 88.7912C296.856 89.3501 298.534 89.9189 300.802 90.5077C303.07 91.1264 304.919 91.7351 306.338 92.3438C307.787 92.9426 309.055 93.8707 310.155 95.1181C311.254 96.3655 311.863 98.022 311.983 100.078C312.103 102.133 311.703 103.85 310.784 105.516C309.895 107.183 308.536 108.54 306.687 109.608C304.849 110.676 302.631 111.284 300.043 111.434L300.033 111.424Z" fill="white"/>
<path d="M155.223 91.4961C155.223 91.4961 118.623 101.675 127.755 110.906C127.755 110.906 129.764 121.903 214.364 128" stroke="white" stroke-width="0.9" stroke-miterlimit="10"/>
<path d="M390.249 71.9082C390.249 71.9082 458.373 76.808 459.262 91.3976C459.262 91.3976 459.482 101.018 436.551 107.404" stroke="white" stroke-width="0.9" stroke-miterlimit="10"/>
</g>
<path d="M-1 8.11523C-1 3.14467 3.02944 -0.884766 8 -0.884766H600C604.971 -0.884766 609 3.14467 609 8.11523H607C607 4.24924 603.866 1.11523 600 1.11523H8C4.13401 1.11523 1 4.24924 1 8.11523H-1ZM608 203.115H0H608ZM-1 203.115V8.11523C-1 3.14467 3.02944 -0.884766 8 -0.884766V1.11523C4.13401 1.11523 1 4.24924 1 8.11523V203.115H-1ZM600 -0.884766C604.971 -0.884766 609 3.14467 609 8.11523V203.115H607V8.11523C607 4.24924 603.866 1.11523 600 1.11523V-0.884766Z" fill="#3A3A3A" mask="url(#path-2-inside-1_1550_15826)"/>
<defs>
<clipPath id="clip0_1550_15826">
<path d="M0 8.11523C0 3.69696 3.58172 0.115234 8 0.115234H600C604.418 0.115234 608 3.69696 608 8.11523V203.115H0V8.11523Z" fill="white"/>
</clipPath>
</defs>
</svg>
