<svg width="270" height="271" viewBox="0 0 270 271" fill="none" xmlns="http://www.w3.org/2000/svg">
<g clip-path="url(#clip0_563_4476)">
<path d="M269.924 128.064H0V141.467H269.924V128.064Z" fill="#0A0A0A"/>
<path d="M135 270.091C209.558 270.091 270 212.348 270 141.118C270 69.888 209.558 12.1448 135 12.1448C60.4416 12.1448 0 69.888 0 141.118C0 212.348 60.4416 270.091 135 270.091Z" fill="#0A0A0A"/>
<path d="M135 258.062C209.558 258.062 270 200.318 270 129.088C270 57.8585 209.558 0.115234 135 0.115234C60.4416 0.115234 0 57.8585 0 129.088C0 200.318 60.4416 258.062 135 258.062Z" fill="#262626"/>
<path opacity="0.5" d="M134.962 163.996C202.936 163.996 262.43 129.429 262.43 87.5036C247.29 44.1108 203.131 0.717913 134.962 0.115234C105.415 0.115234 83.9019 7.95006 62.4533 20.0036C37.2197 36.8786 20.1869 55.5617 9.46265 82.0795C9.46265 124.005 66.9885 163.996 134.962 163.996Z" fill="url(#paint0_linear_563_4476)"/>
<path d="M244.694 131.047C245.043 73.132 196.183 25.9123 135.562 25.5787C74.9403 25.2451 25.514 71.9241 25.1648 129.839C24.8156 187.754 73.6758 234.974 134.297 235.307C194.918 235.641 244.345 188.962 244.694 131.047Z" fill="#262626" stroke="#0A0A0A" stroke-width="3.36656" stroke-miterlimit="10"/>
<path d="M135 34.987C163.025 35.0302 189.974 45.2929 210.346 63.6793C230.718 82.0657 242.976 107.189 244.615 133.918C244.729 131.929 244.792 129.928 244.792 127.891C244.948 114.015 242.222 100.248 236.772 87.3855C231.322 74.5232 223.256 62.8211 213.041 52.9566C202.827 43.0921 190.666 35.2609 177.263 29.9163C163.859 24.5717 149.48 21.8198 134.956 21.8198C120.432 21.8198 106.053 24.5717 92.6497 29.9163C79.2465 35.2609 67.0857 43.0921 56.871 52.9566C46.6564 62.8211 38.5907 74.5232 33.1408 87.3855C27.6908 100.248 24.9648 114.015 25.1204 127.891C25.1204 129.904 25.1961 131.905 25.3097 133.918C26.9471 107.175 39.2141 82.0401 59.6029 63.6513C79.9917 45.2624 106.962 35.0089 135 34.987Z" fill="#0A0A0A"/>
<path d="M170.637 72.5889H100.5V87.1742H170.637V72.5889Z" fill="#E50913"/>
<path d="M135.875 184.411C129.247 184.411 123.309 183.378 118.058 181.312C112.808 179.246 108.591 176.188 105.406 172.139C102.308 168.089 100.672 163.213 100.5 157.51H123.997C124.342 160.733 125.504 163.213 127.483 164.948C129.463 166.601 132.045 167.427 135.23 167.427C138.5 167.427 141.082 166.725 142.976 165.32C144.869 163.832 145.816 161.808 145.816 159.246C145.816 157.097 145.041 155.32 143.492 153.915C142.029 152.51 140.179 151.353 137.941 150.444C135.789 149.535 132.69 148.501 128.645 147.345C122.792 145.609 118.015 143.873 114.314 142.138C110.613 140.402 107.429 137.84 104.76 134.452C102.092 131.063 100.758 126.642 100.758 121.187C100.758 113.088 103.814 106.765 109.925 102.22C116.036 97.5915 123.997 95.2776 133.809 95.2776C143.794 95.2776 151.841 97.5915 157.952 102.22C164.063 106.765 167.334 113.129 167.764 121.311H143.879C143.708 118.501 142.632 116.311 140.652 114.741C138.672 113.088 136.133 112.261 133.035 112.261C130.366 112.261 128.215 112.964 126.579 114.369C124.944 115.691 124.126 117.633 124.126 120.195C124.126 123.005 125.504 125.195 128.258 126.766C131.012 128.336 135.316 130.03 141.168 131.849C147.021 133.749 151.755 135.568 155.37 137.303C159.071 139.039 162.256 141.559 164.924 144.865C167.592 148.171 168.926 152.427 168.926 157.634C168.926 162.593 167.592 167.097 164.924 171.146C162.342 175.196 158.555 178.419 153.562 180.816C148.57 183.213 142.675 184.411 135.875 184.411Z" fill="white"/>
</g>
<defs>
<linearGradient id="paint0_linear_563_4476" x1="135.946" y1="0.115234" x2="135.946" y2="163.996" gradientUnits="userSpaceOnUse">
<stop stop-color="white" stop-opacity="0.59"/>
<stop offset="0.9999" stop-color="white" stop-opacity="0"/>
</linearGradient>
<clipPath id="clip0_563_4476">
<rect width="270" height="270" fill="white" transform="translate(0 0.115234)"/>
</clipPath>
</defs>
</svg>
