<svg width="608" height="261" viewBox="0 0 608 261" fill="none" xmlns="http://www.w3.org/2000/svg">
<g clip-path="url(#clip0_773_1117)">
<path d="M-0.689941 261V0H608.7V261H-0.689941Z" fill="#141414"/>
<path d="M195.05 221.09L386.62 221.09C388.393 221.09 389.83 219.653 389.83 217.88V87.14C389.83 85.3671 388.393 83.93 386.62 83.93L195.05 83.93C193.277 83.93 191.84 85.3671 191.84 87.14L191.84 217.88C191.84 219.653 193.277 221.09 195.05 221.09Z" fill="#2D2D2D"/>
<path d="M389.83 103.72L191.84 103.72V87.13C191.84 85.36 193.28 83.92 195.05 83.92L386.63 83.92C388.4 83.92 389.84 85.36 389.84 87.13V103.72H389.83Z" fill="#191919"/>
<path d="M360.36 163.8H238.22C236.629 163.8 235.34 165.089 235.34 166.68V170.95C235.34 172.541 236.629 173.83 238.22 173.83H360.36C361.95 173.83 363.24 172.541 363.24 170.95V166.68C363.24 165.089 361.95 163.8 360.36 163.8Z" fill="white"/>
<path d="M359.7 143.91H221.24C219.682 143.91 218.42 145.172 218.42 146.73V155.45C218.42 157.007 219.682 158.27 221.24 158.27H359.7C361.257 158.27 362.52 157.007 362.52 155.45V146.73C362.52 145.172 361.257 143.91 359.7 143.91Z" fill="#161616"/>
<path d="M227.1 163.8H221.3C219.709 163.8 218.42 165.089 218.42 166.68V170.95C218.42 172.541 219.709 173.83 221.3 173.83H227.1C228.691 173.83 229.98 172.541 229.98 170.95V166.68C229.98 165.089 228.691 163.8 227.1 163.8Z" fill="white"/>
<path d="M457.86 65.1699H341.91C337.734 65.1699 334.35 68.5547 334.35 72.7299V179.04C334.35 183.215 337.734 186.6 341.91 186.6H457.86C462.035 186.6 465.42 183.215 465.42 179.04V72.7299C465.42 68.5547 462.035 65.1699 457.86 65.1699Z" fill="#262626"/>
<path d="M341.909 65.1699H457.869C462.039 65.1699 465.429 68.5599 465.429 72.7299V81.4499H334.359V72.7299C334.359 68.5599 337.749 65.1699 341.919 65.1699H341.909Z" fill="#191919"/>
<path d="M432.189 73.8599C432.189 75.9199 430.519 77.5899 428.459 77.5899C426.399 77.5899 424.729 75.9199 424.729 73.8599C424.729 71.7999 426.399 70.1299 428.459 70.1299C430.519 70.1299 432.189 71.7999 432.189 73.8599Z" fill="#D8D8D8"/>
<path d="M445.009 73.8599C445.009 75.9199 443.339 77.5899 441.279 77.5899C439.219 77.5899 437.549 75.9199 437.549 73.8599C437.549 71.7999 439.219 70.1299 441.279 70.1299C443.339 70.1299 445.009 71.7999 445.009 73.8599Z" fill="#D8D8D8"/>
<path d="M457.819 73.8599C457.819 75.9199 456.149 77.5899 454.089 77.5899C452.029 77.5899 450.359 75.9199 450.359 73.8599C450.359 71.7999 452.029 70.1299 454.089 70.1299C456.149 70.1299 457.819 71.7999 457.819 73.8599Z" fill="#D8D8D8"/>
<path d="M381.78 153.96H400.59V141.16H378.03C378.72 145.65 380 149.94 381.78 153.96Z" fill="#D8D8D8"/>
<path d="M382.479 155.47C385.419 161.58 389.539 166.99 394.529 171.4C396.499 171.76 398.539 171.97 400.599 172.02V155.47H382.489H382.479Z" fill="#D8D8D8"/>
<path d="M378.04 125.35H400.6V112.55H381.79C380.01 116.57 378.73 120.86 378.04 125.35Z" fill="#D8D8D8"/>
<path d="M369.71 155.47C374.8 162.74 382.33 168.19 391.11 170.62C386.74 166.28 383.14 161.16 380.52 155.47H369.71Z" fill="#D8D8D8"/>
<path d="M375.66 133.26C375.66 131.09 375.81 128.95 376.07 126.86H363.26C362.9 128.94 362.72 131.08 362.72 133.26C362.72 135.44 362.9 137.58 363.26 139.66H376.07C375.81 137.57 375.66 135.43 375.66 133.26Z" fill="#D8D8D8"/>
<path d="M376.24 141.16H363.5C364.46 145.78 366.24 150.1 368.71 153.96H379.85C378.13 149.92 376.9 145.63 376.24 141.16Z" fill="#D8D8D8"/>
<path d="M382.48 111.05H400.59V94.4999C398.53 94.5499 396.49 94.7599 394.52 95.1199C389.54 99.5299 385.41 104.94 382.47 111.05H382.48Z" fill="#D8D8D8"/>
<path d="M391.11 95.8999C382.33 98.3199 374.8 103.77 369.71 111.05H380.52C383.14 105.36 386.74 100.24 391.11 95.8999Z" fill="#D8D8D8"/>
<path d="M379.86 112.56H368.72C366.25 116.41 364.47 120.74 363.51 125.36H376.25C376.91 120.89 378.15 116.6 379.86 112.56Z" fill="#D8D8D8"/>
<path d="M426.72 125.35H439.46C438.5 120.73 436.72 116.41 434.25 112.55H423.11C424.83 116.59 426.06 120.88 426.72 125.35Z" fill="#D8D8D8"/>
<path d="M377.43 133.26C377.43 135.43 377.58 137.57 377.84 139.66H400.59V126.86H377.84C377.58 128.95 377.43 131.09 377.43 133.26Z" fill="#D8D8D8"/>
<path d="M423.1 153.96H434.24C436.71 150.11 438.49 145.78 439.45 141.16H426.71C426.05 145.63 424.81 149.92 423.1 153.96Z" fill="#D8D8D8"/>
<path d="M421.17 112.56H402.36V125.36H424.92C424.23 120.87 422.95 116.58 421.17 112.56Z" fill="#D8D8D8"/>
<path d="M402.37 153.96H421.18C422.96 149.94 424.24 145.65 424.93 141.16H402.37V153.96Z" fill="#D8D8D8"/>
<path d="M402.37 126.86V139.66H425.12C425.38 137.57 425.53 135.43 425.53 133.26C425.53 131.09 425.38 128.95 425.12 126.86H402.37Z" fill="#D8D8D8"/>
<path d="M439.71 126.86H426.9C427.16 128.95 427.31 131.09 427.31 133.26C427.31 135.43 427.16 137.57 426.9 139.66H439.71C440.07 137.58 440.25 135.44 440.25 133.26C440.25 131.08 440.07 128.94 439.71 126.86Z" fill="#D8D8D8"/>
<path d="M420.48 111.05C417.54 104.94 413.42 99.5299 408.43 95.1199C406.46 94.7599 404.42 94.5499 402.36 94.4999V111.05H420.47H420.48Z" fill="#D8D8D8"/>
<path d="M411.85 170.62C420.63 168.2 428.16 162.74 433.25 155.47H422.44C419.82 161.16 416.22 166.28 411.85 170.62Z" fill="#D8D8D8"/>
<path d="M433.25 111.05C428.16 103.78 420.63 98.3299 411.85 95.8999C416.22 100.24 419.82 105.36 422.44 111.05H433.25Z" fill="#D8D8D8"/>
<path d="M420.48 155.47H402.37V172.02C404.43 171.97 406.47 171.76 408.44 171.4C413.42 166.99 417.55 161.58 420.49 155.47H420.48Z" fill="#D8D8D8"/>
<path d="M144.22 60.47H211.89C214.32 60.47 216.3 62.45 216.3 64.88V126.93C216.3 129.36 214.32 131.34 211.89 131.34H144.22C141.79 131.34 139.81 129.36 139.81 126.93V64.88C139.81 62.45 141.79 60.47 144.22 60.47Z" fill="#262626"/>
<path d="M144.22 60.47H211.89C214.32 60.47 216.3 62.45 216.3 64.88V69.97H139.8V64.88C139.8 62.45 141.78 60.47 144.21 60.47H144.22Z" fill="#191919"/>
<path d="M196.91 65.54C196.91 66.74 195.93 67.72 194.73 67.72C193.53 67.72 192.55 66.74 192.55 65.54C192.55 64.34 193.53 63.36 194.73 63.36C195.93 63.36 196.91 64.34 196.91 65.54Z" fill="#D8D8D8"/>
<path d="M204.39 65.54C204.39 66.74 203.41 67.72 202.21 67.72C201.01 67.72 200.03 66.74 200.03 65.54C200.03 64.34 201.01 63.36 202.21 63.36C203.41 63.36 204.39 64.34 204.39 65.54Z" fill="#D8D8D8"/>
<path d="M211.87 65.54C211.87 66.74 210.89 67.72 209.69 67.72C208.49 67.72 207.51 66.74 207.51 65.54C207.51 64.34 208.49 63.36 209.69 63.36C210.89 63.36 211.87 64.34 211.87 65.54Z" fill="#D8D8D8"/>
<path d="M188 81.08H165.41V85.82H188V81.08Z" fill="#E50913"/>
<path d="M176.69 118.17C174.55 118.17 172.63 117.82 170.93 117.13C169.23 116.44 167.87 115.4 166.84 114.04C165.84 112.68 165.31 111.03 165.25 109.11H172.85C172.96 110.2 173.34 111.03 173.98 111.62C174.62 112.18 175.46 112.46 176.49 112.46C177.52 112.46 178.38 112.22 179 111.75C179.61 111.25 179.92 110.57 179.92 109.7C179.92 108.98 179.67 108.38 179.17 107.9C178.7 107.43 178.1 107.04 177.37 106.73C176.67 106.42 175.67 106.08 174.36 105.69C172.47 105.11 170.92 104.52 169.72 103.94C168.52 103.36 167.49 102.49 166.63 101.35C165.77 100.21 165.34 98.72 165.34 96.88C165.34 94.15 166.33 92.02 168.3 90.49C170.28 88.93 172.85 88.15 176.03 88.15C179.26 88.15 181.86 88.93 183.84 90.49C185.82 92.02 186.87 94.16 187.01 96.92H179.28C179.22 95.97 178.88 95.24 178.24 94.71C177.6 94.15 176.78 93.87 175.78 93.87C174.92 93.87 174.22 94.11 173.69 94.58C173.16 95.03 172.9 95.68 172.9 96.54C172.9 97.49 173.35 98.22 174.24 98.75C175.13 99.28 176.52 99.85 178.42 100.46C180.31 101.1 181.84 101.71 183.01 102.3C184.21 102.88 185.24 103.73 186.1 104.85C186.96 105.96 187.39 107.4 187.39 109.15C187.39 110.82 186.96 112.34 186.1 113.7C185.26 115.06 184.04 116.15 182.43 116.96C180.82 117.77 178.91 118.17 176.71 118.17H176.69Z" fill="white"/>
<path d="M360.02 181.91L346.87 176.91C346.25 176.67 345.93 176.99 346.17 177.61L351.17 190.76C351.41 191.38 351.99 191.51 352.46 191.04L355.09 188.41L359.6 192.92C360.07 193.39 360.84 193.39 361.32 192.92L362.18 192.06C362.65 191.59 362.65 190.82 362.18 190.34L357.67 185.83L360.3 183.2C360.77 182.73 360.65 182.15 360.02 181.91Z" fill="#E50913"/>
<path d="M388.03 33.23H257.75C256.767 33.23 255.97 34.0269 255.97 35.01V52.28C255.97 53.263 256.767 54.06 257.75 54.06H388.03C389.013 54.06 389.81 53.263 389.81 52.28V35.01C389.81 34.0269 389.013 33.23 388.03 33.23Z" fill="#2D2D2D"/>
<path d="M265.94 43.6499C265.94 45.2899 264.61 46.6199 262.97 46.6199C261.33 46.6199 260 45.2899 260 43.6499C260 42.0099 261.33 40.6799 262.97 40.6799C264.61 40.6799 265.94 42.0099 265.94 43.6499Z" fill="#E6F2FD"/>
<path d="M349.849 41.74H269.409C269.172 41.74 268.979 41.9325 268.979 42.17V45.03C268.979 45.2675 269.172 45.46 269.409 45.46H349.849C350.087 45.46 350.279 45.2675 350.279 45.03V42.17C350.279 41.9325 350.087 41.74 349.849 41.74Z" fill="#161616"/>
<path d="M380.32 36.54C380.75 36.54 381.11 36.89 381.11 37.33C381.11 37.77 380.76 38.12 380.32 38.12C379.88 38.12 379.53 37.77 379.53 37.33C379.53 36.89 379.88 36.54 380.32 36.54Z" fill="#D8D8D8"/>
<path d="M383.18 36.54C383.61 36.54 383.97 36.89 383.97 37.33C383.97 37.77 383.62 38.12 383.18 38.12C382.74 38.12 382.39 37.77 382.39 37.33C382.39 36.89 382.74 36.54 383.18 36.54Z" fill="#D8D8D8"/>
<path d="M386.04 36.54C386.47 36.54 386.83 36.89 386.83 37.33C386.83 37.77 386.48 38.12 386.04 38.12C385.6 38.12 385.25 37.77 385.25 37.33C385.25 36.89 385.6 36.54 386.04 36.54Z" fill="#D8D8D8"/>
</g>
<defs>
<clipPath id="clip0_773_1117">
<rect width="608" height="261" fill="white"/>
</clipPath>
</defs>
</svg>
