<svg width="134" height="33" viewBox="0 0 134 33" fill="none" xmlns="http://www.w3.org/2000/svg">
<path d="M41.6366 0.100662H22.1641V4.18581H41.6366V0.100662Z" fill="#E50913"/>
<path d="M19.7317 14.699C19.7317 16.1638 19.3955 17.5085 18.7232 18.7332C18.0508 19.9339 17.0182 20.9064 15.6254 21.6508C14.2326 22.3953 12.5037 22.7675 10.4385 22.7675H6.62038V31.8445H0.460938V6.5584H10.4385C12.4556 6.5584 14.1606 6.90659 15.5534 7.60298C16.9462 8.29937 17.9907 9.25991 18.6871 10.4846C19.3835 11.7093 19.7317 13.1141 19.7317 14.699ZM9.97026 17.8687C11.1469 17.8687 12.0234 17.5926 12.5997 17.0403C13.1761 16.488 13.4642 15.7075 13.4642 14.699C13.4642 13.6904 13.1761 12.91 12.5997 12.3576C12.0234 11.8053 11.1469 11.5292 9.97026 11.5292H6.62038V17.8687H9.97026Z" fill="black"/>
<path d="M32.0875 32.0967C30.2384 32.0967 28.5815 31.7965 27.1167 31.1962C25.6519 30.5958 24.4752 29.7073 23.5867 28.5307C22.7222 27.354 22.266 25.9372 22.218 24.2803H28.7736C28.8697 25.2168 29.1939 25.9372 29.7462 26.4415C30.2985 26.9218 31.0189 27.1619 31.9074 27.1619C32.8199 27.1619 33.5403 26.9578 34.0686 26.5496C34.5969 26.1173 34.861 25.529 34.861 24.7846C34.861 24.1602 34.6449 23.644 34.2127 23.2357C33.8044 22.8275 33.2881 22.4913 32.6638 22.2272C32.0635 21.963 31.199 21.6628 30.0703 21.3267C28.4374 20.8224 27.1047 20.3181 26.0721 19.8138C25.0395 19.3095 24.151 18.5651 23.4066 17.5806C22.6622 16.596 22.29 15.3113 22.29 13.7264C22.29 11.3731 23.1425 9.53606 24.8474 8.21533C26.5524 6.87057 28.7736 6.1982 31.5111 6.1982C34.2967 6.1982 36.542 6.87057 38.2469 8.21533C39.9519 9.53606 40.8644 11.3851 40.9844 13.7624H34.3207C34.2727 12.946 33.9725 12.3096 33.4202 11.8534C32.8679 11.3731 32.1595 11.133 31.295 11.133C30.5506 11.133 29.9503 11.3371 29.494 11.7453C29.0378 12.1295 28.8096 12.6938 28.8096 13.4382C28.8096 14.2547 29.1939 14.8911 29.9623 15.3473C30.7307 15.8036 31.9314 16.2958 33.5643 16.8241C35.1972 17.3764 36.5179 17.9047 37.5265 18.409C38.5591 18.9133 39.4476 19.6457 40.192 20.6063C40.9364 21.5668 41.3086 22.8035 41.3086 24.3163C41.3086 25.7571 40.9364 27.0659 40.192 28.2425C39.4716 29.4192 38.415 30.3557 37.0222 31.0521C35.6295 31.7485 33.9845 32.0967 32.0875 32.0967Z" fill="black"/>
<path d="M63.2894 6.5584V11.4932H56.5896V31.8445H50.4302V11.4932H43.7304V6.5584H63.2894Z" fill="black"/>
<path d="M82.1214 27.378H72.6842L71.1713 31.8445H64.7237L73.8728 6.5584H81.0048L90.1539 31.8445H83.6343L82.1214 27.378ZM80.5365 22.6234L77.4028 13.3662L74.3051 22.6234H80.5365Z" fill="black"/>
<path d="M107.599 31.8445L99.0979 20.6783V31.8445H92.9384V6.5584H99.0979V17.6526L107.527 6.5584H114.767L104.969 18.9493L115.127 31.8445H107.599Z" fill="black"/>
<path d="M124.214 11.4932V16.608H132.462V21.3627H124.214V26.9098H133.543V31.8445H118.054V6.5584H133.543V11.4932H124.214Z" fill="black"/>
</svg>
