<svg width="608" height="165" viewBox="0 0 608 165" fill="none" xmlns="http://www.w3.org/2000/svg">
<g clip-path="url(#clip0_773_1040)">
<path d="M0 165V0H608V165H0Z" fill="#141414"/>
<path d="M111.12 165.61L170.01 116.11C170.01 116.11 184.2 101.26 203.9 117.11L252.21 154.52C252.21 154.52 256.49 159.38 263.02 157.38L273.47 149.81C276.09 147.91 279.31 148 281.86 150.04L301.31 165.61H111.12Z" stroke="white" stroke-width="0.32" stroke-miterlimit="10"/>
<path d="M343.42 165.61L370.63 152.35C383.48 146.09 398.12 144 412.11 147.07C415.03 147.71 418.05 148.57 421.13 149.71L460.37 165.6H343.42V165.61Z" stroke="white" stroke-width="0.37" stroke-miterlimit="10"/>
<path d="M459.42 165.61L486.63 152.35C499.48 146.09 514.12 144 528.11 147.07C531.03 147.71 534.05 148.57 537.13 149.71L576.37 165.6H459.42V165.61Z" stroke="white" stroke-width="0.37" stroke-miterlimit="10"/>
<path d="M23.6399 165.61L44.8799 152.35C54.9099 146.09 66.3399 144 77.2599 147.07C79.5399 147.71 81.8999 148.57 84.2999 149.71L114.93 165.6H23.6399V165.61Z" stroke="white" stroke-width="0.32" stroke-miterlimit="10"/>
<path d="M306.47 165.61L304.72 129.19C304.72 129.19 306.29 119.57 293.36 107.34C293.36 107.34 269.58 89.5099 256.12 81.6399L247.47 77.7099C247.47 77.7099 238.38 75.8899 238.77 70.6899C238.86 69.5099 239.83 68.5799 241.01 68.4599C243.88 68.1799 250.34 68.0699 259.44 70.9799C259.44 70.9799 271.07 74.2999 280.68 78.8499C280.68 78.8499 300.44 85.5799 314.34 86.1899C314.34 86.1899 328.5 89.1599 332.44 103.15C332.44 103.15 343.97 160.25 347.84 165.62H306.47V165.61Z" fill="#D8D8D8" stroke="black" stroke-width="0.5" stroke-miterlimit="10"/>
<path d="M222.24 59.7799C222.24 59.7799 217.65 58.0299 219.14 53.7499C219.14 53.7499 221.33 48.7699 229.37 51.2099C229.37 51.2099 249.39 57.4199 261.71 64.0599L280.2 71.7699C280.42 71.8599 280.62 71.5799 280.45 71.4099L269.41 60.0399C269.41 60.0399 265.21 56.4599 268.54 52.4299C268.54 52.4299 271.77 50.2399 276.76 55.8399C276.76 55.8399 288.91 65.1899 305 72.1899C305 72.1899 326.92 83.6499 326.93 93.4399C326.93 93.4399 320.36 86.1599 311.24 85.9499C311.24 85.9499 300.08 85.7099 276.84 77.1099C276.84 77.1099 258.06 67.6699 240.4 68.3099C240.4 68.3099 238.7 69.4899 238.78 70.6799L223.43 61.0399C222.65 60.5499 222.2 59.6699 222.26 58.7499C222.35 57.2199 223.12 55.2099 226.58 55.4899L252.37 65.1099" fill="#D8D8D8"/>
<path d="M222.24 59.7799C222.24 59.7799 217.65 58.0299 219.14 53.7499C219.14 53.7499 221.33 48.7699 229.37 51.2099C229.37 51.2099 249.39 57.4199 261.71 64.0599L280.2 71.7699C280.42 71.8599 280.62 71.5799 280.45 71.4099L269.41 60.0399C269.41 60.0399 265.21 56.4599 268.54 52.4299C268.54 52.4299 271.77 50.2399 276.76 55.8399C276.76 55.8399 288.91 65.1899 305 72.1899C305 72.1899 326.92 83.6499 326.93 93.4399C326.93 93.4399 320.36 86.1599 311.24 85.9499C311.24 85.9499 300.08 85.7099 276.84 77.1099C276.84 77.1099 258.06 67.6699 240.4 68.3099C240.4 68.3099 238.7 69.4899 238.78 70.6799L223.43 61.0399C222.65 60.5499 222.2 59.6699 222.26 58.7499C222.35 57.2199 223.12 55.2099 226.58 55.4899L252.37 65.1099" stroke="black" stroke-width="0.5" stroke-miterlimit="10"/>
<path d="M347.88 163.42C347.88 163.42 305.95 158.15 300.76 150.87C300.76 150.87 295.97 144.85 305.18 138.85" stroke="#E50913" stroke-miterlimit="10"/>
<path d="M266.22 88.0399C266.22 88.0399 265.62 93.2899 275.87 98.4199C275.87 98.4199 283.07 101.84 287.45 102.99" stroke="#E50913" stroke-miterlimit="10"/>
<path d="M276.82 77.1199C276.82 77.1199 290.67 67.1599 294.63 45.9399" stroke="#E50913" stroke-miterlimit="10"/>
<path d="M257.05 101.68C257.05 101.68 262.65 90.78 272.88 97.86C272.88 97.86 267.11 110.13 257.05 101.68Z" fill="#A5A5A5"/>
<path d="M351.64 114.21C351.64 114.21 354.79 101.12 364.93 105.74C364.93 105.74 365.45 117.71 351.64 114.21Z" fill="#A5A5A5"/>
<path d="M293.69 47.3599C303.598 47.3599 311.63 39.4309 311.63 29.6499C311.63 19.869 303.598 11.9399 293.69 11.9399C283.782 11.9399 275.75 19.869 275.75 29.6499C275.75 39.4309 283.782 47.3599 293.69 47.3599Z" fill="#2D2D2D"/>
<path d="M294.63 47.3499C304.013 47.3499 311.62 39.8059 311.62 30.4999C311.62 21.1939 304.013 13.6499 294.63 13.6499C285.247 13.6499 277.64 21.1939 277.64 30.4999C277.64 39.8059 285.247 47.3499 294.63 47.3499Z" fill="white"/>
<path d="M294.31 43.9899C301.683 43.9899 307.66 37.9502 307.66 30.4999C307.66 23.0496 301.683 17.0099 294.31 17.0099C286.937 17.0099 280.96 23.0496 280.96 30.4999C280.96 37.9502 286.937 43.9899 294.31 43.9899Z" fill="white"/>
<path d="M460.88 164.95V138.18" stroke="white" stroke-width="0.45" stroke-miterlimit="10"/>
<path d="M461.52 160.28C461.52 160.28 462.74 148.15 475.22 151.56C475.22 151.56 475.16 165.23 461.52 160.28Z" fill="#A5A5A5"/>
<path d="M460 151.56C460 151.56 459.83 139.94 445.66 143.14C445.66 143.14 446.24 156.07 460 151.56Z" fill="#A5A5A5"/>
<path d="M460.37 138.18C470.272 138.18 478.3 130.152 478.3 120.25C478.3 110.347 470.272 102.32 460.37 102.32C450.467 102.32 442.44 110.347 442.44 120.25C442.44 130.152 450.467 138.18 460.37 138.18Z" fill="#232323"/>
<path d="M461 134.37C468.373 134.37 474.35 128.33 474.35 120.88C474.35 113.43 468.373 107.39 461 107.39C453.627 107.39 447.65 113.43 447.65 120.88C447.65 128.33 453.627 134.37 461 134.37Z" fill="white"/>
<path d="M461.32 137.73C470.703 137.73 478.31 130.186 478.31 120.88C478.31 111.574 470.703 104.03 461.32 104.03C451.937 104.03 444.33 111.574 444.33 120.88C444.33 130.186 451.937 137.73 461.32 137.73Z" fill="#2D2D2D"/>
<path d="M112.71 121.79V163.04" stroke="white" stroke-width="0.5" stroke-miterlimit="10"/>
<path d="M112.13 137.17C112.13 137.17 94.9099 144 93.8599 125.94C93.8599 125.94 110.03 121.17 112.13 137.17Z" fill="#A5A5A5"/>
<path d="M112.71 146.88C112.71 146.88 115.19 132.11 131.28 136.91C131.28 136.91 130.86 154.04 112.71 147.84V146.88Z" fill="#A5A5A5"/>
<path d="M112.32 121.13C122.228 121.13 130.26 113.201 130.26 103.42C130.26 93.639 122.228 85.71 112.32 85.71C102.412 85.71 94.3799 93.639 94.3799 103.42C94.3799 113.201 102.412 121.13 112.32 121.13Z" fill="#232323"/>
<path d="M113.27 121.13C122.653 121.13 130.26 113.586 130.26 104.28C130.26 94.9739 122.653 87.4299 113.27 87.4299C103.886 87.4299 96.2798 94.9739 96.2798 104.28C96.2798 113.586 103.886 121.13 113.27 121.13Z" fill="#2D2D2D"/>
<path d="M112.94 117.77C120.313 117.77 126.29 111.73 126.29 104.28C126.29 96.8296 120.313 90.7899 112.94 90.7899C105.567 90.7899 99.5898 96.8296 99.5898 104.28C99.5898 111.73 105.567 117.77 112.94 117.77Z" fill="#2D2D2D"/>
<path d="M287.46 102.98C307.51 108.55 333.74 109.11 336.03 109.15C353.85 111.19 354.01 116.61 354.01 116.61C355.74 123.42 342.04 131.03 338.77 131.51" stroke="#E50913" stroke-miterlimit="10"/>
<path d="M299.79 21.52H289.05V23.77H299.79V21.52Z" fill="#E50913"/>
<path d="M294.41 39.16C293.39 39.16 292.48 38.99 291.67 38.66C290.86 38.33 290.21 37.84 289.72 37.19C289.24 36.54 288.99 35.76 288.97 34.85H292.58C292.63 35.37 292.81 35.76 293.12 36.04C293.42 36.3 293.82 36.44 294.31 36.44C294.8 36.44 295.21 36.33 295.5 36.1C295.79 35.86 295.94 35.54 295.94 35.13C295.94 34.79 295.82 34.5 295.58 34.28C295.35 34.05 295.07 33.87 294.73 33.72C294.4 33.57 293.92 33.41 293.3 33.22C292.4 32.94 291.67 32.66 291.1 32.39C290.53 32.11 290.04 31.7 289.63 31.16C289.22 30.62 289.01 29.91 289.01 29.04C289.01 27.74 289.48 26.73 290.42 26C291.36 25.26 292.58 24.89 294.09 24.89C295.63 24.89 296.86 25.26 297.8 26C298.74 26.73 299.24 27.75 299.31 29.06H295.64C295.61 28.61 295.45 28.26 295.14 28.01C294.84 27.75 294.45 27.61 293.97 27.61C293.56 27.61 293.23 27.72 292.98 27.95C292.73 28.16 292.6 28.47 292.6 28.88C292.6 29.33 292.81 29.68 293.24 29.93C293.66 30.18 294.33 30.45 295.23 30.74C296.13 31.04 296.86 31.34 297.41 31.61C297.98 31.89 298.47 32.29 298.88 32.82C299.29 33.35 299.5 34.03 299.5 34.87C299.5 35.66 299.29 36.39 298.88 37.03C298.48 37.68 297.9 38.19 297.13 38.58C296.36 38.96 295.46 39.16 294.41 39.16Z" fill="#141414"/>
</g>
<defs>
<clipPath id="clip0_773_1040">
<rect width="607" height="165" fill="white" transform="translate(0.5)"/>
</clipPath>
</defs>
</svg>
