<svg width="270" height="271" viewBox="0 0 270 271" fill="none" xmlns="http://www.w3.org/2000/svg">
<g clip-path="url(#clip0_1796_3033)">
<path d="M269.924 128.404H0V141.808H269.924V128.404Z" fill="#0A0A0A"/>
<path d="M135 270.431C209.558 270.431 270 212.688 270 141.458C270 70.2276 209.558 12.4844 135 12.4844C60.4416 12.4844 0 70.2276 0 141.458C0 212.688 60.4416 270.431 135 270.431Z" fill="#0A0A0A"/>
<path d="M135 258.402C209.558 258.402 270 200.658 270 129.428C270 58.1984 209.558 0.455078 135 0.455078C60.4416 0.455078 0 58.1984 0 129.428C0 200.658 60.4416 258.402 135 258.402Z" fill="#262626"/>
<path opacity="0.5" d="M134.962 164.335C202.936 164.335 262.43 129.769 262.43 87.8435C247.29 44.4506 203.131 1.05776 134.962 0.455078C105.415 0.455078 83.9019 8.2899 62.4533 20.3435C37.2197 37.2185 20.1869 55.9015 9.46265 82.4194C9.46265 124.345 66.9885 164.335 134.962 164.335Z" fill="url(#paint0_linear_1796_3033)"/>
<path d="M244.694 131.387C245.043 73.4716 196.183 26.2519 135.562 25.9183C74.9403 25.5847 25.514 72.2637 25.1648 130.179C24.8156 188.094 73.6758 235.313 134.297 235.647C194.918 235.981 244.345 189.302 244.694 131.387Z" fill="#262626" stroke="#0A0A0A" stroke-width="3.36656" stroke-miterlimit="10"/>
<path d="M135 35.3273C163.025 35.3705 189.974 45.6332 210.346 64.0196C230.718 82.406 242.976 107.529 244.615 134.258C244.729 132.269 244.792 130.268 244.792 128.231C244.948 114.356 242.222 100.588 236.772 87.7259C231.322 74.8635 223.256 63.1615 213.041 53.2969C202.827 43.4324 190.666 35.6013 177.263 30.2567C163.859 24.9121 149.48 22.1602 134.956 22.1602C120.432 22.1602 106.053 24.9121 92.6497 30.2567C79.2465 35.6013 67.0857 43.4324 56.871 53.2969C46.6564 63.1615 38.5907 74.8635 33.1408 87.7259C27.6908 100.588 24.9648 114.356 25.1204 128.231C25.1204 130.244 25.1961 132.245 25.3097 134.258C26.9471 107.516 39.2141 82.3804 59.6029 63.9916C79.9917 45.6027 106.962 35.3492 135 35.3273Z" fill="#0A0A0A"/>
<path d="M135.144 184.407C109.151 184.599 87.2999 163.409 87.3969 136.959C87.4897 111.144 108.91 90.0454 135.178 90.0997C161.276 90.1498 182.385 111.11 182.617 136.813C182.857 163.371 160.981 184.499 135.144 184.411V184.407ZM134.929 102.454C115.672 102.525 99.9126 118.033 99.8915 137.18C99.8704 156.357 115.6 172.04 134.912 172.065C154.299 172.09 170.042 156.528 170.147 137.381C170.257 117.745 153.987 102.429 134.924 102.458L134.929 102.454Z" fill="white"/>
<path d="M144.926 137.336C144.867 142.801 140.4 147.137 134.895 147.079C129.344 147.016 125.003 142.571 125.088 137.027C125.172 131.641 129.643 127.38 135.161 127.43C140.611 127.48 144.981 131.917 144.926 137.336Z" fill="white"/>
<path d="M87 86.1914L183 86.1914V74.6312L87 74.6312V86.1914Z" fill="#FF6700"/>
</g>
<defs>
<linearGradient id="paint0_linear_1796_3033" x1="135.946" y1="0.455078" x2="135.946" y2="164.335" gradientUnits="userSpaceOnUse">
<stop stop-color="white" stop-opacity="0.59"/>
<stop offset="0.9999" stop-color="white" stop-opacity="0"/>
</linearGradient>
<clipPath id="clip0_1796_3033">
<rect width="270" height="270" fill="white" transform="translate(0 0.455078)"/>
</clipPath>
</defs>
</svg>
