<svg width="608" height="262" viewBox="0 0 608 262" fill="none" xmlns="http://www.w3.org/2000/svg">
<g clip-path="url(#clip0_1160_3755)">
<mask id="path-1-inside-1_1160_3755" fill="white">
<path d="M0 8.11523C0 3.69695 3.58172 0.115234 8 0.115234H600C604.418 0.115234 608 3.69696 608 8.11523V261.115H0V8.11523Z"/>
</mask>
<path d="M-0.689941 261.115V0.115234H608.7V261.115H-0.689941Z" fill="#141414"/>
<path d="M184.294 230.598L395.021 230.598C396.971 230.598 398.552 229.017 398.552 227.067V83.2529C398.552 81.3028 396.971 79.7219 395.021 79.7219L184.294 79.7219C182.343 79.7219 180.763 81.3028 180.763 83.2529L180.763 227.067C180.763 229.017 182.343 230.598 184.294 230.598Z" fill="#2D2D2D"/>
<path d="M398.552 101.491L180.763 101.491V83.2422C180.763 81.2952 182.346 79.7112 184.294 79.7112L395.032 79.7112C396.979 79.7112 398.562 81.2952 398.562 83.2422V101.491H398.552Z" fill="#191919"/>
<path opacity="0.5" d="M365.802 168H230.198C228.432 168 227 169.928 227 172.307V178.693C227 181.072 228.432 183 230.198 183H365.802C367.568 183 369 181.072 369 178.693V172.307C369 169.928 367.568 168 365.802 168Z" fill="#EE972C"/>
<path d="M365.408 146H213.102C211.389 146 210 147.389 210 149.102V158.694C210 160.407 211.389 161.796 213.102 161.796H365.408C367.121 161.796 368.51 160.407 368.51 158.694V149.102C368.51 147.389 367.121 146 365.408 146Z" fill="#161616"/>
<path opacity="0.5" d="M219.761 168H213.239C211.45 168 210 169.928 210 172.307V178.693C210 181.072 211.45 183 213.239 183H219.761C221.55 183 223 181.072 223 178.693V172.307C223 169.928 221.55 168 219.761 168Z" fill="#EE972C"/>
<g clip-path="url(#clip1_1160_3755)">
<path d="M216.125 178.125C217.782 178.125 219.125 176.782 219.125 175.125C219.125 173.468 217.782 172.125 216.125 172.125C214.468 172.125 213.125 173.468 213.125 175.125C213.125 176.782 214.468 178.125 216.125 178.125Z" stroke="white" stroke-width="0.9" stroke-linecap="round" stroke-linejoin="round"/>
<path d="M219.875 178.875L218.244 177.244" stroke="white" stroke-width="0.9" stroke-linecap="round" stroke-linejoin="round"/>
</g>
<path d="M490.861 57H363.316C358.723 57 355 60.7232 355 65.316V182.257C355 186.85 358.723 190.573 363.316 190.573H490.861C495.454 190.573 499.177 186.85 499.177 182.257V65.316C499.177 60.7232 495.454 57 490.861 57Z" fill="#262626"/>
<path d="M363.316 57H490.872C495.459 57 499.188 60.729 499.188 65.316V74.908H355.011V65.316C355.011 60.729 358.74 57 363.327 57H363.316Z" fill="#191919"/>
<path d="M462.624 66.5591C462.624 68.825 460.787 70.662 458.521 70.662C456.255 70.662 454.418 68.825 454.418 66.5591C454.418 64.2931 456.255 62.4561 458.521 62.4561C460.787 62.4561 462.624 64.2931 462.624 66.5591Z" fill="#D8D8D8"/>
<path d="M476.726 66.5591C476.726 68.825 474.889 70.662 472.623 70.662C470.357 70.662 468.52 68.825 468.52 66.5591C468.52 64.2931 470.357 62.4561 472.623 62.4561C474.889 62.4561 476.726 64.2931 476.726 66.5591Z" fill="#D8D8D8"/>
<path d="M490.817 66.5591C490.817 68.825 488.98 70.662 486.714 70.662C484.448 70.662 482.611 68.825 482.611 66.5591C482.611 64.2931 484.448 62.4561 486.714 62.4561C488.98 62.4561 490.817 64.2931 490.817 66.5591Z" fill="#D8D8D8"/>
<path d="M407.173 154.669H427.864V140.589H403.048C403.807 145.528 405.215 150.247 407.173 154.669Z" fill="#D8D8D8"/>
<path d="M407.943 156.33C411.177 163.051 415.709 169.002 421.198 173.853C423.365 174.249 425.609 174.48 427.875 174.535V156.33H407.954H407.943Z" fill="#D8D8D8"/>
<path d="M403.059 123.197H427.875V109.117H407.184C405.226 113.539 403.818 118.258 403.059 123.197Z" fill="#D8D8D8"/>
<path d="M393.896 156.33C399.495 164.327 407.778 170.322 417.436 172.995C412.629 168.221 408.669 162.589 405.787 156.33H393.896Z" fill="#D8D8D8"/>
<path d="M400.441 131.899C400.441 129.512 400.606 127.158 400.892 124.859H386.801C386.405 127.147 386.207 129.501 386.207 131.899C386.207 134.297 386.405 136.651 386.801 138.939H400.892C400.606 136.64 400.441 134.286 400.441 131.899Z" fill="#D8D8D8"/>
<path d="M401.079 140.589H387.065C388.121 145.671 390.079 150.423 392.796 154.669H405.05C403.158 150.225 401.805 145.506 401.079 140.589Z" fill="#D8D8D8"/>
<path d="M407.943 107.468H427.864V89.2627C425.598 89.3177 423.354 89.5487 421.187 89.9447C415.709 94.7957 411.166 100.747 407.932 107.468H407.943Z" fill="#D8D8D8"/>
<path d="M417.436 90.8037C407.778 93.4657 399.495 99.4607 393.896 107.469H405.787C408.669 101.21 412.629 95.5777 417.436 90.8037Z" fill="#D8D8D8"/>
<path d="M405.061 109.129H392.807C390.09 113.364 388.132 118.127 387.076 123.209H401.09C401.816 118.292 403.18 113.573 405.061 109.129Z" fill="#D8D8D8"/>
<path d="M456.607 123.197H470.621C469.565 118.115 467.607 113.363 464.89 109.117H452.636C454.528 113.561 455.881 118.28 456.607 123.197Z" fill="#D8D8D8"/>
<path d="M402.388 131.899C402.388 134.286 402.553 136.64 402.839 138.939H427.864V124.859H402.839C402.553 127.158 402.388 129.512 402.388 131.899Z" fill="#D8D8D8"/>
<path d="M452.625 154.669H464.879C467.596 150.434 469.554 145.671 470.61 140.589H456.596C455.87 145.506 454.506 150.225 452.625 154.669Z" fill="#D8D8D8"/>
<path d="M450.502 109.129H429.811V123.209H454.627C453.868 118.27 452.46 113.551 450.502 109.129Z" fill="#D8D8D8"/>
<path d="M429.822 154.669H450.513C452.471 150.247 453.879 145.528 454.638 140.589H429.822V154.669Z" fill="#D8D8D8"/>
<path d="M429.822 124.859V138.939H454.847C455.133 136.64 455.298 134.286 455.298 131.899C455.298 129.512 455.133 127.158 454.847 124.859H429.822Z" fill="#D8D8D8"/>
<path d="M470.896 124.859H456.805C457.091 127.158 457.256 129.512 457.256 131.899C457.256 134.286 457.091 136.64 456.805 138.939H470.896C471.292 136.651 471.49 134.297 471.49 131.899C471.49 129.501 471.292 127.147 470.896 124.859Z" fill="#D8D8D8"/>
<path d="M449.743 107.468C446.509 100.747 441.977 94.7957 436.488 89.9447C434.321 89.5487 432.077 89.3177 429.811 89.2627V107.468H449.732H449.743Z" fill="#D8D8D8"/>
<path d="M440.25 172.995C449.908 170.333 458.191 164.327 463.79 156.33H451.899C449.017 162.589 445.057 168.221 440.25 172.995Z" fill="#D8D8D8"/>
<path d="M463.79 107.469C458.191 99.4717 449.908 93.4767 440.25 90.8037C445.057 95.5777 449.017 101.21 451.899 107.469H463.79Z" fill="#D8D8D8"/>
<path d="M449.743 156.33H429.822V174.535C432.088 174.48 434.332 174.249 436.499 173.853C441.977 169.002 446.52 163.051 449.754 156.33H449.743Z" fill="#D8D8D8"/>
<path d="M117.862 50H192.299C194.972 50 197.15 52.178 197.15 54.851V123.106C197.15 125.779 194.972 127.957 192.299 127.957H117.862C115.189 127.957 113.011 125.779 113.011 123.106V54.851C113.011 52.178 115.189 50 117.862 50Z" fill="#262626"/>
<path d="M117.862 50H192.299C194.972 50 197.15 52.178 197.15 54.851V60.45H113V54.851C113 52.178 115.178 50 117.851 50H117.862Z" fill="#191919"/>
<path d="M175.821 55.5757C175.821 56.8957 174.743 57.9737 173.423 57.9737C172.103 57.9737 171.025 56.8957 171.025 55.5757C171.025 54.2557 172.103 53.1777 173.423 53.1777C174.743 53.1777 175.821 54.2557 175.821 55.5757Z" fill="#D8D8D8"/>
<path d="M184.049 55.5757C184.049 56.8957 182.971 57.9737 181.651 57.9737C180.331 57.9737 179.253 56.8957 179.253 55.5757C179.253 54.2557 180.331 53.1777 181.651 53.1777C182.971 53.1777 184.049 54.2557 184.049 55.5757Z" fill="#D8D8D8"/>
<path d="M192.277 55.5757C192.277 56.8957 191.199 57.9737 189.879 57.9737C188.559 57.9737 187.481 56.8957 187.481 55.5757C187.481 54.2557 188.559 53.1777 189.879 53.1777C191.199 53.1777 192.277 54.2557 192.277 55.5757Z" fill="#D8D8D8"/>
<path d="M166.02 72.6709H141.171V77.8849H166.02V72.6709Z" fill="#E50913"/>
<path d="M153.579 113.469C151.225 113.469 149.113 113.084 147.243 112.325C145.373 111.566 143.877 110.422 142.744 108.926C141.644 107.43 141.061 105.615 140.995 103.503H149.355C149.476 104.702 149.894 105.615 150.598 106.264C151.302 106.88 152.226 107.188 153.359 107.188C154.492 107.188 155.438 106.924 156.12 106.407C156.791 105.857 157.132 105.109 157.132 104.152C157.132 103.36 156.857 102.7 156.307 102.172C155.79 101.655 155.13 101.226 154.327 100.885C153.557 100.544 152.457 100.17 151.016 99.7412C148.937 99.1032 147.232 98.4542 145.912 97.8162C144.592 97.1782 143.459 96.2212 142.513 94.9672C141.567 93.7132 141.094 92.0742 141.094 90.0502C141.094 87.0473 142.183 84.7043 144.35 83.0213C146.528 81.3053 149.355 80.4473 152.853 80.4473C156.406 80.4473 159.266 81.3053 161.444 83.0213C163.622 84.7043 164.777 87.0583 164.931 90.0942H156.428C156.362 89.0492 155.988 88.2463 155.284 87.6633C154.58 87.0473 153.678 86.7393 152.578 86.7393C151.632 86.7393 150.862 87.0033 150.279 87.5203C149.696 88.0153 149.41 88.7303 149.41 89.6763C149.41 90.7212 149.905 91.5242 150.884 92.1072C151.863 92.6902 153.392 93.3172 155.482 93.9882C157.561 94.6922 159.244 95.3632 160.531 96.0122C161.851 96.6502 162.984 97.5852 163.93 98.8172C164.876 100.038 165.349 101.622 165.349 103.547C165.349 105.384 164.876 107.056 163.93 108.552C163.006 110.048 161.664 111.247 159.893 112.138C158.122 113.029 156.021 113.469 153.601 113.469H153.579Z" fill="white"/>
<path d="M328.323 187.499L313.858 181.999C313.176 181.735 312.824 182.087 313.088 182.769L318.588 197.234C318.852 197.916 319.49 198.059 320.007 197.542L322.9 194.649L327.861 199.61C328.378 200.127 329.225 200.127 329.753 199.61L330.699 198.664C331.216 198.147 331.216 197.3 330.699 196.772L325.738 191.811L328.631 188.918C329.148 188.401 329.016 187.763 328.323 187.499Z" fill="#E50913"/>
<path d="M396.572 23.9521H253.264C252.182 23.9521 251.306 24.8288 251.306 25.9101V44.9071C251.306 45.9885 252.182 46.8651 253.264 46.8651H396.572C397.653 46.8651 398.53 45.9885 398.53 44.9071V25.9101C398.53 24.8288 397.653 23.9521 396.572 23.9521Z" fill="#2D2D2D"/>
<path d="M262.273 35.4145C262.273 37.2185 260.81 38.6814 259.006 38.6814C257.202 38.6814 255.739 37.2185 255.739 35.4145C255.739 33.6105 257.202 32.1475 259.006 32.1475C260.81 32.1475 262.273 33.6105 262.273 35.4145Z" fill="#E6F2FD"/>
<path d="M354.574 33.3135H266.09C265.828 33.3135 265.617 33.5252 265.617 33.7865V36.9325C265.617 37.1937 265.828 37.4055 266.09 37.4055H354.574C354.835 37.4055 355.047 37.1937 355.047 36.9325V33.7865C355.047 33.5252 354.835 33.3135 354.574 33.3135Z" fill="#161616"/>
<path d="M388.09 27.5928C388.563 27.5928 388.959 27.9778 388.959 28.4618C388.959 28.9458 388.574 29.3308 388.09 29.3308C387.606 29.3308 387.221 28.9458 387.221 28.4618C387.221 27.9778 387.606 27.5928 388.09 27.5928Z" fill="#D8D8D8"/>
<path d="M391.236 27.5928C391.709 27.5928 392.105 27.9778 392.105 28.4618C392.105 28.9458 391.72 29.3308 391.236 29.3308C390.752 29.3308 390.367 28.9458 390.367 28.4618C390.367 27.9778 390.752 27.5928 391.236 27.5928Z" fill="#D8D8D8"/>
<path d="M394.382 27.5928C394.855 27.5928 395.251 27.9778 395.251 28.4618C395.251 28.9458 394.866 29.3308 394.382 29.3308C393.898 29.3308 393.513 28.9458 393.513 28.4618C393.513 27.9778 393.898 27.5928 394.382 27.5928Z" fill="#D8D8D8"/>
<path d="M235.409 175.48C235.694 175.541 235.922 175.683 236.095 175.907C236.268 176.126 236.354 176.378 236.354 176.663C236.354 177.074 236.209 177.4 235.92 177.643C235.635 177.881 235.236 178 234.723 178H232.434V173.086H234.646C235.145 173.086 235.535 173.2 235.815 173.429C236.1 173.658 236.242 173.968 236.242 174.36C236.242 174.649 236.165 174.89 236.011 175.081C235.862 175.272 235.661 175.405 235.409 175.48ZM233.631 175.074H234.415C234.611 175.074 234.76 175.032 234.863 174.948C234.97 174.859 235.024 174.731 235.024 174.563C235.024 174.395 234.97 174.267 234.863 174.178C234.76 174.089 234.611 174.045 234.415 174.045H233.631V175.074ZM234.513 177.034C234.714 177.034 234.868 176.99 234.975 176.901C235.087 176.808 235.143 176.675 235.143 176.502C235.143 176.329 235.085 176.194 234.968 176.096C234.856 175.998 234.7 175.949 234.499 175.949H233.631V177.034H234.513ZM237.65 173.688C237.44 173.688 237.268 173.627 237.132 173.506C237.002 173.38 236.936 173.226 236.936 173.044C236.936 172.857 237.002 172.703 237.132 172.582C237.268 172.456 237.44 172.393 237.65 172.393C237.856 172.393 238.024 172.456 238.154 172.582C238.29 172.703 238.357 172.857 238.357 173.044C238.357 173.226 238.29 173.38 238.154 173.506C238.024 173.627 237.856 173.688 237.65 173.688ZM238.245 174.094V178H237.048V174.094H238.245ZM241.29 176.985V178H240.681C240.247 178 239.908 177.895 239.666 177.685C239.423 177.47 239.302 177.123 239.302 176.642V175.088H238.826V174.094H239.302V173.142H240.499V174.094H241.283V175.088H240.499V176.656C240.499 176.773 240.527 176.857 240.583 176.908C240.639 176.959 240.732 176.985 240.863 176.985H241.29ZM241.718 176.047C241.718 175.641 241.8 175.286 241.963 174.983C242.131 174.68 242.362 174.446 242.656 174.283C242.955 174.12 243.296 174.038 243.678 174.038C244.168 174.038 244.577 174.166 244.903 174.423C245.235 174.68 245.452 175.041 245.554 175.508H244.28C244.173 175.209 243.965 175.06 243.657 175.06C243.438 175.06 243.263 175.146 243.132 175.319C243.002 175.487 242.936 175.73 242.936 176.047C242.936 176.364 243.002 176.609 243.132 176.782C243.263 176.95 243.438 177.034 243.657 177.034C243.965 177.034 244.173 176.885 244.28 176.586H245.554C245.452 177.043 245.235 177.403 244.903 177.664C244.572 177.925 244.164 178.056 243.678 178.056C243.296 178.056 242.955 177.974 242.656 177.811C242.362 177.648 242.131 177.414 241.963 177.111C241.8 176.808 241.718 176.453 241.718 176.047ZM247.973 178.056C247.59 178.056 247.245 177.974 246.937 177.811C246.633 177.648 246.393 177.414 246.216 177.111C246.043 176.808 245.957 176.453 245.957 176.047C245.957 175.646 246.045 175.293 246.223 174.99C246.4 174.682 246.643 174.446 246.951 174.283C247.259 174.12 247.604 174.038 247.987 174.038C248.369 174.038 248.715 174.12 249.023 174.283C249.331 174.446 249.573 174.682 249.751 174.99C249.928 175.293 250.017 175.646 250.017 176.047C250.017 176.448 249.926 176.803 249.744 177.111C249.566 177.414 249.321 177.648 249.009 177.811C248.701 177.974 248.355 178.056 247.973 178.056ZM247.973 177.02C248.201 177.02 248.395 176.936 248.554 176.768C248.717 176.6 248.799 176.36 248.799 176.047C248.799 175.734 248.719 175.494 248.561 175.326C248.407 175.158 248.215 175.074 247.987 175.074C247.753 175.074 247.56 175.158 247.406 175.326C247.252 175.489 247.175 175.73 247.175 176.047C247.175 176.36 247.249 176.6 247.399 176.768C247.553 176.936 247.744 177.02 247.973 177.02ZM251.254 173.688C251.044 173.688 250.871 173.627 250.736 173.506C250.605 173.38 250.54 173.226 250.54 173.044C250.54 172.857 250.605 172.703 250.736 172.582C250.871 172.456 251.044 172.393 251.254 172.393C251.459 172.393 251.627 172.456 251.758 172.582C251.893 172.703 251.961 172.857 251.961 173.044C251.961 173.226 251.893 173.38 251.758 173.506C251.627 173.627 251.459 173.688 251.254 173.688ZM251.849 174.094V178H250.652V174.094H251.849ZM255.096 174.052C255.554 174.052 255.918 174.201 256.188 174.5C256.464 174.794 256.601 175.2 256.601 175.718V178H255.411V175.879C255.411 175.618 255.344 175.415 255.208 175.27C255.073 175.125 254.891 175.053 254.662 175.053C254.434 175.053 254.252 175.125 254.116 175.27C253.981 175.415 253.913 175.618 253.913 175.879V178H252.716V174.094H253.913V174.612C254.035 174.439 254.198 174.304 254.403 174.206C254.609 174.103 254.84 174.052 255.096 174.052ZM260.113 177.076H261.681V178H258.916V173.086H260.113V177.076ZM262.854 173.688C262.644 173.688 262.472 173.627 262.336 173.506C262.206 173.38 262.14 173.226 262.14 173.044C262.14 172.857 262.206 172.703 262.336 172.582C262.472 172.456 262.644 172.393 262.854 172.393C263.06 172.393 263.228 172.456 263.358 172.582C263.494 172.703 263.561 172.857 263.561 173.044C263.561 173.226 263.494 173.38 263.358 173.506C263.228 173.627 263.06 173.688 262.854 173.688ZM263.449 174.094V178H262.252V174.094H263.449ZM264.079 176.054C264.079 175.667 264.158 175.321 264.317 175.018C264.48 174.715 264.697 174.479 264.968 174.311C265.243 174.138 265.542 174.052 265.864 174.052C266.111 174.052 266.333 174.096 266.529 174.185C266.725 174.269 266.883 174.388 267.005 174.542V174.094H268.202V179.862H267.005V177.51C266.869 177.673 266.704 177.804 266.508 177.902C266.316 178 266.097 178.049 265.85 178.049C265.532 178.049 265.238 177.965 264.968 177.797C264.697 177.629 264.48 177.393 264.317 177.09C264.158 176.787 264.079 176.441 264.079 176.054ZM267.005 176.047C267.005 175.837 266.963 175.662 266.879 175.522C266.799 175.377 266.694 175.27 266.564 175.2C266.433 175.125 266.295 175.088 266.151 175.088C266.011 175.088 265.875 175.125 265.745 175.2C265.614 175.27 265.507 175.377 265.423 175.522C265.339 175.667 265.297 175.844 265.297 176.054C265.297 176.264 265.339 176.441 265.423 176.586C265.507 176.726 265.614 176.833 265.745 176.908C265.875 176.978 266.011 177.013 266.151 177.013C266.291 177.013 266.426 176.978 266.557 176.908C266.692 176.833 266.799 176.724 266.879 176.579C266.963 176.434 267.005 176.257 267.005 176.047ZM272.925 174.094V178H271.728V177.468C271.606 177.641 271.441 177.781 271.231 177.888C271.025 177.991 270.797 178.042 270.545 178.042C270.246 178.042 269.982 177.977 269.754 177.846C269.525 177.711 269.348 177.517 269.222 177.265C269.096 177.013 269.033 176.717 269.033 176.376V174.094H270.223V176.215C270.223 176.476 270.29 176.679 270.426 176.824C270.561 176.969 270.743 177.041 270.972 177.041C271.205 177.041 271.389 176.969 271.525 176.824C271.66 176.679 271.728 176.476 271.728 176.215V174.094H272.925ZM274.387 173.688C274.177 173.688 274.004 173.627 273.869 173.506C273.738 173.38 273.673 173.226 273.673 173.044C273.673 172.857 273.738 172.703 273.869 172.582C274.004 172.456 274.177 172.393 274.387 172.393C274.592 172.393 274.76 172.456 274.891 172.582C275.026 172.703 275.094 172.857 275.094 173.044C275.094 173.226 275.026 173.38 274.891 173.506C274.76 173.627 274.592 173.688 274.387 173.688ZM274.982 174.094V178H273.785V174.094H274.982ZM275.611 176.04C275.611 175.639 275.686 175.286 275.835 174.983C275.989 174.68 276.197 174.446 276.458 174.283C276.719 174.12 277.011 174.038 277.333 174.038C277.59 174.038 277.823 174.092 278.033 174.199C278.248 174.306 278.416 174.451 278.537 174.633V172.82H279.734V178H278.537V177.44C278.425 177.627 278.264 177.776 278.054 177.888C277.849 178 277.608 178.056 277.333 178.056C277.011 178.056 276.719 177.974 276.458 177.811C276.197 177.643 275.989 177.407 275.835 177.104C275.686 176.796 275.611 176.441 275.611 176.04ZM278.537 176.047C278.537 175.748 278.453 175.513 278.285 175.34C278.122 175.167 277.921 175.081 277.683 175.081C277.445 175.081 277.242 175.167 277.074 175.34C276.911 175.508 276.829 175.741 276.829 176.04C276.829 176.339 276.911 176.577 277.074 176.754C277.242 176.927 277.445 177.013 277.683 177.013C277.921 177.013 278.122 176.927 278.285 176.754C278.453 176.581 278.537 176.346 278.537 176.047ZM283.861 178.049C283.502 178.049 283.18 177.991 282.895 177.874C282.611 177.757 282.382 177.585 282.209 177.356C282.041 177.127 281.953 176.852 281.943 176.53H283.217C283.236 176.712 283.299 176.852 283.406 176.95C283.514 177.043 283.654 177.09 283.826 177.09C284.004 177.09 284.144 177.05 284.246 176.971C284.349 176.887 284.4 176.773 284.4 176.628C284.4 176.507 284.358 176.406 284.274 176.327C284.195 176.248 284.095 176.182 283.973 176.131C283.857 176.08 283.689 176.021 283.469 175.956C283.152 175.858 282.893 175.76 282.692 175.662C282.492 175.564 282.319 175.419 282.174 175.228C282.03 175.037 281.957 174.787 281.957 174.479C281.957 174.022 282.123 173.665 282.454 173.408C282.786 173.147 283.217 173.016 283.749 173.016C284.291 173.016 284.727 173.147 285.058 173.408C285.39 173.665 285.567 174.024 285.59 174.486H284.295C284.286 174.327 284.228 174.204 284.12 174.115C284.013 174.022 283.875 173.975 283.707 173.975C283.563 173.975 283.446 174.015 283.357 174.094C283.269 174.169 283.224 174.278 283.224 174.423C283.224 174.582 283.299 174.705 283.448 174.794C283.598 174.883 283.831 174.978 284.148 175.081C284.466 175.188 284.722 175.291 284.918 175.389C285.119 175.487 285.292 175.629 285.436 175.816C285.581 176.003 285.653 176.243 285.653 176.537C285.653 176.817 285.581 177.071 285.436 177.3C285.296 177.529 285.091 177.711 284.82 177.846C284.55 177.981 284.23 178.049 283.861 178.049ZM288.567 176.985V178H287.958C287.524 178 287.186 177.895 286.943 177.685C286.7 177.47 286.579 177.123 286.579 176.642V175.088H286.103V174.094H286.579V173.142H287.776V174.094H288.56V175.088H287.776V176.656C287.776 176.773 287.804 176.857 287.86 176.908C287.916 176.959 288.009 176.985 288.14 176.985H288.567ZM288.996 176.04C288.996 175.639 289.07 175.286 289.22 174.983C289.374 174.68 289.581 174.446 289.843 174.283C290.104 174.12 290.396 174.038 290.718 174.038C290.993 174.038 291.233 174.094 291.439 174.206C291.649 174.318 291.81 174.465 291.922 174.647V174.094H293.119V178H291.922V177.447C291.805 177.629 291.642 177.776 291.432 177.888C291.226 178 290.986 178.056 290.711 178.056C290.393 178.056 290.104 177.974 289.843 177.811C289.581 177.643 289.374 177.407 289.22 177.104C289.07 176.796 288.996 176.441 288.996 176.04ZM291.922 176.047C291.922 175.748 291.838 175.513 291.67 175.34C291.506 175.167 291.306 175.081 291.068 175.081C290.83 175.081 290.627 175.167 290.459 175.34C290.295 175.508 290.214 175.741 290.214 176.04C290.214 176.339 290.295 176.577 290.459 176.754C290.627 176.927 290.83 177.013 291.068 177.013C291.306 177.013 291.506 176.927 291.67 176.754C291.838 176.581 291.922 176.346 291.922 176.047ZM296.372 178L295.182 176.362V178H293.985V172.82H295.182V175.683L296.365 174.094H297.842L296.218 176.054L297.856 178H296.372ZM298.914 173.688C298.704 173.688 298.531 173.627 298.396 173.506C298.265 173.38 298.2 173.226 298.2 173.044C298.2 172.857 298.265 172.703 298.396 172.582C298.531 172.456 298.704 172.393 298.914 172.393C299.119 172.393 299.287 172.456 299.418 172.582C299.553 172.703 299.621 172.857 299.621 173.044C299.621 173.226 299.553 173.38 299.418 173.506C299.287 173.627 299.119 173.688 298.914 173.688ZM299.509 174.094V178H298.312V174.094H299.509ZM302.756 174.052C303.214 174.052 303.578 174.201 303.848 174.5C304.124 174.794 304.261 175.2 304.261 175.718V178H303.071V175.879C303.071 175.618 303.004 175.415 302.868 175.27C302.733 175.125 302.551 175.053 302.322 175.053C302.094 175.053 301.912 175.125 301.776 175.27C301.641 175.415 301.573 175.618 301.573 175.879V178H300.376V174.094H301.573V174.612C301.695 174.439 301.858 174.304 302.063 174.206C302.269 174.103 302.5 174.052 302.756 174.052ZM306.577 174.038C306.853 174.038 307.093 174.094 307.298 174.206C307.508 174.318 307.669 174.465 307.781 174.647V174.094H308.978V177.993C308.978 178.352 308.906 178.677 308.761 178.966C308.621 179.26 308.404 179.493 308.11 179.666C307.821 179.839 307.459 179.925 307.025 179.925C306.447 179.925 305.978 179.787 305.618 179.512C305.259 179.241 305.054 178.873 305.002 178.406H306.185C306.223 178.555 306.311 178.672 306.451 178.756C306.591 178.845 306.764 178.889 306.969 178.889C307.217 178.889 307.413 178.817 307.557 178.672C307.707 178.532 307.781 178.306 307.781 177.993V177.44C307.665 177.622 307.504 177.771 307.298 177.888C307.093 178 306.853 178.056 306.577 178.056C306.255 178.056 305.964 177.974 305.702 177.811C305.441 177.643 305.233 177.407 305.079 177.104C304.93 176.796 304.855 176.441 304.855 176.04C304.855 175.639 304.93 175.286 305.079 174.983C305.233 174.68 305.441 174.446 305.702 174.283C305.964 174.12 306.255 174.038 306.577 174.038ZM307.781 176.047C307.781 175.748 307.697 175.513 307.529 175.34C307.366 175.167 307.165 175.081 306.927 175.081C306.689 175.081 306.486 175.167 306.318 175.34C306.155 175.508 306.073 175.741 306.073 176.04C306.073 176.339 306.155 176.577 306.318 176.754C306.486 176.927 306.689 177.013 306.927 177.013C307.165 177.013 307.366 176.927 307.529 176.754C307.697 176.581 307.781 176.346 307.781 176.047Z" fill="white"/>
</g>
<path d="M-1 8.11523C-1 3.14467 3.02944 -0.884766 8 -0.884766H600C604.971 -0.884766 609 3.14467 609 8.11523H607C607 4.24924 603.866 1.11523 600 1.11523H8C4.13401 1.11523 1 4.24924 1 8.11523H-1ZM608 261.115H0H608ZM-1 261.115V8.11523C-1 3.14467 3.02944 -0.884766 8 -0.884766V1.11523C4.13401 1.11523 1 4.24924 1 8.11523V261.115H-1ZM600 -0.884766C604.971 -0.884766 609 3.14467 609 8.11523V261.115H607V8.11523C607 4.24924 603.866 1.11523 600 1.11523V-0.884766Z" fill="#3A3A3A" mask="url(#path-1-inside-1_1160_3755)"/>
<defs>
<clipPath id="clip0_1160_3755">
<path d="M0 8.11523C0 3.69695 3.58172 0.115234 8 0.115234H600C604.418 0.115234 608 3.69696 608 8.11523V261.115H0V8.11523Z" fill="white"/>
</clipPath>
<clipPath id="clip1_1160_3755">
<rect width="9" height="9" fill="white" transform="translate(212 171)"/>
</clipPath>
</defs>
</svg>
