<svg width="608" height="166" viewBox="0 0 608 166" fill="none" xmlns="http://www.w3.org/2000/svg">
<mask id="path-1-inside-1_1795_5473" fill="white">
<path d="M0 8.45508C0 4.0368 3.58172 0.455078 8 0.455078H600C604.418 0.455078 608 4.0368 608 8.45508V165.455H0V8.45508Z"/>
</mask>
<path d="M-1 8.45508C-1 3.48452 3.02944 -0.544922 8 -0.544922H600C604.971 -0.544922 609 3.48452 609 8.45508H607C607 4.58909 603.866 1.45508 600 1.45508H8C4.13401 1.45508 1 4.58909 1 8.45508H-1ZM608 165.455H0H608ZM-1 165.455V8.45508C-1 3.48452 3.02944 -0.544922 8 -0.544922V1.45508C4.13401 1.45508 1 4.58909 1 8.45508V165.455H-1ZM600 -0.544922C604.971 -0.544922 609 3.48452 609 8.45508V165.455H607V8.45508C607 4.58909 603.866 1.45508 600 1.45508V-0.544922Z" fill="#3A3A3A" mask="url(#path-1-inside-1_1795_5473)"/>
<g clip-path="url(#clip0_1795_5473)">
<mask id="path-3-inside-2_1795_5473" fill="white">
<path d="M0.5 8.45508C0.5 4.0368 4.08172 0.455078 8.5 0.455078H599.5C603.918 0.455078 607.5 4.0368 607.5 8.45508V165.455H0.5V8.45508Z"/>
</mask>
<path d="M0 165.455V0.455078H608V165.455H0Z" fill="#141414"/>
<path d="M111.12 166.063L170.01 116.563C170.01 116.563 184.2 101.713 203.9 117.563L252.21 154.973C252.21 154.973 256.49 159.833 263.02 157.833L273.47 150.263C276.09 148.363 279.31 148.453 281.86 150.493L301.31 166.063H111.12Z" stroke="white" stroke-width="0.32" stroke-miterlimit="10"/>
<path d="M343.42 166.064L370.63 152.804C383.48 146.544 398.12 144.454 412.11 147.524C415.03 148.164 418.05 149.024 421.13 150.164L460.37 166.054H343.42V166.064Z" stroke="white" stroke-width="0.37" stroke-miterlimit="10"/>
<path d="M459.42 166.064L486.63 152.804C499.48 146.544 514.12 144.454 528.11 147.524C531.03 148.164 534.05 149.024 537.13 150.164L576.37 166.054H459.42V166.064Z" stroke="white" stroke-width="0.37" stroke-miterlimit="10"/>
<path d="M23.6396 166.064L44.8797 152.804C54.9096 146.544 66.3397 144.454 77.2597 147.524C79.5397 148.164 81.8997 149.024 84.2997 150.164L114.93 166.054H23.6396V166.064Z" stroke="white" stroke-width="0.32" stroke-miterlimit="10"/>
<path d="M306.47 166.065L304.72 129.645C304.72 129.645 306.29 120.025 293.36 107.795C293.36 107.795 269.58 89.9651 256.12 82.0951L247.47 78.1651C247.47 78.1651 238.38 76.3451 238.77 71.1451C238.86 69.9651 239.83 69.0351 241.01 68.9151C243.88 68.6351 250.34 68.5251 259.44 71.4351C259.44 71.4351 271.07 74.7551 280.68 79.3051C280.68 79.3051 300.44 86.0351 314.34 86.6451C314.34 86.6451 328.5 89.6151 332.44 103.605C332.44 103.605 343.97 160.705 347.84 166.075H306.47V166.065Z" fill="#D8D8D8" stroke="black" stroke-width="0.5" stroke-miterlimit="10"/>
<path d="M222.239 60.2351C222.239 60.2351 217.649 58.4851 219.139 54.2051C219.139 54.2051 221.329 49.2251 229.369 51.6651C229.369 51.6651 249.389 57.8751 261.709 64.5151L280.199 72.2251C280.419 72.3151 280.619 72.0351 280.449 71.8651L269.409 60.4951C269.409 60.4951 265.209 56.9151 268.539 52.8851C268.539 52.8851 271.769 50.6951 276.759 56.2951C276.759 56.2951 288.909 65.6451 304.999 72.6451C304.999 72.6451 326.919 84.1051 326.929 93.8951C326.929 93.8951 320.359 86.6151 311.239 86.4051C311.239 86.4051 300.079 86.1651 276.839 77.5651C276.839 77.5651 258.059 68.1251 240.399 68.7651C240.399 68.7651 238.699 69.9451 238.779 71.1351L223.429 61.4951C222.649 61.0051 222.199 60.1251 222.259 59.2051C222.349 57.6751 223.119 55.6651 226.579 55.9451L252.369 65.5651" fill="#D8D8D8"/>
<path d="M222.239 60.2351C222.239 60.2351 217.649 58.4851 219.139 54.2051C219.139 54.2051 221.329 49.2251 229.369 51.6651C229.369 51.6651 249.389 57.8751 261.709 64.5151L280.199 72.2251C280.419 72.3151 280.619 72.0351 280.449 71.8651L269.409 60.4951C269.409 60.4951 265.209 56.9151 268.539 52.8851C268.539 52.8851 271.769 50.6951 276.759 56.2951C276.759 56.2951 288.909 65.6451 304.999 72.6451C304.999 72.6451 326.919 84.1051 326.929 93.8951C326.929 93.8951 320.359 86.6151 311.239 86.4051C311.239 86.4051 300.079 86.1651 276.839 77.5651C276.839 77.5651 258.059 68.1251 240.399 68.7651C240.399 68.7651 238.699 69.9451 238.779 71.1351L223.429 61.4951C222.649 61.0051 222.199 60.1251 222.259 59.2051C222.349 57.6751 223.119 55.6651 226.579 55.9451L252.369 65.5651" stroke="black" stroke-width="0.5" stroke-miterlimit="10"/>
<path d="M347.88 163.875C347.88 163.875 305.95 158.605 300.76 151.325C300.76 151.325 295.97 145.305 305.18 139.305" stroke="#E50913" stroke-miterlimit="10"/>
<path d="M266.22 88.4941C266.22 88.4941 265.62 93.7441 275.87 98.8741C275.87 98.8741 283.07 102.294 287.45 103.444" stroke="#E50913" stroke-miterlimit="10"/>
<path d="M276.819 77.5745C276.819 77.5745 290.669 67.6145 294.629 46.3945" stroke="#E50913" stroke-miterlimit="10"/>
<path d="M257.05 102.135C257.05 102.135 262.65 91.2346 272.88 98.3146C272.88 98.3146 267.11 110.585 257.05 102.135Z" fill="#A5A5A5"/>
<path d="M351.64 114.665C351.64 114.665 354.79 101.575 364.93 106.195C364.93 106.195 365.45 118.165 351.64 114.665Z" fill="#A5A5A5"/>
<path d="M460.879 165.407V138.637" stroke="white" stroke-width="0.45" stroke-miterlimit="10"/>
<path d="M461.52 160.735C461.52 160.735 462.74 148.605 475.22 152.015C475.22 152.015 475.16 165.685 461.52 160.735Z" fill="#A5A5A5"/>
<path d="M459.999 152.017C459.999 152.017 459.829 140.397 445.659 143.597C445.659 143.597 446.239 156.527 459.999 152.017Z" fill="#A5A5A5"/>
<path d="M460.37 138.635C470.272 138.635 478.3 130.608 478.3 120.705C478.3 110.803 470.272 102.775 460.37 102.775C450.467 102.775 442.44 110.803 442.44 120.705C442.44 130.608 450.467 138.635 460.37 138.635Z" fill="#232323"/>
<path d="M461 134.826C468.373 134.826 474.35 128.786 474.35 121.336C474.35 113.885 468.373 107.846 461 107.846C453.627 107.846 447.65 113.885 447.65 121.336C447.65 128.786 453.627 134.826 461 134.826Z" fill="white"/>
<path d="M461.319 138.184C470.703 138.184 478.309 130.64 478.309 121.334C478.309 112.028 470.703 104.484 461.319 104.484C451.936 104.484 444.329 112.028 444.329 121.334C444.329 130.64 451.936 138.184 461.319 138.184Z" fill="#2D2D2D"/>
<path d="M112.709 122.244V163.494" stroke="white" stroke-width="0.5" stroke-miterlimit="10"/>
<path d="M112.129 137.624C112.129 137.624 94.9094 144.454 93.8594 126.394C93.8594 126.394 110.029 121.624 112.129 137.624Z" fill="#A5A5A5"/>
<path d="M112.709 147.334C112.709 147.334 115.189 132.564 131.279 137.364C131.279 137.364 130.859 154.494 112.709 148.294V147.334Z" fill="#A5A5A5"/>
<path d="M112.319 121.584C122.227 121.584 130.259 113.655 130.259 103.874C130.259 94.0931 122.227 86.1641 112.319 86.1641C102.411 86.1641 94.3789 94.0931 94.3789 103.874C94.3789 113.655 102.411 121.584 112.319 121.584Z" fill="#232323"/>
<path d="M113.269 121.583C122.653 121.583 130.259 114.039 130.259 104.733C130.259 95.4268 122.653 87.8828 113.269 87.8828C103.886 87.8828 96.2793 95.4268 96.2793 104.733C96.2793 114.039 103.886 121.583 113.269 121.583Z" fill="#2D2D2D"/>
<path d="M112.939 118.224C120.312 118.224 126.289 112.184 126.289 104.734C126.289 97.2838 120.312 91.2441 112.939 91.2441C105.566 91.2441 99.5889 97.2838 99.5889 104.734C99.5889 112.184 105.566 118.224 112.939 118.224Z" fill="#2D2D2D"/>
<path d="M287.46 103.436C307.51 109.006 333.74 109.566 336.03 109.606C353.85 111.646 354.01 117.066 354.01 117.066C355.74 123.876 342.04 131.486 338.77 131.966" stroke="#E50913" stroke-miterlimit="10"/>
<g clip-path="url(#clip1_1795_5473)">
<path d="M294.5 46.1359C303.136 46.1359 310.136 39.1353 310.136 30.4996C310.136 21.8639 303.136 14.8633 294.5 14.8633C285.864 14.8633 278.864 21.8639 278.864 30.4996C278.864 39.1353 285.864 46.1359 294.5 46.1359Z" fill="white"/>
<path d="M294.522 39.024C290.524 39.0536 287.164 35.7639 287.179 31.6557C287.194 27.648 290.488 24.3712 294.528 24.3789C298.542 24.3867 301.788 27.6415 301.824 31.6325C301.862 35.7562 298.497 39.0368 294.523 39.0227L294.522 39.024ZM294.488 26.2983C291.527 26.3099 289.104 28.7179 289.1 31.6905C289.097 34.6682 291.516 37.1033 294.486 37.1071C297.467 37.111 299.888 34.6953 299.905 31.7214C299.922 28.6728 297.42 26.2945 294.488 26.2983Z" fill="#111111"/>
<path d="M296.026 31.713C296.017 32.5612 295.33 33.2354 294.483 33.2251C293.63 33.2161 292.962 32.5251 292.975 31.6641C292.988 30.8274 293.676 30.1662 294.524 30.1739C295.362 30.1816 296.035 30.87 296.026 31.7117V31.713Z" fill="#111111"/>
<path d="M287.119 23.7734L301.882 23.7734V21.9791H287.119V23.7734Z" fill="#FF6700"/>
</g>
<path d="M467.206 122.128C467.523 122.302 467.826 122.503 468.11 122.73C469.101 123.54 469.521 124.594 469.361 125.885C469.255 126.843 468.927 127.76 468.404 128.559C467.76 129.522 466.846 130.043 465.744 130.238C464.83 130.4 463.918 130.348 463.006 130.222C462.674 130.177 462.344 130.119 462.016 130.056C461.909 130.035 461.876 130.07 461.852 130.175C461.601 131.229 461.34 132.281 461.091 133.337C461.056 133.486 461.014 133.512 460.868 133.472C460.292 133.312 459.711 133.166 459.132 133.022C459.025 132.998 459.014 132.968 459.038 132.865C459.296 131.817 459.546 130.766 459.804 129.719C459.833 129.6 459.822 129.551 459.698 129.52C459.249 129.406 458.801 129.286 458.355 129.158C458.241 129.125 458.208 129.158 458.182 129.268C457.931 130.323 457.671 131.376 457.421 132.43C457.392 132.549 457.359 132.569 457.246 132.54C456.66 132.384 456.072 132.233 455.481 132.087C455.374 132.061 455.36 132.015 455.384 131.911C455.644 130.853 455.895 129.793 456.156 128.732C456.19 128.595 456.163 128.55 456.033 128.513C454.756 128.184 453.489 127.855 452.217 127.526C452.127 127.503 452.099 127.48 452.142 127.381C452.452 126.651 452.759 125.92 453.062 125.189C453.1 125.096 453.148 125.098 453.229 125.121C453.667 125.239 454.104 125.362 454.546 125.463C455.097 125.589 455.422 125.367 455.558 124.805C455.978 123.073 456.397 121.34 456.818 119.608C457.137 118.293 457.456 116.977 457.775 115.662C457.904 115.129 457.633 114.616 457.102 114.406C456.689 114.261 456.266 114.143 455.838 114.054C455.713 114.022 455.588 113.988 455.462 113.964C455.393 113.951 455.383 113.924 455.399 113.854C455.566 113.172 455.733 112.489 455.894 111.803C455.921 111.681 455.992 111.72 456.057 111.737C456.562 111.865 457.064 111.999 457.569 112.126C458.333 112.317 459.09 112.537 459.858 112.713C459.985 112.743 460.033 112.726 460.066 112.588C460.31 111.548 460.566 110.506 460.81 109.471C460.841 109.34 460.879 109.303 461.012 109.339C461.589 109.497 462.169 109.645 462.749 109.788C462.871 109.818 462.883 109.867 462.855 109.984C462.602 111.011 462.356 112.04 462.104 113.067C462.077 113.177 462.088 113.209 462.201 113.235C462.652 113.337 463.103 113.447 463.551 113.564C463.679 113.599 463.716 113.556 463.744 113.438C463.983 112.434 464.227 111.432 464.464 110.428C464.497 110.29 464.535 110.24 464.688 110.283C465.258 110.442 465.833 110.587 466.408 110.728C466.521 110.756 466.543 110.794 466.514 110.911C466.257 111.959 466.009 113.009 465.748 114.056C465.715 114.19 465.748 114.229 465.863 114.275C466.662 114.543 467.421 114.92 468.123 115.396C468.781 115.859 469.327 116.425 469.623 117.207C469.942 118.063 469.879 118.924 469.63 119.782C469.279 120.995 468.507 121.763 467.314 122.084C467.274 122.09 467.247 122.105 467.206 122.128ZM462.583 127.302H462.721C463.219 127.286 463.708 127.23 464.162 127.003C465.31 126.429 465.556 124.855 464.649 123.897C464.118 123.338 463.456 123.02 462.763 122.754C461.912 122.426 461.016 122.237 460.131 122.017C460.002 121.985 459.977 122.027 459.951 122.138C459.605 123.585 459.256 125.029 458.902 126.473C458.873 126.589 458.908 126.617 459.008 126.642C459.388 126.736 459.765 126.842 460.144 126.937C460.941 127.149 461.758 127.27 462.58 127.297L462.583 127.302ZM463.5 120.44C463.773 120.445 464.046 120.421 464.314 120.368C465.024 120.215 465.537 119.82 465.743 119.082C465.949 118.344 465.78 117.679 465.211 117.146C464.909 116.872 464.567 116.65 464.196 116.489C463.37 116.108 462.488 115.917 461.609 115.714C461.503 115.688 461.494 115.756 461.476 115.832C461.349 116.361 461.22 116.891 461.09 117.42C460.904 118.188 460.719 118.963 460.527 119.732C460.5 119.842 460.518 119.89 460.634 119.916C460.855 119.965 461.071 120.034 461.291 120.09C462.017 120.265 462.745 120.432 463.497 120.435L463.5 120.44Z" fill="white"/>
<path d="M119.206 105.128C119.523 105.302 119.826 105.503 120.11 105.73C121.101 106.54 121.521 107.594 121.361 108.885C121.255 109.843 120.927 110.76 120.404 111.559C119.76 112.522 118.846 113.043 117.744 113.238C116.83 113.4 115.918 113.348 115.006 113.222C114.674 113.177 114.344 113.119 114.016 113.056C113.909 113.035 113.876 113.07 113.852 113.175C113.601 114.229 113.34 115.281 113.091 116.337C113.056 116.486 113.014 116.512 112.868 116.472C112.292 116.312 111.711 116.166 111.132 116.022C111.025 115.998 111.014 115.968 111.038 115.865C111.296 114.817 111.546 113.766 111.804 112.719C111.833 112.6 111.822 112.551 111.698 112.52C111.249 112.406 110.801 112.286 110.355 112.158C110.241 112.125 110.208 112.158 110.182 112.268C109.931 113.323 109.671 114.376 109.421 115.43C109.392 115.549 109.359 115.569 109.246 115.54C108.66 115.384 108.072 115.233 107.481 115.087C107.374 115.061 107.36 115.015 107.384 114.911C107.644 113.853 107.895 112.793 108.156 111.732C108.19 111.595 108.163 111.55 108.033 111.513C106.756 111.184 105.489 110.855 104.217 110.526C104.127 110.503 104.099 110.48 104.142 110.381C104.452 109.651 104.759 108.92 105.062 108.189C105.1 108.096 105.148 108.098 105.229 108.121C105.667 108.239 106.104 108.362 106.546 108.463C107.097 108.589 107.422 108.367 107.558 107.805C107.978 106.073 108.397 104.34 108.818 102.608C109.137 101.293 109.456 99.9775 109.775 98.6621C109.904 98.1293 109.633 97.6163 109.102 97.4058C108.689 97.2607 108.266 97.1432 107.838 97.054C107.713 97.0222 107.588 96.9882 107.462 96.9641C107.393 96.9509 107.383 96.9235 107.399 96.8545C107.566 96.1715 107.733 95.4886 107.894 94.8035C107.921 94.6807 107.992 94.7202 108.057 94.7366C108.562 94.8649 109.064 94.9986 109.569 95.1258C110.333 95.3165 111.09 95.5368 111.858 95.7133C111.985 95.7429 112.033 95.7265 112.066 95.5884C112.31 94.5481 112.566 93.5056 112.81 92.4708C112.841 92.3404 112.879 92.3031 113.012 92.3393C113.589 92.4971 114.169 92.6451 114.749 92.7876C114.871 92.8183 114.883 92.8665 114.855 92.9838C114.602 94.0109 114.356 95.0403 114.104 96.0674C114.077 96.177 114.088 96.2088 114.201 96.2351C114.652 96.3371 115.103 96.4467 115.551 96.564C115.679 96.599 115.716 96.5563 115.744 96.4379C115.983 95.4338 116.227 94.4319 116.464 93.4278C116.497 93.2896 116.535 93.2403 116.688 93.2831C117.258 93.442 117.833 93.5867 118.408 93.7281C118.521 93.7555 118.543 93.7939 118.514 93.9112C118.257 94.9591 118.009 96.0093 117.748 97.0562C117.715 97.1899 117.748 97.2293 117.863 97.2754C118.662 97.5433 119.421 97.9201 120.123 98.3957C120.781 98.8594 121.327 99.425 121.623 100.207C121.942 101.063 121.879 101.924 121.63 102.782C121.279 103.995 120.507 104.763 119.314 105.084C119.274 105.09 119.247 105.105 119.206 105.128ZM114.583 110.302H114.721C115.219 110.286 115.708 110.23 116.162 110.003C117.31 109.429 117.556 107.855 116.649 106.897C116.118 106.338 115.456 106.02 114.763 105.754C113.912 105.426 113.016 105.237 112.131 105.017C112.002 104.985 111.977 105.027 111.951 105.138C111.605 106.585 111.256 108.029 110.902 109.473C110.873 109.589 110.908 109.617 111.008 109.642C111.388 109.736 111.765 109.842 112.144 109.937C112.941 110.149 113.758 110.27 114.58 110.297L114.583 110.302ZM115.5 103.44C115.773 103.445 116.046 103.421 116.314 103.368C117.024 103.215 117.537 102.82 117.743 102.082C117.949 101.344 117.78 100.679 117.211 100.146C116.909 99.8723 116.567 99.6502 116.196 99.4886C115.37 99.1082 114.488 98.9175 113.609 98.7136C113.503 98.6884 113.494 98.7563 113.476 98.832C113.349 99.3611 113.22 99.8905 113.09 100.42C112.904 101.188 112.719 101.963 112.527 102.732C112.5 102.842 112.518 102.89 112.634 102.916C112.855 102.965 113.071 103.034 113.291 103.09C114.017 103.265 114.745 103.432 115.497 103.435L115.5 103.44Z" fill="white"/>
</g>
<path d="M-0.5 8.45508C-0.5 3.48452 3.52944 -0.544922 8.5 -0.544922H599.5C604.471 -0.544922 608.5 3.48452 608.5 8.45508H606.5C606.5 4.58909 603.366 1.45508 599.5 1.45508H8.5C4.63401 1.45508 1.5 4.58909 1.5 8.45508H-0.5ZM607.5 165.455H0.5H607.5ZM-0.5 165.455V8.45508C-0.5 3.48452 3.52944 -0.544922 8.5 -0.544922V1.45508C4.63401 1.45508 1.5 4.58909 1.5 8.45508V165.455H-0.5ZM599.5 -0.544922C604.471 -0.544922 608.5 3.48452 608.5 8.45508V165.455H606.5V8.45508C606.5 4.58909 603.366 1.45508 599.5 1.45508V-0.544922Z" fill="#3A3A3A" mask="url(#path-3-inside-2_1795_5473)"/>
<defs>
<clipPath id="clip0_1795_5473">
<path d="M0.5 8.45508C0.5 4.0368 4.08172 0.455078 8.5 0.455078H599.5C603.918 0.455078 607.5 4.0368 607.5 8.45508V165.455H0.5V8.45508Z" fill="white"/>
</clipPath>
<clipPath id="clip1_1795_5473">
<rect width="33" height="33" fill="white" transform="translate(278 14)"/>
</clipPath>
</defs>
</svg>
