<svg width="608" height="166" viewBox="0 0 608 166" fill="none" xmlns="http://www.w3.org/2000/svg">
<mask id="path-1-inside-1_1160_3640" fill="white">
<path d="M0 8.45508C0 4.0368 3.58172 0.455078 8 0.455078H600C604.418 0.455078 608 4.0368 608 8.45508V165.455H0V8.45508Z"/>
</mask>
<path d="M-1 8.45508C-1 3.48452 3.02944 -0.544922 8 -0.544922H600C604.971 -0.544922 609 3.48452 609 8.45508H607C607 4.58909 603.866 1.45508 600 1.45508H8C4.13401 1.45508 1 4.58909 1 8.45508H-1ZM608 165.455H0H608ZM-1 165.455V8.45508C-1 3.48452 3.02944 -0.544922 8 -0.544922V1.45508C4.13401 1.45508 1 4.58909 1 8.45508V165.455H-1ZM600 -0.544922C604.971 -0.544922 609 3.48452 609 8.45508V165.455H607V8.45508C607 4.58909 603.866 1.45508 600 1.45508V-0.544922Z" fill="#3A3A3A" mask="url(#path-1-inside-1_1160_3640)"/>
<g clip-path="url(#clip0_1160_3640)">
<mask id="path-3-inside-2_1160_3640" fill="white">
<path d="M0.5 8.45508C0.5 4.0368 4.08172 0.455078 8.5 0.455078H599.5C603.918 0.455078 607.5 4.0368 607.5 8.45508V165.455H0.5V8.45508Z"/>
</mask>
<path d="M0 165.455V0.455078H608V165.455H0Z" fill="#141414"/>
<path d="M111.12 166.065L170.01 116.565C170.01 116.565 184.2 101.715 203.9 117.565L252.21 154.975C252.21 154.975 256.49 159.835 263.02 157.835L273.47 150.265C276.09 148.365 279.31 148.455 281.86 150.495L301.31 166.065H111.12Z" stroke="white" stroke-width="0.32" stroke-miterlimit="10"/>
<path d="M343.42 166.065L370.63 152.805C383.48 146.545 398.12 144.455 412.11 147.525C415.03 148.165 418.05 149.025 421.13 150.165L460.37 166.055H343.42V166.065Z" stroke="white" stroke-width="0.37" stroke-miterlimit="10"/>
<path d="M459.42 166.065L486.63 152.805C499.48 146.545 514.12 144.455 528.11 147.525C531.03 148.165 534.05 149.025 537.13 150.165L576.37 166.055H459.42V166.065Z" stroke="white" stroke-width="0.37" stroke-miterlimit="10"/>
<path d="M23.6399 166.065L44.8799 152.805C54.9099 146.545 66.3399 144.455 77.2599 147.525C79.5399 148.165 81.8999 149.025 84.2999 150.165L114.93 166.055H23.6399V166.065Z" stroke="white" stroke-width="0.32" stroke-miterlimit="10"/>
<path d="M306.47 166.065L304.72 129.645C304.72 129.645 306.29 120.025 293.36 107.795C293.36 107.795 269.58 89.9651 256.12 82.0951L247.47 78.1651C247.47 78.1651 238.38 76.3451 238.77 71.1451C238.86 69.9651 239.83 69.0351 241.01 68.9151C243.88 68.6351 250.34 68.5251 259.44 71.4351C259.44 71.4351 271.07 74.7551 280.68 79.3051C280.68 79.3051 300.44 86.0351 314.34 86.6451C314.34 86.6451 328.5 89.6151 332.44 103.605C332.44 103.605 343.97 160.705 347.84 166.075H306.47V166.065Z" fill="#D8D8D8" stroke="black" stroke-width="0.5" stroke-miterlimit="10"/>
<path d="M222.24 60.2351C222.24 60.2351 217.65 58.4851 219.14 54.2051C219.14 54.2051 221.33 49.2251 229.37 51.6651C229.37 51.6651 249.39 57.8751 261.71 64.5151L280.2 72.2251C280.42 72.3151 280.62 72.0351 280.45 71.8651L269.41 60.4951C269.41 60.4951 265.21 56.9151 268.54 52.8851C268.54 52.8851 271.77 50.6951 276.76 56.2951C276.76 56.2951 288.91 65.6451 305 72.6451C305 72.6451 326.92 84.1051 326.93 93.8951C326.93 93.8951 320.36 86.6151 311.24 86.4051C311.24 86.4051 300.08 86.1651 276.84 77.5651C276.84 77.5651 258.06 68.1251 240.4 68.7651C240.4 68.7651 238.7 69.9451 238.78 71.1351L223.43 61.4951C222.65 61.0051 222.2 60.1251 222.26 59.2051C222.35 57.6751 223.12 55.6651 226.58 55.9451L252.37 65.5651" fill="#D8D8D8"/>
<path d="M222.24 60.2351C222.24 60.2351 217.65 58.4851 219.14 54.2051C219.14 54.2051 221.33 49.2251 229.37 51.6651C229.37 51.6651 249.39 57.8751 261.71 64.5151L280.2 72.2251C280.42 72.3151 280.62 72.0351 280.45 71.8651L269.41 60.4951C269.41 60.4951 265.21 56.9151 268.54 52.8851C268.54 52.8851 271.77 50.6951 276.76 56.2951C276.76 56.2951 288.91 65.6451 305 72.6451C305 72.6451 326.92 84.1051 326.93 93.8951C326.93 93.8951 320.36 86.6151 311.24 86.4051C311.24 86.4051 300.08 86.1651 276.84 77.5651C276.84 77.5651 258.06 68.1251 240.4 68.7651C240.4 68.7651 238.7 69.9451 238.78 71.1351L223.43 61.4951C222.65 61.0051 222.2 60.1251 222.26 59.2051C222.35 57.6751 223.12 55.6651 226.58 55.9451L252.37 65.5651" stroke="black" stroke-width="0.5" stroke-miterlimit="10"/>
<path d="M347.88 163.876C347.88 163.876 305.95 158.606 300.76 151.326C300.76 151.326 295.97 145.306 305.18 139.306" stroke="#E50913" stroke-miterlimit="10"/>
<path d="M266.22 88.4951C266.22 88.4951 265.62 93.7451 275.87 98.8751C275.87 98.8751 283.07 102.295 287.45 103.445" stroke="#E50913" stroke-miterlimit="10"/>
<path d="M276.82 77.5755C276.82 77.5755 290.67 67.6155 294.63 46.3955" stroke="#E50913" stroke-miterlimit="10"/>
<path d="M257.05 102.136C257.05 102.136 262.65 91.2356 272.88 98.3156C272.88 98.3156 267.11 110.586 257.05 102.136Z" fill="#A5A5A5"/>
<path d="M351.64 114.666C351.64 114.666 354.79 101.576 364.93 106.196C364.93 106.196 365.45 118.166 351.64 114.666Z" fill="#A5A5A5"/>
<path d="M293.69 47.8155C303.598 47.8155 311.63 39.8865 311.63 30.1055C311.63 20.3245 303.598 12.3955 293.69 12.3955C283.782 12.3955 275.75 20.3245 275.75 30.1055C275.75 39.8865 283.782 47.8155 293.69 47.8155Z" fill="#2D2D2D"/>
<path d="M294.63 47.8055C304.013 47.8055 311.62 40.2615 311.62 30.9555C311.62 21.6495 304.013 14.1055 294.63 14.1055C285.247 14.1055 277.64 21.6495 277.64 30.9555C277.64 40.2615 285.247 47.8055 294.63 47.8055Z" fill="white"/>
<path d="M294.31 44.4458C301.683 44.4458 307.66 38.4061 307.66 30.9558C307.66 23.5055 301.683 17.4658 294.31 17.4658C286.937 17.4658 280.96 23.5055 280.96 30.9558C280.96 38.4061 286.937 44.4458 294.31 44.4458Z" fill="white"/>
<path d="M460.88 165.406V138.636" stroke="white" stroke-width="0.45" stroke-miterlimit="10"/>
<path d="M461.52 160.736C461.52 160.736 462.74 148.606 475.22 152.016C475.22 152.016 475.16 165.686 461.52 160.736Z" fill="#A5A5A5"/>
<path d="M460 152.016C460 152.016 459.83 140.396 445.66 143.596C445.66 143.596 446.24 156.526 460 152.016Z" fill="#A5A5A5"/>
<path d="M460.37 138.635C470.272 138.635 478.3 130.608 478.3 120.705C478.3 110.803 470.272 102.775 460.37 102.775C450.467 102.775 442.44 110.803 442.44 120.705C442.44 130.608 450.467 138.635 460.37 138.635Z" fill="#232323"/>
<path d="M461 134.826C468.373 134.826 474.35 128.786 474.35 121.336C474.35 113.885 468.373 107.846 461 107.846C453.627 107.846 447.65 113.885 447.65 121.336C447.65 128.786 453.627 134.826 461 134.826Z" fill="white"/>
<path d="M461.32 138.185C470.703 138.185 478.31 130.641 478.31 121.335C478.31 112.029 470.703 104.485 461.32 104.485C451.937 104.485 444.33 112.029 444.33 121.335C444.33 130.641 451.937 138.185 461.32 138.185Z" fill="#2D2D2D"/>
<path d="M112.71 122.245V163.495" stroke="white" stroke-width="0.5" stroke-miterlimit="10"/>
<path d="M112.13 137.625C112.13 137.625 94.9099 144.455 93.8599 126.395C93.8599 126.395 110.03 121.625 112.13 137.625Z" fill="#A5A5A5"/>
<path d="M112.71 147.335C112.71 147.335 115.19 132.565 131.28 137.365C131.28 137.365 130.86 154.495 112.71 148.295V147.335Z" fill="#A5A5A5"/>
<path d="M112.32 121.585C122.228 121.585 130.26 113.656 130.26 103.875C130.26 94.0941 122.228 86.165 112.32 86.165C102.412 86.165 94.3799 94.0941 94.3799 103.875C94.3799 113.656 102.412 121.585 112.32 121.585Z" fill="#232323"/>
<path d="M113.27 121.585C122.653 121.585 130.26 114.041 130.26 104.735C130.26 95.4288 122.653 87.8848 113.27 87.8848C103.886 87.8848 96.2798 95.4288 96.2798 104.735C96.2798 114.041 103.886 121.585 113.27 121.585Z" fill="#2D2D2D"/>
<path d="M112.94 118.225C120.313 118.225 126.29 112.185 126.29 104.735C126.29 97.2848 120.313 91.2451 112.94 91.2451C105.567 91.2451 99.5898 97.2848 99.5898 104.735C99.5898 112.185 105.567 118.225 112.94 118.225Z" fill="#2D2D2D"/>
<path d="M287.46 103.436C307.51 109.006 333.74 109.566 336.03 109.606C353.85 111.646 354.01 117.066 354.01 117.066C355.74 123.876 342.04 131.486 338.77 131.966" stroke="#E50913" stroke-miterlimit="10"/>
<path d="M299.79 21.9746H289.05V24.2246H299.79V21.9746Z" fill="#E50913"/>
<path d="M294.41 39.6147C293.39 39.6147 292.48 39.4447 291.67 39.1147C290.86 38.7847 290.21 38.2947 289.72 37.6447C289.24 36.9947 288.99 36.2147 288.97 35.3047H292.58C292.63 35.8247 292.81 36.2147 293.12 36.4947C293.42 36.7547 293.82 36.8947 294.31 36.8947C294.8 36.8947 295.21 36.7847 295.5 36.5547C295.79 36.3147 295.94 35.9947 295.94 35.5847C295.94 35.2447 295.82 34.9547 295.58 34.7347C295.35 34.5047 295.07 34.3247 294.73 34.1747C294.4 34.0247 293.92 33.8647 293.3 33.6747C292.4 33.3947 291.67 33.1147 291.1 32.8447C290.53 32.5647 290.04 32.1547 289.63 31.6147C289.22 31.0747 289.01 30.3647 289.01 29.4947C289.01 28.1947 289.48 27.1847 290.42 26.4547C291.36 25.7147 292.58 25.3447 294.09 25.3447C295.63 25.3447 296.86 25.7147 297.8 26.4547C298.74 27.1847 299.24 28.2047 299.31 29.5147H295.64C295.61 29.0647 295.45 28.7147 295.14 28.4647C294.84 28.2047 294.45 28.0647 293.97 28.0647C293.56 28.0647 293.23 28.1747 292.98 28.4047C292.73 28.6147 292.6 28.9247 292.6 29.3347C292.6 29.7847 292.81 30.1347 293.24 30.3847C293.66 30.6347 294.33 30.9047 295.23 31.1947C296.13 31.4947 296.86 31.7947 297.41 32.0647C297.98 32.3447 298.47 32.7447 298.88 33.2747C299.29 33.8047 299.5 34.4847 299.5 35.3247C299.5 36.1147 299.29 36.8447 298.88 37.4847C298.48 38.1347 297.9 38.6447 297.13 39.0347C296.36 39.4147 295.46 39.6147 294.41 39.6147Z" fill="#141414"/>
<path d="M467.206 122.128C467.523 122.302 467.826 122.503 468.11 122.73C469.101 123.54 469.521 124.594 469.361 125.885C469.255 126.843 468.927 127.76 468.404 128.559C467.76 129.522 466.846 130.043 465.744 130.238C464.83 130.4 463.918 130.348 463.006 130.222C462.674 130.177 462.344 130.119 462.016 130.056C461.909 130.035 461.876 130.07 461.852 130.175C461.601 131.229 461.34 132.281 461.091 133.337C461.056 133.486 461.014 133.512 460.868 133.472C460.292 133.312 459.711 133.166 459.132 133.022C459.025 132.998 459.014 132.968 459.038 132.865C459.296 131.817 459.546 130.766 459.804 129.719C459.833 129.6 459.822 129.551 459.698 129.52C459.249 129.406 458.801 129.286 458.355 129.158C458.241 129.125 458.208 129.158 458.182 129.268C457.931 130.323 457.671 131.376 457.421 132.43C457.392 132.549 457.359 132.569 457.246 132.54C456.66 132.384 456.072 132.233 455.481 132.087C455.374 132.061 455.36 132.015 455.384 131.911C455.644 130.853 455.895 129.793 456.156 128.732C456.19 128.595 456.163 128.55 456.033 128.513C454.756 128.184 453.489 127.855 452.217 127.526C452.127 127.503 452.099 127.48 452.142 127.381C452.452 126.651 452.759 125.92 453.062 125.189C453.1 125.096 453.148 125.098 453.229 125.121C453.667 125.239 454.104 125.362 454.546 125.463C455.097 125.589 455.422 125.367 455.558 124.805C455.978 123.073 456.397 121.34 456.818 119.608C457.137 118.293 457.456 116.977 457.775 115.662C457.904 115.129 457.633 114.616 457.102 114.406C456.689 114.261 456.266 114.143 455.838 114.054C455.713 114.022 455.588 113.988 455.462 113.964C455.393 113.951 455.383 113.924 455.399 113.854C455.566 113.172 455.733 112.489 455.894 111.803C455.921 111.681 455.992 111.72 456.057 111.737C456.562 111.865 457.064 111.999 457.569 112.126C458.333 112.317 459.09 112.537 459.858 112.713C459.985 112.743 460.033 112.726 460.066 112.588C460.31 111.548 460.566 110.506 460.81 109.471C460.841 109.34 460.879 109.303 461.012 109.339C461.589 109.497 462.169 109.645 462.749 109.788C462.871 109.818 462.883 109.867 462.855 109.984C462.602 111.011 462.356 112.04 462.104 113.067C462.077 113.177 462.088 113.209 462.201 113.235C462.652 113.337 463.103 113.447 463.551 113.564C463.679 113.599 463.716 113.556 463.744 113.438C463.983 112.434 464.227 111.432 464.464 110.428C464.497 110.29 464.535 110.24 464.688 110.283C465.258 110.442 465.833 110.587 466.408 110.728C466.521 110.756 466.543 110.794 466.514 110.911C466.257 111.959 466.009 113.009 465.748 114.056C465.715 114.19 465.748 114.229 465.863 114.275C466.662 114.543 467.421 114.92 468.123 115.396C468.781 115.859 469.327 116.425 469.623 117.207C469.942 118.063 469.879 118.924 469.63 119.782C469.279 120.995 468.507 121.763 467.314 122.084C467.274 122.09 467.247 122.105 467.206 122.128ZM462.583 127.302H462.721C463.219 127.286 463.708 127.23 464.162 127.003C465.31 126.429 465.556 124.855 464.649 123.897C464.118 123.338 463.456 123.02 462.763 122.754C461.912 122.426 461.016 122.237 460.131 122.017C460.002 121.985 459.977 122.027 459.951 122.138C459.605 123.585 459.256 125.029 458.902 126.473C458.873 126.589 458.908 126.617 459.008 126.642C459.388 126.736 459.765 126.842 460.144 126.937C460.941 127.149 461.758 127.27 462.58 127.297L462.583 127.302ZM463.5 120.44C463.773 120.445 464.046 120.421 464.314 120.368C465.024 120.215 465.537 119.82 465.743 119.082C465.949 118.344 465.78 117.679 465.211 117.146C464.909 116.872 464.567 116.65 464.196 116.489C463.37 116.108 462.488 115.917 461.609 115.714C461.503 115.688 461.494 115.756 461.476 115.832C461.349 116.361 461.22 116.891 461.09 117.42C460.904 118.188 460.719 118.963 460.527 119.732C460.5 119.842 460.518 119.89 460.634 119.916C460.855 119.965 461.071 120.034 461.291 120.09C462.017 120.265 462.745 120.432 463.497 120.435L463.5 120.44Z" fill="white"/>
<path d="M119.206 105.128C119.523 105.302 119.826 105.503 120.11 105.73C121.101 106.54 121.521 107.594 121.361 108.885C121.255 109.843 120.927 110.76 120.404 111.559C119.76 112.522 118.846 113.043 117.744 113.238C116.83 113.4 115.918 113.348 115.006 113.222C114.674 113.177 114.344 113.119 114.016 113.056C113.909 113.035 113.876 113.07 113.852 113.175C113.601 114.229 113.34 115.281 113.091 116.337C113.056 116.486 113.014 116.512 112.868 116.472C112.292 116.312 111.711 116.166 111.132 116.022C111.025 115.998 111.014 115.968 111.038 115.865C111.296 114.817 111.546 113.766 111.804 112.719C111.833 112.6 111.822 112.551 111.698 112.52C111.249 112.406 110.801 112.286 110.355 112.158C110.241 112.125 110.208 112.158 110.182 112.268C109.931 113.323 109.671 114.376 109.421 115.43C109.392 115.549 109.359 115.569 109.246 115.54C108.66 115.384 108.072 115.233 107.481 115.087C107.374 115.061 107.36 115.015 107.384 114.911C107.644 113.853 107.895 112.793 108.156 111.732C108.19 111.595 108.163 111.55 108.033 111.513C106.756 111.184 105.489 110.855 104.217 110.526C104.127 110.503 104.099 110.48 104.142 110.381C104.452 109.651 104.759 108.92 105.062 108.189C105.1 108.096 105.148 108.098 105.229 108.121C105.667 108.239 106.104 108.362 106.546 108.463C107.097 108.589 107.422 108.367 107.558 107.805C107.978 106.073 108.397 104.34 108.818 102.608C109.137 101.293 109.456 99.9775 109.775 98.6621C109.904 98.1293 109.633 97.6163 109.102 97.4058C108.689 97.2607 108.266 97.1432 107.838 97.054C107.713 97.0222 107.588 96.9882 107.462 96.9641C107.393 96.9509 107.383 96.9235 107.399 96.8545C107.566 96.1715 107.733 95.4886 107.894 94.8035C107.921 94.6807 107.992 94.7202 108.057 94.7366C108.562 94.8649 109.064 94.9986 109.569 95.1258C110.333 95.3165 111.09 95.5368 111.858 95.7133C111.985 95.7429 112.033 95.7265 112.066 95.5884C112.31 94.5481 112.566 93.5056 112.81 92.4708C112.841 92.3404 112.879 92.3031 113.012 92.3393C113.589 92.4971 114.169 92.6451 114.749 92.7876C114.871 92.8183 114.883 92.8665 114.855 92.9838C114.602 94.0109 114.356 95.0403 114.104 96.0674C114.077 96.177 114.088 96.2088 114.201 96.2351C114.652 96.3371 115.103 96.4467 115.551 96.564C115.679 96.599 115.716 96.5563 115.744 96.4379C115.983 95.4338 116.227 94.4319 116.464 93.4278C116.497 93.2896 116.535 93.2403 116.688 93.2831C117.258 93.442 117.833 93.5867 118.408 93.7281C118.521 93.7555 118.543 93.7939 118.514 93.9112C118.257 94.9591 118.009 96.0093 117.748 97.0562C117.715 97.1899 117.748 97.2293 117.863 97.2754C118.662 97.5433 119.421 97.9201 120.123 98.3957C120.781 98.8594 121.327 99.425 121.623 100.207C121.942 101.063 121.879 101.924 121.63 102.782C121.279 103.995 120.507 104.763 119.314 105.084C119.274 105.09 119.247 105.105 119.206 105.128ZM114.583 110.302H114.721C115.219 110.286 115.708 110.23 116.162 110.003C117.31 109.429 117.556 107.855 116.649 106.897C116.118 106.338 115.456 106.02 114.763 105.754C113.912 105.426 113.016 105.237 112.131 105.017C112.002 104.985 111.977 105.027 111.951 105.138C111.605 106.585 111.256 108.029 110.902 109.473C110.873 109.589 110.908 109.617 111.008 109.642C111.388 109.736 111.765 109.842 112.144 109.937C112.941 110.149 113.758 110.27 114.58 110.297L114.583 110.302ZM115.5 103.44C115.773 103.445 116.046 103.421 116.314 103.368C117.024 103.215 117.537 102.82 117.743 102.082C117.949 101.344 117.78 100.679 117.211 100.146C116.909 99.8723 116.567 99.6502 116.196 99.4886C115.37 99.1082 114.488 98.9175 113.609 98.7136C113.503 98.6884 113.494 98.7563 113.476 98.832C113.349 99.3611 113.22 99.8905 113.09 100.42C112.904 101.188 112.719 101.963 112.527 102.732C112.5 102.842 112.518 102.89 112.634 102.916C112.855 102.965 113.071 103.034 113.291 103.09C114.017 103.265 114.745 103.432 115.497 103.435L115.5 103.44Z" fill="white"/>
</g>
<path d="M-0.5 8.45508C-0.5 3.48452 3.52944 -0.544922 8.5 -0.544922H599.5C604.471 -0.544922 608.5 3.48452 608.5 8.45508H606.5C606.5 4.58909 603.366 1.45508 599.5 1.45508H8.5C4.63401 1.45508 1.5 4.58909 1.5 8.45508H-0.5ZM607.5 165.455H0.5H607.5ZM-0.5 165.455V8.45508C-0.5 3.48452 3.52944 -0.544922 8.5 -0.544922V1.45508C4.63401 1.45508 1.5 4.58909 1.5 8.45508V165.455H-0.5ZM599.5 -0.544922C604.471 -0.544922 608.5 3.48452 608.5 8.45508V165.455H606.5V8.45508C606.5 4.58909 603.366 1.45508 599.5 1.45508V-0.544922Z" fill="#3A3A3A" mask="url(#path-3-inside-2_1160_3640)"/>
<defs>
<clipPath id="clip0_1160_3640">
<path d="M0.5 8.45508C0.5 4.0368 4.08172 0.455078 8.5 0.455078H599.5C603.918 0.455078 607.5 4.0368 607.5 8.45508V165.455H0.5V8.45508Z" fill="white"/>
</clipPath>
</defs>
</svg>
