<svg width="608" height="204" viewBox="0 0 608 204" fill="none" xmlns="http://www.w3.org/2000/svg">
<g clip-path="url(#clip0_1795_5560)">
<mask id="path-1-inside-1_1795_5560" fill="white">
<path d="M0 8.11523C0 3.69696 3.58172 0.115234 8 0.115234H600C604.418 0.115234 608 3.69696 608 8.11523V203.115H0V8.11523Z"/>
</mask>
<path d="M0 8.11523C0 3.69696 3.58172 0.115234 8 0.115234H600C604.418 0.115234 608 3.69696 608 8.11523V203.115H0V8.11523Z" fill="#141414"/>
<rect width="608" height="203" transform="translate(0.25 0.210938)" fill="#141414"/>
<path d="M8.25001 203.211C3.83173 203.211 0.25 199.629 0.25 195.211V8.21094C0.25 3.79266 3.83172 0.210938 8.25 0.210938H600.25C604.668 0.210938 608.25 3.79266 608.25 8.21094V195.211C608.25 199.629 604.668 203.211 600.25 203.211H8.25001Z" fill="#141414"/>
<path d="M225.765 162.757V221.883H370.825V161.449L225.765 162.757Z" fill="#262626"/>
<path d="M298.295 173.323C338.353 173.323 370.825 168.592 370.825 162.755C370.825 156.919 338.353 152.188 298.295 152.188C258.238 152.188 225.765 156.919 225.765 162.755C225.765 168.592 258.238 173.323 298.295 173.323Z" fill="#191919"/>
<path d="M225.654 41.3994L298.235 17.0801L370.455 41.3994V89.6589C370.455 89.6589 371.055 142.908 314.841 158.935C303.321 162.218 291.121 162.268 279.62 158.875C258.897 152.757 227.833 135.902 225.654 89.6589V41.3994Z" fill="#2D2D2D"/>
<path d="M298.055 141C326.414 141 349.403 117.83 349.403 89.2483C349.403 60.6663 326.414 37.4961 298.055 37.4961C269.696 37.4961 246.707 60.6663 246.707 89.2483C246.707 117.83 269.696 141 298.055 141Z" fill="#F7931A"/>
<path d="M298.055 136.099C323.963 136.099 344.966 115.123 344.966 89.2469C344.966 63.3711 323.963 42.3945 298.055 42.3945C272.146 42.3945 251.144 63.3711 251.144 89.2469C251.144 115.123 272.146 136.099 298.055 136.099Z" fill="#FEFEFE"/>
<path d="M298.055 129.386C320.25 129.386 338.242 111.416 338.242 89.2497C338.242 67.0829 320.25 49.1133 298.055 49.1133C275.861 49.1133 257.868 67.0829 257.868 89.2497C257.868 111.416 275.861 129.386 298.055 129.386Z" fill="#161616"/>
<path d="M302.064 111.28C291.91 113.112 281.917 106.219 280.151 95.7665C278.426 85.5647 285.365 75.7849 295.644 74.0316C305.856 72.2882 315.543 79.1402 317.387 89.2756C319.292 99.7486 312.177 109.571 302.064 111.282L302.064 111.28ZM296.389 78.9276C288.862 80.2567 283.755 87.4463 285.053 95.0098C286.353 102.585 293.576 107.716 301.131 106.422C308.717 105.122 313.813 97.9117 312.548 90.3424C311.251 82.5799 303.842 77.6301 296.388 78.9295L296.389 78.9276Z" fill="white"/>
<path d="M302.679 92.029C303.029 94.1912 301.577 96.2058 299.42 96.5546C297.244 96.9049 295.243 95.4425 294.898 93.2472C294.564 91.1147 296.022 89.1295 298.184 88.7766C300.319 88.4281 302.331 89.8852 302.679 92.029Z" fill="white"/>
<path d="M276.532 75.7438L314.084 69.2578L313.295 64.6922L275.744 71.1781L276.532 75.7438Z" fill="#FF6700"/>
<path d="M155.223 91.4961C155.223 91.4961 118.623 101.675 127.755 110.906C127.755 110.906 129.764 121.903 214.364 128" stroke="white" stroke-width="0.9" stroke-miterlimit="10"/>
<path d="M390.249 71.9082C390.249 71.9082 458.373 76.808 459.262 91.3976C459.262 91.3976 459.482 101.018 436.551 107.404" stroke="white" stroke-width="0.9" stroke-miterlimit="10"/>
</g>
<path d="M-1 8.11523C-1 3.14467 3.02944 -0.884766 8 -0.884766H600C604.971 -0.884766 609 3.14467 609 8.11523H607C607 4.24924 603.866 1.11523 600 1.11523H8C4.13401 1.11523 1 4.24924 1 8.11523H-1ZM608 203.115H0H608ZM-1 203.115V8.11523C-1 3.14467 3.02944 -0.884766 8 -0.884766V1.11523C4.13401 1.11523 1 4.24924 1 8.11523V203.115H-1ZM600 -0.884766C604.971 -0.884766 609 3.14467 609 8.11523V203.115H607V8.11523C607 4.24924 603.866 1.11523 600 1.11523V-0.884766Z" fill="#3A3A3A" mask="url(#path-1-inside-1_1795_5560)"/>
<defs>
<clipPath id="clip0_1795_5560">
<path d="M0 8.11523C0 3.69696 3.58172 0.115234 8 0.115234H600C604.418 0.115234 608 3.69696 608 8.11523V203.115H0V8.11523Z" fill="white"/>
</clipPath>
</defs>
</svg>
