<svg width="610" height="205" viewBox="0 0 610 205" fill="none" xmlns="http://www.w3.org/2000/svg">
<g clip-path="url(#clip0_822_3737)">
<path d="M0.75 8.90382C0.75 4.48554 4.33172 0.903809 8.75 0.903809H601.25C605.668 0.903809 609.25 4.48553 609.25 8.90381V204.327H0.75V8.90382Z" fill="#141414"/>
<rect width="608" height="203" transform="translate(1 1)" fill="#141414"/>
<path d="M9.00001 204C4.58173 204 1 200.418 1 196V9C1 4.58172 4.58172 1 9 1H601C605.418 1 609 4.58172 609 9V196C609 200.418 605.418 204 601 204H9.00001Z" fill="#141414"/>
<path d="M226.7 163.884V223.134H371.88V162.574L226.7 163.884Z" fill="#262626"/>
<path d="M299.29 174.474C339.38 174.474 371.88 169.732 371.88 163.884C371.88 158.035 339.38 153.294 299.29 153.294C259.2 153.294 226.7 158.035 226.7 163.884C226.7 169.732 259.2 174.474 299.29 174.474Z" fill="#191919"/>
<path d="M226.59 42.2738L299.23 17.9038L371.51 42.2738V90.6338C371.51 90.6338 372.11 143.994 315.85 160.054C304.32 163.344 292.11 163.394 280.6 159.994C259.86 153.864 228.77 136.974 226.59 90.6338V42.2738Z" fill="#2D2D2D"/>
<path d="M299.05 142.084C327.432 142.084 350.44 118.865 350.44 90.2238C350.44 61.5823 327.432 38.3638 299.05 38.3638C270.668 38.3638 247.66 61.5823 247.66 90.2238C247.66 118.865 270.668 142.084 299.05 142.084Z" fill="#E50913"/>
<path d="M299.05 137.174C324.98 137.174 346 116.154 346 90.2238C346 64.294 324.98 43.2738 299.05 43.2738C273.12 43.2738 252.1 64.294 252.1 90.2238C252.1 116.154 273.12 137.174 299.05 137.174Z" fill="#FEFEFE"/>
<path d="M299.05 130.444C321.263 130.444 339.27 112.437 339.27 90.2238C339.27 68.0109 321.263 50.0038 299.05 50.0038C276.837 50.0038 258.83 68.0109 258.83 90.2238C258.83 112.437 276.837 130.444 299.05 130.444Z" fill="#161616"/>
<path d="M311.7 67.9637L285.1 69.5737L285.44 75.1537L312.04 73.5437L311.7 67.9637Z" fill="#E50913"/>
<path d="M301.03 112.444C298.51 112.594 296.22 112.324 294.17 111.624C292.12 110.924 290.44 109.814 289.13 108.274C287.85 106.734 287.11 104.844 286.91 102.584L295.86 102.044C296.07 103.314 296.57 104.274 297.37 104.914C298.16 105.524 299.17 105.794 300.38 105.724C301.59 105.654 302.59 105.314 303.28 104.714C303.97 104.084 304.28 103.254 304.22 102.244C304.17 101.394 303.83 100.704 303.21 100.184C302.62 99.6637 301.89 99.2437 301.01 98.9337C300.17 98.6237 298.96 98.2837 297.4 97.9137C295.13 97.3637 293.27 96.7837 291.82 96.1737C290.37 95.5737 289.09 94.6237 288 93.3437C286.9 92.0637 286.29 90.3337 286.16 88.1737C285.97 84.9637 286.98 82.3837 289.2 80.4437C291.42 78.4637 294.39 77.3637 298.13 77.1437C301.93 76.9137 305.05 77.6437 307.49 79.3437C309.93 81.0037 311.32 83.4537 311.68 86.6937L302.58 87.2437C302.45 86.1337 301.98 85.2937 301.19 84.7137C300.4 84.1037 299.41 83.8337 298.23 83.9037C297.21 83.9637 296.41 84.2937 295.82 84.8837C295.23 85.4437 294.96 86.2337 295.03 87.2537C295.1 88.3637 295.67 89.2037 296.76 89.7637C297.85 90.3237 299.53 90.8937 301.8 91.4837C304.07 92.1037 305.92 92.7137 307.34 93.3237C308.79 93.9237 310.06 94.8537 311.16 96.1037C312.26 97.3537 312.87 99.0137 312.99 101.074C313.11 103.134 312.71 104.854 311.79 106.524C310.9 108.194 309.54 109.554 307.69 110.624C305.85 111.694 303.63 112.304 301.04 112.454L301.03 112.444Z" fill="white"/>
<path d="M156.1 92.4768C156.1 92.4768 119.47 102.677 128.61 111.927C128.61 111.927 130.62 122.947 215.29 129.057" stroke="white" stroke-width="0.9" stroke-miterlimit="10"/>
<path d="M391.32 72.8468C391.32 72.8468 459.5 77.7568 460.39 92.3768C460.39 92.3768 460.61 102.017 437.66 108.417" stroke="white" stroke-width="0.9" stroke-miterlimit="10"/>
</g>
<defs>
<clipPath id="clip0_822_3737">
<path d="M0.75 8.90382C0.75 4.48554 4.33172 0.903809 8.75 0.903809H601.25C605.668 0.903809 609.25 4.48553 609.25 8.90381V204.327H0.75V8.90382Z" fill="white"/>
</clipPath>
</defs>
</svg>
