<svg width="1320" height="281" viewBox="0 0 1320 281" fill="none" xmlns="http://www.w3.org/2000/svg">
<g opacity="0.6">
<mask id="mask0_1583_3134" style="mask-type:alpha" maskUnits="userSpaceOnUse" x="200" y="-53" width="921" height="452">
<path opacity="0.7" fill-rule="evenodd" clip-rule="evenodd" d="M223.868 -1.88656C249.89 15.4817 301.934 64.1394 301.934 119.824C301.934 123.721 301.891 128.305 301.842 133.47C301.011 220.543 298.609 472.537 477.584 377.166C502.918 363.667 528.948 350.536 554.537 337.629C589.787 319.848 624.201 302.489 654.806 285.167C763.463 373.177 864.665 428.423 977.426 310.699C1129.56 151.863 1171.83 -119.918 1045.83 -24.9569C1023.73 -5.00274 960.075 36.0576 882.31 40.6656C876.867 40.9881 870.461 41.3363 863.245 41.7287C816.126 44.2904 734.445 48.7312 660.633 60.1502C448.092 -50.8213 106.672 -95.4061 223.868 -1.88656Z" fill="url(#paint0_linear_1583_3134)"/>
</mask>
<g mask="url(#mask0_1583_3134)">
<rect x="183.172" y="-374.889" width="24" height="1116.23" stroke="#F7931A" stroke-opacity="0.2"/>
<rect x="207.172" y="-374.889" width="24" height="1116.23" stroke="#F7931A" stroke-opacity="0.2"/>
<rect x="231.172" y="-374.889" width="24" height="1116.23" stroke="#F7931A" stroke-opacity="0.2"/>
<rect x="255.172" y="-374.889" width="24" height="1116.23" stroke="#F7931A" stroke-opacity="0.2"/>
<rect x="279.172" y="-374.889" width="24" height="1116.23" stroke="#F7931A" stroke-opacity="0.2"/>
<rect x="303.172" y="-374.889" width="24" height="1116.23" stroke="#F7931A" stroke-opacity="0.2"/>
<rect x="327.172" y="-374.889" width="24" height="1116.23" stroke="#F7931A" stroke-opacity="0.2"/>
<rect x="351.172" y="-374.889" width="24" height="1116.23" stroke="#F7931A" stroke-opacity="0.2"/>
<rect x="375.172" y="-374.889" width="24" height="1116.23" stroke="#F7931A" stroke-opacity="0.2"/>
<rect x="399.172" y="-374.889" width="24" height="1116.23" stroke="#F7931A" stroke-opacity="0.2"/>
<rect x="423.172" y="-374.889" width="24" height="1116.23" stroke="#F7931A" stroke-opacity="0.2"/>
<rect x="447.172" y="-374.889" width="24" height="1116.23" stroke="#F7931A" stroke-opacity="0.2"/>
<rect x="471.172" y="-374.889" width="24" height="1116.23" stroke="#F7931A" stroke-opacity="0.2"/>
<rect x="495.172" y="-374.889" width="24" height="1116.23" stroke="#F7931A" stroke-opacity="0.2"/>
<rect x="519.172" y="-374.889" width="24" height="1116.23" stroke="#F7931A" stroke-opacity="0.2"/>
<rect x="543.172" y="-374.889" width="24" height="1116.23" stroke="#F7931A" stroke-opacity="0.2"/>
<rect x="567.172" y="-374.889" width="24" height="1116.23" stroke="#F7931A" stroke-opacity="0.2"/>
<rect x="591.172" y="-374.889" width="24" height="1116.23" stroke="#F7931A" stroke-opacity="0.2"/>
<rect x="615.172" y="-374.889" width="24" height="1116.23" stroke="#F7931A" stroke-opacity="0.2"/>
<rect x="639.172" y="-374.889" width="24" height="1116.23" stroke="#F7931A" stroke-opacity="0.2"/>
<rect x="663.172" y="-374.889" width="24" height="1116.23" stroke="#F7931A" stroke-opacity="0.2"/>
<rect x="687.172" y="-374.889" width="24" height="1116.23" stroke="#F7931A" stroke-opacity="0.2"/>
<rect x="711.172" y="-374.889" width="24" height="1116.23" stroke="#F7931A" stroke-opacity="0.2"/>
<rect x="735.172" y="-374.889" width="24" height="1116.23" stroke="#F7931A" stroke-opacity="0.2"/>
<rect x="759.172" y="-374.889" width="24" height="1116.23" stroke="#F7931A" stroke-opacity="0.2"/>
<rect x="783.172" y="-374.889" width="24" height="1116.23" stroke="#F7931A" stroke-opacity="0.2"/>
<rect x="807.172" y="-374.889" width="24" height="1116.23" stroke="#F7931A" stroke-opacity="0.2"/>
<rect x="831.172" y="-374.889" width="24" height="1116.23" stroke="#F7931A" stroke-opacity="0.2"/>
<rect x="855.172" y="-374.889" width="24" height="1116.23" stroke="#F7931A" stroke-opacity="0.2"/>
<rect x="879.172" y="-374.889" width="24" height="1116.23" stroke="#F7931A" stroke-opacity="0.2"/>
<rect x="903.172" y="-374.889" width="24" height="1116.23" stroke="#F7931A" stroke-opacity="0.2"/>
<rect x="927.172" y="-374.889" width="24" height="1116.23" stroke="#F7931A" stroke-opacity="0.2"/>
<rect x="951.172" y="-374.889" width="24" height="1116.23" stroke="#F7931A" stroke-opacity="0.2"/>
<rect x="975.172" y="-374.889" width="24" height="1116.23" stroke="#F7931A" stroke-opacity="0.2"/>
<rect x="999.172" y="-374.889" width="24" height="1116.23" stroke="#F7931A" stroke-opacity="0.2"/>
<rect x="1023.17" y="-374.889" width="24" height="1116.23" stroke="#F7931A" stroke-opacity="0.2"/>
<rect x="1047.17" y="-374.889" width="24" height="1116.23" stroke="#F7931A" stroke-opacity="0.2"/>
<rect x="1071.17" y="-374.889" width="24" height="1116.23" stroke="#F7931A" stroke-opacity="0.2"/>
<rect x="1095.17" y="-374.889" width="24" height="1116.23" stroke="#F7931A" stroke-opacity="0.2"/>
<rect x="1119.17" y="-374.889" width="24" height="1116.23" stroke="#F7931A" stroke-opacity="0.2"/>
<rect x="-57" y="6.20508" width="24" height="1440" transform="rotate(-90 -57 6.20508)" stroke="#F7931A" stroke-opacity="0.2"/>
<rect x="-57" y="30.2051" width="24" height="1440" transform="rotate(-90 -57 30.2051)" stroke="#F7931A" stroke-opacity="0.2"/>
<rect x="-57" y="54.2051" width="24" height="1440" transform="rotate(-90 -57 54.2051)" stroke="#F7931A" stroke-opacity="0.2"/>
<rect x="-57" y="78.2051" width="24" height="1440" transform="rotate(-90 -57 78.2051)" stroke="#F7931A" stroke-opacity="0.2"/>
<rect x="-57" y="102.205" width="24" height="1440" transform="rotate(-90 -57 102.205)" stroke="#F7931A" stroke-opacity="0.2"/>
<rect x="-57" y="126.205" width="24" height="1440" transform="rotate(-90 -57 126.205)" stroke="#F7931A" stroke-opacity="0.2"/>
<rect x="-57" y="150.205" width="24" height="1440" transform="rotate(-90 -57 150.205)" stroke="#F7931A" stroke-opacity="0.2"/>
<rect x="-57" y="174.205" width="24" height="1440" transform="rotate(-90 -57 174.205)" stroke="#F7931A" stroke-opacity="0.2"/>
<rect x="-57" y="198.205" width="24" height="1440" transform="rotate(-90 -57 198.205)" stroke="#F7931A" stroke-opacity="0.2"/>
<rect x="-57" y="222.205" width="24" height="1440" transform="rotate(-90 -57 222.205)" stroke="#F7931A" stroke-opacity="0.2"/>
<rect x="-57" y="246.205" width="24" height="1440" transform="rotate(-90 -57 246.205)" stroke="#F7931A" stroke-opacity="0.2"/>
<rect x="-57" y="270.205" width="24" height="1440" transform="rotate(-90 -57 270.205)" stroke="#F7931A" stroke-opacity="0.2"/>
<rect x="-57" y="294.205" width="24" height="1440" transform="rotate(-90 -57 294.205)" stroke="#F7931A" stroke-opacity="0.2"/>
</g>
</g>
<defs>
<linearGradient id="paint0_linear_1583_3134" x1="1110.34" y1="-81.1159" x2="769.537" y2="415.061" gradientUnits="userSpaceOnUse">
<stop stop-color="white"/>
<stop offset="1" stop-color="white"/>
</linearGradient>
</defs>
</svg>
