<svg width="37" height="37" viewBox="0 0 37 37" fill="none" xmlns="http://www.w3.org/2000/svg">
<path d="M36.9139 18.4637C36.9139 28.6076 28.6503 36.9207 18.4569 36.9207C8.26356 36.9207 0 28.6571 0 18.4637C0 17.9688 0.395904 17.5235 0.940254 17.5235C1.48458 17.5235 1.88051 17.9194 1.88051 18.4637C1.88051 27.618 9.30287 35.0403 18.4571 35.0403C27.6113 35.0403 35.0337 27.618 35.0337 18.4637C35.0337 14.1589 33.4008 10.1011 30.432 6.98382C30.0855 6.58792 30.0855 6.04357 30.4814 5.64771C30.8773 5.30116 31.4709 5.30116 31.8175 5.69707C35.0827 9.11179 36.9135 13.6641 36.9135 18.4635L36.9139 18.4637ZM7.96666 18.4637C7.96666 17.9688 8.36257 17.5235 8.90692 17.5235H15.6365C15.6365 17.4741 15.6365 17.4741 15.6859 17.4244C15.6859 17.3751 15.7352 17.276 15.7849 17.2266C15.8343 17.1276 15.884 17.0289 15.9334 16.8801C15.9827 16.8307 16.0324 16.7317 16.0818 16.6823C16.1808 16.5833 16.2302 16.4845 16.3293 16.3855C16.3786 16.3361 16.3786 16.3361 16.3786 16.2864C16.9229 15.7421 17.7147 15.3959 18.5062 15.3959H18.5555H18.803C18.8524 15.3959 18.9021 15.3959 19.0008 15.4453H19.0999C19.1492 15.4453 19.2483 15.4946 19.2976 15.4946H19.3967C19.4461 15.4946 19.5451 15.544 19.5945 15.544C19.5945 15.544 19.6438 15.544 19.6438 15.5933C19.6932 15.6427 19.7923 15.6427 19.8416 15.6924L25.7301 9.80391C26.0767 9.45736 26.6704 9.45736 27.0662 9.80391C27.4128 10.1505 27.4128 10.7442 27.0662 11.14L21.1777 17.0285C21.3755 17.4244 21.5243 17.919 21.5243 18.3646C21.5243 19.9975 20.1882 21.3831 18.5059 21.3831C18.3081 21.3831 18.11 21.383 17.9615 21.3337H17.9122C17.7638 21.2843 17.5656 21.2346 17.4172 21.1853C17.3679 21.1853 17.3679 21.1853 17.3182 21.1359C17.1697 21.0866 17.0213 20.9875 16.9222 20.9381C16.8729 20.8888 16.8232 20.8888 16.7738 20.8391C16.6748 20.74 16.5263 20.6907 16.4273 20.5916C16.3779 20.5916 16.3779 20.5422 16.3282 20.5422C16.2789 20.4929 16.2789 20.4929 16.2789 20.4432C16.1798 20.3441 16.1304 20.2454 16.0314 20.1463C15.982 20.097 15.9323 19.9979 15.883 19.9485C15.8336 19.8495 15.7839 19.7508 15.7345 19.602C15.6852 19.5526 15.6852 19.4536 15.6355 19.4042C15.6355 19.3549 15.6355 19.3549 15.5861 19.3052H8.85651C8.36259 19.4039 7.96672 18.9586 7.96672 18.4637L7.96666 18.4637ZM18.4569 17.3257C17.8136 17.3257 17.3189 17.8207 17.3189 18.4637C17.3189 19.0574 17.8139 19.6017 18.4075 19.6017C18.7044 19.6017 19.0012 19.5027 19.1993 19.2552C19.3971 19.0574 19.5459 18.7602 19.5459 18.4634C19.5459 18.1666 19.4468 17.8697 19.1993 17.6716C19.0509 17.5232 18.8528 17.4241 18.6056 17.3748H18.5066C18.5062 17.3257 18.5062 17.3257 18.4569 17.3257L18.4569 17.3257ZM17.4176 1.93671H17.467C17.9619 1.88735 18.3575 1.44174 18.3575 0.947147C18.3081 0.452182 17.8625 0.0566406 17.3679 0.0566406C16.873 0.105998 16.4774 0.551606 16.4774 1.0462C16.5271 1.54082 16.923 1.93671 17.4177 1.93671H17.4176ZM13.7064 2.53039C13.8055 2.53039 13.8549 2.53039 13.9539 2.48103C14.4489 2.33261 14.7457 1.83765 14.5973 1.34302C14.4489 0.848059 13.9539 0.551227 13.4593 0.699648C12.9643 0.848069 12.6675 1.34302 12.8159 1.83765C12.915 2.28292 13.3109 2.53039 13.7064 2.53039L13.7064 2.53039ZM24.4936 3.02535C24.5927 3.07471 24.7411 3.07471 24.8401 3.07471C25.236 3.07471 25.5822 2.82723 25.7307 2.48103C25.9284 1.98606 25.6813 1.44172 25.1863 1.24397C24.6914 1.04619 24.147 1.29333 23.9987 1.78829C23.8009 2.28291 23.9987 2.82725 24.4936 3.02535L24.4936 3.02535ZM27.6605 4.65827C27.8089 4.75733 28.007 4.80669 28.2048 4.80669C28.5016 4.80669 28.7985 4.65827 28.9966 4.41079C29.2934 3.96553 29.145 3.42123 28.7491 3.12434C28.3039 2.8275 27.7596 2.97592 27.4627 3.37182C27.1161 3.81674 27.2152 4.41077 27.6604 4.65827H27.6605ZM21.0299 2.0851H21.1783C21.6236 2.0851 22.0195 1.73856 22.1186 1.2933C22.2177 0.798337 21.8711 0.303743 21.3268 0.20469C20.8318 0.105628 20.3372 0.452173 20.2382 0.996488C20.1888 1.54081 20.535 1.98605 21.03 2.0851H21.0299ZM1.13801 15.5938H1.33579C1.78105 15.5938 2.17694 15.2969 2.22629 14.8517C2.32535 14.3567 2.02851 13.8621 1.53356 13.7631C1.03859 13.664 0.543998 13.9609 0.444944 14.4558C0.346227 15.0001 0.643068 15.4948 1.13803 15.5938L1.13801 15.5938ZM2.17731 11.9817C2.32573 12.031 2.4248 12.0807 2.57322 12.0807C2.91976 12.0807 3.26595 11.8829 3.41437 11.5364C3.61215 11.0911 3.41437 10.4971 2.96911 10.2993C2.52385 10.1016 1.9298 10.2993 1.73205 10.7446C1.48457 11.1899 1.68235 11.7342 2.17731 11.9817ZM7.07589 6.09317C7.27367 6.09317 7.52115 5.99411 7.66957 5.84569C8.06548 5.49915 8.11484 4.90544 7.76864 4.50958C7.42209 4.11367 6.82838 4.06432 6.43252 4.41052C6.03662 4.75706 5.98726 5.35077 6.33346 5.74663C6.58129 5.94475 6.82843 6.09317 7.0759 6.09317H7.07589ZM3.95877 8.61669C4.10719 8.76511 4.30531 8.81447 4.50309 8.81447C4.79993 8.81447 5.04742 8.66604 5.24519 8.46792C5.54203 8.07202 5.49267 7.47836 5.04741 7.13181C4.6515 6.83497 4.05785 6.88433 3.76095 7.32959C3.46377 7.72618 3.51313 8.31985 3.95873 8.61666L3.95877 8.61669ZM10.1935 3.96561C10.3419 3.96561 10.4903 3.91625 10.6387 3.86655C11.084 3.61906 11.2821 3.07475 11.0346 2.58009C10.7871 2.13483 10.2428 1.93672 9.74817 2.18419C9.30291 2.43167 9.10479 2.97599 9.35227 3.47064C9.55005 3.76748 9.89659 3.96561 10.1934 3.96561H10.1935Z" fill="white"/>
</svg>
