<svg width="158" height="120" viewBox="0 0 158 120" fill="none" xmlns="http://www.w3.org/2000/svg">
<g filter="url(#filter0_d_1_38)">
<path d="M14.42 79.7038C14.42 79.7038 20.81 101.196 31.14 105.374C31.14 105.374 71.08 118.95 121.73 82.4488C121.73 82.4488 139.36 71.1068 145.2 54.2518C147.1 48.7958 146.61 42.7188 143.97 37.4618L136.11 23.8828L14.4301 79.6988L14.42 79.7038Z" fill="url(#paint0_linear_1_38)"/>
<path d="M137.96 25.5799C130.77 9.18188 97.0501 8.05386 62.6601 23.0599C28.2701 38.0659 6.22007 63.5239 13.4201 79.9219C20.6101 96.3199 54.32 97.4479 88.71 82.4419C123.11 67.4359 145.16 41.9779 137.96 25.5799Z" fill="black" stroke="#2D2D2D" stroke-width="1.09" stroke-miterlimit="10"/>
<path d="M86.7 39.8999C86.56 40.1829 86.31 40.4178 85.98 40.5608L56.84 53.5748C56.31 53.8088 55.8201 53.4008 56.0501 52.9228L59.75 45.6018C59.89 45.3178 60.14 45.0828 60.46 44.9398L89.6 31.9259C90.14 31.6929 90.6301 32.1008 90.4001 32.5778L86.7 39.8999Z" fill="url(#paint1_linear_1_38)"/>
<path d="M94.39 57.6419C94.24 57.9309 93.9901 58.1649 93.6701 58.3039L64.53 71.3179C64 71.5509 63.51 71.1428 63.74 70.6648L67.4301 63.3439C67.5701 63.0609 67.83 62.8258 68.15 62.6828L97.2901 49.6689C97.8201 49.4359 98.32 49.8429 98.08 50.3209L94.39 57.6419Z" fill="url(#paint2_linear_1_38)"/>
<path d="M65.9201 59.8379C66.2201 59.9209 66.57 59.8909 66.89 59.7479L96.0301 46.7339C96.5601 46.4999 96.6 45.8509 96.09 45.7049L88.27 43.5279C87.97 43.4459 87.6301 43.4759 87.3101 43.6189L58.1701 56.6329C57.6401 56.8659 57.6 57.5149 58.1 57.6619L65.9201 59.8379Z" fill="url(#paint3_linear_1_38)"/>
</g>
<defs>
<filter id="filter0_d_1_38" x="0.210864" y="0.65874" width="157.437" height="118.485" filterUnits="userSpaceOnUse" color-interpolation-filters="sRGB">
<feFlood flood-opacity="0" result="BackgroundImageFix"/>
<feColorMatrix in="SourceAlpha" type="matrix" values="0 0 0 0 0 0 0 0 0 0 0 0 0 0 0 0 0 0 127 0" result="hardAlpha"/>
<feOffset/>
<feGaussianBlur stdDeviation="5.65"/>
<feColorMatrix type="matrix" values="0 0 0 0 0.976471 0 0 0 0 0.188235 0 0 0 0 0.243137 0 0 0 0.75 0"/>
<feBlend mode="normal" in2="BackgroundImageFix" result="effect1_dropShadow_1_38"/>
<feBlend mode="normal" in="SourceGraphic" in2="effect1_dropShadow_1_38" result="shape"/>
</filter>
<linearGradient id="paint0_linear_1_38" x1="30.93" y1="40.3918" x2="133.22" y2="83.1998" gradientUnits="userSpaceOnUse">
<stop stop-opacity="0"/>
<stop offset="0.17" stop-color="#252525" stop-opacity="0.15"/>
<stop offset="0.55" stop-color="#858585" stop-opacity="0.52"/>
<stop offset="1" stop-color="white"/>
</linearGradient>
<linearGradient id="paint1_linear_1_38" x1="83.0601" y1="28.6549" x2="69.2601" y2="59.3718" gradientUnits="userSpaceOnUse">
<stop stop-color="#00FFA3"/>
<stop offset="1" stop-color="#DC1FFF"/>
</linearGradient>
<linearGradient id="paint2_linear_1_38" x1="90.75" y1="46.3909" x2="76.94" y2="77.1079" gradientUnits="userSpaceOnUse">
<stop stop-color="#00FFA3"/>
<stop offset="1" stop-color="#DC1FFF"/>
</linearGradient>
<linearGradient id="paint3_linear_1_38" x1="84.85" y1="40.5809" x2="73.99" y2="64.7419" gradientUnits="userSpaceOnUse">
<stop stop-color="#00FFA3"/>
<stop offset="1" stop-color="#DC1FFF"/>
</linearGradient>
</defs>
</svg>
