<svg width="23" height="23" viewBox="0 0 23 23" fill="none" xmlns="http://www.w3.org/2000/svg">
<path d="M6.33301 3.20508C6.33301 8.06708 3.705 12.4171 0 12.4171C3.705 12.4171 6.33301 16.7671 6.33301 21.6281C6.33301 16.7671 8.96002 12.4171 12.666 12.4171C8.96002 12.4171 6.33301 8.06708 6.33301 3.20508Z" fill="url(#paint0_linear_1942_627)"/>
<path d="M16.7937 11.1172C16.7937 14.0512 15.2087 16.6752 12.9717 16.6752C15.2087 16.6752 16.7937 19.3002 16.7937 22.2332C16.7937 19.3002 18.3787 16.6752 20.6147 16.6752C18.3787 16.6752 16.7937 14.0512 16.7937 11.1172Z" fill="url(#paint1_linear_1942_627)"/>
<path d="M18.529 0C18.529 2.933 16.944 5.55804 14.708 5.55804C16.944 5.55804 18.529 8.18303 18.529 11.116C18.529 8.18303 20.114 5.55804 22.351 5.55804C20.114 5.55804 18.529 2.933 18.529 0Z" fill="url(#paint2_linear_1942_627)"/>
<defs>
<linearGradient id="paint0_linear_1942_627" x1="-5.03501" y1="3.20508" x2="18.33" y2="3.20508" gradientUnits="userSpaceOnUse">
<stop stop-color="#8C0208"/>
<stop offset="0.489628" stop-color="#D3494F"/>
<stop offset="1" stop-color="#8C0208"/>
</linearGradient>
<linearGradient id="paint1_linear_1942_627" x1="9.93368" y1="11.1172" x2="24.0327" y2="11.1172" gradientUnits="userSpaceOnUse">
<stop stop-color="#8C0208"/>
<stop offset="0.489628" stop-color="#D3494F"/>
<stop offset="1" stop-color="#8C0208"/>
</linearGradient>
<linearGradient id="paint2_linear_1942_627" x1="11.67" y1="0" x2="25.768" y2="0" gradientUnits="userSpaceOnUse">
<stop stop-color="#8C0208"/>
<stop offset="0.489628" stop-color="#D3494F"/>
<stop offset="1" stop-color="#8C0208"/>
</linearGradient>
</defs>
</svg>
