<svg width="24" height="24" viewBox="0 0 24 24" fill="none" xmlns="http://www.w3.org/2000/svg">
<path d="M12 24C18.6274 24 24 18.6274 24 12C24 5.37258 18.6274 0 12 0C5.37258 0 0 5.37258 0 12C0 18.6274 5.37258 24 12 24Z" fill="url(#paint0_linear_32_179)"/>
<path d="M11.9495 4.1555C11.9655 4.10653 12.0347 4.10653 12.0506 4.1555L13.7843 9.49106C13.7914 9.51295 13.8118 9.5278 13.8348 9.5278H19.445C19.4965 9.5278 19.5179 9.59367 19.4762 9.62392L14.9375 12.9215C14.9189 12.935 14.9111 12.959 14.9182 12.9809L16.6518 18.3165C16.6677 18.3655 16.6117 18.4062 16.57 18.3759L12.0313 15.0784C12.0127 15.0648 11.9875 15.0648 11.9689 15.0784L7.43015 18.3759C7.38848 18.4062 7.33243 18.3655 7.34834 18.3165L9.08199 12.9809C9.08911 12.959 9.08132 12.935 9.06268 12.9215L4.52398 9.62392C4.48231 9.59367 4.50371 9.5278 4.55519 9.5278H10.1654C10.1884 9.5278 10.2088 9.51295 10.2159 9.49106L11.9495 4.1555Z" fill="white"/>
<path d="M12.0354 20.0708C16.4732 20.0708 20.0708 16.4733 20.0708 12.0354C20.0708 7.59758 16.4732 4 12.0354 4C7.59758 4 4 7.59758 4 12.0354C4 16.4733 7.59758 20.0708 12.0354 20.0708Z" stroke="white" stroke-width="2"/>
<defs>
<linearGradient id="paint0_linear_32_179" x1="3.87692" y1="3.13843" x2="21.6" y2="20.3077" gradientUnits="userSpaceOnUse">
<stop stop-color="#A96A74"/>
<stop offset="0.255172" stop-color="#E3B94D"/>
<stop offset="0.498212" stop-color="#B8E287"/>
<stop offset="0.677083" stop-color="#86DABB"/>
<stop offset="1" stop-color="#003896"/>
</linearGradient>
</defs>
</svg>
