<svg width="114" height="114" viewBox="0 0 114 114" fill="none" xmlns="http://www.w3.org/2000/svg">
<circle cx="57" cy="57" r="45" fill="#BB2D40"/>
<path d="M114 57C114 64.4853 112.526 71.8974 109.661 78.813C106.797 85.7285 102.598 92.0121 97.3051 97.3051C92.0121 102.598 85.7285 106.797 78.813 109.661C71.8974 112.526 64.4853 114 57 114C49.5147 114 42.1026 112.526 35.187 109.661C28.2715 106.797 21.9879 102.598 16.6949 97.3051C11.402 92.0121 7.20338 85.7285 4.33886 78.813C1.47435 71.8974 -6.5439e-07 64.4853 0 57H13.6615C13.6615 62.6913 14.7824 68.3269 16.9604 73.5849C19.1384 78.843 22.3307 83.6206 26.355 87.645C30.3794 91.6693 35.157 94.8616 40.4151 97.0396C45.6731 99.2176 51.3087 100.339 57 100.339C62.6913 100.339 68.3269 99.2176 73.5849 97.0396C78.843 94.8616 83.6206 91.6693 87.645 87.645C91.6693 83.6206 94.8616 78.843 97.0396 73.5849C99.2176 68.3269 100.339 62.6913 100.339 57H114Z" fill="#C73238"/>
<path d="M102 57C102 62.9095 100.836 68.7611 98.5746 74.2208C96.3131 79.6804 92.9984 84.6412 88.8198 88.8198C84.6412 92.9984 79.6804 96.3131 74.2208 98.5746C68.7611 100.836 62.9095 102 57 102C51.0905 102 45.2389 100.836 39.7792 98.5746C34.3196 96.3131 29.3588 92.9984 25.1802 88.8198C21.0016 84.6412 17.6869 79.6804 15.4254 74.2208C13.164 68.7611 12 62.9095 12 57L57 57H102Z" fill="#070B09"/>
<path d="M56.8621 36.6951L47.1138 42.3228L56.8621 47.9504L66.6104 42.3228L56.8621 36.6951ZM56.1836 45.9964L49.8213 42.3228L56.1836 38.6492V45.9964ZM57.5405 38.6492L63.9029 42.3228L57.5405 45.9964V38.6492ZM56.8621 27L31 41.932V71.7959L56.8621 86.7279L82.7241 71.7959V41.932L56.8621 27ZM56.1836 84.7707L32.3538 71.0143V43.4983L56.1836 57.2547V84.7707ZM33.0322 42.3228L56.8621 28.5664L80.6919 42.3228L56.8621 56.0823L33.0322 42.3228ZM81.3704 71.0143L57.5405 84.7707V57.2547L81.3704 43.4983V71.0143ZM49.146 61.3191L39.3977 55.6915V66.9499L49.146 72.5775V61.3191ZM40.7514 58.0364L47.1138 61.7099L40.7514 65.3835V58.0364ZM47.7891 70.2295L41.4267 66.556L47.7891 62.8824V70.2295ZM74.3296 55.6915L64.5813 61.3191V72.5775L74.3296 66.9499V55.6915ZM65.9351 70.2295V62.8824L72.2974 66.556L65.9351 70.2295ZM72.9727 65.3835L66.6104 61.7099L72.9727 58.0364V65.3835Z" fill="white"/>
</svg>
