<svg width="32" height="29" viewBox="0 0 32 29" fill="none" xmlns="http://www.w3.org/2000/svg">
<g filter="url(#filter0_i_823_75)">
<path d="M16 25.4868C22.9763 25.4868 28.6316 19.7814 28.6316 12.7434C28.6316 5.70541 22.9763 0 16 0C9.02377 0 3.36841 5.70541 3.36841 12.7434C3.36841 19.7814 9.02377 25.4868 16 25.4868Z" fill="#F0B90B"/>
<path d="M32 12.7432C32 14.8629 31.5862 16.9619 30.7821 18.9203C29.978 20.8787 28.7994 22.6581 27.3137 24.157C25.8279 25.6559 24.0641 26.8449 22.1229 27.6561C20.1817 28.4673 18.1011 28.8848 16 28.8848C13.8988 28.8848 11.8183 28.4673 9.87709 27.6561C7.93587 26.8449 6.17203 25.6559 4.68629 24.157C3.20056 22.6581 2.02201 20.8787 1.21793 18.9203C0.413847 16.9619 0 14.8629 0 12.7432H3.83479C3.83479 14.3549 4.14946 15.9508 4.76082 17.4398C5.37218 18.9288 6.26826 20.2818 7.3979 21.4214C8.52753 22.5611 9.86866 23.4651 11.3446 24.0818C12.8205 24.6986 14.4024 25.016 16 25.016C17.5976 25.016 19.1795 24.6986 20.6554 24.0818C22.1313 23.4651 23.4725 22.5611 24.6021 21.4214C25.7318 20.2818 26.6278 18.9288 27.2391 17.4398C27.8505 15.9508 28.1652 14.3549 28.1652 12.7432H32Z" fill="#C73238"/>
<path d="M28.6315 12.7434C28.6315 14.4169 28.3048 16.074 27.67 17.6201C27.0352 19.1662 26.1048 20.571 24.9319 21.7543C23.7589 22.9376 22.3665 23.8763 20.8339 24.5167C19.3014 25.1571 17.6588 25.4868 16 25.4868C14.3412 25.4868 12.6986 25.1571 11.1661 24.5167C9.63354 23.8763 8.24107 22.9376 7.06812 21.7543C5.89517 20.571 4.96473 19.1662 4.32993 17.6201C3.69514 16.074 3.36841 14.4169 3.36841 12.7434H16H28.6315Z" fill="#070B09"/>
<path d="M10.3547 12.9576L10.3638 16.3272L13.2019 18.012V19.9848L8.7029 17.3228V11.9722L10.3547 12.9576ZM10.3547 9.58793V11.5515L8.7019 10.5651V8.60163L10.3547 7.61523L12.0157 8.60163L10.3547 9.58793ZM14.3871 8.60163L16.04 7.61523L17.7009 8.60163L16.04 9.58793L14.3871 8.60163Z" fill="white"/>
<path d="M11.5488 15.6288V13.656L13.2016 14.6424V16.606L11.5488 15.6288ZM14.3868 18.7186L16.0397 19.705L17.7006 18.7186V20.6822L16.0397 21.6686L14.3868 20.6822V18.7186ZM20.071 8.60163L21.7239 7.61523L23.3848 8.60163V10.5651L21.7239 11.5515V9.58793L20.071 8.60163ZM21.7239 16.3272L21.733 12.9576L23.3858 11.9712V17.3218L18.8868 19.9838V18.011L21.7239 16.3272Z" fill="white"/>
<path d="M20.5389 15.629L18.886 16.6061V14.6427L20.5389 13.6562V15.629Z" fill="white"/>
<path d="M20.5387 10.2869L20.5478 12.2597L17.7016 13.9445V17.3223L16.0488 18.2995L14.3959 17.3223V13.9445L11.5498 12.2597V10.2869L13.2097 9.30047L16.0387 10.9935L18.8848 9.30047L20.5457 10.2869H20.5387ZM11.5488 6.91827L16.0397 4.24707L20.5387 6.91827L18.8858 7.90467L16.0397 6.21168L13.2016 7.90467L11.5488 6.91827Z" fill="white"/>
</g>
<defs>
<filter id="filter0_i_823_75" x="0" y="0" width="32" height="30.0175" filterUnits="userSpaceOnUse" color-interpolation-filters="sRGB">
<feFlood flood-opacity="0" result="BackgroundImageFix"/>
<feBlend mode="normal" in="SourceGraphic" in2="BackgroundImageFix" result="shape"/>
<feColorMatrix in="SourceAlpha" type="matrix" values="0 0 0 0 0 0 0 0 0 0 0 0 0 0 0 0 0 0 127 0" result="hardAlpha"/>
<feOffset dy="1.13274"/>
<feGaussianBlur stdDeviation="0.566372"/>
<feComposite in2="hardAlpha" operator="arithmetic" k2="-1" k3="1"/>
<feColorMatrix type="matrix" values="0 0 0 0 0 0 0 0 0 0 0 0 0 0 0 0 0 0 0.25 0"/>
<feBlend mode="normal" in2="shape" result="effect1_innerShadow_823_75"/>
</filter>
</defs>
</svg>
