<svg width="150" height="150" viewBox="0 0 150 150" fill="none" xmlns="http://www.w3.org/2000/svg">
<circle cx="75.0035" cy="74.9942" r="59.2105" fill="#8C8C8C"/>
<path d="M150 75C150 84.8491 148.06 94.6018 144.291 103.701C140.522 112.801 134.997 121.069 128.033 128.033C121.069 134.997 112.801 140.522 103.701 144.291C94.6018 148.06 84.8491 150 75 150C65.1509 150 55.3982 148.06 46.2987 144.291C37.1993 140.522 28.9314 134.997 21.967 128.033C15.0026 121.069 9.47814 112.801 5.70903 103.701C1.93993 94.6018 -8.61039e-07 84.8491 0 75H17.9756C17.9756 82.4885 19.4506 89.9038 22.3163 96.8223C25.1821 103.741 29.3825 110.027 34.6777 115.322C39.9729 120.618 46.2592 124.818 53.1777 127.684C60.0962 130.549 67.5114 132.024 75 132.024C82.4885 132.024 89.9038 130.549 96.8223 127.684C103.741 124.818 110.027 120.618 115.322 115.322C120.618 110.027 124.818 103.741 127.684 96.8223C130.549 89.9038 132.024 82.4885 132.024 75H150Z" fill="#C73238"/>
<path d="M134.214 74.9942C134.214 82.7699 132.683 90.4694 129.707 97.6531C126.731 104.837 122.37 111.364 116.872 116.862C111.373 122.361 104.846 126.722 97.6624 129.698C90.4786 132.673 82.7791 134.205 75.0035 134.205C67.2279 134.205 59.5284 132.673 52.3446 129.698C45.1609 126.722 38.6335 122.361 33.1353 116.862C27.6371 111.364 23.2757 104.837 20.3001 97.6531C17.3245 90.4694 15.793 82.7699 15.793 74.9942L75.0035 74.9942H134.214Z" fill="#070B09"/>
<path d="M75.5743 35.5271L75.0417 37.3532V90.3365L75.5743 90.8728L99.9417 76.3352L75.5743 35.5271Z" fill="white"/>
<path d="M75.5692 35.5271L51.2012 76.3352L75.5692 90.8728V65.1562V35.5271Z" fill="white"/>
<path d="M75.5744 95.5314L75.2743 95.9009V114.774L75.5744 115.659L99.9567 81.0013L75.5744 95.5314Z" fill="white"/>
<path d="M75.5692 115.659V95.5314L51.2012 81.0013L75.5692 115.659Z" fill="white"/>
<path d="M75.5838 90.8719L99.9512 76.3344L75.5838 65.1553V90.8719Z" fill="white"/>
<path d="M51.2012 76.3352L75.5692 90.8728V65.1562L51.2012 76.3352Z" fill="white"/>
</svg>
