<svg width="87" height="89" viewBox="0 0 87 89" fill="none" xmlns="http://www.w3.org/2000/svg">
<path d="M8.25 45.1201C8.25 64.5863 24.031 80.3701 43.5 80.3701C62.969 80.3701 78.75 64.5891 78.75 45.1201" fill="#FF6602" fill-opacity="0.1"/>
<path d="M78.75 45.1201C78.75 25.2398 62.969 9.12012 43.5 9.12012C24.031 9.12012 8.25 25.2369 8.25 45.1201" fill="#FF6602" fill-opacity="0.1"/>
<path style="mix-blend-mode:screen" opacity="0.78" d="M43.875 88.6201C67.6923 88.6201 87 68.9766 87 44.7451C87 20.5136 67.6923 0.870117 43.875 0.870117C20.0577 0.870117 0.75 20.5136 0.75 44.7451C0.75 68.9766 20.0577 88.6201 43.875 88.6201Z" fill="url(#paint0_radial_2985_28705)"/>
<circle cx="43.6875" cy="44.7451" r="35.7187" fill="#020309"/>
<path d="M53.8622 46.8987C54.508 47.0533 55.1393 47.2637 55.749 47.5277C57.8854 48.4796 59.1081 50.1229 59.4034 52.4511C59.6451 54.1718 59.4703 55.9258 58.8937 57.5639C58.1764 59.5456 56.777 60.8803 54.8948 61.7345C53.3343 62.4435 51.6791 62.777 49.9928 62.9819C49.3793 63.0581 48.7637 63.1104 48.1481 63.1545C47.9485 63.1678 47.9054 63.2444 47.9084 63.4375C47.9337 65.3951 47.9408 67.3534 47.9704 69.3119C47.9746 69.5884 47.9104 69.6542 47.6316 69.6513C46.531 69.6402 45.4272 69.6564 44.3263 69.676C44.1253 69.6835 44.0906 69.6353 44.088 69.4441C44.0771 67.495 44.052 65.5456 44.043 63.596C44.0411 63.376 43.9999 63.2948 43.7636 63.2993C42.91 63.3095 42.0558 63.3076 41.2013 63.2935C40.9831 63.2892 40.9389 63.362 40.9406 63.5657C40.9659 65.5233 40.9754 67.4829 41.0026 69.44C41.0044 69.66 40.9543 69.7098 40.7381 69.7131C39.6207 69.7132 38.5013 69.724 37.3799 69.7454C37.1779 69.7491 37.1306 69.6757 37.1275 69.4825C37.116 67.5152 37.0883 65.5481 37.0791 63.574C37.0784 63.319 37.0087 63.2535 36.76 63.2489C34.3303 63.2698 31.9178 63.2863 29.4957 63.3053C29.3237 63.3073 29.264 63.28 29.2957 63.0879C29.5224 61.6677 29.7422 60.2492 29.955 58.8325C29.9816 58.652 30.0682 58.6336 30.223 58.6361C31.0597 58.6384 31.8964 58.649 32.7309 58.6192C33.7725 58.5824 34.2544 58.0423 34.2455 56.9993C34.2159 53.7797 34.1876 50.5604 34.1609 47.3414C34.1401 44.8967 34.1192 42.452 34.0984 40.0073C34.089 39.0175 33.3735 38.2485 32.3301 38.1285C31.5257 38.0679 30.7183 38.0594 29.9129 38.1033C29.6742 38.1063 29.4364 38.105 29.1993 38.1219C29.0698 38.1312 29.0404 38.0878 29.0379 37.9599C29.0294 36.69 29.021 35.4202 29.0002 34.1496C28.9944 33.9224 29.1396 33.958 29.263 33.9565C30.2219 33.9453 31.1796 33.9448 32.14 33.9312C33.591 33.9082 35.0439 33.9397 36.4962 33.8898C36.7358 33.8825 36.814 33.8315 36.8108 33.575C36.7806 31.6453 36.7683 29.7068 36.7406 27.7866C36.7371 27.5445 36.7888 27.4616 37.0427 27.4628C38.1443 27.4696 39.2472 27.4577 40.3476 27.4362C40.58 27.4328 40.6226 27.5115 40.6259 27.7291C40.635 29.6399 40.6585 31.551 40.6695 33.4612C40.6712 33.665 40.7045 33.7155 40.9179 33.7088C41.77 33.6766 42.6255 33.6577 43.4788 33.6537C43.7247 33.6549 43.7701 33.5634 43.7682 33.3434C43.7428 31.4798 43.7298 29.617 43.7025 27.7539C43.6994 27.4974 43.7438 27.394 44.0368 27.3972C45.1275 27.4089 46.2212 27.3932 47.3116 27.3723C47.5255 27.3676 47.5827 27.4242 47.5841 27.6423C47.595 29.5914 47.6239 31.5398 47.6286 33.4885C47.6298 33.7373 47.7065 33.7908 47.9325 33.8176C49.4799 33.9132 51.0076 34.2167 52.475 34.7199C53.8605 35.2224 55.0902 35.9553 55.9701 37.1816C56.9254 38.5272 57.2005 40.0603 57.1409 41.6725C57.059 43.9547 56.024 45.6538 54.036 46.7697C53.9667 46.8 53.926 46.8392 53.8622 46.8987ZM47.9238 58.0841L48.171 58.0197C49.0536 57.7589 49.9031 57.4333 50.6131 56.8256C52.4067 55.288 52.1384 52.426 50.0876 51.1762C48.8855 50.4483 47.5599 50.2018 46.2027 50.0616C44.5337 49.8842 42.8459 49.9731 41.1648 50.001C40.9204 50.0055 40.8954 50.0896 40.8981 50.2972C40.9309 52.9824 40.9553 55.6671 40.9715 58.3512C40.9724 58.5673 41.0479 58.6007 41.2375 58.5962C41.9588 58.5838 42.6797 58.5939 43.4014 58.5833C44.9208 58.5818 46.4353 58.4115 47.9176 58.0755L47.9238 58.0841ZM46.4784 45.6796C46.9692 45.5609 47.4465 45.3913 47.9025 45.1735C49.1018 44.575 49.841 43.6472 49.8783 42.2634C49.9156 40.8796 49.3142 39.797 48.0574 39.1324C47.3948 38.7948 46.6824 38.5668 45.9477 38.4574C44.2992 38.1787 42.6371 38.2568 40.9747 38.3104C40.7733 38.316 40.7886 38.4386 40.7903 38.5791C40.7999 39.562 40.8078 40.5461 40.814 41.5314C40.8261 42.9575 40.8436 44.3964 40.8472 45.8288C40.8471 46.033 40.9011 46.1087 41.1202 46.1006C41.5374 46.0817 41.9544 46.1016 42.3732 46.0965C43.7489 46.0645 45.1263 46.0158 46.4722 45.671L46.4784 45.6796Z" fill="#F5F5F5"/>
<path d="M29 24.8299H58.6614V19.7451H29V24.8299Z" fill="#FF6602"/>
<defs>
<radialGradient id="paint0_radial_2985_28705" cx="0" cy="0" r="1" gradientUnits="userSpaceOnUse" gradientTransform="translate(43.875 44.7451) scale(43.125 43.875)">
<stop stop-color="#FF6602"/>
<stop offset="0.41" stop-color="#884B00"/>
<stop offset="0.82" stop-color="#261500"/>
<stop offset="1"/>
</radialGradient>
</defs>
</svg>
