<svg width="215" height="76" viewBox="0 0 215 76" fill="none" xmlns="http://www.w3.org/2000/svg">
<g opacity="0.9" filter="url(#filter0_b_226_828)">
<rect x="0.333984" width="214.667" height="75.8191" rx="6.66171" fill="#26262B"/>
</g>
<path fill-rule="evenodd" clip-rule="evenodd" d="M39.8106 36.5768L42.9977 33.3897L47.0535 37.4455L51.1424 33.3566L54.3626 36.5768C54.8424 37.0566 54.8424 37.8344 54.3626 38.3142L51.1478 41.529L47.0643 37.4455L43.0031 41.5067L39.8106 38.3142C39.3308 37.8344 39.3308 37.0566 39.8106 36.5768ZM45.4283 29.3798C46.3441 28.4639 47.8291 28.4639 48.745 29.3798L55.1523 35.7871C56.0682 36.703 56.0682 38.188 55.1523 39.1039L48.745 45.5112C47.8291 46.4271 46.3441 46.4271 45.4283 45.5112L39.0209 39.1039C38.105 38.188 38.105 36.703 39.0209 35.7871L45.4283 29.3798Z" fill="white"/>
<path d="M64.0113 43H66.629V33.8219H70.2486V31.6889H60.3918V33.8219H64.0113V43ZM83.1297 43L80.5928 39.3643C82.0633 38.7341 82.9197 37.4899 82.9197 35.7932C82.9197 33.2563 81.0291 31.6889 78.0074 31.6889H73.1113V43H75.729V39.8491H78.0074H78.1367L80.3181 43H83.1297ZM80.2696 35.7932C80.2696 37.0213 79.4617 37.7646 77.862 37.7646H75.729V33.8219H77.862C79.4617 33.8219 80.2696 34.549 80.2696 35.7932ZM94.8989 43H97.6459L92.5883 31.6889H90.0029L84.9613 43H87.6437L88.6455 40.5762H93.8971L94.8989 43ZM89.4858 38.5887L91.2794 34.2581L93.073 38.5887H89.4858ZM108.062 31.6889V38.5564L102.439 31.6889H100.274V43H102.859V36.1326L108.499 43H110.648V31.6889H108.062ZM120.191 43.1939C122.163 43.1939 123.795 42.4829 124.861 41.1741L123.181 39.6228C122.421 40.5116 121.468 40.964 120.337 40.964C118.22 40.964 116.717 39.4774 116.717 37.3445C116.717 35.2115 118.22 33.7249 120.337 33.7249C121.468 33.7249 122.421 34.1773 123.181 35.0499L124.861 33.4987C123.795 32.206 122.163 31.495 120.207 31.495C116.685 31.495 114.067 33.935 114.067 37.3445C114.067 40.7539 116.685 43.1939 120.191 43.1939ZM135.839 31.6889V36.1487H130.701V31.6889H128.083V43H130.701V38.3625H135.839V43H138.457V31.6889H135.839ZM145.189 40.8994V38.2817H150.441V36.2457H145.189V33.7895H151.135V31.6889H142.587V43H151.345V40.8994H145.189ZM158.599 43.1939C161.831 43.1939 163.398 41.578 163.398 39.6875C163.398 35.5347 156.822 36.9728 156.822 34.8883C156.822 34.1773 157.419 33.5956 158.971 33.5956C159.973 33.5956 161.055 33.8865 162.106 34.4844L162.913 32.4968C161.863 31.8343 160.409 31.495 158.987 31.495C155.771 31.495 154.22 33.0947 154.22 35.0176C154.22 39.2189 160.797 37.7646 160.797 39.8814C160.797 40.5762 160.166 41.0933 158.615 41.0933C157.258 41.0933 155.836 40.6085 154.883 39.9137L153.994 41.885C154.996 42.6607 156.805 43.1939 158.599 43.1939ZM170.358 43.1939C173.589 43.1939 175.157 41.578 175.157 39.6875C175.157 35.5347 168.58 36.9728 168.58 34.8883C168.58 34.1773 169.178 33.5956 170.729 33.5956C171.731 33.5956 172.814 33.8865 173.864 34.4844L174.672 32.4968C173.622 31.8343 172.167 31.495 170.746 31.495C167.53 31.495 165.979 33.0947 165.979 35.0176C165.979 39.2189 172.555 37.7646 172.555 39.8814C172.555 40.5762 171.925 41.0933 170.374 41.0933C169.017 41.0933 167.595 40.6085 166.641 39.9137L165.752 41.885C166.754 42.6607 168.564 43.1939 170.358 43.1939Z" fill="white"/>
<defs>
<filter id="filter0_b_226_828" x="-32.9745" y="-33.3085" width="281.284" height="142.436" filterUnits="userSpaceOnUse" color-interpolation-filters="sRGB">
<feFlood flood-opacity="0" result="BackgroundImageFix"/>
<feGaussianBlur in="BackgroundImage" stdDeviation="16.6543"/>
<feComposite in2="SourceAlpha" operator="in" result="effect1_backgroundBlur_226_828"/>
<feBlend mode="normal" in="SourceGraphic" in2="effect1_backgroundBlur_226_828" result="shape"/>
</filter>
</defs>
</svg>
