<svg width="77" height="77" viewBox="0 0 77 77" fill="none" xmlns="http://www.w3.org/2000/svg">
<circle cx="38.5" cy="38.5" r="35.5181" fill="#313238" stroke="#27272B" stroke-width="4.03614"/>
<path d="M30.2909 38.6081C30.2536 39.2566 30.4754 39.8934 30.9074 40.3785C31.3394 40.8636 31.9463 41.1574 32.5948 41.1953H32.7284C33.206 41.1948 33.673 41.0544 34.0717 40.7916C34.4705 40.5287 34.7835 40.1548 34.9722 39.7161C35.161 39.2774 35.2171 38.793 35.1337 38.3227C35.0503 37.8525 34.831 37.4169 34.503 37.0699C34.1749 36.7228 33.7524 36.4793 33.2876 36.3696C32.8227 36.2599 32.336 36.2887 31.8873 36.4524C31.4387 36.6161 31.0478 36.9076 30.7629 37.291C30.478 37.6743 30.3116 38.1326 30.2842 38.6094L30.2909 38.6081Z" fill="white"/>
<path d="M21.1713 37.9881C21.0154 37.9793 20.8604 38.017 20.7259 38.0964C20.5914 38.1757 20.4835 38.2931 20.4157 38.4338C20.3479 38.5745 20.3233 38.7321 20.3451 38.8867C20.3669 39.0413 20.434 39.1861 20.538 39.3025C20.642 39.419 20.7782 39.5021 20.9293 39.5412C21.0805 39.5803 21.2399 39.5738 21.3873 39.5223C21.5348 39.4709 21.6637 39.3769 21.7577 39.2522C21.8517 39.1276 21.9067 38.9778 21.9157 38.8219C21.9218 38.7183 21.9074 38.6144 21.8733 38.5163C21.8392 38.4182 21.786 38.3278 21.7168 38.2503C21.6476 38.1728 21.5639 38.1098 21.4702 38.0647C21.3766 38.0197 21.275 37.9937 21.1713 37.9881Z" fill="white"/>
<path d="M30.1354 24.4144C30.2743 24.3431 30.389 24.2323 30.465 24.096C30.541 23.9597 30.575 23.8039 30.5627 23.6483C30.5504 23.4927 30.4923 23.3442 30.3958 23.2215C30.2993 23.0988 30.1686 23.0074 30.0203 22.9588C29.8719 22.9103 29.7125 22.9067 29.5621 22.9485C29.4117 22.9903 29.2771 23.0757 29.1751 23.1938C29.0731 23.312 29.0084 23.4577 28.989 23.6126C28.9697 23.7675 28.9966 23.9247 29.0663 24.0643C29.1132 24.1578 29.1782 24.241 29.2574 24.3093C29.3367 24.3775 29.4286 24.4294 29.528 24.462C29.6274 24.4945 29.7322 24.5071 29.8365 24.4989C29.9407 24.4908 30.0423 24.4621 30.1354 24.4144Z" fill="white"/>
<path d="M32.6177 28.7416C32.8334 28.6328 33.012 28.4625 33.1309 28.2522C33.2497 28.042 33.3036 27.8012 33.2857 27.5603C33.2678 27.3195 33.1788 27.0893 33.0301 26.899C32.8814 26.7086 32.6796 26.5667 32.4502 26.491C32.2208 26.4154 31.9741 26.4094 31.7414 26.4739C31.5086 26.5385 31.3002 26.6705 31.1425 26.8535C30.9848 27.0364 30.8849 27.262 30.8553 27.5018C30.8258 27.7415 30.8681 27.9846 30.9767 28.2003C31.0489 28.3437 31.1486 28.4714 31.2701 28.5761C31.3917 28.6809 31.5327 28.7607 31.6851 28.811C31.8375 28.8613 31.9983 28.881 32.1583 28.8691C32.3183 28.8572 32.4745 28.8138 32.6177 28.7416Z" fill="white"/>
<path d="M24.2659 31.7178C24.4322 31.8272 24.6273 31.8848 24.8264 31.8833C25.0254 31.8818 25.2196 31.8213 25.3843 31.7094C25.549 31.5975 25.6767 31.4393 25.7515 31.2548C25.8262 31.0702 25.8445 30.8677 25.8041 30.6728C25.7637 30.4778 25.6664 30.2992 25.5245 30.1596C25.3825 30.02 25.2024 29.9256 25.0068 29.8884C24.8112 29.8513 24.609 29.8729 24.4257 29.9507C24.2425 30.0284 24.0864 30.1588 23.9772 30.3253C23.831 30.5483 23.7793 30.8202 23.8335 31.0813C23.8876 31.3424 24.0431 31.5713 24.2659 31.7178Z" fill="white"/>
<path d="M25.7536 37.5431C25.5125 37.5295 25.2727 37.5877 25.0647 37.7103C24.8566 37.8329 24.6895 38.0145 24.5846 38.232C24.4797 38.4496 24.4417 38.6933 24.4753 38.9325C24.5089 39.1717 24.6126 39.3955 24.7734 39.5758C24.9342 39.756 25.1448 39.8845 25.3786 39.945C25.6125 40.0056 25.859 39.9954 26.087 39.9159C26.3151 39.8364 26.5144 39.691 26.6599 39.4982C26.8054 39.3054 26.8904 39.0738 26.9042 38.8327C26.9225 38.5091 26.8116 38.1916 26.5958 37.9498C26.3801 37.708 26.0772 37.5617 25.7536 37.5431Z" fill="white"/>
<path d="M24.3996 45.7552C24.222 45.8449 24.075 45.9853 23.9771 46.1586C23.8793 46.3319 23.8351 46.5303 23.85 46.7287C23.8649 46.9271 23.9383 47.1167 24.061 47.2734C24.1836 47.4301 24.3499 47.5469 24.5389 47.6091C24.7279 47.6713 24.9312 47.6761 25.1229 47.6228C25.3146 47.5695 25.4862 47.4606 25.616 47.3098C25.7459 47.159 25.8281 46.9731 25.8523 46.7756C25.8765 46.5781 25.8416 46.3778 25.752 46.2002C25.6924 46.0821 25.6102 45.9769 25.51 45.8907C25.4098 45.8044 25.2936 45.7387 25.168 45.6974C25.0424 45.6561 24.9099 45.6399 24.778 45.6498C24.6462 45.6597 24.5176 45.6955 24.3996 45.7552Z" fill="white"/>
<path d="M29.1483 35.0185C29.3862 35.1744 29.6649 35.2563 29.9493 35.2537C30.2336 35.2512 30.5109 35.1644 30.7459 35.0043C30.981 34.8443 31.1633 34.6181 31.2698 34.3544C31.3763 34.0907 31.4022 33.8014 31.3443 33.523C31.2864 33.2446 31.1472 32.9896 30.9443 32.7902C30.7415 32.5909 30.4841 32.4562 30.2047 32.4032C29.9253 32.3501 29.6365 32.3811 29.3747 32.4922C29.1129 32.6033 28.89 32.7895 28.734 33.0273C28.6303 33.1852 28.5587 33.362 28.5234 33.5476C28.4881 33.7332 28.4897 33.9239 28.5282 34.1089C28.5666 34.2938 28.6412 34.4694 28.7476 34.6255C28.8541 34.7816 28.9902 34.9151 29.1483 35.0185Z" fill="white"/>
<path d="M44.2115 28.6455C44.414 28.7776 44.6511 28.8467 44.8929 28.844C45.1347 28.8414 45.3703 28.7671 45.5698 28.6306C45.7694 28.4941 45.9241 28.3015 46.0142 28.0771C46.1043 27.8528 46.1259 27.6067 46.0762 27.3701C46.0266 27.1335 45.9078 26.9169 45.7351 26.7477C45.5623 26.5785 45.3433 26.4644 45.1057 26.4197C44.868 26.3749 44.6225 26.4017 44.4001 26.4965C44.1776 26.5913 43.9883 26.7499 43.856 26.9523C43.7679 27.0868 43.7072 27.2373 43.6774 27.3952C43.6476 27.5531 43.6493 27.7154 43.6823 27.8727C43.7153 28.03 43.7791 28.1792 43.8699 28.3118C43.9607 28.4444 44.0768 28.5578 44.2115 28.6455Z" fill="white"/>
<path d="M46.7183 24.3318C46.8492 24.4176 47.0026 24.4627 47.1591 24.4613C47.3156 24.4598 47.4682 24.4121 47.5975 24.3239C47.7268 24.2358 47.8271 24.1112 47.8857 23.9661C47.9442 23.8209 47.9584 23.6617 47.9264 23.5085C47.8944 23.3553 47.8177 23.215 47.706 23.1054C47.5942 22.9958 47.4525 22.9218 47.2987 22.8928C47.1449 22.8637 46.9859 22.881 46.8419 22.9423C46.6979 23.0036 46.5754 23.1063 46.4897 23.2373C46.3751 23.4128 46.3347 23.6266 46.3775 23.8319C46.4204 24.0371 46.5429 24.2169 46.7183 24.3318Z" fill="white"/>
<path d="M44.4039 36.2803C44.0832 36.2618 43.762 36.3068 43.4587 36.4125C43.1553 36.5182 42.8758 36.6826 42.6359 36.8964C42.1516 37.328 41.8586 37.9345 41.8214 38.5822C41.7842 39.2299 42.0058 39.8659 42.4375 40.3502C42.8692 40.8345 43.4756 41.1275 44.1233 41.1647C44.1701 41.1647 44.2182 41.1647 44.265 41.1647C44.7368 41.1645 45.1985 41.0277 45.5944 40.771C45.9903 40.5143 46.3034 40.1485 46.4961 39.7178C46.6888 39.2871 46.7528 38.8099 46.6803 38.3436C46.6079 37.8774 46.4021 37.442 46.0878 37.0901C45.8749 36.8501 45.6164 36.6549 45.3273 36.5158C45.0382 36.3768 44.7243 36.2967 44.4039 36.2803Z" fill="white"/>
<path d="M33.4202 34.8491C33.6233 35.2547 33.9355 35.5956 34.3217 35.8334C34.708 36.0711 35.153 36.1963 35.6065 36.1949C36.0247 36.195 36.4359 36.0879 36.8009 35.8838C37.1659 35.6798 37.4726 35.3857 37.6916 35.0294C37.9106 34.6732 38.0346 34.2668 38.0519 33.8489C38.0691 33.4311 37.979 33.0159 37.7902 32.6428C37.5857 32.239 37.2729 31.9002 36.8868 31.6642C36.5006 31.4281 36.0564 31.3043 35.6039 31.3064C35.187 31.3071 34.7772 31.4143 34.4134 31.6179C34.0496 31.8214 33.7438 32.1145 33.525 32.4694C33.3063 32.8243 33.1818 33.2292 33.1635 33.6457C33.1452 34.0621 33.2335 34.4764 33.4202 34.8491Z" fill="white"/>
<path d="M52.5969 31.7152C52.7745 31.6256 52.9215 31.4853 53.0195 31.3121C53.1174 31.1389 53.1618 30.9406 53.147 30.7421C53.1322 30.5437 53.059 30.3542 52.9365 30.1974C52.814 30.0406 52.6478 29.9236 52.4589 29.8612C52.2699 29.7989 52.0668 29.7939 51.875 29.847C51.6833 29.9001 51.5115 30.0088 51.3816 30.1595C51.2516 30.3101 51.1692 30.4959 51.1448 30.6934C51.1204 30.8908 51.1551 31.0911 51.2444 31.2689C51.3647 31.5073 51.5747 31.6882 51.8283 31.7719C52.0819 31.8556 52.3583 31.8352 52.5969 31.7152Z" fill="white"/>
<path d="M46.3951 32.4941C46.1411 32.622 45.9308 32.8224 45.7906 33.0699C45.6505 33.3174 45.5869 33.6008 45.6079 33.8845C45.6289 34.1681 45.7335 34.4391 45.9086 34.6633C46.0836 34.8874 46.3211 35.0547 46.5912 35.1438C46.8613 35.233 47.1517 35.24 47.4258 35.1641C47.6998 35.0882 47.9453 34.9327 48.131 34.7173C48.3167 34.5019 48.4343 34.2363 48.4691 33.9541C48.5038 33.6718 48.4541 33.3856 48.3262 33.1316C48.2414 32.9628 48.1241 32.8124 47.9811 32.689C47.8381 32.5656 47.6722 32.4716 47.4929 32.4124C47.3135 32.3532 47.1242 32.3299 46.9359 32.3439C46.7475 32.358 46.5638 32.409 46.3951 32.4941Z" fill="white"/>
<path d="M38.4056 23.9627C38.6043 23.974 38.802 23.9262 38.9735 23.8251C39.145 23.7241 39.2827 23.5745 39.3692 23.3952C39.4557 23.2159 39.487 23.015 39.4593 22.8179C39.4316 22.6208 39.346 22.4363 39.2134 22.2878C39.0808 22.1393 38.9072 22.0335 38.7145 21.9838C38.5217 21.934 38.3186 21.9425 38.1307 22.0082C37.9428 22.0739 37.7786 22.1939 37.6589 22.3529C37.5391 22.5119 37.4693 22.7029 37.4581 22.9016C37.4432 23.168 37.5346 23.4293 37.7122 23.6283C37.8899 23.8273 38.1393 23.9476 38.4056 23.9627Z" fill="white"/>
<path d="M38.3955 30.2959C38.6793 30.3118 38.9615 30.2432 39.2064 30.0987C39.4513 29.9543 39.6479 29.7405 39.7713 29.4844C39.8947 29.2283 39.9395 28.9413 39.8998 28.6598C39.8602 28.3782 39.738 28.1147 39.5487 27.9026C39.3594 27.6905 39.1114 27.5393 38.8362 27.4681C38.5609 27.3969 38.2707 27.4088 38.0023 27.5025C37.7338 27.5962 37.4992 27.7673 37.328 27.9943C37.1568 28.2212 37.0567 28.4939 37.0404 28.7777C37.0189 29.1587 37.1495 29.5327 37.4036 29.8173C37.6577 30.102 38.0145 30.2741 38.3955 30.2959Z" fill="white"/>
<path d="M30.6043 44.9746C30.8583 44.8466 31.0686 44.6461 31.2086 44.3985C31.3486 44.1509 31.4121 43.8674 31.3909 43.5838C31.3698 43.3001 31.265 43.0291 31.0899 42.8051C30.9147 42.581 30.677 42.4139 30.4069 42.3249C30.1367 42.2359 29.8463 42.229 29.5722 42.3051C29.2982 42.3812 29.0528 42.5369 28.8673 42.7524C28.6817 42.968 28.5642 43.2337 28.5297 43.516C28.4951 43.7984 28.5451 44.0846 28.6733 44.3385C28.845 44.6789 29.145 44.9371 29.5071 45.0564C29.8692 45.1756 30.2639 45.1462 30.6043 44.9746Z" fill="white"/>
<path d="M39.3244 32.3941C39.0261 32.8492 38.8882 33.3908 38.9324 33.9332C38.9766 34.4755 39.2004 34.9876 39.5684 35.3884C39.9364 35.7892 40.4275 36.0559 40.9641 36.1462C41.5007 36.2364 42.0521 36.1452 42.531 35.8868C43.0099 35.6285 43.3889 35.2178 43.6082 34.7198C43.8274 34.2218 43.8743 33.6649 43.7414 33.1372C43.6085 32.6096 43.3034 32.1413 42.8745 31.8066C42.4455 31.4718 41.9171 31.2896 41.373 31.2889C40.9666 31.2887 40.5666 31.3895 40.2089 31.5825C39.8513 31.7754 39.5473 32.0543 39.3244 32.3941Z" fill="white"/>
<path d="M43.5764 42.621C43.3805 42.2325 43.0844 41.9032 42.7188 41.6673C42.3532 41.4314 41.9312 41.2973 41.4965 41.2788C41.0617 41.2604 40.6299 41.3583 40.2456 41.5624C39.8613 41.7665 39.5384 42.0695 39.3103 42.44C39.0822 42.8106 38.957 43.2353 38.9478 43.6703C38.9386 44.1054 39.0456 44.535 39.2578 44.9149C39.4701 45.2948 39.7798 45.6111 40.1551 45.8314C40.5304 46.0516 40.9577 46.1677 41.3928 46.1677C41.7756 46.1651 42.1526 46.0736 42.494 45.9004C43.0715 45.6081 43.5096 45.0989 43.7125 44.4843C43.9153 43.8696 43.8664 43.1996 43.5764 42.621Z" fill="white"/>
<path d="M47.8506 42.4502C47.6128 42.2942 47.3342 42.2121 47.0498 42.2144C46.7654 42.2167 46.4881 42.3033 46.2529 42.4632C46.0177 42.6232 45.8353 42.8492 45.7286 43.1128C45.6219 43.3765 45.5957 43.6658 45.6535 43.9443C45.7112 44.2227 45.8503 44.4778 46.053 44.6773C46.2557 44.8767 46.513 45.0116 46.7924 45.0648C47.0718 45.118 47.3607 45.0872 47.6225 44.9762C47.8844 44.8653 48.1074 44.6792 48.2635 44.4414C48.4721 44.1224 48.5458 43.7337 48.4684 43.3605C48.391 42.9873 48.1688 42.66 47.8506 42.4502Z" fill="white"/>
<path d="M52.5332 38.7766C52.5468 38.5354 52.4886 38.2957 52.366 38.0876C52.2434 37.8795 52.0618 37.7125 51.8443 37.6076C51.6267 37.5027 51.383 37.4646 51.1438 37.4982C50.9046 37.5318 50.6808 37.6356 50.5005 37.7964C50.3203 37.9572 50.1918 38.1678 50.1313 38.4016C50.0707 38.6354 50.0809 38.8819 50.1604 39.11C50.2399 39.338 50.3853 39.5374 50.5781 39.6828C50.7709 39.8283 51.0025 39.9133 51.2436 39.9272C51.5672 39.9454 51.8847 39.8345 52.1265 39.6188C52.3683 39.403 52.5146 39.1001 52.5332 38.7766Z" fill="white"/>
<path d="M55.9172 37.9066C55.761 37.8976 55.6056 37.9351 55.4707 38.0144C55.3358 38.0937 55.2275 38.2113 55.1594 38.3522C55.0913 38.493 55.0665 38.651 55.0882 38.8059C55.1098 38.9609 55.177 39.1059 55.2811 39.2228C55.3852 39.3396 55.5216 39.4229 55.6731 39.4622C55.8245 39.5015 55.9842 39.495 56.132 39.4435C56.2797 39.392 56.4089 39.2979 56.5032 39.173C56.5974 39.0481 56.6525 38.898 56.6615 38.7418C56.6732 38.5324 56.6014 38.327 56.4619 38.1704C56.3224 38.0139 56.1265 37.919 55.9172 37.9066Z" fill="white"/>
<path d="M52.731 45.751C52.5645 45.642 52.3695 45.5848 52.1705 45.5866C51.9715 45.5884 51.7775 45.6492 51.6131 45.7612C51.4486 45.8732 51.3211 46.0315 51.2466 46.216C51.172 46.4005 51.1539 46.603 51.1944 46.7978C51.235 46.9926 51.3324 47.171 51.4743 47.3105C51.6162 47.45 51.7963 47.5443 51.9918 47.5814C52.1873 47.6186 52.3894 47.5969 52.5726 47.5192C52.7558 47.4415 52.9118 47.3112 53.021 47.1449C53.0935 47.0343 53.1435 46.9106 53.1682 46.7807C53.1929 46.6508 53.1917 46.5173 53.1648 46.3879C53.1379 46.2584 53.0857 46.1355 53.0113 46.0263C52.9368 45.917 52.8416 45.8235 52.731 45.751Z" fill="white"/>
<path d="M30.2798 53.1371C30.149 53.0513 29.9957 53.0062 29.8393 53.0075C29.6828 53.0088 29.5303 53.0564 29.4009 53.1444C29.2715 53.2324 29.1712 53.3568 29.1125 53.5018C29.0538 53.6468 29.0394 53.806 29.0712 53.9592C29.1029 54.1124 29.1794 54.2527 29.2909 54.3624C29.4024 54.4722 29.544 54.5464 29.6976 54.5757C29.8513 54.605 30.0102 54.5881 30.1543 54.5271C30.2984 54.4661 30.4211 54.3637 30.507 54.233C30.5641 54.1461 30.6035 54.0488 30.6229 53.9468C30.6424 53.8447 30.6416 53.7397 30.6205 53.638C30.5994 53.5362 30.5584 53.4396 30.5 53.3537C30.4415 53.2677 30.3667 53.1942 30.2798 53.1371Z" fill="white"/>
<path d="M46.8613 53.0542C46.7216 53.1247 46.6059 53.235 46.5288 53.3712C46.4518 53.5074 46.4168 53.6633 46.4285 53.8194C46.4401 53.9755 46.4977 54.1246 46.594 54.2479C46.6904 54.3712 46.8212 54.4631 46.9698 54.5121C47.1184 54.5611 47.2782 54.5649 47.429 54.523C47.5798 54.4812 47.7148 54.3955 47.8169 54.277C47.919 54.1584 47.9836 54.0122 48.0027 53.8569C48.0217 53.7016 47.9942 53.5441 47.9237 53.4044C47.8771 53.3115 47.8126 53.2288 47.7339 53.1609C47.6552 53.093 47.5639 53.0413 47.4652 53.0088C47.3665 52.9763 47.2624 52.9635 47.1587 52.9713C47.0551 52.9791 46.954 53.0073 46.8613 53.0542Z" fill="white"/>
<path d="M37.6727 45.071C37.971 44.6158 38.1089 44.0742 38.0647 43.5318C38.0204 42.9894 37.7965 42.4772 37.4284 42.0764C37.0604 41.6756 36.5691 41.409 36.0324 41.3188C35.4958 41.2287 34.9444 41.3201 34.4655 41.5786C33.9866 41.8371 33.6077 42.2479 33.3886 42.746C33.1695 43.2442 33.1228 43.8012 33.2559 44.3288C33.3891 44.8565 33.6944 45.3247 34.1235 45.6593C34.5527 45.9938 35.0812 46.1757 35.6254 46.1761C36.0318 46.1775 36.4321 46.0771 36.7897 45.8841C37.1473 45.691 37.4509 45.4115 37.6727 45.071Z" fill="white"/>
<path d="M32.7856 48.8244C32.5835 48.6922 32.3467 48.6229 32.1052 48.6252C31.8637 48.6275 31.6283 48.7014 31.4288 48.8375C31.2292 48.9735 31.0745 49.1657 30.9842 49.3897C30.8938 49.6137 30.8719 49.8595 30.9212 50.0959C30.9705 50.3323 31.0888 50.5489 31.2612 50.7181C31.4335 50.8873 31.6521 51.0016 31.8894 51.0466C32.1267 51.0916 32.372 51.0652 32.5944 50.9708C32.8167 50.8764 33.006 50.7182 33.1384 50.5163C33.3158 50.2451 33.3783 49.9146 33.3121 49.5973C33.246 49.2801 33.0566 49.0021 32.7856 48.8244Z" fill="white"/>
<path d="M38.4877 53.506C38.2891 53.4947 38.0915 53.5426 37.92 53.6436C37.7485 53.7445 37.6108 53.8941 37.5244 54.0733C37.4379 54.2525 37.4064 54.4533 37.4341 54.6504C37.4617 54.8475 37.5471 55.0319 37.6796 55.1805C37.812 55.329 37.9856 55.4349 38.1782 55.4848C38.3708 55.5347 38.5739 55.5264 38.7618 55.4609C38.9498 55.3954 39.114 55.2756 39.2339 55.1168C39.3537 54.9579 39.4238 54.7671 39.4352 54.5684C39.4428 54.4365 39.4243 54.3043 39.3808 54.1794C39.3373 54.0546 39.2696 53.9396 39.1816 53.8409C39.0936 53.7422 38.9871 53.6619 38.868 53.6044C38.7489 53.547 38.6197 53.5135 38.4877 53.506Z" fill="white"/>
<path d="M38.4988 47.1742C38.2147 47.1569 37.9318 47.2243 37.6861 47.3679C37.4403 47.5116 37.2427 47.7249 37.1183 47.9809C36.9939 48.2369 36.9482 48.5241 36.9871 48.806C37.0261 49.088 37.1478 49.3521 37.3369 49.5648C37.526 49.7775 37.774 49.9294 38.0495 50.001C38.3249 50.0727 38.6155 50.061 38.8843 49.9674C39.1531 49.8739 39.3881 49.7026 39.5595 49.4754C39.7309 49.2481 39.8311 48.9751 39.8472 48.6909C39.8691 48.3111 39.7394 47.9381 39.4866 47.6537C39.2339 47.3693 38.8786 47.1969 38.4988 47.1742Z" fill="white"/>
<path d="M44.3795 48.727C44.1637 48.8365 43.9852 49.0075 43.8667 49.2185C43.7482 49.4294 43.6949 49.6708 43.7136 49.9121C43.7323 50.1533 43.8222 50.3836 43.9719 50.5737C44.1215 50.7638 44.3242 50.9053 44.5543 50.9802C44.7844 51.0551 45.0315 51.06 45.2644 50.9944C45.4973 50.9287 45.7055 50.7955 45.8626 50.6115C46.0198 50.4275 46.1188 50.201 46.1471 49.9607C46.1754 49.7204 46.1319 49.4771 46.0219 49.2616C45.9492 49.1185 45.8491 48.9912 45.7272 48.8869C45.6053 48.7826 45.4641 48.7033 45.3115 48.6537C45.159 48.604 44.9981 48.5849 44.8382 48.5975C44.6782 48.6101 44.5224 48.6541 44.3795 48.727Z" fill="white"/>
</svg>
