<svg width="78" height="77" viewBox="0 0 78 77" fill="none" xmlns="http://www.w3.org/2000/svg">
<circle cx="39" cy="38.5" r="36.0482" fill="#313238" stroke="#27272B" stroke-width="4.09639"/>
<path fill-rule="evenodd" clip-rule="evenodd" d="M42.6361 31.278L31.1236 42.775C30.9752 42.4874 30.8412 42.1877 30.7212 41.8767C30.3192 40.8321 30.1181 39.7237 30.1181 38.5532C30.1181 37.3818 30.3192 36.2739 30.7212 35.2293C31.1236 34.1842 31.6812 33.2776 32.394 32.508C33.107 31.7389 33.9637 31.1307 34.9636 30.6827C35.9642 30.2352 37.0619 30.0112 38.2574 30.0112C39.4533 30.0112 40.557 30.2408 41.5681 30.7004C41.9443 30.8709 42.3002 31.0633 42.6361 31.278ZM41.6203 46.4921C40.6198 46.94 39.5222 47.1636 38.3266 47.1636C37.1307 47.1636 36.027 46.934 35.0153 46.475C34.6398 46.3038 34.2838 46.1115 33.9484 45.8964L45.4602 34.4002C45.6088 34.6874 45.7428 34.9867 45.8628 35.298C46.2648 36.3427 46.4659 37.451 46.4659 38.622C46.4659 39.793 46.2648 40.9008 45.8628 41.946C45.4602 42.9905 44.9028 43.8972 44.1898 44.6662C43.477 45.4354 42.6207 46.0442 41.6203 46.4921ZM43.3621 50.0568C44.9028 49.3909 46.2364 48.4898 47.3631 47.3527C48.4895 46.2165 49.363 44.8903 49.9838 43.3748C50.605 41.8596 50.9154 40.2522 50.9154 38.5532C50.9154 36.8538 50.605 35.2465 49.9838 33.7306C49.6158 32.8319 49.1625 32.002 48.6245 31.2403L56.1123 23.7629L53.137 20.7916L45.6265 28.2918C44.9522 27.8327 44.2202 27.4359 43.4309 27.1008C41.8902 26.4465 40.1889 26.1189 38.3266 26.1189C36.4638 26.1189 34.7627 26.4521 33.2219 27.118C31.6812 27.7839 30.3474 28.6849 29.221 29.8216C28.0943 30.9582 27.2205 32.2845 26.5997 33.7999C25.9789 35.3152 25.6685 36.9226 25.6685 38.622C25.6685 40.321 25.9789 41.9279 26.5997 43.4437C26.9682 44.3428 27.4214 45.1729 27.9593 45.9349L20.4722 53.4115L23.4474 56.3827L30.9575 48.8829C31.6318 49.3421 32.3639 49.739 33.1531 50.0739C34.6938 50.7282 36.395 51.0555 38.2574 51.0555C40.12 51.0555 41.8214 50.7222 43.3621 50.0568Z" fill="white"/>
</svg>
