<svg width="73" height="73" viewBox="0 0 73 73" fill="none" xmlns="http://www.w3.org/2000/svg">
<circle cx="36.5" cy="36.5" r="34.4578" fill="#313238" stroke="#27272B" stroke-width="3.91566"/>
<path d="M37.3419 20.4458C34.3182 20.4571 31.4215 21.6633 29.2834 23.8015C27.1453 25.9396 25.9391 28.8363 25.9277 31.86C25.9276 33.1207 26.1307 34.3732 26.5292 35.5693C26.6723 35.9607 26.9597 36.2826 27.3325 36.469C27.7053 36.6554 28.1352 36.6922 28.5342 36.5718C28.9215 36.4246 29.238 36.1351 29.419 35.7625C29.6 35.3898 29.6318 34.9621 29.5081 34.5668C29.1691 33.6366 29.0182 32.6484 29.0641 31.6595C29.1115 30.0631 29.6221 28.5149 30.5336 27.2035C31.4452 25.8921 32.7185 24.8741 34.1983 24.2734C35.6782 23.6728 37.3007 23.5154 38.8684 23.8205C40.4361 24.1256 41.8813 24.88 43.0279 25.9918C44.1745 27.1036 44.973 28.5248 45.3263 30.0823C45.6795 31.6399 45.5722 33.2665 45.0174 34.7642C44.4627 36.2618 43.4844 37.5659 42.2017 38.5174C40.919 39.469 39.3873 40.027 37.7931 40.1235C37.7931 40.1235 36.1962 40.2238 35.3942 40.324C35.1001 40.3655 34.8085 40.4229 34.5206 40.4959C34.4999 40.5114 34.4743 40.5189 34.4486 40.5171C34.4228 40.5152 34.3985 40.5042 34.3802 40.4859C34.3619 40.4676 34.3509 40.4433 34.349 40.4176C34.3472 40.3918 34.3547 40.3662 34.3702 40.3455L34.6209 38.9921L36.1246 32.1823C36.211 31.7768 36.1328 31.3536 35.9072 31.0058C35.6816 30.658 35.3271 30.414 34.9216 30.3276C34.5162 30.2412 34.093 30.3194 33.7452 30.545C33.3973 30.7706 33.1534 31.1252 33.067 31.5306C33.067 31.5306 29.4866 48.1579 29.4866 48.3082C29.4373 48.5088 29.4295 48.7174 29.4636 48.9212C29.4977 49.1249 29.573 49.3196 29.685 49.4932C29.7969 49.6668 29.9431 49.8157 30.1147 49.9309C30.2862 50.046 30.4794 50.125 30.6825 50.1629C30.8835 50.211 31.0923 50.2178 31.2961 50.1828C31.4999 50.1478 31.6944 50.0717 31.8678 49.9592C32.0413 49.8467 32.1901 49.7001 32.3051 49.5283C32.4202 49.3565 32.4991 49.1631 32.5371 48.9599C32.5872 48.7594 33.0383 46.5539 33.0383 46.5539C33.2045 45.742 33.6155 45.0007 34.216 44.4296C34.8165 43.8586 35.5776 43.4853 36.3967 43.3602C36.7404 43.31 38.1941 43.2098 38.1941 43.2098C41.099 42.9413 43.7906 41.5701 45.7156 39.378C47.6405 37.1859 48.6525 34.3397 48.5433 31.4244C48.4342 28.5092 47.2123 25.7466 45.1289 23.7045C43.0454 21.6625 40.2588 20.4964 37.3419 20.4458Z" fill="white"/>
<path d="M38.4584 46.0656C38.2115 46.0155 37.9571 46.0148 37.71 46.0633C37.4628 46.1119 37.2276 46.2088 37.018 46.3486C36.8084 46.4883 36.6285 46.6681 36.4886 46.8776C36.3486 47.0871 36.2515 47.3222 36.2028 47.5693C36.1497 47.8165 36.1467 48.0717 36.194 48.32C36.2413 48.5683 36.3379 48.8045 36.4781 49.0148C36.6183 49.2251 36.7993 49.4052 37.0103 49.5443C37.2213 49.6835 37.458 49.7789 37.7065 49.825C37.9534 49.8811 38.2091 49.8863 38.4581 49.8403C38.7071 49.7942 38.944 49.6979 39.1545 49.5571C39.3649 49.4164 39.5445 49.2342 39.6821 49.0217C39.8198 48.8092 39.9126 48.5708 39.955 48.3212C40.0394 47.8254 39.9316 47.3161 39.6535 46.897C39.3754 46.4779 38.948 46.1805 38.4584 46.0656Z" fill="#E6007A"/>
</svg>
