<svg width="56" height="53" viewBox="0 0 56 53" fill="none" xmlns="http://www.w3.org/2000/svg">
<g filter="url(#filter0_d_203_906)">
<g filter="url(#filter1_di_203_906)">
<path d="M34.8019 10.9999C33.7094 10.9978 32.6408 11.3074 31.7314 11.8895C30.8221 12.4716 30.1129 13.3 29.6938 14.2698C29.2746 15.2396 29.1644 16.3072 29.377 17.3373C29.5896 18.3674 30.1155 19.3137 30.888 20.0562C31.6605 20.7988 32.645 21.3043 33.7166 21.5087C34.7883 21.713 35.8989 21.607 36.9079 21.2041C37.9168 20.8013 38.7787 20.1196 39.3843 19.2455C39.9899 18.3715 40.3119 17.3443 40.3097 16.2941C40.3067 14.8909 39.7255 13.546 38.6932 12.5537C37.6609 11.5615 36.2617 11.0028 34.8019 10.9999Z" fill="#5064FB"/>
</g>
<path d="M13.7426 24.7581H11V42.6777H13.7426V24.7581Z" fill="#5064FB"/>
<path d="M23.8968 25.751L24.1008 25.8926C24.3728 26.0887 24.6108 26.2521 24.8487 26.3937L25.0527 26.5027C25.4151 26.7139 25.8302 26.8268 26.254 26.8295H27.3873C27.6779 26.8115 27.9694 26.8115 28.2599 26.8295H28.4299C29.582 26.9941 30.6707 27.4405 31.5918 28.1258C32.0794 26.824 32.0162 25.3902 31.4159 24.1327C30.8156 22.8752 29.726 21.8942 28.3812 21.4005C27.0365 20.9069 25.544 20.94 24.2244 21.4928C22.9049 22.0456 21.8635 23.0738 21.3242 24.3567C21.4829 24.3567 21.6529 24.4329 21.8115 24.4983C22.5633 24.8216 23.265 25.2431 23.8968 25.751Z" fill="#5064FB"/>
<path d="M44.2513 29.1697C43.7641 28.8225 43.1799 28.6235 42.5739 28.5982C41.968 28.573 41.3681 28.7227 40.8514 29.0281L34.6297 32.6338H21.2002V31.5445H31.6151C31.3241 30.9586 30.9069 30.4388 30.3912 30.0194C29.748 29.4882 28.9628 29.1409 28.1246 29.0172C27.8869 29.0002 27.6483 29.0002 27.4106 29.0172H26.2773C25.4806 29.0095 24.6996 28.8031 24.0108 28.4181C23.5606 28.1714 23.1289 27.8947 22.7188 27.5902C22.1897 27.1866 21.6065 26.8531 20.9849 26.5989C20.6268 26.4519 20.241 26.3777 19.8516 26.381H16.0098V40.8474H27.9999C30.6828 40.8428 33.2901 39.9934 35.423 38.4291L44.2286 31.9693C44.4664 31.8132 44.661 31.6035 44.7953 31.3586C44.9296 31.1137 44.9996 30.8409 44.9992 30.5641C44.9957 30.2918 44.9263 30.0241 44.7965 29.782C44.6667 29.54 44.48 29.3304 44.2513 29.1697Z" fill="#5064FB"/>
</g>
<defs>
<filter id="filter0_d_203_906" x="0.967766" y="0.967682" width="54.0645" height="51.7422" filterUnits="userSpaceOnUse" color-interpolation-filters="sRGB">
<feFlood flood-opacity="0" result="BackgroundImageFix"/>
<feColorMatrix in="SourceAlpha" type="matrix" values="0 0 0 0 0 0 0 0 0 0 0 0 0 0 0 0 0 0 127 0" result="hardAlpha"/>
<feOffset/>
<feGaussianBlur stdDeviation="5.01612"/>
<feComposite in2="hardAlpha" operator="out"/>
<feColorMatrix type="matrix" values="0 0 0 0 0.313726 0 0 0 0 0.392157 0 0 0 0 0.984314 0 0 0 0.5 0"/>
<feBlend mode="normal" in2="BackgroundImageFix" result="effect1_dropShadow_203_906"/>
<feBlend mode="normal" in="SourceGraphic" in2="effect1_dropShadow_203_906" result="shape"/>
</filter>
<filter id="filter1_di_203_906" x="19.2393" y="0.967682" width="31.1035" height="30.6746" filterUnits="userSpaceOnUse" color-interpolation-filters="sRGB">
<feFlood flood-opacity="0" result="BackgroundImageFix"/>
<feColorMatrix in="SourceAlpha" type="matrix" values="0 0 0 0 0 0 0 0 0 0 0 0 0 0 0 0 0 0 127 0" result="hardAlpha"/>
<feOffset/>
<feGaussianBlur stdDeviation="5.01612"/>
<feComposite in2="hardAlpha" operator="out"/>
<feColorMatrix type="matrix" values="0 0 0 0 0.313726 0 0 0 0 0.392157 0 0 0 0 0.984314 0 0 0 0.5 0"/>
<feBlend mode="normal" in2="BackgroundImageFix" result="effect1_dropShadow_203_906"/>
<feBlend mode="normal" in="SourceGraphic" in2="effect1_dropShadow_203_906" result="shape"/>
<feColorMatrix in="SourceAlpha" type="matrix" values="0 0 0 0 0 0 0 0 0 0 0 0 0 0 0 0 0 0 127 0" result="hardAlpha"/>
<feOffset dy="4"/>
<feGaussianBlur stdDeviation="2"/>
<feComposite in2="hardAlpha" operator="arithmetic" k2="-1" k3="1"/>
<feColorMatrix type="matrix" values="0 0 0 0 0 0 0 0 0 0 0 0 0 0 0 0 0 0 0.25 0"/>
<feBlend mode="normal" in2="shape" result="effect2_innerShadow_203_906"/>
</filter>
</defs>
</svg>
