<svg width="300" height="222" viewBox="0 0 300 222" fill="none" xmlns="http://www.w3.org/2000/svg">
<g clip-path="url(#clip0_3340_46026)">
<g clip-path="url(#clip1_3340_46026)">
<path d="M-91.79 6.14687C-91.79 2.5378 -88.8643 -0.387939 -85.2552 -0.387939H396.675C400.284 -0.387939 403.21 2.53779 403.21 6.14686V222.612H-91.79V6.14687Z" fill="#141414"/>
<g clip-path="url(#clip2_3340_46026)">
<mask id="path-3-inside-1_3340_46026" fill="white">
<path d="M-92.6069 3.58461C-92.6069 -0.0244577 -89.6812 -2.9502 -86.0721 -2.9502H396.686C400.295 -2.9502 403.221 -0.024466 403.221 3.5846V250.273H-92.6069V3.58461Z"/>
</mask>
<path d="M-2 249.676V-1.32422H304V249.676H-2Z" fill="#2D2D2D"/>
<g clip-path="url(#clip3_3340_46026)">
<path d="M172.922 -10.1166C171.264 -9.60219 169.878 -8.47289 168.869 -6.98291V-6.99473C167.054 -5.25052 166.02 -5.43381 165.577 -5.68214L161.709 -23.9521C161.416 -25.3356 160.251 -26.1752 159.109 -25.8145L117.223 -12.7773C116.081 -12.4225 115.389 -11.0094 115.686 -9.62584L119.579 8.75642C118.535 10.2227 116.16 9.22943 116.16 9.22943C114.74 8.60861 113.165 8.48444 111.594 8.96928C107.434 10.2641 104.927 15.4022 105.995 20.4456C107.063 25.4891 111.302 28.5281 115.462 27.2333C117.12 26.7189 118.506 25.5896 119.515 24.0996V24.1114C121.017 22.6688 121.983 22.5505 122.524 22.6865L126.431 41.1456C126.724 42.5292 127.89 43.3688 129.031 43.0081L170.917 29.9708C172.059 29.6161 172.751 28.203 172.454 26.8194L168.615 8.68547C169.522 6.75797 172.224 7.88728 172.224 7.88728C173.644 8.5081 175.219 8.63226 176.79 8.14743C180.95 6.85257 183.457 1.71452 182.389 -3.32892C181.321 -8.37237 177.082 -11.4114 172.922 -10.1166Z" fill="#191919"/>
<path d="M-17.0955 146.916C-15.9737 146.65 -15.0129 145.958 -14.291 145.012C-12.9449 143.865 -12.2523 144.137 -11.9987 144.332L-9.99413 156.66C-9.84293 157.6 -9.09182 158.209 -8.31632 158.025L20.0551 151.238C20.8306 151.054 21.3329 150.144 21.1817 149.204L19.1772 136.894C18.943 136.699 18.2505 136.379 16.8653 137.568C16.1435 138.508 15.1826 139.2 14.0608 139.466C11.2417 140.14 8.50557 137.917 7.94955 134.499C7.39354 131.082 9.22742 127.765 12.0465 127.091C13.1098 126.836 14.1584 126.996 15.0851 127.475C15.0851 127.475 16.9433 128.391 17.5676 126.996L15.5826 114.804C15.4314 113.864 14.6803 113.255 13.9048 113.438L1.6578 116.365C0.497 115.614 1.26274 113.35 1.26274 113.35C1.6578 112.226 1.78949 110.955 1.57977 109.666C1.02375 106.249 -1.71243 104.026 -4.53152 104.7C-7.35062 105.374 -9.18449 108.691 -8.62847 112.108C-8.40899 113.468 -7.83835 114.639 -7.06286 115.508C-6.07276 117.211 -6.35564 118.05 -6.51171 118.322L-14.4666 120.226C-15.2421 120.409 -15.7445 121.32 -15.5933 122.26L-13.6033 134.476C-14.2374 135.829 -16.0713 134.925 -16.0713 134.925C-16.998 134.446 -18.0466 134.286 -19.1098 134.541C-21.9289 135.215 -23.7628 138.532 -23.2068 141.949C-22.6508 145.367 -19.9146 147.59 -17.0955 146.916Z" fill="#191919"/>
<path d="M290.204 34.3168L291.053 38.7571L294.716 39.78L291.053 40.8029L290.204 45.2433L289.361 40.8029L285.698 39.78L289.361 38.7571L290.204 34.3168Z" fill="white"/>
<path d="M186.127 27.7892L187.136 33.0928L191.511 34.3167L187.136 35.5406L186.127 40.8442L185.117 35.5406L180.742 34.3167L185.117 33.0928L186.127 27.7892Z" fill="white"/>
<path d="M300.89 90.1194L301.392 92.7564L303.568 93.3654L301.392 93.9744L300.89 96.6114L300.393 93.9744L298.217 93.3654L300.393 92.7564L300.89 90.1194Z" fill="white"/>
<path d="M162.682 188.074L163.184 190.706L165.359 191.315L163.184 191.924L162.682 194.561L162.179 191.924L160.004 191.315L162.179 190.706L162.682 188.074Z" fill="white"/>
<path d="M97.5204 206.97L98.0179 209.601L100.193 210.21L98.0179 210.819L97.5204 213.456L97.0181 210.819L94.8428 210.21L97.0181 209.601L97.5204 206.97Z" fill="#E6E6E6"/>
<path d="M89.975 75.8759L90.4725 78.5129L92.6478 79.1219L90.4725 79.7309L89.975 82.3679L89.4726 79.7309L87.2974 79.1219L89.4726 78.5129L89.975 75.8759Z" fill="#E6E6E6"/>
<path d="M89.4731 9.83325L89.9754 12.4703L92.1458 13.0793L89.9754 13.6824L89.4731 16.3194L88.9707 13.6824L86.7954 13.0793L88.9707 12.4703L89.4731 9.83325Z" fill="#E6E6E6"/>
<path d="M226.087 80.08L226.589 82.717L228.765 83.3201L226.589 83.9291L226.087 86.5661L225.589 83.9291L223.414 83.3201L225.589 82.717L226.087 80.08Z" fill="white"/>
<path d="M224.97 125.507C222.58 125.507 220.376 126.453 218.576 128.038V128.026C215.425 129.729 214.094 128.836 213.64 128.316V102.034C213.64 100.036 212.304 98.41 210.65 98.41H150.162C148.513 98.41 147.172 100.03 147.172 102.034V128.275C147.586 128.783 148.898 129.782 152.142 128.026V128.038C153.937 126.453 156.141 125.507 158.536 125.507C164.545 125.507 169.412 131.414 169.412 138.693C169.412 145.971 164.54 151.878 158.536 151.878C156.268 151.878 154.166 151.038 152.425 149.601C152.425 149.601 148.918 146.805 147.172 149.365V175.357C147.172 177.355 148.508 178.981 150.162 178.981H176.275C178.411 181.092 176.075 185.367 176.075 185.367C174.89 187.477 174.197 190.026 174.197 192.775C174.197 200.059 179.07 205.96 185.074 205.96C191.078 205.96 195.95 200.054 195.95 192.775C195.95 189.878 195.179 187.2 193.872 185.024C192.409 181.045 193.267 179.466 193.687 178.981H210.645C212.294 178.981 213.635 177.361 213.635 175.357V149.312C215.391 146.84 218.854 149.607 218.854 149.607C220.595 151.044 222.697 151.884 224.965 151.884C230.974 151.884 235.842 145.977 235.842 138.698C235.842 131.42 230.969 125.513 224.965 125.513L224.97 125.507Z" fill="#DF912A"/>
<path d="M195.111 71.1648C194.394 71.6023 167.598 66.9787 162.564 70.0296C157.531 73.0805 148.976 89.819 148.801 95.0458C148.62 100.272 152.863 114.906 153.044 115.775C153.224 116.644 156.765 116.757 157.716 110.98C157.897 109.892 158.077 106.841 158.077 106.841C158.077 106.841 164.369 121.44 170.295 114.9C170.295 114.9 173.163 118.921 175.411 116.585C177.66 114.25 177.123 113.156 177.123 113.156C177.123 113.156 181.435 114.682 181.615 110.324C181.796 105.966 178.738 102.697 178.738 102.697L181.971 96.8136C181.971 96.8136 198.954 100.444 203.534 96.5949C206.904 93.7627 206.948 92.2373 206.948 92.2373L245.568 -2.03247H213.303L195.111 71.1648Z" fill="#D8D8D8"/>
<path d="M177.031 112.606C175.704 111.583 174.363 110.543 173.251 109.189C172.139 107.835 170.437 104.648 170.256 102.756C169.934 99.3797 173.261 94.2239 174.548 91.7524" stroke="#141414" stroke-width="0.81685" stroke-linecap="round" stroke-linejoin="round"/>
<path d="M171.1 115.829C169.281 114.043 168.31 112.719 166.642 110.318C165.608 108.834 164.447 106.883 163.516 105.009C162.379 102.721 161.706 100.09 162.575 97.6358C163.443 95.1821 167.94 85.5741 167.94 85.5741" stroke="#141414" stroke-width="0.81685" stroke-linecap="round" stroke-linejoin="round"/>
<path d="M160.706 111.62C158.721 108.77 156.697 103.655 155.658 99.7353C154.932 96.9801 159.385 86.7986 161.399 82.7189" stroke="#141414" stroke-width="0.81685" stroke-linecap="round" stroke-linejoin="round"/>
<path d="M181.894 97.2339C183.084 96.2583 184.064 94.9162 184.722 93.3671" stroke="#141414" stroke-width="0.81685" stroke-linecap="round" stroke-linejoin="round"/>
<path d="M104.237 182.012C104.237 182.012 107.505 176.691 112.831 174.007C118.157 171.317 119.522 171.772 120.298 173.557C121.078 175.343 117.445 180.93 115.884 182.48C114.323 184.029 104.647 191.928 104.647 191.928L104.237 182.018V182.012Z" fill="#D8D8D8"/>
<path d="M145.36 129.446C146.112 129.482 147.072 129.294 148.295 128.715V128.967L148.974 128.367C150.709 126.833 152.82 125.933 155.098 125.933C160.806 125.933 165.566 131.58 165.566 138.71C165.566 145.84 160.811 151.486 155.098 151.486C152.934 151.486 150.922 150.686 149.246 149.303L149.242 149.299L148.986 149.618C149.242 149.299 149.241 149.299 149.241 149.299L149.241 149.299L149.24 149.298L149.237 149.296L149.228 149.289L149.196 149.264C149.184 149.255 149.168 149.243 149.151 149.23C149.13 149.214 149.106 149.197 149.079 149.177C148.979 149.105 148.835 149.004 148.656 148.891C148.301 148.667 147.802 148.387 147.238 148.18C146.129 147.773 144.613 147.6 143.551 148.925L143.462 149.037V149.181V175.368C143.462 177.223 142.233 178.584 140.88 178.584H80.3916C79.0342 178.584 77.8102 177.218 77.8102 175.368V148.714V148.484L77.6135 148.364C76.8219 147.885 75.4852 147.682 73.328 148.704V148.452L72.6491 149.052C70.9137 150.586 68.8027 151.486 66.5254 151.486C60.817 151.486 56.0574 145.839 56.0574 138.71C56.0574 131.579 60.8122 125.933 66.5254 125.933C68.6885 125.933 70.7006 126.733 72.3767 128.116L72.3767 128.116L72.3815 128.12L72.6366 127.801C72.3815 128.12 72.3816 128.12 72.3817 128.12L72.382 128.12L72.3828 128.121L72.3852 128.123L72.3932 128.129L72.4215 128.151C72.4458 128.169 72.4807 128.196 72.5252 128.228C72.6143 128.293 72.7423 128.383 72.9013 128.486C73.2181 128.69 73.6642 128.948 74.1753 129.157C75.1708 129.563 76.5616 129.837 77.6644 128.912L77.8102 128.789V128.599V102.051C77.8102 100.196 79.0383 98.8354 80.3916 98.8354H140.88C142.238 98.8354 143.462 100.201 143.462 102.051V128.439V128.611L143.584 128.731C143.915 129.055 144.478 129.404 145.36 129.446Z" fill="#161616" stroke="#D8D8D8" stroke-width="0.81685"/>
<path d="M85.5371 176.745C85.5371 176.745 94.6723 174.764 99.057 174.338H100.798C100.798 174.338 101.637 157.653 108.67 157.026L106.129 180.931L114.069 178.997C114.069 178.997 116.728 159.835 122.634 157.393L124.951 163.654C124.951 163.654 128.672 156.37 134.33 156.382L127.853 179.6L112.499 187.523L99.0522 186.471L85.5322 176.745H85.5371Z" fill="#262626"/>
<path d="M80.6062 248.862C80.6647 247.324 89.4781 202.282 89.4781 202.282C94.4529 196.529 103.978 197.091 108.426 196.322C119.01 194.495 118.81 190.717 118.81 190.717C118.81 190.717 124.731 191.291 127.326 186.732C128.667 184.373 137.349 156.43 137.349 156.43C137.349 156.43 135.72 154.077 131.682 158.777C127.643 163.484 124.878 174.919 124.878 174.919C124.878 174.919 127.809 159.173 127.863 156.389C127.916 153.604 123.385 154.426 121.946 158.972C120.508 163.519 115.708 178.265 115.708 178.265C114.435 180.725 112.875 182.386 110.821 182.676C110.821 182.676 112.519 159.883 112.514 157.394C112.509 154.904 108.578 155.283 106.9 159.759C105.222 164.235 102.935 176.604 102.935 176.604C102.935 176.604 84.3081 175.48 81.1037 177.97C74.9388 182.765 54.3564 248.862 54.3564 248.862H80.6208H80.6062Z" fill="#D8D8D8"/>
<path d="M123.229 188.323C123.473 188.571 126.131 191.415 129.491 189.73C132.857 188.045 136.905 185.248 141.387 182.788C145.87 180.329 146.265 180.122 143.499 178.277C140.739 176.432 136.325 178.667 133.335 179.874C130.345 181.074 127.521 182.097 127.521 182.097L123.224 188.329L123.229 188.323Z" fill="#D8D8D8"/>
<path d="M118.879 190.813C121.903 187.673 125.18 176.717 127.853 156.389" stroke="#141414" stroke-width="0.612637" stroke-linecap="round" stroke-linejoin="round"/>
<path d="M104.837 189.156C106.92 188.913 108.31 188.423 109.344 187.37C111.197 185.496 112.499 157.387 112.499 157.387" stroke="#141414" stroke-width="0.612637" stroke-linecap="round" stroke-linejoin="round"/>
<path d="M123.839 189.849C125.775 189.027 127.575 185.97 128.545 183.777C129.516 181.583 136.681 159.234 137.344 156.431" stroke="#141414" stroke-width="0.612637" stroke-linecap="round" stroke-linejoin="round"/>
</g>
</g>
<path d="M-93.4238 3.5846C-93.4238 -0.4756 -90.1323 -3.76705 -86.0721 -3.76705H396.686C400.746 -3.76705 404.038 -0.4756 404.038 3.5846H402.404C402.404 0.426667 399.844 -2.13335 396.686 -2.13335H-86.0721C-89.2301 -2.13335 -91.7901 0.426667 -91.7901 3.5846H-93.4238ZM403.221 250.273H-92.6069H403.221ZM-93.4238 250.273V3.5846C-93.4238 -0.4756 -90.1323 -3.76705 -86.0721 -3.76705V-2.13335C-89.2301 -2.13335 -91.7901 0.426667 -91.7901 3.5846V250.273H-93.4238ZM396.686 -3.76705C400.746 -3.76705 404.038 -0.4756 404.038 3.5846V250.273H402.404V3.5846C402.404 0.426667 399.844 -2.13335 396.686 -2.13335V-3.76705Z" fill="#3A3A3A" mask="url(#path-3-inside-1_3340_46026)"/>
</g>
</g>
<defs>
<clipPath id="clip0_3340_46026">
<path d="M0 5.80999C0 2.60122 2.60123 0 5.81 0H294.19C297.399 0 300 2.60123 300 5.81V222H0V5.80999Z" fill="white"/>
</clipPath>
<clipPath id="clip1_3340_46026">
<path d="M-91.79 6.14687C-91.79 2.5378 -88.8643 -0.387939 -85.2552 -0.387939H396.675C400.284 -0.387939 403.21 2.53779 403.21 6.14686V222.612H-91.79V6.14687Z" fill="white"/>
</clipPath>
<clipPath id="clip2_3340_46026">
<path d="M-92.6069 3.58461C-92.6069 -0.0244577 -89.6812 -2.9502 -86.0721 -2.9502H396.686C400.295 -2.9502 403.221 -0.024466 403.221 3.5846V250.273H-92.6069V3.58461Z" fill="white"/>
</clipPath>
<clipPath id="clip3_3340_46026">
<rect width="508.897" height="251.552" fill="white" transform="translate(-105.677 -1.24146)"/>
</clipPath>
</defs>
</svg>
