<svg width="300" height="222" viewBox="0 0 300 222" fill="none" xmlns="http://www.w3.org/2000/svg">
<g clip-path="url(#clip0_3340_46091)">
<rect width="300" height="222" rx="5.81" fill="#2D2D2D"/>
<path d="M102.81 196.193C102.81 196.193 138.326 182.267 141.685 183.545C141.685 183.545 157.272 183.866 174.695 173.318C174.695 173.318 186.616 166.288 191.812 169.164C191.812 169.164 200.674 180.348 204.039 176.673L221.155 193.125C221.155 193.125 195.785 207.821 190.288 207.821C190.288 207.821 137.717 238.175 132.215 245.684L102.81 196.187V196.193Z" fill="#3D3D3D"/>
<path d="M2.16028 137.858L22.7207 145.874H37.8045L56.2386 169.908L140.025 200.349C140.025 200.349 152.585 201.153 155.109 205.951L168.51 215.562L175.67 226.372L-1.55713 346.147L2.19087 137.858H2.16028Z" fill="#141414"/>
<path d="M226.976 183.259L264.492 160.278L276.781 163.197L288.745 176.891L300 183.259V319.561L121.543 237.239L226.976 183.259Z" fill="#141414"/>
<path d="M-1.5532 294.323L2.21407 289.372C2.21407 289.372 6.72696 288.021 8.01803 288.021L18.5507 277.897C18.5507 277.897 27.1487 280.149 28.0081 280.597L28.8676 281.049L35.0993 272.499L48.6379 266.875L51.432 262.376L58.7389 260.125L61.7488 256.3L70.9904 254.726L72.7092 249.55L84.3132 245.725L89.4697 233.798L99.3549 230.425L101.29 224.801H106.234L113.541 217.151H119.557L124.713 214.677L125.573 217.151L131.804 214.677V218.502L153.298 211.978V222.327L156.092 225.478V232.229L158.67 234.702L157.81 243.251L160.604 245.503L161.464 251.353L165.977 255.852V268C165.977 268 152.222 255.174 135.03 249.775L116.547 275.65L84.0935 288.698L53.5746 326.5L-1.55713 301.973V294.323H-1.5532Z" fill="#2D2D2D"/>
<path d="M134.431 119.712C160.661 119.712 181.925 97.881 181.925 70.9516C181.925 44.0222 160.661 22.1915 134.431 22.1915C108.201 22.1915 86.938 44.0222 86.938 70.9516C86.938 97.881 108.201 119.712 134.431 119.712Z" fill="#FFE255"/>
<path d="M134.432 118.499C160.01 118.499 180.745 97.211 180.745 70.9513C180.745 44.6915 160.01 23.4038 134.432 23.4038C108.855 23.4038 88.1201 44.6915 88.1201 70.9513C88.1201 97.211 108.855 118.499 134.432 118.499Z" fill="#FFCC3E"/>
<path d="M134.431 109.585C155.213 109.585 172.061 92.2885 172.061 70.9518C172.061 49.6151 155.213 32.3182 134.431 32.3182C113.648 32.3182 96.8008 49.6151 96.8008 70.9518C96.8008 92.2885 113.648 109.585 134.431 109.585Z" fill="#FFE357"/>
<path d="M134.431 108.323C154.534 108.323 170.831 91.5917 170.831 70.9525C170.831 50.3132 154.534 33.5818 134.431 33.5818C114.328 33.5818 98.0312 50.3132 98.0312 70.9525C98.0312 91.5917 114.328 108.323 134.431 108.323Z" fill="#E59638"/>
<path d="M170.835 70.9525C170.835 71.4348 170.825 71.9172 170.809 72.3962C170.068 52.4279 154.067 36.4693 134.435 36.4693C114.803 36.4693 98.8019 52.4246 98.0613 72.3962C98.045 71.9172 98.0352 71.4348 98.0352 70.9525C98.0352 50.3142 114.333 33.5818 134.435 33.5818C154.537 33.5818 170.835 50.3142 170.835 70.9525Z" fill="#CC8232"/>
<path d="M181.925 70.9523C181.925 97.5599 161.167 119.19 135.372 119.702C135.058 119.709 134.745 119.712 134.432 119.712C132.898 119.712 131.381 119.639 129.884 119.491C127.773 119.287 125.704 118.939 123.681 118.456C118.111 117.133 112.917 114.805 108.29 111.666C107.135 110.882 106.016 110.051 104.936 109.17C101.187 106.119 97.8984 102.494 95.1935 98.4309C94.2082 96.9502 93.3011 95.4127 92.4756 93.8181C91.7056 92.3342 91.0106 90.8067 90.3939 89.2356C89.7251 87.5372 89.1443 85.7886 88.6614 84.0032C87.8098 80.8443 87.2584 77.5548 87.043 74.1715C86.9745 73.1062 86.9419 72.0343 86.9419 70.9523C86.9419 70.4398 86.9484 69.9306 86.9647 69.4214C87.0104 70.9355 87.1214 72.4329 87.3008 73.9102C87.6891 77.1461 88.3841 80.2815 89.3596 83.2897C89.9143 85.0081 90.5636 86.6864 91.2977 88.3144C91.9764 89.8252 92.7301 91.2958 93.5523 92.7194C94.4366 94.2537 95.4023 95.7343 96.4432 97.1546C99.3177 101.084 102.757 104.551 106.636 107.432C107.762 108.269 108.927 109.057 110.127 109.79C114.979 112.765 120.392 114.875 126.167 115.917C128.298 116.299 130.474 116.54 132.693 116.62C133.274 116.644 133.854 116.654 134.439 116.654C135.815 116.654 137.179 116.594 138.527 116.476C162.355 114.393 181.165 94.2436 181.909 69.4281C181.925 69.9373 181.932 70.4464 181.932 70.9589L181.925 70.9523Z" fill="#E59638"/>
<path d="M112.846 101.047L104.934 109.17C101.185 106.119 97.8958 102.494 95.1909 98.4307L96.4373 97.1511L103.217 90.1902C105.7 94.4311 108.983 98.1226 112.846 101.047Z" fill="#FFE357"/>
<path d="M171.657 40.6696L163.745 48.7929C160.893 44.8267 157.297 41.4568 153.17 38.9076L161.196 30.667C165.154 33.444 168.685 36.8206 171.657 40.6696Z" fill="#FFE357"/>
<path d="M100.8 85.269L92.4762 93.8145C91.7062 92.3305 91.0112 90.8029 90.3945 89.2319L99.1649 80.2275C99.5956 81.9594 100.144 83.641 100.803 85.2657L100.8 85.269Z" fill="#FFE357"/>
<path d="M156.703 27.873L148.38 36.4184C146.797 35.7417 145.156 35.1789 143.473 34.7368L152.243 25.7324C153.773 26.3689 155.261 27.0824 156.707 27.8696L156.703 27.873Z" fill="#FFE357"/>
<path d="M149.886 104.799L138.518 116.469L135.37 119.702C135.057 119.709 134.743 119.712 134.43 119.712C132.897 119.712 131.379 119.638 129.882 119.491L141.432 107.633C144.395 107.04 147.227 106.078 149.886 104.799Z" fill="#FFE357"/>
<path d="M181.925 70.9509C181.925 71.2725 181.925 71.5941 181.915 71.9156L167.399 86.819C168.649 84.0889 169.585 81.1813 170.159 78.1396L181.71 66.2812C181.853 67.8188 181.925 69.3765 181.925 70.9509Z" fill="#FFE357"/>
<path d="M98.0316 70.9513C98.0316 72.0568 98.0773 73.1555 98.1719 74.2375L89.3591 83.2854L88.6608 84.0022C87.8092 80.8433 87.2578 77.5538 87.0425 74.1705L99.1442 61.746C98.4166 64.6905 98.0316 67.7757 98.0316 70.9513Z" fill="#FFE357"/>
<path d="M147.144 23.9568L137.633 33.7215C136.579 33.6277 135.512 33.5775 134.432 33.5775C131.339 33.5775 128.334 33.9728 125.466 34.7198L137.568 22.2953C140.863 22.5164 144.064 23.0825 147.144 23.9568Z" fill="#FFE357"/>
<path d="M133.56 108.312L123.681 118.456C118.111 117.132 112.917 114.804 108.29 111.665L110.124 109.783L116.349 103.391C121.442 106.389 127.306 108.161 133.564 108.312H133.56Z" fill="#FFE357"/>
<path d="M180.705 59.9135L170.825 70.0568C170.678 63.6351 168.952 57.6122 166.032 52.3831L174.091 44.109C177.148 48.8591 179.416 54.192 180.705 59.9101V59.9135Z" fill="#FFE357"/>
<path d="M106.632 107.424L104.936 109.166C101.187 106.115 97.8977 102.49 95.1929 98.4268L96.4393 97.1472C99.3138 101.077 102.753 104.544 106.632 107.424Z" fill="#FCBB47"/>
<path d="M93.5497 92.7153L92.4762 93.8174C91.7062 92.3334 91.0112 90.8059 90.3945 89.2349L91.2951 88.3103C91.9737 89.8211 92.7274 91.2917 93.5497 92.7153Z" fill="#FCBB47"/>
<path d="M138.518 116.469L135.37 119.701C135.057 119.708 134.743 119.711 134.43 119.711C132.897 119.711 131.379 119.638 129.882 119.49L132.685 116.613C133.265 116.636 133.846 116.646 134.43 116.646C135.807 116.646 137.171 116.586 138.518 116.469Z" fill="#FCBB47"/>
<path d="M89.3552 83.286L88.6569 84.0029C87.8053 80.844 87.2539 77.5545 87.0386 74.1711L87.2963 73.9065C87.6846 77.1424 88.3796 80.2779 89.3552 83.286Z" fill="#FCBB47"/>
<path d="M126.16 115.91L123.681 118.456C118.111 117.132 112.917 114.804 108.29 111.665L110.124 109.783C114.976 112.757 120.388 114.868 126.164 115.91H126.16Z" fill="#FCBB47"/>
<path d="M144.827 70.7744C144.827 70.7744 148.387 69.0694 148.387 65.1735C148.387 55.9179 138.184 56.4841 138.184 56.4841V49.4193H133.913V56.4841H130.829V49.4193H126.558V56.4841H118.411V61.1939H121.971C123.71 61.1939 123.948 62.899 123.948 62.899V82.1437C123.948 83.8488 122.76 83.688 122.76 83.688H119.439L118.568 88.8032H126.872V96.0288H131.143V88.8836H134.308V95.9484H138.579V88.7228C146.882 88.3979 150.68 85.718 150.837 78.7369C150.993 71.7526 144.827 70.7811 144.827 70.7811V70.7744ZM130.908 61.2743H135.652C135.652 61.2743 140.556 61.1939 140.556 65.5789C140.556 69.9638 134.862 69.8834 134.862 69.8834H130.908V61.2777V61.2743ZM136.128 83.6846H130.986V74.1845H136.206C136.206 74.1845 142.533 73.94 142.533 78.9748C142.533 84.0096 136.128 83.6846 136.128 83.6846Z" fill="#CC8232"/>
<path d="M144.827 68.8114C144.827 68.8114 148.387 67.1063 148.387 63.2105C148.387 53.9549 138.184 54.5211 138.184 54.5211V47.4563H133.913V54.5211H130.829V47.4563H126.558V54.5211H118.411V59.2309H121.971C123.71 59.2309 123.948 60.936 123.948 60.936V80.1807C123.948 81.8858 122.76 81.725 122.76 81.725H119.439L118.568 86.8402H126.872V94.0657H131.143V86.9206H134.308V93.9853H138.579V86.7598C146.882 86.4349 150.68 83.755 150.837 76.7739C150.993 69.7896 144.827 68.8181 144.827 68.8181V68.8114ZM130.908 59.3113H135.652C135.652 59.3113 140.556 59.2309 140.556 63.6159C140.556 68.0008 134.862 67.9204 134.862 67.9204H130.908V59.3146V59.3113ZM136.128 81.7216H130.986V72.2215H136.206C136.206 72.2215 142.533 71.977 142.533 77.0118C142.533 82.0466 136.128 81.7216 136.128 81.7216Z" fill="#FFE357"/>
<path d="M74.2964 219.993L76.5563 215.094L83.1712 213.234L85.4312 207.999L91.7249 206.309L95.7586 201.747L100.276 200.226L113.67 202.422L118.349 200.226L122.224 203.607L74.2964 219.993Z" fill="#E59638"/>
<path d="M100.662 125.957L100.052 123.18L99.3093 122.911L95.6436 118.745L96.2539 114.893L99.1775 112.204L101.753 111.174H104.196L104.544 112.429C104.544 112.429 107.074 114.131 107.336 116.728C109.955 118.565 109.518 119.236 108.34 119.685C108.82 120.76 108.95 122.105 108.95 122.105C108.95 122.105 109.299 123.493 107.903 123.851C106.507 124.209 105.808 125.597 106.332 127.659C104.019 126.988 100.66 125.957 100.66 125.957H100.662Z" fill="white"/>
<path d="M104.982 126.479L120.106 129.584L131.973 119.491L132.497 120.029L134.359 118.535L137.383 119.193L142.969 118.894L142.503 119.908L140.35 121.223L135.173 121.701L134.416 122.478L135.058 123.373L122.839 133.945L117.023 134.961H107.889L104.982 126.479Z" fill="white"/>
<path d="M108.805 201.853C108.805 201.853 105.708 206.213 108.644 209.528C113.298 207.289 119.436 204.393 119.436 204.393C119.436 204.393 119.174 202.57 116.789 203.048C114.403 203.527 111.844 203.406 111.844 203.406L112.252 201.376L108.805 201.855V201.853Z" fill="#7D7D7D"/>
<path d="M105.212 159.03C105.212 159.03 123.1 172.29 124.671 175.873C124.585 179.546 115.77 196.567 112.717 202.033C110.187 202.839 106.783 202.75 106.783 202.75L116.119 179.548L100.849 172.829L105.212 159.032V159.03Z" fill="#7D7D7D"/>
<path d="M106.086 126.867C106.086 126.867 114.901 134.213 109.14 149.174C107.396 160.641 106.959 166.107 93.8702 186.443C87.2393 204.628 85.4931 211.08 85.4931 211.08H79.0356L87.9363 182.232L92.9095 158.761L90.9033 158.941L93.5217 146.219L92.9113 135.559L84.7094 142.278L78.2518 158.583L77.1178 158.494L77.3363 160.554L76.3756 162.929L74.1942 162.884L72.0562 161.585V160.196L73.6705 156.881L73.1902 156.657L79.9096 139.725L88.767 130.362L95.4864 125.883C95.4864 125.883 102.773 123.868 106.088 126.869L106.086 126.867Z" fill="white"/>
<path d="M80.5181 209.764L78.8604 214.468H84.052V209.527L80.5181 209.764Z" fill="white"/>
<path d="M85.1295 215.507C85.1295 217.467 78.2188 217.467 78.2188 215.507C78.2188 213.548 79.7663 211.961 81.6732 211.961C83.5802 211.961 85.1277 213.55 85.1277 215.507H85.1295Z" fill="white"/>
<path d="M258.539 79.0867C258.539 79.2702 258.531 79.4496 258.515 79.6289H200.631C200.992 76.6093 203.479 74.2612 206.509 74.2112C206.33 73.6106 206.237 72.9725 206.237 72.3135C206.237 68.685 209.105 65.7447 212.639 65.7447C214.325 65.7447 215.856 66.412 216.998 67.5047C217.977 61.2362 223.258 56.4524 229.64 56.4524C236.022 56.4524 241.664 61.5698 242.363 68.1553C243.293 67.3421 244.496 66.8499 245.812 66.8499C248.753 66.8499 251.134 69.2981 251.134 72.3135C251.134 72.5721 251.117 72.8224 251.081 73.0726C251.536 72.9558 252.015 72.8974 252.507 72.8974C255.838 72.8974 258.539 75.6668 258.539 79.0867Z" fill="#7D7D7D"/>
<path d="M257.554 116.44C257.554 118.284 256.697 119.916 255.379 120.944H226.15C226.15 119.147 227.552 117.692 229.282 117.692H229.319C229.295 117.48 229.282 117.264 229.282 117.044C229.282 113.944 231.702 111.43 234.689 111.43C235.167 111.43 235.628 111.495 236.069 111.616C236.069 111.556 236.069 111.491 236.069 111.43C236.069 107.225 239.355 103.813 243.406 103.813C247.456 103.813 250.526 107.004 250.734 111.016C251.183 110.891 251.657 110.822 252.148 110.822C255.138 110.822 257.558 113.335 257.558 116.44H257.554Z" fill="#7D7D7D"/>
<path d="M285.04 94.1294C285.04 95.5861 284.373 96.8923 283.322 97.7671H256.577C256.577 96.2155 257.692 94.925 259.184 94.6242V94.553C259.184 92.0473 261.253 90.0167 263.812 90.0167C264.555 90.0167 265.259 90.1869 265.881 90.4957C265.869 90.3374 265.861 90.179 265.861 90.0167C265.861 86.5057 268.767 83.6597 272.356 83.6597C275.946 83.6597 278.581 86.2524 278.828 89.5417C279.252 89.423 279.701 89.3596 280.165 89.3596C282.857 89.3596 285.04 91.4971 285.04 94.1294Z" fill="#7D7D7D"/>
<path d="M54.3881 51.414H28.9725C28.2814 50.2362 27.8877 48.8699 27.8877 47.4173C27.8877 42.9456 31.596 39.3219 36.1681 39.3219C40.3946 39.3219 43.8779 42.4117 44.3842 46.4044C45.2118 46.7381 45.931 47.2721 46.4734 47.9434C47.313 47.2092 48.4179 46.7695 49.6312 46.7695C52.2588 46.7695 54.3881 48.8503 54.3881 51.414Z" fill="#7D7D7D"/>
<path d="M71.0733 113.176C71.0733 114.19 70.7641 115.133 70.2392 115.905H14.5575C14.293 115.261 14.1465 114.555 14.1465 113.816C14.1465 110.813 16.531 108.383 19.4689 108.383C20.3885 108.383 21.2552 108.62 22.0121 109.044C22.0243 105.285 25.0151 102.236 28.7058 102.236C30.3253 102.236 31.8064 102.822 32.958 103.794V103.653C32.958 95.9482 39.0738 89.7057 46.618 89.7057C54.1621 89.7057 60.282 95.9482 60.282 103.653C60.282 104.749 60.16 105.813 59.924 106.834C61.104 107.727 62.0277 108.957 62.5567 110.385C63.4071 109.173 64.8028 108.383 66.3776 108.383C68.9696 108.383 71.0733 110.531 71.0733 113.176Z" fill="#7D7D7D"/>
</g>
<defs>
<clipPath id="clip0_3340_46091">
<rect width="300" height="222" rx="5.81" fill="white"/>
</clipPath>
</defs>
</svg>
