<svg width="300" height="222" viewBox="0 0 300 222" fill="none" xmlns="http://www.w3.org/2000/svg">
<g clip-path="url(#clip0_3340_45754)">
<path d="M0 5.80999C0 2.60122 2.60123 0 5.81 0H294.19C297.399 0 300 2.60123 300 5.81V222H0V5.80999Z" fill="#2D2D2D"/>
<rect x="0.200195" y="187.324" width="298" height="35" fill="#2D2D2D"/>
<ellipse cx="160.643" cy="208.35" rx="68.1575" ry="1.93813" fill="#161616"/>
<g filter="url(#filter0_d_3340_45754)">
<path d="M233.92 161.857C222.241 196.702 184.282 215.568 149.148 203.988C114.005 192.408 94.9765 154.771 106.656 119.936C118.335 85.0914 156.294 66.225 191.428 77.8049C226.571 89.3848 245.599 127.022 233.92 161.857Z" fill="#CC7617"/>
<path d="M225.34 159.029C213.661 193.873 175.702 212.74 140.568 201.16C105.425 189.58 86.3965 151.943 98.0756 117.108C109.755 82.2633 147.714 63.3969 182.848 74.9768C217.991 86.5567 237.019 124.193 225.34 159.029Z" fill="#EB9B0B"/>
<path d="M142.056 196.918H141.995C140.974 196.561 139.979 196.203 138.985 195.828L142.268 187.476C143.113 187.808 143.966 188.105 144.846 188.401L142.056 196.936V196.918ZM146.774 198.28L148.93 189.571C149.845 189.798 150.752 189.99 151.676 190.164L149.96 198.96C148.886 198.751 147.839 198.524 146.765 198.271H146.783L146.774 198.28ZM134.496 193.89C133.502 193.41 132.534 192.922 131.574 192.398L135.931 184.536C136.741 184.981 137.577 185.4 138.422 185.81L134.505 193.89H134.496ZM154.827 199.702L155.821 190.801C156.754 190.906 157.678 190.984 158.611 191.037L158.083 199.99C157.001 199.929 155.909 199.842 154.827 199.72V199.702ZM127.376 189.902C126.461 189.309 125.554 188.689 124.683 188.052L130.052 180.836C130.791 181.377 131.557 181.9 132.34 182.406L127.385 189.902H127.376ZM162.986 200.077L162.818 191.115C163.751 191.098 164.675 191.054 165.591 190.984L166.251 199.92C165.168 199.999 164.068 200.051 162.977 200.069V200.086L162.986 200.077ZM120.837 185.016C120.01 184.3 119.209 183.585 118.425 182.834L124.683 176.368C125.361 177.014 126.056 177.642 126.76 178.235L120.837 185.016ZM171.135 199.371L169.78 190.513C170.695 190.382 171.62 190.217 172.526 190.016L174.365 198.803C173.292 199.03 172.227 199.222 171.144 199.371H171.135ZM115.019 179.317C114.298 178.515 113.585 177.677 112.907 176.839L119.957 171.237C120.546 171.952 121.145 172.668 121.761 173.357L115.01 179.317H115.019ZM179.109 197.617L176.592 189.012C177.481 188.759 178.37 188.471 179.241 188.175L182.207 196.648C181.186 197.006 180.139 197.337 179.092 197.634L179.109 197.617ZM109.985 172.903C109.369 172.005 108.779 171.097 108.225 170.181L115.952 165.538C116.436 166.333 116.947 167.109 117.475 167.886L109.985 172.921V172.903ZM186.793 194.85L183.175 186.63C184.038 186.255 184.874 185.871 185.71 185.452L189.767 193.463C188.791 193.951 187.805 194.405 186.801 194.842V194.859L186.793 194.85ZM105.857 165.914C105.373 164.945 104.907 163.968 104.467 162.982L112.74 159.369C113.118 160.224 113.505 161.053 113.928 161.882L105.849 165.905V165.922L105.857 165.914ZM194.054 191.133L189.38 183.454C190.181 182.974 190.964 182.485 191.748 181.961L196.808 189.388C195.902 189.998 194.987 190.583 194.054 191.133ZM102.663 158.461C102.302 157.449 101.967 156.411 101.668 155.372L110.346 152.859C110.601 153.74 110.892 154.622 111.208 155.503L102.68 158.461H102.663ZM200.76 186.508L195.127 179.501C195.849 178.933 196.571 178.331 197.266 177.72L203.26 184.431C202.45 185.147 201.605 185.853 200.742 186.525L200.76 186.508ZM100.48 150.669C100.251 149.604 100.057 148.548 99.8902 147.484L108.823 146.122C108.955 147.03 109.123 147.946 109.325 148.845L100.48 150.669ZM206.806 181.045L200.294 174.832C200.945 174.16 201.579 173.488 202.177 172.781L209.016 178.654C208.294 179.474 207.555 180.286 206.798 181.063V181.045H206.806ZM99.3357 142.649C99.2565 141.576 99.2036 140.494 99.186 139.403L108.225 139.211C108.242 140.136 108.286 141.061 108.357 141.977L99.3445 142.632L99.3269 142.649H99.3357ZM212.096 174.849L204.817 169.526C205.372 168.776 205.9 168.034 206.41 167.257L213.962 172.188C213.363 173.095 212.738 173.977 212.096 174.849ZM99.274 134.542C99.3356 133.469 99.4237 132.387 99.5469 131.296L108.524 132.282C108.418 133.207 108.339 134.124 108.286 135.048L99.2565 134.542H99.274ZM216.497 168.008L208.567 163.688C209.016 162.886 209.438 162.057 209.852 161.219L217.993 165.12C217.509 166.088 217.016 167.066 216.488 167.999H216.505L216.497 168.008ZM100.286 126.505C100.497 125.441 100.726 124.402 100.982 123.338L109.765 125.476C109.536 126.374 109.343 127.282 109.167 128.181L100.295 126.497V126.514L100.286 126.505ZM219.964 160.678L211.541 157.423C211.876 156.559 212.202 155.686 212.492 154.805L212.554 154.596L221.161 157.344L221.073 157.632C220.73 158.662 220.351 159.683 219.955 160.678H219.973H219.964ZM102.337 118.652L102.381 118.529C102.715 117.543 103.059 116.575 103.437 115.615L111.877 118.861C111.56 119.681 111.244 120.519 110.971 121.374L102.354 118.669L102.337 118.652ZM213.707 150.581C213.935 149.674 214.129 148.775 214.296 147.859L223.185 149.517C222.992 150.581 222.745 151.62 222.49 152.684L213.707 150.564V150.581ZM113.532 115.039L105.382 111.156C105.849 110.17 106.359 109.21 106.878 108.276L114.808 112.578C114.359 113.381 113.937 114.21 113.523 115.048H113.541L113.532 115.039ZM214.93 143.757C215.035 142.832 215.115 141.916 215.159 140.991L224.189 141.48C224.127 142.553 224.039 143.635 223.916 144.726L214.939 143.757H214.93ZM116.964 109.009L109.404 104.096C110.003 103.189 110.628 102.307 111.27 101.426L118.566 106.714C118.02 107.464 117.484 108.224 116.973 109V109.018L116.964 109.009ZM215.212 136.829C215.194 135.904 215.132 134.987 215.08 134.062L224.092 133.373C224.18 134.446 224.224 135.528 224.259 136.619L215.22 136.829H215.212ZM121.171 103.485L114.333 97.6299C115.037 96.8096 115.776 95.998 116.533 95.2214L123.055 101.426C122.403 102.098 121.77 102.787 121.171 103.485ZM214.595 129.944C214.446 129.036 214.279 128.12 214.085 127.212L222.93 125.362C223.159 126.427 223.353 127.465 223.52 128.547L214.587 129.935L214.604 129.952L214.595 129.944ZM126.082 98.5374L120.071 91.8443C120.881 91.1287 121.726 90.4219 122.571 89.7499L128.221 96.7398C127.499 97.3244 126.778 97.9178 126.082 98.5287V98.5374ZM213.055 123.189C212.8 122.308 212.501 121.427 212.193 120.545L220.721 117.57C221.082 118.582 221.416 119.62 221.733 120.65L213.055 123.189ZM131.592 94.2615L126.496 86.8528C127.403 86.242 128.318 85.6573 129.251 85.0901L133.924 92.7518C133.123 93.2318 132.34 93.7205 131.574 94.244L131.592 94.2615ZM210.661 116.671C210.283 115.816 209.878 114.987 209.456 114.158L217.535 110.109C218.037 111.077 218.503 112.055 218.934 113.041L210.661 116.671ZM137.621 90.736L133.555 82.7252C134.531 82.2278 135.517 81.7828 136.512 81.3377L140.147 89.5405C139.284 89.9158 138.448 90.2997 137.612 90.7186L137.629 90.736H137.621ZM207.422 110.519C206.938 109.725 206.428 108.948 205.9 108.171L213.372 103.119C213.988 104.018 214.578 104.925 215.132 105.841L207.414 110.501V110.519H207.422ZM144.072 88.0221L141.088 79.5663C142.109 79.2085 143.157 78.8769 144.204 78.5802L146.739 87.1844C145.85 87.4375 144.961 87.7254 144.089 88.0396L144.072 88.0221ZM203.4 104.847C202.811 104.131 202.212 103.415 201.596 102.726L208.329 96.7485C209.051 97.5513 209.764 98.3803 210.45 99.2268L203.4 104.847ZM150.814 86.1722L148.957 77.4021C150.03 77.1753 151.095 76.9833 152.178 76.8175L153.568 85.6747C152.653 85.8056 151.729 85.9714 150.822 86.1634H150.805L150.814 86.1722ZM198.674 99.7242C197.997 99.0784 197.301 98.4676 196.597 97.8567L202.485 91.0589C203.312 91.757 204.131 92.49 204.914 93.2405L198.657 99.7067L198.674 99.7242ZM157.731 85.2035L157.054 76.2677C158.136 76.1892 159.228 76.1368 160.328 76.1019L160.521 85.0639C159.588 85.0813 158.664 85.125 157.731 85.1948V85.2035ZM193.306 95.2912C192.549 94.7502 191.783 94.2178 191 93.7117L195.946 86.2158C196.861 86.8092 197.75 87.4288 198.63 88.0571L193.297 95.2999H193.314L193.306 95.2912ZM164.702 85.1337L165.212 76.1805C166.295 76.2415 167.386 76.3288 168.469 76.451L167.501 85.3519C166.568 85.2472 165.635 85.1686 164.711 85.125H164.693L164.702 85.1337ZM187.391 91.5738C186.581 91.1287 185.745 90.7098 184.9 90.2997L188.799 82.2191C189.794 82.6816 190.762 83.1877 191.704 83.6939L187.382 91.565L187.391 91.5738ZM171.646 85.9889L173.336 77.1753C174.409 77.3673 175.474 77.6116 176.53 77.8646L174.392 86.5736C173.485 86.3467 172.57 86.1547 171.646 85.9889ZM181.045 88.6592C180.236 88.345 179.417 88.0658 178.572 87.7778L178.388 87.7167L181.239 79.2172L181.327 79.2434C182.401 79.6012 183.36 79.9328 184.311 80.308L181.054 88.6592H181.037H181.045Z" fill="#F5CD85"/>
<path d="M146.032 184.851C119.981 176.264 105.855 148.348 114.524 122.518C123.185 96.6884 151.339 82.6826 177.391 91.2781C203.442 99.8648 217.568 127.78 208.899 153.61C200.239 179.441 172.084 193.446 146.032 184.851Z" fill="#EE972C"/>
<path d="M113.636 126.968C122.182 101.461 150.777 87.2547 176.502 95.728C199.509 103.302 213.406 126.803 209.956 149.936C216.178 125.179 202.211 99.4541 177.374 91.2775C151.322 82.6908 123.159 96.6879 114.507 122.518C113.574 125.31 112.914 128.138 112.5 130.956C112.817 129.63 113.196 128.295 113.627 126.968H113.636Z" fill="#BB8226"/>
<g opacity="0.3">
<path d="M222.621 109.473C239.211 142.301 225.834 182.251 192.724 198.7C159.614 215.149 119.322 201.885 102.732 169.056" fill="#BB8226"/>
</g>
<path d="M180.709 136.254C181.606 136.55 182.372 136.803 183.147 137.057C184.713 137.563 186.095 138.383 187.195 139.605C188.594 141.158 189.149 143.06 189.378 145.093C189.721 148.183 189.448 151.167 187.802 153.898C186.421 156.193 184.352 157.668 181.914 158.698C179.116 159.876 176.141 160.321 173.157 160.714C172.682 160.775 172.612 160.958 172.638 161.368C172.805 164.152 172.946 166.944 173.104 169.728C173.131 170.199 172.981 170.374 172.453 170.382C170.913 170.409 169.373 170.505 167.841 170.601C167.472 170.627 167.296 170.574 167.278 170.138C167.181 167.686 167.023 165.243 166.935 162.791C166.873 161.185 166.908 161.185 165.324 161.237C164.506 161.263 163.687 161.342 162.878 161.342C162.385 161.342 162.253 161.516 162.279 161.979C162.394 163.96 162.482 165.932 162.578 167.913C162.614 168.69 162.64 169.457 162.693 170.225C162.719 170.653 162.552 170.862 162.121 170.871C160.545 170.932 158.97 170.993 157.386 171.063C156.998 171.081 156.875 170.95 156.858 170.54C156.77 168.393 156.629 166.246 156.514 164.099C156.488 163.55 156.488 163.009 156.444 162.459C156.382 161.595 156.321 161.525 155.449 161.551C154.059 161.595 152.677 161.665 151.287 161.743C149.271 161.848 147.256 161.953 145.249 162.075C144.8 162.101 144.642 161.918 144.694 161.525C144.923 159.562 145.17 157.59 145.407 155.626C145.46 155.216 145.715 155.129 146.085 155.111C147.335 155.05 148.593 155.024 149.843 154.884C151.128 154.745 151.709 154.099 151.7 152.808C151.7 151.342 151.603 149.867 151.533 148.401C151.392 145.591 151.234 142.79 151.084 139.98C150.908 136.481 150.732 132.973 150.556 129.465C150.53 128.958 150.53 128.444 150.521 127.937C150.494 125.957 149.35 124.744 147.344 124.7C146.032 124.674 144.721 124.752 143.409 124.84C142.987 124.866 142.811 124.796 142.793 124.368C142.697 122.641 142.582 120.904 142.477 119.176C142.459 118.827 142.6 118.679 142.978 118.661C146.534 118.513 150.081 118.347 153.636 118.208C154.015 118.19 154.164 118.085 154.147 117.667C153.988 114.883 153.865 112.09 153.707 109.307C153.68 108.835 153.812 108.635 154.332 108.617C155.854 108.574 157.368 108.495 158.891 108.399C159.392 108.364 159.524 108.609 159.542 109.027C159.656 111.366 159.771 113.696 159.885 116.035C159.903 116.392 159.92 116.75 159.929 117.108C159.938 117.483 160.132 117.649 160.51 117.632C161.707 117.562 162.904 117.492 164.101 117.431C164.523 117.413 164.576 117.143 164.559 116.803C164.471 115.049 164.391 113.303 164.303 111.549C164.259 110.607 164.207 109.664 164.136 108.731C164.11 108.329 164.242 108.146 164.664 108.12C166.319 108.041 167.965 107.928 169.619 107.867C169.742 107.867 169.971 108.129 169.98 108.277C170.139 111.043 170.279 113.818 170.385 116.584C170.403 117.091 170.57 117.291 171.071 117.317C173.228 117.413 175.358 117.728 177.417 118.356C179.661 119.037 181.774 119.988 183.243 121.925C184.141 123.103 184.66 124.447 184.916 125.904C185.329 128.304 185.294 130.651 184.044 132.833C183.323 134.09 182.399 135.189 181.07 135.887C180.964 135.94 180.885 136.053 180.682 136.245L180.709 136.254ZM172.444 153.296C173.474 152.781 174.548 152.336 175.525 151.734C176.607 151.062 177.461 150.137 177.725 148.828C178.077 147.127 177.954 145.539 176.704 144.168C175.217 142.537 173.245 141.952 171.159 141.69C168.378 141.332 165.58 141.367 162.79 141.647C161.355 141.786 161.364 141.769 161.443 143.217C161.619 146.664 161.786 150.111 161.953 153.558C161.997 154.405 161.98 154.405 162.842 154.352C163.775 154.3 164.708 154.265 165.632 154.204C167.912 154.047 170.182 153.829 172.444 153.314V153.296ZM169.126 135.198C170.183 134.7 171.027 134.36 171.82 133.924C175.12 132.082 174.733 128.147 173.061 126.384C171.934 125.197 170.473 124.63 168.862 124.412C166.319 124.072 163.784 124.185 161.241 124.395C160.554 124.447 160.519 124.473 160.554 125.18C160.712 128.548 160.88 131.917 161.029 135.285C161.047 135.73 161.214 135.905 161.645 135.878C162.385 135.835 163.124 135.826 163.863 135.756C165.694 135.573 167.525 135.372 169.135 135.198H169.126Z" fill="white"/>
</g>
<mask id="mask0_3340_45754" style="mask-type:alpha" maskUnits="userSpaceOnUse" x="96" y="71" width="137" height="138">
<circle cx="68.1575" cy="68.1575" r="68.1575" transform="matrix(-1 0 0 1 232.72 71.7119)" fill="#CC7617"/>
</mask>
<g mask="url(#mask0_3340_45754)">
<g style="mix-blend-mode:soft-light">
<path d="M184.886 -3.84326L100.921 210.351" stroke="#262626" stroke-width="2.58417" stroke-linecap="round" stroke-linejoin="round"/>
<path d="M162.45 -2.20471L78.4844 211.99" stroke="#262626" stroke-width="2.58417" stroke-linecap="round" stroke-linejoin="round"/>
<path d="M154.506 73.6531L132.174 75.284" stroke="#262626" stroke-width="2.58417" stroke-linecap="round" stroke-linejoin="round"/>
<path d="M146.795 93.3247L124.209 94.9741" stroke="#262626" stroke-width="2.58417" stroke-linecap="round" stroke-linejoin="round"/>
<path d="M140.147 110.289L117.62 111.934" stroke="#262626" stroke-width="2.58417" stroke-linecap="round" stroke-linejoin="round"/>
<path d="M132.48 128.296L110.667 129.889" stroke="#262626" stroke-width="2.58417" stroke-linecap="round" stroke-linejoin="round"/>
<path d="M125.725 147.076L103.289 148.714" stroke="#262626" stroke-width="2.58417" stroke-linecap="round" stroke-linejoin="round"/>
<path d="M118.003 166.771L95.6903 168.401" stroke="#262626" stroke-width="2.58417" stroke-linecap="round" stroke-linejoin="round"/>
<path d="M111.261 183.972L88.8248 185.61" stroke="#262626" stroke-width="2.58417" stroke-linecap="round" stroke-linejoin="round"/>
<path d="M104.958 200.048L82.5221 201.686" stroke="#262626" stroke-width="2.58417" stroke-linecap="round" stroke-linejoin="round"/>
</g>
</g>
<path d="M191.513 0.323853L91.9054 207.824" stroke="#262626" stroke-width="2.58417" stroke-linecap="round" stroke-linejoin="round"/>
<path d="M169.016 0.323853L69.4088 207.824" stroke="#262626" stroke-width="2.58417" stroke-linecap="round" stroke-linejoin="round"/>
<path d="M180.742 22.7621H158.349" stroke="#262626" stroke-width="2.58417" stroke-linecap="round" stroke-linejoin="round"/>
<path d="M172.26 40.4321H149.867" stroke="#262626" stroke-width="2.58417" stroke-linecap="round" stroke-linejoin="round"/>
<path d="M164.118 57.3892H141.621" stroke="#262626" stroke-width="2.58417" stroke-linecap="round" stroke-linejoin="round"/>
<path d="M155.473 75.3979H133.08" stroke="#262626" stroke-width="2.58417" stroke-linecap="round" stroke-linejoin="round"/>
<path d="M146.327 94.4551H123.68" stroke="#262626" stroke-width="2.58417" stroke-linecap="round" stroke-linejoin="round"/>
<path d="M138.439 110.889H115.851" stroke="#262626" stroke-width="2.58417" stroke-linecap="round" stroke-linejoin="round"/>
<path d="M129.458 128.289H107.586" stroke="#262626" stroke-width="2.58417" stroke-linecap="round" stroke-linejoin="round"/>
<path d="M121.33 146.526H98.8324" stroke="#262626" stroke-width="2.58417" stroke-linecap="round" stroke-linejoin="round"/>
<path d="M112.17 165.606H89.7968" stroke="#262626" stroke-width="2.58417" stroke-linecap="round" stroke-linejoin="round"/>
<path d="M104.173 182.269H81.6756" stroke="#262626" stroke-width="2.58417" stroke-linecap="round" stroke-linejoin="round"/>
<path d="M96.6948 197.843H74.1976" stroke="#262626" stroke-width="2.58417" stroke-linecap="round" stroke-linejoin="round"/>
<g clip-path="url(#clip1_3340_45754)">
<path d="M80.608 136.41L95.761 139.15C95.761 139.15 105.605 140.431 102.437 149.069C99.2693 157.707 94.0458 178.664 94.0458 178.664H89.6799L88.9499 156.425L91.8345 148.042L73.0669 152.744L80.6009 136.41H80.608Z" fill="black"/>
<path d="M73.7544 106.475L90.4525 110.751L100.552 96.1238L104.153 97.9221L95.0735 117.846H78.0352L73.7544 106.475Z" fill="black"/>
<path d="M67.2109 103.371L68.9785 96.3007H73.574L74.8113 104.961L67.2109 103.371Z" fill="#FBF6F2"/>
<path d="M60.2319 138.463C58.1765 140.686 56.8086 147.185 60.2319 152.319C58.3466 164.461 56.9787 180.37 56.9787 180.37C56.9787 180.37 50.6425 176.695 53.0381 215.608C55.0934 215.523 56.3621 215.608 56.3621 215.608L64.8529 180.965L75.2998 151.71L80.8217 137.66V118.748L74.4586 102.664L68.6305 100.386L57.9284 101.837C57.9284 101.837 52.8751 103.204 55.0155 109.278C57.1559 115.353 62.0392 128.777 62.0392 128.777L60.239 138.442L60.2319 138.463Z" fill="#FBF6F2"/>
<path d="M90.3116 176.573C90.3116 176.573 86.5885 181.679 90.1184 185.56C95.7129 182.938 103.092 179.547 103.092 179.547C103.092 179.547 102.777 177.413 99.9092 177.973C97.0414 178.534 93.9653 178.392 93.9653 178.392L94.4559 176.016L90.3116 176.576V176.573Z" fill="black"/>
<path d="M53.1438 208.541L50.7734 215.608H58.197V208.184L53.1438 208.541Z" fill="white"/>
<path d="M60.3185 216.968C60.3185 219.868 49.7134 219.868 49.7134 216.968C49.7134 214.068 52.0882 211.719 55.0145 211.719C57.9408 211.719 60.3157 214.071 60.3157 216.968H60.3185Z" fill="white"/>
<path d="M74.458 102.664L80.8211 118.748L80.7431 137.837H85.4166V115.529L74.458 102.664Z" fill="black"/>
<path d="M43.7031 142.824L55.8581 147.441L70.352 129.393L71.4435 105.958L68.6156 100.4L57.9135 101.852C57.9135 101.852 51.2371 102.963 54.4052 110.49C57.5733 118.016 58.8561 121.782 58.8561 121.782L43.7031 142.824Z" fill="black"/>
<path d="M82.7486 96.5488H86.6892L74.9595 115.793C74.9595 115.793 73.8467 120.841 67.5105 118.618C61.1743 116.394 54.4129 110.49 54.4129 110.49C54.4129 110.49 53.5553 108.266 54.4129 105.272C55.2705 102.277 64.307 99.2818 70.3597 110.15C72.7269 107.927 82.7486 96.5488 82.7486 96.5488Z" fill="black"/>
<path d="M65.4357 94.6382C65.4357 94.6382 64.8933 99.4975 73.6986 100.36C75.6373 100.558 78.7417 95.8559 76.6471 89.5866C78.6263 88.8058 79.2841 85.0419 76.3759 85.0011C74.2006 83.1599 73.4678 82.5715 70.7096 83.1599C69.0824 82.3384 66.1685 82.5307 64.8529 84.2553C63.7681 86.1373 64.6971 87.9785 64.1143 88.1707C63.5316 88.363 60.8196 92.4824 65.4357 94.6323V94.6382Z" fill="black"/>
<g clip-path="url(#clip2_3340_45754)">
<path d="M72.5541 91.4923L131.383 87.5882L130.783 96.822L72.3989 93.8803L72.5541 91.4923Z" fill="black"/>
<path d="M136.191 86.2314L128.897 86.254L128.944 99.1023L136.238 99.0797L136.191 86.2314Z" fill="black"/>
<path d="M135.968 98.5983C137.14 98.5983 138.089 95.9869 138.089 92.7655C138.089 89.5442 137.14 86.9327 135.968 86.9327C134.797 86.9327 133.847 89.5442 133.847 92.7655C133.847 95.9869 134.797 98.5983 135.968 98.5983Z" fill="#FBF6F2"/>
<path d="M84.5332 92.7656L83.2959 97.5379H85.0634L88.2449 92.7656H84.5332Z" fill="black"/>
<path d="M102.562 91.8818L100.971 98.2449H103.244L107.334 91.8818H102.562Z" fill="black"/>
</g>
</g>
</g>
<defs>
<filter id="filter0_d_3340_45754" x="87.5961" y="64.5265" width="156.804" height="149.912" filterUnits="userSpaceOnUse" color-interpolation-filters="sRGB">
<feFlood flood-opacity="0" result="BackgroundImageFix"/>
<feColorMatrix in="SourceAlpha" type="matrix" values="0 0 0 0 0 0 0 0 0 0 0 0 0 0 0 0 0 0 127 0" result="hardAlpha"/>
<feOffset/>
<feGaussianBlur stdDeviation="3.52008"/>
<feColorMatrix type="matrix" values="0 0 0 0 1 0 0 0 0 0.709804 0 0 0 0 0.0627451 0 0 0 0.75 0"/>
<feBlend mode="normal" in2="BackgroundImageFix" result="effect1_dropShadow_3340_45754"/>
<feBlend mode="normal" in="SourceGraphic" in2="effect1_dropShadow_3340_45754" result="shape"/>
</filter>
<clipPath id="clip0_3340_45754">
<path d="M0 5.80999C0 2.60122 2.60123 0 5.81 0H294.19C297.399 0 300 2.60123 300 5.81V222H0V5.80999Z" fill="white"/>
</clipPath>
<clipPath id="clip1_3340_45754">
<rect width="103.576" height="145.29" fill="white" transform="translate(43.7031 77.0347)"/>
</clipPath>
<clipPath id="clip2_3340_45754">
<rect width="66.1051" height="17.6752" fill="white" transform="translate(76.2256 83.3977)"/>
</clipPath>
</defs>
</svg>
