<svg width="109" height="37" viewBox="0 0 109 37" fill="none" xmlns="http://www.w3.org/2000/svg">
<path fill-rule="evenodd" clip-rule="evenodd" d="M15.0459 0.152498C11.7535 0.557155 8.12994 2.24936 5.03983 4.86124C4.41445 5.37626 3.10851 6.64541 3.10851 6.71898C3.10851 6.75577 3.73388 7.41794 4.50641 8.19047L5.90432 9.60677L5.31573 10.2689C3.14529 12.7153 1.67381 15.1984 0.790921 17.8287C0.239115 19.4841 0 20.8452 0 22.3719C0 23.7514 0.183934 24.8734 0.606985 25.9586L0.772527 26.4001L4.87428 30.5018C8.29548 33.923 9.06801 34.6587 9.49106 34.9346C10.3739 35.5232 11.404 35.9279 12.5444 36.167C13.2985 36.3326 15.0459 36.3877 15.8736 36.2774C19.1477 35.8727 22.5321 34.3277 25.4934 31.8629C26.2659 31.2192 27.5719 29.9868 27.5719 29.9132C27.5719 29.8764 26.9281 29.2143 26.1556 28.4233L24.7393 26.9886L25.1807 26.5288C26.2659 25.3884 27.5903 23.5675 28.3628 22.1328C29.4664 20.1279 30.1838 17.9574 30.4229 15.9709C30.5149 15.1064 30.4597 13.2671 30.3125 12.5681C30.055 11.3909 29.6504 10.4345 29.0434 9.5148C28.7307 9.03657 28.1053 8.3928 24.6473 4.91642L20.6007 0.869847L20.1777 0.704303C19.6075 0.465188 18.4303 0.189285 17.713 0.115711C16.9956 0.0421371 15.8736 0.0605301 15.0459 0.152498ZM18.5223 1.23772C18.8166 1.31129 19.2948 1.42165 19.5523 1.51362C20.0305 1.67916 20.0489 1.67916 20.8031 2.4333C21.4652 3.09546 21.5572 3.18743 21.3917 3.16904C20.5088 3.00349 19.0925 2.96671 17.9889 3.11386C14.4573 3.5553 10.8154 5.33947 7.46777 8.28243C7.13669 8.57673 6.84239 8.83424 6.78721 8.87103C6.73203 8.90781 6.43773 8.6687 5.57324 7.8042L4.43284 6.66381L5.16858 6.02003C8.2403 3.33458 11.6247 1.64237 14.9355 1.16414C15.8184 1.03539 17.7865 1.09057 18.5223 1.23772ZM23.3414 7.08685C24.96 7.32597 26.3763 8.02492 27.4247 9.07335C28.4548 10.1034 29.1169 11.4277 29.4296 13.0831C29.5584 13.8189 29.5584 15.4743 29.4296 16.3388C29.0066 19.0059 27.7742 21.7465 25.8613 24.248C25.4198 24.8366 24.3714 26.069 24.2059 26.1977C24.1139 26.2713 24.0035 26.1793 23.0471 25.2229C22.4585 24.6343 21.9803 24.1376 21.9803 24.1193C21.9803 24.1009 22.1458 23.8985 22.3481 23.6778C25.6774 19.9991 27.2408 15.4007 26.1372 12.5497C25.6957 11.4461 24.7761 10.6184 23.5805 10.2505C22.9735 10.0666 21.9067 9.97464 21.1158 10.0666C19.9018 10.177 18.4119 10.6552 16.9772 11.3542C15.5425 12.0531 14.2366 12.936 12.9674 14.0764L12.3972 14.573L11.312 13.4878L10.2268 12.4026L10.6866 11.9795C13.5008 9.34926 17.2347 7.47312 20.4352 7.05007C21.079 6.99489 22.7344 6.99489 23.3414 7.08685ZM8.12994 13.4326C7.72528 13.8925 7.21026 14.5362 6.95275 14.8673C3.89943 18.9323 2.50152 23.3467 3.07172 27.1542L3.10851 27.3933L2.35437 26.6576C1.63702 25.9586 1.60024 25.9034 1.45309 25.462C0.0183938 21.3418 1.82096 15.6582 6.06986 10.8943L6.56649 10.3425L7.70689 11.4829L8.84728 12.6233L8.12994 13.4326ZM22.4953 11.0782L22.6424 11.115L22.6056 11.8876C22.5689 12.8072 22.4401 13.5614 22.2562 14.2051C21.6676 16.1365 20.5823 18.0678 19.0005 19.8887L18.3935 20.5877L17.2347 19.4289L16.0759 18.2701L16.6093 17.6815C17.7497 16.4308 18.7982 14.9777 19.442 13.7453C19.7914 13.0831 20.2513 11.9611 20.38 11.4461C20.4536 11.1334 20.4536 11.1334 20.7295 11.0966C20.8766 11.0783 21.0422 11.0599 21.0974 11.0415C21.2445 11.0415 22.3665 11.0415 22.4953 11.0782ZM19.2028 11.8876C18.9453 12.6049 18.3751 13.7085 17.8233 14.5362C17.2163 15.4559 16.7933 16.0077 15.9472 16.9642L15.3586 17.6447L14.1998 16.4859L13.041 15.3272L13.4273 14.9777C14.6228 13.9108 16.0208 12.9544 17.3083 12.2922C18.0073 11.9427 19.1477 11.4829 19.3132 11.4645C19.3316 11.4645 19.2948 11.6484 19.2028 11.8876ZM36.8238 12.5865C36.7687 12.6417 36.7503 14.1684 36.7503 19.76C36.7503 26.5656 36.7503 26.8599 36.8606 26.9519C36.9526 27.0438 37.2469 27.0438 39.73 27.0438C41.2383 27.0438 42.8753 27.007 43.3535 26.9886C45.2849 26.8599 46.7747 26.2345 47.9151 25.0941C48.8164 24.1928 49.3866 22.9421 49.6809 21.2867C49.8097 20.4773 49.8097 18.7851 49.6809 17.9942C49.2027 15.3272 47.676 13.5982 45.2297 12.8992C44.0341 12.5681 43.9421 12.5497 40.3002 12.5313C37.5964 12.5313 36.879 12.5313 36.8238 12.5865ZM103.795 12.8256C103.739 12.8808 103.721 13.3406 103.721 14.5178V16.1365H103.022C102.562 16.1365 102.305 16.1549 102.25 16.21C102.158 16.302 102.158 18.2149 102.25 18.3253C102.305 18.3805 102.562 18.3989 103.022 18.3989H103.721L103.739 21.6729C103.758 24.8734 103.758 24.9654 103.887 25.3332C104.236 26.3449 104.953 26.8967 106.112 27.0438C106.903 27.1358 108.025 27.099 108.798 26.9519L108.963 26.9151L108.945 25.5723L108.926 24.2296L108.191 24.1928C107.4 24.156 107.271 24.1193 107.179 23.9537C107.142 23.8801 107.124 22.7765 107.124 21.1395V18.4357L108.062 18.4173L109 18.3989V17.2769V16.1549L108.062 16.1365L107.124 16.1181V14.5362C107.124 13.5614 107.105 12.9176 107.069 12.844C107.014 12.7337 106.922 12.7337 105.45 12.7337C104.291 12.7705 103.85 12.7888 103.795 12.8256ZM43.5926 15.9341C44.7146 16.2284 45.4504 17.0194 45.7447 18.1781C45.9654 19.061 45.9654 20.5325 45.7263 21.4522C45.4872 22.3535 44.9354 23.0708 44.1996 23.4203C43.5559 23.733 43.1696 23.7882 41.8453 23.825L40.6497 23.8617V19.8152V15.7686L41.9372 15.8054C42.8753 15.8238 43.3351 15.8606 43.5926 15.9341ZM54.8311 16.0077C52.9917 16.3388 51.5754 17.5528 50.9501 19.3185C50.1223 21.6361 50.527 24.2848 51.9249 25.7747C52.6607 26.5472 53.3596 26.9519 54.4264 27.2278C56.4681 27.7428 58.6569 27.2094 60.11 25.8482C60.4595 25.5356 61.3608 24.3952 61.3608 24.2848C61.3608 24.156 61.1033 23.9905 60.0548 23.4571C59.4111 23.126 58.8777 22.8501 58.8593 22.8501C58.8409 22.8501 58.7305 23.0156 58.6202 23.218C58.3626 23.7146 57.8292 24.2664 57.443 24.4687C56.2842 25.0389 54.9231 24.7078 54.3345 23.7146C54.1689 23.4203 54.0034 22.9053 54.0034 22.6294V22.427H57.6821C60.4595 22.427 61.3608 22.4087 61.416 22.3535C61.5079 22.2615 61.5079 21.5258 61.3976 20.79C61.1033 18.8219 60.2756 17.4056 58.9512 16.6147C58.5098 16.3572 57.6637 16.0629 57.1119 15.9709C56.5601 15.879 55.3829 15.8973 54.8311 16.0077ZM66.9156 15.9341C66.4006 16.0077 65.9776 16.0997 65.6465 16.21C63.7887 16.7986 62.5564 18.3253 62.1701 20.4957C62.023 21.3234 62.0781 22.6478 62.2805 23.4387C62.5564 24.5055 62.961 25.2045 63.6968 25.9034C64.3405 26.5104 65.0947 26.9335 66.1063 27.2094C66.4006 27.3013 66.6949 27.3197 67.449 27.3197C68.3135 27.3197 68.4423 27.3013 68.9205 27.1542C69.877 26.8599 70.6127 26.4184 71.2749 25.7195C71.7163 25.2597 72.213 24.5791 72.213 24.4319C72.213 24.3768 72.121 24.2848 72.029 24.2112C71.6428 23.9721 69.8586 23.0892 69.7666 23.0892C69.7114 23.0892 69.6195 23.218 69.5275 23.4019C69.3068 23.8801 69.0125 24.1928 68.5527 24.4136C68.2032 24.5791 68.0928 24.6159 67.7066 24.5975C67.1915 24.5975 66.8605 24.4687 66.4374 24.1009C65.3338 23.126 65.2602 20.4222 66.3086 19.1898C66.9708 18.4173 68.2032 18.4173 68.9941 19.1714C69.1229 19.3002 69.3068 19.5393 69.3988 19.7048C69.4907 19.8704 69.6011 20.0175 69.6563 20.0175C69.785 20.0543 72.0474 18.7483 72.0842 18.6196C72.1026 18.5092 71.8635 18.1414 71.514 17.6999C70.9438 17.001 69.8218 16.3204 68.847 16.0997C68.3503 15.9709 67.2835 15.8974 66.9156 15.9341ZM96.4188 16.0629C95.8118 16.1733 95.26 16.394 94.8186 16.7251L94.4691 16.9826L94.4507 16.6147L94.4323 16.2468L93.016 16.2284C91.7653 16.21 91.5813 16.2284 91.4894 16.3204C91.379 16.4124 91.379 16.6883 91.379 23.4939C91.379 28.92 91.3974 30.5754 91.4526 30.6306C91.5629 30.7409 94.6531 30.7409 94.745 30.6306C94.8002 30.5754 94.8186 30.0236 94.8186 28.5337V26.5104L95.3888 26.8047C96.1613 27.191 96.6396 27.2829 97.5408 27.2462C98.5893 27.191 99.2146 26.9886 99.8952 26.4736C100.852 25.7563 101.477 24.6527 101.827 23.126C102.01 22.3167 102.01 20.9004 101.827 20.0359C101.587 18.8955 101.201 18.123 100.502 17.3872C99.4722 16.2468 97.9639 15.787 96.4188 16.0629ZM13.4641 17.1481C14.4573 18.1414 14.5125 18.2149 14.4389 18.3253C14.3837 18.3805 14.1446 18.6564 13.8871 18.9507C12.8571 20.1279 11.9006 21.5626 11.2568 22.8869C10.797 23.825 10.5211 24.5975 10.2452 25.6459C9.89572 27.0254 9.89571 28.5521 10.282 29.6189C10.9993 31.6422 12.8939 32.5987 15.5425 32.286C18.0992 31.9733 21.0422 30.5018 23.5621 28.2762L24.0955 27.798L25.1807 28.8832L26.2659 29.9684L25.8061 30.3914C23.4517 32.5803 20.3064 34.3644 17.5842 35.0266C16.4806 35.3025 15.7081 35.3945 14.6596 35.3945C13.2617 35.3945 12.2317 35.2105 11.1465 34.7323C9.74857 34.1253 8.46102 32.9298 7.79885 31.6054C6.97114 29.9684 6.73203 27.9451 7.0999 25.7563C7.61492 22.703 9.32552 19.4289 11.8454 16.6147C12.1029 16.3204 12.3421 16.0813 12.3604 16.0813C12.3788 16.0813 12.8755 16.5595 13.4641 17.1481ZM78.9082 16.1549C78.1909 16.2652 77.2896 16.5963 76.701 16.9826L76.5171 17.1113V16.7251C76.5171 16.5043 76.4803 16.3204 76.4435 16.2652C76.3883 16.21 75.9652 16.1916 74.88 16.1916C73.5189 16.1916 73.3718 16.1916 73.2982 16.302C73.2062 16.394 73.2062 16.8538 73.2062 21.6361C73.2062 26.6208 73.2062 26.8599 73.3166 26.9519C73.4085 27.0438 73.6109 27.0438 74.9352 27.0438C76.1124 27.0438 76.4619 27.0254 76.5171 26.9703C76.5538 26.9151 76.5906 25.8299 76.5906 23.6042C76.609 20.5141 76.609 20.2934 76.7194 20.0911C76.9401 19.6496 77.3264 19.4657 78.4484 19.2818C78.8714 19.2082 79.2945 19.1346 79.3864 19.1162L79.552 19.0794V17.6447C79.552 16.21 79.5336 16.0445 79.3496 16.0813C79.2761 16.0997 79.0921 16.1181 78.9082 16.1549ZM80.4165 16.2836C80.3797 16.3388 80.3613 16.4308 80.3797 16.5227C80.3981 16.5963 80.8947 18.2149 81.4833 20.0911C83.8377 27.6692 83.7089 27.2278 83.5434 27.5221C83.3962 27.8164 83.1387 27.8715 82.219 27.8715C81.6488 27.8715 81.3545 27.8899 81.3178 27.9451C81.2626 28.0003 81.2442 28.3682 81.2442 29.2694C81.2442 30.1707 81.2626 30.5386 81.3178 30.5938C81.4097 30.6857 83.7457 30.6857 84.3527 30.6122C85.3643 30.465 86.192 29.7477 86.6703 28.6073C86.7806 28.3682 87.7187 25.5172 88.7671 22.2799C90.3674 17.3872 90.6801 16.3756 90.6065 16.302C90.5513 16.2284 90.2754 16.21 88.8223 16.21H87.1117L87.0565 16.4675C87.0198 16.6147 86.6703 18.1414 86.2656 19.8887C85.861 21.6361 85.5299 23.0892 85.4931 23.1076C85.4747 23.126 85.0884 21.5809 84.6654 19.6864L83.8745 16.21H82.1639C80.7476 16.21 80.4717 16.21 80.4165 16.2836ZM56.9279 18.5828C57.4798 18.8403 57.8476 19.3369 57.958 19.9439L57.9948 20.1646H56.0267H54.0586L54.0953 19.9807C54.1689 19.6496 54.4816 19.1162 54.7391 18.8955C55.1806 18.5092 55.5668 18.3805 56.1738 18.4173C56.4681 18.4357 56.6888 18.4908 56.9279 18.5828ZM97.5224 18.6748C98.0375 18.9507 98.4237 19.5209 98.6077 20.2934C98.7364 20.8636 98.7364 22.2247 98.5893 22.7949C98.4605 23.2915 98.203 23.8066 97.9271 24.156C97.4857 24.6895 96.6212 24.8366 95.9222 24.4871C95.1129 24.0825 94.7266 23.1812 94.7266 21.6729C94.7266 20.275 95.0945 19.2818 95.7751 18.7851C96.3085 18.4173 96.9522 18.3805 97.5224 18.6748ZM17.0692 21.6545C15.5609 23.0708 13.6296 24.34 12.0294 24.9838C11.6983 25.1125 11.404 25.2229 11.3856 25.2229C11.3672 25.2229 11.4408 25.0205 11.5327 24.763C12.2317 22.8317 13.4457 20.8636 14.8988 19.3001L15.2482 18.9323L16.407 20.0727L17.5658 21.2131L17.0692 21.6545ZM19.3868 23.0892L20.5088 24.2112L20.1593 24.5423C18.3199 26.2713 15.4873 27.8347 13.4825 28.2578C12.9858 28.3682 11.8822 28.4785 11.3488 28.4785H10.9993V27.6324C10.9993 27.1726 11.0177 26.676 11.0361 26.5656L11.0729 26.3449L11.7902 26.1058C13.6112 25.5172 15.9288 24.0641 17.6394 22.4454C17.9153 22.1879 18.1728 21.9672 18.2096 21.9672C18.2464 21.9672 18.7798 22.4638 19.3868 23.0892Z" fill="#676768"/>
</svg>
