<svg width="109" height="20" viewBox="0 0 109 20" fill="none" xmlns="http://www.w3.org/2000/svg">
<path d="M24.8848 6.5692H28.3251V15.4566H30.4466V6.5692H33.8869V4.73438H24.8848V6.5692Z" fill="#676768"/>
<path d="M42.1436 9.03475H37.4992V4.73438H35.3203V15.3993H37.4992V10.8696H42.1436V15.3993H44.3224V4.79171H42.1436V9.03475Z" fill="#676768"/>
<path d="M48.2218 10.8708H52.8662V9.15068H48.2218V6.62779H53.4396V4.79297H46.043V15.4579H53.6116V13.6231H48.2218V10.8708V10.8708Z" fill="#676768"/>
<path d="M65.3083 9.84013C65.8817 9.61078 66.9138 8.92272 66.9138 7.37459C66.9138 5.82645 65.767 4.67969 63.9322 4.67969H59.2305V15.3446H64.1616C65.9964 15.3446 67.3725 14.1978 67.3725 12.4204C67.2578 10.9869 66.2257 10.1268 65.3083 9.84013ZM61.2373 6.45718H63.2441C64.1616 6.45718 64.7923 6.91588 64.7923 7.83329C64.7923 8.69337 64.2762 9.20941 63.3588 9.20941H61.352V6.45718H61.2373V6.45718ZM63.5308 13.7965H61.18V10.8149H63.4162C64.4483 10.8149 65.079 11.3309 65.079 12.363C65.079 13.2804 64.5056 13.7965 63.5308 13.7965Z" fill="#676768"/>
<path d="M70.8698 4.79297H68.8057V15.4579H76.145V13.5657H70.9272V4.79297H70.8698Z" fill="#676768"/>
<path d="M81.9363 4.67969C78.8973 4.67969 76.6611 6.8012 76.6611 10.1268C76.6611 13.4524 78.8973 15.5166 81.9363 15.5166C84.9752 15.5166 87.2114 13.3951 87.2114 10.0695C87.2114 6.74387 84.9178 4.67969 81.9363 4.67969ZM81.9363 13.6245C80.2161 13.6245 78.84 12.3057 78.84 10.0695C78.84 7.8333 80.2161 6.51451 81.9363 6.51451C83.6564 6.51451 85.0325 7.8333 85.0325 10.0695C85.0325 12.3057 83.6564 13.6245 81.9363 13.6245Z" fill="#676768"/>
<path d="M93.4611 6.51326C95.1812 6.51326 95.9266 7.54535 96.156 8.69211H98.2775C98.0481 6.34124 96.5574 4.62109 93.4611 4.62109C90.5368 4.62109 88.4727 6.79995 88.4727 10.0682C88.4727 13.3939 90.5942 15.5154 93.4611 15.5154C96.5574 15.5154 98.0481 13.7952 98.2775 11.4444H96.156C95.984 12.5911 95.2959 13.6232 93.5184 13.6232C91.8556 13.6232 90.5942 12.3044 90.5942 10.0682C90.5942 7.88938 91.8556 6.51326 93.4611 6.51326Z" fill="#676768"/>
<path d="M104.757 9.32144L108.656 4.73438H106.134L101.776 10.0095V4.73438H99.6543V15.3993H101.776V12.5897L103.324 10.8696L106.535 15.4566H109L104.757 9.32144Z" fill="#676768"/>
<path d="M9.00211 19.8179L0.34403 16.2629C0.0573385 16.0909 0 16.0909 0 15.7469V4.2792C0 3.99251 0.0573385 3.93517 0.34403 3.76316L9.00211 0.437535C9.28881 0.380197 9.34614 0.380197 9.63283 0.437535L18.2909 3.76316C18.5776 3.93517 18.6349 3.99251 18.6349 4.2792V15.8042C18.6349 16.0909 18.5776 16.1482 18.2909 16.3202L9.63283 19.8179C9.34614 19.8752 9.28881 19.9326 9.00211 19.8179ZM9.28881 18.8431L16.8575 15.8615L9.28881 13.1093L1.72015 15.8042L9.28881 18.8431ZM1.03209 15.0588L7.85535 12.5359L6.5939 12.0199C6.53657 11.9625 6.42189 11.8479 6.42189 11.7905V8.23555C6.42189 8.06353 6.47923 8.00619 6.5939 8.00619L7.85535 7.49015L1.03209 4.90992V15.0588ZM17.6029 15.0588V4.96726L10.7796 7.49015L12.041 8.00619C12.0984 8.06353 12.2131 8.17821 12.2131 8.23555V11.7905C12.2131 11.8479 12.1557 12.0199 12.041 12.0199L10.7796 12.5359L17.6029 15.0588ZM9.28881 11.9625L11.1236 11.2171V8.69425L9.28881 7.94885L7.45398 8.69425V11.2171L9.28881 11.9625ZM9.28881 6.9741L16.8575 4.22186L9.28881 1.29761L1.72015 4.16452L9.28881 6.9741Z" fill="#676768"/>
<path d="M18.2329 3.81795L9.5748 0.37765C9.51746 0.37765 9.34545 0.320312 9.28811 0.320312C9.23077 0.320312 9.05875 0.320312 9.00142 0.37765L0.343332 3.81795C0.171317 3.81795 0.0566406 4.0473 0.0566406 4.27666V15.8017C0.0566406 16.031 0.228656 16.1457 0.343332 16.2604L8.88674 19.758C8.94408 19.758 9.11609 19.8153 9.17343 19.8153C9.23077 19.8153 9.40278 19.8153 9.46012 19.758L18.0035 16.2604C18.1755 16.203 18.2902 16.031 18.2902 15.8017V4.27666C18.5196 4.0473 18.3476 3.81795 18.2329 3.81795ZM9.28811 1.18039L17.0861 4.16198L9.28811 6.97155L1.4901 4.16198L9.28811 1.18039ZM9.28811 7.88897L11.1803 8.6917V11.3293L9.28811 12.132L7.39594 11.3293V8.6917L9.28811 7.88897ZM0.916715 4.85004L8.02666 7.54494L6.59321 8.11832C6.53587 8.11832 6.42119 8.17566 6.42119 8.29034V11.788C6.42119 11.8453 6.47853 11.96 6.47853 11.96L7.91199 12.5334L0.859377 15.1709V4.85004H0.916715ZM9.28811 18.9553L1.54744 15.8017L9.34545 12.9921L17.0861 15.8017L9.28811 18.9553ZM17.6595 15.1709L10.5496 12.5334L11.983 11.96C12.0403 11.96 12.0403 11.9026 12.0403 11.788V8.17566C12.0403 8.11832 11.983 8.00365 11.983 8.00365L10.5496 7.43026L17.6595 4.73536V15.1709Z" fill="#676768"/>
</svg>
