<svg width="109" height="41" viewBox="0 0 109 41" fill="none" xmlns="http://www.w3.org/2000/svg">
<path fill-rule="evenodd" clip-rule="evenodd" d="M39.0737 12.5319V24.5404H42.0297H44.9856V19.9217C44.9856 16.8734 44.9856 15.2107 44.9856 15.026C45.078 14.5641 45.1703 14.1023 45.4475 13.7328C45.8169 13.0861 46.4636 12.809 47.2025 12.9014C48.2186 12.9938 48.8653 13.548 49.05 14.7489C49.05 14.9336 49.05 16.7811 49.05 19.737V24.448H52.0059H54.9619V18.9056C54.9619 14.1946 54.9619 13.2709 54.8695 12.809C54.6847 11.1463 54.1305 9.8531 53.1144 8.92937C52.2831 8.09801 51.2669 7.63615 50.0661 7.4514C49.6042 7.35903 48.311 7.4514 47.9415 7.54378C46.8331 7.82089 46.0017 8.19039 45.2627 9.02174L44.8008 9.39123V4.95734V0.523438H41.8449H38.889V12.5319H39.0737ZM101.887 0.708184C101.703 1.07768 95.6983 15.5802 95.6983 15.5802C95.6983 15.5802 97.2686 15.5802 99.2085 15.5802H102.719L105.859 8.09801C107.614 3.94123 109 0.523438 109 0.523438C109 0.523438 107.43 0.523438 105.49 0.523438H101.98L101.887 0.708184ZM26.1415 7.54378C24.8483 7.72852 23.8322 8.09802 22.8161 8.74463C20.7839 10.0378 19.4907 12.2548 19.1212 14.8412C18.9364 16.0421 19.0288 17.52 19.3059 18.6285C20.0449 21.4921 21.9847 23.709 24.4788 24.5404C25.4025 24.8175 25.772 24.9099 26.8805 24.9099C27.7119 24.9099 27.989 24.9099 28.2661 24.8175C29.4669 24.5404 30.2983 24.0785 31.0373 23.3395L31.4068 22.97V23.709V24.448H34.2703H37.1339V16.1345V7.8209H34.2703H31.4068V8.55988V9.29886L31.1297 9.02174C30.4831 8.28276 29.5593 7.82089 28.3585 7.54378C27.989 7.4514 27.8042 7.4514 27.0653 7.4514C26.6034 7.54378 26.2339 7.54378 26.1415 7.54378ZM63.8297 7.54378C62.2593 7.72852 60.5966 8.4675 59.3958 9.39123C57.0864 11.3311 55.8856 14.3794 56.3475 17.52C56.8093 21.0302 59.3034 23.709 62.8136 24.6328C63.5525 24.8175 64.2915 24.9099 65.2153 24.9099C66.878 24.9099 68.0788 24.6328 69.372 23.9862C71.9585 22.6929 73.6212 20.3836 73.9907 17.52C74.0831 16.7811 74.0831 15.5802 73.9907 14.9336C73.8059 13.548 73.2517 12.1624 72.4203 11.0539C72.0508 10.5921 71.3119 9.76072 70.85 9.39123C69.5568 8.37513 68.0788 7.72852 66.4161 7.54378C65.7695 7.4514 64.4763 7.4514 63.8297 7.54378ZM82.6737 7.54378C81.1034 7.72852 79.5331 8.37513 78.3322 9.39123C77.8703 9.76072 77.039 10.5921 76.7619 11.0539C75.9305 12.1624 75.4686 13.548 75.1915 14.9336C75.0992 15.5802 75.0992 16.8734 75.1915 17.52C75.7458 21.215 78.4246 24.0785 82.1195 24.8175C82.8585 25.0023 83.228 25.0023 84.0593 25.0023C85.6297 25.0023 87.0153 24.7251 88.3085 23.9862C91.7263 22.2311 93.5737 18.3514 92.7424 14.3794C92.0034 10.6845 89.0475 8.00564 85.2602 7.54378C84.6136 7.4514 83.3203 7.4514 82.6737 7.54378ZM0 7.91327C0 7.91327 1.57034 11.7006 3.51017 16.3192C5.45 20.9378 7.02034 24.7251 7.02034 24.7251C7.02034 24.7251 6.4661 26.1107 5.72712 27.7734C4.98814 29.4361 4.4339 30.7294 4.4339 30.8217C4.4339 30.9141 5.81949 30.8217 7.57458 30.8217H10.7153L15.4263 19.4599C18.0127 13.1785 20.1373 8.09801 20.1373 8.00564C20.1373 8.00564 19.4907 7.91327 16.9966 8.00564H13.8559L11.9161 12.809C11.0847 15.3955 10.2534 17.6124 10.2534 17.6124C10.2534 17.6124 9.42203 15.3955 8.31356 12.809L6.4661 8.00564H3.23305C1.47797 7.91327 0 7.91327 0 7.91327ZM29.0051 12.9014C30.2059 13.1785 31.1297 14.1023 31.4992 15.3031C31.5915 15.765 31.5915 16.5963 31.4992 17.0582C31.222 18.259 30.2983 19.1828 29.0975 19.4599C28.6356 19.5523 27.8042 19.5523 27.3424 19.4599C26.3263 19.1828 25.4025 18.4438 25.033 17.52C24.5712 16.5039 24.7559 15.2107 25.3102 14.287C26.1415 13.0862 27.5271 12.6243 29.0051 12.9014ZM65.8619 12.9938C67.1551 13.1785 68.1712 14.1946 68.4483 15.4878C68.5407 15.9497 68.5407 16.6887 68.4483 17.1506C68.1712 18.3514 67.2475 19.1828 66.139 19.5522C65.7695 19.6446 64.7534 19.6446 64.3839 19.5522C63.4602 19.2751 62.7212 18.6285 62.2593 17.7972C61.9822 17.2429 61.9822 16.9658 61.9822 16.3192C61.9822 15.765 62.0746 15.4878 62.2593 15.026C62.5364 14.4717 62.9059 13.9175 63.4602 13.548C64.0144 12.9938 64.9381 12.809 65.8619 12.9938ZM84.6136 12.9938C85.722 13.1785 86.6458 13.9175 87.0153 14.9336C87.2 15.3955 87.2924 15.6726 87.2924 16.2268C87.2924 16.8734 87.2 17.1506 87.0153 17.7048C86.6458 18.5361 85.8144 19.1828 84.8907 19.4599C84.5212 19.5523 83.5051 19.5523 83.1356 19.4599C82.0271 19.1828 81.1034 18.259 80.8263 17.0582C80.7339 16.5963 80.7339 15.765 80.8263 15.3031C81.1958 13.8251 82.489 12.809 83.967 12.809C84.1517 12.9014 84.4288 12.9014 84.6136 12.9938ZM97.1763 17.0582C95.4212 17.2429 94.128 18.5361 93.7585 20.1989C93.6661 20.6607 93.6661 21.4921 93.7585 21.9539C94.128 23.4319 95.2364 24.448 96.7144 24.8175C96.8992 24.8175 97.2686 24.9099 97.5458 24.9099C98.6542 24.9099 99.578 24.5404 100.317 23.8014C101.148 22.97 101.425 22.1387 101.425 21.0302C101.425 19.6446 100.779 18.4438 99.6703 17.7972C98.9314 17.1506 97.9153 16.9658 97.1763 17.0582ZM48.4958 26.1107C47.2949 26.4802 46.7407 27.8658 47.3873 28.8819C47.572 29.159 47.9415 29.5285 48.2186 29.6209C48.4958 29.7133 48.4958 29.7133 49.05 29.7133C49.5119 29.7133 49.6042 29.7133 49.8814 29.6209C50.2508 29.4361 50.6203 29.0667 50.8051 28.6972C51.2669 27.7734 50.8051 26.665 49.8814 26.2031C49.6042 26.0184 49.5119 26.0184 49.1424 26.0184C48.7729 26.0184 48.6805 26.0184 48.4958 26.1107ZM43.5076 26.2031C41.9373 26.4802 40.9212 27.4963 40.4593 29.159C40.3669 29.4361 40.367 29.7133 40.367 30.0828V30.7294H39.7203H39.0737V32.115V33.5006H39.7203H40.367V36.826V40.1514H42.122H43.8771V36.826V33.5006H45.078H46.2788V32.115V30.7294H45.078H43.8771V30.4523C43.9695 29.8056 44.2466 29.3438 44.8008 29.2514C45.1703 29.159 45.7246 29.159 46.0941 29.3438C46.2788 29.4362 46.3712 29.4361 46.3712 29.4361C46.3712 29.4361 46.3712 28.7895 46.3712 27.9582V26.4802L46.0941 26.3878C45.7246 26.2031 45.2627 26.2031 44.6161 26.2031C44.1542 26.1107 43.7847 26.2031 43.5076 26.2031ZM57.5483 30.5446C56.8093 30.7294 56.2551 31.0989 55.8856 31.5607L55.7009 31.8378V31.2836V30.7294H53.9458H52.1907V35.4404V40.1514H53.9458H55.7009V37.565C55.7009 36.087 55.7009 34.8861 55.7009 34.7014C55.7932 34.3319 55.978 33.9624 56.1627 33.7777C56.6246 33.4082 57.4559 33.5006 57.8254 33.9624C58.1025 34.3319 58.1025 34.3319 58.1025 37.2878V40.059H59.8576H61.6127V36.9184C61.6127 33.5929 61.6127 33.2234 61.428 32.5768C61.2432 32.0226 61.0585 31.5607 60.5966 31.1912C60.2271 30.8217 59.8576 30.5446 59.3034 30.4523C58.8415 30.4523 57.9178 30.4523 57.5483 30.5446ZM66.3237 30.4523C65.7695 30.5446 64.9381 30.8217 64.4763 31.1912C63.4602 31.9302 62.8136 33.0387 62.5364 34.4243C62.4441 34.9785 62.4441 35.9946 62.5364 36.5489C62.7212 37.3802 62.9983 38.2116 63.4602 38.7658C64.1068 39.5972 64.9381 40.1514 65.9542 40.3361C66.5085 40.4285 67.4322 40.4285 67.8941 40.2438C68.4483 40.059 68.8178 39.8743 69.2797 39.5048L69.6492 39.1353V39.5972V40.059H71.4042H73.1593V35.348V30.637H71.4042H69.6492V31.0989V31.5607L69.372 31.4684C68.9102 31.0065 68.2636 30.637 67.5246 30.5446C67.2475 30.4523 66.6009 30.4523 66.3237 30.4523ZM79.7178 30.5446C79.0712 30.637 78.4246 31.0989 78.0551 31.5607L77.8703 31.7455V31.1912V30.637H76.1153H74.3602V35.348V40.059H76.1153H77.8703V37.3802C77.8703 34.5167 77.8703 34.5167 78.0551 34.0548C78.2398 33.6853 78.6093 33.5006 78.9788 33.5006C79.3483 33.5006 79.5331 33.5929 79.8102 33.7777C80.1797 34.1472 80.1797 34.0548 80.1797 37.1955V39.9667H81.9347H83.6898V36.5489C83.6898 33.1311 83.6898 33.1311 83.5975 32.7616C83.5051 32.5768 83.4127 32.2073 83.3203 31.9302C83.1356 31.5607 83.0432 31.4684 82.7661 31.1912C82.3966 30.8217 82.1195 30.637 81.75 30.4523C81.1034 30.4523 80.3644 30.3599 79.7178 30.5446ZM88.8627 30.5446C87.2924 30.8217 86.0915 31.5607 85.3525 32.8539C85.1678 33.2234 84.9831 33.6853 84.7983 34.1472C84.7059 34.609 84.7059 34.7014 84.7059 35.4404C84.7059 36.2717 84.7059 36.5489 84.9831 37.1955C85.5373 38.7658 86.8305 39.9667 88.5856 40.3361C88.8627 40.4285 89.1398 40.4285 89.7864 40.4285C90.7102 40.4285 91.0797 40.3362 91.7263 40.059L92.0958 39.8743V38.3039V36.7336L91.8186 36.9184C91.3568 37.1955 91.0797 37.2878 90.5254 37.2878C89.9712 37.2878 89.6941 37.2878 89.3246 37.1031C88.9551 36.9184 88.678 36.6412 88.4932 36.2717C88.4009 35.9946 88.4008 35.9946 88.4008 35.5328C88.4008 35.1633 88.4009 35.0709 88.4932 34.7938C88.7703 34.0548 89.417 33.6853 90.3407 33.5929C90.9873 33.5929 91.2644 33.5929 92.1881 34.0548C92.1881 34.0548 92.1881 33.3158 92.1881 32.4845V30.9141L91.911 30.8217C90.8949 30.4523 89.7864 30.3599 88.8627 30.5446ZM96.8068 30.5446C94.128 31.0065 92.4653 33.3158 92.65 35.9946C92.7424 36.9184 93.0195 37.7497 93.4814 38.3963C94.128 39.4124 95.1441 40.059 96.4373 40.3361C96.9915 40.4285 98.4695 40.4285 99.1161 40.3361C100.04 40.1514 100.871 39.6895 101.518 39.0429C101.795 38.7658 102.257 38.1192 102.257 38.1192C102.257 38.1192 101.61 37.8421 100.779 37.565L99.3008 37.0107L99.1161 37.1955C98.839 37.4726 98.6542 37.565 98.2847 37.6573C97.2686 37.9345 96.2525 37.3802 96.0678 36.4565V36.2717H99.3008H102.534V35.4404C102.534 34.8862 102.534 34.5167 102.442 34.3319C102.257 33.2234 101.795 32.4845 101.148 31.7455C100.502 31.0989 99.7627 30.7294 98.7466 30.5446C98.3771 30.4523 97.2686 30.4523 96.8068 30.5446ZM47.2949 35.4404V40.1514H49.05H50.8051V35.4404V30.7294H49.05H47.2949V35.4404V35.4404ZM98.1924 33.1311C98.4695 33.2234 98.5619 33.3158 98.839 33.5006C99.0237 33.6853 99.2085 33.87 99.2085 34.1472V34.3319H97.6381C95.883 34.3319 95.9754 34.3319 96.1602 33.9624C96.4373 33.3158 97.2686 32.9463 98.1924 33.1311ZM68.3559 33.5929C68.8178 33.6853 69.372 34.1472 69.5568 34.609C70.0186 35.6251 69.5568 36.826 68.4483 37.1955C68.0788 37.2878 67.5246 37.2878 67.1551 37.1955C66.6008 37.0107 66.0466 36.5489 65.9542 35.9946C65.8619 35.7175 65.8619 35.6251 65.8619 35.348C65.8619 34.9785 65.8619 34.8862 66.0466 34.609C66.4161 33.7777 67.3398 33.4082 68.3559 33.5929Z" fill="#676768"/>
</svg>
