<svg width="263" height="97" viewBox="0 0 263 97" fill="none" xmlns="http://www.w3.org/2000/svg">
<rect width="263" height="97" fill="#25252B"/>
<path fill-rule="evenodd" clip-rule="evenodd" d="M48.7538 33.1046C48.1069 33.2749 46.7536 33.7452 46.1577 34.0067C45.6267 34.2398 45.6122 34.2541 45.5586 34.5986C45.492 35.0272 45.662 35.4791 45.9196 35.5579C46.0168 35.5877 46.374 35.5524 46.7135 35.4796C47.0529 35.4068 47.3447 35.3607 47.3618 35.3773C47.379 35.3938 46.9359 36.6347 46.3773 38.1347C45.418 40.7105 45.3509 40.8609 45.1699 40.8406C45.0645 40.8289 44.5904 40.7498 44.1164 40.6648C42.0901 40.302 39.3569 39.9801 37.0756 39.8357L36.3139 39.7874L36.1541 40.1269C35.9595 40.5403 35.9509 40.8026 36.1186 41.2068L36.2466 41.5151L37.4934 41.5673C39.4416 41.6489 41.5168 41.8455 42.6452 42.0555C43.8121 42.2727 44.5268 42.4615 44.5268 42.5526C44.5268 42.5866 44.1805 43.4668 43.7572 44.5086C37.5861 59.6983 36.533 62.3411 36.4997 62.7231C36.4683 63.0824 36.4898 63.1579 36.675 63.3365C36.7911 63.4484 36.9659 63.5401 37.0633 63.5401C37.1869 63.5401 53.4641 57.3341 57.5426 55.732C57.8081 55.6276 58.7594 59.7534 59.0965 62.4715C59.2332 63.5733 59.345 63.8352 59.7357 63.9694C60.0188 64.0668 60.4968 63.9248 60.8398 63.6416L61.1067 63.4214L60.9479 62.3528C60.6195 60.1438 60.1813 57.9083 59.7017 55.9957C59.562 55.438 59.4607 54.9726 59.4767 54.9614C59.5069 54.9404 64.8269 52.8167 65.0461 52.7382C65.1498 52.7009 65.1693 52.8054 65.1693 53.3988C65.1693 53.9807 65.1965 54.1326 65.3256 54.2704C65.4989 54.4553 65.8564 54.4877 66.2524 54.3546C66.482 54.2774 66.5423 54.1579 67.1747 52.5278C67.5468 51.5686 67.8387 50.7734 67.8235 50.7609C67.6862 50.6479 63.7082 49.2843 63.6158 49.3186C63.435 49.3855 63.1584 49.9593 63.1584 50.2677C63.1584 50.6192 63.3896 50.8925 63.8747 51.1147C64.0901 51.2134 64.2277 51.3073 64.1802 51.3234C64.1329 51.3396 62.914 51.7919 61.4717 52.3285C58.9389 53.2708 58.8468 53.2985 58.7739 53.1385C57.7733 50.9417 56.6874 49.1841 55.3254 47.5572L54.8076 46.9386L57.9639 43.841C59.6998 42.1373 61.1539 40.7434 61.1953 40.7434C61.2368 40.7434 61.2708 40.8235 61.2711 40.9215C61.272 41.2713 61.454 41.724 61.6824 41.9442C61.9448 42.1973 62.2237 42.229 62.5879 42.0474L62.8301 41.9267V39.9893V38.0521H60.7438H58.6575L58.4815 38.3267C58.3643 38.5096 58.3142 38.6985 58.3312 38.8926C58.3694 39.3268 58.6573 39.4982 59.4393 39.5521L60.0691 39.5956L56.8937 42.6035C55.1473 44.2579 53.6814 45.6234 53.6362 45.638C53.5909 45.6527 53.2909 45.4297 52.9695 45.1428C51.4066 43.7473 49.124 42.3711 47.3608 41.7613C47.0661 41.6594 46.825 41.5554 46.825 41.5303C46.825 41.4954 47.9547 38.46 48.8932 35.9735L48.9756 35.755L49.2012 36.0555C49.8875 36.969 50.595 37.1087 50.9949 36.4097L51.1853 36.0768L50.3531 34.5315C49.4328 32.8223 49.5224 32.9022 48.7538 33.1046ZM47.2783 43.5969C48.8473 44.3612 50.9129 45.786 51.9112 46.7925L52.1959 47.0795L51.5008 47.7381C51.1185 48.1003 48.3219 50.7567 45.286 53.6414C42.2502 56.526 39.7663 58.8557 39.7663 58.8185C39.7663 58.6849 42.1245 52.827 45.4255 44.7605C45.7952 43.8572 46.1422 43.118 46.1965 43.118C46.2508 43.118 46.7376 43.3335 47.2783 43.5969ZM144.481 44.1114C143.176 44.4166 141.907 45.3959 141.357 46.5217C140.979 47.2964 140.857 47.8273 140.857 48.6985C140.857 50.1024 141.289 51.1291 142.272 52.0626C143.253 52.995 144.307 53.4046 145.732 53.407C147.86 53.4106 149.678 52.1577 150.33 50.2381C150.497 49.7457 150.53 49.4915 150.53 48.6985C150.53 47.9055 150.497 47.6512 150.33 47.1589C149.819 45.6544 148.536 44.5067 146.922 44.1092C146.323 43.9617 145.116 43.9627 144.481 44.1114ZM166.473 44.0747C165.659 44.2596 164.926 44.8276 164.59 45.5323C164.308 46.1235 164.325 47.1182 164.626 47.6789C164.992 48.3582 165.512 48.6851 166.945 49.1359C168.612 49.6598 169.12 50.0758 169.12 50.914C169.12 52.0378 167.865 52.7637 166.504 52.4274C165.963 52.2939 165.371 51.9537 165.17 51.6608L165.049 51.486L164.624 51.7811C164.121 52.1292 164.133 52.2026 164.773 52.6907C165.938 53.5783 167.79 53.6453 169.033 52.8446C169.806 52.3471 170.177 51.6986 170.184 50.8351C170.193 49.5599 169.574 48.9264 167.715 48.3101C166.523 47.915 166.123 47.7265 165.822 47.4195C165.069 46.6515 165.456 45.3746 166.553 45.0066C166.724 44.9494 167.122 44.9046 167.438 44.907C168.102 44.9122 168.667 45.1292 168.995 45.505L169.197 45.7367L169.61 45.4395C169.837 45.276 170.023 45.1184 170.023 45.0892C170.023 44.998 169.39 44.4792 169.105 44.3371C168.46 44.0153 167.261 43.8957 166.473 44.0747ZM178.707 44.1114C177.402 44.4166 176.133 45.3959 175.584 46.5217C175.206 47.2964 175.084 47.8273 175.084 48.6985C175.084 50.1024 175.515 51.1291 176.498 52.0626C177.469 52.9854 178.535 53.4046 179.917 53.407C181.264 53.4094 182.365 52.9316 183.178 51.9922L183.406 51.729L183.02 51.4644L182.634 51.1998L182.218 51.6157C181.713 52.12 181.21 52.3652 180.46 52.4725C178.903 52.6955 177.348 51.9538 176.649 50.6543C175.563 48.6359 176.312 46.128 178.264 45.2473C179.571 44.6575 180.977 44.805 181.931 45.6319L182.334 45.9816L182.745 45.6907L183.156 45.3996L183.005 45.2145C182.611 44.7315 181.879 44.3158 181.059 44.1098C180.471 43.9622 179.342 43.9629 178.707 44.1114ZM71.6945 44.6615V45.0969H73.2538H74.8134V49.1338V53.1707H75.306H75.7982V49.1338V45.0969H77.3578H78.9174V44.6615V44.2262H75.306H71.6945V44.6615ZM80.3126 48.6985V53.1707H80.8051H81.2976V51.0731V48.9755H83.8008H86.3043V51.0731V53.1707H86.7968H87.289V48.6985V44.2262H86.7968H86.3043V46.1655V48.1048H83.8008H81.2976V46.1655V44.2262H80.8051H80.3126V48.6985ZM89.8337 48.6923V53.1707H90.3259H90.8184V51.1127V49.0547H91.5866H92.3549L93.6217 51.0929L94.8886 53.1312L95.4802 53.1545C95.8054 53.1672 96.0715 53.1624 96.0715 53.1438C96.0715 53.1252 95.4847 52.1887 94.7673 51.0628L93.4634 49.0156L93.926 48.8914C94.5608 48.7212 94.8426 48.5653 95.1932 48.1908C95.6414 47.7126 95.7688 47.3714 95.7723 46.6404C95.7778 45.5383 95.302 44.8428 94.2722 44.4474C93.8527 44.2863 93.6478 44.2692 91.824 44.2427L89.8337 44.2139V48.6923ZM97.6308 48.6985V53.1707H100.627H103.622V52.7354V52.3H101.119H98.6158V50.6378V48.9755H100.873H103.13V48.5402V48.1048H100.873H98.6158V46.6009V45.0969H101.037H103.458V44.6615V44.2262H100.545H97.6308V48.6985ZM105.428 48.6985V53.1707H108.424H111.42V52.7354V52.3H108.917H106.413V50.6378V48.9755H108.67H110.927V48.5402V48.1048H108.67H106.413V46.6009V45.0969H108.834H111.256V44.6615V44.2262H108.342H105.428V48.6985ZM119.505 44.4911C119.441 44.6368 118.553 46.6047 117.53 48.8644C116.507 51.124 115.651 53.0174 115.629 53.0718C115.599 53.1453 115.736 53.1707 116.161 53.1707H116.735L117.247 52.023L117.76 50.8752H120.117H122.474L122.973 52.0032L123.471 53.1312L124.055 53.1545L124.64 53.1778L124.524 52.917C124.46 52.7736 123.569 50.804 122.543 48.5402C121.517 46.2763 120.659 44.3796 120.636 44.3251C120.61 44.2616 120.421 44.2262 120.107 44.2262C119.631 44.2262 119.617 44.2328 119.505 44.4911ZM125.866 48.6923V53.1707H126.358H126.851V51.1127V49.0547H127.619H128.387L129.654 51.0929L130.921 53.1312L131.512 53.1545C131.837 53.1672 132.103 53.1624 132.103 53.1438C132.103 53.1252 131.517 52.1887 130.799 51.0628L129.495 49.0156L129.958 48.8914C130.593 48.7212 130.874 48.5653 131.225 48.1908C131.674 47.7126 131.801 47.3714 131.804 46.6404C131.81 45.5383 131.334 44.8428 130.304 44.4474C129.885 44.2863 129.68 44.2692 127.856 44.2427L125.866 44.2139V48.6923ZM133.663 48.6923V53.1707H134.155H134.648V51.1127V49.0547H135.416H136.184L137.451 51.0929L138.718 53.1312L139.309 53.1545C139.635 53.1672 139.901 53.1624 139.901 53.1438C139.901 53.1252 139.314 52.1887 138.597 51.0628L137.293 49.0156L137.755 48.8914C138.39 48.7212 138.672 48.5653 139.023 48.1908C139.471 47.7126 139.598 47.3714 139.602 46.6404C139.607 45.5383 139.132 44.8428 138.101 44.4474C137.682 44.2863 137.477 44.2692 135.653 44.2427L133.663 44.2139V48.6923ZM151.146 44.2635C151.146 44.2905 153.363 51.5564 153.823 53.0356C153.861 53.1575 153.949 53.1742 154.446 53.1543L155.026 53.1312L156.164 49.4109C156.789 47.3647 157.312 45.6604 157.324 45.6235C157.337 45.5867 157.868 47.2608 158.503 49.3438L159.659 53.1312L160.238 53.1543C160.736 53.1742 160.824 53.1575 160.862 53.0356C161.166 52.0736 163.539 44.3008 163.539 44.2691C163.539 44.2455 163.3 44.2262 163.009 44.2262H162.478L162.363 44.6022C162.3 44.809 161.811 46.5007 161.276 48.3617C160.742 50.2225 160.28 51.7186 160.25 51.6862C160.208 51.6415 158.518 46.1687 158.025 44.4834L157.95 44.2262H157.358H156.765L155.621 47.9857C154.992 50.0534 154.453 51.7186 154.423 51.6862C154.393 51.6538 153.934 50.1312 153.403 48.3027C152.872 46.4742 152.385 44.809 152.322 44.6022L152.206 44.2262H151.676C151.384 44.2262 151.146 44.243 151.146 44.2635ZM187.629 44.4911C187.566 44.6368 186.677 46.6047 185.654 48.8644C184.631 51.124 183.775 53.0174 183.753 53.0718C183.723 53.1453 183.86 53.1707 184.286 53.1707H184.859L185.372 52.023L185.884 50.8752H188.242H190.599L191.097 52.0032L191.595 53.1312L192.18 53.1545L192.764 53.1778L192.648 52.917C192.585 52.7736 191.693 50.804 190.668 48.5402C189.642 46.2763 188.784 44.3796 188.761 44.3251C188.734 44.2616 188.545 44.2262 188.232 44.2262C187.756 44.2262 187.741 44.2328 187.629 44.4911ZM193.99 48.6985V53.1707H194.482H194.975V51.0731V48.9755H196.151C197.547 48.9755 198.117 48.8797 198.689 48.5484C199.505 48.0757 199.901 47.2631 199.784 46.3017C199.685 45.4833 199.303 44.9362 198.586 44.5852C197.989 44.2927 197.449 44.2262 195.668 44.2262H193.99V48.6985ZM201.541 48.6985V53.1707H202.034H202.526V48.6985V44.2262H202.034H201.541V48.6985ZM203.921 44.6615V45.0969H205.481H207.04V49.1338V53.1707H207.533H208.025V49.1338V45.0969H209.585H211.144V44.6615V44.2262H207.533H203.921V44.6615ZM214.304 44.4911C214.241 44.6368 213.352 46.6047 212.329 48.8644C211.306 51.124 210.451 53.0174 210.428 53.0718C210.398 53.1453 210.535 53.1707 210.961 53.1707H211.534L212.047 52.023L212.56 50.8752H214.917H217.274L217.772 52.0032L218.27 53.1312L218.855 53.1545L219.439 53.1778L219.323 52.917C219.26 52.7736 218.369 50.804 217.343 48.5402C216.317 46.2763 215.459 44.3796 215.436 44.3251C215.409 44.2616 215.22 44.2262 214.907 44.2262C214.431 44.2262 214.416 44.2328 214.304 44.4911ZM220.665 48.6985V53.1707H223.332H226V52.7354V52.3H223.825H221.65V48.2631V44.2262H221.157H220.665V48.6985ZM146.431 44.9453C147.881 45.2005 149.027 46.282 149.38 47.7273C149.716 49.1002 149.347 50.4614 148.371 51.448C146.675 53.1628 143.548 52.7455 142.423 50.6543C141.335 48.6321 142.086 46.1281 144.045 45.2439C144.842 44.8843 145.569 44.7933 146.431 44.9453ZM93.2453 45.183C94.1419 45.3416 94.6084 45.7292 94.7213 46.4099C94.8361 47.1036 94.4302 47.7275 93.6909 47.9932C93.4297 48.0871 92.9561 48.1371 92.0701 48.1645L90.8184 48.2032V46.6501V45.0969H91.7883C92.3217 45.0969 92.9773 45.1357 93.2453 45.183ZM129.277 45.183C130.174 45.3416 130.641 45.7292 130.753 46.4099C130.868 47.1036 130.462 47.7275 129.723 47.9932C129.462 48.0871 128.988 48.1371 128.102 48.1645L126.851 48.2032V46.6501V45.0969H127.82C128.354 45.0969 129.009 45.1357 129.277 45.183ZM137.075 45.183C137.972 45.3416 138.438 45.7292 138.551 46.4099C138.666 47.1036 138.259 47.7275 137.52 47.9932C137.259 48.0871 136.785 48.1371 135.899 48.1645L134.648 48.2032V46.6501V45.0969H135.618C136.151 45.0969 136.807 45.1357 137.075 45.183ZM197.23 45.1815C197.938 45.3005 198.342 45.5371 198.566 45.9649C198.79 46.3931 198.798 46.7696 198.592 47.2067C198.294 47.8389 197.486 48.1048 195.863 48.1048H194.975V46.6009V45.0969H195.85C196.332 45.0969 196.953 45.135 197.23 45.1815ZM121.137 47.75L122.078 49.965L120.143 49.9862C119.079 49.9979 118.192 49.9924 118.173 49.9739C118.154 49.9555 118.574 48.9222 119.106 47.6779C119.637 46.4334 120.101 45.4423 120.135 45.4753C120.169 45.5082 120.62 46.5318 121.137 47.75ZM189.262 47.75L190.202 49.965L188.267 49.9862C187.203 49.9979 186.317 49.9924 186.298 49.9739C186.278 49.9555 186.698 48.9222 187.23 47.6779C187.762 46.4334 188.225 45.4423 188.259 45.4753C188.293 45.5082 188.744 46.5318 189.262 47.75ZM215.937 47.75L216.877 49.965L214.942 49.9862C213.878 49.9979 212.992 49.9924 212.973 49.9739C212.953 49.9555 213.373 48.9222 213.905 47.6779C214.437 46.4334 214.9 45.4423 214.934 45.4753C214.969 45.5082 215.42 46.5318 215.937 47.75ZM53.9337 48.9559C54.6129 49.7865 55.4913 51.0629 56.0513 52.0332C56.4969 52.8053 57.1268 54.1147 57.0707 54.1527C56.9594 54.2281 41.2829 60.2798 41.2589 60.2566C41.226 60.225 53.3214 48.35 53.3912 48.3454C53.4137 48.3438 53.6579 48.6186 53.9337 48.9559Z" fill="white"/>
</svg>
