<svg width="263" height="97" viewBox="0 0 263 97" fill="none" xmlns="http://www.w3.org/2000/svg">
<rect width="263" height="97" fill="#25252B"/>
<path fill-rule="evenodd" clip-rule="evenodd" d="M69.7582 28.3192C70.1477 28.4859 72.8792 29.5289 75.8281 30.6371C80.7993 32.505 81.2089 32.627 81.4515 32.3115C81.7756 31.8902 81.9884 31.1183 81.8241 30.9604C81.704 30.8448 69.4131 27.9691 69.1727 28.0003C69.1053 28.0088 69.3688 28.1525 69.7582 28.3192ZM82.4269 29.5583C82.6875 30.5237 82.6719 30.6136 81.813 33.1077C81.3282 34.515 80.7018 36.2475 80.4208 36.9576L79.9099 38.2486L80.5596 38.8539C81.01 39.2736 81.4065 39.4591 81.8529 39.4591C82.3976 39.4591 82.5588 39.3423 82.8995 38.7004C83.2447 38.0499 83.4998 37.8692 84.6887 37.4324C86.8923 36.6231 87.7481 35.4999 87.2593 34.0592C87.0143 33.3374 87.7182 33.7429 88.1502 34.5722C88.8255 35.8694 88.8407 36.3045 88.2554 37.5959C87.8143 38.5694 87.4875 38.9558 86.5093 39.6612C84.1094 41.3914 82.8461 43.2767 82.5934 45.505C82.5155 46.1912 82.4143 46.8159 82.3686 46.8931C82.2612 47.0749 79.5184 44.939 78.6779 44.0187C78.3228 43.63 77.7055 42.8389 77.3063 42.2607C76.5757 41.2031 76.3064 41.0771 75.0188 41.1901C74.8519 41.2047 73.2043 42.7139 71.3577 44.5438L68 47.8711L68.5724 49.6264C68.8874 50.5918 69.1834 51.4188 69.2306 51.4639C69.3791 51.6067 71.3769 50.8517 71.3769 50.6529C71.3769 50.1632 70.4381 48.2111 70.2026 48.2111C69.7056 48.2111 70.1514 47.8729 70.8162 47.7455C71.2885 47.6551 72.0124 47.1074 73.3431 45.8343C74.3689 44.8527 75.2422 44.0889 75.2837 44.1368C75.3251 44.1848 75.9703 45.3399 76.7176 46.7038C78.0675 49.1674 78.073 49.1835 77.5512 49.1835C76.6755 49.1835 75.4916 49.8824 75.2533 50.5401C74.964 51.3373 75.2929 52.1715 76.6741 54.143C77.5445 55.3858 77.8401 56.0204 78.1425 57.2963L78.5211 58.8936L79.6531 59.1283C80.2757 59.2575 81.7647 59.8308 82.9618 60.4022C85.0987 61.4221 85.1557 61.4369 86.0694 61.2158L87.0005 60.9904L86.866 59.9979C86.6167 58.1604 86.6446 58.1952 84.9964 57.6625C83.6204 57.2179 83.4363 57.1992 83.0195 57.4618C82.5845 57.7356 82.4852 57.6949 81.1668 56.7031C79.8943 55.7458 79.7165 55.5208 79.1159 54.1076C78.3637 52.3376 78.3265 52.1009 78.8005 52.1009C78.9887 52.1009 80.8614 52.7221 82.9622 53.4814C85.063 54.2405 86.8061 54.8313 86.8358 54.7942C86.8658 54.7568 87.0054 54.0855 87.1464 53.3022C87.7014 50.2202 90.0061 47.3453 92.537 46.5784C94.4078 46.0116 97.2663 45.9428 99.199 46.4179C101.444 46.9699 104.017 48.0483 106.478 49.4691C107.627 50.1325 108.471 50.5364 108.353 50.367C108.158 50.0858 105.111 47.3762 103.648 46.1842L103.041 45.6892L103.699 45.8076C104.505 45.9527 104.516 45.8355 103.775 44.9328C103.24 44.2805 102.361 41.5073 102.612 41.2657C102.663 41.2165 103.38 41.6652 104.206 42.2627C105.032 42.8602 105.77 43.3489 105.846 43.3489C105.922 43.3489 104.314 41.4892 102.272 39.216C100.217 36.928 98.4524 34.785 98.3194 34.4151C98.1873 34.0477 97.9297 33.5881 97.747 33.394C97.3149 32.935 97.5038 32.9486 98.5476 33.4514C99.689 34.0012 99.3282 33.6947 97.3762 32.4558C96.4859 31.8906 95.3715 31.1298 94.8997 30.7645C94.2708 30.2779 93.7037 30.0434 92.7752 29.8858C91.2355 29.6246 90.8158 29.3457 91.962 29.3457C93.3015 29.3457 93.1305 29.0367 91.6531 28.7873C90.6888 28.6248 90.0891 28.6166 89.5865 28.7595C89.197 28.8702 87.9994 29.096 86.9253 29.2609L84.9722 29.561L83.7446 29.0645C83.0695 28.7912 82.4368 28.5678 82.3385 28.5678C82.2401 28.5678 82.2798 29.0135 82.4269 29.5583ZM102.403 29.387C102.608 29.5247 103.46 30.0646 104.297 30.5864C106.271 31.8188 109.419 34.7333 110.874 36.6758C116.164 43.7373 117.146 52.0696 113.413 58.2069C112.409 59.8579 109.779 62.4286 108.145 63.3549C107.511 63.7149 106.239 64.2582 105.32 64.5621C100.394 66.1912 94.9723 65.7188 89.6876 63.1998L87.2597 62.0425L88.2713 62.9382C91.5738 65.8621 96.3093 67.66 100.708 67.66C104.929 67.66 108.116 66.4006 111.033 63.5804C112.98 61.6989 113.841 60.412 114.805 57.9451C117.815 50.241 115.4 40.5088 108.861 33.9876C106.867 31.9989 105.17 30.7132 103.303 29.7759C102.603 29.4241 102.198 29.2491 102.403 29.387ZM125.702 33.3578C123.688 33.5655 122.769 33.8363 122.769 34.2218C122.769 34.5368 122.915 34.5969 123.679 34.5969H124.59V38.7547C124.59 43.2808 124.6 43.24 123.407 43.4693C122.963 43.5547 122.769 43.7031 122.769 43.9567C122.769 44.3019 122.998 44.3212 127.068 44.3194C131.146 44.3177 131.42 44.2941 132.379 43.8637C136.808 41.8772 136.365 35.2798 131.698 33.7215C130.755 33.4066 127.276 33.1956 125.702 33.3578ZM157.384 33.6075C157.152 33.8308 156.962 34.1885 156.962 34.4024C156.962 34.9034 157.655 35.5693 158.176 35.5693C158.681 35.5693 159.39 34.9091 159.39 34.4396C159.39 33.4808 158.081 32.9377 157.384 33.6075ZM145.227 33.846C145.227 34.0541 145.465 34.2074 145.911 34.2879C146.808 34.4497 146.846 34.6603 146.846 39.4807V43.3433L145.925 43.5659C145.255 43.7284 145.022 43.8742 145.068 44.1037C145.109 44.3064 145.329 44.4143 145.685 44.4065C145.99 44.3997 147.384 44.378 148.782 44.3579C151.076 44.3248 151.32 44.2883 151.259 43.9839C151.215 43.7628 150.927 43.6052 150.424 43.5266C150.003 43.4609 149.568 43.3205 149.458 43.2149C149.345 43.1064 149.284 42.1861 149.316 41.0973C149.384 38.8805 149.312 38.9455 151.431 39.1637C152.66 39.2901 152.736 39.3283 153.011 39.9613C153.17 40.327 153.441 40.626 153.613 40.626C153.876 40.626 153.927 40.3087 153.927 38.6812C153.927 36.9092 153.894 36.7363 153.548 36.7363C153.287 36.7363 153.13 36.9206 153.047 37.323C152.893 38.0615 152.305 38.2922 150.576 38.2922H149.273V36.4533V34.6146L149.931 34.4974C150.293 34.4328 151.226 34.4069 152.005 34.4398C153.412 34.4993 153.424 34.5044 153.826 35.2284C154.119 35.7565 154.363 35.9574 154.711 35.9577C155.142 35.9583 155.179 35.8949 155.065 35.3506C154.996 35.0162 154.939 34.4569 154.939 34.1076V33.4722L150.083 33.4998C145.731 33.5243 145.227 33.5603 145.227 33.846ZM130.356 34.5755C131.794 35.2135 132.508 36.2905 132.779 38.2308C132.938 39.3702 132.613 41.2095 132.104 42.0495C131.589 42.9 130.616 43.3794 129.383 43.3901C128.195 43.4004 127.561 43.1161 127.234 42.4264C126.998 41.928 126.923 34.5576 127.153 34.3376C127.434 34.0667 129.566 34.225 130.356 34.5755ZM158.076 37.1243C157.867 37.3456 157.304 37.6218 156.824 37.7381C155.812 37.983 155.68 38.3861 156.557 38.5547L157.164 38.6715V40.9713C157.164 43.4115 157.052 43.7379 156.213 43.7379C155.935 43.7379 155.748 43.8547 155.748 44.0296C155.748 44.2719 156.141 44.3213 158.075 44.3213C159.96 44.3213 160.402 44.2684 160.402 44.0425C160.402 43.883 160.164 43.7375 159.845 43.7021L159.289 43.6406L159.188 40.2394C159.102 37.3618 159.038 36.8293 158.77 36.78C158.597 36.7481 158.284 36.903 158.076 37.1243ZM171.562 37.2237C171.301 37.4878 170.732 37.8064 170.297 37.9316C169.386 38.194 169.286 38.5221 170.019 38.8432C170.529 39.0668 170.531 39.0739 170.474 41.3457C170.418 43.5772 170.407 43.6261 169.926 43.7348C169.656 43.7958 169.398 43.9528 169.353 44.0837C169.293 44.2579 169.76 44.3291 171.109 44.3505C172.119 44.3667 173.059 44.3885 173.196 44.3991C173.647 44.4341 173.574 43.839 173.103 43.6402C172.669 43.4572 172.639 43.3217 172.586 41.2778L172.529 39.1094L173.217 38.7008C173.595 38.4762 174.178 38.2922 174.513 38.2922C175.53 38.2922 175.677 38.6697 175.677 41.2778C175.677 43.5973 175.673 43.622 175.187 43.7334C174.917 43.7952 174.659 43.9528 174.614 44.0837C174.552 44.2599 175.032 44.3213 176.47 44.3213C177.537 44.3213 178.477 44.3213 178.561 44.3213C178.948 44.3213 178.656 43.8398 178.207 43.7379L177.701 43.623V41.1665C177.701 38.977 177.655 38.6503 177.277 38.1607C176.43 37.0632 174.469 36.9339 173.128 37.8867L172.566 38.2867L172.503 37.5751C172.426 36.6956 172.175 36.6021 171.562 37.2237ZM139.544 37.3003C138.62 37.5887 137.94 38.1317 137.407 39.006C136.955 39.7474 136.897 40.0327 136.965 41.1877C137.029 42.2821 137.145 42.6452 137.621 43.2451C137.939 43.6459 138.503 44.0955 138.874 44.2447C139.767 44.6034 141.416 44.5891 142.347 44.2147C143.092 43.9158 144.013 43.2145 144.013 42.9469C144.013 42.6402 143.348 42.5881 142.94 42.8627C142.425 43.2093 141.002 43.2452 140.283 42.93C139.733 42.6894 138.955 41.3597 138.955 40.6618C138.955 40.2478 139.019 40.2371 141.484 40.2371C144.004 40.2371 144.013 40.2355 144.013 39.7796C144.013 39.2335 143.301 38.1776 142.594 37.6743C142.016 37.2634 140.327 37.056 139.544 37.3003ZM182.479 37.4055C179.024 38.4869 178.596 42.9315 181.823 44.2393C182.687 44.5895 184.295 44.595 185.153 44.2505C185.799 43.9907 186.907 42.9171 186.907 42.55C186.907 42.1333 186.313 42.1876 185.834 42.6478C184.841 43.6019 183.634 43.5475 182.543 42.4992C181.373 41.375 181.408 39.195 182.611 38.2858C183.29 37.7721 184.285 37.8385 184.583 38.4173C184.978 39.1839 185.333 39.4591 185.927 39.4591C186.556 39.4591 186.932 38.9136 186.754 38.2599C186.505 37.3444 184.167 36.8773 182.479 37.4055ZM190.504 37.3075C189.712 37.5524 188.898 38.2133 188.375 39.0363C187.434 40.517 187.929 42.97 189.367 43.9547C190.712 44.8748 193.468 44.5995 194.61 43.431C195.003 43.0286 195.039 42.9086 194.804 42.7693C194.626 42.6635 194.307 42.7042 193.96 42.8769C193.107 43.3007 191.717 43.2316 191.058 42.7327C190.469 42.288 189.942 41.2953 189.942 40.6323C189.942 40.2562 190.063 40.2371 192.471 40.2371C194.991 40.2371 195 40.2355 195 39.7796C195 39.2335 194.289 38.1776 193.581 37.6743C192.996 37.2581 191.312 37.0574 190.504 37.3075ZM163.327 37.6854C162.337 38.1173 161.413 39.1223 161.413 39.7658C161.413 40.3164 161.658 40.3407 162.627 39.8868C163.14 39.6464 163.353 39.4083 163.399 39.0231C163.509 38.1039 164.89 37.5353 165.447 38.1798C165.578 38.3321 165.658 38.8595 165.623 39.3531L165.561 40.2497L163.971 40.9129C162.115 41.6874 161.686 42.0149 161.508 42.7934C161.337 43.5442 161.821 44.2482 162.625 44.418C163.528 44.6088 164.799 44.3472 165.406 43.8452L165.936 43.4071L166.374 43.8966C166.953 44.5435 168.001 44.5662 168.527 43.9433C168.976 43.4088 169.015 42.7654 168.596 42.7654C168.429 42.7654 168.293 42.8529 168.293 42.9599C168.293 43.0669 168.163 43.1544 168.005 43.1544C167.775 43.1544 167.704 42.6485 167.651 40.6084C167.588 38.2056 167.558 38.0415 167.107 37.691C166.466 37.1931 164.462 37.19 163.327 37.6854ZM141.047 37.9246C141.5 38.1228 141.99 38.8243 141.99 39.2738C141.99 39.3757 141.307 39.4591 140.472 39.4591C139.638 39.4591 138.955 39.4111 138.955 39.3522C138.955 39.2934 139.096 38.9826 139.269 38.6615C139.523 38.1897 139.898 37.9056 140.513 37.721C140.536 37.7144 140.776 37.806 141.047 37.9246ZM192.034 37.9246C192.486 38.1228 192.977 38.8243 192.977 39.2738C192.977 39.3757 192.298 39.4591 191.47 39.4591H189.963L190.176 38.871C190.293 38.5476 190.63 38.1572 190.924 38.0036C191.581 37.6605 191.452 37.6696 192.034 37.9246ZM165.622 42.0297C165.57 42.9039 165.484 43.0857 165.007 43.3425C164.586 43.5687 164.366 43.5889 164.096 43.4263C163.642 43.1526 163.53 42.4463 163.876 42.0425C164.171 41.6989 165.264 41.017 165.521 41.0158C165.61 41.0154 165.656 41.4717 165.622 42.0297ZM128.171 53.9242C126.276 54.6067 124.86 56.0597 124.36 57.8354C124.05 58.9368 124.243 60.9877 124.747 61.9358C125.246 62.875 126.569 64.072 127.596 64.5133C128.634 64.9597 132.685 64.9593 133.724 64.5127C134.374 64.2337 134.489 64.0761 134.685 63.1955C134.808 62.6453 134.908 62.0622 134.908 61.8998C134.908 61.4147 134.077 61.7901 133.347 62.6044C132.532 63.5135 131.562 63.9647 130.423 63.9647C129.087 63.9647 128.226 63.4339 127.559 62.2011C127.023 61.2105 126.992 61.0232 127.06 59.1997C127.122 57.5145 127.206 57.1232 127.694 56.2686C128.378 55.0692 129.096 54.6292 130.369 54.6292C131.501 54.6292 132.83 55.2915 133.492 56.1859C133.998 56.8678 134.706 56.9744 134.706 56.3685C134.706 55.485 134.236 54.2206 133.831 54.0121C133.152 53.6624 129.074 53.5992 128.171 53.9242ZM162.944 53.9151C162.224 54.4215 162.738 55.9907 163.625 55.9907C164.243 55.9907 164.853 55.4105 164.853 54.8237C164.853 53.8917 163.735 53.3594 162.944 53.9151ZM189.841 53.8972C189.618 54.0228 189.026 54.2268 188.526 54.3503C187.502 54.603 187.3 55.0807 188.175 55.1773L188.735 55.2391L188.681 59.6505L188.627 64.0619L188.07 64.1234C187.752 64.1588 187.514 64.3043 187.514 64.4637C187.514 64.69 187.957 64.7426 189.857 64.7426C191.642 64.7426 192.181 64.6847 192.117 64.4995C192.07 64.3659 191.767 64.2119 191.443 64.1574L190.852 64.0583L190.798 58.8576C190.741 53.3845 190.742 53.388 189.841 53.8972ZM170.94 56.9711C170.575 57.4079 169.967 57.9073 169.588 58.081C168.757 58.462 168.696 58.8596 169.456 58.9438L170.012 59.0052V61.3391C170.012 63.9863 170.162 64.405 171.231 64.744C172.024 64.9957 172.934 64.7952 173.59 64.2245C174.155 63.7328 173.725 63.3528 172.93 63.6415C172.047 63.9616 171.925 63.6405 171.985 61.1446L172.035 59.0052L172.908 58.9448C173.675 58.8919 173.773 58.8329 173.717 58.4585C173.664 58.096 173.543 58.0409 172.907 58.0884L172.16 58.1442L172.097 57.2284C172.064 56.7249 171.939 56.2822 171.82 56.2447C171.702 56.2073 171.306 56.5343 170.94 56.9711ZM151.201 57.3443C151.135 57.4468 150.583 57.6817 149.975 57.8659C149.367 58.0503 148.869 58.2705 148.869 58.355C148.869 58.4397 149.128 58.6376 149.444 58.795L150.02 59.0811L150.161 63.3756C150.239 65.7374 150.247 67.7566 150.179 67.8624C150.111 67.9682 149.743 68.1804 149.361 68.3337C148.129 68.8284 148.561 68.9945 151.094 68.9998C153.025 69.0037 153.522 68.9498 153.522 68.7369C153.522 68.5894 153.249 68.4111 152.915 68.3407L152.308 68.2125V66.3596C152.308 64.6658 152.339 64.5197 152.662 64.6604C152.857 64.745 153.483 64.8492 154.053 64.8922C156.318 65.0628 157.974 63.4715 157.974 61.1228C157.974 59.7392 157.303 58.5241 156.281 58.0581C155.412 57.6617 153.937 57.6504 152.986 58.0328C152.057 58.4056 152.106 58.4219 152.106 57.7411C152.106 57.2932 152.015 57.1576 151.713 57.1576C151.497 57.1576 151.267 57.2416 151.201 57.3443ZM163.639 57.552C163.361 57.7642 162.746 58.0353 162.273 58.1544C161.303 58.3986 161.129 58.8506 161.97 58.9438L162.526 59.0052L162.582 61.475L162.639 63.9448L161.925 64.0736C161.515 64.1477 161.211 64.3175 161.211 64.4725C161.211 64.6874 161.687 64.7426 163.538 64.7426C165.377 64.7426 165.865 64.6866 165.865 64.4752C165.865 64.3282 165.592 64.1553 165.258 64.0911L164.651 63.9744V60.566C164.651 56.8979 164.619 56.8044 163.639 57.552ZM141.889 57.7268C140.807 57.9075 139.926 58.3757 139.282 59.1104C138.765 59.7015 138.558 60.6584 138.948 60.6584C139.522 60.6584 140.597 59.9516 140.708 59.5012C140.899 58.7238 141.378 58.3245 142.118 58.3245C142.884 58.3245 143.077 58.7006 142.965 59.9709C142.902 60.6802 142.855 60.7222 141.549 61.2185C139.191 62.1143 138.403 62.9749 138.927 64.0802C139.389 65.0552 141.297 65.1579 142.643 64.2798L143.321 63.8371L143.676 64.2899C144.168 64.9163 145.473 64.9282 145.924 64.3103C146.097 64.0726 146.239 63.7226 146.239 63.5323C146.239 63.149 145.711 63.0547 145.586 63.4156C145.543 63.5415 145.398 63.5802 145.266 63.5014C145.103 63.405 145.025 62.6696 145.025 61.243C145.025 58.9895 144.859 58.2642 144.275 57.9704C143.693 57.6765 142.76 57.5814 141.889 57.7268ZM181.039 57.6584C180.872 57.6895 180.405 57.7669 180 57.8299C178.946 57.9945 177.397 59.3403 177.397 60.0915C177.397 60.7471 177.53 60.7766 178.495 60.3346C178.98 60.1122 179.24 59.8374 179.327 59.4574C179.499 58.7057 179.942 58.3245 180.642 58.3245C181.35 58.3245 181.646 58.774 181.646 59.8458V60.6146L180.026 61.2424C178.247 61.9317 177.397 62.6812 177.397 63.5606C177.397 64.9659 179.818 65.3782 181.253 64.2173L181.857 63.7286L182.272 64.2356C182.566 64.5937 182.876 64.7419 183.33 64.7397C184.096 64.736 184.335 64.6024 184.67 63.9925C184.974 63.4372 184.647 62.9472 184.236 63.3423C183.75 63.8093 183.67 63.537 183.67 61.4301C183.67 59.1258 183.383 58.0478 182.727 57.8751C182.017 57.6886 181.341 57.6018 181.039 57.6584ZM154.847 59.3825C156.229 60.2529 156.297 63.2661 154.95 63.9588C154.231 64.3288 153.139 64.1969 152.595 63.6749C152.116 63.2134 152.095 63.0976 152.15 61.2035C152.206 59.2721 152.221 59.2126 152.713 59.0746C153.355 58.8948 154.286 59.029 154.847 59.3825ZM181.646 62.2067C181.646 63.2749 181.079 64.0287 180.355 63.9237C179.25 63.7634 179.448 62.4533 180.686 61.7403C181.159 61.4683 181.568 61.2447 181.596 61.2436C181.623 61.2426 181.646 61.6759 181.646 62.2067ZM142.961 62.451C142.909 63.3252 142.823 63.507 142.345 63.7638C141.662 64.1312 141.109 63.8721 141.018 63.1414C140.971 62.7698 141.143 62.5008 141.721 62.0428C142.827 61.1666 143.035 61.235 142.961 62.451Z" fill="white"/>
</svg>
