<svg width="209" height="71" viewBox="0 0 209 71" fill="none" xmlns="http://www.w3.org/2000/svg">
<rect x="0.713989" width="207.316" height="70.1153" rx="32.028" fill="#202020"/>
<path d="M39.6327 40.8361V25.1846H34.2609V40.8361V45.39H39.6327H47.8699V40.8361H39.6327Z" fill="#ACACAC"/>
<path d="M127.485 25.1846H122.115V45.3886H127.485V25.1846Z" fill="#ACACAC"/>
<path d="M80.9222 25.1846H75.7826V29.7385H80.9222V45.39H86.2925V29.7385H91.432V25.1846H86.2925H80.9222Z" fill="#ACACAC"/>
<path d="M113.826 25.1846H108.688H103.316H98.178V29.7385H103.316V45.39H108.688V29.7385H113.826V25.1846Z" fill="#ACACAC"/>
<path d="M174.737 29.7385V25.1846H166.473H161.101V29.7385V33.0104V37.5644V40.8361V45.39H166.473H174.737V40.8361H166.473V37.5644H173.298V33.0104H166.473V29.7385H174.737Z" fill="#ACACAC"/>
<path d="M53.5387 45.3905H72.5769L63.0578 24.5688L53.5387 45.3905Z" fill="#ACACAC"/>
<path d="M145.405 40.8962C142.601 40.8962 140.33 38.2576 140.33 35.0044C140.33 31.7512 142.602 29.1126 145.405 29.1126C147.198 29.1126 148.772 30.1923 149.674 31.8225L153.699 28.8232C151.786 26.273 148.719 24.6187 145.26 24.6187C139.46 24.6187 134.758 29.2696 134.758 35.0059C134.758 40.7421 139.46 45.3932 145.26 45.3932C148.954 45.3932 152.201 43.5048 154.073 40.6537L149.83 37.8897C148.96 39.6853 147.305 40.8991 145.405 40.8991V40.8962Z" fill="#ACACAC"/>
</svg>
