<svg width="263" height="97" viewBox="0 0 263 97" fill="none" xmlns="http://www.w3.org/2000/svg">
<rect width="263" height="97" fill="#25252B"/>
<path d="M108.805 58.2042L106.806 54.6338C107.753 52.7945 107.753 50.6307 107.753 47.8177C107.753 44.2473 107.753 41.6507 105.754 39.4869C104.386 37.9722 102.597 37.2148 100.282 37.2148C97.9667 37.2148 96.1779 38.0804 94.81 39.4869C92.8106 41.5425 92.8107 44.1391 92.8107 47.8177C92.8107 51.3881 92.7054 53.9847 94.81 56.1485C96.2831 57.6632 97.9667 58.4205 100.282 58.4205C100.913 58.4205 101.439 58.3123 101.965 58.2042H108.805ZM97.6511 53.6601C96.9145 52.7945 96.704 51.8208 96.704 47.8177C96.704 43.8146 96.9145 42.8408 97.6511 41.9753C98.1772 41.3262 99.1242 40.8934 100.177 40.8934C101.229 40.8934 102.176 41.3262 102.702 41.9753C103.439 42.8408 103.649 43.8146 103.649 47.8177C103.649 51.8208 103.439 52.7945 102.702 53.6601C102.176 54.3093 101.229 54.742 100.177 54.742C99.1242 54.742 98.1772 54.3093 97.6511 53.6601Z" fill="white"/>
<path d="M155 37.4312H158.894V58.2041H155V37.4312Z" fill="white"/>
<path d="M60.9269 58.4222C57.8753 58.4222 55.5603 57.773 53.561 55.7174L56.0865 53.1208C57.3492 54.4191 59.1381 54.8518 60.9269 54.8518C63.2419 54.8518 64.5046 53.9863 64.5046 52.2552C64.5046 51.4979 64.2942 50.957 63.8733 50.5242C63.4523 50.0914 63.0315 49.9832 62.0844 49.7668L59.6642 49.4422C57.9806 49.2258 56.6126 48.5767 55.7708 47.7112C54.8238 46.7374 54.2976 45.331 54.2976 43.5999C54.2976 39.9213 56.9283 37.3247 61.3478 37.3247C64.0838 37.3247 66.1882 37.9739 67.8719 39.7049L65.3465 42.1934C64.0838 40.8951 62.5053 40.7869 61.2426 40.7869C59.1381 40.7869 58.0858 41.977 58.0858 43.3835C58.0858 43.9244 58.2962 44.4654 58.7172 44.8982C59.1381 45.331 59.7694 45.5473 60.6113 45.7637L63.0315 46.0883C64.9255 46.3047 66.083 46.8456 66.9249 47.7112C67.9771 48.7931 68.5032 50.3078 68.5032 52.147C68.5032 56.1502 65.136 58.4222 60.9269 58.4222Z" fill="white"/>
<path d="M74.1862 58.2041V37.4312H87.55V41.0015H78.1848V45.8702H86.182V49.5487H78.1848V54.6338H87.55V58.2041H74.1862Z" fill="white"/>
<path d="M121.117 58.4205C117.013 58.4205 113.646 55.4993 113.646 51.0634V37.4312H117.645V50.9552C117.645 53.3354 119.012 54.742 121.117 54.742C123.221 54.742 124.589 53.3354 124.589 50.9552V37.4312H128.483V51.0634C128.483 55.4993 125.221 58.4205 121.117 58.4205Z" fill="white"/>
<path d="M147.213 56.1485C145.845 57.6632 144.056 58.4205 141.741 58.4205C139.426 58.4205 137.637 57.555 136.27 56.1485C134.27 54.0929 134.27 51.4963 134.27 47.8177C134.27 44.2473 134.165 41.6507 136.27 39.4869C137.637 37.9722 139.426 37.2148 141.741 37.2148C144.056 37.2148 145.74 38.0804 147.213 39.4869C149.212 41.5425 149.212 44.1391 149.212 47.8177C149.212 51.3881 149.212 53.9847 147.213 56.1485ZM144.266 41.9753C143.74 41.3262 142.793 40.8934 141.741 40.8934C140.689 40.8934 139.742 41.3262 139.216 41.9753C138.479 42.8408 138.269 43.8146 138.269 47.8177C138.269 51.8208 138.479 52.7945 139.216 53.6601C139.742 54.3093 140.689 54.742 141.741 54.742C142.793 54.742 143.74 54.3093 144.266 53.6601C145.003 52.7945 145.213 51.8208 145.213 47.8177C145.213 43.8146 145.003 42.8408 144.266 41.9753Z" fill="white"/>
<path d="M177.519 58.2041L176.361 54.5256H169.206L167.943 58.2041H163.839L171.205 37.4312H174.257L181.623 58.2041H177.519ZM172.783 43.4899L170.258 51.0634H175.309L172.783 43.4899Z" fill="white"/>
<path d="M204.772 37.4312H209.823V42.6244H204.772V37.4312Z" fill="white"/>
<path d="M192.145 53.7682V37.4312H189.62V56.3648L192.145 53.7682Z" fill="white"/>
<path d="M193.933 55.6074L191.408 58.2041H209.823V55.6074H193.933Z" fill="white"/>
<path d="M197.196 48.575V37.4312H194.67V51.1716L197.196 48.575Z" fill="white"/>
<path d="M198.985 50.4141L196.46 53.0107H209.824V50.4141H198.985Z" fill="white"/>
<path d="M202.247 43.3817V37.4312H199.722V45.9784L202.247 43.3817Z" fill="white"/>
<path d="M204.037 45.2207L201.511 47.8173H209.824V45.2207H204.037Z" fill="white"/>
</svg>
