<svg width="263" height="97" viewBox="0 0 263 97" fill="none" xmlns="http://www.w3.org/2000/svg">
<rect width="263" height="97" fill="#25252B"/>
<path d="M98.6108 56.8069H101.545V43.1647H106.865V40.5109H93.291V43.1647H98.6108V56.8069ZM111.474 57.0863C113.788 57.0863 115.434 56.1783 116.627 54.7815L114.933 53.3149C113.931 54.2693 112.929 54.7815 111.522 54.7815C109.661 54.7815 108.206 53.6641 107.896 51.662H117.152C117.175 51.3826 117.199 51.1265 117.199 50.8704C117.199 47.3319 115.172 44.259 111.164 44.259C107.562 44.259 105.009 47.1456 105.009 50.661V50.7075C105.009 54.5021 107.824 57.0863 111.474 57.0863ZM107.872 49.7996C108.134 47.8907 109.375 46.5637 111.14 46.5637C113.049 46.5637 114.146 47.9838 114.337 49.7996H107.872ZM118.881 56.8069H121.792V49.8694C121.792 47.9605 122.961 46.8197 124.631 46.8197C126.348 46.8197 127.326 47.9139 127.326 49.8228V56.8069H130.213V48.9615C130.213 46.1213 128.567 44.259 125.728 44.259C123.772 44.259 122.603 45.26 121.792 46.4007V44.5151H118.881V56.8069ZM137.706 57.063C139.757 57.063 141.07 56.0387 142 54.7582V56.8069H144.887V39.8125H142V46.424C141.093 45.26 139.782 44.259 137.706 44.259C134.7 44.259 131.862 46.5637 131.862 50.6377V50.6842C131.862 54.7582 134.748 57.063 137.706 57.063ZM138.398 54.6185C136.442 54.6185 134.772 53.0588 134.772 50.6842V50.6377C134.772 48.2165 136.418 46.7033 138.398 46.7033C140.33 46.7033 142.048 48.2631 142.048 50.6377V50.6842C142.048 53.0355 140.33 54.6185 138.398 54.6185ZM153.09 57.0863C155.404 57.0863 157.05 56.1783 158.243 54.7815L156.55 53.3149C155.548 54.2693 154.546 54.7815 153.139 54.7815C151.277 54.7815 149.822 53.6641 149.512 51.662H158.768C158.792 51.3826 158.815 51.1265 158.815 50.8704C158.815 47.3319 156.788 44.259 152.781 44.259C149.179 44.259 146.626 47.1456 146.626 50.661V50.7075C146.626 54.5021 149.44 57.0863 153.09 57.0863ZM149.489 49.7996C149.75 47.8907 150.991 46.5637 152.757 46.5637C154.665 46.5637 155.763 47.9838 155.953 49.7996H149.489ZM160.498 56.8069H163.408V52.1276C163.408 48.8683 165.174 47.2621 167.702 47.2621H167.869V44.2822C165.651 44.1891 164.196 45.4462 163.408 47.2854V44.5151H160.498V56.8069ZM169.159 56.8069H172.07V49.8694C172.07 47.9838 173.167 46.8197 174.765 46.8197C176.364 46.8197 177.318 47.8907 177.318 49.7996V56.8069H180.205V49.8694C180.205 47.8906 181.325 46.8197 182.9 46.8197C184.522 46.8197 185.452 47.8673 185.452 49.8228V56.8069H188.339V48.9615C188.339 45.9584 186.669 44.259 183.925 44.259C182.017 44.259 180.682 45.1203 179.679 46.424C179.011 45.1203 177.723 44.259 175.91 44.259C173.978 44.259 172.881 45.2833 172.07 46.3774V44.5151H169.159V56.8069ZM190.682 42.6293H193.783V39.9521H190.682V42.6293ZM190.778 56.8069H193.688V44.5151H190.778V56.8069ZM196.243 56.8069H199.154V49.8694C199.154 47.9605 200.323 46.8197 201.992 46.8197C203.71 46.8197 204.688 47.9139 204.688 49.8228V56.8069H207.575V48.9615C207.575 46.1213 205.929 44.259 203.089 44.259C201.134 44.259 199.965 45.26 199.154 46.4007V44.5151H196.243V56.8069ZM214.09 57.0164C215.188 57.0164 215.975 56.7836 216.69 56.3879V54.0831C216.117 54.3625 215.545 54.5021 214.901 54.5021C213.923 54.5021 213.351 54.0598 213.351 52.9657V46.9362H216.738V44.5151H213.351V41.1394H210.464V44.5151H208.865V46.9362H210.464V53.408C210.464 56.1085 211.967 57.0164 214.09 57.0164Z" fill="white"/>
<path d="M65.8794 67.8C76.8584 67.8 85.7587 59.1143 85.7587 48.4C85.7587 37.6857 76.8584 29 65.8794 29C54.9003 29 46 37.6857 46 48.4C46 59.1143 54.9003 67.8 65.8794 67.8Z" fill="white"/>
<path fill-rule="evenodd" clip-rule="evenodd" d="M70.1153 44.1629C68.7834 43.6505 67.3487 43.3828 65.8999 43.3828C62.8546 43.3828 59.9902 44.5495 57.8345 46.6679C55.6881 48.777 54.4956 51.5787 54.4764 54.5566L54.4739 54.9566L54.8299 55.1541C56.5461 56.107 58.4869 56.6085 60.4534 56.6085C60.5075 56.6085 60.562 56.6081 60.6162 56.6072C62.3305 56.5832 64.0266 56.181 65.5641 55.4384C65.0792 55.1739 64.6147 54.8757 64.173 54.5472C61.493 55.5774 58.4557 55.4507 55.8852 54.1599C56.1353 48.9341 60.5442 44.7479 65.8999 44.7479C67.3896 44.7479 68.8606 45.0695 70.1895 45.6805C70.2068 45.1746 70.182 44.6675 70.1153 44.1629Z" fill="black"/>
<path fill-rule="evenodd" clip-rule="evenodd" d="M77.3239 54.4638C77.2832 50.7614 75.4357 47.3834 72.356 45.3257C72.3584 45.8674 72.3212 46.4089 72.2451 46.9472C74.4331 48.6908 75.7673 51.2583 75.9131 54.0717C71.1928 56.4452 65.306 54.7826 62.6245 50.2469C61.9002 49.0219 61.4561 47.6518 61.3256 46.2521C60.8701 46.4945 60.4349 46.7735 60.0242 47.0863C60.2407 48.4334 60.7115 49.7412 61.4139 50.9295C62.9393 53.5097 65.3916 55.3595 68.3192 56.138C69.3122 56.4022 70.3221 56.5331 71.3263 56.5331C73.2831 56.5331 75.2187 56.0368 76.9704 55.0646L77.3282 54.866L77.3239 54.4638Z" fill="black"/>
<path fill-rule="evenodd" clip-rule="evenodd" d="M66.304 35.6684L65.9508 35.4663L65.5976 35.6681C63.8528 36.6645 62.4034 38.0932 61.4056 39.7995C60.5441 41.273 60.0345 42.9237 59.915 44.6086C60.3927 44.3316 60.8902 44.0879 61.4047 43.8797C61.8479 41.1021 63.503 38.5919 65.9501 37.0579C70.4445 39.8781 71.9225 45.7254 69.2229 50.2918C68.492 51.5286 67.4921 52.5978 66.308 53.4187C66.7503 53.6819 67.2148 53.9105 67.6975 54.1016C68.7922 53.2354 69.7242 52.1742 70.4336 50.9743C73.5854 45.6428 71.733 38.7766 66.304 35.6684Z" fill="black"/>
<path fill-rule="evenodd" clip-rule="evenodd" d="M65.9428 47.3182C65.2988 47.3182 64.775 47.8298 64.775 48.4587C64.775 49.0873 65.2988 49.5988 65.9428 49.5988C66.5866 49.5988 67.1104 49.0873 67.1104 48.4587C67.1104 47.8298 66.5866 47.3182 65.9428 47.3182ZM65.9428 50.9643C64.5281 50.9643 63.3772 49.8404 63.3772 48.4587C63.3772 47.0771 64.5281 45.9531 65.9428 45.9531C67.3576 45.9531 68.5082 47.0771 68.5082 48.4587C68.5082 49.8404 67.3576 50.9643 65.9428 50.9643Z" fill="black"/>
</svg>
