<svg width="58" height="58" viewBox="0 0 58 58" fill="none" xmlns="http://www.w3.org/2000/svg">
<g clip-path="url(#clip0_842_73)">
<path d="M0 29.706V28.4039C0.136783 27.4576 0.197575 26.5022 0.24925 25.559C1.16113 17.5447 4.96978 11.1521 11.1919 6.14706C14.9563 3.05298 19.4956 1.05045 24.317 0.356956C32.3294 -0.771854 39.7614 0.715985 46.2903 5.68763C51.5885 9.73735 55.3211 14.9098 57.0446 21.4058C57.892 24.6609 58.1787 28.0368 57.8927 31.3885C57.54 35.983 56.2725 40.2882 53.774 44.1675C49.3696 51.0105 43.3236 55.699 35.2749 57.3026C23.8124 59.5876 14.1586 56.2589 6.55342 47.3015C3.36559 43.5571 1.26312 39.0103 0.474181 34.1544C0.382992 33.625 0.322199 33.0955 0.24925 32.563L0 29.706ZM54.7892 28.9454C54.8803 27.366 54.771 25.7814 54.464 24.2293C53.9605 21.4259 52.9785 18.7304 51.5611 16.2607C49.8099 13.2838 47.5207 10.659 44.8101 8.52029C42.2815 6.49303 39.3717 4.99483 36.2536 4.11459C34.4199 3.56053 32.5206 3.25357 30.6059 3.2018C30.1469 3.2018 29.694 3.04968 29.2351 3.11357C28.6834 3.18958 28.1262 3.22011 27.5694 3.20485C26.8903 3.21335 26.2133 3.27849 25.545 3.39958C23.0691 3.7404 20.6533 4.42765 18.3684 5.44116C12.3021 8.18656 7.52624 13.1666 5.03362 19.3459C3.98331 21.936 3.3671 24.6819 3.20985 27.4728C3.11592 29.2199 3.19738 30.9722 3.45301 32.7029C3.76819 35.0893 4.42544 37.4174 5.40444 39.6158C7.2951 43.833 10.2253 47.2466 13.8911 50.0032C18.262 53.2893 23.2714 54.7681 28.7031 54.8928C29.5269 54.9111 30.3445 54.8472 31.1683 54.7834C32.2061 54.7112 33.2385 54.5751 34.2595 54.3755C36.7894 53.8865 39.224 52.9928 41.4696 51.7284C44.9687 49.75 47.9856 47.0191 50.3027 43.7325C51.7376 41.735 52.8505 39.5246 53.6007 37.1818C54.4966 34.5321 54.8994 31.7405 54.7892 28.9454Z" fill="#C4BAAE"/>
<path d="M19.7939 18.1457V16.0158C19.8213 14.458 20.642 13.2318 21.9916 12.7115C22.7041 12.4156 23.4898 12.3445 24.2436 12.5076C24.9976 12.6707 25.6838 13.0603 26.2106 13.6243C26.7926 14.2282 27.1193 15.0337 27.1224 15.8728V18.0969C27.7943 18.2339 28.4448 18.1426 29.0892 18.1609C29.7335 18.179 30.3445 18.1609 31.0102 18.1609C31.0831 17.5797 31.1014 16.9928 31.065 16.4083C31.0563 15.9708 31.0981 15.5339 31.1895 15.106C31.5922 13.5476 33.01 12.4517 34.6182 12.4559C36.3934 12.4285 37.8493 13.4387 38.2657 14.9995C38.3715 15.4502 38.4214 15.912 38.4147 16.3748V18.033C38.582 18.2399 38.7917 18.1638 38.974 18.1638H43.1292C43.396 18.1524 43.6635 18.1727 43.9256 18.2247C44.2498 18.286 44.5467 18.4478 44.7738 18.6878C45.0007 18.9276 45.1465 19.233 45.19 19.5605C45.2766 20.1153 45.2465 20.6821 45.1019 21.2247C44.8001 22.4594 44.2129 23.6058 43.3874 24.5717C42.5791 25.4803 41.7118 26.3351 40.7918 27.1304C40.5242 27.3738 40.2536 27.6234 40.0075 27.8911C39.6553 28.2656 39.4663 28.7646 39.4817 29.2786C39.4998 32.2939 39.506 35.312 39.4817 38.3304C39.4558 42.1111 36.814 45.4048 33.1318 46.2472C32.4932 46.3973 31.8393 46.4718 31.1835 46.4692C29.5055 46.4692 27.8398 46.4906 26.1529 46.4692C22.1549 46.4538 18.7249 43.5067 18.104 39.5535C18.0249 39.0237 17.9915 38.4886 18.0037 37.953C18.0037 35.1781 17.955 32.4033 18.0037 29.6315C18.0226 29.2306 17.9504 28.8305 17.7924 28.4615C17.6345 28.0927 17.3949 27.7644 17.0918 27.5016C16.3264 26.7922 15.5614 26.0822 14.7969 25.3717C13.8231 24.451 13.0671 23.3242 12.584 22.0737C12.3129 21.4216 12.1803 20.72 12.1949 20.0138C12.2314 18.7603 12.8302 18.1578 14.1099 18.1457H19.7939ZM25.4934 21.7573C25.4279 21.7047 25.352 21.667 25.2706 21.6465C25.1894 21.626 25.1046 21.6233 25.0221 21.6385H19.484C18.5903 21.6385 18.2377 22.0492 18.3836 22.9287C18.4946 23.6807 18.8404 24.3781 19.3715 24.9215C19.7787 25.3353 20.1862 25.7553 20.6208 26.1386C20.907 26.3833 21.1325 26.6914 21.2797 27.0382C21.4268 27.3851 21.4915 27.7613 21.4689 28.1376C21.4323 29.814 21.4689 31.4844 21.4689 33.17V38.0596C21.468 38.0964 21.4676 38.1332 21.4676 38.1703C21.4676 40.7537 23.5601 42.8937 26.1408 42.949H26.4447C28.0952 42.8881 29.7457 42.949 31.3992 42.9278C32.3278 42.9104 33.2302 42.6182 33.9929 42.0881C34.7556 41.5581 35.3445 40.8137 35.685 39.949C36.1594 38.7594 36.0073 37.5149 35.989 36.3588C29.1408 33.7908 25.4934 29.0411 25.4934 21.7573ZM34.1866 32.4369C35.0403 32.4369 35.7429 31.7336 35.7429 30.879C35.7429 30.0242 35.0403 29.3212 34.1866 29.3212C33.3328 29.3212 32.6303 30.0242 32.6303 30.879C32.6303 31.7336 33.3328 32.4369 34.1866 32.4369ZM35.9556 18.1364C35.9556 17.3485 35.9861 16.6152 35.9556 15.8515C35.9252 15.2612 35.5089 14.9387 34.8705 14.8992C34.135 14.8565 33.6211 15.1486 33.5573 15.7572C33.4752 16.5482 33.4752 17.3454 33.5573 18.1364H35.9556ZM24.5844 18.1364C24.6208 18.0665 24.6603 18.0269 24.6603 17.9844C24.6603 17.4063 24.6877 16.8251 24.6877 16.247C24.6897 16.0513 24.6672 15.8561 24.6208 15.6659C24.472 15.1121 23.9917 14.8292 23.32 14.8839C22.7121 14.9326 22.2925 15.2795 22.2682 15.8637C22.2348 16.6091 22.2682 17.3545 22.2682 18.1304L24.5844 18.1364Z" fill="#030202"/>
<path d="M25.4928 21.7587C25.4928 29.0428 29.1405 33.7923 35.9734 36.3633C35.9734 37.5316 36.1345 38.7639 35.6695 39.9537C35.3289 40.8182 34.74 41.5626 33.9773 42.0928C33.2146 42.6228 32.312 42.9149 31.3836 42.9323C29.7301 42.9566 28.0796 42.8928 26.429 42.9535C23.8172 43.0628 21.5765 41.0042 21.4624 38.3897V33.1655C21.4624 31.4891 21.4381 29.8187 21.4624 28.1331C21.485 27.7568 21.4203 27.3805 21.2731 27.0336C21.126 26.6869 20.9005 26.3788 20.6143 26.1341C20.1796 25.7446 19.7722 25.3246 19.3649 24.917C18.8339 24.3736 18.488 23.6761 18.3771 22.9241C18.2312 22.0447 18.5837 21.6371 19.4775 21.634H25.0125C25.0968 21.6179 25.1836 21.6206 25.2668 21.6422C25.3498 21.6637 25.427 21.7036 25.4928 21.7587ZM26.1007 30.9049L26.1011 30.8718C26.1011 30.0188 25.3998 29.3168 24.5478 29.3168C23.6959 29.3168 22.9946 30.0188 22.9946 30.8718C22.9946 31.7108 23.6731 32.4064 24.511 32.4262C25.3438 32.4621 26.0589 31.8054 26.0947 30.9718V30.9049H26.1007ZM34.1861 32.4383C33.3322 32.4383 32.6299 31.7352 32.6299 30.8805C32.6299 30.0259 33.3322 29.3226 34.1861 29.3226C35.04 29.3226 35.7425 30.0259 35.7425 30.8805C35.7425 31.7352 35.04 32.4383 34.1861 32.4383ZM35.9553 18.129H33.5539C33.4718 17.3378 33.4718 16.5407 33.5539 15.7496C33.6177 15.1411 34.1314 14.8368 34.8671 14.8916C35.5054 14.9281 35.9218 15.2536 35.9522 15.8439C35.9856 16.5924 35.9553 17.3439 35.9553 18.129ZM24.584 18.1319H22.2588C22.2588 17.3561 22.2343 16.6106 22.2588 15.8652C22.2831 15.281 22.6903 14.9342 23.3104 14.8855C23.9821 14.8307 24.4624 15.1137 24.6114 15.6674C24.6578 15.8555 24.6801 16.0487 24.6783 16.2425C24.6783 16.8206 24.6783 17.4017 24.6509 17.9798C24.66 18.0224 24.6205 18.062 24.584 18.1319Z" fill="#F6EEE4"/>
<path d="M26.0955 30.9051C26.0823 31.7488 25.3854 32.4356 24.5426 32.4356C23.6902 32.4356 22.9893 31.7336 22.9893 30.8808C22.9893 30.0278 23.6902 29.326 24.5426 29.326H24.5513L24.5759 29.3257C25.4006 29.3257 26.0823 29.9974 26.0955 30.823V30.9051Z" fill="#030202"/>
</g>
<defs>
<clipPath id="clip0_842_73">
<rect width="58" height="58" fill="white"/>
</clipPath>
</defs>
</svg>
