<svg width="32" height="32" viewBox="0 0 32 32" fill="none" xmlns="http://www.w3.org/2000/svg">
<circle cx="16" cy="16" r="16" fill="white"/>
<g clip-path="url(#clip0_2_2187)">
<path d="M14.4514 8.97896C14.2144 8.94509 14.2031 8.9338 14.316 8.92251C14.5305 8.88864 15.0272 8.9338 15.3772 9.01283C16.19 9.20474 16.9238 9.70148 17.7028 10.5708L17.906 10.8078L18.1995 10.7627C19.4526 10.5595 20.7396 10.7175 21.8121 11.2142C22.1056 11.3497 22.5685 11.6207 22.6249 11.6884C22.6475 11.711 22.6814 11.8577 22.704 12.0045C22.783 12.5351 22.7491 12.9302 22.5798 13.235C22.4895 13.4044 22.4895 13.4495 22.5459 13.5963C22.5911 13.7092 22.7266 13.7882 22.8507 13.7882C23.1217 13.7882 23.4039 13.3592 23.5394 12.7609L23.5958 12.5238L23.6974 12.6367C24.2732 13.2802 24.7248 14.1721 24.7925 14.8043L24.8151 14.9736L24.7135 14.8268C24.5441 14.5672 24.3861 14.3978 24.1716 14.2511C23.7878 13.9914 23.3813 13.9124 22.3088 13.856C21.338 13.7995 20.7848 13.7205 20.2429 13.5399C19.3172 13.235 18.843 12.8399 17.7479 11.3836C17.2625 10.7401 16.9577 10.3901 16.6529 10.0966C15.9868 9.45311 15.3207 9.11443 14.4514 8.97896Z" fill="#FF007A"/>
<path d="M22.8616 10.4101C22.8842 9.98112 22.9407 9.69889 23.0648 9.43923C23.11 9.33763 23.1552 9.24731 23.1664 9.24731C23.1777 9.24731 23.1552 9.32634 23.1213 9.41666C23.031 9.66502 23.0197 10.015 23.0761 10.4101C23.1552 10.9181 23.189 10.9859 23.7309 11.5391C23.9793 11.7987 24.2728 12.1261 24.3857 12.2616L24.5776 12.5099L24.3857 12.3293C24.1486 12.1035 23.6067 11.6745 23.4825 11.6181C23.4035 11.5729 23.3922 11.5729 23.3358 11.6294C23.2906 11.6745 23.2793 11.7423 23.2793 12.0697C23.268 12.5777 23.2003 12.8938 23.031 13.2212C22.9407 13.3905 22.9294 13.3566 23.0084 13.1647C23.0648 13.018 23.0761 12.9502 23.0761 12.4648C23.0761 11.4826 22.9632 11.2455 22.2746 10.8504C22.1052 10.7488 21.8117 10.602 21.6424 10.523C21.4618 10.444 21.3263 10.3763 21.3376 10.3763C21.3601 10.3537 22.0262 10.5456 22.2859 10.6585C22.681 10.8165 22.7487 10.8278 22.7939 10.8165C22.8278 10.7827 22.8503 10.6924 22.8616 10.4101Z" fill="#FF007A"/>
<path d="M14.914 12.095C14.4398 11.4402 14.135 10.4241 14.2028 9.66774L14.2253 9.43066L14.3382 9.45324C14.5414 9.48711 14.8914 9.62258 15.0607 9.72419C15.5123 9.99513 15.7155 10.3677 15.9075 11.2934C15.9639 11.5644 16.0429 11.8805 16.0768 11.9821C16.1332 12.1514 16.3477 12.5465 16.5284 12.7949C16.6526 12.9755 16.5735 13.0658 16.2913 13.0433C15.8623 12.9981 15.2865 12.603 14.914 12.095Z" fill="#FF007A"/>
<path d="M22.2858 17.0033C20.0505 16.1002 19.2603 15.3212 19.2603 14.0004C19.2603 13.8084 19.2715 13.6504 19.2715 13.6504C19.2828 13.6504 19.3619 13.7181 19.4635 13.7972C19.915 14.1584 20.4231 14.3165 21.8342 14.5197C22.6584 14.6439 23.1325 14.7342 23.5615 14.8809C24.9275 15.3325 25.7742 16.2582 25.9774 17.5114C26.0339 17.8726 26 18.5613 25.9097 18.9225C25.8307 19.2048 25.6049 19.7241 25.5484 19.7354C25.5371 19.7354 25.5146 19.6789 25.5146 19.5886C25.492 19.1144 25.2549 18.6629 24.8598 18.3129C24.3856 17.9065 23.776 17.6017 22.2858 17.0033Z" fill="#FF007A"/>
<path d="M20.7053 17.3784C20.6827 17.209 20.6262 16.9945 20.5924 16.9042L20.5359 16.7349L20.6375 16.859C20.7843 17.0284 20.8972 17.2316 20.9988 17.5138C21.0778 17.7283 21.0778 17.7961 21.0778 18.146C21.0778 18.4847 21.0665 18.5637 20.9988 18.7557C20.8859 19.0605 20.7504 19.275 20.5246 19.512C20.1182 19.9298 19.5876 20.1555 18.8312 20.2571C18.6958 20.2684 18.3119 20.3023 17.9732 20.3249C17.1265 20.37 16.5621 20.4604 16.0541 20.641C15.9863 20.6636 15.9186 20.6861 15.9073 20.6749C15.8847 20.6523 16.2347 20.4491 16.5169 20.3136C16.912 20.1217 17.3185 20.0201 18.2103 19.862C18.6506 19.7943 19.1022 19.704 19.2151 19.6588C20.3327 19.3088 20.8859 18.4396 20.7053 17.3784Z" fill="#FF007A"/>
<path d="M21.7325 19.1962C21.439 18.5527 21.3712 17.943 21.5293 17.3673C21.5518 17.3108 21.5744 17.2544 21.597 17.2544C21.6196 17.2544 21.6873 17.2883 21.7551 17.3334C21.8905 17.4237 22.1728 17.5818 22.8953 17.9769C23.8097 18.4736 24.329 18.8575 24.6903 19.2978C25.0064 19.6816 25.1983 20.1219 25.2886 20.6638C25.3451 20.9686 25.3112 21.7024 25.2322 22.0072C24.9838 22.9668 24.4194 23.7345 23.5952 24.1748C23.471 24.2425 23.3694 24.2877 23.3581 24.2877C23.3469 24.2877 23.392 24.1748 23.4598 24.0393C23.7307 23.4635 23.7646 22.9104 23.5614 22.2894C23.4372 21.9056 23.1775 21.4427 22.6582 20.6638C22.0373 19.7606 21.8905 19.5236 21.7325 19.1962Z" fill="#FF007A"/>
<path d="M13.322 22.6513C14.1574 21.9513 15.1848 21.4546 16.1331 21.2965C16.5395 21.2288 17.2169 21.2514 17.5894 21.353C18.1877 21.511 18.7296 21.8497 19.0119 22.2674C19.2828 22.6738 19.407 23.0238 19.5312 23.8028C19.5763 24.1076 19.6328 24.4237 19.6441 24.4914C19.7344 24.8978 19.915 25.2139 20.1408 25.3833C20.4908 25.6429 21.1004 25.6542 21.6987 25.4284C21.8003 25.3946 21.8907 25.3607 21.8907 25.372C21.9132 25.3946 21.6084 25.5978 21.4052 25.6994C21.123 25.8461 20.8972 25.8913 20.5924 25.8913C20.0505 25.8913 19.5876 25.6091 19.2151 25.0446C19.1361 24.9317 18.978 24.6043 18.8425 24.2995C18.4474 23.3851 18.2442 23.1141 17.7813 22.8093C17.3749 22.5497 16.8556 22.4932 16.4605 22.6851C15.9412 22.9335 15.8057 23.5996 16.167 24.006C16.3137 24.1753 16.5847 24.3108 16.8104 24.3447C17.2282 24.4011 17.5894 24.0737 17.5894 23.656C17.5894 23.3851 17.4878 23.227 17.2169 23.1028C16.8556 22.9448 16.4605 23.1254 16.4718 23.4754C16.4718 23.6221 16.5395 23.7125 16.6863 23.7802C16.7766 23.8253 16.7766 23.8253 16.7088 23.8141C16.3815 23.7463 16.3024 23.3399 16.5621 23.0802C16.8782 22.7641 17.5443 22.8996 17.77 23.3399C17.8604 23.5205 17.8716 23.8818 17.7926 24.1076C17.6007 24.6043 17.0588 24.864 16.5056 24.7172C16.1331 24.6156 15.975 24.514 15.5235 24.0511C14.7332 23.2383 14.4284 23.0802 13.2995 22.9109L13.085 22.877L13.322 22.6513Z" fill="#FF007A"/>
<path fill-rule="evenodd" clip-rule="evenodd" d="M7.38385 4.4852C10.0143 7.68009 14.0672 12.6474 14.2704 12.9184C14.4397 13.1441 14.372 13.3586 14.0897 13.5167C13.9317 13.607 13.6043 13.6973 13.4462 13.6973C13.2656 13.6973 13.0511 13.607 12.9044 13.4602C12.8027 13.3586 12.3625 12.7151 11.369 11.1685C10.6126 9.98312 9.96912 9.00094 9.95783 8.98965C9.91267 8.96708 9.91267 8.96708 11.29 11.4282C12.1593 12.9748 12.4415 13.528 12.4415 13.5957C12.4415 13.7425 12.3963 13.8215 12.2157 14.0247C11.9109 14.3634 11.7754 14.7472 11.6738 15.5488C11.5609 16.4406 11.2561 17.0728 10.3868 18.1453C9.8788 18.7775 9.79978 18.8904 9.67559 19.1501C9.51754 19.4662 9.47238 19.6468 9.44981 20.0532C9.42723 20.4822 9.47238 20.7532 9.59657 21.1596C9.70946 21.5208 9.83364 21.7579 10.1385 22.2208C10.3981 22.6272 10.5562 22.932 10.5562 23.0449C10.5562 23.1352 10.5787 23.1352 10.9852 23.0449C11.956 22.8191 12.7576 22.4353 13.1979 21.9611C13.4688 21.6676 13.5366 21.5096 13.5366 21.1031C13.5366 20.8435 13.5253 20.787 13.4575 20.629C13.3446 20.3806 13.1301 20.1774 12.6673 19.8613C12.0576 19.4436 11.798 19.1049 11.7303 18.6533C11.6738 18.2695 11.7415 18.0099 12.0802 17.2986C12.4302 16.5648 12.5205 16.26 12.577 15.5149C12.6108 15.0408 12.6673 14.8488 12.8027 14.7021C12.9495 14.544 13.0737 14.4876 13.4237 14.4424C13.9994 14.3634 14.372 14.2166 14.6655 13.9344C14.9251 13.6973 15.038 13.4602 15.0493 13.1103L15.0606 12.8506L14.9139 12.6926C14.3833 12.0829 7.03388 3.99976 7.00001 3.99976C6.98872 3.99976 7.16935 4.21425 7.38385 4.4852ZM10.8497 20.5387C10.9739 20.3242 10.9061 20.0532 10.7029 19.9178C10.511 19.7936 10.2175 19.85 10.2175 20.0194C10.2175 20.0645 10.2401 20.1097 10.3078 20.1323C10.4094 20.1887 10.4207 20.2451 10.3417 20.3693C10.2626 20.4935 10.2626 20.6064 10.3642 20.6854C10.5223 20.8096 10.7368 20.7419 10.8497 20.5387Z" fill="#FF007A"/>
<path fill-rule="evenodd" clip-rule="evenodd" d="M15.4217 14.6013C15.1508 14.6804 14.8911 14.9739 14.8121 15.2674C14.7669 15.448 14.7895 15.7754 14.8685 15.877C14.9927 16.0351 15.1056 16.0802 15.4217 16.0802C16.0426 16.0802 16.5732 15.8093 16.6297 15.4819C16.6861 15.211 16.449 14.8384 16.1216 14.6691C15.9523 14.5787 15.6023 14.5449 15.4217 14.6013ZM16.1442 15.1658C16.2345 15.0303 16.2007 14.8836 16.0313 14.782C15.7265 14.59 15.2637 14.7481 15.2637 15.0416C15.2637 15.1884 15.5007 15.3464 15.7265 15.3464C15.8733 15.3464 16.0765 15.2561 16.1442 15.1658Z" fill="#FF007A"/>
</g>
<defs>
<clipPath id="clip0_2_2187">
<rect width="19" height="21.8788" fill="white" transform="translate(7 4)"/>
</clipPath>
</defs>
</svg>
