<svg width="104" height="23" viewBox="0 0 104 23" fill="none" xmlns="http://www.w3.org/2000/svg">
<path fill-rule="evenodd" clip-rule="evenodd" d="M37.027 7.3608C38.2682 7.3608 38.9727 8.05336 39.251 9.11021H41.8637C41.4186 6.59862 39.5475 5.21289 37.0089 5.21289C35.601 5.21289 34.4144 5.663 33.451 6.56381C32.8768 7.10094 32.5245 7.70708 32.3766 8.41705C32.2286 9.11021 32.1541 10.1323 32.1541 11.4832C32.1541 12.8341 32.2286 13.8561 32.3766 14.5493C32.5245 15.2419 32.8768 15.8648 33.451 16.402C34.4144 17.3027 35.601 17.7529 37.0089 17.7529C39.5287 17.7529 41.4186 16.3677 41.8637 13.8561H39.251C38.9727 14.9124 38.2682 15.6055 37.027 15.6055C36.3231 15.6055 35.7671 15.3979 35.3778 14.9646C34.8413 14.4275 34.7297 13.8735 34.7297 11.4832C34.7297 9.09281 34.8413 8.53828 35.3778 8.00175C35.7671 7.56845 36.3231 7.3608 37.027 7.3608Z" fill="white"/>
<path fill-rule="evenodd" clip-rule="evenodd" d="M51.7925 10.3565H51.7931V10.2515H51.7925V10.3565ZM51.7932 5.31881H51.7926V7.78539V10.2496H49.2163V12.7155H51.7926V12.4875H51.7932V12.7179H51.7926V15.1839V17.6505H54.3682V17.6487V15.1839V12.7179V10.2514V7.78539V5.31881V5.31641H51.7932V5.31881Z" fill="white"/>
<path fill-rule="evenodd" clip-rule="evenodd" d="M44.7527 17.6497H47.3283V13.7776V12.4879V10.3574V9.01905V5.31738H44.7527V17.6497Z" fill="white"/>
<path fill-rule="evenodd" clip-rule="evenodd" d="M63.8898 14.9472C63.5193 15.3458 62.9445 15.6056 62.2406 15.6056C61.5367 15.6056 60.9437 15.3458 60.5733 14.9472C60.0724 14.4275 59.9427 13.8562 59.9427 11.4832C59.9427 9.10969 60.0724 8.53835 60.5733 8.01923C60.9437 7.62073 61.5367 7.36087 62.2406 7.36087C62.9445 7.36087 63.5193 7.62073 63.8898 8.01923C64.39 8.53835 64.5386 9.10969 64.5386 11.4832C64.5386 13.8562 64.39 14.4275 63.8898 14.9472ZM62.2408 5.21289C60.7401 5.21289 59.5911 5.69781 58.6647 6.56381C57.3302 7.8109 57.3678 9.35267 57.3678 11.4832C57.3678 13.6137 57.3302 15.1549 58.6647 16.402C59.5911 17.268 60.7401 17.7529 62.2408 17.7529C63.742 17.7529 64.8715 17.268 65.7987 16.402C67.1325 15.1549 67.1144 13.6137 67.1144 11.4832C67.1144 9.35267 67.1325 7.8109 65.7987 6.56381C64.8715 5.69781 63.742 5.21289 62.2408 5.21289Z" fill="white"/>
<path fill-rule="evenodd" clip-rule="evenodd" d="M74.8799 10.7212H72.4522V7.46479H74.8799C76.0101 7.46479 76.751 8.14055 76.751 9.09358C76.751 10.046 76.0101 10.7212 74.8799 10.7212ZM79.3273 9.09347C79.3273 7.03199 77.7333 5.31738 75.0467 5.31738H69.8772V17.6497H72.4522V12.7303H74.3051L76.8808 17.6497H79.8639L76.9178 12.3324C78.1965 11.8991 79.3273 10.8249 79.3273 9.09347Z" fill="white"/>
<path fill-rule="evenodd" clip-rule="evenodd" d="M89.2551 13.3361C89.2551 14.756 88.3468 15.6052 86.9571 15.6052C85.5674 15.6052 84.6779 14.756 84.6779 13.3361V5.31641H82.1023V13.4231C82.1023 16.0379 84.2523 17.7525 86.9571 17.7525C89.6625 17.7525 91.8119 16.0379 91.8119 13.4231V5.31641H89.2551V13.3361Z" fill="white"/>
<path fill-rule="evenodd" clip-rule="evenodd" d="M102.409 11.3967C101.853 10.9118 101.093 10.5998 99.8884 10.4443L98.332 10.2361C97.7948 10.1671 97.3685 9.97621 97.109 9.75116C96.832 9.5087 96.7204 9.17983 96.7204 8.86775C96.7204 8.01915 97.3867 7.30859 98.7589 7.30859C99.6289 7.30859 100.63 7.41301 101.464 8.15779L103.095 6.65083C101.964 5.62879 100.648 5.21289 98.8328 5.21289C95.9789 5.21289 94.2375 6.75465 94.2375 8.95418C94.2375 9.99362 94.5522 10.7906 95.1822 11.3794C95.7751 11.9165 96.6088 12.2454 97.7396 12.4014L99.333 12.609C99.9442 12.696 100.241 12.8173 100.5 13.0423C100.778 13.2848 100.908 13.6479 100.908 14.0818C100.908 15.0684 100.093 15.6055 98.5733 15.6055C97.3504 15.6055 96.2202 15.3457 95.3859 14.5661L93.7185 16.1252C95.0154 17.355 96.5349 17.7535 98.5357 17.7535C101.298 17.7535 103.428 16.4025 103.428 14.0121C103.428 12.9211 103.113 12.0203 102.409 11.3967Z" fill="white"/>
<path fill-rule="evenodd" clip-rule="evenodd" d="M0.116699 20.4141L2.78198 22.9659L5.44727 20.4141L2.78198 17.8623L0.116699 20.4141Z" fill="white"/>
<path fill-rule="evenodd" clip-rule="evenodd" d="M24.1018 2.5518L21.4365 0L18.7712 2.5518L21.4365 5.1036L24.1018 2.5518Z" fill="white"/>
<path fill-rule="evenodd" clip-rule="evenodd" d="M14.7754 14.0344L12.1101 16.5863L9.44486 14.0344L6.77955 11.4827L9.44486 8.93087L12.1101 6.37906L14.7754 8.93087L17.4407 11.4827L14.7754 14.0344ZM22.7712 11.4826L20.1059 8.93081L17.4407 6.37899L14.7754 3.8272L12.1101 1.27539L9.4448 3.8272L6.77954 6.37899L4.11426 8.93081L1.44897 11.4826L4.11426 14.0344L6.77954 16.5862L9.4448 19.138L12.1101 21.6898L14.7754 19.138L17.4407 16.5862L20.1059 14.0344L22.7712 11.4826Z" fill="white"/>
<path fill-rule="evenodd" clip-rule="evenodd" d="M18.7673 20.419L21.4326 22.9708L24.0979 20.419L21.4326 17.8672L18.7673 20.419Z" fill="white"/>
<path fill-rule="evenodd" clip-rule="evenodd" d="M5.43921 2.55425L2.77393 0.00244141L0.108643 2.55425L2.77393 5.10604L5.43921 2.55425Z" fill="white"/>
</svg>
