<svg width="207" height="76" viewBox="0 0 207 76" fill="none" xmlns="http://www.w3.org/2000/svg">
<rect width="207" height="76" fill="#25252B"/>
<path fill-rule="evenodd" clip-rule="evenodd" d="M89.1199 33.7212C90.3231 33.7212 91.0061 34.421 91.2759 35.4889H93.8087C93.3773 32.951 91.5633 31.5508 89.1023 31.5508C87.7374 31.5508 86.5871 32.0056 85.653 32.9159C85.0964 33.4586 84.7549 34.0711 84.6115 34.7885C84.4681 35.4889 84.3958 36.5217 84.3958 37.8867C84.3958 39.2518 84.4681 40.2846 84.6115 40.985C84.7549 41.6848 85.0964 42.3143 85.653 42.8571C86.5871 43.7673 87.7374 44.2221 89.1023 44.2221C91.5451 44.2221 93.3773 42.8225 93.8087 40.2846H91.2759C91.0061 41.3519 90.3231 42.0523 89.1199 42.0523C88.4375 42.0523 87.8984 41.8425 87.5211 41.4046C87.0009 40.8619 86.8927 40.3022 86.8927 37.8867C86.8927 35.4714 87.0009 34.911 87.5211 34.3689C87.8984 33.931 88.4375 33.7212 89.1199 33.7212Z" fill="white"/>
<path fill-rule="evenodd" clip-rule="evenodd" d="M103.434 36.6406H100.937V39.1324H103.434V38.902L103.435 39.1348L103.434 44.1191H105.931V31.6558H103.435L103.434 36.6406Z" fill="white"/>
<path fill-rule="evenodd" clip-rule="evenodd" d="M96.6089 44.1177H99.1058V31.6562H96.6089V44.1177Z" fill="white"/>
<path fill-rule="evenodd" clip-rule="evenodd" d="M115.16 41.3871C114.8 41.7898 114.243 42.0525 113.561 42.0525C112.878 42.0525 112.303 41.7898 111.944 41.3871C111.459 40.862 111.333 40.2846 111.333 37.8868C111.333 35.4884 111.459 34.9111 111.944 34.3866C112.303 33.9839 112.878 33.7213 113.561 33.7213C114.243 33.7213 114.8 33.9839 115.16 34.3866C115.645 34.9111 115.789 35.4884 115.789 37.8868C115.789 40.2846 115.645 40.862 115.16 41.3871ZM113.561 31.5508C112.106 31.5508 110.992 32.0408 110.094 32.9159C108.8 34.176 108.837 35.7339 108.837 37.8867C108.837 40.0395 108.8 41.5969 110.094 42.8571C110.992 43.7322 112.106 44.2221 113.561 44.2221C115.016 44.2221 116.111 43.7322 117.01 42.8571C118.303 41.5969 118.286 40.0395 118.286 37.8867C118.286 35.7339 118.303 34.176 117.01 32.9159C116.111 32.0408 115.016 31.5508 113.561 31.5508Z" fill="white"/>
<path fill-rule="evenodd" clip-rule="evenodd" d="M125.813 37.1166H123.459V33.8262H125.813C126.908 33.8262 127.627 34.509 127.627 35.472C127.627 36.4344 126.908 37.1166 125.813 37.1166ZM130.124 35.4719C130.124 33.3888 128.579 31.6562 125.974 31.6562H120.963V44.1177H123.459V39.1468H125.256L127.752 44.1177H130.644L127.788 38.7448C129.028 38.307 130.124 37.2214 130.124 35.4719Z" fill="white"/>
<path fill-rule="evenodd" clip-rule="evenodd" d="M139.75 39.7594C139.75 41.1943 138.869 42.0524 137.522 42.0524C136.175 42.0524 135.313 41.1943 135.313 39.7594V31.6558H132.815V39.8474C132.815 42.4897 134.9 44.2222 137.522 44.2222C140.145 44.2222 142.229 42.4897 142.229 39.8474V31.6558H139.75V39.7594Z" fill="white"/>
<path fill-rule="evenodd" clip-rule="evenodd" d="M152.503 37.7994C151.964 37.3094 151.227 36.9941 150.06 36.837L148.551 36.6266C148.03 36.5569 147.617 36.364 147.365 36.1366C147.096 35.8916 146.988 35.5592 146.988 35.2439C146.988 34.3865 147.634 33.6684 148.964 33.6684C149.808 33.6684 150.779 33.7739 151.587 34.5265L153.168 33.0038C152.071 31.971 150.796 31.5508 149.036 31.5508C146.269 31.5508 144.581 33.1087 144.581 35.3312C144.581 36.3816 144.886 37.187 145.497 37.7819C146.072 38.3246 146.88 38.657 147.977 38.8145L149.521 39.0244C150.113 39.1124 150.401 39.2348 150.653 39.4622C150.922 39.7073 151.048 40.0742 151.048 40.5126C151.048 41.5096 150.258 42.0523 148.785 42.0523C147.599 42.0523 146.504 41.7897 145.695 41.002L144.078 42.5774C145.335 43.82 146.808 44.2227 148.748 44.2227C151.426 44.2227 153.491 42.8576 153.491 40.4422C153.491 39.3398 153.185 38.4295 152.503 37.7994Z" fill="white"/>
<path fill-rule="evenodd" clip-rule="evenodd" d="M53.3389 46.9115L55.9227 49.4901L58.5066 46.9115L55.9227 44.333L53.3389 46.9115Z" fill="white"/>
<path fill-rule="evenodd" clip-rule="evenodd" d="M76.5926 28.8622L74.0087 26.2837L71.4248 28.8622L74.0087 31.4408L76.5926 28.8622Z" fill="white"/>
<path fill-rule="evenodd" clip-rule="evenodd" d="M64.9655 43.0441L59.7981 37.887L64.9655 32.7299L70.133 37.887L64.9655 43.0441ZM75.3004 37.8869L64.9655 27.5728L54.6306 37.8869L64.9655 48.2011L75.3004 37.8869Z" fill="white"/>
<path fill-rule="evenodd" clip-rule="evenodd" d="M71.4219 46.9165L74.0058 49.495L76.5896 46.9165L74.0058 44.3379L71.4219 46.9165Z" fill="white"/>
<path fill-rule="evenodd" clip-rule="evenodd" d="M58.5 28.8642L55.9161 26.2856L53.3323 28.8642L55.9161 31.4427L58.5 28.8642Z" fill="white"/>
</svg>
