<svg width="208" height="76" viewBox="0 0 208 76" fill="none" xmlns="http://www.w3.org/2000/svg">
<rect width="208" height="76" fill="#25252B"/>
<path d="M59.8072 36.733L55.034 28.1176C54.8204 27.7316 54.5129 27.4113 54.1428 27.1888C53.7726 26.9664 53.3527 26.8497 52.9255 26.8506H43.3887C42.8599 26.8521 42.3408 26.9981 41.883 27.2743C41.4252 27.5504 41.0449 27.9469 40.7798 28.4242L36.0066 37.0396C35.7934 37.4249 35.6812 37.8618 35.6812 38.3066C35.6812 38.7514 35.7934 39.1884 36.0066 39.5736L40.7798 48.2018C41.0451 48.6794 41.4258 49.0762 41.8841 49.3522C42.3423 49.6284 42.862 49.7743 43.3912 49.7754H52.9255C53.351 49.7744 53.7689 49.6569 54.1373 49.4346C54.5056 49.2122 54.8115 48.8928 55.0243 48.5083L59.7975 39.8929C60.0656 39.4137 60.2076 38.8691 60.2093 38.3143C60.211 37.7594 60.0723 37.214 59.8072 36.733ZM37.3621 38.3421L37.9013 37.3767L42.1644 29.6608L44.8365 34.4955C44.9611 34.6989 45.1562 34.8442 45.381 34.9013C45.6059 34.9585 45.8432 34.9229 46.0435 34.8021C46.2438 34.6813 46.3917 34.4845 46.4565 34.2528C46.5213 34.021 46.4978 33.7722 46.3911 33.558L44.2389 29.6608C44.0605 29.3849 43.8225 29.1565 43.544 28.9941C43.2655 28.8317 42.9544 28.7398 42.6357 28.7257H52.2599L47.7344 36.9028C47.6545 37.0467 47.5397 37.1663 47.4016 37.2494C47.2635 37.3326 47.1069 37.3764 46.9474 37.3767H38.9871C38.6588 37.3744 38.3357 37.4625 38.0504 37.632C37.7651 37.8015 37.5277 38.0464 37.3621 38.3421ZM43.7215 47.9027L46.3936 43.0628C46.4589 42.9562 46.503 42.8367 46.523 42.7118C46.5429 42.5868 46.5384 42.459 46.5097 42.3359C46.4809 42.2129 46.4287 42.0971 46.3559 41.9957C46.2831 41.8944 46.1914 41.8094 46.0863 41.746C45.9811 41.6826 45.8648 41.6421 45.7442 41.6269C45.6237 41.6117 45.5014 41.6221 45.3849 41.6576C45.2683 41.693 45.1598 41.7528 45.066 41.8331C44.9722 41.9135 44.8949 42.0129 44.8389 42.1253L42.1669 46.9651L41.6349 47.9331C41.7818 47.6651 41.8657 47.3647 41.8796 47.0563C41.8936 46.748 41.8372 46.4405 41.7151 46.1594L37.8965 39.2492H46.9474C47.1068 39.2497 47.2634 39.2937 47.4014 39.3769C47.5395 39.46 47.6543 39.5794 47.7344 39.7231L51.7546 46.9854C51.9321 47.2574 52.1683 47.4821 52.4443 47.6415C52.7202 47.8008 53.0282 47.8903 53.3433 47.9027H43.7215ZM58.0849 39.2518L53.817 46.9651L49.2818 38.7881C49.2025 38.6438 49.1608 38.4805 49.1608 38.3142C49.1608 38.148 49.2025 37.9846 49.2818 37.8403L53.817 29.6608L54.3489 28.6953C54.171 29.0206 54.0861 29.3922 54.1041 29.7663C54.1221 30.1403 54.2426 30.5011 54.451 30.8061C54.604 31.0291 58.0947 37.3741 58.0947 37.3741H52.7239C52.4855 37.3741 52.2569 37.4729 52.0883 37.6487C51.9198 37.8245 51.8251 38.063 51.8251 38.3117C51.8251 38.5603 51.9198 38.7988 52.0883 38.9746C52.2569 39.1505 52.4855 39.2492 52.7239 39.2492H57.0234H56.9991C57.3275 39.2515 57.6506 39.1634 57.9358 38.9939C58.2212 38.8244 58.4585 38.5795 58.6242 38.2838L58.0825 39.2543L58.0849 39.2518Z" fill="white"/>
<path d="M111.839 33.2288C111.284 33.2163 110.737 33.3655 110.26 33.6595C109.799 33.9562 109.387 34.3274 109.038 34.7593L108.989 34.8201H108.705L108.409 33.4568H105.319C105.204 33.4568 105.092 33.4932 104.998 33.5611C104.904 33.629 104.832 33.7252 104.791 33.8369L104.233 35.3902H107.809C107.809 35.3902 106.689 35.3902 106.689 36.338V41.5174H105.316C105.202 41.5174 105.09 41.5537 104.996 41.6216C104.902 41.6895 104.829 41.7857 104.789 41.8974L104.23 43.4508H112.152C112.267 43.451 112.38 43.4146 112.474 43.3462C112.569 43.2777 112.641 43.1807 112.682 43.0681L113.24 41.5149H108.941V36.8929L108.967 36.8498C109.202 36.4758 109.49 36.1415 109.822 35.859C110.218 35.5446 110.707 35.3849 111.205 35.408C111.362 35.3974 111.519 35.4308 111.66 35.5047C111.801 35.5787 111.921 35.6904 112.006 35.8286C112.167 36.1398 112.246 36.4892 112.237 36.8422H114.232C114.215 35.5574 113.989 34.6275 113.583 34.0777C113.379 33.7999 113.114 33.5776 112.811 33.4298C112.507 33.2819 112.173 33.213 111.839 33.2288Z" fill="white"/>
<path d="M123.975 38.2535C123.482 38.0079 122.968 37.8144 122.439 37.6759L120.872 37.2527C120.457 37.1422 120.051 36.9973 119.658 36.8193C119.272 36.6394 119.075 36.386 119.075 36.0591C119.079 35.8695 119.139 35.686 119.248 35.5342C119.357 35.3823 119.509 35.27 119.682 35.2128C120.133 35.0371 120.612 34.9553 121.094 34.9721C121.414 34.9728 121.735 35.0085 122.049 35.0785C122.359 35.1473 122.665 35.2396 122.964 35.3547C123.251 35.4662 123.53 35.5903 123.79 35.7222C123.994 35.826 124.181 35.9274 124.347 36.0262L125.271 34.4628C125.11 34.3496 124.932 34.2263 124.74 34.0928C124.457 33.9097 124.156 33.7593 123.841 33.6443C123.433 33.4952 123.014 33.3799 122.587 33.2997C122.035 33.1991 121.475 33.1516 120.913 33.1578C120.356 33.154 119.801 33.2221 119.259 33.3605C118.798 33.475 118.36 33.6731 117.965 33.9458C117.621 34.1862 117.334 34.503 117.122 34.8733C116.912 35.2591 116.807 35.697 116.818 36.1402C116.797 36.6511 116.956 37.1522 117.265 37.5491C117.587 37.9337 117.977 38.2495 118.414 38.4791C118.9 38.7362 119.414 38.9327 119.944 39.0644C120.508 39.2088 121.036 39.3508 121.513 39.4902C121.935 39.6067 122.346 39.7628 122.74 39.9564C122.904 40.0164 123.046 40.1258 123.149 40.2708C123.252 40.4158 123.311 40.5895 123.318 40.7698C123.327 40.9626 123.278 41.1533 123.18 41.317C123.082 41.4807 122.939 41.6096 122.77 41.6871C122.148 41.9962 121.239 41.9937 120.372 41.7707C119.976 41.6703 119.588 41.5399 119.211 41.3805C118.868 41.2374 118.538 41.0635 118.225 40.861C118.003 40.7166 117.819 40.5848 117.666 40.4631L116.65 42.1229C117.205 42.5875 117.826 42.9602 118.489 43.2277C119.41 43.5883 120.388 43.7604 121.37 43.7345C122.767 43.7345 123.829 43.4431 124.528 42.8704C124.867 42.5956 125.137 42.2399 125.316 41.8332C125.494 41.4265 125.577 40.981 125.556 40.5342C125.576 40.034 125.418 39.5439 125.112 39.1582C124.794 38.7806 124.407 38.4729 123.975 38.2535Z" fill="white"/>
<path d="M136.623 40.7345C136.417 40.9109 136.197 41.0686 135.965 41.2058C135.706 41.3573 135.431 41.4772 135.146 41.563C134.815 41.661 134.472 41.7088 134.129 41.705C133.803 41.7215 133.477 41.6605 133.178 41.5267C132.878 41.3927 132.611 41.1894 132.399 40.9321C131.993 40.4253 131.787 39.6144 131.787 38.5173V35.3903H136.283L136.973 33.4569H131.789V30.3984L129.947 30.9458C129.83 30.981 129.726 31.0552 129.653 31.1571C129.579 31.2591 129.539 31.3832 129.539 31.5108V33.4645H128.663C128.548 33.4645 128.436 33.5009 128.342 33.5688C128.248 33.6367 128.176 33.7329 128.135 33.8446L127.576 35.398H130.747C130.747 35.398 129.532 35.398 129.532 36.3938V38.5071C129.532 40.329 129.894 41.672 130.61 42.4956C131.327 43.3191 132.404 43.7321 133.829 43.7321C134.238 43.7303 134.645 43.6828 135.044 43.5902C135.451 43.498 135.85 43.3665 136.235 43.1974C136.605 43.0349 136.961 42.8389 137.298 42.6121C137.565 42.4362 137.81 42.2259 138.027 41.9862L137.009 40.3924L136.623 40.7345Z" fill="white"/>
<path d="M148.236 41.3601C148.224 41.1912 148.205 41.0088 148.178 40.8128C148.151 40.4445 148.137 40.1126 148.137 39.8169C148.137 39.4267 148.162 38.9757 148.207 38.4765C148.253 37.9773 148.275 37.392 148.275 36.7027C148.281 36.2164 148.216 35.7321 148.083 35.2659C147.966 34.8652 147.759 34.4995 147.478 34.1992C147.167 33.8817 146.788 33.6448 146.373 33.5074C145.823 33.3273 145.249 33.2417 144.673 33.254C143.857 33.2374 143.04 33.3224 142.244 33.5074C141.672 33.6506 141.113 33.8413 140.57 34.0775L141.085 35.8513C141.482 35.6753 141.888 35.5206 142.299 35.3876C142.902 35.1966 143.529 35.1034 144.158 35.1113C144.643 35.0786 145.126 35.2102 145.535 35.4864C145.865 35.7398 146.021 36.1705 146.021 36.7534V37.1385C146.022 37.2908 146.007 37.4427 145.98 37.5921L145.96 37.7467H145.817C145.434 37.7197 145.11 37.6918 144.845 37.6631C144.588 37.6352 144.342 37.6225 144.117 37.6225C143.517 37.6167 142.918 37.6812 142.331 37.8151C141.854 37.9212 141.399 38.1161 140.987 38.3903C140.635 38.6316 140.348 38.9654 140.157 39.3583C139.956 39.8022 139.858 40.2891 139.87 40.7799C139.853 41.1652 139.917 41.5497 140.057 41.9065C140.198 42.2633 140.412 42.5837 140.684 42.845C141.228 43.3518 141.979 43.6281 142.919 43.6281C143.574 43.662 144.225 43.5097 144.804 43.1871C145.232 42.9257 145.599 42.5661 145.875 42.1355L145.924 42.0569H146.247L146.507 43.4633H148.72C148.852 43.4633 148.979 43.4154 149.08 43.3281C149.181 43.2406 149.25 43.119 149.274 42.9844L149.537 41.5299H148.261L148.236 41.3601ZM146.007 40.4809L145.987 40.5188C145.806 40.848 145.556 41.1316 145.259 41.35C144.808 41.6434 144.28 41.7817 143.75 41.7453C143.205 41.7453 142.819 41.6262 142.569 41.3778C142.443 41.2451 142.345 41.0865 142.28 40.9121C142.216 40.7376 142.186 40.551 142.195 40.3642C142.19 40.1136 142.263 39.868 142.404 39.6649C142.543 39.4728 142.724 39.3175 142.931 39.2113C143.155 39.0923 143.394 39.007 143.64 38.9579C144.182 38.864 144.734 38.8562 145.278 38.9351C145.545 38.9706 145.742 39.001 145.878 39.0289L146.009 39.0568V40.4783L146.007 40.4809Z" fill="white"/>
<path d="M157.339 38.0001L161.194 33.4618H158.592L155.351 37.5693H154.516V29.3213H151.727C151.613 29.3213 151.501 29.3577 151.406 29.4256C151.312 29.4935 151.241 29.5897 151.2 29.7014L150.642 31.2547H153.357C153.357 31.2547 152.266 31.2547 152.266 32.0858V43.4506H154.516V39.1708H155.449L158.849 43.4506H160.735C160.85 43.451 160.962 43.4145 161.057 43.346C161.151 43.2777 161.224 43.1806 161.264 43.068L161.823 41.5147H160.064L157.339 38.0001Z" fill="white"/>
<path d="M88.9489 33.4566C88.8295 33.4566 88.7132 33.496 88.6167 33.5694C88.5203 33.6427 88.4486 33.7461 88.4121 33.8646L86.3691 39.7991H85.9999L83.2742 33.4642H81.2919C81.1774 33.4642 81.0657 33.5006 80.9715 33.5685C80.8774 33.6364 80.8053 33.7326 80.7648 33.8443L80.2061 35.3977H82.973C82.973 35.3977 81.6514 35.3977 82.1543 36.6646L84.9504 43.4506H87.2922L90.9531 33.4541L88.9489 33.4566Z" fill="white"/>
<path d="M77.396 34.0546C76.969 33.7326 76.4865 33.4995 75.9749 33.3679C74.7983 33.0595 73.562 33.1043 72.4087 33.4972C71.8034 33.7051 71.2459 34.0416 70.7713 34.4854C70.2986 34.9453 69.928 35.5075 69.6855 36.1325C69.4036 36.8703 69.2666 37.6596 69.2822 38.4536C69.2701 39.2107 69.3903 39.9637 69.6369 40.6759C69.8563 41.3041 70.2082 41.873 70.6665 42.3404C71.1248 42.808 71.6778 43.1622 72.2848 43.3771C72.9973 43.6286 73.7458 43.7512 74.4979 43.7395C74.9837 43.7395 77.1992 43.6532 78.8973 42.3863L78.5839 40.7341C77.4081 41.5094 76.0468 41.9239 74.6558 41.9302C74.2668 41.9356 73.8785 41.8922 73.4995 41.801C73.1483 41.7145 72.815 41.5626 72.5156 41.3524C72.2248 41.1457 71.9837 40.8716 71.8111 40.5517C71.6227 40.1836 71.5234 39.773 71.522 39.3557V39.1809H78.6738C78.7819 38.6039 78.8389 38.0178 78.8438 37.4299C78.8684 36.7157 78.7285 36.0058 78.4357 35.3596C78.1915 34.846 77.8354 34.3991 77.396 34.0546ZM76.7838 37.549H71.5682L71.5828 37.3665C71.6071 37.0093 71.7092 36.6627 71.8816 36.353C72.0462 36.0564 72.2669 35.7978 72.5302 35.5928C72.7937 35.3892 73.0887 35.2341 73.4023 35.1341C73.733 35.0296 74.077 34.9774 74.4225 34.9796C75.2048 34.9796 75.8024 35.2 76.1959 35.6333C76.6046 36.113 76.8166 36.7408 76.7862 37.3818L76.7838 37.549Z" fill="white"/>
<path d="M100.461 34.0546C100.034 33.7326 99.551 33.4995 99.0394 33.3679C97.8628 33.0595 96.6266 33.1043 95.4733 33.4972C94.8679 33.7051 94.3105 34.0416 93.836 34.4854C93.3591 34.9433 92.9843 35.5046 92.7379 36.13C92.4561 36.8677 92.319 37.6571 92.3347 38.451C92.3225 39.2082 92.4428 39.9612 92.6894 40.6733C92.9098 41.3027 93.2631 41.8722 93.7231 42.3397C94.1832 42.8074 94.7382 43.161 95.347 43.3746C96.0594 43.626 96.8079 43.7486 97.56 43.7369C98.0459 43.7369 100.261 43.6508 101.959 42.3837L101.653 40.7367C100.477 41.512 99.1162 41.9265 97.7252 41.9327C97.335 41.9349 96.9459 41.8882 96.5664 41.7933C96.2153 41.7068 95.882 41.5549 95.5826 41.3449C95.2898 41.1355 95.0478 40.8579 94.8757 40.534C94.6872 40.1659 94.588 39.7553 94.5866 39.338V39.1631H101.751C101.859 38.5861 101.916 38 101.921 37.4122C101.942 36.7001 101.801 35.9929 101.508 35.3495C101.26 34.8387 100.901 34.3953 100.461 34.0546ZM99.8484 37.549H94.6327L94.6473 37.3665C94.6716 37.0093 94.7739 36.6627 94.9461 36.353C95.1109 36.0564 95.3315 35.7978 95.5947 35.5928C95.8583 35.3892 96.1533 35.2341 96.4669 35.1341C96.7976 35.0296 97.1416 34.9774 97.4872 34.9796C98.2694 34.9796 98.867 35.2 99.2605 35.6333C99.6692 36.113 99.8811 36.7408 99.8508 37.3818L99.8484 37.549Z" fill="white"/>
<path d="M171.355 34.0546C170.928 33.7326 170.445 33.4995 169.934 33.3679C168.757 33.0595 167.521 33.1043 166.368 33.4972C165.762 33.7051 165.205 34.0416 164.73 34.4854C164.253 34.9433 163.879 35.5046 163.632 36.13C163.35 36.8677 163.213 37.6571 163.229 38.4511C163.216 39.2082 163.337 39.9612 163.583 40.6733C163.804 41.3034 164.157 41.8736 164.618 42.3416C165.079 42.8097 165.634 43.1636 166.244 43.3771C166.956 43.6286 167.705 43.7512 168.457 43.7395C168.943 43.7395 171.158 43.6532 172.856 42.3863L172.542 40.7341C171.367 41.5094 170.005 41.9239 168.614 41.9302C168.225 41.9324 167.835 41.8857 167.456 41.7908C167.105 41.7044 166.772 41.5524 166.472 41.3423C166.181 41.1356 165.94 40.8615 165.768 40.5416C165.579 40.1735 165.48 39.7628 165.478 39.3455V39.1708H172.648C172.755 38.5938 172.812 38.0076 172.818 37.4197C172.842 36.7055 172.702 35.9956 172.409 35.3495C172.16 34.8379 171.799 34.3944 171.355 34.0546ZM170.737 37.549H165.527L165.541 37.3665C165.566 37.0093 165.668 36.6627 165.84 36.353C166.005 36.0564 166.225 35.7978 166.489 35.5928C166.752 35.3892 167.048 35.2341 167.361 35.1341C167.692 35.0296 168.035 34.9774 168.381 34.9796C169.164 34.9796 169.761 35.2 170.155 35.6333C170.563 36.113 170.775 36.7408 170.745 37.3818L170.737 37.549Z" fill="white"/>
</svg>
