<svg width="76" height="20" viewBox="0 0 76 20" fill="none" xmlns="http://www.w3.org/2000/svg">
<path d="M3.38334 3.29678V7.02489H9.89178V9.31976H3.38334V14.911H0.774414V1H10.6784V3.29485H3.38334V3.29678Z" fill="white" stroke="white" stroke-width="0.179017" stroke-miterlimit="10"/>
<path d="M12.5985 14.9111V4.70898H15.1659V14.9111H12.5985Z" fill="white" stroke="white" stroke-width="0.179017" stroke-miterlimit="10"/>
<path d="M27.1909 16.2653C27.1909 16.933 27.0368 17.4875 26.7265 17.9327C26.4162 18.3778 26.0189 18.727 25.5347 18.9822C25.0504 19.2374 24.503 19.4178 23.8982 19.5214C23.2914 19.627 22.6984 19.6788 22.1194 19.6788C21.473 19.6788 20.8287 19.6327 20.1903 19.5406C19.55 19.4485 18.955 19.2144 18.4016 18.8345C17.9984 18.5601 17.6842 18.2397 17.4628 17.8732C17.2415 17.5067 17.1288 17.0827 17.1288 16.5972C17.1288 16.1521 17.2375 15.7434 17.453 15.3711C17.6684 14.9989 17.9787 14.7149 18.3819 14.5173C18.0459 14.335 17.785 14.0817 17.6032 13.7613C17.4213 13.4408 17.3304 13.1108 17.3304 12.7693C17.3304 11.8924 17.7474 11.2074 18.5835 10.7085C18.2593 10.3939 18.0043 10.0293 17.8166 9.6091C17.6268 9.1908 17.534 8.7207 17.534 8.1969C17.534 7.5944 17.6486 7.05903 17.8779 6.58705C18.1071 6.11502 18.4174 5.72362 18.8088 5.40895C19.2001 5.09422 19.6547 4.85633 20.1725 4.69323C20.6904 4.53013 21.2458 4.44762 21.8387 4.44762C22.2695 4.44762 22.6886 4.50329 23.0918 4.61458C23.4949 4.72586 23.8724 4.87937 24.2243 5.07504C24.4535 4.6299 24.7559 4.30757 25.1334 4.10418C25.5109 3.90079 25.9221 3.80103 26.3667 3.80103C26.4478 3.80103 26.5624 3.80103 26.7107 3.80103C26.8589 3.80103 26.9735 3.81442 27.0545 3.83939V5.7428L26.853 5.72362C26.5565 5.72362 26.2897 5.76964 26.0545 5.86175C25.8193 5.95385 25.6592 6.12461 25.5801 6.37214C25.9438 6.94775 26.1256 7.56177 26.1256 8.21608C26.1256 8.80514 26.007 9.32893 25.7719 9.78564C25.5367 10.2442 25.2224 10.6299 24.833 10.9426C24.4417 11.2573 23.9871 11.4991 23.4693 11.6679C22.9494 11.8387 22.4079 11.9231 21.8426 11.9231C21.2497 11.9231 20.6844 11.831 20.1448 11.6487C20.0243 11.714 19.9057 11.8099 19.7911 11.9327C19.6765 12.0574 19.6191 12.2052 19.6191 12.374C19.6191 12.6753 19.7437 12.8748 19.9927 12.9727C20.2417 13.0705 20.5006 13.1204 20.7714 13.1204H22.5087C22.7637 13.1204 23.0404 13.1242 23.3369 13.13C23.6333 13.1377 23.9337 13.1627 24.2361 13.2087C24.5385 13.2548 24.835 13.3238 25.1255 13.414C25.4161 13.5061 25.6809 13.6366 25.924 13.8054C26.3825 14.1067 26.7087 14.4674 26.9043 14.8838C27.0941 15.3097 27.1909 15.7683 27.1909 16.2653ZM24.8073 16.3248C24.8073 16.0101 24.7203 15.7683 24.5444 15.5994C24.3686 15.4287 24.1571 15.3059 23.908 15.2272C23.659 15.1486 23.3883 15.1025 23.0997 15.091C22.8091 15.0776 22.5443 15.0718 22.3012 15.0718H20.3208C20.05 15.1504 19.8247 15.2982 19.6428 15.5131C19.461 15.7299 19.3701 16.0005 19.3701 16.3267C19.3701 16.6529 19.461 16.9081 19.6428 17.0923C19.8247 17.2746 20.05 17.4165 20.3208 17.5144C20.5896 17.6123 20.8801 17.6737 21.1904 17.7005C21.5007 17.7274 21.7774 17.7389 22.0185 17.7389C22.2735 17.7389 22.564 17.7293 22.8882 17.7101C23.2123 17.6909 23.5147 17.6353 23.7973 17.5432C24.08 17.451 24.3192 17.311 24.5148 17.1211C24.7085 16.9292 24.8073 16.6644 24.8073 16.3248ZM23.6946 8.20071C23.6946 7.65194 23.5286 7.19722 23.1985 6.83646C22.8684 6.47577 22.4139 6.29729 21.8347 6.29729C21.2557 6.29729 20.801 6.4777 20.471 6.83646C20.1409 7.19529 19.9749 7.65001 19.9749 8.20071C19.9749 8.74947 20.1389 9.20232 20.471 9.55536C20.801 9.90839 21.2557 10.0849 21.8347 10.0849C22.4139 10.0849 22.8684 9.90839 23.1985 9.55536C23.5305 9.20232 23.6946 8.7514 23.6946 8.20071Z" fill="white" stroke="white" stroke-width="0.179017" stroke-miterlimit="10"/>
<path d="M41.0562 14.9112V8.5735C41.0562 7.94603 40.9455 7.45867 40.7222 7.11137C40.5008 6.766 40.0719 6.59138 39.4394 6.59138C39.0758 6.59138 38.7655 6.6739 38.5105 6.83699C38.2556 7.00009 38.0421 7.21692 37.8741 7.48364C37.7061 7.75224 37.5816 8.04966 37.5006 8.37585C37.4196 8.70397 37.38 9.02245 37.38 9.33712V14.9092H34.8739V8.5735C34.8739 7.94603 34.7632 7.45867 34.5398 7.11137C34.3185 6.766 33.8896 6.59138 33.2571 6.59138C32.8935 6.59138 32.5831 6.6739 32.3282 6.83699C32.0732 7.00009 31.8558 7.21692 31.6819 7.48364C31.506 7.75224 31.3795 8.04966 31.2984 8.37585C31.2174 8.70397 31.1779 9.02245 31.1779 9.33712V14.9092H28.6718V4.70908H30.7727L30.9743 6.06373C31.2708 5.59362 31.668 5.20796 32.1661 4.90674C32.6642 4.60546 33.265 4.45581 33.9647 4.45581C34.7058 4.45581 35.3264 4.60358 35.8245 4.89715C36.3226 5.19071 36.708 5.60134 36.9768 6.1232C37.2871 5.58789 37.714 5.17533 38.2595 4.88756C38.805 4.59973 39.4355 4.45581 40.149 4.45581C41.2815 4.45581 42.1334 4.78586 42.7066 5.44784C43.2797 6.10981 43.5663 6.96746 43.5663 8.02855V14.915H41.0562V14.9112Z" fill="white" stroke="white" stroke-width="0.179017" stroke-miterlimit="10"/>
<path d="M55.0386 9.89009C55.0248 9.98219 55.0188 10.0666 55.0188 10.1453V10.577H47.9866C47.9866 10.9704 48.0498 11.3426 48.1783 11.6956C48.3068 12.0487 48.5005 12.3423 48.7535 12.5783C48.9432 12.749 49.1626 12.8948 49.4117 13.0196C49.6607 13.1443 49.9591 13.2057 50.3109 13.2057C50.6746 13.2057 50.975 13.1692 51.2102 13.0982C51.4454 13.0272 51.6589 12.8987 51.8466 12.7164C52.0877 12.4804 52.2577 12.1926 52.3526 11.853H54.7777C54.7501 12.1542 54.6453 12.4842 54.4635 12.8449C54.2816 13.2057 54.0899 13.5012 53.8883 13.7372C53.4436 14.2476 52.912 14.6141 52.2914 14.8367C51.6708 15.0592 51.0244 15.1705 50.3524 15.1705C49.6231 15.1705 48.9946 15.0554 48.4629 14.8271C47.9293 14.5987 47.455 14.2936 47.0379 13.9156C46.5122 13.4187 46.111 12.8238 45.8343 12.1312C45.5576 11.4385 45.4192 10.6729 45.4192 9.83635C45.4192 9.0132 45.5437 8.24953 45.7927 7.55107C46.0418 6.85073 46.4233 6.25402 46.9332 5.75514C47.3245 5.36369 47.7988 5.04901 48.3582 4.81305C48.9176 4.57703 49.5599 4.45996 50.2892 4.45996C51.0719 4.45996 51.7972 4.61347 52.4732 4.92048C53.1452 5.22749 53.6986 5.7014 54.1314 6.34226C54.5208 6.90447 54.7698 7.4782 54.8785 8.0596C54.9833 8.63713 55.0386 9.24922 55.0386 9.89009ZM52.5127 8.79063C52.4969 8.04615 52.2814 7.44938 51.8644 7.00617C51.6905 6.82389 51.4711 6.67997 51.2082 6.57442C50.9454 6.47086 50.6331 6.41711 50.2675 6.41711C49.8781 6.41711 49.5342 6.49004 49.2358 6.63395C48.9413 6.77781 48.6962 6.96781 48.5084 7.20382C48.3187 7.42639 48.1842 7.66241 48.1032 7.90989C48.0242 8.15743 47.9748 8.45292 47.9629 8.79256H52.5127V8.79063Z" fill="white" stroke="white" stroke-width="0.179017" stroke-miterlimit="10"/>
<path d="M63.4279 14.9108V8.65181C63.4279 8.05124 63.3052 7.57926 63.0644 7.23962C62.8213 6.89998 62.3646 6.72922 61.6908 6.72922C61.2459 6.72922 60.8742 6.85009 60.578 7.09184C60.2812 7.33365 60.0463 7.64446 59.8705 8.0244C59.6947 8.40433 59.5938 8.84561 59.5678 9.34835C59.5401 9.85296 59.5265 10.3192 59.5265 10.751V14.9108H57.0005V4.70879H59.1229L59.3053 6.02315C59.6156 5.48778 60.0564 5.0906 60.6293 4.8354C61.2022 4.5802 61.7917 4.45166 62.3965 4.45166C62.9635 4.45166 63.4656 4.54376 63.9023 4.72604C64.3389 4.91025 64.7106 5.16159 65.0151 5.48205C65.3172 5.80245 65.5509 6.18812 65.7125 6.63904C65.8748 7.08997 65.9556 7.57733 65.9556 8.10112V14.9089H63.4279V14.9108Z" fill="white" stroke="white" stroke-width="0.179017" stroke-miterlimit="10"/>
<path d="M74.4815 14.7744C73.754 14.9567 73.0324 15.0488 72.319 15.0488C71.254 15.0488 70.4592 14.7705 69.9335 14.2141C69.4077 13.6577 69.1452 12.8902 69.1452 11.9097V6.72906H67.224V4.70858H69.1452V2.11828L71.6711 1.51001V4.70858H74.3193V6.72906H71.6711V11.6929C71.6711 12.0862 71.7638 12.3702 71.9538 12.5467C72.1432 12.7233 72.44 12.8115 72.843 12.8115C73.1114 12.8115 73.3646 12.8058 73.6 12.7923C73.8348 12.7789 74.1275 12.754 74.4792 12.7137V14.7744H74.4815Z" fill="white" stroke="white" stroke-width="0.179017" stroke-miterlimit="10"/>
<path fill-rule="evenodd" clip-rule="evenodd" d="M15.3775 2.44646C15.3775 1.6828 14.7412 1.01123 13.8794 1.01123C12.9999 1.01123 12.3812 1.6828 12.3812 2.44646C12.3812 3.24656 12.9999 3.84526 13.8794 3.84526C14.7412 3.84526 15.3775 3.24656 15.3775 2.44646Z" fill="white"/>
</svg>
