<svg width="207" height="76" viewBox="0 0 207 76" fill="none" xmlns="http://www.w3.org/2000/svg">
<rect width="207" height="76" fill="#25252B"/>
<g clip-path="url(#clip0_308_204)">
<path fill-rule="evenodd" clip-rule="evenodd" d="M74.0663 23.7114C70.1976 23.7114 66.7275 25.6396 64.363 28.6915C66.9938 29.2169 69.4515 30.5318 71.4792 32.4987C72.8941 33.8134 74.1477 35.3356 75.2066 37.025L75.8073 38.0394C75.8528 38.1174 75.8772 38.2088 75.8772 38.3023C75.8772 38.3958 75.8528 38.4871 75.8073 38.5651L75.2104 39.5796C74.1538 41.2706 72.9004 42.7928 71.4841 44.1053C69.458 46.0764 66.9992 47.3929 64.3668 47.9161C66.7307 50.9656 70.1997 52.8913 74.0668 52.8913C81.19 52.8913 86.9643 46.3595 86.9643 38.301C86.9643 30.2439 81.1895 23.7114 74.0663 23.7114Z" fill="white"/>
<path fill-rule="evenodd" clip-rule="evenodd" d="M69.146 38.48C69.129 38.6805 69.0769 38.8752 68.9926 39.0526C68.9082 39.23 68.7933 39.3866 68.6547 39.5131C68.5161 39.6396 68.3565 39.7336 68.1854 39.7894C68.0142 39.8453 67.8349 39.862 67.658 39.8384C67.481 39.8148 67.3101 39.7516 67.1551 39.6522C67.0001 39.553 66.8643 39.4197 66.7554 39.2602C66.6466 39.1007 66.567 38.9182 66.5215 38.7235C66.4758 38.5288 66.4651 38.3258 66.4898 38.1263C66.5383 37.7348 66.7205 37.3803 66.9974 37.1388C67.2742 36.8974 67.6236 36.788 67.9709 36.8342C68.3181 36.8805 68.6356 37.0786 68.8552 37.3862C69.0749 37.6938 69.1792 38.0865 69.146 38.48ZM72.6695 38.0495C71.1842 35.9365 67.74 31.9174 62.8403 31.5324L62.6448 31.5195C61.6723 33.611 61.1657 35.9391 61.1687 38.302C61.1687 40.7483 61.7015 43.0529 62.6421 45.0782C62.71 45.0739 62.7778 45.0695 62.8452 45.064C67.7395 44.6882 71.1815 40.679 72.6695 38.566C72.7204 38.4922 72.748 38.4013 72.748 38.3078C72.748 38.2142 72.7204 38.1233 72.6695 38.0495Z" fill="white"/>
<path fill-rule="evenodd" clip-rule="evenodd" d="M62.6421 45.078C58.39 45.3217 54.2193 42.7893 51.1891 38.5184C51.1452 38.4575 51.1212 38.3813 51.1212 38.3026C51.1212 38.224 51.1452 38.1478 51.1891 38.0868C54.2214 33.8141 58.3954 31.2811 62.6449 31.5193C63.1174 30.5035 63.694 29.5548 64.363 28.6915C63.9101 28.6006 63.4539 28.5328 62.9955 28.4895C59.0113 28.286 55.1115 29.8304 52.1101 32.8003C51.2021 33.656 50.3637 34.6019 49.605 35.6269C49.5937 35.6395 49.58 35.6492 49.565 35.6552C49.55 35.6612 49.534 35.6634 49.5181 35.6617C49.5022 35.6599 49.4869 35.6542 49.4732 35.645C49.4595 35.6358 49.4478 35.6234 49.4388 35.6084C48.5779 33.8971 47.9029 32.0744 47.4285 30.18L47.423 30.1518C47.3553 29.9556 47.2523 29.7775 47.1205 29.6288C46.9887 29.4801 46.8309 29.3639 46.6573 29.2878C46.5119 29.2197 46.3553 29.187 46.198 29.1919C46.0406 29.1968 45.8859 29.2391 45.7439 29.316C45.4756 29.4805 45.2613 29.7382 45.1326 30.051C45.0039 30.3639 44.9677 30.7153 45.0293 31.0532L45.0347 31.0717C45.6455 33.5515 46.566 35.92 47.7684 38.1058C47.7997 38.162 47.8162 38.227 47.8162 38.2934C47.8162 38.3598 47.7997 38.4248 47.7684 38.481C46.5668 40.6747 45.6445 43.0489 45.0287 45.5335L45.0233 45.5618V45.5901C45.0225 45.8964 45.0997 46.1964 45.2456 46.4545C45.3914 46.7125 45.5999 46.9177 45.846 47.0455C45.9964 47.1204 46.1583 47.1621 46.3228 47.1676C46.5376 47.162 46.748 47.0977 46.936 46.9799C47.1239 46.8621 47.2838 46.6945 47.4018 46.4916L47.4176 46.4633L47.4274 46.4351C47.9033 44.5345 48.5801 42.7057 49.4432 40.9883C49.4521 40.9734 49.4639 40.9609 49.4776 40.9516C49.4913 40.9424 49.5066 40.9368 49.5224 40.935C49.5383 40.9333 49.5543 40.9354 49.5693 40.9415C49.5843 40.9475 49.598 40.9572 49.6093 40.9699C50.3697 41.9977 51.2096 42.9468 52.1193 43.8056C54.894 46.5262 58.4225 48.0642 62.0941 48.1532C62.3939 48.1532 62.699 48.144 62.9999 48.1164C63.4578 48.0738 63.9138 48.0072 64.3662 47.9167C63.6945 47.0506 63.1159 46.0977 62.6421 45.078ZM144.655 32.3514C145.031 32.3514 145.342 32.2286 145.578 31.9873C145.817 31.7428 145.94 31.4192 145.94 31.025C145.94 30.6314 145.817 30.3102 145.577 30.0707C145.341 29.8362 145.031 29.717 144.656 29.717C144.27 29.717 143.956 29.8368 143.725 30.072C143.491 30.3102 143.372 30.6308 143.372 31.025C143.372 31.4186 143.491 31.7422 143.724 31.9867C143.955 32.2286 144.268 32.3514 144.655 32.3514Z" fill="white"/>
<path fill-rule="evenodd" clip-rule="evenodd" d="M144.751 33.8962H140.231V33.6015C140.231 33.0685 140.335 32.662 140.541 32.3905C140.743 32.1228 141.079 31.9637 141.537 31.9183L141.887 31.8827C142.134 31.8556 142.333 31.7593 142.478 31.5959C142.624 31.4289 142.699 31.195 142.699 30.899C142.699 30.4753 142.535 29.9693 141.749 29.9693C141.667 29.9668 141.584 29.973 141.502 29.9877L141.136 30.0233C140.157 30.1222 139.387 30.5146 138.846 31.1882C138.309 31.8569 138.035 32.7676 138.03 33.8962H137.339C136.515 33.8962 136.342 34.4212 136.342 34.8622C136.342 35.3025 136.515 35.8281 137.339 35.8281H138.03V41.8509C138.03 42.2347 138.139 42.5325 138.355 42.7351C138.564 42.9328 138.828 43.0336 139.138 43.0336C139.45 43.0336 139.711 42.9328 139.916 42.7345C140.125 42.5313 140.231 42.234 140.231 41.8509V35.8281H143.547V41.8509C143.547 42.234 143.655 42.5344 143.87 42.7431C144.08 42.9476 144.345 43.0514 144.656 43.0514C144.967 43.0514 145.229 42.947 145.433 42.7419C145.642 42.5331 145.748 42.2334 145.748 41.8515V34.8616C145.748 34.4206 145.575 33.8962 144.751 33.8962ZM153.655 38.9604C153.47 38.6178 153.163 38.3298 152.742 38.1045C152.333 37.8858 151.762 37.6887 151.046 37.5192C150.392 37.3669 149.948 37.2141 149.725 37.0648C149.524 36.931 149.426 36.7406 149.426 36.4833C149.426 36.2094 149.524 36 149.724 35.8422C149.933 35.677 150.226 35.5936 150.595 35.5936C150.91 35.5936 151.177 35.6365 151.388 35.7219C151.604 35.809 151.867 35.9429 152.168 36.1186C152.339 36.2278 152.485 36.312 152.6 36.3678C152.723 36.4281 152.853 36.4582 152.983 36.4582C153.185 36.4582 153.358 36.3617 153.495 36.1714C153.627 35.9884 153.694 35.7599 153.694 35.4922C153.694 35.0543 153.506 34.6988 153.136 34.4379C152.799 34.1922 152.415 34.0018 151.992 33.8729C151.562 33.7436 151.119 33.6787 150.674 33.6801C150.047 33.6801 149.478 33.801 148.985 34.0405C148.487 34.2819 148.089 34.6288 147.802 35.071C147.517 35.5051 147.365 36.0322 147.368 36.5729C147.368 37.303 147.587 37.8852 148.018 38.3028C148.438 38.7106 149.138 39.0286 150.095 39.2472C150.618 39.378 151.013 39.4947 151.269 39.5954C151.511 39.6899 151.679 39.7919 151.768 39.8975C151.851 39.9958 151.891 40.1278 151.891 40.3022C151.891 40.5595 151.785 40.7554 151.568 40.9021C151.336 41.0581 151.003 41.1373 150.579 41.1373C150.156 41.1373 149.804 41.0907 149.535 40.9985C149.222 40.8881 148.917 40.7527 148.622 40.5933C148.285 40.3894 148.024 40.2905 147.824 40.2905C147.624 40.2905 147.452 40.3802 147.315 40.5564C147.181 40.7284 147.114 40.9512 147.114 41.2209C147.114 41.6838 147.302 42.0449 147.673 42.2955C148.398 42.8205 149.359 43.0876 150.531 43.0876C151.547 43.0876 152.375 42.8315 152.99 42.3262C153.616 41.8122 153.933 41.1189 153.933 40.2659C153.933 39.7415 153.839 39.3025 153.655 38.9604Z" fill="white"/>
<path fill-rule="evenodd" clip-rule="evenodd" d="M159.921 33.6798C159.345 33.6798 158.823 33.8088 158.37 34.0617C158.02 34.2554 157.71 34.5321 157.463 34.8729V31.043C157.463 30.6966 157.36 30.4178 157.156 30.2152C156.957 30.0162 156.691 29.9155 156.37 29.9155C156.047 29.9155 155.779 30.0224 155.574 30.2348C155.366 30.4498 155.261 30.7335 155.261 31.0792V41.8512C155.261 42.2196 155.36 42.5143 155.556 42.7293C155.751 42.943 156.019 43.0511 156.354 43.0511C156.687 43.0511 156.958 42.9436 157.159 42.7305C157.36 42.5156 157.463 42.2202 157.463 41.8512V37.8339C157.463 37.1849 157.627 36.6611 157.95 36.2772C158.274 35.8953 158.711 35.7019 159.252 35.7019C159.706 35.7019 160.041 35.837 160.248 36.1023C160.457 36.3731 160.564 36.8164 160.564 37.4201V41.8512C160.564 42.2202 160.666 42.5162 160.869 42.7305C161.068 42.9436 161.338 43.0511 161.673 43.0511C162.008 43.0511 162.276 42.943 162.471 42.7293C162.666 42.5143 162.765 42.2196 162.765 41.8512V37.4201C162.765 34.9386 161.809 33.6798 159.921 33.6798Z" fill="white"/>
<path fill-rule="evenodd" clip-rule="evenodd" d="M96.9693 38.9608C96.7841 38.6181 96.4767 38.3301 96.0565 38.1048C95.6475 37.8861 95.0773 37.6891 94.3605 37.5195C93.7066 37.3673 93.2619 37.2144 93.0392 37.0651C92.8383 36.9313 92.7406 36.7409 92.7406 36.4836C92.7406 36.2097 92.8383 36.0003 93.0382 35.8425C93.2472 35.6773 93.5405 35.5939 93.9092 35.5939C94.2253 35.5939 94.4914 35.6368 94.702 35.7222C94.9182 35.8093 95.1821 35.9432 95.4819 36.1188C95.6535 36.2281 95.799 36.3123 95.9142 36.3682C96.038 36.4284 96.1673 36.4584 96.2981 36.4584C96.5001 36.4584 96.6723 36.362 96.8096 36.1717C96.9416 35.9887 97.0084 35.7602 97.0084 35.4925C97.0084 35.0546 96.82 34.6991 96.4507 34.4382C96.0973 34.1839 95.7111 33.9933 95.3059 33.8732C94.8764 33.7439 94.4336 33.679 93.9891 33.6804C93.3613 33.6804 92.7933 33.8014 92.2991 34.0409C91.8011 34.2822 91.4036 34.6291 91.1174 35.0713C90.8291 35.5159 90.6829 36.0218 90.6829 36.5732C90.6829 37.3033 90.9013 37.8855 91.3324 38.3031C91.7528 38.7109 92.4522 39.0289 93.4091 39.2475C93.9326 39.3783 94.3273 39.495 94.5832 39.5957C94.8253 39.6902 94.9937 39.7922 95.0828 39.8978C95.1653 39.9961 95.2049 40.1281 95.2049 40.3025C95.2049 40.5598 95.0996 40.7556 94.8824 40.9024C94.651 41.0584 94.3176 41.1376 93.8935 41.1376C93.4699 41.1376 93.1185 41.091 92.8492 40.9988C92.5369 40.8884 92.2321 40.753 91.9368 40.5936C91.5991 40.3896 91.3384 40.2908 91.1386 40.2908C90.9376 40.2908 90.7666 40.3805 90.6292 40.5567C90.4956 40.7287 90.4282 40.9516 90.4282 41.2212C90.4282 41.6841 90.6161 42.0452 90.9876 42.2958C91.7126 42.8208 92.6738 43.0879 93.8457 43.0879C94.8612 43.0879 95.6888 42.8318 96.3041 42.3264C96.9297 41.8125 97.2474 41.1192 97.2474 40.2662C97.2474 39.7418 97.1534 39.3028 96.9693 38.9608ZM102.936 41.1376L102.506 41.102C101.844 41.0467 101.521 40.6206 101.521 39.7977V35.8284H102.769C103.08 35.8284 103.325 35.7461 103.497 35.5846C103.676 35.4176 103.767 35.1745 103.767 34.8625C103.767 34.5505 103.676 34.3074 103.497 34.1397C103.325 33.9782 103.079 33.8965 102.77 33.8965H101.521V32.3577C101.521 32.0015 101.419 31.7111 101.217 31.4961C101.017 31.2837 100.752 31.1756 100.429 31.1756C100.095 31.1756 99.8236 31.2837 99.6238 31.4961C99.4223 31.7111 99.3196 32.0009 99.3196 32.3577V33.8959H98.6289C98.3188 33.8959 98.0739 33.9776 97.9012 34.1391C97.722 34.3068 97.6319 34.5499 97.6319 34.8619C97.6319 35.1738 97.7226 35.4169 97.9012 35.584C98.0734 35.7455 98.3183 35.8278 98.6289 35.8278H99.3196V39.635C99.3196 41.7167 100.253 42.8478 102.092 42.9964L102.525 43.0332C102.578 43.0357 102.629 43.0375 102.68 43.0375C103.01 43.0375 103.276 42.9663 103.471 42.8251C103.709 42.6525 103.83 42.3971 103.83 42.0667C103.83 41.6707 103.675 41.188 102.936 41.1376ZM109.549 38.9263V39.1855C109.549 39.7872 109.39 40.2846 109.076 40.6617C108.76 41.0424 108.36 41.2278 107.855 41.2278C107.529 41.2278 107.263 41.1174 107.042 40.8895C106.825 40.6648 106.719 40.3848 106.719 40.0323C106.719 39.7517 106.791 39.5386 106.94 39.3802C107.093 39.218 107.358 39.1008 107.729 39.0326C108.114 38.962 108.666 38.9263 109.368 38.9263H109.549ZM110.836 34.6254C110.293 33.9984 109.456 33.6798 108.349 33.6798C107.844 33.6798 107.324 33.7473 106.804 33.8812C106.283 34.0151 105.826 34.2011 105.447 34.4339C105.221 34.5745 105.056 34.7286 104.958 34.8944C104.854 35.0715 104.8 35.2801 104.804 35.4925C104.804 35.7744 104.874 36.0071 105.014 36.1839C105.155 36.3663 105.34 36.4584 105.562 36.4584C105.708 36.4584 105.921 36.378 106.205 36.2165C106.636 36.0261 107.014 35.8788 107.326 35.7787C107.622 35.682 107.929 35.6319 108.237 35.63C108.704 35.63 109.042 35.7534 109.243 35.9972C109.446 36.2435 109.549 36.6494 109.549 37.2039V37.4987H109.256C108.097 37.4987 107.173 37.5846 106.51 37.7541C105.833 37.9272 105.335 38.2122 105.029 38.6015C104.721 38.9946 104.565 39.5367 104.565 40.2122C104.565 40.7502 104.694 41.2451 104.948 41.6829C105.202 42.1189 105.553 42.4665 105.993 42.7146C106.43 42.962 106.923 43.0872 107.457 43.0872C107.983 43.0872 108.454 42.9485 108.857 42.674C109.133 42.4881 109.37 42.2359 109.55 41.9353C109.562 42.2503 109.661 42.5113 109.843 42.7121C110.038 42.9252 110.291 43.0332 110.594 43.0332C110.918 43.0332 111.179 42.9282 111.368 42.72C111.558 42.5119 111.655 42.2257 111.655 41.8696V37.4741C111.655 36.211 111.379 35.2524 110.836 34.6254ZM120.569 40.9878L117.884 38.265L120.302 35.721C120.524 35.471 120.636 35.1879 120.636 34.8803C120.636 34.5732 120.535 34.3018 120.334 34.0758C120.242 33.9672 120.132 33.8809 120.009 33.8222C119.887 33.7636 119.756 33.7337 119.623 33.7345C119.35 33.7345 119.106 33.8548 118.897 34.0912L115.668 37.5913V31.0976C115.668 30.7138 115.559 30.416 115.343 30.2134C115.133 30.0156 114.869 29.9155 114.559 29.9155C114.248 29.9155 113.986 30.0156 113.782 30.214C113.573 30.4166 113.466 30.7144 113.466 31.0976V41.8512C113.466 42.2343 113.573 42.5316 113.781 42.7348C113.986 42.9331 114.248 43.0332 114.559 43.0332C114.869 43.0332 115.133 42.9331 115.343 42.7354C115.559 42.5328 115.668 42.235 115.668 41.8512V39.04L119.215 42.6765C119.436 42.9135 119.681 43.0332 119.941 43.0332C120.205 43.0332 120.437 42.9117 120.632 42.6709C120.824 42.4327 120.922 42.157 120.922 41.8512C120.922 41.5306 120.804 41.2408 120.569 40.9878ZM127.172 37.4993H123.802C123.874 36.8723 124.055 36.3829 124.342 36.0439C124.643 35.6853 125.054 35.5035 125.563 35.5035C126.067 35.5035 126.447 35.6767 126.726 36.0317C126.988 36.3657 127.138 36.8588 127.172 37.4993ZM128.318 40.2908C128.15 40.2908 127.905 40.3897 127.574 40.5899C127.25 40.7557 126.956 40.8871 126.7 40.9817C126.453 41.0737 126.161 41.1198 125.834 41.1198C125.197 41.1198 124.707 40.9344 124.379 40.5684C124.067 40.2208 123.873 39.6749 123.8 38.9448H128.381C128.706 38.9448 129.092 38.7895 129.092 38.0507C129.092 37.1707 128.944 36.3952 128.65 35.7449C128.356 35.0915 127.935 34.5781 127.4 34.2189C126.866 33.8616 126.231 33.6804 125.515 33.6804C124.767 33.6804 124.087 33.88 123.495 34.273C122.901 34.6676 122.421 35.247 122.11 35.942C121.785 36.6525 121.62 37.4772 121.62 38.3928C121.62 39.8358 122 40.9921 122.75 41.8285C123.5 42.6636 124.526 43.0872 125.802 43.0872C126.222 43.0872 126.671 43.0167 127.135 42.8761C127.571 42.7484 127.991 42.5601 128.386 42.3154C128.812 42.0415 129.029 41.6915 129.029 41.2752C129.029 40.9841 128.964 40.7471 128.839 40.569C128.777 40.4798 128.698 40.4083 128.607 40.36C128.517 40.3117 128.418 40.288 128.318 40.2908ZM133.197 36.8005C133.549 36.8477 133.87 37.0512 134.09 37.3663C134.31 37.6814 134.409 38.0822 134.367 38.4805C134.326 38.8789 134.146 39.2422 133.867 39.4905C133.588 39.7387 133.234 39.8517 132.882 39.8045C132.529 39.7573 132.209 39.5537 131.989 39.2386C131.769 38.9236 131.669 38.5227 131.711 38.1244C131.753 37.726 131.933 37.3627 132.212 37.1145C132.49 36.8662 132.845 36.7532 133.197 36.8005Z" fill="white"/>
</g>
<defs>
<clipPath id="clip0_308_204">
<rect width="118" height="30" fill="white" transform="translate(45 23)"/>
</clipPath>
</defs>
</svg>
