<svg width="32" height="35" viewBox="0 0 32 35" fill="none" xmlns="http://www.w3.org/2000/svg">
<path d="M16.3336 24.8394L22.3335 21.3728C22.5395 21.254 22.6666 21.0341 22.6669 20.7963V13.8696C22.6666 13.6318 22.5395 13.4118 22.3335 13.2931L16.3336 9.82645C16.1273 9.7071 15.8732 9.7071 15.6669 9.82645L9.66695 13.2931C9.461 13.4118 9.33392 13.6318 9.33362 13.8696V20.7963C9.33392 21.0341 9.461 21.254 9.66695 21.3728L15.6669 24.8394C15.8741 24.9552 16.1264 24.9552 16.3336 24.8394ZM16.6669 23.1061V17.7163L21.3335 15.0228V20.413L16.6669 23.1061ZM16.0002 11.1732L20.6669 13.87L16.0002 16.5635L11.3336 13.87L16.0002 11.1732ZM10.6669 15.0232L15.3336 17.7167V23.1065L10.6669 20.4133V15.0232Z" fill="#F0B90B"/>
<path d="M29.3332 17.3332C29.3332 13.7969 27.9284 10.4056 25.4278 7.90547C22.9276 5.40491 19.5362 4.00012 16.0001 4.00012C12.464 4.00012 9.07244 5.40491 6.57234 7.90547C4.07178 10.4057 2.66699 13.7971 2.66699 17.3332C2.66699 20.8693 4.07178 24.2609 6.57234 26.761C9.07259 29.2615 12.464 30.6663 16.0001 30.6663C18.3406 30.6663 20.6399 30.0503 22.6667 28.88C24.6935 27.7098 26.3768 26.0265 27.5471 23.9997C28.7173 21.9729 29.3333 19.6735 29.3333 17.3331L29.3332 17.3332ZM4.00001 17.3332C4.00001 14.1505 5.26431 11.0984 7.51458 8.84794C9.76516 6.59767 12.8173 5.33337 15.9999 5.33337C19.1825 5.33337 22.2346 6.59767 24.4851 8.84794C26.7354 11.0985 27.9997 14.1506 27.9997 17.3332C27.9997 20.5158 26.7354 23.568 24.4851 25.8185C22.2346 28.0688 19.1825 29.3331 15.9999 29.3331C12.8173 29.3331 9.76508 28.0688 7.51458 25.8185C5.26431 23.5679 4.00001 20.5158 4.00001 17.3332Z" fill="#F0B90B"/>
<path d="M31.4664 23.2197C31.1557 23.1566 30.8435 23.3212 30.7197 23.6131L30.673 23.7265C29.428 26.5824 27.3766 29.0128 24.77 30.7193C22.1635 32.4258 19.1153 33.3342 15.9998 33.333C15.6316 33.333 15.3331 33.6315 15.3331 33.9997C15.3331 34.3678 15.6316 34.6664 15.9998 34.6664C18.9289 34.667 21.8105 33.9253 24.3754 32.5107C26.9402 31.0959 29.1048 29.0542 30.6667 26.5765V29.9997C30.6667 30.3679 30.9652 30.6664 31.3333 30.6664C31.7015 30.6664 32 30.3679 32 29.9997V23.873C32 23.5563 31.7771 23.2831 31.4667 23.2197L31.4664 23.2197Z" fill="#F0B90B"/>
<path d="M15.9999 1.33333C16.368 1.33333 16.6665 1.03481 16.6665 0.666663C16.6665 0.298513 16.368 8.05875e-07 15.9999 8.05875e-07C13.0711 -0.000892064 10.1898 0.740171 7.62508 2.15442C5.06053 3.56843 2.89597 5.60949 1.33346 8.0865V4.66656C1.33346 4.29841 1.03495 3.9999 0.666802 3.9999C0.298652 3.9999 0.000139622 4.29841 0.000139622 4.66656V10.7897C-0.00640799 11.1117 0.217997 11.3921 0.533469 11.4564C0.577814 11.4614 0.622459 11.4614 0.666802 11.4564C0.933467 11.457 1.17484 11.2984 1.28019 11.0531C2.51112 8.16863 4.56261 5.70968 7.17958 3.98146C9.79686 2.25347 12.864 1.33234 16.0001 1.33325L15.9999 1.33333Z" fill="#F0B90B"/>
</svg>
