<svg width="38" height="37" viewBox="0 0 38 37" fill="none" xmlns="http://www.w3.org/2000/svg">
<path d="M37.6189 17.6548C37.6189 15.1323 33.4532 13.3304 28.2494 13.3304C23.0456 13.3304 18.8799 15.1323 18.8799 17.6548V31.5868C18.8799 34.1094 22.9089 36.0338 28.2494 36.0338C33.5899 36.0338 37.6189 34.1203 37.6189 31.5868V17.6548ZM36.1775 24.6819C36.1775 26.1018 32.7865 27.6874 28.2494 27.6874C23.7123 27.6874 20.3213 26.1018 20.3213 24.6819V20.2134C21.9539 21.4422 24.8294 22.2244 28.2494 22.2244C31.6694 22.2244 34.5449 21.4425 36.1775 20.2134V24.6819ZM28.2494 14.7721C32.7865 14.7721 36.1775 16.3577 36.1775 17.7776C36.1775 19.1975 32.7865 20.7831 28.2494 20.7831C23.7123 20.7831 20.3213 19.1975 20.3213 17.7776C20.3213 16.3577 23.7123 14.7721 28.2494 14.7721ZM28.2494 34.5918C23.7123 34.5918 20.3213 33.0062 20.3213 31.5863V27.1178C21.9539 28.3466 24.8294 29.1287 28.2494 29.1287C31.6694 29.1287 34.5449 28.3469 36.1775 27.1178V31.5863C36.1775 33.0062 32.7865 34.5918 28.2494 34.5918Z" fill="#F0B90B"/>
<path d="M16.7177 24.8621H5.90673V2.45847L9.18256 5.73076V5.73044C9.46861 5.9753 9.89461 5.95888 10.161 5.69279C10.4271 5.42638 10.4435 5.00038 10.1987 4.71432L5.69405 0.209702C5.41316 -0.0699008 4.95884 -0.0699008 4.67794 0.209702L0.173319 4.71432C-0.0715407 5.00037 -0.0551243 5.42637 0.210965 5.69279C0.47738 5.95889 0.903379 5.97529 1.18943 5.73044L4.46527 2.45847V25.5829C4.46527 25.774 4.5412 25.9574 4.67634 26.0925C4.81148 26.2277 4.99488 26.3036 5.186 26.3036H16.7177C17.1157 26.3036 17.4385 25.9809 17.4385 25.5829C17.4385 25.1849 17.1157 24.8622 16.7177 24.8622L16.7177 24.8621Z" fill="#F0B90B"/>
<path d="M10.2311 21.2585C10.2311 21.4496 10.307 21.633 10.4422 21.7681C10.5773 21.9033 10.7607 21.9792 10.9518 21.9792C11.1429 21.9792 11.3263 21.9033 11.4615 21.7681C11.5966 21.633 11.6725 21.4496 11.6725 21.2585V9.55789C11.6725 9.36677 11.5966 9.18337 11.4615 9.04823C11.3263 8.91309 11.1429 8.83716 10.9518 8.83716C10.5538 8.83716 10.2311 9.15956 10.2311 9.55789V21.2585Z" fill="#F0B90B"/>
<path d="M16.7251 2.8761C17.1231 2.8761 17.4459 3.27411 17.4459 3.59683V15.4926C17.4459 15.8906 17.1231 16.2134 16.7251 16.2134C16.3271 16.2134 16.0044 15.8154 16.0044 15.4926V3.59683C16.0044 3.19882 16.3271 2.8761 16.7251 2.8761Z" fill="#F0B90B"/>
<path d="M22.4836 12.6097C22.6747 12.6097 22.8581 12.5338 22.9932 12.3986C23.1283 12.2635 23.2043 12.0801 23.2043 11.889V5.83127C23.2043 5.64015 23.1283 5.45674 22.9932 5.32161C22.8581 5.18647 22.6747 5.11053 22.4836 5.11053C22.0855 5.11053 21.7628 5.43326 21.7628 5.83127V11.889C21.7628 12.0801 21.8388 12.2635 21.9739 12.3986C22.109 12.5338 22.2924 12.6097 22.4836 12.6097Z" fill="#F0B90B"/>
<path d="M28.2782 11.9433C28.4694 11.9433 28.6524 11.8674 28.7879 11.7323C28.923 11.5971 28.999 11.4137 28.999 11.2226V3.60086C28.999 3.20285 28.6762 2.88013 28.2782 2.88013C27.8799 2.88013 27.5575 3.20285 27.5575 3.60086V11.2226C27.5575 11.4137 27.6334 11.5971 27.7686 11.7323C27.9037 11.8674 28.0871 11.9433 28.2782 11.9433Z" fill="#F0B90B"/>
</svg>
