<svg width="37" height="37" viewBox="0 0 37 37" fill="none" xmlns="http://www.w3.org/2000/svg">
<path d="M11.5962 20.2583C10.7394 20.3821 9.87411 20.4433 9.00822 20.4421C4.6461 20.4421 1.38588 18.9176 1.38588 17.5525V13.2563C2.95549 14.4377 5.72012 15.1897 9.00822 15.1897C12.2963 15.1897 15.0609 14.438 16.6306 13.2563V13.8592C16.6306 14.2419 16.9408 14.5521 17.3235 14.5521C17.7062 14.5521 18.0164 14.2419 18.0164 13.8592V4.18179C18.0164 1.73235 14.0113 0 9.00822 0C4.00511 0 0 1.73235 0 4.15764V17.5524C0 19.9882 3.87365 21.8278 9.00822 21.8278C9.94277 21.8297 10.8761 21.7638 11.8007 21.6305C12.1834 21.5739 12.4479 21.2178 12.3916 20.8351C12.335 20.4525 11.9792 20.188 11.5962 20.2446L11.5962 20.2583ZM9.00822 1.38662C13.3703 1.38662 16.6306 2.91109 16.6306 4.27622C16.6306 5.64135 13.3703 7.16582 9.00822 7.16582C4.6461 7.16582 1.38588 5.64135 1.38588 4.27622C1.38588 2.91109 4.6461 1.38662 9.00822 1.38662ZM1.38588 6.61828C2.95549 7.79968 5.72012 8.5517 9.00822 8.5517C12.2963 8.5517 15.0609 7.79998 16.6306 6.61828V10.9145C16.6306 12.2796 13.3703 13.8041 9.00822 13.8041C4.6461 13.8041 1.38588 12.2796 1.38588 10.9145V6.61828Z" fill="#F0B90B"/>
<path d="M35.2394 16.6313H30.4894V14.5525C30.4894 14.1698 30.1791 13.8596 29.7965 13.8596C29.4138 13.8596 29.1035 14.1698 29.1035 14.5525V16.6313H20.7883V14.5525C20.7883 14.1698 20.478 13.8596 20.0953 13.8596C19.7127 13.8596 19.4024 14.1698 19.4024 14.5525V16.6313H14.649C14.4392 16.6313 14.2385 16.7145 14.0903 16.8627C13.9421 17.0109 13.8589 17.2117 13.8589 17.4214V34.3014C13.8589 34.7608 14.0414 35.2016 14.3662 35.5264C14.691 35.8513 15.1319 36.0338 15.5913 36.0338H34.3006C34.76 36.0338 35.2008 35.8513 35.5257 35.5264C35.8505 35.2016 36.033 34.7608 36.033 34.3014V17.4246C36.0311 16.9871 35.6769 16.6329 35.2395 16.631L35.2394 16.6313ZM19.4024 18.0172V20.096C19.4024 20.4787 19.7127 20.789 20.0953 20.789C20.478 20.789 20.7883 20.4787 20.7883 20.096V18.0172H29.1035V20.096C29.1035 20.4787 29.4138 20.789 29.7965 20.789C30.1791 20.789 30.4894 20.4787 30.4894 20.096V18.0172H34.647V23.5607H15.2447V18.0172H19.4024ZM34.3002 34.6477H15.5908C15.3993 34.6477 15.2443 34.4928 15.2443 34.3013V24.947H34.6466V34.3013C34.6466 34.3932 34.6101 34.4813 34.5452 34.5463C34.4802 34.6113 34.3921 34.6477 34.3002 34.6477Z" fill="#F0B90B"/>
</svg>
