<svg width="75" height="69" viewBox="0 0 75 69" fill="none" xmlns="http://www.w3.org/2000/svg">
<g filter="url(#filter0_di_203_945)">
<circle r="10.3125" transform="matrix(-1 0 0 1 37.5 31.5)" fill="#5064FB"/>
</g>
<g filter="url(#filter1_d_203_945)">
<path d="M21 31.5C21 33.6668 21.4268 35.8124 22.256 37.8143C23.0852 39.8161 24.3006 41.6351 25.8327 43.1673C27.3649 44.6994 29.1839 45.9148 31.1857 46.744C33.1876 47.5732 35.3332 48 37.5 48C39.6668 48 41.8124 47.5732 43.8143 46.744C45.8161 45.9148 47.6351 44.6994 49.1673 43.1673C50.6994 41.6351 51.9148 39.8161 52.744 37.8143C53.5732 35.8124 54 33.6668 54 31.5L47.3335 31.5C47.3335 32.7914 47.0792 34.0701 46.585 35.2631C46.0908 36.4562 45.3665 37.5402 44.4534 38.4534C43.5402 39.3665 42.4562 40.0908 41.2631 40.585C40.0701 41.0792 38.7914 41.3335 37.5 41.3335C36.2086 41.3335 34.9299 41.0792 33.7369 40.585C32.5438 40.0908 31.4598 39.3665 30.5466 38.4534C29.6335 37.5402 28.9092 36.4562 28.415 35.2631C27.9208 34.0701 27.6665 32.7914 27.6665 31.5H21Z" fill="#5064FB"/>
</g>
<path d="M37.5 25.3125L42.8585 28.4062V34.5938L37.5 37.6875L32.1415 34.5938V28.4062L37.5 25.3125Z" fill="#282938"/>
<defs>
<filter id="filter0_di_203_945" x="6.49602" y="0.496019" width="62.008" height="62.008" filterUnits="userSpaceOnUse" color-interpolation-filters="sRGB">
<feFlood flood-opacity="0" result="BackgroundImageFix"/>
<feColorMatrix in="SourceAlpha" type="matrix" values="0 0 0 0 0 0 0 0 0 0 0 0 0 0 0 0 0 0 127 0" result="hardAlpha"/>
<feOffset/>
<feGaussianBlur stdDeviation="10.3457"/>
<feComposite in2="hardAlpha" operator="out"/>
<feColorMatrix type="matrix" values="0 0 0 0 0.313726 0 0 0 0 0.392157 0 0 0 0 0.984314 0 0 0 0.5 0"/>
<feBlend mode="normal" in2="BackgroundImageFix" result="effect1_dropShadow_203_945"/>
<feBlend mode="normal" in="SourceGraphic" in2="effect1_dropShadow_203_945" result="shape"/>
<feColorMatrix in="SourceAlpha" type="matrix" values="0 0 0 0 0 0 0 0 0 0 0 0 0 0 0 0 0 0 127 0" result="hardAlpha"/>
<feOffset dy="8.25"/>
<feGaussianBlur stdDeviation="4.125"/>
<feComposite in2="hardAlpha" operator="arithmetic" k2="-1" k3="1"/>
<feColorMatrix type="matrix" values="0 0 0 0 0 0 0 0 0 0 0 0 0 0 0 0 0 0 0.25 0"/>
<feBlend mode="normal" in2="shape" result="effect2_innerShadow_203_945"/>
</filter>
<filter id="filter1_d_203_945" x="0.308519" y="10.8085" width="74.383" height="57.883" filterUnits="userSpaceOnUse" color-interpolation-filters="sRGB">
<feFlood flood-opacity="0" result="BackgroundImageFix"/>
<feColorMatrix in="SourceAlpha" type="matrix" values="0 0 0 0 0 0 0 0 0 0 0 0 0 0 0 0 0 0 127 0" result="hardAlpha"/>
<feOffset/>
<feGaussianBlur stdDeviation="10.3457"/>
<feComposite in2="hardAlpha" operator="out"/>
<feColorMatrix type="matrix" values="0 0 0 0 0.313726 0 0 0 0 0.392157 0 0 0 0 0.984314 0 0 0 0.5 0"/>
<feBlend mode="normal" in2="BackgroundImageFix" result="effect1_dropShadow_203_945"/>
<feBlend mode="normal" in="SourceGraphic" in2="effect1_dropShadow_203_945" result="shape"/>
</filter>
</defs>
</svg>
