<svg width="56" height="51" viewBox="0 0 56 51" fill="none" xmlns="http://www.w3.org/2000/svg">
<g filter="url(#filter0_d_203_937)">
<path d="M42.2574 22.7583H45V40.6779H42.2574V22.7583Z" fill="#5064FB"/>
<path d="M11.7487 27.1699C12.2359 26.8227 12.8201 26.6237 13.4261 26.5985C14.032 26.5732 14.6319 26.7229 15.1486 27.0283L21.3703 30.634H34.7998V29.5447H24.3849C24.6759 28.9588 25.0931 28.439 25.6088 28.0196C26.252 27.4884 27.0372 27.1411 27.8754 27.0174C28.1131 27.0004 28.3517 27.0004 28.5894 27.0174H29.7227C30.5194 27.0097 31.3004 26.8033 31.9892 26.4183C32.4394 26.1716 32.8711 25.8949 33.2812 25.5904C33.8103 25.1868 34.3935 24.8533 35.0151 24.5991C35.3732 24.4521 35.759 24.3779 36.1484 24.3812H39.9902V38.8476H28.0001C25.3172 38.843 22.7099 37.9936 20.577 36.4293L11.7714 29.9695C11.5336 29.8134 11.339 29.6037 11.2047 29.3588C11.0704 29.1139 11.0004 28.8411 11.0008 28.5643C11.0043 28.292 11.0737 28.0243 11.2035 27.7822C11.3333 27.5402 11.52 27.3306 11.7487 27.1699Z" fill="#5064FB"/>
</g>
<g filter="url(#filter1_di_203_937)">
<circle r="5" transform="matrix(-1 0 0 1 25 16)" fill="#5064FB"/>
</g>
<g filter="url(#filter2_d_203_937)">
<path d="M17 16C17 17.0506 17.2069 18.0909 17.609 19.0615C18.011 20.0321 18.6003 20.914 19.3431 21.6569C20.086 22.3997 20.9679 22.989 21.9385 23.391C22.9091 23.7931 23.9494 24 25 24C26.0506 24 27.0909 23.7931 28.0615 23.391C29.0321 22.989 29.914 22.3997 30.6569 21.6569C31.3997 20.914 31.989 20.0321 32.391 19.0615C32.7931 18.0909 33 17.0506 33 16H29.7678C29.7678 16.6261 29.6445 17.2461 29.4048 17.8245C29.1652 18.403 28.8141 18.9286 28.3713 19.3713C27.9286 19.8141 27.403 20.1652 26.8245 20.4048C26.2461 20.6445 25.6261 20.7678 25 20.7678C24.3739 20.7678 23.7539 20.6445 23.1755 20.4048C22.597 20.1652 22.0714 19.8141 21.6287 19.3713C21.1859 18.9286 20.8348 18.403 20.5952 17.8245C20.3555 17.2461 20.2322 16.6261 20.2322 16H17Z" fill="#5064FB"/>
</g>
<defs>
<filter id="filter0_d_203_937" x="0.967766" y="12.7261" width="54.0645" height="37.9841" filterUnits="userSpaceOnUse" color-interpolation-filters="sRGB">
<feFlood flood-opacity="0" result="BackgroundImageFix"/>
<feColorMatrix in="SourceAlpha" type="matrix" values="0 0 0 0 0 0 0 0 0 0 0 0 0 0 0 0 0 0 127 0" result="hardAlpha"/>
<feOffset/>
<feGaussianBlur stdDeviation="5.01612"/>
<feComposite in2="hardAlpha" operator="out"/>
<feColorMatrix type="matrix" values="0 0 0 0 0.313726 0 0 0 0 0.392157 0 0 0 0 0.984314 0 0 0 0.5 0"/>
<feBlend mode="normal" in2="BackgroundImageFix" result="effect1_dropShadow_203_937"/>
<feBlend mode="normal" in="SourceGraphic" in2="effect1_dropShadow_203_937" result="shape"/>
</filter>
<filter id="filter1_di_203_937" x="9.96777" y="0.967766" width="30.0645" height="30.0645" filterUnits="userSpaceOnUse" color-interpolation-filters="sRGB">
<feFlood flood-opacity="0" result="BackgroundImageFix"/>
<feColorMatrix in="SourceAlpha" type="matrix" values="0 0 0 0 0 0 0 0 0 0 0 0 0 0 0 0 0 0 127 0" result="hardAlpha"/>
<feOffset/>
<feGaussianBlur stdDeviation="5.01612"/>
<feComposite in2="hardAlpha" operator="out"/>
<feColorMatrix type="matrix" values="0 0 0 0 0.313726 0 0 0 0 0.392157 0 0 0 0 0.984314 0 0 0 0.5 0"/>
<feBlend mode="normal" in2="BackgroundImageFix" result="effect1_dropShadow_203_937"/>
<feBlend mode="normal" in="SourceGraphic" in2="effect1_dropShadow_203_937" result="shape"/>
<feColorMatrix in="SourceAlpha" type="matrix" values="0 0 0 0 0 0 0 0 0 0 0 0 0 0 0 0 0 0 127 0" result="hardAlpha"/>
<feOffset dy="4"/>
<feGaussianBlur stdDeviation="2"/>
<feComposite in2="hardAlpha" operator="arithmetic" k2="-1" k3="1"/>
<feColorMatrix type="matrix" values="0 0 0 0 0 0 0 0 0 0 0 0 0 0 0 0 0 0 0.25 0"/>
<feBlend mode="normal" in2="shape" result="effect2_innerShadow_203_937"/>
</filter>
<filter id="filter2_d_203_937" x="6.96777" y="5.96777" width="36.0645" height="28.0645" filterUnits="userSpaceOnUse" color-interpolation-filters="sRGB">
<feFlood flood-opacity="0" result="BackgroundImageFix"/>
<feColorMatrix in="SourceAlpha" type="matrix" values="0 0 0 0 0 0 0 0 0 0 0 0 0 0 0 0 0 0 127 0" result="hardAlpha"/>
<feOffset/>
<feGaussianBlur stdDeviation="5.01612"/>
<feComposite in2="hardAlpha" operator="out"/>
<feColorMatrix type="matrix" values="0 0 0 0 0.313726 0 0 0 0 0.392157 0 0 0 0 0.984314 0 0 0 0.5 0"/>
<feBlend mode="normal" in2="BackgroundImageFix" result="effect1_dropShadow_203_937"/>
<feBlend mode="normal" in="SourceGraphic" in2="effect1_dropShadow_203_937" result="shape"/>
</filter>
</defs>
</svg>
