<svg width="34" height="30" viewBox="0 0 34 30" fill="none" xmlns="http://www.w3.org/2000/svg">
<path d="M31.2566 11.7583H33.9992V29.6779H31.2566V11.7583Z" fill="white"/>
<path d="M0.747902 16.1699C1.2351 15.8227 1.8193 15.6237 2.4253 15.5984C3.0312 15.5732 3.6311 15.7229 4.1478 16.0283L10.3695 19.634H23.799V18.5447H13.3841C13.6751 17.9588 14.0923 17.4389 14.608 17.0196C15.2512 16.4883 16.0364 16.1411 16.8746 16.0174C17.1123 16.0003 17.3509 16.0003 17.5886 16.0174H18.7219C19.5186 16.0097 20.2996 15.8032 20.9884 15.4183C21.4386 15.1715 21.8703 14.8949 22.2804 14.5904C22.8095 14.1867 23.3927 13.8533 24.0143 13.5991C24.3724 13.4521 24.7582 13.3779 25.1476 13.3812H28.9894V27.8476H16.9993C14.3164 27.843 11.7091 26.9935 9.5762 25.4293L0.770602 18.9695C0.532802 18.8133 0.338202 18.6037 0.203902 18.3588C0.069602 18.1138 -0.000398295 17.8411 1.70468e-06 17.5643C0.0035017 17.292 0.0729014 17.0242 0.202701 16.7822C0.332501 16.5402 0.519202 16.3306 0.747902 16.1699Z" fill="white"/>
<path d="M13.9992 10C11.2378 10 8.99921 7.76142 8.99921 5C8.99921 2.23858 11.2378 0 13.9992 0C16.7606 0 18.9992 2.23858 18.9992 5C18.9992 7.76142 16.7606 10 13.9992 10Z" fill="white"/>
<path d="M5.99921 5C5.99921 6.05058 6.20611 7.09091 6.60821 8.06151C7.01021 9.03211 7.59951 9.91401 8.34231 10.6568C9.08521 11.3997 9.96711 11.989 10.9377 12.391C11.9083 12.7931 12.9486 13 13.9992 13C15.0498 13 16.0901 12.7931 17.0607 12.391C18.0313 11.989 18.9132 11.3997 19.6561 10.6568C20.3989 9.91401 20.9882 9.03211 21.3902 8.06151C21.7923 7.09091 21.9992 6.05058 21.9992 5H18.767C18.767 5.62611 18.6437 6.2461 18.404 6.82455C18.1644 7.40301 17.8133 7.92861 17.3705 8.37131C16.9278 8.81401 16.4022 9.16521 15.8237 9.40481C15.2453 9.64441 14.6253 9.76781 13.9992 9.76781C13.3731 9.76781 12.7531 9.64441 12.1747 9.40481C11.5962 9.16521 11.0706 8.81401 10.6279 8.37131C10.1851 7.92861 9.83401 7.40301 9.59441 6.82455C9.35471 6.2461 9.23141 5.62611 9.23141 5H5.99921Z" fill="white"/>
</svg>
