<svg width="34" height="32" viewBox="0 0 34 32" fill="none" xmlns="http://www.w3.org/2000/svg">
<path d="M23.8019 1.16438e-05C22.7094 -0.00218836 21.6408 0.307411 20.7314 0.889511C19.8221 1.47161 19.1129 2.30011 18.6938 3.26991C18.2746 4.23971 18.1644 5.30731 18.377 6.33741C18.5896 7.36751 19.1155 8.31371 19.888 9.05631C20.6605 9.79891 21.645 10.3044 22.7166 10.5087C23.7883 10.7131 24.8989 10.6071 25.9079 10.2042C26.9168 9.80131 27.7787 9.11971 28.3843 8.24561C28.9899 7.37151 29.3119 6.34431 29.3097 5.29421C29.3067 3.89101 28.7255 2.54601 27.6932 1.55381C26.6609 0.561611 25.2617 0.00291164 23.8019 1.16438e-05Z" fill="white"/>
<path d="M2.74255 13.7581H0V31.6777H2.74255V13.7581Z" fill="white"/>
<path d="M12.8968 14.7511L13.1008 14.8927C13.3728 15.0888 13.6108 15.2522 13.8487 15.3938L14.0527 15.5028C14.4151 15.714 14.8302 15.8269 15.254 15.8296H16.3873C16.6779 15.8116 16.9694 15.8116 17.2599 15.8296H17.4299C18.582 15.9942 19.6707 16.4406 20.5918 17.1259C21.0794 15.8241 21.0162 14.3903 20.4159 13.1328C19.8156 11.8753 18.726 10.8943 17.3812 10.4006C16.0365 9.90704 14.544 9.94014 13.2244 10.4929C11.9049 11.0457 10.8635 12.0739 10.3242 13.3568C10.4829 13.3568 10.6529 13.433 10.8115 13.4984C11.5633 13.8217 12.265 14.2432 12.8968 14.7511Z" fill="white"/>
<path d="M33.2513 18.1697C32.7641 17.8225 32.1799 17.6234 31.5739 17.5982C30.968 17.5729 30.3681 17.7227 29.8514 18.028L23.6297 21.6337H10.2002V20.5444H20.6151C20.3241 19.9585 19.9069 19.4387 19.3912 19.0193C18.748 18.4881 17.9628 18.1409 17.1246 18.0172C16.8869 18.0001 16.6483 18.0001 16.4106 18.0172H15.2773C14.4806 18.0095 13.6996 17.803 13.0108 17.418C12.5606 17.1713 12.1289 16.8947 11.7188 16.5901C11.1897 16.1865 10.6065 15.8531 9.9849 15.5988C9.62682 15.4518 9.24096 15.3776 8.85161 15.381H5.00977V29.8473H16.9999C19.6828 29.8427 22.2901 28.9933 24.423 27.429L33.2286 20.9693C33.4664 20.8131 33.661 20.6034 33.7953 20.3585C33.9296 20.1136 33.9996 19.8409 33.9992 19.564C33.9957 19.2917 33.9263 19.024 33.7965 18.782C33.6667 18.5399 33.48 18.3303 33.2513 18.1697Z" fill="white"/>
</svg>
