<svg width="33" height="27" viewBox="0 0 33 27" fill="none" xmlns="http://www.w3.org/2000/svg">
<path d="M16.5 20.625C10.8046 20.625 6.1875 16.0079 6.1875 10.3125C6.1875 4.61706 10.8046 0 16.5 0C22.1954 0 26.8125 4.61706 26.8125 10.3125C26.8125 16.0079 22.1954 20.625 16.5 20.625Z" fill="white"/>
<path d="M0 10.3125C0 12.4793 0.4268 14.6249 1.256 16.6268C2.0852 18.6286 3.3006 20.4476 4.8327 21.9798C6.3649 23.5119 8.1839 24.7273 10.1857 25.5565C12.1876 26.3857 14.3332 26.8125 16.5 26.8125C18.6668 26.8125 20.8124 26.3857 22.8143 25.5565C24.8161 24.7273 26.6351 23.5119 28.1673 21.9798C29.6994 20.4476 30.9148 18.6286 31.744 16.6268C32.5732 14.6249 33 12.4793 33 10.3125H26.3335C26.3335 11.6038 26.0792 12.8826 25.585 14.0756C25.0908 15.2687 24.3665 16.3527 23.4534 17.2658C22.5402 18.179 21.4562 18.9033 20.2631 19.3975C19.0701 19.8917 17.7914 20.146 16.5 20.146C15.2086 20.146 13.9299 19.8917 12.7369 19.3975C11.5438 18.9033 10.4598 18.179 9.5466 17.2659C8.6335 16.3527 7.9092 15.2687 7.415 14.0756C6.9208 12.8826 6.6665 11.6039 6.6665 10.3125H0Z" fill="white"/>
<path d="M16.5 4.125L21.8585 7.2187V13.4062L16.5 16.5L11.1415 13.4062V7.2187L16.5 4.125Z" fill="#201B43"/>
</svg>
