<svg width="420" height="410" viewBox="0 0 420 410" fill="none" xmlns="http://www.w3.org/2000/svg">
<g opacity="0.1">
<path d="M263.885 409.5C409.412 409.5 527.385 291.527 527.385 146C527.385 0.47303 409.412 -117.5 263.885 -117.5C118.358 -117.5 0.384766 0.47303 0.384766 146C0.384766 291.527 118.358 409.5 263.885 409.5Z" fill="#2E3148"/>
<path d="M263.886 298.892C348.327 298.892 416.781 230.439 416.781 145.997C416.781 61.5554 348.327 -6.89795 263.886 -6.89795C179.444 -6.89795 110.99 61.5554 110.99 145.997C110.99 230.439 179.444 298.892 263.886 298.892Z" fill="#2E3148"/>
<path d="M264.408 -83.8997C235.965 -83.8997 212.901 19.2656 212.901 146.528C212.901 273.79 235.965 376.956 264.408 376.956C292.851 376.956 315.915 273.79 315.915 146.528C315.915 19.2656 292.851 -83.8997 264.408 -83.8997ZM267.965 363.952C264.712 368.29 261.459 365.035 261.459 365.035C248.36 349.857 241.811 321.661 241.811 321.661C218.899 247.925 224.352 89.608 224.352 89.608C235.12 -36.0796 254.707 -65.7709 261.373 -72.3626C262.054 -73.0354 262.95 -73.4465 263.903 -73.5236C264.858 -73.6007 265.808 -73.3389 266.588 -72.7842C276.26 -65.931 284.371 -37.2707 284.371 -37.2707C308.324 51.6468 306.155 135.143 306.155 135.143C308.324 207.795 294.153 289.121 294.153 289.121C283.243 350.928 267.965 363.952 267.965 363.952Z" fill="white"/>
<path d="M464.322 31.8931C450.161 7.21234 349.207 38.5502 238.766 101.878C128.326 165.207 50.4227 236.557 64.5737 261.227C78.7243 285.897 179.69 254.57 290.13 191.241C400.57 127.912 478.473 56.5624 464.322 31.8931ZM77.639 257.841C72.2173 257.158 73.4421 252.702 73.4421 252.702C80.093 233.79 101.257 214.077 101.257 214.077C153.837 157.507 293.884 83.4543 293.884 83.4543C408.252 30.2445 443.775 32.4893 452.788 34.9705C453.712 35.2283 454.516 35.8055 455.056 36.6002C455.597 37.394 455.838 38.3534 455.738 39.3087C454.655 51.1134 433.78 72.4047 433.78 72.4047C368.617 137.455 295.109 177.132 295.109 177.132C233.17 215.181 155.574 243.342 155.574 243.342C96.5307 264.619 77.639 257.841 77.639 257.841Z" fill="white"/>
<path d="M463.791 262.024C478.062 237.41 400.355 165.733 290.303 101.928C180.25 38.1236 79.3084 6.39785 65.0498 31.0556C50.7914 55.7125 128.486 127.347 238.602 191.152C348.717 254.956 449.533 286.684 463.791 262.024ZM74.5064 40.5669C72.3983 35.5683 76.8486 34.3652 76.8486 34.3652C96.5498 30.6438 124.224 39.1225 124.224 39.1225C199.511 56.2667 333.759 140.36 333.759 140.36C437.12 212.687 452.972 244.545 455.348 253.589C455.59 254.516 455.496 255.499 455.084 256.365C454.67 257.229 453.965 257.921 453.092 258.317C442.315 263.251 413.447 255.899 413.447 255.899C324.475 232.043 253.32 188.333 253.32 188.333C189.386 153.85 126.167 100.792 126.167 100.792C78.13 60.3463 74.5211 40.6212 74.5211 40.6212L74.5064 40.5669Z" fill="white"/>
<path d="M263.863 173.103C278.835 173.103 290.973 160.966 290.973 145.994C290.973 131.022 278.835 118.886 263.863 118.886C248.892 118.886 236.755 131.022 236.755 145.994C236.755 160.966 248.892 173.103 263.863 173.103Z" fill="white"/>
<path d="M375.03 58.1499C383.715 58.1499 390.754 50.8678 390.754 41.8852C390.754 32.9017 383.715 25.6196 375.03 25.6196C366.347 25.6196 359.308 32.9017 359.308 41.8852C359.308 50.8678 366.347 58.1499 375.03 58.1499Z" fill="white"/>
<path d="M115.884 114.62C124.568 114.62 131.608 107.338 131.608 98.3542C131.608 89.3707 124.568 82.0886 115.884 82.0886C107.2 82.0886 100.16 89.3707 100.16 98.3542C100.16 107.338 107.2 114.62 115.884 114.62Z" fill="white"/>
<path d="M235.639 314.168C244.323 314.168 251.362 306.886 251.362 297.902C251.362 288.92 244.323 281.638 235.639 281.638C226.955 281.638 219.915 288.92 219.915 297.902C219.915 306.886 226.955 314.168 235.639 314.168Z" fill="white"/>
</g>
</svg>
