<svg width="893" height="341" viewBox="0 0 893 341" fill="none" xmlns="http://www.w3.org/2000/svg">
<mask id="mask0_1931_8035" style="mask-type:luminance" maskUnits="userSpaceOnUse" x="0" y="-213" width="893" height="809">
<path d="M893 -213H0V596H893V-213Z" fill="white"/>
</mask>
<g mask="url(#mask0_1931_8035)">
<g opacity="0.6">
<mask id="mask1_1931_8035" style="mask-type:alpha" maskUnits="userSpaceOnUse" x="212" y="-165" width="961" height="563">
<g opacity="0.6">
<g opacity="0.6">
<path opacity="0.7" fill-rule="evenodd" clip-rule="evenodd" d="M223.868 -3.22614C249.89 14.1422 301.934 62.7998 301.934 118.484C301.934 122.381 301.891 126.966 301.842 132.13C301.011 219.204 298.609 471.197 477.584 375.826C502.918 362.327 528.948 349.197 554.537 336.289C589.787 318.508 624.201 301.149 654.806 283.827C763.463 371.837 864.665 427.084 977.426 309.359C1129.56 150.523 1171.83 -121.258 1045.83 -26.2964C1023.73 -6.34233 960.075 34.718 882.31 39.326C876.867 39.6485 966.716 8.1078 959.5 8.50011C912.381 11.0619 1234.81 -134.919 1161 -123.5C948.459 -234.472 106.672 -96.7456 223.868 -3.22614Z" fill="url(#paint0_linear_1931_8035)"/>
</g>
</g>
</mask>
<g mask="url(#mask1_1931_8035)">
<path d="M231.172 -376.23H207.172V740H231.172V-376.23Z" stroke="#F7931A" stroke-opacity="0.2"/>
<path d="M255.172 -376.23H231.172V740H255.172V-376.23Z" stroke="#F7931A" stroke-opacity="0.2"/>
<path d="M279.172 -376.23H255.172V740H279.172V-376.23Z" stroke="#F7931A" stroke-opacity="0.2"/>
<path d="M303.172 -376.23H279.172V740H303.172V-376.23Z" stroke="#F7931A" stroke-opacity="0.2"/>
<path d="M327.172 -376.23H303.172V740H327.172V-376.23Z" stroke="#F7931A" stroke-opacity="0.2"/>
<path d="M351.172 -376.23H327.172V740H351.172V-376.23Z" stroke="#F7931A" stroke-opacity="0.2"/>
<path d="M375.172 -376.23H351.172V740H375.172V-376.23Z" stroke="#F7931A" stroke-opacity="0.2"/>
<path d="M399.172 -376.23H375.172V740H399.172V-376.23Z" stroke="#F7931A" stroke-opacity="0.2"/>
<path d="M423.172 -376.23H399.172V740H423.172V-376.23Z" stroke="#F7931A" stroke-opacity="0.2"/>
<path d="M447.172 -376.23H423.172V740H447.172V-376.23Z" stroke="#F7931A" stroke-opacity="0.2"/>
<path d="M471.172 -376.23H447.172V740H471.172V-376.23Z" stroke="#F7931A" stroke-opacity="0.2"/>
<path d="M495.172 -376.23H471.172V740H495.172V-376.23Z" stroke="#F7931A" stroke-opacity="0.2"/>
<path d="M519.172 -376.23H495.172V740H519.172V-376.23Z" stroke="#F7931A" stroke-opacity="0.2"/>
<path d="M543.172 -376.23H519.172V740H543.172V-376.23Z" stroke="#F7931A" stroke-opacity="0.2"/>
<path d="M567.172 -376.23H543.172V740H567.172V-376.23Z" stroke="#F7931A" stroke-opacity="0.2"/>
<path d="M591.172 -376.23H567.172V740H591.172V-376.23Z" stroke="#F7931A" stroke-opacity="0.2"/>
<path d="M615.172 -376.23H591.172V740H615.172V-376.23Z" stroke="#F7931A" stroke-opacity="0.2"/>
<path d="M639.172 -376.23H615.172V740H639.172V-376.23Z" stroke="#F7931A" stroke-opacity="0.2"/>
<path d="M663.172 -376.23H639.172V740H663.172V-376.23Z" stroke="#F7931A" stroke-opacity="0.2"/>
<path d="M687.172 -376.23H663.172V740H687.172V-376.23Z" stroke="#F7931A" stroke-opacity="0.2"/>
<path d="M711.172 -376.23H687.172V740H711.172V-376.23Z" stroke="#F7931A" stroke-opacity="0.2"/>
<path d="M735.172 -376.23H711.172V740H735.172V-376.23Z" stroke="#F7931A" stroke-opacity="0.2"/>
<path d="M759.172 -376.23H735.172V740H759.172V-376.23Z" stroke="#F7931A" stroke-opacity="0.2"/>
<path d="M783.172 -376.23H759.172V740H783.172V-376.23Z" stroke="#F7931A" stroke-opacity="0.2"/>
<path d="M807.172 -376.23H783.172V740H807.172V-376.23Z" stroke="#F7931A" stroke-opacity="0.2"/>
<path d="M831.172 -376.23H807.172V740H831.172V-376.23Z" stroke="#F7931A" stroke-opacity="0.2"/>
<path d="M855.172 -376.23H831.172V740H855.172V-376.23Z" stroke="#F7931A" stroke-opacity="0.2"/>
<path d="M879.172 -376.23H855.172V740H879.172V-376.23Z" stroke="#F7931A" stroke-opacity="0.2"/>
<path d="M903.172 -376.23H879.172V740H903.172V-376.23Z" stroke="#F7931A" stroke-opacity="0.2"/>
<path d="M-57 -19.1387V4.86136H1383V-19.1387H-57Z" stroke="#F7931A" stroke-opacity="0.2"/>
<path d="M-57 4.86133V28.8613H1383V4.86133H-57Z" stroke="#F7931A" stroke-opacity="0.2"/>
<path d="M-57 28.8613V52.8613H1383V28.8613H-57Z" stroke="#F7931A" stroke-opacity="0.2"/>
<path d="M-57 52.8613V76.8613H1383V52.8613H-57Z" stroke="#F7931A" stroke-opacity="0.2"/>
<path d="M-57 76.8613V100.861H1383V76.8613H-57Z" stroke="#F7931A" stroke-opacity="0.2"/>
<path d="M-57 100.861V124.861H1383V100.861H-57Z" stroke="#F7931A" stroke-opacity="0.2"/>
<path d="M-57 124.861V148.861H1383V124.861H-57Z" stroke="#F7931A" stroke-opacity="0.2"/>
<path d="M-57 148.861V172.861H1383V148.861H-57Z" stroke="#F7931A" stroke-opacity="0.2"/>
<path d="M-57 172.861V196.861H1383V172.861H-57Z" stroke="#F7931A" stroke-opacity="0.2"/>
<path d="M-57 196.861V220.861H1383V196.861H-57Z" stroke="#F7931A" stroke-opacity="0.2"/>
<path d="M-57 220.861V244.861H1383V220.861H-57Z" stroke="#F7931A" stroke-opacity="0.2"/>
<path d="M-57 244.861V268.861H1383V244.861H-57Z" stroke="#F7931A" stroke-opacity="0.2"/>
<path d="M-57 268.861V292.861H1383V268.861H-57Z" stroke="#F7931A" stroke-opacity="0.2"/>
<path d="M-57 292.861V316.861H1383V292.861H-57Z" stroke="#F7931A" stroke-opacity="0.2"/>
<path d="M-57 316.861V340.861H1383V316.861H-57Z" stroke="#F7931A" stroke-opacity="0.2"/>
<path d="M-57 340.861V364.861H1383V340.861H-57Z" stroke="#F7931A" stroke-opacity="0.2"/>
</g>
</g>
</g>
<defs>
<linearGradient id="paint0_linear_1931_8035" x1="1110.34" y1="-82.4535" x2="769.537" y2="413.723" gradientUnits="userSpaceOnUse">
<stop stop-color="white"/>
<stop offset="1" stop-color="white"/>
</linearGradient>
</defs>
</svg>
