<svg width="893" height="359" viewBox="0 0 893 359" fill="none" xmlns="http://www.w3.org/2000/svg">
<g clip-path="url(#clip0_1631_17145)">
<g opacity="0.6">
<mask id="mask0_1631_17145" style="mask-type:alpha" maskUnits="userSpaceOnUse" x="212" y="-164" width="961" height="563">
<g opacity="0.6">
<path opacity="0.7" fill-rule="evenodd" clip-rule="evenodd" d="M223.868 -2.22623C249.89 15.1421 301.934 63.7997 301.934 119.484C301.934 123.381 301.891 127.966 301.842 133.13C301.011 220.204 298.609 472.197 477.584 376.826C502.918 363.327 528.948 350.197 554.537 337.289C589.787 319.508 624.201 302.149 654.806 284.827C763.463 372.837 864.665 428.084 977.426 310.359C1129.56 151.523 1171.83 -120.258 1045.83 -25.2965C1023.73 -5.34243 960.075 35.7179 882.31 40.3259C876.867 40.6484 966.716 9.1077 959.5 9.5C912.381 12.0618 1234.81 -133.919 1161 -122.5C948.459 -233.472 106.672 -95.7457 223.868 -2.22623Z" fill="url(#paint0_linear_1631_17145)"/>
</g>
</mask>
<g mask="url(#mask0_1631_17145)">
<path d="M231.172 -375.23H207.172V741H231.172V-375.23Z" stroke="#F7931A" stroke-opacity="0.2"/>
<path d="M255.172 -375.23H231.172V741H255.172V-375.23Z" stroke="#F7931A" stroke-opacity="0.2"/>
<path d="M279.172 -375.23H255.172V741H279.172V-375.23Z" stroke="#F7931A" stroke-opacity="0.2"/>
<path d="M303.172 -375.23H279.172V741H303.172V-375.23Z" stroke="#F7931A" stroke-opacity="0.2"/>
<path d="M327.172 -375.23H303.172V741H327.172V-375.23Z" stroke="#F7931A" stroke-opacity="0.2"/>
<path d="M351.172 -375.23H327.172V741H351.172V-375.23Z" stroke="#F7931A" stroke-opacity="0.2"/>
<path d="M375.172 -375.23H351.172V741H375.172V-375.23Z" stroke="#F7931A" stroke-opacity="0.2"/>
<path d="M399.172 -375.23H375.172V741H399.172V-375.23Z" stroke="#F7931A" stroke-opacity="0.2"/>
<path d="M423.172 -375.23H399.172V741H423.172V-375.23Z" stroke="#F7931A" stroke-opacity="0.2"/>
<path d="M447.172 -375.23H423.172V741H447.172V-375.23Z" stroke="#F7931A" stroke-opacity="0.2"/>
<path d="M471.172 -375.23H447.172V741H471.172V-375.23Z" stroke="#F7931A" stroke-opacity="0.2"/>
<path d="M495.172 -375.23H471.172V741H495.172V-375.23Z" stroke="#F7931A" stroke-opacity="0.2"/>
<path d="M519.172 -375.23H495.172V741H519.172V-375.23Z" stroke="#F7931A" stroke-opacity="0.2"/>
<path d="M543.172 -375.23H519.172V741H543.172V-375.23Z" stroke="#F7931A" stroke-opacity="0.2"/>
<path d="M567.172 -375.23H543.172V741H567.172V-375.23Z" stroke="#F7931A" stroke-opacity="0.2"/>
<path d="M591.172 -375.23H567.172V741H591.172V-375.23Z" stroke="#F7931A" stroke-opacity="0.2"/>
<path d="M615.172 -375.23H591.172V741H615.172V-375.23Z" stroke="#F7931A" stroke-opacity="0.2"/>
<path d="M639.172 -375.23H615.172V741H639.172V-375.23Z" stroke="#F7931A" stroke-opacity="0.2"/>
<path d="M663.172 -375.23H639.172V741H663.172V-375.23Z" stroke="#F7931A" stroke-opacity="0.2"/>
<path d="M687.172 -375.23H663.172V741H687.172V-375.23Z" stroke="#F7931A" stroke-opacity="0.2"/>
<path d="M711.172 -375.23H687.172V741H711.172V-375.23Z" stroke="#F7931A" stroke-opacity="0.2"/>
<path d="M735.172 -375.23H711.172V741H735.172V-375.23Z" stroke="#F7931A" stroke-opacity="0.2"/>
<path d="M759.172 -375.23H735.172V741H759.172V-375.23Z" stroke="#F7931A" stroke-opacity="0.2"/>
<path d="M783.172 -375.23H759.172V741H783.172V-375.23Z" stroke="#F7931A" stroke-opacity="0.2"/>
<path d="M807.172 -375.23H783.172V741H807.172V-375.23Z" stroke="#F7931A" stroke-opacity="0.2"/>
<path d="M831.172 -375.23H807.172V741H831.172V-375.23Z" stroke="#F7931A" stroke-opacity="0.2"/>
<path d="M855.172 -375.23H831.172V741H855.172V-375.23Z" stroke="#F7931A" stroke-opacity="0.2"/>
<path d="M879.172 -375.23H855.172V741H879.172V-375.23Z" stroke="#F7931A" stroke-opacity="0.2"/>
<path d="M903.172 -375.23H879.172V741H903.172V-375.23Z" stroke="#F7931A" stroke-opacity="0.2"/>
<path d="M-57.0001 -18.1387V5.86133L1383 5.86133V-18.1387L-57.0001 -18.1387Z" stroke="#F7931A" stroke-opacity="0.2"/>
<path d="M-57.0001 5.86133V29.8613L1383 29.8613V5.86133L-57.0001 5.86133Z" stroke="#F7931A" stroke-opacity="0.2"/>
<path d="M-57.0001 29.8613V53.8613L1383 53.8613V29.8613L-57.0001 29.8613Z" stroke="#F7931A" stroke-opacity="0.2"/>
<path d="M-57.0001 53.8613V77.8613L1383 77.8613V53.8613L-57.0001 53.8613Z" stroke="#F7931A" stroke-opacity="0.2"/>
<path d="M-57.0001 77.8613V101.861L1383 101.861V77.8613L-57.0001 77.8613Z" stroke="#F7931A" stroke-opacity="0.2"/>
<path d="M-57.0001 101.861V125.861L1383 125.861V101.861L-57.0001 101.861Z" stroke="#F7931A" stroke-opacity="0.2"/>
<path d="M-57.0001 125.861V149.861L1383 149.861V125.861L-57.0001 125.861Z" stroke="#F7931A" stroke-opacity="0.2"/>
<path d="M-57.0001 149.861V173.861L1383 173.861V149.861L-57.0001 149.861Z" stroke="#F7931A" stroke-opacity="0.2"/>
<path d="M-57.0001 173.861V197.861L1383 197.861V173.861L-57.0001 173.861Z" stroke="#F7931A" stroke-opacity="0.2"/>
<path d="M-57.0001 197.861V221.861L1383 221.861V197.861L-57.0001 197.861Z" stroke="#F7931A" stroke-opacity="0.2"/>
<path d="M-57.0001 221.861V245.861L1383 245.861V221.861L-57.0001 221.861Z" stroke="#F7931A" stroke-opacity="0.2"/>
<path d="M-57.0001 245.861V269.861L1383 269.861V245.861L-57.0001 245.861Z" stroke="#F7931A" stroke-opacity="0.2"/>
<path d="M-57.0001 269.861V293.861L1383 293.861V269.861L-57.0001 269.861Z" stroke="#F7931A" stroke-opacity="0.2"/>
<path d="M-57.0001 293.861V317.861L1383 317.861V293.861L-57.0001 293.861Z" stroke="#F7931A" stroke-opacity="0.2"/>
<path d="M-57.0001 317.861V341.861L1383 341.861V317.861L-57.0001 317.861Z" stroke="#F7931A" stroke-opacity="0.2"/>
<path d="M-57.0001 341.861V365.861L1383 365.861V341.861L-57.0001 341.861Z" stroke="#F7931A" stroke-opacity="0.2"/>
<circle cx="803.88" cy="105.88" r="154.23" stroke="#F7931A" stroke-width="29.3"/>
<path d="M874.568 83.9673C877.74 63.4445 861.597 52.4118 839.523 45.0519L846.684 17.2511L829.201 13.0337L822.23 40.1019C817.634 38.9934 812.914 37.9475 808.223 36.9112L815.244 9.66462L797.772 5.44727L790.607 33.2384C786.802 32.3998 783.068 31.5709 779.443 30.6985L779.463 30.6117L755.353 24.7844L750.702 42.8588C750.702 42.8588 763.674 45.7363 763.4 45.9146C770.48 47.6257 771.76 52.1611 771.546 55.7567L763.39 87.4279C763.878 87.5484 764.51 87.722 765.207 87.9919C764.625 87.8521 764.002 87.6978 763.36 87.5484L751.927 131.915C751.061 133.997 748.865 137.12 743.916 135.935C744.09 136.181 731.208 132.865 731.208 132.865L722.529 152.236L745.28 157.725C749.512 158.752 753.66 159.827 757.743 160.839L750.508 188.958L767.971 193.175L775.136 165.355C779.906 166.608 784.537 167.765 789.068 168.854L781.928 196.544L799.41 200.762L806.645 172.696C836.456 178.157 858.873 175.954 868.309 149.854C875.912 128.84 867.93 116.718 852.245 108.814C863.668 106.264 872.272 98.9908 874.568 83.9673ZM834.624 138.186C829.221 159.2 792.668 147.84 780.817 144.991L790.417 107.739C802.268 110.602 840.27 116.27 834.624 138.186ZM840.031 83.6636C835.102 102.779 804.678 93.0671 794.809 90.6861L803.513 56.8991C813.382 59.2801 845.165 63.7239 840.031 83.6636Z" fill="#F7931A"/>
</g>
</g>
</g>
<defs>
<linearGradient id="paint0_linear_1631_17145" x1="1110.34" y1="-81.4536" x2="769.537" y2="414.723" gradientUnits="userSpaceOnUse">
<stop stop-color="white"/>
<stop offset="1" stop-color="white"/>
</linearGradient>
<clipPath id="clip0_1631_17145">
<rect width="893" height="359" fill="white"/>
</clipPath>
</defs>
</svg>
