<svg width="1440" height="224" viewBox="0 0 1440 224" fill="none" xmlns="http://www.w3.org/2000/svg">
<path d="M-63.8384 202.747L185.021 94.4769L364.939 202.026L676.529 229.164L1098.68 122.62L1314.78 45.2256" stroke="#D1D1D1" stroke-width="1.00513"/>
<path d="M316.693 14.0667L183.011 95.482" stroke="#D1D1D1" stroke-width="1.00513"/>
<path d="M-66 87.2454L-26.0458 50.1795L184.026 98.4256L43.3081 292.415L362.939 201.954L313.688 15L673.523 232.108L779.062 93.4L1097.69 122.549L1401.24 243.164L1311.78 45.1538L1508.79 15L1541.98 53.5053" stroke="#D1D1D1" stroke-width="1.00513"/>
<path d="M1509.78 15.0718L1401.23 242.231L1278.6 287.462L1100.69 121.615L962.99 283.441" stroke="#D1D1D1" stroke-width="1.00513"/>
<path d="M313.303 17.082C315.246 17.082 316.821 15.507 316.821 13.5641C316.821 11.6212 315.246 10.0461 313.303 10.0461C311.36 10.0461 309.785 11.6212 309.785 13.5641C309.785 15.507 311.36 17.082 313.303 17.082Z" fill="#FF7E00"/>
<path d="M313.302 26.1282C320.241 26.1282 325.866 20.5031 325.866 13.5641C325.866 6.62514 320.241 1 313.302 1C306.363 1 300.738 6.62514 300.738 13.5641C300.738 20.5031 306.363 26.1282 313.302 26.1282Z" stroke="#FF7E00" stroke-width="1.00513"/>
<path d="M181.631 100.508C184.684 100.508 187.159 98.0325 187.159 94.9794C187.159 91.9262 184.684 89.4512 181.631 89.4512C178.578 89.4512 176.103 91.9262 176.103 94.9794C176.103 98.0325 178.578 100.508 181.631 100.508Z" fill="#FF7E00"/>
<path d="M181.631 112.569C191.345 112.569 199.221 104.694 199.221 94.9794C199.221 85.2648 191.345 77.3896 181.631 77.3896C171.916 77.3896 164.041 85.2648 164.041 94.9794C164.041 104.694 171.916 112.569 181.631 112.569Z" stroke="#FF7E00" stroke-width="1.00513"/>
<path d="M674.143 248.262C683.858 248.262 691.733 240.386 691.733 230.672C691.733 220.957 683.858 213.082 674.143 213.082C664.429 213.082 656.554 220.957 656.554 230.672C656.554 240.386 664.429 248.262 674.143 248.262Z" stroke="#FF7E00" stroke-width="1.00513"/>
<path d="M1311.4 50.2512C1314.45 50.2512 1316.92 47.7762 1316.92 44.723C1316.92 41.6699 1314.45 39.1948 1311.4 39.1948C1308.34 39.1948 1305.87 41.6699 1305.87 44.723C1305.87 47.7762 1308.34 50.2512 1311.4 50.2512Z" fill="#FF7E00"/>
<path d="M1311.39 62.3128C1321.11 62.3128 1328.98 54.4376 1328.98 44.723C1328.98 35.0085 1321.11 27.1333 1311.39 27.1333C1301.68 27.1333 1293.8 35.0085 1293.8 44.723C1293.8 54.4376 1301.68 62.3128 1311.39 62.3128Z" stroke="#FF7E00" stroke-width="1.00513"/>
<path d="M1100.56 125.082C1102.51 125.082 1104.08 123.507 1104.08 121.564C1104.08 119.621 1102.51 118.046 1100.56 118.046C1098.62 118.046 1097.05 119.621 1097.05 121.564C1097.05 123.507 1098.62 125.082 1100.56 125.082Z" fill="#C4C4C4"/>
<path d="M1100.56 134.128C1107.5 134.128 1113.13 128.503 1113.13 121.564C1113.13 114.625 1107.5 109 1100.56 109C1093.63 109 1088 114.625 1088 121.564C1088 128.503 1093.63 134.128 1100.56 134.128Z" stroke="#CACACA" stroke-width="1.00513"/>
<path d="M361.549 204.036C363.492 204.036 365.067 202.461 365.067 200.518C365.067 198.575 363.492 197 361.549 197C359.606 197 358.031 198.575 358.031 200.518C358.031 202.461 359.606 204.036 361.549 204.036Z" fill="#FF7E00"/>
<path d="M361.548 213.082C368.487 213.082 374.113 207.457 374.113 200.518C374.113 193.579 368.487 187.954 361.548 187.954C354.61 187.954 348.984 193.579 348.984 200.518C348.984 207.457 354.61 213.082 361.548 213.082Z" stroke="#FF7E00" stroke-width="1.00513"/>
<path d="M777.671 95.4819C779.614 95.4819 781.189 93.9069 781.189 91.964C781.189 90.0211 779.614 88.446 777.671 88.446C775.728 88.446 774.153 90.0211 774.153 91.964C774.153 93.9069 775.728 95.4819 777.671 95.4819Z" fill="#FF7E00"/>
<path d="M777.672 104.528C784.61 104.528 790.236 98.903 790.236 91.964C790.236 85.025 784.61 79.3999 777.672 79.3999C770.733 79.3999 765.107 85.025 765.107 91.964C765.107 98.903 770.733 104.528 777.672 104.528Z" stroke="#FF7E00" stroke-width="1.00513"/>
</svg>
