<svg width="397" height="344" viewBox="0 0 397 344" fill="none" xmlns="http://www.w3.org/2000/svg">
<g opacity="0.1">
<rect y="-183" width="527" height="527" rx="263.5" fill="#F6931A"/>
<path d="M360.059 89.9617C364.988 92.5722 369.682 95.604 374.089 99.0231C389.472 111.221 395.975 127.082 393.499 146.526C391.861 160.945 386.765 174.756 378.644 186.783C368.658 201.291 354.48 209.131 337.38 212.069C323.202 214.512 309.041 213.72 294.895 211.822C289.746 211.145 284.629 210.27 279.529 209.329C277.878 209.016 277.366 209.544 276.987 211.112C273.092 226.99 269.048 242.835 265.185 258.73C264.641 260.975 263.98 261.371 261.719 260.76C252.79 258.35 243.778 256.155 234.782 253.993C233.132 253.63 232.95 253.168 233.33 251.616C237.324 235.837 241.203 220.025 245.214 204.246C245.659 202.463 245.494 201.72 243.563 201.258C236.598 199.542 229.655 197.726 222.733 195.811C220.967 195.316 220.456 195.811 220.043 197.462C216.148 213.34 212.12 229.202 208.242 245.08C207.796 246.863 207.284 247.16 205.518 246.731C196.429 244.376 187.302 242.104 178.136 239.914C176.485 239.518 176.254 238.825 176.634 237.257C180.661 221.329 184.556 205.368 188.617 189.391C189.145 187.327 188.716 186.651 186.702 186.09C166.895 181.138 147.237 176.186 127.497 171.235C126.094 170.888 125.665 170.541 126.325 169.056C131.144 158.052 135.904 147.049 140.602 136.045C141.196 134.642 141.939 134.675 143.193 135.022C149.994 136.804 156.777 138.653 163.627 140.171C172.177 142.07 177.228 138.719 179.34 130.268C185.844 104.178 192.358 78.0942 198.883 52.0156C203.835 32.209 208.786 12.4024 213.738 -7.40414C215.735 -15.4258 211.526 -23.1504 203.29 -26.3195C196.874 -28.505 190.325 -30.2747 183.681 -31.6176C181.734 -32.0963 179.803 -32.608 177.838 -32.9711C176.766 -33.1692 176.617 -33.5818 176.865 -34.6217C179.456 -44.9046 182.047 -55.1875 184.54 -65.5034C184.969 -67.3521 186.075 -66.7578 187.082 -66.5102C194.905 -64.5791 202.696 -62.5655 210.536 -60.6508C222.387 -57.7789 234.139 -54.4613 246.056 -51.8039C248.02 -51.3583 248.762 -51.6059 249.274 -53.6856C253.07 -69.3493 257.032 -85.0459 260.828 -100.627C261.307 -102.591 261.901 -103.152 263.964 -102.608C272.91 -100.231 281.905 -98.0027 290.901 -95.857C292.799 -95.3949 292.981 -94.6686 292.551 -92.9025C288.623 -77.4369 284.81 -61.9382 280.899 -46.4726C280.486 -44.822 280.651 -44.3434 282.401 -43.9473C289.399 -42.4123 296.397 -40.7617 303.346 -38.9956C305.343 -38.4675 305.904 -39.1112 306.35 -40.8938C310.047 -56.0128 313.844 -71.0988 317.524 -86.2178C318.036 -88.2975 318.614 -89.0402 320.99 -88.3965C329.837 -86.0032 338.767 -83.8245 347.68 -81.6953C349.429 -81.2827 349.776 -80.705 349.33 -78.9389C345.336 -63.1597 341.49 -47.3474 337.446 -31.5847C336.935 -29.571 337.446 -28.9768 339.229 -28.2836C351.615 -24.249 363.405 -18.5759 374.287 -11.4151C384.504 -4.43324 392.971 4.08362 397.559 15.852C402.511 28.7428 401.537 41.7161 397.675 54.6234C392.228 72.9004 380.251 84.4543 361.743 89.2849C361.115 89.3839 360.703 89.615 360.059 89.9617ZM288.326 167.867H290.472C298.196 167.62 305.789 166.778 312.837 163.361C330.646 154.713 334.459 131.011 320.396 116.585C312.143 108.167 301.877 103.381 291.132 99.3862C277.928 94.4346 264.014 91.5957 250.281 88.2781C248.284 87.7994 247.904 88.4266 247.492 90.1101C242.133 111.886 236.708 133.641 231.217 155.373C230.772 157.122 231.316 157.552 232.868 157.915C238.76 159.334 244.603 160.935 250.496 162.371C262.857 165.561 275.533 167.377 288.293 167.785L288.326 167.867ZM302.554 64.5432C306.795 64.6181 311.032 64.2529 315.197 63.4538C326.206 61.143 334.162 55.2011 337.364 44.0929C340.566 32.9847 337.942 22.966 329.111 14.9443C324.429 10.8183 319.112 7.47426 313.365 5.04106C300.54 -0.686345 286.857 -3.55841 273.224 -6.62843C271.573 -7.00805 271.441 -5.98459 271.16 -4.84571C269.18 3.12093 267.183 11.0931 265.169 19.0707C262.28 30.6245 259.408 42.2939 256.437 53.8807C256.008 55.5313 256.289 56.2574 258.088 56.6535C261.521 57.3798 264.872 58.4197 268.288 59.2615C279.545 61.9024 290.851 64.4113 302.521 64.4608L302.554 64.5432Z" fill="white"/>
</g>
</svg>
