<svg width="347" height="383" viewBox="0 0 347 383" fill="none" xmlns="http://www.w3.org/2000/svg">
<g opacity="0.32">
<g clip-path="url(#clip0_242_7153)">
<path d="M342.294 -46.6394H89.7036C41.4647 -46.6394 2.35938 -7.53405 2.35938 40.7049V293.295C2.35938 341.534 41.4647 380.639 89.7036 380.639H342.294C390.533 380.639 429.638 341.534 429.638 293.295V40.7049C429.638 -7.53405 390.533 -46.6394 342.294 -46.6394Z" fill="url(#paint0_linear_242_7153)"/>
<path d="M272.22 52.5081L106.229 286.194H157.192L324.044 52.5081H272.22Z" fill="white"/>
<path d="M162.501 52.5081L211.341 121.367L185.859 158.927L110.477 52.5081H162.501Z" fill="url(#paint1_linear_242_7153)"/>
<path d="M277.167 286.213L223.02 210.051L248.501 173.534L328.131 286.213H277.167Z" fill="url(#paint2_linear_242_7153)"/>
<path d="M342.294 -46.6394H89.7036C41.4647 -46.6394 2.35938 -7.53405 2.35938 40.7049V293.295C2.35938 341.534 41.4647 380.639 89.7036 380.639H342.294C390.533 380.639 429.638 341.534 429.638 293.295V40.7049C429.638 -7.53405 390.533 -46.6394 342.294 -46.6394Z" stroke="#2D2D3D" stroke-width="8.64"/>
</g>
</g>
<defs>
<linearGradient id="paint0_linear_242_7153" x1="348.195" y1="-106.836" x2="243.146" y2="329.885" gradientUnits="userSpaceOnUse">
<stop stop-color="#2C2C3D"/>
<stop offset="1" stop-color="#1A1A27"/>
</linearGradient>
<linearGradient id="paint1_linear_242_7153" x1="150.822" y1="67.1146" x2="219.293" y2="151.232" gradientUnits="userSpaceOnUse">
<stop stop-color="white"/>
<stop offset="1" stop-color="white" stop-opacity="0.55"/>
</linearGradient>
<linearGradient id="paint2_linear_242_7153" x1="288.847" y1="268.477" x2="204.875" y2="153.276" gradientUnits="userSpaceOnUse">
<stop stop-color="#6966FF"/>
<stop offset="1" stop-color="#6966FF" stop-opacity="0.36"/>
</linearGradient>
<clipPath id="clip0_242_7153">
<rect y="-49" width="432" height="432" rx="216" fill="white"/>
</clipPath>
</defs>
</svg>
