<svg width="397" height="344" viewBox="0 0 397 344" fill="none" xmlns="http://www.w3.org/2000/svg">
<g opacity="0.1">
<path d="M527 80.5C527 226.027 409.03 344 263.5 344C117.97 344 0 226.027 0 80.5C0 -65.027 117.97 -183 263.5 -183C409.03 -183 527 -65.027 527 80.5Z" fill="white"/>
<path d="M258.3 -143.475L255.28 -133.117V167.425L258.3 170.467L396.52 88.0044L258.3 -143.475Z" fill="#343434"/>
<path d="M258.27 -143.475L120.04 88.0044L258.27 170.467V24.5926V-143.475Z" fill="#8C8C8C"/>
<path d="M258.3 196.893L256.6 198.988V306.046L258.3 311.063L396.61 114.472L258.3 196.893Z" fill="#3C3C3B"/>
<path d="M258.27 311.063V196.893L120.04 114.472L258.27 311.063Z" fill="#8C8C8C"/>
<path d="M258.35 170.462L396.57 87.9996L258.35 24.5878V170.462Z" fill="#141414"/>
<path d="M120.04 88.0045L258.27 170.467V24.5927L120.04 88.0045Z" fill="#393939"/>
</g>
</svg>
