<svg width="353" height="394" viewBox="0 0 353 394" fill="none" xmlns="http://www.w3.org/2000/svg">
<g opacity="0.23">
<path d="M389.428 47.1891C385.155 31.0033 371.422 14.8175 346.702 -3.20066C326.866 -17.5541 305.808 -25.7997 289.023 -25.7997C285.666 -25.7997 282.615 -25.4943 279.563 -24.8835C271.933 -23.3566 265.219 -17.8595 260.947 -9.61392C255.759 0.158644 254.538 13.2905 257.895 21.2308C259.116 23.6739 260.642 26.7278 262.473 29.4763C246.298 39.2489 237.143 41.9974 235.922 42.3028C278.037 56.3509 313.133 85.6686 335.106 123.843L335.411 120.178C336.326 110.1 339.378 98.4951 343.651 86.5847C347.923 87.8063 352.196 88.4171 356.468 88.4171C367.76 88.4171 377.526 83.8362 383.629 75.5906C389.733 67.345 392.174 56.3509 389.428 47.1891Z" fill="#5E12A0"/>
<path d="M345.446 77.736C373.218 85.3708 384.509 63.9933 380.847 49.6398C376.88 35.2864 364.062 20.6275 341.479 4.13632C318.895 -12.3549 296.007 -19.0735 281.358 -16.0196C266.71 -12.9657 262.437 9.32799 266.099 17.879C267.625 21.2383 270.982 26.1246 275.56 31.6217C269.761 35.5918 264.268 38.6457 259.69 41.3942C287.767 53.9153 312.181 73.4604 330.492 97.8918C332.629 89.6462 335.68 82.3168 338.427 75.9036C340.563 76.209 343.005 76.8198 345.446 77.736Z" fill="url(#paint0_radial_11_3605)"/>
<path d="M186.464 377.017C280.682 377.017 357.06 300.586 357.06 206.303C357.06 112.02 280.682 35.5881 186.464 35.5881C92.2466 35.5881 15.8682 112.02 15.8682 206.303C15.8682 300.586 92.2466 377.017 186.464 377.017Z" fill="url(#paint1_radial_11_3605)"/>
<path opacity="0.6" d="M366.823 35.573C343.629 11.1416 324.098 4.72834 300.599 -0.463331C282.288 -4.73883 287.171 -15.1222 309.449 -12.9844C298.768 -16.6491 288.697 -17.5653 281.373 -16.0383C266.724 -12.9844 262.451 9.30923 266.113 17.8602C267.639 21.2195 270.996 26.1058 275.574 31.6029C267.334 37.1 260.315 41.0701 254.517 44.124C257.263 45.3456 260.62 46.8725 264.588 49.0103C274.964 54.5073 286.255 63.6691 286.255 63.6691C269.165 49.0103 272.827 42.2916 296.326 25.8004C303.651 20.6088 317.079 21.2195 329.591 27.6328C342.103 34.046 356.752 50.2319 356.752 50.2319L342.714 77.1064C343.629 77.4118 344.545 77.7172 345.46 78.0226C354.311 80.4657 361.33 79.8549 366.823 77.7172C373.232 73.7471 390.017 60.3098 366.823 35.573Z" fill="#A98698"/>
<path d="M300.296 14.1842C306.399 16.6274 314.334 20.9029 324.1 27.3161C335.697 34.9509 345.768 43.5019 352.176 50.2206C341.495 64.2686 334.476 83.5084 330.203 96.9456C332.34 99.9996 334.781 103.053 336.917 106.107C339.054 98.4726 342.716 87.1731 347.599 75.8735C348.819 76.1789 350.345 76.1789 351.871 76.1789C355.533 76.1789 359.806 75.5681 363.163 72.8196C365.604 70.9872 368.351 67.6279 368.046 61.5201C368.046 55.7176 363.468 48.3882 354.008 39.5318C347.294 33.1186 338.138 26.0946 328.983 19.6813C302.737 2.27393 284.426 -2.61237 276.186 5.63323C270.693 11.1303 271.304 17.849 273.135 22.7352C263.369 29.1485 255.129 33.7293 249.636 36.7833C253.298 38.0048 256.655 39.5318 260.317 41.0588C270.083 35.8671 284.121 27.0107 300.296 14.1842ZM357.975 57.8554C358.89 59.3823 359.196 60.9093 359.196 61.8255C359.196 64.574 358.28 65.4902 357.67 66.101C356.449 67.0172 354.008 67.6279 351.871 67.6279C353.702 63.9632 355.839 60.9093 357.975 57.8554ZM282.595 12.3519C283.511 11.4357 285.952 10.8249 289.92 11.4357C286.868 13.8788 283.816 16.0166 280.764 18.1543C280.459 16.0166 280.764 13.8788 282.595 12.3519Z" fill="#5E12A0"/>
<path d="M186.46 25.5066C86.6658 25.5066 5.79297 106.436 5.79297 206.299C5.79297 306.162 86.6658 387.091 186.46 387.091C286.254 387.091 367.127 306.162 367.127 206.299C367.127 106.436 285.949 25.5066 186.46 25.5066ZM186.46 377.013C92.1591 377.013 15.8639 300.665 15.8639 206.299C15.8639 111.933 92.1591 35.5846 186.46 35.5846C280.761 35.5846 357.056 111.933 357.056 206.299C357.056 300.665 280.456 377.013 186.46 377.013Z" fill="#5E12A0"/>
<path opacity="0.6" d="M186.456 377.018C280.674 377.018 357.052 300.587 357.052 206.304C357.052 112.021 280.674 35.5893 186.456 35.5893C92.2388 35.5893 15.8604 112.021 15.8604 206.304C15.8604 300.587 92.2388 377.018 186.456 377.018Z" fill="url(#paint2_linear_11_3605)"/>
<path opacity="0.6" d="M185.273 356.225C92.1929 341.26 29.0205 253.613 44.2796 160.468C50.9935 119.24 71.7458 84.1199 101.043 58.7723C58.3179 83.5091 26.5791 126.569 18.034 179.097C3.08017 272.242 66.2526 359.889 159.027 374.854C210.908 383.405 260.958 367.219 297.885 335.458C265.23 354.392 225.557 362.638 185.273 356.225Z" fill="#A98698"/>
<path opacity="0.6" d="M213.626 38.0117C170.595 30.9876 128.785 40.7602 94.605 62.4431C93.9947 63.0539 93.3843 63.6646 93.3843 63.6646C106.507 55.7244 125.733 48.7004 125.733 48.7004C76.2942 77.4073 61.0352 110.084 61.0352 110.084C80.2615 72.8264 136.72 46.5627 180.971 44.7303C225.222 42.8979 254.215 56.0298 289.615 84.4313C325.016 113.138 346.379 171.774 344.243 218.193C342.412 264.613 317.997 302.176 317.997 302.176C334.782 280.493 344.853 264.613 351.262 248.427C352.483 243.541 353.703 238.655 354.314 233.463C369.573 140.624 306.706 52.9759 213.626 38.0117Z" fill="url(#paint3_linear_11_3605)"/>
<path d="M348.508 204.757C348.508 294.237 275.875 366.92 186.457 366.92C97.0388 366.92 24.1006 294.237 24.1006 204.757H348.508Z" fill="url(#paint4_linear_11_3605)"/>
<g opacity="0.6">
<path opacity="0.6" d="M335.684 204.783C335.684 292.126 266.713 363.587 180.042 366.947C182.178 366.947 184.314 366.947 186.451 366.947C275.869 366.947 348.502 294.263 348.502 204.783H335.684Z" fill="url(#paint5_linear_11_3605)"/>
</g>
<g opacity="0.7">
<path d="M46.9891 204.783H24.1006C24.1006 294.263 96.7336 366.947 186.152 366.947C190.119 366.947 193.781 366.947 197.443 366.641C113.519 360.534 46.9891 290.293 46.9891 204.783Z" fill="url(#paint6_linear_11_3605)"/>
</g>
<path d="M348.202 206.293C348.202 187.664 315.853 176.975 272.823 173.311C241.694 170.868 210.261 173.921 174.249 184.916C143.121 194.077 115.044 192.55 94.5973 190.107C49.1254 184.916 24.1006 184.305 24.1006 206.293C24.1006 238.054 88.7989 277.755 185.846 264.012C234.98 256.988 260.31 242.635 289.303 232.862C320.736 222.479 348.202 222.784 348.202 206.293Z" fill="url(#paint7_linear_11_3605)"/>
<path d="M239.584 129.333C254.754 129.333 267.051 117.028 267.051 101.848C267.051 86.6684 254.754 74.3628 239.584 74.3628C224.415 74.3628 212.118 86.6684 212.118 101.848C212.118 117.028 224.415 129.333 239.584 129.333Z" fill="white"/>
<path d="M284.403 149.784C290.807 149.784 295.999 144.588 295.999 138.179C295.999 131.77 290.807 126.574 284.403 126.574C277.998 126.574 272.806 131.77 272.806 138.179C272.806 144.588 277.998 149.784 284.403 149.784Z" fill="white"/>
<g opacity="0.6">
<path d="M325.939 79.847C325.634 79.847 325.329 79.847 325.329 79.847C323.497 79.5416 322.277 77.7093 322.582 75.5715C325.329 61.5235 336.925 48.0862 337.536 47.4754C338.756 45.9484 341.198 45.9485 342.419 47.17C343.945 48.3916 343.945 50.8347 342.724 52.0563C342.419 52.3617 331.737 64.8828 329.296 77.0985C328.991 78.9309 327.465 79.847 325.939 79.847Z" fill="url(#paint8_linear_11_3605)"/>
</g>
<path d="M289.006 -25.8083C306.096 -25.8083 327.154 -17.5627 346.685 -3.20925C371.405 14.8089 385.138 30.6893 389.411 47.1805C391.852 56.6477 389.716 67.3364 383.612 75.2766C377.203 83.5222 367.743 88.1031 356.451 88.1031C352.484 88.1031 348.211 87.4924 343.633 86.2708C340.887 93.2948 338.751 100.319 337.225 107.037C355.841 135.439 366.827 169.643 366.827 206.29C366.827 306.153 285.954 387.083 186.16 387.083C86.3661 387.083 5.79844 306.153 5.79844 206.29C5.79844 106.427 86.6713 25.4976 186.465 25.4976C208.438 25.4976 229.496 29.4677 249.027 36.7971C252.69 34.9648 257.267 32.5217 262.455 29.4678C260.624 26.7192 258.793 23.9707 257.878 21.2222C254.521 12.9766 255.741 0.150047 260.93 -9.62252C265.202 -17.5627 271.611 -23.0598 279.546 -24.8921C282.292 -25.5029 285.649 -25.8083 289.006 -25.8083ZM289.006 -31C285.344 -31 281.682 -30.6946 278.325 -29.7784C269.169 -27.6407 261.235 -21.5328 256.047 -11.7603C250.248 -0.460728 248.722 14.1981 252.69 23.6653C253.3 24.8869 253.91 26.4138 254.826 27.9408C252.69 29.1624 250.553 30.3839 248.417 31.3001C228.275 24.2761 207.523 20.6114 186.16 20.6114C161.135 20.6114 136.721 25.4976 113.832 35.2702C91.5542 44.7374 71.7175 58.1747 54.6273 75.2766C37.5372 92.3786 24.1093 112.229 14.6487 134.523C4.8829 157.427 0 181.859 0 206.901C0 231.943 4.8829 256.374 14.6487 279.279C24.1093 301.573 37.5372 321.423 54.6273 338.525C71.7175 355.627 91.5542 369.064 113.832 378.532C136.721 388.304 161.135 393.19 186.16 393.19C211.185 393.19 235.599 388.304 258.488 378.532C280.766 369.064 300.603 355.627 317.693 338.525C334.783 321.423 348.211 301.573 357.672 279.279C367.438 256.374 372.32 231.943 372.32 206.901C372.32 171.17 362.249 136.661 343.023 106.732C343.939 102.151 345.465 97.5703 346.99 92.9894C350.042 93.6002 353.399 93.9056 356.451 93.9056C369.269 93.9056 380.56 88.7139 387.885 78.9413C394.904 69.7796 397.65 56.9531 394.599 46.2643C389.716 28.5516 375.677 11.755 349.737 -6.87398C329.29 -22.449 307.012 -31 289.006 -31Z" fill="white"/>
<path opacity="0.2" d="M175.161 333.649C179.881 333.649 183.706 329.821 183.706 325.098C183.706 320.375 179.881 316.547 175.161 316.547C170.442 316.547 166.616 320.375 166.616 325.098C166.616 329.821 170.442 333.649 175.161 333.649Z" fill="white"/>
<g opacity="0.4">
<path opacity="0.6" d="M170.284 330.599C166.927 327.239 166.927 321.742 170.284 318.383C170.895 317.772 171.505 317.467 172.115 316.856C170.895 317.161 169.979 317.772 169.064 318.688C165.707 322.048 165.707 327.545 169.064 330.904C171.81 333.653 176.083 334.263 179.44 332.431C176.388 333.653 172.726 333.042 170.284 330.599Z" fill="url(#paint9_linear_11_3605)"/>
</g>
<path opacity="0.3" d="M178.231 322.663C179.243 322.663 180.063 321.843 180.063 320.831C180.063 319.819 179.243 318.999 178.231 318.999C177.22 318.999 176.4 319.819 176.4 320.831C176.4 321.843 177.22 322.663 178.231 322.663Z" fill="white"/>
<path opacity="0.2" d="M219.745 329.378C224.465 329.378 228.29 325.549 228.29 320.827C228.29 316.104 224.465 312.276 219.745 312.276C215.026 312.276 211.2 316.104 211.2 320.827C211.2 325.549 215.026 329.378 219.745 329.378Z" fill="white"/>
<g opacity="0.4">
<path opacity="0.6" d="M214.867 326.316C211.51 322.957 211.51 317.46 214.867 314.101C215.478 313.49 216.088 313.184 216.698 312.574C215.478 312.879 214.562 313.49 213.647 314.406C210.29 317.765 210.29 323.262 213.647 326.622C216.393 329.37 220.666 329.981 224.023 328.149C220.971 329.37 217.309 328.759 214.867 326.316Z" fill="url(#paint10_linear_11_3605)"/>
</g>
<path opacity="0.3" d="M222.788 318.392C223.799 318.392 224.619 317.572 224.619 316.56C224.619 315.548 223.799 314.728 222.788 314.728C221.777 314.728 220.957 315.548 220.957 316.56C220.957 317.572 221.777 318.392 222.788 318.392Z" fill="white"/>
<path opacity="0.2" d="M197.756 349.213C201.296 349.213 204.165 346.342 204.165 342.8C204.165 339.258 201.296 336.387 197.756 336.387C194.217 336.387 191.348 339.258 191.348 342.8C191.348 346.342 194.217 349.213 197.756 349.213Z" fill="white"/>
<g opacity="0.4">
<path opacity="0.6" d="M194.094 346.763C191.653 344.32 191.653 340.044 194.094 337.601C194.399 337.296 195.01 336.99 195.315 336.685C194.4 336.99 193.789 337.601 193.179 338.212C190.737 340.655 190.737 344.931 193.179 347.374C195.315 349.512 198.367 349.817 201.113 348.29C198.672 349.206 195.925 348.595 194.094 346.763Z" fill="url(#paint11_linear_11_3605)"/>
</g>
<path opacity="0.3" d="M199.896 340.651C200.57 340.651 201.116 340.104 201.116 339.429C201.116 338.754 200.57 338.208 199.896 338.208C199.221 338.208 198.675 338.754 198.675 339.429C198.675 340.104 199.221 340.651 199.896 340.651Z" fill="white"/>
<path opacity="0.2" d="M237.171 344.644C240.71 344.644 243.579 341.772 243.579 338.23C243.579 334.688 240.71 331.817 237.171 331.817C233.631 331.817 230.762 334.688 230.762 338.23C230.762 341.772 233.631 344.644 237.171 344.644Z" fill="white"/>
<g opacity="0.4">
<path opacity="0.6" d="M233.508 342.204C231.067 339.761 231.067 335.485 233.508 333.042C233.814 332.737 234.424 332.431 234.729 332.126C233.814 332.431 233.203 333.042 232.593 333.653C230.151 336.096 230.151 340.372 232.593 342.815C234.729 344.952 237.781 345.258 240.527 343.731C238.086 344.647 235.339 344.036 233.508 342.204Z" fill="url(#paint12_linear_11_3605)"/>
</g>
<path opacity="0.3" d="M239.31 336.081C239.984 336.081 240.53 335.534 240.53 334.86C240.53 334.185 239.984 333.638 239.31 333.638C238.635 333.638 238.089 334.185 238.089 334.86C238.089 335.534 238.635 336.081 239.31 336.081Z" fill="white"/>
<path opacity="0.2" d="M138.83 330.577C146.583 330.577 152.869 324.287 152.869 316.529C152.869 308.77 146.583 302.481 138.83 302.481C131.077 302.481 124.792 308.77 124.792 316.529C124.792 324.287 131.077 330.577 138.83 330.577Z" fill="white"/>
<g opacity="0.4">
<path opacity="0.6" d="M130.892 325.398C125.399 319.9 125.399 311.044 130.892 305.547C131.808 304.631 132.724 304.02 133.944 303.409C132.113 304.02 130.587 305.242 129.061 306.463C123.568 311.96 123.568 320.817 129.061 326.314C133.639 330.895 140.658 331.811 146.151 328.451C140.963 330.589 134.86 329.673 130.892 325.398Z" fill="url(#paint13_linear_11_3605)"/>
</g>
<path opacity="0.3" d="M143.704 312.254C145.39 312.254 146.756 310.887 146.756 309.201C146.756 307.514 145.39 306.147 143.704 306.147C142.019 306.147 140.652 307.514 140.652 309.201C140.652 310.887 142.019 312.254 143.704 312.254Z" fill="white"/>
<path opacity="0.2" d="M264.296 296.072C272.049 296.072 278.334 289.783 278.334 282.024C278.334 274.266 272.049 267.976 264.296 267.976C256.543 267.976 250.258 274.266 250.258 282.024C250.258 289.783 256.543 296.072 264.296 296.072Z" fill="white"/>
<g opacity="0.4">
<path opacity="0.6" d="M256.066 290.882C250.573 285.385 250.573 276.529 256.066 271.032C256.982 270.116 257.897 269.505 259.118 268.894C257.287 269.505 255.761 270.727 254.235 271.948C248.742 277.445 248.742 286.302 254.235 291.799C258.813 296.379 265.832 297.296 271.325 293.936C266.137 296.074 260.339 295.158 256.066 290.882Z" fill="url(#paint14_linear_11_3605)"/>
</g>
<path opacity="0.3" d="M269.151 277.75C270.837 277.75 272.203 276.383 272.203 274.696C272.203 273.009 270.837 271.642 269.151 271.642C267.466 271.642 266.1 273.009 266.1 274.696C266.1 276.383 267.466 277.75 269.151 277.75Z" fill="white"/>
</g>
<defs>
<radialGradient id="paint0_radial_11_3605" cx="0" cy="0" r="1" gradientUnits="userSpaceOnUse" gradientTransform="translate(375.281 30.3998) scale(136.399 136.493)">
<stop stop-color="#FFEAFF" stop-opacity="0.6"/>
<stop offset="0.6807" stop-color="#A087C9"/>
<stop offset="1" stop-color="#10002F"/>
</radialGradient>
<radialGradient id="paint1_radial_11_3605" cx="0" cy="0" r="1" gradientUnits="userSpaceOnUse" gradientTransform="translate(299.413 88.6086) scale(333.718 333.95)">
<stop stop-color="#FFEAFF" stop-opacity="0.6"/>
<stop offset="0.6807" stop-color="#A087C9"/>
<stop offset="1" stop-color="#10002F"/>
</radialGradient>
<linearGradient id="paint2_linear_11_3605" x1="159.091" y1="374.597" x2="213.731" y2="37.74" gradientUnits="userSpaceOnUse">
<stop stop-color="#81FFFF"/>
<stop offset="0.6202" stop-color="white" stop-opacity="0"/>
</linearGradient>
<linearGradient id="paint3_linear_11_3605" x1="306.691" y1="90.3456" x2="165.534" y2="219.771" gradientUnits="userSpaceOnUse">
<stop offset="0.2888" stop-color="white"/>
<stop offset="0.7796" stop-color="white" stop-opacity="0"/>
</linearGradient>
<linearGradient id="paint4_linear_11_3605" x1="24.2379" y1="285.744" x2="348.429" y2="285.744" gradientUnits="userSpaceOnUse">
<stop stop-color="#0002E9"/>
<stop offset="0.9952" stop-color="#FF00C7"/>
</linearGradient>
<linearGradient id="paint5_linear_11_3605" x1="363.769" y1="219.013" x2="187.198" y2="385.767" gradientUnits="userSpaceOnUse">
<stop offset="0.2888" stop-color="white"/>
<stop offset="0.7796" stop-color="white" stop-opacity="0"/>
</linearGradient>
<linearGradient id="paint6_linear_11_3605" x1="24.2379" y1="285.77" x2="197.678" y2="285.77" gradientUnits="userSpaceOnUse">
<stop stop-color="#000292"/>
<stop offset="0.9952" stop-color="#7D00C7"/>
</linearGradient>
<linearGradient id="paint7_linear_11_3605" x1="24.4555" y1="219.765" x2="348.211" y2="219.765" gradientUnits="userSpaceOnUse">
<stop stop-color="#000292"/>
<stop offset="0.9952" stop-color="#BE00C7"/>
</linearGradient>
<linearGradient id="paint8_linear_11_3605" x1="342.914" y1="45.9881" x2="319.622" y2="83.8118" gradientUnits="userSpaceOnUse">
<stop offset="0.2888" stop-color="white"/>
<stop offset="0.7796" stop-color="white" stop-opacity="0"/>
</linearGradient>
<linearGradient id="paint9_linear_11_3605" x1="166.537" y1="325.363" x2="179.449" y2="325.363" gradientUnits="userSpaceOnUse">
<stop offset="0.2888" stop-color="white"/>
<stop offset="0.7796" stop-color="white" stop-opacity="0"/>
</linearGradient>
<linearGradient id="paint10_linear_11_3605" x1="211.089" y1="321.023" x2="224.001" y2="321.023" gradientUnits="userSpaceOnUse">
<stop offset="0.2888" stop-color="white"/>
<stop offset="0.7796" stop-color="white" stop-opacity="0"/>
</linearGradient>
<linearGradient id="paint11_linear_11_3605" x1="191.308" y1="342.866" x2="201.001" y2="342.866" gradientUnits="userSpaceOnUse">
<stop offset="0.2888" stop-color="white"/>
<stop offset="0.7796" stop-color="white" stop-opacity="0"/>
</linearGradient>
<linearGradient id="paint12_linear_11_3605" x1="230.59" y1="338.295" x2="240.283" y2="338.295" gradientUnits="userSpaceOnUse">
<stop offset="0.2888" stop-color="white"/>
<stop offset="0.7796" stop-color="white" stop-opacity="0"/>
</linearGradient>
<linearGradient id="paint13_linear_11_3605" x1="124.801" y1="316.899" x2="145.887" y2="316.899" gradientUnits="userSpaceOnUse">
<stop offset="0.2888" stop-color="white"/>
<stop offset="0.7796" stop-color="white" stop-opacity="0"/>
</linearGradient>
<linearGradient id="paint14_linear_11_3605" x1="250.092" y1="282.374" x2="271.178" y2="282.374" gradientUnits="userSpaceOnUse">
<stop offset="0.2888" stop-color="white"/>
<stop offset="0.7796" stop-color="white" stop-opacity="0"/>
</linearGradient>
</defs>
</svg>
