<svg width="870" height="811" viewBox="0 0 870 811" fill="none" xmlns="http://www.w3.org/2000/svg">
<path d="M433.74 0.112116L433.741 0.112116C670.851 -1.57709 870.212 180.603 869.397 408.039C868.492 629.985 673.115 811.321 433.47 810.899C195.363 810.476 2.79029 630.239 0.618657 409.306C-1.55297 181.025 197.989 -0.647835 433.74 0.112116ZM435.733 704.826L435.732 704.726L435.733 704.826C611.478 704.235 755.364 570.806 755.544 406.097C755.726 241.134 612.112 106.268 435.822 106.015C258.901 105.761 115.105 239.613 114.2 404.406C113.203 573.342 261.709 705.08 435.733 704.826Z" stroke="url(#paint0_linear_73_5794)" stroke-width="0.200924"/>
<path d="M434.346 191.279L434.347 191.279C559.649 190.386 664.998 286.66 664.567 406.843C664.089 524.124 560.846 619.952 434.203 619.729C308.374 619.506 206.612 524.259 205.465 407.512C204.317 286.883 309.761 190.877 434.346 191.279ZM435.399 563.759C528.313 563.446 604.389 492.904 604.485 405.817C604.58 318.596 528.649 247.293 435.447 247.16C341.911 247.025 265.883 317.791 265.404 404.923C264.877 494.245 343.396 563.893 435.399 563.759Z" stroke="url(#paint1_linear_73_5794)" stroke-width="0.200924"/>
<defs>
<linearGradient id="paint0_linear_73_5794" x1="435" y1="811" x2="435" y2="-5.18136e-06" gradientUnits="userSpaceOnUse">
<stop offset="0.635" stop-color="white" stop-opacity="0"/>
<stop offset="1" stop-color="white"/>
</linearGradient>
<linearGradient id="paint1_linear_73_5794" x1="435.012" y1="619.83" x2="435.012" y2="191.172" gradientUnits="userSpaceOnUse">
<stop offset="0.635" stop-color="white" stop-opacity="0"/>
<stop offset="1" stop-color="white"/>
</linearGradient>
</defs>
</svg>
