<svg width="1320" height="582" viewBox="0 0 1320 582" fill="none" xmlns="http://www.w3.org/2000/svg">
<mask id="mask0_242_7859" style="mask-type:alpha" maskUnits="userSpaceOnUse" x="200" y="160" width="921" height="222">
<path opacity="0.7" fill-rule="evenodd" clip-rule="evenodd" d="M223.868 184.971C249.89 193.52 301.934 217.471 301.934 244.881C301.934 246.8 301.891 249.056 301.842 251.598C301.011 294.459 298.609 418.501 477.584 371.555C502.917 364.91 528.947 358.447 554.537 352.093C589.788 343.341 624.202 334.796 654.808 326.269C763.464 369.591 864.665 396.785 977.426 338.836C1129.56 260.651 1171.83 126.87 1045.83 173.613C1023.73 183.436 960.075 203.647 882.31 205.915C876.867 206.074 870.461 206.246 863.245 206.439C816.125 207.7 734.442 209.886 660.63 215.507C448.088 160.883 106.673 138.937 223.868 184.971Z" fill="url(#paint0_linear_242_7859)"/>
</mask>
<g mask="url(#mask0_242_7859)">
<rect x="183.172" y="1.36292" width="24" height="549.45" stroke="#393953" stroke-opacity="0.3"/>
<rect x="207.172" y="1.36292" width="24" height="549.45" stroke="#393953" stroke-opacity="0.3"/>
<rect x="231.172" y="1.36292" width="24" height="549.45" stroke="#393953" stroke-opacity="0.3"/>
<rect x="255.172" y="1.36292" width="24" height="549.45" stroke="#393953" stroke-opacity="0.3"/>
<rect x="279.172" y="1.36292" width="24" height="549.45" stroke="#393953" stroke-opacity="0.3"/>
<rect x="303.172" y="1.36292" width="24" height="549.45" stroke="#393953" stroke-opacity="0.3"/>
<rect x="327.172" y="1.36292" width="24" height="549.45" stroke="#393953" stroke-opacity="0.3"/>
<rect x="351.172" y="1.36292" width="24" height="549.45" stroke="#393953" stroke-opacity="0.3"/>
<rect x="375.172" y="1.36292" width="24" height="549.45" stroke="#393953" stroke-opacity="0.3"/>
<rect x="399.172" y="1.36292" width="24" height="549.45" stroke="#393953" stroke-opacity="0.3"/>
<rect x="423.172" y="1.36292" width="24" height="549.45" stroke="#393953" stroke-opacity="0.3"/>
<rect x="447.172" y="1.36292" width="24" height="549.45" stroke="#393953" stroke-opacity="0.3"/>
<rect x="471.172" y="1.36292" width="24" height="549.45" stroke="#393953" stroke-opacity="0.3"/>
<rect x="495.172" y="1.36292" width="24" height="549.45" stroke="#393953" stroke-opacity="0.3"/>
<rect x="519.172" y="1.36292" width="24" height="549.45" stroke="#393953" stroke-opacity="0.3"/>
<rect x="543.172" y="1.36292" width="24" height="549.45" stroke="#393953" stroke-opacity="0.3"/>
<rect x="567.172" y="1.36292" width="24" height="549.45" stroke="#393953" stroke-opacity="0.3"/>
<rect x="591.172" y="1.36292" width="24" height="549.45" stroke="#393953" stroke-opacity="0.3"/>
<rect x="615.172" y="1.36292" width="24" height="549.45" stroke="#393953" stroke-opacity="0.3"/>
<rect x="639.172" y="1.36292" width="24" height="549.45" stroke="#393953" stroke-opacity="0.3"/>
<rect x="663.172" y="1.36292" width="24" height="549.45" stroke="#393953" stroke-opacity="0.3"/>
<rect x="687.172" y="1.36292" width="24" height="549.45" stroke="#393953" stroke-opacity="0.3"/>
<rect x="711.172" y="1.36292" width="24" height="549.45" stroke="#393953" stroke-opacity="0.3"/>
<rect x="735.172" y="1.36292" width="24" height="549.45" stroke="#393953" stroke-opacity="0.3"/>
<rect x="759.172" y="1.36292" width="24" height="549.45" stroke="#393953" stroke-opacity="0.3"/>
<rect x="783.172" y="1.36292" width="24" height="549.45" stroke="#393953" stroke-opacity="0.3"/>
<rect x="807.172" y="1.36292" width="24" height="549.45" stroke="#393953" stroke-opacity="0.3"/>
<rect x="831.172" y="1.36292" width="24" height="549.45" stroke="#393953" stroke-opacity="0.3"/>
<rect x="855.172" y="1.36292" width="24" height="549.45" stroke="#393953" stroke-opacity="0.3"/>
<rect x="879.172" y="1.36292" width="24" height="549.45" stroke="#393953" stroke-opacity="0.3"/>
<rect x="903.172" y="1.36292" width="24" height="549.45" stroke="#393953" stroke-opacity="0.3"/>
<rect x="927.172" y="1.36292" width="24" height="549.45" stroke="#393953" stroke-opacity="0.3"/>
<rect x="951.172" y="1.36292" width="24" height="549.45" stroke="#393953" stroke-opacity="0.3"/>
<rect x="975.172" y="1.36292" width="24" height="549.45" stroke="#393953" stroke-opacity="0.3"/>
<rect x="999.172" y="1.36292" width="24" height="549.45" stroke="#393953" stroke-opacity="0.3"/>
<rect x="1023.17" y="1.36292" width="24" height="549.45" stroke="#393953" stroke-opacity="0.3"/>
<rect x="1047.17" y="1.36292" width="24" height="549.45" stroke="#393953" stroke-opacity="0.3"/>
<rect x="1071.17" y="1.36292" width="24" height="549.45" stroke="#393953" stroke-opacity="0.3"/>
<rect x="1095.17" y="1.36292" width="24" height="549.45" stroke="#393953" stroke-opacity="0.3"/>
<rect x="1119.17" y="1.36292" width="24" height="549.45" stroke="#393953" stroke-opacity="0.3"/>
<rect x="-57" y="179" width="24" height="1440" transform="rotate(-90 -57 179)" stroke="#393953" stroke-opacity="0.3"/>
<rect x="-57" y="203" width="24" height="1440" transform="rotate(-90 -57 203)" stroke="#393953" stroke-opacity="0.3"/>
<rect x="-57" y="227" width="24" height="1440" transform="rotate(-90 -57 227)" stroke="#393953" stroke-opacity="0.3"/>
<rect x="-57" y="251" width="24" height="1440" transform="rotate(-90 -57 251)" stroke="#393953" stroke-opacity="0.3"/>
<rect x="-57" y="275" width="24" height="1440" transform="rotate(-90 -57 275)" stroke="#393953" stroke-opacity="0.3"/>
<rect x="-57" y="299" width="24" height="1440" transform="rotate(-90 -57 299)" stroke="#393953" stroke-opacity="0.3"/>
<rect x="-57" y="323" width="24" height="1440" transform="rotate(-90 -57 323)" stroke="#393953" stroke-opacity="0.3"/>
<rect x="-57" y="347" width="24" height="1440" transform="rotate(-90 -57 347)" stroke="#393953" stroke-opacity="0.3"/>
<rect x="-57" y="371" width="24" height="1440" transform="rotate(-90 -57 371)" stroke="#393953" stroke-opacity="0.3"/>
<rect x="-57" y="395" width="24" height="1440" transform="rotate(-90 -57 395)" stroke="#393953" stroke-opacity="0.3"/>
</g>
<defs>
<linearGradient id="paint0_linear_242_7859" x1="1110.34" y1="145.971" x2="1001.27" y2="468.558" gradientUnits="userSpaceOnUse">
<stop stop-color="white"/>
<stop offset="1" stop-color="white"/>
</linearGradient>
</defs>
</svg>
