<svg width="58" height="58" viewBox="0 0 58 58" fill="none" xmlns="http://www.w3.org/2000/svg">
<path d="M56.2943 28.9992C56.2943 44.0734 44.0742 56.2933 29.0002 56.2933C13.9261 56.2933 1.70605 44.0734 1.70605 28.9992C1.70605 13.9251 13.9261 1.70508 29.0002 1.70508C44.0742 1.70508 56.2943 13.9251 56.2943 28.9992Z" stroke="#31C77F" stroke-width="1.20825"/>
<mask id="mask0_821_97" style="mask-type:alpha" maskUnits="userSpaceOnUse" x="2" y="2" width="54" height="54">
<path d="M53.9741 28.9968C53.9741 42.7882 42.7939 53.9682 29.0027 53.9682C15.2113 53.9682 4.03125 42.7882 4.03125 28.9968C4.03125 15.2055 15.2113 4.02539 29.0027 4.02539C42.7939 4.02539 53.9741 15.2055 53.9741 28.9968Z" fill="#31C77F" stroke="#31C77F" stroke-width="4.0275"/>
</mask>
<g mask="url(#mask0_821_97)">
<path d="M16.8687 55.1119C17.0801 53.0508 19.6655 49.2268 19.5536 47.1655C19.5411 46.8179 19.5536 46.4702 19.6032 46.1226C19.8146 44.6698 19.7525 43.2171 19.6406 41.7768C19.591 41.1808 19.6406 40.5974 19.74 40.0014C19.9514 38.7226 20.0756 37.4562 19.9265 36.1524C19.7899 34.9233 19.9389 33.694 20.1875 32.4897C20.3989 31.4714 20.3741 30.4534 20.2124 29.4351C20.1752 29.2118 20.1379 28.9757 20.1752 28.7647C20.3119 28.0075 20.3864 27.2376 20.4113 26.3807C21.1447 27.0266 21.9277 27.0638 22.7606 26.8773C23.4444 26.7284 23.8545 26.2816 24.1279 25.6731C24.2149 25.4746 24.2523 25.2262 24.5878 25.3006C24.7495 25.3379 24.9358 25.313 24.9607 25.0895C24.9856 24.8785 24.8239 24.8164 24.6499 24.7791C23.6184 24.5432 22.5742 24.2949 21.5425 24.0715C21.2069 23.9969 20.8588 23.9099 20.5232 23.8727C20.2249 23.8356 20.1626 23.6989 20.1875 23.4256C20.3366 22.1594 20.573 20.9176 21.0826 19.7382C21.5797 18.5958 22.2136 17.5156 23.1211 16.6341C23.233 16.5224 23.3696 16.3982 23.2951 16.212C23.2206 16.0256 23.0715 15.976 22.8973 16.0381C22.7108 16.1003 22.6363 16.0009 22.5493 15.8767C22.3753 15.6036 22.1887 15.3304 22.0273 15.0448C21.4804 14.1508 20.8214 13.3438 20.1626 12.5243C20.0259 12.3505 19.8519 12.2015 19.6655 12.0649C19.1061 11.6676 18.6089 11.8911 18.5468 12.5864C18.4971 13.0334 18.5343 13.4928 18.696 13.9149C19.2801 15.3925 19.7276 16.9321 20.573 18.2979C20.7842 18.6456 20.486 18.8068 20.3741 19.0552C20.1626 18.9062 20.0509 18.6952 19.9514 18.5089C18.7953 16.4727 17.8259 14.3619 17.4156 12.0277C17.3039 11.4193 17.3039 10.7985 17.3286 10.1901C17.366 9.5196 17.6642 9.34577 18.3107 9.50718C18.783 9.63135 19.1433 9.92933 19.4915 10.2522C20.6723 11.3448 21.6793 12.574 22.7482 13.7659C23.0341 14.0888 23.32 14.4116 23.5935 14.7344C23.7675 14.9331 23.9292 15.1193 23.9539 15.4173C23.9786 15.7526 24.2149 15.8519 24.5257 15.7277C24.6003 15.7028 24.6748 15.6656 24.7495 15.616C25.2715 15.256 25.8558 15.1317 26.4773 15.0324C28.1801 14.722 29.8581 14.8461 31.5362 15.1938C31.7974 15.256 32.0212 15.3925 32.2573 15.529C32.767 15.8394 32.9533 15.7649 33.1026 15.1938C33.1399 15.0324 33.2392 14.8958 33.3511 14.7717C34.731 13.232 36.0113 11.6055 37.5276 10.1901C37.8633 9.87968 38.1989 9.58167 38.6465 9.4451C39.3797 9.2092 39.6905 9.43268 39.7403 10.1901C39.8273 11.6304 39.4793 12.9961 39.0194 14.3371C38.5595 15.6781 37.9254 16.9446 37.2543 18.1862C37.1051 18.4593 36.9186 18.6952 36.7322 19.0055C36.1232 18.0992 36.1232 18.1116 36.5831 17.2425C37.1547 16.1747 37.7391 15.1317 38.1368 13.977C38.2983 13.4928 38.4351 12.9961 38.4227 12.4747C38.4102 12.1518 38.3481 11.8663 38.0249 11.7049C37.7142 11.5559 37.4655 11.6924 37.2417 11.8787C36.9684 12.1146 36.6825 12.3629 36.4338 12.6361C35.5763 13.5673 34.6314 14.4364 34.0845 15.6036C33.9852 15.8271 33.5998 15.9264 33.7489 16.2616C33.8484 16.4852 34.0845 16.6216 34.2336 16.808C35.1162 17.8757 35.8246 19.0429 36.2598 20.3588C36.5333 21.1908 36.7197 22.0601 36.8316 22.929C36.8814 23.3762 36.8814 23.3762 36.4213 23.5003C35.2903 23.7982 34.1715 24.0964 33.0403 24.3942C32.941 24.4191 32.8414 24.4314 32.7421 24.4811C32.506 24.593 32.4811 24.804 32.7049 24.9405C32.854 25.0275 32.941 25.0771 32.9908 25.2758C33.1771 26.0704 33.6868 26.5795 34.4947 26.6912C35.3026 26.8154 36.0611 26.6789 36.5333 25.9091C36.5582 25.8594 36.5706 25.8345 36.6576 25.8841C36.6327 26.8029 36.7073 27.7342 36.8814 28.653C36.9186 28.8268 36.8937 29.0254 36.8688 29.1992C36.6327 30.3664 36.6825 31.5211 36.9186 32.6758C37.1673 33.9547 37.2417 35.2336 37.0926 36.5248C36.9807 37.4685 37.0677 38.4122 37.2417 39.3309C37.4406 40.3737 37.4904 41.4044 37.3785 42.4474C37.2666 43.5153 37.3038 44.5706 37.4157 45.6384C37.4904 46.3089 40.4116 49.1024 40.3742 49.7854C40.9336 50.7539 41.6547 52.6039 42.3507 53.4978L40.9003 55.6945L30.1041 57.5938L20.4113 56.6941L16.8687 55.1119Z" fill="white"/>
<path d="M84.1011 31.5914C83.517 31.1447 82.8457 30.8216 82.1869 30.4865C80.0986 29.4311 77.9606 28.5123 75.8226 27.5935C73.8586 26.7493 72.1183 25.5944 70.664 24.0177C70.4402 23.7817 70.1916 23.5583 69.9431 23.3471C69.6323 23.0741 69.2843 23.0492 68.9112 23.2353C68.3892 23.496 67.8672 23.7693 67.3699 24.0798C66.6615 24.5142 65.4681 25.1599 64.71 25.5076C60.7695 27.3452 56.6923 28.8351 52.6152 30.325C48.9983 31.6535 45.4927 33.2304 42.0993 35.0431C40.844 35.7137 39.7002 36.5457 38.6314 37.4645C38.4573 37.6134 38.2833 37.7872 38.1093 37.9238C38.0968 37.9114 38.0845 37.9114 38.0719 37.8989C38.0221 38.0479 37.9104 38.1845 37.7611 38.2466C37.699 38.495 37.5126 38.706 37.177 38.706C37.1521 38.706 37.1274 38.706 37.1025 38.706C37.0776 40.1712 37.1274 41.6362 37.2889 43.1014C37.351 43.6353 37.2144 43.9953 36.8415 44.3927C35.0017 46.3543 32.9258 48.0058 30.8002 49.6199C30.7382 49.6695 30.6512 49.7067 30.6013 49.7688C30.4024 50.0668 30.1788 50.0421 29.8804 49.893C29.3335 49.6199 28.7866 49.7688 28.3018 50.0544C28.0284 50.2159 27.8295 50.2033 27.5809 50.0793C26.3378 49.4461 25.1072 48.8128 23.9638 47.9933C22.4223 46.9007 20.8809 45.8206 19.5261 44.5045C19.3645 44.3554 19.2526 44.194 19.1905 44.0324C19.1656 44.0202 19.1283 44.0079 19.1035 43.9953C19.0911 43.9953 19.0911 43.9953 19.0786 43.983C18.8052 43.8712 19.2526 43.4862 18.9543 43.4366C18.8922 43.4613 18.8424 43.4738 18.7803 43.4987C18.7057 43.5731 18.1464 43.6601 17.761 43.9953C17.7361 44.0202 17.6989 44.0451 17.6615 44.0698C16.5181 44.9761 16.232 46.2799 16.9033 47.5713C17.0275 47.8071 16.9903 47.9684 16.8909 48.1796C16.3688 49.2473 16.4185 50.278 17.1769 51.2215C17.3756 51.4824 17.5621 51.7553 17.8355 51.9541L18.4572 52.3885C18.8174 52.5873 19.3396 52.786 19.6131 52.8606C20.7691 53.171 21.9375 53.3694 23.1308 53.4192C23.6778 53.444 24.237 53.3571 24.7839 53.3075C25.8407 53.2082 26.9096 53.1212 27.9538 52.9723C28.3515 52.91 28.7244 53.0218 29.0973 53.0344C29.433 53.0467 29.781 53.084 30.0544 52.91C30.5891 52.5873 31.1856 52.575 31.7574 52.5252C33.0252 52.4134 34.2683 52.1279 35.474 51.743C36.7046 51.358 37.9351 50.9856 39.1161 50.4392C40.2969 49.893 41.3288 49.1977 41.9253 47.9933C41.9874 47.8816 42.0497 47.8071 42.1491 47.7451C43.0565 47.1987 44.5357 46.9255 45.3436 46.5902C46.5991 45.8949 47.8422 45.1996 49.11 44.5292C50.9 43.5857 52.7022 42.6543 54.6413 42.021C57.9231 40.9284 61.3164 40.3822 64.7347 39.9602C65.9902 39.7986 67.258 39.6993 68.5011 39.389C70.6515 38.8426 72.7274 38.0977 74.8282 37.4271C75.5242 37.2038 76.2327 36.9802 76.9039 36.6821C79.0047 35.7633 81.0184 34.6583 83.032 33.5781C83.4051 33.3794 83.7654 33.1312 84.1134 32.8705C84.7102 32.3985 84.6976 32.0508 84.1011 31.5914Z" fill="#231F20"/>
<path d="M40.4376 10.0135C40.3878 9.06988 39.7415 8.56081 38.8092 8.74705C38.3865 8.83398 37.9887 8.98297 37.6284 9.2437C36.7458 9.88934 35.9999 10.684 35.2913 11.5034C34.4587 12.4595 33.6132 13.4156 32.8053 14.3964C32.5568 14.6944 32.333 14.7068 32.0222 14.5703C31.5375 14.3468 31.0278 14.1729 30.4935 14.1357C28.6288 13.9991 26.7643 13.937 24.9743 14.6323C24.6014 14.7813 24.3902 14.7068 24.1415 14.4089C23.3461 13.4528 22.5255 12.5092 21.6929 11.5655C20.9594 10.7336 20.2137 9.9266 19.3062 9.28095C18.8712 8.97055 18.3988 8.82154 17.8768 8.79672C17.2178 8.77188 16.7828 9.09471 16.6212 9.74035C16.5716 9.939 16.5591 10.1501 16.5591 10.3488C16.5591 11.4786 16.7705 12.5837 16.9943 13.6887C17.3173 15.2904 18.0508 16.743 18.6847 18.2205C18.9333 18.8041 19.269 19.3505 19.704 19.8099C19.8655 19.9837 19.9029 20.1328 19.8408 20.3563C19.7412 20.704 19.6542 21.0639 19.5672 21.424C19.2192 22.7276 19.0948 24.0562 19.2937 25.3849C19.4056 26.0925 19.3809 26.7631 19.3062 27.4582C19.2192 28.2156 19.1943 28.9606 19.3683 29.718C19.5798 30.6121 19.53 31.5059 19.3062 32.4C19.0701 33.3435 18.9457 34.2872 18.9954 35.2556C19.0576 36.2862 18.9333 37.3044 18.8959 38.3225C18.8836 38.9185 18.8959 39.5146 18.7593 40.098C18.5853 40.8429 18.5977 41.6003 18.7096 42.3577C18.9208 43.8352 18.7842 43.1152 18.8463 44.009C19.1197 44.009 19.443 44.8657 19.7289 44.8533C19.7163 44.158 19.6419 42.4819 19.5798 41.7866C19.53 41.1906 19.5798 40.6072 19.6791 40.0111C19.8903 38.7321 20.0148 37.4656 19.8655 36.162C19.7289 34.9329 19.878 33.7036 20.1267 32.4993C20.3379 31.4812 20.313 30.463 20.1514 29.4449C20.1141 29.2214 20.0769 28.9855 20.1141 28.7745C20.2509 28.0169 20.3254 27.2472 20.3504 26.3905C21.0837 27.0362 21.8669 27.0734 22.6995 26.8871C23.3832 26.7382 23.7935 26.2911 24.067 25.6827C24.1541 25.484 24.1913 25.2356 24.5269 25.3103C24.6884 25.3475 24.875 25.3226 24.8998 25.0993C24.9247 24.8881 24.7631 24.826 24.5891 24.7889C23.5574 24.5529 22.5132 24.3046 21.4814 24.0811C21.146 24.0067 20.7978 23.9197 20.4623 23.8824C20.1639 23.8452 20.1018 23.7085 20.1267 23.4354C20.2758 22.169 20.5119 20.9273 21.0214 19.7478C21.5189 18.6055 22.1526 17.5254 23.0601 16.6438C23.1721 16.5319 23.3087 16.4079 23.2341 16.2217C23.1596 16.0353 23.0103 15.9857 22.8363 16.0478C22.6501 16.1098 22.5753 16.0106 22.4883 15.8864C22.3143 15.6132 22.1279 15.3401 21.9663 15.0545C21.4193 14.1605 20.7604 13.3535 20.1018 12.534C19.965 12.3602 19.791 12.2112 19.6044 12.0746C19.0452 11.6773 18.5479 11.9008 18.4858 12.5961C18.436 13.0431 18.4734 13.5025 18.6349 13.9246C19.2192 15.4021 19.6668 16.9417 20.5119 18.3075C20.7233 18.6552 20.4249 18.8166 20.313 19.0649C20.1018 18.9158 19.9899 18.7048 19.8903 18.5187C18.7344 16.4824 17.7649 14.3716 17.3547 12.0374C17.2427 11.4289 17.2427 10.8081 17.2677 10.1997C17.3048 9.52928 17.6032 9.35545 18.2497 9.51686C18.7219 9.64103 19.0824 9.939 19.4304 10.2618C20.6114 11.3545 21.6182 12.5837 22.6872 13.7756C22.9731 14.0985 23.2591 14.4213 23.5325 14.7441C23.7065 14.9427 23.8681 15.129 23.893 15.427C23.9177 15.7623 24.1541 15.8615 24.4646 15.7374C24.5393 15.7125 24.6139 15.6753 24.6884 15.6257C25.2106 15.2657 25.7947 15.1414 26.4163 15.0421C28.1193 14.7317 29.7974 14.8558 31.4753 15.2035C31.7363 15.2655 31.9601 15.4021 32.1963 15.5387C32.7061 15.8491 32.8923 15.7746 33.0416 15.2035C33.079 15.0421 33.1782 14.9055 33.2902 14.7813C34.67 13.2417 35.9503 11.6152 37.4667 10.1997C37.8024 9.88934 38.1381 9.59136 38.5854 9.45478C39.3187 9.21888 39.6296 9.44236 39.6794 10.1997C39.7664 11.64 39.4184 13.0058 38.9585 14.3468C38.4984 15.6876 37.8645 16.9541 37.1932 18.1958C37.0441 18.4689 36.8577 18.7048 36.6712 19.0153C36.0622 18.1088 36.0622 18.1214 36.5221 17.2521C37.0939 16.1844 37.678 15.1414 38.0757 13.9867C38.2374 13.5025 38.3742 13.0058 38.3617 12.4843C38.3493 12.1615 38.2872 11.8759 37.9641 11.7145C37.6533 11.5655 37.4046 11.7021 37.1809 11.8884C36.9073 12.1243 36.6214 12.3726 36.373 12.6458C35.5151 13.577 34.5704 14.4461 34.0235 15.6132C33.9241 15.8368 33.5389 15.9361 33.688 16.2713C33.7874 16.4947 34.0235 16.6313 34.1728 16.8177C35.0552 17.8855 35.7639 19.0525 36.1989 20.3686C36.4723 21.2005 36.6588 22.0697 36.7707 22.9387C36.8203 23.3858 36.8203 23.3858 36.3604 23.5098C35.2292 23.808 34.1105 24.1058 32.9793 24.4038C32.8801 24.4287 32.7806 24.4412 32.6812 24.4908C32.4449 24.6024 32.42 24.8136 32.6438 24.9501C32.7931 25.0372 32.8801 25.0867 32.9297 25.2854C33.1162 26.08 33.6259 26.5892 34.4338 26.7008C35.2419 26.8252 35.9999 26.6885 36.4723 25.9187C36.4972 25.8689 36.5095 25.8443 36.5965 25.8938C36.5718 26.8126 36.6463 27.744 36.8203 28.6627C36.8577 28.8366 36.8328 29.0351 36.808 29.209C36.5718 30.376 36.6214 31.5309 36.8577 32.6856C37.1062 33.9643 37.1809 35.2432 37.0317 36.5345C36.9199 37.4782 37.0069 38.4219 37.1809 39.3407C37.3797 40.3835 37.4295 41.4142 37.3176 42.457C37.2804 42.8047 37.2555 43.1523 37.2555 43.5C37.5414 43.5125 37.8273 43.5247 38.1132 43.5374C38.1255 43.3635 38.1381 43.1773 38.1628 43.0034C38.2746 42.0099 38.4114 41.0292 38.2251 40.0111C37.9515 38.521 37.9887 36.9939 37.9641 35.4791C37.9515 34.3865 37.9266 33.3188 37.6533 32.2511C37.4419 31.4314 37.3797 30.5872 37.5663 29.7554C37.7775 28.8366 37.7526 27.9301 37.6284 27.0113C37.5663 26.5893 37.4791 26.1546 37.591 25.7326C37.8024 24.9006 37.7775 24.0686 37.7403 23.2242C37.6905 22.2311 37.417 21.2874 37.1685 20.3438C37.0939 20.0583 37.1062 19.8595 37.33 19.6361C37.6159 19.3505 37.8522 19.0028 38.0262 18.6303C39.0702 16.5072 40.0025 14.3592 40.2759 11.9877C40.3754 11.3669 40.4748 10.6964 40.4376 10.0135Z" fill="#231F20"/>
<path d="M83.3558 32.3641C82.4731 32.8358 81.69 33.2704 80.8945 33.68C79.5522 34.3755 78.1847 35.0337 76.805 35.6543C76.0966 35.977 75.3632 36.2254 74.6172 36.449C72.8521 36.9952 71.0997 37.5539 69.3469 38.0879C67.7186 38.5844 66.0156 38.7583 64.3376 38.9695C62.1994 39.2303 60.0741 39.5281 57.9857 40.0373C56.1585 40.4841 54.331 40.9435 52.5786 41.6513C51.2236 42.1977 49.9433 42.8805 48.6631 43.551C47.2086 44.3084 45.7917 45.1279 44.3869 45.9721C43.84 46.3075 43.2186 46.4564 42.6219 46.6676C42.4229 46.7297 42.2739 46.7048 42.1993 46.4689C41.9879 45.8356 41.528 45.401 40.9315 45.1156C40.7077 45.0039 40.6705 44.8546 40.6828 44.6188C40.7077 44.2712 40.6952 43.9235 40.5709 43.5881C40.4218 43.1661 40.1483 42.893 39.7256 42.7688C39.3278 42.6448 38.9302 42.5453 38.5199 42.595C38.2464 42.6322 38.1472 42.5329 38.1345 42.2845C38.1222 42.0859 38.0973 41.8749 38.0849 41.6762C38.0602 41.1422 38.1222 40.596 38.0226 40.0868C37.9109 39.466 38.1098 39.0687 38.5697 38.6592C40.1234 37.2561 41.8887 36.2131 43.753 35.2943C47.7433 33.3201 51.8949 31.7432 56.0715 30.241C59.7383 28.9247 63.3183 27.4099 66.8111 25.6965C67.619 25.2992 68.3897 24.8274 69.1604 24.368C69.3967 24.2313 69.5458 24.2313 69.7198 24.4674C71.1492 26.3297 73.0884 27.4969 75.1892 28.4157C77.5012 29.4213 79.7758 30.5016 82.0257 31.6065C82.4484 31.8053 82.8587 32.0785 83.3558 32.3641Z" fill="#31C77F"/>
<path d="M17.6646 48.5044C17.8635 48.5912 18.0002 48.6409 18.1245 48.6905C18.3482 48.7774 18.5844 48.79 18.7337 48.5663C18.8953 48.3306 18.746 48.1443 18.572 47.9829C18.3731 47.8089 18.1742 47.6351 17.9753 47.449C17.1675 46.704 17.5155 45.3506 18.2738 44.8787C18.4601 44.7672 18.5969 44.7174 18.746 44.9036C18.7834 44.9533 18.833 44.9905 18.8704 45.0401C20.4365 46.8031 22.4005 48.0822 24.3645 49.3362C25.2596 49.9075 26.1794 50.4537 27.1737 50.8509C27.4225 50.9503 27.5344 51.0745 27.4845 51.3476C27.4347 51.5711 27.4474 51.7946 27.5344 52.018C27.6214 52.2539 27.4968 52.316 27.2979 52.3285C26.9748 52.3657 26.6517 52.4155 26.3162 52.4155C25.0731 52.4402 23.83 52.7011 22.5871 52.5893C21.3191 52.4651 20.0885 52.1919 18.9326 51.6207C18.5222 51.422 18.1619 51.1613 17.8883 50.7889C17.3538 50.0936 17.3415 49.3487 17.6646 48.5044Z" fill="#31C77F"/>
<path d="M31.955 51.63C31.7687 51.6051 31.52 51.8036 31.346 51.6424C31.2218 51.5181 31.2092 51.2699 31.1346 51.0836C31.1099 51.0092 31.0725 50.9222 31.0229 50.8601C30.8487 50.6491 30.9731 50.5373 31.1471 50.4254C32.2286 49.755 33.1858 48.9232 34.2173 48.1783C35.4728 47.247 36.5791 46.1544 37.6233 44.9995C37.959 44.6396 38.2074 44.2051 38.1826 43.6836C38.1702 43.4724 38.2696 43.3856 38.481 43.4103C38.6797 43.4353 38.8911 43.4602 39.09 43.5098C39.7114 43.6587 39.9724 44.1802 39.6992 44.7638C39.5873 44.9995 39.4382 45.2232 39.3136 45.4589C39.2266 45.6328 39.1894 45.8068 39.3634 45.9559C39.5252 46.0922 39.6992 46.0676 39.8732 45.9806C39.8854 45.9681 39.9103 45.9681 39.9228 45.9559C40.0721 45.8811 40.1591 45.6454 40.3082 45.695C40.5318 45.7694 40.7433 45.9185 40.9296 46.0676C41.3772 46.4275 41.5388 46.8497 41.3772 47.2967C41.1906 47.7934 40.8924 48.2402 40.4946 48.6128C39.7114 49.3454 38.7793 49.8048 37.7973 50.1525C36.1564 50.7236 34.5157 51.2823 32.7879 51.5679C32.5268 51.6051 32.2533 51.63 31.955 51.63Z" fill="#31C77F"/>
<path d="M21.0173 17.9611C20.4083 17.3651 20.0603 16.6697 19.7991 15.9497C19.476 15.0681 19.1652 14.1865 18.954 13.2677C18.9042 13.0691 18.8919 12.8704 18.8793 12.6593C18.8793 12.5228 18.8544 12.3613 19.0161 12.2868C19.1777 12.2248 19.302 12.3241 19.4013 12.4234C19.9235 12.8828 20.3711 13.4167 20.7314 14.0127C21.1666 14.7204 21.6016 15.4282 22.0615 16.1359C22.2355 16.4091 22.2355 16.6076 21.9745 16.794C21.5767 17.0795 21.3655 17.5265 21.0173 17.9611Z" fill="#FEFEFE"/>
<path d="M35.7965 17.6351C35.5106 17.126 35.0756 16.7659 34.653 16.3812C34.4417 16.1824 34.4541 16.0458 34.5908 15.8099C35.1875 14.829 35.9333 13.9599 36.6916 13.0908C36.9154 12.83 37.1143 12.5321 37.4 12.3334C37.7108 12.1223 37.8973 12.2092 37.9469 12.5817C37.9595 12.681 37.9595 12.7928 37.9346 12.8921C37.748 13.6619 37.5865 14.4566 37.1887 15.1519C36.7908 15.8224 36.4428 16.5052 36.0948 17.2006C36.0203 17.3495 35.9829 17.5233 35.7965 17.6351Z" fill="#FEFEFE"/>
<path d="M29.2854 52.2767C29.2233 52.2643 29.1114 52.2643 29.0121 52.2518C28.5769 52.1899 28.3159 51.9787 28.2661 51.6435C28.2164 51.3081 28.4899 50.8614 28.8504 50.7247C29.5218 50.4514 30.1431 50.6502 30.429 51.2213C30.6154 51.5814 30.5658 51.7677 30.255 52.0161C30.0189 52.1897 29.6832 52.289 29.2854 52.2767Z" fill="#31C77F"/>
<path d="M21.6558 25.4316C21.37 25.4442 21.1711 25.2827 21.1711 25.022C21.1587 24.7489 21.3078 24.5749 21.5442 24.5749C21.8299 24.5624 22.0164 24.724 22.0289 24.9971C22.0289 25.2704 21.9169 25.4193 21.6558 25.4316Z" fill="#E7EBEB"/>
<path d="M34.7915 25.0248C34.7294 25.2235 34.6921 25.4345 34.456 25.4842C34.2322 25.534 34.021 25.3228 34.021 25.0869C34.0333 24.8385 34.1824 24.7143 34.4062 24.702C34.6051 24.6896 34.7544 24.8138 34.7915 25.0248Z" fill="#EFF2F2"/>
<path d="M28.9245 25.9108C29.2353 25.5383 29.6331 25.3769 30.1055 25.3893C30.8513 25.4018 31.3982 25.8859 31.4603 26.6309C31.4852 26.991 31.5101 27.3758 31.3733 27.7235C31.2491 28.034 31.2863 28.2078 31.5847 28.4313C32.1937 28.9156 32.5045 29.5611 32.4547 30.3681C32.4299 30.6911 32.3554 31.0014 32.1316 31.2125C31.8334 31.4857 31.6717 31.8458 31.5226 32.1811C31.1744 32.9384 30.5405 33.2738 29.7949 33.3978C28.9619 33.522 28.1662 33.3109 27.4578 32.8516C27.0849 32.6156 26.8239 32.268 26.6997 31.8458C26.6374 31.6347 26.5504 31.4981 26.364 31.3739C25.6555 30.8898 25.4691 30.0826 25.8916 29.3378C26.0283 29.0894 26.19 28.8286 26.4012 28.6547C26.7244 28.4064 26.7493 28.158 26.6374 27.8105C26.4882 27.3387 26.5878 26.8793 26.7493 26.4321C27.0724 25.526 27.8183 25.2652 28.6512 25.7495C28.7258 25.7866 28.8128 25.8487 28.9245 25.9108Z" fill="#030202"/>
<path d="M30.8134 31.1971C30.3412 31.1599 29.8936 30.8743 29.5579 30.39C29.0855 29.6947 29.0855 29.6947 28.6505 30.4149C28.315 30.9611 27.8053 31.2343 27.1591 31.1971C26.3012 31.135 25.8911 30.3155 26.3635 29.583C26.5375 29.3097 26.786 29.0862 27.0472 28.8876C27.4573 28.5773 27.4822 28.5152 27.3082 28.006C27.1963 27.6708 27.0968 27.3481 27.1216 26.9878C27.1838 26.2057 27.793 25.8829 28.4643 26.2555C28.576 26.3174 28.663 26.4044 28.7625 26.4665C29.0112 26.6154 29.2224 26.6279 29.3715 26.33C29.5579 25.9699 29.8812 25.9574 30.2167 25.9946C30.5896 26.0318 30.801 26.2555 30.9378 26.5907C31.0123 26.7768 30.9999 26.9506 30.9253 27.1244C30.8259 27.3728 30.714 27.6087 30.6145 27.8571C30.3784 28.3662 30.4033 28.4779 30.9253 28.7014C31.3603 28.8876 31.6959 29.1608 31.8825 29.6079C32.2181 30.3776 31.7457 31.1722 30.8134 31.1971Z" fill="white"/>
<path d="M27.2974 31.737C28.1921 31.6377 28.2419 31.6128 29.1742 30.7188C29.6714 31.3646 30.2929 31.7617 31.1382 31.6996C30.8896 32.4446 30.3427 32.8172 29.5097 32.8421C28.5899 32.8543 27.5208 32.6184 27.2974 31.737Z" fill="#FDFDFD"/>
<path d="M28.0463 27C28.0836 27.0249 28.1829 27.0375 28.2203 27.087C28.3818 27.2982 28.5186 27.5341 28.5435 27.8071C28.5558 27.9314 28.4937 28.0431 28.3569 28.0928C28.2452 28.1301 28.158 28.0803 28.0836 28.0058C27.8847 27.7948 27.7356 27.5464 27.7728 27.2359C27.7851 27.1119 27.8598 27.0249 28.0463 27Z" fill="#0E0D0D"/>
<path d="M29.5228 27.5342C29.56 27.4348 29.6098 27.2487 29.6968 27.0871C29.7589 26.9508 29.8708 26.8514 30.0448 26.9259C30.169 26.988 30.2188 27.0997 30.1939 27.2237C30.1567 27.3976 30.0947 27.5714 30.0324 27.7452C29.9703 27.9068 29.8584 28.0308 29.6595 27.9564C29.4855 27.9068 29.4855 27.7452 29.5228 27.5342Z" fill="#191717"/>
<path d="M17.4526 51.0488L16.3091 54.1778L17.0797 54.5626C17.0797 54.5626 18.1488 51.9676 18.273 51.7192C18.3849 51.4586 17.4526 51.0488 17.4526 51.0488Z" fill="#231F20"/>
<path d="M40.3005 49.0121L39.8281 49.5211C39.8281 49.5211 41.7919 54.115 42.3764 54.1275C42.9605 54.1275 42.5876 53.1963 42.5876 53.1963C42.5876 53.1963 40.8723 49.6081 40.5738 48.9749C40.3503 48.4657 40.3005 49.0121 40.3005 49.0121Z" fill="#231F20"/>
</g>
</svg>
