<svg width="74" height="74" viewBox="0 0 74 74" fill="none" xmlns="http://www.w3.org/2000/svg">
<circle cx="37" cy="37" r="33" fill="#313238" fill-opacity="0.07"/>
<circle cx="37" cy="37" r="34.988" stroke="#27272B" stroke-opacity="0.22" stroke-width="3.9759"/>
<path d="M36.5 55C46.165 55 54 47.165 54 37.5C54 27.835 46.165 20 36.5 20C26.835 20 19 27.835 19 37.5C19 47.165 26.835 55 36.5 55Z" fill="#2E3148"/>
<path d="M36.5 47.654C42.1081 47.654 46.6544 43.1078 46.6544 37.4997C46.6544 31.8916 42.1081 27.3453 36.5 27.3453C30.892 27.3453 26.3457 31.8916 26.3457 37.4997C26.3457 43.1078 30.892 47.654 36.5 47.654Z" fill="#1B1E36"/>
<path d="M36.535 22.2314C34.646 22.2314 33.1143 29.083 33.1143 37.535C33.1143 45.9869 34.646 52.8385 36.535 52.8385C38.424 52.8385 39.9558 45.9869 39.9558 37.535C39.9558 29.083 38.424 22.2314 36.535 22.2314ZM36.7712 51.9749C36.5552 52.263 36.3392 52.0468 36.3392 52.0468C35.4692 51.0388 35.0342 49.1662 35.0342 49.1662C33.5126 44.2691 33.8747 33.7547 33.8747 33.7547C34.5899 25.4073 35.8907 23.4354 36.3334 22.9977C36.3786 22.953 36.4381 22.9257 36.5015 22.9206C36.5649 22.9154 36.628 22.9328 36.6798 22.9697C37.3221 23.4248 37.8608 25.3282 37.8608 25.3282C39.4516 31.2336 39.3076 36.7788 39.3076 36.7788C39.4516 41.6039 38.5104 47.0051 38.5104 47.0051C37.7859 51.1099 36.7712 51.9749 36.7712 51.9749Z" fill="#6F7390"/>
<path d="M49.8113 29.9207C48.8708 28.2816 42.1661 30.3629 34.8313 34.5687C27.4966 38.7746 22.3227 43.5132 23.2626 45.1516C24.2024 46.79 30.9078 44.7095 38.2426 40.5036C45.5773 36.2977 50.7511 31.5592 49.8113 29.9207ZM24.1303 44.9268C23.7702 44.8814 23.8515 44.5855 23.8515 44.5855C24.2932 43.3295 25.6988 42.0202 25.6988 42.0202C29.1909 38.2632 38.4919 33.3451 38.4919 33.3451C46.0875 29.8113 48.4467 29.9604 49.0452 30.1251C49.1067 30.1423 49.1601 30.1806 49.1959 30.2334C49.2318 30.2861 49.2479 30.3498 49.2412 30.4133C49.1693 31.1973 47.7829 32.6113 47.7829 32.6113C43.4552 36.9315 38.5732 39.5666 38.5732 39.5666C34.4596 42.0936 29.3062 43.9639 29.3062 43.9639C25.385 45.3769 24.1304 44.9268 24.1304 44.9268H24.1303Z" fill="#6F7390"/>
<path d="M49.7775 45.2051C50.7253 43.5703 45.5645 38.8101 38.2555 34.5725C30.9465 30.335 24.2426 28.228 23.2956 29.8656C22.3487 31.5032 27.5087 36.2607 34.8218 40.4982C42.135 44.7357 48.8305 46.8428 49.7775 45.2051ZM23.9237 30.4973C23.7837 30.1653 24.0792 30.0854 24.0792 30.0854C25.3877 29.8383 27.2256 30.4014 27.2256 30.4014C32.2257 31.54 41.1416 37.1249 41.1416 37.1249C48.0062 41.9284 49.059 44.0442 49.2168 44.6448C49.2328 44.7064 49.2266 44.7717 49.1992 44.8292C49.1718 44.8866 49.125 44.9326 49.067 44.9589C48.3512 45.2866 46.434 44.7983 46.434 44.7983C40.525 43.2139 35.7993 40.311 35.7993 40.311C31.5533 38.0209 27.3547 34.4971 27.3547 34.4971C24.1643 31.8109 23.9247 30.5009 23.9247 30.5009L23.9237 30.4973Z" fill="#6F7390"/>
<path d="M36.4996 39.2999C37.494 39.2999 38.3 38.4938 38.3 37.4995C38.3 36.5052 37.494 35.6991 36.4996 35.6991C35.5053 35.6991 34.6992 36.5052 34.6992 37.4995C34.6992 38.4938 35.5053 39.2999 36.4996 39.2999Z" fill="#B7B9C8"/>
<path d="M43.8821 31.6661C44.4589 31.6661 44.9264 31.1825 44.9264 30.5859C44.9264 29.9893 44.4589 29.5056 43.8821 29.5056C43.3054 29.5056 42.8379 29.9893 42.8379 30.5859C42.8379 31.1825 43.3054 31.6661 43.8821 31.6661Z" fill="#B7B9C8"/>
<path d="M26.6712 35.4145C27.2479 35.4145 27.7155 34.9309 27.7155 34.3343C27.7155 33.7377 27.2479 33.254 26.6712 33.254C26.0945 33.254 25.627 33.7377 25.627 34.3343C25.627 34.9309 26.0945 35.4145 26.6712 35.4145Z" fill="#B7B9C8"/>
<path d="M34.6243 48.6687C35.2011 48.6687 35.6686 48.185 35.6686 47.5884C35.6686 46.9918 35.2011 46.5082 34.6243 46.5082C34.0476 46.5082 33.5801 46.9918 33.5801 47.5884C33.5801 48.185 34.0476 48.6687 34.6243 48.6687Z" fill="#B7B9C8"/>
</svg>
