<svg width="74" height="74" viewBox="0 0 74 74" fill="none" xmlns="http://www.w3.org/2000/svg">
<circle cx="37" cy="37" r="33" fill="#313238" fill-opacity="0.07"/>
<circle cx="37" cy="37" r="34.988" stroke="#27272B" stroke-opacity="0.22" stroke-width="3.9759"/>
<rect x="20.9326" y="20.9316" width="32.0673" height="32.0659" rx="1.90144" fill="#1D1D22"/>
<path d="M45.4257 37.9543C45.4257 39.2403 45.1305 40.421 44.5402 41.4962C43.9499 42.5503 43.0433 43.4042 41.8205 44.0577C40.5978 44.7113 39.0798 45.0381 37.2667 45.0381H33.9145V53.0073H28.5068V30.8073H37.2667C39.0376 30.8073 40.5345 31.113 41.7573 31.7243C42.9801 32.3357 43.8972 33.1791 44.5086 34.2543C45.12 35.3295 45.4257 36.5628 45.4257 37.9543ZM36.8556 40.7372C37.8886 40.7372 38.6581 40.4947 39.1641 40.0098C39.6701 39.5249 39.9231 38.8398 39.9231 37.9543C39.9231 37.0688 39.6701 36.3836 39.1641 35.8987C38.6581 35.4138 37.8886 35.1714 36.8556 35.1714H33.9145V40.7372H36.8556Z" fill="white"/>
<path d="M45.537 25.1831H28.5068V28.7559H45.537V25.1831Z" fill="#E50913"/>
</svg>
