<svg width="1441" height="40" viewBox="0 0 1441 40" fill="none" xmlns="http://www.w3.org/2000/svg">
<mask id="mask0_282_283" style="mask-type:alpha" maskUnits="userSpaceOnUse" x="0" y="0" width="1441" height="40">
<rect width="1441" height="40" fill="url(#paint0_radial_282_283)"/>
</mask>
<g mask="url(#mask0_282_283)">
<path d="M1009.27 -0.649941L1009.27 -0.650435C1045.39 -11.5557 1077.51 -15.0654 1101.69 -13.6856C1113.78 -12.9956 1123.88 -11.0836 1131.49 -8.26834C1139.11 -5.44962 1144.2 -1.74164 1146.35 2.509C1149.1 7.95823 1148.49 14.1865 1144.84 20.8428C1141.18 27.5041 1134.49 34.5686 1125.15 41.6439C1106.47 55.7925 1077.25 69.9386 1040.72 80.9664C1011.13 89.8985 978.771 94.5653 952.596 94.0373C939.507 93.7733 927.978 92.2106 919.12 89.241C910.258 86.2705 904.119 81.9104 901.714 76.088C899.89 70.2517 901.171 63.8749 905.276 57.2382C909.385 50.595 916.314 43.7122 925.735 36.8964C944.577 23.266 973.337 9.94045 1009.27 -0.649941Z" stroke="url(#paint1_linear_282_283)" stroke-opacity="0.23" stroke-width="0.515692"/>
<path d="M996.485 -35.1622L996.486 -35.1627C1062.88 -55.2088 1121.93 -61.6631 1166.4 -59.1258C1188.63 -57.857 1207.2 -54.3408 1221.22 -49.1576C1235.24 -43.971 1244.66 -37.1314 1248.64 -29.2474C1253.75 -19.1511 1252.6 -7.62808 1245.86 4.64528C1239.12 16.9236 1226.8 29.9274 1209.62 42.9388C1175.27 68.9595 1121.55 94.9648 1054.4 115.235C1000.01 131.655 940.519 140.235 892.392 139.264C868.328 138.778 847.118 135.905 830.809 130.439C814.498 124.971 803.143 116.927 798.69 106.137C795.309 95.3314 797.687 83.5443 805.255 71.3101C812.827 59.0693 825.583 46.4017 842.909 33.8675C877.56 8.80015 930.436 -15.6965 996.485 -35.1622Z" stroke="url(#paint2_linear_282_283)" stroke-opacity="0.23" stroke-width="0.515692"/>
<path d="M972.727 -99.2906L972.728 -99.2911C1095.37 -136.322 1204.47 -148.248 1286.63 -143.56C1327.7 -141.216 1362.03 -134.718 1387.94 -125.135C1413.87 -115.549 1431.32 -102.891 1438.72 -88.2551C1448.19 -69.5241 1446.04 -48.1626 1433.57 -25.452C1421.11 -2.73649 1398.33 21.3033 1366.59 45.3447C1303.12 93.4255 1203.87 141.467 1079.83 178.91C979.339 209.243 869.442 225.094 780.527 223.3C736.068 222.404 696.869 217.096 666.719 206.989C636.566 196.882 615.516 181.993 607.259 161.971C600.985 141.932 605.401 120.093 619.403 97.4573C633.409 74.8156 656.994 51.3989 689.008 28.2391C753.035 -18.0795 850.722 -63.3335 972.727 -99.2906Z" stroke="url(#paint3_linear_282_283)" stroke-opacity="0.23" stroke-width="0.515692"/>
<path d="M1016.19 18.0126L1016.2 18.0124C1035.84 12.0794 1053.32 10.1698 1066.48 10.9205C1073.05 11.2959 1078.55 12.3363 1082.69 13.8684C1086.84 15.4023 1089.61 17.4211 1090.78 19.7383C1092.28 22.7081 1091.95 26.1014 1089.96 29.7252C1087.97 33.3514 1084.33 37.196 1079.25 41.0456C1069.08 48.7439 1053.19 56.4401 1033.31 62.4396C1017.21 67.2991 999.608 69.8382 985.366 69.5509C978.245 69.4073 971.972 68.5571 967.151 66.941C962.328 65.3244 958.984 62.9504 957.673 59.777C956.679 56.5968 957.377 53.1233 959.612 49.5104C961.849 45.8943 965.62 42.1487 970.746 38.4403C980.998 31.0239 996.645 23.7741 1016.19 18.0126Z" stroke="url(#paint4_linear_282_283)" stroke-opacity="0.23" stroke-width="0.252288"/>
</g>
<defs>
<radialGradient id="paint0_radial_282_283" cx="0" cy="0" r="1" gradientUnits="userSpaceOnUse" gradientTransform="translate(86.4999 0.00125692) rotate(3.61011) scale(635.261 22885.3)">
<stop stop-color="#B8F9FE"/>
<stop offset="0.473958" stop-color="#B48FDD"/>
<stop offset="1" stop-color="#83339D"/>
</radialGradient>
<linearGradient id="paint1_linear_282_283" x1="1011.32" y1="-1.63094" x2="1037.6" y2="82.2388" gradientUnits="userSpaceOnUse">
<stop stop-color="white"/>
<stop offset="1" stop-color="white" stop-opacity="0"/>
</linearGradient>
<linearGradient id="paint2_linear_282_283" x1="1000.32" y1="-36.7577" x2="1048.6" y2="117.366" gradientUnits="userSpaceOnUse">
<stop stop-color="white"/>
<stop offset="1" stop-color="white" stop-opacity="0"/>
</linearGradient>
<linearGradient id="paint3_linear_282_283" x1="979.871" y1="-102.028" x2="1069.05" y2="182.638" gradientUnits="userSpaceOnUse">
<stop stop-color="white"/>
<stop offset="1" stop-color="white" stop-opacity="0"/>
</linearGradient>
<linearGradient id="paint4_linear_282_283" x1="1017.32" y1="17.4925" x2="1031.61" y2="63.1183" gradientUnits="userSpaceOnUse">
<stop stop-color="white"/>
<stop offset="1" stop-color="white" stop-opacity="0"/>
</linearGradient>
</defs>
</svg>
