<svg width="1440" height="789" viewBox="0 0 1440 789" fill="none" xmlns="http://www.w3.org/2000/svg">
<rect x="-1" width="1442" height="781" fill="url(#paint0_radial)"/>
<mask id="mask0" mask-type="alpha" maskUnits="userSpaceOnUse" x="-2" y="0" width="1442" height="781">
<rect x="-2" width="1442" height="781" fill="url(#paint1_radial)"/>
</mask>
<g mask="url(#mask0)">
<g opacity="0.07">
<path opacity="0.05" d="M-163.257 1125.04V-404.525H1608.26V1125.04H-163.257ZM-54.7968 1032.09H1499.8V-311.568H-54.7968V1032.09Z" fill="url(#paint2_radial)"/>
<path opacity="0.5" d="M-192.662 -430.3V1151.24H1638.14V-430.3H-192.662ZM1305.05 -429.455H1470.39V-286.639H1305.05V-429.455ZM1470.39 -142.978H1305.05V-285.794H1470.39V-142.978ZM1470.39 0.683197H1305.05V-142.133H1470.39V0.683197ZM1470.39 144.344H1305.05V1.52826H1470.39V144.344ZM1470.39 288.006H1305.05V145.19H1470.39V288.006ZM1470.39 431.667H1305.05V288.851H1470.39V431.667ZM1470.39 575.328H1305.05V432.512H1470.39V575.328ZM1470.39 718.989H1305.05V576.173H1470.39V718.989ZM1470.39 862.65H1305.05V719.834H1470.39V862.65ZM1470.39 1006.31H1305.05V863.495H1470.39V1006.31ZM-25.3929 863.495H139.948V1006.31H-25.3929V863.495ZM-25.3929 719.834H139.948V862.65H-25.3929V719.834ZM-25.3929 576.173H139.948V718.989H-25.3929V576.173ZM-25.3929 432.512H139.948V575.328H-25.3929V432.512ZM-25.3929 288.851H139.948V431.667H-25.3929V288.851ZM-25.3929 145.19H139.948V288.006H-25.3929V145.19ZM-25.3929 1.52826H139.948V144.344H-25.3929V1.52826ZM-25.3929 -142.133H139.948V0.683197H-25.3929V-142.133ZM-25.3929 -285.794H139.948V-142.978H-25.3929V-285.794ZM1304.09 -142.978H1138.74V-285.794H1304.09V-142.978ZM1304.09 0.683197H1138.74V-142.133H1304.09V0.683197ZM1304.09 144.344H1138.74V1.52826H1304.09V144.344ZM1304.09 288.006H1138.74V145.19H1304.09V288.006ZM1304.09 431.667H1138.74V288.851H1304.09V431.667ZM1304.09 575.328H1138.74V432.512H1304.09V575.328ZM1304.09 718.989H1138.74V576.173H1304.09V718.989ZM1304.09 862.65H1138.74V719.834H1304.09V862.65ZM140.913 719.834H306.254V862.65H140.913V719.834ZM140.913 576.173H306.254V718.989H140.913V576.173ZM140.913 432.512H306.254V575.328H140.913V432.512ZM140.913 288.851H306.254V431.667H140.913V288.851ZM140.913 145.19H306.254V288.006H140.913V145.19ZM140.913 1.52826H306.254V144.344H140.913V1.52826ZM140.913 -142.133H306.254V0.683197H140.913V-142.133ZM1137.78 0.683197H972.439V-142.133H1137.78V0.683197ZM1137.78 144.344H972.439V1.52826H1137.78V144.344ZM1137.78 288.006H972.439V145.19H1137.78V288.006ZM1137.78 431.667H972.439V288.851H1137.78V431.667ZM1137.78 575.328H972.439V432.512H1137.78V575.328ZM1137.78 718.989H972.439V576.173H1137.78V718.989ZM307.218 576.173H472.559V718.989H307.218V576.173ZM307.218 432.512H472.559V575.328H307.218V432.512ZM307.218 288.851H472.559V431.667H307.218V288.851ZM307.218 145.19H472.559V288.006H307.218V145.19ZM307.218 1.52826H472.559V144.344H307.218V1.52826ZM971.475 144.344H806.134V1.52826H971.475V144.344ZM971.475 288.006H806.134V145.19H971.475V288.006ZM971.475 431.667H806.134V288.851H971.475V431.667ZM971.475 575.328H806.134V432.512H971.475V575.328ZM473.523 432.512H638.865V575.328H473.523V432.512ZM473.523 288.851H638.865V431.667H473.523V288.851ZM473.523 145.19H638.865V288.006H473.523V145.19ZM805.17 288.006H639.829V145.19H805.17V288.006ZM805.17 431.667H639.829V288.851H805.17V431.667ZM639.829 432.512H805.17V575.328H639.829V432.512ZM805.17 144.344H639.829V1.52826H805.17V144.344ZM638.865 144.344H473.523V1.52826H638.865V144.344ZM473.523 576.173H638.865V718.989H473.523V576.173ZM639.829 576.173H805.17V718.989H639.829V576.173ZM806.134 576.173H971.475V718.989H806.134V576.173ZM971.475 0.683197H806.134V-142.133H971.475V0.683197ZM805.17 0.683197H639.829V-142.133H805.17V0.683197ZM638.865 0.683197H473.523V-142.133H638.865V0.683197ZM472.559 0.683197H307.218V-142.133H472.559V0.683197ZM307.218 719.834H472.559V862.65H307.218V719.834ZM473.523 719.834H638.865V862.65H473.523V719.834ZM639.829 719.834H805.17V862.65H639.829V719.834ZM806.134 719.834H971.475V862.65H806.134V719.834ZM972.439 719.834H1137.78V862.65H972.439V719.834ZM1137.78 -142.978H972.439V-285.794H1137.78V-142.978ZM971.475 -142.978H806.134V-285.794H971.475V-142.978ZM805.17 -142.978H639.829V-285.794H805.17V-142.978ZM638.865 -142.978H473.523V-285.794H638.865V-142.978ZM472.559 -142.978H307.218V-285.794H472.559V-142.978ZM306.254 -142.978H140.913V-285.794H306.254V-142.978ZM140.913 863.495H306.254V1006.31H140.913V863.495ZM307.218 863.495H472.559V1006.31H307.218V863.495ZM473.523 863.495H638.865V1006.31H473.523V863.495ZM639.829 863.495H805.17V1006.31H639.829V863.495ZM806.134 863.495H971.475V1006.31H806.134V863.495ZM972.439 863.495H1137.78V1006.31H972.439V863.495ZM1138.74 863.495H1304.09V1006.31H1138.74V863.495ZM1138.74 -429.455H1304.09V-286.639H1138.74V-429.455ZM972.439 -429.455H1137.78V-286.639H972.439V-429.455ZM806.134 -429.455H971.475V-286.639H806.134V-429.455ZM639.829 -429.455H805.17V-286.639H639.829V-429.455ZM473.523 -429.455H638.865V-286.639H473.523V-429.455ZM307.218 -429.455H472.559V-286.639H307.218V-429.455ZM140.913 -429.455H306.254V-286.639H140.913V-429.455ZM-25.3929 -429.455H139.948V-286.639H-25.3929V-429.455ZM-191.698 -429.455H-26.3569V-286.639H-191.698V-429.455ZM-191.698 -285.794H-26.3569V-142.978H-191.698V-285.794ZM-191.698 -142.133H-26.3569V0.683197H-191.698V-142.133ZM-191.698 1.52826H-26.3569V144.344H-191.698V1.52826ZM-191.698 145.19H-26.3569V288.006H-191.698V145.19ZM-191.698 288.851H-26.3569V431.667H-191.698V288.851ZM-191.698 432.512H-26.3569V575.328H-191.698V432.512ZM-191.698 576.173H-26.3569V718.989H-191.698V576.173ZM-191.698 719.834H-26.3569V862.65H-191.698V719.834ZM-191.698 863.495H-26.3569V1006.31H-191.698V863.495ZM-26.3569 1149.97H-191.698V1007.16H-26.3569V1149.97ZM139.948 1149.97H-25.3929V1007.16H139.948V1149.97ZM306.254 1149.97H140.913V1007.16H306.254V1149.97ZM472.559 1149.97H307.218V1007.16H472.559V1149.97ZM638.865 1149.97H473.523V1007.16H638.865V1149.97ZM805.17 1149.97H639.829V1007.16H805.17V1149.97ZM971.475 1149.97H806.134V1007.16H971.475V1149.97ZM1137.78 1149.97H972.439V1007.16H1137.78V1149.97ZM1304.09 1149.97H1138.74V1007.16H1304.09V1149.97ZM1470.39 1149.97H1305.05V1007.16H1470.39V1149.97ZM1636.7 1149.97H1471.36V1007.16H1636.7V1149.97ZM1636.7 1006.31H1471.36V863.495H1636.7V1006.31ZM1636.7 862.65H1471.36V719.834H1636.7V862.65ZM1636.7 718.989H1471.36V576.173H1636.7V718.989ZM1636.7 575.328H1471.36V432.512H1636.7V575.328ZM1636.7 431.667H1471.36V288.851H1636.7V431.667ZM1636.7 288.006H1471.36V145.19H1636.7V288.006ZM1636.7 144.344H1471.36V1.52826H1636.7V144.344ZM1636.7 0.683197H1471.36V-142.133H1636.7V0.683197ZM1636.7 -142.978H1471.36V-285.794H1636.7V-142.978ZM1471.36 -286.639V-429.455H1636.7V-286.639H1471.36Z" fill="url(#paint3_radial)"/>
<path opacity="0.5" d="M722.741 357.302L726.597 360.682L722.741 364.063L718.884 360.26L722.741 357.302ZM718.884 503.921L722.741 507.301L726.597 503.921L722.741 500.541L718.884 503.921ZM718.884 647.582L722.741 650.962L726.597 647.582L722.741 644.202L718.884 647.582ZM718.884 791.243L722.741 794.624L726.597 791.243L722.741 787.863L718.884 791.243ZM718.884 934.905L722.741 938.285L726.597 934.905L722.741 931.524L718.884 934.905ZM718.884 1078.57L722.741 1081.95L726.597 1078.57L722.741 1075.19L718.884 1078.57ZM718.884 216.599L722.741 219.979L726.597 216.599L722.741 213.218L718.884 216.599ZM718.884 72.9373L722.741 76.3176L726.597 72.9373L722.741 69.5571L718.884 72.9373ZM718.884 -70.7238L722.741 -67.3436L726.597 -70.7238L722.741 -74.1041L718.884 -70.7238ZM718.884 -214.385L722.741 -211.005L726.597 -214.385L722.741 -217.765L718.884 -214.385ZM718.884 -358.046L722.741 -354.666L726.597 -358.046L722.741 -361.427L718.884 -358.046ZM552.579 360.26L556.435 363.64L560.292 360.26L556.435 356.879L552.579 360.26ZM552.579 503.921L556.435 507.301L560.292 503.921L556.435 500.541L552.579 503.921ZM552.579 647.582L556.435 650.962L560.292 647.582L556.435 644.202L552.579 647.582ZM552.579 791.243L556.435 794.624L560.292 791.243L556.435 787.863L552.579 791.243ZM552.579 934.905L556.435 938.285L560.292 934.905L556.435 931.524L552.579 934.905ZM552.579 1078.57L556.435 1081.95L560.292 1078.57L556.435 1075.19L552.579 1078.57ZM552.579 216.599L556.435 219.979L560.292 216.599L556.435 213.218L552.579 216.599ZM552.579 72.9373L556.435 76.3176L560.292 72.9373L556.435 69.5571L552.579 72.9373ZM552.579 -70.7238L556.435 -67.3436L559.81 -70.7238L555.953 -74.1041L552.579 -70.7238ZM552.579 -214.385L556.435 -211.005L559.81 -214.385L555.953 -217.765L552.579 -214.385ZM552.579 -358.046L556.435 -354.666L559.81 -358.046L555.953 -361.427L552.579 -358.046ZM386.274 360.26L390.13 363.64L393.986 360.26L390.13 356.879L386.274 360.26ZM386.274 503.921L390.13 507.301L393.986 503.921L390.13 500.541L386.274 503.921ZM386.274 647.582L390.13 650.962L393.986 647.582L390.13 644.202L386.274 647.582ZM386.274 791.243L390.13 794.624L393.986 791.243L390.13 787.863L386.274 791.243ZM386.274 934.905L390.13 938.285L393.986 934.905L390.13 931.524L386.274 934.905ZM386.274 1078.57L390.13 1081.95L393.986 1078.57L390.13 1075.19L386.274 1078.57ZM386.274 216.599L390.13 219.979L393.986 216.599L390.13 213.218L386.274 216.599ZM386.274 72.9373L390.13 76.3176L393.986 72.9373L390.13 69.5571L386.274 72.9373ZM386.274 -70.7238L390.13 -67.3436L393.986 -70.7238L390.13 -74.1041L386.274 -70.7238ZM386.274 -214.385L390.13 -211.005L393.986 -214.385L390.13 -217.765L386.274 -214.385ZM386.274 -358.046L390.13 -354.666L393.986 -358.046L390.13 -361.427L386.274 -358.046ZM219.968 360.26L223.825 363.64L227.199 360.26L223.343 356.879L219.968 360.26ZM219.968 503.921L223.825 507.301L227.199 503.921L223.343 500.541L219.968 503.921ZM219.968 647.582L223.825 650.962L227.199 647.582L223.343 644.202L219.968 647.582ZM219.968 791.243L223.825 794.624L227.199 791.243L223.343 787.863L219.968 791.243ZM219.968 934.905L223.825 938.285L227.199 934.905L223.343 931.524L219.968 934.905ZM219.968 1078.57L223.825 1081.95L227.199 1078.57L223.343 1075.19L219.968 1078.57ZM219.968 216.599L223.825 219.979L227.199 216.599L223.343 213.218L219.968 216.599ZM219.968 72.9373L223.825 76.3176L227.199 72.9373L223.343 69.5571L219.968 72.9373ZM219.968 -70.7238L223.825 -67.3436L227.199 -70.7238L223.343 -74.1041L219.968 -70.7238ZM219.968 -214.385L223.825 -211.005L227.199 -214.385L223.343 -217.765L219.968 -214.385ZM219.968 -358.046L223.825 -354.666L227.199 -358.046L223.343 -361.427L219.968 -358.046ZM53.663 360.26L57.5193 363.64L61.3757 360.26L57.5193 356.879L53.663 360.26ZM53.663 503.921L57.5193 507.301L61.3757 503.921L57.5193 500.541L53.663 503.921ZM53.663 647.582L57.5193 650.962L61.3757 647.582L57.5193 644.202L53.663 647.582ZM53.663 791.243L57.5193 794.624L61.3757 791.243L57.5193 787.863L53.663 791.243ZM53.663 934.905L57.5193 938.285L61.3757 934.905L57.5193 931.524L53.663 934.905ZM53.663 1078.57L57.5193 1081.95L61.3757 1078.57L57.5193 1075.19L53.663 1078.57ZM53.663 216.599L57.5193 219.979L61.3757 216.599L57.5193 213.218L53.663 216.599ZM53.663 72.9373L57.5193 76.3176L61.3757 72.9373L57.5193 69.5571L53.663 72.9373ZM53.663 -70.7238L57.5193 -67.3436L61.3757 -70.7238L57.5193 -74.1041L53.663 -70.7238ZM53.663 -214.385L57.5193 -211.005L61.3757 -214.385L57.5193 -217.765L53.663 -214.385ZM53.663 -358.046L57.5193 -354.666L61.3757 -358.046L57.5193 -361.427L53.663 -358.046ZM-112.642 360.26L-108.786 363.64L-105.412 360.26L-109.268 356.879L-112.642 360.26ZM-112.642 503.921L-108.786 507.301L-105.412 503.921L-109.268 500.541L-112.642 503.921ZM-112.642 647.582L-108.786 650.962L-105.412 647.582L-109.268 644.202L-112.642 647.582ZM-112.642 791.243L-108.786 794.624L-105.412 791.243L-109.268 787.863L-112.642 791.243ZM-112.642 934.905L-108.786 938.285L-105.412 934.905L-109.268 931.524L-112.642 934.905ZM-112.642 1078.57L-108.786 1081.95L-105.412 1078.57L-109.268 1075.19L-112.642 1078.57ZM-112.642 216.599L-108.786 219.979L-105.412 216.599L-109.268 213.218L-112.642 216.599ZM-112.642 72.9373L-108.786 76.3176L-105.412 72.9373L-109.268 69.5571L-112.642 72.9373ZM-112.642 -70.7238L-108.786 -67.3436L-105.412 -70.7238L-109.268 -74.1041L-112.642 -70.7238ZM-112.642 -214.385L-108.786 -211.005L-105.412 -214.385L-109.268 -217.765L-112.642 -214.385ZM-112.642 -358.046L-108.786 -354.666L-105.412 -358.046L-109.268 -361.427L-112.642 -358.046ZM885.19 360.26L889.046 363.64L892.903 360.26L889.046 356.879L885.19 360.26ZM885.19 503.921L889.046 507.301L892.903 503.921L889.046 500.541L885.19 503.921ZM885.19 647.582L889.046 650.962L892.903 647.582L889.046 644.202L885.19 647.582ZM885.19 791.243L889.046 794.624L892.903 791.243L889.046 787.863L885.19 791.243ZM885.19 934.905L889.046 938.285L892.903 934.905L889.046 931.524L885.19 934.905ZM885.19 1078.57L889.046 1081.95L892.903 1078.57L889.046 1075.19L885.19 1078.57ZM885.19 216.599L889.046 219.979L892.903 216.599L889.046 213.218L885.19 216.599ZM885.19 72.9373L889.046 76.3176L892.903 72.9373L889.046 69.5571L885.19 72.9373ZM885.19 -70.7238L889.046 -67.3436L892.42 -70.7238L888.564 -74.1041L885.19 -70.7238ZM885.19 -214.385L889.046 -211.005L892.42 -214.385L888.564 -217.765L885.19 -214.385ZM885.19 -358.046L889.046 -354.666L892.42 -358.046L888.564 -361.427L885.19 -358.046ZM1051.5 360.26L1055.35 363.64L1059.21 360.26L1055.35 356.879L1051.5 360.26ZM1051.5 503.921L1055.35 507.301L1059.21 503.921L1055.35 500.541L1051.5 503.921ZM1051.5 647.582L1055.35 650.962L1059.21 647.582L1055.35 644.202L1051.5 647.582ZM1051.5 791.243L1055.35 794.624L1059.21 791.243L1055.35 787.863L1051.5 791.243ZM1051.5 934.905L1055.35 938.285L1059.21 934.905L1055.35 931.524L1051.5 934.905ZM1051.5 1078.57L1055.35 1081.95L1059.21 1078.57L1055.35 1075.19L1051.5 1078.57ZM1051.5 216.599L1055.35 219.979L1059.21 216.599L1055.35 213.218L1051.5 216.599ZM1051.5 72.9373L1055.35 76.3176L1059.21 72.9373L1055.35 69.5571L1051.5 72.9373ZM1051.5 -70.7238L1055.35 -67.3436L1059.21 -70.7238L1055.35 -74.1041L1051.5 -70.7238ZM1051.5 -214.385L1055.35 -211.005L1059.21 -214.385L1055.35 -217.765L1051.5 -214.385ZM1051.5 -358.046L1055.35 -354.666L1059.21 -358.046L1055.35 -361.427L1051.5 -358.046ZM1217.8 360.26L1221.66 363.64L1225.51 360.26L1221.66 356.879L1217.8 360.26ZM1217.8 503.921L1221.66 507.301L1225.51 503.921L1221.66 500.541L1217.8 503.921ZM1217.8 647.582L1221.66 650.962L1225.51 647.582L1221.66 644.202L1217.8 647.582ZM1217.8 791.243L1221.66 794.624L1225.51 791.243L1221.66 787.863L1217.8 791.243ZM1217.8 934.905L1221.66 938.285L1225.51 934.905L1221.66 931.524L1217.8 934.905ZM1217.8 1078.57L1221.66 1081.95L1225.51 1078.57L1221.66 1075.19L1217.8 1078.57ZM1217.8 216.599L1221.66 219.979L1225.51 216.599L1221.66 213.218L1217.8 216.599ZM1217.8 72.9373L1221.66 76.3176L1225.51 72.9373L1221.66 69.5571L1217.8 72.9373ZM1217.8 -70.7238L1221.66 -67.3436L1225.03 -70.7238L1221.17 -74.1041L1217.8 -70.7238ZM1217.8 -214.385L1221.66 -211.005L1225.03 -214.385L1221.17 -217.765L1217.8 -214.385ZM1217.8 -358.046L1221.66 -354.666L1225.03 -358.046L1221.17 -361.427L1217.8 -358.046ZM1384.11 360.26L1387.96 363.64L1391.82 360.26L1387.96 356.879L1384.11 360.26ZM1384.11 503.921L1387.96 507.301L1391.82 503.921L1387.96 500.541L1384.11 503.921ZM1384.11 647.582L1387.96 650.962L1391.82 647.582L1387.96 644.202L1384.11 647.582ZM1384.11 791.243L1387.96 794.624L1391.82 791.243L1387.96 787.863L1384.11 791.243ZM1384.11 934.905L1387.96 938.285L1391.82 934.905L1387.96 931.524L1384.11 934.905ZM1384.11 1078.57L1387.96 1081.95L1391.82 1078.57L1387.96 1075.19L1384.11 1078.57ZM1384.11 216.599L1387.96 219.979L1391.82 216.599L1387.96 213.218L1384.11 216.599ZM1384.11 72.9373L1387.96 76.3176L1391.82 72.9373L1387.96 69.5571L1384.11 72.9373ZM1384.11 -70.7238L1387.96 -67.3436L1391.82 -70.7238L1387.96 -74.1041L1384.11 -70.7238ZM1384.11 -214.385L1387.96 -211.005L1391.82 -214.385L1387.96 -217.765L1384.11 -214.385ZM1384.11 -358.046L1387.96 -354.666L1391.82 -358.046L1387.96 -361.427L1384.11 -358.046ZM1550.41 360.26L1554.27 363.64L1558.12 360.26L1554.27 356.879L1550.41 360.26ZM1550.41 503.921L1554.27 507.301L1558.12 503.921L1554.27 500.541L1550.41 503.921ZM1550.41 647.582L1554.27 650.962L1558.12 647.582L1554.27 644.202L1550.41 647.582ZM1550.41 791.243L1554.27 794.624L1558.12 791.243L1554.27 787.863L1550.41 791.243ZM1550.41 934.905L1554.27 938.285L1558.12 934.905L1554.27 931.524L1550.41 934.905ZM1550.41 1078.57L1554.27 1081.95L1558.12 1078.57L1554.27 1075.19L1550.41 1078.57ZM1550.41 216.599L1554.27 219.979L1558.12 216.599L1554.27 213.218L1550.41 216.599ZM1550.41 72.9373L1554.27 76.3176L1558.12 72.9373L1554.27 69.5571L1550.41 72.9373ZM1550.41 -70.7238L1554.27 -67.3436L1557.64 -70.7238L1553.79 -74.1041L1550.41 -70.7238ZM1550.41 -214.385L1554.27 -211.005L1557.64 -214.385L1553.79 -217.765L1550.41 -214.385ZM1550.41 -358.046L1554.27 -354.666L1557.64 -358.046L1553.79 -361.427L1550.41 -358.046Z" fill="url(#paint4_radial)"/>
<path d="M477.862 1150.4L473.042 1154.62L468.221 1150.4L473.042 1146.17L477.862 1150.4ZM306.737 -434.102L301.916 -429.877L306.737 -425.652L311.557 -429.877L306.737 -434.102ZM140.431 -434.102L135.611 -429.877L140.431 -425.652L145.252 -429.877L140.431 -434.102ZM306.737 -290.441L301.916 -286.216L306.737 -281.991L311.557 -286.216L306.737 -290.441ZM306.737 -146.78L301.916 -142.555L306.737 -138.329L311.557 -142.555L306.737 -146.78ZM473.042 715.187L468.221 719.412L473.042 723.638L477.862 719.412L473.042 715.187ZM473.042 858.848L468.221 863.074L473.042 867.299L477.862 863.074L473.042 858.848ZM306.737 1002.51L301.916 1006.73L306.737 1010.96L311.557 1006.73L306.737 1002.51ZM473.042 571.526L468.221 575.751L473.042 579.977L477.862 575.751L473.042 571.526ZM306.737 858.848L301.916 863.074L306.737 867.299L311.557 863.074L306.737 858.848ZM306.737 1146.17L301.916 1150.4L306.737 1154.62L311.557 1150.4L306.737 1146.17ZM306.737 715.187L301.916 719.412L306.737 723.638L311.557 719.412L306.737 715.187ZM306.737 140.542L301.916 144.768L306.737 148.993L311.557 144.768L306.737 140.542ZM306.737 284.203L301.916 288.429L306.737 292.654L311.557 288.429L306.737 284.203ZM306.737 427.865L301.916 432.09L306.737 436.315L311.557 432.09L306.737 427.865ZM306.737 571.526L301.916 575.751L306.737 579.977L311.557 575.751L306.737 571.526ZM306.737 -3.11887L301.916 1.10648L306.737 5.33179L311.557 1.10648L306.737 -3.11887ZM639.347 284.203L634.527 288.429L639.347 292.654L644.168 288.429L639.347 284.203ZM639.347 427.865L634.527 432.09L639.347 436.315L644.168 432.09L639.347 427.865ZM639.347 571.526L634.527 575.751L639.347 579.977L644.168 575.751L639.347 571.526ZM639.347 858.848L634.527 863.074L639.347 867.299L644.168 863.074L639.347 858.848ZM639.347 715.187L634.527 719.412L639.347 723.638L644.168 719.412L639.347 715.187ZM639.347 -146.78L634.527 -142.555L639.347 -138.329L644.168 -142.555L639.347 -146.78ZM639.347 140.542L634.527 144.768L639.347 148.993L644.168 144.768L639.347 140.542ZM639.347 -3.11887L634.527 1.10648L639.347 5.33179L644.168 1.10648L639.347 -3.11887ZM639.347 1146.17L634.527 1150.4L639.347 1154.62L644.168 1150.4L639.347 1146.17ZM473.042 -3.11887L468.221 1.10648L473.042 5.33179L477.862 1.10648L473.042 -3.11887ZM473.042 -146.78L468.221 -142.555L473.042 -138.329L477.862 -142.555L473.042 -146.78ZM473.042 140.542L468.221 144.768L473.042 148.993L477.862 144.768L473.042 140.542ZM473.042 284.203L468.221 288.429L473.042 292.654L477.862 288.429L473.042 284.203ZM473.042 -434.102L468.221 -429.877L473.042 -425.652L477.862 -429.877L473.042 -434.102ZM473.042 427.865L468.221 432.09L473.042 436.315L477.862 432.09L473.042 427.865ZM639.347 1002.51L634.527 1006.73L639.347 1010.96L644.168 1006.73L639.347 1002.51ZM-192.18 140.542L-197 144.768L-192.18 148.993L-187.359 144.768L-192.18 140.542ZM-25.8742 1146.17L-30.6946 1150.4L-25.8742 1154.62L-21.0537 1150.4L-25.8742 1146.17ZM-192.18 -3.11887L-197 1.10648L-192.18 5.33179L-187.359 1.10648L-192.18 -3.11887ZM-192.18 -290.441L-197 -286.216L-192.18 -281.991L-187.359 -286.216L-192.18 -290.441ZM140.431 -290.441L135.611 -286.216L140.431 -281.991L145.252 -286.216L140.431 -290.441ZM-192.18 -434.102L-197 -429.877L-192.18 -425.652L-187.359 -429.877L-192.18 -434.102ZM-25.8742 715.187L-30.6946 719.412L-25.8742 723.638L-21.0537 719.412L-25.8742 715.187ZM-25.8742 858.848L-30.6946 863.074L-25.8742 867.299L-21.0537 863.074L-25.8742 858.848ZM1637.18 -425.652L1642 -429.877L1637.18 -434.102L1632.36 -429.877L1637.18 -425.652ZM-192.18 1146.17L-197 1150.4L-192.18 1154.62L-187.359 1150.4L-192.18 1146.17ZM-192.18 1002.51L-197 1006.73L-192.18 1010.96L-187.359 1006.73L-192.18 1002.51ZM-192.18 715.187L-197 719.412L-192.18 723.638L-187.359 719.412L-192.18 715.187ZM-192.18 571.526L-197 575.751L-192.18 579.977L-187.359 575.751L-192.18 571.526ZM-192.18 284.203L-197 288.429L-192.18 292.654L-187.359 288.429L-192.18 284.203ZM-192.18 427.865L-197 432.09L-192.18 436.315L-187.359 432.09L-192.18 427.865ZM639.347 -290.441L634.527 -286.216L639.347 -281.991L644.168 -286.216L639.347 -290.441ZM-192.18 -146.78L-197 -142.555L-192.18 -138.329L-187.359 -142.555L-192.18 -146.78ZM140.431 858.848L135.611 863.074L140.431 867.299L145.252 863.074L140.431 858.848ZM140.431 427.865L135.611 432.09L140.431 436.315L145.252 432.09L140.431 427.865ZM140.431 571.526L135.611 575.751L140.431 579.977L145.252 575.751L140.431 571.526ZM140.431 715.187L135.611 719.412L140.431 723.638L145.252 719.412L140.431 715.187ZM140.431 284.203L135.611 288.429L140.431 292.654L145.252 288.429L140.431 284.203ZM-25.8742 427.865L-30.6946 432.09L-25.8742 436.315L-21.0537 432.09L-25.8742 427.865ZM140.431 -3.11887L135.611 1.10648L140.431 5.33179L145.252 1.10648L140.431 -3.11887ZM140.431 140.542L135.611 144.768L140.431 148.993L145.252 144.768L140.431 140.542ZM140.431 -146.78L135.611 -142.555L140.431 -138.329L145.252 -142.555L140.431 -146.78ZM-25.8742 -146.78L-30.6946 -142.555L-25.8742 -138.329L-21.0537 -142.555L-25.8742 -146.78ZM140.431 1002.51L135.611 1006.73L140.431 1010.96L145.252 1006.73L140.431 1002.51ZM-25.8742 284.203L-30.6946 288.429L-25.8742 292.654L-21.0537 288.429L-25.8742 284.203ZM-25.8742 -3.11887L-30.6946 1.10648L-25.8742 5.33179L-21.0537 1.10648L-25.8742 -3.11887ZM140.431 1146.17L135.611 1150.4L140.431 1154.62L145.252 1150.4L140.431 1146.17ZM-25.8742 -434.102L-30.6946 -429.877L-25.8742 -425.652L-21.0537 -429.877L-25.8742 -434.102ZM-192.18 858.848L-197 863.074L-192.18 867.299L-187.359 863.074L-192.18 858.848ZM1304.57 -290.441L1299.75 -286.216L1304.57 -281.991L1309.39 -286.216L1304.57 -290.441ZM1304.57 -3.11887L1299.75 1.10648L1304.57 5.33179L1309.39 1.10648L1304.57 -3.11887ZM1470.87 1146.17L1466.05 1150.4L1470.87 1154.62L1475.69 1150.4L1470.87 1146.17ZM1304.57 -146.78L1299.75 -142.555L1304.57 -138.329L1309.39 -142.555L1304.57 -146.78ZM1304.57 -434.102L1299.75 -429.877L1304.57 -425.652L1309.39 -429.877L1304.57 -434.102ZM1470.87 427.865L1466.05 432.09L1470.87 436.315L1475.69 432.09L1470.87 427.865ZM1138.26 -434.102L1133.44 -429.877L1138.26 -425.652L1143.08 -429.877L1138.26 -434.102ZM1470.87 715.187L1466.05 719.412L1470.87 723.638L1475.69 719.412L1470.87 715.187ZM1304.57 140.542L1299.75 144.768L1304.57 148.993L1309.39 144.768L1304.57 140.542ZM1304.57 715.187L1299.75 719.412L1304.57 723.638L1309.39 719.412L1304.57 715.187ZM1304.57 858.848L1299.75 863.074L1304.57 867.299L1309.39 863.074L1304.57 858.848ZM1304.57 1146.17L1299.75 1150.4L1304.57 1154.62L1309.39 1150.4L1304.57 1146.17ZM1304.57 1002.51L1299.75 1006.73L1304.57 1010.96L1309.39 1006.73L1304.57 1002.51ZM1304.57 284.203L1299.75 288.429L1304.57 292.654L1309.39 288.429L1304.57 284.203ZM1304.57 427.865L1299.75 432.09L1304.57 436.315L1309.39 432.09L1304.57 427.865ZM1304.57 571.526L1299.75 575.751L1304.57 579.977L1309.39 575.751L1304.57 571.526ZM1470.87 858.848L1466.05 863.074L1470.87 867.299L1475.69 863.074L1470.87 858.848ZM1637.18 427.865L1632.36 432.09L1637.18 436.315L1642 432.09L1637.18 427.865ZM1637.18 284.203L1632.36 288.429L1637.18 292.654L1642 288.429L1637.18 284.203ZM1637.18 571.526L1632.36 575.751L1637.18 579.977L1642 575.751L1637.18 571.526ZM1637.18 140.542L1632.36 144.768L1637.18 148.993L1642 144.768L1637.18 140.542ZM1637.18 -146.78L1632.36 -142.555L1637.18 -138.329L1642 -142.555L1637.18 -146.78ZM1637.18 -3.11887L1632.36 1.10648L1637.18 5.33179L1642 1.10648L1637.18 -3.11887ZM1637.18 -290.441L1632.36 -286.216L1637.18 -281.991L1642 -286.216L1637.18 -290.441ZM1637.18 715.187L1632.36 719.412L1637.18 723.638L1642 719.412L1637.18 715.187ZM1470.87 284.203L1466.05 288.429L1470.87 292.654L1475.69 288.429L1470.87 284.203ZM1470.87 -146.78L1466.05 -142.555L1470.87 -138.329L1475.69 -142.555L1470.87 -146.78ZM1470.87 -3.11887L1466.05 1.10648L1470.87 5.33179L1475.69 1.10648L1470.87 -3.11887ZM1637.18 858.848L1632.36 863.074L1637.18 867.299L1642 863.074L1637.18 858.848ZM1637.18 1002.51L1632.36 1006.73L1637.18 1010.96L1642 1006.73L1637.18 1002.51ZM1637.18 1146.17L1632.36 1150.4L1637.18 1154.62L1642 1150.4L1637.18 1146.17ZM1470.87 -434.102L1466.05 -429.877L1470.87 -425.652L1475.69 -429.877L1470.87 -434.102ZM805.653 715.187L800.832 719.412L805.653 723.638L810.473 719.412L805.653 715.187ZM805.653 -3.11887L800.832 1.10648L805.653 5.33179L810.473 1.10648L805.653 -3.11887ZM805.653 -434.102L800.832 -429.877L805.653 -425.652L810.473 -429.877L805.653 -434.102ZM805.653 -146.78L800.832 -142.555L805.653 -138.329L810.473 -142.555L805.653 -146.78ZM971.958 571.526L967.138 575.751L971.958 579.977L976.778 575.751L971.958 571.526ZM805.653 -290.441L800.832 -286.216L805.653 -281.991L810.473 -286.216L805.653 -290.441ZM971.958 715.187L967.138 719.412L971.958 723.638L976.778 719.412L971.958 715.187ZM971.958 858.848L967.138 863.074L971.958 867.299L976.778 863.074L971.958 858.848ZM971.958 1146.17L967.138 1150.4L971.958 1154.62L976.778 1150.4L971.958 1146.17ZM805.653 140.542L800.832 144.768L805.653 148.993L810.473 144.768L805.653 140.542ZM639.347 -434.102L634.527 -429.877L639.347 -425.652L644.168 -429.877L639.347 -434.102ZM805.653 1002.51L800.832 1006.73L805.653 1010.96L810.473 1006.73L805.653 1002.51ZM805.653 1146.17L800.832 1150.4L805.653 1154.62L810.473 1150.4L805.653 1146.17ZM805.653 858.848L800.832 863.074L805.653 867.299L810.473 863.074L805.653 858.848ZM805.653 571.526L800.832 575.751L805.653 579.977L810.473 575.751L805.653 571.526ZM805.653 284.203L800.832 288.429L805.653 292.654L810.473 288.429L805.653 284.203ZM805.653 427.865L800.832 432.09L805.653 436.315L810.473 432.09L805.653 427.865ZM1138.26 1146.17L1133.44 1150.4L1138.26 1154.62L1143.08 1150.4L1138.26 1146.17ZM1138.26 284.203L1133.44 288.429L1138.26 292.654L1143.08 288.429L1138.26 284.203ZM1138.26 427.865L1133.44 432.09L1138.26 436.315L1143.08 432.09L1138.26 427.865ZM1138.26 571.526L1133.44 575.751L1138.26 579.977L1143.08 575.751L1138.26 571.526ZM1138.26 715.187L1133.44 719.412L1138.26 723.638L1143.08 719.412L1138.26 715.187ZM1138.26 -146.78L1133.44 -142.555L1138.26 -138.329L1143.08 -142.555L1138.26 -146.78ZM1138.26 858.848L1133.44 863.074L1138.26 867.299L1143.08 863.074L1138.26 858.848ZM1138.26 -3.11887L1133.44 1.10648L1138.26 5.33179L1143.08 1.10648L1138.26 -3.11887ZM1138.26 140.542L1133.44 144.768L1138.26 148.993L1143.08 144.768L1138.26 140.542ZM971.958 284.203L967.138 288.429L971.958 292.654L976.778 288.429L971.958 284.203ZM971.958 -3.11887L967.138 1.10648L971.958 5.33179L976.778 1.10648L971.958 -3.11887ZM971.958 -146.78L967.138 -142.555L971.958 -138.329L976.778 -142.555L971.958 -146.78ZM971.958 140.542L967.138 144.768L971.958 148.993L976.778 144.768L971.958 140.542ZM971.958 427.865L967.138 432.09L971.958 436.315L976.778 432.09L971.958 427.865ZM971.958 -434.102L967.138 -429.877L971.958 -425.652L976.778 -429.877L971.958 -434.102ZM1138.26 -290.441L1133.44 -286.216L1138.26 -281.991L1143.08 -286.216L1138.26 -290.441ZM1138.26 1002.51L1133.44 1006.73L1138.26 1010.96L1143.08 1006.73L1138.26 1002.51Z" fill="url(#paint5_radial)"/>
</g>
</g>
<defs>
<radialGradient id="paint0_radial" cx="0" cy="0" r="1" gradientUnits="userSpaceOnUse" gradientTransform="translate(1077 407) rotate(-159.585) scale(1143.85 1403.75)">
<stop stop-color="#202021"/>
<stop offset="1" stop-color="#1C1C21"/>
</radialGradient>
<radialGradient id="paint1_radial" cx="0" cy="0" r="1" gradientUnits="userSpaceOnUse" gradientTransform="translate(1064 391) rotate(132.749) scale(531.093 980.585)">
<stop stop-color="white" stop-opacity="0"/>
<stop offset="1" stop-color="white"/>
</radialGradient>
<radialGradient id="paint2_radial" cx="0" cy="0" r="1" gradientUnits="userSpaceOnUse" gradientTransform="translate(1058.5 392) rotate(131.894) scale(502.43 581.904)">
<stop stop-color="white" stop-opacity="0"/>
<stop offset="1" stop-color="white"/>
</radialGradient>
<radialGradient id="paint3_radial" cx="0" cy="0" r="1" gradientUnits="userSpaceOnUse" gradientTransform="translate(1056.5 373) rotate(132.616) scale(552.375 639.434)">
<stop stop-color="white" stop-opacity="0"/>
<stop offset="1" stop-color="white"/>
</radialGradient>
<radialGradient id="paint4_radial" cx="0" cy="0" r="1" gradientUnits="userSpaceOnUse" gradientTransform="translate(1062.5 403) rotate(137.702) scale(547.556 633.82)">
<stop stop-color="white" stop-opacity="0"/>
<stop offset="1" stop-color="white"/>
</radialGradient>
<radialGradient id="paint5_radial" cx="0" cy="0" r="1" gradientUnits="userSpaceOnUse" gradientTransform="translate(1053 386) rotate(135.136) scale(595.386 689.178)">
<stop stop-color="white" stop-opacity="0"/>
<stop offset="1" stop-color="white"/>
</radialGradient>
</defs>
</svg>
