<svg width="397" height="386" viewBox="0 0 397 386" fill="none" xmlns="http://www.w3.org/2000/svg">
<g opacity="0.1" clip-path="url(#clip0_4_2841)">
<path fill-rule="evenodd" clip-rule="evenodd" d="M263.5 -141C409.037 -141 527 -23.0373 527 122.5C527 268.037 409.037 386 263.5 386C117.963 386 0 268.037 0 122.5C0 -23.0373 117.963 -141 263.5 -141Z" fill="#F0B90B"/>
<path d="M144.819 122.5L145.009 192.175L204.212 227.013V267.805L110.362 212.761V102.125L144.819 122.5ZM144.819 52.8244V93.4261L110.341 73.0302V32.4285L144.819 12.0326L179.467 32.4285L144.819 52.8244ZM228.937 32.4285L263.415 12.0326L298.063 32.4285L263.415 52.8244L228.937 32.4285Z" fill="white"/>
<path d="M169.734 177.733V136.942L204.212 157.337V197.939L169.734 177.733ZM228.937 241.624L263.415 262.019L298.063 241.624V282.225L263.415 302.621L228.937 282.225V241.624ZM347.511 32.4285L381.99 12.0326L416.637 32.4285V73.0302L381.99 93.4261V52.8244L347.511 32.4285ZM381.99 192.175L382.18 122.5L416.659 102.104V212.74L322.808 267.783V226.992L381.99 192.175Z" fill="white"/>
<path d="M357.267 177.734L322.788 197.94V157.338L357.267 136.943V177.734Z" fill="white"/>
<path d="M357.266 67.2659L357.456 108.058L298.084 142.895V212.74L263.606 232.946L229.127 212.74V142.895L169.755 108.058V67.2659L204.381 46.87L263.394 81.8766L322.766 46.87L357.414 67.2659H357.266ZM169.734 -2.38845L263.415 -57.6221L357.266 -2.38845L322.787 18.0074L263.415 -16.9992L204.212 18.0074L169.734 -2.38845Z" fill="white"/>
</g>
<defs>
<clipPath id="clip0_4_2841">
<rect width="527" height="527" fill="white" transform="translate(0 -141)"/>
</clipPath>
</defs>
</svg>
