<svg width="354" height="130" viewBox="0 0 354 130" fill="none" xmlns="http://www.w3.org/2000/svg">
<rect width="354" height="130" fill="#25252B"/>
<path d="M81.6074 59.3594L85.625 70.7031L89.6211 59.3594H93.8535V75H90.6201V70.7246L90.9424 63.3447L86.7207 75H84.5078L80.2969 63.3555L80.6191 70.7246V75H77.3965V59.3594H81.6074ZM95.9805 69.0811C95.9805 67.9281 96.2025 66.9004 96.6465 65.998C97.0905 65.0957 97.7279 64.3975 98.5586 63.9033C99.3965 63.4092 100.367 63.1621 101.47 63.1621C103.038 63.1621 104.316 63.6419 105.305 64.6016C106.3 65.5612 106.855 66.8646 106.97 68.5117L106.991 69.3066C106.991 71.0898 106.493 72.5221 105.498 73.6035C104.503 74.6777 103.167 75.2148 101.491 75.2148C99.8154 75.2148 98.4762 74.6777 97.4736 73.6035C96.4782 72.5293 95.9805 71.0684 95.9805 69.2207V69.0811ZM99.085 69.3066C99.085 70.4095 99.2926 71.2546 99.708 71.8418C100.123 72.4219 100.718 72.7119 101.491 72.7119C102.243 72.7119 102.83 72.4255 103.253 71.8525C103.675 71.2725 103.887 70.3486 103.887 69.0811C103.887 67.9997 103.675 67.1618 103.253 66.5674C102.83 65.973 102.236 65.6758 101.47 65.6758C100.711 65.6758 100.123 65.973 99.708 66.5674C99.2926 67.1546 99.085 68.0677 99.085 69.3066ZM115.435 66.2881C115.012 66.2308 114.64 66.2021 114.317 66.2021C113.143 66.2021 112.373 66.5996 112.008 67.3945V75H108.903V63.377H111.836L111.922 64.7627C112.545 63.6956 113.408 63.1621 114.511 63.1621C114.854 63.1621 115.177 63.2087 115.478 63.3018L115.435 66.2881ZM122.073 75.2148C120.369 75.2148 118.979 74.6921 117.905 73.6465C116.838 72.6009 116.305 71.208 116.305 69.4678V69.167C116.305 67.9997 116.53 66.9577 116.981 66.041C117.433 65.1172 118.07 64.4082 118.894 63.9141C119.724 63.4128 120.67 63.1621 121.729 63.1621C123.319 63.1621 124.569 63.6634 125.479 64.666C126.395 65.6686 126.854 67.0902 126.854 68.9307V70.1982H119.452C119.552 70.9574 119.853 71.5661 120.354 72.0244C120.863 72.4827 121.504 72.7119 122.277 72.7119C123.473 72.7119 124.408 72.2786 125.081 71.4121L126.606 73.1201C126.141 73.779 125.511 74.2946 124.716 74.667C123.921 75.0322 123.04 75.2148 122.073 75.2148ZM121.719 65.6758C121.103 65.6758 120.602 65.8835 120.215 66.2988C119.835 66.7142 119.592 67.3086 119.484 68.082H123.803V67.835C123.788 67.1475 123.602 66.6175 123.244 66.2451C122.886 65.8656 122.378 65.6758 121.719 65.6758ZM146.587 69.79C146.465 71.473 145.842 72.7979 144.718 73.7646C143.601 74.7314 142.125 75.2148 140.292 75.2148C138.287 75.2148 136.708 74.5417 135.555 73.1953C134.409 71.8418 133.836 69.987 133.836 67.6309V66.6748C133.836 65.1709 134.101 63.846 134.631 62.7002C135.161 61.5544 135.916 60.6771 136.897 60.0684C137.886 59.4525 139.032 59.1445 140.335 59.1445C142.14 59.1445 143.593 59.6279 144.696 60.5947C145.799 61.5615 146.437 62.9186 146.608 64.666H143.386C143.307 63.6562 143.024 62.9258 142.537 62.4746C142.057 62.0163 141.323 61.7871 140.335 61.7871C139.261 61.7871 138.455 62.1738 137.918 62.9473C137.388 63.7135 137.116 64.9059 137.102 66.5244V67.7061C137.102 69.3962 137.356 70.6315 137.864 71.4121C138.38 72.1927 139.189 72.583 140.292 72.583C141.287 72.583 142.029 72.3574 142.516 71.9062C143.01 71.4479 143.293 70.7425 143.364 69.79H146.587ZM148.016 69.0811C148.016 67.9281 148.238 66.9004 148.682 65.998C149.126 65.0957 149.763 64.3975 150.594 63.9033C151.432 63.4092 152.402 63.1621 153.505 63.1621C155.073 63.1621 156.352 63.6419 157.34 64.6016C158.335 65.5612 158.89 66.8646 159.005 68.5117L159.026 69.3066C159.026 71.0898 158.529 72.5221 157.533 73.6035C156.538 74.6777 155.202 75.2148 153.526 75.2148C151.851 75.2148 150.511 74.6777 149.509 73.6035C148.513 72.5293 148.016 71.0684 148.016 69.2207V69.0811ZM151.12 69.3066C151.12 70.4095 151.328 71.2546 151.743 71.8418C152.159 72.4219 152.753 72.7119 153.526 72.7119C154.278 72.7119 154.866 72.4255 155.288 71.8525C155.711 71.2725 155.922 70.3486 155.922 69.0811C155.922 67.9997 155.711 67.1618 155.288 66.5674C154.866 65.973 154.271 65.6758 153.505 65.6758C152.746 65.6758 152.159 65.973 151.743 66.5674C151.328 67.1546 151.12 68.0677 151.12 69.3066ZM163.85 63.377L163.946 64.6768C164.77 63.667 165.883 63.1621 167.287 63.1621C168.784 63.1621 169.812 63.7529 170.37 64.9346C171.187 63.7529 172.35 63.1621 173.861 63.1621C175.122 63.1621 176.06 63.5309 176.676 64.2686C177.292 64.999 177.6 66.1019 177.6 67.5771V75H174.484V67.5879C174.484 66.929 174.355 66.4492 174.098 66.1484C173.84 65.8405 173.385 65.6865 172.733 65.6865C171.802 65.6865 171.158 66.1305 170.8 67.0186L170.811 75H167.706V67.5986C167.706 66.9255 167.574 66.4385 167.309 66.1377C167.044 65.8369 166.592 65.6865 165.955 65.6865C165.074 65.6865 164.437 66.0518 164.043 66.7822V75H160.938V63.377H163.85ZM183.271 75H180.156V63.377H183.271V75ZM179.974 60.3691C179.974 59.9036 180.128 59.5205 180.436 59.2197C180.751 58.9189 181.177 58.7686 181.714 58.7686C182.244 58.7686 182.666 58.9189 182.981 59.2197C183.297 59.5205 183.454 59.9036 183.454 60.3691C183.454 60.8418 183.293 61.2285 182.971 61.5293C182.656 61.8301 182.237 61.9805 181.714 61.9805C181.191 61.9805 180.769 61.8301 180.446 61.5293C180.131 61.2285 179.974 60.8418 179.974 60.3691ZM188.696 63.377L188.793 64.7197C189.624 63.6813 190.737 63.1621 192.134 63.1621C193.366 63.1621 194.282 63.5238 194.884 64.2471C195.485 64.9704 195.793 66.0518 195.808 67.4912V75H192.703V67.5664C192.703 66.9076 192.56 66.4313 192.273 66.1377C191.987 65.8369 191.511 65.6865 190.845 65.6865C189.971 65.6865 189.316 66.0589 188.879 66.8037V75H185.774V63.377H188.696ZM197.72 69.1025C197.72 67.3193 198.142 65.8835 198.987 64.7949C199.84 63.7064 200.985 63.1621 202.425 63.1621C203.7 63.1621 204.691 63.599 205.4 64.4727L205.529 63.377H208.344V74.6133C208.344 75.6302 208.111 76.5146 207.646 77.2666C207.187 78.0186 206.539 78.5915 205.701 78.9854C204.863 79.3792 203.882 79.5762 202.758 79.5762C201.906 79.5762 201.075 79.4043 200.266 79.0605C199.456 78.724 198.844 78.2871 198.429 77.75L199.804 75.8594C200.577 76.7259 201.515 77.1592 202.618 77.1592C203.442 77.1592 204.083 76.9372 204.541 76.4932C204.999 76.0563 205.229 75.4333 205.229 74.624V74.001C204.512 74.8102 203.571 75.2148 202.403 75.2148C201.007 75.2148 199.875 74.6706 199.009 73.582C198.149 72.4863 197.72 71.0361 197.72 69.2314V69.1025ZM200.824 69.3281C200.824 70.3809 201.035 71.208 201.458 71.8096C201.881 72.404 202.461 72.7012 203.198 72.7012C204.144 72.7012 204.82 72.3467 205.229 71.6377V66.75C204.813 66.041 204.144 65.6865 203.22 65.6865C202.475 65.6865 201.888 65.9909 201.458 66.5996C201.035 67.2083 200.824 68.1178 200.824 69.3281ZM224.532 70.8965C224.532 70.2878 224.317 69.8223 223.888 69.5C223.458 69.1706 222.685 68.8268 221.567 68.4688C220.45 68.1035 219.566 67.7454 218.914 67.3945C217.138 66.4349 216.25 65.1423 216.25 63.5166C216.25 62.6715 216.486 61.9196 216.959 61.2607C217.439 60.5947 218.123 60.0755 219.011 59.7031C219.906 59.3307 220.909 59.1445 222.019 59.1445C223.136 59.1445 224.131 59.3486 225.005 59.7568C225.879 60.1579 226.555 60.7272 227.035 61.4648C227.522 62.2025 227.766 63.0404 227.766 63.9785H224.543C224.543 63.2624 224.317 62.7074 223.866 62.3135C223.415 61.9124 222.781 61.7119 221.965 61.7119C221.177 61.7119 220.565 61.8802 220.128 62.2168C219.691 62.5462 219.473 62.9831 219.473 63.5273C219.473 64.0358 219.727 64.4619 220.235 64.8057C220.751 65.1494 221.507 65.4717 222.502 65.7725C224.335 66.3239 225.671 67.0078 226.509 67.8242C227.347 68.6406 227.766 69.6576 227.766 70.875C227.766 72.2285 227.254 73.292 226.229 74.0654C225.205 74.8317 223.827 75.2148 222.094 75.2148C220.891 75.2148 219.795 74.9964 218.807 74.5596C217.818 74.1156 217.063 73.5104 216.54 72.7441C216.024 71.9779 215.767 71.0898 215.767 70.0801H219C219 71.806 220.031 72.6689 222.094 72.6689C222.86 72.6689 223.458 72.515 223.888 72.207C224.317 71.8919 224.532 71.4551 224.532 70.8965ZM229.27 69.0811C229.27 67.9281 229.492 66.9004 229.936 65.998C230.38 65.0957 231.017 64.3975 231.848 63.9033C232.686 63.4092 233.656 63.1621 234.759 63.1621C236.327 63.1621 237.605 63.6419 238.594 64.6016C239.589 65.5612 240.144 66.8646 240.259 68.5117L240.28 69.3066C240.28 71.0898 239.783 72.5221 238.787 73.6035C237.792 74.6777 236.456 75.2148 234.78 75.2148C233.104 75.2148 231.765 74.6777 230.763 73.6035C229.767 72.5293 229.27 71.0684 229.27 69.2207V69.0811ZM232.374 69.3066C232.374 70.4095 232.582 71.2546 232.997 71.8418C233.412 72.4219 234.007 72.7119 234.78 72.7119C235.532 72.7119 236.119 72.4255 236.542 71.8525C236.965 71.2725 237.176 70.3486 237.176 69.0811C237.176 67.9997 236.965 67.1618 236.542 66.5674C236.119 65.973 235.525 65.6758 234.759 65.6758C234 65.6758 233.412 65.973 232.997 66.5674C232.582 67.1546 232.374 68.0677 232.374 69.3066ZM241.709 69.0811C241.709 67.9281 241.931 66.9004 242.375 65.998C242.819 65.0957 243.456 64.3975 244.287 63.9033C245.125 63.4092 246.095 63.1621 247.198 63.1621C248.767 63.1621 250.045 63.6419 251.033 64.6016C252.029 65.5612 252.584 66.8646 252.698 68.5117L252.72 69.3066C252.72 71.0898 252.222 72.5221 251.227 73.6035C250.231 74.6777 248.896 75.2148 247.22 75.2148C245.544 75.2148 244.205 74.6777 243.202 73.6035C242.207 72.5293 241.709 71.0684 241.709 69.2207V69.0811ZM244.813 69.3066C244.813 70.4095 245.021 71.2546 245.437 71.8418C245.852 72.4219 246.446 72.7119 247.22 72.7119C247.972 72.7119 248.559 72.4255 248.981 71.8525C249.404 71.2725 249.615 70.3486 249.615 69.0811C249.615 67.9997 249.404 67.1618 248.981 66.5674C248.559 65.973 247.965 65.6758 247.198 65.6758C246.439 65.6758 245.852 65.973 245.437 66.5674C245.021 67.1546 244.813 68.0677 244.813 69.3066ZM257.489 63.377L257.586 64.7197C258.417 63.6813 259.53 63.1621 260.927 63.1621C262.159 63.1621 263.075 63.5238 263.677 64.2471C264.278 64.9704 264.586 66.0518 264.601 67.4912V75H261.496V67.5664C261.496 66.9076 261.353 66.4313 261.066 66.1377C260.78 65.8369 260.304 65.6865 259.638 65.6865C258.764 65.6865 258.109 66.0589 257.672 66.8037V75H254.567V63.377H257.489ZM270.122 70.1982H267.544L267.179 59.3594H270.487L270.122 70.1982ZM268.833 71.8955C269.356 71.8955 269.775 72.0495 270.09 72.3574C270.412 72.6654 270.573 73.0592 270.573 73.5391C270.573 74.0117 270.412 74.402 270.09 74.71C269.775 75.0179 269.356 75.1719 268.833 75.1719C268.317 75.1719 267.898 75.0179 267.576 74.71C267.261 74.402 267.104 74.0117 267.104 73.5391C267.104 73.0664 267.261 72.6761 267.576 72.3682C267.898 72.0531 268.317 71.8955 268.833 71.8955Z" fill="white"/>
</svg>
