<svg width="354" height="130" viewBox="0 0 354 130" fill="none" xmlns="http://www.w3.org/2000/svg">
<rect width="354" height="130" fill="#25252B"/>
<path d="M49.6465 57.6719L55.125 73.1406L60.5742 57.6719H66.3457V79H61.9365V73.1699L62.376 63.1064L56.6191 79H53.6016L47.8594 63.1211L48.2988 73.1699V79H43.9043V57.6719H49.6465ZM69.2461 70.9287C69.2461 69.3564 69.5488 67.9551 70.1543 66.7246C70.7598 65.4941 71.6289 64.542 72.7617 63.8682C73.9043 63.1943 75.2275 62.8574 76.7314 62.8574C78.8701 62.8574 80.6133 63.5117 81.9609 64.8203C83.3184 66.1289 84.0752 67.9062 84.2314 70.1523L84.2607 71.2363C84.2607 73.668 83.582 75.6211 82.2246 77.0957C80.8672 78.5605 79.0459 79.293 76.7607 79.293C74.4756 79.293 72.6494 78.5605 71.2822 77.0957C69.9248 75.6309 69.2461 73.6387 69.2461 71.1191V70.9287ZM73.4795 71.2363C73.4795 72.7402 73.7627 73.8926 74.3291 74.6934C74.8955 75.4844 75.7061 75.8799 76.7607 75.8799C77.7861 75.8799 78.5869 75.4893 79.1631 74.708C79.7393 73.917 80.0273 72.6572 80.0273 70.9287C80.0273 69.4541 79.7393 68.3115 79.1631 67.501C78.5869 66.6904 77.7764 66.2852 76.7314 66.2852C75.6963 66.2852 74.8955 66.6904 74.3291 67.501C73.7627 68.3018 73.4795 69.5469 73.4795 71.2363ZM95.7744 67.1201C95.1982 67.042 94.6904 67.0029 94.251 67.0029C92.6494 67.0029 91.5996 67.5449 91.1016 68.6289V79H86.8682V63.1504H90.8672L90.9844 65.04C91.834 63.585 93.0107 62.8574 94.5146 62.8574C94.9834 62.8574 95.4229 62.9209 95.833 63.0479L95.7744 67.1201ZM104.827 79.293C102.503 79.293 100.608 78.5801 99.1436 77.1543C97.6885 75.7285 96.9609 73.8291 96.9609 71.4561V71.0459C96.9609 69.4541 97.2686 68.0332 97.8838 66.7832C98.499 65.5234 99.3682 64.5566 100.491 63.8828C101.624 63.1992 102.913 62.8574 104.358 62.8574C106.526 62.8574 108.23 63.541 109.471 64.9082C110.721 66.2754 111.346 68.2139 111.346 70.7236V72.4521H101.253C101.39 73.4873 101.8 74.3174 102.483 74.9424C103.177 75.5674 104.051 75.8799 105.105 75.8799C106.736 75.8799 108.011 75.2891 108.929 74.1074L111.009 76.4365C110.374 77.335 109.515 78.0381 108.431 78.5459C107.347 79.0439 106.146 79.293 104.827 79.293ZM104.344 66.2852C103.504 66.2852 102.82 66.5684 102.293 67.1348C101.775 67.7012 101.443 68.5117 101.297 69.5664H107.186V69.2295C107.166 68.292 106.912 67.5693 106.424 67.0615C105.936 66.5439 105.242 66.2852 104.344 66.2852ZM138.255 71.8955C138.089 74.1904 137.239 75.9971 135.706 77.3154C134.183 78.6338 132.171 79.293 129.671 79.293C126.937 79.293 124.783 78.375 123.211 76.5391C121.648 74.6934 120.867 72.1641 120.867 68.9512V67.6475C120.867 65.5967 121.229 63.79 121.951 62.2275C122.674 60.665 123.704 59.4688 125.042 58.6387C126.39 57.7988 127.952 57.3789 129.729 57.3789C132.19 57.3789 134.173 58.0381 135.677 59.3564C137.181 60.6748 138.05 62.5254 138.284 64.9082H133.89C133.782 63.5312 133.396 62.5352 132.732 61.9199C132.078 61.2949 131.077 60.9824 129.729 60.9824C128.265 60.9824 127.166 61.5098 126.434 62.5645C125.711 63.6094 125.34 65.2354 125.32 67.4424V69.0537C125.32 71.3584 125.667 73.043 126.36 74.1074C127.063 75.1719 128.167 75.7041 129.671 75.7041C131.028 75.7041 132.039 75.3965 132.703 74.7812C133.377 74.1562 133.763 73.1943 133.86 71.8955H138.255ZM140.203 70.9287C140.203 69.3564 140.506 67.9551 141.111 66.7246C141.717 65.4941 142.586 64.542 143.719 63.8682C144.861 63.1943 146.185 62.8574 147.688 62.8574C149.827 62.8574 151.57 63.5117 152.918 64.8203C154.275 66.1289 155.032 67.9062 155.188 70.1523L155.218 71.2363C155.218 73.668 154.539 75.6211 153.182 77.0957C151.824 78.5605 150.003 79.293 147.718 79.293C145.433 79.293 143.606 78.5605 142.239 77.0957C140.882 75.6309 140.203 73.6387 140.203 71.1191V70.9287ZM144.437 71.2363C144.437 72.7402 144.72 73.8926 145.286 74.6934C145.853 75.4844 146.663 75.8799 147.718 75.8799C148.743 75.8799 149.544 75.4893 150.12 74.708C150.696 73.917 150.984 72.6572 150.984 70.9287C150.984 69.4541 150.696 68.3115 150.12 67.501C149.544 66.6904 148.733 66.2852 147.688 66.2852C146.653 66.2852 145.853 66.6904 145.286 67.501C144.72 68.3018 144.437 69.5469 144.437 71.2363ZM161.795 63.1504L161.927 64.9229C163.05 63.5459 164.568 62.8574 166.482 62.8574C168.523 62.8574 169.925 63.6631 170.687 65.2744C171.8 63.6631 173.387 62.8574 175.447 62.8574C177.166 62.8574 178.445 63.3604 179.285 64.3662C180.125 65.3623 180.545 66.8662 180.545 68.8779V79H176.297V68.8926C176.297 67.9941 176.121 67.3398 175.77 66.9297C175.418 66.5098 174.798 66.2998 173.909 66.2998C172.64 66.2998 171.761 66.9053 171.272 68.1162L171.287 79H167.054V68.9072C167.054 67.9893 166.873 67.3252 166.512 66.915C166.15 66.5049 165.535 66.2998 164.666 66.2998C163.465 66.2998 162.596 66.7979 162.059 67.7939V79H157.825V63.1504H161.795ZM188.279 79H184.031V63.1504H188.279V79ZM183.782 59.0488C183.782 58.4141 183.992 57.8916 184.412 57.4814C184.842 57.0713 185.423 56.8662 186.155 56.8662C186.878 56.8662 187.454 57.0713 187.884 57.4814C188.313 57.8916 188.528 58.4141 188.528 59.0488C188.528 59.6934 188.309 60.2207 187.869 60.6309C187.439 61.041 186.868 61.2461 186.155 61.2461C185.442 61.2461 184.866 61.041 184.427 60.6309C183.997 60.2207 183.782 59.6934 183.782 59.0488ZM195.677 63.1504L195.809 64.9814C196.941 63.5654 198.46 62.8574 200.364 62.8574C202.044 62.8574 203.294 63.3506 204.114 64.3369C204.935 65.3232 205.354 66.7979 205.374 68.7607V79H201.141V68.8633C201.141 67.9648 200.945 67.3154 200.555 66.915C200.164 66.5049 199.515 66.2998 198.606 66.2998C197.415 66.2998 196.521 66.8076 195.926 67.8232V79H191.692V63.1504H195.677ZM207.981 70.958C207.981 68.5264 208.558 66.5684 209.71 65.084C210.872 63.5996 212.435 62.8574 214.397 62.8574C216.136 62.8574 217.488 63.4531 218.455 64.6445L218.631 63.1504H222.469V78.4727C222.469 79.8594 222.151 81.0654 221.517 82.0908C220.892 83.1162 220.008 83.8975 218.865 84.4346C217.723 84.9717 216.385 85.2402 214.852 85.2402C213.689 85.2402 212.557 85.0059 211.453 84.5371C210.35 84.0781 209.515 83.4824 208.948 82.75L210.823 80.1719C211.878 81.3535 213.157 81.9443 214.661 81.9443C215.784 81.9443 216.658 81.6416 217.283 81.0361C217.908 80.4404 218.221 79.5908 218.221 78.4873V77.6377C217.244 78.7412 215.96 79.293 214.368 79.293C212.464 79.293 210.921 78.5508 209.739 77.0664C208.567 75.5723 207.981 73.5947 207.981 71.1338V70.958ZM212.215 71.2656C212.215 72.7012 212.503 73.8291 213.079 74.6494C213.655 75.46 214.446 75.8652 215.452 75.8652C216.741 75.8652 217.664 75.3818 218.221 74.415V67.75C217.654 66.7832 216.741 66.2998 215.481 66.2998C214.466 66.2998 213.665 66.7148 213.079 67.5449C212.503 68.375 212.215 69.6152 212.215 71.2656ZM244.544 73.4043C244.544 72.5742 244.251 71.9395 243.665 71.5C243.079 71.0508 242.024 70.582 240.501 70.0938C238.978 69.5957 237.771 69.1074 236.883 68.6289C234.461 67.3203 233.25 65.5576 233.25 63.3408C233.25 62.1885 233.572 61.1631 234.217 60.2646C234.871 59.3564 235.804 58.6484 237.015 58.1406C238.235 57.6328 239.603 57.3789 241.116 57.3789C242.64 57.3789 243.997 57.6572 245.188 58.2139C246.38 58.7607 247.303 59.5371 247.957 60.543C248.621 61.5488 248.953 62.6914 248.953 63.9707H244.559C244.559 62.9941 244.251 62.2373 243.636 61.7002C243.021 61.1533 242.156 60.8799 241.043 60.8799C239.969 60.8799 239.134 61.1094 238.538 61.5684C237.942 62.0176 237.645 62.6133 237.645 63.3555C237.645 64.0488 237.991 64.6299 238.685 65.0986C239.388 65.5674 240.418 66.0068 241.775 66.417C244.275 67.1689 246.097 68.1016 247.239 69.2148C248.382 70.3281 248.953 71.7148 248.953 73.375C248.953 75.2207 248.255 76.6709 246.858 77.7256C245.462 78.7705 243.582 79.293 241.219 79.293C239.578 79.293 238.084 78.9951 236.736 78.3994C235.389 77.7939 234.358 76.9688 233.646 75.9238C232.942 74.8789 232.591 73.668 232.591 72.291H237C237 74.6445 238.406 75.8213 241.219 75.8213C242.264 75.8213 243.079 75.6113 243.665 75.1914C244.251 74.7617 244.544 74.166 244.544 73.4043ZM251.004 70.9287C251.004 69.3564 251.307 67.9551 251.912 66.7246C252.518 65.4941 253.387 64.542 254.52 63.8682C255.662 63.1943 256.985 62.8574 258.489 62.8574C260.628 62.8574 262.371 63.5117 263.719 64.8203C265.076 66.1289 265.833 67.9062 265.989 70.1523L266.019 71.2363C266.019 73.668 265.34 75.6211 263.982 77.0957C262.625 78.5605 260.804 79.293 258.519 79.293C256.233 79.293 254.407 78.5605 253.04 77.0957C251.683 75.6309 251.004 73.6387 251.004 71.1191V70.9287ZM255.237 71.2363C255.237 72.7402 255.521 73.8926 256.087 74.6934C256.653 75.4844 257.464 75.8799 258.519 75.8799C259.544 75.8799 260.345 75.4893 260.921 74.708C261.497 73.917 261.785 72.6572 261.785 70.9287C261.785 69.4541 261.497 68.3115 260.921 67.501C260.345 66.6904 259.534 66.2852 258.489 66.2852C257.454 66.2852 256.653 66.6904 256.087 67.501C255.521 68.3018 255.237 69.5469 255.237 71.2363ZM267.967 70.9287C267.967 69.3564 268.27 67.9551 268.875 66.7246C269.48 65.4941 270.35 64.542 271.482 63.8682C272.625 63.1943 273.948 62.8574 275.452 62.8574C277.591 62.8574 279.334 63.5117 280.682 64.8203C282.039 66.1289 282.796 67.9062 282.952 70.1523L282.981 71.2363C282.981 73.668 282.303 75.6211 280.945 77.0957C279.588 78.5605 277.767 79.293 275.481 79.293C273.196 79.293 271.37 78.5605 270.003 77.0957C268.646 75.6309 267.967 73.6387 267.967 71.1191V70.9287ZM272.2 71.2363C272.2 72.7402 272.483 73.8926 273.05 74.6934C273.616 75.4844 274.427 75.8799 275.481 75.8799C276.507 75.8799 277.308 75.4893 277.884 74.708C278.46 73.917 278.748 72.6572 278.748 70.9287C278.748 69.4541 278.46 68.3115 277.884 67.501C277.308 66.6904 276.497 66.2852 275.452 66.2852C274.417 66.2852 273.616 66.6904 273.05 67.501C272.483 68.3018 272.2 69.5469 272.2 71.2363ZM289.485 63.1504L289.617 64.9814C290.75 63.5654 292.269 62.8574 294.173 62.8574C295.853 62.8574 297.103 63.3506 297.923 64.3369C298.743 65.3232 299.163 66.7979 299.183 68.7607V79H294.949V68.8633C294.949 67.9648 294.754 67.3154 294.363 66.915C293.973 66.5049 293.323 66.2998 292.415 66.2998C291.224 66.2998 290.33 66.8076 289.734 67.8232V79H285.501V63.1504H289.485ZM306.712 72.4521H303.196L302.698 57.6719H307.21L306.712 72.4521ZM304.954 74.7666C305.667 74.7666 306.238 74.9766 306.668 75.3965C307.107 75.8164 307.327 76.3535 307.327 77.0078C307.327 77.6523 307.107 78.1846 306.668 78.6045C306.238 79.0244 305.667 79.2344 304.954 79.2344C304.251 79.2344 303.68 79.0244 303.24 78.6045C302.811 78.1846 302.596 77.6523 302.596 77.0078C302.596 76.3633 302.811 75.8311 303.24 75.4111C303.68 74.9814 304.251 74.7666 304.954 74.7666Z" fill="white"/>
</svg>
