<svg width="50" height="50" viewBox="0 0 50 50" fill="none" xmlns="http://www.w3.org/2000/svg">
<path d="M25.0726 49.6929C38.6178 49.6929 49.5984 38.7123 49.5984 25.1671C49.5984 11.6219 38.6178 0.641357 25.0726 0.641357C11.5274 0.641357 0.546875 11.6219 0.546875 25.1671C0.546875 38.7123 11.5274 49.6929 25.0726 49.6929Z" fill="#2E3148"/>
<path d="M25.0728 39.3978C32.9324 39.3978 39.3038 33.0264 39.3038 25.1668C39.3038 17.3072 32.9324 10.9358 25.0728 10.9358C17.2132 10.9358 10.8418 17.3072 10.8418 25.1668C10.8418 33.0264 17.2132 39.3978 25.0728 39.3978Z" fill="#1B1E36"/>
<path d="M25.1222 3.76868C22.4748 3.76868 20.3281 13.371 20.3281 25.2162C20.3281 37.0613 22.4748 46.6636 25.1222 46.6636C27.7696 46.6636 29.9163 37.0613 29.9163 25.2162C29.9163 13.371 27.7696 3.76868 25.1222 3.76868ZM25.4532 45.4532C25.1505 45.857 24.8477 45.5541 24.8477 45.5541C23.6285 44.1414 23.0189 41.517 23.0189 41.517C20.8863 34.6539 21.3939 19.9182 21.3939 19.9182C22.3961 8.21961 24.2193 5.45605 24.8397 4.84251C24.903 4.77989 24.9865 4.74163 25.0752 4.73445C25.164 4.72727 25.2525 4.75164 25.3251 4.80327C26.2253 5.44114 26.9803 8.10876 26.9803 8.10876C29.2098 16.3849 29.0079 24.1564 29.0079 24.1564C29.2098 30.9187 27.8907 38.4883 27.8907 38.4883C26.8753 44.2411 25.4532 45.4532 25.4532 45.4532Z" fill="#6F7390"/>
<path d="M43.729 14.545C42.4109 12.2478 33.0144 15.1646 22.7349 21.0591C12.4555 26.9535 5.20453 33.5945 6.52166 35.8907C7.83879 38.1869 17.2363 35.271 27.5157 29.3766C37.7951 23.4822 45.0461 16.8412 43.729 14.545ZM7.73774 35.5756C7.2331 35.512 7.3471 35.0972 7.3471 35.0972C7.96613 33.337 9.93604 31.5021 9.93604 31.5021C14.83 26.2367 27.8652 19.3442 27.8652 19.3442C38.5101 14.3916 41.8166 14.6005 42.6554 14.8315C42.7415 14.8555 42.8163 14.9092 42.8665 14.9831C42.9168 15.057 42.9393 15.1464 42.93 15.2353C42.8292 16.334 40.8862 18.3157 40.8862 18.3157C34.8211 24.3704 27.9791 28.0634 27.9791 28.0634C22.214 31.6049 14.9917 34.2261 14.9917 34.2261C9.49614 36.2064 7.73794 35.5756 7.73794 35.5756H7.73774Z" fill="#6F7390"/>
<path d="M43.6807 35.9655C45.0091 33.6744 37.7763 27.003 27.533 21.0643C17.2896 15.1255 7.89432 12.1726 6.56718 14.4676C5.24005 16.7627 12.4716 23.4301 22.7208 29.3689C32.97 35.3077 42.3536 38.2608 43.6807 35.9655ZM7.44736 15.3529C7.25116 14.8877 7.66535 14.7757 7.66535 14.7757C9.49909 14.4294 12.0749 15.2185 12.0749 15.2185C19.0824 16.8143 31.5778 24.6413 31.5778 24.6413C41.1983 31.3733 42.6738 34.3386 42.8949 35.1803C42.9174 35.2667 42.9087 35.3582 42.8703 35.4387C42.8319 35.5192 42.7662 35.5836 42.685 35.6204C41.6818 36.0797 38.9949 35.3954 38.9949 35.3954C30.7137 33.1749 24.0907 29.1066 24.0907 29.1066C18.14 25.897 12.2558 20.9585 12.2558 20.9585C7.78464 17.1939 7.44874 15.358 7.44874 15.358L7.44736 15.3529Z" fill="#6F7390"/>
<path d="M25.072 27.6897C26.4656 27.6897 27.5952 26.56 27.5952 25.1665C27.5952 23.7729 26.4656 22.6432 25.072 22.6432C23.6785 22.6432 22.5488 23.7729 22.5488 25.1665C22.5488 26.56 23.6785 27.6897 25.072 27.6897Z" fill="#B7B9C8"/>
<path d="M35.4186 16.9912C36.2268 16.9912 36.8821 16.3134 36.8821 15.4772C36.8821 14.6411 36.2268 13.9633 35.4186 13.9633C34.6103 13.9633 33.9551 14.6411 33.9551 15.4772C33.9551 16.3134 34.6103 16.9912 35.4186 16.9912Z" fill="#B7B9C8"/>
<path d="M11.2975 22.2444C12.1058 22.2444 12.761 21.5666 12.761 20.7305C12.761 19.8944 12.1058 19.2166 11.2975 19.2166C10.4892 19.2166 9.83398 19.8944 9.83398 20.7305C9.83398 21.5666 10.4892 22.2444 11.2975 22.2444Z" fill="#B7B9C8"/>
<path d="M22.444 40.8197C23.2522 40.8197 23.9075 40.1419 23.9075 39.3058C23.9075 38.4697 23.2522 37.7919 22.444 37.7919C21.6357 37.7919 20.9805 38.4697 20.9805 39.3058C20.9805 40.1419 21.6357 40.8197 22.444 40.8197Z" fill="#B7B9C8"/>
</svg>
