<svg width="107" height="26" viewBox="0 0 107 26" fill="none" xmlns="http://www.w3.org/2000/svg">
<path d="M40.048 10.5689C40.048 11.455 39.8409 12.2649 39.4269 12.9987C39.0266 13.7186 38.4124 14.3001 37.5843 14.7431C36.77 15.1723 35.7692 15.387 34.5823 15.387H32.574V20.3296H28.5161V5.68848H34.5823C35.7554 5.68848 36.7492 5.89615 37.5635 6.31151C38.3917 6.72688 39.0128 7.30142 39.4269 8.0352C39.8409 8.76899 40.048 9.61353 40.048 10.5689ZM34.1889 12.1472C35.3345 12.1472 35.9073 11.6211 35.9073 10.5689C35.9073 9.50277 35.3345 8.96977 34.1889 8.96977H32.574V12.1472H34.1889Z" fill="black"/>
<path d="M47.1853 20.475C45.4876 20.475 44.0936 20.0735 43.0032 19.2704C41.9128 18.4536 41.3262 17.2906 41.2434 15.7815H45.5705C45.6119 16.2938 45.7637 16.6676 46.0259 16.903C46.2882 17.1383 46.6263 17.256 47.0404 17.256C47.413 17.256 47.7167 17.166 47.9514 16.986C48.1998 16.7922 48.324 16.5291 48.324 16.1969C48.324 15.7677 48.1239 15.4353 47.7236 15.2C47.3234 14.9646 46.6746 14.7015 45.7775 14.4108C44.8251 14.0924 44.0522 13.7878 43.4586 13.497C42.879 13.1924 42.3683 12.7563 41.9266 12.1887C41.4988 11.6072 41.2848 10.8526 41.2848 9.92501C41.2848 8.98355 41.5194 8.18054 41.9887 7.51598C42.458 6.83757 43.1067 6.32528 43.9349 5.97915C44.763 5.63302 45.7016 5.45996 46.7506 5.45996C48.4482 5.45996 49.8009 5.86147 50.8085 6.66448C51.8298 7.45364 52.375 8.5682 52.444 10.0081H48.0342C48.0204 9.56504 47.8823 9.23276 47.6201 9.01124C47.3716 8.78972 47.0473 8.67896 46.647 8.67896C46.3434 8.67896 46.095 8.76892 45.9017 8.9489C45.7084 9.12889 45.6119 9.38505 45.6119 9.71733C45.6119 9.99423 45.7154 10.2365 45.9224 10.4442C46.1432 10.6381 46.4124 10.8111 46.7298 10.9634C47.0473 11.1018 47.5165 11.2818 48.1377 11.5033C49.0624 11.8218 49.8216 12.1402 50.4151 12.4586C51.0224 12.7632 51.54 13.1994 51.9678 13.767C52.4095 14.3208 52.6304 15.0269 52.6304 15.8853C52.6304 16.7575 52.4095 17.5398 51.9678 18.2321C51.54 18.9243 50.912 19.4712 50.0838 19.8727C49.2694 20.2742 48.3033 20.475 47.1853 20.475Z" fill="black"/>
<path d="M65.5105 5.68848V8.92824H61.6182V20.3296H57.5603V8.92824H53.7095V5.68848H65.5105Z" fill="black"/>
<path d="M76.2454 17.9414H71.0697L70.2829 20.3296H66.0178L71.3387 5.68848H76.0179L81.318 20.3296H77.0321L76.2454 17.9414ZM75.2311 14.8262L73.6575 10.0912L72.1047 14.8262H75.2311Z" fill="black"/>
<path d="M91.2741 20.3296L86.6986 13.9124V20.3296H82.6409V5.68848H86.6986V12.0018L91.2326 5.68848H95.9119L90.5495 12.791L96.1808 20.3296H91.2741Z" fill="black"/>
<path d="M101.721 8.94897V11.3373H106.379V14.4317H101.721V17.0692H107V20.3296H97.6628V5.68848H107V8.94897H101.721Z" fill="black"/>
<path d="M12.9618 26C20.1205 26 25.9237 20.1797 25.9237 13C25.9237 5.8203 20.1205 0 12.9618 0C5.80321 0 0 5.8203 0 13C0 20.1797 5.80321 26 12.9618 26Z" fill="black"/>
<path d="M18.6003 4.02979H7.32349V6.23979H18.6003V4.02979Z" fill="#E50913"/>
<path d="M13.1132 22.035C12.0649 22.035 11.1256 21.861 10.2951 21.5129C9.46463 21.1649 8.79754 20.6497 8.29385 19.9676C7.8037 19.2854 7.54504 18.464 7.51782 17.5034H11.2344C11.2889 18.0464 11.4727 18.464 11.7858 18.7564C12.0989 19.0348 12.5074 19.174 13.011 19.174C13.5284 19.174 13.9368 19.0557 14.2363 18.819C14.5358 18.5684 14.6856 18.2273 14.6856 17.7957C14.6856 17.4337 14.5631 17.1344 14.318 16.8977C14.0866 16.6611 13.7939 16.4661 13.4399 16.313C13.0996 16.1599 12.6095 15.9859 11.9696 15.7909C11.0438 15.4986 10.2883 15.2063 9.70286 14.9139C9.11744 14.6215 8.61375 14.1899 8.19171 13.6191C7.76967 13.0483 7.55865 12.3035 7.55865 11.3846C7.55865 10.0202 8.04193 8.9552 9.00856 8.1895C9.97513 7.40982 11.2344 7.02002 12.7864 7.02002C14.3657 7.02002 15.6386 7.40982 16.6052 8.1895C17.5717 8.9552 18.0891 10.0272 18.1572 11.4055H14.3793C14.3521 10.9321 14.1819 10.5632 13.8687 10.2987C13.5556 10.0202 13.154 9.88099 12.6639 9.88099C12.2419 9.88099 11.9015 9.99936 11.6429 10.236C11.3842 10.4588 11.2549 10.7859 11.2549 11.2175C11.2549 11.6909 11.4727 12.0598 11.9083 12.3243C12.344 12.5889 13.0247 12.8742 13.9505 13.1805C14.8762 13.5008 15.6249 13.8071 16.1967 14.0994C16.7822 14.3918 17.2859 14.8164 17.7079 15.3733C18.1299 15.9302 18.341 16.6472 18.341 17.5243C18.341 18.3596 18.1299 19.1183 17.7079 19.8005C17.2995 20.4827 16.7004 21.0257 15.9109 21.4294C15.1212 21.8331 14.1887 22.035 13.1132 22.035Z" fill="white"/>
</svg>
