<svg width="354" height="130" viewBox="0 0 354 130" fill="none" xmlns="http://www.w3.org/2000/svg">
<rect width="354" height="130" fill="#25252B"/>
<path d="M127.807 48.0233V47.9416C127.807 45.7347 129.344 44.1817 131.403 44.1817C133.106 44.1817 134.423 45.0263 134.588 46.7564H133.188C133.037 45.7756 132.488 45.2715 131.417 45.2715C130.113 45.2715 129.262 46.2796 129.262 47.9279V48.0097C129.262 49.6717 130.058 50.6389 131.431 50.6389C132.46 50.6389 133.188 50.1212 133.325 49.0859H134.671C134.451 50.8568 133.188 51.7559 131.431 51.7559C129.111 51.7559 127.807 50.2847 127.807 48.0233Z" fill="white"/>
<path d="M136.057 48.0233V47.9416C136.057 45.7892 137.608 44.1953 139.805 44.1953C142.001 44.1953 143.539 45.7483 143.539 47.9007V47.9824C143.539 50.1348 142.056 51.7423 139.805 51.7423C137.54 51.7559 136.057 50.1484 136.057 48.0233ZM142.111 48.0097V47.9279C142.111 46.4158 141.26 45.2988 139.805 45.2988C138.35 45.2988 137.499 46.3613 137.499 47.9416V48.0233C137.499 49.6308 138.487 50.6661 139.832 50.6661C141.232 50.6525 142.111 49.6035 142.111 48.0097Z" fill="white"/>
<path d="M145.227 44.3043H146.874L149.99 49.6172V44.3043H151.24V51.6606H149.812L146.476 46.0208V51.6606H145.227V44.3043Z" fill="white"/>
<path d="M153.01 49.372H154.342C154.438 50.1076 154.74 50.7343 155.989 50.7343C156.813 50.7343 157.389 50.2847 157.389 49.6036C157.389 48.9224 157.046 48.6636 155.852 48.4729C154.081 48.2413 153.244 47.6964 153.244 46.3205C153.244 45.1217 154.273 44.209 155.824 44.209C157.417 44.209 158.378 44.931 158.515 46.3341H157.252C157.115 45.5576 156.676 45.2307 155.824 45.2307C154.973 45.2307 154.548 45.6257 154.548 46.1979C154.548 46.7973 154.795 47.097 156.085 47.2741C157.829 47.5057 158.735 48.0097 158.735 49.481C158.735 50.7615 157.65 51.756 156.003 51.756C153.958 51.756 153.106 50.7615 153.01 49.372Z" fill="white"/>
<path d="M160.505 44.3043H165.145V45.3805H161.892V47.3967H164.5V48.432H161.892V50.5844H165.324V51.6606H160.519L160.505 44.3043Z" fill="white"/>
<path d="M167.081 44.3043H168.728L171.844 49.6172V44.3043H173.094V51.6606H171.666L168.33 46.0208V51.6606H167.081V44.3043V44.3043Z" fill="white"/>
<path d="M174.864 49.372H176.196C176.292 50.1076 176.594 50.7343 177.843 50.7343C178.667 50.7343 179.243 50.2847 179.243 49.6036C179.243 48.9224 178.9 48.6636 177.706 48.4729C175.935 48.2413 175.098 47.6964 175.098 46.3205C175.098 45.1217 176.127 44.209 177.678 44.209C179.271 44.209 180.232 44.931 180.369 46.3341H179.106C178.969 45.5576 178.53 45.2307 177.678 45.2307C176.827 45.2307 176.402 45.6257 176.402 46.1979C176.402 46.7973 176.649 47.097 177.939 47.2741C179.683 47.5057 180.575 48.0097 180.575 49.481C180.575 50.7615 179.491 51.756 177.857 51.756C175.812 51.756 174.96 50.7615 174.864 49.372Z" fill="white"/>
<path d="M183.787 48.4729L181.33 44.3043H182.854L184.528 47.3422L186.148 44.3043H187.494L185.174 48.4729V51.647H183.787V48.4729Z" fill="white"/>
<path d="M188.262 49.372H189.594C189.69 50.1076 189.992 50.7343 191.241 50.7343C192.065 50.7343 192.641 50.2847 192.641 49.6036C192.641 48.9224 192.298 48.6636 191.104 48.4729C189.333 48.2413 188.496 47.6964 188.496 46.3205C188.496 45.1217 189.525 44.209 191.076 44.209C192.669 44.209 193.63 44.931 193.767 46.3341H192.504C192.367 45.5576 191.927 45.2307 191.076 45.2307C190.225 45.2307 189.8 45.6257 189.8 46.1979C189.8 46.7973 190.047 47.097 191.337 47.2741C193.081 47.5057 193.987 48.0097 193.987 49.481C193.987 50.7615 192.902 51.756 191.255 51.756C189.223 51.756 188.372 50.7615 188.262 49.372Z" fill="white"/>
<path d="M128.37 57.6546C128.37 57.423 128.562 57.2323 128.795 57.2323H137.581C147.465 57.2323 152.338 62.5452 152.338 70.8959V71.2092C152.338 79.5736 147.423 85.1589 137.54 85.1589H128.795C128.562 85.1589 128.37 84.9682 128.37 84.7366V57.6546ZM137.347 80.2275C143.017 80.2275 145.694 77.067 145.694 71.291V70.9776C145.694 65.2425 143.209 62.1501 137.279 62.1501H134.753V80.2275H137.347Z" fill="white"/>
<path d="M154.314 58.867C154.314 57.1097 155.728 55.7883 157.54 55.7883C159.394 55.7883 160.807 57.1233 160.807 58.867C160.807 60.6107 159.394 61.9457 157.54 61.9457C155.728 61.9594 154.314 60.6243 154.314 58.867ZM155.166 64.7248H159.984C160.217 64.7248 160.409 64.9155 160.409 65.1471V84.7366C160.409 84.9681 160.217 85.1589 159.984 85.1589H155.166C154.932 85.1589 154.74 84.9681 154.74 84.7366V65.1471C154.74 64.9155 154.932 64.7248 155.166 64.7248Z" fill="white"/>
<path d="M164.843 55.4749H169.662C169.895 55.4749 170.087 55.6656 170.087 55.8972V84.7365C170.087 84.9681 169.895 85.1588 169.662 85.1588H164.843C164.61 85.1588 164.418 84.9681 164.418 84.7365V55.8972C164.418 55.6656 164.61 55.4749 164.843 55.4749Z" fill="white"/>
<path d="M173.629 58.867C173.629 57.1097 175.043 55.7883 176.855 55.7883C178.708 55.7883 180.122 57.1233 180.122 58.867C180.122 60.6107 178.708 61.9457 176.855 61.9457C175.043 61.9594 173.629 60.6243 173.629 58.867ZM174.48 64.7248H179.298C179.532 64.7248 179.724 64.9155 179.724 65.1471V84.7366C179.724 84.9681 179.532 85.1589 179.298 85.1589H174.48C174.247 85.1589 174.054 84.9681 174.054 84.7366V65.1471C174.068 64.9155 174.247 64.7248 174.48 64.7248Z" fill="white"/>
<path d="M183.101 85.5812H187.933C188.125 85.5812 188.29 85.7038 188.345 85.8945C188.784 87.5156 190.102 88.5509 192.833 88.5509C196.293 88.5509 198.022 86.7527 198.022 83.5514V80.4726C196.65 82.8021 194.138 84.2461 191.406 84.2598C186.409 84.2598 182.428 80.5544 182.428 74.4923V74.2198C182.428 68.362 186.368 64.2616 191.474 64.2616C194.824 64.2616 196.828 65.7056 198.009 67.7763V65.1471C198.009 64.9155 198.201 64.7248 198.434 64.7248H203.253C203.486 64.7248 203.678 64.9155 203.678 65.1471V83.5514C203.637 89.5999 199.587 92.6922 192.82 92.6922C186.436 92.6922 183.389 90.0222 182.661 86.0852C182.62 85.8536 182.771 85.6356 183.005 85.5948C183.046 85.5812 183.073 85.5812 183.101 85.5812ZM198.187 74.4105V74.1381C198.187 70.6643 196.334 68.5528 193.232 68.5528C190.047 68.5528 188.276 70.8141 188.276 74.1789V74.4923C188.276 77.8843 190.28 79.9958 193.122 79.9958C196.101 79.9958 198.187 77.8843 198.187 74.4105Z" fill="white"/>
<path d="M205.71 75.2006V74.8873C205.71 68.4438 210.308 64.2616 216.294 64.2616C221.606 64.2616 226.328 67.3403 226.328 74.6557V75.8C226.328 76.0316 226.136 76.2223 225.903 76.2223H211.489C211.654 79.6144 213.493 81.5761 216.609 81.5761C219.08 81.5761 220.384 80.5816 220.824 79.0286C220.878 78.8515 221.043 78.7289 221.222 78.7289H225.779C226.012 78.7289 226.205 78.9196 226.205 79.1512C226.205 79.1785 226.205 79.2057 226.191 79.233C225.34 83.3198 221.853 85.5948 216.445 85.5948C210.226 85.5812 205.71 81.7123 205.71 75.2006ZM220.769 72.7349C220.576 69.6562 218.998 68.1713 216.28 68.1713C213.726 68.1713 211.997 69.8469 211.558 72.7349H220.769Z" fill="white"/>
<path d="M228.827 64.7248H233.686C233.92 64.7248 234.112 64.9155 234.112 65.1471V67.967C235.128 65.9372 237.379 64.2616 240.797 64.2616C244.846 64.2616 247.729 66.6864 247.729 72.1492V84.7365C247.729 84.9681 247.537 85.1589 247.304 85.1589H242.444C242.211 85.1589 242.019 84.9681 242.019 84.7365V72.9801C242.019 70.2011 240.92 68.8797 238.395 68.8797C235.951 68.8797 234.112 70.3646 234.112 73.3752V84.7502C234.112 84.9818 233.92 85.1725 233.686 85.1725H228.827C228.593 85.1725 228.401 84.9818 228.401 84.7502V65.1471C228.401 64.9155 228.593 64.7248 228.827 64.7248Z" fill="white"/>
<path d="M249.541 75.2006V74.8873C249.541 68.2939 254.305 64.2616 260.166 64.2616C264.792 64.2616 269.089 66.2233 269.803 71.7132C269.83 71.9448 269.666 72.1628 269.432 72.19C269.418 72.19 269.391 72.19 269.377 72.19H264.806C264.614 72.19 264.435 72.0538 264.394 71.8631C263.928 69.7107 262.5 68.7162 260.29 68.7162C257.338 68.7162 255.375 70.9095 255.375 74.8056V75.1189C255.375 79.2193 257.229 81.3309 260.413 81.3309C262.596 81.3309 264.381 80.1184 264.779 77.7345C264.806 77.5301 264.985 77.3939 265.19 77.3939H269.515C269.748 77.3939 269.94 77.5846 269.94 77.8162C269.94 77.8298 269.94 77.8434 269.94 77.8571C269.432 82.4479 265.932 85.5948 260.139 85.5948C254.112 85.5812 249.541 81.8758 249.541 75.2006Z" fill="white"/>
<path d="M271.381 75.2006V74.8873C271.381 68.4438 275.98 64.2616 281.965 64.2616C287.278 64.2616 292 67.3403 292 74.6557V75.8C292 76.0316 291.808 76.2223 291.574 76.2223H277.161C277.325 79.6144 279.165 81.5761 282.281 81.5761C284.752 81.5761 286.056 80.5816 286.495 79.0286C286.55 78.8515 286.715 78.7153 286.907 78.7289H291.465C291.698 78.7289 291.89 78.9196 291.89 79.1512C291.89 79.1785 291.89 79.2057 291.876 79.233C291.025 83.3198 287.539 85.5948 282.13 85.5948C275.912 85.5812 271.381 81.7123 271.381 75.2006ZM286.454 72.7349C286.262 69.6562 284.683 68.1713 281.965 68.1713C279.412 68.1713 277.682 69.8469 277.243 72.7349H286.454Z" fill="white"/>
<path d="M92.7198 35C76.3156 35 63 48.214 63 64.4932C63 80.7723 76.3156 94 92.7198 94C109.124 94 122.453 80.786 122.453 64.4932C122.453 48.2004 109.138 35 92.7198 35ZM84.9912 80.6497C84.9912 80.7996 84.8677 80.9222 84.7167 80.9222H78.9238C78.7727 80.9222 78.6492 80.7996 78.6492 80.6497V58.3493C78.6492 58.1995 78.7727 58.0769 78.9238 58.0769H84.7167C84.8677 58.0769 84.9912 58.1995 84.9912 58.3493V80.6497ZM81.8065 54.9709C79.7886 54.9709 78.1962 53.486 78.1962 51.5244C78.1962 49.5627 79.7886 48.0778 81.8065 48.0778C83.8793 48.0778 85.458 49.5627 85.458 51.5244C85.458 53.486 83.8793 54.9709 81.8065 54.9709ZM95.9731 80.6361C95.9731 80.786 95.8496 80.9086 95.6986 80.9086H89.9056C89.7546 80.9086 89.6311 80.786 89.6311 80.6361V48.3503C89.6311 48.2004 89.7546 48.0778 89.9056 48.0778H95.6986C95.8496 48.0778 95.9731 48.2004 95.9731 48.3503V80.6361ZM106.941 80.6497C106.941 80.7996 106.818 80.9222 106.667 80.9222H100.888C100.737 80.9222 100.613 80.7996 100.613 80.6497V58.3493C100.613 58.1995 100.737 58.0769 100.888 58.0769H106.68C106.831 58.0769 106.955 58.1995 106.955 58.3493V80.6497H106.941ZM107.257 54.7121C107.257 54.8619 107.133 54.9845 106.982 54.9845H100.586C100.435 54.9845 100.311 54.8619 100.311 54.7121V48.3503C100.311 48.2004 100.435 48.0778 100.586 48.0778H106.982C107.133 48.0778 107.257 48.2004 107.257 48.3503V54.7121Z" fill="white"/>
</svg>
