<svg width="27" height="27" viewBox="0 0 27 27" fill="none" xmlns="http://www.w3.org/2000/svg">
<path d="M14.0862 16.3911C15.5505 17.5785 17.8694 18.2786 20.5417 18.2786C23.2168 18.2786 25.5351 17.5785 26.9966 16.3908V19.2308C26.0023 20.7035 23.4975 21.6491 20.5417 21.6491C17.5926 21.6491 15.0878 20.7052 14.0862 19.2354V16.3911V16.3911ZM14.0862 4.42401C14.0862 2.40845 16.7387 0.881499 20.2939 0.812708C20.377 0.811093 20.4579 0.806152 20.542 0.806152C23.9942 0.806223 26.6504 2.17227 26.9704 4.0693C26.9831 4.14988 26.9871 4.23218 26.991 4.31452C26.9933 4.35059 26.9995 4.38582 27 4.42222C26.9993 6.48295 24.2233 8.03671 20.5423 8.03671C16.869 8.03671 14.0986 6.48933 14.0862 4.43501V4.42401V4.42401ZM20.5423 9.21075C23.3595 9.21075 25.68 8.39109 26.9966 7.08022V10.1414C26.0023 11.6142 23.4975 12.5597 20.5417 12.5597C17.5926 12.5597 15.0878 11.6159 14.0862 10.1461V7.07782C15.4024 8.39009 17.7238 9.21075 20.5423 9.21075ZM14.0862 11.8463C15.5505 13.0337 17.8694 13.7338 20.5417 13.7338C23.2168 13.7338 25.5351 13.0337 26.9966 11.846V14.6863C26.0023 16.159 23.4975 17.1046 20.5417 17.1046C17.5926 17.1046 15.0878 16.1607 14.0862 14.6909V13.4902C14.0863 13.4795 14.0885 13.4693 14.0885 13.4586C14.0885 13.4479 14.0863 13.4377 14.0862 13.4271V11.8463V11.8463ZM6.45722 9.84335C10.1223 9.84335 12.8875 11.384 12.9122 13.4314V13.4555C12.9121 13.4575 12.911 13.4592 12.911 13.4612V13.4994C12.8741 15.54 10.114 17.0742 6.45722 17.0742C2.77986 17.0742 0.00680401 15.5232 0.000572405 13.4654V13.4612C0.000572405 13.4602 0 13.4594 0 13.4584C0.0001404 11.3974 2.77584 9.84335 6.45722 9.84335ZM6.45722 18.2482C9.27402 18.2482 11.5944 17.4285 12.911 16.1175V19.1789C11.9167 20.6517 9.41185 21.5972 6.45607 21.5972C3.50699 21.5972 1.00216 20.6533 0.00056159 19.1835V16.1145C1.31663 17.4272 3.63827 18.2482 6.45722 18.2482ZM6.45607 26.1936C2.78089 26.1936 0.0057294 24.6378 0.000566998 22.5758V20.8838C1.4649 22.0712 3.78381 22.7713 6.45607 22.7713C9.13117 22.7713 11.4495 22.0712 12.911 20.8834V22.5729C12.9013 24.6372 10.1261 26.1936 6.45607 26.1936ZM20.5417 26.1936C16.8665 26.1936 14.0914 24.6378 14.0862 22.5758V20.9357C15.5505 22.1231 17.8694 22.8231 20.5417 22.8231C23.2168 22.8231 25.5351 22.1231 26.9966 20.9353V22.5729C26.9869 24.6372 24.2117 26.1936 20.5417 26.1936Z" fill="#E50913"/>
</svg>
