<svg width="29" height="31" viewBox="0 0 29 31" fill="none" xmlns="http://www.w3.org/2000/svg">
<path d="M9.27002 27.8455C10.6615 29.237 12.5232 30.0047 14.5 30.0047C16.4768 30.0047 18.3385 29.237 19.73 27.8455L26.8408 20.7347C29.7197 17.8558 29.7197 13.1536 26.8408 10.2747L19.73 3.16388C18.3385 1.76282 16.4768 0.995117 14.5 0.995117C12.5232 0.995117 10.6615 1.76282 9.27002 3.15428L2.15917 10.2651C-0.719722 13.144 -0.719722 17.8462 2.15917 20.7251L9.27002 27.8455ZM3.12839 11.2536L10.2392 4.1427C11.3716 3.01034 12.8878 2.38658 14.4904 2.38658C16.093 2.38658 17.6092 3.01034 18.7416 4.1427L25.8524 11.2536C28.1939 13.6046 28.1939 17.4144 25.8524 19.7655L18.7416 26.8763C16.3905 29.2274 12.5711 29.2178 10.2296 26.8763L3.1188 19.7655C0.786896 17.4144 0.786896 13.595 3.12839 11.2536Z" fill="#E50913"/>
<path d="M6.82389 17.0882H12.9175V23.1819C12.9175 23.3162 13.0231 23.4218 13.1574 23.4218H15.8444C15.9788 23.4218 16.0843 23.3162 16.0843 23.1819V17.0882H22.178C22.3123 17.0882 22.4179 16.9827 22.4179 16.8483V14.1614C22.4179 14.027 22.3123 13.9214 22.178 13.9214H16.0843V7.8278C16.0843 7.69345 15.9788 7.58789 15.8444 7.58789H13.1574C13.0231 7.58789 12.9175 7.69345 12.9175 7.8278V13.9214H6.82389C6.68954 13.9214 6.58398 14.027 6.58398 14.1614V16.8483C6.58398 16.9827 6.68954 17.0882 6.82389 17.0882Z" fill="#E50913"/>
</svg>
