<svg width="89" height="75" viewBox="0 0 89 75" fill="none" xmlns="http://www.w3.org/2000/svg">
<path d="M37.0067 66.2151C36.8981 66.2158 36.7905 66.1944 36.6904 66.1524C36.5903 66.1103 36.4998 66.0485 36.4243 65.9705L9.23876 38.1968C9.0881 38.04 9.00275 37.8318 9 37.6144C9.00096 37.3966 9.08657 37.1878 9.23876 37.032L36.4243 9.25252C36.4989 9.17282 36.5891 9.10926 36.6893 9.06583C36.7895 9.0224 36.8975 9 37.0067 9C37.1158 9 37.2238 9.0224 37.324 9.06583C37.4242 9.10926 37.5144 9.17282 37.589 9.25252L64.7745 37.032C64.9254 37.1883 65.0097 37.3971 65.0097 37.6144C65.0097 37.8317 64.9254 38.0404 64.7745 38.1968L37.589 65.9705C37.5142 66.0493 37.4237 66.1117 37.3235 66.1538C37.2232 66.1959 37.1154 66.2168 37.0067 66.2151ZM10.9684 37.6086L37.0067 64.2059L63.039 37.6086L37.0067 11.0054L10.9684 37.6086Z" fill="url(#paint0_linear)"/>
<path d="M58.0655 59.9603C57.9569 59.9613 57.8492 59.9401 57.7491 59.8981C57.6489 59.856 57.5584 59.7939 57.4831 59.7157L50.413 52.4942C50.2622 52.3379 50.1779 52.1291 50.1779 51.9118C50.1779 51.6946 50.2622 51.4858 50.413 51.3294C50.4877 51.2497 50.5779 51.1862 50.678 51.1427C50.7782 51.0993 50.8862 51.0769 50.9954 51.0769C51.1046 51.0769 51.2126 51.0993 51.3128 51.1427C51.413 51.1862 51.5032 51.2497 51.5778 51.3294L58.0655 57.9511L77.9771 37.6086L58.0655 17.2602L37.5774 38.1967C37.5023 38.2757 37.412 38.3386 37.3119 38.3815C37.2118 38.4245 37.104 38.4466 36.995 38.4466C36.8861 38.4466 36.7783 38.4245 36.6782 38.3815C36.578 38.3386 36.4877 38.2757 36.4126 38.1967C36.2618 38.0404 36.1774 37.8316 36.1774 37.6144C36.1774 37.3971 36.2618 37.1883 36.4126 37.032L57.4773 15.4839C57.5519 15.4042 57.6421 15.3407 57.7423 15.2973C57.8425 15.2538 57.9505 15.2314 58.0597 15.2314C58.1689 15.2314 58.2769 15.2538 58.3771 15.2973C58.4772 15.3407 58.5674 15.4042 58.6421 15.4839L79.7067 37.032C79.8576 37.1883 79.9419 37.3971 79.9419 37.6144C79.9419 37.8316 79.8576 38.0404 79.7067 38.1967L58.6421 59.7448C58.565 59.8171 58.4744 59.8734 58.3754 59.9104C58.2764 59.9474 58.1711 59.9643 58.0655 59.9603Z" fill="url(#paint1_linear)"/>
<path d="M31.771 46.2802C31.1089 46.2953 30.4574 46.1126 29.8996 45.7556C29.3417 45.3986 28.903 44.8834 28.6394 44.2758C28.3758 43.6682 28.2993 42.9959 28.4196 42.3446C28.5399 41.6934 28.8516 41.0927 29.3149 40.6195C29.7782 40.1462 30.3721 39.8218 31.0207 39.6877C31.6692 39.5536 32.3431 39.6158 32.9561 39.8664C33.5691 40.1171 34.0935 40.5448 34.4623 41.0949C34.8311 41.645 35.0275 42.2926 35.0266 42.9548C35.0343 43.8271 34.696 44.6668 34.0858 45.2901C33.4756 45.9134 32.6432 46.2695 31.771 46.2802ZM31.771 41.2892C31.4402 41.2823 31.1148 41.374 30.8364 41.5528C30.5579 41.7315 30.339 41.9892 30.2076 42.2928C30.0761 42.5965 30.0381 42.9325 30.0984 43.2578C30.1586 43.5832 30.3144 43.8832 30.5459 44.1197C30.7774 44.3561 31.0741 44.5183 31.3981 44.5854C31.7221 44.6526 32.0588 44.6217 32.3652 44.4967C32.6716 44.3717 32.9338 44.1583 33.1184 43.8837C33.303 43.6091 33.4017 43.2857 33.4017 42.9548C33.404 42.7384 33.3637 42.5236 33.283 42.3228C33.2023 42.1219 33.0828 41.939 32.9314 41.7843C32.7799 41.6296 32.5995 41.5063 32.4004 41.4213C32.2014 41.3364 31.9875 41.2915 31.771 41.2892Z" fill="url(#paint2_linear)"/>
<g filter="url(#filter0_f)">
<path d="M37.0067 66.2151C36.8981 66.2158 36.7905 66.1944 36.6904 66.1524C36.5903 66.1103 36.4998 66.0485 36.4243 65.9705L9.23876 38.1968C9.0881 38.04 9.00275 37.8318 9 37.6144C9.00096 37.3966 9.08657 37.1878 9.23876 37.032L36.4243 9.25252C36.4989 9.17282 36.5891 9.10926 36.6893 9.06583C36.7895 9.0224 36.8975 9 37.0067 9C37.1158 9 37.2238 9.0224 37.324 9.06583C37.4242 9.10926 37.5144 9.17282 37.589 9.25252L64.7745 37.032C64.9254 37.1883 65.0097 37.3971 65.0097 37.6144C65.0097 37.8317 64.9254 38.0404 64.7745 38.1968L37.589 65.9705C37.5142 66.0493 37.4237 66.1117 37.3235 66.1538C37.2232 66.1959 37.1154 66.2168 37.0067 66.2151ZM10.9684 37.6086L37.0067 64.2059L63.039 37.6086L37.0067 11.0054L10.9684 37.6086Z" fill="url(#paint3_linear)"/>
<path d="M58.0655 59.9603C57.9569 59.9613 57.8492 59.9401 57.7491 59.8981C57.6489 59.856 57.5584 59.7939 57.4831 59.7157L50.413 52.4942C50.2622 52.3379 50.1779 52.1291 50.1779 51.9118C50.1779 51.6946 50.2622 51.4858 50.413 51.3294C50.4877 51.2497 50.5779 51.1862 50.678 51.1427C50.7782 51.0993 50.8862 51.0769 50.9954 51.0769C51.1046 51.0769 51.2126 51.0993 51.3128 51.1427C51.413 51.1862 51.5032 51.2497 51.5778 51.3294L58.0655 57.9511L77.9771 37.6086L58.0655 17.2602L37.5774 38.1967C37.5023 38.2757 37.412 38.3386 37.3119 38.3815C37.2118 38.4245 37.104 38.4466 36.995 38.4466C36.8861 38.4466 36.7783 38.4245 36.6782 38.3815C36.578 38.3386 36.4877 38.2757 36.4126 38.1967C36.2618 38.0404 36.1774 37.8316 36.1774 37.6144C36.1774 37.3971 36.2618 37.1883 36.4126 37.032L57.4773 15.4839C57.5519 15.4042 57.6421 15.3407 57.7423 15.2973C57.8425 15.2538 57.9505 15.2314 58.0597 15.2314C58.1689 15.2314 58.2769 15.2538 58.3771 15.2973C58.4772 15.3407 58.5674 15.4042 58.6421 15.4839L79.7067 37.032C79.8576 37.1883 79.9419 37.3971 79.9419 37.6144C79.9419 37.8316 79.8576 38.0404 79.7067 38.1967L58.6421 59.7448C58.565 59.8171 58.4744 59.8734 58.3754 59.9104C58.2764 59.9474 58.1711 59.9643 58.0655 59.9603Z" fill="url(#paint4_linear)"/>
<path d="M31.771 46.2802C31.1089 46.2953 30.4574 46.1126 29.8996 45.7556C29.3417 45.3986 28.903 44.8834 28.6394 44.2758C28.3758 43.6682 28.2993 42.9959 28.4196 42.3446C28.5399 41.6934 28.8516 41.0927 29.3149 40.6195C29.7782 40.1462 30.3721 39.8218 31.0207 39.6877C31.6692 39.5536 32.3431 39.6158 32.9561 39.8664C33.5691 40.1171 34.0935 40.5448 34.4623 41.0949C34.8311 41.645 35.0275 42.2926 35.0266 42.9548C35.0343 43.8271 34.696 44.6668 34.0858 45.2901C33.4756 45.9134 32.6432 46.2695 31.771 46.2802ZM31.771 41.2892C31.4402 41.2823 31.1148 41.374 30.8364 41.5528C30.5579 41.7315 30.339 41.9892 30.2076 42.2928C30.0761 42.5965 30.0381 42.9325 30.0984 43.2578C30.1586 43.5832 30.3144 43.8832 30.5459 44.1197C30.7774 44.3561 31.0741 44.5183 31.3981 44.5854C31.7221 44.6526 32.0588 44.6217 32.3652 44.4967C32.6716 44.3717 32.9338 44.1583 33.1184 43.8837C33.303 43.6091 33.4017 43.2857 33.4017 42.9548C33.404 42.7384 33.3637 42.5236 33.283 42.3228C33.2023 42.1219 33.0828 41.939 32.9314 41.7843C32.7799 41.6296 32.5995 41.5063 32.4004 41.4213C32.2014 41.3364 31.9875 41.2915 31.771 41.2892Z" fill="url(#paint5_linear)"/>
</g>
<path d="M37.0067 66.2151C36.8981 66.2158 36.7905 66.1944 36.6904 66.1524C36.5903 66.1103 36.4998 66.0485 36.4243 65.9705L9.23876 38.1968C9.0881 38.04 9.00275 37.8318 9 37.6144C9.00096 37.3966 9.08657 37.1878 9.23876 37.032L36.4243 9.25252C36.4989 9.17282 36.5891 9.10926 36.6893 9.06583C36.7895 9.0224 36.8975 9 37.0067 9C37.1158 9 37.2238 9.0224 37.324 9.06583C37.4242 9.10926 37.5144 9.17282 37.589 9.25252L64.7745 37.032C64.9254 37.1883 65.0097 37.3971 65.0097 37.6144C65.0097 37.8317 64.9254 38.0404 64.7745 38.1968L37.589 65.9705C37.5142 66.0493 37.4237 66.1117 37.3235 66.1538C37.2232 66.1959 37.1154 66.2168 37.0067 66.2151ZM10.9684 37.6086L37.0067 64.2059L63.039 37.6086L37.0067 11.0054L10.9684 37.6086Z" fill="url(#paint6_linear)"/>
<path d="M58.0655 59.9603C57.9569 59.9613 57.8492 59.9401 57.7491 59.8981C57.6489 59.856 57.5584 59.7939 57.4831 59.7157L50.413 52.4942C50.2622 52.3379 50.1779 52.1291 50.1779 51.9118C50.1779 51.6946 50.2622 51.4858 50.413 51.3294C50.4877 51.2497 50.5779 51.1862 50.678 51.1427C50.7782 51.0993 50.8862 51.0769 50.9954 51.0769C51.1046 51.0769 51.2126 51.0993 51.3128 51.1427C51.413 51.1862 51.5032 51.2497 51.5778 51.3294L58.0655 57.9511L77.9771 37.6086L58.0655 17.2602L37.5774 38.1967C37.5023 38.2757 37.412 38.3386 37.3119 38.3815C37.2118 38.4245 37.104 38.4466 36.995 38.4466C36.8861 38.4466 36.7783 38.4245 36.6782 38.3815C36.578 38.3386 36.4877 38.2757 36.4126 38.1967C36.2618 38.0404 36.1774 37.8316 36.1774 37.6144C36.1774 37.3971 36.2618 37.1883 36.4126 37.032L57.4773 15.4839C57.5519 15.4042 57.6421 15.3407 57.7423 15.2973C57.8425 15.2538 57.9505 15.2314 58.0597 15.2314C58.1689 15.2314 58.2769 15.2538 58.3771 15.2973C58.4772 15.3407 58.5674 15.4042 58.6421 15.4839L79.7067 37.032C79.8576 37.1883 79.9419 37.3971 79.9419 37.6144C79.9419 37.8316 79.8576 38.0404 79.7067 38.1967L58.6421 59.7448C58.565 59.8171 58.4744 59.8734 58.3754 59.9104C58.2764 59.9474 58.1711 59.9643 58.0655 59.9603Z" fill="url(#paint7_linear)"/>
<path d="M31.771 46.2802C31.1089 46.2953 30.4574 46.1126 29.8996 45.7556C29.3417 45.3986 28.903 44.8834 28.6394 44.2758C28.3758 43.6682 28.2993 42.9959 28.4196 42.3446C28.5399 41.6934 28.8516 41.0927 29.3149 40.6195C29.7782 40.1462 30.3721 39.8218 31.0207 39.6877C31.6692 39.5536 32.3431 39.6158 32.9561 39.8664C33.5691 40.1171 34.0935 40.5448 34.4623 41.0949C34.8311 41.645 35.0275 42.2926 35.0266 42.9548C35.0343 43.8271 34.696 44.6668 34.0858 45.2901C33.4756 45.9134 32.6432 46.2695 31.771 46.2802ZM31.771 41.2892C31.4402 41.2823 31.1148 41.374 30.8364 41.5528C30.5579 41.7315 30.339 41.9892 30.2076 42.2928C30.0761 42.5965 30.0381 42.9325 30.0984 43.2578C30.1586 43.5832 30.3144 43.8832 30.5459 44.1197C30.7774 44.3561 31.0741 44.5183 31.3981 44.5854C31.7221 44.6526 32.0588 44.6217 32.3652 44.4967C32.6716 44.3717 32.9338 44.1583 33.1184 43.8837C33.303 43.6091 33.4017 43.2857 33.4017 42.9548C33.404 42.7384 33.3637 42.5236 33.283 42.3228C33.2023 42.1219 33.0828 41.939 32.9314 41.7843C32.7799 41.6296 32.5995 41.5063 32.4004 41.4213C32.2014 41.3364 31.9875 41.2915 31.771 41.2892Z" fill="url(#paint8_linear)"/>
<defs>
<filter id="filter0_f" x="0.63108" y="0.63108" width="87.6798" height="73.953" filterUnits="userSpaceOnUse" color-interpolation-filters="sRGB">
<feFlood flood-opacity="0" result="BackgroundImageFix"/>
<feBlend mode="normal" in="SourceGraphic" in2="BackgroundImageFix" result="shape"/>
<feGaussianBlur stdDeviation="4.18446" result="effect1_foregroundBlur"/>
</filter>
<linearGradient id="paint0_linear" x1="37.0049" y1="9" x2="37.0049" y2="66.2152" gradientUnits="userSpaceOnUse">
<stop stop-color="#E50913"/>
<stop offset="1" stop-color="#1D1D22"/>
</linearGradient>
<linearGradient id="paint1_linear" x1="58.0597" y1="15.2314" x2="58.0597" y2="59.9609" gradientUnits="userSpaceOnUse">
<stop stop-color="#E50913"/>
<stop offset="1" stop-color="#1D1D22"/>
</linearGradient>
<linearGradient id="paint2_linear" x1="31.6954" y1="39.6187" x2="31.6954" y2="46.2811" gradientUnits="userSpaceOnUse">
<stop stop-color="#E50913"/>
<stop offset="1" stop-color="#1D1D22"/>
</linearGradient>
<linearGradient id="paint3_linear" x1="37.0049" y1="9" x2="37.0049" y2="66.2152" gradientUnits="userSpaceOnUse">
<stop stop-color="#E50913"/>
<stop offset="1" stop-color="#1D1D22"/>
</linearGradient>
<linearGradient id="paint4_linear" x1="58.0597" y1="15.2314" x2="58.0597" y2="59.9609" gradientUnits="userSpaceOnUse">
<stop stop-color="#E50913"/>
<stop offset="1" stop-color="#1D1D22"/>
</linearGradient>
<linearGradient id="paint5_linear" x1="31.6954" y1="39.6187" x2="31.6954" y2="46.2811" gradientUnits="userSpaceOnUse">
<stop stop-color="#E50913"/>
<stop offset="1" stop-color="#1D1D22"/>
</linearGradient>
<linearGradient id="paint6_linear" x1="37.0049" y1="9" x2="37.0049" y2="66.2152" gradientUnits="userSpaceOnUse">
<stop stop-color="#E50913"/>
<stop offset="1" stop-color="#1D1D22"/>
</linearGradient>
<linearGradient id="paint7_linear" x1="58.0597" y1="15.2314" x2="58.0597" y2="59.9609" gradientUnits="userSpaceOnUse">
<stop stop-color="#E50913"/>
<stop offset="1" stop-color="#1D1D22"/>
</linearGradient>
<linearGradient id="paint8_linear" x1="31.6954" y1="39.6187" x2="31.6954" y2="46.2811" gradientUnits="userSpaceOnUse">
<stop stop-color="#E50913"/>
<stop offset="1" stop-color="#1D1D22"/>
</linearGradient>
</defs>
</svg>
