<svg width="99" height="64" viewBox="0 0 99 64" fill="none" xmlns="http://www.w3.org/2000/svg">
<path d="M52.3124 55.4108C39.7214 55.4108 29.0871 44.794 29.0871 32.2321C29.0856 32.1237 29.1055 32.0162 29.1457 31.9156C29.1859 31.815 29.2456 31.7234 29.3214 31.6459C29.3972 31.5685 29.4876 31.5069 29.5873 31.4646C29.687 31.4222 29.7941 31.4 29.9025 31.3993H47.2049C47.4258 31.3993 47.6377 31.487 47.7938 31.6432C47.95 31.7994 48.0377 32.0112 48.0377 32.2321C48.0377 32.4529 47.95 32.6648 47.7938 32.821C47.6377 32.9771 47.4258 33.0649 47.2049 33.0649H30.7294C31.1895 44.3572 40.8861 53.7452 52.3124 53.7452C66.2895 53.7452 85.0247 35.6914 88.4782 32.1971C85.0946 28.6155 66.4352 9.76386 50.21 10.9112C49.9931 10.9239 49.78 10.8501 49.6173 10.7061C49.4547 10.562 49.3558 10.3593 49.3423 10.1424C49.3261 9.92421 49.3965 9.70842 49.5382 9.54168C49.6798 9.37495 49.8815 9.27066 50.0994 9.25136C57.9441 8.66898 67.0874 12.303 77.2791 19.9846C81.9191 23.4883 86.2486 27.3852 90.2196 31.6322C90.3678 31.7899 90.4503 31.9982 90.4503 32.2146C90.4503 32.431 90.3678 32.6393 90.2196 32.797C86.2107 36.8375 81.9299 40.5987 77.4072 44.0544C67.5184 51.5962 59.0739 55.4108 52.3124 55.4108Z" fill="url(#paint0_linear)"/>
<path d="M47.1292 55.4109C39.8028 55.4109 31.1836 51.5963 21.5045 44.0662C17.1143 40.6373 13.0015 36.8673 9.2046 32.7913C9.07256 32.6372 9 32.441 9 32.238C9 32.0351 9.07256 31.8389 9.2046 31.6848C12.9684 27.4243 17.0849 23.489 21.5103 19.9207C31.1953 12.1634 39.832 8.50605 47.1874 9.05348C58.835 9.92123 70.8961 18.8258 70.8961 32.2322C70.8961 44.7941 60.0114 55.4109 47.1292 55.4109ZM10.9285 32.2147C14.5313 36.0104 18.4087 39.5356 22.5295 42.7616C28.9648 47.7701 38.4634 53.7453 47.1292 53.7453C59.1262 53.7453 69.2596 43.8914 69.2596 32.2322C69.2596 19.7984 57.9731 11.5286 47.0593 10.7133C31.9232 9.57763 14.0966 28.6739 10.9285 32.2147Z" fill="url(#paint1_linear)"/>
<path d="M55.7077 35.3653C55.046 35.3791 54.3952 35.1956 53.8383 34.8381C53.2814 34.4806 52.8435 33.9654 52.5807 33.358C52.3178 32.7507 52.2418 32.0788 52.3623 31.4281C52.4828 30.7773 52.7944 30.1772 53.2574 29.7043C53.7204 29.2314 54.3137 28.9072 54.9618 28.7729C55.6098 28.6386 56.2831 28.7003 56.8959 28.9503C57.5087 29.2002 58.0331 29.627 58.4024 30.1763C58.7716 30.7255 58.9688 31.3722 58.969 32.034C58.9768 32.9078 58.6379 33.7491 58.0266 34.3735C57.4153 34.9979 56.5814 35.3545 55.7077 35.3653ZM55.7077 30.3684C55.378 30.3673 55.0554 30.464 54.7807 30.6463C54.506 30.8286 54.2917 31.0884 54.1647 31.3926C54.0378 31.6968 54.0039 32.0319 54.0675 32.3554C54.1311 32.6789 54.2893 32.9762 54.522 33.2097C54.7547 33.4433 55.0515 33.6025 55.3748 33.6672C55.698 33.7319 56.0332 33.6993 56.3379 33.5734C56.6426 33.4475 56.903 33.234 57.0863 32.96C57.2696 32.686 57.3674 32.3637 57.3674 32.034C57.3698 31.8152 57.3285 31.598 57.246 31.3952C57.1634 31.1925 57.0413 31.0082 56.8868 30.8532C56.7323 30.6981 56.5485 30.5754 56.346 30.4922C56.1436 30.4089 55.9266 30.3669 55.7077 30.3684Z" fill="url(#paint2_linear)"/>
<g filter="url(#filter0_f)">
<path d="M52.3124 55.4108C39.7214 55.4108 29.0871 44.794 29.0871 32.2321C29.0856 32.1237 29.1055 32.0162 29.1457 31.9156C29.1859 31.815 29.2456 31.7234 29.3214 31.6459C29.3972 31.5685 29.4876 31.5069 29.5873 31.4646C29.687 31.4222 29.7941 31.4 29.9025 31.3993H47.2049C47.4258 31.3993 47.6377 31.487 47.7938 31.6432C47.95 31.7994 48.0377 32.0112 48.0377 32.2321C48.0377 32.4529 47.95 32.6648 47.7938 32.821C47.6377 32.9771 47.4258 33.0649 47.2049 33.0649H30.7294C31.1895 44.3572 40.8861 53.7452 52.3124 53.7452C66.2895 53.7452 85.0247 35.6914 88.4782 32.1971C85.0946 28.6155 66.4352 9.76386 50.21 10.9112C49.9931 10.9239 49.78 10.8501 49.6173 10.7061C49.4547 10.562 49.3558 10.3593 49.3423 10.1424C49.3261 9.92421 49.3965 9.70842 49.5382 9.54168C49.6798 9.37495 49.8815 9.27066 50.0994 9.25136C57.9441 8.66898 67.0874 12.303 77.2791 19.9846C81.9191 23.4883 86.2486 27.3852 90.2196 31.6322C90.3678 31.7899 90.4503 31.9982 90.4503 32.2146C90.4503 32.431 90.3678 32.6393 90.2196 32.797C86.2107 36.8375 81.9299 40.5987 77.4072 44.0544C67.5184 51.5962 59.0739 55.4108 52.3124 55.4108Z" fill="url(#paint3_linear)"/>
<path d="M47.1292 55.4109C39.8028 55.4109 31.1836 51.5963 21.5045 44.0662C17.1143 40.6373 13.0015 36.8673 9.2046 32.7913C9.07256 32.6372 9 32.441 9 32.238C9 32.0351 9.07256 31.8389 9.2046 31.6848C12.9684 27.4243 17.0849 23.489 21.5103 19.9207C31.1953 12.1634 39.832 8.50605 47.1874 9.05348C58.835 9.92123 70.8961 18.8258 70.8961 32.2322C70.8961 44.7941 60.0114 55.4109 47.1292 55.4109ZM10.9285 32.2147C14.5313 36.0104 18.4087 39.5356 22.5295 42.7616C28.9648 47.7701 38.4634 53.7453 47.1292 53.7453C59.1262 53.7453 69.2596 43.8914 69.2596 32.2322C69.2596 19.7984 57.9731 11.5286 47.0593 10.7133C31.9232 9.57763 14.0966 28.6739 10.9285 32.2147Z" fill="url(#paint4_linear)"/>
<path d="M55.7077 35.3653C55.046 35.3791 54.3952 35.1956 53.8383 34.8381C53.2814 34.4806 52.8435 33.9654 52.5807 33.358C52.3178 32.7507 52.2418 32.0788 52.3623 31.4281C52.4828 30.7773 52.7944 30.1772 53.2574 29.7043C53.7204 29.2314 54.3137 28.9072 54.9618 28.7729C55.6098 28.6386 56.2831 28.7003 56.8959 28.9503C57.5087 29.2002 58.0331 29.627 58.4024 30.1763C58.7716 30.7255 58.9688 31.3722 58.969 32.034C58.9768 32.9078 58.6379 33.7491 58.0266 34.3735C57.4153 34.9979 56.5814 35.3545 55.7077 35.3653ZM55.7077 30.3684C55.378 30.3673 55.0554 30.464 54.7807 30.6463C54.506 30.8286 54.2917 31.0884 54.1647 31.3926C54.0378 31.6968 54.0039 32.0319 54.0675 32.3554C54.1311 32.6789 54.2893 32.9762 54.522 33.2097C54.7547 33.4433 55.0515 33.6025 55.3748 33.6672C55.698 33.7319 56.0332 33.6993 56.3379 33.5734C56.6426 33.4475 56.903 33.234 57.0863 32.96C57.2696 32.686 57.3674 32.3637 57.3674 32.034C57.3698 31.8152 57.3285 31.598 57.246 31.3952C57.1634 31.1925 57.0413 31.0082 56.8868 30.8532C56.7323 30.6981 56.5485 30.5754 56.346 30.4922C56.1436 30.4089 55.9266 30.3669 55.7077 30.3684Z" fill="url(#paint5_linear)"/>
</g>
<path d="M52.3124 55.4108C39.7214 55.4108 29.0871 44.794 29.0871 32.2321C29.0856 32.1237 29.1055 32.0162 29.1457 31.9156C29.1859 31.815 29.2456 31.7234 29.3214 31.6459C29.3972 31.5685 29.4876 31.5069 29.5873 31.4646C29.687 31.4222 29.7941 31.4 29.9025 31.3993H47.2049C47.4258 31.3993 47.6377 31.487 47.7938 31.6432C47.95 31.7994 48.0377 32.0112 48.0377 32.2321C48.0377 32.4529 47.95 32.6648 47.7938 32.821C47.6377 32.9771 47.4258 33.0649 47.2049 33.0649H30.7294C31.1895 44.3572 40.8861 53.7452 52.3124 53.7452C66.2895 53.7452 85.0247 35.6914 88.4782 32.1971C85.0946 28.6155 66.4352 9.76386 50.21 10.9112C49.9931 10.9239 49.78 10.8501 49.6173 10.7061C49.4547 10.562 49.3558 10.3593 49.3423 10.1424C49.3261 9.92421 49.3965 9.70842 49.5382 9.54168C49.6798 9.37495 49.8815 9.27066 50.0994 9.25136C57.9441 8.66898 67.0874 12.303 77.2791 19.9846C81.9191 23.4883 86.2486 27.3852 90.2196 31.6322C90.3678 31.7899 90.4503 31.9982 90.4503 32.2146C90.4503 32.431 90.3678 32.6393 90.2196 32.797C86.2107 36.8375 81.9299 40.5987 77.4072 44.0544C67.5184 51.5962 59.0739 55.4108 52.3124 55.4108Z" fill="url(#paint6_linear)"/>
<path d="M47.1292 55.4109C39.8028 55.4109 31.1836 51.5963 21.5045 44.0662C17.1143 40.6373 13.0015 36.8673 9.2046 32.7913C9.07256 32.6372 9 32.441 9 32.238C9 32.0351 9.07256 31.8389 9.2046 31.6848C12.9684 27.4243 17.0849 23.489 21.5103 19.9207C31.1953 12.1634 39.832 8.50605 47.1874 9.05348C58.835 9.92123 70.8961 18.8258 70.8961 32.2322C70.8961 44.7941 60.0114 55.4109 47.1292 55.4109ZM10.9285 32.2147C14.5313 36.0104 18.4087 39.5356 22.5295 42.7616C28.9648 47.7701 38.4634 53.7453 47.1292 53.7453C59.1262 53.7453 69.2596 43.8914 69.2596 32.2322C69.2596 19.7984 57.9731 11.5286 47.0593 10.7133C31.9232 9.57763 14.0966 28.6739 10.9285 32.2147Z" fill="url(#paint7_linear)"/>
<path d="M55.7077 35.3653C55.046 35.3791 54.3952 35.1956 53.8383 34.8381C53.2814 34.4806 52.8435 33.9654 52.5807 33.358C52.3178 32.7507 52.2418 32.0788 52.3623 31.4281C52.4828 30.7773 52.7944 30.1772 53.2574 29.7043C53.7204 29.2314 54.3137 28.9072 54.9618 28.7729C55.6098 28.6386 56.2831 28.7003 56.8959 28.9503C57.5087 29.2002 58.0331 29.627 58.4024 30.1763C58.7716 30.7255 58.9688 31.3722 58.969 32.034C58.9768 32.9078 58.6379 33.7491 58.0266 34.3735C57.4153 34.9979 56.5814 35.3545 55.7077 35.3653ZM55.7077 30.3684C55.378 30.3673 55.0554 30.464 54.7807 30.6463C54.506 30.8286 54.2917 31.0884 54.1647 31.3926C54.0378 31.6968 54.0039 32.0319 54.0675 32.3554C54.1311 32.6789 54.2893 32.9762 54.522 33.2097C54.7547 33.4433 55.0515 33.6025 55.3748 33.6672C55.698 33.7319 56.0332 33.6993 56.3379 33.5734C56.6426 33.4475 56.903 33.234 57.0863 32.96C57.2696 32.686 57.3674 32.3637 57.3674 32.034C57.3698 31.8152 57.3285 31.598 57.246 31.3952C57.1634 31.1925 57.0413 31.0082 56.8868 30.8532C56.7323 30.6981 56.5485 30.5754 56.346 30.4922C56.1436 30.4089 55.9266 30.3669 55.7077 30.3684Z" fill="url(#paint8_linear)"/>
<defs>
<filter id="filter0_f" x="0.63108" y="0.63108" width="98.1882" height="63.1488" filterUnits="userSpaceOnUse" color-interpolation-filters="sRGB">
<feFlood flood-opacity="0" result="BackgroundImageFix"/>
<feBlend mode="normal" in="SourceGraphic" in2="BackgroundImageFix" result="shape"/>
<feGaussianBlur stdDeviation="4.18446" result="effect1_foregroundBlur"/>
</filter>
<linearGradient id="paint0_linear" x1="59.7687" y1="9.19098" x2="59.7687" y2="55.4108" gradientUnits="userSpaceOnUse">
<stop stop-color="#E50913"/>
<stop offset="1" stop-color="#1D1D22"/>
</linearGradient>
<linearGradient id="paint1_linear" x1="39.948" y1="9" x2="39.948" y2="55.4109" gradientUnits="userSpaceOnUse">
<stop stop-color="#E50913"/>
<stop offset="1" stop-color="#1D1D22"/>
</linearGradient>
<linearGradient id="paint2_linear" x1="55.6379" y1="28.7036" x2="55.6379" y2="35.366" gradientUnits="userSpaceOnUse">
<stop stop-color="#E50913"/>
<stop offset="1" stop-color="#1D1D22"/>
</linearGradient>
<linearGradient id="paint3_linear" x1="59.7687" y1="9.19098" x2="59.7687" y2="55.4108" gradientUnits="userSpaceOnUse">
<stop stop-color="#E50913"/>
<stop offset="1" stop-color="#1D1D22"/>
</linearGradient>
<linearGradient id="paint4_linear" x1="39.948" y1="9" x2="39.948" y2="55.4109" gradientUnits="userSpaceOnUse">
<stop stop-color="#E50913"/>
<stop offset="1" stop-color="#1D1D22"/>
</linearGradient>
<linearGradient id="paint5_linear" x1="55.6379" y1="28.7036" x2="55.6379" y2="35.366" gradientUnits="userSpaceOnUse">
<stop stop-color="#E50913"/>
<stop offset="1" stop-color="#1D1D22"/>
</linearGradient>
<linearGradient id="paint6_linear" x1="59.7687" y1="9.19098" x2="59.7687" y2="55.4108" gradientUnits="userSpaceOnUse">
<stop stop-color="#E50913"/>
<stop offset="1" stop-color="#1D1D22"/>
</linearGradient>
<linearGradient id="paint7_linear" x1="39.948" y1="9" x2="39.948" y2="55.4109" gradientUnits="userSpaceOnUse">
<stop stop-color="#E50913"/>
<stop offset="1" stop-color="#1D1D22"/>
</linearGradient>
<linearGradient id="paint8_linear" x1="55.6379" y1="28.7036" x2="55.6379" y2="35.366" gradientUnits="userSpaceOnUse">
<stop stop-color="#E50913"/>
<stop offset="1" stop-color="#1D1D22"/>
</linearGradient>
</defs>
</svg>
