<svg width="33" height="29" viewBox="0 0 33 29" fill="none" xmlns="http://www.w3.org/2000/svg">
<path fill-rule="evenodd" clip-rule="evenodd" d="M9.50984 22.1028C9.50984 21.4692 8.76435 21.3285 8.28173 21.1645C7.63151 20.9438 6.91568 20.7003 6.53596 20.2271C6.36656 20.0155 6.23849 19.7804 6.15311 19.523C5.80665 18.4777 6.14727 17.2721 7.15384 16.7414C7.31561 16.656 7.49131 16.5877 7.6742 16.5365V15.41C8.23455 15.41 8.7949 15.41 9.35481 15.41V16.5266C9.51298 16.5698 9.66487 16.625 9.80642 16.6938C10.232 16.8996 10.5479 17.2141 10.7609 17.6379C10.9262 17.9673 10.9793 18.2639 11.0413 18.6175L9.30897 18.8408C8.99172 17.2573 7.25494 18.1219 7.86113 19.0031C7.95595 19.1401 8.38643 19.2938 8.87534 19.4677C9.55343 19.7094 10.3313 19.9863 10.7146 20.4397C11.2534 21.0764 11.3347 22.0704 11.057 22.8393C10.8584 23.3897 10.4778 23.8247 9.96819 24.1083C9.77631 24.2152 9.5696 24.2997 9.35481 24.3608V25.4914C8.7949 25.4914 8.23455 25.4914 7.6742 25.4914V24.3752C7.26438 24.2642 6.88557 24.0647 6.58225 23.7645C6.04346 23.2306 5.89742 22.593 5.78688 21.8767L7.54523 21.6691C7.58208 21.8552 7.61039 22.0295 7.68768 22.2057C8.03369 22.997 9.50984 23.0558 9.50984 22.1028ZM15.0334 26.0221C16.3936 26.968 17.7911 27.8092 19.2241 28.6365C30.4182 22.1733 32.7616 17.854 32.7616 5.13935C27.4479 5.13935 23.2401 3.38639 19.2241 0C15.1448 3.43986 11.0233 5.13935 5.68667 5.13935C5.68667 7.52366 5.6997 9.91651 6.01515 12.2833C2.44677 13.3896 0 16.6996 0 20.4509C0 25.1719 3.82811 29 8.5491 29C11.0511 29 13.4049 27.9157 15.0334 26.0221ZM7.83282 11.9315C7.62072 10.2868 7.55871 8.6201 7.54253 6.96331C13.0427 6.64201 17.6347 3.57422 19.2241 2.38341C20.8135 3.57422 25.4056 6.64201 30.9053 6.96331C30.8019 17.2676 28.1682 21.2386 19.2241 26.5002C18.1542 25.8706 17.1 25.2087 16.0804 24.4996C16.7297 23.2945 17.0982 21.9154 17.0982 20.4509C17.0982 15.7295 13.2705 11.9013 8.5491 11.9013C8.30825 11.9013 8.06919 11.9117 7.83282 11.9315ZM8.5491 13.7536C12.2482 13.7536 15.2464 16.7518 15.2464 20.4509C15.2464 24.1496 12.2482 27.1477 8.5491 27.1477C4.85041 27.1477 1.85227 24.1496 1.85227 20.4509C1.85227 16.7518 4.85041 13.7536 8.5491 13.7536ZM19.1855 3.89731V25.1126C28.1521 19.9359 29.3352 15.8818 29.3352 7.80631C23.7636 7.80631 19.1855 3.89731 19.1855 3.89731Z" fill="#E50913"/>
</svg>
