<svg width="31" height="31" viewBox="0 0 31 31" fill="none" xmlns="http://www.w3.org/2000/svg">
<path d="M21.7019 1.05925e-05C20.7057 -0.0020329 19.7313 0.291637 18.9022 0.843821C18.073 1.396 17.4264 2.18186 17.0442 3.10183C16.6621 4.02181 16.5615 5.03452 16.7554 6.01168C16.9492 6.98883 17.4287 7.88647 18.1331 8.59089C18.8376 9.29531 19.7352 9.77482 20.7124 9.96866C21.6895 10.1625 22.7022 10.062 23.6222 9.67981C24.5422 9.29764 25.328 8.65102 25.8802 7.82186C26.4324 6.9927 26.7261 6.0183 26.724 5.02211C26.7213 3.691 26.1913 2.4152 25.2501 1.47396C24.3088 0.53273 23.033 0.00274107 21.7019 1.05925e-05Z" fill="#E50913"/>
<path d="M2.50071 13.051H0V30.0497H2.50071V13.051Z" fill="#E50913"/>
<path d="M11.7608 13.9924L11.9468 14.1267C12.1948 14.3127 12.4118 14.4677 12.6288 14.602L12.8148 14.7054C13.1452 14.9057 13.5237 15.0129 13.9101 15.0154H14.9435C15.2084 14.9983 15.4742 14.9983 15.7392 15.0154H15.8942C16.9446 15.1716 17.9374 15.595 18.7772 16.2451C19.2218 15.0101 19.1642 13.6501 18.6168 12.4572C18.0694 11.2643 17.0759 10.3337 15.8498 9.86545C14.6236 9.39719 13.2627 9.42862 12.0595 9.95297C10.8563 10.4773 9.90679 11.4528 9.41504 12.6697C9.55971 12.6697 9.71471 12.742 9.85938 12.804C10.5449 13.1107 11.1847 13.5106 11.7608 13.9924Z" fill="#E50913"/>
<path d="M30.3176 17.2361C29.8733 16.9067 29.3406 16.7179 28.7881 16.6939C28.2356 16.67 27.6886 16.812 27.2175 17.1017L21.5444 20.5221H9.29916V19.4888H18.7957C18.5303 18.933 18.1499 18.4399 17.6797 18.0421C17.0932 17.5381 16.3772 17.2087 15.6129 17.0914C15.3962 17.0752 15.1786 17.0752 14.9619 17.0914H13.9286C13.2021 17.0841 12.4899 16.8882 11.8619 16.523C11.4514 16.289 11.0578 16.0266 10.6839 15.7377C10.2014 15.3548 9.6696 15.0385 9.10283 14.7973C8.77632 14.6579 8.42449 14.5875 8.06947 14.5907H4.56641V28.3136H15.4993C17.9455 28.3092 20.3229 27.5034 22.2677 26.0196L30.2969 19.8918C30.5137 19.7436 30.6911 19.5447 30.8136 19.3124C30.936 19.0801 30.9999 18.8214 30.9996 18.5588C30.9964 18.3005 30.9331 18.0465 30.8147 17.8169C30.6963 17.5873 30.5261 17.3885 30.3176 17.2361Z" fill="#E50913"/>
</svg>
