<svg width="80" height="81" viewBox="0 0 80 81" fill="none" xmlns="http://www.w3.org/2000/svg">
<path d="M39.8843 72.0915C35.8097 72.0933 31.7763 71.2772 28.0229 69.6916C24.2696 68.1061 20.8726 65.7832 18.0334 62.8608C12.2395 56.8766 9 48.8735 9 40.544C9 32.2145 12.2395 24.2115 18.0334 18.2272C20.8719 15.3074 24.2672 12.9864 28.0184 11.4015C31.7695 9.81659 35.8004 9 39.8726 9C43.9448 9 47.9757 9.81659 51.7269 11.4015C55.478 12.9864 58.8733 15.3074 61.7119 18.2272C67.5031 24.2129 70.7407 32.2154 70.7407 40.544C70.7407 48.8727 67.5031 56.8752 61.7119 62.8608C58.875 65.7799 55.4817 68.1007 51.7327 69.6862C47.9836 71.2716 43.9548 72.0895 39.8843 72.0915ZM39.8843 10.6505C36.0266 10.645 32.2073 11.4156 28.6535 12.9163C25.0998 14.417 21.8842 16.6173 19.1981 19.3862C13.7102 25.0553 10.6419 32.6363 10.6419 40.5266C10.6419 48.4168 13.7102 55.9979 19.1981 61.6669C21.8866 64.4341 25.1028 66.6339 28.6565 68.136C32.2102 69.6382 36.0291 70.4121 39.8872 70.4121C43.7453 70.4121 47.5642 69.6382 51.1179 68.136C54.6716 66.6339 57.8878 64.4341 60.5762 61.6669C66.071 56.0014 69.1439 48.419 69.1439 40.5266C69.1439 32.6341 66.071 25.0517 60.5762 19.3862C57.8891 16.6171 54.6725 14.4168 51.1178 12.9161C47.563 11.4154 43.7428 10.6449 39.8843 10.6505Z" fill="url(#paint0_linear)"/>
<path d="M41.3285 72.1205C35.5858 72.1259 30.0606 69.9242 25.8955 65.9706C21.4481 61.7389 18.8239 55.9413 18.5793 49.8073C18.3346 43.6733 20.4889 37.6851 24.5851 33.1127C24.8239 32.8565 25.0627 32.6002 25.3014 32.3556C25.3765 32.2767 25.4668 32.2138 25.567 32.1709C25.6671 32.1279 25.7749 32.1058 25.8838 32.1058C25.9927 32.1058 26.1005 32.1279 26.2007 32.1709C26.3008 32.2138 26.3911 32.2767 26.4662 32.3556C26.6157 32.5127 26.6991 32.7212 26.6991 32.938C26.6991 33.1548 26.6157 33.3634 26.4662 33.5204C26.2449 33.7475 26.0177 33.9805 25.8023 34.2251C21.9977 38.469 19.9962 44.0281 20.2223 49.7232C20.4485 55.4183 22.8845 60.8013 27.0136 64.7301C29.0365 66.6461 31.4231 68.137 34.0322 69.1145C36.6413 70.092 39.4199 70.5364 42.2038 70.4213C44.9876 70.3061 47.7201 69.6339 50.2396 68.4443C52.7591 67.2547 55.0145 65.5719 56.8722 63.4955C60.673 59.2487 62.6719 53.6895 62.4458 47.9947C62.2198 42.3 59.7864 36.9167 55.6609 32.9846C52.257 29.7461 47.8549 27.7585 43.1747 27.3472C42.961 27.3293 42.7624 27.2298 42.6203 27.0692C42.4782 26.9087 42.4035 26.6995 42.4117 26.4852C42.4198 26.3773 42.4492 26.272 42.4981 26.1754C42.5471 26.0789 42.6146 25.9929 42.6969 25.9226C42.7792 25.8522 42.8745 25.7988 42.9775 25.7654C43.0805 25.7321 43.1891 25.7194 43.297 25.7281C48.3383 26.1658 53.0806 28.3059 56.7441 31.7965C61.192 36.0283 63.8161 41.8265 64.0596 47.9609C64.3032 54.0954 62.147 60.0834 58.0486 64.6544C55.9423 67.0033 53.3648 68.8822 50.4839 70.1686C47.6031 71.455 44.4835 72.1201 41.3285 72.1205Z" fill="url(#paint1_linear)"/>
<path d="M34.6894 31.2433C34.2361 31.2432 33.7876 31.1519 33.3703 30.9748C32.9531 30.7977 32.5758 30.5385 32.2609 30.2125C31.6172 29.5459 31.2574 28.6554 31.2574 27.7287C31.2574 26.802 31.6172 25.9115 32.2609 25.2448C32.5772 24.9203 32.9553 24.6623 33.3729 24.4862C33.7905 24.3101 34.2391 24.2194 34.6923 24.2194C35.1455 24.2194 35.5941 24.3101 36.0117 24.4862C36.4293 24.6623 36.8074 24.9203 37.1237 25.2448C37.7674 25.9115 38.1272 26.802 38.1272 27.7287C38.1272 28.6554 37.7674 29.5459 37.1237 30.2125C36.8077 30.5387 36.4294 30.798 36.0112 30.975C35.593 31.1521 35.1435 31.2434 34.6894 31.2433ZM34.6894 25.8796C34.4511 25.8781 34.215 25.9254 33.9957 26.0186C33.7764 26.1117 33.5784 26.2487 33.414 26.4212C33.0749 26.772 32.8853 27.2408 32.8853 27.7287C32.8853 28.2166 33.0749 28.6853 33.414 29.0361C33.7549 29.3715 34.214 29.5595 34.6923 29.5595C35.1706 29.5595 35.6297 29.3715 35.9706 29.0361C36.3097 28.6853 36.4993 28.2166 36.4993 27.7287C36.4993 27.2408 36.3097 26.772 35.9706 26.4212C35.8021 26.2541 35.6021 26.1223 35.3821 26.0333C35.1622 25.9443 34.9267 25.9 34.6894 25.9029V25.8796Z" fill="url(#paint2_linear)"/>
<g filter="url(#filter0_f)">
<path d="M39.8843 72.0915C35.8097 72.0933 31.7763 71.2772 28.0229 69.6916C24.2696 68.1061 20.8726 65.7832 18.0334 62.8608C12.2395 56.8766 9 48.8735 9 40.544C9 32.2145 12.2395 24.2115 18.0334 18.2272C20.8719 15.3074 24.2672 12.9864 28.0184 11.4015C31.7695 9.81659 35.8004 9 39.8726 9C43.9448 9 47.9757 9.81659 51.7269 11.4015C55.478 12.9864 58.8733 15.3074 61.7119 18.2272C67.5031 24.2129 70.7407 32.2154 70.7407 40.544C70.7407 48.8727 67.5031 56.8752 61.7119 62.8608C58.875 65.7799 55.4817 68.1007 51.7327 69.6862C47.9836 71.2716 43.9548 72.0895 39.8843 72.0915ZM39.8843 10.6505C36.0266 10.645 32.2073 11.4156 28.6535 12.9163C25.0998 14.417 21.8842 16.6173 19.1981 19.3862C13.7102 25.0553 10.6419 32.6363 10.6419 40.5266C10.6419 48.4168 13.7102 55.9979 19.1981 61.6669C21.8866 64.4341 25.1028 66.6339 28.6565 68.136C32.2102 69.6382 36.0291 70.4121 39.8872 70.4121C43.7453 70.4121 47.5642 69.6382 51.1179 68.136C54.6716 66.6339 57.8878 64.4341 60.5762 61.6669C66.071 56.0014 69.1439 48.419 69.1439 40.5266C69.1439 32.6341 66.071 25.0517 60.5762 19.3862C57.8891 16.6171 54.6725 14.4168 51.1178 12.9161C47.563 11.4154 43.7428 10.6449 39.8843 10.6505Z" fill="url(#paint3_linear)"/>
<path d="M41.3285 72.1205C35.5858 72.1259 30.0606 69.9242 25.8955 65.9706C21.4481 61.7389 18.8239 55.9413 18.5793 49.8073C18.3346 43.6733 20.4889 37.6851 24.5851 33.1127C24.8239 32.8565 25.0627 32.6002 25.3014 32.3556C25.3765 32.2767 25.4668 32.2138 25.567 32.1709C25.6671 32.1279 25.7749 32.1058 25.8838 32.1058C25.9927 32.1058 26.1005 32.1279 26.2007 32.1709C26.3008 32.2138 26.3911 32.2767 26.4662 32.3556C26.6157 32.5127 26.6991 32.7212 26.6991 32.938C26.6991 33.1548 26.6157 33.3634 26.4662 33.5204C26.2449 33.7475 26.0177 33.9805 25.8023 34.2251C21.9977 38.469 19.9962 44.0281 20.2223 49.7232C20.4485 55.4183 22.8845 60.8013 27.0136 64.7301C29.0365 66.6461 31.4231 68.137 34.0322 69.1145C36.6413 70.092 39.4199 70.5364 42.2038 70.4213C44.9876 70.3061 47.7201 69.6339 50.2396 68.4443C52.7591 67.2547 55.0145 65.5719 56.8722 63.4955C60.673 59.2487 62.6719 53.6895 62.4458 47.9947C62.2198 42.3 59.7864 36.9167 55.6609 32.9846C52.257 29.7461 47.8549 27.7585 43.1747 27.3472C42.961 27.3293 42.7624 27.2298 42.6203 27.0692C42.4782 26.9087 42.4035 26.6995 42.4117 26.4852C42.4198 26.3773 42.4492 26.272 42.4981 26.1754C42.5471 26.0789 42.6146 25.9929 42.6969 25.9226C42.7792 25.8522 42.8745 25.7988 42.9775 25.7654C43.0805 25.7321 43.1891 25.7194 43.297 25.7281C48.3383 26.1658 53.0806 28.3059 56.7441 31.7965C61.192 36.0283 63.8161 41.8265 64.0596 47.9609C64.3032 54.0954 62.147 60.0834 58.0486 64.6544C55.9423 67.0033 53.3648 68.8822 50.4839 70.1686C47.6031 71.455 44.4835 72.1201 41.3285 72.1205Z" fill="url(#paint4_linear)"/>
<path d="M34.6894 31.2433C34.2361 31.2432 33.7876 31.1519 33.3703 30.9748C32.9531 30.7977 32.5758 30.5385 32.2609 30.2125C31.6172 29.5459 31.2574 28.6554 31.2574 27.7287C31.2574 26.802 31.6172 25.9115 32.2609 25.2448C32.5772 24.9203 32.9553 24.6623 33.3729 24.4862C33.7905 24.3101 34.2391 24.2194 34.6923 24.2194C35.1455 24.2194 35.5941 24.3101 36.0117 24.4862C36.4293 24.6623 36.8074 24.9203 37.1237 25.2448C37.7674 25.9115 38.1272 26.802 38.1272 27.7287C38.1272 28.6554 37.7674 29.5459 37.1237 30.2125C36.8077 30.5387 36.4294 30.798 36.0112 30.975C35.593 31.1521 35.1435 31.2434 34.6894 31.2433ZM34.6894 25.8796C34.4511 25.8781 34.215 25.9254 33.9957 26.0186C33.7764 26.1117 33.5784 26.2487 33.414 26.4212C33.0749 26.772 32.8853 27.2408 32.8853 27.7287C32.8853 28.2166 33.0749 28.6853 33.414 29.0361C33.7549 29.3715 34.214 29.5595 34.6923 29.5595C35.1706 29.5595 35.6297 29.3715 35.9706 29.0361C36.3097 28.6853 36.4993 28.2166 36.4993 27.7287C36.4993 27.2408 36.3097 26.772 35.9706 26.4212C35.8021 26.2541 35.6021 26.1223 35.3821 26.0333C35.1622 25.9443 34.9267 25.9 34.6894 25.9029V25.8796Z" fill="url(#paint5_linear)"/>
</g>
<path d="M39.8843 72.0915C35.8097 72.0933 31.7763 71.2772 28.0229 69.6916C24.2696 68.1061 20.8726 65.7832 18.0334 62.8608C12.2395 56.8766 9 48.8735 9 40.544C9 32.2145 12.2395 24.2115 18.0334 18.2272C20.8719 15.3074 24.2672 12.9864 28.0184 11.4015C31.7695 9.81659 35.8004 9 39.8726 9C43.9448 9 47.9757 9.81659 51.7269 11.4015C55.478 12.9864 58.8733 15.3074 61.7119 18.2272C67.5031 24.2129 70.7407 32.2154 70.7407 40.544C70.7407 48.8727 67.5031 56.8752 61.7119 62.8608C58.875 65.7799 55.4817 68.1007 51.7327 69.6862C47.9836 71.2716 43.9548 72.0895 39.8843 72.0915ZM39.8843 10.6505C36.0266 10.645 32.2073 11.4156 28.6535 12.9163C25.0998 14.417 21.8842 16.6173 19.1981 19.3862C13.7102 25.0553 10.6419 32.6363 10.6419 40.5266C10.6419 48.4168 13.7102 55.9979 19.1981 61.6669C21.8866 64.4341 25.1028 66.6339 28.6565 68.136C32.2102 69.6382 36.0291 70.4121 39.8872 70.4121C43.7453 70.4121 47.5642 69.6382 51.1179 68.136C54.6716 66.6339 57.8878 64.4341 60.5762 61.6669C66.071 56.0014 69.1439 48.419 69.1439 40.5266C69.1439 32.6341 66.071 25.0517 60.5762 19.3862C57.8891 16.6171 54.6725 14.4168 51.1178 12.9161C47.563 11.4154 43.7428 10.6449 39.8843 10.6505Z" fill="url(#paint6_linear)"/>
<path d="M41.3285 72.1205C35.5858 72.1259 30.0606 69.9242 25.8955 65.9706C21.4481 61.7389 18.8239 55.9413 18.5793 49.8073C18.3346 43.6733 20.4889 37.6851 24.5851 33.1127C24.8239 32.8565 25.0627 32.6002 25.3014 32.3556C25.3765 32.2767 25.4668 32.2138 25.567 32.1709C25.6671 32.1279 25.7749 32.1058 25.8838 32.1058C25.9927 32.1058 26.1005 32.1279 26.2007 32.1709C26.3008 32.2138 26.3911 32.2767 26.4662 32.3556C26.6157 32.5127 26.6991 32.7212 26.6991 32.938C26.6991 33.1548 26.6157 33.3634 26.4662 33.5204C26.2449 33.7475 26.0177 33.9805 25.8023 34.2251C21.9977 38.469 19.9962 44.0281 20.2223 49.7232C20.4485 55.4183 22.8845 60.8013 27.0136 64.7301C29.0365 66.6461 31.4231 68.137 34.0322 69.1145C36.6413 70.092 39.4199 70.5364 42.2038 70.4213C44.9876 70.3061 47.7201 69.6339 50.2396 68.4443C52.7591 67.2547 55.0145 65.5719 56.8722 63.4955C60.673 59.2487 62.6719 53.6895 62.4458 47.9947C62.2198 42.3 59.7864 36.9167 55.6609 32.9846C52.257 29.7461 47.8549 27.7585 43.1747 27.3472C42.961 27.3293 42.7624 27.2298 42.6203 27.0692C42.4782 26.9087 42.4035 26.6995 42.4117 26.4852C42.4198 26.3773 42.4492 26.272 42.4981 26.1754C42.5471 26.0789 42.6146 25.9929 42.6969 25.9226C42.7792 25.8522 42.8745 25.7988 42.9775 25.7654C43.0805 25.7321 43.1891 25.7194 43.297 25.7281C48.3383 26.1658 53.0806 28.3059 56.7441 31.7965C61.192 36.0283 63.8161 41.8265 64.0596 47.9609C64.3032 54.0954 62.147 60.0834 58.0486 64.6544C55.9423 67.0033 53.3648 68.8822 50.4839 70.1686C47.6031 71.455 44.4835 72.1201 41.3285 72.1205Z" fill="url(#paint7_linear)"/>
<path d="M34.6894 31.2433C34.2361 31.2432 33.7876 31.1519 33.3703 30.9748C32.9531 30.7977 32.5758 30.5385 32.2609 30.2125C31.6172 29.5459 31.2574 28.6554 31.2574 27.7287C31.2574 26.802 31.6172 25.9115 32.2609 25.2448C32.5772 24.9203 32.9553 24.6623 33.3729 24.4862C33.7905 24.3101 34.2391 24.2194 34.6923 24.2194C35.1455 24.2194 35.5941 24.3101 36.0117 24.4862C36.4293 24.6623 36.8074 24.9203 37.1237 25.2448C37.7674 25.9115 38.1272 26.802 38.1272 27.7287C38.1272 28.6554 37.7674 29.5459 37.1237 30.2125C36.8077 30.5387 36.4294 30.798 36.0112 30.975C35.593 31.1521 35.1435 31.2434 34.6894 31.2433ZM34.6894 25.8796C34.4511 25.8781 34.215 25.9254 33.9957 26.0186C33.7764 26.1117 33.5784 26.2487 33.414 26.4212C33.0749 26.772 32.8853 27.2408 32.8853 27.7287C32.8853 28.2166 33.0749 28.6853 33.414 29.0361C33.7549 29.3715 34.214 29.5595 34.6923 29.5595C35.1706 29.5595 35.6297 29.3715 35.9706 29.0361C36.3097 28.6853 36.4993 28.2166 36.4993 27.7287C36.4993 27.2408 36.3097 26.772 35.9706 26.4212C35.8021 26.2541 35.6021 26.1223 35.3821 26.0333C35.1622 25.9443 34.9267 25.9 34.6894 25.9029V25.8796Z" fill="url(#paint8_linear)"/>
<defs>
<filter id="filter0_f" x="0.63108" y="0.63108" width="78.4785" height="79.8584" filterUnits="userSpaceOnUse" color-interpolation-filters="sRGB">
<feFlood flood-opacity="0" result="BackgroundImageFix"/>
<feBlend mode="normal" in="SourceGraphic" in2="BackgroundImageFix" result="shape"/>
<feGaussianBlur stdDeviation="4.18446" result="effect1_foregroundBlur"/>
</filter>
<linearGradient id="paint0_linear" x1="39.8703" y1="9" x2="39.8703" y2="72.0915" gradientUnits="userSpaceOnUse">
<stop stop-color="#E50913"/>
<stop offset="1" stop-color="#1D1D22"/>
</linearGradient>
<linearGradient id="paint1_linear" x1="41.3194" y1="25.7255" x2="41.3194" y2="72.1205" gradientUnits="userSpaceOnUse">
<stop stop-color="#E50913"/>
<stop offset="1" stop-color="#1D1D22"/>
</linearGradient>
<linearGradient id="paint2_linear" x1="34.6923" y1="24.2194" x2="34.6923" y2="31.2433" gradientUnits="userSpaceOnUse">
<stop stop-color="#E50913"/>
<stop offset="1" stop-color="#1D1D22"/>
</linearGradient>
<linearGradient id="paint3_linear" x1="39.8703" y1="9" x2="39.8703" y2="72.0915" gradientUnits="userSpaceOnUse">
<stop stop-color="#E50913"/>
<stop offset="1" stop-color="#1D1D22"/>
</linearGradient>
<linearGradient id="paint4_linear" x1="41.3194" y1="25.7255" x2="41.3194" y2="72.1205" gradientUnits="userSpaceOnUse">
<stop stop-color="#E50913"/>
<stop offset="1" stop-color="#1D1D22"/>
</linearGradient>
<linearGradient id="paint5_linear" x1="34.6923" y1="24.2194" x2="34.6923" y2="31.2433" gradientUnits="userSpaceOnUse">
<stop stop-color="#E50913"/>
<stop offset="1" stop-color="#1D1D22"/>
</linearGradient>
<linearGradient id="paint6_linear" x1="39.8703" y1="9" x2="39.8703" y2="72.0915" gradientUnits="userSpaceOnUse">
<stop stop-color="#E50913"/>
<stop offset="1" stop-color="#1D1D22"/>
</linearGradient>
<linearGradient id="paint7_linear" x1="41.3194" y1="25.7255" x2="41.3194" y2="72.1205" gradientUnits="userSpaceOnUse">
<stop stop-color="#E50913"/>
<stop offset="1" stop-color="#1D1D22"/>
</linearGradient>
<linearGradient id="paint8_linear" x1="34.6923" y1="24.2194" x2="34.6923" y2="31.2433" gradientUnits="userSpaceOnUse">
<stop stop-color="#E50913"/>
<stop offset="1" stop-color="#1D1D22"/>
</linearGradient>
</defs>
</svg>
