<svg width="27" height="27" viewBox="0 0 27 27" fill="none" xmlns="http://www.w3.org/2000/svg">
<path d="M0 0V16.2H27V0H0ZM24.3 13.5H2.7V2.7H24.3V13.5Z" fill="#E50913"/>
<path d="M13.5214 12.1536C15.7534 12.1536 17.575 10.3392 17.575 8.09999C17.575 5.86079 15.7606 4.04639 13.5214 4.04639C11.2894 4.04639 9.46777 5.86079 9.46777 8.09999C9.46777 10.3392 11.2822 12.1536 13.5214 12.1536ZM13.5214 6.75359C14.263 6.75359 14.875 7.35839 14.875 8.10719C14.875 8.85599 14.2702 9.46079 13.5214 9.46079C12.7798 9.46079 12.1678 8.85599 12.1678 8.10719C12.1678 7.35839 12.7726 6.75359 13.5214 6.75359Z" fill="#E50913"/>
<path d="M6.75371 6.75366H4.05371V9.45366H6.75371V6.75366Z" fill="#E50913"/>
<path d="M22.9539 6.75366H20.2539V9.45366H22.9539V6.75366Z" fill="#E50913"/>
<path d="M27 18.8999H0V21.5999H27V18.8999Z" fill="#E50913"/>
<path d="M27 24.3H0V27H27V24.3Z" fill="#E50913"/>
</svg>
