<svg aria-hidden="true" style="position: absolute; width: 0; height: 0; overflow: hidden;" version="1.1"
     xmlns="http://www.w3.org/2000/svg" xmlns:xlink="http://www.w3.org/1999/xlink">
    <defs>
        <symbol id="icon-github-alt" viewBox="0 0 32 32">
            <path d="M11.631 20.544c0 1.306-0.681 3.444-2.294 3.444s-2.294-2.137-2.294-3.444 0.681-3.444 2.294-3.444 2.294 2.137 2.294 3.444zM30 17.387c0 1.994-0.2 4.106-1.094 5.938-2.369 4.787-8.881 4.675-13.544 4.675-4.738 0-11.637 0.169-14.1-4.675-0.912-1.813-1.262-3.944-1.262-5.938 0-2.619 0.869-5.094 2.594-7.1-0.325-0.988-0.481-2.025-0.481-3.050 0-1.344 0.306-2.019 0.913-3.237 2.831 0 4.644 0.563 6.8 2.25 1.813-0.431 3.675-0.625 5.544-0.625 1.688 0 3.387 0.181 5.025 0.575 2.125-1.669 3.938-2.2 6.738-2.2 0.613 1.219 0.913 1.894 0.913 3.237 0 1.025-0.163 2.044-0.481 3.013 1.719 2.025 2.438 4.519 2.438 7.137zM25.981 20.544c0-2.744-1.669-5.162-4.594-5.162-1.181 0-2.313 0.213-3.5 0.375-0.931 0.144-1.863 0.2-2.819 0.2-0.95 0-1.881-0.056-2.819-0.2-1.169-0.162-2.313-0.375-3.5-0.375-2.925 0-4.594 2.419-4.594 5.162 0 5.488 5.025 6.331 9.4 6.331h3.013c4.394 0 9.413-0.837 9.413-6.331zM20.819 17.1c-1.613 0-2.294 2.137-2.294 3.444s0.681 3.444 2.294 3.444 2.294-2.137 2.294-3.444-0.681-3.444-2.294-3.444z"></path>
        </symbol>
        <symbol id="icon-telegram-plane" viewBox="0 0 32 32">
            <path d="M27.919 6.162l-4.225 19.925c-0.319 1.406-1.15 1.756-2.331 1.094l-6.438-4.744-3.106 2.988c-0.344 0.344-0.631 0.631-1.294 0.631l0.463-6.556 11.931-10.781c0.519-0.463-0.113-0.719-0.806-0.256l-14.75 9.287-6.35-1.988c-1.381-0.431-1.406-1.381 0.288-2.044l24.837-9.569c1.15-0.431 2.156 0.256 1.781 2.013z"></path>
        </symbol>
        <symbol id="icon-twitter-logo" viewBox="0 0 32 32">
            <path d="M32 6.079c-1.178 0.522-2.442 0.876-3.769 1.034 1.356-0.812 2.394-2.1 2.885-3.629-1.272 0.752-2.675 1.298-4.171 1.594-1.198-1.278-2.901-2.074-4.791-2.074-3.625 0-6.565 2.939-6.565 6.563 0 0.514 0.058 1.016 0.17 1.496-5.455-0.274-10.292-2.887-13.529-6.859-0.566 0.968-0.888 2.096-0.888 3.299 0 2.278 1.16 4.287 2.919 5.463-1.076-0.036-2.088-0.332-2.973-0.824v0.082c0 3.179 2.264 5.833 5.265 6.437-0.55 0.148-1.13 0.23-1.73 0.23-0.424 0-0.834-0.042-1.236-0.122 0.836 2.61 3.259 4.507 6.131 4.559-2.246 1.76-5.077 2.805-8.152 2.805-0.53 0-1.052-0.032-1.566-0.090 2.905 1.866 6.355 2.953 10.062 2.953 12.076 0 18.677-10.002 18.677-18.677l-0.022-0.85c1.29-0.92 2.405-2.076 3.283-3.391z"></path>
        </symbol>
        <!-- <symbol id="icon-twitter-logo" viewBox="0 0 32 32">
           <path d="M32 6.079c-1.178 0.522-2.442 0.876-3.769 1.034 1.356-0.812 2.394-2.1 2.885-3.629-1.272 0.752-2.675 1.298-4.171 1.594-1.198-1.278-2.901-2.074-4.791-2.074-3.625 0-6.565 2.939-6.565 6.563 0 0.514 0.058 1.016 0.17 1.496-5.455-0.274-10.292-2.887-13.529-6.859-0.566 0.968-0.888 2.096-0.888 3.299 0 2.278 1.16 4.287 2.919 5.463-1.076-0.036-2.088-0.332-2.973-0.824v0.082c0 3.179 2.264 5.833 5.265 6.437-0.55 0.148-1.13 0.23-1.73 0.23-0.424 0-0.834-0.042-1.236-0.122 0.836 2.61 3.259 4.507 6.131 4.559-2.246 1.76-5.077 2.805-8.152 2.805-0.53 0-1.052-0.032-1.566-0.090 2.905 1.866 6.355 2.953 10.062 2.953 12.076 0 18.677-10.002 18.677-18.677l-0.022-0.85c1.29-0.92 2.405-2.076 3.283-3.391z"></path>
       </symbol> -->
       <symbol id="icon-footerheart" fill="none" viewBox="0 0 10 10">
 <path opacity=".4" d="M9.272 4.798L5 9.082.728 4.798A2.885 2.885 0 0 1 .843.844 2.88 2.88 0 0 1 4.572.55L2.56 2.56l.405.405L5.194.737a2.883 2.883 0 0 1 4.078 4.06z" fill="#E50913"/>
 </symbol>
 <symbol id="icon-hamberger" fill="none" viewBox="0 0 385 385" >
 <g clip-path="url(#clip0)" fill="#fff">
 <path d="M12.03 84.212h360.909c6.641 0 12.03-5.39 12.03-12.03s-5.39-12.03-12.03-12.03H12.03C5.39 60.152 0 65.542 0 72.182c0 6.641 5.39 12.03 12.03 12.03zM372.939 180.455H12.03c-6.641 0-12.03 5.39-12.03 12.03s5.39 12.03 12.03 12.03h360.909c6.641 0 12.03-5.39 12.03-12.03s-5.389-12.03-12.03-12.03zM372.939 300.759H12.03c-6.641 0-12.03 5.39-12.03 12.03 0 6.641 5.39 12.03 12.03 12.03h360.909c6.641 0 12.03-5.39 12.03-12.03.001-6.641-5.389-12.03-12.03-12.03z"/>
 </g>
 </symbol>
        <symbol id="icon-medium-m" viewBox="0 0 32 32">
            <path d="M4.469 8.894c0.037-0.369-0.106-0.738-0.381-0.987l-2.819-3.4v-0.506h8.762l6.775 14.856 5.956-14.856h8.356v0.506l-2.413 2.313c-0.206 0.156-0.313 0.419-0.269 0.675v17c-0.044 0.256 0.063 0.519 0.269 0.675l2.356 2.313v0.506h-11.856v-0.506l2.444-2.369c0.238-0.238 0.238-0.313 0.238-0.675v-13.738l-6.794 17.244h-0.919l-7.9-17.244v11.556c-0.069 0.488 0.094 0.975 0.438 1.325l3.175 3.85v0.506h-9v-0.5l3.175-3.856c0.338-0.35 0.494-0.844 0.406-1.325v-13.363z"></path>
        </symbol>
        <symbol id="icon-linkedin" viewBox="0 0 512 512">
            <path d="M475.074 0H36.926C16.53 0 0 16.531 0 36.926v438.148C0 495.47 16.531 512 36.926 512h438.148C495.47 512 512 495.469 512 475.074V36.926C512 16.53 495.469 0 475.074 0zM181.61 387h-62.347V199.426h62.347zm-31.172-213.188h-.406c-20.922 0-34.453-14.402-34.453-32.402 0-18.406 13.945-32.41 35.274-32.41 21.328 0 34.453 14.004 34.859 32.41 0 18-13.531 32.403-35.274 32.403zM406.423 387h-62.34V286.652c0-25.218-9.027-42.418-31.586-42.418-17.223 0-27.48 11.602-31.988 22.801-1.649 4.008-2.051 9.61-2.051 15.215V387h-62.344s.817-169.977 0-187.574h62.344v26.558c8.285-12.78 23.11-30.96 56.188-30.96 41.02 0 71.777 26.808 71.777 84.421zm0 0"/>
        </symbol>
         <symbol id="icon-minus" fill="none" viewBox="0 0 14 2">
            <path d="M.483.518H13.517a.483.483 0 1 1 0 .965H.483a.483.483 0 1 1 0-.965z" fill="#fff"/>
        </symbol>
        <symbol id="icon-plus" fill="none" viewBox="0 0 14 14">
            <path d="M7 0a.483.483 0 0 0-.483.483v6.034H.483a.483.483 0 1 0 0 .966h6.034v6.034a.483.483 0 1 0 .966 0V7.483h6.034a.483.483 0 1 0 0-.966H7.483V.483A.483.483 0 0 0 7 0z" fill="#fff"/>
        </symbol>
        <symbol id="icon-reddit-round" viewBox="0 0 15 15">
            <path d="M13.328 5.495c-.474 0-.89.199-1.197.509-1.129-.791-2.65-1.3-4.335-1.355L8.67.653l2.788.634a1.25 1.25 0 0 0 1.24 1.256c.695 0 1.254-.58 1.254-1.272C13.953.58 13.398 0 12.7 0c-.487 0-.907.298-1.117.704L8.503.014c-.155-.043-.307.07-.348.227l-.961 4.405c-1.673.07-3.178.58-4.31 1.37a1.672 1.672 0 0 0-1.213-.521C-.087 5.495-.663 7.883.947 8.7a3.63 3.63 0 0 0-.083.79c0 2.684 2.985 4.858 6.65 4.858 3.68 0 6.663-2.174 6.663-4.857 0-.27-.028-.551-.097-.804 1.577-.82.996-3.191-.752-3.192zM3.501 8.869c0-.704.556-1.27 1.255-1.27.682 0 1.239.562 1.239 1.27a1.25 1.25 0 0 1-1.24 1.256A1.253 1.253 0 0 1 3.502 8.87zm6.774 2.994c-1.15 1.165-4.398 1.165-5.549 0-.127-.113-.127-.311 0-.439a.3.3 0 0 1 .418 0c.878.913 3.793.928 4.71 0a.3.3 0 0 1 .418 0c.13.129.13.327.003.439zm-.026-1.735a1.249 1.249 0 0 1-1.238-1.255c0-.704.556-1.271 1.238-1.271.696 0 1.255.563 1.255 1.271a1.258 1.258 0 0 1-1.255 1.255z"/>
        </symbol>
        <symbol id="icon-whitepaper" viewBox="0 0 14 16">
            <path d="M9.886 3.026c0 .54.45.99.99.99h2.368L9.886.655l-.03-.029v2.399h.03z"/>
            <path d="M10.876 4.615a1.6 1.6 0 0 1-1.59-1.59V.388H1.61c-.54 0-.99.45-.99.99V14.99c0 .54.45.99.99.99h10.975c.54 0 .99-.45.99-.99V4.765v-.15h-2.7z"/>
        </symbol>
            <symbol id="icon-discord" fill="none" viewBox="0 0 15 19">
            <path d="M5.949 8.12c-.49 0-.875.429-.875.951 0 .523.394.952.875.952.488 0 .874-.429.874-.952.008-.522-.386-.951-.875-.951zm3.128 0c-.489 0-.874.429-.874.951 0 .523.394.952.874.952.489 0 .874-.429.874-.952 0-.522-.385-.951-.874-.951z" fill="#DBD6D6"/>
            <path d="M13.243.929H1.757C.79.929 0 1.717 0 2.694v11.589c0 .977.789 1.766 1.757 1.766h9.72l-.454-1.586 1.097 1.02 1.037.96L15 18.07V2.694C15 1.717 14.211.93 13.243.93zM9.934 12.123s-.308-.369-.565-.694c1.122-.318 1.551-1.02 1.551-1.02a4.904 4.904 0 0 1-.986.505c-.428.18-.84.3-1.243.369a6.004 6.004 0 0 1-2.22-.009 7.191 7.191 0 0 1-1.26-.368 5.017 5.017 0 0 1-.625-.292c-.026-.017-.052-.025-.077-.043-.018-.008-.026-.017-.035-.025a3.004 3.004 0 0 1-.24-.146s.412.686 1.5 1.011c-.257.326-.574.712-.574.712-1.894-.06-2.614-1.303-2.614-1.303 0-2.76 1.234-4.997 1.234-4.997 1.234-.926 2.409-.9 2.409-.9l.085.103C4.731 5.47 4.02 6.149 4.02 6.149s.189-.103.506-.249c.917-.403 1.645-.514 1.945-.54.052-.009.095-.017.146-.017a6.988 6.988 0 0 1 4.311.806s-.677-.643-2.134-1.089l.12-.137s1.175-.026 2.409.9c0 0 1.234 2.237 1.234 4.997 0 0-.728 1.243-2.623 1.303z" fill="#DBD6D6"/>
            </symbol>
        <symbol id="icon-reddit" viewBox="0 0 35 35">
            <title>Reddit</title>
            <path d="M20.764 22.383a.314.314 0 0 1 0 .446c-.678.674-1.741 1.002-3.254 1.002l-.012-.003-.011.003c-1.511 0-2.575-.328-3.254-1.004a.313.313 0 0 1 0-.445.319.319 0 0 1 .448 0c.553.55 1.47.819 2.806.819l.012.002.011-.002c1.335 0 2.252-.269 2.806-.819a.319.319 0 0 1 .448 0zm-5.017-3.527c0-.74-.604-1.34-1.345-1.34-.742 0-1.345.6-1.345 1.34 0 .738.603 1.339 1.345 1.339.741.002 1.345-.6 1.345-1.339zM35 17.5C35 27.164 27.164 35 17.5 35S0 27.164 0 17.5 7.836 0 17.5 0 35 7.836 35 17.5zm-7.292-.188a2.257 2.257 0 0 0-3.826-1.616c-1.54-1.014-3.624-1.658-5.93-1.741l1.261-3.973 3.417.8-.004.05c0 1.015.83 1.84 1.85 1.84 1.019 0 1.847-.825 1.847-1.84 0-1.014-.828-1.84-1.848-1.84a1.85 1.85 0 0 0-1.72 1.173L19.075 9.3a.316.316 0 0 0-.375.212l-1.408 4.43c-2.415.03-4.6.68-6.21 1.722a2.255 2.255 0 0 0-1.53-.605 2.26 2.26 0 0 0-2.26 2.252c0 .825.454 1.54 1.12 1.932-.043.24-.072.483-.072.73 0 3.326 4.09 6.032 9.119 6.032 5.028 0 9.119-2.706 9.119-6.033 0-.233-.025-.462-.065-.688a2.24 2.24 0 0 0 1.196-1.973zm-7.105.205c-.742 0-1.344.601-1.344 1.34a1.344 1.344 0 0 0 2.689 0c0-.739-.602-1.34-1.345-1.34z"
            />
        </symbol>
        <symbol id="icon-participate" fill="none" viewBox="0 0 35 42">
        <symbol id="icon-youtube" viewBox="-21 -117 682.667 682">
            <path d="M626.813 64.035c-7.375-27.418-28.993-49.031-56.407-56.414C520.324-6.082 319.992-6.082 319.992-6.082s-200.324 0-250.406 13.184c-26.887 7.375-49.031 29.52-56.406 56.933C0 114.113 0 217.97 0 217.97s0 104.379 13.18 153.933c7.382 27.414 28.992 49.028 56.41 56.41C120.195 442.02 320 442.02 320 442.02s200.324 0 250.406-13.184c27.418-7.379 49.032-28.992 56.414-56.406 13.176-50.082 13.176-153.934 13.176-153.934s.527-104.383-13.183-154.46zM256.21 313.915V122.022l166.586 95.946zm0 0"/>
        </symbol>

        <symbol id="icon-announcements" viewBox="0 0 12 8">
            <title>Announcements</title>
            <path d="M11.37 3.888a1.122 1.122 0 0 1-1.121 1.121V2.766a1.122 1.122 0 0 1 1.122 1.122zM2.958 2.205H1.835a1.683 1.683 0 0 0 0 3.365l.561 2.244h1.122l-.56-2.244V2.205zM9.128.695c-.05 0-.1.007-.148.02l-5.462 1.49V5.57l5.461 1.49a.56.56 0 0 0 .709-.541V1.257a.561.561 0 0 0-.56-.562z"/>
        </symbol>
        <symbol id="icon-chat" viewBox="0 0 11 11">
            <title>chat</title>
            <path d="M7.985.05h-4.79A2.631 2.631 0 0 0 .56 2.686v3.09c0 1.161.751 2.153 1.8 2.494.368.113.61.453.61.836v.85c0 .227.269.369.453.227L5.49 8.58a.915.915 0 0 1 .538-.184h1.956a2.61 2.61 0 0 0 2.636-2.622v-3.09A2.631 2.631 0 0 0 7.985.05z"/>
        </symbol>
        <symbol id="icon-linkedin-footer" viewBox="0 0 11 10">
            <title>Linkedin</title>
            <path d="M2.335 3.213H.324a.162.162 0 0 0-.162.162v6.463c0 .09.072.161.162.161h2.011c.09 0 .162-.072.162-.161V3.375a.162.162 0 0 0-.162-.162zM1.33 0C.598 0 .002.595.002 1.326a1.328 1.328 0 0 0 2.654 0C2.657.595 2.062 0 1.33 0zM7.452 3.053c-.808 0-1.405.347-1.767.742v-.42a.162.162 0 0 0-.162-.162H3.596a.162.162 0 0 0-.161.162v6.463c0 .09.072.162.161.162h2.008c.09 0 .162-.072.162-.162V6.64c0-1.077.292-1.497 1.043-1.497.819 0 .884.673.884 1.553v3.142c0 .09.072.162.161.162h2.008c.09 0 .162-.072.162-.162V6.293c0-1.602-.306-3.24-2.572-3.24z"/>
        </symbol>

        <symbol id="icon-github2" viewBox="0 0 23 23">
            <path fill-rule="evenodd" clip-rule="evenodd" d="M11.003.87C4.927.87 0 5.795 0 11.873c0 4.861 3.152 8.986 7.526 10.442.55.1.724-.226.724-.517 0-.262.005-.992 0-1.91-3.061.664-3.695-1.45-3.695-1.45-.5-1.272-1.221-1.61-1.221-1.61-1-.683.075-.67.075-.67 1.104.078 1.686 1.135 1.686 1.135.981 1.68 2.575 1.195 3.201.914.1-.711.386-1.196.7-1.471-2.444-.278-5.012-1.222-5.012-5.439 0-1.202.428-2.183 1.132-2.953-.113-.277-.492-1.397.108-2.912 0 0 .924-.296 3.026 1.129.877-.245 1.82-.366 2.755-.37.935.004 1.876.125 2.755.37 2.101-1.424 3.024-1.13 3.024-1.13.6 1.516.222 2.636.11 2.913.703.77 1.13 1.751 1.13 2.953 0 4.228-2.573 5.158-5.024 5.43.395.34.753 1 .753 2.027v3.046c0 .295.177.62.736.513 4.37-1.457 7.519-5.58 7.519-10.44 0-6.078-4.927-11.005-11.005-11.005z"/>
        </symbol>
        <symbol id="icon-arrow-navigate" fill="none" viewBox="0 0 10 10">
            <path d="M9.5 1A.5.5 0 0 0 9 .5H4.5a.5.5 0 0 0 0 1h4v4a.5.5 0 0 0 1 0V1zM1.354 9.354l8-8-.708-.708-8 8 .708.708z" fill="#E50913"/>
        </symbol>

    </defs>
</svg>