<svg width="121" height="122" viewBox="0 0 121 122" fill="none" xmlns="http://www.w3.org/2000/svg">
<g filter="url(#filter0_di_3301_2026)">
<path d="M70.8496 72.191C69.2983 70.8679 67.2671 70.3198 65.2595 70.6398L45.8416 73.88C45.7505 72.2146 45.066 70.6398 43.8792 69.4537C42.5785 68.1529 40.8901 67.4683 39.0418 67.4683C26.6977 67.4913 18.5522 67.4913 16.749 67.4683C15.4946 66.0534 13.6922 65.1637 11.6615 65.1637H7.0981C5.84317 65.1637 4.81641 66.1905 4.81641 67.4454V90.2623C4.81641 91.5172 5.84317 92.544 7.0981 92.544H11.6615C13.6691 92.544 15.4722 91.6543 16.7271 90.2623H39.0421C39.202 90.2623 39.3614 90.2394 39.5213 90.2165L67.8378 84.147C70.9863 83.463 73.2679 80.6334 73.2679 77.4166C73.2679 75.4084 72.3782 73.4918 70.8492 72.1911L70.8496 72.191ZM66.8796 79.6753L38.7913 85.6988H18.5077V72.0321C21.3369 72.055 27.087 72.055 39.0664 72.0321C39.6598 72.0321 40.2302 72.2603 40.6636 72.6708C41.097 73.1042 41.3252 73.6746 41.3252 74.2909C41.3252 75.5458 40.2985 76.5726 39.0435 76.5726H27.6351C26.3801 76.5726 25.3534 77.5994 25.3534 78.8543C25.3534 80.1092 26.3801 81.136 27.6351 81.136H39.0435C41.097 81.136 42.8994 80.2233 44.1544 78.7861L66.013 75.1583C66.6975 75.0443 67.3591 75.2266 67.8842 75.6605C68.4088 76.1169 68.7058 76.7331 68.7058 77.4177C68.7058 78.5122 67.9301 79.4477 66.8804 79.6759L66.8796 79.6753Z" fill="url(#paint0_linear_3301_2026)"/>
<path d="M34.4805 65.1635H43.6073C54.9246 65.1635 64.1426 55.9456 64.1426 44.6283C64.1426 33.3109 54.9246 24.093 43.6073 24.093H34.4805C23.1632 24.093 13.9453 33.3109 13.9453 44.6283C13.9453 55.9456 23.1632 65.1635 34.4805 65.1635ZM34.4805 28.6564C43.288 28.6564 50.4524 35.8208 50.4524 44.6283C50.4524 53.4357 43.288 60.6001 34.4805 60.6001C25.6731 60.6001 18.5087 53.4357 18.5087 44.6283C18.5087 35.8208 25.6731 28.6564 34.4805 28.6564Z" fill="url(#paint1_linear_3301_2026)"/>
<path d="M27.4716 47.9138L26.5818 53.3899C26.4448 54.2567 26.81 55.1241 27.5174 55.6257C28.2478 56.1279 29.1828 56.1732 29.9361 55.7627L34.4766 53.2529L39.017 55.7627C39.3593 55.945 39.7474 56.0367 40.112 56.0367C40.5684 56.0367 41.0476 55.8997 41.4351 55.6262C42.1426 55.124 42.5077 54.2572 42.3707 53.3904L41.481 47.9144L45.2458 44.0584C45.8391 43.4651 46.0444 42.5524 45.7704 41.7538C45.4964 40.9323 44.7894 40.3389 43.945 40.2248L38.8341 39.4491L36.5525 34.5435C36.1649 33.722 35.3663 33.2198 34.4765 33.2198C33.5867 33.2198 32.7882 33.722 32.4 34.543L30.1183 39.4486L25.0075 40.2248C24.163 40.3389 23.4562 40.9322 23.1821 41.7538C22.9081 42.5519 23.1139 43.4645 23.7067 44.0579L27.4716 47.9138Z" fill="url(#paint2_linear_3301_2026)"/>
</g>
<defs>
<filter id="filter0_di_3301_2026" x="0.0548897" y="0.965662" width="120.15" height="120.147" filterUnits="userSpaceOnUse" color-interpolation-filters="sRGB">
<feFlood flood-opacity="0" result="BackgroundImageFix"/>
<feColorMatrix in="SourceAlpha" type="matrix" values="0 0 0 0 0 0 0 0 0 0 0 0 0 0 0 0 0 0 127 0" result="hardAlpha"/>
<feOffset dx="21.0867" dy="2.72087"/>
<feGaussianBlur stdDeviation="12.9241"/>
<feComposite in2="hardAlpha" operator="out"/>
<feColorMatrix type="matrix" values="0 0 0 0 1 0 0 0 0 0 0 0 0 0 0 0 0 0 0.25 0"/>
<feBlend mode="normal" in2="BackgroundImageFix" result="effect1_dropShadow_3301_2026"/>
<feBlend mode="normal" in="SourceGraphic" in2="effect1_dropShadow_3301_2026" result="shape"/>
<feColorMatrix in="SourceAlpha" type="matrix" values="0 0 0 0 0 0 0 0 0 0 0 0 0 0 0 0 0 0 127 0" result="hardAlpha"/>
<feOffset dy="3.0297"/>
<feGaussianBlur stdDeviation="3.33267"/>
<feComposite in2="hardAlpha" operator="arithmetic" k2="-1" k3="1"/>
<feColorMatrix type="matrix" values="0 0 0 0 1 0 0 0 0 1 0 0 0 0 1 0 0 0 0.23 0"/>
<feBlend mode="normal" in2="shape" result="effect2_innerShadow_3301_2026"/>
</filter>
<linearGradient id="paint0_linear_3301_2026" x1="88.0278" y1="93.4852" x2="51.8887" y2="32.1124" gradientUnits="userSpaceOnUse">
<stop offset="0.0001" stop-color="#C14449"/>
<stop offset="0.0002" stop-color="#E50913"/>
<stop offset="0.703125" stop-color="#322D3E"/>
</linearGradient>
<linearGradient id="paint1_linear_3301_2026" x1="74.9663" y1="66.5753" x2="14.0339" y2="15.9868" gradientUnits="userSpaceOnUse">
<stop offset="0.0001" stop-color="#C14449"/>
<stop offset="0.0002" stop-color="#E50913"/>
<stop offset="0.703125" stop-color="#322D3E"/>
</linearGradient>
<linearGradient id="paint2_linear_3301_2026" x1="50.8123" y1="56.8243" x2="18.789" y2="35.0641" gradientUnits="userSpaceOnUse">
<stop offset="0.0001" stop-color="#C14449"/>
<stop offset="0.0002" stop-color="#E50913"/>
<stop offset="0.703125" stop-color="#322D3E"/>
</linearGradient>
</defs>
</svg>
