<svg width="33" height="46" viewBox="0 0 33 46" fill="none" xmlns="http://www.w3.org/2000/svg">
<path fill-rule="evenodd" clip-rule="evenodd" d="M20.7285 0.61792C20.0034 0.626182 19.4568 0.933539 19.08 1.40448C15.6079 6.60304 10.9316 10.1501 7.03144 13.9988C3.13098 17.847 0 22.0954 0 28.5009C0 37.618 7.29422 45.0361 16.2865 45.0361C25.2787 45.0361 32.5729 37.6176 32.5729 28.5009C32.5729 23.576 30.8895 17.8305 28.7819 12.783C26.6744 7.73514 24.1712 3.42654 22.3158 1.3258C21.8991 0.854196 21.3134 0.618884 20.7281 0.618884L20.7285 0.61792ZM20.7285 2.05654C20.8941 2.05654 21.0593 2.1395 21.2057 2.3054C22.8228 4.136 25.3553 8.41676 27.4159 13.3523C29.4764 18.2878 31.0929 23.9186 31.0929 28.5008C31.0929 36.8297 24.4666 43.5554 16.287 43.5554C8.10741 43.5554 1.48115 36.83 1.48115 28.5008C1.48115 22.5692 4.27176 18.8017 8.07146 15.0528C11.8516 11.3236 16.6199 7.70743 20.2512 2.3054C20.3778 2.13024 20.5913 2.04861 20.7284 2.05654H20.7285ZM16.2867 18.3853C10.1628 18.3853 5.18231 23.3658 5.18231 29.4897C5.18231 35.6137 10.1628 40.5941 16.2867 40.5941C22.4107 40.5941 27.3911 35.6137 27.3911 29.4897C27.3911 23.3658 22.4107 18.3853 16.2867 18.3853ZM16.2867 19.8659C21.6106 19.8659 25.9105 24.1659 25.9105 29.4897C25.9105 34.8136 21.6106 39.1135 16.2867 39.1135C10.9629 39.1135 6.6629 34.8136 6.6629 29.4897C6.6629 24.1659 10.9629 19.8659 16.2867 19.8659ZM16.2867 21.3465C15.8779 21.3465 15.5464 21.678 15.5464 22.0868V22.9024C13.8626 23.2481 12.5853 24.7466 12.5853 26.5285C12.5853 28.3105 13.8626 29.8092 15.5464 30.1546V34.5458C14.6799 34.244 14.0658 33.4261 14.0658 32.4508C14.0658 32.042 13.7344 31.7105 13.3255 31.7105C12.9167 31.7105 12.5853 32.042 12.5853 32.4508C12.5853 34.2327 13.8626 35.7315 15.5464 36.0769V36.8925C15.5464 37.3013 15.8779 37.6328 16.2867 37.6328C16.6955 37.6328 17.027 37.3013 17.027 36.8925V36.0769C18.7108 35.7312 19.9882 34.2327 19.9882 32.4508C19.9882 30.6688 18.7108 29.17 17.027 28.8247V24.4335C17.8935 24.7353 18.5076 25.5532 18.5076 26.5285C18.5076 26.9373 18.8391 27.2688 19.2479 27.2688C19.6567 27.2688 19.9882 26.9373 19.9882 26.5285C19.9882 24.7466 18.7108 23.2478 17.027 22.9024V22.0868C17.027 21.678 16.6955 21.3465 16.2867 21.3465ZM15.5464 24.4336V28.6238C14.6799 28.3221 14.0658 27.5041 14.0658 26.5288C14.0658 25.5536 14.6799 24.7356 15.5464 24.4338V24.4336ZM17.027 30.3559C17.8935 30.6576 18.5076 31.4756 18.5076 32.4509C18.5076 33.4262 17.8936 34.2441 17.027 34.5459V30.3559Z" fill="white"/>
</svg>
