<svg width="105" height="26" viewBox="0 0 105 26" fill="none" xmlns="http://www.w3.org/2000/svg">
<rect width="25.9328" height="25.9317" rx="12.9659" fill="white"/>
<path d="M19.2799 14.7046C19.2799 15.6644 19.0596 16.5455 18.6191 17.348C18.1785 18.1347 17.5019 18.772 16.5893 19.2597C15.6767 19.7475 14.5438 19.9914 13.1906 19.9914H10.6888V25.9391H6.6529V9.37052H13.1906C14.5123 9.37052 15.6295 9.59867 16.5421 10.055C17.4547 10.5113 18.1392 11.1407 18.5955 11.9431C19.0518 12.7456 19.2799 13.6661 19.2799 14.7046ZM12.8838 16.7815C13.6548 16.7815 14.2291 16.6006 14.6067 16.2387C14.9844 15.8768 15.1732 15.3654 15.1732 14.7046C15.1732 14.0437 14.9844 13.5323 14.6067 13.1704C14.2291 12.8085 13.6548 12.6276 12.8838 12.6276H10.6888V16.7815H12.8838Z" fill="#1F1D2B"/>
<path d="M19.363 5.17297H6.65286V7.83943H19.363V5.17297Z" fill="#E50913"/>
<path d="M36.9043 23.168C35.6723 23.168 34.5683 22.968 33.5923 22.568C32.6163 22.168 31.8323 21.576 31.2403 20.792C30.6643 20.008 30.3603 19.064 30.3283 17.96H34.6963C34.7603 18.584 34.9763 19.064 35.3443 19.4C35.7123 19.72 36.1923 19.88 36.7843 19.88C37.3923 19.88 37.8723 19.744 38.2243 19.472C38.5763 19.184 38.7523 18.792 38.7523 18.296C38.7523 17.88 38.6083 17.536 38.3203 17.264C38.0483 16.992 37.7043 16.768 37.2883 16.592C36.8883 16.416 36.3123 16.216 35.5603 15.992C34.4723 15.656 33.5843 15.32 32.8963 14.984C32.2083 14.648 31.6163 14.152 31.1203 13.496C30.6243 12.84 30.3763 11.984 30.3763 10.928C30.3763 9.36 30.9443 8.136 32.0803 7.256C33.2163 6.36 34.6963 5.912 36.5203 5.912C38.3763 5.912 39.8723 6.36 41.0083 7.256C42.1443 8.136 42.7523 9.368 42.8323 10.952H38.3923C38.3603 10.408 38.1603 9.984 37.7923 9.68C37.4243 9.36 36.9523 9.2 36.3763 9.2C35.8803 9.2 35.4803 9.336 35.1763 9.608C34.8723 9.864 34.7203 10.24 34.7203 10.736C34.7203 11.28 34.9763 11.704 35.4883 12.008C36.0003 12.312 36.8003 12.64 37.8883 12.992C38.9763 13.36 39.8563 13.712 40.5283 14.048C41.2163 14.384 41.8083 14.872 42.3043 15.512C42.8003 16.152 43.0483 16.976 43.0483 17.984C43.0483 18.944 42.8003 19.816 42.3043 20.6C41.8243 21.384 41.1203 22.008 40.1923 22.472C39.2643 22.936 38.1683 23.168 36.9043 23.168Z" fill="white"/>
<path d="M57.694 6.152V9.44H53.23V23H49.126V9.44H44.662V6.152H57.694Z" fill="white"/>
<path d="M70.2417 20.024H63.9537L62.9457 23H58.6497L64.7457 6.152H69.4977L75.5937 23H71.2497L70.2417 20.024ZM69.1857 16.856L67.0977 10.688L65.0337 16.856H69.1857Z" fill="white"/>
<path d="M87.217 23L81.553 15.56V23H77.449V6.152H81.553V13.544L87.169 6.152H91.993L85.465 14.408L92.233 23H87.217Z" fill="white"/>
<path d="M98.2873 9.44V12.848H103.783V16.016H98.2873V19.712H104.503V23H94.1833V6.152H104.503V9.44H98.2873Z" fill="white"/>
</svg>
