<svg width="58" height="58" viewBox="0 0 58 58" fill="none" xmlns="http://www.w3.org/2000/svg">
<path d="M29 58C45.0163 58 58 45.0163 58 29C58 12.9837 45.0163 0 29 0C12.9837 0 0 12.9837 0 29C0 45.0163 12.9837 58 29 58Z" fill="url(#paint0_linear_9_3101)"/>
<path fill-rule="evenodd" clip-rule="evenodd" d="M28.9142 48.2578C23.2703 48.2535 18.724 46.8992 15.5475 44.4667C12.3328 42.0049 10.6274 38.5114 10.6274 34.5584C10.6274 30.7495 12.3291 28.003 14.2544 26.1465C15.7633 24.6916 17.4284 23.7598 18.5878 23.2239C18.3257 22.4192 17.9985 21.3658 17.7059 20.2778C17.3143 18.8219 16.9301 17.1137 16.9301 15.862C16.9301 14.3804 17.2532 12.8925 18.1241 11.7363C19.0443 10.5148 20.4296 9.86041 22.0962 9.86041C23.3987 9.86041 24.5045 10.3435 25.3703 11.177C26.1978 11.9737 26.7485 13.0317 27.1288 14.1347C27.797 16.0726 28.0572 18.5075 28.1302 20.9373H29.7265C29.7995 18.5075 30.0597 16.0726 30.7279 14.1347C31.1082 13.0317 31.659 11.9737 32.4865 11.177C33.3522 10.3435 34.458 9.86041 35.7605 9.86041C37.4271 9.86041 38.8124 10.5148 39.7326 11.7363C40.6036 12.8925 40.9266 14.3804 40.9266 15.862C40.9266 17.1137 40.5424 18.8219 40.1508 20.2778C39.8582 21.3658 39.5311 22.4192 39.2689 23.2239C40.4283 23.7598 42.0934 24.6916 43.6022 26.1465C45.5277 28.003 47.2292 30.7495 47.2292 34.5584C47.2292 38.5114 45.5239 42.0049 42.3093 44.4667C39.1327 46.8992 34.5865 48.2535 28.9425 48.2578H28.9142Z" fill="#633001"/>
<path d="M22.0963 11.2694C19.6552 11.2694 18.5316 13.109 18.5316 15.6532C18.5316 17.6754 19.8372 21.7255 20.3729 23.3021C20.4933 23.6567 20.304 24.0452 19.9588 24.1827C18.0024 24.962 12.229 27.8152 12.229 34.3497C12.229 41.233 18.0961 46.423 28.9155 46.4312C28.9198 46.4312 28.9241 46.4312 28.9284 46.4312C28.9327 46.4312 28.937 46.4312 28.9413 46.4312C39.7607 46.423 45.6278 41.233 45.6278 34.3497C45.6278 27.8152 39.8544 24.962 37.8981 24.1827C37.5528 24.0452 37.3635 23.6567 37.484 23.3021C38.0196 21.7255 39.3252 17.6754 39.3252 15.6532C39.3252 13.109 38.2015 11.2694 35.7606 11.2694C32.2469 11.2694 31.371 16.2975 31.3085 21.6938C31.3044 22.0541 31.016 22.3464 30.6594 22.3464H27.1974C26.8407 22.3464 26.5525 22.0541 26.5483 21.6938C26.4858 16.2975 25.6099 11.2694 22.0963 11.2694Z" fill="#D1884F"/>
<path d="M28.9413 44.2262C20.9918 44.2262 12.2427 39.9274 12.229 34.3627C12.229 34.3714 12.229 34.3801 12.229 34.3887C12.229 41.2776 18.1054 46.4703 28.9413 46.4703C39.7772 46.4703 45.6536 41.2776 45.6536 34.3887C45.6536 34.3801 45.6536 34.3714 45.6536 34.3627C45.6399 39.9274 36.8909 44.2262 28.9413 44.2262Z" fill="#FEDC90"/>
<path d="M24.5241 32.6535C24.5241 34.5323 23.6452 35.5108 22.561 35.5108C21.4768 35.5108 20.5979 34.5323 20.5979 32.6535C20.5979 30.7747 21.4768 29.7962 22.561 29.7962C23.6452 29.7962 24.5241 30.7747 24.5241 32.6535Z" fill="#633001"/>
<path d="M37.2844 32.6535C37.2844 34.5323 36.4055 35.5108 35.3213 35.5108C34.2371 35.5108 33.3582 34.5323 33.3582 32.6535C33.3582 30.7747 34.2371 29.7962 35.3213 29.7962C36.4055 29.7962 37.2844 30.7747 37.2844 32.6535Z" fill="#633001"/>
<defs>
<linearGradient id="paint0_linear_9_3101" x1="29" y1="0" x2="29" y2="58" gradientUnits="userSpaceOnUse">
<stop stop-color="#53DEE9"/>
<stop offset="1" stop-color="#1FC7D4"/>
</linearGradient>
</defs>
</svg>
