<svg width="42" height="42" viewBox="0 0 42 42" fill="none" xmlns="http://www.w3.org/2000/svg">
<path d="M39.0127 0.768677H2.71163C1.3629 0.768677 0.269531 1.86204 0.269531 3.21078V39.5102C0.269531 40.8589 1.3629 41.9523 2.71163 41.9523H39.0127C40.3615 41.9523 41.4548 40.8589 41.4548 39.5102V3.21078C41.4548 1.86204 40.3615 0.768677 39.0127 0.768677Z" fill="black"/>
<path d="M31.7236 22.6317C31.7236 24.2835 31.3446 25.7998 30.5864 27.1808C29.8282 28.5346 28.664 29.6312 27.0934 30.4706C25.5229 31.31 23.5734 31.7297 21.2447 31.7297H16.9394V41.9649H9.99414V13.4525H21.2447C23.5192 13.4525 25.4418 13.8452 27.0122 14.6303C28.5827 15.4156 29.7606 16.4987 30.5458 17.8796C31.331 19.2606 31.7236 20.8447 31.7236 22.6317ZM20.7167 26.2059C22.0435 26.2059 23.0319 25.8945 23.6817 25.2718C24.3315 24.649 24.6565 23.769 24.6565 22.6317C24.6565 21.4945 24.3315 20.6144 23.6817 19.9917C23.0319 19.3689 22.0435 19.0575 20.7167 19.0575H16.9394V26.2059H20.7167Z" fill="#F8FBFC"/>
<path d="M31.7237 6.22922H9.99414V10.8179H31.7237V6.22922Z" fill="#E50913"/>
</svg>
