<svg width="354" height="130" viewBox="0 0 354 130" fill="none" xmlns="http://www.w3.org/2000/svg">
<rect width="354" height="130" fill="#25252B"/>
<path fill-rule="evenodd" clip-rule="evenodd" d="M80.5 64.5V68.8C80.5 73.5497 76.6947 77.4 72 77.4C67.3053 77.4 63.5 73.5497 63.5 68.8V51.6H80.5V64.5Z" fill="url(#paint0_linear_508_656)"/>
<path fill-rule="evenodd" clip-rule="evenodd" d="M89 60.2V68.8C89 78.2994 81.3885 86 72 86C63.3094 86 56.1417 79.4022 55.1235 70.8873L59.25 68.8V70.2333H59.2607C59.539 76.8338 65.1374 82.1013 72 82.1013C78.8635 82.1013 84.461 76.8338 84.7393 70.2333H84.75V64.5H55V43H89V53.75L84.75 55.9V47.3H59.25V60.2H89Z" fill="white"/>
<path fill-rule="evenodd" clip-rule="evenodd" d="M111.148 50.5187C110.653 50.7155 109.927 51.2025 109.535 51.6007C109.143 51.9992 108.636 52.8192 108.41 53.4232C108.166 54.0752 107.999 55.7377 108 57.5178C108.001 59.8876 108.124 60.7431 108.587 61.6067C108.909 62.2076 109.549 62.9173 110.01 63.1835C110.471 63.45 112.468 63.9253 114.448 64.2399C117.325 64.6972 118.152 64.9534 118.572 65.5161C118.968 66.047 119.097 66.8353 119.097 68.7226C119.097 70.8784 118.996 71.3575 118.371 72.1822L117.645 73.1397L112.956 73.1025L108.268 73.0657L108.358 74.2954C108.436 75.3529 108.575 75.5556 109.349 75.7422C109.843 75.8617 111.868 75.9767 113.848 75.9978C115.827 76.019 117.927 75.8845 118.514 75.6992C119.101 75.5136 119.926 74.9386 120.348 74.4213C120.77 73.9041 121.268 72.9589 121.456 72.3211C121.643 71.683 121.796 69.748 121.796 68.021C121.796 65.3144 121.702 64.7204 121.111 63.7213C120.733 63.0835 120.092 62.382 119.686 62.1622C119.279 61.9425 117.327 61.5149 115.348 61.2119C112.443 60.7676 111.647 60.5247 111.223 59.9528C110.842 59.4389 110.698 58.6428 110.698 57.049C110.698 55.1893 110.808 54.7287 111.415 54.0384C111.809 53.59 112.64 53.1147 113.263 52.9819C113.885 52.8492 115.857 52.8284 117.645 52.9355L120.897 53.1307V51.8341C120.897 50.6009 120.842 50.5272 119.772 50.3262C119.153 50.2099 117.162 50.1252 115.348 50.1378C113.533 50.1505 111.643 50.3221 111.148 50.5187ZM134.394 50.506C133.817 50.6917 132.973 51.2448 132.518 51.7355C132.063 52.2261 131.542 53.1737 131.361 53.8411C131.179 54.5086 130.962 57.8963 130.878 61.3692C130.784 65.2882 130.856 68.6537 131.068 70.241C131.256 71.6476 131.657 73.1824 131.959 73.6516C132.261 74.1207 132.966 74.8117 133.526 75.1871C134.414 75.7818 135.084 75.8695 138.744 75.8695C142.404 75.8695 143.074 75.7818 143.961 75.1871C144.522 74.8117 145.23 74.1207 145.535 73.6516C145.873 73.1315 146.223 71.6687 146.43 69.9056C146.637 68.1429 146.706 64.6774 146.606 61.0338C146.515 57.7454 146.296 54.5086 146.119 53.8411C145.942 53.1737 145.424 52.2282 144.969 51.7402C144.515 51.2523 143.603 50.6862 142.943 50.4821C142.283 50.2781 140.326 50.1239 138.594 50.1399C136.861 50.1556 134.972 50.3204 134.394 50.506ZM156.591 62.903V75.6989H162.29H167.989V74.334V72.9691H163.64H159.29V61.5381V50.1071H157.94H156.591V62.903ZM176.687 62.8836V75.6989H178.041H179.394L179.316 62.9883L179.237 50.2778L177.962 50.173L176.687 50.0679V62.8836ZM190.11 50.2917C189.986 50.4405 189.885 56.2301 189.885 63.1576V75.7532L195.359 75.6406C200.184 75.5416 200.954 75.4474 201.854 74.8458C202.415 74.4705 203.158 73.5492 203.503 72.7985C204.074 71.5619 204.142 70.7549 204.233 64.2058C204.299 59.487 204.209 56.2966 203.975 55.0146C203.736 53.704 203.346 52.7421 202.802 52.1231C202.353 51.6126 201.457 51.025 200.81 50.8172C200.163 50.6094 197.541 50.3453 194.984 50.2303C192.427 50.1153 190.234 50.143 190.11 50.2917ZM214.395 50.3187C214.277 50.4525 214.181 56.2178 214.181 63.1306V75.6989H215.684H217.188L217.109 62.9883L217.031 50.2778L215.82 50.1764C215.154 50.1208 214.513 50.1846 214.395 50.3187ZM227.679 62.8959V75.6989H229.029H230.378V70.2393V64.7797H234.596H238.813L238.72 63.5002L238.627 62.2206L234.503 62.1257L230.378 62.0308V57.6045V53.1782H235.045H239.711L239.619 51.728L239.527 50.2778L233.603 50.1853L227.679 50.0928V62.8959ZM248.59 50.3187C248.472 50.4525 248.375 56.2178 248.375 63.1306V75.6989H249.879H251.382L251.303 62.9883L251.225 50.2778L250.014 50.1764C249.348 50.1208 248.707 50.1846 248.59 50.3187ZM261.873 62.8962V75.6989H268.172H274.471V74.334V72.9691H269.522H264.573V68.7038V64.4385H268.772H272.971V62.903V61.3675H268.772H264.573V57.2728V53.1782H269.539H274.506L274.413 51.728L274.321 50.2778L268.097 50.1856L261.873 50.0931V62.8962ZM283.769 62.8494V75.6989L288.494 75.6969C291.092 75.6958 293.758 75.5279 294.418 75.3239C295.078 75.1198 295.991 74.5524 296.447 74.0624C296.903 73.5727 297.44 72.5508 297.639 71.7912C297.872 70.8996 298 67.8081 298 63.0736C298 58.3391 297.872 55.2477 297.639 54.3561C297.44 53.5965 296.903 52.581 296.447 52.0992C295.991 51.6177 295.153 51.0472 294.586 50.8312C294.019 50.6156 291.353 50.3402 288.662 50.2194L283.769 50V62.8494ZM141.893 53.1348C142.361 53.2785 142.869 53.876 143.243 54.7218C143.785 55.9468 143.843 56.7583 143.843 63.0736C143.843 69.389 143.785 70.2004 143.243 71.4254C142.869 72.2713 142.361 72.8688 141.893 73.0124C141.481 73.1387 140.063 73.2424 138.744 73.2424C137.424 73.2424 136.007 73.1387 135.594 73.0124C135.127 72.8688 134.618 72.2713 134.244 71.4254C133.703 70.2004 133.645 69.389 133.645 63.0736C133.645 56.7583 133.703 55.9468 134.244 54.7218C134.618 53.876 135.127 53.2785 135.594 53.1348C136.007 53.0086 137.424 52.9048 138.744 52.9048C140.063 52.9048 141.481 53.0086 141.893 53.1348ZM200.409 54.0797C200.763 54.482 201.166 55.48 201.305 56.2976C201.443 57.1155 201.557 60.1647 201.557 63.0736C201.557 65.9826 201.443 69.0317 201.305 69.8496C201.166 70.6672 200.763 71.6653 200.409 72.0676C199.839 72.7169 199.366 72.8121 196.176 72.9196L192.585 73.0411V63.0736V53.1062L196.176 53.2276C199.366 53.3351 199.839 53.4303 200.409 54.0797ZM293.368 53.476C293.84 53.6207 294.336 54.2093 294.705 55.0631C295.225 56.2655 295.291 57.1561 295.291 62.903C295.29 67.3574 295.166 69.7971 294.896 70.6989C294.606 71.6653 294.236 72.1379 293.495 72.4904C292.857 72.7934 291.382 72.9691 289.478 72.9691H286.469V63.0736V53.1782L289.544 53.2123C291.235 53.231 292.955 53.3498 293.368 53.476Z" fill="white"/>
<defs>
<linearGradient id="paint0_linear_508_656" x1="80.5" y1="51.6" x2="59.7787" y2="65.0921" gradientUnits="userSpaceOnUse">
<stop stop-color="#8FCF4A"/>
<stop offset="1" stop-color="#00AAFF"/>
</linearGradient>
</defs>
</svg>
