<svg width="60" height="60" viewBox="0 0 60 60" fill="none" xmlns="http://www.w3.org/2000/svg">
<path d="M29.9616 59.3797C46.2751 59.3797 59.4998 46.155 59.4998 29.8415C59.4998 13.5279 46.2751 0.303223 29.9616 0.303223C13.648 0.303223 0.42334 13.5279 0.42334 29.8415C0.42334 46.155 13.648 59.3797 29.9616 59.3797Z" fill="#2E3148"/>
<path d="M29.9608 46.9807C39.4267 46.9807 47.1002 39.3071 47.1002 29.8412C47.1002 20.3754 39.4267 12.7018 29.9608 12.7018C20.4949 12.7018 12.8213 20.3754 12.8213 29.8412C12.8213 39.3071 20.4949 46.9807 29.9608 46.9807Z" fill="#2E3148"/>
<path d="M30.02 4.06995C26.8315 4.06995 24.2461 15.6347 24.2461 29.9008C24.2461 44.1668 26.8315 55.7316 30.02 55.7316C33.2085 55.7316 35.7939 44.1668 35.7939 29.9008C35.7939 15.6347 33.2085 4.06995 30.02 4.06995ZM30.4187 54.2739C30.054 54.7602 29.6894 54.3953 29.6894 54.3953C28.221 52.6939 27.4868 49.5331 27.4868 49.5331C24.9184 41.2673 25.5297 23.5201 25.5297 23.5201C26.7368 9.43055 28.9325 6.10217 29.6797 5.36325C29.7561 5.28783 29.8565 5.24175 29.9634 5.2331C30.0704 5.22446 30.1769 5.2538 30.2643 5.31598C31.3485 6.08422 32.2578 9.29704 32.2578 9.29704C34.9429 19.2646 34.6998 28.6245 34.6998 28.6245C34.9429 36.7688 33.3543 45.8854 33.3543 45.8854C32.1314 52.814 30.4187 54.2739 30.4187 54.2739Z" fill="white"/>
<path d="M52.4303 17.0505C50.8428 14.2838 39.5259 17.7968 27.1456 24.8958C14.7652 31.9949 6.03234 39.9932 7.61866 42.7587C9.20494 45.5242 20.5231 42.0124 32.9034 34.9133C45.2837 27.8142 54.0166 19.8159 52.4303 17.0505ZM9.08327 42.3792C8.47551 42.3026 8.6128 41.8031 8.6128 41.8031C9.35837 39.6831 11.7309 37.4732 11.7309 37.4732C17.6251 31.1317 33.3242 22.8305 33.3242 22.8305C46.1448 16.8657 50.127 17.1173 51.1373 17.3955C51.2409 17.4244 51.331 17.4891 51.3916 17.5782C51.4521 17.6671 51.4792 17.7747 51.468 17.8818C51.3466 19.2051 49.0065 21.5918 49.0065 21.5918C41.7018 28.884 33.4616 33.3317 33.4616 33.3317C26.5182 37.597 17.8198 40.7538 17.8198 40.7538C11.201 43.1389 9.08327 42.3792 9.08327 42.3792Z" fill="white"/>
<path d="M52.3713 42.848C53.971 40.0887 45.26 32.0538 32.9233 24.9013C20.5864 17.7488 9.27089 14.1924 7.67252 16.9565C6.07415 19.7205 14.7837 27.7507 27.1276 34.9032C39.4715 42.0557 50.7729 45.6123 52.3713 42.848ZM8.73259 18.0227C8.49628 17.4624 8.99516 17.3275 8.99516 17.3275C11.2036 16.9103 14.3059 17.8608 14.3059 17.8608C22.7455 19.7826 37.7947 29.2094 37.7947 29.2094C49.3814 37.3173 51.1584 40.8886 51.4248 41.9023C51.4519 42.0063 51.4414 42.1165 51.3951 42.2135C51.3488 42.3105 51.2698 42.388 51.1719 42.4324C49.9637 42.9855 46.7277 42.1613 46.7277 42.1613C36.754 39.4871 28.7775 34.5872 28.7775 34.5872C21.6105 30.7217 14.5238 24.7739 14.5238 24.7739C9.13879 20.24 8.73424 18.0288 8.73424 18.0288L8.73259 18.0227Z" fill="white"/>
<path d="M29.9588 32.8798C31.6371 32.8798 32.9977 31.5192 32.9977 29.8408C32.9977 28.1625 31.6371 26.802 29.9588 26.802C28.2805 26.802 26.9199 28.1625 26.9199 29.8408C26.9199 31.5192 28.2805 32.8798 29.9588 32.8798Z" fill="white"/>
<path d="M42.4202 19.9937C43.3938 19.9937 44.1829 19.1774 44.1829 18.1704C44.1829 17.1634 43.3938 16.347 42.4202 16.347C41.4468 16.347 40.6577 17.1634 40.6577 18.1704C40.6577 19.1774 41.4468 19.9937 42.4202 19.9937Z" fill="white"/>
<path d="M13.371 26.3237C14.3445 26.3237 15.1336 25.5074 15.1336 24.5004C15.1336 23.4933 14.3445 22.677 13.371 22.677C12.3976 22.677 11.6084 23.4933 11.6084 24.5004C11.6084 25.5074 12.3976 26.3237 13.371 26.3237Z" fill="white"/>
<path d="M26.7953 48.6933C27.7689 48.6933 28.558 47.8769 28.558 46.8699C28.558 45.863 27.7689 45.0466 26.7953 45.0466C25.8219 45.0466 25.0327 45.863 25.0327 46.8699C25.0327 47.8769 25.8219 48.6933 26.7953 48.6933Z" fill="white"/>
<path d="M40.6282 54.2042C48.7526 54.2042 55.3388 47.618 55.3388 39.4935C55.3388 31.369 48.7526 24.7828 40.6282 24.7828C32.5037 24.7828 25.9175 31.369 25.9175 39.4935C25.9175 47.618 32.5037 54.2042 40.6282 54.2042Z" fill="white"/>
<path d="M45.5323 32.4369H35.7251V34.5896H45.5323V32.4369Z" fill="#E50913"/>
<path d="M40.6716 48.9421C39.7449 48.9421 38.9144 48.7896 38.1802 48.4846C37.4462 48.1797 36.8564 47.7284 36.4112 47.1306C35.9778 46.5329 35.7492 45.8131 35.7251 44.9715H39.0107C39.0589 45.4472 39.2214 45.8131 39.4981 46.0693C39.775 46.3133 40.136 46.4353 40.5813 46.4353C41.0386 46.4353 41.3997 46.3316 41.6645 46.1242C41.9293 45.9046 42.0616 45.6058 42.0616 45.2277C42.0616 44.9105 41.9533 44.6482 41.7367 44.4408C41.5321 44.2335 41.2734 44.0627 40.9604 43.9285C40.6595 43.7944 40.2263 43.6419 39.6606 43.4711C38.8422 43.2149 38.1742 42.9587 37.6567 42.7026C37.1392 42.4464 36.6939 42.0683 36.3209 41.5681C35.9478 41.068 35.7612 40.4154 35.7612 39.6103C35.7612 38.4149 36.1885 37.4817 37.043 36.8108C37.8975 36.1277 39.0107 35.7861 40.3827 35.7861C41.7788 35.7861 42.9041 36.1277 43.7586 36.8108C44.6131 37.4817 45.0704 38.421 45.1306 39.6286H41.7909C41.7668 39.2139 41.6163 38.8906 41.3396 38.6588C41.0627 38.4149 40.7077 38.2929 40.2745 38.2929C39.9013 38.2929 39.6005 38.3966 39.3717 38.604C39.1431 38.7991 39.0288 39.0858 39.0288 39.464C39.0288 39.8786 39.2213 40.2019 39.6065 40.4337C39.9916 40.6655 40.5933 40.9156 41.4117 41.1839C42.2301 41.4645 42.8921 41.7328 43.3975 41.989C43.9151 42.2452 44.3603 42.6172 44.7334 43.1052C45.1066 43.5931 45.293 44.2213 45.293 44.9898C45.293 45.7217 45.1066 46.3865 44.7334 46.9842C44.3724 47.5819 43.8428 48.0576 43.1448 48.4115C42.4468 48.7652 41.6223 48.9421 40.6716 48.9421Z" fill="black"/>
</svg>
