<svg width="46" height="47" viewBox="0 0 46 47" fill="none" xmlns="http://www.w3.org/2000/svg">
<g clip-path="url(#clip0_730_4018)">
<circle cx="23" cy="23.4609" r="23" fill="black"/>
<path d="M6.99998 33.4828L6.99233 32.9829C6.49713 32.9905 6.06496 33.0616 5.77789 33.2777C5.61461 33.4007 5.49429 33.5743 5.45749 33.7891C5.42299 33.9906 5.4714 34.1731 5.5332 34.3122C5.65206 34.5797 5.87825 34.8168 6.08693 34.997C6.30481 35.1852 6.555 35.3549 6.78351 35.4809C6.95616 35.5807 7.16504 35.7674 7.39467 36.0333C7.62116 36.2956 7.84698 36.6102 8.05614 36.9363C8.47465 37.5888 8.8002 38.2457 8.91654 38.5477C9.17098 39.2778 9.71975 40.3599 11.0094 41.1014C12.2117 41.7926 13.9874 42.1472 16.6208 41.74C16.6229 42.516 16.6286 43.2538 16.6344 43.8781C16.6366 44.1188 16.6388 44.342 16.6408 44.5439C16.6453 45 16.6487 45.347 16.6487 45.539V45.8031L16.8669 45.952C17.1017 46.1122 17.4273 46.2384 17.7819 46.342C18.1464 46.4484 18.5811 46.5419 19.0608 46.6212C20.0207 46.7799 21.189 46.886 22.3918 46.9178C23.5944 46.9495 24.8434 46.9072 25.9634 46.7645C27.0714 46.6234 28.1008 46.3785 28.8318 45.9773L29.0912 45.8349V45.539C29.0912 45.2746 29.0944 44.8169 29.0987 44.2054C29.1008 43.9013 29.1032 43.5593 29.1056 43.184C29.1128 42.056 29.12 40.6325 29.12 39.054C29.12 37.2994 28.6868 35.9749 28.0567 35.0644C30.3597 34.7153 32.7107 34.0111 34.5594 32.4212C36.6809 30.5968 38.0612 27.678 38.0612 23.0479C38.0612 20.4447 37.2015 18.3082 35.7728 16.6044C36.086 15.6565 36.6188 13.3021 35.4395 10.2794L35.3546 10.0618L35.1333 9.98726L34.9737 10.4611C35.1333 9.98726 35.1328 9.98709 35.1323 9.98692L35.1312 9.98657L35.129 9.98584L35.124 9.98422L35.1117 9.98044C35.1026 9.9777 35.0915 9.97454 35.0784 9.9711C35.0523 9.96422 35.0184 9.95622 34.9765 9.94819C34.8927 9.93212 34.7774 9.916 34.6298 9.90837C34.3343 9.89308 33.9121 9.91197 33.356 10.0312C32.2771 10.2624 30.6983 10.8701 28.5581 12.3333C26.7383 11.8322 24.8175 11.5824 22.8987 11.5824C20.9795 11.5824 19.0582 11.8323 17.238 12.3336C15.098 10.8843 13.5202 10.2773 12.4432 10.0426C11.8879 9.92161 11.4668 9.89978 11.1722 9.9123C11.0251 9.91855 10.9102 9.93334 10.8267 9.94832C10.785 9.95581 10.7512 9.96333 10.7253 9.96982C10.7123 9.97307 10.7012 9.97605 10.6922 9.97864L10.68 9.98222L10.675 9.98375L10.6728 9.98445L10.6717 9.98478C10.6712 9.98494 10.6708 9.9851 10.8237 10.4611L10.6708 9.9851L10.4443 10.0579L10.3579 10.2794C9.17862 13.3022 9.71149 15.6567 10.0247 16.6045C8.59546 18.3112 7.73623 20.4736 7.73623 23.0479C7.73623 27.6629 9.10908 30.5811 11.2226 32.4092C13.0657 34.0035 15.4118 34.7141 17.7154 35.0646C17.2894 35.682 16.95 36.4922 16.7811 37.4995C16.1449 37.7651 15.2029 38.0379 14.2128 37.9446C13.123 37.8418 11.9225 37.2925 10.9687 35.649L10.9688 35.6489L10.9632 35.6397C10.7309 35.2588 10.268 34.6008 9.61173 34.036C8.95691 33.4726 8.06566 32.9654 6.99184 32.9829L6.99998 33.4828ZM6.99998 33.4828C8.81123 33.4533 10.105 35.1925 10.5362 35.8999L9.38623 38.376C9.12748 37.6981 8.00623 35.6052 7.02873 35.0451C6.22373 34.6029 5.07373 33.5123 6.99998 33.4828Z" fill="white" stroke="black"/>
</g>
<defs>
<clipPath id="clip0_730_4018">
<rect width="46" height="46" fill="white" transform="translate(0 0.460938)"/>
</clipPath>
</defs>
</svg>
