<svg width="40" height="40" viewBox="0 0 40 40" fill="none" xmlns="http://www.w3.org/2000/svg">
<rect width="40" height="40" rx="20" fill="#262626"/>
<g clip-path="url(#clip0_18_8892)">
<path d="M20.5652 31.6037C20.2011 31.7442 19.7978 31.7442 19.4337 31.6037C16.5905 30.4889 14.1492 28.5432 12.4281 26.0204C10.707 23.4977 9.786 20.5148 9.78516 17.4609V12.8566C9.78516 12.4398 9.95072 12.0401 10.2454 11.7454C10.5401 11.4507 10.9398 11.2852 11.3566 11.2852H28.6423C29.0591 11.2852 29.4588 11.4507 29.7535 11.7454C30.0482 12.0401 30.2137 12.4398 30.2137 12.8566V17.4452C30.216 20.5018 29.2965 23.4881 27.5752 26.014C25.8539 28.5398 23.4108 30.4879 20.5652 31.6037Z" stroke="#C73238" stroke-linecap="round" stroke-linejoin="round"/>
<path d="M22.356 19.1426H17.6417C16.7739 19.1426 16.0703 19.8461 16.0703 20.714V23.8569C16.0703 24.7247 16.7739 25.4283 17.6417 25.4283H22.356C23.2239 25.4283 23.9275 24.7247 23.9275 23.8569V20.714C23.9275 19.8461 23.2239 19.1426 22.356 19.1426Z" stroke="#C73238" stroke-linecap="round" stroke-linejoin="round"/>
<path d="M22.3549 19.1424V17.571C22.3549 17.2615 22.2939 16.955 22.1755 16.669C22.057 16.383 21.8834 16.1231 21.6645 15.9043C21.4456 15.6854 21.1858 15.5118 20.8998 15.3933C20.6138 15.2748 20.3073 15.2139 19.9978 15.2139C19.6882 15.2139 19.3817 15.2748 19.0957 15.3933C18.8097 15.5118 18.5499 15.6854 18.331 15.9043C18.1121 16.1231 17.9385 16.383 17.8201 16.669C17.7016 16.955 17.6406 17.2615 17.6406 17.571V19.1424" stroke="#C73238" stroke-linecap="round" stroke-linejoin="round"/>
</g>
<defs>
<clipPath id="clip0_18_8892">
<rect width="22" height="22" fill="white" transform="translate(9 10.5)"/>
</clipPath>
</defs>
</svg>
