<svg width="484" height="362" viewBox="0 0 484 362" fill="none" xmlns="http://www.w3.org/2000/svg">
<g clip-path="url(#clip0_2992_5198)">
<g clip-path="url(#clip1_2992_5198)">
<path d="M365.442 335.356C360.254 328.538 375.747 320.902 379.824 319.395C384.849 317.344 389.508 317.165 394.741 317.397C398.728 317.503 402.192 317.591 405.604 315.45C398.578 308.632 400.804 311.35 393.646 304.861C387.376 298.902 380.193 293.854 373.341 288.953C361.904 280.768 348.57 273.658 339.897 262.16C337.375 258.785 332.08 254.117 331.733 249.694C331.131 242.238 336.801 240.754 341.788 244.37C346.923 248.108 352.844 252.592 357.644 256.692C362.861 261.135 367.945 265.892 373.507 269.932C378.651 273.614 383.525 276.637 389.399 278.945C385.869 269.292 379.307 269.642 372.439 262.891C367.826 258.321 363.743 252.849 359.487 247.86C355.284 242.715 351.202 237.256 347.065 231.941C344.736 228.999 340.668 223.54 341.154 219.516C342.583 206.144 360.862 226.746 363.178 229.689C369.866 237.828 376.675 245.668 384.788 252.531C390.409 257.319 394.485 260.597 400.637 264.497C391.09 254.304 386.155 248.12 377.901 236.979C374.496 232.14 371.042 226.936 367.136 222.448C365.002 219.954 360.306 214.253 360.177 210.522C359.989 205.069 367.319 207.113 370.08 209.848C375.842 215.239 381.254 221.967 386.593 227.934C394.677 237.185 404.411 246.894 414.929 253.248C416.706 254.324 419.372 255.929 419.393 252.623C419.289 250.562 416.199 247.695 415.056 245.955C412.183 242.066 409.57 238.466 407.212 234.239C404.853 229.998 387.491 209.389 396.637 205.292C402.574 202.328 425.011 233.962 431.452 242.524C438.68 252.133 482.536 285.455 497.511 313.262L467.593 353.482C462.375 349.039 457.918 344.522 451.483 341.802C443.36 338.217 434.237 339.022 425.621 338.556C418.552 338.339 411.698 335.261 404.502 334.439C398.918 333.706 393.161 333.443 387.54 332.33C380.149 331.061 373.481 335.397 366.134 335.426" fill="#E2E2E2"/>
<path d="M562.907 439.381C562.907 439.381 464.049 362.027 464.303 359.561C464.542 357.084 498.745 308.604 502.164 309.217C505.583 309.831 572.71 360.939 572.71 360.939" fill="#262626"/>
<path d="M563.526 438.553C536.56 417.452 509.628 396.293 483.128 374.625C477.794 370.262 472.423 365.93 467.324 361.297C466.738 360.764 466.165 360.23 465.628 359.652C465.002 358.986 465.246 359.812 465.662 359.004C467.323 355.785 469.569 352.796 471.597 349.816C477.774 340.713 484.241 331.775 490.95 323.06C493.238 320.081 500.1 308.993 503.367 311.006C516.857 319.294 529.347 329.571 541.991 339.037C552.062 346.574 562.096 354.155 572.106 361.766C573.157 362.569 574.383 360.927 573.331 360.125C560.759 350.555 548.136 341.031 535.454 331.596C527.352 325.555 519.238 319.528 510.978 313.695C509.123 312.38 503.756 307.102 501.106 308.484C495.352 311.497 490.702 319.944 486.933 324.904C480.418 333.49 474.155 342.272 468.156 351.233C466.97 352.994 461.9 358.396 463.856 360.743C466.927 364.407 471.18 367.394 474.822 370.441C503.445 394.329 532.932 417.229 562.287 440.196C563.327 441.013 564.552 439.372 563.513 438.554L563.526 438.553Z" fill="#1B1B1B"/>
<path d="M471.507 361.015C477.326 365.303 482.765 370.054 488.413 374.551C489.453 375.368 490.678 373.727 489.639 372.91C483.977 368.414 478.538 363.663 472.732 359.373C471.668 358.586 470.443 360.227 471.507 361.015Z" fill="#1B1B1B"/>
<path d="M366.304 336.466C374.525 335.982 381.449 332.306 389.85 333.807C398.697 335.388 407.367 335.985 416.168 338.077C424.774 340.134 433.459 339.482 442.19 340.429C452.418 341.547 459.567 347.941 466.991 354.35C467.994 355.212 469.219 353.571 468.217 352.709C461.704 347.075 455.751 341.84 447.349 339.338C438.877 336.816 429.712 338.324 421.06 337.053C416.33 336.361 411.702 334.74 407.017 333.797C402.276 332.846 397.31 332.684 392.51 332.109C388.431 331.627 385.016 330.917 380.899 331.441C375.819 332.085 371.15 334.13 365.983 334.44C364.66 334.514 364.994 336.538 366.29 336.467L366.304 336.466Z" fill="#1B1B1B"/>
<path d="M366.39 334.948C362.302 328.161 375.463 322.205 380.244 320.328C388.672 317.027 398.024 320.56 406.01 316.383C407.172 315.777 406.358 313.895 405.183 314.503C399.311 317.57 392.392 315.938 386.003 316.655C381.445 317.167 377.098 319.276 373.144 321.484C368.332 324.174 360.732 329.506 364.507 335.749C365.177 336.863 367.06 336.063 366.387 334.921L366.39 334.948Z" fill="#1B1B1B"/>
<path d="M380.05 333.142C380.937 325.336 368.184 329.853 364.806 331.772C363.675 332.417 364.476 334.3 365.633 333.653C367.673 332.494 378.554 328.187 378.012 332.915C377.866 334.232 379.89 334.461 380.051 333.156L380.05 333.142Z" fill="#1B1B1B"/>
<path d="M388.53 332.084C388.535 329.876 387.873 327.856 387.258 325.763C386.888 324.496 385.009 325.337 385.377 326.59C385.887 328.31 386.495 330.047 386.493 331.857C386.482 333.161 388.523 333.415 388.532 332.098L388.53 332.084Z" fill="#1B1B1B"/>
<path d="M392.833 332.05C392.706 331.446 392.579 330.841 392.453 330.25C392.177 328.96 390.15 329.267 390.426 330.557C390.553 331.161 390.68 331.766 390.806 332.357C391.083 333.647 393.11 333.34 392.833 332.05Z" fill="#1B1B1B"/>
<path d="M415.613 323.486C404.181 312.517 392.405 301.554 379.607 292.198C368.004 283.713 355.087 276.659 344.891 266.42C340.575 262.081 332.775 254.351 332.741 247.937C332.668 237.879 344.27 247.475 346.503 249.15C349.52 251.407 352.477 253.753 355.396 256.143C366.185 264.994 375.947 274.44 389.013 279.916C390.228 280.429 390.99 278.531 389.775 278.018C372.265 270.697 359.191 255.966 344.137 244.841C341.523 242.915 336.795 239.7 333.502 242.365C330.172 245.061 329.809 250.074 331.997 253.687C340.54 267.789 354.067 277.17 367.473 286.151C384.43 297.516 399.675 311.022 414.389 325.141C415.342 326.05 416.553 324.41 415.615 323.5L415.613 323.486Z" fill="#1B1B1B"/>
<path d="M409.423 327.09C409.657 323.433 408.868 319.972 407.565 316.575C407.326 315.954 406.393 316.373 406.63 316.981C407.864 320.221 408.635 323.492 408.41 326.969C408.365 327.632 409.391 327.751 409.423 327.09Z" fill="#1B1B1B"/>
<path d="M406.32 322.388C406.481 319.959 406.207 317.559 405.62 315.189C405.463 314.56 404.448 314.699 404.606 315.342C405.17 317.618 405.449 319.922 405.293 322.269C405.248 322.931 406.274 323.051 406.306 322.39L406.32 322.388Z" fill="#1B1B1B"/>
<path d="M385.735 332.096C385.619 330.901 385.366 329.719 385.116 328.55C384.984 327.904 383.971 328.058 384.102 328.703C384.353 329.872 384.605 331.054 384.721 332.249C384.785 332.901 385.798 332.748 385.735 332.096Z" fill="#1B1B1B"/>
<path d="M345.154 262.775C345.923 261.233 346.59 259.633 347.502 258.159C347.846 257.605 347.032 256.984 346.688 257.539C345.714 259.087 345.013 260.76 344.211 262.387C343.912 262.978 344.867 263.352 345.154 262.775Z" fill="#1B1B1B"/>
<path d="M344.247 260.352C344.539 259.981 344.774 259.574 345.067 259.203C345.482 258.683 344.655 258.064 344.253 258.583C343.96 258.954 343.725 259.361 343.432 259.732C343.017 260.252 343.845 260.871 344.247 260.352Z" fill="#1B1B1B"/>
<path d="M389.579 295.191C390.207 294.033 390.679 292.821 391.021 291.54C391.192 290.906 390.236 290.519 390.078 291.152C389.736 292.433 389.263 293.631 388.636 294.802C388.323 295.381 389.278 295.755 389.579 295.191Z" fill="#1B1B1B"/>
<path d="M331.386 250.647C333.176 252.694 334.903 254.803 336.93 256.608C337.29 256.929 337.793 256.743 338.079 256.441C339.945 254.477 341.342 252.49 341.041 249.667C340.74 246.858 338.168 244.804 336.341 242.939C335.61 242.187 334.324 243.204 335.055 243.955C336.227 245.144 337.444 246.246 338.439 247.589C340.587 250.507 338.891 253.222 336.775 255.444C337.154 255.393 337.547 255.341 337.925 255.277C336.002 253.558 334.367 251.55 332.683 249.602C331.989 248.806 330.703 249.822 331.397 250.619L331.386 250.647Z" fill="#1B1B1B"/>
<path d="M361.154 280.101C363.487 277.721 364.673 274.685 365.871 271.634C366.355 270.408 364.456 269.632 363.973 270.872C362.929 273.538 361.946 276.403 359.887 278.496C358.976 279.421 360.231 281.041 361.154 280.101Z" fill="#1B1B1B"/>
<path d="M360.242 274.965C360.523 274.746 360.69 274.496 360.823 274.168C361.349 272.951 359.438 272.191 358.925 273.406C358.939 273.405 358.95 273.377 358.963 273.375C357.948 274.215 359.201 275.82 360.23 274.98L360.242 274.965Z" fill="#1B1B1B"/>
<path d="M393.993 284.587C389.027 272.715 376.426 266.234 368.23 256.828C362.75 250.532 357.586 243.958 352.501 237.35C350.288 234.479 348.038 231.64 345.889 228.723C344.104 226.305 338.671 214.135 346.311 216.423C354.137 218.775 360.457 228.074 365.484 234.086C375.509 246.083 386.866 256.84 400.034 265.337C401.145 266.052 402.371 264.411 401.259 263.696C385.896 253.767 374.307 240.77 362.357 227.163C359.042 223.385 349.351 211.438 343.224 214.282C332.214 219.37 350.927 238.654 354 242.62C359.96 250.323 366.067 258.273 373.149 264.975C380.036 271.491 388.304 276.282 392.125 285.4C392.626 286.612 394.508 285.799 394.005 284.572L393.993 284.587Z" fill="#1B1B1B"/>
<path d="M405.438 268.035C398.779 260.893 392.31 253.596 386.156 246.008C379.785 238.167 374.45 229.553 367.927 221.836C365.571 219.035 363.374 216.19 361.789 212.862C362.695 211.32 363.588 209.78 364.494 208.238C365.988 208.518 367.361 209.098 368.598 209.978C370.822 211.408 372.545 213.763 374.364 215.684C381.578 223.32 388.099 231.572 395.527 239.009C401.512 244.995 408.11 250.525 415.448 254.775C417.163 255.774 421.394 255.994 420.397 252.511C419.713 250.123 418.331 248.462 416.731 246.533C413.5 242.637 410.673 238.236 408.137 233.875C405.899 230.034 403.05 226.54 400.63 222.812C399.647 221.303 390.427 204.181 398.299 206.309C403.144 207.621 407.444 213.771 410.561 217.335C417.903 225.727 424.16 234.937 431.032 243.703C437.326 251.743 446.188 258.273 453.671 265.142C465.565 276.053 477.232 287.315 487.305 299.952C490.756 304.279 493.89 308.87 496.569 313.724C497.202 314.869 499.084 314.056 498.45 312.897C484.809 288.238 461.462 269.678 441.051 250.847C433.987 244.334 428.728 237.07 422.926 229.434C416.604 221.108 409.734 210.669 400.613 205.138C395.017 201.747 392.008 208.169 393.506 213.001C396.606 223.025 404.385 232.238 410.137 240.907C412.368 244.255 414.88 247.385 417.343 250.573C416.747 251.207 416.136 251.842 415.54 252.476C414.214 251.673 412.911 250.826 411.633 249.949C409.653 248.619 407.795 247.141 405.937 245.662C397.201 238.737 389.846 230.223 382.559 221.84C380.088 218.995 364.328 198.066 359.346 208.889C356.379 215.321 370.187 227.869 373.22 232.127C382.574 245.273 392.829 257.522 403.836 269.329C404.724 270.284 406.344 269.03 405.44 268.062L405.438 268.035Z" fill="#1B1B1B"/>
<path d="M342.158 225.192C343.706 226.166 345.092 228.719 347.019 228.929C348.626 229.102 349.496 227.043 350.221 225.903C352.85 221.766 349.177 217.132 345.797 214.663C344.941 214.047 343.957 215.35 344.814 215.979C347.337 217.818 350.934 221.665 348.905 224.92C348.3 225.884 347.652 227.688 346.381 226.742C345.228 225.881 344.355 224.663 343.128 223.891C342.238 223.333 341.254 224.635 342.146 225.207L342.158 225.192Z" fill="#1B1B1B"/>
<path d="M360.891 215.472C361.854 216.49 362.949 217.316 364.048 218.182C364.864 218.816 365.525 219.698 366.554 219.982C368.328 220.454 369.569 217.851 370.178 216.64C372.65 211.738 367.769 209.058 364.918 205.976C364.199 205.209 362.912 206.212 363.632 206.992C365.501 209.005 368.62 210.621 369.213 213.484C369.366 214.21 367.946 219.065 366.575 218.225C365.073 217.301 363.358 215.74 362.152 214.472C361.433 213.706 360.146 214.722 360.865 215.489L360.891 215.472Z" fill="#1B1B1B"/>
<path d="M396.46 217.431C398.867 219.624 401.837 216.744 402.642 214.307C403.129 212.82 401.809 211.097 401.105 209.918C400.057 208.168 398.791 206.564 397.461 205.02C396.767 204.224 395.481 205.24 396.175 206.036C397.582 207.669 398.885 209.366 399.984 211.22C400.51 212.115 401.298 213.176 400.926 214.282C400.522 215.487 398.738 217.306 397.444 216.129C396.661 215.41 395.693 216.738 396.461 217.445L396.46 217.431Z" fill="#1B1B1B"/>
<path d="M364.681 281.966C365.916 280.571 366.643 278.882 367.099 277.083C367.427 275.803 365.391 275.59 365.06 276.842C364.692 278.277 364.014 279.618 363.038 280.727C362.161 281.718 363.816 282.942 364.679 281.953L364.681 281.966Z" fill="#1B1B1B"/>
<path d="M371.13 259.44C372.648 257.702 373.814 255.738 374.978 253.746C375.636 252.612 374.007 251.372 373.337 252.521C372.187 254.511 371.007 256.477 369.489 258.215C368.613 259.219 370.266 260.429 371.13 259.44Z" fill="#1B1B1B"/>
<path d="M373.351 262.543C374.28 261.657 374.786 260.511 375.26 259.327C375.744 258.1 373.847 257.339 373.362 258.565C373.044 259.378 372.725 260.327 372.085 260.938C371.144 261.839 372.398 263.458 373.351 262.543Z" fill="#1B1B1B"/>
<path d="M388.044 248.512C389.307 247.114 390.586 245.742 391.698 244.208C392.473 243.145 390.844 241.905 390.057 242.982C388.943 244.503 387.666 245.889 386.403 247.287C385.511 248.265 387.166 249.489 388.044 248.512Z" fill="#1B1B1B"/>
<path d="M390.588 250.131C391.261 249.434 391.79 248.67 392.17 247.783C392.682 246.567 390.784 245.806 390.272 247.021C389.972 247.75 389.509 248.343 388.96 248.904C388.573 249.298 388.755 250.035 389.168 250.337C389.656 250.701 390.216 250.537 390.601 250.129L390.588 250.131Z" fill="#1B1B1B"/>
<path d="M412.083 239.909C413.597 239.405 414.991 238.653 416.404 237.953C417.581 237.359 416.768 235.491 415.577 236.073C414.165 236.786 412.771 237.538 411.256 238.029C410.007 238.438 410.834 240.318 412.083 239.909Z" fill="#1B1B1B"/>
<path d="M412.338 235.908C413.396 235.641 414.418 235.295 415.419 234.869C416.63 234.353 415.816 232.471 414.591 232.988C413.762 233.343 412.9 233.646 412.018 233.883C410.761 234.211 411.054 236.239 412.325 235.91L412.338 235.908Z" fill="#1B1B1B"/>
<path d="M353.017 236.739C354.465 235.981 355.494 234.716 356.525 233.478C356.956 232.969 356.129 232.364 355.711 232.857C354.802 233.947 353.901 235.118 352.609 235.792C352.035 236.094 352.429 237.043 353.015 236.726L353.017 236.739Z" fill="#1B1B1B"/>
<path d="M352.339 234.143C353.327 233.581 354.058 232.783 354.813 231.942C355.258 231.446 354.432 230.841 353.998 231.321C353.366 232.014 352.751 232.732 351.932 233.195C351.359 233.511 351.767 234.459 352.338 234.129L352.339 234.143Z" fill="#1B1B1B"/>
<path d="M372.956 228.712C373.834 227.447 374.787 226.244 375.753 225.039C376.169 224.519 375.342 223.914 374.939 224.419C373.986 225.623 373.02 226.827 372.142 228.092C371.769 228.635 372.583 229.242 372.956 228.712Z" fill="#1B1B1B"/>
<path d="M373.135 225.484C373.369 225.215 373.602 224.932 373.823 224.663C374.253 224.156 373.427 223.551 373.009 224.043C372.775 224.313 372.542 224.596 372.321 224.864C371.891 225.372 372.717 225.977 373.135 225.484Z" fill="#1B1B1B"/>
<path d="M401.586 223.899C402.418 223.284 403.187 222.592 403.97 221.899C404.463 221.467 403.821 220.652 403.33 221.097C402.561 221.789 401.776 222.468 400.946 223.098C400.422 223.491 401.063 224.293 401.586 223.899Z" fill="#1B1B1B"/>
<path d="M402.057 221.26C402.489 221.053 402.89 220.809 403.289 220.537C403.827 220.156 403.189 219.368 402.649 219.736C402.328 219.959 402.004 220.155 401.651 220.326C401.047 220.604 401.467 221.536 402.057 221.26Z" fill="#1B1B1B"/>
<path d="M396.729 279.166C398.159 281.317 400.189 282.875 402.265 284.346C402.809 284.719 403.415 283.905 402.885 283.532C400.868 282.11 398.913 280.613 397.532 278.54C397.163 277.986 396.361 278.626 396.73 279.18L396.729 279.166Z" fill="#1B1B1B"/>
<path d="M410.328 269.534C411.025 271.07 412.206 272.217 413.501 273.257C414.021 273.672 414.626 272.846 414.121 272.442C412.961 271.513 411.889 270.506 411.262 269.128C410.984 268.524 410.049 268.93 410.328 269.534Z" fill="#1B1B1B"/>
<path d="M425.695 257.22C426.486 258.021 427.338 258.747 428.265 259.398C428.809 259.77 429.429 258.955 428.885 258.583C428.033 257.994 427.228 257.332 426.498 256.594C426.042 256.131 425.225 256.759 425.696 257.234L425.695 257.22Z" fill="#1B1B1B"/>
<path d="M-22.3079 299.296C-22.3079 299.296 36.8027 299.127 45.7532 297.129C54.7037 295.131 66.9233 286.884 79.0598 287.442C91.1963 288 109.476 289.03 111.093 286.64C112.709 284.25 105.369 267.36 81.508 270.711C57.659 274.071 48.0851 273.306 48.0851 273.306L48.4764 273.05C52.0271 270.733 55.8822 268.423 59.4816 266.653C70.4492 261.286 86.1764 254.649 98.1398 252.305C110.103 249.961 129.064 245.35 134.396 240.692C139.727 236.034 137.453 228.629 132.953 228.67C128.452 228.711 106.988 231.931 101.71 233.309C96.433 234.686 67.1678 240.834 63.1462 241.432C63.1462 241.432 70.9889 235.216 79.6029 233.204C88.2051 231.184 104.154 225.351 114.107 223.771C124.06 222.191 133.244 221.936 135.52 218.979C137.796 216.023 139.701 209.816 132.39 208.438C128.11 207.62 115.261 207.626 103.618 208.512L104.306 207.931C104.306 207.931 113.501 205.458 120.995 203.506C131.157 200.86 126.972 192.25 120.833 192.384C115.154 192.513 94.0973 194.304 85.8255 195.367L91.4357 194.693C99.7212 189.719 97.4591 183.253 95.482 181.744C93.5137 180.223 76.3698 185.823 63.8376 189.64C51.3054 193.458 46.0554 199.673 40.2455 203.773C34.4356 207.874 25.6713 212.291 21.046 214.41C16.409 216.52 4.45644 219.511 -6.39937 224.139C-17.2552 228.768 -29.5103 241.422 -34.8797 244.172C-40.2492 246.923 -65.0253 250.449 -65.0253 250.449" fill="#E2E2E2"/>
<path d="M-22.3781 300.395C-7.23546 300.346 7.91846 300.16 23.0657 299.714C30.3219 299.5 37.7248 299.433 44.9257 298.412C49.4416 297.762 53.8092 295.598 57.9559 293.852C66.3807 290.331 73.8329 288.312 83.0019 288.739C89.856 289.065 96.7276 289.368 103.592 289.191C106.164 289.118 109.778 289.311 111.82 287.476C115.03 284.613 108.294 277.149 106.46 275.619C90.4431 262.245 66.8713 273.583 48.1659 272.218C46.7493 272.112 46.61 274.307 48.0149 274.405C52.411 274.724 56.9043 274.35 61.2926 274.043C75.019 273.104 90.5982 267.743 103.069 275.738C106.148 277.703 108.841 280.896 109.967 284.38C111.179 288.093 100.34 287.042 98.0808 287.037C86.6862 286.977 75.5516 284.976 64.5619 288.903C56.6031 291.75 49.1489 295.902 40.6333 296.655C32.2932 297.393 23.8604 297.496 15.4952 297.704C2.91955 298.005 -9.6683 298.151 -22.2506 298.191C-23.661 298.198 -23.812 300.385 -22.4016 300.377L-22.3781 300.395Z" fill="#1B1B1B"/>
<path d="M-59.3377 251.094C-50.7773 249.717 -39.4495 249.034 -32.2005 243.835C-26.0667 239.446 -20.5088 234.337 -14.3398 229.975C-5.49076 223.705 5.30101 220.999 15.4527 217.633C22.5236 215.293 29.0614 211.881 35.5016 208.159C42.4792 204.107 48.1961 198.368 55.2178 194.404C63.4956 189.734 73.7831 187.655 82.8868 185.06C86.1084 184.14 89.3421 183.301 92.6381 182.746C94.7905 182.379 95.3855 182.658 96.0978 184.886C97.3483 188.864 93.5454 191.961 90.7308 193.878C89.5716 194.674 91.0254 196.323 92.1758 195.538C95.9306 192.971 100.313 188.264 97.857 183.259C95.7864 179.035 91.8498 180.572 87.9346 181.468C78.0427 183.75 67.9163 186.787 58.4561 190.449C49.4313 193.943 42.6982 201.242 34.5443 206.187C16.7674 216.971 -4.2435 219.361 -20.9168 232.117C-27.9778 237.53 -33.5046 243.21 -42.2904 245.476C-48.0239 246.952 -53.9021 248.01 -59.7455 248.947C-61.1552 249.174 -60.7269 251.318 -59.326 251.102L-59.3377 251.094Z" fill="#1B1B1B"/>
<path d="M35.9716 283.348C53.645 269.494 74.4605 259.113 96.3254 253.837C106.223 251.45 116.119 249.628 125.77 246.273C131.014 244.45 139.912 240.662 138.531 233.43C137.486 227.926 133.892 227.437 129.039 227.927C120.403 228.791 111.726 230.153 103.228 231.887C89.797 234.633 76.4917 238.24 62.9447 240.408C63.2569 241.042 63.5691 241.676 63.8813 242.31C70.6999 237.027 78.3654 234.892 86.4866 232.514C96.6045 229.561 106.548 226.059 117.007 224.51C123.801 223.496 134.23 224.46 137.803 217.288C140.115 212.643 137.441 208.224 132.47 207.404C118.78 205.159 102.726 206.7 89.1831 209.254C82.65 210.481 76.4279 213.763 70.2583 216.118C64.6441 218.266 59.0004 220.356 53.3507 222.405C52.0209 222.892 52.9987 224.861 54.308 224.377C64.4733 220.675 74.6708 216.979 84.6472 212.771C96.0818 207.953 111.52 208.855 123.658 208.994C126.034 209.013 128.414 209.125 130.779 209.355C135.848 209.848 137.241 217.088 133.158 219.41C131.294 220.467 128.515 220.695 126.421 221.032C117.559 222.495 109.016 223.555 100.345 226.035C87.5311 229.716 73.1691 232.317 62.4246 240.641C61.5226 241.337 62.3288 242.704 63.3612 242.543C75.5599 240.593 87.7294 237.727 99.7645 234.944C105.469 233.629 111.187 232.616 116.975 231.728C120.698 231.164 124.43 230.66 128.159 230.209C134.284 229.481 140.3 232.941 133.674 239.9C127.943 245.903 115.061 247.398 107.392 249.22C98.1874 251.411 89.1662 253.284 80.2401 256.522C63.6711 262.551 48.4027 270.825 34.5178 281.699C33.4116 282.572 34.8449 284.223 35.9628 283.36L35.9716 283.348Z" fill="#1B1B1B"/>
<path d="M104.518 209.019C110.131 207.509 115.962 206.343 121.475 204.502C124.366 203.536 128.576 201.583 128.218 197.777C127.359 188.817 115.66 191.541 109.704 191.993C97.1506 192.949 82.086 192.672 70.3887 197.696C65.2515 199.89 60.4913 203.732 55.4607 206.297C50.4301 208.862 45.3201 211.313 40.151 213.574C38.8536 214.14 39.8109 216.112 41.1083 215.546C47.87 212.592 54.5136 209.332 61.0454 205.878C64.6063 203.988 67.832 201.593 71.3577 199.677C76.3439 196.951 83.0765 196.804 88.6166 196.151C98.2692 195.023 107.979 194.211 117.68 193.629C119.815 193.505 121.755 193.253 123.809 194.292C126.976 196.432 126.551 198.962 122.502 201.874C120.412 202.525 118.313 203.114 116.196 203.653C112.159 204.714 108.144 205.792 104.11 206.873C102.741 207.24 103.161 209.395 104.529 209.028L104.518 209.019Z" fill="#1B1B1B"/>
<path d="M92.6759 288.39C94.1323 285.407 94.5443 282.503 98.2871 281.642C101.454 280.918 104.922 281.185 108.164 281.046C109.556 280.989 109.728 278.799 108.315 278.86C104.584 279.018 99.983 278.509 96.4144 279.846C92.8781 281.189 92.3839 284.031 90.8578 287.182C90.2473 288.442 92.0684 289.671 92.6876 288.399L92.6759 288.39Z" fill="#1B1B1B"/>
<path d="M81.219 287.336C81.407 284.83 81.9376 282.379 82.4564 279.92C82.7475 278.549 80.6677 277.839 80.3678 279.221C79.8115 281.854 79.2142 284.492 79.0122 287.188C78.9055 288.604 81.1006 288.744 81.1985 287.339L81.219 287.336Z" fill="#1B1B1B"/>
<path d="M76.8022 287.021C76.7509 286.526 76.7785 286 76.9057 285.511C77.229 284.146 75.1492 283.436 74.8171 284.812C74.6004 285.691 74.5563 286.533 74.6353 287.431C74.7891 288.841 76.9325 288.413 76.7905 287.012L76.8022 287.021Z" fill="#1B1B1B"/>
<path d="M99.4386 247.599C99.3701 244.483 99.0559 241.402 98.5954 238.323C98.389 236.91 96.2368 237.35 96.4402 238.742C96.862 241.629 97.1815 244.53 97.2435 247.459C97.2715 248.867 99.4578 249.018 99.4299 247.61L99.4386 247.599Z" fill="#1B1B1B"/>
<path d="M95.3967 243.549C95.0338 241.71 95.2384 239.819 95.1242 237.964C95.0784 237.364 94.3749 236.986 93.8368 237.096C93.1964 237.221 92.9231 237.784 92.969 238.383C93.0862 240.259 92.8785 242.129 93.2414 243.969C93.518 245.361 95.6733 244.941 95.3967 243.549Z" fill="#1B1B1B"/>
<path d="M124.197 230.212C123.371 237.223 131.357 239.433 136.865 237.698C138.204 237.272 137.805 235.114 136.445 235.543C132.376 236.817 125.716 235.96 126.371 230.355C126.543 228.95 124.347 228.81 124.185 230.204L124.197 230.212Z" fill="#1B1B1B"/>
<path d="M123.477 208.257C123.769 215.262 129.784 217.645 136.061 217.031C137.474 216.897 137.043 214.733 135.642 214.875C130.961 215.329 125.88 213.897 125.663 208.408C125.606 207.016 123.417 206.844 123.477 208.257Z" fill="#1B1B1B"/>
<path d="M91.5921 221.667C91.7455 218.424 90.7092 215.554 89.0617 212.794C88.3409 211.582 86.3571 212.53 87.0897 213.751C88.5312 216.175 89.5429 218.662 89.397 221.527C89.3313 222.938 91.5089 223.101 91.5833 221.678L91.5921 221.667Z" fill="#1B1B1B"/>
<path d="M87.6821 219.448C87.4205 218.159 87.1004 216.898 86.7686 215.63C86.4131 214.27 84.2549 214.669 84.6133 216.049C84.9451 217.318 85.2565 218.59 85.5268 219.868C85.8034 221.26 87.9587 220.84 87.6821 219.448Z" fill="#1B1B1B"/>
<path d="M72.0328 199.358C74.1019 201.283 75.4528 203.731 76.9761 206.07C77.7436 207.244 79.7273 206.295 78.9481 205.112C77.3191 202.622 75.8855 199.966 73.6726 197.916C72.6455 196.969 70.9821 198.393 72.0123 199.361L72.0328 199.358Z" fill="#1B1B1B"/>
<path d="M70.2881 202.092C71.2389 202.946 71.9415 203.962 72.4983 205.125C73.1139 206.405 75.086 205.447 74.4704 204.168C73.84 202.859 73.0226 201.63 71.9397 200.659C71.4936 200.253 70.8787 200.124 70.3885 200.561C69.98 200.914 69.845 201.707 70.2911 202.112L70.2881 202.092Z" fill="#1B1B1B"/>
<path d="M53.6658 195.016L57.5191 199.419C58.4853 200.522 59.5883 199.556 58.622 198.453L54.7688 194.049C53.8026 192.946 52.6996 193.913 53.6658 195.016Z" fill="#1B1B1B"/>
<path d="M53.004 198.993L54.449 200.654C55.3888 201.719 57.0286 200.277 56.1093 199.209L54.6644 197.548C53.7246 196.483 52.0847 197.925 53.004 198.993Z" fill="#1B1B1B"/>
<path d="M85.5634 184.773C87.1918 186.114 88.0047 188.671 90.3525 188.997C92.709 189.312 94.8076 187.646 96.6177 186.367C97.7738 185.55 96.3114 183.913 95.1727 184.707C93.9202 185.58 92.114 187.172 90.4565 186.776C89.6541 186.58 88.9568 185.385 88.4808 184.775C87.9519 184.089 87.4232 183.476 86.7572 182.925C85.6541 182.031 84.4691 183.866 85.54 184.755L85.5634 184.773Z" fill="#1B1B1B"/>
<path d="M112.935 193.435C112.072 200.764 120.848 201.008 126.02 200.556C127.424 200.434 127.005 198.279 125.601 198.401C121.894 198.723 114.472 199.086 115.13 193.574C115.301 192.169 113.106 192.029 112.944 193.423L112.935 193.435Z" fill="#1B1B1B"/>
<path d="M50.3672 245.705C47.1667 245.911 44.7914 247.973 42.8972 250.393C42.0141 251.505 43.8527 252.71 44.727 251.61C46.2978 249.624 48.1567 248.035 50.778 247.872C52.1881 247.791 51.7569 245.627 50.3585 245.717L50.3672 245.705Z" fill="#1B1B1B"/>
<path d="M37.025 232.391C39.2013 230.327 41.5883 229.204 44.5482 228.782C45.9609 228.576 45.521 226.423 44.1288 226.627C40.8121 227.112 38.016 228.44 35.5713 230.742C34.5414 231.708 35.9864 233.369 37.0162 232.403L37.025 232.391Z" fill="#1B1B1B"/>
<path d="M31.4544 221.181C31.9628 220.939 32.427 220.61 32.9353 220.368C34.2268 219.761 33.2577 217.781 31.978 218.396C31.4697 218.638 31.0055 218.967 30.4971 219.209C29.2057 219.815 30.1747 221.796 31.4544 221.181Z" fill="#1B1B1B"/>
<path d="M118.998 239.712C118.891 237.48 119.1 235.264 118.654 233.071C118.512 232.381 117.433 232.58 117.575 233.271C118.009 235.382 117.797 237.504 117.909 239.631C117.937 240.327 119.038 240.417 119.006 239.701L118.998 239.712Z" fill="#1B1B1B"/>
<path d="M116.995 236.597C116.995 236.597 117.012 236.427 117.009 236.333C117.062 235.625 115.965 235.555 115.911 236.263C115.903 236.348 115.894 236.433 115.897 236.527C115.844 237.235 116.942 237.305 116.995 236.597Z" fill="#1B1B1B"/>
<path d="M118.929 215.342C118.757 212.805 117.801 210.415 116.638 208.18C116.306 207.549 115.321 208.038 115.642 208.66C116.772 210.816 117.69 213.086 117.85 215.541C117.89 216.246 118.978 216.035 118.929 215.342Z" fill="#1B1B1B"/>
<path d="M115.872 212.66C115.692 211.432 115.264 210.292 114.945 209.105C114.761 208.421 113.682 208.621 113.865 209.305C114.185 210.492 114.604 211.643 114.793 212.86C114.894 213.556 115.974 213.357 115.872 212.66Z" fill="#1B1B1B"/>
<path d="M113.093 211.322C113.07 211.231 113.025 211.143 112.99 211.044C112.917 210.333 111.841 210.553 111.911 211.243C111.947 211.562 112.053 211.787 112.256 212.03C112.702 212.581 113.528 211.864 113.081 211.313L113.093 211.322Z" fill="#1B1B1B"/>
<path d="M106.002 199.434C105.8 197.55 104.791 196.014 103.733 194.496C103.324 193.918 102.51 194.643 102.907 195.213C103.86 196.579 104.748 197.934 104.923 199.634C104.995 200.344 106.071 200.124 106.002 199.434Z" fill="#1B1B1B"/>
<path d="M103.462 198.363C102.931 197.73 102.536 197.034 102.139 196.319C101.789 195.711 100.801 196.18 101.143 196.799C101.593 197.591 102.043 198.382 102.628 199.091C103.083 199.631 103.909 198.915 103.454 198.375L103.462 198.363Z" fill="#1B1B1B"/>
<path d="M107.671 198.763C107.385 198.167 107.249 197.518 107.013 196.904C106.759 196.241 105.774 196.73 106.016 197.384C106.252 197.998 106.389 198.647 106.675 199.243C106.978 199.889 107.963 199.4 107.671 198.763Z" fill="#1B1B1B"/>
<path d="M75.7152 190.791C74.9273 189.62 74.008 188.552 73.22 187.381C72.8319 186.8 72.0061 187.517 72.3942 188.098C73.1822 189.269 74.1015 190.337 74.8894 191.508C75.2775 192.089 76.1033 191.372 75.7152 190.791Z" fill="#1B1B1B"/>
<path d="M78.5706 190.729C78.5706 190.729 76.9112 188.817 76.4573 187.786C76.1743 187.137 75.2661 187.72 75.5491 188.368C76.0472 189.487 76.7699 190.354 77.7361 191.457L78.5619 190.74L78.5706 190.729Z" fill="#1B1B1B"/>
<path d="M79.0591 189.34C78.7948 189.034 78.5949 188.739 78.4386 188.385C78.1352 187.739 77.1594 188.217 77.4423 188.865C77.6545 189.315 77.8986 189.698 78.2246 190.068C78.6886 190.597 79.5144 189.88 79.0504 189.352L79.0591 189.34Z" fill="#1B1B1B"/>
<path d="M29.5632 -34.3288C29.5632 -34.3288 68.8806 2.08779 70.743 9.26631C72.6053 16.4448 71.9327 24.4725 71.2031 32.0608C70.4735 39.6492 69.2482 55.194 80.6688 76.3333C92.0895 97.4725 99.6856 111.11 101.671 115.106C103.65 119.086 119.098 140.659 121.851 140.904C124.603 141.149 131.816 136.224 131.526 131.461C131.235 126.698 111.11 91.1684 114.361 83.1645C114.361 83.1645 129.104 76.3566 134.448 77.3389C139.792 78.3212 138.012 79.3457 138.012 79.3457C138.012 79.3457 134.596 91.3203 144.944 99.1586L140.173 101.558C140.173 101.558 136.967 97.5921 134.009 93.9026C131.051 90.2131 124.83 85.9024 117.813 92.9736C117.813 92.9736 121.156 98.5118 125.558 106.003C129.961 113.495 132.638 118.017 137.762 118.197C142.886 118.378 165.117 116.432 165.117 116.432L165.12 123.16C165.12 123.16 151.994 131.561 152.951 137.34C153.898 143.14 168.727 141.692 173.42 136.549C178.114 131.406 189.917 113.213 188.803 105.938C187.69 98.6634 177.815 79.9159 177.815 79.9159C177.815 79.9159 180.153 59.6078 178.504 48.9186C178.504 48.9186 182.381 41.108 182.031 38.8345C181.681 36.5611 183.208 33.3779 154.568 11.7898C125.938 -9.81895 97.1745 -31.4599 97.1745 -31.4599L33.6541 -49.2634L29.5632 -34.3288Z" fill="#E2E2E2"/>
<path d="M28.6978 -33.5011C41.6809 -22.2203 54.6005 -10.2463 65.264 3.26959C67.7132 6.37618 70.9876 10.4691 71.3889 14.5713C72.1166 22.2066 70.1111 30.4113 69.411 37.9877C67.9016 54.486 73.4853 66.485 81.7045 80.4369C90.1605 94.8071 95.298 110.462 105.687 123.677C109.937 129.09 114.312 134.555 118.783 139.793C120.886 142.251 124.358 143.473 127.078 141.214C136.783 133.163 131.355 122.403 126.309 113.441C118.234 99.1228 111.731 83.4356 112.602 66.7146C112.684 65.1747 110.295 65.1947 110.222 66.714C109.562 79.4111 113.081 91.3852 118.227 102.893C120.436 107.826 123.066 112.572 125.742 117.265C127.377 120.134 128.825 122.668 129.844 125.922C131.715 131.847 126.423 145.073 119.222 136.671C108.871 124.57 99.0449 112.156 93.2394 97.1808C87.6177 82.6628 76.4799 70.7762 72.4171 55.5793C68.866 42.3339 73.9287 27.9841 73.7694 14.572C73.6883 8.5429 67.734 2.42937 64.1554 -1.86643C54.0968 -13.9648 42.2798 -24.8587 30.408 -35.1655C29.2495 -36.1718 27.5393 -34.5073 28.6978 -33.5011Z" fill="#1B1B1B"/>
<path d="M119.786 71.0326C127.294 74.2431 134.526 78.1297 141.42 82.4949C151.963 89.1587 159.801 99.0172 167.736 108.477C168.816 109.755 168.43 107.222 167.634 108.775C166.447 111.102 165.632 113.588 164.874 116.085C164.514 117.275 164.223 123.402 163.381 123.861C161.189 125.051 159.118 126.416 157.104 127.877C153.841 130.236 147.665 138.715 154.682 141.13C162.171 143.698 172.647 140.456 177.494 134.207C183.168 126.906 191.615 112.752 189.932 102.83C188.358 93.6006 182.109 84.9687 177.484 77.0529C171.888 67.4904 166.1 58.005 160.053 48.7266C159.21 47.4394 157.148 48.612 157.976 49.9051C164.029 59.1982 169.781 68.6808 175.407 78.2315C181.071 87.8352 190.031 99.3312 186.62 110.978C184.568 118.003 180.661 125.484 176.571 131.531C174.29 134.881 171.1 137.038 167.306 138.291C164.465 139.23 154.503 141.664 154.001 136.079C153.463 130.148 162.45 128.397 165.608 125.31C167.357 123.613 166.559 119.208 167.153 116.726C167.79 114.055 168.89 111.386 170.203 108.991C170.479 108.486 170.378 107.979 170.035 107.552C163.182 99.2487 156.228 90.5239 147.653 83.9413C139.649 77.7969 130.261 72.9799 120.996 69.0211C119.606 68.4165 118.377 70.4693 119.783 71.068L119.786 71.0326Z" fill="#1B1B1B"/>
<path d="M179.889 81.4945C179.991 74.2615 180.128 67.0314 180.372 59.8099C180.735 49.0986 177.384 42.5193 170.087 34.515C169.046 33.3757 167.356 35.0489 168.376 36.1794C172.572 40.7747 176.397 45.5538 178.018 51.665C178.907 55.0228 177.973 59.6795 177.866 63.1132C177.676 69.2344 177.577 75.37 177.487 81.485C177.47 83.016 179.851 83.0166 179.868 81.4857L179.889 81.4945Z" fill="#1B1B1B"/>
<path d="M179.509 49.5418C183.11 42.6639 184.748 35.2063 178.686 29.6329C170.369 21.9877 161.077 15.2828 152.124 8.44139C133.835 -5.51489 115.624 -19.9138 96.8137 -33.1639C95.5522 -34.0431 94.3591 -31.9875 95.5999 -31.1171C111.202 -20.1371 126.251 -8.1471 141.476 3.34404C151.336 10.7793 161.187 18.2352 170.761 26.0251C173.415 28.1932 176.074 30.3761 178.525 32.7629C182.598 36.7567 179.744 44.0017 177.462 48.3281C176.76 49.6894 178.792 50.9091 179.509 49.5418Z" fill="#1B1B1B"/>
<path d="M157.072 141.452C158.568 140.49 160.07 139.543 161.65 138.702C163.02 137.979 166.154 136.238 167.503 137.715C168.544 138.855 170.248 137.176 169.213 136.051C165.78 132.33 158.968 137.401 155.899 139.39C154.606 140.219 155.785 142.296 157.078 141.467L157.072 141.452Z" fill="#1B1B1B"/>
<path d="M188.239 104.025C186.155 105.994 183.306 106.405 180.536 106.287C179.002 106.219 179.001 108.6 180.535 108.667C183.937 108.822 187.366 108.109 189.897 105.721C191.016 104.671 189.351 102.961 188.233 104.01L188.239 104.025Z" fill="#1B1B1B"/>
<path d="M186.783 101.94C185.733 102.226 184.69 102.526 183.602 102.587C182.083 102.685 182.067 105.071 183.601 104.968C184.899 104.873 186.134 104.582 187.396 104.228C188.875 103.82 188.272 101.512 186.777 101.925L186.783 101.94Z" fill="#1B1B1B"/>
<path d="M101.659 116.31C105.897 116.077 109.896 113.251 112.541 110.08C113.527 108.913 111.862 107.202 110.877 108.37C108.659 111.026 105.26 113.73 101.653 113.915C100.129 113.998 100.113 116.384 101.653 116.295L101.659 116.31Z" fill="#1B1B1B"/>
<path d="M107.171 118.304C109.508 117.431 111.431 115.955 113.419 114.47C114.626 113.556 113.462 111.473 112.24 112.393C110.449 113.73 108.677 115.197 106.567 115.995C105.14 116.535 105.744 118.844 107.185 118.298L107.171 118.304Z" fill="#1B1B1B"/>
<path d="M113.997 131.052C116.055 128.888 118.835 126.861 121.878 126.509C125.166 126.128 127.869 131.821 129.101 134.201C129.809 135.577 131.88 134.384 131.178 133.023C129.472 129.72 126.913 124.979 122.908 124.177C119.113 123.427 114.755 126.808 112.333 129.342C111.273 130.453 112.938 132.163 113.997 131.052Z" fill="#1B1B1B"/>
<path d="M114.014 85.1537C119.288 79.7942 127.218 78.5202 134.436 78.5426C135.975 78.5393 135.961 76.1648 134.436 76.1622C126.599 76.1323 118.051 77.6554 112.35 83.4436C111.27 84.5462 112.943 86.2356 114.014 85.1537Z" fill="#1B1B1B"/>
<path d="M115.293 81.695C116.402 79.1764 117.674 76.7637 119.558 74.7213C120.591 73.5863 118.932 71.8909 117.893 73.0112C115.869 75.2132 114.458 77.7501 113.261 80.4753C112.656 81.866 114.694 83.1004 115.308 81.6891L115.293 81.695Z" fill="#1B1B1B"/>
<path d="M152.267 91.9141C150.771 97.0883 151.749 102.071 154.815 106.454C155.691 107.694 157.759 106.536 156.892 105.275C154.172 101.37 153.231 97.1596 154.56 92.5491C154.993 91.0733 152.685 90.4442 152.267 91.9141Z" fill="#1B1B1B"/>
<path d="M152.601 97.8044C148.587 98.0846 144.414 98.1381 140.683 99.8453C137.545 101.28 137.14 104.953 136.81 107.963C136.636 109.488 139.026 109.468 139.191 107.963C139.573 104.659 140.054 102.41 143.515 101.308C146.412 100.381 149.604 100.398 152.607 100.2C154.12 100.087 154.135 97.7008 152.607 97.8192L152.601 97.8044Z" fill="#1B1B1B"/>
<path d="M141.003 100.727C136.937 95.8567 134.967 90.7934 128.841 88.2937C124.501 86.5304 120.192 89.6519 116.956 92.1191C116.644 92.3646 116.521 92.9106 116.634 93.2761C118.419 98.859 122.284 103.057 125.365 107.947C127.783 111.785 129.28 116.268 133.541 118.388C138.015 120.611 144.387 119.553 149.106 119.195C154.807 118.766 160.298 119.775 165.697 117.447C167.114 116.843 165.906 114.778 164.518 115.371C159.164 117.68 152.757 116.526 147.071 116.949C143.464 117.219 139.951 117.298 136.354 116.742C131.919 116.062 130.252 111.75 128.36 108.368C126.014 104.158 122.877 100.489 120.41 96.3621C120.32 91.33 122.935 89.404 128.206 90.587C131.415 91.8808 133.8 94.02 135.397 97.0075C136.657 98.8631 137.844 100.663 139.287 102.376C140.275 103.554 141.965 101.881 140.997 100.712L141.003 100.727Z" fill="#1B1B1B"/>
<path d="M145.546 98.1448C139.569 95.1227 137.324 85.718 139.155 79.6729C139.609 78.2059 137.301 77.5768 136.861 79.0379C134.732 86.0423 137.411 96.6938 144.332 100.192C145.703 100.873 146.922 98.8409 145.546 98.1448Z" fill="#1B1B1B"/>
<path d="M154.035 91.201C151.576 90.1533 149.106 90.0172 146.458 90.1587C144.933 90.2417 144.918 92.6281 146.457 92.5391C148.604 92.4282 150.796 92.3851 152.807 93.2538C154.197 93.8584 155.426 91.8056 154.02 91.2069L154.035 91.201Z" fill="#1B1B1B"/>
<path d="M161.791 64.8249C159.875 60.4075 157.233 56.6081 152.713 54.6093C151.322 54.0047 150.087 56.0428 151.499 56.6562C155.683 58.4994 157.956 61.9338 159.714 66.0035C160.333 67.415 162.384 66.213 161.791 64.8249Z" fill="#1B1B1B"/>
<path d="M213.999 265.836C210.717 266.155 201.956 267.387 196.78 266.756C191.605 266.124 187.479 263.811 181.593 275.762C175.707 287.714 166.57 300.89 166.484 311.517C166.396 322.165 163.038 341.249 157.616 353.277C152.195 365.304 137.88 377.558 119.672 387.891C101.464 398.225 91.4259 403.245 91.4259 403.245L94.7084 491.568C94.7084 491.568 181.119 425.925 183.626 423.905C186.145 421.876 193.741 412.722 194.911 410.63C196.08 408.538 200.043 402.859 204.563 400.575C209.082 398.292 250.157 375.576 251.944 374.347C253.73 373.119 261.369 366.177 262.881 362.854C264.384 359.521 260.9 338.507 260.826 335.389C260.826 335.389 262.762 318.823 260.721 313.484C260.721 313.484 264.83 301.839 265.175 298.853C265.529 295.877 262.469 294.351 262.469 294.351C262.469 294.351 267.358 288.733 266.374 285.485C265.401 282.229 255.072 266.72 255.072 266.72C255.072 266.72 235.504 262.972 232.33 270.325C229.156 277.678 234.535 282.343 234.535 282.343L221.448 286.028C221.448 286.028 219.758 285.771 218.78 287.34C217.671 289.127 216.05 290.602 215.083 292.473C213.46 295.594 215.198 297.602 217.415 299.747C217.763 300.083 217.689 300.838 217.147 300.935C211.967 301.879 198.153 306.726 196.019 298.87C194.813 294.416 198.194 287.916 201.434 285.076C206.597 280.548 214.387 281.829 219.091 276.363C219.105 276.224 219.108 276.094 219.13 275.965C219.229 275.062 221.097 266.005 214.03 265.829L213.999 265.836Z" fill="#E2E2E2"/>
<path d="M91.999 404.145C109.975 394.842 128.341 384.945 144.29 372.391C155.213 363.796 160.513 351.265 163.61 337.985C167.003 323.439 165.488 307.275 173.213 294.071C176.847 287.857 179.9 281.425 183.153 274.994C184.85 271.629 186.642 267 190.995 267.118C196.208 267.262 200.901 268.417 206.157 267.923C210.462 267.515 217.808 264.758 218.709 271.489C219.474 277.254 213.594 279.192 209.175 280.352C206.62 281.023 203.244 281.984 200.79 282.755C199.878 283.046 199.223 284.808 198.814 285.49C195.082 291.784 190.514 303.806 201.529 305.254C214.684 306.974 230.136 295.595 238.578 286.716C240.762 284.413 242.137 282.08 245.211 280.818C246.466 280.3 245.844 278.272 244.578 278.799C240.77 280.37 238.803 283.427 236.037 286.334C229.71 293.005 219.353 299.528 210.58 302.304C206.302 303.658 198.954 304.608 196.904 299.55C195.444 295.944 197.784 291.96 199.4 288.809C200.606 286.449 200.996 284.832 203.375 284.616C206.442 284.346 209.151 282.527 212.086 281.763C216.237 280.677 219.825 278.172 220.772 273.87C221.384 271.121 220.513 265.918 217.178 265.147C214.176 264.45 211.284 264.977 208.277 265.453C203.111 266.257 198.244 265.847 193.082 265.187C188.187 264.563 186.411 265.672 183.739 269.673C179.714 275.678 177.24 282.748 173.767 289.068C171.163 293.798 168.358 298.016 166.925 303.283C164.878 310.807 164.615 318.859 163.545 326.55C162.121 336.704 159.75 346.705 155.196 355.938C149.125 368.243 137.126 375.437 125.896 382.476C115.991 388.683 105.775 394.397 95.4781 399.903C93.953 400.715 92.4279 401.528 90.8938 402.33C89.6774 402.963 90.8263 404.742 92.0317 404.118L91.999 404.145Z" fill="#1B1B1B"/>
<path d="M240.026 282.313C236.77 282.574 233.928 281.27 232.409 277.748C229.186 270.256 239.177 267.028 244.397 266.399C247.473 266.03 251.084 265.845 253.937 267.23C256.542 268.491 258.247 272.974 259.634 275.288C261.451 278.327 263.789 280.866 265.033 284.23C266.212 287.427 263.113 291.375 261.512 293.876C257.253 300.53 251.672 306.752 245.542 311.726C244.504 312.576 245.612 314.371 246.68 313.514C254.738 306.994 264.008 297.454 267.238 287.297C268.504 283.318 264.681 278.947 262.642 276.017C260.155 272.45 258.628 267.894 254.924 265.361C251.617 263.088 245.228 263.872 241.713 264.619C236.875 265.647 232.599 267.492 230.48 272.19C227.549 278.704 233.717 284.931 240.099 284.427C241.454 284.32 241.381 282.206 240.026 282.313Z" fill="#1B1B1B"/>
<path d="M261.954 295.284C268.277 299.339 258.447 314.143 256.145 318.661C253.284 324.259 250.326 329.827 247.333 335.351C246.682 336.561 248.551 337.549 249.2 336.358C253.419 328.587 257.544 320.746 261.468 312.815C264.063 307.563 269.906 297.875 262.961 293.416C261.81 292.681 260.822 294.55 261.954 295.284Z" fill="#1B1B1B"/>
<path d="M259.642 313.529C260.742 321.906 261.657 333.174 256.646 340.426C255.873 341.553 257.742 342.541 258.514 341.433C263.736 333.861 262.887 322.137 261.757 313.457C261.588 312.116 259.465 312.177 259.642 313.529Z" fill="#1B1B1B"/>
<path d="M259.782 335.697C261.899 344.335 265.74 360.217 258.777 367.627C253.417 373.339 245.421 377.396 238.776 381.386C231.811 385.565 224.583 389.267 217.329 392.915C208.091 397.552 198.77 400.706 193.627 410.112C188.616 419.3 179.955 424.707 171.798 430.795C145.606 450.345 119.872 470.542 94.1345 490.668C93.0685 491.506 94.1955 493.303 95.2725 492.456C122.423 471.225 149.497 449.856 177.224 429.394C184.8 423.8 191.43 418.545 196.02 410.158C199.206 404.311 204.316 401.745 210.099 398.864C217.888 394.977 225.684 391.121 233.321 386.938C240.79 382.839 248.059 378.319 255.026 373.408C258.369 371.049 261.835 368.37 263.441 364.495C264.917 360.928 264.319 356.213 264.275 352.487C264.206 346.68 263.211 340.702 261.821 335.066C261.5 333.74 259.47 334.382 259.802 335.699L259.782 335.697Z" fill="#1B1B1B"/>
<path d="M234.64 281.381C228.257 282.617 221.303 284.449 215.924 288.223C211.082 291.628 211.178 299.604 217.218 301.645C218.509 302.084 218.984 300.014 217.702 299.586C214.643 298.552 213.778 294.714 215.139 292.008C216.415 289.445 220.33 288.005 222.766 287.012C226.76 285.379 231.038 284.226 235.274 283.4C236.614 283.141 235.96 281.12 234.64 281.381Z" fill="#1B1B1B"/>
<path d="M253.535 355.871C256.181 354.687 258.341 352.623 259.171 349.805C259.552 348.488 257.502 348.014 257.112 349.32C256.509 351.368 254.813 352.997 252.891 353.861C251.663 354.412 252.285 356.44 253.525 355.88L253.535 355.871Z" fill="#1B1B1B"/>
<path d="M241.701 344.539C242.679 343.883 243.441 343.075 244.106 342.128C244.444 341.649 244.133 340.936 243.676 340.69C243.123 340.395 242.575 340.662 242.239 341.12C241.784 341.768 241.208 342.313 240.563 342.751C239.434 343.513 240.561 345.31 241.701 344.539Z" fill="#1B1B1B"/>
<path d="M232.156 322.394C234.69 321.23 236.207 319.072 237.346 316.585C237.919 315.347 236.052 314.34 235.478 315.578C234.61 317.459 233.49 319.456 231.514 320.364C230.295 320.926 230.917 322.954 232.148 322.383L232.156 322.394Z" fill="#1B1B1B"/>
<path d="M196.62 299.892C194.972 297.372 193.27 294.896 191.74 292.296C191.044 291.114 189.256 292.252 189.952 293.434C191.482 296.034 193.184 298.51 194.832 301.03C195.582 302.168 197.37 301.03 196.62 299.892Z" fill="#1B1B1B"/>
<path d="M200.622 283.842C199.916 282.357 199.366 280.818 198.962 279.213C198.642 277.887 196.611 278.529 196.943 279.846C197.388 281.636 198.035 283.316 198.834 284.98C199.425 286.212 201.204 285.063 200.622 283.842Z" fill="#1B1B1B"/>
<path d="M203.875 267.656C204.398 271.099 205.754 272.307 209.233 272.229C212.462 272.156 216.931 272.216 218.43 268.722C218.964 267.48 217.107 266.464 216.562 267.715C215.61 269.939 212.869 269.959 210.793 270.055C209.876 270.095 208.959 270.135 208.036 270.124C206.422 270.115 206.203 268.98 205.989 267.584C205.79 266.25 203.667 266.311 203.875 267.656Z" fill="#1B1B1B"/>
<path d="M230.904 292.7C230.468 291.213 229.858 289.778 229.045 288.453C228.338 287.28 226.55 288.418 227.257 289.591C227.973 290.776 228.482 292.02 228.873 293.343C229.267 294.646 231.286 294.013 230.893 292.709L230.904 292.7Z" fill="#1B1B1B"/>
<path d="M235.049 288.403C234.915 288.239 234.814 288.048 234.679 287.885C234.312 287.437 233.74 287.23 233.226 287.561C232.777 287.837 232.535 288.566 232.891 289.023C233.026 289.186 233.127 289.377 233.262 289.541C233.629 289.988 234.2 290.195 234.715 289.865C235.163 289.588 235.406 288.859 235.049 288.403Z" fill="#1B1B1B"/>
<path d="M241.337 282.351C241.246 280.215 241.071 278.131 241.765 276.082C242.203 274.791 240.133 274.315 239.705 275.598C238.954 277.821 239.119 280.115 239.211 282.432C239.268 283.792 241.382 283.72 241.326 282.36L241.337 282.351Z" fill="#1B1B1B"/>
<path d="M265.833 285.472C263.344 284.062 260.444 283.957 257.646 284.042C256.277 284.087 256.36 286.192 257.718 286.156C260.144 286.084 262.661 286.102 264.826 287.339C266.023 288.019 267.011 286.15 265.833 285.472Z" fill="#1B1B1B"/>
<path d="M264.105 281.829C263.238 281.462 262.377 281.237 261.422 281.253C260.057 281.259 260.138 283.384 261.495 283.367C262.057 283.362 262.568 283.473 263.098 283.696C264.339 284.23 265.355 282.374 264.105 281.829Z" fill="#1B1B1B"/>
<path d="M263.884 299.528C263.589 299.569 263.295 299.7 263.011 299.733C261.669 299.901 261.731 302.024 263.083 301.847C263.378 301.806 263.672 301.674 263.956 301.642C265.297 301.473 265.236 299.35 263.884 299.528Z" fill="#1B1B1B"/>
<path d="M264.158 289.843C263.519 289.71 262.88 289.576 262.274 289.306C261.033 288.772 260.026 290.639 261.267 291.173C262.048 291.501 262.838 291.73 263.665 291.891C265 292.184 265.487 290.105 264.149 289.832L264.158 289.843Z" fill="#1B1B1B"/>
<path d="M463.048 -34.9816C463.048 -34.9816 438.494 -19.5332 416.735 -13.8374C394.976 -8.14162 386.943 1.07098 376.56 2.88033C366.177 4.68969 316.8 10.8318 311.462 12.2024C303.898 14.1499 298.392 20.7431 293.329 28.9886C288.279 37.2323 290.601 44.4333 290.601 44.4333L291.22 44.3446C289.2 46.8139 287.057 49.5974 285.187 52.3032C279.774 60.1732 287.054 65.3355 287.054 65.3355L286.485 65.9587C283.922 68.7767 281.588 71.4845 280.285 73.6447C276.742 79.5312 286.062 86.2459 286.062 86.2459L287.012 85.4004C284.576 87.4906 282.885 89.4614 282.862 91.0126C282.77 96.405 289.034 102.048 291.975 103.123C294.929 104.209 310.236 103.54 317.639 101.19C325.042 98.8395 323.428 92.608 323.428 92.608L324.513 92.2591C327.837 91.2413 330.965 90.6515 333.356 90.7735C340.072 91.1017 339.409 90.9774 339.409 90.9774C339.409 90.9774 333.095 99.402 320.747 101.815C308.399 104.228 299.14 113.075 301.317 120.077C303.493 127.08 308.475 124.212 312.055 122.19C315.635 120.168 329.928 117.915 331.591 117.458C333.242 117.002 347.175 110.711 368.934 94.4762C390.693 78.2414 392.73 62.4701 400.95 55.2818C409.168 48.0809 423.192 42.422 437.211 38.2602C451.23 34.0984 472.819 33.1611 472.819 33.1611" fill="#E2E2E2"/>
<path d="M462.45 -35.7349C456.413 -31.955 450.083 -28.5976 443.713 -25.428C432.081 -19.6345 420.021 -16.295 407.813 -12.0958C398.568 -8.91442 390.53 -3.42912 381.594 0.37884C375.71 2.88555 368.561 3.13536 362.298 3.99345C346.272 6.21102 330.18 8.06384 314.225 10.6841C300.653 12.9243 285.538 30.5167 289.713 44.8051C290.062 45.9806 291.809 45.2143 291.473 44.037C288.239 32.9808 299.3 19.155 308.485 14.2923C313.244 11.7661 319.986 11.7296 325.181 10.9856C340.909 8.7591 356.677 6.81068 372.393 4.49569C378.014 3.66491 382.825 2.1247 387.889 -0.522595C397.98 -5.81175 407.658 -10.3838 418.731 -13.4142C434.496 -17.7229 449.804 -25.5907 463.632 -34.2401C464.674 -34.8923 463.48 -36.3854 462.438 -35.7331L462.45 -35.7349Z" fill="#1B1B1B"/>
<path d="M472.673 32.227C450.246 33.2585 427.826 37.8493 408.146 49.0523C400.023 53.6726 395.924 59.5485 391.36 67.4001C384.425 79.3319 375.502 88.543 364.346 96.6677C354.967 103.506 345.124 109.985 334.672 115.094C328.789 117.974 321.909 118.212 315.636 119.897C311.252 121.079 303.938 127.57 302.007 118.765C300.046 109.849 314.625 104.188 320.883 102.763C328.142 101.117 335.516 97.5713 340.175 91.5508C340.939 90.5772 339.394 89.431 338.643 90.4028C336.194 93.5657 332.717 95.947 329.248 97.8497C322.885 101.341 315.312 101.239 309.15 105.32C305.096 108.003 301.538 111.26 300.258 116.101C299.545 118.782 300.596 123.327 303.283 124.71C306.5 126.365 309.537 124.691 312.44 123.076C316.884 120.595 322.98 120.109 327.915 119.17C333.981 118.018 338.975 115.148 344.339 112.071C356.649 104.981 369.634 96.8393 379.514 86.5624C387.363 78.4081 391.956 68.682 398.405 59.5801C402.234 54.1558 408.578 50.8092 414.354 47.9053C422.633 43.74 431.733 40.6308 440.691 38.329C451.117 35.6492 462.194 34.6305 472.934 34.1375C474.163 34.0775 473.879 32.1833 472.662 32.2415L472.673 32.227Z" fill="#1B1B1B"/>
<path d="M349.588 88.5519C342.791 89.6413 335.925 89.1669 329.175 90.1335C321.363 91.2521 313.426 95.188 307.044 99.7138C306.036 100.426 307.232 101.931 308.238 101.207C314.829 96.522 322.848 92.9744 330.886 91.8106C337.117 90.9182 343.554 91.4541 349.845 90.4371C351.067 90.2363 350.796 88.3402 349.573 88.5411L349.588 88.5519Z" fill="#1B1B1B"/>
<path d="M322.48 92.7438C324.256 100.732 312.402 101.553 307.12 102.141C299.569 103.003 292.602 103.988 287.034 98.0776C279.609 90.1885 288.52 85.1201 294.532 80.9826C298.359 78.3448 303.168 76.0696 306.274 72.5417C307.096 71.6114 305.551 70.4652 304.743 71.3937C299.452 77.4144 290.784 80.4873 284.897 86.0387C278.907 91.6822 283.907 98.5771 289.326 102.729C295.137 107.185 307.387 104.27 313.775 103.123C319.171 102.157 325.875 99.1589 324.388 92.4705C324.126 91.2697 322.228 91.5286 322.492 92.742L322.48 92.7438Z" fill="#1B1B1B"/>
<path d="M286.622 85.4688C285.106 84.3442 283.791 82.9975 282.577 81.546C278.502 76.686 282.117 72.3886 285.437 68.5464C289.796 63.4976 295.297 58.8529 298.356 52.8293C298.921 51.7293 297.142 51.0166 296.588 52.1021C292.47 60.1865 283.092 65.0511 279.392 73.269C276.926 78.7434 281.215 83.8309 285.474 87.0005C286.469 87.7352 287.617 86.2034 286.622 85.4688Z" fill="#1B1B1B"/>
<path d="M287.616 64.571C277.703 57.1414 293.616 42.6079 299.176 36.5744C300.014 35.6676 298.47 34.5214 297.645 35.4264C291.37 42.233 274.604 57.2111 286.468 66.1027C287.452 66.8518 288.598 65.3074 287.616 64.571Z" fill="#1B1B1B"/>
<path d="M318.398 118.651C317.57 117.466 317.086 115.975 316.634 114.621C316.502 114.24 316.013 113.974 315.624 114.056C311.141 114.995 303.183 116.624 302.527 122.226C302.382 123.46 304.285 123.69 304.433 122.469C304.959 118.034 312.387 116.674 315.896 115.952C315.56 115.768 315.222 115.571 314.886 115.387C315.403 116.925 315.978 118.507 316.918 119.843C317.629 120.851 319.122 119.656 318.423 118.647L318.398 118.651Z" fill="#1B1B1B"/>
<path d="M303.313 72.6684C302.653 70.8538 302.181 68.9993 301.695 67.134C301.397 65.9513 299.486 66.212 299.799 67.4055C300.321 69.4333 300.831 71.463 301.553 73.4365C301.977 74.6012 303.736 73.8204 303.313 72.6684Z" fill="#1B1B1B"/>
<path d="M301.147 75.5591C300.811 74.6527 300.294 73.8366 299.907 72.9374C299.423 71.8071 297.66 72.5625 298.147 73.7055C298.532 74.592 299.048 75.4081 299.386 76.3272C299.811 77.4918 301.57 76.7111 301.147 75.5591Z" fill="#1B1B1B"/>
<path d="M297.953 77.3056C297.626 76.643 297.299 75.9803 297.019 75.2852C296.545 74.1404 294.785 74.9085 295.258 76.0533C295.537 76.7358 295.866 77.4111 296.193 78.0737C296.737 79.1697 298.499 78.4142 297.953 77.3056Z" fill="#1B1B1B"/>
<path d="M306.589 40.7752C303.915 41.9192 301.702 43.8486 300.61 46.5849C300.155 47.7336 301.922 48.4481 302.391 47.3103C303.302 45.0255 305.131 43.4737 307.368 42.5212C308.498 42.0369 307.743 40.2746 306.6 40.7608L306.589 40.7752Z" fill="#1B1B1B"/>
<path d="M313.512 65.2484C312.257 66.3955 311.261 67.725 310.512 69.2512C309.961 70.362 311.74 71.0747 312.293 69.9765C312.892 68.7556 313.704 67.6718 314.708 66.7541C315.621 65.9267 314.438 64.4192 313.513 65.261L313.512 65.2484Z" fill="#1B1B1B"/>
<path d="M303.567 27.3288C302.565 28.1689 301.767 29.1732 300.987 30.2137C300.251 31.1963 301.784 32.3569 302.519 31.3617C303.201 30.4513 303.885 29.5535 304.748 28.8237C305.692 28.0306 304.509 26.5231 303.554 27.3306L303.567 27.3288Z" fill="#1B1B1B"/>
<path d="M340.549 112.266C338.784 111.203 338.162 109.112 337.304 107.351C336.758 106.243 334.997 107.011 335.543 108.119C336.546 110.169 337.34 112.558 339.401 113.797C340.445 114.422 341.607 112.901 340.549 112.266Z" fill="#1B1B1B"/>
<path d="M341.785 108.645C341.541 108.112 341.371 107.556 341.127 107.023C340.606 105.911 338.844 106.666 339.366 107.791C339.61 108.324 339.78 108.88 340.024 109.413C340.545 110.525 342.307 109.769 341.785 108.645Z" fill="#1B1B1B"/>
<path d="M335.319 111.506C334.467 108.983 333.155 106.668 332.122 104.224C331.648 103.079 329.888 103.847 330.361 104.992C331.382 107.438 332.707 109.751 333.558 112.274C333.945 113.444 335.705 112.676 335.319 111.506Z" fill="#1B1B1B"/>
<path d="M344.307 196.053C360.514 183.641 363.59 160.441 351.178 144.235C338.766 128.028 315.567 124.952 299.36 137.363C283.154 149.775 280.077 172.975 292.489 189.182C304.901 205.388 328.101 208.464 344.307 196.053Z" fill="#FFE255"/>
<path d="M343.748 195.322C359.551 183.219 362.551 160.596 350.448 144.792C338.345 128.989 315.722 125.989 299.919 138.092C284.115 150.195 281.115 172.818 293.218 188.622C305.322 204.425 327.944 207.425 343.748 195.322Z" fill="#FFCC3E"/>
<path d="M339.64 189.959C352.481 180.125 354.918 161.743 345.084 148.903C335.25 136.062 316.869 133.624 304.028 143.458C291.187 153.293 288.75 171.674 298.584 184.515C308.418 197.356 326.799 199.793 339.64 189.959Z" fill="#FFE357"/>
<path d="M339.059 189.199C351.48 179.686 353.837 161.905 344.325 149.484C334.812 137.063 317.031 134.706 304.61 144.218C292.189 153.731 289.832 171.512 299.344 183.933C308.857 196.354 326.638 198.711 339.059 189.199Z" fill="#E59638"/>
<path d="M344.326 149.483C344.549 149.774 344.765 150.069 344.976 150.365C335.315 138.698 318.073 136.665 305.943 145.955C293.813 155.245 291.28 172.418 300.027 184.788C299.797 184.508 299.568 184.222 299.346 183.932C289.834 171.511 292.192 153.729 304.612 144.217C317.032 134.705 334.814 137.063 344.326 149.483Z" fill="#CC8232"/>
<path d="M351.179 144.235C363.442 160.248 360.586 183.087 344.884 195.602C344.693 195.754 344.501 195.905 344.308 196.053C343.36 196.778 342.389 197.452 341.396 198.072C339.997 198.948 338.558 199.717 337.086 200.384C333.035 202.223 328.752 203.28 324.447 203.58C323.372 203.655 322.298 203.685 321.224 203.666C317.502 203.603 313.799 202.978 310.255 201.813C308.964 201.388 307.695 200.892 306.45 200.323C305.29 199.794 304.156 199.204 303.051 198.55C301.855 197.844 300.69 197.067 299.569 196.221C297.587 194.723 295.73 193.004 294.038 191.07C293.505 190.461 292.99 189.831 292.492 189.18C292.255 188.872 292.025 188.562 291.8 188.248C292.526 189.138 293.285 189.986 294.077 190.79C295.808 192.554 297.683 194.112 299.672 195.461C300.807 196.233 301.981 196.935 303.185 197.568C304.301 198.156 305.444 198.684 306.608 199.152C307.862 199.657 309.141 200.091 310.439 200.453C314.026 201.458 317.749 201.917 321.473 201.815C322.555 201.786 323.638 201.709 324.718 201.582C329.086 201.077 333.404 199.785 337.452 197.679C338.944 196.901 340.4 196.016 341.808 195.015C342.178 194.754 342.541 194.485 342.902 194.209C343.753 193.558 344.568 192.876 345.346 192.168C359.109 179.638 361.444 158.611 350.466 143.325C350.711 143.624 350.95 143.927 351.186 144.236L351.179 144.235Z" fill="#E59638"/>
<path d="M322.367 195.034L321.222 203.667C317.499 203.604 313.796 202.979 310.252 201.814L310.433 200.454L311.414 193.056C314.902 194.434 318.632 195.102 322.367 195.034Z" fill="#FFE357"/>
<path d="M330.877 130.868L329.733 139.501C326.143 138.464 322.368 138.137 318.643 138.556L319.804 129.799C323.529 129.597 327.267 129.959 330.877 130.868Z" fill="#FFE357"/>
<path d="M307.651 191.239L306.447 200.321C305.287 199.792 304.154 199.202 303.049 198.548L304.318 188.979C305.382 189.817 306.496 190.57 307.652 191.236L307.651 191.239Z" fill="#FFE357"/>
<path d="M315.74 130.243L314.536 139.325C313.246 139.666 311.973 140.104 310.728 140.635L311.997 131.066C313.236 130.725 314.484 130.45 315.74 130.24L315.74 130.243Z" fill="#FFE357"/>
<path d="M346.984 179.765L345.339 192.167L344.884 195.603C344.693 195.755 344.501 195.905 344.308 196.053C343.36 196.779 342.389 197.453 341.395 198.073L343.067 185.47C344.624 183.712 345.931 181.793 346.984 179.765Z" fill="#FFE357"/>
<path d="M351.178 144.235C351.326 144.428 351.474 144.622 351.616 144.82L349.516 160.658C349.03 158.423 348.269 156.23 347.221 154.128L348.893 141.526C349.69 142.384 350.452 143.287 351.178 144.235Z" fill="#FFE357"/>
<path d="M299.343 183.932C299.853 184.597 300.387 185.237 300.945 185.843L299.67 195.458L299.569 196.22C297.586 194.722 295.73 193.003 294.037 191.069L295.788 177.865C296.696 179.982 297.88 182.021 299.343 183.932Z" fill="#FFE357"/>
<path d="M308.028 132.411L306.652 142.788C305.957 143.23 305.275 143.705 304.608 144.216C302.697 145.68 301.022 147.34 299.594 149.146L301.345 135.942C303.483 134.516 305.722 133.342 308.028 132.411Z" fill="#FFE357"/>
<path d="M338.514 189.604L337.085 200.384C333.034 202.223 328.751 203.28 324.446 203.58L324.711 201.579L325.612 194.787C330.141 194.181 334.58 192.473 338.516 189.603L338.514 189.604Z" fill="#FFE357"/>
<path d="M345.336 138.169L343.907 148.948C340.857 145.153 337.014 142.345 332.8 140.58L333.966 131.787C338.044 133.199 341.903 135.335 345.335 138.167L345.336 138.169Z" fill="#FFE357"/>
<path d="M321.468 201.812L321.223 203.663C317.5 203.601 313.797 202.976 310.253 201.81L310.434 200.45C314.021 201.455 317.744 201.914 321.468 201.812Z" fill="#FCBB47"/>
<path d="M306.604 199.151L306.449 200.322C305.289 199.794 304.156 199.203 303.051 198.55L303.181 197.567C304.296 198.155 305.44 198.683 306.604 199.151Z" fill="#FCBB47"/>
<path d="M345.338 192.166L344.883 195.601C344.692 195.754 344.5 195.904 344.307 196.052C343.359 196.778 342.388 197.451 341.394 198.071L341.8 195.013C342.17 194.753 342.533 194.484 342.894 194.208C343.745 193.556 344.56 192.874 345.338 192.166Z" fill="#FCBB47"/>
<path d="M299.668 195.461L299.567 196.222C297.585 194.724 295.728 193.006 294.036 191.071L294.073 190.79C295.805 192.554 297.679 194.112 299.668 195.461Z" fill="#FCBB47"/>
<path d="M337.444 197.678L337.085 200.384C333.034 202.223 328.752 203.28 324.447 203.58L324.712 201.58C329.081 201.074 333.398 199.783 337.446 197.677L337.444 197.678Z" fill="#FCBB47"/>
<path d="M328.175 161.682C328.175 161.682 329.588 158.972 327.793 156.627C323.527 151.057 317.484 156.226 317.484 156.226L314.228 151.974L311.589 153.995L314.845 158.247L312.94 159.706L309.684 155.454L307.045 157.475L310.301 161.727L305.267 165.582L307.438 168.416L309.637 166.732C310.712 165.909 311.645 166.822 311.645 166.822L320.515 178.404C321.301 179.43 320.493 179.895 320.493 179.895L318.44 181.467L320.26 184.958L325.39 181.029L328.721 185.377L331.36 183.356L328.066 179.056L330.022 177.558L333.278 181.81L335.917 179.789L332.587 175.441C337.568 171.316 338.679 167.906 335.558 163.63C332.436 159.353 328.178 161.686 328.178 161.686L328.175 161.682ZM315.196 162.551L318.127 160.306C318.127 160.306 321.12 157.938 323.141 160.576C325.162 163.215 321.607 165.861 321.607 165.861L319.164 167.732L315.198 162.553L315.196 162.551ZM328.751 173.568L325.573 176.001L321.195 170.284L324.42 167.814C324.42 167.814 328.217 164.673 330.537 167.703C332.858 170.733 328.751 173.568 328.751 173.568Z" fill="#CC8232"/>
<path d="M327.27 160.503C327.27 160.503 328.684 157.792 326.888 155.447C322.622 149.877 316.579 155.046 316.579 155.046L313.323 150.794L310.684 152.815L313.94 157.067L312.035 158.526L308.779 154.274L306.14 156.295L309.396 160.547L304.362 164.402L306.533 167.237L308.733 165.552C309.807 164.729 310.74 165.643 310.74 165.643L319.61 177.224C320.396 178.251 319.588 178.716 319.588 178.716L317.536 180.288L319.355 183.778L324.486 179.849L327.816 184.197L330.455 182.176L327.162 177.876L329.117 176.379L332.373 180.63L335.012 178.609L331.682 174.261C336.663 170.136 337.774 166.726 334.654 162.451C331.531 158.173 327.273 160.507 327.273 160.507L327.27 160.503ZM314.291 161.372L317.223 159.127C317.223 159.127 320.216 156.758 322.237 159.397C324.258 162.036 320.703 164.681 320.703 164.681L318.259 166.553L314.293 161.374L314.291 161.372ZM327.846 172.388L324.669 174.822L320.29 169.104L323.516 166.634C323.516 166.634 327.312 163.493 329.633 166.523C331.953 169.553 327.846 172.388 327.846 172.388Z" fill="#FFE357"/>
<path d="M244.464 243.864C258.899 229.43 258.899 206.027 244.464 191.593C230.03 177.158 206.627 177.158 192.193 191.593C177.758 206.027 177.758 229.43 192.193 243.864C206.627 258.299 230.03 258.299 244.464 243.864Z" fill="#FFE255"/>
<path d="M243.814 243.213C257.889 229.138 257.889 206.317 243.814 192.242C229.738 178.166 206.917 178.166 192.842 192.242C178.766 206.317 178.766 229.138 192.842 243.213C206.917 257.289 229.738 257.289 243.814 243.213Z" fill="#FFCC3E"/>
<path d="M239.037 238.436C250.474 227 250.474 208.457 239.037 197.021C227.6 185.584 209.058 185.584 197.621 197.021C186.184 208.457 186.184 227 197.621 238.436C209.058 249.873 227.6 249.873 239.037 238.436Z" fill="#FFE357"/>
<path d="M238.36 237.76C249.423 226.697 249.423 208.76 238.36 197.698C227.297 186.635 209.361 186.635 198.298 197.697C187.235 208.76 187.235 226.697 198.298 237.76C209.361 248.822 227.297 248.822 238.36 237.76Z" fill="#E59638"/>
<path d="M238.362 197.696C238.62 197.954 238.873 198.218 239.121 198.484C228.01 188.188 210.651 188.44 199.847 199.243C189.044 210.047 188.791 227.405 199.088 238.517C198.822 238.269 198.558 238.016 198.3 237.758C187.237 226.695 187.237 208.758 198.3 197.696C209.362 186.633 227.299 186.633 238.362 197.696Z" fill="#CC8232"/>
<path d="M244.464 191.593C258.726 205.855 258.897 228.872 244.976 243.342C244.807 243.518 244.637 243.692 244.464 243.864C243.62 244.708 242.746 245.504 241.843 246.249C240.572 247.301 239.246 248.253 237.875 249.107C234.1 251.463 229.994 253.074 225.766 253.937C224.71 254.153 223.649 254.323 222.582 254.445C218.883 254.873 215.131 254.74 211.464 254.05C210.128 253.799 208.805 253.474 207.496 253.074C206.277 252.702 205.076 252.266 203.894 251.763C202.616 251.221 201.359 250.603 200.136 249.912C197.974 248.687 195.908 247.227 193.976 245.532C193.367 244.999 192.774 244.443 192.194 243.863C191.92 243.588 191.65 243.311 191.386 243.029C192.223 243.816 193.087 244.557 193.977 245.251C195.925 246.771 197.989 248.069 200.138 249.145C201.364 249.761 202.621 250.303 203.898 250.772C205.081 251.208 206.284 251.582 207.5 251.892C208.808 252.228 210.134 252.49 211.468 252.679C215.156 253.203 218.907 253.169 222.586 252.578C223.654 252.407 224.717 252.188 225.771 251.921C230.035 250.845 234.145 248.998 237.882 246.378C239.259 245.41 240.586 244.342 241.85 243.164C242.182 242.857 242.507 242.543 242.829 242.221C243.586 241.464 244.304 240.681 244.983 239.876C256.979 225.647 256.53 204.495 243.638 190.785C243.92 191.049 244.197 191.318 244.471 191.593L244.464 191.593Z" fill="#E59638"/>
<path d="M222.581 245.738L222.581 254.447C218.882 254.874 215.129 254.741 211.463 254.052L211.463 252.68L211.463 245.218C215.102 246.124 218.887 246.297 222.581 245.738Z" fill="#FFE357"/>
<path d="M222.583 181.012L222.583 189.721C218.887 189.164 215.102 189.336 211.465 190.241L211.465 181.407C215.131 180.718 218.884 180.585 222.583 181.012Z" fill="#FFE357"/>
<path d="M207.494 243.911L207.494 253.072C206.275 252.7 205.074 252.264 203.892 251.761L203.892 242.108C205.058 242.799 206.261 243.399 207.494 243.907L207.494 243.911Z" fill="#FFE357"/>
<path d="M207.494 182.381L207.494 191.542C206.26 192.05 205.056 192.652 203.892 193.341L203.892 183.688C205.075 183.187 206.277 182.751 207.494 182.377L207.494 182.381Z" fill="#FFE357"/>
<path d="M244.976 227.366L244.976 239.877L244.976 243.342C244.807 243.518 244.637 243.692 244.464 243.865C243.62 244.709 242.746 245.504 241.843 246.249L241.843 233.537C243.155 231.589 244.199 229.515 244.976 227.366Z" fill="#FFE357"/>
<path d="M244.464 191.592C244.637 191.765 244.809 191.937 244.976 192.115L244.976 208.091C244.2 205.94 243.157 203.867 241.843 201.92L241.843 189.208C242.746 189.953 243.62 190.748 244.464 191.592Z" fill="#FFE357"/>
<path d="M198.297 237.76C198.89 238.352 199.504 238.916 200.136 239.444L200.136 249.144L200.136 249.912C197.974 248.687 195.907 247.228 193.975 245.533L193.975 232.213C195.153 234.192 196.595 236.058 198.297 237.76Z" fill="#FFE357"/>
<path d="M200.135 185.544L200.135 196.012C199.504 196.542 198.89 197.102 198.296 197.696C196.594 199.398 195.152 201.264 193.974 203.243L193.974 189.923C195.906 188.228 197.971 186.77 200.135 185.544Z" fill="#FFE357"/>
<path d="M237.874 238.233L237.874 249.107C234.1 251.463 229.994 253.073 225.765 253.937L225.765 251.919L225.765 245.067C230.175 243.871 234.352 241.594 237.876 238.231L237.874 238.233Z" fill="#FFE357"/>
<path d="M237.876 186.347L237.876 197.221C234.353 193.86 230.175 191.581 225.765 190.385L225.765 181.515C229.994 182.379 234.1 183.989 237.875 186.345L237.876 186.347Z" fill="#FFE357"/>
<path d="M222.58 252.576L222.58 254.443C218.881 254.871 215.129 254.738 211.462 254.048L211.462 252.676C215.15 253.201 218.901 253.167 222.58 252.576Z" fill="#FCBB47"/>
<path d="M207.496 251.892L207.496 253.074C206.277 252.702 205.076 252.266 203.894 251.763L203.894 250.772C205.078 251.208 206.281 251.582 207.496 251.892Z" fill="#FCBB47"/>
<path d="M244.975 239.876L244.975 243.342C244.806 243.517 244.636 243.692 244.463 243.864C243.62 244.708 242.745 245.503 241.842 246.248L241.842 243.164C242.174 242.857 242.499 242.542 242.821 242.221C243.578 241.463 244.296 240.681 244.975 239.876Z" fill="#FCBB47"/>
<path d="M200.135 249.145L200.135 249.914C197.973 248.689 195.906 247.229 193.974 245.534L193.974 245.251C195.922 246.772 197.985 248.07 200.135 249.145Z" fill="#FCBB47"/>
<path d="M237.874 246.378L237.874 249.107C234.1 251.463 229.994 253.073 225.765 253.937L225.765 251.919C230.03 250.843 234.14 248.996 237.876 246.376L237.874 246.378Z" fill="#FCBB47"/>
<path d="M223.954 211.912C223.954 211.912 224.999 209.039 222.911 206.951C217.95 201.99 212.639 207.908 212.639 207.908L208.852 204.121L206.502 206.471L210.288 210.258L208.592 211.955L204.805 208.168L202.454 210.518L206.241 214.305L201.758 218.789L204.282 221.313L206.241 219.354C207.198 218.397 208.243 219.18 208.243 219.18L218.559 229.496C219.473 230.409 218.733 230.977 218.733 230.977L216.905 232.805L219.167 236.026L223.737 231.456L227.61 235.329L229.96 232.979L226.13 229.149L227.872 227.407L231.659 231.194L234.009 228.844L230.136 224.971C234.532 220.227 235.185 216.7 231.53 212.872C227.872 209.043 223.958 211.915 223.958 211.915L223.954 211.912ZM211.202 214.479L213.813 211.869C213.813 211.869 216.469 209.127 218.819 211.477C221.169 213.828 217.993 216.918 217.993 216.918L215.817 219.094L211.204 214.481L211.202 214.479ZM226.087 223.619L223.257 226.448L218.165 221.356L221.038 218.483C221.038 218.483 224.389 214.871 227.087 217.57C229.786 220.268 226.087 223.619 226.087 223.619Z" fill="#CC8232"/>
<path d="M222.902 210.86C222.902 210.86 223.947 207.987 221.859 205.899C216.898 200.938 211.587 206.856 211.587 206.856L207.8 203.069L205.45 205.42L209.236 209.206L207.54 210.903L203.753 207.116L201.403 209.467L205.189 213.254L200.706 217.737L203.23 220.261L205.189 218.303C206.146 217.346 207.191 218.128 207.191 218.128L217.507 228.444C218.421 229.358 217.681 229.925 217.681 229.925L215.853 231.753L218.115 234.974L222.685 230.404L226.558 234.277L228.908 231.927L225.078 228.097L226.82 226.356L230.607 230.142L232.957 227.792L229.084 223.919C233.48 219.175 234.133 215.649 230.478 211.821C226.82 207.991 222.906 210.864 222.906 210.864L222.902 210.86ZM210.15 213.428L212.761 210.817C212.761 210.817 215.417 208.075 217.767 210.426C220.117 212.776 216.941 215.866 216.941 215.866L214.765 218.042L210.152 213.429L210.15 213.428ZM225.035 222.567L222.206 225.397L217.113 220.305L219.986 217.432C219.986 217.432 223.337 213.819 226.036 216.518C228.734 219.217 225.035 222.567 225.035 222.567Z" fill="#FFE357"/>
<path d="M197.408 212.1C211.842 197.665 211.842 174.262 197.408 159.828C182.973 145.394 159.57 145.394 145.136 159.828C130.701 174.262 130.701 197.665 145.136 212.1C159.57 226.534 182.973 226.534 197.408 212.1Z" fill="#FFE255"/>
<path d="M196.757 211.449C210.832 197.373 210.832 174.552 196.757 160.477C182.681 146.402 159.861 146.402 145.785 160.477C131.71 174.552 131.71 197.373 145.785 211.449C159.861 225.524 182.681 225.524 196.757 211.449Z" fill="#FFCC3E"/>
<path d="M191.98 206.672C203.417 195.235 203.417 176.693 191.98 165.256C180.543 153.819 162.001 153.819 150.564 165.256C139.128 176.693 139.128 195.235 150.564 206.672C162.001 218.108 180.543 218.108 191.98 206.672Z" fill="#FFE357"/>
<path d="M191.303 205.995C202.366 194.932 202.366 176.996 191.303 165.933C180.241 154.87 162.304 154.87 151.241 165.933C140.179 176.996 140.179 194.932 151.241 205.995C162.304 217.058 180.241 217.058 191.303 205.995Z" fill="#E59638"/>
<path d="M191.305 165.931C191.564 166.189 191.817 166.453 192.064 166.719C180.954 156.424 163.594 156.675 152.791 167.479C141.987 178.282 141.734 195.64 152.031 206.752C151.765 206.505 151.502 206.251 151.243 205.993C140.181 194.931 140.181 176.993 151.243 165.931C162.305 154.869 180.243 154.869 191.305 165.931Z" fill="#CC8232"/>
<path d="M197.407 159.828C211.669 174.09 211.84 197.107 197.919 211.577C197.75 211.753 197.58 211.927 197.407 212.1C196.564 212.944 195.689 213.739 194.786 214.484C193.515 215.536 192.19 216.488 190.818 217.343C187.044 219.698 182.937 221.309 178.709 222.173C177.653 222.388 176.592 222.559 175.525 222.681C171.826 223.108 168.074 222.975 164.407 222.286C163.071 222.034 161.748 221.709 160.439 221.309C159.22 220.937 158.019 220.501 156.837 219.998C155.559 219.456 154.302 218.838 153.079 218.147C150.917 216.923 148.851 215.463 146.919 213.768C146.31 213.234 145.718 212.678 145.138 212.098C144.863 211.823 144.594 211.547 144.33 211.265C145.166 212.051 146.03 212.793 146.921 213.486C148.869 215.007 150.932 216.305 153.081 217.38C154.307 217.996 155.564 218.538 156.841 219.007C158.024 219.443 159.227 219.817 160.443 220.128C161.752 220.463 163.077 220.725 164.411 220.914C168.099 221.438 171.85 221.404 175.529 220.813C176.597 220.643 177.66 220.424 178.714 220.156C182.979 219.081 187.089 217.233 190.825 214.613C192.202 213.646 193.529 212.577 194.793 211.399C195.125 211.092 195.45 210.778 195.772 210.457C196.529 209.699 197.248 208.916 197.926 208.112C209.922 193.882 209.473 172.731 196.582 159.02C196.863 159.284 197.14 159.553 197.415 159.828L197.407 159.828Z" fill="#E59638"/>
<path d="M175.524 213.974L175.524 222.682C171.825 223.11 168.072 222.977 164.406 222.287L164.406 220.915L164.406 213.453C168.045 214.36 171.83 214.532 175.524 213.974Z" fill="#FFE357"/>
<path d="M175.526 149.248L175.526 157.956C171.831 157.399 168.046 157.572 164.408 158.477L164.408 149.643C168.074 148.953 171.827 148.82 175.526 149.248Z" fill="#FFE357"/>
<path d="M160.437 212.146L160.437 221.307C159.218 220.935 158.017 220.499 156.835 219.996L156.835 210.344C158.001 211.035 159.204 211.635 160.437 212.143L160.437 212.146Z" fill="#FFE357"/>
<path d="M160.437 150.616L160.437 159.777C159.204 160.285 157.999 160.887 156.835 161.576L156.835 151.924C158.019 151.423 159.22 150.986 160.437 150.613L160.437 150.616Z" fill="#FFE357"/>
<path d="M197.919 195.601L197.919 208.112L197.919 211.578C197.751 211.754 197.58 211.928 197.408 212.1C196.564 212.944 195.689 213.739 194.786 214.485L194.786 201.772C196.099 199.824 197.142 197.75 197.919 195.601Z" fill="#FFE357"/>
<path d="M197.407 159.828C197.58 160 197.752 160.172 197.919 160.35L197.919 176.327C197.143 174.176 196.1 172.102 194.786 170.156L194.786 157.443C195.689 158.188 196.563 158.984 197.407 159.828Z" fill="#FFE357"/>
<path d="M151.241 205.995C151.833 206.588 152.447 207.151 153.079 207.679L153.079 217.379L153.079 218.147C150.917 216.923 148.851 215.463 146.919 213.768L146.919 200.449C148.097 202.427 149.538 204.293 151.241 205.995Z" fill="#FFE357"/>
<path d="M153.078 153.778L153.078 164.246C152.448 164.776 151.834 165.336 151.239 165.931C149.537 167.633 148.095 169.498 146.917 171.477L146.917 158.158C148.849 156.463 150.914 155.005 153.078 153.778Z" fill="#FFE357"/>
<path d="M190.818 206.469L190.818 217.342C187.043 219.698 182.937 221.309 178.709 222.172L178.709 220.154L178.709 213.302C183.118 212.107 187.295 209.83 190.819 206.467L190.818 206.469Z" fill="#FFE357"/>
<path d="M190.82 154.582L190.82 165.456C187.297 162.095 183.119 159.816 178.709 158.621L178.709 149.751C182.937 150.614 187.044 152.225 190.818 154.581L190.82 154.582Z" fill="#FFE357"/>
<path d="M175.523 220.811L175.523 222.679C171.825 223.106 168.072 222.973 164.405 222.284L164.406 220.912C168.094 221.436 171.844 221.402 175.523 220.811Z" fill="#FCBB47"/>
<path d="M160.439 220.128L160.439 221.309C159.22 220.938 158.019 220.501 156.837 219.998L156.837 219.007C158.021 219.444 159.224 219.817 160.439 220.128Z" fill="#FCBB47"/>
<path d="M197.918 208.111L197.918 211.577C197.75 211.753 197.579 211.927 197.407 212.099C196.563 212.943 195.688 213.739 194.785 214.484L194.785 211.399C195.117 211.092 195.442 210.778 195.764 210.456C196.522 209.699 197.24 208.916 197.918 208.111Z" fill="#FCBB47"/>
<path d="M153.078 217.381L153.078 218.149C150.916 216.925 148.849 215.465 146.917 213.77L146.917 213.486C148.866 215.007 150.929 216.305 153.078 217.381Z" fill="#FCBB47"/>
<path d="M190.818 214.613L190.818 217.342C187.043 219.698 182.937 221.309 178.708 222.172L178.708 220.154C182.973 219.078 187.083 217.231 190.819 214.611L190.818 214.613Z" fill="#FCBB47"/>
<path d="M176.898 180.148C176.898 180.148 177.943 177.275 175.854 175.187C170.893 170.226 165.582 176.144 165.582 176.144L161.795 172.357L159.445 174.708L163.232 178.494L161.535 180.191L157.748 176.404L155.398 178.755L159.185 182.542L154.701 187.025L157.226 189.55L159.185 187.591C160.142 186.634 161.187 187.416 161.187 187.416L171.502 197.732C172.416 198.646 171.676 199.213 171.676 199.213L169.848 201.041L172.111 204.262L176.68 199.693L180.553 203.566L182.904 201.215L179.074 197.385L180.815 195.644L184.602 199.43L186.953 197.08L183.08 193.207C187.475 188.463 188.129 184.937 184.473 181.109C180.815 177.279 176.901 180.152 176.901 180.152L176.898 180.148ZM164.146 182.716L166.756 180.105C166.756 180.105 169.412 177.363 171.762 179.714C174.113 182.064 170.936 185.154 170.936 185.154L168.76 187.33L164.147 182.718L164.146 182.716ZM179.031 191.855L176.201 194.685L171.109 189.593L173.982 186.72C173.982 186.72 177.332 183.107 180.031 185.806C182.729 188.505 179.031 191.855 179.031 191.855Z" fill="#CC8232"/>
<path d="M175.846 179.096C175.846 179.096 176.891 176.224 174.803 174.135C169.841 169.174 164.53 175.092 164.53 175.092L160.744 171.306L158.393 173.656L162.18 177.443L160.483 179.139L156.696 175.353L154.346 177.703L158.133 181.49L153.649 185.973L156.174 188.498L158.133 186.539C159.09 185.582 160.135 186.365 160.135 186.365L170.45 196.68C171.364 197.594 170.624 198.161 170.624 198.161L168.796 199.989L171.059 203.21L175.629 198.641L179.501 202.514L181.852 200.163L178.022 196.334L179.764 194.592L183.55 198.379L185.901 196.028L182.028 192.155C186.423 187.412 187.077 183.885 183.421 180.057C179.764 176.227 175.849 179.1 175.849 179.1L175.846 179.096ZM163.094 181.664L165.705 179.053C165.705 179.053 168.36 176.312 170.711 178.662C173.061 181.012 169.885 184.102 169.885 184.102L167.708 186.279L163.096 181.666L163.094 181.664ZM177.979 190.803L175.149 193.633L170.057 188.541L172.93 185.668C172.93 185.668 176.28 182.055 178.979 184.754C181.678 187.453 177.979 190.803 177.979 190.803Z" fill="#FFE357"/>
<path d="M234.689 158.826C254.852 155.638 268.613 136.708 265.424 116.545C262.236 96.3823 243.307 82.6214 223.144 85.8095C202.981 88.9976 189.22 107.927 192.408 128.09C195.596 148.253 214.526 162.014 234.689 158.826Z" fill="#FFE255"/>
<path d="M234.545 157.918C254.207 154.809 267.625 136.35 264.516 116.689C261.408 97.0275 242.949 83.6089 223.287 86.7177C203.626 89.8265 190.207 108.285 193.316 127.947C196.425 147.608 214.884 161.027 234.545 157.918Z" fill="#FFCC3E"/>
<path d="M233.49 151.244C249.466 148.718 260.369 133.72 257.843 117.745C255.317 101.769 240.318 90.8662 224.343 93.3921C208.367 95.9181 197.464 110.916 199.99 126.892C202.516 142.867 217.515 153.77 233.49 151.244Z" fill="#FFE357"/>
<path d="M233.341 150.3C248.794 147.856 259.34 133.348 256.897 117.895C254.454 102.442 239.945 91.8951 224.492 94.3385C209.039 96.7819 198.492 111.29 200.936 126.743C203.379 142.196 217.887 152.743 233.341 150.3Z" fill="#E59638"/>
<path d="M256.899 117.894C256.956 118.255 257.006 118.617 257.05 118.978C254.117 104.117 239.928 94.1134 224.836 96.4995C209.745 98.8857 199.334 112.777 201.129 127.82C201.06 127.463 200.995 127.103 200.938 126.742C198.495 111.29 209.042 96.7808 224.495 94.3376C239.947 91.8943 254.456 102.441 256.899 117.894Z" fill="#CC8232"/>
<path d="M265.425 116.545C268.575 136.467 255.179 155.185 235.41 158.704C235.17 158.747 234.93 158.787 234.689 158.826C233.51 159.012 232.335 159.141 231.167 159.213C229.52 159.316 227.888 159.307 226.276 159.192C221.838 158.878 217.57 157.766 213.642 155.978C212.661 155.532 211.702 155.046 210.768 154.518C207.525 152.688 204.567 150.374 202.007 147.661C201.074 146.672 200.195 145.631 199.372 144.537C198.604 143.52 197.889 142.461 197.229 141.359C196.514 140.169 195.86 138.93 195.278 137.652C194.249 135.391 193.436 132.995 192.87 130.488C192.691 129.698 192.539 128.9 192.411 128.09C192.35 127.706 192.295 127.324 192.247 126.941C192.462 128.069 192.724 129.176 193.037 130.261C193.719 132.636 194.624 134.899 195.73 137.033C196.36 138.252 197.058 139.43 197.815 140.56C198.515 141.608 199.269 142.618 200.069 143.584C200.931 144.625 201.848 145.616 202.817 146.553C205.492 149.146 208.546 151.324 211.869 153.009C212.833 153.499 213.822 153.947 214.832 154.351C218.913 155.988 223.324 156.91 227.887 156.988C229.57 157.015 231.271 156.931 232.986 156.722C233.436 156.669 233.883 156.606 234.332 156.535C235.391 156.368 236.432 156.157 237.454 155.905C255.524 151.449 267.598 134.076 265.232 115.406C265.305 115.785 265.37 116.165 265.431 116.549L265.425 116.545Z" fill="#E59638"/>
<path d="M215.886 147.474L210.765 154.518C207.522 152.689 204.565 150.375 202.004 147.661L202.811 146.552L207.199 140.516C209.61 143.389 212.57 145.754 215.886 147.474Z" fill="#FFE357"/>
<path d="M253.947 95.1202L248.826 102.164C246.165 99.5411 243.002 97.4549 239.527 96.0479L244.722 88.9024C248.093 90.5005 251.206 92.5996 253.947 95.1202Z" fill="#FFE357"/>
<path d="M204.758 137.125L199.371 144.535C198.603 143.518 197.888 142.458 197.228 141.357L202.904 133.549C203.44 134.794 204.061 135.986 204.76 137.122L204.758 137.125Z" fill="#FFE357"/>
<path d="M240.937 87.3559L235.551 94.7658C234.254 94.4515 232.926 94.2296 231.579 94.1031L237.255 86.2953C238.507 86.5859 239.735 86.9393 240.939 87.353L240.937 87.3559Z" fill="#FFE357"/>
<path d="M244.805 145.782L237.448 155.901L235.411 158.704C235.171 158.748 234.93 158.788 234.689 158.826C233.511 159.013 232.336 159.142 231.167 159.213L238.642 148.931C240.849 148.127 242.912 147.063 244.805 145.782Z" fill="#FFE357"/>
<path d="M265.424 116.545C265.462 116.786 265.501 117.027 265.531 117.269L256.137 130.192C256.774 127.996 257.15 125.705 257.231 123.358L264.706 113.075C264.998 114.209 265.238 115.366 265.424 116.545Z" fill="#FFE357"/>
<path d="M200.936 126.742C201.067 127.57 201.232 128.387 201.433 129.186L195.729 137.031L195.278 137.653C194.249 135.391 193.436 132.995 192.87 130.488L200.701 119.715C200.491 122.008 200.56 124.365 200.936 126.742Z" fill="#FFE357"/>
<path d="M233.124 85.5867L226.969 94.0539C226.148 94.1118 225.322 94.2038 224.491 94.3351C222.114 94.711 219.851 95.3722 217.734 96.2801L225.566 85.5066C228.125 85.2716 230.653 85.3065 233.124 85.5867Z" fill="#FFE357"/>
<path d="M232.67 150.397L226.276 159.193C221.838 158.879 217.569 157.767 213.641 155.979L214.828 154.347L218.857 148.805C223.127 150.43 227.844 151.044 232.672 150.397L232.67 150.397Z" fill="#FFE357"/>
<path d="M263.179 108.429L256.786 117.224C255.913 112.434 253.873 108.134 251.009 104.574L256.224 97.3994C259.137 100.584 261.511 104.302 263.179 108.426L263.179 108.429Z" fill="#FFE357"/>
<path d="M211.865 153.006L210.767 154.516C207.524 152.687 204.567 150.373 202.007 147.659L202.813 146.55C205.488 149.142 208.542 151.32 211.865 153.006Z" fill="#FCBB47"/>
<path d="M200.065 143.582L199.371 144.537C198.603 143.52 197.888 142.461 197.228 141.359L197.811 140.558C198.511 141.606 199.265 142.616 200.065 143.582Z" fill="#FCBB47"/>
<path d="M237.448 155.9L235.41 158.703C235.17 158.747 234.93 158.787 234.689 158.825C233.51 159.012 232.335 159.141 231.167 159.213L232.98 156.717C233.43 156.664 233.877 156.601 234.326 156.53C235.385 156.363 236.426 156.152 237.448 155.9Z" fill="#FCBB47"/>
<path d="M195.727 137.031L195.275 137.653C194.247 135.391 193.433 132.995 192.867 130.488L193.034 130.259C193.716 132.634 194.621 134.897 195.727 137.031Z" fill="#FCBB47"/>
<path d="M227.881 156.984L226.276 159.191C221.838 158.877 217.57 157.766 213.642 155.978L214.828 154.345C218.91 155.983 223.321 156.905 227.883 156.983L227.881 156.984Z" fill="#FCBB47"/>
<path d="M236.886 120.921C236.886 120.921 239.421 119.212 238.96 116.295C237.864 109.365 230.088 111.029 230.088 111.029L229.252 105.739L225.968 106.258L226.805 111.548L224.435 111.923L223.598 106.633L220.315 107.152L221.152 112.442L214.889 113.432L215.446 116.959L218.183 116.526C219.52 116.315 219.904 117.562 219.904 117.562L222.183 131.971C222.385 133.248 221.453 133.272 221.453 133.272L218.899 133.676L218.835 137.611L225.218 136.602L226.074 142.012L229.357 141.493L228.511 136.143L230.944 135.759L231.78 141.048L235.063 140.529L234.208 135.119C240.553 133.866 243.155 131.398 242.449 126.152C241.742 120.904 236.887 120.926 236.887 120.926L236.886 120.921ZM225.062 115.5L228.709 114.923C228.709 114.923 232.469 114.267 232.988 117.55C233.507 120.833 229.121 121.465 229.121 121.465L226.081 121.946L225.062 115.502L225.062 115.5ZM231.728 131.645L227.775 132.27L226.651 125.157L230.663 124.522C230.663 124.522 235.498 123.57 236.094 127.34C236.69 131.11 231.728 131.645 231.728 131.645Z" fill="#CC8232"/>
<path d="M236.653 119.452C236.653 119.452 239.188 117.743 238.727 114.826C237.631 107.896 229.855 109.56 229.855 109.56L229.019 104.271L225.736 104.79L226.572 110.079L224.202 110.454L223.365 105.164L220.082 105.684L220.919 110.973L214.656 111.963L215.213 115.49L217.95 115.057C219.287 114.846 219.672 116.093 219.672 116.093L221.95 130.503C222.152 131.779 221.22 131.803 221.22 131.803L218.666 132.207L218.602 136.143L224.986 135.133L225.841 140.543L229.124 140.024L228.278 134.674L230.711 134.29L231.547 139.579L234.831 139.06L233.975 133.65C240.32 132.398 242.922 129.93 242.216 124.684C241.509 119.435 236.654 119.457 236.654 119.457L236.653 119.452ZM224.829 114.031L228.476 113.455C228.476 113.455 232.236 112.798 232.755 116.081C233.274 119.365 228.888 119.996 228.888 119.996L225.848 120.477L224.829 114.034L224.829 114.031ZM231.495 130.176L227.542 130.801L226.418 123.688L230.431 123.053C230.431 123.053 235.265 122.101 235.861 125.871C236.457 129.641 231.495 130.176 231.495 130.176Z" fill="#FFE357"/>
<path d="M332.293 231.963C342.539 214.307 336.532 191.688 318.877 181.442C301.221 171.196 278.602 177.202 268.356 194.858C258.11 212.513 264.116 235.132 281.772 245.379C299.427 255.625 322.046 249.618 332.293 231.963Z" fill="#FFE255"/>
<path d="M331.498 231.501C341.489 214.285 335.632 192.228 318.415 182.237C301.199 172.245 279.142 178.102 269.151 195.319C259.16 212.535 265.017 234.592 282.233 244.583C299.45 254.575 321.506 248.718 331.498 231.501Z" fill="#FFCC3E"/>
<path d="M325.654 228.11C333.772 214.121 329.013 196.2 315.024 188.081C301.036 179.963 283.114 184.722 274.996 198.711C266.878 212.7 271.637 230.621 285.625 238.74C299.614 246.858 317.536 242.099 325.654 228.11Z" fill="#FFE357"/>
<path d="M324.826 227.629C332.679 214.098 328.075 196.762 314.544 188.909C301.012 181.056 283.676 185.66 275.824 199.191C267.971 212.723 272.574 230.058 286.106 237.911C299.637 245.764 316.973 241.161 324.826 227.629Z" fill="#E59638"/>
<path d="M314.545 188.907C314.862 189.091 315.174 189.281 315.482 189.474C302.101 182.375 285.387 187.073 277.718 200.288C270.049 213.503 274.26 230.344 287.064 238.441C286.744 238.27 286.424 238.093 286.107 237.909C272.576 230.057 267.973 212.72 275.825 199.189C283.678 185.658 301.014 181.055 314.545 188.907Z" fill="#CC8232"/>
<path d="M318.877 181.442C336.322 191.566 342.394 213.768 332.653 231.326C332.535 231.54 332.415 231.752 332.293 231.963C331.694 232.995 331.053 233.988 330.371 234.94C329.412 236.283 328.376 237.543 327.27 238.721C324.226 241.967 320.671 244.577 316.806 246.497C315.841 246.977 314.859 247.414 313.859 247.806C310.394 249.168 306.733 250.003 303.012 250.277C301.657 250.377 300.294 250.403 298.926 250.352C297.653 250.305 296.38 250.192 295.109 250.009C293.734 249.813 292.361 249.539 291.002 249.185C288.598 248.556 286.226 247.676 283.923 246.533C283.198 246.174 282.483 245.788 281.773 245.376C281.437 245.181 281.106 244.983 280.779 244.779C281.789 245.324 282.814 245.819 283.853 246.26C286.126 247.23 288.453 247.955 290.806 248.443C292.15 248.724 293.504 248.925 294.858 249.05C296.114 249.168 297.372 249.221 298.627 249.209C299.978 249.198 301.326 249.111 302.664 248.951C306.363 248.511 309.979 247.515 313.383 246C314.372 245.561 315.343 245.076 316.293 244.547C320.139 242.413 323.637 239.573 326.576 236.082C327.659 234.793 328.667 233.42 329.586 231.957C329.829 231.575 330.062 231.188 330.29 230.795C330.828 229.868 331.321 228.927 331.771 227.975C339.713 211.143 333.85 190.816 317.871 180.873C318.212 181.056 318.548 181.245 318.884 181.44L318.877 181.442Z" fill="#E59638"/>
<path d="M311.623 239.392L313.858 247.808C310.393 249.171 306.732 250.005 303.011 250.28L302.659 248.954L300.744 241.742C304.494 241.684 308.196 240.879 311.623 239.392Z" fill="#FFE357"/>
<path d="M295.012 176.832L297.247 185.248C293.533 185.659 289.919 186.797 286.635 188.605L284.368 180.067C287.735 178.46 291.327 177.368 295.012 176.832Z" fill="#FFE357"/>
<path d="M296.573 241.496L298.924 250.35C297.65 250.304 296.377 250.191 295.106 250.008L292.629 240.679C293.932 241.048 295.249 241.318 296.572 241.493L296.573 241.496Z" fill="#FFE357"/>
<path d="M280.781 182.028L283.132 190.882C282.07 191.69 281.06 192.58 280.113 193.545L277.635 184.216C278.65 183.428 279.699 182.698 280.78 182.024L280.781 182.028Z" fill="#FFE357"/>
<path d="M328.553 215.885L331.764 227.977L332.654 231.326C332.536 231.539 332.416 231.752 332.293 231.962C331.694 232.995 331.053 233.988 330.372 234.94L327.109 222.653C327.878 220.433 328.354 218.161 328.553 215.885Z" fill="#FFE357"/>
<path d="M318.877 181.442C319.088 181.564 319.299 181.686 319.506 181.815L323.606 197.257C322.304 195.377 320.764 193.64 318.994 192.096L315.731 179.81C316.795 180.298 317.845 180.842 318.877 181.442Z" fill="#FFE357"/>
<path d="M286.105 237.911C286.83 238.332 287.568 238.719 288.315 239.067L290.804 248.442L291.001 249.184C288.598 248.556 286.226 247.675 283.923 246.533L280.505 233.66C282.151 235.27 284.023 236.703 286.105 237.911Z" fill="#FFE357"/>
<path d="M274.479 186.973L277.166 197.09C276.693 197.764 276.243 198.463 275.821 199.19C274.613 201.272 273.698 203.445 273.067 205.66L269.649 192.787C271.081 190.653 272.703 188.714 274.479 186.973Z" fill="#FFE357"/>
<path d="M324.478 228.211L327.269 238.721C324.226 241.966 320.671 244.577 316.805 246.497L316.287 244.546L314.529 237.924C318.484 235.636 321.936 232.364 324.48 228.209L324.478 228.211Z" fill="#FFE357"/>
<path d="M311.163 178.064L313.954 188.573C309.686 186.229 305.063 185.099 300.494 185.075L298.218 176.502C302.526 176.252 306.908 176.754 311.161 178.062L311.163 178.064Z" fill="#FFE357"/>
<path d="M313.377 245.999L313.856 247.804C310.391 249.167 306.73 250.001 303.009 250.276L302.657 248.95C306.356 248.51 309.973 247.515 313.377 245.999Z" fill="#FCBB47"/>
<path d="M298.622 249.21L298.926 250.351C297.652 250.305 296.379 250.192 295.108 250.009L294.854 249.051C296.109 249.169 297.368 249.221 298.622 249.21Z" fill="#FCBB47"/>
<path d="M331.763 227.977L332.653 231.326C332.535 231.539 332.415 231.751 332.292 231.962C331.693 232.995 331.052 233.988 330.371 234.94L329.579 231.958C329.821 231.576 330.055 231.189 330.283 230.796C330.821 229.869 331.314 228.928 331.763 227.977Z" fill="#FCBB47"/>
<path d="M290.803 248.444L291 249.187C288.597 248.558 286.224 247.678 283.922 246.535L283.849 246.261C286.123 247.231 288.45 247.956 290.803 248.444Z" fill="#FCBB47"/>
<path d="M326.569 236.084L327.269 238.721C324.226 241.967 320.671 244.578 316.805 246.498L316.287 244.547C320.133 242.413 323.631 239.572 326.57 236.081L326.569 236.084Z" fill="#FCBB47"/>
<path d="M304.269 206.346C304.269 206.346 304.541 203.301 301.987 201.818C295.919 198.297 292.305 205.38 292.305 205.38L287.673 202.692L286.004 205.567L290.636 208.255L289.432 210.33L284.8 207.642L283.132 210.517L287.763 213.205L284.581 218.689L287.669 220.481L289.059 218.085C289.739 216.914 290.95 217.403 290.95 217.403L303.567 224.725C304.685 225.374 304.115 226.112 304.115 226.112L302.818 228.348L305.831 230.881L309.075 225.291L313.812 228.04L315.481 225.165L310.796 222.447L312.032 220.317L316.664 223.005L318.333 220.13L313.595 217.38C316.626 211.667 316.353 208.091 311.837 205.33C307.319 202.567 304.273 206.348 304.273 206.348L304.269 206.346ZM292.603 212.1L294.456 208.907C294.456 208.907 296.319 205.575 299.194 207.244C302.069 208.912 299.792 212.714 299.792 212.714L298.247 215.376L292.605 212.101L292.603 212.1ZM309.335 217.113L307.326 220.574L301.098 216.96L303.137 213.446C303.137 213.446 305.448 209.094 308.749 211.01C312.05 212.925 309.335 217.113 309.335 217.113Z" fill="#CC8232"/>
<path d="M302.982 205.6C302.982 205.6 303.255 202.555 300.7 201.072C294.632 197.551 291.018 204.634 291.018 204.634L286.386 201.946L284.718 204.821L289.349 207.509L288.145 209.584L283.513 206.896L281.845 209.771L286.477 212.459L283.294 217.943L286.382 219.735L287.772 217.339C288.452 216.168 289.663 216.657 289.663 216.657L302.28 223.979C303.398 224.628 302.828 225.366 302.828 225.366L301.531 227.602L304.544 230.134L307.788 224.545L312.525 227.294L314.194 224.419L309.509 221.701L310.745 219.57L315.377 222.258L317.046 219.384L312.308 216.634C315.339 210.921 315.066 207.345 310.55 204.584C306.032 201.821 302.986 205.602 302.986 205.602L302.982 205.6ZM291.316 211.354L293.169 208.161C293.169 208.161 295.032 204.829 297.907 206.498C300.782 208.166 298.505 211.968 298.505 211.968L296.96 214.63L291.318 211.355L291.316 211.354ZM308.048 216.367L306.039 219.828L299.811 216.213L301.85 212.699C301.85 212.699 304.161 208.348 307.462 210.264C310.763 212.179 308.048 216.367 308.048 216.367Z" fill="#FFE357"/>
<path d="M287.489 189.078C297.735 171.422 291.729 148.804 274.073 138.557C256.418 128.311 233.799 134.318 223.552 151.973C213.306 169.629 219.313 192.248 236.968 202.494C254.624 212.74 277.243 206.734 287.489 189.078Z" fill="#FFE255"/>
<path d="M286.694 188.616C296.685 171.4 290.828 149.343 273.612 139.352C256.395 129.361 234.339 135.218 224.347 152.434C214.356 169.651 220.213 191.707 237.43 201.698C254.646 211.69 276.702 205.833 286.694 188.616Z" fill="#FFCC3E"/>
<path d="M280.85 185.225C288.969 171.236 284.21 153.315 270.221 145.197C256.232 137.078 238.311 141.837 230.192 155.826C222.074 169.815 226.833 187.736 240.822 195.855C254.811 203.973 272.732 199.214 280.85 185.225Z" fill="#FFE357"/>
<path d="M280.022 184.744C287.875 171.213 283.272 153.877 269.74 146.024C256.208 138.171 238.873 142.775 231.02 156.307C223.167 169.838 227.771 187.174 241.302 195.027C254.834 202.88 272.169 198.276 280.022 184.744Z" fill="#E59638"/>
<path d="M269.742 146.022C270.058 146.206 270.37 146.396 270.678 146.589C257.297 139.49 240.584 144.189 232.915 157.403C225.246 170.618 229.456 187.459 242.26 195.556C241.94 195.385 241.62 195.208 241.304 195.025C227.773 187.172 223.169 169.835 231.022 156.305C238.874 142.774 256.211 138.17 269.742 146.022Z" fill="#CC8232"/>
<path d="M274.073 138.557C291.518 148.681 297.59 170.883 287.85 188.442C287.732 188.655 287.612 188.867 287.489 189.078C286.89 190.11 286.249 191.103 285.568 192.055C284.609 193.399 283.572 194.659 282.466 195.837C279.423 199.082 275.867 201.693 272.002 203.613C271.037 204.092 270.055 204.529 269.056 204.921C265.59 206.283 261.929 207.118 258.209 207.393C256.853 207.492 255.491 207.518 254.123 207.467C252.849 207.421 251.576 207.307 250.305 207.125C248.93 206.929 247.557 206.654 246.198 206.3C243.794 205.671 241.422 204.791 239.12 203.648C238.395 203.289 237.679 202.903 236.97 202.492C236.634 202.297 236.302 202.099 235.975 201.894C236.986 202.439 238.011 202.934 239.049 203.375C241.322 204.345 243.65 205.071 246.003 205.558C247.346 205.839 248.7 206.04 250.054 206.166C251.31 206.284 252.569 206.336 253.823 206.324C255.174 206.313 256.522 206.226 257.86 206.066C261.559 205.626 265.176 204.63 268.58 203.115C269.569 202.676 270.54 202.192 271.49 201.662C275.335 199.528 278.833 196.688 281.772 193.197C282.855 191.908 283.863 190.535 284.783 189.072C285.025 188.69 285.258 188.303 285.487 187.91C286.024 186.983 286.518 186.042 286.967 185.091C294.909 168.259 289.047 147.931 273.068 137.988C273.408 138.171 273.744 138.36 274.08 138.555L274.073 138.557Z" fill="#E59638"/>
<path d="M266.819 196.507L269.054 204.923C265.589 206.286 261.928 207.121 258.207 207.395L257.855 206.069L255.94 198.857C259.69 198.799 263.393 197.994 266.819 196.507Z" fill="#FFE357"/>
<path d="M250.208 133.947L252.443 142.364C248.729 142.774 245.115 143.912 241.832 145.72L239.564 137.182C242.931 135.575 246.524 134.483 250.208 133.947Z" fill="#FFE357"/>
<path d="M251.769 198.612L254.12 207.466C252.846 207.419 251.573 207.306 250.303 207.123L247.825 197.794C249.129 198.163 250.445 198.434 251.768 198.608L251.769 198.612Z" fill="#FFE357"/>
<path d="M235.977 139.143L238.328 147.997C237.267 148.805 236.257 149.695 235.309 150.66L232.832 141.331C233.847 140.543 234.896 139.813 235.976 139.14L235.977 139.143Z" fill="#FFE357"/>
<path d="M283.75 173L286.961 185.092L287.85 188.441C287.732 188.655 287.612 188.867 287.49 189.078C286.891 190.11 286.25 191.103 285.568 192.055L282.305 179.768C283.074 177.549 283.55 175.277 283.75 173Z" fill="#FFE357"/>
<path d="M274.073 138.557C274.284 138.679 274.495 138.801 274.702 138.93L278.802 154.372C277.501 152.492 275.96 150.755 274.19 149.212L270.928 136.925C271.992 137.413 273.041 137.958 274.073 138.557Z" fill="#FFE357"/>
<path d="M241.302 195.026C242.027 195.447 242.765 195.834 243.511 196.182L246.001 205.557L246.198 206.3C243.794 205.671 241.422 204.791 239.12 203.648L235.701 190.775C237.347 192.385 239.22 193.818 241.302 195.026Z" fill="#FFE357"/>
<path d="M229.676 144.088L232.362 154.206C231.889 154.879 231.439 155.578 231.017 156.305C229.809 158.387 228.894 160.56 228.264 162.775L224.845 149.902C226.278 147.768 227.899 145.829 229.676 144.088Z" fill="#FFE357"/>
<path d="M279.675 185.326L282.466 195.836C279.422 199.081 275.867 201.692 272.002 203.612L271.484 201.661L269.725 195.039C273.681 192.752 277.133 189.479 279.676 185.324L279.675 185.326Z" fill="#FFE357"/>
<path d="M266.359 135.179L269.15 145.688C264.883 143.344 260.26 142.214 255.691 142.19L253.414 133.617C257.723 133.367 262.105 133.869 266.357 135.178L266.359 135.179Z" fill="#FFE357"/>
<path d="M268.574 203.115L269.053 204.919C265.588 206.282 261.927 207.117 258.206 207.391L257.854 206.065C261.553 205.626 265.169 204.63 268.574 203.115Z" fill="#FCBB47"/>
<path d="M253.819 206.325L254.122 207.467C252.848 207.42 251.575 207.307 250.305 207.124L250.05 206.166C251.306 206.284 252.564 206.337 253.819 206.325Z" fill="#FCBB47"/>
<path d="M286.96 185.092L287.849 188.441C287.731 188.655 287.611 188.867 287.489 189.078C286.89 190.11 286.249 191.103 285.567 192.055L284.775 189.074C285.017 188.692 285.251 188.304 285.479 187.911C286.017 186.984 286.51 186.044 286.96 185.092Z" fill="#FCBB47"/>
<path d="M245.999 205.559L246.197 206.302C243.793 205.673 241.421 204.793 239.119 203.65L239.046 203.376C241.319 204.346 243.646 205.071 245.999 205.559Z" fill="#FCBB47"/>
<path d="M281.765 193.199L282.466 195.837C279.422 199.082 275.867 201.693 272.002 203.613L271.484 201.662C275.329 199.528 278.827 196.688 281.766 193.197L281.765 193.199Z" fill="#FCBB47"/>
<path d="M259.465 163.461C259.465 163.461 259.738 160.416 257.184 158.934C251.115 155.412 247.501 162.495 247.501 162.495L242.869 159.807L241.201 162.682L245.833 165.37L244.628 167.445L239.996 164.757L238.328 167.632L242.96 170.32L239.777 175.804L242.865 177.596L244.256 175.2C244.935 174.03 246.146 174.518 246.146 174.518L258.763 181.84C259.881 182.489 259.312 183.227 259.312 183.227L258.014 185.463L261.028 187.996L264.271 182.406L269.009 185.156L270.677 182.281L265.992 179.562L267.229 177.432L271.861 180.12L273.529 177.245L268.792 174.496C271.822 168.783 271.549 165.207 267.033 162.445C262.515 159.682 259.47 163.463 259.47 163.463L259.465 163.461ZM247.799 169.215L249.653 166.022C249.653 166.022 251.516 162.69 254.39 164.359C257.265 166.027 254.988 169.829 254.988 169.829L253.444 172.491L247.802 169.217L247.799 169.215ZM264.531 174.228L262.523 177.689L256.294 174.075L258.334 170.561C258.334 170.561 260.645 166.209 263.945 168.125C267.246 170.041 264.531 174.228 264.531 174.228Z" fill="#CC8232"/>
<path d="M258.178 162.715C258.178 162.715 258.451 159.67 255.897 158.188C249.829 154.666 246.214 161.749 246.214 161.749L241.582 159.061L239.914 161.936L244.546 164.624L243.341 166.699L238.709 164.011L237.041 166.886L241.673 169.574L238.49 175.058L241.578 176.85L242.969 174.454C243.648 173.283 244.859 173.772 244.859 173.772L257.476 181.094C258.594 181.743 258.025 182.481 258.025 182.481L256.727 184.717L259.741 187.25L262.984 181.66L267.722 184.409L269.39 181.535L264.706 178.816L265.942 176.686L270.574 179.374L272.242 176.499L267.505 173.75C270.536 168.037 270.262 164.461 265.746 161.699C261.228 158.936 258.183 162.717 258.183 162.717L258.178 162.715ZM246.512 168.469L248.366 165.276C248.366 165.276 250.229 161.944 253.104 163.613C255.978 165.281 253.702 169.083 253.702 169.083L252.157 171.745L246.515 168.47L246.512 168.469ZM263.245 173.482L261.236 176.943L255.007 173.329L257.047 169.815C257.047 169.815 259.358 165.463 262.659 167.379C265.96 169.294 263.245 173.482 263.245 173.482Z" fill="#FFE357"/>
</g>
</g>
<defs>
<clipPath id="clip0_2992_5198">
<rect width="484" height="361" fill="white" transform="translate(0 0.120117)"/>
</clipPath>
<clipPath id="clip1_2992_5198">
<rect width="447.837" height="541.585" fill="white" transform="translate(-30.585 418.378) rotate(-90)"/>
</clipPath>
</defs>
</svg>
