<svg width="410" height="306" viewBox="0 0 410 306" fill="none" xmlns="http://www.w3.org/2000/svg">
<path d="M0 8C0 3.58172 3.58172 0 8 0H402C406.418 0 410 3.58172 410 8V306H0V8Z" fill="#1B1B1B"/>
<mask id="mask0_1413_5939" style="mask-type:luminance" maskUnits="userSpaceOnUse" x="0" y="0" width="410" height="306">
<path d="M8.52625 0.005852H401.474C406.179 0.005852 410 3.90245 410 8.70006V306H0V8.69421C0 3.8966 3.82132 0 8.52625 0V0.005852Z" fill="white"/>
</mask>
<g mask="url(#mask0_1413_5939)">
<path opacity="0.76" d="M291.741 151.269C291.741 151.269 290.892 140.012 302.78 143.475C302.78 143.475 307.451 133.517 315.948 136.548C324.44 139.579 318.496 135.975 318.496 135.975C318.496 135.975 328.686 121.541 340.58 135.975C340.58 135.975 351.195 138.28 350.77 142.609C350.77 142.609 363.084 144.774 359.262 153L291.735 151.269H291.741Z" fill="#E2E2E2"/>
<g filter="url(#filter0_d_1413_5939)">
<path d="M258.444 112.673C248.42 143.424 215.842 160.082 185.684 149.86C155.527 139.639 139.191 106.418 149.215 75.6669C159.239 44.9154 191.818 28.2583 221.975 38.4795C252.133 48.7008 268.468 81.9214 258.444 112.673Z" fill="#CC7617"/>
<path d="M251.088 110.181C241.064 140.932 208.485 157.589 178.328 147.368C148.17 137.147 131.835 103.926 141.859 73.1745C151.883 42.423 184.461 25.7659 214.619 35.9872C244.776 46.2084 261.111 79.429 251.088 110.181Z" fill="#EB9B0B"/>
<path d="M179.607 143.623H179.556C178.678 143.307 177.823 142.991 176.968 142.658L179.785 135.286C180.508 135.579 181.248 135.842 181.994 136.105L179.602 143.635V143.623H179.607ZM183.652 144.823L185.5 137.135C186.286 137.334 187.066 137.503 187.852 137.661L186.378 145.431C185.46 145.244 184.553 145.051 183.635 144.823H183.647H183.652ZM173.112 140.944C172.257 140.522 171.431 140.084 170.605 139.627L174.34 132.688C175.04 133.086 175.752 133.455 176.474 133.812L173.112 140.944ZM190.561 146.075L191.415 138.217C192.219 138.311 193.005 138.375 193.808 138.428L193.355 146.326C192.425 146.274 191.49 146.192 190.561 146.087V146.075ZM166.996 137.422C166.21 136.895 165.429 136.351 164.683 135.789L169.285 129.418C169.916 129.892 170.576 130.354 171.253 130.804L166.996 137.422ZM197.555 146.402L197.411 138.492C198.215 138.481 199.001 138.44 199.793 138.375L200.361 146.262C199.431 146.326 198.484 146.379 197.555 146.397V146.408V146.402ZM161.384 133.11C160.673 132.478 159.99 131.846 159.313 131.185L164.678 125.474C165.257 126.042 165.854 126.598 166.462 127.124L161.379 133.11H161.384ZM204.555 145.782L203.39 137.96C204.176 137.843 204.968 137.697 205.743 137.527L207.32 145.279C206.402 145.478 205.484 145.648 204.555 145.782ZM156.392 128.084C155.773 127.37 155.165 126.633 154.579 125.896L160.633 120.952C161.138 121.584 161.654 122.215 162.182 122.824L156.387 128.084H156.392ZM211.394 144.238L209.237 136.643C210 136.421 210.763 136.17 211.515 135.906L214.062 143.383C213.184 143.699 212.289 143.992 211.383 144.255L211.394 144.244V144.238ZM152.072 122.426C151.544 121.636 151.039 120.829 150.557 120.027L157.19 115.926C157.603 116.622 158.045 117.313 158.498 117.997L152.072 122.444V122.432V122.426ZM217.987 141.798L214.883 134.543C215.617 134.215 216.346 133.87 217.057 133.502L220.534 140.569C219.691 141.002 218.853 141.4 217.987 141.78V141.792V141.798ZM148.526 116.254C148.113 115.394 147.711 114.539 147.338 113.668L154.436 110.479C154.757 111.228 155.096 111.971 155.457 112.696L148.526 116.242V116.254ZM224.224 138.516L220.213 131.735C220.896 131.313 221.573 130.875 222.244 130.418L226.588 136.971C225.813 137.509 225.021 138.024 224.224 138.516ZM145.789 109.677C145.479 108.782 145.192 107.869 144.934 106.945L152.382 104.728C152.6 105.506 152.847 106.284 153.116 107.062L145.795 109.671H145.783L145.789 109.677ZM229.979 134.432L225.142 128.248C225.761 127.744 226.381 127.218 226.978 126.68L232.125 132.601C231.425 133.232 230.702 133.853 229.967 134.449L229.979 134.438V134.432ZM143.913 102.797C143.718 101.861 143.551 100.925 143.408 99.9885L151.079 98.7891C151.194 99.5906 151.338 100.398 151.504 101.188L143.913 102.797ZM235.166 129.605L229.577 124.117C230.134 123.526 230.679 122.929 231.195 122.309L237.065 127.493C236.445 128.218 235.808 128.932 235.166 129.617V129.605ZM142.932 95.7116C142.869 94.7638 142.817 93.8101 142.8 92.8506L150.557 92.6809C150.569 93.5 150.609 94.3133 150.672 95.1207L142.938 95.6999L142.926 95.7116H142.932ZM239.704 124.129L233.456 119.436C233.932 118.775 234.385 118.12 234.827 117.43L241.305 121.783C240.789 122.584 240.255 123.362 239.704 124.129ZM142.88 88.5503C142.932 87.6024 143.012 86.6488 143.115 85.6892L150.821 86.561C150.729 87.3801 150.666 88.1817 150.615 89.0008L142.869 88.5503H142.88ZM243.485 118.091L236.68 114.282C237.071 113.568 237.432 112.843 237.782 112.105L244.765 115.546C244.352 116.406 243.921 117.26 243.474 118.091H243.485ZM143.747 81.4533C143.93 80.5172 144.119 79.5928 144.343 78.6566L151.883 80.5406C151.688 81.3304 151.521 82.1378 151.366 82.9277L143.747 81.4358V81.4475V81.4533ZM246.457 111.614L239.228 108.741C239.515 107.975 239.796 107.214 240.043 106.436L240.094 106.249L247.479 108.677L247.398 108.928C247.1 109.841 246.779 110.736 246.44 111.62H246.452L246.457 111.614ZM145.502 74.5202L145.542 74.4149C145.829 73.5431 146.122 72.6889 146.449 71.8405L153.69 74.7015C153.42 75.427 153.145 76.1642 152.915 76.919L145.519 74.5319L145.508 74.5202H145.502ZM241.087 102.703C241.282 101.902 241.448 101.106 241.592 100.304L249.223 101.767C249.057 102.703 248.85 103.628 248.626 104.564L241.087 102.692V102.703ZM155.113 71.3315L148.119 67.903C148.52 67.0312 148.962 66.1887 149.398 65.3579L156.203 69.155C155.813 69.8688 155.451 70.5943 155.101 71.3315H155.113ZM242.137 96.677C242.229 95.8579 242.292 95.0563 242.332 94.2372L250.078 94.6701C250.026 95.618 249.946 96.5716 249.843 97.5312L242.137 96.6711V96.677ZM158.062 66.0015L151.573 61.6602C152.089 60.8587 152.623 60.0805 153.174 59.3024L159.433 63.9713C158.969 64.6324 158.504 65.3052 158.062 65.9898V66.0015ZM242.384 90.5571C242.372 89.738 242.321 88.9364 242.269 88.1173L250.003 87.5088C250.084 88.4567 250.118 89.4103 250.147 90.3698L242.389 90.5571H242.384ZM161.671 61.1219L155.801 55.9499C156.41 55.2244 157.041 54.5106 157.689 53.8261L163.289 59.2965C162.733 59.8874 162.188 60.4959 161.671 61.1161V61.1219ZM241.856 84.4781C241.724 83.6766 241.586 82.8692 241.414 82.0676L249.005 80.4353C249.2 81.3714 249.366 82.2958 249.51 83.2436L241.839 84.4723L241.85 84.484L241.856 84.4781ZM165.888 56.7573L160.73 50.848C161.43 50.2162 162.153 49.596 162.876 48.9992L167.724 55.1717C167.105 55.6866 166.485 56.2132 165.888 56.7514V56.7573ZM240.536 78.5162C240.318 77.7381 240.06 76.9599 239.802 76.1818L247.123 73.5548C247.433 74.45 247.72 75.3627 247.989 76.2695L240.542 78.5104L240.536 78.5162ZM170.622 52.9836L166.25 46.4424C167.024 45.9042 167.816 45.3893 168.614 44.8861L172.624 51.6496C171.942 52.0708 171.265 52.5096 170.605 52.966L170.616 52.9777L170.622 52.9836ZM238.482 72.7649C238.161 72.016 237.811 71.273 237.449 70.5475L244.38 66.9727C244.805 67.8328 245.207 68.687 245.585 69.5587L238.488 72.7649H238.482ZM175.797 49.871L172.303 42.8033C173.147 42.3703 173.984 41.9724 174.839 41.5746L177.955 48.812C177.22 49.1396 176.492 49.4848 175.78 49.8534L175.792 49.8651L175.797 49.871ZM235.699 67.3296C235.286 66.6334 234.844 65.943 234.391 65.2584L240.806 60.8002C241.334 61.59 241.839 62.3974 242.321 63.199L235.699 67.312V67.3237V67.3296ZM181.329 47.4721L178.77 40.0066C179.647 39.6907 180.543 39.3981 181.449 39.1348L183.624 46.7291C182.861 46.9514 182.097 47.203 181.346 47.478L181.334 47.4663L181.329 47.4721ZM232.245 62.3214C231.74 61.6895 231.224 61.0576 230.696 60.4491L236.48 55.1717C237.099 55.8855 237.707 56.611 238.304 57.3599L232.251 62.3155L232.245 62.3214ZM187.112 45.8398L185.523 38.0992C186.441 37.9003 187.359 37.7307 188.288 37.5844L189.476 45.4068C188.69 45.5238 187.898 45.6701 187.124 45.8398H187.112ZM228.189 57.7987C227.609 57.2312 227.012 56.6929 226.404 56.1488L231.459 50.1459C232.17 50.7661 232.87 51.4097 233.542 52.0708L228.177 57.7812L228.189 57.7929V57.7987ZM193.051 44.9797L192.471 37.0929C193.401 37.0286 194.336 36.9759 195.277 36.9467L195.443 44.8569C194.64 44.8686 193.854 44.9095 193.051 44.9739V44.9797ZM223.587 53.8787C222.939 53.4048 222.279 52.9309 221.607 52.4804L225.848 45.8632C226.634 46.3898 227.397 46.9339 228.148 47.4839L223.57 53.8787H223.581H223.587ZM199.041 44.9095L199.483 37.011C200.412 37.0637 201.347 37.1456 202.277 37.2509L201.451 45.1084C200.647 45.0148 199.85 44.9505 199.058 44.9095H199.047H199.041ZM218.515 50.5906C217.815 50.1927 217.103 49.8242 216.38 49.4673L219.731 42.3352C220.586 42.7447 221.412 43.1952 222.227 43.6399L218.515 50.5906ZM205.002 45.6584L206.448 37.8769C207.366 38.0466 208.284 38.2572 209.191 38.4854L207.355 46.1733C206.58 45.9744 205.788 45.8047 205.002 45.6584ZM213.07 48.0163C212.37 47.7413 211.675 47.4897 210.947 47.2381L210.792 47.1855L213.236 39.679L213.316 39.7082C214.234 40.0241 215.061 40.3167 215.875 40.6443L213.081 48.0163H213.07Z" fill="#F5CD85"/>
<path d="M183.021 132.969C160.661 125.387 148.543 100.755 155.979 77.9488C163.415 55.1484 187.571 42.7916 209.936 50.3742C232.296 57.9568 244.414 82.5884 236.978 105.395C229.542 128.195 205.386 140.552 183.021 132.969Z" fill="#EE972C"/>
<path d="M155.216 81.8805C162.549 59.3668 187.095 46.8287 209.173 54.3059C228.922 60.9933 240.845 81.7342 237.885 102.147C243.227 80.2949 231.235 57.5882 209.925 50.3742C187.565 42.7916 163.392 55.1484 155.967 77.9488C155.164 80.412 154.596 82.9044 154.246 85.3968C154.516 84.2208 154.843 83.0506 155.216 81.8746V81.8805Z" fill="#BB8226"/>
<g opacity="0.3">
<path d="M248.754 66.4403C262.995 95.4132 251.508 130.676 223.095 145.197C194.682 159.719 160.1 148.006 145.859 119.033" fill="#BB8226"/>
</g>
<path d="M212.779 90.0773C213.548 90.3406 214.207 90.5629 214.873 90.7853C216.221 91.2358 217.409 91.9554 218.35 93.0378C219.549 94.4127 220.031 96.0919 220.22 97.8822C220.519 100.609 220.284 103.242 218.872 105.652C217.684 107.682 215.911 108.975 213.817 109.888C211.413 110.929 208.86 111.316 206.301 111.667C205.893 111.719 205.836 111.883 205.859 112.246C206.002 114.703 206.123 117.166 206.255 119.624C206.278 120.039 206.152 120.197 205.698 120.203C204.379 120.226 203.059 120.314 201.739 120.396C201.418 120.413 201.269 120.372 201.252 119.992C201.166 117.827 201.034 115.668 200.959 113.51C200.907 112.094 200.936 112.088 199.576 112.14C198.876 112.17 198.176 112.234 197.47 112.234C197.046 112.234 196.937 112.392 196.96 112.796C197.057 114.539 197.132 116.289 197.218 118.032C197.252 118.717 197.275 119.395 197.321 120.08C197.344 120.454 197.201 120.636 196.828 120.653C195.474 120.706 194.12 120.759 192.766 120.823C192.433 120.841 192.329 120.724 192.312 120.361C192.232 118.465 192.117 116.57 192.02 114.68C191.997 114.2 191.991 113.714 191.962 113.235C191.911 112.468 191.853 112.41 191.113 112.433C189.92 112.474 188.732 112.538 187.544 112.597C185.817 112.69 184.09 112.778 182.363 112.889C181.979 112.913 181.847 112.749 181.887 112.398C182.088 110.66 182.294 108.928 182.495 107.191C182.535 106.828 182.759 106.746 183.075 106.734C184.147 106.682 185.232 106.658 186.299 106.535C187.401 106.413 187.9 105.839 187.894 104.704C187.894 103.405 187.814 102.106 187.751 100.813C187.63 98.3386 187.493 95.8579 187.372 93.383C187.217 90.2879 187.068 87.1988 186.919 84.1037C186.896 83.6532 186.896 83.2027 186.89 82.758C186.867 81.0087 185.88 79.938 184.159 79.9029C183.034 79.8795 181.904 79.9497 180.785 80.0257C180.424 80.0491 180.275 79.9848 180.252 79.6103C180.165 78.0833 180.068 76.5563 179.976 75.0292C179.959 74.7191 180.085 74.5904 180.406 74.5787C183.453 74.45 186.506 74.3037 189.552 74.175C189.879 74.1633 190.011 74.0697 189.988 73.7011C189.851 71.2438 189.742 68.7806 189.61 66.3174C189.587 65.902 189.702 65.7207 190.149 65.709C191.452 65.6739 192.76 65.6037 194.062 65.5159C194.498 65.4866 194.607 65.6973 194.625 66.0659C194.722 68.1253 194.82 70.1906 194.923 72.2501C194.94 72.566 194.952 72.882 194.963 73.1979C194.975 73.5314 195.135 73.6777 195.462 73.6543C196.489 73.5958 197.516 73.5314 198.543 73.4788C198.911 73.4612 198.951 73.2213 198.939 72.9288C198.865 71.3842 198.796 69.8396 198.721 68.2891C198.681 67.4583 198.641 66.6275 198.584 65.7967C198.561 65.4457 198.675 65.276 199.037 65.2585C200.454 65.1883 201.871 65.0888 203.288 65.0361C203.392 65.0361 203.593 65.2702 203.598 65.3989C203.73 67.8445 203.857 70.2842 203.948 72.7299C203.966 73.1745 204.103 73.3559 204.539 73.3734C206.393 73.4554 208.217 73.7362 209.99 74.292C211.912 74.8946 213.731 75.7371 214.993 77.4397C215.762 78.4811 216.216 79.663 216.428 80.956C216.778 83.074 216.755 85.151 215.682 87.0759C215.062 88.1875 214.27 89.1588 213.129 89.7672C213.037 89.814 212.974 89.9135 212.802 90.0832L212.779 90.0773ZM205.687 105.125C206.57 104.669 207.494 104.277 208.332 103.745C209.261 103.154 209.99 102.335 210.22 101.176C210.518 99.6725 210.415 98.2684 209.342 97.0631C208.062 95.6238 206.375 95.1031 204.585 94.8749C202.198 94.5648 199.8 94.5941 197.402 94.834C196.168 94.9568 196.179 94.9393 196.243 96.2206C196.397 99.263 196.541 102.305 196.679 105.348C196.713 106.097 196.702 106.091 197.442 106.05C198.239 106.003 199.043 105.974 199.84 105.915C201.797 105.775 203.742 105.582 205.687 105.131V105.125ZM202.835 89.147C203.736 88.7082 204.465 88.4099 205.148 88.0237C207.982 86.3972 207.643 82.9219 206.209 81.3714C205.245 80.3241 203.988 79.821 202.611 79.6279C200.431 79.3237 198.251 79.429 196.07 79.6103C195.479 79.6571 195.451 79.6806 195.479 80.3066C195.617 83.2788 195.761 86.2568 195.881 89.229C195.898 89.621 196.042 89.7731 196.409 89.7555C197.046 89.7204 197.683 89.7087 198.314 89.6444C199.886 89.4864 201.452 89.2992 202.835 89.147Z" fill="white"/>
</g>
<path d="M218.618 243.877C218.618 243.877 255.133 229.911 258.587 231.192C258.587 231.192 274.613 231.514 292.526 220.936C292.526 220.936 304.781 213.886 310.123 216.77C310.123 216.77 319.235 227.986 322.695 224.3L340.292 240.799C340.292 240.799 314.209 255.537 308.557 255.537C308.557 255.537 254.508 285.978 248.85 293.508L218.618 243.871V243.877Z" fill="#3D3D3D"/>
<path d="M340.287 239.202L376.739 216.08L388.679 219.017L400.303 232.795L411.239 239.202V376.343L237.846 293.514L340.287 239.202Z" fill="#262626"/>
<path d="M134.778 243.046L139.179 233.755L152.06 230.227L156.461 220.298L168.717 217.092L176.572 208.438L185.368 205.554L211.451 209.72L220.563 205.554L228.108 211.966L134.778 243.046Z" fill="#E50913"/>
<path d="M1.69226 329.239L7.20047 322.189C7.20047 322.189 13.7988 320.264 15.6866 320.264L31.0866 305.848C31.0866 305.848 43.6579 309.054 44.9145 309.692L46.171 310.335L55.2825 298.16L75.0777 290.15L79.1629 283.743L89.8465 280.537L94.2474 275.09L107.76 272.849L110.273 265.477L127.239 260.03L134.779 243.046L149.232 238.242L152.061 230.232H159.29L169.974 219.338H178.77L186.309 215.816L187.566 219.338L196.677 215.816V221.263L228.103 211.972V226.71L232.188 231.198V240.811L235.957 244.333L234.701 256.508L238.786 259.714L240.043 268.046L246.641 274.452V291.753C246.641 291.753 226.53 273.487 201.393 265.799L174.369 302.647L126.918 321.229L82.2957 375.062L1.68652 340.133V329.239H1.69226Z" fill="#2D2D2D"/>
<path d="M411.24 402.999V376.343C411.24 376.343 398.732 356.796 396.534 355.515C396.534 355.515 378.621 351.027 372.654 351.992C372.654 351.992 361.339 347.827 326.46 312.904L285.923 311.622L282.153 306.497C282.153 306.497 275.239 303.291 275.239 302.331V301.372H266.127V302.975L243.492 296.217L291.264 403.005H411.24V402.999Z" fill="#2D2D2D"/>
<path d="M-0.490961 256.826L7.88233 260.019H14.0252L21.5325 269.589L55.655 281.711C55.655 281.711 60.7699 282.032 61.7979 283.942L67.2555 287.769L70.1712 292.074L-2.00488 339.77L-0.478503 256.826H-0.490961Z" fill="#262626"/>
<path d="M324.578 402.999C324.578 402.999 315.466 393.006 308.237 391.081L274.298 336.289L265.502 333.726C265.502 333.726 251.99 303.928 246.648 302.004L248.846 293.514L246.648 291.753C246.648 291.753 227.794 274.452 201.401 265.799L174.376 302.647L126.925 321.229L82.3027 375.062C82.3027 375.062 111.841 401.133 112.472 402.999H324.578Z" fill="#262626"/>
<path opacity="0.76" d="M42.0239 122.578C42.0239 122.578 40.9969 108.999 55.3412 113.176C55.3412 113.176 60.9756 101.165 71.2174 104.821C81.4593 108.478 74.2928 104.131 74.2928 104.131C74.2928 104.131 86.583 86.725 100.922 104.131C100.922 104.131 113.722 106.91 113.212 112.135C113.212 112.135 128.061 114.744 123.454 124.667L42.0239 122.578Z" fill="#E2E2E2"/>
<path d="M187.262 176.651C186.854 174.755 186.481 172.924 186.063 171.099C185.856 170.186 185.621 169.273 185.305 168.396C185.007 167.565 185.081 166.757 185.357 165.991C185.672 165.131 185.827 164.271 185.896 163.358C185.988 162.182 186.229 161.018 186.487 159.865C186.912 157.97 187.405 156.097 187.853 154.207C187.979 153.675 188.312 153.441 188.788 153.26C189.936 152.827 191.066 152.353 192.185 151.85C192.414 151.744 192.563 151.446 192.741 151.235C192.862 151.095 192.959 150.919 193.108 150.802C193.298 150.656 193.527 150.557 193.74 150.44C194.686 149.901 194.887 149.018 194.17 148.164C193.625 147.508 193.453 146.795 193.522 145.97C193.613 144.893 193.682 143.811 193.757 142.728C193.78 142.43 193.895 142.26 194.21 142.196C194.365 142.161 194.543 141.985 194.618 141.827C194.79 141.482 195.031 141.324 195.409 141.289C195.788 141.254 196.161 141.125 196.54 141.055C196.821 141.002 197.142 140.868 197.389 140.95C198.307 141.266 199.185 141.693 199.77 142.541C199.908 142.74 199.982 143.027 199.988 143.278C200.011 144.384 200.063 145.49 199.977 146.59C199.936 147.081 199.667 147.584 199.397 148.012C199.104 148.48 198.955 148.948 198.944 149.492C198.944 149.79 199.053 149.966 199.351 149.995C199.386 149.995 199.414 150.012 199.449 150.012C200.413 150.018 201.078 150.346 201.159 151.475C201.176 151.68 201.491 151.937 201.727 152.043C202.805 152.517 203.895 152.967 204.997 153.388C205.72 153.663 206.162 154.085 206.311 154.91C206.69 156.998 207.126 159.069 207.568 161.146C207.705 161.784 207.895 162.422 208.118 163.036C208.692 164.628 208.927 166.283 208.681 167.945C208.537 168.916 208.095 169.852 207.694 170.759C207.344 171.555 207.022 172.333 206.827 173.199C206.604 174.217 206.15 175.182 205.772 176.159C205.731 176.259 205.525 176.335 205.387 176.347C205.112 176.376 204.716 176.236 204.59 176.376C204.309 176.686 204.056 177.107 203.987 177.517C203.861 178.26 203.85 179.026 203.832 179.781C203.781 181.642 203.752 183.502 203.718 185.363C203.706 186.106 203.74 186.843 203.718 187.586C203.7 188.54 203.649 189.487 203.62 190.441C203.614 190.699 203.568 191.015 203.689 191.208C204.509 192.501 204.452 193.905 204.366 195.362C204.297 196.573 204.469 197.79 204.463 199.007C204.463 199.802 204.309 200.598 204.257 201.4C204.234 201.797 204.177 202.248 204.331 202.587C204.785 203.582 204.865 204.6 204.813 205.671C204.79 206.133 204.957 206.601 204.997 207.069C205.009 207.227 204.951 207.461 204.836 207.543C204.504 207.771 204.452 208.052 204.578 208.397C204.888 209.245 205.221 210.082 205.502 210.936C205.645 211.363 205.731 211.82 205.772 212.27C205.783 212.411 205.594 212.668 205.45 212.703C204.504 212.961 203.545 212.984 202.593 212.692C202.082 212.534 201.732 212.165 201.772 211.656C201.881 210.287 201.153 209.24 200.499 208.222C199.913 207.309 199.793 206.507 200.143 205.495C200.436 204.647 200.636 203.746 200.367 202.827C200.321 202.669 200.269 202.511 200.189 202.371C199.477 201.136 199.518 199.82 199.661 198.445C199.822 196.895 199.833 195.327 199.862 193.764C199.868 193.402 199.73 193.015 199.581 192.676C198.921 191.213 198.766 189.64 198.536 188.077C198.29 186.398 198.031 184.725 197.756 183.052C197.704 182.747 197.584 182.455 197.481 182.162C197.354 181.811 197.228 181.501 196.735 181.577C196.281 181.647 196.161 181.922 196.098 182.314C195.782 184.315 195.461 186.311 195.151 188.311C194.99 189.318 194.767 190.295 194.359 191.249C194.072 191.91 193.912 192.752 194.038 193.454C194.285 194.847 194.118 196.175 193.849 197.515C193.74 198.065 193.556 198.597 193.493 199.153C193.413 199.832 193.361 200.522 193.401 201.201C193.436 201.786 193.43 202.353 193.091 202.81C192.523 203.582 192.495 204.43 192.764 205.249C193.223 206.642 192.936 207.871 192.236 209.064C191.852 209.725 191.634 210.392 191.691 211.205C191.777 212.358 191.381 212.75 190.199 212.861C189.66 212.914 189.104 212.879 188.558 212.82C187.847 212.744 187.526 212.3 187.663 211.568C187.738 211.176 187.887 210.767 188.099 210.433C188.513 209.79 188.65 209.175 188.306 208.45C188.025 207.853 188.082 207.268 188.553 206.759C188.897 206.384 188.943 205.975 188.731 205.489C188.404 204.74 188.472 203.956 188.558 203.161C188.696 201.803 188.777 200.44 188.857 199.077C188.926 197.86 188.977 196.637 188.995 195.42C189.006 194.56 189.172 193.759 189.66 193.039C189.941 192.618 189.93 192.231 189.683 191.758C189.534 191.465 189.511 190.985 189.643 190.693C190.113 189.681 190.136 188.645 190.073 187.557C190.01 186.404 190.102 185.252 190.073 184.099C190.056 183.368 189.924 182.636 189.867 181.905C189.844 181.601 189.798 181.261 189.901 180.986C190.36 179.723 190.073 178.506 189.677 177.318C189.345 176.312 188.822 176.107 187.83 176.446C187.646 176.511 187.474 176.587 187.239 176.674L187.262 176.651ZM189.695 163.545C188.449 167.378 188.977 170.929 190.504 174.393C190.813 173.965 190.871 173.527 190.532 173.129C190.056 172.579 189.872 171.947 189.844 171.227C189.832 170.941 189.758 170.636 189.631 170.379C189.373 169.852 189.39 169.338 189.534 168.799C189.941 167.272 190.033 165.722 189.844 164.148C189.821 163.978 189.763 163.82 189.695 163.545ZM204.309 164.312C204.154 166.014 203.718 167.74 204.716 169.338C205.485 167.6 204.607 165.979 204.309 164.312Z" fill="#353535"/>
</g>
<defs>
<filter id="filter0_d_1413_5939" x="129.764" y="23.8343" width="140.775" height="138.179" filterUnits="userSpaceOnUse" color-interpolation-filters="sRGB">
<feFlood flood-opacity="0" result="BackgroundImageFix"/>
<feColorMatrix in="SourceAlpha" type="matrix" values="0 0 0 0 0 0 0 0 0 0 0 0 0 0 0 0 0 0 127 0" result="hardAlpha"/>
<feOffset/>
<feGaussianBlur stdDeviation="4.57161"/>
<feColorMatrix type="matrix" values="0 0 0 0 1 0 0 0 0 0.709804 0 0 0 0 0.0627451 0 0 0 0.75 0"/>
<feBlend mode="normal" in2="BackgroundImageFix" result="effect1_dropShadow_1413_5939"/>
<feBlend mode="normal" in="SourceGraphic" in2="effect1_dropShadow_1413_5939" result="shape"/>
</filter>
</defs>
</svg>
