<svg width="410" height="306" viewBox="0 0 410 306" fill="none" xmlns="http://www.w3.org/2000/svg">
<g clip-path="url(#clip0_1413_5966)">
<path d="M-15.3038 -5H401.106C406.092 -5 410.141 -0.950516 410.141 4.03534V313H-24.333V4.03534C-24.333 -0.950516 -20.2835 -5 -15.2977 -5H-15.3038Z" fill="#1B1B1B"/>
<mask id="mask0_1413_5966" style="mask-type:luminance" maskUnits="userSpaceOnUse" x="-25" y="-5" width="436" height="318">
<path d="M-15.3038 -5H401.106C406.092 -5 410.141 -0.950516 410.141 4.03534V313H-24.333V4.03534C-24.333 -0.950516 -20.2835 -5 -15.2977 -5H-15.3038Z" fill="white"/>
</mask>
<g mask="url(#mask0_1413_5966)">
<path d="M135.477 67.3496L139.587 60.4424L154.842 58.0346L169.338 54.7451L175.528 60.4424V70.6877L205.285 61.4456L236.148 64.1514L252.024 70.6877L258.664 83.0611L262.713 91.8958L229.885 79.0299L208.039 71.8004H154.842L135.477 67.3496Z" fill="#E2E2E2"/>
<path d="M380.167 -11.062L327.895 32.0352C327.895 32.0352 345.965 42.5055 356.904 79.0238C356.904 79.0238 358.758 86.8066 355.791 88.8496L411.529 55.4808V-11.0681H380.167V-11.062Z" fill="#262626"/>
<path d="M327.895 32.0352C327.895 32.0352 324.284 32.8682 325.208 37.1305L347.45 84.0279C347.45 84.0279 351.901 88.8495 355.792 88.8495C355.792 88.8495 359.823 86.2411 355.792 75.4729C355.792 75.4729 347.936 47.844 330.182 33.7376C329.434 33.1479 328.674 32.5763 327.895 32.0352Z" fill="#0C0C0C"/>
<path d="M330.259 34.2605L309.963 46.9136C309.963 46.9136 320.944 52.3373 332.344 81.5288C332.344 81.5288 334.29 87.0923 332.344 90.0108L357.213 80.6958C357.213 80.6958 350.695 46.7738 330.259 34.2605Z" fill="#212121"/>
<path d="M296.107 54.7451C296.107 54.7451 315.941 70.8701 311.862 88.8496L332.881 83.5658" stroke="#1B1B1B" stroke-width="0.352658" stroke-miterlimit="10"/>
<path d="M190.831 64.0907C188.758 63.1969 177.606 66.7965 177.606 66.7965C166.206 70.1346 159.67 68.3287 159.67 68.3287C140.346 73.4727 135.896 64.1576 135.896 64.1576C134.503 63.7381 133.257 65.55 133.257 65.55C132.564 70.4143 139.653 72.9193 139.653 72.9193C147.995 76.8107 166.486 75.9777 166.486 75.9777C187.754 73.7523 207.637 75.0049 207.637 75.0049C225.848 76.3973 226.547 90.99 226.547 90.99C202.493 82.508 197.629 91.6832 197.629 91.6832C195.683 96.967 211.206 99.7943 211.206 99.7943L233.819 105.729C237.899 107.766 246.052 108.507 246.052 108.507C275.712 109.991 288.128 94.7902 288.128 94.7902L311.853 88.8558C311.853 88.8558 316.487 71.9891 296.099 54.7514C296.099 54.7514 288.87 60.3149 271.632 59.3846C271.632 59.3846 242.064 57.8098 233.728 53.9184C233.728 53.9184 224.832 52.8969 216.77 55.7729C216.77 55.7729 194.431 62.5038 187.195 65.471C186.101 65.9209 185.638 67.2586 186.283 68.2497C186.575 68.6935 187.092 69.1556 187.943 69.5813C187.943 69.5813 194.802 74.865 211.857 71.2473C211.857 71.2473 229.465 67.3559 231.6 68.651C231.6 68.651 241.808 76.379 249.713 81.3223C251.829 82.6478 253.781 83.7727 255.325 84.4962" fill="#E2E2E2"/>
<path d="M190.831 64.0907C188.758 63.1969 177.606 66.7965 177.606 66.7965C166.206 70.1346 159.67 68.3287 159.67 68.3287C140.346 73.4727 135.896 64.1576 135.896 64.1576C134.503 63.7381 133.257 65.55 133.257 65.55C132.564 70.4143 139.653 72.9193 139.653 72.9193C147.995 76.8107 166.486 75.9777 166.486 75.9777C187.754 73.7523 207.637 75.0049 207.637 75.0049C225.848 76.3973 226.547 90.99 226.547 90.99C202.493 82.508 197.629 91.6832 197.629 91.6832C195.683 96.967 211.206 99.7943 211.206 99.7943L233.819 105.729C237.899 107.766 246.052 108.507 246.052 108.507C275.712 109.991 288.128 94.7902 288.128 94.7902L311.853 88.8558C311.853 88.8558 316.487 71.9891 296.099 54.7514C296.099 54.7514 288.87 60.3149 271.632 59.3846C271.632 59.3846 242.064 57.8098 233.728 53.9184C233.728 53.9184 224.832 52.8969 216.77 55.7729C216.77 55.7729 194.431 62.5038 187.195 65.471C186.101 65.9209 185.638 67.2586 186.283 68.2497C186.575 68.6935 187.092 69.1556 187.943 69.5813C187.943 69.5813 194.802 74.865 211.857 71.2473C211.857 71.2473 229.465 67.3559 231.6 68.651C231.6 68.651 241.808 76.379 249.713 81.3223C251.829 82.6478 253.781 83.7727 255.325 84.4962" stroke="black" stroke-width="0.352658" stroke-miterlimit="10"/>
<path d="M226.547 90.9838C226.547 90.9838 240.684 80.8722 258.663 86.3445" stroke="#1B1B1B" stroke-width="0.352658" stroke-miterlimit="10"/>
<path d="M290.915 90.9836C290.915 90.9836 277.568 94.4555 261.443 87.8523" stroke="#1B1B1B" stroke-width="0.352658" stroke-miterlimit="10"/>
<path d="M191.093 50.805C191.093 50.805 177.467 48.7194 170.378 52.1974C170.378 52.1974 154.113 56.9218 147.996 58.0345C147.996 58.0345 141.186 58.5878 140.073 58.7276C140.073 58.7276 133.817 59.7005 135.902 64.1512" fill="#E2E2E2"/>
<path d="M191.093 50.805C191.093 50.805 177.467 48.7194 170.378 52.1974C170.378 52.1974 154.113 56.9218 147.996 58.0345C147.996 58.0345 141.186 58.5878 140.073 58.7276C140.073 58.7276 133.817 59.7005 135.902 64.1512" stroke="black" stroke-width="0.352658" stroke-miterlimit="10"/>
<path d="M218.801 55.1221C218.801 55.1221 201.381 46.7739 192.899 50.8051L172.183 56.3686L157.177 60.1505C156.021 60.4424 155.116 61.3666 154.915 62.534C154.599 64.352 155.085 66.9605 159.676 68.3225C159.676 68.3225 167.538 69.6297 175.752 67.301C175.752 67.301 188.344 63.0508 190.831 64.0906L218.801 55.1282V55.1221Z" fill="#E2E2E2" stroke="black" stroke-width="0.352658" stroke-miterlimit="10"/>
<path d="M135.859 61.0688C135.859 61.0688 138.45 60.1203 142.992 63.3671C142.992 63.3671 150.379 62.9719 150.963 60.1203C150.963 60.1203 148.658 57.98 147.996 58.0347C147.996 58.0347 140.401 58.509 139.222 58.9224C139.222 58.9224 136.218 60.023 135.859 61.0627V61.0688Z" stroke="#1B1B1B" stroke-width="0.352658" stroke-miterlimit="10"/>
<path d="M130.996 239.447L99.6211 260.272C99.6211 260.272 109.076 274.591 122.422 282.927C122.422 282.927 142.627 297.197 151.523 288.673L152.447 286.265L165.611 268.839L130.996 239.44V239.447Z" fill="#2D2D2D"/>
<path d="M109.186 253.918C109.186 253.918 101.287 250.859 97.9492 255.584C97.9492 255.584 98.691 259.195 100.922 262.12L109.186 253.918Z" fill="#0C0C0C"/>
<path d="M155.506 61.2329C155.506 61.2329 160.328 61.6524 161.623 63.9447C161.623 63.9447 170.616 62.1692 169.035 59.196L166.615 57.7671L157.178 60.1445C157.178 60.1445 155.822 60.7343 155.5 61.2268L155.506 61.2329Z" stroke="#1B1B1B" stroke-width="0.352658" stroke-miterlimit="10"/>
<path d="M186.753 66.1456H188.808C190.304 66.1456 191.769 66.5652 193.046 67.3495C193.046 67.3495 201.108 65.7747 200.458 62.8075L199.077 61.4456C199.077 61.4456 189.458 64.2182 186.643 65.7078C186.43 65.8173 186.515 66.1396 186.753 66.1396V66.1456Z" stroke="#1B1B1B" stroke-width="0.352658" stroke-miterlimit="10"/>
<path d="M312.318 45.4482L296.107 54.745C296.107 54.745 313.163 67.538 311.862 88.8494L332.881 83.5657C332.881 83.5657 329.075 60.9834 312.311 45.4421L312.318 45.4482Z" fill="#2D2D2D"/>
<path d="M346.694 34.9781C348.487 34.9781 349.941 33.5245 349.941 31.7313C349.941 29.9381 348.487 28.4844 346.694 28.4844C344.901 28.4844 343.447 29.9381 343.447 31.7313C343.447 33.5245 344.901 34.9781 346.694 34.9781Z" fill="#E50913"/>
<path d="M357.943 27.7789C359.753 27.7789 361.221 26.3116 361.221 24.5016C361.221 22.6917 359.753 21.2244 357.943 21.2244C356.133 21.2244 354.666 22.6917 354.666 24.5016C354.666 26.3116 356.133 27.7789 357.943 27.7789Z" fill="#E50913"/>
<path d="M129.647 240.298L138.682 234.601L135.903 231.123C135.903 231.123 128.674 231.123 127.281 227.371C127.281 227.371 121.584 217.083 115.741 212.359C115.741 212.359 111.29 209.72 113.935 204.99C113.935 204.99 116.44 200.125 122.417 201.098C122.417 201.098 134.651 201.518 137.849 212.499C137.849 212.499 145.632 208.887 155.786 211.666C155.786 211.666 164.408 213.344 170.664 220.64C170.664 220.64 178.727 229.043 179.42 229.183C179.42 229.183 182.478 231.409 189.288 231.409C189.288 231.409 219.179 225.711 221.678 225.845C221.678 225.845 224.043 220.561 233.912 213.611C233.912 213.611 240.722 205.269 246.285 202.904C246.285 202.904 256.433 190.111 263.109 193.869C263.109 193.869 267.141 197.62 257.826 205.269C257.826 205.269 261.024 205.962 260.331 207.495C260.331 207.495 262.97 210.693 240.588 236.966C240.588 236.966 237.809 241.557 232.106 244.889C232.106 244.889 228.075 247.114 226.822 249.06C226.822 249.06 220.985 252.951 214.449 253.51C214.449 253.51 208.472 255.043 207.359 256.015C207.359 256.015 199.643 257.268 198.36 257.268L194.153 260.047C194.153 260.047 182.059 261.579 172.464 259.354L162.176 270.894C162.176 270.894 152.582 275.205 133.678 254.07C133.678 254.07 127.841 248.373 127.701 241.277L129.647 240.304V240.298Z" fill="#E2E2E2" stroke="black" stroke-width="0.352658" stroke-miterlimit="10"/>
<path d="M177.613 236.68C177.613 236.68 184.703 236.54 190.54 230.144L202.913 218.743C202.913 218.743 218.345 205.257 225.854 216.797C225.854 216.797 215.147 230.837 194.018 249.187" fill="#E2E2E2"/>
<path d="M177.613 236.68C177.613 236.68 184.703 236.54 190.54 230.144L202.913 218.743C202.913 218.743 218.345 205.257 225.854 216.797C225.854 216.797 215.147 230.837 194.018 249.187" stroke="black" stroke-width="0.352658" stroke-miterlimit="10"/>
<path d="M225.295 216.664C225.295 216.664 223.629 218.196 217.372 218.33L213.894 223.474C213.894 223.474 213.183 225.875 214.818 226.696C215.627 227.103 216.612 226.872 217.232 226.216C219.062 224.282 223.945 219.017 225.295 216.664Z" stroke="#1B1B1B" stroke-width="0.352658" stroke-miterlimit="10"/>
<path d="M209.451 234.734C209.451 234.734 217.775 232.46 219.52 232.205C219.52 232.205 229.467 220.135 233.359 217.91C233.359 217.91 242.114 208.042 249.07 210.541C249.07 210.541 251.575 211.094 250.736 214.292C250.736 214.292 249.763 219.467 241.701 226.891L237.876 230.952C231.857 237.343 224.67 242.554 216.65 246.123C212.947 247.77 208.855 249.23 204.727 250.02" stroke="#1B1B1B" stroke-width="0.352658" stroke-miterlimit="10"/>
<path d="M250.735 214.298C250.735 214.298 247.537 215.551 245.451 214.298L241.14 219.582C241.14 219.582 239.608 223.334 241.14 223.613H244.965C244.965 223.613 249.342 218.469 250.735 214.298Z" stroke="#1B1B1B" stroke-width="0.352658" stroke-miterlimit="10"/>
<path d="M255.326 211.24C259.218 210.547 260.33 207.488 260.33 207.488C259.777 204.983 253.654 204.71 253.654 204.71C249.483 204.156 245.598 210.139 245.598 210.139" stroke="#1B1B1B" stroke-width="0.352658" stroke-miterlimit="10"/>
<path d="M253.793 219.625C253.793 219.625 251.531 218.421 252.96 215.916L255.744 211.234C255.744 211.234 260.213 210.431 260.323 206.649C260.323 206.649 260.973 211.185 253.787 219.619L253.793 219.625Z" stroke="#1B1B1B" stroke-width="0.352658" stroke-miterlimit="10"/>
<path d="M113.1 207.349C113.1 207.349 115.192 212.195 121.722 212.134L124.92 216.664C124.92 216.664 125.778 220.926 122.294 219.631L117.168 213.611C117.168 213.611 112.267 209.714 113.106 207.349H113.1Z" stroke="#1B1B1B" stroke-width="0.352658" stroke-miterlimit="10"/>
<path d="M143.272 230.661L135.902 231.123" stroke="#1B1B1B" stroke-width="0.352658" stroke-miterlimit="10"/>
<path d="M146.891 244.189C146.891 244.189 158.571 262.54 194.159 260.041" stroke="#1B1B1B" stroke-width="0.352658" stroke-miterlimit="10"/>
<path d="M191.373 253.085C191.373 253.085 190.261 256.696 185.396 257.675" stroke="#1B1B1B" stroke-width="0.352658" stroke-miterlimit="10"/>
<path d="M201.734 253.918C201.734 253.918 200.208 256.976 198.365 257.256" stroke="#1B1B1B" stroke-width="0.352658" stroke-miterlimit="10"/>
<path d="M214.868 250.726C214.868 250.726 215.226 251.759 209.693 254.927" stroke="#1B1B1B" stroke-width="0.352658" stroke-miterlimit="10"/>
<path d="M-14.8096 332.852L97.9497 255.584C97.9497 255.584 118.708 296.456 151.152 290.527L123.536 332.852H-14.8035H-14.8096Z" fill="#262626"/>
<path d="M91.6309 277.169C93.6793 277.169 95.3399 275.508 95.3399 273.46C95.3399 271.412 93.6793 269.751 91.6309 269.751C89.5825 269.751 87.9219 271.412 87.9219 273.46C87.9219 275.508 89.5825 277.169 91.6309 277.169Z" fill="#E50913"/>
<path d="M80.159 284.228C82.3081 284.228 84.0503 282.486 84.0503 280.337C84.0503 278.188 82.3081 276.445 80.159 276.445C78.0098 276.445 76.2676 278.188 76.2676 280.337C76.2676 282.486 78.0098 284.228 80.159 284.228Z" fill="#E50913"/>
<g opacity="0.18">
<path d="M170.524 181.909L145.497 207.349" stroke="#F7931A" stroke-width="0.608031" stroke-miterlimit="10"/>
<path d="M123.256 230.083L106.292 246.968" stroke="#F7931A" stroke-width="0.608031" stroke-miterlimit="10"/>
<path d="M205.832 193.17L208.337 210.14" stroke="#F7931A" stroke-width="0.608031" stroke-miterlimit="10"/>
<path d="M227.812 183.016L244.485 198.867" stroke="#F7931A" stroke-width="0.608031" stroke-miterlimit="10"/>
<path d="M217.232 260.272L222.765 288.399" stroke="#F7931A" stroke-width="0.608031" stroke-miterlimit="10"/>
<path d="M199.253 266.158V305.357" stroke="#F7931A" stroke-width="0.608031" stroke-miterlimit="10"/>
<path d="M268.119 223.614L306.486 260.272" stroke="#F7931A" stroke-width="0.608031" stroke-miterlimit="10"/>
<path d="M227.812 174.4L250.735 189.412" stroke="#F7931A" stroke-width="0.608031" stroke-miterlimit="10"/>
<path d="M272.562 204.667L310.102 232.205" stroke="#F7931A" stroke-width="0.608031" stroke-miterlimit="10"/>
<path d="M177.614 183.016L161.069 206.656" stroke="#F7931A" stroke-width="0.608031" stroke-miterlimit="10"/>
<path d="M198.359 189.412V214.299" stroke="#F7931A" stroke-width="0.608031" stroke-miterlimit="10"/>
<path d="M63.7471 177.178L91.6314 172.454" stroke="#F7931A" stroke-width="0.608031" stroke-miterlimit="10"/>
<path d="M139.587 164.391L163.288 159.661" stroke="#F7931A" stroke-width="0.608031" stroke-miterlimit="10"/>
<path d="M135.477 154.104H153.839" stroke="#F7931A" stroke-width="0.608031" stroke-miterlimit="10"/>
<path d="M46.5098 154.104H86.5485" stroke="#F7931A" stroke-width="0.608031" stroke-miterlimit="10"/>
<path d="M242.605 152.991H261.442" stroke="#F7931A" stroke-width="0.608031" stroke-miterlimit="10"/>
<path d="M233.917 147.427L263.978 142.423" stroke="#F7931A" stroke-width="0.608031" stroke-miterlimit="10"/>
<path d="M307.878 134.64L327.894 131.023" stroke="#F7931A" stroke-width="0.608031" stroke-miterlimit="10"/>
<path d="M317.886 154.104L350.695 152.991" stroke="#F7931A" stroke-width="0.608031" stroke-miterlimit="10"/>
<path d="M96.0039 81.1703L169.223 132.829" stroke="#F7931A" stroke-width="0.608031" stroke-miterlimit="10"/>
<path d="M135.902 90.9839L169.222 124.073" stroke="#F7931A" stroke-width="0.608031" stroke-miterlimit="10"/>
<path d="M91.6318 46.9139L114.773 70.6879" stroke="#F7931A" stroke-width="0.608031" stroke-miterlimit="10"/>
<path d="M189.707 101.825L192.905 118.096" stroke="#F7931A" stroke-width="0.608031" stroke-miterlimit="10"/>
<path d="M198.359 101.825V111.42" stroke="#F7931A" stroke-width="0.608031" stroke-miterlimit="10"/>
<path d="M198.359 76.2452V84.7212" stroke="#F7931A" stroke-width="0.608031" stroke-miterlimit="10"/>
<path d="M185.676 79.0301L186.825 87.0926" stroke="#F7931A" stroke-width="0.608031" stroke-miterlimit="10"/>
<path d="M175.528 19.5281L179.56 42.0495" stroke="#F7931A" stroke-width="0.608031" stroke-miterlimit="10"/>
<path d="M198.359 1.45142V45.4485" stroke="#F7931A" stroke-width="0.608031" stroke-miterlimit="10"/>
<path d="M229.886 108.605L219.738 124.073" stroke="#F7931A" stroke-width="0.608031" stroke-miterlimit="10"/>
<path d="M241.007 111.42L227.812 124.486" stroke="#F7931A" stroke-width="0.608031" stroke-miterlimit="10"/>
</g>
<g filter="url(#filter0_d_1413_5966)">
<path d="M244.325 173.712C236.256 197.991 210.032 211.137 185.759 203.068C161.481 194.999 148.335 168.775 156.403 144.503C164.472 120.224 190.696 107.078 214.969 115.147C239.248 123.215 252.393 149.44 244.325 173.712Z" fill="#CC7617"/>
<path d="M238.397 171.742C230.328 196.021 204.104 209.167 179.831 201.098C155.553 193.03 142.407 166.805 150.476 142.533C158.544 118.254 184.769 105.108 209.041 113.177C233.32 121.245 246.466 147.47 238.397 171.742Z" fill="#EB9B0B"/>
<path d="M180.859 198.143H180.817C180.111 197.894 179.424 197.644 178.737 197.383L181.005 191.564C181.589 191.795 182.179 192.002 182.787 192.209L180.859 198.155V198.143ZM184.118 199.092L185.608 193.023C186.24 193.181 186.867 193.315 187.505 193.437L186.32 199.566C185.578 199.42 184.854 199.262 184.112 199.085H184.125L184.118 199.092ZM175.636 196.033C174.949 195.699 174.28 195.358 173.618 194.993L176.627 189.515C177.187 189.825 177.765 190.117 178.348 190.403L175.642 196.033H175.636ZM189.682 200.083L190.369 193.881C191.013 193.954 191.652 194.008 192.296 194.045L191.932 200.283C191.184 200.241 190.43 200.18 189.682 200.095V200.083ZM170.717 193.254C170.085 192.841 169.459 192.409 168.857 191.965L172.566 186.937C173.077 187.314 173.606 187.679 174.147 188.031L170.724 193.254H170.717ZM195.318 200.344L195.203 194.1C195.847 194.087 196.486 194.057 197.118 194.008L197.574 200.235C196.826 200.289 196.066 200.326 195.312 200.338V200.35L195.318 200.344ZM166.2 189.849C165.628 189.351 165.075 188.852 164.534 188.329L168.857 183.824C169.325 184.274 169.805 184.712 170.292 185.125L166.2 189.849ZM200.949 199.852L200.012 193.68C200.645 193.589 201.283 193.473 201.909 193.333L203.18 199.456C202.438 199.614 201.703 199.748 200.955 199.852H200.949ZM162.181 185.879C161.682 185.32 161.19 184.736 160.721 184.152L165.592 180.249C165.999 180.747 166.413 181.246 166.838 181.726L162.175 185.879H162.181ZM206.457 198.629L204.719 192.634C205.333 192.458 205.947 192.257 206.549 192.051L208.598 197.955C207.892 198.204 207.169 198.435 206.445 198.642L206.457 198.629ZM158.703 181.41C158.277 180.784 157.87 180.151 157.487 179.513L162.825 176.278C163.16 176.832 163.512 177.373 163.877 177.914L158.703 181.422V181.41ZM211.766 196.702L209.267 190.974C209.862 190.713 210.44 190.445 211.018 190.153L213.821 195.735C213.146 196.076 212.465 196.392 211.772 196.696V196.708L211.766 196.702ZM155.851 176.54C155.517 175.865 155.194 175.184 154.89 174.497L160.606 171.979C160.867 172.575 161.135 173.153 161.427 173.731L155.845 176.534V176.546L155.851 176.54ZM216.782 194.112L213.553 188.761C214.106 188.427 214.648 188.086 215.189 187.721L218.685 192.896C218.059 193.321 217.426 193.729 216.782 194.112ZM153.644 171.347C153.395 170.642 153.164 169.918 152.957 169.195L158.952 167.444C159.128 168.058 159.329 168.672 159.548 169.286L153.656 171.347H153.644ZM221.415 190.889L217.524 186.007C218.022 185.611 218.521 185.192 219.001 184.766L223.142 189.442C222.582 189.941 221.999 190.433 221.403 190.901L221.415 190.889ZM152.136 165.917C151.978 165.176 151.844 164.44 151.729 163.698L157.9 162.75C157.991 163.382 158.107 164.02 158.247 164.647L152.136 165.917ZM225.592 187.083L221.093 182.754C221.543 182.286 221.98 181.817 222.394 181.325L227.118 185.417C226.62 185.988 226.109 186.554 225.586 187.095V187.083H225.592ZM151.346 160.33C151.291 159.582 151.254 158.828 151.242 158.068L157.487 157.934C157.499 158.578 157.529 159.223 157.578 159.861L151.352 160.317L151.339 160.33H151.346ZM229.246 182.766L224.218 179.057C224.601 178.534 224.966 178.017 225.319 177.476L230.535 180.911C230.122 181.544 229.69 182.158 229.246 182.766ZM151.303 154.681C151.346 153.933 151.406 153.179 151.492 152.419L157.693 153.106C157.62 153.751 157.566 154.389 157.529 155.034L151.291 154.681H151.303ZM232.287 177.999L226.808 174.989C227.118 174.43 227.41 173.852 227.696 173.268L233.32 175.986C232.986 176.661 232.645 177.342 232.281 177.993H232.293L232.287 177.999ZM152.002 149.081C152.148 148.339 152.306 147.616 152.483 146.874L158.551 148.364C158.393 148.99 158.259 149.622 158.137 150.248L152.008 149.075V149.087L152.002 149.081ZM234.682 172.892L228.863 170.624C229.094 170.022 229.319 169.414 229.52 168.799L229.563 168.654L235.509 170.569L235.448 170.769C235.211 171.487 234.95 172.198 234.676 172.892H234.688H234.682ZM153.419 143.609L153.449 143.524C153.68 142.837 153.918 142.162 154.179 141.493L160.01 143.755C159.791 144.326 159.572 144.91 159.384 145.506L153.431 143.621L153.419 143.609ZM230.359 165.857C230.517 165.224 230.651 164.598 230.767 163.96L236.908 165.115C236.774 165.857 236.604 166.58 236.427 167.322L230.359 165.844V165.857ZM161.153 141.092L155.523 138.386C155.845 137.699 156.198 137.03 156.556 136.379L162.035 139.377C161.725 139.936 161.433 140.514 161.147 141.098H161.159L161.153 141.092ZM231.204 161.102C231.277 160.457 231.332 159.819 231.362 159.174L237.601 159.515C237.558 160.263 237.497 161.017 237.412 161.777L231.21 161.102H231.204ZM163.524 136.89L158.301 133.467C158.715 132.834 159.147 132.22 159.59 131.606L164.631 135.291C164.254 135.814 163.883 136.343 163.531 136.884V136.896L163.524 136.89ZM231.399 156.274C231.387 155.63 231.344 154.991 231.308 154.347L237.534 153.866C237.595 154.614 237.625 155.368 237.649 156.128L231.405 156.274H231.399ZM166.431 133.041L161.706 128.961C162.193 128.39 162.704 127.824 163.227 127.283L167.732 131.606C167.282 132.074 166.844 132.555 166.431 133.041ZM230.973 151.477C230.87 150.844 230.754 150.206 230.621 149.574L236.731 148.285C236.889 149.026 237.023 149.75 237.139 150.504L230.967 151.471L230.979 151.483L230.973 151.477ZM169.824 129.594L165.671 124.93C166.23 124.431 166.814 123.939 167.398 123.471L171.301 128.341C170.803 128.748 170.304 129.162 169.824 129.588V129.594ZM229.909 146.771C229.733 146.156 229.526 145.542 229.313 144.928L235.205 142.855C235.454 143.56 235.685 144.284 235.904 145.001L229.909 146.771ZM173.63 126.614L170.109 121.452C170.736 121.027 171.368 120.619 172.013 120.224L175.241 125.562C174.688 125.897 174.147 126.237 173.618 126.602L173.63 126.614ZM228.255 142.229C227.994 141.633 227.714 141.055 227.422 140.477L233.004 137.656C233.351 138.331 233.673 139.012 233.971 139.699L228.255 142.229ZM177.795 124.158L174.986 118.576C175.661 118.23 176.342 117.919 177.029 117.609L179.54 123.325C178.944 123.586 178.366 123.854 177.789 124.146L177.801 124.158H177.795ZM226.018 137.942C225.683 137.389 225.331 136.847 224.966 136.306L230.128 132.786C230.554 133.412 230.961 134.044 231.344 134.683L226.012 137.93V137.942H226.018ZM182.252 122.267L180.191 116.375C180.896 116.126 181.619 115.895 182.343 115.688L184.094 121.683C183.48 121.86 182.866 122.06 182.264 122.279L182.252 122.267ZM223.239 133.99C222.832 133.491 222.418 132.993 221.993 132.512L226.644 128.347C227.143 128.907 227.635 129.484 228.109 130.074L223.239 133.99ZM186.909 120.978L185.626 114.867C186.368 114.709 187.104 114.575 187.852 114.46L188.812 120.631C188.18 120.722 187.542 120.838 186.915 120.972H186.903L186.909 120.978ZM219.974 130.421C219.506 129.971 219.025 129.545 218.539 129.119L222.607 124.383C223.178 124.869 223.744 125.38 224.285 125.903L219.962 130.408L219.974 130.421ZM191.688 120.303L191.22 114.077C191.968 114.022 192.722 113.986 193.482 113.961L193.616 120.206C192.971 120.218 192.333 120.248 191.688 120.297V120.303ZM216.265 127.332C215.742 126.955 215.213 126.584 214.672 126.231L218.089 121.008C218.721 121.422 219.336 121.853 219.944 122.291L216.259 127.338H216.271L216.265 127.332ZM196.504 120.254L196.857 114.016C197.605 114.058 198.359 114.119 199.106 114.204L198.438 120.406C197.793 120.333 197.149 120.279 196.51 120.248H196.498L196.504 120.254ZM212.179 124.742C211.62 124.431 211.042 124.14 210.458 123.854L213.152 118.223C213.839 118.546 214.508 118.898 215.158 119.251L212.173 124.735L212.179 124.742ZM201.301 120.85L202.469 114.709C203.211 114.843 203.946 115.013 204.676 115.189L203.198 121.258C202.572 121.099 201.94 120.966 201.301 120.85ZM207.795 122.711C207.236 122.492 206.67 122.297 206.087 122.097L205.959 122.054L207.929 116.132L207.99 116.15C208.732 116.399 209.394 116.63 210.051 116.892L207.801 122.711H207.789H207.795Z" fill="#F5CD85"/>
<path d="M183.607 189.734C165.61 183.751 155.851 164.3 161.84 146.302C167.823 128.305 187.274 118.546 205.272 124.535C223.269 130.518 233.028 149.969 227.039 167.966C221.056 185.964 201.605 195.723 183.607 189.734Z" fill="#EE972C"/>
<path d="M161.226 149.403C167.13 131.631 186.885 121.732 204.657 127.636C220.551 132.914 230.152 149.288 227.769 165.407C232.067 148.157 222.418 130.232 205.259 124.535C187.262 118.552 167.805 128.305 161.828 146.302C161.183 148.248 160.727 150.218 160.441 152.182C160.66 151.258 160.922 150.328 161.22 149.403H161.226Z" fill="#BB8226"/>
<g opacity="0.3">
<path d="M236.518 137.212C247.98 160.086 238.738 187.922 215.864 199.383C192.989 210.845 165.154 201.603 153.692 178.729" fill="#BB8226"/>
</g>
<path d="M207.563 155.873C208.183 156.079 208.712 156.256 209.247 156.432C210.33 156.785 211.284 157.356 212.044 158.208C213.011 159.29 213.394 160.615 213.552 162.032C213.789 164.185 213.601 166.264 212.464 168.167C211.509 169.766 210.08 170.794 208.396 171.511C206.463 172.332 204.408 172.642 202.346 172.916C202.018 172.958 201.969 173.086 201.988 173.372C202.103 175.311 202.2 177.257 202.31 179.197C202.328 179.525 202.225 179.647 201.86 179.653C200.796 179.671 199.732 179.738 198.674 179.805C198.418 179.823 198.297 179.787 198.285 179.483C198.218 177.774 198.108 176.072 198.048 174.363C198.005 173.244 198.029 173.244 196.935 173.281C196.369 173.299 195.804 173.354 195.245 173.354C194.904 173.354 194.813 173.475 194.831 173.797C194.91 175.178 194.971 176.552 195.038 177.932C195.062 178.473 195.08 179.008 195.117 179.543C195.135 179.841 195.02 179.987 194.722 179.993C193.633 180.036 192.545 180.078 191.45 180.127C191.183 180.139 191.098 180.048 191.086 179.762C191.025 178.267 190.928 176.771 190.848 175.275C190.83 174.892 190.83 174.515 190.8 174.132C190.757 173.53 190.715 173.481 190.113 173.5C189.152 173.53 188.197 173.579 187.237 173.633C185.844 173.706 184.452 173.779 183.066 173.864C182.756 173.883 182.646 173.755 182.683 173.481C182.841 172.113 183.011 170.739 183.175 169.371C183.212 169.085 183.388 169.024 183.643 169.012C184.507 168.97 185.376 168.951 186.24 168.854C187.127 168.757 187.529 168.307 187.523 167.407C187.523 166.386 187.456 165.358 187.407 164.337C187.31 162.379 187.2 160.427 187.097 158.469C186.975 156.031 186.854 153.587 186.732 151.142C186.714 150.79 186.714 150.431 186.708 150.078C186.69 148.698 185.899 147.853 184.513 147.822C183.607 147.804 182.701 147.859 181.795 147.92C181.503 147.938 181.381 147.889 181.369 147.591C181.302 146.387 181.223 145.177 181.15 143.974C181.138 143.73 181.236 143.627 181.497 143.615C183.953 143.511 186.404 143.396 188.86 143.299C189.122 143.287 189.225 143.214 189.213 142.922C189.103 140.982 189.018 139.036 188.909 137.097C188.891 136.768 188.982 136.629 189.341 136.616C190.392 136.586 191.438 136.531 192.49 136.464C192.837 136.44 192.928 136.61 192.94 136.902C193.019 138.532 193.098 140.155 193.177 141.785C193.189 142.034 193.202 142.283 193.208 142.533C193.214 142.794 193.348 142.91 193.609 142.897C194.436 142.849 195.263 142.8 196.09 142.758C196.382 142.745 196.418 142.557 196.406 142.32C196.345 141.098 196.29 139.882 196.23 138.659C196.199 138.003 196.163 137.346 196.114 136.695C196.096 136.416 196.187 136.288 196.479 136.27C197.622 136.215 198.759 136.136 199.902 136.094C199.987 136.094 200.145 136.276 200.151 136.379C200.261 138.307 200.358 140.24 200.431 142.168C200.443 142.52 200.559 142.66 200.905 142.678C202.395 142.745 203.866 142.964 205.289 143.402C206.84 143.876 208.299 144.539 209.314 145.889C209.935 146.71 210.293 147.646 210.47 148.662C210.755 150.334 210.731 151.969 209.868 153.489C209.369 154.365 208.731 155.131 207.813 155.617C207.74 155.654 207.685 155.733 207.545 155.867L207.563 155.873ZM201.854 167.748C202.565 167.389 203.307 167.079 203.982 166.659C204.73 166.191 205.32 165.547 205.502 164.634C205.745 163.449 205.66 162.342 204.797 161.388C203.769 160.251 202.407 159.843 200.966 159.661C199.045 159.411 197.111 159.436 195.184 159.63C194.193 159.728 194.199 159.716 194.253 160.725C194.375 163.127 194.491 165.528 194.606 167.93C194.637 168.52 194.624 168.52 195.22 168.483C195.865 168.447 196.509 168.422 197.148 168.38C198.722 168.27 200.291 168.118 201.854 167.76V167.748ZM199.562 155.137C200.291 154.79 200.875 154.553 201.422 154.249C203.702 152.966 203.435 150.224 202.279 148.996C201.501 148.169 200.492 147.774 199.379 147.622C197.622 147.385 195.871 147.464 194.114 147.61C193.639 147.646 193.615 147.664 193.639 148.157C193.749 150.504 193.864 152.851 193.968 155.198C193.98 155.508 194.095 155.63 194.393 155.611C194.904 155.581 195.415 155.575 195.926 155.526C197.19 155.398 198.455 155.259 199.568 155.137H199.562Z" fill="white"/>
</g>
</g>
</g>
<defs>
<filter id="filter0_d_1413_5966" x="138.408" y="101.109" width="117.986" height="114.027" filterUnits="userSpaceOnUse" color-interpolation-filters="sRGB">
<feFlood flood-opacity="0" result="BackgroundImageFix"/>
<feColorMatrix in="SourceAlpha" type="matrix" values="0 0 0 0 0 0 0 0 0 0 0 0 0 0 0 0 0 0 127 0" result="hardAlpha"/>
<feOffset/>
<feGaussianBlur stdDeviation="4.846"/>
<feColorMatrix type="matrix" values="0 0 0 0 1 0 0 0 0 0.709804 0 0 0 0 0.0627451 0 0 0 0.75 0"/>
<feBlend mode="normal" in2="BackgroundImageFix" result="effect1_dropShadow_1413_5966"/>
<feBlend mode="normal" in="SourceGraphic" in2="effect1_dropShadow_1413_5966" result="shape"/>
</filter>
<clipPath id="clip0_1413_5966">
<path d="M0 8C0 3.58172 3.58172 0 8 0H402C406.418 0 410 3.58172 410 8V306H0V8Z" fill="white"/>
</clipPath>
</defs>
</svg>
