<svg width="410" height="306" viewBox="0 0 410 306" fill="none" xmlns="http://www.w3.org/2000/svg">
<g clip-path="url(#clip0_1413_6050)">
<path d="M8.52061 0H401.474C406.179 0 410 3.89667 410 8.69438V306H0V8.69438C0 3.89667 3.82136 0 8.52636 0H8.52061Z" fill="#1B1B1B"/>
<mask id="mask0_1413_6050" style="mask-type:luminance" maskUnits="userSpaceOnUse" x="0" y="0" width="410" height="306">
<path d="M8.52061 0H401.474C406.179 0 410 3.89667 410 8.69438V306H0V8.69438C0 3.89667 3.82136 0 8.52636 0H8.52061Z" fill="white"/>
</mask>
<g mask="url(#mask0_1413_6050)">
<path d="M-20.5995 314.235L-41.1729 206.304L124.693 207.948L428.482 204.512L431.927 310.313L-20.5995 314.235Z" fill="#2D2D2D"/>
<path d="M138.757 244.563V260.169C138.745 264.729 140.635 269.096 144.003 272.175C151.056 278.632 166.877 287.33 200.811 287.032C200.811 287.032 250.156 286.089 254.082 261.615V250.376L138.751 244.557L138.757 244.563Z" fill="#212121"/>
<path d="M187.912 274.715C156.348 272.438 134.537 257.593 139.178 241.56C143.82 225.526 173.16 214.387 204.724 216.664C236.289 218.941 258.1 233.786 253.459 249.825C248.817 265.859 219.477 276.998 187.924 274.721H187.912V274.715Z" fill="#2D2D2D"/>
<path d="M143.014 241.858V241.829C143.149 241.36 143.32 240.892 143.49 240.447L151.124 241.197C150.972 241.583 150.831 241.981 150.719 242.379L143.003 241.846H143.014V241.858ZM142.569 243.995L150.338 244.241C150.279 244.65 150.25 245.06 150.244 245.464L142.451 245.417C142.475 244.949 142.504 244.475 142.569 243.995ZM144.481 238.363C144.734 237.907 145.021 237.438 145.315 236.994L152.691 238.24C152.427 238.627 152.198 239.019 151.975 239.405L144.481 238.352V238.363ZM142.557 247.571L150.326 247.302C150.391 247.712 150.449 248.116 150.537 248.525L142.797 248.994C142.686 248.525 142.598 248.051 142.539 247.571H142.551H142.557ZM146.835 234.992C147.21 234.553 147.609 234.114 148.026 233.686L154.997 235.431C154.639 235.794 154.31 236.162 153.994 236.537L146.84 234.992H146.835ZM143.46 251.113L151.095 250.328C151.247 250.726 151.429 251.13 151.623 251.511L144.071 252.506C143.842 252.044 143.636 251.569 143.455 251.101V251.113H143.46ZM150.027 231.801C150.514 231.392 151.013 230.988 151.535 230.59L158.013 232.773C157.573 233.113 157.133 233.458 156.716 233.821L150.027 231.813V231.801ZM145.268 254.561L152.644 253.285C152.902 253.665 153.172 254.045 153.471 254.432L146.236 255.913C145.89 255.468 145.567 255.023 145.256 254.572L145.268 254.561ZM154.029 228.845C154.616 228.476 155.208 228.102 155.836 227.745L161.681 230.344C161.153 230.648 160.642 230.958 160.132 231.28L154.017 228.845H154.029ZM147.961 257.862L154.956 256.1C155.302 256.457 155.684 256.82 156.071 257.177L149.282 259.121C148.818 258.705 148.378 258.284 147.967 257.85V257.862H147.961ZM158.758 226.176C159.427 225.848 160.126 225.52 160.824 225.204L165.953 228.16C165.342 228.43 164.756 228.711 164.169 228.992L158.741 226.164H158.753L158.758 226.176ZM151.464 260.947L157.949 258.74C158.389 259.086 158.852 259.413 159.328 259.735L153.084 262.112C152.521 261.731 151.975 261.333 151.464 260.947ZM164.11 223.84C164.867 223.553 165.624 223.278 166.41 223.009L170.729 226.287C170.054 226.51 169.397 226.75 168.758 227.001L164.104 223.84H164.11ZM155.742 263.774L161.604 261.169C162.133 261.474 162.672 261.772 163.236 262.059L157.638 264.822C156.986 264.483 156.341 264.131 155.725 263.769H155.736L155.742 263.774ZM170.008 221.897C170.823 221.657 171.656 221.429 172.507 221.218L175.946 224.759C175.224 224.935 174.52 225.128 173.816 225.327L170.008 221.897ZM160.713 266.303L165.865 263.335C166.463 263.599 167.079 263.851 167.707 264.114L162.872 267.222C162.133 266.924 161.405 266.625 160.701 266.309H160.713V266.303ZM176.368 220.34C177.237 220.158 178.117 220 179.015 219.83L181.526 223.571C180.775 223.706 180.018 223.846 179.267 223.998L176.38 220.334H176.368V220.34ZM166.293 268.475L170.635 265.185C171.298 265.413 171.985 265.624 172.672 265.829L168.681 269.236C167.872 268.996 167.068 268.744 166.293 268.475ZM183.058 219.227C183.962 219.11 184.877 218.993 185.798 218.9L187.312 222.775C186.52 222.851 185.751 222.95 184.965 223.05L183.04 219.227H183.052H183.058ZM172.39 270.266L175.852 266.719C176.574 266.889 177.296 267.07 178.041 267.228L174.954 270.863C174.086 270.676 173.229 270.483 172.396 270.272L172.39 270.266ZM189.976 218.554C190.904 218.496 191.842 218.449 192.787 218.426L193.286 222.365C192.488 222.394 191.678 222.435 190.886 222.476L189.976 218.554ZM178.898 271.624L181.403 267.872C182.154 268.001 182.923 268.124 183.704 268.229L181.591 272.04C180.676 271.911 179.79 271.771 178.898 271.618V271.624ZM197.006 218.361C197.939 218.367 198.878 218.385 199.817 218.408L199.301 222.359C198.497 222.33 197.693 222.312 196.889 222.318L197.006 218.373V218.361ZM185.699 272.532L187.224 268.651C188.011 268.727 188.809 268.791 189.607 268.855H189.795L188.727 272.789L188.468 272.772C187.535 272.701 186.614 272.625 185.693 272.532H185.699ZM204.03 218.625L204.142 218.636C205.034 218.695 205.926 218.777 206.794 218.865L205.28 222.746C204.523 222.675 203.766 222.611 202.992 222.552L204.019 218.625H204.03ZM193.403 269.049C194.207 269.078 195.011 269.084 195.815 269.09L195.727 273.041C194.794 273.041 193.855 273.017 192.916 272.994L193.403 269.049ZM208.813 223.155L210.914 219.345C211.829 219.467 212.715 219.614 213.607 219.766L211.113 223.512C210.362 223.384 209.593 223.261 208.813 223.155ZM199.418 269.031C200.228 269.002 201.026 268.961 201.818 268.908L202.751 272.824C201.812 272.883 200.885 272.93 199.94 272.965L199.43 269.031H199.418ZM214.476 224.15L217.55 220.509C218.419 220.697 219.276 220.89 220.109 221.101L216.676 224.654C215.954 224.472 215.221 224.303 214.487 224.145H214.476V224.15ZM205.386 268.61C206.172 268.528 206.947 268.434 207.721 268.334L209.658 272.157C208.754 272.274 207.839 272.391 206.918 272.485L205.386 268.61ZM219.839 225.532L223.829 222.125C224.639 222.365 225.443 222.617 226.218 222.88L221.893 226.182C221.23 225.953 220.543 225.743 219.845 225.538V225.526L219.839 225.532ZM211.189 267.808C211.941 267.673 212.709 267.527 213.443 267.369L216.342 271.033C215.473 271.215 214.593 271.373 213.707 271.536L211.184 267.808H211.189ZM224.815 227.253L229.639 224.139C230.378 224.426 231.106 224.736 231.804 225.04L226.658 228.026C226.053 227.751 225.443 227.499 224.803 227.241H224.815V227.253ZM216.747 266.613C217.468 266.426 218.184 266.233 218.877 266.034L222.703 269.47C221.887 269.71 221.048 269.927 220.214 270.137L216.747 266.608V266.613ZM229.292 229.29L234.873 226.521C235.536 226.861 236.17 227.212 236.798 227.563L230.935 230.18C230.407 229.875 229.856 229.577 229.304 229.29H229.292ZM221.957 265.068C222.632 264.846 223.284 264.594 223.929 264.354L228.594 267.503C227.837 267.79 227.08 268.071 226.294 268.334L221.946 265.068H221.957ZM233.2 231.608L239.444 229.232C240.007 229.612 240.547 229.998 241.075 230.396L234.603 232.603C234.151 232.27 233.688 231.936 233.206 231.608H233.195H233.2ZM226.728 263.189C227.327 262.92 227.925 262.633 228.506 262.346L233.946 265.162C233.277 265.495 232.578 265.817 231.88 266.139L226.74 263.183H226.728V263.189ZM236.492 234.166L243.282 232.211C243.745 232.627 244.185 233.048 244.596 233.47L237.619 235.237C237.267 234.869 236.891 234.517 236.492 234.155V234.166ZM230.988 261.011C231.516 260.707 232.027 260.385 232.526 260.063L238.64 262.498C238.059 262.879 237.461 263.248 236.833 263.605L230.977 261.011H230.988ZM239.092 236.912L246.327 235.425C246.674 235.87 246.996 236.315 247.307 236.765L239.937 238.059C239.679 237.678 239.391 237.298 239.092 236.917V236.912ZM234.662 258.57C235.102 258.231 235.53 257.886 235.947 257.534L242.648 259.53C242.167 259.952 241.668 260.356 241.14 260.754L234.667 258.582V258.57H234.662ZM240.97 239.815L248.522 238.82C248.751 239.271 248.956 239.745 249.15 240.213L241.516 241.003C241.363 240.605 241.181 240.213 240.987 239.821H240.976L240.97 239.815ZM237.678 255.925C238.036 255.55 238.364 255.181 238.681 254.801L245.834 256.334C245.459 256.773 245.072 257.207 244.661 257.634L237.666 255.913H237.678V255.925ZM242.073 242.812L249.807 242.332C249.919 242.8 250.007 243.275 250.065 243.755L242.296 244.036C242.231 243.626 242.167 243.21 242.067 242.818L242.073 242.812ZM239.966 253.085C240.23 252.699 240.459 252.307 240.682 251.909L248.187 252.951C247.935 253.407 247.659 253.876 247.354 254.321L239.978 253.074L239.966 253.085ZM242.384 245.868L250.171 245.903C250.165 246.383 250.118 246.857 250.059 247.331L242.29 247.085C242.349 246.676 242.378 246.266 242.384 245.862V245.868ZM241.516 250.118C241.656 249.749 241.785 249.363 241.891 248.994L241.92 248.906L249.631 249.456V249.491C249.484 249.983 249.326 250.416 249.167 250.855L241.521 250.106V250.118H241.516Z" fill="#3D3D3D"/>
<path d="M153.936 242.625C157.386 230.73 179.145 222.471 202.541 224.163C225.937 225.854 242.127 236.859 238.677 248.754C235.238 260.637 213.467 268.909 190.072 267.211C166.676 265.519 150.486 254.514 153.936 242.625Z" fill="#EEA62C"/>
<path d="M199.204 224.045C222.042 225.761 238.314 236.965 234.964 248.684C231.983 259.168 214.179 266.965 194.11 267.275C215.969 268.042 235.639 260.04 238.86 248.725C242.246 236.842 226.226 225.807 203.094 224.075C200.583 223.887 198.107 223.829 195.66 223.864C196.839 223.899 198.007 223.952 199.198 224.045H199.204Z" fill="#BB8226"/>
<path fill-rule="evenodd" clip-rule="evenodd" d="M217.265 238.902C219.865 239.095 222.429 239.294 225.034 239.482C223.38 245.283 221.731 251.06 220.088 256.861C217.67 256.68 215.282 256.498 212.841 256.323C213.527 253.905 214.214 251.511 214.918 249.047C212.324 250.024 209.549 250.604 206.45 250.791C205.981 252.442 205.517 254.075 205.048 255.737C202.618 255.556 200.23 255.38 197.789 255.193C198.253 253.572 198.716 251.944 199.18 250.329C191.563 248.584 188.517 245.324 187.684 241.29C178.976 244.381 170.291 247.466 161.536 250.569C161.548 250.475 161.554 250.405 161.566 250.346C162.011 248.771 162.452 247.197 162.927 245.628C162.95 245.523 163.091 245.4 163.267 245.341C171.33 242.508 179.404 239.692 187.467 236.865C187.79 236.748 188.118 236.707 188.488 236.736C190.706 236.9 192.918 237.07 195.137 237.234C195.242 237.234 195.336 237.257 195.489 237.281C195.383 237.632 195.277 237.966 195.195 238.305C194.808 240.067 194.89 241.811 196.111 243.497C196.85 244.516 197.959 245.406 199.632 246.085C199.784 246.143 199.966 246.213 200.136 246.272C200.166 246.284 200.218 246.29 200.3 246.301C201.104 243.468 201.914 240.646 202.718 237.813C205.177 238.001 207.565 238.176 210.006 238.358C209.208 241.156 208.41 243.942 207.618 246.77C208.645 246.594 209.519 246.348 210.341 246.038C212.647 245.171 214.184 243.989 215.311 242.66C216.291 241.501 216.884 240.266 217.259 239.025C217.277 238.978 217.3 238.937 217.318 238.885L217.265 238.902Z" fill="#BB8226"/>
<path fill-rule="evenodd" clip-rule="evenodd" d="M219.989 238.428C222.588 238.621 225.153 238.82 227.758 239.008C226.103 244.814 224.46 250.598 222.811 256.387C220.394 256.206 218.005 256.024 215.564 255.849C216.251 253.443 216.937 251.037 217.641 248.578C215.048 249.556 212.272 250.135 209.174 250.323C208.704 251.974 208.241 253.618 207.766 255.263C205.336 255.082 202.948 254.906 200.507 254.719C200.97 253.086 201.434 251.47 201.886 249.86C194.269 248.116 191.224 244.855 190.396 240.828C181.688 243.919 173.003 247.004 164.248 250.106C164.26 250.013 164.266 249.942 164.277 249.884C164.723 248.309 165.164 246.734 165.627 245.172C165.651 245.072 165.791 244.943 165.967 244.885C174.03 242.063 182.093 239.242 190.167 236.414C190.49 236.297 190.819 236.268 191.188 236.297C193.406 236.461 195.619 236.631 197.837 236.795C197.942 236.795 198.036 236.812 198.189 236.836C198.083 237.187 197.978 237.521 197.901 237.872C197.514 239.634 197.596 241.378 198.817 243.064C199.556 244.083 200.665 244.972 202.338 245.651C202.508 245.71 202.672 245.78 202.842 245.839C202.872 245.851 202.924 245.856 203.007 245.868C203.81 243.035 204.62 240.213 205.424 237.38C207.883 237.568 210.271 237.743 212.701 237.925C211.903 240.729 211.104 243.521 210.312 246.336C211.339 246.161 212.213 245.915 213.035 245.605C215.341 244.738 216.879 243.556 218.005 242.227C218.985 241.056 219.578 239.833 219.953 238.592C219.959 238.545 219.995 238.504 220.012 238.451L219.995 238.434L219.989 238.428Z" fill="#FFD400"/>
<path d="M145.634 234.893V244.68C145.628 249.241 147.517 253.607 150.88 256.686C157.933 263.143 173.753 271.842 207.688 271.543C207.688 271.543 257.033 270.601 260.959 246.126V234.887H145.628L145.634 234.893Z" fill="#212121"/>
<path d="M194.792 259.221C163.228 256.944 141.417 242.099 146.058 226.066C150.7 210.032 180.04 198.893 211.604 201.17C243.169 203.447 264.98 218.292 260.338 234.331C255.697 250.364 226.357 261.504 194.804 259.227H194.792V259.221Z" fill="#2D2D2D"/>
<path d="M149.894 226.37V226.341C150.029 225.872 150.2 225.404 150.37 224.959L158.004 225.708C157.851 226.095 157.711 226.493 157.599 226.891L149.883 226.358H149.894V226.37ZM149.448 228.507L157.218 228.752C157.159 229.162 157.13 229.572 157.124 229.976L149.331 229.929C149.355 229.461 149.384 228.987 149.448 228.507ZM151.361 222.875C151.614 222.419 151.901 221.95 152.195 221.505L159.571 222.752C159.307 223.139 159.078 223.531 158.855 223.917L151.361 222.864V222.875ZM149.437 232.083L157.206 231.814C157.27 232.224 157.329 232.628 157.417 233.037L149.677 233.506C149.566 233.037 149.478 232.563 149.419 232.083H149.431H149.437ZM153.714 219.503C154.09 219.064 154.489 218.625 154.906 218.198L161.877 219.943C161.519 220.305 161.19 220.674 160.873 221.049L153.72 219.503H153.714ZM150.34 235.625L157.975 234.84C158.127 235.238 158.309 235.642 158.503 236.023L150.951 237.018C150.722 236.555 150.516 236.081 150.334 235.613V235.625H150.34ZM156.907 216.313C157.394 215.903 157.893 215.5 158.415 215.101L164.893 217.285C164.453 217.624 164.013 217.97 163.596 218.333L156.907 216.325V216.313ZM152.148 239.073L159.524 237.796C159.782 238.177 160.052 238.557 160.351 238.944L153.116 240.425C152.77 239.98 152.447 239.535 152.136 239.084L152.148 239.073ZM160.909 213.357C161.496 212.988 162.088 212.614 162.716 212.257L168.561 214.856C168.033 215.16 167.522 215.47 167.011 215.792L160.897 213.357H160.909ZM154.841 242.374L161.836 240.612C162.182 240.969 162.563 241.332 162.951 241.689L156.161 243.633C155.698 243.217 155.258 242.796 154.847 242.362V242.374H154.841ZM165.638 210.688C166.307 210.36 167.006 210.032 167.704 209.716L172.833 212.672C172.222 212.941 171.636 213.222 171.049 213.503L165.621 210.676H165.633L165.638 210.688ZM158.344 245.459L164.829 243.252C165.269 243.597 165.732 243.925 166.208 244.247L159.964 246.624C159.401 246.243 158.855 245.845 158.344 245.459ZM170.99 208.352C171.747 208.065 172.504 207.79 173.29 207.521L177.609 210.799C176.934 211.021 176.277 211.261 175.637 211.513L170.984 208.352H170.99ZM162.622 248.286L168.484 245.681C169.012 245.986 169.552 246.284 170.116 246.571L164.518 249.334C163.866 248.995 163.221 248.643 162.605 248.28H162.616L162.622 248.286ZM176.887 206.409C177.703 206.169 178.536 205.94 179.387 205.73L182.826 209.271C182.104 209.447 181.4 209.64 180.696 209.839L176.887 206.409ZM167.592 250.815L172.745 247.847C173.343 248.111 173.959 248.362 174.587 248.626L169.752 251.734C169.012 251.436 168.285 251.137 167.581 250.821H167.592V250.815ZM183.248 204.852C184.117 204.67 184.997 204.512 185.895 204.342L188.406 208.083C187.655 208.218 186.898 208.358 186.147 208.51L183.26 204.846H183.248V204.852ZM173.173 252.987L177.515 249.697C178.178 249.925 178.865 250.136 179.552 250.341L175.561 253.748C174.751 253.508 173.948 253.256 173.173 252.987ZM189.938 203.739C190.842 203.622 191.757 203.505 192.678 203.412L194.192 207.287C193.4 207.363 192.631 207.462 191.845 207.562L189.92 203.739H189.932H189.938ZM179.27 254.778L182.732 251.231C183.454 251.401 184.176 251.582 184.921 251.74L181.834 255.375C180.966 255.188 180.109 254.995 179.276 254.784L179.27 254.778ZM196.856 203.066C197.784 203.008 198.722 202.961 199.667 202.937L200.166 206.877C199.368 206.906 198.558 206.947 197.766 206.988L196.856 203.066ZM185.777 256.136L188.283 252.384C189.034 252.513 189.803 252.636 190.583 252.741L188.471 256.552C187.555 256.423 186.669 256.283 185.777 256.13V256.136ZM203.886 202.873C204.819 202.879 205.758 202.896 206.697 202.92L206.181 206.871C205.377 206.842 204.573 206.824 203.769 206.83L203.886 202.885V202.873ZM192.579 257.044L194.104 253.162C194.891 253.239 195.689 253.303 196.487 253.367H196.674L195.606 257.301L195.348 257.284C194.415 257.213 193.494 257.137 192.573 257.044H192.579ZM210.91 203.136L211.022 203.148C211.914 203.207 212.806 203.289 213.674 203.376L212.16 207.257C211.403 207.187 210.646 207.123 209.872 207.064L210.899 203.136H210.91ZM200.283 253.561C201.087 253.59 201.891 253.596 202.695 253.602L202.607 257.553C201.674 257.553 200.735 257.529 199.796 257.506L200.283 253.561ZM215.693 207.667L217.794 203.856C218.709 203.979 219.595 204.126 220.487 204.278L217.993 208.024C217.242 207.896 216.473 207.773 215.693 207.667ZM206.298 253.543C207.108 253.514 207.906 253.473 208.698 253.42L209.631 257.336C208.692 257.395 207.765 257.442 206.82 257.477L206.31 253.543H206.298ZM221.355 208.662L224.43 205.021C225.299 205.209 226.156 205.402 226.989 205.613L223.556 209.166C222.834 208.984 222.101 208.815 221.367 208.657H221.355V208.662ZM212.266 253.122C213.052 253.04 213.827 252.946 214.601 252.846L216.538 256.669C215.634 256.786 214.719 256.903 213.797 256.997L212.266 253.122ZM226.719 210.044L230.709 206.637C231.519 206.877 232.323 207.129 233.097 207.392L228.773 210.694C228.11 210.465 227.423 210.255 226.725 210.05V210.038L226.719 210.044ZM218.069 252.32C218.82 252.185 219.589 252.039 220.323 251.881L223.221 255.545C222.353 255.726 221.473 255.884 220.587 256.048L218.064 252.32H218.069ZM231.695 211.765L236.518 208.651C237.258 208.938 237.986 209.248 238.684 209.552L233.538 212.538C232.933 212.262 232.323 212.011 231.683 211.753H231.695V211.765ZM223.626 251.125C224.348 250.938 225.064 250.745 225.757 250.546L229.582 253.982C228.767 254.222 227.928 254.439 227.094 254.649L223.626 251.12V251.125ZM236.172 213.802L241.753 211.033C242.416 211.373 243.05 211.724 243.678 212.075L237.815 214.692C237.287 214.387 236.736 214.089 236.184 213.802H236.172ZM228.837 249.58C229.512 249.358 230.163 249.106 230.809 248.866L235.474 252.015C234.717 252.302 233.96 252.583 233.174 252.846L228.825 249.58H228.837ZM240.08 216.12L246.324 213.743C246.887 214.124 247.427 214.51 247.955 214.908L241.483 217.115C241.031 216.782 240.567 216.448 240.086 216.12H240.075H240.08ZM233.608 247.701C234.207 247.432 234.805 247.145 235.386 246.858L240.826 249.674C240.157 250.007 239.458 250.329 238.76 250.651L233.62 247.695H233.608V247.701ZM243.372 218.678L250.162 216.723C250.625 217.139 251.065 217.56 251.476 217.982L244.499 219.749C244.147 219.381 243.771 219.029 243.372 218.666V218.678ZM237.868 245.523C238.396 245.219 238.907 244.897 239.406 244.575L245.52 247.01C244.939 247.391 244.341 247.759 243.713 248.117L237.856 245.523H237.868ZM245.972 221.424L253.207 219.937C253.553 220.382 253.876 220.826 254.187 221.277L246.817 222.571C246.559 222.19 246.271 221.81 245.972 221.429V221.424ZM241.542 243.082C241.982 242.743 242.41 242.397 242.827 242.046L249.528 244.042C249.047 244.464 248.548 244.868 248.02 245.266L241.547 243.094V243.082H241.542ZM247.85 224.327L255.402 223.332C255.631 223.783 255.836 224.257 256.03 224.725L248.395 225.515C248.243 225.117 248.061 224.725 247.867 224.333H247.856L247.85 224.327ZM244.558 240.436C244.916 240.062 245.244 239.693 245.561 239.313L252.714 240.846C252.339 241.285 251.951 241.718 251.541 242.146L244.546 240.425H244.558V240.436ZM248.953 227.324L256.687 226.844C256.798 227.312 256.886 227.787 256.945 228.267L249.176 228.548C249.111 228.138 249.047 227.722 248.947 227.33L248.953 227.324ZM246.846 237.597C247.11 237.211 247.339 236.819 247.562 236.421L255.067 237.463C254.815 237.919 254.539 238.388 254.234 238.833L246.858 237.586L246.846 237.597ZM249.264 230.38L257.051 230.415C257.045 230.895 256.998 231.369 256.939 231.843L249.17 231.597C249.229 231.188 249.258 230.778 249.264 230.374V230.38ZM248.395 234.63C248.536 234.261 248.665 233.874 248.771 233.506L248.8 233.418L256.511 233.968V234.003C256.364 234.495 256.206 234.928 256.047 235.367L248.401 234.618V234.63H248.395Z" fill="#3D3D3D"/>
<path d="M160.808 227.137C164.259 215.242 186.017 206.982 209.413 208.674C232.809 210.366 248.999 221.371 245.549 233.266C242.11 245.149 220.34 253.42 196.944 251.722C173.548 250.031 157.358 239.026 160.808 227.137Z" fill="#EEA62C"/>
<path d="M206.084 208.551C228.922 210.266 245.194 221.47 241.844 233.19C238.863 243.674 221.059 251.471 200.99 251.781C222.849 252.548 242.518 244.546 245.74 233.231C249.126 221.348 233.106 210.313 209.974 208.581C207.463 208.393 204.986 208.335 202.539 208.37C203.719 208.405 204.887 208.458 206.078 208.551H206.084Z" fill="#BB8226"/>
<path fill-rule="evenodd" clip-rule="evenodd" d="M224.137 223.408C226.737 223.601 229.301 223.8 231.906 223.987C230.252 229.789 228.603 235.566 226.96 241.367C224.542 241.186 222.154 241.004 219.713 240.829C220.399 238.411 221.086 236.017 221.79 233.552C219.196 234.53 216.421 235.11 213.322 235.297C212.853 236.948 212.389 238.581 211.92 240.243C209.49 240.062 207.102 239.886 204.661 239.699C205.125 238.077 205.588 236.45 206.052 234.834C198.435 233.09 195.389 229.829 194.556 225.796C185.848 228.887 177.163 231.972 168.408 235.074C168.42 234.981 168.426 234.911 168.438 234.852C168.883 233.277 169.324 231.703 169.799 230.134C169.822 230.029 169.963 229.906 170.139 229.847C178.202 227.014 186.276 224.198 194.339 221.371C194.662 221.254 194.99 221.213 195.36 221.242C197.578 221.406 199.791 221.576 202.009 221.74C202.114 221.74 202.208 221.763 202.361 221.786C202.255 222.138 202.149 222.471 202.067 222.811C201.68 224.573 201.762 226.317 202.983 228.003C203.722 229.022 204.831 229.911 206.504 230.59C206.656 230.649 206.838 230.719 207.008 230.778C207.038 230.79 207.09 230.795 207.172 230.807C207.976 227.974 208.786 225.152 209.59 222.319C212.049 222.506 214.437 222.682 216.878 222.864C216.08 225.662 215.282 228.448 214.49 231.275C215.517 231.1 216.391 230.854 217.213 230.544C219.519 229.677 221.056 228.495 222.183 227.166C223.163 226.007 223.756 224.772 224.131 223.531C224.149 223.484 224.172 223.443 224.19 223.39L224.137 223.408Z" fill="#BB8226"/>
<path fill-rule="evenodd" clip-rule="evenodd" d="M226.869 222.94C229.468 223.133 232.032 223.332 234.638 223.519C232.983 229.326 231.34 235.11 229.691 240.899C227.273 240.718 224.885 240.536 222.444 240.36C223.131 237.955 223.817 235.549 224.521 233.09C221.928 234.068 219.152 234.647 216.054 234.835C215.584 236.485 215.121 238.13 214.645 239.775C212.216 239.594 209.828 239.418 207.387 239.231C207.85 237.597 208.314 235.982 208.766 234.372C201.149 232.628 198.103 229.367 197.276 225.34C188.568 228.431 179.883 231.515 171.128 234.618C171.14 234.524 171.145 234.454 171.157 234.395C171.603 232.821 172.043 231.246 172.507 229.683C172.53 229.584 172.671 229.455 172.847 229.396C180.91 226.575 188.973 223.753 197.047 220.926C197.37 220.809 197.698 220.78 198.068 220.809C200.286 220.973 202.499 221.143 204.717 221.307C204.822 221.307 204.916 221.324 205.069 221.348C204.963 221.699 204.857 222.032 204.781 222.384C204.394 224.146 204.476 225.89 205.697 227.576C206.436 228.594 207.545 229.484 209.217 230.163C209.388 230.222 209.552 230.292 209.722 230.351C209.751 230.362 209.804 230.368 209.886 230.38C210.69 227.547 211.5 224.725 212.304 221.892C214.763 222.079 217.151 222.255 219.58 222.436C218.782 225.24 217.984 228.032 217.192 230.848C218.219 230.672 219.093 230.427 219.915 230.116C222.221 229.25 223.758 228.068 224.885 226.739C225.865 225.568 226.458 224.345 226.833 223.104C226.839 223.057 226.874 223.016 226.892 222.963L226.874 222.946L226.869 222.94Z" fill="#FFD400"/>
<path d="M139.262 212.847V226.253C139.256 230.813 141.14 235.179 144.508 238.259C151.561 244.715 167.381 253.414 201.316 253.115C201.316 253.115 250.661 252.173 254.586 227.698V216.459L139.256 212.842L139.262 212.847Z" fill="#212121"/>
<path d="M188.417 240.793C156.853 238.516 135.042 223.671 139.683 207.637C144.325 191.604 173.665 180.464 205.229 182.741C236.794 185.018 258.605 199.864 253.963 215.903C249.322 231.936 219.982 243.076 188.429 240.799H188.417V240.793Z" fill="#2D2D2D"/>
<path d="M143.519 207.942V207.912C143.654 207.444 143.824 206.976 143.995 206.531L151.629 207.28C151.476 207.667 151.336 208.065 151.224 208.463L143.508 207.93H143.519V207.942ZM143.073 210.078L150.843 210.324C150.784 210.734 150.755 211.144 150.749 211.548L142.956 211.501C142.98 211.032 143.009 210.558 143.073 210.078ZM144.986 204.447C145.239 203.99 145.526 203.522 145.82 203.077L153.196 204.324C152.932 204.71 152.703 205.103 152.48 205.489L144.986 204.435V204.447ZM143.062 213.655L150.831 213.386C150.895 213.795 150.954 214.199 151.042 214.609L143.302 215.077C143.191 214.609 143.103 214.135 143.044 213.655H143.056H143.062ZM147.339 201.075C147.715 200.636 148.114 200.197 148.531 199.77L155.502 201.514C155.144 201.877 154.815 202.246 154.498 202.621L147.345 201.075H147.339ZM143.965 217.196L151.6 216.412C151.752 216.81 151.934 217.214 152.128 217.594L144.576 218.59C144.347 218.127 144.141 217.653 143.959 217.185V217.196H143.965ZM150.532 197.885C151.019 197.475 151.518 197.071 152.04 196.673L158.518 198.857C158.078 199.196 157.638 199.542 157.221 199.904L150.532 197.897V197.885ZM145.773 220.644L153.149 219.368C153.407 219.749 153.677 220.129 153.976 220.515L146.741 221.996C146.395 221.552 146.072 221.107 145.761 220.656L145.773 220.644ZM154.534 194.929C155.121 194.56 155.713 194.185 156.341 193.828L162.186 196.427C161.657 196.732 161.147 197.042 160.636 197.364L154.522 194.929H154.534ZM148.466 223.946L155.461 222.184C155.807 222.541 156.188 222.904 156.576 223.261L149.786 225.204C149.323 224.789 148.883 224.367 148.472 223.934V223.946H148.466ZM159.263 192.26C159.932 191.932 160.631 191.604 161.329 191.288L166.458 194.244C165.847 194.513 165.261 194.794 164.674 195.075L159.246 192.248H159.257L159.263 192.26ZM151.969 227.031L158.454 224.824C158.894 225.169 159.357 225.497 159.833 225.819L153.589 228.196C153.026 227.815 152.48 227.417 151.969 227.031ZM164.615 189.924C165.372 189.637 166.129 189.362 166.915 189.093L171.234 192.371C170.559 192.593 169.902 192.833 169.262 193.085L164.609 189.924H164.615ZM156.247 229.858L162.109 227.253C162.637 227.558 163.177 227.856 163.741 228.143L158.143 230.906C157.491 230.566 156.846 230.215 156.23 229.852H156.241L156.247 229.858ZM170.512 187.98C171.328 187.74 172.161 187.512 173.012 187.301L176.451 190.843C175.729 191.019 175.025 191.212 174.321 191.411L170.512 187.98ZM161.217 232.387L166.37 229.419C166.968 229.682 167.584 229.934 168.212 230.198L163.377 233.306C162.637 233.007 161.91 232.709 161.206 232.393H161.217V232.387ZM176.873 186.423C177.742 186.242 178.622 186.084 179.52 185.914L182.031 189.655C181.28 189.789 180.523 189.93 179.772 190.082L176.885 186.417H176.873V186.423ZM166.798 234.559L171.14 231.269C171.803 231.497 172.49 231.708 173.177 231.913L169.186 235.32C168.376 235.08 167.573 234.828 166.798 234.559ZM183.563 185.311C184.467 185.194 185.382 185.077 186.303 184.983L187.817 188.858C187.025 188.935 186.256 189.034 185.47 189.134L183.545 185.311H183.557H183.563ZM172.895 236.35L176.357 232.802C177.079 232.972 177.8 233.154 178.546 233.312L175.459 236.947C174.591 236.76 173.734 236.566 172.901 236.356L172.895 236.35ZM190.481 184.638C191.409 184.579 192.347 184.533 193.292 184.509L193.791 188.449C192.993 188.478 192.183 188.519 191.391 188.56L190.481 184.638ZM179.402 237.708L181.908 233.956C182.659 234.084 183.428 234.207 184.208 234.313L182.096 238.124C181.18 237.995 180.294 237.854 179.402 237.702V237.708ZM197.511 184.445C198.444 184.451 199.383 184.468 200.322 184.492L199.806 188.443C199.002 188.414 198.198 188.396 197.394 188.402L197.511 184.456V184.445ZM186.204 238.615L187.729 234.734C188.516 234.81 189.314 234.875 190.112 234.939H190.299L189.231 238.873L188.973 238.855C188.04 238.785 187.119 238.709 186.198 238.615H186.204ZM204.535 184.708L204.647 184.72C205.539 184.778 206.431 184.86 207.299 184.948L205.785 188.829C205.028 188.759 204.271 188.695 203.497 188.636L204.524 184.708H204.535ZM193.908 235.132C194.712 235.162 195.516 235.167 196.32 235.173L196.232 239.125C195.299 239.125 194.36 239.101 193.421 239.078L193.908 235.132ZM209.318 189.239L211.419 185.428C212.334 185.551 213.22 185.697 214.112 185.85L211.618 189.596C210.867 189.467 210.098 189.344 209.318 189.239ZM199.923 235.115C200.733 235.085 201.531 235.044 202.323 234.992L203.256 238.908C202.317 238.966 201.39 239.013 200.445 239.048L199.935 235.115H199.923ZM214.98 190.234L218.055 186.593C218.924 186.78 219.781 186.974 220.614 187.184L217.181 190.738C216.459 190.556 215.726 190.386 214.992 190.228H214.98V190.234ZM205.891 234.693C206.677 234.611 207.452 234.518 208.226 234.418L210.163 238.241C209.259 238.358 208.344 238.475 207.422 238.568L205.891 234.693ZM220.344 191.616L224.334 188.209C225.144 188.449 225.948 188.7 226.722 188.964L222.398 192.265C221.735 192.037 221.048 191.826 220.35 191.621V191.61L220.344 191.616ZM211.694 233.891C212.445 233.757 213.214 233.61 213.948 233.452L216.846 237.117C215.978 237.298 215.098 237.456 214.212 237.62L211.689 233.891H211.694ZM225.32 193.337L230.143 190.222C230.883 190.509 231.61 190.819 232.309 191.124L227.163 194.109C226.558 193.834 225.948 193.582 225.308 193.325H225.32V193.337ZM217.251 232.697C217.973 232.51 218.689 232.317 219.382 232.118L223.207 235.554C222.392 235.794 221.553 236.01 220.719 236.221L217.251 232.691V232.697ZM229.797 195.374L235.378 192.605C236.041 192.944 236.675 193.296 237.302 193.647L231.44 196.263C230.912 195.959 230.361 195.661 229.809 195.374H229.797ZM222.462 231.152C223.137 230.929 223.788 230.678 224.434 230.438L229.099 233.587C228.342 233.874 227.585 234.155 226.799 234.418L222.45 231.152H222.462ZM233.705 197.692L239.949 195.315C240.512 195.696 241.052 196.082 241.58 196.48L235.108 198.687C234.656 198.353 234.192 198.02 233.711 197.692H233.7H233.705ZM227.233 229.273C227.832 229.003 228.43 228.717 229.011 228.43L234.451 231.245C233.782 231.579 233.083 231.901 232.385 232.223L227.245 229.267H227.233V229.273ZM236.997 200.25L243.787 198.295C244.25 198.71 244.69 199.132 245.101 199.553L238.124 201.321C237.772 200.952 237.396 200.601 236.997 200.238V200.25ZM231.493 227.095C232.021 226.791 232.532 226.469 233.031 226.147L239.145 228.582C238.564 228.962 237.966 229.331 237.338 229.688L231.481 227.095H231.493ZM239.597 202.995L246.832 201.508C247.178 201.953 247.501 202.398 247.812 202.849L240.442 204.143C240.184 203.762 239.896 203.382 239.597 203.001V202.995ZM235.167 224.654C235.607 224.315 236.035 223.969 236.452 223.618L243.153 225.614C242.672 226.036 242.173 226.439 241.645 226.838L235.172 224.666V224.654H235.167ZM241.475 205.899L249.027 204.904C249.256 205.354 249.461 205.828 249.655 206.297L242.02 207.087C241.868 206.689 241.686 206.297 241.492 205.905H241.481L241.475 205.899ZM238.183 222.008C238.541 221.634 238.869 221.265 239.186 220.884L246.339 222.418C245.964 222.857 245.576 223.29 245.166 223.717L238.171 221.996H238.183V222.008ZM242.578 208.896L250.312 208.416C250.424 208.884 250.512 209.358 250.57 209.838L242.801 210.119C242.736 209.709 242.672 209.294 242.572 208.902L242.578 208.896ZM240.471 219.169C240.735 218.783 240.964 218.391 241.187 217.993L248.692 219.034C248.44 219.491 248.164 219.959 247.859 220.404L240.483 219.157L240.471 219.169ZM242.889 211.951L250.676 211.987C250.67 212.467 250.623 212.941 250.564 213.415L242.795 213.169C242.854 212.759 242.883 212.35 242.889 211.946V211.951ZM242.02 216.201C242.161 215.832 242.29 215.446 242.396 215.077L242.425 214.99L250.136 215.54V215.575C249.989 216.067 249.831 216.5 249.672 216.939L242.026 216.19V216.201H242.02Z" fill="#3D3D3D"/>
<path d="M154.433 208.709C157.884 196.814 179.642 188.554 203.038 190.246C226.434 191.938 242.624 202.943 239.174 214.837C235.735 226.721 213.965 234.992 190.569 233.294C167.173 231.603 150.983 220.598 154.433 208.709Z" fill="#EEA62C"/>
<path d="M199.709 190.123C222.547 191.838 238.819 203.042 235.469 214.761C232.488 225.245 214.684 233.043 194.615 233.353C216.474 234.12 236.143 226.118 239.365 214.802C242.751 202.919 226.731 191.885 203.599 190.152C201.088 189.965 198.611 189.906 196.164 189.941C197.344 189.977 198.512 190.029 199.703 190.123H199.709Z" fill="#BB8226"/>
<path fill-rule="evenodd" clip-rule="evenodd" d="M217.762 204.98C220.362 205.173 222.926 205.372 225.531 205.559C223.877 211.36 222.228 217.138 220.585 222.939C218.167 222.757 215.779 222.576 213.338 222.4C214.024 219.983 214.711 217.589 215.415 215.124C212.821 216.102 210.046 216.681 206.947 216.869C206.478 218.519 206.014 220.152 205.545 221.815C203.115 221.633 200.727 221.458 198.286 221.271C198.75 219.649 199.213 218.022 199.677 216.406C192.06 214.662 189.014 211.401 188.181 207.368C179.473 210.459 170.788 213.544 162.033 216.646C162.045 216.552 162.051 216.482 162.063 216.424C162.508 214.849 162.949 213.274 163.424 211.706C163.447 211.6 163.588 211.477 163.764 211.419C171.827 208.585 179.901 205.77 187.964 202.943C188.287 202.825 188.615 202.784 188.985 202.814C191.203 202.978 193.415 203.147 195.634 203.311C195.739 203.311 195.833 203.335 195.986 203.358C195.88 203.709 195.774 204.043 195.692 204.383C195.305 206.144 195.387 207.889 196.608 209.575C197.347 210.593 198.456 211.483 200.129 212.162C200.281 212.221 200.463 212.291 200.633 212.349C200.663 212.361 200.715 212.367 200.797 212.379C201.601 209.546 202.411 206.724 203.215 203.891C205.674 204.078 208.062 204.254 210.503 204.435C209.705 207.233 208.907 210.02 208.115 212.847C209.142 212.671 210.016 212.426 210.838 212.115C213.144 211.249 214.681 210.066 215.808 208.738C216.788 207.579 217.381 206.344 217.756 205.103C217.774 205.056 217.797 205.015 217.815 204.962L217.762 204.98Z" fill="#BB8226"/>
<path fill-rule="evenodd" clip-rule="evenodd" d="M220.494 204.511C223.093 204.704 225.657 204.903 228.263 205.091C226.608 210.898 224.965 216.681 223.316 222.471C220.898 222.289 218.51 222.108 216.069 221.932C216.756 219.526 217.442 217.12 218.146 214.662C215.553 215.639 212.777 216.219 209.679 216.406C209.209 218.057 208.746 219.702 208.27 221.347C205.841 221.165 203.453 220.99 201.012 220.802C201.475 219.169 201.939 217.553 202.391 215.944C194.774 214.199 191.728 210.939 190.901 206.911C182.193 210.002 173.508 213.087 164.753 216.189C164.765 216.096 164.77 216.026 164.782 215.967C165.228 214.392 165.668 212.818 166.132 211.255C166.155 211.155 166.296 211.026 166.472 210.968C174.535 208.146 182.598 205.325 190.672 202.498C190.995 202.38 191.323 202.351 191.693 202.38C193.911 202.544 196.124 202.714 198.342 202.878C198.447 202.878 198.541 202.896 198.694 202.919C198.588 203.27 198.482 203.604 198.406 203.955C198.019 205.717 198.101 207.462 199.322 209.147C200.061 210.166 201.17 211.056 202.842 211.735C203.013 211.793 203.177 211.864 203.347 211.922C203.376 211.934 203.429 211.94 203.511 211.951C204.315 209.118 205.125 206.297 205.929 203.463C208.388 203.651 210.776 203.826 213.205 204.008C212.407 206.812 211.609 209.604 210.817 212.42C211.844 212.244 212.718 211.998 213.54 211.688C215.846 210.822 217.383 209.639 218.51 208.31C219.49 207.14 220.083 205.916 220.458 204.675C220.464 204.628 220.499 204.587 220.517 204.535L220.499 204.517L220.494 204.511Z" fill="#FFD400"/>
<path d="M148.467 198.284L149.03 212.18C149.03 216.74 150.914 221.107 154.282 224.186C161.335 230.643 177.156 239.342 211.091 239.043C211.091 239.043 260.435 238.101 264.361 213.626V198.049L148.461 198.284H148.467Z" fill="#CC7617"/>
<path d="M198.185 226.721C166.621 224.444 144.809 209.599 149.451 193.565C154.092 177.532 183.433 166.392 214.997 168.67C246.561 170.947 268.373 185.792 263.731 201.831C259.089 217.864 229.749 229.004 198.197 226.727H198.185V226.721Z" fill="#EB9B0B"/>
<path d="M153.295 193.864V193.835C153.43 193.366 153.6 192.898 153.77 192.453L161.404 193.202C161.252 193.589 161.111 193.987 161 194.385L153.283 193.852H153.295V193.864ZM152.849 196L160.618 196.246C160.559 196.656 160.53 197.066 160.524 197.47L152.731 197.423C152.755 196.955 152.784 196.48 152.849 196ZM154.762 190.369C155.014 189.913 155.302 189.444 155.595 188.999L162.971 190.246C162.707 190.633 162.478 191.025 162.255 191.411L154.762 190.357V190.369ZM152.837 199.577L160.606 199.308C160.671 199.718 160.73 200.121 160.818 200.531L153.078 201C152.966 200.531 152.878 200.057 152.819 199.577H152.831H152.837ZM157.115 186.997C157.49 186.558 157.889 186.119 158.306 185.692L165.277 187.436C164.919 187.799 164.591 188.168 164.274 188.543L157.121 186.997H157.115ZM153.741 203.119L161.375 202.334C161.528 202.732 161.71 203.136 161.903 203.517L154.351 204.512C154.122 204.049 153.917 203.575 153.735 203.107V203.119H153.741ZM160.307 183.807C160.794 183.397 161.293 182.993 161.815 182.595L168.294 184.779C167.853 185.118 167.413 185.464 166.997 185.827L160.307 183.819V183.807ZM155.548 206.566L162.924 205.29C163.182 205.671 163.452 206.051 163.752 206.438L156.516 207.919C156.17 207.474 155.847 207.029 155.536 206.578L155.548 206.566ZM164.309 180.851C164.896 180.482 165.489 180.108 166.116 179.75L171.961 182.35C171.433 182.654 170.922 182.964 170.412 183.286L164.297 180.851H164.309ZM158.242 209.868L165.236 208.106C165.583 208.463 165.964 208.826 166.351 209.183L159.562 211.127C159.098 210.711 158.658 210.289 158.247 209.856V209.868H158.242ZM169.039 178.182C169.708 177.854 170.406 177.526 171.104 177.21L176.233 180.166C175.623 180.435 175.036 180.716 174.449 180.997L169.021 178.17H169.033L169.039 178.182ZM161.745 212.953L168.229 210.746C168.669 211.091 169.133 211.419 169.608 211.741L163.364 214.118C162.801 213.737 162.255 213.339 161.745 212.953ZM174.39 175.846C175.147 175.559 175.904 175.284 176.691 175.015L181.01 178.293C180.335 178.515 179.678 178.755 179.038 179.007L174.385 175.846H174.39ZM166.023 215.78L171.885 213.175C172.413 213.48 172.953 213.778 173.516 214.065L167.918 216.828C167.267 216.489 166.621 216.137 166.005 215.774H166.017L166.023 215.78ZM180.288 173.903C181.104 173.663 181.937 173.434 182.788 173.224L186.226 176.765C185.505 176.941 184.8 177.134 184.096 177.333L180.288 173.903ZM170.993 218.309L176.145 215.341C176.744 215.605 177.36 215.856 177.988 216.12L173.152 219.228C172.413 218.93 171.685 218.631 170.981 218.315H170.993V218.309ZM186.649 172.346C187.517 172.164 188.397 172.006 189.295 171.836L191.807 175.577C191.056 175.711 190.299 175.852 189.548 176.004L186.661 172.34H186.649V172.346ZM176.573 220.481L180.916 217.191C181.579 217.419 182.265 217.63 182.952 217.835L178.962 221.242C178.152 221.002 177.348 220.75 176.573 220.481ZM193.338 171.233C194.242 171.116 195.157 170.999 196.079 170.905L197.593 174.781C196.801 174.857 196.032 174.956 195.246 175.056L193.321 171.233H193.333H193.338ZM182.67 222.272L186.132 218.725C186.854 218.894 187.576 219.076 188.321 219.234L185.235 222.869C184.366 222.682 183.509 222.489 182.676 222.278L182.67 222.272ZM200.257 170.56C201.184 170.502 202.123 170.455 203.068 170.431L203.566 174.371C202.768 174.4 201.959 174.441 201.166 174.482L200.257 170.56ZM189.178 223.63L191.684 219.878C192.435 220.007 193.203 220.13 193.984 220.235L191.871 224.046C190.956 223.917 190.07 223.776 189.178 223.624V223.63ZM207.287 170.367C208.22 170.373 209.159 170.39 210.097 170.414L209.581 174.365C208.777 174.336 207.973 174.318 207.169 174.324L207.287 170.379V170.367ZM195.979 224.537L197.505 220.656C198.291 220.732 199.089 220.797 199.887 220.861H200.075L199.007 224.795L198.749 224.777C197.816 224.707 196.894 224.631 195.973 224.537H195.979ZM214.311 170.63L214.422 170.642C215.314 170.701 216.206 170.783 217.075 170.87L215.561 174.751C214.804 174.681 214.047 174.617 213.272 174.558L214.299 170.63H214.311ZM203.684 221.054C204.488 221.084 205.292 221.09 206.096 221.095L206.007 225.047C205.074 225.047 204.136 225.023 203.197 225L203.684 221.054ZM219.093 175.161L221.194 171.35C222.109 171.473 222.995 171.62 223.887 171.772L221.393 175.518C220.642 175.389 219.874 175.267 219.093 175.161ZM209.699 221.037C210.508 221.008 211.306 220.967 212.099 220.914L213.032 224.83C212.093 224.889 211.166 224.935 210.221 224.971L209.71 221.037H209.699ZM224.756 176.156L227.831 172.515C228.699 172.703 229.556 172.896 230.389 173.107L226.956 176.66C226.235 176.478 225.501 176.308 224.768 176.15H224.756V176.156ZM215.666 220.615C216.453 220.533 217.227 220.44 218.002 220.34L219.938 224.163C219.035 224.28 218.119 224.397 217.198 224.491L215.666 220.615ZM230.119 177.538L234.11 174.131C234.919 174.371 235.723 174.623 236.498 174.886L232.173 178.188C231.51 177.959 230.823 177.749 230.125 177.544V177.532L230.119 177.538ZM221.47 219.813C222.221 219.679 222.99 219.532 223.723 219.374L226.622 223.039C225.753 223.22 224.873 223.378 223.987 223.542L221.464 219.813H221.47ZM235.095 179.259L239.919 176.145C240.658 176.431 241.386 176.742 242.084 177.046L236.938 180.031C236.334 179.756 235.723 179.505 235.084 179.247H235.095V179.259ZM227.027 218.619C227.749 218.432 228.464 218.239 229.157 218.04L232.983 221.476C232.167 221.716 231.328 221.933 230.495 222.143L227.027 218.613V218.619ZM239.573 181.296L245.153 178.527C245.816 178.867 246.45 179.218 247.078 179.569L241.216 182.186C240.688 181.881 240.136 181.583 239.584 181.296H239.573ZM232.238 217.074C232.912 216.851 233.564 216.6 234.209 216.36L238.874 219.509C238.117 219.796 237.36 220.077 236.574 220.34L232.226 217.074H232.238ZM243.481 183.614L249.725 181.237C250.288 181.618 250.828 182.004 251.356 182.402L244.883 184.609C244.431 184.275 243.968 183.942 243.487 183.614H243.475H243.481ZM237.008 215.195C237.607 214.926 238.205 214.639 238.786 214.352L244.226 217.168C243.557 217.501 242.859 217.823 242.161 218.145L237.02 215.189H237.008V215.195ZM246.773 186.172L253.562 184.217C254.026 184.632 254.466 185.054 254.877 185.475L247.899 187.243C247.547 186.874 247.172 186.523 246.773 186.16V186.172ZM241.269 213.017C241.797 212.713 242.307 212.391 242.806 212.069L248.921 214.504C248.34 214.885 247.741 215.253 247.113 215.61L241.257 213.017H241.269ZM249.372 188.917L256.608 187.431C256.954 187.875 257.277 188.32 257.588 188.771L250.217 190.065C249.959 189.684 249.672 189.304 249.372 188.923V188.917ZM244.942 210.576C245.382 210.237 245.81 209.891 246.227 209.54L252.928 211.536C252.447 211.958 251.948 212.362 251.42 212.76L244.948 210.588V210.576H244.942ZM251.25 191.821L258.802 190.826C259.031 191.276 259.237 191.751 259.43 192.219L251.796 193.009C251.643 192.611 251.461 192.219 251.268 191.827H251.256L251.25 191.821ZM247.958 207.93C248.316 207.556 248.645 207.187 248.962 206.806L256.115 208.34C255.739 208.779 255.352 209.212 254.941 209.64L247.946 207.919H247.958V207.93ZM252.353 194.818L260.087 194.338C260.199 194.806 260.287 195.28 260.346 195.76L252.576 196.041C252.512 195.632 252.447 195.216 252.348 194.824L252.353 194.818ZM250.247 205.091C250.511 204.705 250.74 204.313 250.963 203.915L258.468 204.957C258.216 205.413 257.94 205.882 257.635 206.326L250.258 205.08L250.247 205.091ZM252.664 197.874L260.451 197.909C260.445 198.389 260.398 198.863 260.34 199.337L252.57 199.091C252.629 198.681 252.658 198.272 252.664 197.868V197.874ZM251.796 202.123C251.937 201.755 252.066 201.368 252.171 201L252.201 200.912L259.911 201.462V201.497C259.765 201.989 259.606 202.422 259.448 202.861L251.802 202.112V202.123H251.796Z" fill="#F5CD85"/>
<path d="M164.209 194.631C167.659 182.736 189.418 174.477 212.814 176.168C236.209 177.86 252.399 188.865 248.949 200.76C245.51 212.643 223.74 220.914 200.344 219.217C176.948 217.525 160.758 206.52 164.209 194.631Z" fill="#EE972C"/>
<path d="M209.483 176.051C232.322 177.766 248.594 188.97 245.243 200.689C242.262 211.173 224.458 218.97 204.39 219.281C226.248 220.047 245.918 212.045 249.139 200.73C252.525 188.847 236.506 177.813 213.374 176.08C210.862 175.893 208.386 175.834 205.939 175.869C207.118 175.904 208.286 175.957 209.477 176.051H209.483Z" fill="#BB8226"/>
<g opacity="0.3">
<path d="M241.048 221.137C215.452 230.866 179.269 228.243 160.245 215.295C141.209 202.346 146.531 183.966 172.128 174.248" fill="#BB8226"/>
</g>
<path d="M78.2181 144.47C78.2181 144.47 53.0442 81.8704 113.438 38.8337C113.438 38.8337 151.363 12.2051 199.874 27.4657C199.874 27.4657 243.539 42.024 254.835 81.9991L78.2239 144.47H78.2181Z" fill="#212121"/>
<path d="M105.463 122.794C105.463 122.794 88.1872 48.4219 133.453 29.0988" stroke="#3F3F3F" stroke-width="0.620496" stroke-miterlimit="10"/>
<path d="M162.002 98.7757L135.578 27.1494" stroke="#3F3F3F" stroke-width="0.620496" stroke-miterlimit="10"/>
<path d="M218.845 81.601C218.845 81.601 187.069 16.7182 140.894 26.7223" stroke="#3F3F3F" stroke-width="0.620496" stroke-miterlimit="10"/>
<path d="M78.1123 143.902C78.1123 143.902 83.3231 129.613 161.128 99.086C161.128 99.086 250.985 66.9315 255.216 80.8985C255.216 80.8985 254.565 95.1874 170.898 126.692C170.898 126.692 110.668 151.05 82.3431 148.129C82.3431 148.129 78.7637 148.451 78.1123 143.908V143.902Z" fill="#2D2D2D"/>
<path d="M82.3477 147.309L147.659 196.486" stroke="#BABABA" stroke-width="0.620496" stroke-miterlimit="10"/>
<path d="M170.897 126.686L206.64 227.71" stroke="#BABABA" stroke-width="0.620496" stroke-miterlimit="10"/>
<path d="M255.22 80.8984L230.052 170.841" stroke="#BABABA" stroke-width="0.620496" stroke-miterlimit="10"/>
<path d="M154.046 44.1487L131.729 51.8522L133.349 56.5176L155.665 48.8141L154.046 44.1487Z" fill="#E50913"/>
<path d="M155.561 84.557C153.443 85.2887 151.43 85.5989 149.511 85.4935C147.592 85.3882 145.896 84.8379 144.412 83.8428C142.956 82.8418 141.871 81.4018 141.161 79.5286L148.666 76.9354C149.147 77.9656 149.804 78.6622 150.638 79.0193C151.459 79.3471 152.38 79.3413 153.396 78.99C154.44 78.6271 155.185 78.112 155.626 77.4388C156.06 76.7364 156.13 75.9578 155.831 75.109C155.584 74.3949 155.133 73.8914 154.475 73.5988C153.848 73.2944 153.12 73.1129 152.304 73.0602C151.512 72.9958 150.403 72.9958 148.977 73.0602C146.906 73.1305 145.18 73.0778 143.801 72.9139C142.417 72.7441 141.108 72.2466 139.864 71.4153C138.62 70.5841 137.687 69.267 137.059 67.4523C136.126 64.7655 136.372 62.3303 137.804 60.1469C139.224 57.9342 141.501 56.2893 144.635 55.2063C147.827 54.1058 150.661 53.9829 153.149 54.8492C155.626 55.6863 157.404 57.4366 158.483 60.1059L150.855 62.7401C150.473 61.8269 149.881 61.2181 149.065 60.9137C148.244 60.5859 147.334 60.5918 146.348 60.9313C145.497 61.224 144.887 61.6981 144.529 62.342C144.159 62.9625 144.118 63.6942 144.418 64.5489C144.74 65.4796 145.433 66.0591 146.495 66.2757C147.557 66.4923 149.124 66.5801 151.207 66.5392C153.296 66.5216 155.015 66.6035 156.371 66.785C157.756 66.9548 159.058 67.4406 160.296 68.2426C161.529 69.0446 162.444 70.309 163.043 72.0417C163.612 73.6866 163.706 75.3315 163.319 76.9705C162.961 78.5978 162.121 80.0847 160.801 81.4311C159.481 82.7774 157.738 83.8252 155.567 84.5745L155.561 84.557Z" fill="white"/>
<path d="M221.091 290.72L243.09 293.875L280.364 254.977L258.5 252.483L221.091 290.72Z" fill="#3D3D3D"/>
<path d="M294.33 270.747L333.717 228.565L350.839 230.93L335.031 210.43L294.33 223.572L312.509 225.673L282.477 257.079L280.364 254.977L294.33 270.747Z" fill="#3D3D3D"/>
<path d="M244.539 300.443L243.09 293.875L280.364 254.977L294.33 270.747L333.716 228.565L334.901 235.396L294.066 279.551L279.577 264.507L244.539 300.443Z" fill="#0C0C0C"/>
<path d="M296.173 230.93L294.33 223.572L312.509 225.673L306.336 232.13L296.173 230.93Z" fill="#E50913"/>
<path d="M334.9 235.396L352.158 237.761L350.838 230.93L333.715 228.565L334.9 235.396Z" fill="#E50913"/>
<path d="M222.276 297.949L244.54 300.443L243.09 293.875L221.091 290.72L222.276 297.949Z" fill="#0C0C0C"/>
</g>
<path d="M214.646 200.444C214.805 200.871 214.94 201.24 215.086 201.608C215.38 202.381 215.274 203.16 214.605 203.938C213.737 204.945 212.064 205.671 210.087 206.286C207.065 207.228 203.861 207.854 200.346 207.778C197.453 207.72 195.182 207.146 193.275 206.327C191.156 205.413 189.754 204.295 188.445 203.206C188.24 203.037 188.058 203.054 187.682 203.154C185.177 203.85 182.659 204.535 180.142 205.232C179.72 205.349 179.52 205.331 179.373 205.121C178.963 204.518 178.499 203.944 178.047 203.382C177.941 203.247 177.941 203.171 178.323 203.066C180.465 202.492 182.595 201.901 184.737 201.333C186.139 200.959 186.157 200.97 185.652 200.414C185.4 200.133 185.106 199.864 184.889 199.577C184.76 199.407 184.567 199.402 184.179 199.507C182.507 199.969 180.823 200.42 179.144 200.877C178.487 201.052 177.83 201.228 177.179 201.415C176.815 201.515 176.604 201.497 176.492 201.351C176.099 200.812 175.706 200.285 175.318 199.764C175.225 199.636 175.307 199.571 175.641 199.483C177.407 199.009 179.162 198.523 180.922 198.038C181.368 197.915 181.826 197.803 182.272 197.675C182.982 197.476 183.023 197.441 182.783 197.171C182.401 196.744 182.008 196.328 181.627 195.919C181.075 195.333 180.535 194.765 179.989 194.215C179.872 194.092 179.978 194.016 180.3 193.952C181.891 193.636 183.487 193.32 185.089 192.998C185.423 192.933 185.558 192.986 185.664 193.085C186.028 193.425 186.374 193.782 186.808 194.11C187.26 194.455 187.941 194.496 188.991 194.239C190.188 193.94 191.356 193.612 192.529 193.296C194.771 192.687 197.007 192.073 199.248 191.464C202.042 190.703 204.835 189.942 207.628 189.187C208.033 189.076 208.449 188.97 208.86 188.865C210.468 188.455 211.002 187.911 210.251 187.39C209.77 187.056 209.212 186.746 208.655 186.447C208.479 186.354 208.473 186.295 208.796 186.207C210.116 185.844 211.425 185.481 212.739 185.118C213.003 185.042 213.179 185.048 213.338 185.136C214.881 185.956 216.495 186.81 218.167 187.694C218.349 187.794 218.507 187.811 218.842 187.717C221.095 187.097 223.366 186.482 225.625 185.868C226.007 185.762 226.241 185.756 226.511 185.885C227.304 186.266 228.137 186.646 229.005 187.027C229.299 187.156 229.158 187.243 228.806 187.337C226.846 187.87 224.886 188.402 222.92 188.935C222.621 189.017 222.316 189.099 222.016 189.181C221.694 189.263 221.647 189.357 221.846 189.456C222.486 189.784 223.137 190.118 223.794 190.451C224.029 190.574 224.293 190.527 224.581 190.451C226.095 190.041 227.609 189.632 229.117 189.222C229.927 188.999 230.736 188.777 231.534 188.555C231.875 188.461 232.115 188.455 232.368 188.572C233.371 189.035 234.421 189.491 235.454 189.977C235.531 190.012 235.425 190.147 235.29 190.182C232.831 190.861 230.361 191.534 227.873 192.201C227.421 192.324 227.321 192.424 227.573 192.588C228.688 193.314 229.604 194.104 230.208 194.959C230.883 195.919 231.229 196.925 230.208 197.956C229.574 198.594 228.542 199.132 227.221 199.595C225.038 200.356 222.65 200.929 219.763 200.959C218.12 200.976 216.547 200.877 215.186 200.514C215.08 200.484 214.934 200.484 214.646 200.449V200.444ZM195.018 201.257C195.857 201.526 196.661 201.837 197.582 202.077C198.626 202.346 199.829 202.463 201.185 202.258C202.951 201.995 204.418 201.573 205.193 200.765C206.102 199.823 205.815 198.957 205.193 198.149C204.389 197.101 203.262 196.164 201.965 195.316C201.314 194.888 201.337 194.888 200.117 195.222C197.206 196.018 194.284 196.808 191.362 197.599C190.646 197.792 190.64 197.786 190.945 198.067C191.28 198.371 191.596 198.682 191.949 198.986C192.823 199.753 193.773 200.525 195.018 201.251V201.257ZM210.239 195.983C211.155 196.229 211.841 196.445 212.61 196.615C215.89 197.359 219.405 196.299 220.203 195.316C220.731 194.66 220.514 194.045 219.91 193.472C218.977 192.588 217.668 191.833 216.318 191.119C215.961 190.931 215.925 190.925 215.327 191.089C212.487 191.862 209.641 192.635 206.789 193.401C206.413 193.501 206.325 193.595 206.519 193.718C206.847 193.94 207.158 194.168 207.516 194.385C208.426 194.935 209.382 195.485 210.239 195.989V195.983Z" fill="white"/>
</g>
<defs>
<clipPath id="clip0_1413_6050">
<path d="M0 8C0 3.58172 3.58172 0 8 0H410V306H0V8Z" fill="white"/>
</clipPath>
</defs>
</svg>
