<svg width="481" height="360" viewBox="0 0 481 360" fill="none" xmlns="http://www.w3.org/2000/svg">
<g clip-path="url(#clip0_2992_5078)">
<path d="M148.524 331.821C148.524 331.821 198.386 312.778 203.103 314.525C203.103 314.525 224.986 314.963 249.447 300.539C249.447 300.539 266.182 290.926 273.477 294.859C273.477 294.859 285.919 310.153 290.643 305.127L314.673 327.624C314.673 327.624 279.055 347.721 271.338 347.721C271.338 347.721 197.532 389.229 189.806 399.497L148.524 331.813V331.821Z" fill="#3D3D3D"/>
<path d="M-40.7493 224L-6.17775 237.124H19.1851L50.1812 276.471L191.066 326.307C191.066 326.307 212.184 327.624 216.428 335.479L238.962 351.213L251 368.911L-47 565L-40.6979 224H-40.7493Z" fill="#262626"/>
<path d="M366.419 293.138L434.532 250L456.844 255.48L478.565 281.186L499 293.138V549L175 394.468L366.419 293.138Z" fill="#262626"/>
<path d="M2.00551 466.009L7.29453 459.24C7.29453 459.24 13.6303 457.391 15.4429 457.391L30.2301 443.548C30.2301 443.548 42.3012 446.627 43.5078 447.239L44.7143 447.857L53.4632 436.166L72.4706 428.475L76.3933 422.323L86.6518 419.245L90.8775 414.014L103.852 411.862L106.265 404.784L122.557 399.553L129.796 383.244L143.674 378.631L146.39 370.94H153.332L163.59 360.479H172.036L179.276 357.097L180.482 360.479L189.231 357.097V362.328L219.406 353.406V367.558L223.329 371.867V381.098L226.949 384.48L225.742 396.171L229.665 399.25L230.871 407.25L237.207 413.402V430.014C237.207 430.014 217.897 412.475 193.76 405.093L167.811 440.475L122.248 458.318L79.4015 510.01L2 476.47V466.009H2.00551Z" fill="#2D2D2D"/>
<path d="M211.885 125.725L182.403 155.737" stroke="#F7931A" stroke-width="0.608031" stroke-miterlimit="10"/>
<path d="M156.202 182.559L136.217 202.478" stroke="#F7931A" stroke-width="0.608031" stroke-miterlimit="10"/>
<path d="M253.48 139.01L256.431 159.03" stroke="#F7931A" stroke-width="0.608031" stroke-miterlimit="10"/>
<path d="M279.374 127.03L299.015 145.731" stroke="#F7931A" stroke-width="0.608031" stroke-miterlimit="10"/>
<path d="M266.91 218.172L273.429 251.355" stroke="#F7931A" stroke-width="0.608031" stroke-miterlimit="10"/>
<path d="M245.73 225.117V271.363" stroke="#F7931A" stroke-width="0.608031" stroke-miterlimit="10"/>
<path d="M326.857 174.926L372.055 218.173" stroke="#F7931A" stroke-width="0.608031" stroke-miterlimit="10"/>
<path d="M279.374 116.867L306.378 134.578" stroke="#F7931A" stroke-width="0.608031" stroke-miterlimit="10"/>
<path d="M332.092 152.572L376.316 185.06" stroke="#F7931A" stroke-width="0.608031" stroke-miterlimit="10"/>
<path d="M220.238 127.03L200.748 154.92" stroke="#F7931A" stroke-width="0.608031" stroke-miterlimit="10"/>
<path d="M244.677 134.577V163.937" stroke="#F7931A" stroke-width="0.608031" stroke-miterlimit="10"/>
<path d="M86.0972 120.146L118.946 114.572" stroke="#F7931A" stroke-width="0.608031" stroke-miterlimit="10"/>
<path d="M175.44 105.06L203.361 99.4795" stroke="#F7931A" stroke-width="0.608031" stroke-miterlimit="10"/>
<path d="M170.598 92.9219H192.23" stroke="#F7931A" stroke-width="0.608031" stroke-miterlimit="10"/>
<path d="M65.7908 92.9219H112.958" stroke="#F7931A" stroke-width="0.608031" stroke-miterlimit="10"/>
<path d="M296.801 91.6084H318.992" stroke="#F7931A" stroke-width="0.608031" stroke-miterlimit="10"/>
<path d="M286.566 85.0461L321.979 79.1426" stroke="#F7931A" stroke-width="0.608031" stroke-miterlimit="10"/>
<path d="M373.695 69.9595L397.275 65.6914" stroke="#F7931A" stroke-width="0.608031" stroke-miterlimit="10"/>
<path d="M385.485 92.9211L424.136 91.6084" stroke="#F7931A" stroke-width="0.608031" stroke-miterlimit="10"/>
<path d="M124.097 6.87988L210.353 67.8231" stroke="#F7931A" stroke-width="0.608031" stroke-miterlimit="10"/>
<path d="M171.1 18.4551L210.352 57.4915" stroke="#F7931A" stroke-width="0.608031" stroke-miterlimit="10"/>
<path d="M234.484 31.248L238.252 50.4434" stroke="#F7931A" stroke-width="0.608031" stroke-miterlimit="10"/>
<path d="M244.677 31.248V42.5673" stroke="#F7931A" stroke-width="0.608031" stroke-miterlimit="10"/>
<path d="M244.677 1.06836V11.0678" stroke="#F7931A" stroke-width="0.608031" stroke-miterlimit="10"/>
<path d="M229.735 4.35352L231.089 13.8651" stroke="#F7931A" stroke-width="0.608031" stroke-miterlimit="10"/>
<path d="M281.817 39.2441L269.862 57.4927" stroke="#F7931A" stroke-width="0.608031" stroke-miterlimit="10"/>
<path d="M294.918 42.5664L279.374 57.9815" stroke="#F7931A" stroke-width="0.608031" stroke-miterlimit="10"/>
<path d="M242.238 200.608C291.283 200.608 331.042 160.849 331.042 111.804C331.042 62.7589 291.283 23 242.238 23C193.193 23 153.434 62.7589 153.434 111.804C153.434 160.849 193.193 200.608 242.238 200.608Z" fill="#FFE255"/>
<path d="M242.238 198.399C290.064 198.399 328.834 159.629 328.834 111.803C328.834 63.9781 290.064 25.208 242.238 25.208C194.413 25.208 155.643 63.9781 155.643 111.803C155.643 159.629 194.413 198.399 242.238 198.399Z" fill="#FFCC3E"/>
<path d="M242.239 182.165C281.098 182.165 312.6 150.664 312.6 111.804C312.6 72.9451 281.098 41.4434 242.239 41.4434C203.379 41.4434 171.878 72.9451 171.878 111.804C171.878 150.664 203.379 182.165 242.239 182.165Z" fill="#FFE357"/>
<path d="M242.238 179.866C279.827 179.866 310.299 149.394 310.299 111.805C310.299 74.2161 279.827 43.7441 242.238 43.7441C204.649 43.7441 174.177 74.2161 174.177 111.805C174.177 149.394 204.649 179.866 242.238 179.866Z" fill="#E59638"/>
<path d="M310.305 111.805C310.305 112.684 310.287 113.562 310.257 114.435C308.872 78.0675 278.953 49.0031 242.244 49.0031C205.536 49.0031 175.617 78.0614 174.232 114.435C174.202 113.562 174.183 112.684 174.183 111.805C174.183 74.2179 204.657 43.7441 242.244 43.7441C279.832 43.7441 310.305 74.2179 310.305 111.805Z" fill="#CC8232"/>
<path d="M331.042 111.806C331.042 160.265 292.229 199.658 243.995 200.591C243.41 200.603 242.824 200.61 242.238 200.61C239.371 200.61 236.534 200.475 233.734 200.207C229.787 199.835 225.919 199.2 222.136 198.322C211.722 195.912 202.01 191.672 193.359 185.955C191.199 184.528 189.106 183.015 187.087 181.41C180.077 175.852 173.927 169.251 168.87 161.851C167.027 159.154 165.331 156.354 163.788 153.45C162.348 150.747 161.048 147.965 159.895 145.104C158.645 142.011 157.559 138.826 156.656 135.575C155.064 129.821 154.032 123.83 153.63 117.669C153.502 115.729 153.441 113.776 153.441 111.806C153.441 110.872 153.453 109.945 153.483 109.018C153.569 111.775 153.776 114.502 154.112 117.193C154.838 123.086 156.137 128.797 157.961 134.275C158.999 137.405 160.213 140.461 161.585 143.426C162.854 146.178 164.264 148.856 165.801 151.449C167.454 154.243 169.26 156.94 171.206 159.526C176.581 166.683 183.011 172.997 190.265 178.244C192.37 179.769 194.548 181.203 196.793 182.539C205.865 187.956 215.987 191.8 226.785 193.697C230.769 194.393 234.838 194.832 238.987 194.978C240.073 195.021 241.159 195.039 242.251 195.039C244.825 195.039 247.375 194.93 249.895 194.716C294.449 190.921 329.621 154.225 331.012 109.03C331.042 109.957 331.054 110.884 331.054 111.818L331.042 111.806Z" fill="#E59638"/>
<path d="M201.875 166.615L187.081 181.409C180.071 175.851 173.921 169.25 168.864 161.85L171.194 159.519L183.872 146.842C188.515 154.565 194.652 161.289 201.875 166.615Z" fill="#FFE357"/>
<path d="M311.843 56.6536L297.048 71.4482C291.716 64.2248 284.993 58.0874 277.276 53.4446L292.284 38.4365C299.684 43.4941 306.285 49.6438 311.843 56.6536Z" fill="#FFE357"/>
<path d="M179.351 137.88L163.787 153.443C162.348 150.741 161.048 147.959 159.895 145.097L176.294 128.698C177.1 131.852 178.124 134.915 179.357 137.874L179.351 137.88Z" fill="#FFE357"/>
<path d="M283.883 33.3467L268.319 48.9099C265.361 47.6775 262.292 46.6526 259.144 45.8473L275.543 29.4482C278.404 30.6074 281.186 31.9069 283.889 33.3406L283.883 33.3467Z" fill="#FFE357"/>
<path d="M271.138 173.448L249.883 194.704L243.995 200.591C243.41 200.603 242.824 200.609 242.238 200.609C239.371 200.609 236.534 200.475 233.734 200.207L255.331 178.61C260.87 177.53 266.166 175.779 271.138 173.448Z" fill="#FFE357"/>
<path d="M331.042 111.802C331.042 112.388 331.042 112.974 331.024 113.559L303.881 140.702C306.218 135.73 307.969 130.434 309.043 124.895L330.64 103.298C330.908 106.098 331.042 108.935 331.042 111.802Z" fill="#FFE357"/>
<path d="M174.177 111.803C174.177 113.817 174.263 115.818 174.44 117.788L157.961 134.267L156.656 135.572C155.063 129.819 154.032 123.828 153.63 117.666L176.258 95.0381C174.897 100.401 174.177 106.02 174.177 111.803Z" fill="#FFE357"/>
<path d="M266.007 26.2155L248.223 43.9994C246.253 43.8286 244.258 43.7371 242.238 43.7371C236.455 43.7371 230.836 44.457 225.473 45.8175L248.101 23.1895C254.263 23.5921 260.248 24.6232 266.007 26.2155Z" fill="#FFE357"/>
<path d="M240.609 179.847L222.136 198.32C211.722 195.91 202.009 191.67 193.358 185.954L196.787 182.525L208.427 170.885C217.951 176.345 228.914 179.572 240.615 179.847H240.609Z" fill="#FFE357"/>
<path d="M328.76 91.7008L310.287 110.174C310.012 98.4788 306.785 87.5095 301.325 77.9861L316.394 62.917C322.11 71.568 326.35 81.2805 328.76 91.6946V91.7008Z" fill="#FFE357"/>
<path d="M190.259 178.229L187.087 181.402C180.077 175.844 173.927 169.243 168.87 161.842L171.2 159.512C176.575 166.668 183.005 172.982 190.259 178.229Z" fill="#FCBB47"/>
<path d="M165.795 151.441L163.787 153.448C162.348 150.745 161.048 147.963 159.895 145.102L161.579 143.418C162.848 146.169 164.257 148.848 165.795 151.441Z" fill="#FCBB47"/>
<path d="M249.883 194.702L243.995 200.589C243.41 200.602 242.824 200.608 242.238 200.608C239.371 200.608 236.534 200.474 233.734 200.205L238.974 194.965C240.06 195.007 241.146 195.026 242.238 195.026C244.813 195.026 247.363 194.916 249.883 194.702Z" fill="#FCBB47"/>
<path d="M157.955 134.268L156.649 135.573C155.057 129.82 154.026 123.829 153.623 117.668L154.105 117.186C154.831 123.079 156.131 128.789 157.955 134.268Z" fill="#FCBB47"/>
<path d="M226.773 193.683L222.136 198.32C211.722 195.91 202.009 191.67 193.358 185.953L196.787 182.524C205.859 187.942 215.98 191.786 226.779 193.683H226.773Z" fill="#FCBB47"/>
<path d="M261.676 111.482C261.676 111.482 268.332 108.376 268.332 101.281C268.332 84.4244 249.255 85.4555 249.255 85.4555V72.5889H241.269V85.4555H235.503V72.5889H227.517V85.4555H212.283V94.0333H218.939C222.191 94.0333 222.637 97.1386 222.637 97.1386V132.188C222.637 135.293 220.416 135 220.416 135H214.205L212.576 144.316H228.103V157.476H236.089V144.463H242.007V157.329H249.993V144.17C265.519 143.578 272.621 138.698 272.914 125.983C273.207 113.263 261.676 111.494 261.676 111.494V111.482ZM235.65 94.1798H244.52C244.52 94.1798 253.69 94.0333 253.69 102.019C253.69 110.005 243.044 109.859 243.044 109.859H235.65V94.1858V94.1798ZM245.411 134.994H235.796V117.692H245.557C245.557 117.692 257.387 117.247 257.387 126.417C257.387 135.586 245.411 134.994 245.411 134.994Z" fill="#CC8232"/>
<path d="M261.676 107.907C261.676 107.907 268.332 104.801 268.332 97.7059C268.332 80.8492 249.255 81.8803 249.255 81.8803V69.0137H241.269V81.8803H235.503V69.0137H227.517V81.8803H212.283V90.4581H218.939C222.191 90.4581 222.637 93.5635 222.637 93.5635V128.613C222.637 131.718 220.416 131.425 220.416 131.425H214.205L212.576 140.741H228.103V153.901H236.089V140.888H242.007V153.754H249.993V140.595C265.519 140.003 272.621 135.122 272.914 122.408C273.207 109.688 261.676 107.919 261.676 107.919V107.907ZM235.65 90.6045H244.52C244.52 90.6045 253.69 90.4581 253.69 98.4441C253.69 106.43 243.044 106.284 243.044 106.284H235.65V90.6106V90.6045ZM245.411 131.419H235.796V114.117H245.557C245.557 114.117 257.387 113.672 257.387 122.841C257.387 132.011 245.411 131.419 245.411 131.419Z" fill="#FFE357"/>
<path d="M164.518 214.967L163.205 209.149L161.609 208.586L153.725 199.86L155.038 191.79L161.325 186.159L166.863 184H172.118L172.867 186.629C172.867 186.629 178.308 190.194 178.871 195.635C184.502 199.483 183.562 200.889 181.03 201.829C182.063 204.081 182.343 206.897 182.343 206.897C182.343 206.897 183.092 209.806 180.09 210.555C177.088 211.305 175.586 214.213 176.712 218.532C171.737 217.126 164.514 214.967 164.514 214.967H164.518Z" fill="white"/>
<path d="M173.808 216.061L206.332 222.565L231.854 201.424L232.98 202.55L236.984 199.42L243.489 200.799L255.5 200.173L254.498 202.298L249.869 205.051L238.735 206.053L237.108 207.68L238.487 209.556L212.211 231.699L199.703 233.827H180.06L173.808 216.061Z" fill="white"/>
<path d="M174.305 284.244C174.305 284.244 212.774 312.019 216.153 319.525C215.967 327.219 197.011 362.873 190.445 374.321C185.004 376.01 177.683 375.824 177.683 375.824L197.761 327.222L164.922 313.149L174.305 284.248V284.244Z" fill="#2D2D2D"/>
<path d="M176.184 216.874C176.184 216.874 195.139 232.26 182.751 263.6C178.999 287.619 178.06 299.067 149.912 341.665C135.652 379.758 131.897 393.272 131.897 393.272H118.01L137.151 332.846L147.846 283.681L143.532 284.058L149.163 257.409L147.85 235.079L130.211 249.153L116.324 283.308L113.885 283.122L114.355 287.436L112.289 292.411L107.598 292.318L103 289.596V286.687L106.472 279.743L105.439 279.273L119.889 243.806L138.938 224.194L153.388 214.812C153.388 214.812 169.058 210.59 176.188 216.878L176.184 216.874Z" fill="white"/>
<path d="M425.847 226.174C425.847 226.426 425.836 226.673 425.813 226.92H344C344.511 222.762 348.025 219.528 352.308 219.459C352.056 218.632 351.923 217.753 351.923 216.845C351.923 211.848 355.977 207.798 360.972 207.798C363.355 207.798 365.52 208.717 367.133 210.222C368.517 201.589 375.981 195 385.001 195C394.021 195 401.996 202.048 402.984 211.118C404.299 209.998 405.998 209.32 407.859 209.32C412.015 209.32 415.38 212.692 415.38 216.845C415.38 217.201 415.357 217.546 415.305 217.891C415.949 217.73 416.626 217.649 417.321 217.649C422.029 217.649 425.847 221.463 425.847 226.174Z" fill="#7D7D7D"/>
<path d="M423.386 278.189C423.386 280.655 422.203 282.839 420.382 284.214H380.013C380.013 281.811 381.948 279.864 384.338 279.864H384.39C384.355 279.581 384.338 279.292 384.338 278.997C384.338 274.85 387.681 271.487 391.805 271.487C392.466 271.487 393.103 271.574 393.712 271.736C393.712 271.655 393.712 271.568 393.712 271.487C393.712 265.861 398.25 261.297 403.845 261.297C409.439 261.297 413.678 265.566 413.966 270.933C414.586 270.765 415.241 270.673 415.919 270.673C420.049 270.673 423.392 274.035 423.392 278.189H423.386Z" fill="#7D7D7D"/>
<path d="M463.497 247.836C463.497 249.949 462.557 251.843 461.076 253.112H423.392C423.392 250.862 424.964 248.99 427.065 248.554V248.45C427.065 244.816 429.981 241.871 433.586 241.871C434.634 241.871 435.625 242.118 436.502 242.566C436.485 242.336 436.473 242.106 436.473 241.871C436.473 236.778 440.568 232.65 445.625 232.65C450.683 232.65 454.396 236.411 454.743 241.182C455.341 241.01 455.974 240.918 456.628 240.918C460.421 240.918 463.497 244.018 463.497 247.836Z" fill="#7D7D7D"/>
<path d="M82.2274 194.061H46.1189C45.1371 192.387 44.5778 190.445 44.5778 188.38C44.5778 182.024 49.8462 176.873 56.3419 176.873C62.3466 176.873 67.2954 181.265 68.0146 186.94C69.1905 187.415 70.2122 188.174 70.9828 189.128C72.1757 188.084 73.7454 187.459 75.4692 187.459C79.2022 187.459 82.2274 190.417 82.2274 194.061Z" fill="#7D7D7D"/>
<path d="M105.963 278.619C105.963 280.044 105.527 281.369 104.788 282.455H26.3319C25.9592 281.55 25.7528 280.558 25.7528 279.518C25.7528 275.297 29.1126 271.881 33.2521 271.881C34.5478 271.881 35.769 272.214 36.8355 272.81C36.8527 267.525 41.0667 263.24 46.2669 263.24C48.5488 263.24 50.6357 264.063 52.2583 265.429V265.231C52.2583 254.4 60.8756 245.624 71.5053 245.624C82.135 245.624 90.758 254.4 90.758 265.231C90.758 266.772 90.586 268.267 90.2535 269.703C91.9162 270.959 93.2177 272.687 93.963 274.695C95.1613 272.991 97.1278 271.881 99.3466 271.881C102.999 271.881 105.963 274.9 105.963 278.619Z" fill="#7D7D7D"/>
</g>
<defs>
<clipPath id="clip0_2992_5078">
<rect width="481" height="359" fill="white" transform="translate(0 0.120117)"/>
</clipPath>
</defs>
</svg>
