<svg width="444" height="333" viewBox="0 0 444 333" fill="none" xmlns="http://www.w3.org/2000/svg">
<g clip-path="url(#clip0_2992_5116)">
<rect x="-204.217" y="249.457" width="856.419" height="119.248" fill="#2D2D2D"/>
<ellipse cx="247.098" cy="290.718" rx="133.775" ry="3.80403" fill="#161616"/>
<path d="M254.408 290.083C328.289 290.083 388.182 230.19 388.182 156.309C388.182 82.4278 328.289 22.5352 254.408 22.5352C180.527 22.5352 120.634 82.4278 120.634 156.309C120.634 230.19 180.527 290.083 254.408 290.083Z" fill="#FFE255"/>
<path d="M254.408 286.754C326.452 286.754 384.855 228.351 384.855 156.307C384.855 84.2635 326.452 25.8604 254.408 25.8604C182.364 25.8604 123.961 84.2635 123.961 156.307C123.961 228.351 182.364 286.754 254.408 286.754Z" fill="#FFCC3E"/>
<path d="M254.408 262.301C312.946 262.301 360.4 214.847 360.4 156.309C360.4 97.7715 312.946 50.3174 254.408 50.3174C195.871 50.3174 148.417 97.7715 148.417 156.309C148.417 214.847 195.871 262.301 254.408 262.301Z" fill="#FFE357"/>
<path d="M254.408 258.838C311.032 258.838 356.935 212.935 356.935 156.311C356.935 99.6871 311.032 53.7842 254.408 53.7842C197.784 53.7842 151.881 99.6871 151.881 156.311C151.881 212.935 197.784 258.838 254.408 258.838Z" fill="#E59638"/>
<path d="M356.944 156.311C356.944 157.635 356.917 158.958 356.871 160.272C354.785 105.489 309.715 61.7062 254.417 61.7062C199.119 61.7062 154.05 105.48 151.964 160.272C151.918 158.958 151.89 157.635 151.89 156.311C151.89 99.6898 197.796 53.7842 254.417 53.7842C311.039 53.7842 356.944 99.6898 356.944 156.311Z" fill="#CC8232"/>
<path d="M388.182 156.31C388.182 229.309 329.714 288.651 257.055 290.057C256.173 290.075 255.291 290.084 254.408 290.084C250.089 290.084 245.815 289.882 241.597 289.478C235.651 288.917 229.824 287.961 224.126 286.638C208.438 283.008 193.808 276.62 180.776 268.009C177.522 265.859 174.37 263.579 171.328 261.162C160.768 252.79 151.505 242.846 143.886 231.698C141.11 227.636 138.555 223.418 136.23 219.043C134.061 214.972 132.104 210.781 130.367 206.471C128.483 201.811 126.847 197.014 125.487 192.116C123.088 183.449 121.535 174.424 120.928 165.142C120.735 162.22 120.644 159.279 120.644 156.31C120.644 154.904 120.662 153.507 120.708 152.11C120.837 156.264 121.149 160.372 121.655 164.425C122.748 173.303 124.706 181.905 127.454 190.158C129.016 194.873 130.845 199.477 132.913 203.944C134.824 208.088 136.947 212.123 139.263 216.029C141.754 220.238 144.474 224.3 147.406 228.197C155.502 238.977 165.189 248.489 176.116 256.393C179.287 258.69 182.568 260.85 185.95 262.863C199.616 271.024 214.862 276.814 231.129 279.672C237.131 280.719 243.26 281.381 249.51 281.602C251.146 281.666 252.782 281.694 254.427 281.694C258.305 281.694 262.147 281.528 265.942 281.206C333.059 275.49 386.041 220.21 388.136 152.129C388.182 153.526 388.201 154.923 388.201 156.329L388.182 156.31Z" fill="#E59638"/>
<path d="M193.606 238.876L171.319 261.162C160.759 252.79 151.496 242.846 143.877 231.698L147.388 228.187L166.485 209.09C173.479 220.725 182.724 230.852 193.606 238.876Z" fill="#FFE357"/>
<path d="M359.26 73.2293L336.974 95.5158C328.942 84.6345 318.814 75.3891 307.188 68.3953L329.796 45.7871C340.944 53.4059 350.888 62.6697 359.26 73.2293Z" fill="#FFE357"/>
<path d="M159.674 195.59L136.23 219.035C134.061 214.963 132.103 210.773 130.366 206.462L155.07 181.759C156.283 186.51 157.827 191.124 159.684 195.581L159.674 195.59Z" fill="#FFE357"/>
<path d="M317.141 38.1216L293.697 61.566C289.24 59.7096 284.617 58.1657 279.875 56.9525L304.578 32.249C308.888 33.9952 313.079 35.9527 317.15 38.1124L317.141 38.1216Z" fill="#FFE357"/>
<path d="M297.942 249.169L265.923 281.188L257.054 290.057C256.172 290.075 255.29 290.084 254.408 290.084C250.088 290.084 245.815 289.882 241.596 289.478L274.13 256.944C282.475 255.317 290.452 252.68 297.942 249.169Z" fill="#FFE357"/>
<path d="M388.182 156.306C388.182 157.189 388.182 158.071 388.155 158.953L347.267 199.841C350.787 192.351 353.425 184.374 355.042 176.029L387.576 143.495C387.98 147.713 388.182 151.987 388.182 156.306Z" fill="#FFE357"/>
<path d="M151.881 156.308C151.881 159.341 152.01 162.355 152.277 165.323L127.454 190.146L125.487 192.113C123.088 183.447 121.535 174.422 120.928 165.14L155.015 131.053C152.966 139.131 151.881 147.595 151.881 156.308Z" fill="#FFE357"/>
<path d="M290.213 27.3787L263.423 54.1684C260.455 53.9111 257.45 53.7732 254.408 53.7732C245.695 53.7732 237.231 54.8577 229.153 56.9071L263.24 22.8203C272.522 23.4269 281.538 24.9801 290.213 27.3787Z" fill="#FFE357"/>
<path d="M251.954 258.808L224.126 286.636C208.438 283.006 193.807 276.619 180.775 268.008L185.94 262.843L203.475 245.308C217.821 253.533 234.336 258.395 251.963 258.808H251.954Z" fill="#FFE357"/>
<path d="M384.745 126.027L356.917 153.855C356.503 136.237 351.641 119.713 343.416 105.367L366.116 82.667C374.727 95.6988 381.115 110.33 384.745 126.018V126.027Z" fill="#FFE357"/>
<path d="M176.107 256.373L171.328 261.152C160.768 252.779 151.505 242.835 143.886 231.687L147.397 228.177C155.493 238.957 165.18 248.469 176.107 256.373Z" fill="#FCBB47"/>
<path d="M139.253 216.018L136.23 219.041C134.061 214.97 132.103 210.779 130.366 206.469L132.903 203.933C134.815 208.077 136.938 212.112 139.253 216.018Z" fill="#FCBB47"/>
<path d="M265.923 281.186L257.054 290.054C256.172 290.073 255.29 290.082 254.408 290.082C250.088 290.082 245.815 289.88 241.596 289.475L249.491 281.581C251.127 281.645 252.763 281.673 254.408 281.673C258.286 281.673 262.128 281.507 265.923 281.186Z" fill="#FCBB47"/>
<path d="M127.444 190.149L125.477 192.116C123.078 183.449 121.525 174.424 120.919 165.142L121.645 164.416C122.738 173.294 124.696 181.896 127.444 190.149Z" fill="#FCBB47"/>
<path d="M231.111 279.651L224.126 286.635C208.438 283.005 193.807 276.618 180.775 268.007L185.94 262.842C199.606 271.003 214.853 276.793 231.12 279.651H231.111Z" fill="#FCBB47"/>
<path d="M283.689 155.823C283.689 155.823 293.716 151.145 293.716 140.456C293.716 115.063 264.978 116.617 264.978 116.617V97.2344H252.948V116.617H244.263V97.2344H232.233V116.617H209.284V129.538H219.311C224.209 129.538 224.88 134.216 224.88 134.216V187.014C224.88 191.692 221.535 191.251 221.535 191.251H212.179L209.726 205.285H233.115V225.108H245.145V205.505H254.06V224.888H266.09V205.064C289.479 204.173 300.176 196.82 300.618 177.668C301.059 158.506 283.689 155.841 283.689 155.841V155.823ZM244.483 129.759H257.846C257.846 129.759 271.659 129.538 271.659 141.568C271.659 153.598 255.622 153.378 255.622 153.378H244.483V129.768V129.759ZM259.188 191.242H244.704V165.178H259.408C259.408 165.178 277.228 164.507 277.228 178.32C277.228 192.133 259.188 191.242 259.188 191.242Z" fill="#CC8232"/>
<path d="M283.689 150.438C283.689 150.438 293.716 145.76 293.716 135.071C293.716 109.679 264.978 111.232 264.978 111.232V91.8496H252.948V111.232H244.263V91.8496H232.233V111.232H209.284V124.153H219.311C224.209 124.153 224.88 128.831 224.88 128.831V181.63C224.88 186.307 221.535 185.866 221.535 185.866H212.179L209.726 199.9H233.115V219.723H245.145V200.12H254.06V219.503H266.09V199.679C289.479 198.788 300.176 191.436 300.618 172.283C301.059 153.121 283.689 150.456 283.689 150.456V150.438ZM244.483 124.374H257.846C257.846 124.374 271.659 124.153 271.659 136.184C271.659 148.214 255.622 147.993 255.622 147.993H244.483V124.383V124.374ZM259.188 185.857H244.704V159.793H259.408C259.408 159.793 277.228 159.123 277.228 172.936C277.228 186.749 259.188 185.857 259.188 185.857Z" fill="#FFE357"/>
<mask id="mask0_2992_5116" style="mask-type:alpha" maskUnits="userSpaceOnUse" x="121" y="22" width="268" height="269">
<circle cx="133.775" cy="133.775" r="133.775" transform="matrix(-1 0 0 1 388.565 22.5352)" fill="#D9D9D9"/>
</mask>
<g mask="url(#mask0_2992_5116)">
<g style="mix-blend-mode:soft-light">
<path d="M292.042 -125.77L128.438 295.158" stroke="#262626" stroke-width="5.07204" stroke-linecap="round" stroke-linejoin="round"/>
<path d="M248.325 -122.549L84.7212 298.379" stroke="#262626" stroke-width="5.07204" stroke-linecap="round" stroke-linejoin="round"/>
<path d="M232.846 26.5234L189.332 29.7285" stroke="#262626" stroke-width="5.07204" stroke-linecap="round" stroke-linejoin="round"/>
<path d="M217.823 65.1816L173.816 68.423" stroke="#262626" stroke-width="5.07204" stroke-linecap="round" stroke-linejoin="round"/>
<path d="M204.869 98.5195L160.976 101.753" stroke="#262626" stroke-width="5.07204" stroke-linecap="round" stroke-linejoin="round"/>
<path d="M189.93 133.904L147.427 137.035" stroke="#262626" stroke-width="5.07204" stroke-linecap="round" stroke-linejoin="round"/>
<path d="M176.768 170.812L133.051 174.031" stroke="#262626" stroke-width="5.07204" stroke-linecap="round" stroke-linejoin="round"/>
<path d="M161.723 209.516L118.247 212.718" stroke="#262626" stroke-width="5.07204" stroke-linecap="round" stroke-linejoin="round"/>
<path d="M148.587 243.317L104.87 246.537" stroke="#262626" stroke-width="5.07204" stroke-linecap="round" stroke-linejoin="round"/>
<path d="M136.305 274.909L92.5878 278.129" stroke="#262626" stroke-width="5.07204" stroke-linecap="round" stroke-linejoin="round"/>
</g>
</g>
<path d="M304.954 -117.581L110.873 290.192" stroke="#262626" stroke-width="5.07204" stroke-linecap="round" stroke-linejoin="round"/>
<path d="M261.119 -117.581L67.0379 290.192" stroke="#262626" stroke-width="5.07204" stroke-linecap="round" stroke-linejoin="round"/>
<path d="M234.732 29.9512H191.1" stroke="#262626" stroke-width="5.07204" stroke-linecap="round" stroke-linejoin="round"/>
<path d="M216.91 67.4023H172.783" stroke="#262626" stroke-width="5.07204" stroke-linecap="round" stroke-linejoin="round"/>
<path d="M201.542 99.6992H157.529" stroke="#262626" stroke-width="5.07204" stroke-linecap="round" stroke-linejoin="round"/>
<path d="M184.043 133.891H141.426" stroke="#262626" stroke-width="5.07204" stroke-linecap="round" stroke-linejoin="round"/>
<path d="M168.206 169.73H124.371" stroke="#262626" stroke-width="5.07204" stroke-linecap="round" stroke-linejoin="round"/>
<path d="M150.359 207.227H106.765" stroke="#262626" stroke-width="5.07204" stroke-linecap="round" stroke-linejoin="round"/>
<path d="M134.775 239.973H90.9399" stroke="#262626" stroke-width="5.07204" stroke-linecap="round" stroke-linejoin="round"/>
<path d="M120.206 270.576H76.3704" stroke="#262626" stroke-width="5.07204" stroke-linecap="round" stroke-linejoin="round"/>
<g clip-path="url(#clip1_2992_5116)">
<path d="M90.0106 149.519L119.752 154.896C119.752 154.896 139.074 157.412 132.856 174.365C126.638 191.319 116.385 232.452 116.385 232.452H107.816L106.384 188.804L112.045 172.35L75.2095 181.578L89.9967 149.519H90.0106Z" fill="#2D2D2D"/>
<path d="M76.5588 90.7648L109.333 99.1582L129.156 70.4482L136.222 73.9779L118.403 113.082H84.961L76.5588 90.7648Z" fill="#2D2D2D"/>
<path d="M63.7169 84.6706L67.186 70.7939H76.2058L78.6343 87.7928L63.7169 84.6706Z" fill="#FBF6F2"/>
<path d="M50.0171 153.547C45.983 157.911 43.2982 170.668 50.0171 180.742C46.3169 204.575 43.6321 235.8 43.6321 235.8C43.6321 235.8 31.1958 228.588 35.8977 304.962C39.9318 304.795 42.4218 304.962 42.4218 304.962L59.087 236.967L79.5915 179.547L90.4295 151.973V114.852L77.9405 83.2831L66.5015 78.8125L45.4961 81.6613C45.4961 81.6613 35.5777 84.3433 39.7788 96.2664C43.9799 108.189 53.5644 134.537 53.5644 134.537L50.0311 153.506L50.0171 153.547Z" fill="#FBF6F2"/>
<path d="M109.057 228.349C109.057 228.349 101.749 238.37 108.678 245.987C119.658 240.841 134.141 234.186 134.141 234.186C134.141 234.186 133.523 229.998 127.894 231.097C122.266 232.196 116.228 231.919 116.228 231.919L117.191 227.254L109.057 228.353V228.349Z" fill="#2D2D2D"/>
<path d="M36.1062 291.092L31.4537 304.963H46.0242V290.393L36.1062 291.092Z" fill="white"/>
<path d="M50.1871 307.632C50.1871 313.324 29.3721 313.324 29.3721 307.632C29.3721 301.94 34.0333 297.33 39.7769 297.33C45.5205 297.33 50.1817 301.945 50.1817 307.632H50.1871Z" fill="white"/>
<path d="M77.9404 83.2832L90.4294 114.853L90.2765 152.32H99.4492V108.535L77.9404 83.2832Z" fill="#7D7D7D"/>
<path d="M17.577 162.109L41.4341 171.169L69.8817 135.747L72.0239 89.7505L66.4735 78.8418L45.4682 81.6906C45.4682 81.6906 32.3642 83.8723 38.5824 98.6441C44.8005 113.416 47.3183 120.809 47.3183 120.809L17.577 162.109Z" fill="#7D7D7D"/>
<path d="M94.2118 71.2822H101.946L78.9238 109.053C78.9238 109.053 76.7398 118.961 64.3035 114.597C51.8673 110.234 38.5964 98.6442 38.5964 98.6442C38.5964 98.6442 36.9132 94.2807 38.5964 88.4026C40.2796 82.5244 58.0159 76.6462 69.8957 97.9772C74.5419 93.6137 94.2118 71.2822 94.2118 71.2822Z" fill="#2D2D2D"/>
<path d="M60.231 67.5308C60.231 67.5308 59.1664 77.0683 76.4488 78.7608C80.2541 79.1496 86.3471 69.9209 82.236 57.6159C86.1206 56.0835 87.4116 48.6959 81.7037 48.6158C77.4341 45.0021 75.9958 43.8471 70.5823 45.0021C67.3886 43.3896 61.6693 43.767 59.0871 47.152C56.958 50.8458 58.7814 54.4596 57.6375 54.837C56.4937 55.2143 51.1708 63.2995 60.231 67.5193V67.5308Z" fill="#2D2D2D"/>
<g clip-path="url(#clip2_2992_5116)">
<path d="M74.2032 61.3567L189.668 53.6942L188.491 71.8175L73.8986 66.0438L74.2032 61.3567Z" fill="#2D2D2D"/>
<path d="M199.107 51.0308L184.791 51.0752L184.881 76.2929L199.197 76.2486L199.107 51.0308Z" fill="#2D2D2D"/>
<path d="M198.667 75.3047C200.966 75.3047 202.83 70.1791 202.83 63.8564C202.83 57.5338 200.966 52.4082 198.667 52.4082C196.368 52.4082 194.504 57.5338 194.504 63.8564C194.504 70.1791 196.368 75.3047 198.667 75.3047Z" fill="#FBF6F2"/>
<path d="M97.7147 63.8564L95.2863 73.2232H98.7554L105 63.8564H97.7147Z" fill="#2D2D2D"/>
<path d="M133.1 62.1221L129.978 74.6111H134.438L142.467 62.1221H133.1Z" fill="#2D2D2D"/>
</g>
</g>
</g>
<defs>
<clipPath id="clip0_2992_5116">
<rect width="444" height="331.851" fill="white" transform="translate(0 0.194336)"/>
</clipPath>
<clipPath id="clip1_2992_5116">
<rect width="203.293" height="285.165" fill="white" transform="translate(17.577 32.9814)"/>
</clipPath>
<clipPath id="clip2_2992_5116">
<rect width="129.747" height="34.6916" fill="white" transform="translate(81.4096 45.4688)"/>
</clipPath>
</defs>
</svg>
