<svg width="263" height="98" viewBox="0 0 263 98" fill="none" xmlns="http://www.w3.org/2000/svg">
<rect width="263" height="98" fill="#25252B"/>
<path fill-rule="evenodd" clip-rule="evenodd" d="M32.823 59.1464C32.7072 59.3211 29 68.389 29 68.498C29 68.5398 29.1974 68.5467 29.4387 68.5133C29.7841 68.4651 30.0086 68.1152 30.4929 66.8709L31.1083 65.2895L33.2644 65.3435L35.4202 65.3973L36.0494 66.9725C36.5826 68.3073 36.7493 68.5477 37.1415 68.5477H37.6044L37.2227 67.6407C37.0129 67.1418 36.165 65.0584 35.3388 63.0107C34.5125 60.9631 33.74 59.2245 33.6221 59.1473C33.3418 58.9641 32.9444 58.9635 32.823 59.1464ZM43.4916 59.1247C43.4139 59.1968 43.3505 61.3464 43.3505 63.9018V68.5477H46.4256C49.364 68.5477 49.5008 68.5306 49.5008 68.1658C49.5008 67.8035 49.364 67.7839 46.8395 67.7839H44.1783L44.1232 63.4562C44.0711 59.3667 43.9707 58.6782 43.4916 59.1247ZM58.3747 59.2399C58.1668 59.4922 54.6192 68.1593 54.6235 68.4044C54.6249 68.4831 54.7983 68.5477 55.0093 68.5477C55.303 68.5477 55.5358 68.1801 56.0063 66.9725L56.62 65.3973L58.7708 65.3435L60.9217 65.2895L61.5818 66.9187C62.0956 68.1862 62.3297 68.5477 62.6368 68.5477C62.854 68.5477 63.0313 68.4904 63.0313 68.4203C63.0313 68.1841 59.4742 59.4808 59.2792 59.2399C59.1728 59.1088 58.97 59.0013 58.8285 59.0013C58.6871 59.0013 58.4828 59.1088 58.3747 59.2399ZM69.1202 59.122C69.0411 59.1957 68.9761 61.3464 68.9761 63.9018C68.9761 68.4203 68.9876 68.5477 69.3868 68.5477C69.7832 68.5477 69.7968 68.4199 69.7975 64.6813L69.7988 60.8151L71.5565 64.4427C72.5226 66.4379 73.3622 68.1778 73.4217 68.309C73.4819 68.4404 73.6849 68.5477 73.873 68.5477C74.1206 68.5477 74.7261 67.4874 76.0549 64.7266L77.8944 60.9058L77.9499 64.7266C78.0033 68.401 78.0209 68.5477 78.4147 68.5477C78.8138 68.5477 78.8226 68.4348 78.7692 63.8222C78.7164 59.2579 78.7009 59.0968 78.3085 59.0968C77.9059 59.0968 77.5 59.8498 74.5522 66.0679L73.8757 67.4956L71.8839 63.2983C70.0302 59.3912 69.5728 58.7004 69.1202 59.122ZM85.9291 59.1239C85.8506 59.1964 85.787 61.3464 85.787 63.9018V68.5477H89.0818C92.1101 68.5477 92.3719 68.5205 92.3083 68.2135C92.2474 67.9178 91.9159 67.8733 89.4235 67.8263L86.607 67.7732V65.9707V64.1682L89.1157 64.1145C91.3158 64.0676 91.6331 64.0196 91.6933 63.7267C91.7562 63.4228 91.5289 63.3926 89.1847 63.3926H86.607V61.5788V59.765H89.4925C92.1297 59.765 92.3712 59.7364 92.3083 59.4309C92.2467 59.1332 91.9037 59.091 89.1549 59.0443C87.4588 59.0155 86.0069 59.0511 85.9291 59.1239ZM98.6016 59.2155C98.54 59.3646 98.5143 61.5038 98.5447 63.9694L98.6002 68.4521L100.601 68.5068C101.701 68.5369 102.975 68.4678 103.431 68.3535C104.533 68.077 105.772 67.0051 106.202 65.956C106.578 65.0384 106.684 63.3329 106.435 62.2219C106.197 61.1653 105.167 59.9794 104.109 59.5437C102.89 59.0414 98.7741 58.7963 98.6016 59.2155ZM115.554 59.2423C115.358 59.4622 114.439 61.6332 112.115 67.3671L111.626 68.5732L112.071 68.5127C112.419 68.4654 112.655 68.1177 113.15 66.9247L113.784 65.3973L115.93 65.345L118.076 65.2927L118.692 66.8725C119.191 68.1501 119.397 68.4638 119.769 68.5133C120.021 68.5467 120.228 68.5467 120.227 68.5133C120.227 68.4796 119.373 66.3481 118.331 63.7765C116.446 59.1247 116.125 58.6013 115.554 59.2423ZM133.503 59.1059C133.418 59.1884 133.349 61.3464 133.349 63.9018C133.349 68.3928 133.362 68.5477 133.752 68.5477C134.122 68.5477 134.159 68.3903 134.213 66.5906L134.271 64.6337H135.805H137.338L138.433 66.5906C139.379 68.2826 139.596 68.5477 140.041 68.5477C140.55 68.5477 140.544 68.5268 139.412 66.5622C138.783 65.4703 138.269 64.5357 138.269 64.4853C138.269 64.4349 138.545 64.2871 138.882 64.1571C139.762 63.8174 140.319 62.8755 140.319 61.7253C140.319 60.6464 139.866 59.9516 138.841 59.458C138.163 59.1313 133.773 58.8419 133.503 59.1059ZM146.905 59.2589C146.735 59.4494 146.683 60.8105 146.722 63.9892L146.777 68.4521L150.124 68.5046C153.236 68.5535 153.466 68.5335 153.402 68.2183C153.339 67.9164 153.024 67.8736 150.516 67.8263L147.699 67.7732V65.9707V64.1682L150.208 64.1145C152.408 64.0676 152.726 64.0196 152.786 63.7267C152.848 63.4228 152.621 63.3926 150.277 63.3926H147.699V61.5788V59.765H150.482C153.022 59.765 153.259 59.7358 153.196 59.4309C153.134 59.1338 152.795 59.0908 150.135 59.0441C147.768 59.0025 147.093 59.0471 146.905 59.2589ZM160.771 59.395C159.76 59.892 159.35 60.5142 159.35 61.5524C159.35 63.1609 159.99 63.6249 162.973 64.1823C165.002 64.5613 165.535 64.9198 165.535 65.9052C165.535 67.2613 164.436 68.0843 162.665 68.055C161.366 68.0336 160.436 67.5288 160.029 66.6246C159.808 66.1356 159.56 65.8779 159.308 65.8765C158.984 65.8751 158.944 65.9716 159.055 66.4883C159.214 67.2298 160.068 68.1177 160.967 68.4757C161.33 68.6202 162.14 68.7385 162.769 68.7385C164.946 68.7385 166.353 67.6065 166.354 65.8527C166.355 64.3137 165.44 63.7105 162.46 63.2874C160.714 63.0398 160.205 62.6144 160.205 61.4056C160.205 59.7875 163.228 59.0055 164.588 60.2719C164.87 60.5342 165.129 60.9358 165.164 61.1639C165.205 61.4277 165.398 61.6013 165.696 61.6407C166.114 61.696 166.151 61.6439 166.035 61.1634C165.843 60.3694 165.29 59.7133 164.496 59.3358C163.539 58.8814 161.758 58.9096 160.771 59.395ZM172.852 59.1239C172.774 59.1964 172.71 61.3464 172.71 63.9018V68.5477H176.006C179.033 68.5477 179.295 68.5205 179.231 68.2135C179.171 67.9178 178.839 67.8733 176.347 67.8263L173.53 67.7732V65.9707V64.1682L176.039 64.1145C178.239 64.0676 178.556 64.0196 178.616 63.7267C178.679 63.4228 178.452 63.3926 176.108 63.3926H173.53V61.5788V59.765H176.416C179.053 59.765 179.294 59.7364 179.231 59.4309C179.17 59.1332 178.827 59.091 176.078 59.0443C174.382 59.0155 172.93 59.0511 172.852 59.1239ZM188.611 59.1728C188.483 59.3667 184.806 68.3491 184.806 68.4695C184.806 68.5125 184.983 68.5477 185.201 68.5477C185.507 68.5477 185.741 68.1862 186.255 66.9187L186.915 65.2895L189.066 65.3435L191.217 65.3973L191.831 66.9725C192.301 68.1801 192.534 68.5477 192.827 68.5477C193.038 68.5477 193.211 68.4594 193.211 68.3517C193.211 68.0424 189.713 59.5058 189.477 59.2399C189.231 58.9618 188.775 58.9262 188.611 59.1728ZM199.31 59.1059C199.226 59.1884 199.156 61.3464 199.156 63.9018C199.156 68.4203 199.167 68.5477 199.567 68.5477C199.95 68.5477 199.976 68.4203 199.976 66.5429V64.5382H201.498H203.02L204.174 66.5429C205.032 68.0333 205.431 68.5477 205.727 68.5477C205.947 68.5477 206.126 68.4791 206.126 68.3953C206.126 68.3116 205.665 67.4351 205.101 66.4474C204.538 65.4598 204.077 64.6048 204.078 64.5473C204.078 64.4897 204.353 64.2974 204.689 64.1196C206.578 63.1186 206.57 60.3834 204.676 59.471C203.972 59.1325 199.589 58.8341 199.31 59.1059ZM214.308 59.4433C211.008 61.0572 211.083 66.9675 214.421 68.3796C216.226 69.1433 218.783 68.6244 219.649 67.3183C220.197 66.4938 220.2 65.8746 219.657 65.8746C219.377 65.8746 219.247 66.002 219.247 66.2756C219.247 66.4961 218.947 66.9553 218.581 67.2961C217.021 68.7464 214.248 68.1606 213.28 66.1761C212.759 65.1058 212.757 62.6377 213.277 61.571C214.492 59.0804 218.249 58.9346 219.228 61.3402C219.488 61.9792 220.067 62.0451 220.066 61.4356C220.063 59.5012 216.622 58.3109 214.308 59.4433ZM226.769 59.1247C226.691 59.1968 226.627 61.3464 226.627 63.9018C226.627 68.4203 226.639 68.5477 227.037 68.5477C227.423 68.5477 227.447 68.4203 227.447 66.3519V64.1563H230.317H233.188V66.3519C233.188 68.4268 233.21 68.5477 233.601 68.5477C234.006 68.5477 234.014 68.4508 233.96 63.8222C233.913 59.7719 233.861 59.0968 233.598 59.0968C233.346 59.0968 233.28 59.4866 233.232 61.2447L233.174 63.3926H230.317H227.461L227.402 61.2601C227.349 59.2866 227.185 58.7359 226.769 59.1247ZM102.89 59.9477C104.719 60.343 105.673 61.6871 105.673 63.8699C105.673 64.8946 105.561 65.424 105.211 66.0618C104.462 67.4276 103.922 67.678 101.558 67.7541L99.5223 67.8196V63.7924V59.765L100.804 59.7696C101.509 59.7721 102.447 59.8522 102.89 59.9477ZM138.613 60.1472C139.661 60.77 139.82 62.3595 138.917 63.2C138.264 63.8086 137.207 64.0282 135.399 63.9307L134.271 63.8699L134.212 62.0704C134.179 61.0807 134.204 60.1469 134.266 59.9953C134.417 59.6302 137.95 59.7538 138.613 60.1472ZM203.953 60.0312C205.279 60.5467 205.678 61.7724 204.907 62.9513C204.417 63.6983 203.518 63.9629 201.462 63.9642L199.976 63.9654V61.8652V59.765H201.623C202.567 59.765 203.561 59.8786 203.953 60.0312ZM34.1941 62.3167C34.6072 63.3525 34.9452 64.2762 34.9452 64.3692C34.9452 64.4622 34.1533 64.5382 33.1856 64.5382C32.2178 64.5382 31.4566 64.4706 31.4943 64.3881C31.5319 64.3056 31.9316 63.322 32.3826 62.2022C32.8336 61.0824 33.2568 60.2263 33.3228 60.2998C33.3888 60.3731 33.7808 61.2808 34.1941 62.3167ZM59.7333 62.3208C60.1942 63.4638 60.5711 64.4303 60.5711 64.4687C60.5711 64.5069 59.787 64.5382 58.8285 64.5382C57.8701 64.5382 57.086 64.4809 57.086 64.411C57.086 64.213 58.7837 60.1368 58.843 60.1927C58.8718 60.22 59.2724 61.1777 59.7333 62.3208ZM117.223 63.2494L117.75 64.5382H115.929H114.109L114.88 62.6766C115.304 61.6527 115.722 60.6432 115.81 60.4332C115.942 60.1144 116.028 60.2091 116.332 61.006C116.532 61.5311 116.933 62.5405 117.223 63.2494ZM189.997 62.3616C190.412 63.4222 190.751 64.3457 190.751 64.414C190.751 64.4822 189.959 64.5382 188.991 64.5382C188.023 64.5382 187.262 64.4666 187.3 64.3789C187.337 64.2913 187.733 63.3038 188.18 62.1844C188.625 61.065 189.048 60.2131 189.117 60.2912C189.187 60.3693 189.583 61.301 189.997 62.3616Z" fill="white"/>
<path fill-rule="evenodd" clip-rule="evenodd" d="M126.65 30.268C122.631 31.2867 119.504 34.3098 118.104 38.5311C117.654 39.8858 117.594 40.3465 117.597 42.3785C117.601 44.3649 117.671 44.9074 118.1 46.2673C119.257 49.9282 121.923 52.7589 125.537 54.1632C127.209 54.8133 130.108 54.9708 132.057 54.5176C139.661 52.7493 143.573 43.9034 139.978 36.6073C139.029 34.6824 136.633 32.2212 134.783 31.272C134.024 30.8825 132.865 30.4316 132.207 30.27C130.744 29.9108 128.063 29.9099 126.65 30.268ZM131.747 30.8359C134.97 31.541 138.012 33.9428 139.429 36.902C140.355 38.8346 140.673 40.2664 140.673 42.5051C140.673 48.8095 136.084 53.8208 130.007 54.154C126.673 54.3368 123.901 53.2246 121.522 50.7502C117.961 47.0451 117.106 41.8187 119.303 37.1844C121.605 32.3291 126.696 29.7315 131.747 30.8359ZM126.631 40.5028C125.336 42.91 124.265 44.9659 124.252 45.0717C124.238 45.1775 124.358 45.2904 124.517 45.3226C124.724 45.3641 125.459 44.1897 127.073 41.2347C128.32 38.954 129.384 37.09 129.438 37.0921C129.524 37.0953 133.293 43.959 133.463 44.4188C133.496 44.508 132.172 44.605 130.52 44.634C127.831 44.6814 127.512 44.722 127.456 45.0236C127.399 45.3348 127.664 45.3603 130.966 45.3603C132.931 45.3603 134.583 45.3127 134.639 45.2545C134.695 45.1963 133.652 43.1206 132.323 40.6417C130.181 36.6469 129.854 36.1343 129.446 36.1306C129.037 36.1269 128.726 36.6088 126.631 40.5028ZM124.109 48.3421C124.109 48.5919 124.825 48.6306 129.446 48.6306C134.067 48.6306 134.783 48.5919 134.783 48.3421C134.783 48.0921 134.067 48.0535 129.446 48.0535C124.825 48.0535 124.109 48.0921 124.109 48.3421Z" fill="white"/>
</svg>
