<svg width="263" height="97" viewBox="0 0 263 97" fill="none" xmlns="http://www.w3.org/2000/svg">
<rect width="263" height="97" fill="#25252B"/>
<path d="M99.4307 44.5221C95.5167 44.5221 92.4583 47.3221 92.4583 51.0704C92.4583 54.8188 95.4393 57.5948 99.4307 57.5948C103.422 57.5948 106.455 54.7709 106.455 51.0465C106.455 47.346 103.474 44.5221 99.4307 44.5221ZM99.4571 54.8935C97.2281 54.8935 95.5949 53.2621 95.5949 51.0714C95.5949 48.8557 97.2018 47.2253 99.4307 47.2253C101.686 47.2253 103.318 48.8806 103.318 51.0714C103.318 53.2621 101.686 54.8935 99.4571 54.8935ZM107.31 47.3709H109.254V57.3525H112.364V44.7654H107.31V47.3709ZM84.6312 47.2244C86.2645 47.2244 87.5604 48.1737 88.0523 49.5856H91.3444C90.7478 46.5672 88.1042 44.5221 84.6576 44.5221C80.7436 44.5221 77.6853 47.3221 77.6853 51.0714C77.6853 54.8207 80.6663 57.5957 84.6576 57.5957C88.0269 57.5957 90.7224 55.5506 91.319 52.5073H88.0523C87.5858 53.9193 86.2899 54.8935 84.6567 54.8935C82.4013 54.8935 80.8208 53.2621 80.8208 51.0714C80.8218 48.8557 82.3769 47.2244 84.6312 47.2244ZM166.403 49.8538L164.123 49.5377C163.035 49.3921 162.257 49.0511 162.257 48.2474C162.257 47.3709 163.268 46.9331 164.642 46.9331C166.144 46.9331 167.104 47.5414 167.311 48.5396H170.318C169.98 46.0078 167.907 44.523 164.719 44.523C161.428 44.523 159.251 46.1055 159.251 48.3451C159.251 50.487 160.676 51.7294 163.552 52.1183L165.833 52.4345C166.948 52.5801 167.57 52.9948 167.57 53.7736C167.57 54.7718 166.482 55.1856 164.979 55.1856C163.138 55.1856 162.102 54.4797 161.946 53.4087H158.888C159.173 55.8676 161.22 57.5957 164.953 57.5957C168.348 57.5957 170.602 56.1349 170.602 53.6271C170.602 51.3875 168.97 50.2188 166.403 49.8538ZM110.809 39.5802C109.669 39.5802 108.813 40.359 108.813 41.4299C108.813 42.5009 109.668 43.2797 110.809 43.2797C111.949 43.2797 112.805 42.5009 112.805 41.4299C112.805 40.359 111.949 39.5802 110.809 39.5802ZM156.451 49.0751C156.451 46.3488 154.689 44.523 150.957 44.523C147.432 44.523 145.462 46.2032 145.073 48.7838H148.158C148.313 47.7857 149.143 46.958 150.905 46.958C152.487 46.958 153.264 47.6151 153.264 48.4188C153.264 49.4659 151.838 49.7331 150.076 49.9036C147.691 50.1469 144.737 50.9257 144.737 53.8474C144.737 56.1119 146.525 57.5718 149.377 57.5718C151.605 57.5718 153.005 56.6953 153.705 55.3073C153.809 56.5488 154.794 57.3525 156.168 57.3525H157.982V54.7479H156.452V49.0751H156.451ZM153.393 52.24C153.393 53.9201 151.838 55.1617 149.946 55.1617C148.779 55.1617 147.794 54.699 147.794 53.7257C147.794 52.4843 149.375 52.1433 150.827 51.9976C152.226 51.876 153.004 51.5838 153.393 51.0234V52.24ZM136.883 44.5221C135.146 44.5221 133.695 45.2041 132.658 46.3479V39.4585H129.548V57.3525H132.606V55.6972C133.643 56.8898 135.121 57.5957 136.883 57.5957C140.615 57.5957 143.441 54.8207 143.441 51.0714C143.441 47.3221 140.563 44.5221 136.883 44.5221ZM136.417 54.8935C134.188 54.8935 132.554 53.2621 132.554 51.0714C132.554 48.8806 134.213 47.2253 136.442 47.2253C138.697 47.2253 140.278 48.8566 140.278 51.0714C140.278 53.2621 138.645 54.8935 136.417 54.8935ZM122.109 44.5221C120.088 44.5221 118.765 45.3009 117.988 46.3967V44.7654H114.903V57.3515H118.013V50.511C118.013 48.5875 119.309 47.2244 121.227 47.2244C123.016 47.2244 124.13 48.417 124.13 50.146V57.3525H127.24V49.9276C127.241 46.7617 125.505 44.5221 122.109 44.5221ZM185.429 50.6575C185.429 47.0548 182.629 44.523 178.871 44.523C174.88 44.523 171.95 47.347 171.95 51.0714C171.95 54.9911 175.086 57.5957 178.922 57.5957C182.163 57.5957 184.702 55.7939 185.35 53.2382H182.11C181.643 54.358 180.503 54.9911 178.974 54.9911C176.977 54.9911 175.474 53.8225 175.138 51.7773H185.427V50.6575H185.429ZM175.32 49.6834C175.813 47.9304 177.212 47.0788 178.819 47.0788C180.581 47.0788 181.929 48.028 182.24 49.6834H175.32Z" fill="white"/>
</svg>
