<svg width="263" height="97" viewBox="0 0 263 97" fill="none" xmlns="http://www.w3.org/2000/svg">
<rect width="263" height="97" fill="#25252B"/>
<mask id="mask0_306_55" style="mask-type:alpha" maskUnits="userSpaceOnUse" x="58" y="30" width="43" height="36">
<path d="M58.0792 30.5737H100.599V65.5187H58.0792V30.5737Z" fill="white"/>
</mask>
<g mask="url(#mask0_306_55)">
<path fill-rule="evenodd" clip-rule="evenodd" d="M62.0207 38.0427C62.3779 37.8543 62.8357 37.9659 63.0424 38.292C63.2485 38.6187 63.1262 39.0358 62.7683 39.2238C62.4106 39.4119 61.9533 39.3003 61.7464 38.9746C61.5405 38.6479 61.6626 38.2308 62.0207 38.0427ZM61.003 57.7235C60.5789 57.9473 60.0365 57.8147 59.7913 57.4278C59.5463 57.0411 59.6917 56.5468 60.1165 56.3231C60.5406 56.1003 61.0828 56.2325 61.3278 56.6192C61.5726 57.0059 61.4267 57.5008 61.003 57.7235ZM71.4735 63.6655L72.9467 63.7344C72.9807 63.5313 73.0654 63.3361 73.1972 63.1663L68.7931 59.6857C68.7548 59.7151 68.713 59.7422 68.6684 59.7653C68.4638 59.8734 68.232 59.8983 68.0188 59.8511L67.1669 61.7065C67.3968 61.8188 67.5951 61.9886 67.7349 62.2095C68.1362 62.8424 67.8981 63.6519 67.2038 64.0173C66.5091 64.3831 65.6213 64.1661 65.2207 63.5331C64.8204 62.8998 65.0577 62.0904 65.7524 61.7253C66.1159 61.5338 66.5323 61.5026 66.9044 61.6064L67.7554 59.7514C67.636 59.6837 67.5322 59.5884 67.4566 59.4697C67.2123 59.0828 67.3572 58.5881 67.7814 58.3651C68.206 58.1416 68.7479 58.2741 68.9931 58.6608C69.1621 58.9269 69.1456 59.2451 68.9802 59.4897L73.3835 62.9699C73.4645 62.9002 73.5561 62.8378 73.6568 62.7847C74.351 62.4193 75.2388 62.6364 75.6392 63.2693C76.0402 63.9018 75.8024 64.7116 75.1081 65.0775C74.4139 65.4422 73.5256 65.2254 73.1252 64.5929C73.0054 64.4036 72.9425 64.1979 72.9316 63.9928L71.4589 63.9247C71.4073 64.1402 71.2608 64.3347 71.0352 64.4543C70.611 64.6768 70.0686 64.5447 69.8238 64.1582C69.5789 63.7711 69.7243 63.2763 70.1482 63.0534C70.5724 62.8303 71.115 62.9628 71.3604 63.3491C71.4237 63.4492 71.4607 63.5575 71.4735 63.6655ZM72.3416 36.1597L70.8375 38.6637C70.9652 38.7478 71.0754 38.857 71.1592 38.9892C71.4766 39.4896 71.2886 40.13 70.7395 40.4186C70.1911 40.7074 69.4886 40.5357 69.1721 40.0357C68.8555 39.535 69.0432 38.8953 69.5925 38.6059L69.6331 38.585L67.9176 34.4034C67.437 34.5088 66.9177 34.3191 66.6576 33.9087C66.3409 33.4083 66.5287 32.7683 67.078 32.4793C67.6264 32.1903 68.3284 32.3622 68.6454 32.8624C68.9624 33.3627 68.7744 34.0023 68.2251 34.2913L68.184 34.3124L69.9001 38.4941C70.132 38.4438 70.3725 38.4614 70.5883 38.5394L72.0915 36.0351C72.0037 35.9729 71.9282 35.8944 71.8692 35.8014C71.6238 35.4147 71.7697 34.92 72.1936 34.6975C72.6177 34.474 73.1603 34.6065 73.4053 34.9928C73.6501 35.3799 73.5047 35.8744 73.0805 36.0979C72.8473 36.2207 72.5772 36.2353 72.3416 36.1597ZM69.5019 55.9747C69.2012 55.9816 68.9115 55.9816 68.6355 55.9745C66.8497 55.9289 65.6955 55.6369 65.4855 55.0888L65.4724 55.0552C65.2874 54.4148 66.1532 53.4592 67.7585 52.3735C67.8778 53.048 68.0893 53.6975 68.3885 54.31C68.6783 54.904 69.0514 55.4621 69.5019 55.9747ZM72.6482 56.9544C73.9342 56.7902 75.3287 56.5472 76.794 56.225C78.213 55.9131 79.6899 55.5311 81.19 55.0813C82.2886 54.7516 84.9293 53.903 87.6265 52.7419C87.3277 53.5052 86.9204 54.1888 86.4176 54.7905C85.9512 54.6127 85.4026 54.629 84.9326 54.8764C84.2502 55.2357 83.9489 55.9668 84.1599 56.6271C82.9771 57.2831 81.5679 57.7227 79.9787 57.9397C79.9605 57.9049 79.94 57.8704 79.9189 57.8364C79.4092 57.0316 78.2803 56.7558 77.3976 57.2205C77.0286 57.4144 76.7616 57.7069 76.6122 58.0406C75.0835 57.9099 73.753 57.5277 72.6482 56.9544ZM84.2935 41.7331C84.2328 42.0973 84.3022 42.4824 84.5194 42.8265C85.0291 43.631 86.1579 43.9071 87.0411 43.4424C87.9232 42.9777 88.2264 41.9487 87.7167 41.1433C87.207 40.3393 86.0781 40.0639 85.195 40.5282C85.0795 40.589 84.9727 40.6604 84.877 40.7392C82.9997 39.9697 81.0486 39.6989 79.1291 39.8975C78.7623 39.9356 78.3966 39.9905 78.0331 40.0627C77.5114 39.2911 76.4073 39.034 75.54 39.4904C74.8438 39.8564 74.5086 40.5753 74.6489 41.2572C73.7505 41.7223 72.882 42.2991 72.058 42.9831C71.241 43.66 70.5446 44.3673 69.9619 45.0904C69.5407 45.0052 69.0838 45.0576 68.6801 45.2698C68.0437 45.605 67.7185 46.2444 67.7992 46.8711L65.2385 47.5344L65.1972 47.4613C65.0769 47.2716 64.8888 47.1394 64.6778 47.0748L65.3926 43.3021C65.6044 43.3112 65.822 43.2673 66.0194 43.1633C66.5687 42.8747 66.7563 42.2342 66.4398 41.7339C66.1228 41.2339 65.4208 41.0621 64.8724 41.3506C64.3231 41.64 64.1352 42.2797 64.4522 42.7804C64.6032 43.0192 64.8437 43.1833 65.1116 43.2577L64.3973 47.0306C64.2306 47.027 64.061 47.0642 63.9063 47.1461C63.7522 47.2264 63.6328 47.3417 63.5521 47.4738L60.7781 46.5369C60.8645 46.2309 60.8241 45.8969 60.6378 45.6024C60.2592 45.0047 59.4205 44.7996 58.7649 45.1448C58.1091 45.4899 57.8844 46.2548 58.2634 46.8524C58.6415 47.4501 59.4803 47.6552 60.1358 47.3096C60.3795 47.1814 60.564 46.9953 60.68 46.7811L63.4525 47.718C63.4074 47.918 63.4396 48.1325 63.5599 48.3226C63.8209 48.735 64.3991 48.8759 64.851 48.6383C65.1907 48.4594 65.3625 48.1179 65.3165 47.7841L67.8551 47.1263C67.8943 47.2525 67.9512 47.3762 68.0268 47.4953C68.107 47.6228 68.2037 47.7363 68.3124 47.8352C68.0806 48.399 67.9112 48.9626 67.801 49.5203C67.7076 49.9946 67.6571 50.4652 67.6484 50.9279C65.1563 52.4955 63.8142 54.0767 64.179 55.3407C64.195 55.3944 64.209 55.4384 64.2219 55.4721C64.6436 56.5713 66.2508 57.1398 68.631 57.2006C69.2823 57.2168 70.0004 57.1984 70.7733 57.1432C71.1237 57.4037 71.5006 57.6445 71.9048 57.8621C73.1972 58.5585 74.7591 59.0196 76.553 59.1661C76.5939 59.2871 76.65 59.4054 76.722 59.5191C77.2317 60.3235 78.3601 60.5993 79.2433 60.1346C79.7035 59.8928 80.0061 59.496 80.1177 59.0587C81.9403 58.8145 83.5615 58.2982 84.9222 57.5194C85.425 57.7882 86.0677 57.809 86.6086 57.5245C86.956 57.3421 87.2034 57.0638 87.3355 56.7479L90.7664 57.6785C90.7237 57.9099 90.7656 58.155 90.9036 58.3739C91.2213 58.8738 91.923 59.0453 92.4717 58.7567L92.4788 58.7528L94.389 61.0221C94.3206 61.0924 94.2701 61.1749 94.239 61.2626L88.3262 60.5941C88.3262 60.4164 88.2767 60.2368 88.1717 60.072C87.8547 59.5718 87.1532 59.4003 86.6043 59.6894C86.0973 59.9557 85.8983 60.5217 86.1206 61.001L80.8003 63.7968C80.5311 63.494 80.0521 63.4061 79.6697 63.6073C79.2453 63.8309 79.1004 64.3254 79.3449 64.7116C79.5901 65.0987 80.1325 65.2309 80.5571 65.0086C80.9384 64.8067 81.0946 64.3853 80.9426 64.0214L86.2622 61.226C86.3325 61.3107 86.4149 61.383 86.5061 61.4432L85.0022 63.9476C84.7659 63.8716 84.4967 63.8868 84.2633 64.0094C83.8393 64.2327 83.6936 64.7275 83.9385 65.1146C84.1833 65.5008 84.7252 65.634 85.1498 65.4098C85.5744 65.1873 85.7194 64.6926 85.4746 64.3055C85.4164 64.2129 85.3399 64.1345 85.2523 64.0727L86.7561 61.5683C87.0707 61.6816 87.4362 61.6672 87.7523 61.5014C88.031 61.3541 88.2169 61.1164 88.2898 60.8523L94.2032 61.5209C94.2112 61.6214 94.2432 61.7219 94.3014 61.8153C94.5082 62.141 94.9656 62.2531 95.3235 62.0646C95.6812 61.8767 95.8037 61.4595 95.597 61.133C95.398 60.8194 94.9665 60.7031 94.6157 60.8638L92.7044 58.5952C93.0675 58.2683 93.1577 57.7484 92.8921 57.3273C92.7627 57.123 92.57 56.9742 92.3494 56.8883L93.3166 53.8163C93.5156 53.8392 93.7239 53.8064 93.9106 53.7083C94.1033 53.6065 94.2423 53.4517 94.3179 53.2764L96.5313 53.7328C96.4984 53.9916 96.5522 54.2623 96.7058 54.5052C97.0844 55.1028 97.9233 55.3077 98.5789 54.9626C99.2344 54.6174 99.4594 53.8532 99.0809 53.2551C98.7023 52.6572 97.8633 52.4523 97.2078 52.7979C96.9074 52.9558 96.6972 53.2016 96.5947 53.4795L94.3804 53.023C94.3935 52.8573 94.3543 52.6858 94.2563 52.5306C93.9958 52.1185 93.4174 51.9773 92.965 52.2156C92.5135 52.4533 92.3581 52.9807 92.6193 53.3923C92.7211 53.553 92.8712 53.6726 93.0423 53.7443L92.0749 56.8168C91.8248 56.7807 91.56 56.8198 91.3237 56.9442C91.1041 57.0602 90.9427 57.2328 90.8471 57.4298L87.4153 56.4978C87.4804 56.1972 87.4475 55.8778 87.3041 55.5825C88.1595 54.5978 88.7822 53.4209 89.1312 52.0608C92.6273 50.3943 95.7404 48.2557 95.1202 46.1058C95.1046 46.0521 95.0899 46.0081 95.0777 45.9745C94.746 45.1091 93.6787 44.5728 92.0785 44.354C92.0402 44.2648 91.9915 44.1776 91.9326 44.0941C91.4644 43.4324 90.2836 43.3585 89.7939 43.6418C88.2802 44.5165 89.2719 46.8991 91.4904 46.0381C91.9951 45.8421 91.869 45.7524 91.9864 45.5655C93.0118 45.6975 93.6614 45.9601 93.8142 46.3575L93.8273 46.3916C94.1903 47.6503 92.0575 49.1507 89.3968 50.4838C89.4429 49.5967 89.2199 48.9618 88.7942 48.5303C88.8213 48.2358 88.7535 47.931 88.579 47.656C88.1257 46.939 87.1201 46.6933 86.3333 47.1074C86.0199 47.272 85.789 47.517 85.6527 47.7977C84.8866 47.8613 84.0461 48.019 83.1751 48.2391C80.7637 48.8485 78.1096 49.9565 76.3539 50.7451C75.8388 50.3345 75.0752 50.2463 74.4495 50.5756C73.6632 50.9889 73.394 51.9063 73.8477 52.6232C74.3018 53.3398 75.3075 53.585 76.0933 53.1714C76.6629 52.8719 76.9617 52.3083 76.9101 51.7476C78.6238 50.9781 81.1971 49.9042 83.5026 49.3211C84.2562 49.1312 84.9795 48.9946 85.6222 48.9472C85.6527 49.0179 85.6891 49.0868 85.7316 49.1549C86.1858 49.8714 87.1914 50.1168 87.9781 49.7032L87.9877 49.6985C88.1362 49.9727 88.1909 50.3302 88.1282 50.7842C88.1135 50.8954 88.0962 51.0059 88.077 51.1143C84.9969 52.5204 81.6591 53.6402 80.7394 53.916C79.2534 54.362 77.8126 54.7358 76.4492 55.0351C74.4894 55.4658 72.6684 55.7515 71.0794 55.8873C70.4081 55.2943 69.8819 54.6065 69.5128 53.8528C69.1781 53.1679 68.9716 52.4266 68.9033 51.6514C72.738 49.3734 77.0008 47.7454 81.421 46.6311C81.9247 47.1345 82.9026 47.1739 83.3948 46.8895C83.888 46.6046 83.9687 46.3778 84.053 46.0355C84.1495 45.6478 84.0566 45.2556 83.8169 44.9172L83.8151 44.9156V44.9148L83.8143 44.9135L83.8125 44.9121L83.8116 44.9105L83.81 44.9088L83.8092 44.9068L83.8082 44.9052L83.7987 44.8934L83.7969 44.8918L83.796 44.8898L83.7943 44.8882L83.7933 44.8868L83.7918 44.8848L83.79 44.8831L83.7891 44.8811L83.7727 44.8616L83.7718 44.8598L83.7709 44.8582L83.7691 44.8562L83.7683 44.8554V44.8546L83.7527 44.8363C83.2594 44.2628 82.3711 44.1045 81.6989 44.4928C81.3143 44.7149 81.0797 45.0696 81.0191 45.4538C76.7731 46.5223 72.6728 48.0581 68.9389 50.165C68.9589 50.0167 68.9831 49.8687 69.0122 49.719C69.1043 49.252 69.2445 48.779 69.4344 48.3052C69.7825 48.3301 70.142 48.2628 70.4672 48.0913C71.3221 47.6416 71.6147 46.6453 71.1214 45.866C71.0845 45.8077 71.0443 45.7516 71.0007 45.6997C71.5267 45.0554 72.154 44.4235 72.8887 43.8151C73.6481 43.1846 74.4461 42.6558 75.2689 42.2302C75.8462 42.6771 76.6929 42.7693 77.3858 42.4041C77.9042 42.1313 78.2225 41.6642 78.2941 41.1624C78.6158 41.0985 78.9401 41.0495 79.2649 41.0158C80.9399 40.8423 82.6454 41.0732 84.2935 41.7331ZM89.989 39.491L90.0004 39.4847L88.8402 36.847C88.4721 36.9218 88.078 36.7748 87.8781 36.4617C87.827 36.3794 87.7923 36.2931 87.7749 36.2053L84.41 36.2761C84.3744 36.6968 84.1181 37.0954 83.6875 37.3226C82.9937 37.688 82.1054 37.4712 81.7042 36.8382C81.579 36.6403 81.5157 36.425 81.5106 36.2116L78.0932 35.9867C78.0389 36.1958 77.8942 36.3845 77.6746 36.4998C77.25 36.7234 76.7076 36.5908 76.4624 36.2041C76.2178 35.8174 76.363 35.3229 76.7872 35.0994C77.0055 34.984 77.2564 34.9636 77.4814 35.024L78.8094 32.5002C78.6602 32.4132 78.5309 32.2928 78.4357 32.1433C78.1196 31.6429 78.3081 31.0033 78.8563 30.7139C79.4052 30.4253 80.1072 30.5967 80.4242 31.0967C80.7412 31.5973 80.5527 32.2373 80.0038 32.5259C79.7077 32.6824 79.3665 32.7033 79.0657 32.6118L77.7379 35.1361C77.8418 35.2021 77.9311 35.2893 77.9984 35.3953C78.0653 35.5007 78.1027 35.6135 78.1143 35.7275L81.5314 35.9524C81.6017 35.5787 81.8474 35.2347 82.2357 35.03C82.7159 34.778 83.288 34.8033 83.7282 35.0526L85.9443 32.422C85.8992 32.3772 85.8576 32.3273 85.8218 32.2718C85.578 31.8855 85.7229 31.3908 86.1466 31.1674C86.5712 30.9439 87.114 31.0768 87.3588 31.4639C87.6038 31.8502 87.4588 32.3451 87.034 32.5683C86.7579 32.7132 86.4323 32.7081 86.1702 32.5802L83.9549 35.2108C84.0566 35.2976 84.1459 35.3993 84.2189 35.5144C84.3197 35.6743 84.3804 35.8446 84.4031 36.0164L87.7678 35.9463C87.8043 35.7074 87.9572 35.4865 88.2029 35.357C88.6275 35.1337 89.1703 35.2664 89.4144 35.6531C89.6565 36.0355 89.5176 36.5231 89.1043 36.7499L90.2645 39.3882C90.4677 39.341 90.6768 39.3481 90.8704 39.4044L92.4145 36.3989C92.3085 36.333 92.2156 36.2444 92.1469 36.1356C91.903 35.7485 92.0471 35.2536 92.4717 35.0313C92.8965 34.8075 93.4383 34.9405 93.6832 35.3266C93.928 35.7137 93.783 36.208 93.3593 36.4317C93.1421 36.5452 92.8956 36.5663 92.6724 36.5089L91.1283 39.5141C91.2726 39.5976 91.3975 39.7135 91.4889 39.8576C91.5149 39.8979 91.5365 39.9403 91.5556 39.9827L97.4396 38.5863C97.4091 38.2815 97.5699 37.9738 97.88 37.8104C98.3046 37.5875 98.8463 37.7201 99.0922 38.1063C99.3361 38.4932 99.1911 38.9875 98.7665 39.2113C98.7074 39.2425 98.6449 39.267 98.5816 39.2849L99.4394 45.0696C99.8389 45.0663 100.23 45.2544 100.444 45.5929C100.762 46.0932 100.574 46.7329 100.025 47.0223C99.4759 47.3107 98.7734 47.1394 98.4573 46.639C98.1926 46.2221 98.2792 45.708 98.6336 45.3811L95.7784 42.079L95.7592 42.0893C95.2106 42.3788 94.5082 42.2073 94.1912 41.7065C93.8742 41.2065 94.0627 40.5661 94.6113 40.2775C95.1602 39.9883 95.8626 40.16 96.1796 40.6604C96.4437 41.0776 96.3568 41.5922 96.0025 41.9183L98.8577 45.2204L98.8768 45.21C98.9662 45.1626 99.0617 45.1277 99.1573 45.1045L98.2993 39.3193C98.0014 39.3114 97.7148 39.1677 97.5552 38.9152C97.5395 38.8899 97.5247 38.8641 97.5116 38.8376L91.6279 40.2338C91.6816 40.6213 91.4809 41.0178 91.0868 41.2256C90.5615 41.5014 89.8901 41.3381 89.5871 40.859C89.2832 40.3801 89.4637 39.7674 89.989 39.491Z" fill="white"/>
</g>
<mask id="mask1_306_55" style="mask-type:alpha" maskUnits="userSpaceOnUse" x="111" y="36" width="94" height="26">
<path d="M111.895 36.5596H204.602V61.212H111.895V36.5596Z" fill="white"/>
</mask>
<g mask="url(#mask1_306_55)">
<path fill-rule="evenodd" clip-rule="evenodd" d="M198.975 44.6201L204.602 36.783H201.748L197.74 42.5544L193.774 36.783H190.839L196.465 44.676V49.8137H198.975V44.6201ZM188.691 49.8137L183.551 43.1495L188.488 36.783H185.635L182.093 41.4556L178.572 36.783H175.637L180.595 43.1871L175.435 49.8137H178.288L182.032 44.8802L185.756 49.8137H188.691ZM168.41 44.6384H163.532L165.961 39.4265L168.41 44.6384ZM167.154 36.6896H164.848L158.614 49.8137H161.165L162.621 46.6684H169.321L170.757 49.8137H173.388L167.154 36.6896ZM146.327 49.8137H156.263V47.7287H148.816V36.783H146.327V49.8137ZM137.945 44.6384H133.067L135.496 39.4265L137.945 44.6384ZM136.69 36.6896H134.383L128.15 49.8137H130.7L132.156 46.6684H138.856L140.292 49.8137H142.924L136.69 36.6896ZM199.501 61.1131H203.869V60.198H200.596V55.3875H199.501V61.1131ZM187.155 58.8405H185.012L186.079 56.5491L187.155 58.8405ZM186.604 55.3467H185.59L182.851 61.1131H183.97L184.611 59.7317H187.556L188.187 61.1131H189.344L186.604 55.3467ZM171.963 56.3196H173.937V55.3875H168.886V56.3196H170.86V61.1131H171.963V56.3196ZM157.483 61.1131H158.575V55.3875H157.483V61.1131ZM146.905 60.3209V57.9157H144.255V58.7902H145.846V59.864C145.656 59.9929 145.434 60.099 145.176 60.1774C144.918 60.2574 144.64 60.2947 144.343 60.2947C144.024 60.2947 143.734 60.2445 143.477 60.1401C143.219 60.0376 142.996 59.8939 142.809 59.7111C142.622 59.5286 142.481 59.3103 142.378 59.0606C142.277 58.8108 142.227 58.5384 142.227 58.244C142.227 57.9643 142.28 57.7033 142.382 57.4571C142.487 57.2129 142.63 56.9966 142.809 56.8119C142.991 56.6255 143.204 56.4801 143.449 56.3737C143.696 56.2676 143.961 56.2135 144.246 56.2135C144.443 56.2135 144.621 56.2285 144.784 56.2602C144.946 56.2899 145.097 56.329 145.233 56.3813C145.37 56.4336 145.5 56.4968 145.623 56.5735C145.749 56.6498 145.87 56.7337 145.989 56.827L146.683 56.0681C146.522 55.9414 146.358 55.8313 146.19 55.7363C146.021 55.6411 145.842 55.5591 145.652 55.4939C145.461 55.4286 145.255 55.3782 145.034 55.3426C144.811 55.3073 144.563 55.2888 144.291 55.2888C143.822 55.2888 143.391 55.3688 142.996 55.5274C142.601 55.6858 142.263 55.8983 141.978 56.1686C141.694 56.439 141.473 56.7542 141.316 57.1141C141.159 57.4738 141.08 57.8561 141.08 58.2587C141.08 58.6783 141.157 59.0699 141.311 59.4297C141.465 59.7878 141.683 60.1008 141.966 60.3658C142.246 60.6285 142.586 60.8374 142.983 60.9864C143.381 61.1377 143.822 61.2121 144.308 61.2121C144.581 61.2121 144.841 61.1897 145.09 61.143C145.339 61.0964 145.573 61.0311 145.788 60.9511C146.006 60.8691 146.207 60.7722 146.395 60.664C146.58 60.5557 146.75 60.4402 146.905 60.3209ZM129.507 61.1131H130.602V55.3875H129.507V61.1131ZM117.88 58.2587C117.88 58.542 117.83 58.8032 117.725 59.04C117.621 59.2768 117.476 59.4819 117.29 59.6533C117.102 59.8251 116.876 59.9591 116.609 60.0543C116.342 60.1495 116.046 60.198 115.721 60.198H114.493V56.3049H115.721C116.046 56.3049 116.342 56.3534 116.609 56.4521C116.876 56.5491 117.102 56.6852 117.29 56.8603C117.476 57.0357 117.621 57.2408 117.725 57.4776C117.83 57.7142 117.88 57.9754 117.88 58.2587ZM119.027 58.244C119.027 57.8393 118.948 57.4627 118.788 57.1141C118.627 56.7636 118.401 56.4615 118.107 56.2059C117.813 55.9506 117.464 55.7493 117.058 55.6056C116.652 55.4604 116.205 55.3875 115.721 55.3875H113.397V61.1131H115.721C116.205 61.1131 116.652 61.0405 117.058 60.8933C117.464 60.746 117.813 60.5445 118.107 60.2873C118.401 60.0302 118.627 59.7279 118.788 59.3756C118.948 59.0252 119.027 58.6466 119.027 58.244ZM125.151 48.008V42.5351H119.12V44.5276H122.744V46.966C122.311 47.2636 121.802 47.5026 121.216 47.6825C120.628 47.8623 119.998 47.9522 119.323 47.9522C118.594 47.9522 117.936 47.8344 117.349 47.5987C116.763 47.3621 116.257 47.0375 115.832 46.6213C115.407 46.2059 115.08 45.7119 114.85 45.1411C114.621 44.5702 114.506 43.9498 114.506 43.2796C114.506 42.6468 114.624 42.0508 114.86 41.4931C115.096 40.9346 115.421 40.4442 115.832 40.0217C116.243 39.6001 116.729 39.2676 117.29 39.0259C117.849 38.7841 118.452 38.6629 119.1 38.6629C119.545 38.6629 119.954 38.6968 120.325 38.7649C120.696 38.834 121.037 38.9265 121.347 39.0442C121.657 39.1629 121.954 39.3087 122.237 39.4823C122.521 39.6559 122.797 39.8481 123.067 40.0592L124.646 38.3277C124.281 38.0424 123.907 37.7911 123.523 37.5737C123.138 37.3572 122.73 37.174 122.298 37.0247C121.867 36.8755 121.398 36.7611 120.891 36.6809C120.386 36.5998 119.822 36.5596 119.202 36.5596C118.136 36.5596 117.154 36.7394 116.257 37.0989C115.359 37.4593 114.587 37.9463 113.939 38.5607C113.292 39.1751 112.789 39.8916 112.431 40.7111C112.074 41.5297 111.895 42.3982 111.895 43.3171C111.895 44.2727 112.071 45.1603 112.422 45.9789C112.772 46.7975 113.268 47.5089 113.909 48.1101C114.55 48.7131 115.322 49.1837 116.227 49.5257C117.13 49.8669 118.136 50.0371 119.242 50.0371C119.863 50.0371 120.456 49.9848 121.023 49.8791C121.59 49.7735 122.119 49.6278 122.612 49.4419C123.104 49.2551 123.563 49.0378 123.988 48.79C124.413 48.5413 124.801 48.2812 125.151 48.008Z" fill="#F7F9FB"/>
</g>
</svg>
