<svg width="265" height="97" viewBox="0 0 265 97" fill="none" xmlns="http://www.w3.org/2000/svg">
<rect width="265" height="97" fill="#25252B"/>
<path d="M83.0864 30.4113L86.6933 30.4603C89.1738 30.3488 91.7247 30.1915 93.8649 30.2774C93.8238 29.896 94.1723 29.877 94.1382 29.4967C92.5824 28.7315 89.3557 29.1007 86.5701 29.1007C84.6223 29.1007 82.0773 28.5519 81.6091 30.0164C81.6702 30.5596 82.4997 30.3722 83.0864 30.4113Z" fill="white"/>
<path d="M78.1691 33.2881C78.6502 32.1359 79.7074 31.5258 79.6839 29.8829C79.2815 29.7435 78.9741 29.5148 78.3041 29.6219C77.2645 30.2331 76.943 32.5876 78.1691 33.2881Z" fill="white"/>
<path d="M78.7169 64.657C78.7169 64.715 78.7169 64.7764 78.7169 64.8355V64.841C78.9316 67.915 78.7908 61.5385 78.7169 64.657Z" fill="white"/>
<path d="M78.3024 56.8547C77.6594 56.4721 77.5057 57.5351 77.0646 57.7749C77.0035 59.178 77.0305 60.5075 77.4788 61.4366C77.0247 64.612 77.0646 59.2739 77.0646 62.8252C77.0646 64.4547 76.756 66.3252 78.0279 66.8795C78.8234 66.555 78.7213 65.6035 78.7178 64.8362C78.5442 62.3233 79.159 58.9661 78.3024 56.8547Z" fill="white"/>
<path d="M96.3459 39.5757C97.5838 39.6069 97.2552 37.9584 97.3092 37.0862C97.3831 35.9129 97.9123 33.9052 97.8584 32.1095C97.7973 29.8788 97.1085 27.8589 95.7968 29.755C96.326 33.1345 95.5023 36.8509 96.3459 39.5757Z" fill="white"/>
<path d="M97.2437 66.8258C97.4331 66.9711 97.5661 66.6413 97.2437 66.8258V66.8258Z" fill="white"/>
<path d="M80.5046 66.8798C80.1526 66.9813 80.0353 67.2991 80.0963 67.7955C81.1676 68.0308 82.6613 67.9293 84.0857 67.9293C85.4586 67.9293 87.072 68.2472 87.8088 67.5345C87.1987 66.911 85.8998 66.9366 84.7757 66.8798C83.3958 66.8161 81.8364 66.9299 80.5046 66.8798Z" fill="white"/>
<path d="M78.9208 34.2562C78.6861 34.5785 78.5946 34.8473 78.6544 35.0648C78.7142 35.2823 78.9888 35.3749 79.4758 35.3426C79.9162 35.3106 80.9065 35.4794 82.4467 35.8489C82.7846 35.9304 82.9677 35.8902 82.9935 35.7285C83.0193 35.5668 82.8515 35.356 82.4772 35.1016C82.3599 35.0202 82.2062 34.9243 82.0196 34.8117C81.833 34.699 81.6383 34.5886 81.4329 34.477C81.2276 34.3655 81.0305 34.254 80.8369 34.1514C80.6432 34.0487 80.4766 33.9617 80.3417 33.8982C80.1233 33.7765 79.8693 33.7253 79.6177 33.7521C79.3913 33.7822 79.1589 33.9506 78.9208 34.2562Z" fill="white"/>
<path d="M93.6266 34.4134C93.4629 34.3565 93.284 34.3522 93.1174 34.4012C92.7086 34.4838 92.2915 34.5242 91.8736 34.5216C91.2807 34.5387 90.6415 34.5428 89.9564 34.5339C89.2711 34.525 88.6109 34.5015 87.9757 34.4636C87.3413 34.4235 86.872 34.3792 86.5677 34.3309C86.2815 34.2618 85.9798 34.2786 85.7041 34.3789C85.4835 34.4748 85.2367 34.7235 84.9637 35.125C84.8112 35.3481 84.7431 35.5355 84.7607 35.6827C84.7708 35.8122 84.8345 35.9325 84.9379 36.0173C85.0465 36.0997 85.1827 36.1421 85.3215 36.1367C85.4669 36.1388 85.6093 36.0965 85.7276 36.0162C85.9705 35.8855 86.2316 35.7878 86.5031 35.7262C86.7824 35.6623 87.1927 35.5879 87.734 35.5031C88.3523 35.418 88.9761 35.374 89.6008 35.3715C90.2326 35.3599 90.8644 35.3878 91.4923 35.4552C91.9335 35.5031 92.2327 35.6091 92.3946 35.7686C92.5565 35.9281 92.6528 36.188 92.6868 36.5415C92.7143 36.8125 92.6929 37.0861 92.6234 37.3502C92.4983 37.8787 92.3417 38.4001 92.154 38.9117C92.0187 39.2835 91.8877 39.6091 91.7609 39.8887C91.6331 40.1709 91.5064 40.4319 91.3796 40.6695C91.2598 40.9009 91.1238 41.1245 90.9725 41.3387C90.8293 41.5395 90.6721 41.7447 90.5031 41.9533C90.1644 41.632 89.8214 41.2974 89.4741 40.9494C89.1268 40.6014 88.8006 40.2735 88.4955 39.9657C88.1905 39.6512 87.924 39.3693 87.6965 39.1202C87.4617 38.8715 87.3022 38.6819 87.2001 38.5536C86.7605 38.0383 86.2951 37.9335 85.8039 38.2391C85.4823 38.4164 85.3169 38.5982 85.3087 38.7823C85.3004 38.9663 85.426 39.1001 85.6771 39.1816C85.9606 39.2858 86.2353 39.4107 86.4985 39.5552C86.7319 39.6908 86.9565 39.8398 87.1708 40.0013C87.5619 40.3241 87.9977 40.7063 88.4779 41.1479C88.9582 41.5896 89.4451 42.0685 89.9388 42.5846C89.4254 43.1229 88.8695 43.6233 88.2761 44.0813C87.743 44.4891 87.1683 44.8452 86.5607 45.1442C85.9691 45.432 85.3499 45.6651 84.7114 45.8403C84.0439 46.0229 83.3657 46.1681 82.6803 46.2752C82.5884 46.286 82.4997 46.314 82.4191 46.3574C82.3386 46.4009 82.2679 46.459 82.211 46.5284C82.1586 46.5866 82.12 46.655 82.0979 46.7287C82.0758 46.8025 82.0708 46.8798 82.0831 46.9556C82.102 47.0353 82.1392 47.1101 82.1919 47.1747C82.2446 47.2392 82.3116 47.292 82.3882 47.3292C82.5654 47.4341 82.8247 47.4787 83.1626 47.4631C84.051 47.4128 84.9254 47.229 85.7534 46.9188C86.5718 46.6211 87.3351 46.2013 88.0144 45.6752C88.5565 45.2573 89.0477 44.851 89.4881 44.4561C89.9286 44.0613 90.3197 43.6791 90.6616 43.3095C90.9502 43.6151 91.2201 43.9129 91.4747 44.2018C91.7293 44.4907 91.9652 44.7651 92.1857 45.0216C92.5768 45.5049 92.9156 45.9139 93.2019 46.2485C93.4881 46.5831 93.7377 46.869 93.9504 47.1062C94.1222 47.3012 94.3047 47.4873 94.4973 47.6638C94.6244 47.7816 94.7601 47.8908 94.9032 47.9907C95.1379 48.1669 95.5017 48.2271 95.9944 48.1714C96.3219 48.1283 96.6405 48.0376 96.939 47.9025C97.1103 47.9639 97.2828 48.0219 97.4564 48.0821C97.467 47.9394 97.4835 47.7799 97.5011 47.6137L97.5186 47.6036C97.8578 47.3951 98.0302 47.2579 98.0397 47.1932C98.049 47.1285 97.9082 47.0325 97.6207 46.9043L97.582 46.8876C97.8273 44.7294 98.1147 41.7134 96.0778 41.5339C95.7257 42.8634 95.6847 44.5453 95.7891 46.0712C95.6718 46.0109 95.5545 45.9529 95.4488 45.8894C95.2541 45.7763 95.0467 45.6476 94.827 45.5034C94.2196 45.1195 93.6344 44.7047 93.074 44.2609C92.4482 43.7702 91.8388 43.243 91.2459 42.6794C91.5648 42.3044 91.8572 41.9098 92.1212 41.4982C92.3665 41.1108 92.5829 40.7075 92.7689 40.2913C92.8698 40.0683 92.9797 39.808 93.0986 39.5106C93.2175 39.2132 93.3274 38.9195 93.4284 38.6295C93.5308 38.3395 93.62 38.0696 93.6959 37.8198C93.7583 37.6264 93.805 37.4287 93.8354 37.2286C93.881 37.0025 93.9402 36.7791 94.0126 36.5594C94.0971 36.2939 94.191 36.0162 94.2919 35.7262C94.3597 35.5471 94.3686 35.3526 94.3178 35.1685C94.2691 34.9962 94.1823 34.8357 94.0631 34.6978C93.9479 34.5667 93.7969 34.4683 93.6266 34.4134Z" fill="white"/>
<path d="M98.2561 54.8946C98.1533 54.8273 98.0364 54.782 97.9134 54.7619C97.7609 54.7384 97.6036 54.6927 97.4441 54.6582C97.5192 54.4652 97.6115 54.2786 97.7198 54.1005C97.66 53.0252 97.8606 51.6946 97.5791 50.8291C95.3109 49.0601 95.6336 52.4643 96.0865 54.2187C96.0513 54.203 96.0126 54.1941 95.9786 54.1785C95.1651 53.8068 94.3609 53.3922 93.5661 52.9349C92.7714 52.4776 91.9501 51.9571 91.1021 51.3734C90.6105 51.0388 90.2139 50.7532 89.9088 50.5279C89.6037 50.3027 89.3503 50.1019 89.1473 49.9246C88.9726 49.7763 88.811 49.6148 88.6638 49.4416C88.5457 49.2936 88.446 49.1331 88.367 48.9631C88.2106 48.6903 88.024 48.5698 87.8073 48.6017C87.5907 48.6337 87.3536 48.907 87.0962 49.4215C86.8936 49.8089 86.517 50.2517 85.9663 50.7499C85.35 51.2974 84.6823 51.7903 83.9716 52.2222C83.1465 52.729 82.2806 53.1732 81.382 53.5506C80.5274 53.9099 79.6397 54.1933 78.7302 54.3971C78.7466 53.1245 78.6351 51.7203 78.7185 50.828C78.8123 50.2614 79.5551 50.3127 79.5398 49.6502C79.433 49.1862 78.9883 48.6943 78.7454 48.1824C78.6819 48.134 78.6083 48.0991 78.5295 48.0798C78.4943 48.0864 78.4744 47.7664 78.465 47.2778C78.4779 47.2923 78.4885 47.3113 78.5014 47.3236C78.6797 47.4931 78.9383 47.441 79.277 47.1674C79.5304 46.9577 79.7886 46.7565 80.0514 46.564C80.3142 46.3714 80.588 46.1703 80.8727 45.9606C81.159 45.7509 81.4817 45.5145 81.8372 45.2602C82.1928 45.0058 82.5905 44.7025 83.0305 44.3679C83.1245 44.2976 83.1986 44.2065 83.2464 44.1024C83.2859 44.0236 83.299 43.9353 83.284 43.8492C83.2776 43.8153 83.2627 43.7834 83.2407 43.756C83.2186 43.7287 83.19 43.7067 83.1573 43.6919C83.1159 43.6765 83.0713 43.6705 83.027 43.6746C82.9828 43.6787 82.9401 43.6926 82.9027 43.7153C82.4122 43.9577 81.9342 44.1808 81.4688 44.3846C81.0034 44.5883 80.6349 44.7452 80.3635 44.8553C80.1647 44.9395 79.9614 45.014 79.7545 45.0784C79.4781 45.1481 79.1981 45.2043 78.9156 45.2468C78.7454 45.2825 78.5878 45.3594 78.458 45.4698C78.4732 43.6462 78.5248 41.5415 78.5248 41.5415L78.5624 40.6046C78.9015 40.5979 79.3169 40.6046 79.8179 40.6224C80.4363 40.647 81.0487 40.6749 81.6589 40.7072C82.0109 40.7396 82.2057 40.6671 82.2303 40.4842C82.255 40.3012 82.113 40.1496 81.7868 40.0012C81.4465 39.8562 81.0663 39.7123 80.6428 39.5674C80.2192 39.4223 79.7886 39.2774 79.3521 39.1323C79.1216 39.0478 78.871 39.0258 78.6281 39.0688L78.7689 35.6502C78.6586 35.1148 78.3817 34.7412 77.7528 34.7256C77.4454 35.6179 77.7 37.0299 77.612 38.1308C77.5521 38.5513 77.091 38.5959 77.064 39.0476V52.2724C77.064 53.342 76.7777 54.7629 77.416 55.5482V55.5582C77.4505 55.6392 77.5047 55.7112 77.5743 55.7683C77.6439 55.8253 77.7268 55.8657 77.8161 55.8861C77.8443 55.9006 77.8619 55.9241 77.8912 55.9375C77.9065 55.9308 77.9135 55.9152 77.9276 55.9062C78.2796 55.9642 78.7771 55.8917 79.453 55.6832C79.9659 55.5361 80.47 55.3626 80.9631 55.1633C81.5237 54.9331 82.0671 54.6667 82.5894 54.3659C83.1714 54.0358 83.8183 53.6205 84.5301 53.12C85.2419 52.6197 86.0715 51.9921 87.0188 51.2374C87.2218 51.0756 87.3954 50.944 87.5386 50.838C87.6572 50.7456 87.7965 50.68 87.9458 50.6462C88.0854 50.6228 88.2289 50.6309 88.3646 50.6696C88.5671 50.7291 88.7636 50.806 88.9513 50.8993C89.0358 50.947 89.2704 51.0998 89.6554 51.3578C90.0402 51.6158 90.4818 51.9329 90.9801 52.3092C91.4878 52.687 92.0213 53.0892 92.5805 53.516C93.1398 53.9428 93.6483 54.341 94.1059 54.7106C94.5119 55.0496 94.8545 55.3192 95.1337 55.5192C95.3435 55.6761 95.5719 55.809 95.8143 55.9152C95.9738 59.8044 95.4764 57.4621 96.0255 61.5622L95.4259 61.5187C94.6296 61.4555 93.9099 61.4034 93.2669 61.3625C92.6239 61.3216 92.0314 61.2893 91.4893 61.2655C90.9472 61.2409 90.4348 61.225 89.9522 61.2176C89.4711 61.2086 88.9842 61.2176 88.4925 61.2298V59.9884C88.4925 59.5297 88.5012 59.0508 88.5184 58.5519C89.1402 58.5193 89.7634 58.5193 90.3852 58.5519C90.8402 58.5755 91.2935 58.6239 91.7427 58.6968C92.1323 58.7771 92.4127 58.7805 92.5817 58.7091C92.7793 58.6096 92.939 58.4536 93.0381 58.2629C93.3268 57.7968 93.2493 57.5871 92.8105 57.635C92.6744 57.6517 92.4925 57.6685 92.2637 57.6841C92.0822 57.7 91.8996 57.7 91.7181 57.6841C91.514 57.6841 91.2769 57.6841 91.0071 57.6718C90.7371 57.6596 90.452 57.6596 90.1564 57.6596C89.8607 57.6596 89.5697 57.6596 89.2799 57.6718C88.99 57.6841 88.7378 57.6841 88.5184 57.6841C88.5184 57.2379 88.5184 56.7996 88.5312 56.3803C88.5441 55.9608 88.5512 55.5839 88.5688 55.2459C89.3643 55.2459 89.9612 55.2619 90.3593 55.2939C90.6972 55.3177 91.0326 55.3662 91.3625 55.4389C91.9555 55.5839 92.3365 55.5095 92.5055 55.2158C92.6619 54.9578 92.7127 54.7719 92.658 54.6582C92.6064 54.5466 92.4233 54.4496 92.0983 54.3682C91.9293 54.3369 91.7216 54.3079 91.4764 54.2844C91.2311 54.2611 90.8967 54.2477 90.4731 54.2477C90.0496 54.2477 89.5216 54.2566 88.8868 54.2722C88.252 54.2878 87.4506 54.3202 86.4861 54.3682C86.2151 54.3849 85.9944 54.3927 85.8255 54.3927H85.3937C85.2764 54.3927 85.1684 54.3927 85.0757 54.3804C84.9762 54.3712 84.8782 54.3509 84.7836 54.3202C84.5536 54.272 84.3154 54.272 84.0854 54.3202C83.8303 54.366 83.5826 54.4432 83.3485 54.5499C83.14 54.6412 82.9507 54.7678 82.79 54.9236C82.7252 54.9757 82.6775 55.0444 82.6528 55.1215C82.628 55.1987 82.6272 55.2809 82.6504 55.3586C82.7349 55.6166 82.887 55.7653 83.1068 55.8047C83.3274 55.846 83.6665 55.8047 84.123 55.6731C84.3576 55.6084 84.5864 55.5519 84.8094 55.5036C85.0323 55.4552 85.2607 55.415 85.4946 55.3831C85.7293 55.3504 85.9831 55.3262 86.2561 55.3106C86.5291 55.295 86.842 55.2787 87.1948 55.2615C87.2112 55.6329 87.2241 56.0267 87.2336 56.4449C87.2429 56.8632 87.2547 57.2982 87.2711 57.7488C86.4106 57.7815 85.7715 57.7934 85.3538 57.7845C85.069 57.7871 84.7844 57.7669 84.5031 57.7243C84.2361 57.6444 83.9478 57.6575 83.69 57.761C83.3507 57.9025 83.0539 58.1222 82.8264 58.4001C82.711 58.515 82.6205 58.6503 82.56 58.7984C82.5365 58.8438 82.5288 58.8953 82.5381 58.9452C82.5474 58.9952 82.5731 59.041 82.6117 59.0761C82.6868 59.1408 82.8358 59.1731 83.0552 59.1731C83.3746 59.156 83.6902 59.099 83.9939 59.0036C84.3349 58.9277 84.7714 58.8526 85.3033 58.7783C85.8353 58.7039 86.5002 58.6437 87.2981 58.5976C87.3145 59.1456 87.3231 59.6408 87.3239 60.0832V61.2778C86.6801 61.3105 85.973 61.3625 85.2024 61.4339L82.5225 61.6882C82.1666 61.7202 81.8451 61.7481 81.558 61.7718C81.2705 61.7964 81.0886 61.8087 80.9995 61.8087C80.7648 61.8243 80.5724 61.8455 80.428 61.869C80.2988 61.8886 80.1742 61.9293 80.0596 61.9894C79.9532 62.05 79.8588 62.1278 79.7803 62.2191C79.6774 62.3411 79.584 62.47 79.5011 62.605C79.4459 62.6797 79.4091 62.7652 79.3937 62.8552C79.3783 62.9452 79.3845 63.0374 79.4119 63.1248C79.4426 63.2009 79.4898 63.27 79.5505 63.3277C79.6111 63.3853 79.6838 63.4303 79.7639 63.4594C79.9742 63.5362 80.2004 63.5653 80.4245 63.5442C80.7132 63.5203 80.9932 63.4382 81.2459 63.3033C81.6248 63.1431 82.0173 63.0136 82.4192 62.9162C82.9613 62.7728 83.5539 62.6363 84.1969 62.5069C84.8399 62.3775 85.4958 62.269 86.1646 62.1812C86.8342 62.0927 87.4143 62.04 87.9047 62.0228C88.4729 62.0084 89.0416 62.0329 89.6061 62.0965C90.199 62.1597 90.7748 62.244 91.3333 62.3496C91.8559 62.4458 92.3733 62.5668 92.8833 62.7122C93.2856 62.8225 93.678 62.9635 94.0566 63.1337C94.5471 63.3761 94.9535 63.4769 95.2757 63.436C95.477 63.3993 95.6659 63.3166 95.826 63.1951C95.8965 63.5152 96.1064 63.7025 96.2086 63.9981C95.6219 64.7867 96.0912 66.588 94.9694 66.8747C94.012 66.8289 92.8269 66.9951 92.0772 66.7464C92.171 66.2635 92.3318 65.8541 91.9434 65.5697H90.9789C90.8322 66.5624 89.9956 66.9003 89.8748 67.9242C91.9434 67.8417 94.3676 68.096 96.2109 67.7904C96.7483 67.1881 97.0698 66.9237 97.2493 66.8211C97.0851 66.6951 96.8809 66.2087 96.8973 64.7019C96.9114 64.0205 97.2387 63.4103 97.3127 62.7412C97.592 60.2963 96.9125 57.8335 97.1543 55.846C97.4241 55.7376 97.6836 55.6075 97.9299 55.4567C98.0774 55.3731 98.2029 55.2587 98.2971 55.1221C98.3227 55.0865 98.3326 55.0429 98.325 55.0005C98.3173 54.958 98.2926 54.9201 98.2561 54.8946Z" fill="white"/>
<path d="M120.925 32.1797L121.111 39.4295H120.419C120.093 37.6122 119.291 36.1504 118.013 35.0439C116.735 33.9375 115.353 33.3839 113.868 33.3832C112.72 33.3832 111.812 33.6746 111.142 34.2576C110.472 34.8406 110.138 35.512 110.138 36.2719C110.129 36.7225 110.25 37.1666 110.49 37.5557C110.816 38.0591 111.339 38.5566 112.059 39.0481C112.588 39.4013 113.809 40.027 115.723 40.9252C118.401 42.1774 120.208 43.3597 121.142 44.472C122.056 45.5554 122.546 46.9061 122.529 48.2944C122.529 50.1146 121.784 51.6795 120.292 52.9889C118.8 54.2983 116.907 54.9538 114.612 54.9552C113.925 54.9584 113.239 54.8884 112.569 54.7467C111.743 54.5499 110.935 54.2888 110.154 53.9659C109.614 53.7518 109.17 53.6447 108.821 53.6447C108.484 53.6592 108.16 53.7712 107.892 53.9659C107.536 54.2149 107.261 54.5538 107.099 54.9441H106.473V46.7184H107.099C107.596 49.0331 108.549 50.7958 109.957 52.0062C111.365 53.2168 112.89 53.8243 114.533 53.8287C115.793 53.8287 116.798 53.5023 117.546 52.8495C118.295 52.1966 118.669 51.4371 118.669 50.5708C118.665 50.0444 118.514 49.5285 118.233 49.0751C117.895 48.5409 117.451 48.0748 116.924 47.7032C116.338 47.2705 115.303 46.7065 113.817 46.0112C111.736 45.0372 110.239 44.2077 109.327 43.5228C108.471 42.9 107.756 42.1192 107.225 41.2275C106.733 40.3731 106.48 39.413 106.491 38.4391C106.491 36.7058 107.16 35.2294 108.5 34.01C109.839 32.7905 111.527 32.1808 113.565 32.1808C114.294 32.1787 115.019 32.2649 115.725 32.4373C116.392 32.6156 117.04 32.8547 117.659 33.1512C118.418 33.4991 118.95 33.6731 119.253 33.6731C119.381 33.6796 119.509 33.66 119.629 33.6156C119.748 33.5711 119.856 33.5029 119.946 33.4155C120.115 33.2445 120.271 32.8329 120.415 32.1808L120.925 32.1797Z" fill="white"/>
<path d="M136.575 53.8438V54.4371H124.607V53.8438H125.367C126.031 53.8438 126.566 53.7322 126.971 53.5091C127.285 53.3359 127.524 53.0629 127.646 52.7384C127.77 52.4819 127.832 51.8078 127.832 50.7162V36.3995C127.832 35.2842 127.77 34.5886 127.646 34.3127C127.521 34.0368 127.271 33.7933 126.895 33.5821C126.519 33.3747 126.01 33.2706 125.369 33.2699H124.609V32.6787H136.577V33.2699H135.817C135.153 33.2699 134.619 33.3814 134.214 33.6045C133.898 33.7796 133.654 34.0513 133.522 34.3752C133.398 34.6317 133.335 35.3057 133.335 36.3973V50.714C133.335 51.8294 133.4 52.525 133.53 52.8009C133.66 53.0768 133.913 53.3199 134.289 53.5303C134.667 53.7392 135.176 53.8438 135.815 53.8438H136.575Z" fill="white"/>
<path d="M145.979 32.6787L157.275 46.1745V36.8167C157.275 35.5117 157.08 34.6291 156.688 34.1688C156.145 33.5472 155.237 33.2475 153.965 33.2699V32.6787H161.529V33.2699C160.561 33.3881 159.911 33.5405 159.58 33.7271C159.222 33.9427 158.949 34.2641 158.803 34.6417C158.617 35.0641 158.523 35.7891 158.523 36.8167V54.9345H157.947L142.467 36.8167V50.6472C142.467 51.8993 142.768 52.7448 143.371 53.1834C143.962 53.6189 144.691 53.8509 145.439 53.8415H145.979V54.4349H137.859V53.8415C139.12 53.8304 139.997 53.5842 140.492 53.1031C140.988 52.622 141.236 51.8041 141.236 50.6494V35.292L140.746 34.7142C140.261 34.1365 139.833 33.7554 139.462 33.571C139.091 33.3866 138.557 33.2862 137.859 33.2699V32.6787H145.979Z" fill="white"/>
<path d="M175.692 32.3717C179.339 32.2438 182.302 33.2547 184.581 35.4044C186.86 37.554 188 40.245 188 43.4773C188 46.2382 187.151 48.6671 185.451 50.764C183.2 53.5456 180.021 54.9361 175.912 54.9354C171.804 54.9346 168.619 53.6081 166.357 50.9558C164.578 48.8589 163.688 46.3713 163.689 43.4929C163.689 40.2629 164.846 37.5697 167.159 35.4133C169.473 33.2569 172.316 32.2431 175.692 32.3717ZM175.898 33.3989C173.805 33.3989 172.212 34.4154 171.121 36.4483C170.231 38.1169 169.786 40.5134 169.786 43.6379C169.786 47.3513 170.473 50.0954 171.846 51.8704C172.802 53.1114 174.142 53.7319 175.864 53.7319C177.023 53.7319 177.991 53.4646 178.769 52.9299C179.758 52.2452 180.529 51.151 181.081 49.6475C181.634 48.144 181.909 46.1836 181.908 43.7662C181.908 40.8885 181.627 38.7355 181.063 37.3072C180.5 35.8788 179.782 34.8705 178.908 34.2823C178.029 33.6919 176.974 33.3825 175.898 33.3989Z" fill="white"/>
<path d="M112.11 59.1856L112.276 61.1208H112.11C111.942 60.6389 111.725 60.2742 111.459 60.03C111.261 59.8529 111.029 59.7149 110.775 59.6241C110.521 59.5333 110.25 59.4916 109.979 59.5012C109.158 59.5012 108.532 59.8102 108.102 60.4282C107.733 60.9854 107.546 61.6338 107.564 62.2919C107.555 62.8436 107.675 63.3904 107.916 63.8924C108.111 64.3269 108.438 64.6962 108.855 64.9532C109.21 65.168 109.621 65.2839 110.041 65.2878C110.274 65.2887 110.506 65.2599 110.731 65.2018C110.956 65.1439 111.172 65.0588 111.374 64.9487V63.1753C111.374 62.8689 111.35 62.6678 111.3 62.5718C111.252 62.4774 111.171 62.4013 111.071 62.3555C110.898 62.2941 110.712 62.2686 110.527 62.2807V62.109H113.025V62.2807H112.908C112.661 62.2807 112.491 62.3589 112.4 62.515C112.335 62.6265 112.305 62.8496 112.305 63.1753V65.0524C111.963 65.2307 111.6 65.3693 111.224 65.4651C110.836 65.5558 110.438 65.5996 110.039 65.5956C108.793 65.5956 107.846 65.2157 107.199 64.4557C106.719 63.9008 106.461 63.2022 106.471 62.4837C106.478 61.8986 106.642 61.3249 106.947 60.8163C107.251 60.3078 107.687 59.881 108.212 59.576C108.923 59.2219 109.738 59.104 110.527 59.2414C110.805 59.3025 111.077 59.3826 111.343 59.4811C111.455 59.5277 111.573 59.5596 111.695 59.576C111.725 59.5756 111.755 59.5682 111.782 59.5545C111.809 59.5407 111.832 59.5209 111.849 59.4968C111.905 59.4022 111.932 59.2949 111.928 59.1867L112.11 59.1856Z" fill="white"/>
<path d="M118.757 63.7631L118.913 63.7943L118.362 65.4585H113.36V65.2911H113.601C113.875 65.2911 114.071 65.2067 114.188 65.038C114.255 64.942 114.288 64.719 114.288 64.3687V60.4114C114.288 60.0292 114.244 59.7895 114.155 59.692C114.084 59.6229 113.997 59.5693 113.902 59.535C113.807 59.5007 113.704 59.4866 113.603 59.4935H113.36V59.3262H116.28V59.4935C115.938 59.4935 115.694 59.5203 115.56 59.5838C115.44 59.6312 115.34 59.7157 115.277 59.8236C115.227 59.9196 115.201 60.1501 115.201 60.5152V64.3687C115.188 64.5436 115.214 64.7192 115.277 64.884C115.316 64.9491 115.379 64.9988 115.453 65.0246C115.531 65.0543 115.778 65.0692 116.195 65.0692H116.664C117.158 65.0692 117.506 65.0346 117.706 64.9654C117.918 64.888 118.106 64.7615 118.253 64.5974C118.466 64.3463 118.636 64.0647 118.757 63.7631Z" fill="white"/>
<path d="M122.683 59.185C123.092 59.1832 123.497 59.2629 123.872 59.4191C124.246 59.5753 124.583 59.8045 124.858 60.0919C125.472 60.6971 125.779 61.4519 125.779 62.356C125.779 63.2877 125.47 64.061 124.851 64.676C124.563 64.9653 124.216 65.1963 123.832 65.3547C123.447 65.5132 123.033 65.5961 122.614 65.5981C122.195 65.6002 121.78 65.5216 121.393 65.3669C121.007 65.2122 120.658 64.9848 120.367 64.6983C119.763 64.0975 119.461 63.3212 119.461 62.3694C119.461 61.3946 119.81 60.6001 120.507 59.9859C121.095 59.4589 121.875 59.1715 122.683 59.185ZM122.593 59.5197C122.327 59.5111 122.063 59.5619 121.822 59.6678C121.58 59.7738 121.369 59.932 121.203 60.1298C120.769 60.6362 120.552 61.3798 120.552 62.3605C120.552 63.3606 120.777 64.131 121.227 64.6715C121.388 64.8693 121.596 65.0281 121.835 65.1348C122.073 65.2416 122.334 65.2935 122.597 65.286C122.885 65.2917 123.17 65.2342 123.43 65.1181C123.69 65.0021 123.919 64.8305 124.098 64.6169C124.494 64.1707 124.691 63.4621 124.69 62.491C124.69 61.4411 124.473 60.6603 124.039 60.1487C123.685 59.7204 123.208 59.5164 122.593 59.5164V59.5197Z" fill="white"/>
<path d="M130.656 62.3288C131.103 62.4187 131.437 62.5637 131.659 62.7637C131.808 62.8924 131.926 63.0496 132.006 63.225C132.086 63.4004 132.125 63.5899 132.122 63.781C132.118 64.0958 132.011 64.4017 131.817 64.6565C131.611 64.9371 131.319 65.1502 130.981 65.2666C130.628 65.3945 130.089 65.4584 129.362 65.4584H126.317V65.2912H126.56C126.829 65.2912 127.022 65.2098 127.14 65.0469C127.214 64.942 127.25 64.7123 127.25 64.3776V60.4115C127.25 60.0312 127.204 59.7925 127.111 59.6921C127.04 59.6227 126.954 59.5689 126.859 59.5346C126.764 59.5003 126.662 59.4863 126.56 59.4935H126.317V59.3262H129.105C129.525 59.3184 129.945 59.3558 130.356 59.4378C130.774 59.5153 131.156 59.7172 131.446 60.0144C131.691 60.2769 131.824 60.6162 131.821 60.9669C131.824 61.2658 131.72 61.5568 131.527 61.7922C131.301 62.0514 130.997 62.2386 130.656 62.3288ZM128.163 62.0856C128.28 62.1057 128.414 62.1213 128.565 62.1325C128.717 62.1436 128.881 62.1481 129.063 62.1481C129.525 62.1481 129.874 62.1001 130.106 62.0064C130.33 61.9184 130.518 61.7643 130.642 61.567C130.765 61.3735 130.829 61.1516 130.828 60.9257C130.828 60.7494 130.787 60.5753 130.707 60.4163C130.627 60.2574 130.51 60.1176 130.365 60.0077C130.058 59.7534 129.609 59.6263 129.019 59.6263C128.73 59.6228 128.442 59.6566 128.163 59.7266V62.0856ZM128.163 65.0156C128.52 65.0957 128.886 65.1365 129.253 65.1372C129.827 65.1372 130.265 65.0146 130.566 64.7692C130.709 64.6595 130.823 64.5206 130.902 64.3627C130.98 64.2049 131.019 64.0324 131.018 63.8579C131.016 63.6155 130.946 63.378 130.813 63.1709C130.656 62.9339 130.422 62.7512 130.147 62.65C129.784 62.5141 129.395 62.4497 129.005 62.4603C128.808 62.4603 128.64 62.4604 128.501 62.4693C128.388 62.4733 128.275 62.4837 128.163 62.5005V65.0156Z" fill="white"/>
<path d="M137.112 63.4052H134.614L134.176 64.3733C134.086 64.542 134.029 64.725 134.009 64.9132C134.011 64.9618 134.025 65.0095 134.049 65.0523C134.074 65.0951 134.108 65.1319 134.15 65.1596C134.244 65.2295 134.446 65.2753 134.757 65.2968V65.4642H132.73V65.2968C132.999 65.2522 133.173 65.1935 133.254 65.1206C133.415 64.9756 133.594 64.6816 133.791 64.2383L136.06 59.1914H136.227L138.468 64.2874C138.649 64.6979 138.813 64.9634 138.961 65.0861C139.136 65.218 139.353 65.2903 139.577 65.2913V65.4586H137.031V65.2913C137.288 65.2801 137.461 65.2388 137.552 65.1697C137.594 65.1404 137.628 65.1021 137.652 65.0579C137.675 65.0137 137.688 64.9649 137.688 64.9154C137.664 64.6972 137.599 64.4847 137.498 64.2874L137.112 63.4052ZM136.979 63.0706L135.887 60.5923L134.764 63.0717L136.979 63.0706Z" fill="white"/>
<path d="M145.275 63.7631L145.432 63.7943L144.88 65.4585H139.886V65.2911H140.129C140.402 65.2911 140.599 65.2064 140.716 65.038C140.782 64.942 140.816 64.719 140.816 64.3687V60.4114C140.816 60.0292 140.771 59.7895 140.682 59.692C140.611 59.6226 140.525 59.5689 140.429 59.5346C140.334 59.5003 140.232 59.4862 140.131 59.4935H139.888V59.3262H142.811V59.4935C142.468 59.4935 142.228 59.5236 142.09 59.5838C141.97 59.6312 141.87 59.7156 141.806 59.8236C141.756 59.9196 141.731 60.1501 141.73 60.5152V64.3687C141.717 64.5436 141.743 64.7192 141.806 64.884C141.846 64.9486 141.908 64.9982 141.982 65.0246C142.06 65.0543 142.308 65.0692 142.725 65.0692H143.194C143.689 65.0692 144.037 65.0346 144.236 64.9654C144.448 64.888 144.637 64.7615 144.784 64.5974C144.993 64.3454 145.158 64.0639 145.275 63.7631Z" fill="white"/>
<path d="M153.584 59.1856L153.731 61.2713H153.584C153.387 60.6467 153.106 60.1972 152.742 59.9228C152.367 59.6454 151.903 59.5 151.429 59.5113C150.997 59.5005 150.573 59.6204 150.217 59.8537C149.862 60.0872 149.594 60.4218 149.452 60.8096C149.238 61.3478 149.137 61.9208 149.155 62.496C149.143 62.9903 149.238 63.4816 149.435 63.9392C149.607 64.3277 149.902 64.655 150.28 64.875C150.67 65.0965 151.117 65.2093 151.571 65.2007C151.957 65.2084 152.34 65.1205 152.68 64.9453C153 64.7743 153.352 64.4356 153.736 63.9292L153.884 64.0206C153.56 64.5657 153.182 64.965 152.751 65.2185C152.287 65.4804 151.754 65.6123 151.214 65.5989C150.146 65.5989 149.319 65.2219 148.731 64.4679C148.29 63.8941 148.059 63.1979 148.075 62.487C148.069 61.8995 148.218 61.3198 148.507 60.8006C148.779 60.3049 149.192 59.892 149.699 59.6094C150.201 59.328 150.774 59.1815 151.357 59.1856C151.838 59.1893 152.311 59.3009 152.737 59.5113C152.824 59.5624 152.921 59.5961 153.022 59.6105C153.064 59.6111 153.105 59.6038 153.143 59.5891C153.182 59.5743 153.217 59.5524 153.246 59.5246C153.336 59.4301 153.396 59.3146 153.422 59.19L153.584 59.1856Z" fill="white"/>
<path d="M158.676 63.4049H156.178L155.74 64.373C155.652 64.5403 155.597 64.7213 155.578 64.9073C155.58 64.956 155.593 65.0036 155.618 65.0464C155.642 65.0892 155.677 65.126 155.719 65.1538C155.812 65.2241 156.015 65.2653 156.324 65.291V65.4583H154.293V65.291C154.563 65.2464 154.737 65.1873 154.816 65.1147C154.978 64.9698 155.158 64.6757 155.354 64.2325L157.623 59.1855H157.79L160.036 64.2871C160.216 64.6976 160.381 64.9631 160.528 65.0857C160.704 65.2177 160.921 65.29 161.144 65.291V65.4583H158.598V65.291C158.856 65.2799 159.03 65.2385 159.12 65.1694C159.162 65.14 159.196 65.1017 159.22 65.0575C159.243 65.0133 159.255 64.9646 159.255 64.9151C159.231 64.6968 159.167 64.4844 159.065 64.2871L158.676 63.4049ZM158.542 63.0703L157.447 60.5909L156.324 63.0703H158.542Z" fill="white"/>
<path d="M163.252 62.5865V64.3711C163.252 64.757 163.296 64.9968 163.385 65.0905C163.456 65.16 163.541 65.2139 163.635 65.2483C163.73 65.2826 163.831 65.2966 163.932 65.289H164.18V65.4563H161.415V65.289H161.658C161.93 65.289 162.128 65.2043 162.245 65.0358C162.309 64.9421 162.341 64.7213 162.341 64.3666V60.4116C162.341 60.0257 162.298 59.7858 162.212 59.6921C162.141 59.6227 162.055 59.569 161.959 59.5347C161.864 59.5004 161.762 59.4863 161.661 59.4936H161.418V59.3263H163.782C164.244 59.3105 164.705 59.3679 165.148 59.4958C165.479 59.608 165.771 59.8062 165.99 60.0681C166.218 60.3378 166.34 60.6754 166.333 61.0217C166.341 61.249 166.299 61.4754 166.209 61.686C166.119 61.8966 165.982 62.0865 165.809 62.2429C165.462 62.5575 164.971 62.7144 164.336 62.7137C164.168 62.7124 163.999 62.7021 163.833 62.6824C163.651 62.6612 163.462 62.63 163.252 62.5865ZM163.252 62.3289C163.42 62.359 163.568 62.3813 163.699 62.3969C163.809 62.4108 163.92 62.4183 164.032 62.4192C164.193 62.4202 164.353 62.3881 164.501 62.3254C164.648 62.2627 164.779 62.1707 164.886 62.0556C165.131 61.7983 165.26 61.4598 165.245 61.1131C165.248 60.8575 165.19 60.6045 165.074 60.3737C164.972 60.1589 164.802 59.9801 164.588 59.8628C164.37 59.7469 164.124 59.6879 163.875 59.6921C163.664 59.6988 163.456 59.7276 163.252 59.7781V62.3289Z" fill="white"/>
<path d="M169.68 65.2909V65.4582H166.915V65.2909H167.15C167.416 65.2909 167.612 65.2165 167.737 65.0678C167.815 64.9719 167.854 64.7399 167.854 64.3718V60.4112C167.867 60.2042 167.846 59.9965 167.792 59.7955C167.752 59.712 167.683 59.6439 167.597 59.6025C167.464 59.53 167.313 59.4916 167.159 59.4911H166.924V59.3237H169.68V59.4911H169.446C169.339 59.4824 169.23 59.4981 169.13 59.5369C169.029 59.5756 168.941 59.6364 168.87 59.7141C168.791 59.8101 168.753 60.0487 168.753 60.4101V64.3718C168.74 64.5788 168.762 64.7865 168.815 64.9875C168.857 65.0721 168.927 65.1406 169.016 65.1815C169.147 65.2542 169.297 65.2926 169.449 65.2931L169.68 65.2909Z" fill="white"/>
<path d="M175.556 59.3262L175.628 60.7639H175.446C175.43 60.577 175.383 60.3938 175.304 60.2218C175.217 60.0584 175.081 59.9236 174.912 59.8348C174.711 59.7442 174.489 59.7014 174.267 59.7098H173.359V64.3944C173.359 64.7707 173.401 65.0056 173.487 65.0993C173.56 65.167 173.647 65.2189 173.744 65.2516C173.84 65.2844 173.942 65.2971 174.044 65.2889H174.267V65.4562H171.53V65.2889H171.765C172.037 65.2889 172.231 65.2104 172.346 65.0536C172.416 64.9577 172.45 64.7379 172.45 64.3944V59.7098H171.675C171.458 59.6999 171.242 59.7217 171.033 59.7746C170.859 59.8388 170.71 59.954 170.61 60.1036C170.48 60.3026 170.408 60.5303 170.4 60.7639H170.22L170.294 59.3262H175.556Z" fill="white"/>
<path d="M179.547 63.4049H177.048L176.611 64.373C176.524 64.5403 176.469 64.7213 176.449 64.9073C176.451 64.956 176.464 65.0036 176.488 65.0464C176.513 65.0892 176.548 65.126 176.59 65.1538C176.682 65.2241 176.886 65.2653 177.195 65.291V65.4583H175.164V65.291C175.434 65.2464 175.609 65.1876 175.688 65.1147C175.849 64.9698 176.029 64.6757 176.225 64.2325L178.495 59.1855H178.661L180.907 64.2871C181.087 64.6976 181.251 64.9631 181.399 65.0857C181.575 65.2177 181.792 65.29 182.016 65.291V65.4583H179.47V65.291C179.728 65.2799 179.901 65.2385 179.992 65.1694C180.033 65.1394 180.066 65.1005 180.089 65.056C180.112 65.0114 180.124 64.9624 180.123 64.9129C180.099 64.6946 180.034 64.4821 179.933 64.2849L179.547 63.4049ZM179.413 63.0703L178.319 60.5909L177.195 63.0703H179.413Z" fill="white"/>
<path d="M187.711 63.7631L187.867 63.7977L187.314 65.4618H182.321V65.2945H182.562C182.836 65.2945 183.031 65.21 183.148 65.0413C183.215 64.9454 183.25 64.7223 183.25 64.3721V60.4114C183.25 60.0288 183.203 59.7891 183.116 59.692C183.045 59.6229 182.958 59.5693 182.862 59.535C182.767 59.5007 182.665 59.4866 182.563 59.4935H182.321V59.3262H185.241V59.4935C184.9 59.4935 184.661 59.5236 184.522 59.5838C184.401 59.6319 184.303 59.7162 184.238 59.8237C184.188 59.9196 184.163 60.1501 184.163 60.5152V64.3687C184.15 64.5436 184.176 64.7192 184.238 64.884C184.278 64.9491 184.341 64.9988 184.414 65.0246C184.493 65.0543 184.74 65.0692 185.156 65.0692H185.625C186.119 65.0692 186.468 65.0346 186.667 64.9654C186.879 64.888 187.067 64.7615 187.214 64.5974C187.425 64.3461 187.593 64.0645 187.711 63.7631Z" fill="white"/>
</svg>
