<svg width="140" height="34" viewBox="0 0 140 34" fill="none" xmlns="http://www.w3.org/2000/svg">
<path d="M32.7529 7.73018C32.7529 7.78074 32.7032 7.83123 32.7032 7.83123C32.6534 12.277 32.5532 16.7228 32.5034 21.1686C32.5034 21.5222 32.6534 21.6232 32.9527 21.5727C33.8512 21.5727 34.8 21.5727 35.6985 21.5727C36.098 21.5727 36.248 21.4212 36.248 21.017C36.248 19.5519 36.2977 18.0869 36.248 16.6723C36.248 16.2681 36.3475 16.167 36.747 16.167C38.9938 16.167 41.1909 16.167 43.4377 16.2176C43.887 16.2176 44.0369 16.066 44.0369 15.6114C44.0369 13.641 44.0867 11.6202 44.1365 9.65C44.1365 8.99321 44.1365 8.38697 44.1365 7.67969H32.7529V7.73018ZM40.3422 10.1046C40.2924 11.3172 40.3422 12.5296 40.2924 13.7926C40.2924 13.9442 40.2924 14.1462 40.242 14.3483C38.9938 14.3483 37.8458 14.3483 36.6474 14.3483C36.5472 14.3483 36.3475 14.1462 36.3475 13.9947C36.3475 12.5801 36.3475 11.1656 36.3475 9.70049C36.5976 9.70049 36.747 9.65 36.9467 9.65C37.9454 9.65 38.8943 9.65 39.8929 9.65C40.1922 9.65 40.3422 9.70049 40.3422 10.1046ZM80.2851 11.9739C78.9368 11.9739 77.6388 11.9739 76.2904 11.9739C76.1411 11.9739 75.9414 12.0749 75.8412 12.176C74.9427 13.0348 74.094 13.8936 73.2453 14.702C73.0953 14.8535 72.9454 14.9546 72.7456 15.1567V7.83123C71.747 7.83123 70.7987 7.88179 69.8498 7.83123C69.3508 7.83123 69.2506 7.98284 69.2506 8.48802C69.2506 10.7614 69.2008 13.0853 69.2008 15.3588C69.2008 17.329 69.1511 19.3498 69.1511 21.3201C69.1511 21.5222 69.0509 21.8253 69.4006 21.8253C70.449 21.8253 71.5472 21.8253 72.6959 21.8253V16.8743C73.8445 18.2889 74.8929 19.7035 75.8412 21.1686C76.1909 21.6738 76.5406 21.8758 77.1398 21.8758C78.1378 21.8253 79.1869 21.8758 80.3349 21.8758C78.9872 19.9056 77.739 18.0868 76.4902 16.2176C77.8385 14.8535 79.1365 13.54 80.4848 12.2265C80.3349 12.0749 80.2851 12.0244 80.2851 11.9739ZM48.8797 18.4405C48.8299 18.0363 49.0296 17.8847 49.4291 17.8847C51.1265 17.9352 52.7742 17.9352 54.4716 17.9352C54.8213 17.9352 55.2208 17.9352 55.67 17.9352C55.67 15.965 55.67 14.0452 55.67 12.1254C55.67 12.0244 55.4205 11.8223 55.2705 11.8223C54.4716 11.7718 53.6733 11.8223 52.8744 11.8223C50.5777 11.8223 48.2805 11.8223 45.9839 11.7718C45.5844 11.7718 45.4351 11.8728 45.4351 12.3275C45.4848 12.6307 45.4351 12.9843 45.4351 13.2874C45.3847 15.9144 45.3847 18.491 45.3349 21.118C45.3349 21.4212 45.3349 21.6232 45.7344 21.6232C48.7801 21.6232 51.8757 21.6738 54.9215 21.6738C55.0708 21.6738 55.2705 21.5727 55.3209 21.4717C55.5704 21.017 55.7702 20.5118 56.0695 19.9056H48.8797C48.8797 19.3498 48.9301 18.8951 48.8797 18.4405ZM48.9301 13.641C49.9281 13.641 50.8272 13.641 51.7755 13.641C51.8757 13.641 52.0754 13.8431 52.0754 13.9947C52.1252 14.5504 52.0754 15.1061 52.0754 15.6618C52.0754 15.965 51.9752 16.066 51.6759 16.066C50.877 16.066 50.0781 16.066 49.2792 16.0155C49.1796 16.0155 48.9799 15.8134 48.9799 15.7124C48.9301 15.0556 48.9301 14.3989 48.9301 13.641ZM85.5777 10.5088C85.5777 9.80154 85.5777 9.80154 86.3263 9.80154C88.6733 9.80154 91.0695 9.85203 93.4165 9.85203C93.6162 9.85203 93.9155 9.80154 93.9653 9.70049C94.2154 9.19531 94.4152 8.69006 94.6647 8.08382H81.883V15.6618C81.9825 15.6618 82.1325 15.6618 82.232 15.7124C84.7788 15.7629 87.2752 15.7629 89.8213 15.7629C90.2208 15.7629 90.3707 15.8134 90.3707 16.2681C90.3209 17.3796 90.3209 18.491 90.3707 19.5519C90.3707 19.9056 90.2705 20.0066 89.9215 20.0066C89.2221 20.0066 88.5731 20.0066 87.8744 20.0066C85.9772 20.0066 84.1298 20.0066 82.232 19.956C82.0323 19.956 81.733 19.9056 81.733 20.2592C81.733 20.7644 81.733 21.2696 81.733 21.7748C81.883 21.7748 81.9825 21.8253 82.0827 21.8253C85.9268 21.8758 89.7715 21.8758 93.666 21.9264C94.0655 21.9264 94.1152 21.7748 94.1152 21.4212C94.1152 19.956 94.165 18.4405 94.165 16.9754C94.165 15.965 94.165 14.9546 94.165 13.8936C93.9155 13.8936 93.7158 13.8936 93.5658 13.8936C91.1192 13.8936 88.6229 13.8431 86.1763 13.8431C85.7775 13.8431 85.6275 13.7421 85.6275 13.2874C85.5777 12.3781 85.5777 11.4181 85.5777 10.5088ZM61.6614 13.7421C63.309 13.7421 65.0071 13.7421 66.6547 13.7421C66.804 13.7421 67.104 13.6916 67.1537 13.5906C67.4032 13.0853 67.5532 12.5801 67.7529 12.0244C67.603 11.9739 67.5532 11.9739 67.5034 11.9739C64.2579 11.9739 61.0628 11.9234 57.8173 11.8728C57.4178 11.8728 57.4178 12.1254 57.4178 12.3781C57.368 14.702 57.368 17.0259 57.3176 19.3498C57.3176 20.1077 57.3176 20.8654 57.3176 21.5727C57.4178 21.6232 57.4178 21.6232 57.4676 21.6232C60.5134 21.6232 63.5088 21.6738 66.5545 21.6738C66.7045 21.6738 66.8544 21.5222 66.954 21.4212C67.2035 20.9665 67.3535 20.5118 67.603 19.9056C67.2539 19.9056 67.0542 19.855 66.8544 19.855C65.0568 19.855 63.2592 19.855 61.512 19.855C61.0628 19.855 60.8631 19.754 60.9128 19.2488C60.9626 17.8848 60.9626 16.5712 60.9626 15.2072C60.9626 14.702 60.9626 14.1968 60.9626 13.641C61.2619 13.7421 61.4616 13.7421 61.6614 13.7421ZM124.472 22.0274H128.117C128.166 17.4301 128.217 12.7822 128.316 8.18487H124.622C124.572 12.7822 124.522 17.3796 124.472 22.0274ZM136.804 8.23543C136.704 8.23543 136.505 8.48802 136.505 8.63956C136.505 9.85203 136.505 11.0645 136.505 12.3275C136.205 12.3275 136.006 12.3275 135.756 12.3275C133.858 12.3275 131.961 12.3275 130.064 12.277C129.714 12.277 129.564 12.3275 129.564 12.7317C129.564 15.6618 129.515 18.592 129.465 21.5222C129.465 22.0274 129.614 22.1285 130.064 22.1285C133.16 22.1285 136.255 22.1285 139.351 22.1285C139.5 22.1285 139.65 22.1285 139.85 22.0779C139.9 17.4301 139.95 12.8327 140 8.18487C138.902 8.18487 137.852 8.18487 136.804 8.23543ZM136.405 14.803C136.405 16.4702 136.355 18.1878 136.355 19.855C136.355 20.2086 136.255 20.3602 135.856 20.3602C134.957 20.3602 134.008 20.3602 133.109 20.3602C133.109 18.3394 133.109 16.5207 133.109 14.6515C133.109 14.2473 133.209 14.0957 133.609 14.0957C134.507 14.1462 135.407 14.0957 136.355 14.0957C136.405 14.3989 136.405 14.6009 136.405 14.803ZM105.649 12.176C103.801 12.176 101.954 12.176 100.057 12.1254C99.8571 12.1254 99.7072 12.1254 99.4576 12.0749C99.4576 11.8223 99.4576 11.6202 99.4576 11.3677C99.4576 10.4078 99.4576 9.39734 99.5074 8.43747C99.5074 8.08382 99.4079 7.93228 99.0084 7.93228C98.1093 7.93228 97.2606 7.93228 96.3621 7.93228C96.0124 7.93228 95.9128 8.03333 95.9128 8.38697C95.9128 9.14475 95.9128 9.85203 95.9128 10.6099C95.8631 12.9338 95.8631 15.2577 95.8127 17.5816C95.8127 18.9962 95.8127 20.3602 95.8127 21.8758C96.8113 21.8758 97.81 21.8758 98.8087 21.8758C99.2579 21.8758 99.3581 21.7243 99.3581 21.3201C99.3581 19.1983 99.4079 17.1269 99.4079 15.0051C99.4079 14.6515 99.4079 14.2978 99.4079 13.8936H102.553V21.8758C103.552 21.8758 104.551 21.8253 105.549 21.8758C106.048 21.8758 106.148 21.7243 106.148 21.2191C106.148 18.3899 106.198 15.5608 106.248 12.7317C106.298 12.3275 106.198 12.1254 105.649 12.176ZM116.034 18.3394H122.774C122.774 16.6723 122.774 15.1061 122.774 13.4895C122.774 12.277 122.774 12.277 121.576 12.2265C118.73 12.2265 115.884 12.176 113.038 12.176C112.738 12.176 112.489 12.1254 112.489 12.5801C112.489 15.5608 112.439 18.592 112.389 21.5727C112.389 21.8758 112.439 22.0274 112.789 22.0274C115.835 22.0274 118.93 22.0274 121.975 22.0274C122.125 22.0274 122.275 21.9769 122.325 21.9264C122.574 21.4212 122.824 20.9159 123.074 20.3097H115.984V18.3394H116.034ZM116.084 14.0957C117.083 14.0957 118.031 14.0957 118.98 14.0957C119.03 14.0957 119.18 14.2978 119.18 14.3989C119.18 15.0051 119.18 15.5608 119.18 16.167C119.18 16.2681 118.98 16.4702 118.88 16.4702C117.981 16.4702 117.083 16.4702 116.084 16.4702V14.0957ZM110.892 12.2265C109.793 12.176 108.744 12.2265 107.546 12.2265V21.9769H111.091C111.091 20.5118 111.091 19.0467 111.091 17.5816C111.091 15.965 111.141 14.3483 111.141 12.6812C111.141 12.5296 110.991 12.2265 110.892 12.2265ZM110.892 8.08382C109.893 8.03333 108.944 8.03333 107.945 8.08382C107.846 8.08382 107.646 8.28592 107.646 8.38697C107.646 9.2458 107.646 10.1552 107.646 11.1656C108.744 11.1656 109.843 11.1656 110.892 11.1656C110.991 11.1656 111.191 10.9635 111.191 10.8625C111.241 10.0541 111.241 9.29636 111.241 8.48802C111.241 8.28592 111.041 8.08382 110.892 8.08382Z" fill="white"/>
<path d="M25.1141 3.63747C19.9715 1.61667 15.8274 0 13.9301 0C12.0328 0 7.83882 1.61667 2.74605 3.63747C0.499271 3.63747 0 5.65827 0 5.65827C0 5.65827 0.299599 14.8024 0.549234 17.7831C0.848772 21.8247 2.69615 23.5423 2.69615 23.5423L5.24253 26.3209L13.98 34L22.6676 26.2704L25.2137 23.4919C25.2137 23.4919 27.0113 21.7741 27.361 17.7325C27.6105 14.7519 27.9104 5.60772 27.9104 5.60772C27.9104 5.60772 27.3112 3.63747 25.1141 3.63747Z" fill="white"/>
<path d="M21.5192 17.8336C21.9184 18.2377 22.8673 20.1575 22.9675 20.7132C23.067 21.269 23.2668 21.4711 22.8673 21.9762C21.9184 22.9361 19.7218 24.0981 18.0242 24.7548C19.8217 22.8351 19.1726 21.6731 17.2753 21.2185C14.0299 20.4606 12.7318 18.6419 12.1327 16.2169C11.5335 13.792 10.8845 13.792 10.0356 13.6404C9.087 13.5394 8.33809 13.9435 4.6933 15.4591C3.84453 16.8737 3.24539 16.7727 3.24539 16.7727C2.09701 16.7727 2.24678 15.6612 2.39655 15.4086C2.69615 14.8529 3.19542 14.7014 3.79456 14.7014C4.3937 14.7014 4.6933 15.055 4.6933 15.055C4.6933 15.055 4.94293 15.0044 9.48646 12.7816C9.68613 12.2259 10.4351 10.2051 12.5321 10.2051C14.6291 10.2051 16.5264 12.2259 18.0242 12.2259C20.9701 8.08321 24.4154 5.50667 24.4154 5.50667L25.1639 7.72957L27.86 5.86031C27.86 5.70877 27.86 5.60772 27.86 5.60772C27.86 5.60772 27.3112 3.58691 25.1141 3.58691C19.9715 1.61667 15.8274 0 13.9301 0C12.0328 0 7.83882 1.61667 2.74605 3.63747C0.499271 3.63747 0 5.65827 0 5.65827C0 5.65827 0.299599 14.8024 0.549234 17.7831C0.848772 21.8247 2.69615 23.5423 2.69615 23.5423L5.24253 26.3209L13.98 34L22.6676 26.2704L25.2137 23.4919C25.2137 23.4919 27.0113 21.7741 27.361 17.7325C27.4108 17.1769 27.4605 16.3685 27.5109 15.4086C26.1128 16.8232 23.1168 17.8336 21.5192 17.8336Z" fill="url(#paint0_linear_22_57)"/>
<defs>
<linearGradient id="paint0_linear_22_57" x1="-0.00995556" y1="16.971" x2="27.8606" y2="16.971" gradientUnits="userSpaceOnUse">
<stop offset="0.4523" stop-color="#00A0E3"/>
<stop offset="0.5615" stop-color="#00579D"/>
</linearGradient>
</defs>
</svg>
