<svg width="354" height="130" viewBox="0 0 354 130" fill="none" xmlns="http://www.w3.org/2000/svg">
<rect width="354" height="130" fill="#25252B"/>
<path d="M117.639 50.2771C117.639 50.3574 117.559 50.4376 117.559 50.4376C117.479 57.499 117.318 64.5603 117.238 71.6217C117.238 72.1833 117.479 72.3438 117.96 72.2636C119.404 72.2636 120.929 72.2636 122.373 72.2636C123.015 72.2636 123.256 72.0229 123.256 71.3809C123.256 69.0539 123.336 66.7269 123.256 64.4801C123.256 63.8381 123.416 63.6776 124.058 63.6776C127.669 63.6776 131.2 63.6776 134.811 63.7579C135.533 63.7579 135.774 63.5172 135.774 62.795C135.774 59.6655 135.854 56.4558 135.934 53.3264C135.934 52.2832 135.934 51.3203 135.934 50.1969H117.639V50.2771ZM129.836 54.0485C129.756 55.9744 129.836 57.9002 129.756 59.9062C129.756 60.147 129.756 60.4679 129.675 60.7889C127.669 60.7889 125.824 60.7889 123.898 60.7889C123.737 60.7889 123.416 60.4679 123.416 60.2272C123.416 57.9804 123.416 55.7336 123.416 53.4066C123.818 53.4066 124.058 53.3264 124.379 53.3264C125.984 53.3264 127.509 53.3264 129.114 53.3264C129.595 53.3264 129.836 53.4066 129.836 54.0485ZM194.03 57.0175C191.863 57.0175 189.777 57.0175 187.61 57.0175C187.37 57.0175 187.049 57.178 186.888 57.3385C185.444 58.7026 184.08 60.0667 182.716 61.3506C182.475 61.5913 182.234 61.7518 181.913 62.0728V50.4376C180.308 50.4376 178.784 50.5179 177.259 50.4376C176.457 50.4376 176.296 50.6784 176.296 51.4808C176.296 55.0917 176.216 58.7828 176.216 62.3938C176.216 65.5232 176.136 68.7329 176.136 71.8624C176.136 72.1833 175.975 72.6648 176.537 72.6648C178.222 72.6648 179.987 72.6648 181.833 72.6648V64.801C183.679 67.0478 185.364 69.2946 186.888 71.6217C187.45 72.4241 188.012 72.745 188.975 72.745C190.579 72.6648 192.265 72.745 194.11 72.745C191.944 69.6156 189.938 66.7269 187.931 63.7579C190.098 61.5913 192.184 59.505 194.351 57.4187C194.11 57.178 194.03 57.0978 194.03 57.0175ZM143.557 67.2886C143.477 66.6466 143.798 66.4059 144.44 66.4059C147.168 66.4861 149.816 66.4861 152.544 66.4861C153.106 66.4861 153.748 66.4861 154.47 66.4861C154.47 63.3567 154.47 60.3075 154.47 57.2582C154.47 57.0978 154.069 56.7768 153.828 56.7768C152.544 56.6965 151.261 56.7768 149.977 56.7768C146.286 56.7768 142.594 56.7768 138.903 56.6965C138.261 56.6965 138.021 56.857 138.021 57.5792C138.101 58.0607 138.021 58.6224 138.021 59.1038C137.94 63.2764 137.94 67.3688 137.86 71.5414C137.86 72.0229 137.86 72.3438 138.502 72.3438C143.397 72.3438 148.372 72.4241 153.267 72.4241C153.507 72.4241 153.828 72.2636 153.909 72.1031C154.31 71.3809 154.631 70.5785 155.112 69.6156H143.557C143.557 68.7329 143.638 68.0107 143.557 67.2886ZM143.638 59.6655C145.242 59.6655 146.687 59.6655 148.211 59.6655C148.372 59.6655 148.693 59.9865 148.693 60.2272C148.773 61.1099 148.693 61.9925 148.693 62.8752C148.693 63.3567 148.532 63.5172 148.051 63.5172C146.767 63.5172 145.483 63.5172 144.199 63.4369C144.039 63.4369 143.718 63.1159 143.718 62.9555C143.638 61.9123 143.638 60.8692 143.638 59.6655ZM202.536 54.6905C202.536 53.5671 202.536 53.5671 203.739 53.5671C207.511 53.5671 211.362 53.6473 215.134 53.6473C215.455 53.6473 215.936 53.5671 216.016 53.4066C216.418 52.6042 216.739 51.8017 217.14 50.8388H196.598V62.8752C196.758 62.8752 196.999 62.8752 197.159 62.9555C201.252 63.0357 205.264 63.0357 209.356 63.0357C209.998 63.0357 210.239 63.1159 210.239 63.8381C210.159 65.6035 210.159 67.3688 210.239 69.0539C210.239 69.6156 210.078 69.7761 209.517 69.7761C208.393 69.7761 207.35 69.7761 206.227 69.7761C203.178 69.7761 200.209 69.7761 197.159 69.6958C196.838 69.6958 196.357 69.6156 196.357 70.1773C196.357 70.9797 196.357 71.7821 196.357 72.5846C196.598 72.5846 196.758 72.6648 196.919 72.6648C203.097 72.745 209.276 72.745 215.535 72.8253C216.177 72.8253 216.257 72.5846 216.257 72.0229C216.257 69.6958 216.337 67.2886 216.337 64.9615C216.337 63.3567 216.337 61.7518 216.337 60.0667C215.936 60.0667 215.615 60.0667 215.374 60.0667C211.442 60.0667 207.43 59.9865 203.498 59.9865C202.857 59.9865 202.616 59.826 202.616 59.1038C202.536 57.6595 202.536 56.1348 202.536 54.6905ZM164.099 59.826C166.747 59.826 169.476 59.826 172.124 59.826C172.364 59.826 172.846 59.7458 172.926 59.5853C173.327 58.7828 173.568 57.9804 173.889 57.0978C173.648 57.0175 173.568 57.0175 173.488 57.0175C168.272 57.0175 163.137 56.9373 157.921 56.857C157.279 56.857 157.279 57.2582 157.279 57.6595C157.199 61.3506 157.199 65.0418 157.118 68.7329C157.118 69.9366 157.118 71.1402 157.118 72.2636C157.279 72.3438 157.279 72.3438 157.359 72.3438C162.254 72.3438 167.068 72.4241 171.963 72.4241C172.204 72.4241 172.445 72.1833 172.605 72.0229C173.006 71.3007 173.247 70.5785 173.648 69.6156C173.087 69.6156 172.766 69.5353 172.445 69.5353C169.556 69.5353 166.667 69.5353 163.859 69.5353C163.137 69.5353 162.816 69.3749 162.896 68.5724C162.976 66.4059 162.976 64.3196 162.976 62.153C162.976 61.3506 162.976 60.5482 162.976 59.6655C163.457 59.826 163.778 59.826 164.099 59.826ZM265.045 72.9858H270.902C270.982 65.6837 271.063 58.3014 271.223 50.9993H265.285C265.205 58.3014 265.125 65.6035 265.045 72.9858ZM284.864 51.0796C284.704 51.0796 284.383 51.4808 284.383 51.7215C284.383 53.6473 284.383 55.5731 284.383 57.5792C283.901 57.5792 283.581 57.5792 283.179 57.5792C280.13 57.5792 277.081 57.5792 274.032 57.499C273.47 57.499 273.229 57.5792 273.229 58.2212C273.229 62.8752 273.149 67.5293 273.069 72.1833C273.069 72.9858 273.309 73.1463 274.032 73.1463C279.007 73.1463 283.982 73.1463 288.957 73.1463C289.197 73.1463 289.438 73.1463 289.759 73.066C289.839 65.6837 289.92 58.3816 290 50.9993C288.235 50.9993 286.549 50.9993 284.864 51.0796ZM284.222 61.5111C284.222 64.1591 284.142 66.8873 284.142 69.5353C284.142 70.097 283.982 70.3378 283.34 70.3378C281.895 70.3378 280.371 70.3378 278.926 70.3378C278.926 67.1281 278.926 64.2393 278.926 61.2704C278.926 60.6284 279.087 60.3877 279.729 60.3877C281.173 60.4679 282.618 60.3877 284.142 60.3877C284.222 60.8692 284.222 61.1901 284.222 61.5111ZM234.793 57.3385C231.824 57.3385 228.855 57.3385 225.806 57.2582C225.485 57.2582 225.244 57.2582 224.843 57.178C224.843 56.7768 224.843 56.4558 224.843 56.0546C224.843 54.53 224.843 52.9251 224.923 51.4005C224.923 50.8388 224.763 50.5981 224.121 50.5981C222.676 50.5981 221.312 50.5981 219.868 50.5981C219.306 50.5981 219.146 50.7586 219.146 51.3203C219.146 52.5239 219.146 53.6473 219.146 54.851C219.066 58.5421 219.066 62.2333 218.985 65.9244C218.985 68.1712 218.985 70.3378 218.985 72.745C220.59 72.745 222.195 72.745 223.8 72.745C224.522 72.745 224.683 72.5043 224.683 71.8624C224.683 68.4922 224.763 65.2022 224.763 61.8321C224.763 61.2704 224.763 60.7087 224.763 60.0667H229.818V72.745C231.423 72.745 233.028 72.6648 234.633 72.745C235.435 72.745 235.595 72.5043 235.595 71.7019C235.595 67.2083 235.676 62.7147 235.756 58.2212C235.836 57.5792 235.676 57.2582 234.793 57.3385ZM251.484 67.1281H262.316C262.316 64.4801 262.316 61.9925 262.316 59.4248C262.316 57.499 262.316 57.499 260.39 57.4187C255.817 57.4187 251.243 57.3385 246.669 57.3385C246.187 57.3385 245.786 57.2582 245.786 57.9804C245.786 62.7147 245.706 67.5293 245.626 72.2636C245.626 72.745 245.706 72.9858 246.268 72.9858C251.163 72.9858 256.138 72.9858 261.032 72.9858C261.273 72.9858 261.514 72.9055 261.594 72.8253C261.995 72.0229 262.396 71.2204 262.798 70.2575H251.403V67.1281H251.484ZM251.564 60.3877C253.169 60.3877 254.693 60.3877 256.218 60.3877C256.298 60.3877 256.539 60.7087 256.539 60.8692C256.539 61.8321 256.539 62.7147 256.539 63.6776C256.539 63.8381 256.218 64.1591 256.057 64.1591C254.613 64.1591 253.169 64.1591 251.564 64.1591V60.3877V60.3877ZM243.219 57.4187C241.453 57.3385 239.768 57.4187 237.842 57.4187V72.9055H243.539C243.539 70.5785 243.539 68.2515 243.539 65.9244C243.539 63.3567 243.62 60.7889 243.62 58.1409C243.62 57.9002 243.379 57.4187 243.219 57.4187ZM243.219 50.8388C241.614 50.7586 240.089 50.7586 238.484 50.8388C238.324 50.8388 238.003 51.1598 238.003 51.3203C238.003 52.6844 238.003 54.1288 238.003 55.7336C239.768 55.7336 241.533 55.7336 243.219 55.7336C243.379 55.7336 243.7 55.4127 243.7 55.2522C243.78 53.9683 243.78 52.7647 243.78 51.4808C243.78 51.1598 243.459 50.8388 243.219 50.8388Z" fill="white"/>
<path d="M105.362 43.7775C97.097 40.5678 90.4369 38 87.3877 38C84.3384 38 77.5981 40.5678 69.4133 43.7775C65.8024 43.7775 65 46.9872 65 46.9872C65 46.9872 65.4815 61.5111 65.8827 66.2454C66.3641 72.6648 69.3331 75.393 69.3331 75.393L73.4255 79.8063L87.4679 92.0032L101.43 79.7261L105.522 75.3128C105.522 75.3128 108.411 72.5845 108.973 66.1651C109.374 61.4308 109.856 46.9069 109.856 46.9069C109.856 46.9069 108.893 43.7775 105.362 43.7775Z" fill="white"/>
<path d="M99.5845 66.3256C100.226 66.9675 101.751 70.0168 101.912 70.8994C102.072 71.7821 102.393 72.1031 101.751 72.9055C100.226 74.4301 96.6958 76.2757 93.9675 77.3188C96.8563 74.2696 95.8131 72.424 92.7639 71.7019C87.5481 70.4982 85.4618 67.6095 84.4989 63.7578C83.536 59.9062 82.4929 59.9062 81.1287 59.6655C79.6041 59.505 78.4005 60.1469 72.5428 62.5542C71.1787 64.801 70.2158 64.6405 70.2158 64.6405C68.3702 64.6405 68.6109 62.8752 68.8516 62.474C69.3331 61.5913 70.1355 61.3506 71.0984 61.3506C72.0613 61.3506 72.5428 61.9123 72.5428 61.9123C72.5428 61.9123 72.944 61.832 80.2461 58.3014C80.567 57.4187 81.7707 54.209 85.1409 54.209C88.5111 54.209 91.5603 57.4187 93.9675 57.4187C98.7019 50.8388 104.239 46.7464 104.239 46.7464L105.442 50.2771L109.775 47.3081C109.775 47.0674 109.775 46.9069 109.775 46.9069C109.775 46.9069 108.893 43.6972 105.362 43.6972C97.097 40.5678 90.4369 38 87.3877 38C84.3384 38 77.5981 40.5678 69.4133 43.7775C65.8024 43.7775 65 46.9872 65 46.9872C65 46.9872 65.4815 61.5111 65.8827 66.2454C66.3641 72.6648 69.3331 75.393 69.3331 75.393L73.4255 79.8063L87.4679 92.0032L101.43 79.7261L105.522 75.3128C105.522 75.3128 108.411 72.5845 108.973 66.1651C109.053 65.2825 109.133 63.9986 109.214 62.474C106.967 64.7208 102.152 66.3256 99.5845 66.3256Z" fill="url(#paint0_linear_508_655)"/>
<defs>
<linearGradient id="paint0_linear_508_655" x1="64.984" y1="64.9556" x2="109.776" y2="64.9556" gradientUnits="userSpaceOnUse">
<stop offset="0.4523" stop-color="#00A0E3"/>
<stop offset="0.5615" stop-color="#00579D"/>
</linearGradient>
</defs>
</svg>
