<svg width="178" height="37" viewBox="0 0 178 37" fill="none" xmlns="http://www.w3.org/2000/svg">
<path d="M43.3526 17.5063V20.5138H47.5851V23.3095H43.3526V26.5712H48.8004V29.4729H39.7559V14.6046H48.8004V17.5063H43.3526Z" fill="white"/>
<path d="M60.8368 29.383L58.0579 23.7704H56.6113V29.383H53.0145V14.5148H59.0512C60.2151 14.5148 61.2037 14.7195 62.017 15.129C62.8443 15.5385 63.4613 16.1033 63.868 16.8234C64.2746 17.5294 64.478 18.3201 64.478 19.1955C64.478 20.1839 64.1975 21.0664 63.6366 21.843C63.0897 22.6196 62.2764 23.1703 61.1967 23.495L64.6042 29.383H60.8368ZM56.6113 21.2076H58.8409C59.4999 21.2076 59.9907 21.0452 60.3132 20.7205C60.6498 20.3957 60.8181 19.9368 60.8181 19.3438C60.8181 18.779 60.6498 18.3342 60.3132 18.0095C59.9907 17.6847 59.4999 17.5223 58.8409 17.5223H56.6113V21.2076Z" fill="white"/>
<path d="M73.5648 29.6211C72.4851 29.6211 71.5175 29.4446 70.6622 29.0916C69.8068 28.7386 69.1197 28.2162 68.6008 27.5243C68.096 26.8324 67.8296 25.9994 67.8016 25.0251H71.6297C71.6858 25.5758 71.8751 25.9994 72.1976 26.2959C72.5202 26.5783 72.9408 26.7195 73.4597 26.7195C73.9925 26.7195 74.4132 26.5995 74.7217 26.3594C75.0302 26.1053 75.1844 25.7593 75.1844 25.3216C75.1844 24.9545 75.0582 24.6509 74.8058 24.4109C74.5674 24.1708 74.266 23.9732 73.9014 23.8178C73.5508 23.6625 73.046 23.486 72.3869 23.2884C71.4334 22.9918 70.6551 22.6953 70.0522 22.3988C69.4492 22.1023 68.9304 21.6646 68.4957 21.0856C68.061 20.5067 67.8436 19.7513 67.8436 18.8194C67.8436 17.4357 68.3414 16.3555 69.337 15.5789C70.3326 14.7882 71.6297 14.3928 73.2283 14.3928C74.8549 14.3928 76.166 14.7882 77.1616 15.5789C78.1572 16.3555 78.6901 17.4427 78.7602 18.8406H74.8689C74.8409 18.3605 74.6656 17.9863 74.3431 17.7181C74.0206 17.4357 73.6069 17.2945 73.1021 17.2945C72.6674 17.2945 72.3168 17.4145 72.0504 17.6545C71.784 17.8804 71.6508 18.2123 71.6508 18.65C71.6508 19.13 71.8751 19.5042 72.3238 19.7725C72.7726 20.0408 73.4737 20.3302 74.4272 20.6409C75.3808 20.9656 76.152 21.2763 76.741 21.5728C77.3439 21.8693 77.8628 22.3 78.2974 22.8648C78.7321 23.4296 78.9495 24.1567 78.9495 25.0463C78.9495 25.8935 78.7321 26.663 78.2974 27.3549C77.8768 28.0468 77.2598 28.5974 76.4465 29.0069C75.6332 29.4164 74.6726 29.6211 73.5648 29.6211Z" fill="white"/>
<path d="M86.4425 14.6046V29.4729H82.8457V14.6046H86.4425Z" fill="white"/>
<path d="M96.0743 29.6211C94.9946 29.6211 94.0271 29.4446 93.1717 29.0916C92.3163 28.7386 91.6292 28.2162 91.1104 27.5243C90.6055 26.8324 90.3391 25.9994 90.3111 25.0251H94.1392C94.1953 25.5758 94.3846 25.9994 94.7071 26.2959C95.0297 26.5783 95.4503 26.7195 95.9692 26.7195C96.502 26.7195 96.9227 26.5995 97.2312 26.3594C97.5397 26.1053 97.694 25.7593 97.694 25.3216C97.694 24.9545 97.5678 24.6509 97.3153 24.4109C97.077 24.1708 96.7755 23.9732 96.4109 23.8178C96.0603 23.6625 95.5555 23.486 94.8965 23.2884C93.9429 22.9918 93.1647 22.6953 92.5617 22.3988C91.9587 22.1023 91.4399 21.6646 91.0052 21.0856C90.5705 20.5067 90.3531 19.7513 90.3531 18.8194C90.3531 17.4357 90.8509 16.3555 91.8465 15.5789C92.8421 14.7882 94.1392 14.3928 95.7378 14.3928C97.3644 14.3928 98.6755 14.7882 99.6711 15.5789C100.667 16.3555 101.2 17.4427 101.27 18.8406H97.3784C97.3504 18.3605 97.1751 17.9863 96.8526 17.7181C96.5301 17.4357 96.1164 17.2945 95.6116 17.2945C95.1769 17.2945 94.8263 17.4145 94.5599 17.6545C94.2935 17.8804 94.1603 18.2123 94.1603 18.65C94.1603 19.13 94.3846 19.5042 94.8334 19.7725C95.2821 20.0408 95.9832 20.3302 96.9367 20.6409C97.8903 20.9656 98.6615 21.2763 99.2505 21.5728C99.8534 21.8693 100.372 22.3 100.807 22.8648C101.242 23.4296 101.459 24.1567 101.459 25.0463C101.459 25.8935 101.242 26.663 100.807 27.3549C100.386 28.0468 99.7693 28.5974 98.956 29.0069C98.1427 29.4164 97.1821 29.6211 96.0743 29.6211Z" fill="white"/>
<path d="M115.977 14.6046V17.5063H112.065V29.4729H108.468V17.5063H104.556V14.6046H115.977Z" fill="white"/>
<path d="M123.062 17.5063V20.5138H127.294V23.3095H123.062V26.5712H128.51V29.4729H119.465V14.6046H128.51V17.5063H123.062Z" fill="white"/>
<path d="M145.737 29.4729H142.14L136.124 20.302V29.4729H132.528V14.6046H136.124L142.14 23.8178V14.6046H145.737V29.4729Z" fill="white"/>
<path d="M149.417 22.0176C149.417 20.5491 149.732 19.243 150.363 18.0993C150.994 16.9415 151.871 16.0448 152.992 15.4095C154.128 14.7599 155.411 14.4352 156.842 14.4352C158.594 14.4352 160.095 14.9011 161.343 15.833C162.591 16.765 163.425 18.0358 163.846 19.6454H159.892C159.597 19.0241 159.176 18.5511 158.63 18.2264C158.097 17.9016 157.487 17.7392 156.8 17.7392C155.692 17.7392 154.794 18.1275 154.107 18.9041C153.42 19.6807 153.077 20.7185 153.077 22.0176C153.077 23.3166 153.42 24.3544 154.107 25.131C154.794 25.9076 155.692 26.2959 156.8 26.2959C157.487 26.2959 158.097 26.1335 158.63 25.8088C159.176 25.484 159.597 25.011 159.892 24.3897H163.846C163.425 25.9994 162.591 27.2702 161.343 28.2021C160.095 29.1199 158.594 29.5788 156.842 29.5788C155.411 29.5788 154.128 29.2611 152.992 28.6257C151.871 27.9762 150.994 27.0795 150.363 25.9358C149.732 24.7921 149.417 23.486 149.417 22.0176Z" fill="white"/>
<path d="M171.328 17.5063V20.5138H175.561V23.3095H171.328V26.5712H176.776V29.4729H167.731V14.6046H176.776V17.5063H171.328Z" fill="white"/>
<g clip-path="url(#clip0_208_436)">
<rect x="14.457" y="8.06787" width="21.6853" height="21.6853" rx="1.80711" fill="white"/>
<path d="M31.3182 19.5765C31.3182 20.4459 31.1186 21.2441 30.7194 21.971C30.3202 22.6836 29.7072 23.2609 28.8803 23.7027C28.0534 24.1446 27.0269 24.3655 25.8007 24.3655H23.5339V29.7532H19.877V14.7446H25.8007C26.9983 14.7446 28.0106 14.9513 28.8375 15.3646C29.6644 15.778 30.2846 16.3481 30.698 17.075C31.1115 17.8019 31.3182 18.6357 31.3182 19.5765ZM25.5227 21.4579C26.2213 21.4579 26.7417 21.294 27.0839 20.9661C27.426 20.6383 27.5971 20.1751 27.5971 19.5765C27.5971 18.9778 27.426 18.5146 27.0839 18.1868C26.7417 17.8589 26.2213 17.695 25.5227 17.695H23.5339V21.4579H25.5227Z" fill="black"/>
<path d="M31.6231 10.7786H19.877V13.4892H31.6231V10.7786Z" fill="#E50913"/>
</g>
<defs>
<clipPath id="clip0_208_436">
<rect x="14.457" y="8.06787" width="21.6853" height="21.6853" rx="1.80711" fill="white"/>
</clipPath>
</defs>
</svg>
